{
  "header": {
    "PPQ": 480,
    "bpm": 69,
    "timeSignature": [
      4,
      4
    ],
    "name": "Nutcracker - Pas de deux (excerpt)"
  },
  "startTime": 0,
  "duration": 220.08,
  "tracks": [
    {
      "id": 0,
      "instrument": "violin",
      "startTime": 0,
      "duration": 220.08,
      "length": 0,
      "notes": []
    },
    {
      "id": 1,
      "instrument": "string ensemble 1",
      "startTime": 0,
      "duration": 220.08,
      "length": 1314,
      "notes": [
        {
          "time": 0.144927,
          "name": "G3",
          "midi": 55,
          "duration": 0.143116,
          "velocity": 0.692913
        },
        {
          "time": 0.288043,
          "name": "B3",
          "midi": 59,
          "duration": 0.146739,
          "velocity": 0.692913
        },
        {
          "time": 0.434782,
          "name": "D4",
          "midi": 62,
          "duration": 0.144927,
          "velocity": 0.692913
        },
        {
          "time": 0.57971,
          "name": "G4",
          "midi": 67,
          "duration": 0.143116,
          "velocity": 0.692913
        },
        {
          "time": 0.722826,
          "name": "B4",
          "midi": 71,
          "duration": 0.146739,
          "velocity": 0.692913
        },
        {
          "time": 0.869565,
          "name": "D5",
          "midi": 74,
          "duration": 0.144928,
          "velocity": 0.692913
        },
        {
          "time": 1.014493,
          "name": "B4",
          "midi": 71,
          "duration": 0.143116,
          "velocity": 0.692913
        },
        {
          "time": 1.157608,
          "name": "G4",
          "midi": 67,
          "duration": 0.146739,
          "velocity": 0.692913
        },
        {
          "time": 1.304347,
          "name": "D4",
          "midi": 62,
          "duration": 0.144927,
          "velocity": 0.692913
        },
        {
          "time": 1.449275,
          "name": "B3",
          "midi": 59,
          "duration": 0.143116,
          "velocity": 0.692913
        },
        {
          "time": 1.592391,
          "name": "G3",
          "midi": 55,
          "duration": 0.146739,
          "velocity": 0.692913
        },
        {
          "time": 1.884057,
          "name": "G3",
          "midi": 55,
          "duration": 0.143116,
          "velocity": 0.692913
        },
        {
          "time": 2.027173,
          "name": "B3",
          "midi": 59,
          "duration": 0.146739,
          "velocity": 0.692913
        },
        {
          "time": 2.173912,
          "name": "E4",
          "midi": 64,
          "duration": 0.144928,
          "velocity": 0.692913
        },
        {
          "time": 2.31884,
          "name": "G4",
          "midi": 67,
          "duration": 0.143116,
          "velocity": 0.692913
        },
        {
          "time": 2.461956,
          "name": "B4",
          "midi": 71,
          "duration": 0.146739,
          "velocity": 0.692913
        },
        {
          "time": 2.608695,
          "name": "E5",
          "midi": 76,
          "duration": 0.144927,
          "velocity": 0.692913
        },
        {
          "time": 2.753622,
          "name": "B4",
          "midi": 71,
          "duration": 0.143116,
          "velocity": 0.692913
        },
        {
          "time": 2.896738,
          "name": "G4",
          "midi": 67,
          "duration": 0.146739,
          "velocity": 0.692913
        },
        {
          "time": 3.043477,
          "name": "E4",
          "midi": 64,
          "duration": 0.144927,
          "velocity": 0.692913
        },
        {
          "time": 3.188405,
          "name": "B3",
          "midi": 59,
          "duration": 0.143116,
          "velocity": 0.692913
        },
        {
          "time": 3.331521,
          "name": "G3",
          "midi": 55,
          "duration": 0.146739,
          "velocity": 0.692913
        },
        {
          "time": 3.623187,
          "name": "A3",
          "midi": 57,
          "duration": 0.143116,
          "velocity": 0.692913
        },
        {
          "time": 3.766303,
          "name": "C4",
          "midi": 60,
          "duration": 0.146739,
          "velocity": 0.692913
        },
        {
          "time": 3.913042,
          "name": "E4",
          "midi": 64,
          "duration": 0.144928,
          "velocity": 0.692913
        },
        {
          "time": 4.05797,
          "name": "A4",
          "midi": 69,
          "duration": 0.143116,
          "velocity": 0.692913
        },
        {
          "time": 4.201086,
          "name": "C5",
          "midi": 72,
          "duration": 0.146739,
          "velocity": 0.692913
        },
        {
          "time": 4.347825,
          "name": "E5",
          "midi": 76,
          "duration": 0.144928,
          "velocity": 0.692913
        },
        {
          "time": 4.492752,
          "name": "C5",
          "midi": 72,
          "duration": 0.143116,
          "velocity": 0.692913
        },
        {
          "time": 4.635868,
          "name": "A4",
          "midi": 69,
          "duration": 0.146739,
          "velocity": 0.692913
        },
        {
          "time": 4.782607,
          "name": "E4",
          "midi": 64,
          "duration": 0.144928,
          "velocity": 0.692913
        },
        {
          "time": 4.927535,
          "name": "C4",
          "midi": 60,
          "duration": 0.143116,
          "velocity": 0.692913
        },
        {
          "time": 5.070651,
          "name": "A3",
          "midi": 57,
          "duration": 0.146739,
          "velocity": 0.692913
        },
        {
          "time": 5.362317,
          "name": "F#3",
          "midi": 54,
          "duration": 0.143116,
          "velocity": 0.692913
        },
        {
          "time": 5.505433,
          "name": "A3",
          "midi": 57,
          "duration": 0.146739,
          "velocity": 0.692913
        },
        {
          "time": 5.652172,
          "name": "D4",
          "midi": 62,
          "duration": 0.144927,
          "velocity": 0.692913
        },
        {
          "time": 5.7971,
          "name": "F#4",
          "midi": 66,
          "duration": 0.143116,
          "velocity": 0.692913
        },
        {
          "time": 5.940216,
          "name": "A4",
          "midi": 69,
          "duration": 0.146739,
          "velocity": 0.692913
        },
        {
          "time": 6.086955,
          "name": "D5",
          "midi": 74,
          "duration": 0.144927,
          "velocity": 0.692913
        },
        {
          "time": 6.231882,
          "name": "A4",
          "midi": 69,
          "duration": 0.143116,
          "velocity": 0.692913
        },
        {
          "time": 6.374998,
          "name": "F#4",
          "midi": 66,
          "duration": 0.146739,
          "velocity": 0.692913
        },
        {
          "time": 6.521737,
          "name": "D4",
          "midi": 62,
          "duration": 0.144928,
          "velocity": 0.692913
        },
        {
          "time": 6.666665,
          "name": "A3",
          "midi": 57,
          "duration": 0.143116,
          "velocity": 0.692913
        },
        {
          "time": 6.809781,
          "name": "F#3",
          "midi": 54,
          "duration": 0.146739,
          "velocity": 0.692913
        },
        {
          "time": 7.101447,
          "name": "G3",
          "midi": 55,
          "duration": 0.143116,
          "velocity": 0.692913
        },
        {
          "time": 7.244563,
          "name": "B3",
          "midi": 59,
          "duration": 0.146739,
          "velocity": 0.692913
        },
        {
          "time": 7.391302,
          "name": "D4",
          "midi": 62,
          "duration": 0.144928,
          "velocity": 0.692913
        },
        {
          "time": 7.53623,
          "name": "G4",
          "midi": 67,
          "duration": 0.143116,
          "velocity": 0.692913
        },
        {
          "time": 7.679346,
          "name": "B4",
          "midi": 71,
          "duration": 0.146739,
          "velocity": 0.692913
        },
        {
          "time": 7.826085,
          "name": "D5",
          "midi": 74,
          "duration": 0.144928,
          "velocity": 0.692913
        },
        {
          "time": 7.971012,
          "name": "B4",
          "midi": 71,
          "duration": 0.143116,
          "velocity": 0.692913
        },
        {
          "time": 8.114128,
          "name": "G4",
          "midi": 67,
          "duration": 0.146739,
          "velocity": 0.692913
        },
        {
          "time": 8.260867,
          "name": "D4",
          "midi": 62,
          "duration": 0.144927,
          "velocity": 0.692913
        },
        {
          "time": 8.405795,
          "name": "B3",
          "midi": 59,
          "duration": 0.143116,
          "velocity": 0.692913
        },
        {
          "time": 8.548911,
          "name": "G3",
          "midi": 55,
          "duration": 0.146739,
          "velocity": 0.692913
        },
        {
          "time": 8.840577,
          "name": "G3",
          "midi": 55,
          "duration": 0.143116,
          "velocity": 0.692913
        },
        {
          "time": 8.983693,
          "name": "B3",
          "midi": 59,
          "duration": 0.146739,
          "velocity": 0.692913
        },
        {
          "time": 9.130432,
          "name": "E4",
          "midi": 64,
          "duration": 0.144927,
          "velocity": 0.692913
        },
        {
          "time": 9.27536,
          "name": "G4",
          "midi": 67,
          "duration": 0.143116,
          "velocity": 0.692913
        },
        {
          "time": 9.418476,
          "name": "B4",
          "midi": 71,
          "duration": 0.146739,
          "velocity": 0.692913
        },
        {
          "time": 9.565215,
          "name": "E5",
          "midi": 76,
          "duration": 0.144928,
          "velocity": 0.692913
        },
        {
          "time": 9.710142,
          "name": "B4",
          "midi": 71,
          "duration": 0.143116,
          "velocity": 0.692913
        },
        {
          "time": 9.853258,
          "name": "G4",
          "midi": 67,
          "duration": 0.146739,
          "velocity": 0.692913
        },
        {
          "time": 9.999997,
          "name": "E4",
          "midi": 64,
          "duration": 0.144927,
          "velocity": 0.692913
        },
        {
          "time": 10.144925,
          "name": "B3",
          "midi": 59,
          "duration": 0.143116,
          "velocity": 0.692913
        },
        {
          "time": 10.288041,
          "name": "G3",
          "midi": 55,
          "duration": 0.146739,
          "velocity": 0.692913
        },
        {
          "time": 10.43478,
          "name": "G4",
          "midi": 67,
          "duration": 0.869565,
          "velocity": 0.897638
        },
        {
          "time": 10.579707,
          "name": "A3",
          "midi": 57,
          "duration": 0.143116,
          "velocity": 0.590551
        },
        {
          "time": 10.722823,
          "name": "C4",
          "midi": 60,
          "duration": 0.146739,
          "velocity": 0.590551
        },
        {
          "time": 10.869562,
          "name": "E4",
          "midi": 64,
          "duration": 0.144927,
          "velocity": 0.590551
        },
        {
          "time": 11.01449,
          "name": "A4",
          "midi": 69,
          "duration": 0.143116,
          "velocity": 0.590551
        },
        {
          "time": 11.157606,
          "name": "C5",
          "midi": 72,
          "duration": 0.146739,
          "velocity": 0.590551
        },
        {
          "time": 11.304345,
          "name": "E5",
          "midi": 76,
          "duration": 0.144928,
          "velocity": 0.590551
        },
        {
          "time": 11.304345,
          "name": "F#4",
          "midi": 66,
          "duration": 0.434783,
          "velocity": 0.897638
        },
        {
          "time": 11.449272,
          "name": "C5",
          "midi": 72,
          "duration": 0.143116,
          "velocity": 0.590551
        },
        {
          "time": 11.592388,
          "name": "A4",
          "midi": 69,
          "duration": 0.146739,
          "velocity": 0.590551
        },
        {
          "time": 11.739127,
          "name": "E4",
          "midi": 64,
          "duration": 0.144928,
          "velocity": 0.590551
        },
        {
          "time": 11.739127,
          "name": "E4",
          "midi": 64,
          "duration": 0.434783,
          "velocity": 0.897638
        },
        {
          "time": 11.884055,
          "name": "C4",
          "midi": 60,
          "duration": 0.143116,
          "velocity": 0.590551
        },
        {
          "time": 12.027171,
          "name": "A3",
          "midi": 57,
          "duration": 0.146739,
          "velocity": 0.590551
        },
        {
          "time": 12.17391,
          "name": "D4",
          "midi": 62,
          "duration": 0.434783,
          "velocity": 0.692913
        },
        {
          "time": 12.318837,
          "name": "F#3",
          "midi": 54,
          "duration": 0.143116,
          "velocity": 0.488189
        },
        {
          "time": 12.461953,
          "name": "A3",
          "midi": 57,
          "duration": 0.146739,
          "velocity": 0.488189
        },
        {
          "time": 12.608693,
          "name": "D4",
          "midi": 62,
          "duration": 0.144927,
          "velocity": 0.488189
        },
        {
          "time": 12.608693,
          "name": "C4",
          "midi": 60,
          "duration": 0.869565,
          "velocity": 0.692913
        },
        {
          "time": 12.75362,
          "name": "F#4",
          "midi": 66,
          "duration": 0.143116,
          "velocity": 0.488189
        },
        {
          "time": 12.896736,
          "name": "A4",
          "midi": 69,
          "duration": 0.146739,
          "velocity": 0.488189
        },
        {
          "time": 13.043475,
          "name": "D5",
          "midi": 74,
          "duration": 0.144927,
          "velocity": 0.488189
        },
        {
          "time": 13.188402,
          "name": "A4",
          "midi": 69,
          "duration": 0.143116,
          "velocity": 0.488189
        },
        {
          "time": 13.331518,
          "name": "F#4",
          "midi": 66,
          "duration": 0.146739,
          "velocity": 0.488189
        },
        {
          "time": 13.478257,
          "name": "D4",
          "midi": 62,
          "duration": 0.144928,
          "velocity": 0.488189
        },
        {
          "time": 13.478257,
          "name": "B3",
          "midi": 59,
          "duration": 0.217391,
          "velocity": 0.692913
        },
        {
          "time": 13.623185,
          "name": "F#4",
          "midi": 66,
          "duration": 0.143116,
          "velocity": 0.488189
        },
        {
          "time": 13.695649,
          "name": "A3",
          "midi": 57,
          "duration": 0.217391,
          "velocity": 0.692913
        },
        {
          "time": 13.766301,
          "name": "D4",
          "midi": 62,
          "duration": 0.146739,
          "velocity": 0.488189
        },
        {
          "time": 14.057967,
          "name": "B3",
          "midi": 59,
          "duration": 0.143116,
          "velocity": 0.590551
        },
        {
          "time": 14.201083,
          "name": "D4",
          "midi": 62,
          "duration": 0.146739,
          "velocity": 0.590551
        },
        {
          "time": 14.347822,
          "name": "G4",
          "midi": 67,
          "duration": 0.144927,
          "velocity": 0.590551
        },
        {
          "time": 14.49275,
          "name": "D4",
          "midi": 62,
          "duration": 0.143116,
          "velocity": 0.590551
        },
        {
          "time": 14.635866,
          "name": "B4",
          "midi": 71,
          "duration": 0.146739,
          "velocity": 0.590551
        },
        {
          "time": 14.782605,
          "name": "D5",
          "midi": 74,
          "duration": 0.144927,
          "velocity": 0.590551
        },
        {
          "time": 14.927532,
          "name": "B4",
          "midi": 71,
          "duration": 0.143116,
          "velocity": 0.590551
        },
        {
          "time": 15.070648,
          "name": "G4",
          "midi": 67,
          "duration": 0.146739,
          "velocity": 0.590551
        },
        {
          "time": 15.217387,
          "name": "D4",
          "midi": 62,
          "duration": 0.144927,
          "velocity": 0.590551
        },
        {
          "time": 15.362315,
          "name": "B3",
          "midi": 59,
          "duration": 0.143116,
          "velocity": 0.590551
        },
        {
          "time": 15.505431,
          "name": "G3",
          "midi": 55,
          "duration": 0.146739,
          "velocity": 0.590551
        },
        {
          "time": 15.797097,
          "name": "F#3",
          "midi": 54,
          "duration": 0.143116,
          "velocity": 0.590551
        },
        {
          "time": 15.940213,
          "name": "A3",
          "midi": 57,
          "duration": 0.146739,
          "velocity": 0.590551
        },
        {
          "time": 16.086952,
          "name": "D4",
          "midi": 62,
          "duration": 0.144927,
          "velocity": 0.590551
        },
        {
          "time": 16.23188,
          "name": "F#4",
          "midi": 66,
          "duration": 0.143116,
          "velocity": 0.590551
        },
        {
          "time": 16.374996,
          "name": "A4",
          "midi": 69,
          "duration": 0.146739,
          "velocity": 0.590551
        },
        {
          "time": 16.521735,
          "name": "D5",
          "midi": 74,
          "duration": 0.144927,
          "velocity": 0.488189
        },
        {
          "time": 16.666662,
          "name": "A4",
          "midi": 69,
          "duration": 0.143116,
          "velocity": 0.488189
        },
        {
          "time": 16.809778,
          "name": "F#4",
          "midi": 66,
          "duration": 0.146739,
          "velocity": 0.488189
        },
        {
          "time": 16.956517,
          "name": "D4",
          "midi": 62,
          "duration": 0.144928,
          "velocity": 0.488189
        },
        {
          "time": 17.101445,
          "name": "F#4",
          "midi": 66,
          "duration": 0.143116,
          "velocity": 0.488189
        },
        {
          "time": 17.244561,
          "name": "D4",
          "midi": 62,
          "duration": 0.146739,
          "velocity": 0.488189
        },
        {
          "time": 17.536227,
          "name": "B3",
          "midi": 59,
          "duration": 0.143116,
          "velocity": 0.488189
        },
        {
          "time": 17.679343,
          "name": "D4",
          "midi": 62,
          "duration": 0.146739,
          "velocity": 0.488189
        },
        {
          "time": 17.826082,
          "name": "G4",
          "midi": 67,
          "duration": 0.144928,
          "velocity": 0.488189
        },
        {
          "time": 17.97101,
          "name": "D4",
          "midi": 62,
          "duration": 0.143116,
          "velocity": 0.488189
        },
        {
          "time": 18.114126,
          "name": "B4",
          "midi": 71,
          "duration": 0.146739,
          "velocity": 0.488189
        },
        {
          "time": 18.260865,
          "name": "D5",
          "midi": 74,
          "duration": 0.144927,
          "velocity": 0.488189
        },
        {
          "time": 18.405792,
          "name": "B4",
          "midi": 71,
          "duration": 0.143116,
          "velocity": 0.488189
        },
        {
          "time": 18.548908,
          "name": "G4",
          "midi": 67,
          "duration": 0.146739,
          "velocity": 0.488189
        },
        {
          "time": 18.695647,
          "name": "D4",
          "midi": 62,
          "duration": 0.144927,
          "velocity": 0.488189
        },
        {
          "time": 18.840575,
          "name": "B3",
          "midi": 59,
          "duration": 0.143116,
          "velocity": 0.488189
        },
        {
          "time": 18.983691,
          "name": "G3",
          "midi": 55,
          "duration": 0.146739,
          "velocity": 0.488189
        },
        {
          "time": 19.275357,
          "name": "F#3",
          "midi": 54,
          "duration": 0.143116,
          "velocity": 0.488189
        },
        {
          "time": 19.418473,
          "name": "A3",
          "midi": 57,
          "duration": 0.146739,
          "velocity": 0.488189
        },
        {
          "time": 19.565212,
          "name": "D4",
          "midi": 62,
          "duration": 0.144927,
          "velocity": 0.488189
        },
        {
          "time": 19.71014,
          "name": "F#4",
          "midi": 66,
          "duration": 0.143116,
          "velocity": 0.488189
        },
        {
          "time": 19.853256,
          "name": "A4",
          "midi": 69,
          "duration": 0.146739,
          "velocity": 0.488189
        },
        {
          "time": 19.999995,
          "name": "D5",
          "midi": 74,
          "duration": 0.144928,
          "velocity": 0.488189
        },
        {
          "time": 20.144922,
          "name": "A4",
          "midi": 69,
          "duration": 0.143116,
          "velocity": 0.488189
        },
        {
          "time": 20.288038,
          "name": "F#4",
          "midi": 66,
          "duration": 0.146739,
          "velocity": 0.488189
        },
        {
          "time": 20.434777,
          "name": "D4",
          "midi": 62,
          "duration": 0.144928,
          "velocity": 0.488189
        },
        {
          "time": 20.579705,
          "name": "F#4",
          "midi": 66,
          "duration": 0.143116,
          "velocity": 0.488189
        },
        {
          "time": 20.722821,
          "name": "D4",
          "midi": 62,
          "duration": 0.146739,
          "velocity": 0.488189
        },
        {
          "time": 21.014488,
          "name": "B3",
          "midi": 59,
          "duration": 0.143116,
          "velocity": 0.488189
        },
        {
          "time": 21.157603,
          "name": "D4",
          "midi": 62,
          "duration": 0.146739,
          "velocity": 0.488189
        },
        {
          "time": 21.304342,
          "name": "G4",
          "midi": 67,
          "duration": 0.144928,
          "velocity": 0.488189
        },
        {
          "time": 21.44927,
          "name": "D4",
          "midi": 62,
          "duration": 0.143116,
          "velocity": 0.488189
        },
        {
          "time": 21.592386,
          "name": "B4",
          "midi": 71,
          "duration": 0.146739,
          "velocity": 0.488189
        },
        {
          "time": 21.739125,
          "name": "D5",
          "midi": 74,
          "duration": 0.144928,
          "velocity": 0.488189
        },
        {
          "time": 21.884052,
          "name": "B4",
          "midi": 71,
          "duration": 0.143116,
          "velocity": 0.488189
        },
        {
          "time": 22.027168,
          "name": "G4",
          "midi": 67,
          "duration": 0.146739,
          "velocity": 0.488189
        },
        {
          "time": 22.173907,
          "name": "D4",
          "midi": 62,
          "duration": 0.144928,
          "velocity": 0.488189
        },
        {
          "time": 22.318835,
          "name": "B3",
          "midi": 59,
          "duration": 0.143116,
          "velocity": 0.488189
        },
        {
          "time": 22.461951,
          "name": "G3",
          "midi": 55,
          "duration": 0.146739,
          "velocity": 0.488189
        },
        {
          "time": 22.753617,
          "name": "G3",
          "midi": 55,
          "duration": 0.143116,
          "velocity": 0.488189
        },
        {
          "time": 22.896733,
          "name": "B3",
          "midi": 59,
          "duration": 0.146739,
          "velocity": 0.488189
        },
        {
          "time": 23.043473,
          "name": "E4",
          "midi": 64,
          "duration": 0.144928,
          "velocity": 0.488189
        },
        {
          "time": 23.1884,
          "name": "G4",
          "midi": 67,
          "duration": 0.143116,
          "velocity": 0.488189
        },
        {
          "time": 23.331516,
          "name": "B4",
          "midi": 71,
          "duration": 0.146739,
          "velocity": 0.488189
        },
        {
          "time": 23.478255,
          "name": "E5",
          "midi": 76,
          "duration": 0.144928,
          "velocity": 0.590551
        },
        {
          "time": 23.623182,
          "name": "B4",
          "midi": 71,
          "duration": 0.143116,
          "velocity": 0.590551
        },
        {
          "time": 23.766298,
          "name": "G4",
          "midi": 67,
          "duration": 0.146739,
          "velocity": 0.590551
        },
        {
          "time": 23.913037,
          "name": "E4",
          "midi": 64,
          "duration": 0.144928,
          "velocity": 0.590551
        },
        {
          "time": 24.057965,
          "name": "B3",
          "midi": 59,
          "duration": 0.143116,
          "velocity": 0.590551
        },
        {
          "time": 24.201081,
          "name": "G3",
          "midi": 55,
          "duration": 0.146739,
          "velocity": 0.590551
        },
        {
          "time": 24.34782,
          "name": "E4",
          "midi": 64,
          "duration": 0.144928,
          "velocity": 0.692913
        },
        {
          "time": 24.492748,
          "name": "A3",
          "midi": 57,
          "duration": 0.143116,
          "velocity": 0.692913
        },
        {
          "time": 24.635863,
          "name": "C4",
          "midi": 60,
          "duration": 0.146739,
          "velocity": 0.692913
        },
        {
          "time": 24.782602,
          "name": "E4",
          "midi": 64,
          "duration": 0.144928,
          "velocity": 0.692913
        },
        {
          "time": 24.92753,
          "name": "F#4",
          "midi": 66,
          "duration": 0.143116,
          "velocity": 0.692913
        },
        {
          "time": 25.070646,
          "name": "A4",
          "midi": 69,
          "duration": 0.146739,
          "velocity": 0.692913
        },
        {
          "time": 25.217385,
          "name": "E5",
          "midi": 76,
          "duration": 0.144928,
          "velocity": 0.692913
        },
        {
          "time": 25.362313,
          "name": "A4",
          "midi": 69,
          "duration": 0.143116,
          "velocity": 0.692913
        },
        {
          "time": 25.505428,
          "name": "F#4",
          "midi": 66,
          "duration": 0.146739,
          "velocity": 0.692913
        },
        {
          "time": 25.652167,
          "name": "E4",
          "midi": 64,
          "duration": 0.144928,
          "velocity": 0.692913
        },
        {
          "time": 25.797095,
          "name": "F#4",
          "midi": 66,
          "duration": 0.143116,
          "velocity": 0.692913
        },
        {
          "time": 25.940211,
          "name": "E4",
          "midi": 64,
          "duration": 0.146739,
          "velocity": 0.692913
        },
        {
          "time": 26.231877,
          "name": "D#4",
          "midi": 63,
          "duration": 0.143116,
          "velocity": 0.590551
        },
        {
          "time": 26.374993,
          "name": "F#4",
          "midi": 66,
          "duration": 0.146739,
          "velocity": 0.590551
        },
        {
          "time": 26.521732,
          "name": "B4",
          "midi": 71,
          "duration": 0.144928,
          "velocity": 0.590551
        },
        {
          "time": 26.66666,
          "name": "F#4",
          "midi": 66,
          "duration": 0.143116,
          "velocity": 0.590551
        },
        {
          "time": 26.809776,
          "name": "B4",
          "midi": 71,
          "duration": 0.146739,
          "velocity": 0.590551
        },
        {
          "time": 26.956515,
          "name": "D#5",
          "midi": 75,
          "duration": 0.144928,
          "velocity": 0.590551
        },
        {
          "time": 27.101442,
          "name": "B4",
          "midi": 71,
          "duration": 0.143116,
          "velocity": 0.590551
        },
        {
          "time": 27.244558,
          "name": "F#4",
          "midi": 66,
          "duration": 0.146739,
          "velocity": 0.590551
        },
        {
          "time": 27.391298,
          "name": "B4",
          "midi": 71,
          "duration": 0.144928,
          "velocity": 0.590551
        },
        {
          "time": 27.536225,
          "name": "D#4",
          "midi": 63,
          "duration": 0.143116,
          "velocity": 0.590551
        },
        {
          "time": 27.679341,
          "name": "B3",
          "midi": 59,
          "duration": 0.146739,
          "velocity": 0.590551
        },
        {
          "time": 27.971007,
          "name": "G3",
          "midi": 55,
          "duration": 0.143116,
          "velocity": 0.590551
        },
        {
          "time": 28.114123,
          "name": "B3",
          "midi": 59,
          "duration": 0.146739,
          "velocity": 0.590551
        },
        {
          "time": 28.260862,
          "name": "E4",
          "midi": 64,
          "duration": 0.144928,
          "velocity": 0.590551
        },
        {
          "time": 28.40579,
          "name": "G4",
          "midi": 67,
          "duration": 0.143116,
          "velocity": 0.590551
        },
        {
          "time": 28.548906,
          "name": "B4",
          "midi": 71,
          "duration": 0.146739,
          "velocity": 0.590551
        },
        {
          "time": 28.695645,
          "name": "E5",
          "midi": 76,
          "duration": 0.144928,
          "velocity": 0.590551
        },
        {
          "time": 28.840573,
          "name": "B4",
          "midi": 71,
          "duration": 0.143116,
          "velocity": 0.590551
        },
        {
          "time": 28.983688,
          "name": "G4",
          "midi": 67,
          "duration": 0.146739,
          "velocity": 0.590551
        },
        {
          "time": 29.130427,
          "name": "E4",
          "midi": 64,
          "duration": 0.144928,
          "velocity": 0.590551
        },
        {
          "time": 29.275355,
          "name": "B3",
          "midi": 59,
          "duration": 0.143116,
          "velocity": 0.590551
        },
        {
          "time": 29.418471,
          "name": "G3",
          "midi": 55,
          "duration": 0.146739,
          "velocity": 0.590551
        },
        {
          "time": 29.710138,
          "name": "A3",
          "midi": 57,
          "duration": 0.143116,
          "velocity": 0.488189
        },
        {
          "time": 29.853253,
          "name": "C4",
          "midi": 60,
          "duration": 0.146739,
          "velocity": 0.488189
        },
        {
          "time": 29.999992,
          "name": "E4",
          "midi": 64,
          "duration": 0.144928,
          "velocity": 0.488189
        },
        {
          "time": 30.14492,
          "name": "A4",
          "midi": 69,
          "duration": 0.143116,
          "velocity": 0.488189
        },
        {
          "time": 30.288036,
          "name": "C5",
          "midi": 72,
          "duration": 0.146739,
          "velocity": 0.488189
        },
        {
          "time": 30.434775,
          "name": "E5",
          "midi": 76,
          "duration": 0.144928,
          "velocity": 0.488189
        },
        {
          "time": 30.579702,
          "name": "C5",
          "midi": 72,
          "duration": 0.143116,
          "velocity": 0.488189
        },
        {
          "time": 30.722818,
          "name": "A4",
          "midi": 69,
          "duration": 0.146739,
          "velocity": 0.488189
        },
        {
          "time": 30.869557,
          "name": "E4",
          "midi": 64,
          "duration": 0.144928,
          "velocity": 0.488189
        },
        {
          "time": 31.014485,
          "name": "C4",
          "midi": 60,
          "duration": 0.143116,
          "velocity": 0.488189
        },
        {
          "time": 31.157601,
          "name": "A3",
          "midi": 57,
          "duration": 0.146739,
          "velocity": 0.488189
        },
        {
          "time": 31.449267,
          "name": "G3",
          "midi": 55,
          "duration": 0.143116,
          "velocity": 0.488189
        },
        {
          "time": 31.592383,
          "name": "B3",
          "midi": 59,
          "duration": 0.146739,
          "velocity": 0.488189
        },
        {
          "time": 31.739123,
          "name": "E4",
          "midi": 64,
          "duration": 0.144927,
          "velocity": 0.488189
        },
        {
          "time": 31.88405,
          "name": "G4",
          "midi": 67,
          "duration": 0.143116,
          "velocity": 0.488189
        },
        {
          "time": 32.027166,
          "name": "B4",
          "midi": 71,
          "duration": 0.146739,
          "velocity": 0.488189
        },
        {
          "time": 32.173905,
          "name": "E5",
          "midi": 76,
          "duration": 0.144928,
          "velocity": 0.488189
        },
        {
          "time": 32.318832,
          "name": "B4",
          "midi": 71,
          "duration": 0.143116,
          "velocity": 0.488189
        },
        {
          "time": 32.461948,
          "name": "G4",
          "midi": 67,
          "duration": 0.146739,
          "velocity": 0.488189
        },
        {
          "time": 32.608687,
          "name": "E4",
          "midi": 64,
          "duration": 0.144928,
          "velocity": 0.488189
        },
        {
          "time": 32.753615,
          "name": "B3",
          "midi": 59,
          "duration": 0.143116,
          "velocity": 0.488189
        },
        {
          "time": 32.896731,
          "name": "G3",
          "midi": 55,
          "duration": 0.146739,
          "velocity": 0.488189
        },
        {
          "time": 33.188398,
          "name": "A3",
          "midi": 57,
          "duration": 0.143116,
          "velocity": 0.488189
        },
        {
          "time": 33.331513,
          "name": "C4",
          "midi": 60,
          "duration": 0.146739,
          "velocity": 0.488189
        },
        {
          "time": 33.478252,
          "name": "E4",
          "midi": 64,
          "duration": 0.144928,
          "velocity": 0.488189
        },
        {
          "time": 33.62318,
          "name": "A4",
          "midi": 69,
          "duration": 0.143116,
          "velocity": 0.488189
        },
        {
          "time": 33.766296,
          "name": "C5",
          "midi": 72,
          "duration": 0.146739,
          "velocity": 0.488189
        },
        {
          "time": 33.913035,
          "name": "E5",
          "midi": 76,
          "duration": 0.144928,
          "velocity": 0.488189
        },
        {
          "time": 34.057962,
          "name": "C5",
          "midi": 72,
          "duration": 0.143116,
          "velocity": 0.488189
        },
        {
          "time": 34.201078,
          "name": "A4",
          "midi": 69,
          "duration": 0.146739,
          "velocity": 0.488189
        },
        {
          "time": 34.347817,
          "name": "E4",
          "midi": 64,
          "duration": 0.144928,
          "velocity": 0.488189
        },
        {
          "time": 34.492745,
          "name": "C4",
          "midi": 60,
          "duration": 0.143116,
          "velocity": 0.488189
        },
        {
          "time": 34.635861,
          "name": "A3",
          "midi": 57,
          "duration": 0.146739,
          "velocity": 0.488189
        },
        {
          "time": 34.927527,
          "name": "G3",
          "midi": 55,
          "duration": 0.143116,
          "velocity": 0.488189
        },
        {
          "time": 35.070643,
          "name": "B3",
          "midi": 59,
          "duration": 0.146739,
          "velocity": 0.488189
        },
        {
          "time": 35.217382,
          "name": "E4",
          "midi": 64,
          "duration": 0.144927,
          "velocity": 0.488189
        },
        {
          "time": 35.36231,
          "name": "G4",
          "midi": 67,
          "duration": 0.143116,
          "velocity": 0.488189
        },
        {
          "time": 35.505426,
          "name": "B4",
          "midi": 71,
          "duration": 0.146739,
          "velocity": 0.488189
        },
        {
          "time": 35.652165,
          "name": "E5",
          "midi": 76,
          "duration": 0.144928,
          "velocity": 0.488189
        },
        {
          "time": 35.797092,
          "name": "B4",
          "midi": 71,
          "duration": 0.143116,
          "velocity": 0.488189
        },
        {
          "time": 35.940208,
          "name": "G4",
          "midi": 67,
          "duration": 0.146739,
          "velocity": 0.488189
        },
        {
          "time": 36.086947,
          "name": "E4",
          "midi": 64,
          "duration": 0.144928,
          "velocity": 0.488189
        },
        {
          "time": 36.231875,
          "name": "B3",
          "midi": 59,
          "duration": 0.143116,
          "velocity": 0.488189
        },
        {
          "time": 36.374991,
          "name": "G3",
          "midi": 55,
          "duration": 0.146739,
          "velocity": 0.488189
        },
        {
          "time": 36.666657,
          "name": "G3",
          "midi": 55,
          "duration": 0.143116,
          "velocity": 0.590551
        },
        {
          "time": 36.809773,
          "name": "B3",
          "midi": 59,
          "duration": 0.146739,
          "velocity": 0.590551
        },
        {
          "time": 36.956512,
          "name": "E4",
          "midi": 64,
          "duration": 0.144928,
          "velocity": 0.590551
        },
        {
          "time": 37.10144,
          "name": "G4",
          "midi": 67,
          "duration": 0.143116,
          "velocity": 0.590551
        },
        {
          "time": 37.244556,
          "name": "B4",
          "midi": 71,
          "duration": 0.146739,
          "velocity": 0.590551
        },
        {
          "time": 37.391295,
          "name": "E5",
          "midi": 76,
          "duration": 0.144927,
          "velocity": 0.590551
        },
        {
          "time": 37.536222,
          "name": "B4",
          "midi": 71,
          "duration": 0.143116,
          "velocity": 0.590551
        },
        {
          "time": 37.679338,
          "name": "G4",
          "midi": 67,
          "duration": 0.146739,
          "velocity": 0.590551
        },
        {
          "time": 37.826077,
          "name": "E4",
          "midi": 64,
          "duration": 0.144927,
          "velocity": 0.590551
        },
        {
          "time": 37.971005,
          "name": "G4",
          "midi": 67,
          "duration": 0.143116,
          "velocity": 0.590551
        },
        {
          "time": 38.114121,
          "name": "E4",
          "midi": 64,
          "duration": 0.146739,
          "velocity": 0.590551
        },
        {
          "time": 38.26086,
          "name": "B4",
          "midi": 71,
          "duration": 0.869565,
          "velocity": 0.897638
        },
        {
          "time": 39.130425,
          "name": "A4",
          "midi": 69,
          "duration": 0.434782,
          "velocity": 0.897638
        },
        {
          "time": 39.565207,
          "name": "G4",
          "midi": 67,
          "duration": 0.434783,
          "velocity": 0.897638
        },
        {
          "time": 39.565207,
          "name": "G4",
          "midi": 67,
          "duration": 0.144928,
          "velocity": 0.590551
        },
        {
          "time": 39.710135,
          "name": "E4",
          "midi": 64,
          "duration": 0.143116,
          "velocity": 0.590551
        },
        {
          "time": 39.853251,
          "name": "A3",
          "midi": 57,
          "duration": 0.146739,
          "velocity": 0.590551
        },
        {
          "time": 39.99999,
          "name": "F#4",
          "midi": 66,
          "duration": 0.434782,
          "velocity": 0.692913
        },
        {
          "time": 39.99999,
          "name": "G3",
          "midi": 55,
          "duration": 0.434782,
          "velocity": 0.590551
        },
        {
          "time": 39.99999,
          "name": "C#4",
          "midi": 61,
          "duration": 0.434782,
          "velocity": 0.590551
        },
        {
          "time": 40.434772,
          "name": "E4",
          "midi": 64,
          "duration": 0.869565,
          "velocity": 0.692913
        },
        {
          "time": 40.434772,
          "name": "E4",
          "midi": 64,
          "duration": 0.144928,
          "velocity": 0.488189
        },
        {
          "time": 40.5797,
          "name": "G4",
          "midi": 67,
          "duration": 0.143116,
          "velocity": 0.488189
        },
        {
          "time": 40.722816,
          "name": "C#5",
          "midi": 73,
          "duration": 0.146739,
          "velocity": 0.488189
        },
        {
          "time": 40.869555,
          "name": "E5",
          "midi": 76,
          "duration": 0.144928,
          "velocity": 0.488189
        },
        {
          "time": 41.014482,
          "name": "C#5",
          "midi": 73,
          "duration": 0.143116,
          "velocity": 0.488189
        },
        {
          "time": 41.157598,
          "name": "G4",
          "midi": 67,
          "duration": 0.146739,
          "velocity": 0.488189
        },
        {
          "time": 41.304337,
          "name": "D4",
          "midi": 62,
          "duration": 0.217391,
          "velocity": 0.692913
        },
        {
          "time": 41.304337,
          "name": "E4",
          "midi": 64,
          "duration": 0.144927,
          "velocity": 0.488189
        },
        {
          "time": 41.449265,
          "name": "G4",
          "midi": 67,
          "duration": 0.143116,
          "velocity": 0.488189
        },
        {
          "time": 41.521729,
          "name": "C#4",
          "midi": 61,
          "duration": 0.217391,
          "velocity": 0.692913
        },
        {
          "time": 41.592381,
          "name": "E4",
          "midi": 64,
          "duration": 0.146739,
          "velocity": 0.488189
        },
        {
          "time": 41.73912,
          "name": "D4",
          "midi": 62,
          "duration": 1.304347,
          "velocity": 0.590551
        },
        {
          "time": 42.31883,
          "name": "F#4",
          "midi": 66,
          "duration": 0.143116,
          "velocity": 0.488189
        },
        {
          "time": 42.461946,
          "name": "A4",
          "midi": 69,
          "duration": 0.146739,
          "velocity": 0.488189
        },
        {
          "time": 42.608685,
          "name": "D5",
          "midi": 74,
          "duration": 0.144928,
          "velocity": 0.488189
        },
        {
          "time": 42.753612,
          "name": "A4",
          "midi": 69,
          "duration": 0.143116,
          "velocity": 0.488189
        },
        {
          "time": 42.896728,
          "name": "F#4",
          "midi": 66,
          "duration": 0.146739,
          "velocity": 0.488189
        },
        {
          "time": 43.043467,
          "name": "E4",
          "midi": 64,
          "duration": 0.108696,
          "velocity": 0.590551
        },
        {
          "time": 43.152163,
          "name": "D4",
          "midi": 62,
          "duration": 0.108696,
          "velocity": 0.590551
        },
        {
          "time": 43.260859,
          "name": "C#4",
          "midi": 61,
          "duration": 0.108696,
          "velocity": 0.590551
        },
        {
          "time": 43.369554,
          "name": "D4",
          "midi": 62,
          "duration": 0.108696,
          "velocity": 0.590551
        },
        {
          "time": 43.47825,
          "name": "D#4",
          "midi": 63,
          "duration": 1.304347,
          "velocity": 0.590551
        },
        {
          "time": 44.05796,
          "name": "F#4",
          "midi": 66,
          "duration": 0.143116,
          "velocity": 0.488189
        },
        {
          "time": 44.201076,
          "name": "A4",
          "midi": 69,
          "duration": 0.146739,
          "velocity": 0.488189
        },
        {
          "time": 44.347815,
          "name": "D#5",
          "midi": 75,
          "duration": 0.144927,
          "velocity": 0.488189
        },
        {
          "time": 44.492742,
          "name": "A4",
          "midi": 69,
          "duration": 0.143116,
          "velocity": 0.488189
        },
        {
          "time": 44.635858,
          "name": "F#4",
          "midi": 66,
          "duration": 0.146739,
          "velocity": 0.488189
        },
        {
          "time": 44.782597,
          "name": "E4",
          "midi": 64,
          "duration": 0.108696,
          "velocity": 0.692913
        },
        {
          "time": 44.891293,
          "name": "D#4",
          "midi": 63,
          "duration": 0.108696,
          "velocity": 0.692913
        },
        {
          "time": 44.999989,
          "name": "D4",
          "midi": 62,
          "duration": 0.108696,
          "velocity": 0.692913
        },
        {
          "time": 45.108684,
          "name": "D#4",
          "midi": 63,
          "duration": 0.108696,
          "velocity": 0.692913
        },
        {
          "time": 45.21738,
          "name": "G5",
          "midi": 79,
          "duration": 0.869565,
          "velocity": 0.897638
        },
        {
          "time": 45.21738,
          "name": "C6",
          "midi": 84,
          "duration": 0.869565,
          "velocity": 0.897638
        },
        {
          "time": 45.21738,
          "name": "E6",
          "midi": 88,
          "duration": 0.869565,
          "velocity": 0.897638
        },
        {
          "time": 45.21738,
          "name": "G6",
          "midi": 91,
          "duration": 0.869565,
          "velocity": 0.897638
        },
        {
          "time": 46.086945,
          "name": "F#5",
          "midi": 78,
          "duration": 0.434783,
          "velocity": 0.897638
        },
        {
          "time": 46.086945,
          "name": "F#6",
          "midi": 90,
          "duration": 0.434783,
          "velocity": 0.897638
        },
        {
          "time": 46.521727,
          "name": "E5",
          "midi": 76,
          "duration": 0.434782,
          "velocity": 0.897638
        },
        {
          "time": 46.521727,
          "name": "E6",
          "midi": 88,
          "duration": 0.434782,
          "velocity": 0.897638
        },
        {
          "time": 46.95651,
          "name": "D5",
          "midi": 74,
          "duration": 0.434782,
          "velocity": 0.692913
        },
        {
          "time": 46.95651,
          "name": "A5",
          "midi": 81,
          "duration": 0.434782,
          "velocity": 0.692913
        },
        {
          "time": 46.95651,
          "name": "D6",
          "midi": 86,
          "duration": 0.434782,
          "velocity": 0.692913
        },
        {
          "time": 47.391292,
          "name": "C5",
          "midi": 72,
          "duration": 0.434783,
          "velocity": 0.692913
        },
        {
          "time": 47.391292,
          "name": "C6",
          "midi": 84,
          "duration": 0.434783,
          "velocity": 0.692913
        },
        {
          "time": 47.826075,
          "name": "B4",
          "midi": 71,
          "duration": 0.434782,
          "velocity": 0.692913
        },
        {
          "time": 47.826075,
          "name": "B5",
          "midi": 83,
          "duration": 0.434782,
          "velocity": 0.692913
        },
        {
          "time": 48.260857,
          "name": "A4",
          "midi": 69,
          "duration": 0.434783,
          "velocity": 0.692913
        },
        {
          "time": 48.260857,
          "name": "A5",
          "midi": 81,
          "duration": 0.434783,
          "velocity": 0.692913
        },
        {
          "time": 48.69564,
          "name": "G4",
          "midi": 67,
          "duration": 0.57971,
          "velocity": 0.692913
        },
        {
          "time": 48.69564,
          "name": "B4",
          "midi": 71,
          "duration": 0.57971,
          "velocity": 0.692913
        },
        {
          "time": 48.69564,
          "name": "E5",
          "midi": 76,
          "duration": 0.57971,
          "velocity": 0.692913
        },
        {
          "time": 48.69564,
          "name": "G5",
          "midi": 79,
          "duration": 0.57971,
          "velocity": 0.692913
        },
        {
          "time": 49.27535,
          "name": "B4",
          "midi": 71,
          "duration": 0.143116,
          "velocity": 0.590551
        },
        {
          "time": 49.418466,
          "name": "E5",
          "midi": 76,
          "duration": 0.146739,
          "velocity": 0.590551
        },
        {
          "time": 49.565205,
          "name": "G5",
          "midi": 79,
          "duration": 0.144928,
          "velocity": 0.590551
        },
        {
          "time": 49.710132,
          "name": "E5",
          "midi": 76,
          "duration": 0.143116,
          "velocity": 0.590551
        },
        {
          "time": 49.853248,
          "name": "B4",
          "midi": 71,
          "duration": 0.146739,
          "velocity": 0.590551
        },
        {
          "time": 49.999987,
          "name": "A4",
          "midi": 69,
          "duration": 0.108696,
          "velocity": 0.692913
        },
        {
          "time": 50.108683,
          "name": "G4",
          "midi": 67,
          "duration": 0.108696,
          "velocity": 0.692913
        },
        {
          "time": 50.217379,
          "name": "F#4",
          "midi": 66,
          "duration": 0.108696,
          "velocity": 0.692913
        },
        {
          "time": 50.326074,
          "name": "G4",
          "midi": 67,
          "duration": 0.108696,
          "velocity": 0.692913
        },
        {
          "time": 50.43477,
          "name": "G#4",
          "midi": 68,
          "duration": 0.869565,
          "velocity": 0.692913
        },
        {
          "time": 51.01448,
          "name": "B4",
          "midi": 71,
          "duration": 0.143116,
          "velocity": 0.590551
        },
        {
          "time": 51.157596,
          "name": "E5",
          "midi": 76,
          "duration": 0.146739,
          "velocity": 0.590551
        },
        {
          "time": 51.304335,
          "name": "G#5",
          "midi": 80,
          "duration": 0.144927,
          "velocity": 0.590551
        },
        {
          "time": 51.449262,
          "name": "E5",
          "midi": 76,
          "duration": 0.143116,
          "velocity": 0.590551
        },
        {
          "time": 51.592378,
          "name": "B4",
          "midi": 71,
          "duration": 0.146739,
          "velocity": 0.590551
        },
        {
          "time": 51.739117,
          "name": "A4",
          "midi": 69,
          "duration": 0.108696,
          "velocity": 0.692913
        },
        {
          "time": 51.847813,
          "name": "G#4",
          "midi": 68,
          "duration": 0.108696,
          "velocity": 0.692913
        },
        {
          "time": 51.956509,
          "name": "G4",
          "midi": 67,
          "duration": 0.108696,
          "velocity": 0.692913
        },
        {
          "time": 52.065204,
          "name": "G#4",
          "midi": 68,
          "duration": 0.108696,
          "velocity": 0.692913
        },
        {
          "time": 52.1739,
          "name": "E4",
          "midi": 64,
          "duration": 0.57971,
          "velocity": 0.897638
        },
        {
          "time": 52.1739,
          "name": "A4",
          "midi": 69,
          "duration": 0.57971,
          "velocity": 0.897638
        },
        {
          "time": 52.1739,
          "name": "E5",
          "midi": 76,
          "duration": 0.57971,
          "velocity": 0.897638
        },
        {
          "time": 52.75361,
          "name": "E4",
          "midi": 64,
          "duration": 0.143116,
          "velocity": 0.590551
        },
        {
          "time": 52.896726,
          "name": "A4",
          "midi": 69,
          "duration": 0.146739,
          "velocity": 0.590551
        },
        {
          "time": 53.043465,
          "name": "D5",
          "midi": 74,
          "duration": 0.434783,
          "velocity": 0.897638
        },
        {
          "time": 53.043465,
          "name": "D5",
          "midi": 74,
          "duration": 0.144928,
          "velocity": 0.590551
        },
        {
          "time": 53.188392,
          "name": "A4",
          "midi": 69,
          "duration": 0.143116,
          "velocity": 0.590551
        },
        {
          "time": 53.331508,
          "name": "E4",
          "midi": 64,
          "duration": 0.146739,
          "velocity": 0.590551
        },
        {
          "time": 53.478247,
          "name": "C5",
          "midi": 72,
          "duration": 0.434782,
          "velocity": 0.897638
        },
        {
          "time": 53.478247,
          "name": "B4",
          "midi": 71,
          "duration": 0.108696,
          "velocity": 0.692913
        },
        {
          "time": 53.586943,
          "name": "A4",
          "midi": 69,
          "duration": 0.108696,
          "velocity": 0.692913
        },
        {
          "time": 53.695639,
          "name": "G#4",
          "midi": 68,
          "duration": 0.108696,
          "velocity": 0.692913
        },
        {
          "time": 53.804334,
          "name": "A4",
          "midi": 69,
          "duration": 0.108696,
          "velocity": 0.692913
        },
        {
          "time": 53.91303,
          "name": "B4",
          "midi": 71,
          "duration": 0.434783,
          "velocity": 0.692913
        },
        {
          "time": 53.91303,
          "name": "D5",
          "midi": 74,
          "duration": 0.144928,
          "velocity": 0.590551
        },
        {
          "time": 54.057957,
          "name": "C4",
          "midi": 60,
          "duration": 0.143116,
          "velocity": 0.590551
        },
        {
          "time": 54.201073,
          "name": "F#4",
          "midi": 66,
          "duration": 0.146739,
          "velocity": 0.590551
        },
        {
          "time": 54.347812,
          "name": "A4",
          "midi": 69,
          "duration": 0.434782,
          "velocity": 0.692913
        },
        {
          "time": 54.347812,
          "name": "A4",
          "midi": 69,
          "duration": 0.144927,
          "velocity": 0.590551
        },
        {
          "time": 54.49274,
          "name": "C4",
          "midi": 60,
          "duration": 0.143116,
          "velocity": 0.590551
        },
        {
          "time": 54.635856,
          "name": "F#4",
          "midi": 66,
          "duration": 0.146739,
          "velocity": 0.590551
        },
        {
          "time": 54.999986,
          "name": "D5",
          "midi": 74,
          "duration": 0.217391,
          "velocity": 0.692913
        },
        {
          "time": 55.217377,
          "name": "E5",
          "midi": 76,
          "duration": 0.108696,
          "velocity": 0.692913
        },
        {
          "time": 55.326073,
          "name": "D5",
          "midi": 74,
          "duration": 0.108696,
          "velocity": 0.692913
        },
        {
          "time": 55.434769,
          "name": "C#5",
          "midi": 73,
          "duration": 0.108696,
          "velocity": 0.692913
        },
        {
          "time": 55.543464,
          "name": "D5",
          "midi": 74,
          "duration": 0.108696,
          "velocity": 0.692913
        },
        {
          "time": 55.65216,
          "name": "G4",
          "midi": 67,
          "duration": 0.434782,
          "velocity": 0.692913
        },
        {
          "time": 55.65216,
          "name": "B4",
          "midi": 71,
          "duration": 0.434782,
          "velocity": 0.692913
        },
        {
          "time": 55.65216,
          "name": "D5",
          "midi": 74,
          "duration": 0.434782,
          "velocity": 0.692913
        },
        {
          "time": 55.65216,
          "name": "G5",
          "midi": 79,
          "duration": 0.434782,
          "velocity": 0.692913
        },
        {
          "time": 56.086942,
          "name": "D4",
          "midi": 62,
          "duration": 0.144928,
          "velocity": 0.590551
        },
        {
          "time": 56.23187,
          "name": "G4",
          "midi": 67,
          "duration": 0.143116,
          "velocity": 0.590551
        },
        {
          "time": 56.374986,
          "name": "B4",
          "midi": 71,
          "duration": 0.146739,
          "velocity": 0.590551
        },
        {
          "time": 56.521725,
          "name": "D5",
          "midi": 74,
          "duration": 0.144927,
          "velocity": 0.590551
        },
        {
          "time": 56.666652,
          "name": "B4",
          "midi": 71,
          "duration": 0.143116,
          "velocity": 0.590551
        },
        {
          "time": 56.809768,
          "name": "G4",
          "midi": 67,
          "duration": 0.146739,
          "velocity": 0.590551
        },
        {
          "time": 56.956507,
          "name": "D4",
          "midi": 62,
          "duration": 0.144927,
          "velocity": 0.590551
        },
        {
          "time": 57.101435,
          "name": "B3",
          "midi": 59,
          "duration": 0.143116,
          "velocity": 0.590551
        },
        {
          "time": 57.244551,
          "name": "G3",
          "midi": 55,
          "duration": 0.146739,
          "velocity": 0.590551
        },
        {
          "time": 57.536217,
          "name": "G3",
          "midi": 55,
          "duration": 0.143116,
          "velocity": 0.590551
        },
        {
          "time": 57.679333,
          "name": "B3",
          "midi": 59,
          "duration": 0.146739,
          "velocity": 0.590551
        },
        {
          "time": 57.826072,
          "name": "E4",
          "midi": 64,
          "duration": 0.144927,
          "velocity": 0.590551
        },
        {
          "time": 57.971,
          "name": "G4",
          "midi": 67,
          "duration": 0.143116,
          "velocity": 0.590551
        },
        {
          "time": 58.114116,
          "name": "B4",
          "midi": 71,
          "duration": 0.146739,
          "velocity": 0.590551
        },
        {
          "time": 58.260855,
          "name": "E5",
          "midi": 76,
          "duration": 0.144928,
          "velocity": 0.590551
        },
        {
          "time": 58.405782,
          "name": "B4",
          "midi": 71,
          "duration": 0.143116,
          "velocity": 0.590551
        },
        {
          "time": 58.548898,
          "name": "G4",
          "midi": 67,
          "duration": 0.146739,
          "velocity": 0.590551
        },
        {
          "time": 58.695637,
          "name": "E4",
          "midi": 64,
          "duration": 0.144928,
          "velocity": 0.590551
        },
        {
          "time": 58.840565,
          "name": "B3",
          "midi": 59,
          "duration": 0.143116,
          "velocity": 0.590551
        },
        {
          "time": 58.983681,
          "name": "G3",
          "midi": 55,
          "duration": 0.146739,
          "velocity": 0.590551
        },
        {
          "time": 59.13042,
          "name": "G4",
          "midi": 67,
          "duration": 0.869565,
          "velocity": 0.897638
        },
        {
          "time": 59.13042,
          "name": "A4",
          "midi": 69,
          "duration": 0.869565,
          "velocity": 0.897638
        },
        {
          "time": 59.13042,
          "name": "E5",
          "midi": 76,
          "duration": 0.869565,
          "velocity": 0.897638
        },
        {
          "time": 59.13042,
          "name": "G5",
          "midi": 79,
          "duration": 0.869565,
          "velocity": 0.897638
        },
        {
          "time": 59.999985,
          "name": "F#4",
          "midi": 66,
          "duration": 0.434782,
          "velocity": 0.897638
        },
        {
          "time": 59.999985,
          "name": "F#5",
          "midi": 78,
          "duration": 0.434782,
          "velocity": 0.897638
        },
        {
          "time": 60.434767,
          "name": "E4",
          "midi": 64,
          "duration": 0.434782,
          "velocity": 0.897638
        },
        {
          "time": 60.434767,
          "name": "E5",
          "midi": 76,
          "duration": 0.434782,
          "velocity": 0.897638
        },
        {
          "time": 60.86955,
          "name": "D4",
          "midi": 62,
          "duration": 0.434783,
          "velocity": 0.692913
        },
        {
          "time": 60.86955,
          "name": "F#4",
          "midi": 66,
          "duration": 0.434783,
          "velocity": 0.692913
        },
        {
          "time": 60.86955,
          "name": "A4",
          "midi": 69,
          "duration": 0.434783,
          "velocity": 0.692913
        },
        {
          "time": 60.86955,
          "name": "D5",
          "midi": 74,
          "duration": 0.434783,
          "velocity": 0.692913
        },
        {
          "time": 61.304332,
          "name": "C4",
          "midi": 60,
          "duration": 0.869565,
          "velocity": 0.692913
        },
        {
          "time": 61.304332,
          "name": "C5",
          "midi": 72,
          "duration": 0.869565,
          "velocity": 0.692913
        },
        {
          "time": 62.173897,
          "name": "B3",
          "midi": 59,
          "duration": 0.217391,
          "velocity": 0.692913
        },
        {
          "time": 62.173897,
          "name": "B4",
          "midi": 71,
          "duration": 0.217391,
          "velocity": 0.692913
        },
        {
          "time": 62.391289,
          "name": "A3",
          "midi": 57,
          "duration": 0.217391,
          "velocity": 0.692913
        },
        {
          "time": 62.391289,
          "name": "A4",
          "midi": 69,
          "duration": 0.217391,
          "velocity": 0.692913
        },
        {
          "time": 62.60868,
          "name": "B3",
          "midi": 59,
          "duration": 0.434782,
          "velocity": 0.590551
        },
        {
          "time": 62.60868,
          "name": "D4",
          "midi": 62,
          "duration": 0.434782,
          "velocity": 0.590551
        },
        {
          "time": 62.60868,
          "name": "G4",
          "midi": 67,
          "duration": 0.434782,
          "velocity": 0.590551
        },
        {
          "time": 63.043462,
          "name": "D4",
          "midi": 62,
          "duration": 0.144928,
          "velocity": 0.488189
        },
        {
          "time": 63.18839,
          "name": "G4",
          "midi": 67,
          "duration": 0.143116,
          "velocity": 0.488189
        },
        {
          "time": 63.331506,
          "name": "B4",
          "midi": 71,
          "duration": 0.146739,
          "velocity": 0.488189
        },
        {
          "time": 63.478245,
          "name": "D5",
          "midi": 74,
          "duration": 0.144928,
          "velocity": 0.488189
        },
        {
          "time": 63.623172,
          "name": "B4",
          "midi": 71,
          "duration": 0.143116,
          "velocity": 0.488189
        },
        {
          "time": 63.766288,
          "name": "G4",
          "midi": 67,
          "duration": 0.146739,
          "velocity": 0.488189
        },
        {
          "time": 63.913027,
          "name": "D4",
          "midi": 62,
          "duration": 0.144928,
          "velocity": 0.488189
        },
        {
          "time": 64.057955,
          "name": "B3",
          "midi": 59,
          "duration": 0.143116,
          "velocity": 0.488189
        },
        {
          "time": 64.201071,
          "name": "G3",
          "midi": 55,
          "duration": 0.146739,
          "velocity": 0.488189
        },
        {
          "time": 64.492738,
          "name": "G3",
          "midi": 55,
          "duration": 0.143116,
          "velocity": 0.488189
        },
        {
          "time": 64.635853,
          "name": "D4",
          "midi": 62,
          "duration": 0.146739,
          "velocity": 0.488189
        },
        {
          "time": 64.782592,
          "name": "F#4",
          "midi": 66,
          "duration": 0.144928,
          "velocity": 0.488189
        },
        {
          "time": 64.92752,
          "name": "D4",
          "midi": 62,
          "duration": 0.143116,
          "velocity": 0.488189
        },
        {
          "time": 65.070636,
          "name": "F#4",
          "midi": 66,
          "duration": 0.146739,
          "velocity": 0.488189
        },
        {
          "time": 65.217375,
          "name": "C5",
          "midi": 72,
          "duration": 0.434783,
          "velocity": 0.590551
        },
        {
          "time": 65.217375,
          "name": "C5",
          "midi": 72,
          "duration": 0.144928,
          "velocity": 0.488189
        },
        {
          "time": 65.362302,
          "name": "F#4",
          "midi": 66,
          "duration": 0.143116,
          "velocity": 0.488189
        },
        {
          "time": 65.505418,
          "name": "D4",
          "midi": 62,
          "duration": 0.146739,
          "velocity": 0.488189
        },
        {
          "time": 65.652158,
          "name": "B4",
          "midi": 71,
          "duration": 0.434782,
          "velocity": 0.590551
        },
        {
          "time": 65.652158,
          "name": "B4",
          "midi": 71,
          "duration": 0.144927,
          "velocity": 0.488189
        },
        {
          "time": 65.797085,
          "name": "F#4",
          "midi": 66,
          "duration": 0.143116,
          "velocity": 0.488189
        },
        {
          "time": 65.940201,
          "name": "D4",
          "midi": 62,
          "duration": 0.146739,
          "velocity": 0.488189
        },
        {
          "time": 66.08694,
          "name": "G4",
          "midi": 67,
          "duration": 0.144928,
          "velocity": 0.590551
        },
        {
          "time": 66.231868,
          "name": "B3",
          "midi": 59,
          "duration": 0.143116,
          "velocity": 0.488189
        },
        {
          "time": 66.374983,
          "name": "D4",
          "midi": 62,
          "duration": 0.146739,
          "velocity": 0.488189
        },
        {
          "time": 66.521722,
          "name": "G4",
          "midi": 67,
          "duration": 0.144928,
          "velocity": 0.488189
        },
        {
          "time": 66.66665,
          "name": "B4",
          "midi": 71,
          "duration": 0.143116,
          "velocity": 0.488189
        },
        {
          "time": 66.809766,
          "name": "D5",
          "midi": 74,
          "duration": 0.146739,
          "velocity": 0.488189
        },
        {
          "time": 66.956505,
          "name": "G5",
          "midi": 79,
          "duration": 0.144928,
          "velocity": 0.488189
        },
        {
          "time": 67.101433,
          "name": "D5",
          "midi": 74,
          "duration": 0.143116,
          "velocity": 0.488189
        },
        {
          "time": 67.244548,
          "name": "B4",
          "midi": 71,
          "duration": 0.146739,
          "velocity": 0.488189
        },
        {
          "time": 67.391287,
          "name": "G4",
          "midi": 67,
          "duration": 0.144928,
          "velocity": 0.488189
        },
        {
          "time": 67.536215,
          "name": "D4",
          "midi": 62,
          "duration": 0.143116,
          "velocity": 0.488189
        },
        {
          "time": 67.679331,
          "name": "B3",
          "midi": 59,
          "duration": 0.146739,
          "velocity": 0.488189
        },
        {
          "time": 67.970997,
          "name": "A3",
          "midi": 57,
          "duration": 0.143116,
          "velocity": 0.488189
        },
        {
          "time": 68.114113,
          "name": "D4",
          "midi": 62,
          "duration": 0.146739,
          "velocity": 0.488189
        },
        {
          "time": 68.260852,
          "name": "F#4",
          "midi": 66,
          "duration": 0.144927,
          "velocity": 0.488189
        },
        {
          "time": 68.40578,
          "name": "D4",
          "midi": 62,
          "duration": 0.143116,
          "velocity": 0.488189
        },
        {
          "time": 68.548896,
          "name": "F#4",
          "midi": 66,
          "duration": 0.146739,
          "velocity": 0.488189
        },
        {
          "time": 68.695635,
          "name": "C5",
          "midi": 72,
          "duration": 0.434782,
          "velocity": 0.590551
        },
        {
          "time": 68.695635,
          "name": "C5",
          "midi": 72,
          "duration": 0.144928,
          "velocity": 0.488189
        },
        {
          "time": 68.840563,
          "name": "F#4",
          "midi": 66,
          "duration": 0.143116,
          "velocity": 0.488189
        },
        {
          "time": 68.983678,
          "name": "D4",
          "midi": 62,
          "duration": 0.146739,
          "velocity": 0.488189
        },
        {
          "time": 69.130417,
          "name": "B4",
          "midi": 71,
          "duration": 0.434782,
          "velocity": 0.590551
        },
        {
          "time": 69.130417,
          "name": "B4",
          "midi": 71,
          "duration": 0.144928,
          "velocity": 0.488189
        },
        {
          "time": 69.275345,
          "name": "F#4",
          "midi": 66,
          "duration": 0.143116,
          "velocity": 0.488189
        },
        {
          "time": 69.418461,
          "name": "D4",
          "midi": 62,
          "duration": 0.146739,
          "velocity": 0.488189
        },
        {
          "time": 69.5652,
          "name": "G4",
          "midi": 67,
          "duration": 0.144928,
          "velocity": 0.590551
        },
        {
          "time": 69.710127,
          "name": "B3",
          "midi": 59,
          "duration": 0.143116,
          "velocity": 0.488189
        },
        {
          "time": 69.853243,
          "name": "D4",
          "midi": 62,
          "duration": 0.146739,
          "velocity": 0.488189
        },
        {
          "time": 69.999983,
          "name": "G4",
          "midi": 67,
          "duration": 0.144927,
          "velocity": 0.488189
        },
        {
          "time": 70.14491,
          "name": "B4",
          "midi": 71,
          "duration": 0.143116,
          "velocity": 0.488189
        },
        {
          "time": 70.288026,
          "name": "D5",
          "midi": 74,
          "duration": 0.146739,
          "velocity": 0.488189
        },
        {
          "time": 70.434765,
          "name": "G5",
          "midi": 79,
          "duration": 0.144927,
          "velocity": 0.488189
        },
        {
          "time": 70.579692,
          "name": "D5",
          "midi": 74,
          "duration": 0.143116,
          "velocity": 0.488189
        },
        {
          "time": 70.722808,
          "name": "B4",
          "midi": 71,
          "duration": 0.146739,
          "velocity": 0.488189
        },
        {
          "time": 70.869547,
          "name": "G4",
          "midi": 67,
          "duration": 0.144927,
          "velocity": 0.488189
        },
        {
          "time": 71.014475,
          "name": "D4",
          "midi": 62,
          "duration": 0.143116,
          "velocity": 0.488189
        },
        {
          "time": 71.157591,
          "name": "B3",
          "midi": 59,
          "duration": 0.146739,
          "velocity": 0.488189
        },
        {
          "time": 71.449258,
          "name": "B3",
          "midi": 59,
          "duration": 0.143116,
          "velocity": 0.488189
        },
        {
          "time": 71.592373,
          "name": "E4",
          "midi": 64,
          "duration": 0.146739,
          "velocity": 0.488189
        },
        {
          "time": 71.739112,
          "name": "G4",
          "midi": 67,
          "duration": 0.144928,
          "velocity": 0.488189
        },
        {
          "time": 71.88404,
          "name": "B4",
          "midi": 71,
          "duration": 0.143116,
          "velocity": 0.488189
        },
        {
          "time": 72.027156,
          "name": "E5",
          "midi": 76,
          "duration": 0.146739,
          "velocity": 0.488189
        },
        {
          "time": 72.173895,
          "name": "G5",
          "midi": 79,
          "duration": 0.144928,
          "velocity": 0.590551
        },
        {
          "time": 72.318822,
          "name": "E5",
          "midi": 76,
          "duration": 0.143116,
          "velocity": 0.590551
        },
        {
          "time": 72.461938,
          "name": "B4",
          "midi": 71,
          "duration": 0.146739,
          "velocity": 0.590551
        },
        {
          "time": 72.608677,
          "name": "G4",
          "midi": 67,
          "duration": 0.144928,
          "velocity": 0.590551
        },
        {
          "time": 72.753605,
          "name": "E4",
          "midi": 64,
          "duration": 0.143116,
          "velocity": 0.590551
        },
        {
          "time": 72.896721,
          "name": "B3",
          "midi": 59,
          "duration": 0.146739,
          "velocity": 0.590551
        },
        {
          "time": 73.04346,
          "name": "E4",
          "midi": 64,
          "duration": 0.869565,
          "velocity": 0.897638
        },
        {
          "time": 73.04346,
          "name": "F#4",
          "midi": 66,
          "duration": 0.869565,
          "velocity": 0.897638
        },
        {
          "time": 73.04346,
          "name": "C5",
          "midi": 72,
          "duration": 0.869565,
          "velocity": 0.897638
        },
        {
          "time": 73.04346,
          "name": "E5",
          "midi": 76,
          "duration": 0.869565,
          "velocity": 0.897638
        },
        {
          "time": 73.913025,
          "name": "D4",
          "midi": 62,
          "duration": 0.434782,
          "velocity": 0.897638
        },
        {
          "time": 73.913025,
          "name": "D5",
          "midi": 74,
          "duration": 0.434782,
          "velocity": 0.897638
        },
        {
          "time": 74.347807,
          "name": "C4",
          "midi": 60,
          "duration": 0.434782,
          "velocity": 0.897638
        },
        {
          "time": 74.347807,
          "name": "C5",
          "midi": 72,
          "duration": 0.434782,
          "velocity": 0.897638
        },
        {
          "time": 74.78259,
          "name": "B3",
          "midi": 59,
          "duration": 0.434783,
          "velocity": 0.692913
        },
        {
          "time": 74.78259,
          "name": "D#4",
          "midi": 63,
          "duration": 0.434783,
          "velocity": 0.692913
        },
        {
          "time": 74.78259,
          "name": "F#4",
          "midi": 66,
          "duration": 0.434783,
          "velocity": 0.692913
        },
        {
          "time": 74.78259,
          "name": "B4",
          "midi": 71,
          "duration": 0.434783,
          "velocity": 0.692913
        },
        {
          "time": 75.217372,
          "name": "A3",
          "midi": 57,
          "duration": 0.869565,
          "velocity": 0.692913
        },
        {
          "time": 75.217372,
          "name": "A4",
          "midi": 69,
          "duration": 0.869565,
          "velocity": 0.692913
        },
        {
          "time": 76.086937,
          "name": "G3",
          "midi": 55,
          "duration": 0.217391,
          "velocity": 0.692913
        },
        {
          "time": 76.086937,
          "name": "G4",
          "midi": 67,
          "duration": 0.217391,
          "velocity": 0.692913
        },
        {
          "time": 76.304329,
          "name": "F#3",
          "midi": 54,
          "duration": 0.217391,
          "velocity": 0.692913
        },
        {
          "time": 76.304329,
          "name": "F#4",
          "midi": 66,
          "duration": 0.217391,
          "velocity": 0.692913
        },
        {
          "time": 76.52172,
          "name": "G3",
          "midi": 55,
          "duration": 0.434782,
          "velocity": 0.590551
        },
        {
          "time": 76.52172,
          "name": "B3",
          "midi": 59,
          "duration": 0.434782,
          "velocity": 0.590551
        },
        {
          "time": 76.52172,
          "name": "E4",
          "midi": 64,
          "duration": 0.434782,
          "velocity": 0.590551
        },
        {
          "time": 76.956502,
          "name": "E4",
          "midi": 64,
          "duration": 0.144928,
          "velocity": 0.488189
        },
        {
          "time": 77.10143,
          "name": "G4",
          "midi": 67,
          "duration": 0.143116,
          "velocity": 0.488189
        },
        {
          "time": 77.244546,
          "name": "B4",
          "midi": 71,
          "duration": 0.146739,
          "velocity": 0.488189
        },
        {
          "time": 77.391285,
          "name": "E5",
          "midi": 76,
          "duration": 0.144927,
          "velocity": 0.488189
        },
        {
          "time": 77.536212,
          "name": "B4",
          "midi": 71,
          "duration": 0.143116,
          "velocity": 0.488189
        },
        {
          "time": 77.679328,
          "name": "G4",
          "midi": 67,
          "duration": 0.146739,
          "velocity": 0.488189
        },
        {
          "time": 77.826067,
          "name": "E4",
          "midi": 64,
          "duration": 0.144928,
          "velocity": 0.488189
        },
        {
          "time": 77.970995,
          "name": "B3",
          "midi": 59,
          "duration": 0.143116,
          "velocity": 0.488189
        },
        {
          "time": 78.114111,
          "name": "G3",
          "midi": 55,
          "duration": 0.146739,
          "velocity": 0.488189
        },
        {
          "time": 78.405777,
          "name": "A3",
          "midi": 57,
          "duration": 0.143116,
          "velocity": 0.488189
        },
        {
          "time": 78.548893,
          "name": "C4",
          "midi": 60,
          "duration": 0.146739,
          "velocity": 0.488189
        },
        {
          "time": 78.695632,
          "name": "E4",
          "midi": 64,
          "duration": 0.144928,
          "velocity": 0.488189
        },
        {
          "time": 78.84056,
          "name": "A4",
          "midi": 69,
          "duration": 0.143116,
          "velocity": 0.488189
        },
        {
          "time": 78.983676,
          "name": "C5",
          "midi": 72,
          "duration": 0.146739,
          "velocity": 0.488189
        },
        {
          "time": 79.130415,
          "name": "A4",
          "midi": 69,
          "duration": 0.144928,
          "velocity": 0.488189
        },
        {
          "time": 79.130415,
          "name": "A4",
          "midi": 69,
          "duration": 0.434783,
          "velocity": 0.590551
        },
        {
          "time": 79.275342,
          "name": "C5",
          "midi": 72,
          "duration": 0.143116,
          "velocity": 0.488189
        },
        {
          "time": 79.418458,
          "name": "E5",
          "midi": 76,
          "duration": 0.146739,
          "velocity": 0.488189
        },
        {
          "time": 79.565197,
          "name": "G4",
          "midi": 67,
          "duration": 0.144927,
          "velocity": 0.488189
        },
        {
          "time": 79.565197,
          "name": "G4",
          "midi": 67,
          "duration": 0.434782,
          "velocity": 0.590551
        },
        {
          "time": 79.710125,
          "name": "C5",
          "midi": 72,
          "duration": 0.143116,
          "velocity": 0.488189
        },
        {
          "time": 79.853241,
          "name": "E5",
          "midi": 76,
          "duration": 0.146739,
          "velocity": 0.488189
        },
        {
          "time": 80.144908,
          "name": "G3",
          "midi": 55,
          "duration": 0.143116,
          "velocity": 0.488189
        },
        {
          "time": 80.288023,
          "name": "B3",
          "midi": 59,
          "duration": 0.146739,
          "velocity": 0.488189
        },
        {
          "time": 80.434762,
          "name": "E4",
          "midi": 64,
          "duration": 0.144928,
          "velocity": 0.488189
        },
        {
          "time": 80.57969,
          "name": "G4",
          "midi": 67,
          "duration": 0.143116,
          "velocity": 0.488189
        },
        {
          "time": 80.722806,
          "name": "B4",
          "midi": 71,
          "duration": 0.146739,
          "velocity": 0.488189
        },
        {
          "time": 80.869545,
          "name": "E5",
          "midi": 76,
          "duration": 0.144928,
          "velocity": 0.488189
        },
        {
          "time": 81.014472,
          "name": "B4",
          "midi": 71,
          "duration": 0.143116,
          "velocity": 0.488189
        },
        {
          "time": 81.157588,
          "name": "G4",
          "midi": 67,
          "duration": 0.146739,
          "velocity": 0.488189
        },
        {
          "time": 81.304327,
          "name": "E4",
          "midi": 64,
          "duration": 0.144928,
          "velocity": 0.488189
        },
        {
          "time": 81.449255,
          "name": "B3",
          "midi": 59,
          "duration": 0.143116,
          "velocity": 0.488189
        },
        {
          "time": 81.592371,
          "name": "G3",
          "midi": 55,
          "duration": 0.146739,
          "velocity": 0.488189
        },
        {
          "time": 81.884037,
          "name": "A3",
          "midi": 57,
          "duration": 0.143116,
          "velocity": 0.488189
        },
        {
          "time": 82.027153,
          "name": "C4",
          "midi": 60,
          "duration": 0.146739,
          "velocity": 0.488189
        },
        {
          "time": 82.173892,
          "name": "E4",
          "midi": 64,
          "duration": 0.144927,
          "velocity": 0.488189
        },
        {
          "time": 82.31882,
          "name": "A4",
          "midi": 69,
          "duration": 0.143116,
          "velocity": 0.488189
        },
        {
          "time": 82.461936,
          "name": "C5",
          "midi": 72,
          "duration": 0.146739,
          "velocity": 0.488189
        },
        {
          "time": 82.608675,
          "name": "A4",
          "midi": 69,
          "duration": 0.144928,
          "velocity": 0.488189
        },
        {
          "time": 82.608675,
          "name": "A4",
          "midi": 69,
          "duration": 0.434782,
          "velocity": 0.590551
        },
        {
          "time": 82.753602,
          "name": "C5",
          "midi": 72,
          "duration": 0.143116,
          "velocity": 0.488189
        },
        {
          "time": 82.896718,
          "name": "E5",
          "midi": 76,
          "duration": 0.146739,
          "velocity": 0.488189
        },
        {
          "time": 83.043457,
          "name": "G4",
          "midi": 67,
          "duration": 0.144928,
          "velocity": 0.488189
        },
        {
          "time": 83.043457,
          "name": "G4",
          "midi": 67,
          "duration": 0.434782,
          "velocity": 0.590551
        },
        {
          "time": 83.188385,
          "name": "C5",
          "midi": 72,
          "duration": 0.143116,
          "velocity": 0.488189
        },
        {
          "time": 83.331501,
          "name": "E5",
          "midi": 76,
          "duration": 0.146739,
          "velocity": 0.488189
        },
        {
          "time": 83.617129,
          "name": "G3",
          "midi": 55,
          "duration": 0.137153,
          "velocity": 0.488189
        },
        {
          "time": 83.754282,
          "name": "B3",
          "midi": 59,
          "duration": 0.140625,
          "velocity": 0.488189
        },
        {
          "time": 83.894906,
          "name": "E4",
          "midi": 64,
          "duration": 0.138889,
          "velocity": 0.488189
        },
        {
          "time": 84.033795,
          "name": "G4",
          "midi": 67,
          "duration": 0.137153,
          "velocity": 0.488189
        },
        {
          "time": 84.170948,
          "name": "B4",
          "midi": 71,
          "duration": 0.140625,
          "velocity": 0.488189
        },
        {
          "time": 84.311573,
          "name": "E5",
          "midi": 76,
          "duration": 0.138889,
          "velocity": 0.488189
        },
        {
          "time": 84.450462,
          "name": "B4",
          "midi": 71,
          "duration": 0.137153,
          "velocity": 0.488189
        },
        {
          "time": 84.587615,
          "name": "G4",
          "midi": 67,
          "duration": 0.140625,
          "velocity": 0.488189
        },
        {
          "time": 84.728239,
          "name": "E4",
          "midi": 64,
          "duration": 0.138889,
          "velocity": 0.488189
        },
        {
          "time": 84.867128,
          "name": "B3",
          "midi": 59,
          "duration": 0.137153,
          "velocity": 0.488189
        },
        {
          "time": 85.004281,
          "name": "G3",
          "midi": 55,
          "duration": 0.140625,
          "velocity": 0.488189
        },
        {
          "time": 85.561572,
          "name": "G4",
          "midi": 67,
          "duration": 0.138889,
          "velocity": 0.488189
        },
        {
          "time": 85.700461,
          "name": "B4",
          "midi": 71,
          "duration": 0.137153,
          "velocity": 0.488189
        },
        {
          "time": 85.837614,
          "name": "E5",
          "midi": 76,
          "duration": 0.140625,
          "velocity": 0.488189
        },
        {
          "time": 85.978239,
          "name": "G5",
          "midi": 79,
          "duration": 0.416666,
          "velocity": 0.692913
        },
        {
          "time": 86.394905,
          "name": "F#5",
          "midi": 78,
          "duration": 0.416667,
          "velocity": 0.488189
        },
        {
          "time": 86.811572,
          "name": "E5",
          "midi": 76,
          "duration": 0.789474,
          "velocity": 0.692913
        },
        {
          "time": 87.601046,
          "name": "B5",
          "midi": 83,
          "duration": 0.394737,
          "velocity": 0.692913
        },
        {
          "time": 87.995783,
          "name": "A5",
          "midi": 81,
          "duration": 0.394737,
          "velocity": 0.692913
        },
        {
          "time": 88.39052,
          "name": "G5",
          "midi": 79,
          "duration": 0.592106,
          "velocity": 0.488189
        },
        {
          "time": 88.982625,
          "name": "A5",
          "midi": 81,
          "duration": 0.098684,
          "velocity": 0.488189
        },
        {
          "time": 89.08131,
          "name": "G5",
          "midi": 79,
          "duration": 0.098684,
          "velocity": 0.488189
        },
        {
          "time": 89.179994,
          "name": "F#5",
          "midi": 78,
          "duration": 0.394737,
          "velocity": 0.692913
        },
        {
          "time": 89.574731,
          "name": "E5",
          "midi": 76,
          "duration": 0.394737,
          "velocity": 0.692913
        },
        {
          "time": 89.969468,
          "name": "G5",
          "midi": 79,
          "duration": 0.789474,
          "velocity": 0.488189
        },
        {
          "time": 90.758942,
          "name": "F#5",
          "midi": 78,
          "duration": 1.578948,
          "velocity": 0.488189
        },
        {
          "time": 92.33789,
          "name": "E5",
          "midi": 76,
          "duration": 0.394737,
          "velocity": 0.488189
        },
        {
          "time": 92.732627,
          "name": "F#5",
          "midi": 78,
          "duration": 0.394737,
          "velocity": 0.488189
        },
        {
          "time": 93.127364,
          "name": "B4",
          "midi": 71,
          "duration": 0.592106,
          "velocity": 0.488189
        },
        {
          "time": 93.719469,
          "name": "C5",
          "midi": 72,
          "duration": 0.098684,
          "velocity": 0.488189
        },
        {
          "time": 93.818154,
          "name": "B4",
          "midi": 71,
          "duration": 0.098684,
          "velocity": 0.488189
        },
        {
          "time": 93.916838,
          "name": "A#4",
          "midi": 70,
          "duration": 0.394737,
          "velocity": 0.590551
        },
        {
          "time": 94.311575,
          "name": "B4",
          "midi": 71,
          "duration": 0.394737,
          "velocity": 0.590551
        },
        {
          "time": 94.706312,
          "name": "C5",
          "midi": 72,
          "duration": 0.789474,
          "velocity": 0.590551
        },
        {
          "time": 95.495786,
          "name": "D5",
          "midi": 74,
          "duration": 0.394737,
          "velocity": 0.590551
        },
        {
          "time": 95.890523,
          "name": "C5",
          "midi": 72,
          "duration": 0.394737,
          "velocity": 0.590551
        },
        {
          "time": 96.28526,
          "name": "B4",
          "midi": 71,
          "duration": 0.394737,
          "velocity": 0.590551
        },
        {
          "time": 97.469471,
          "name": "B3",
          "midi": 59,
          "duration": 0.064145,
          "velocity": 0.488189
        },
        {
          "time": 97.533616,
          "name": "D#4",
          "midi": 63,
          "duration": 0.067434,
          "velocity": 0.488189
        },
        {
          "time": 97.60105,
          "name": "F#4",
          "midi": 66,
          "duration": 0.065789,
          "velocity": 0.488189
        },
        {
          "time": 97.666839,
          "name": "B4",
          "midi": 71,
          "duration": 0.064145,
          "velocity": 0.488189
        },
        {
          "time": 97.730984,
          "name": "D#5",
          "midi": 75,
          "duration": 0.067434,
          "velocity": 0.488189
        },
        {
          "time": 97.798418,
          "name": "F#5",
          "midi": 78,
          "duration": 0.065789,
          "velocity": 0.488189
        },
        {
          "time": 97.864208,
          "name": "B5",
          "midi": 83,
          "duration": 0.394737,
          "velocity": 0.692913
        },
        {
          "time": 98.653682,
          "name": "D#4",
          "midi": 63,
          "duration": 0.197369,
          "velocity": 0.385827
        },
        {
          "time": 98.653682,
          "name": "F#4",
          "midi": 66,
          "duration": 0.197369,
          "velocity": 0.385827
        },
        {
          "time": 98.85105,
          "name": "D#4",
          "midi": 63,
          "duration": 0.197368,
          "velocity": 0.385827
        },
        {
          "time": 98.85105,
          "name": "F#4",
          "midi": 66,
          "duration": 0.197368,
          "velocity": 0.385827
        },
        {
          "time": 99.048419,
          "name": "B3",
          "midi": 59,
          "duration": 0.197368,
          "velocity": 0.385827
        },
        {
          "time": 99.048419,
          "name": "D#4",
          "midi": 63,
          "duration": 0.197368,
          "velocity": 0.385827
        },
        {
          "time": 99.048419,
          "name": "F#4",
          "midi": 66,
          "duration": 0.197368,
          "velocity": 0.385827
        },
        {
          "time": 99.245787,
          "name": "B3",
          "midi": 59,
          "duration": 0.197369,
          "velocity": 0.385827
        },
        {
          "time": 99.245787,
          "name": "D#4",
          "midi": 63,
          "duration": 0.197369,
          "velocity": 0.385827
        },
        {
          "time": 99.245787,
          "name": "F#4",
          "midi": 66,
          "duration": 0.197369,
          "velocity": 0.385827
        },
        {
          "time": 99.443156,
          "name": "B3",
          "midi": 59,
          "duration": 0.197368,
          "velocity": 0.385827
        },
        {
          "time": 99.443156,
          "name": "D4",
          "midi": 62,
          "duration": 0.197368,
          "velocity": 0.385827
        },
        {
          "time": 99.443156,
          "name": "G4",
          "midi": 67,
          "duration": 0.197368,
          "velocity": 0.385827
        },
        {
          "time": 99.640524,
          "name": "B3",
          "midi": 59,
          "duration": 0.197368,
          "velocity": 0.385827
        },
        {
          "time": 99.640524,
          "name": "D4",
          "midi": 62,
          "duration": 0.197368,
          "velocity": 0.385827
        },
        {
          "time": 99.640524,
          "name": "G4",
          "midi": 67,
          "duration": 0.197368,
          "velocity": 0.385827
        },
        {
          "time": 99.837893,
          "name": "B3",
          "midi": 59,
          "duration": 0.197369,
          "velocity": 0.385827
        },
        {
          "time": 99.837893,
          "name": "D4",
          "midi": 62,
          "duration": 0.197369,
          "velocity": 0.385827
        },
        {
          "time": 99.837893,
          "name": "G4",
          "midi": 67,
          "duration": 0.197369,
          "velocity": 0.385827
        },
        {
          "time": 100.035261,
          "name": "B3",
          "midi": 59,
          "duration": 0.197368,
          "velocity": 0.385827
        },
        {
          "time": 100.035261,
          "name": "D4",
          "midi": 62,
          "duration": 0.197368,
          "velocity": 0.385827
        },
        {
          "time": 100.035261,
          "name": "G4",
          "midi": 67,
          "duration": 0.197368,
          "velocity": 0.385827
        },
        {
          "time": 100.23263,
          "name": "B3",
          "midi": 59,
          "duration": 0.197368,
          "velocity": 0.385827
        },
        {
          "time": 100.23263,
          "name": "G4",
          "midi": 67,
          "duration": 0.197368,
          "velocity": 0.385827
        },
        {
          "time": 100.429998,
          "name": "B3",
          "midi": 59,
          "duration": 0.197368,
          "velocity": 0.385827
        },
        {
          "time": 100.429998,
          "name": "G4",
          "midi": 67,
          "duration": 0.197368,
          "velocity": 0.385827
        },
        {
          "time": 100.627367,
          "name": "D4",
          "midi": 62,
          "duration": 0.197368,
          "velocity": 0.385827
        },
        {
          "time": 100.627367,
          "name": "G4",
          "midi": 67,
          "duration": 0.197368,
          "velocity": 0.385827
        },
        {
          "time": 100.824735,
          "name": "D4",
          "midi": 62,
          "duration": 0.197369,
          "velocity": 0.385827
        },
        {
          "time": 100.824735,
          "name": "G4",
          "midi": 67,
          "duration": 0.197369,
          "velocity": 0.385827
        },
        {
          "time": 101.022104,
          "name": "D4",
          "midi": 62,
          "duration": 0.197368,
          "velocity": 0.385827
        },
        {
          "time": 101.022104,
          "name": "G4",
          "midi": 67,
          "duration": 0.197368,
          "velocity": 0.385827
        },
        {
          "time": 101.219472,
          "name": "D4",
          "midi": 62,
          "duration": 0.197368,
          "velocity": 0.385827
        },
        {
          "time": 101.219472,
          "name": "G4",
          "midi": 67,
          "duration": 0.197368,
          "velocity": 0.385827
        },
        {
          "time": 101.416841,
          "name": "D4",
          "midi": 62,
          "duration": 0.197369,
          "velocity": 0.385827
        },
        {
          "time": 101.416841,
          "name": "G4",
          "midi": 67,
          "duration": 0.197369,
          "velocity": 0.385827
        },
        {
          "time": 101.614209,
          "name": "D4",
          "midi": 62,
          "duration": 0.197368,
          "velocity": 0.385827
        },
        {
          "time": 101.614209,
          "name": "G4",
          "midi": 67,
          "duration": 0.197368,
          "velocity": 0.385827
        },
        {
          "time": 101.811578,
          "name": "B3",
          "midi": 59,
          "duration": 0.197368,
          "velocity": 0.385827
        },
        {
          "time": 101.811578,
          "name": "D4",
          "midi": 62,
          "duration": 0.197368,
          "velocity": 0.385827
        },
        {
          "time": 101.811578,
          "name": "G4",
          "midi": 67,
          "duration": 0.197368,
          "velocity": 0.385827
        },
        {
          "time": 102.008946,
          "name": "B3",
          "midi": 59,
          "duration": 0.197369,
          "velocity": 0.385827
        },
        {
          "time": 102.008946,
          "name": "D4",
          "midi": 62,
          "duration": 0.197369,
          "velocity": 0.385827
        },
        {
          "time": 102.008946,
          "name": "G4",
          "midi": 67,
          "duration": 0.197369,
          "velocity": 0.385827
        },
        {
          "time": 102.206315,
          "name": "B3",
          "midi": 59,
          "duration": 0.197368,
          "velocity": 0.385827
        },
        {
          "time": 102.206315,
          "name": "D4",
          "midi": 62,
          "duration": 0.197368,
          "velocity": 0.385827
        },
        {
          "time": 102.206315,
          "name": "G4",
          "midi": 67,
          "duration": 0.197368,
          "velocity": 0.385827
        },
        {
          "time": 102.403683,
          "name": "B3",
          "midi": 59,
          "duration": 0.197368,
          "velocity": 0.385827
        },
        {
          "time": 102.403683,
          "name": "D4",
          "midi": 62,
          "duration": 0.197368,
          "velocity": 0.385827
        },
        {
          "time": 102.403683,
          "name": "G4",
          "midi": 67,
          "duration": 0.197368,
          "velocity": 0.385827
        },
        {
          "time": 102.601052,
          "name": "D#4",
          "midi": 63,
          "duration": 0.197368,
          "velocity": 0.385827
        },
        {
          "time": 102.601052,
          "name": "F#4",
          "midi": 66,
          "duration": 0.197368,
          "velocity": 0.385827
        },
        {
          "time": 102.601052,
          "name": "B4",
          "midi": 71,
          "duration": 0.197368,
          "velocity": 0.385827
        },
        {
          "time": 102.79842,
          "name": "D#4",
          "midi": 63,
          "duration": 0.197368,
          "velocity": 0.385827
        },
        {
          "time": 102.79842,
          "name": "F#4",
          "midi": 66,
          "duration": 0.197368,
          "velocity": 0.385827
        },
        {
          "time": 102.79842,
          "name": "B4",
          "midi": 71,
          "duration": 0.197368,
          "velocity": 0.385827
        },
        {
          "time": 102.995789,
          "name": "D#4",
          "midi": 63,
          "duration": 0.197369,
          "velocity": 0.385827
        },
        {
          "time": 102.995789,
          "name": "F#4",
          "midi": 66,
          "duration": 0.197369,
          "velocity": 0.385827
        },
        {
          "time": 102.995789,
          "name": "B4",
          "midi": 71,
          "duration": 0.197369,
          "velocity": 0.385827
        },
        {
          "time": 103.193157,
          "name": "D#4",
          "midi": 63,
          "duration": 0.197368,
          "velocity": 0.385827
        },
        {
          "time": 103.193157,
          "name": "F#4",
          "midi": 66,
          "duration": 0.197368,
          "velocity": 0.385827
        },
        {
          "time": 103.193157,
          "name": "B4",
          "midi": 71,
          "duration": 0.197368,
          "velocity": 0.385827
        },
        {
          "time": 103.390526,
          "name": "D#4",
          "midi": 63,
          "duration": 0.197368,
          "velocity": 0.385827
        },
        {
          "time": 103.390526,
          "name": "F#4",
          "midi": 66,
          "duration": 0.197368,
          "velocity": 0.385827
        },
        {
          "time": 103.390526,
          "name": "B4",
          "midi": 71,
          "duration": 0.197368,
          "velocity": 0.385827
        },
        {
          "time": 103.587894,
          "name": "D#4",
          "midi": 63,
          "duration": 0.197369,
          "velocity": 0.385827
        },
        {
          "time": 103.587894,
          "name": "F#4",
          "midi": 66,
          "duration": 0.197369,
          "velocity": 0.385827
        },
        {
          "time": 103.587894,
          "name": "B4",
          "midi": 71,
          "duration": 0.197369,
          "velocity": 0.385827
        },
        {
          "time": 103.785263,
          "name": "D#4",
          "midi": 63,
          "duration": 0.197368,
          "velocity": 0.385827
        },
        {
          "time": 103.785263,
          "name": "F#4",
          "midi": 66,
          "duration": 0.197368,
          "velocity": 0.385827
        },
        {
          "time": 103.785263,
          "name": "B4",
          "midi": 71,
          "duration": 0.197368,
          "velocity": 0.385827
        },
        {
          "time": 103.982631,
          "name": "D#4",
          "midi": 63,
          "duration": 0.197368,
          "velocity": 0.385827
        },
        {
          "time": 103.982631,
          "name": "F#4",
          "midi": 66,
          "duration": 0.197368,
          "velocity": 0.385827
        },
        {
          "time": 103.982631,
          "name": "B4",
          "midi": 71,
          "duration": 0.197368,
          "velocity": 0.385827
        },
        {
          "time": 104.18,
          "name": "D#4",
          "midi": 63,
          "duration": 0.197369,
          "velocity": 0.385827
        },
        {
          "time": 104.18,
          "name": "F#4",
          "midi": 66,
          "duration": 0.197369,
          "velocity": 0.385827
        },
        {
          "time": 104.18,
          "name": "B4",
          "midi": 71,
          "duration": 0.197369,
          "velocity": 0.385827
        },
        {
          "time": 104.377368,
          "name": "D#4",
          "midi": 63,
          "duration": 0.197368,
          "velocity": 0.385827
        },
        {
          "time": 104.377368,
          "name": "F#4",
          "midi": 66,
          "duration": 0.197368,
          "velocity": 0.385827
        },
        {
          "time": 104.377368,
          "name": "B4",
          "midi": 71,
          "duration": 0.197368,
          "velocity": 0.385827
        },
        {
          "time": 104.574737,
          "name": "D#4",
          "midi": 63,
          "duration": 0.197368,
          "velocity": 0.385827
        },
        {
          "time": 104.574737,
          "name": "F#4",
          "midi": 66,
          "duration": 0.197368,
          "velocity": 0.385827
        },
        {
          "time": 104.574737,
          "name": "B4",
          "midi": 71,
          "duration": 0.197368,
          "velocity": 0.385827
        },
        {
          "time": 104.772105,
          "name": "D#4",
          "midi": 63,
          "duration": 0.197368,
          "velocity": 0.385827
        },
        {
          "time": 104.772105,
          "name": "F#4",
          "midi": 66,
          "duration": 0.197368,
          "velocity": 0.385827
        },
        {
          "time": 104.772105,
          "name": "B4",
          "midi": 71,
          "duration": 0.197368,
          "velocity": 0.385827
        },
        {
          "time": 104.969474,
          "name": "D#4",
          "midi": 63,
          "duration": 0.197368,
          "velocity": 0.385827
        },
        {
          "time": 104.969474,
          "name": "F#4",
          "midi": 66,
          "duration": 0.197368,
          "velocity": 0.385827
        },
        {
          "time": 104.969474,
          "name": "B4",
          "midi": 71,
          "duration": 0.197368,
          "velocity": 0.385827
        },
        {
          "time": 105.166842,
          "name": "D#4",
          "midi": 63,
          "duration": 0.197369,
          "velocity": 0.385827
        },
        {
          "time": 105.166842,
          "name": "F#4",
          "midi": 66,
          "duration": 0.197369,
          "velocity": 0.385827
        },
        {
          "time": 105.166842,
          "name": "B4",
          "midi": 71,
          "duration": 0.197369,
          "velocity": 0.385827
        },
        {
          "time": 105.364211,
          "name": "D#4",
          "midi": 63,
          "duration": 0.197368,
          "velocity": 0.385827
        },
        {
          "time": 105.364211,
          "name": "F#4",
          "midi": 66,
          "duration": 0.197368,
          "velocity": 0.385827
        },
        {
          "time": 105.364211,
          "name": "B4",
          "midi": 71,
          "duration": 0.197368,
          "velocity": 0.385827
        },
        {
          "time": 105.561579,
          "name": "D#4",
          "midi": 63,
          "duration": 0.197368,
          "velocity": 0.385827
        },
        {
          "time": 105.561579,
          "name": "F#4",
          "midi": 66,
          "duration": 0.197368,
          "velocity": 0.385827
        },
        {
          "time": 105.561579,
          "name": "B4",
          "midi": 71,
          "duration": 0.197368,
          "velocity": 0.385827
        },
        {
          "time": 105.758948,
          "name": "E4",
          "midi": 64,
          "duration": 0.197369,
          "velocity": 0.385827
        },
        {
          "time": 105.758948,
          "name": "G4",
          "midi": 67,
          "duration": 0.197369,
          "velocity": 0.385827
        },
        {
          "time": 105.758948,
          "name": "B4",
          "midi": 71,
          "duration": 0.197369,
          "velocity": 0.385827
        },
        {
          "time": 105.956316,
          "name": "E4",
          "midi": 64,
          "duration": 0.197368,
          "velocity": 0.385827
        },
        {
          "time": 105.956316,
          "name": "G4",
          "midi": 67,
          "duration": 0.197368,
          "velocity": 0.385827
        },
        {
          "time": 105.956316,
          "name": "B4",
          "midi": 71,
          "duration": 0.197368,
          "velocity": 0.385827
        },
        {
          "time": 106.153685,
          "name": "E4",
          "midi": 64,
          "duration": 0.197368,
          "velocity": 0.385827
        },
        {
          "time": 106.153685,
          "name": "G4",
          "midi": 67,
          "duration": 0.197368,
          "velocity": 0.385827
        },
        {
          "time": 106.153685,
          "name": "B4",
          "midi": 71,
          "duration": 0.197368,
          "velocity": 0.385827
        },
        {
          "time": 106.351053,
          "name": "E4",
          "midi": 64,
          "duration": 0.197369,
          "velocity": 0.385827
        },
        {
          "time": 106.351053,
          "name": "G4",
          "midi": 67,
          "duration": 0.197369,
          "velocity": 0.385827
        },
        {
          "time": 106.351053,
          "name": "B4",
          "midi": 71,
          "duration": 0.197369,
          "velocity": 0.385827
        },
        {
          "time": 106.548422,
          "name": "B3",
          "midi": 59,
          "duration": 0.197368,
          "velocity": 0.385827
        },
        {
          "time": 106.548422,
          "name": "G4",
          "midi": 67,
          "duration": 0.197368,
          "velocity": 0.385827
        },
        {
          "time": 106.74579,
          "name": "B3",
          "midi": 59,
          "duration": 0.197368,
          "velocity": 0.385827
        },
        {
          "time": 106.74579,
          "name": "G4",
          "midi": 67,
          "duration": 0.197368,
          "velocity": 0.385827
        },
        {
          "time": 106.943159,
          "name": "B3",
          "midi": 59,
          "duration": 0.197368,
          "velocity": 0.385827
        },
        {
          "time": 106.943159,
          "name": "G4",
          "midi": 67,
          "duration": 0.197368,
          "velocity": 0.385827
        },
        {
          "time": 107.140527,
          "name": "B3",
          "midi": 59,
          "duration": 0.197369,
          "velocity": 0.385827
        },
        {
          "time": 107.140527,
          "name": "G4",
          "midi": 67,
          "duration": 0.197369,
          "velocity": 0.385827
        },
        {
          "time": 107.337896,
          "name": "A#3",
          "midi": 58,
          "duration": 0.197368,
          "velocity": 0.385827
        },
        {
          "time": 107.337896,
          "name": "E4",
          "midi": 64,
          "duration": 0.197368,
          "velocity": 0.385827
        },
        {
          "time": 107.535264,
          "name": "A#3",
          "midi": 58,
          "duration": 0.197368,
          "velocity": 0.385827
        },
        {
          "time": 107.535264,
          "name": "E4",
          "midi": 64,
          "duration": 0.197368,
          "velocity": 0.385827
        },
        {
          "time": 107.732633,
          "name": "A#3",
          "midi": 58,
          "duration": 0.197368,
          "velocity": 0.385827
        },
        {
          "time": 107.732633,
          "name": "E4",
          "midi": 64,
          "duration": 0.197368,
          "velocity": 0.385827
        },
        {
          "time": 107.930001,
          "name": "A#3",
          "midi": 58,
          "duration": 0.197369,
          "velocity": 0.385827
        },
        {
          "time": 107.930001,
          "name": "E4",
          "midi": 64,
          "duration": 0.197369,
          "velocity": 0.385827
        },
        {
          "time": 108.12737,
          "name": "E3",
          "midi": 52,
          "duration": 0.197368,
          "velocity": 0.385827
        },
        {
          "time": 108.12737,
          "name": "A#3",
          "midi": 58,
          "duration": 0.197368,
          "velocity": 0.385827
        },
        {
          "time": 108.324738,
          "name": "E3",
          "midi": 52,
          "duration": 0.197368,
          "velocity": 0.385827
        },
        {
          "time": 108.324738,
          "name": "A#3",
          "midi": 58,
          "duration": 0.197368,
          "velocity": 0.385827
        },
        {
          "time": 108.522107,
          "name": "F#3",
          "midi": 54,
          "duration": 0.197369,
          "velocity": 0.385827
        },
        {
          "time": 108.522107,
          "name": "A#3",
          "midi": 58,
          "duration": 0.197369,
          "velocity": 0.385827
        },
        {
          "time": 108.719475,
          "name": "F#3",
          "midi": 54,
          "duration": 0.197368,
          "velocity": 0.385827
        },
        {
          "time": 108.719475,
          "name": "A#3",
          "midi": 58,
          "duration": 0.197368,
          "velocity": 0.385827
        },
        {
          "time": 108.916844,
          "name": "D#3",
          "midi": 51,
          "duration": 0.197368,
          "velocity": 0.385827
        },
        {
          "time": 108.916844,
          "name": "F#3",
          "midi": 54,
          "duration": 0.197368,
          "velocity": 0.385827
        },
        {
          "time": 108.916844,
          "name": "B3",
          "midi": 59,
          "duration": 0.197368,
          "velocity": 0.385827
        },
        {
          "time": 109.114212,
          "name": "D#3",
          "midi": 51,
          "duration": 0.197369,
          "velocity": 0.385827
        },
        {
          "time": 109.114212,
          "name": "F#3",
          "midi": 54,
          "duration": 0.197369,
          "velocity": 0.385827
        },
        {
          "time": 109.114212,
          "name": "B3",
          "midi": 59,
          "duration": 0.197369,
          "velocity": 0.385827
        },
        {
          "time": 109.311581,
          "name": "D#3",
          "midi": 51,
          "duration": 0.197368,
          "velocity": 0.385827
        },
        {
          "time": 109.311581,
          "name": "F#3",
          "midi": 54,
          "duration": 0.197368,
          "velocity": 0.385827
        },
        {
          "time": 109.311581,
          "name": "B3",
          "midi": 59,
          "duration": 0.197368,
          "velocity": 0.385827
        },
        {
          "time": 109.508949,
          "name": "D#3",
          "midi": 51,
          "duration": 0.197368,
          "velocity": 0.385827
        },
        {
          "time": 109.508949,
          "name": "F#3",
          "midi": 54,
          "duration": 0.197368,
          "velocity": 0.385827
        },
        {
          "time": 109.508949,
          "name": "B3",
          "midi": 59,
          "duration": 0.197368,
          "velocity": 0.385827
        },
        {
          "time": 110.101055,
          "name": "B3",
          "midi": 59,
          "duration": 0.064145,
          "velocity": 0.488189
        },
        {
          "time": 110.1652,
          "name": "D#4",
          "midi": 63,
          "duration": 0.067434,
          "velocity": 0.488189
        },
        {
          "time": 110.232634,
          "name": "F#4",
          "midi": 66,
          "duration": 0.065789,
          "velocity": 0.488189
        },
        {
          "time": 110.298423,
          "name": "B4",
          "midi": 71,
          "duration": 0.064145,
          "velocity": 0.488189
        },
        {
          "time": 110.362568,
          "name": "D#5",
          "midi": 75,
          "duration": 0.067434,
          "velocity": 0.488189
        },
        {
          "time": 110.430002,
          "name": "F#5",
          "midi": 78,
          "duration": 0.065789,
          "velocity": 0.488189
        },
        {
          "time": 110.495792,
          "name": "B5",
          "midi": 83,
          "duration": 0.394737,
          "velocity": 0.692913
        },
        {
          "time": 111.285266,
          "name": "A#3",
          "midi": 58,
          "duration": 0.394737,
          "velocity": 0.488189
        },
        {
          "time": 111.285266,
          "name": "A#4",
          "midi": 70,
          "duration": 0.394737,
          "velocity": 0.488189
        },
        {
          "time": 111.680003,
          "name": "B3",
          "midi": 59,
          "duration": 0.394737,
          "velocity": 0.488189
        },
        {
          "time": 111.680003,
          "name": "B4",
          "midi": 71,
          "duration": 0.394737,
          "velocity": 0.488189
        },
        {
          "time": 112.07474,
          "name": "C4",
          "midi": 60,
          "duration": 0.789474,
          "velocity": 0.488189
        },
        {
          "time": 112.07474,
          "name": "C5",
          "midi": 72,
          "duration": 0.789474,
          "velocity": 0.488189
        },
        {
          "time": 112.864214,
          "name": "A3",
          "midi": 57,
          "duration": 0.394737,
          "velocity": 0.488189
        },
        {
          "time": 112.864214,
          "name": "A4",
          "midi": 69,
          "duration": 0.394737,
          "velocity": 0.488189
        },
        {
          "time": 113.258951,
          "name": "G3",
          "midi": 55,
          "duration": 0.394737,
          "velocity": 0.488189
        },
        {
          "time": 113.258951,
          "name": "G4",
          "midi": 67,
          "duration": 0.394737,
          "velocity": 0.488189
        },
        {
          "time": 113.653688,
          "name": "F#3",
          "midi": 54,
          "duration": 0.789474,
          "velocity": 0.488189
        },
        {
          "time": 113.653688,
          "name": "F#4",
          "midi": 66,
          "duration": 0.789474,
          "velocity": 0.488189
        },
        {
          "time": 114.443162,
          "name": "A3",
          "midi": 57,
          "duration": 0.394737,
          "velocity": 0.590551
        },
        {
          "time": 114.443162,
          "name": "A4",
          "midi": 69,
          "duration": 0.394737,
          "velocity": 0.590551
        },
        {
          "time": 114.837899,
          "name": "C4",
          "midi": 60,
          "duration": 0.394737,
          "velocity": 0.590551
        },
        {
          "time": 114.837899,
          "name": "C5",
          "midi": 72,
          "duration": 0.394737,
          "velocity": 0.590551
        },
        {
          "time": 115.232636,
          "name": "E4",
          "midi": 64,
          "duration": 0.789474,
          "velocity": 0.590551
        },
        {
          "time": 115.232636,
          "name": "E5",
          "midi": 76,
          "duration": 0.789474,
          "velocity": 0.590551
        },
        {
          "time": 116.02211,
          "name": "D#4",
          "midi": 63,
          "duration": 0.394737,
          "velocity": 0.488189
        },
        {
          "time": 116.02211,
          "name": "D#5",
          "midi": 75,
          "duration": 0.394737,
          "velocity": 0.488189
        },
        {
          "time": 116.283623,
          "name": "B3",
          "midi": 59,
          "duration": 0.088816,
          "velocity": 0.488189
        },
        {
          "time": 116.372439,
          "name": "D#4",
          "midi": 63,
          "duration": 0.087171,
          "velocity": 0.488189
        },
        {
          "time": 116.45961,
          "name": "F#4",
          "midi": 66,
          "duration": 0.088816,
          "velocity": 0.488189
        },
        {
          "time": 116.548426,
          "name": "B4",
          "midi": 71,
          "duration": 0.087171,
          "velocity": 0.488189
        },
        {
          "time": 116.635597,
          "name": "D#5",
          "midi": 75,
          "duration": 0.087171,
          "velocity": 0.488189
        },
        {
          "time": 116.722768,
          "name": "F#5",
          "midi": 78,
          "duration": 0.088816,
          "velocity": 0.488189
        },
        {
          "time": 116.811584,
          "name": "B5",
          "midi": 83,
          "duration": 0.087171,
          "velocity": 0.488189
        },
        {
          "time": 116.898755,
          "name": "F#5",
          "midi": 78,
          "duration": 0.087171,
          "velocity": 0.488189
        },
        {
          "time": 116.985926,
          "name": "D#5",
          "midi": 75,
          "duration": 0.087171,
          "velocity": 0.488189
        },
        {
          "time": 117.073097,
          "name": "B4",
          "midi": 71,
          "duration": 0.088816,
          "velocity": 0.488189
        },
        {
          "time": 117.161913,
          "name": "F#4",
          "midi": 66,
          "duration": 0.087171,
          "velocity": 0.488189
        },
        {
          "time": 117.249084,
          "name": "D#4",
          "midi": 63,
          "duration": 0.088816,
          "velocity": 0.488189
        },
        {
          "time": 117.3379,
          "name": "B3",
          "midi": 59,
          "duration": 0.263158,
          "velocity": 0.488189
        },
        {
          "time": 117.601058,
          "name": "A#3",
          "midi": 58,
          "duration": 0.394737,
          "velocity": 0.488189
        },
        {
          "time": 117.601058,
          "name": "A#4",
          "midi": 70,
          "duration": 0.394737,
          "velocity": 0.488189
        },
        {
          "time": 117.995795,
          "name": "B3",
          "midi": 59,
          "duration": 0.394737,
          "velocity": 0.488189
        },
        {
          "time": 117.995795,
          "name": "B4",
          "midi": 71,
          "duration": 0.394737,
          "velocity": 0.488189
        },
        {
          "time": 118.390532,
          "name": "C4",
          "midi": 60,
          "duration": 0.789474,
          "velocity": 0.488189
        },
        {
          "time": 118.390532,
          "name": "C5",
          "midi": 72,
          "duration": 0.789474,
          "velocity": 0.488189
        },
        {
          "time": 119.180006,
          "name": "A3",
          "midi": 57,
          "duration": 0.394737,
          "velocity": 0.488189
        },
        {
          "time": 119.180006,
          "name": "A4",
          "midi": 69,
          "duration": 0.394737,
          "velocity": 0.488189
        },
        {
          "time": 119.574743,
          "name": "G3",
          "midi": 55,
          "duration": 0.394737,
          "velocity": 0.488189
        },
        {
          "time": 119.574743,
          "name": "G4",
          "midi": 67,
          "duration": 0.394737,
          "velocity": 0.488189
        },
        {
          "time": 119.96948,
          "name": "F#3",
          "midi": 54,
          "duration": 0.789474,
          "velocity": 0.488189
        },
        {
          "time": 119.96948,
          "name": "F#4",
          "midi": 66,
          "duration": 0.789474,
          "velocity": 0.488189
        },
        {
          "time": 120.758954,
          "name": "A3",
          "midi": 57,
          "duration": 0.261513,
          "velocity": 0.590551
        },
        {
          "time": 120.758954,
          "name": "A4",
          "midi": 69,
          "duration": 0.261513,
          "velocity": 0.590551
        },
        {
          "time": 121.020467,
          "name": "C4",
          "midi": 60,
          "duration": 0.264803,
          "velocity": 0.590551
        },
        {
          "time": 121.020467,
          "name": "C5",
          "midi": 72,
          "duration": 0.264803,
          "velocity": 0.590551
        },
        {
          "time": 121.28527,
          "name": "E4",
          "midi": 64,
          "duration": 0.263158,
          "velocity": 0.590551
        },
        {
          "time": 121.28527,
          "name": "E5",
          "midi": 76,
          "duration": 0.263158,
          "velocity": 0.590551
        },
        {
          "time": 121.548428,
          "name": "G4",
          "midi": 67,
          "duration": 0.789474,
          "velocity": 0.590551
        },
        {
          "time": 121.548428,
          "name": "G5",
          "midi": 79,
          "duration": 0.789474,
          "velocity": 0.590551
        },
        {
          "time": 122.337902,
          "name": "F#4",
          "midi": 66,
          "duration": 0.394737,
          "velocity": 0.488189
        },
        {
          "time": 122.337902,
          "name": "F#5",
          "midi": 78,
          "duration": 0.394737,
          "velocity": 0.488189
        },
        {
          "time": 122.599415,
          "name": "B4",
          "midi": 71,
          "duration": 0.088816,
          "velocity": 0.488189
        },
        {
          "time": 122.688231,
          "name": "D#5",
          "midi": 75,
          "duration": 0.087171,
          "velocity": 0.488189
        },
        {
          "time": 122.775402,
          "name": "F#5",
          "midi": 78,
          "duration": 0.088816,
          "velocity": 0.488189
        },
        {
          "time": 122.864218,
          "name": "B5",
          "midi": 83,
          "duration": 0.087171,
          "velocity": 0.488189
        },
        {
          "time": 122.951389,
          "name": "D#6",
          "midi": 87,
          "duration": 0.087171,
          "velocity": 0.488189
        },
        {
          "time": 123.03856,
          "name": "F#6",
          "midi": 90,
          "duration": 0.088816,
          "velocity": 0.488189
        },
        {
          "time": 123.127376,
          "name": "B6",
          "midi": 95,
          "duration": 0.087171,
          "velocity": 0.488189
        },
        {
          "time": 123.214547,
          "name": "F#6",
          "midi": 90,
          "duration": 0.087171,
          "velocity": 0.488189
        },
        {
          "time": 123.301718,
          "name": "D#6",
          "midi": 87,
          "duration": 0.087171,
          "velocity": 0.488189
        },
        {
          "time": 123.388889,
          "name": "B5",
          "midi": 83,
          "duration": 0.088816,
          "velocity": 0.488189
        },
        {
          "time": 123.477705,
          "name": "F#5",
          "midi": 78,
          "duration": 0.087171,
          "velocity": 0.488189
        },
        {
          "time": 123.564876,
          "name": "D#5",
          "midi": 75,
          "duration": 0.088816,
          "velocity": 0.488189
        },
        {
          "time": 123.653692,
          "name": "B4",
          "midi": 71,
          "duration": 0.263158,
          "velocity": 0.488189
        },
        {
          "time": 123.91685,
          "name": "B4",
          "midi": 71,
          "duration": 0.261513,
          "velocity": 0.488189
        },
        {
          "time": 124.178363,
          "name": "D#4",
          "midi": 63,
          "duration": 0.264803,
          "velocity": 0.488189
        },
        {
          "time": 124.178363,
          "name": "D#5",
          "midi": 75,
          "duration": 0.264803,
          "velocity": 0.488189
        },
        {
          "time": 124.443166,
          "name": "F#4",
          "midi": 66,
          "duration": 0.263158,
          "velocity": 0.488189
        },
        {
          "time": 124.443166,
          "name": "F#5",
          "midi": 78,
          "duration": 0.263158,
          "velocity": 0.488189
        },
        {
          "time": 124.706324,
          "name": "A4",
          "midi": 69,
          "duration": 0.789474,
          "velocity": 0.692913
        },
        {
          "time": 124.706324,
          "name": "A5",
          "midi": 81,
          "duration": 0.789474,
          "velocity": 0.692913
        },
        {
          "time": 125.495798,
          "name": "G4",
          "midi": 67,
          "duration": 0.394737,
          "velocity": 0.488189
        },
        {
          "time": 125.495798,
          "name": "G5",
          "midi": 79,
          "duration": 0.394737,
          "velocity": 0.488189
        },
        {
          "time": 125.757311,
          "name": "B4",
          "midi": 71,
          "duration": 0.088816,
          "velocity": 0.488189
        },
        {
          "time": 125.846127,
          "name": "E5",
          "midi": 76,
          "duration": 0.087171,
          "velocity": 0.488189
        },
        {
          "time": 125.933298,
          "name": "G5",
          "midi": 79,
          "duration": 0.088816,
          "velocity": 0.488189
        },
        {
          "time": 126.022114,
          "name": "B5",
          "midi": 83,
          "duration": 0.087171,
          "velocity": 0.488189
        },
        {
          "time": 126.109285,
          "name": "E6",
          "midi": 88,
          "duration": 0.087171,
          "velocity": 0.488189
        },
        {
          "time": 126.196456,
          "name": "G6",
          "midi": 91,
          "duration": 0.088816,
          "velocity": 0.488189
        },
        {
          "time": 126.285272,
          "name": "B6",
          "midi": 95,
          "duration": 0.087171,
          "velocity": 0.488189
        },
        {
          "time": 126.372443,
          "name": "G6",
          "midi": 91,
          "duration": 0.087171,
          "velocity": 0.488189
        },
        {
          "time": 126.459614,
          "name": "E6",
          "midi": 88,
          "duration": 0.087171,
          "velocity": 0.488189
        },
        {
          "time": 126.546785,
          "name": "B5",
          "midi": 83,
          "duration": 0.088816,
          "velocity": 0.488189
        },
        {
          "time": 126.635601,
          "name": "G5",
          "midi": 79,
          "duration": 0.087171,
          "velocity": 0.488189
        },
        {
          "time": 126.722772,
          "name": "E5",
          "midi": 76,
          "duration": 0.088816,
          "velocity": 0.488189
        },
        {
          "time": 126.811588,
          "name": "B4",
          "midi": 71,
          "duration": 0.263158,
          "velocity": 0.488189
        },
        {
          "time": 127.074746,
          "name": "C5",
          "midi": 72,
          "duration": 0.261513,
          "velocity": 0.590551
        },
        {
          "time": 127.336259,
          "name": "E4",
          "midi": 64,
          "duration": 0.264803,
          "velocity": 0.590551
        },
        {
          "time": 127.336259,
          "name": "E5",
          "midi": 76,
          "duration": 0.264803,
          "velocity": 0.590551
        },
        {
          "time": 127.601062,
          "name": "G4",
          "midi": 67,
          "duration": 0.263158,
          "velocity": 0.590551
        },
        {
          "time": 127.601062,
          "name": "G5",
          "midi": 79,
          "duration": 0.263158,
          "velocity": 0.590551
        },
        {
          "time": 127.86422,
          "name": "B4",
          "midi": 71,
          "duration": 0.465116,
          "velocity": 0.795276
        },
        {
          "time": 127.86422,
          "name": "B5",
          "midi": 83,
          "duration": 0.465116,
          "velocity": 0.795276
        },
        {
          "time": 128.329336,
          "name": "A4",
          "midi": 69,
          "duration": 0.232558,
          "velocity": 0.590551
        },
        {
          "time": 128.329336,
          "name": "A5",
          "midi": 81,
          "duration": 0.232558,
          "velocity": 0.590551
        },
        {
          "time": 128.561894,
          "name": "D#4",
          "midi": 63,
          "duration": 0.231105,
          "velocity": 0.590551
        },
        {
          "time": 128.561894,
          "name": "D#5",
          "midi": 75,
          "duration": 0.231105,
          "velocity": 0.590551
        },
        {
          "time": 128.792999,
          "name": "F#4",
          "midi": 66,
          "duration": 0.234011,
          "velocity": 0.590551
        },
        {
          "time": 128.792999,
          "name": "F#5",
          "midi": 78,
          "duration": 0.234011,
          "velocity": 0.590551
        },
        {
          "time": 129.02701,
          "name": "A4",
          "midi": 69,
          "duration": 0.232558,
          "velocity": 0.590551
        },
        {
          "time": 129.02701,
          "name": "A5",
          "midi": 81,
          "duration": 0.232558,
          "velocity": 0.590551
        },
        {
          "time": 129.259568,
          "name": "C5",
          "midi": 72,
          "duration": 0.465116,
          "velocity": 0.795276
        },
        {
          "time": 129.259568,
          "name": "C6",
          "midi": 84,
          "duration": 0.465116,
          "velocity": 0.795276
        },
        {
          "time": 129.724684,
          "name": "B4",
          "midi": 71,
          "duration": 0.232558,
          "velocity": 0.590551
        },
        {
          "time": 129.724684,
          "name": "B5",
          "midi": 83,
          "duration": 0.232558,
          "velocity": 0.590551
        },
        {
          "time": 129.957242,
          "name": "E4",
          "midi": 64,
          "duration": 0.231105,
          "velocity": 0.590551
        },
        {
          "time": 129.957242,
          "name": "E5",
          "midi": 76,
          "duration": 0.231105,
          "velocity": 0.590551
        },
        {
          "time": 130.188347,
          "name": "G#4",
          "midi": 68,
          "duration": 0.234011,
          "velocity": 0.590551
        },
        {
          "time": 130.188347,
          "name": "G#5",
          "midi": 80,
          "duration": 0.234011,
          "velocity": 0.590551
        },
        {
          "time": 130.422358,
          "name": "B4",
          "midi": 71,
          "duration": 0.232558,
          "velocity": 0.590551
        },
        {
          "time": 130.422358,
          "name": "B5",
          "midi": 83,
          "duration": 0.232558,
          "velocity": 0.590551
        },
        {
          "time": 130.654916,
          "name": "D5",
          "midi": 74,
          "duration": 0.465116,
          "velocity": 0.897638
        },
        {
          "time": 130.654916,
          "name": "D6",
          "midi": 86,
          "duration": 0.465116,
          "velocity": 0.897638
        },
        {
          "time": 131.120032,
          "name": "C5",
          "midi": 72,
          "duration": 0.232558,
          "velocity": 0.692913
        },
        {
          "time": 131.120032,
          "name": "C6",
          "midi": 84,
          "duration": 0.232558,
          "velocity": 0.692913
        },
        {
          "time": 131.35259,
          "name": "F#4",
          "midi": 66,
          "duration": 0.231105,
          "velocity": 0.692913
        },
        {
          "time": 131.35259,
          "name": "F#5",
          "midi": 78,
          "duration": 0.231105,
          "velocity": 0.692913
        },
        {
          "time": 131.583695,
          "name": "A4",
          "midi": 69,
          "duration": 0.234011,
          "velocity": 0.692913
        },
        {
          "time": 131.583695,
          "name": "A5",
          "midi": 81,
          "duration": 0.234011,
          "velocity": 0.692913
        },
        {
          "time": 131.817706,
          "name": "C5",
          "midi": 72,
          "duration": 0.232558,
          "velocity": 0.692913
        },
        {
          "time": 131.817706,
          "name": "C6",
          "midi": 84,
          "duration": 0.232558,
          "velocity": 0.692913
        },
        {
          "time": 132.050264,
          "name": "E5",
          "midi": 76,
          "duration": 0.465116,
          "velocity": 0.897638
        },
        {
          "time": 132.050264,
          "name": "E6",
          "midi": 88,
          "duration": 0.465116,
          "velocity": 0.897638
        },
        {
          "time": 132.51538,
          "name": "D#5",
          "midi": 75,
          "duration": 0.232558,
          "velocity": 0.692913
        },
        {
          "time": 132.51538,
          "name": "D#6",
          "midi": 87,
          "duration": 0.232558,
          "velocity": 0.692913
        },
        {
          "time": 132.747938,
          "name": "F#4",
          "midi": 66,
          "duration": 0.231105,
          "velocity": 0.795276
        },
        {
          "time": 132.747938,
          "name": "F#5",
          "midi": 78,
          "duration": 0.231105,
          "velocity": 0.795276
        },
        {
          "time": 132.979043,
          "name": "B4",
          "midi": 71,
          "duration": 0.234011,
          "velocity": 0.795276
        },
        {
          "time": 132.979043,
          "name": "B5",
          "midi": 83,
          "duration": 0.234011,
          "velocity": 0.795276
        },
        {
          "time": 133.213054,
          "name": "D#5",
          "midi": 75,
          "duration": 0.232558,
          "velocity": 0.795276
        },
        {
          "time": 133.213054,
          "name": "D#6",
          "midi": 87,
          "duration": 0.232558,
          "velocity": 0.795276
        },
        {
          "time": 133.445612,
          "name": "F#5",
          "midi": 78,
          "duration": 0.465116,
          "velocity": 1
        },
        {
          "time": 133.445612,
          "name": "F#6",
          "midi": 90,
          "duration": 0.465116,
          "velocity": 1
        },
        {
          "time": 133.910728,
          "name": "E5",
          "midi": 76,
          "duration": 0.232558,
          "velocity": 0.795276
        },
        {
          "time": 133.910728,
          "name": "E6",
          "midi": 88,
          "duration": 0.232558,
          "velocity": 0.795276
        },
        {
          "time": 134.143286,
          "name": "G5",
          "midi": 79,
          "duration": 1.395348,
          "velocity": 0.795276
        },
        {
          "time": 134.143286,
          "name": "B5",
          "midi": 83,
          "duration": 1.395348,
          "velocity": 0.795276
        },
        {
          "time": 134.143286,
          "name": "E6",
          "midi": 88,
          "duration": 1.395348,
          "velocity": 0.795276
        },
        {
          "time": 134.143286,
          "name": "G6",
          "midi": 91,
          "duration": 1.395348,
          "velocity": 0.795276
        },
        {
          "time": 135.538634,
          "name": "F#5",
          "midi": 78,
          "duration": 0.348837,
          "velocity": 0.795276
        },
        {
          "time": 135.538634,
          "name": "F#6",
          "midi": 90,
          "duration": 0.348837,
          "velocity": 0.795276
        },
        {
          "time": 135.887471,
          "name": "E5",
          "midi": 76,
          "duration": 0.348837,
          "velocity": 0.795276
        },
        {
          "time": 135.887471,
          "name": "E6",
          "midi": 88,
          "duration": 0.348837,
          "velocity": 0.795276
        },
        {
          "time": 136.236308,
          "name": "A5",
          "midi": 81,
          "duration": 2.314424,
          "velocity": 0.795276
        },
        {
          "time": 136.236308,
          "name": "C6",
          "midi": 84,
          "duration": 2.314424,
          "velocity": 0.795276
        },
        {
          "time": 136.236308,
          "name": "E6",
          "midi": 88,
          "duration": 2.314424,
          "velocity": 0.795276
        },
        {
          "time": 136.236308,
          "name": "E5",
          "midi": 76,
          "duration": 0.710283,
          "velocity": 0.897638
        },
        {
          "time": 136.946591,
          "name": "D5",
          "midi": 74,
          "duration": 0.375,
          "velocity": 0.897638
        },
        {
          "time": 137.321591,
          "name": "C5",
          "midi": 72,
          "duration": 0.389611,
          "velocity": 0.897638
        },
        {
          "time": 137.711201,
          "name": "B4",
          "midi": 71,
          "duration": 0.410959,
          "velocity": 0.897638
        },
        {
          "time": 138.12216,
          "name": "A4",
          "midi": 69,
          "duration": 0.876333,
          "velocity": 0.897638
        },
        {
          "time": 138.550732,
          "name": "C5",
          "midi": 72,
          "duration": 0.916511,
          "velocity": 0.795276
        },
        {
          "time": 138.550732,
          "name": "E5",
          "midi": 76,
          "duration": 0.916511,
          "velocity": 0.795276
        },
        {
          "time": 138.998493,
          "name": "G4",
          "midi": 67,
          "duration": 0.234375,
          "velocity": 0.897638
        },
        {
          "time": 139.232868,
          "name": "F#4",
          "midi": 66,
          "duration": 0.234375,
          "velocity": 0.897638
        },
        {
          "time": 139.467243,
          "name": "E5",
          "midi": 76,
          "duration": 3,
          "velocity": 0.795276
        },
        {
          "time": 139.467243,
          "name": "A5",
          "midi": 81,
          "duration": 3,
          "velocity": 0.795276
        },
        {
          "time": 139.467243,
          "name": "C5",
          "midi": 72,
          "duration": 1,
          "velocity": 0.897638
        },
        {
          "time": 140.467243,
          "name": "B4",
          "midi": 71,
          "duration": 0.5,
          "velocity": 0.897638
        },
        {
          "time": 140.967243,
          "name": "A4",
          "midi": 69,
          "duration": 0.5,
          "velocity": 0.897638
        },
        {
          "time": 141.467243,
          "name": "G4",
          "midi": 67,
          "duration": 0.5,
          "velocity": 0.897638
        },
        {
          "time": 141.967243,
          "name": "F#4",
          "midi": 66,
          "duration": 1,
          "velocity": 0.897638
        },
        {
          "time": 142.467243,
          "name": "A4",
          "midi": 69,
          "duration": 1,
          "velocity": 0.795276
        },
        {
          "time": 142.467243,
          "name": "C5",
          "midi": 72,
          "duration": 1,
          "velocity": 0.795276
        },
        {
          "time": 142.467243,
          "name": "F#5",
          "midi": 78,
          "duration": 1,
          "velocity": 0.795276
        },
        {
          "time": 142.967243,
          "name": "E4",
          "midi": 64,
          "duration": 0.25,
          "velocity": 0.897638
        },
        {
          "time": 143.217243,
          "name": "D#4",
          "midi": 63,
          "duration": 0.25,
          "velocity": 0.897638
        },
        {
          "time": 143.467243,
          "name": "F#4",
          "midi": 66,
          "duration": 1,
          "velocity": 0.795276
        },
        {
          "time": 143.467243,
          "name": "A4",
          "midi": 69,
          "duration": 1,
          "velocity": 0.795276
        },
        {
          "time": 143.467243,
          "name": "E4",
          "midi": 64,
          "duration": 0.5,
          "velocity": 0.897638
        },
        {
          "time": 143.967243,
          "name": "D#4",
          "midi": 63,
          "duration": 0.5,
          "velocity": 0.897638
        },
        {
          "time": 144.467243,
          "name": "G4",
          "midi": 67,
          "duration": 0.5,
          "velocity": 0.897638
        },
        {
          "time": 144.967243,
          "name": "F#4",
          "midi": 66,
          "duration": 0.5,
          "velocity": 0.897638
        },
        {
          "time": 151.467243,
          "name": "G4",
          "midi": 67,
          "duration": 1.73913,
          "velocity": 0.692913
        },
        {
          "time": 151.467243,
          "name": "B4",
          "midi": 71,
          "duration": 1.73913,
          "velocity": 0.692913
        },
        {
          "time": 151.467243,
          "name": "E5",
          "midi": 76,
          "duration": 1.73913,
          "velocity": 0.692913
        },
        {
          "time": 151.467243,
          "name": "E4",
          "midi": 64,
          "duration": 0.288043,
          "velocity": 0.692913
        },
        {
          "time": 151.755286,
          "name": "E4",
          "midi": 64,
          "duration": 0.097826,
          "velocity": 0.692913
        },
        {
          "time": 151.853112,
          "name": "G4",
          "midi": 67,
          "duration": 0.096014,
          "velocity": 0.692913
        },
        {
          "time": 151.949127,
          "name": "B4",
          "midi": 71,
          "duration": 0.097826,
          "velocity": 0.692913
        },
        {
          "time": 152.046953,
          "name": "E5",
          "midi": 76,
          "duration": 0.096014,
          "velocity": 0.692913
        },
        {
          "time": 152.142967,
          "name": "G5",
          "midi": 79,
          "duration": 0.096014,
          "velocity": 0.692913
        },
        {
          "time": 152.238982,
          "name": "B5",
          "midi": 83,
          "duration": 0.097826,
          "velocity": 0.692913
        },
        {
          "time": 152.336808,
          "name": "E6",
          "midi": 88,
          "duration": 0.096014,
          "velocity": 0.692913
        },
        {
          "time": 152.432822,
          "name": "B5",
          "midi": 83,
          "duration": 0.096014,
          "velocity": 0.692913
        },
        {
          "time": 152.528837,
          "name": "G5",
          "midi": 79,
          "duration": 0.096014,
          "velocity": 0.692913
        },
        {
          "time": 152.624851,
          "name": "E5",
          "midi": 76,
          "duration": 0.097826,
          "velocity": 0.692913
        },
        {
          "time": 152.722677,
          "name": "B4",
          "midi": 71,
          "duration": 0.096014,
          "velocity": 0.692913
        },
        {
          "time": 152.818692,
          "name": "G4",
          "midi": 67,
          "duration": 0.097826,
          "velocity": 0.692913
        },
        {
          "time": 152.916518,
          "name": "E4",
          "midi": 64,
          "duration": 0.289855,
          "velocity": 0.692913
        },
        {
          "time": 153.206373,
          "name": "G4",
          "midi": 67,
          "duration": 1.73913,
          "velocity": 0.795276
        },
        {
          "time": 153.206373,
          "name": "C5",
          "midi": 72,
          "duration": 1.73913,
          "velocity": 0.795276
        },
        {
          "time": 153.206373,
          "name": "E5",
          "midi": 76,
          "duration": 1.73913,
          "velocity": 0.795276
        },
        {
          "time": 153.206373,
          "name": "E4",
          "midi": 64,
          "duration": 0.288043,
          "velocity": 0.795276
        },
        {
          "time": 153.494416,
          "name": "E4",
          "midi": 64,
          "duration": 0.097826,
          "velocity": 0.795276
        },
        {
          "time": 153.592242,
          "name": "G4",
          "midi": 67,
          "duration": 0.096014,
          "velocity": 0.795276
        },
        {
          "time": 153.688257,
          "name": "C5",
          "midi": 72,
          "duration": 0.097826,
          "velocity": 0.795276
        },
        {
          "time": 153.786083,
          "name": "E5",
          "midi": 76,
          "duration": 0.096014,
          "velocity": 0.795276
        },
        {
          "time": 153.882097,
          "name": "G5",
          "midi": 79,
          "duration": 0.096014,
          "velocity": 0.795276
        },
        {
          "time": 153.978112,
          "name": "C6",
          "midi": 84,
          "duration": 0.097826,
          "velocity": 0.795276
        },
        {
          "time": 154.075938,
          "name": "E6",
          "midi": 88,
          "duration": 0.096014,
          "velocity": 0.795276
        },
        {
          "time": 154.171952,
          "name": "C6",
          "midi": 84,
          "duration": 0.096014,
          "velocity": 0.795276
        },
        {
          "time": 154.267967,
          "name": "G5",
          "midi": 79,
          "duration": 0.096014,
          "velocity": 0.795276
        },
        {
          "time": 154.363981,
          "name": "E5",
          "midi": 76,
          "duration": 0.097826,
          "velocity": 0.795276
        },
        {
          "time": 154.461807,
          "name": "C5",
          "midi": 72,
          "duration": 0.096014,
          "velocity": 0.795276
        },
        {
          "time": 154.557822,
          "name": "G4",
          "midi": 67,
          "duration": 0.097826,
          "velocity": 0.795276
        },
        {
          "time": 154.655648,
          "name": "E4",
          "midi": 64,
          "duration": 0.289855,
          "velocity": 0.795276
        },
        {
          "time": 154.945503,
          "name": "G5",
          "midi": 79,
          "duration": 0.869565,
          "velocity": 1
        },
        {
          "time": 154.945503,
          "name": "C6",
          "midi": 84,
          "duration": 0.869565,
          "velocity": 1
        },
        {
          "time": 154.945503,
          "name": "E6",
          "midi": 88,
          "duration": 0.869565,
          "velocity": 1
        },
        {
          "time": 154.945503,
          "name": "G6",
          "midi": 91,
          "duration": 0.869565,
          "velocity": 1
        },
        {
          "time": 155.815068,
          "name": "F#5",
          "midi": 78,
          "duration": 0.434783,
          "velocity": 1
        },
        {
          "time": 155.815068,
          "name": "F#6",
          "midi": 90,
          "duration": 0.434783,
          "velocity": 1
        },
        {
          "time": 156.249851,
          "name": "E5",
          "midi": 76,
          "duration": 0.434782,
          "velocity": 1
        },
        {
          "time": 156.249851,
          "name": "E6",
          "midi": 88,
          "duration": 0.434782,
          "velocity": 1
        },
        {
          "time": 156.684633,
          "name": "D5",
          "midi": 74,
          "duration": 0.434783,
          "velocity": 0.795276
        },
        {
          "time": 156.684633,
          "name": "F#5",
          "midi": 78,
          "duration": 0.434783,
          "velocity": 0.795276
        },
        {
          "time": 156.684633,
          "name": "A5",
          "midi": 81,
          "duration": 0.434783,
          "velocity": 0.795276
        },
        {
          "time": 156.684633,
          "name": "D6",
          "midi": 86,
          "duration": 0.434783,
          "velocity": 0.795276
        },
        {
          "time": 157.119416,
          "name": "C5",
          "midi": 72,
          "duration": 0.869565,
          "velocity": 0.795276
        },
        {
          "time": 157.119416,
          "name": "C6",
          "midi": 84,
          "duration": 0.869565,
          "velocity": 0.795276
        },
        {
          "time": 157.98898,
          "name": "B4",
          "midi": 71,
          "duration": 0.217391,
          "velocity": 0.795276
        },
        {
          "time": 157.98898,
          "name": "B5",
          "midi": 83,
          "duration": 0.217391,
          "velocity": 0.795276
        },
        {
          "time": 158.206372,
          "name": "A4",
          "midi": 69,
          "duration": 0.217391,
          "velocity": 0.795276
        },
        {
          "time": 158.206372,
          "name": "A5",
          "midi": 81,
          "duration": 0.217391,
          "velocity": 0.795276
        },
        {
          "time": 158.423763,
          "name": "G4",
          "midi": 67,
          "duration": 1.304347,
          "velocity": 0.795276
        },
        {
          "time": 158.423763,
          "name": "B4",
          "midi": 71,
          "duration": 1.304347,
          "velocity": 0.795276
        },
        {
          "time": 158.423763,
          "name": "D5",
          "midi": 74,
          "duration": 1.304347,
          "velocity": 0.795276
        },
        {
          "time": 158.423763,
          "name": "G5",
          "midi": 79,
          "duration": 1.304347,
          "velocity": 0.795276
        },
        {
          "time": 161.032458,
          "name": "G5",
          "midi": 79,
          "duration": 0.123188,
          "velocity": 0.795276
        },
        {
          "time": 161.155646,
          "name": "A5",
          "midi": 81,
          "duration": 0.125,
          "velocity": 0.795276
        },
        {
          "time": 161.280646,
          "name": "B5",
          "midi": 83,
          "duration": 0.123188,
          "velocity": 0.795276
        },
        {
          "time": 161.403835,
          "name": "C#6",
          "midi": 85,
          "duration": 0.125,
          "velocity": 0.795276
        },
        {
          "time": 161.528835,
          "name": "D#6",
          "midi": 87,
          "duration": 0.123188,
          "velocity": 0.795276
        },
        {
          "time": 161.652023,
          "name": "E6",
          "midi": 88,
          "duration": 0.125,
          "velocity": 0.795276
        },
        {
          "time": 161.777023,
          "name": "F#6",
          "midi": 90,
          "duration": 0.125,
          "velocity": 0.795276
        },
        {
          "time": 161.902023,
          "name": "G5",
          "midi": 79,
          "duration": 0.869565,
          "velocity": 1
        },
        {
          "time": 161.902023,
          "name": "C6",
          "midi": 84,
          "duration": 0.869565,
          "velocity": 1
        },
        {
          "time": 161.902023,
          "name": "E6",
          "midi": 88,
          "duration": 0.869565,
          "velocity": 1
        },
        {
          "time": 161.902023,
          "name": "G6",
          "midi": 91,
          "duration": 0.869565,
          "velocity": 1
        },
        {
          "time": 162.771588,
          "name": "F#5",
          "midi": 78,
          "duration": 0.434782,
          "velocity": 1
        },
        {
          "time": 162.771588,
          "name": "F#6",
          "midi": 90,
          "duration": 0.434782,
          "velocity": 1
        },
        {
          "time": 163.20637,
          "name": "E5",
          "midi": 76,
          "duration": 0.434783,
          "velocity": 1
        },
        {
          "time": 163.20637,
          "name": "E6",
          "midi": 88,
          "duration": 0.434783,
          "velocity": 1
        },
        {
          "time": 163.641153,
          "name": "D5",
          "midi": 74,
          "duration": 0.434782,
          "velocity": 0.795276
        },
        {
          "time": 163.641153,
          "name": "F#5",
          "midi": 78,
          "duration": 0.434782,
          "velocity": 0.795276
        },
        {
          "time": 163.641153,
          "name": "A5",
          "midi": 81,
          "duration": 0.434782,
          "velocity": 0.795276
        },
        {
          "time": 163.641153,
          "name": "D6",
          "midi": 86,
          "duration": 0.434782,
          "velocity": 0.795276
        },
        {
          "time": 164.075935,
          "name": "C5",
          "midi": 72,
          "duration": 0.869565,
          "velocity": 0.795276
        },
        {
          "time": 164.075935,
          "name": "C6",
          "midi": 84,
          "duration": 0.869565,
          "velocity": 0.795276
        },
        {
          "time": 164.9455,
          "name": "B4",
          "midi": 71,
          "duration": 0.217391,
          "velocity": 0.795276
        },
        {
          "time": 164.9455,
          "name": "B5",
          "midi": 83,
          "duration": 0.217391,
          "velocity": 0.795276
        },
        {
          "time": 165.162892,
          "name": "A4",
          "midi": 69,
          "duration": 0.217391,
          "velocity": 0.795276
        },
        {
          "time": 165.162892,
          "name": "A5",
          "midi": 81,
          "duration": 0.217391,
          "velocity": 0.795276
        },
        {
          "time": 165.380283,
          "name": "G4",
          "midi": 67,
          "duration": 1.304348,
          "velocity": 0.795276
        },
        {
          "time": 165.380283,
          "name": "B4",
          "midi": 71,
          "duration": 1.304348,
          "velocity": 0.795276
        },
        {
          "time": 165.380283,
          "name": "D5",
          "midi": 74,
          "duration": 1.304348,
          "velocity": 0.795276
        },
        {
          "time": 165.380283,
          "name": "G5",
          "midi": 79,
          "duration": 1.304348,
          "velocity": 0.795276
        },
        {
          "time": 167.988978,
          "name": "G5",
          "midi": 79,
          "duration": 0.123188,
          "velocity": 0.795276
        },
        {
          "time": 168.112166,
          "name": "A5",
          "midi": 81,
          "duration": 0.125,
          "velocity": 0.795276
        },
        {
          "time": 168.237166,
          "name": "B5",
          "midi": 83,
          "duration": 0.123188,
          "velocity": 0.795276
        },
        {
          "time": 168.360355,
          "name": "C#6",
          "midi": 85,
          "duration": 0.125,
          "velocity": 0.795276
        },
        {
          "time": 168.485355,
          "name": "D#6",
          "midi": 87,
          "duration": 0.123188,
          "velocity": 0.795276
        },
        {
          "time": 168.608543,
          "name": "E6",
          "midi": 88,
          "duration": 0.125,
          "velocity": 0.795276
        },
        {
          "time": 168.733543,
          "name": "F#6",
          "midi": 90,
          "duration": 0.125,
          "velocity": 0.795276
        },
        {
          "time": 168.858543,
          "name": "G5",
          "midi": 79,
          "duration": 0.833333,
          "velocity": 1
        },
        {
          "time": 168.858543,
          "name": "C6",
          "midi": 84,
          "duration": 0.833333,
          "velocity": 1
        },
        {
          "time": 168.858543,
          "name": "E6",
          "midi": 88,
          "duration": 0.833333,
          "velocity": 1
        },
        {
          "time": 168.858543,
          "name": "G6",
          "midi": 91,
          "duration": 0.833333,
          "velocity": 1
        },
        {
          "time": 169.691876,
          "name": "F#5",
          "midi": 78,
          "duration": 0.416666,
          "velocity": 0.795276
        },
        {
          "time": 169.691876,
          "name": "F#6",
          "midi": 90,
          "duration": 0.416666,
          "velocity": 0.795276
        },
        {
          "time": 170.108542,
          "name": "E5",
          "midi": 76,
          "duration": 0.416666,
          "velocity": 0.795276
        },
        {
          "time": 170.108542,
          "name": "E6",
          "midi": 88,
          "duration": 0.416666,
          "velocity": 0.795276
        },
        {
          "time": 170.525209,
          "name": "G5",
          "midi": 79,
          "duration": 0.833333,
          "velocity": 0.795276
        },
        {
          "time": 170.525209,
          "name": "C6",
          "midi": 84,
          "duration": 0.833333,
          "velocity": 0.795276
        },
        {
          "time": 170.525209,
          "name": "E6",
          "midi": 88,
          "duration": 0.833333,
          "velocity": 0.795276
        },
        {
          "time": 170.525209,
          "name": "G6",
          "midi": 91,
          "duration": 0.833333,
          "velocity": 0.795276
        },
        {
          "time": 171.358542,
          "name": "F#5",
          "midi": 78,
          "duration": 0.416666,
          "velocity": 0.795276
        },
        {
          "time": 171.358542,
          "name": "F#6",
          "midi": 90,
          "duration": 0.416666,
          "velocity": 0.795276
        },
        {
          "time": 171.775208,
          "name": "E5",
          "midi": 76,
          "duration": 0.416667,
          "velocity": 0.795276
        },
        {
          "time": 171.775208,
          "name": "E6",
          "midi": 88,
          "duration": 0.416667,
          "velocity": 0.795276
        },
        {
          "time": 172.191875,
          "name": "G5",
          "midi": 79,
          "duration": 0.276042,
          "velocity": 0.795276
        },
        {
          "time": 172.191875,
          "name": "B5",
          "midi": 83,
          "duration": 0.276042,
          "velocity": 0.795276
        },
        {
          "time": 172.191875,
          "name": "E6",
          "midi": 88,
          "duration": 0.276042,
          "velocity": 0.795276
        },
        {
          "time": 172.191875,
          "name": "G6",
          "midi": 91,
          "duration": 0.276042,
          "velocity": 0.795276
        },
        {
          "time": 172.467917,
          "name": "F#5",
          "midi": 78,
          "duration": 0.279514,
          "velocity": 0.795276
        },
        {
          "time": 172.467917,
          "name": "F#6",
          "midi": 90,
          "duration": 0.279514,
          "velocity": 0.795276
        },
        {
          "time": 172.74743,
          "name": "E5",
          "midi": 76,
          "duration": 0.277778,
          "velocity": 0.795276
        },
        {
          "time": 172.74743,
          "name": "E6",
          "midi": 88,
          "duration": 0.277778,
          "velocity": 0.795276
        },
        {
          "time": 173.025208,
          "name": "G5",
          "midi": 79,
          "duration": 0.276042,
          "velocity": 0.795276
        },
        {
          "time": 173.025208,
          "name": "G6",
          "midi": 91,
          "duration": 0.276042,
          "velocity": 0.795276
        },
        {
          "time": 173.30125,
          "name": "F#5",
          "midi": 78,
          "duration": 0.279514,
          "velocity": 0.795276
        },
        {
          "time": 173.30125,
          "name": "F#6",
          "midi": 90,
          "duration": 0.279514,
          "velocity": 0.795276
        },
        {
          "time": 173.580763,
          "name": "E5",
          "midi": 76,
          "duration": 0.277778,
          "velocity": 0.795276
        },
        {
          "time": 173.580763,
          "name": "E6",
          "midi": 88,
          "duration": 0.277778,
          "velocity": 0.795276
        },
        {
          "time": 173.858541,
          "name": "G5",
          "midi": 79,
          "duration": 0.276042,
          "velocity": 0.795276
        },
        {
          "time": 173.858541,
          "name": "A#5",
          "midi": 82,
          "duration": 0.276042,
          "velocity": 0.795276
        },
        {
          "time": 173.858541,
          "name": "E6",
          "midi": 88,
          "duration": 0.276042,
          "velocity": 0.795276
        },
        {
          "time": 173.858541,
          "name": "G6",
          "midi": 91,
          "duration": 0.276042,
          "velocity": 0.795276
        },
        {
          "time": 174.134583,
          "name": "F#5",
          "midi": 78,
          "duration": 0.279514,
          "velocity": 0.795276
        },
        {
          "time": 174.134583,
          "name": "F#6",
          "midi": 90,
          "duration": 0.279514,
          "velocity": 0.795276
        },
        {
          "time": 174.414096,
          "name": "E5",
          "midi": 76,
          "duration": 0.277778,
          "velocity": 0.795276
        },
        {
          "time": 174.414096,
          "name": "E6",
          "midi": 88,
          "duration": 0.277778,
          "velocity": 0.795276
        },
        {
          "time": 174.691874,
          "name": "G5",
          "midi": 79,
          "duration": 0.276042,
          "velocity": 0.795276
        },
        {
          "time": 174.691874,
          "name": "G6",
          "midi": 91,
          "duration": 0.276042,
          "velocity": 0.795276
        },
        {
          "time": 174.967916,
          "name": "F#5",
          "midi": 78,
          "duration": 0.279514,
          "velocity": 0.795276
        },
        {
          "time": 174.967916,
          "name": "F#6",
          "midi": 90,
          "duration": 0.279514,
          "velocity": 0.795276
        },
        {
          "time": 175.247429,
          "name": "E5",
          "midi": 76,
          "duration": 0.277778,
          "velocity": 0.795276
        },
        {
          "time": 175.247429,
          "name": "E6",
          "midi": 88,
          "duration": 0.277778,
          "velocity": 0.795276
        },
        {
          "time": 175.525207,
          "name": "G5",
          "midi": 79,
          "duration": 0.208333,
          "velocity": 0.795276
        },
        {
          "time": 175.525207,
          "name": "G6",
          "midi": 91,
          "duration": 0.208333,
          "velocity": 0.795276
        },
        {
          "time": 175.73354,
          "name": "F#5",
          "midi": 78,
          "duration": 0.208333,
          "velocity": 0.795276
        },
        {
          "time": 175.73354,
          "name": "F#6",
          "midi": 90,
          "duration": 0.208333,
          "velocity": 0.795276
        },
        {
          "time": 175.941873,
          "name": "E5",
          "midi": 76,
          "duration": 0.208333,
          "velocity": 0.795276
        },
        {
          "time": 175.941873,
          "name": "E6",
          "midi": 88,
          "duration": 0.208333,
          "velocity": 0.795276
        },
        {
          "time": 176.150207,
          "name": "F#5",
          "midi": 78,
          "duration": 0.208333,
          "velocity": 0.795276
        },
        {
          "time": 176.150207,
          "name": "F#6",
          "midi": 90,
          "duration": 0.208333,
          "velocity": 0.795276
        },
        {
          "time": 176.35854,
          "name": "G5",
          "midi": 79,
          "duration": 0.208333,
          "velocity": 0.795276
        },
        {
          "time": 176.35854,
          "name": "G6",
          "midi": 91,
          "duration": 0.208333,
          "velocity": 0.795276
        },
        {
          "time": 176.566873,
          "name": "F#5",
          "midi": 78,
          "duration": 0.208333,
          "velocity": 0.795276
        },
        {
          "time": 176.566873,
          "name": "F#6",
          "midi": 90,
          "duration": 0.208333,
          "velocity": 0.795276
        },
        {
          "time": 176.775206,
          "name": "E5",
          "midi": 76,
          "duration": 0.208333,
          "velocity": 0.795276
        },
        {
          "time": 176.775206,
          "name": "E6",
          "midi": 88,
          "duration": 0.208333,
          "velocity": 0.795276
        },
        {
          "time": 176.98354,
          "name": "F#5",
          "midi": 78,
          "duration": 0.208333,
          "velocity": 0.795276
        },
        {
          "time": 176.98354,
          "name": "F#6",
          "midi": 90,
          "duration": 0.208333,
          "velocity": 0.795276
        },
        {
          "time": 177.191873,
          "name": "G5",
          "midi": 79,
          "duration": 0.208333,
          "velocity": 0.795276
        },
        {
          "time": 177.191873,
          "name": "G6",
          "midi": 91,
          "duration": 0.208333,
          "velocity": 0.795276
        },
        {
          "time": 177.400206,
          "name": "F#5",
          "midi": 78,
          "duration": 0.208333,
          "velocity": 0.795276
        },
        {
          "time": 177.400206,
          "name": "F#6",
          "midi": 90,
          "duration": 0.208333,
          "velocity": 0.795276
        },
        {
          "time": 177.60854,
          "name": "E5",
          "midi": 76,
          "duration": 0.208333,
          "velocity": 0.795276
        },
        {
          "time": 177.60854,
          "name": "E6",
          "midi": 88,
          "duration": 0.208333,
          "velocity": 0.795276
        },
        {
          "time": 177.816873,
          "name": "F#5",
          "midi": 78,
          "duration": 0.208333,
          "velocity": 0.795276
        },
        {
          "time": 177.816873,
          "name": "F#6",
          "midi": 90,
          "duration": 0.208333,
          "velocity": 0.795276
        },
        {
          "time": 178.025206,
          "name": "G5",
          "midi": 79,
          "duration": 0.208333,
          "velocity": 0.795276
        },
        {
          "time": 178.025206,
          "name": "G6",
          "midi": 91,
          "duration": 0.208333,
          "velocity": 0.795276
        },
        {
          "time": 178.233539,
          "name": "F#5",
          "midi": 78,
          "duration": 0.208333,
          "velocity": 0.795276
        },
        {
          "time": 178.233539,
          "name": "F#6",
          "midi": 90,
          "duration": 0.208333,
          "velocity": 0.795276
        },
        {
          "time": 178.441872,
          "name": "E5",
          "midi": 76,
          "duration": 0.208333,
          "velocity": 0.795276
        },
        {
          "time": 178.441872,
          "name": "E6",
          "midi": 88,
          "duration": 0.208333,
          "velocity": 0.795276
        },
        {
          "time": 178.650206,
          "name": "F#5",
          "midi": 78,
          "duration": 0.208333,
          "velocity": 0.795276
        },
        {
          "time": 178.650206,
          "name": "F#6",
          "midi": 90,
          "duration": 0.208333,
          "velocity": 0.795276
        },
        {
          "time": 178.858539,
          "name": "G5",
          "midi": 79,
          "duration": 0.208333,
          "velocity": 0.795276
        },
        {
          "time": 178.858539,
          "name": "G6",
          "midi": 91,
          "duration": 0.208333,
          "velocity": 0.795276
        },
        {
          "time": 179.066872,
          "name": "F#5",
          "midi": 78,
          "duration": 0.208333,
          "velocity": 0.795276
        },
        {
          "time": 179.066872,
          "name": "F#6",
          "midi": 90,
          "duration": 0.208333,
          "velocity": 0.795276
        },
        {
          "time": 179.275205,
          "name": "E5",
          "midi": 76,
          "duration": 0.208333,
          "velocity": 0.795276
        },
        {
          "time": 179.275205,
          "name": "E6",
          "midi": 88,
          "duration": 0.208333,
          "velocity": 0.795276
        },
        {
          "time": 179.483539,
          "name": "F#5",
          "midi": 78,
          "duration": 0.208333,
          "velocity": 0.795276
        },
        {
          "time": 179.483539,
          "name": "F#6",
          "midi": 90,
          "duration": 0.208333,
          "velocity": 0.795276
        },
        {
          "time": 179.691872,
          "name": "G6",
          "midi": 91,
          "duration": 0.138889,
          "velocity": 1
        },
        {
          "time": 179.830761,
          "name": "F#6",
          "midi": 90,
          "duration": 0.137153,
          "velocity": 1
        },
        {
          "time": 179.967914,
          "name": "E6",
          "midi": 88,
          "duration": 0.140625,
          "velocity": 1
        },
        {
          "time": 180.108539,
          "name": "E6",
          "midi": 88,
          "duration": 0.138889,
          "velocity": 1
        },
        {
          "time": 180.247427,
          "name": "F#6",
          "midi": 90,
          "duration": 0.137153,
          "velocity": 1
        },
        {
          "time": 180.38458,
          "name": "G6",
          "midi": 91,
          "duration": 0.140625,
          "velocity": 1
        },
        {
          "time": 180.525205,
          "name": "G6",
          "midi": 91,
          "duration": 0.138889,
          "velocity": 1
        },
        {
          "time": 180.664094,
          "name": "F#6",
          "midi": 90,
          "duration": 0.137153,
          "velocity": 1
        },
        {
          "time": 180.801247,
          "name": "E6",
          "midi": 88,
          "duration": 0.140625,
          "velocity": 1
        },
        {
          "time": 180.941871,
          "name": "E6",
          "midi": 88,
          "duration": 0.138889,
          "velocity": 1
        },
        {
          "time": 181.08076,
          "name": "F#6",
          "midi": 90,
          "duration": 0.137153,
          "velocity": 1
        },
        {
          "time": 181.217913,
          "name": "G6",
          "midi": 91,
          "duration": 0.140625,
          "velocity": 1
        },
        {
          "time": 181.358538,
          "name": "G6",
          "midi": 91,
          "duration": 0.138889,
          "velocity": 1
        },
        {
          "time": 181.497427,
          "name": "F#6",
          "midi": 90,
          "duration": 0.137153,
          "velocity": 1
        },
        {
          "time": 181.63458,
          "name": "E6",
          "midi": 88,
          "duration": 0.140625,
          "velocity": 1
        },
        {
          "time": 181.775205,
          "name": "E6",
          "midi": 88,
          "duration": 0.138889,
          "velocity": 1
        },
        {
          "time": 181.914093,
          "name": "F#6",
          "midi": 90,
          "duration": 0.137153,
          "velocity": 1
        },
        {
          "time": 182.051246,
          "name": "G6",
          "midi": 91,
          "duration": 0.140625,
          "velocity": 1
        },
        {
          "time": 182.191871,
          "name": "C6",
          "midi": 84,
          "duration": 1.73913,
          "velocity": 1
        },
        {
          "time": 182.191871,
          "name": "E6",
          "midi": 88,
          "duration": 1.73913,
          "velocity": 1
        },
        {
          "time": 182.191871,
          "name": "G6",
          "midi": 91,
          "duration": 1.73913,
          "velocity": 1
        },
        {
          "time": 182.191871,
          "name": "G5",
          "midi": 79,
          "duration": 0.869565,
          "velocity": 0.897638
        },
        {
          "time": 183.061436,
          "name": "F#5",
          "midi": 78,
          "duration": 0.434783,
          "velocity": 0.897638
        },
        {
          "time": 183.496218,
          "name": "E5",
          "midi": 76,
          "duration": 0.434782,
          "velocity": 0.897638
        },
        {
          "time": 183.931001,
          "name": "F#5",
          "midi": 78,
          "duration": 0.869565,
          "velocity": 0.795276
        },
        {
          "time": 183.931001,
          "name": "A5",
          "midi": 81,
          "duration": 0.869565,
          "velocity": 0.795276
        },
        {
          "time": 183.931001,
          "name": "D6",
          "midi": 86,
          "duration": 0.869565,
          "velocity": 0.795276
        },
        {
          "time": 183.931001,
          "name": "D5",
          "midi": 74,
          "duration": 0.434783,
          "velocity": 0.897638
        },
        {
          "time": 184.365783,
          "name": "C5",
          "midi": 72,
          "duration": 0.869565,
          "velocity": 0.897638
        },
        {
          "time": 184.800566,
          "name": "D5",
          "midi": 74,
          "duration": 0.869565,
          "velocity": 0.795276
        },
        {
          "time": 184.800566,
          "name": "F#5",
          "midi": 78,
          "duration": 0.869565,
          "velocity": 0.795276
        },
        {
          "time": 184.800566,
          "name": "A5",
          "midi": 81,
          "duration": 0.869565,
          "velocity": 0.795276
        },
        {
          "time": 185.235348,
          "name": "B4",
          "midi": 71,
          "duration": 0.217391,
          "velocity": 0.897638
        },
        {
          "time": 185.45274,
          "name": "A4",
          "midi": 69,
          "duration": 0.217391,
          "velocity": 0.897638
        },
        {
          "time": 185.670131,
          "name": "B4",
          "midi": 71,
          "duration": 0.108696,
          "velocity": 0.897638
        },
        {
          "time": 185.670131,
          "name": "D5",
          "midi": 74,
          "duration": 0.108696,
          "velocity": 0.897638
        },
        {
          "time": 185.670131,
          "name": "G5",
          "midi": 79,
          "duration": 0.108696,
          "velocity": 0.897638
        },
        {
          "time": 185.778827,
          "name": "G4",
          "midi": 67,
          "duration": 0.108696,
          "velocity": 0.897638
        },
        {
          "time": 185.887522,
          "name": "B4",
          "midi": 71,
          "duration": 0.108696,
          "velocity": 0.692913
        },
        {
          "time": 185.887522,
          "name": "D5",
          "midi": 74,
          "duration": 0.108696,
          "velocity": 0.692913
        },
        {
          "time": 185.887522,
          "name": "G5",
          "midi": 79,
          "duration": 0.108696,
          "velocity": 0.692913
        },
        {
          "time": 185.996218,
          "name": "G4",
          "midi": 67,
          "duration": 0.108696,
          "velocity": 0.692913
        },
        {
          "time": 186.104913,
          "name": "B4",
          "midi": 71,
          "duration": 0.108696,
          "velocity": 0.692913
        },
        {
          "time": 186.104913,
          "name": "D5",
          "midi": 74,
          "duration": 0.108696,
          "velocity": 0.692913
        },
        {
          "time": 186.104913,
          "name": "G5",
          "midi": 79,
          "duration": 0.108696,
          "velocity": 0.692913
        },
        {
          "time": 186.213609,
          "name": "G4",
          "midi": 67,
          "duration": 0.108696,
          "velocity": 0.692913
        },
        {
          "time": 186.322305,
          "name": "B4",
          "midi": 71,
          "duration": 0.108696,
          "velocity": 0.692913
        },
        {
          "time": 186.322305,
          "name": "D5",
          "midi": 74,
          "duration": 0.108696,
          "velocity": 0.692913
        },
        {
          "time": 186.322305,
          "name": "G5",
          "midi": 79,
          "duration": 0.108696,
          "velocity": 0.692913
        },
        {
          "time": 186.431,
          "name": "G4",
          "midi": 67,
          "duration": 0.108696,
          "velocity": 0.692913
        },
        {
          "time": 186.539696,
          "name": "B4",
          "midi": 71,
          "duration": 0.108696,
          "velocity": 0.692913
        },
        {
          "time": 186.539696,
          "name": "D5",
          "midi": 74,
          "duration": 0.108696,
          "velocity": 0.692913
        },
        {
          "time": 186.539696,
          "name": "G5",
          "midi": 79,
          "duration": 0.108696,
          "velocity": 0.692913
        },
        {
          "time": 186.648392,
          "name": "G4",
          "midi": 67,
          "duration": 0.108696,
          "velocity": 0.692913
        },
        {
          "time": 186.757087,
          "name": "B4",
          "midi": 71,
          "duration": 0.108696,
          "velocity": 0.692913
        },
        {
          "time": 186.757087,
          "name": "D5",
          "midi": 74,
          "duration": 0.108696,
          "velocity": 0.692913
        },
        {
          "time": 186.757087,
          "name": "G5",
          "midi": 79,
          "duration": 0.108696,
          "velocity": 0.692913
        },
        {
          "time": 186.865783,
          "name": "G4",
          "midi": 67,
          "duration": 0.108696,
          "velocity": 0.692913
        },
        {
          "time": 186.974479,
          "name": "B4",
          "midi": 71,
          "duration": 0.108696,
          "velocity": 0.692913
        },
        {
          "time": 186.974479,
          "name": "D5",
          "midi": 74,
          "duration": 0.108696,
          "velocity": 0.692913
        },
        {
          "time": 186.974479,
          "name": "G5",
          "midi": 79,
          "duration": 0.108696,
          "velocity": 0.692913
        },
        {
          "time": 187.083174,
          "name": "G4",
          "midi": 67,
          "duration": 0.108696,
          "velocity": 0.692913
        },
        {
          "time": 187.19187,
          "name": "B4",
          "midi": 71,
          "duration": 0.108696,
          "velocity": 0.692913
        },
        {
          "time": 187.19187,
          "name": "D5",
          "midi": 74,
          "duration": 0.108696,
          "velocity": 0.692913
        },
        {
          "time": 187.19187,
          "name": "G5",
          "midi": 79,
          "duration": 0.108696,
          "velocity": 0.692913
        },
        {
          "time": 187.300565,
          "name": "G4",
          "midi": 67,
          "duration": 0.108696,
          "velocity": 0.692913
        },
        {
          "time": 187.409261,
          "name": "E5",
          "midi": 76,
          "duration": 0.108696,
          "velocity": 0.897638
        },
        {
          "time": 187.409261,
          "name": "G5",
          "midi": 79,
          "duration": 0.108696,
          "velocity": 0.897638
        },
        {
          "time": 187.409261,
          "name": "B5",
          "midi": 83,
          "duration": 0.108696,
          "velocity": 0.897638
        },
        {
          "time": 187.517957,
          "name": "B4",
          "midi": 71,
          "duration": 0.108696,
          "velocity": 0.897638
        },
        {
          "time": 187.626652,
          "name": "E5",
          "midi": 76,
          "duration": 0.108696,
          "velocity": 0.692913
        },
        {
          "time": 187.626652,
          "name": "G5",
          "midi": 79,
          "duration": 0.108696,
          "velocity": 0.692913
        },
        {
          "time": 187.626652,
          "name": "B5",
          "midi": 83,
          "duration": 0.108696,
          "velocity": 0.692913
        },
        {
          "time": 187.735348,
          "name": "B4",
          "midi": 71,
          "duration": 0.108696,
          "velocity": 0.692913
        },
        {
          "time": 187.844043,
          "name": "E5",
          "midi": 76,
          "duration": 0.108696,
          "velocity": 0.692913
        },
        {
          "time": 187.844043,
          "name": "G5",
          "midi": 79,
          "duration": 0.108696,
          "velocity": 0.692913
        },
        {
          "time": 187.844043,
          "name": "B5",
          "midi": 83,
          "duration": 0.108696,
          "velocity": 0.692913
        },
        {
          "time": 187.952739,
          "name": "B4",
          "midi": 71,
          "duration": 0.108696,
          "velocity": 0.692913
        },
        {
          "time": 188.061435,
          "name": "E5",
          "midi": 76,
          "duration": 0.108696,
          "velocity": 0.692913
        },
        {
          "time": 188.061435,
          "name": "G5",
          "midi": 79,
          "duration": 0.108696,
          "velocity": 0.692913
        },
        {
          "time": 188.061435,
          "name": "B5",
          "midi": 83,
          "duration": 0.108696,
          "velocity": 0.692913
        },
        {
          "time": 188.17013,
          "name": "B4",
          "midi": 71,
          "duration": 0.108696,
          "velocity": 0.692913
        },
        {
          "time": 188.278826,
          "name": "G5",
          "midi": 79,
          "duration": 0.108696,
          "velocity": 0.897638
        },
        {
          "time": 188.278826,
          "name": "B5",
          "midi": 83,
          "duration": 0.108696,
          "velocity": 0.897638
        },
        {
          "time": 188.278826,
          "name": "E6",
          "midi": 88,
          "duration": 0.108696,
          "velocity": 0.897638
        },
        {
          "time": 188.387522,
          "name": "E5",
          "midi": 76,
          "duration": 0.108696,
          "velocity": 0.897638
        },
        {
          "time": 188.496217,
          "name": "G5",
          "midi": 79,
          "duration": 0.108696,
          "velocity": 0.692913
        },
        {
          "time": 188.496217,
          "name": "B5",
          "midi": 83,
          "duration": 0.108696,
          "velocity": 0.692913
        },
        {
          "time": 188.496217,
          "name": "E6",
          "midi": 88,
          "duration": 0.108696,
          "velocity": 0.692913
        },
        {
          "time": 188.604913,
          "name": "E5",
          "midi": 76,
          "duration": 0.108696,
          "velocity": 0.692913
        },
        {
          "time": 188.713608,
          "name": "G5",
          "midi": 79,
          "duration": 0.108696,
          "velocity": 0.692913
        },
        {
          "time": 188.713608,
          "name": "B5",
          "midi": 83,
          "duration": 0.108696,
          "velocity": 0.692913
        },
        {
          "time": 188.713608,
          "name": "E6",
          "midi": 88,
          "duration": 0.108696,
          "velocity": 0.692913
        },
        {
          "time": 188.822304,
          "name": "E5",
          "midi": 76,
          "duration": 0.108696,
          "velocity": 0.692913
        },
        {
          "time": 188.931,
          "name": "G5",
          "midi": 79,
          "duration": 0.108696,
          "velocity": 0.692913
        },
        {
          "time": 188.931,
          "name": "B5",
          "midi": 83,
          "duration": 0.108696,
          "velocity": 0.692913
        },
        {
          "time": 188.931,
          "name": "E6",
          "midi": 88,
          "duration": 0.108696,
          "velocity": 0.692913
        },
        {
          "time": 189.039695,
          "name": "E5",
          "midi": 76,
          "duration": 0.108696,
          "velocity": 0.692913
        },
        {
          "time": 189.148391,
          "name": "C6",
          "midi": 84,
          "duration": 1.73913,
          "velocity": 1
        },
        {
          "time": 189.148391,
          "name": "E6",
          "midi": 88,
          "duration": 1.73913,
          "velocity": 1
        },
        {
          "time": 189.148391,
          "name": "G6",
          "midi": 91,
          "duration": 1.73913,
          "velocity": 1
        },
        {
          "time": 189.148391,
          "name": "G5",
          "midi": 79,
          "duration": 0.869565,
          "velocity": 0.897638
        },
        {
          "time": 190.017956,
          "name": "F#5",
          "midi": 78,
          "duration": 0.434782,
          "velocity": 0.897638
        },
        {
          "time": 190.452738,
          "name": "E5",
          "midi": 76,
          "duration": 0.434783,
          "velocity": 0.897638
        },
        {
          "time": 190.887521,
          "name": "F#5",
          "midi": 78,
          "duration": 0.869565,
          "velocity": 0.795276
        },
        {
          "time": 190.887521,
          "name": "A5",
          "midi": 81,
          "duration": 0.869565,
          "velocity": 0.795276
        },
        {
          "time": 190.887521,
          "name": "D6",
          "midi": 86,
          "duration": 0.869565,
          "velocity": 0.795276
        },
        {
          "time": 190.887521,
          "name": "D5",
          "midi": 74,
          "duration": 0.434783,
          "velocity": 0.897638
        },
        {
          "time": 191.322304,
          "name": "C5",
          "midi": 72,
          "duration": 0.869565,
          "velocity": 0.897638
        },
        {
          "time": 191.757086,
          "name": "D5",
          "midi": 74,
          "duration": 0.869565,
          "velocity": 0.795276
        },
        {
          "time": 191.757086,
          "name": "F#5",
          "midi": 78,
          "duration": 0.869565,
          "velocity": 0.795276
        },
        {
          "time": 191.757086,
          "name": "A5",
          "midi": 81,
          "duration": 0.869565,
          "velocity": 0.795276
        },
        {
          "time": 192.191868,
          "name": "B4",
          "midi": 71,
          "duration": 0.217391,
          "velocity": 0.897638
        },
        {
          "time": 192.40926,
          "name": "A4",
          "midi": 69,
          "duration": 0.217391,
          "velocity": 0.897638
        },
        {
          "time": 192.626651,
          "name": "G4",
          "midi": 67,
          "duration": 0.434783,
          "velocity": 0.795276
        },
        {
          "time": 192.626651,
          "name": "B4",
          "midi": 71,
          "duration": 0.434783,
          "velocity": 0.795276
        },
        {
          "time": 192.626651,
          "name": "D5",
          "midi": 74,
          "duration": 0.434783,
          "velocity": 0.795276
        },
        {
          "time": 192.626651,
          "name": "G5",
          "midi": 79,
          "duration": 0.434783,
          "velocity": 0.795276
        },
        {
          "time": 193.496216,
          "name": "G3",
          "midi": 55,
          "duration": 0.144927,
          "velocity": 0.692913
        },
        {
          "time": 193.641143,
          "name": "B3",
          "midi": 59,
          "duration": 0.143116,
          "velocity": 0.692913
        },
        {
          "time": 193.784259,
          "name": "D4",
          "midi": 62,
          "duration": 0.146739,
          "velocity": 0.692913
        },
        {
          "time": 193.930998,
          "name": "G4",
          "midi": 67,
          "duration": 0.144927,
          "velocity": 0.692913
        },
        {
          "time": 194.075926,
          "name": "B4",
          "midi": 71,
          "duration": 0.143116,
          "velocity": 0.692913
        },
        {
          "time": 194.219042,
          "name": "D5",
          "midi": 74,
          "duration": 0.146739,
          "velocity": 0.692913
        },
        {
          "time": 194.365781,
          "name": "G5",
          "midi": 79,
          "duration": 0.434782,
          "velocity": 0.692913
        },
        {
          "time": 195.235346,
          "name": "E4",
          "midi": 64,
          "duration": 0.434782,
          "velocity": 0.692913
        },
        {
          "time": 195.235346,
          "name": "E5",
          "midi": 76,
          "duration": 0.434782,
          "velocity": 0.692913
        },
        {
          "time": 195.235346,
          "name": "B4",
          "midi": 71,
          "duration": 0.869565,
          "velocity": 0.590551
        },
        {
          "time": 195.670128,
          "name": "D4",
          "midi": 62,
          "duration": 0.434783,
          "velocity": 0.692913
        },
        {
          "time": 195.670128,
          "name": "D5",
          "midi": 74,
          "duration": 0.434783,
          "velocity": 0.692913
        },
        {
          "time": 196.104911,
          "name": "D4",
          "midi": 62,
          "duration": 0.652174,
          "velocity": 0.897638
        },
        {
          "time": 196.104911,
          "name": "G4",
          "midi": 67,
          "duration": 0.652174,
          "velocity": 0.897638
        },
        {
          "time": 196.104911,
          "name": "B4",
          "midi": 71,
          "duration": 0.652174,
          "velocity": 0.897638
        },
        {
          "time": 196.757085,
          "name": "B3",
          "midi": 59,
          "duration": 0.217391,
          "velocity": 0.692913
        },
        {
          "time": 196.757085,
          "name": "D5",
          "midi": 74,
          "duration": 0.217391,
          "velocity": 0.692913
        },
        {
          "time": 196.974476,
          "name": "C4",
          "midi": 60,
          "duration": 0.434783,
          "velocity": 0.692913
        },
        {
          "time": 196.974476,
          "name": "G4",
          "midi": 67,
          "duration": 0.434783,
          "velocity": 0.692913
        },
        {
          "time": 196.974476,
          "name": "C5",
          "midi": 72,
          "duration": 0.434783,
          "velocity": 0.692913
        },
        {
          "time": 198.713606,
          "name": "B4",
          "midi": 71,
          "duration": 0.434782,
          "velocity": 0.692913
        },
        {
          "time": 198.713606,
          "name": "B5",
          "midi": 83,
          "duration": 0.434782,
          "velocity": 0.692913
        },
        {
          "time": 198.713606,
          "name": "F#5",
          "midi": 78,
          "duration": 0.869565,
          "velocity": 0.590551
        },
        {
          "time": 199.148388,
          "name": "A4",
          "midi": 69,
          "duration": 0.434783,
          "velocity": 0.692913
        },
        {
          "time": 199.148388,
          "name": "A5",
          "midi": 81,
          "duration": 0.434783,
          "velocity": 0.692913
        },
        {
          "time": 199.583171,
          "name": "A4",
          "midi": 69,
          "duration": 0.652174,
          "velocity": 0.897638
        },
        {
          "time": 199.583171,
          "name": "D5",
          "midi": 74,
          "duration": 0.652174,
          "velocity": 0.897638
        },
        {
          "time": 199.583171,
          "name": "F#5",
          "midi": 78,
          "duration": 0.652174,
          "velocity": 0.897638
        },
        {
          "time": 200.235345,
          "name": "F#4",
          "midi": 66,
          "duration": 0.217391,
          "velocity": 0.692913
        },
        {
          "time": 200.235345,
          "name": "A5",
          "midi": 81,
          "duration": 0.217391,
          "velocity": 0.692913
        },
        {
          "time": 200.452736,
          "name": "G4",
          "midi": 67,
          "duration": 0.434783,
          "velocity": 0.692913
        },
        {
          "time": 200.452736,
          "name": "B4",
          "midi": 71,
          "duration": 0.434783,
          "velocity": 0.692913
        },
        {
          "time": 200.452736,
          "name": "D5",
          "midi": 74,
          "duration": 0.434783,
          "velocity": 0.692913
        },
        {
          "time": 200.452736,
          "name": "G5",
          "midi": 79,
          "duration": 0.434783,
          "velocity": 0.692913
        },
        {
          "time": 202.191866,
          "name": "E5",
          "midi": 76,
          "duration": 0.434782,
          "velocity": 0.692913
        },
        {
          "time": 202.191866,
          "name": "E6",
          "midi": 88,
          "duration": 0.434782,
          "velocity": 0.692913
        },
        {
          "time": 202.191866,
          "name": "B5",
          "midi": 83,
          "duration": 0.869565,
          "velocity": 0.590551
        },
        {
          "time": 202.626648,
          "name": "D5",
          "midi": 74,
          "duration": 0.434783,
          "velocity": 0.692913
        },
        {
          "time": 202.626648,
          "name": "D6",
          "midi": 86,
          "duration": 0.434783,
          "velocity": 0.692913
        },
        {
          "time": 203.061431,
          "name": "D5",
          "midi": 74,
          "duration": 0.652174,
          "velocity": 0.897638
        },
        {
          "time": 203.061431,
          "name": "G5",
          "midi": 79,
          "duration": 0.652174,
          "velocity": 0.897638
        },
        {
          "time": 203.061431,
          "name": "B5",
          "midi": 83,
          "duration": 0.652174,
          "velocity": 0.897638
        },
        {
          "time": 203.713605,
          "name": "B4",
          "midi": 71,
          "duration": 0.217391,
          "velocity": 0.795276
        },
        {
          "time": 203.713605,
          "name": "D6",
          "midi": 86,
          "duration": 0.217391,
          "velocity": 0.795276
        },
        {
          "time": 203.930996,
          "name": "C5",
          "midi": 72,
          "duration": 0.434782,
          "velocity": 0.795276
        },
        {
          "time": 203.930996,
          "name": "G5",
          "midi": 79,
          "duration": 0.434782,
          "velocity": 0.795276
        },
        {
          "time": 203.930996,
          "name": "C6",
          "midi": 84,
          "duration": 0.434782,
          "velocity": 0.795276
        },
        {
          "time": 205.670126,
          "name": "B5",
          "midi": 83,
          "duration": 0.434783,
          "velocity": 0.795276
        },
        {
          "time": 205.670126,
          "name": "B6",
          "midi": 95,
          "duration": 0.434783,
          "velocity": 0.795276
        },
        {
          "time": 205.670126,
          "name": "F#6",
          "midi": 90,
          "duration": 0.869565,
          "velocity": 0.692913
        },
        {
          "time": 206.104908,
          "name": "A5",
          "midi": 81,
          "duration": 0.434783,
          "velocity": 0.795276
        },
        {
          "time": 206.104908,
          "name": "A6",
          "midi": 93,
          "duration": 0.434783,
          "velocity": 0.795276
        },
        {
          "time": 206.539691,
          "name": "A5",
          "midi": 81,
          "duration": 0.652174,
          "velocity": 1
        },
        {
          "time": 206.539691,
          "name": "D6",
          "midi": 86,
          "duration": 0.652174,
          "velocity": 1
        },
        {
          "time": 206.539691,
          "name": "F#6",
          "midi": 90,
          "duration": 0.652174,
          "velocity": 1
        },
        {
          "time": 207.191865,
          "name": "F#5",
          "midi": 78,
          "duration": 0.217391,
          "velocity": 0.795276
        },
        {
          "time": 207.191865,
          "name": "A6",
          "midi": 93,
          "duration": 0.217391,
          "velocity": 0.795276
        },
        {
          "time": 207.409256,
          "name": "G5",
          "midi": 79,
          "duration": 0.434782,
          "velocity": 0.795276
        },
        {
          "time": 207.409256,
          "name": "B5",
          "midi": 83,
          "duration": 0.434782,
          "velocity": 0.795276
        },
        {
          "time": 207.409256,
          "name": "D6",
          "midi": 86,
          "duration": 0.434782,
          "velocity": 0.795276
        },
        {
          "time": 207.409256,
          "name": "G6",
          "midi": 91,
          "duration": 0.434782,
          "velocity": 0.795276
        },
        {
          "time": 209.148386,
          "name": "B5",
          "midi": 83,
          "duration": 0.434783,
          "velocity": 0.795276
        },
        {
          "time": 209.148386,
          "name": "B6",
          "midi": 95,
          "duration": 0.434783,
          "velocity": 0.795276
        },
        {
          "time": 209.148386,
          "name": "F#6",
          "midi": 90,
          "duration": 0.869565,
          "velocity": 0.692913
        },
        {
          "time": 209.583168,
          "name": "A5",
          "midi": 81,
          "duration": 0.434782,
          "velocity": 0.795276
        },
        {
          "time": 209.583168,
          "name": "A6",
          "midi": 93,
          "duration": 0.434782,
          "velocity": 0.795276
        },
        {
          "time": 210.017951,
          "name": "A5",
          "midi": 81,
          "duration": 0.652174,
          "velocity": 1
        },
        {
          "time": 210.017951,
          "name": "D6",
          "midi": 86,
          "duration": 0.652174,
          "velocity": 1
        },
        {
          "time": 210.017951,
          "name": "F#6",
          "midi": 90,
          "duration": 0.652174,
          "velocity": 1
        },
        {
          "time": 210.670125,
          "name": "F#5",
          "midi": 78,
          "duration": 0.217391,
          "velocity": 0.795276
        },
        {
          "time": 210.670125,
          "name": "A6",
          "midi": 93,
          "duration": 0.217391,
          "velocity": 0.795276
        },
        {
          "time": 210.887516,
          "name": "G5",
          "midi": 79,
          "duration": 0.434782,
          "velocity": 0.795276
        },
        {
          "time": 210.887516,
          "name": "B5",
          "midi": 83,
          "duration": 0.434782,
          "velocity": 0.795276
        },
        {
          "time": 210.887516,
          "name": "D6",
          "midi": 86,
          "duration": 0.434782,
          "velocity": 0.795276
        },
        {
          "time": 210.887516,
          "name": "G6",
          "midi": 91,
          "duration": 0.434782,
          "velocity": 0.795276
        },
        {
          "time": 212.626646,
          "name": "B5",
          "midi": 83,
          "duration": 0.434782,
          "velocity": 0.795276
        },
        {
          "time": 212.626646,
          "name": "B6",
          "midi": 95,
          "duration": 0.434782,
          "velocity": 0.795276
        },
        {
          "time": 212.626646,
          "name": "F#6",
          "midi": 90,
          "duration": 0.869565,
          "velocity": 0.692913
        },
        {
          "time": 213.061428,
          "name": "A5",
          "midi": 81,
          "duration": 0.434783,
          "velocity": 0.795276
        },
        {
          "time": 213.061428,
          "name": "A6",
          "midi": 93,
          "duration": 0.434783,
          "velocity": 0.795276
        },
        {
          "time": 213.496211,
          "name": "A5",
          "midi": 81,
          "duration": 0.434783,
          "velocity": 0.795276
        },
        {
          "time": 213.496211,
          "name": "F#6",
          "midi": 90,
          "duration": 0.434783,
          "velocity": 0.795276
        },
        {
          "time": 213.496211,
          "name": "D6",
          "midi": 86,
          "duration": 1.73913,
          "velocity": 0.692913
        },
        {
          "time": 213.930993,
          "name": "F#5",
          "midi": 78,
          "duration": 0.869565,
          "velocity": 0.795276
        },
        {
          "time": 213.930993,
          "name": "A6",
          "midi": 93,
          "duration": 0.869565,
          "velocity": 0.795276
        },
        {
          "time": 214.800558,
          "name": "G5",
          "midi": 79,
          "duration": 0.434783,
          "velocity": 0.795276
        },
        {
          "time": 214.800558,
          "name": "G6",
          "midi": 91,
          "duration": 0.434783,
          "velocity": 0.795276
        },
        {
          "time": 215.235341,
          "name": "E5",
          "midi": 76,
          "duration": 0.434782,
          "velocity": 0.795276
        },
        {
          "time": 215.235341,
          "name": "C#6",
          "midi": 85,
          "duration": 0.434782,
          "velocity": 0.795276
        },
        {
          "time": 215.235341,
          "name": "G5",
          "midi": 79,
          "duration": 1.73913,
          "velocity": 0.692913
        },
        {
          "time": 215.670123,
          "name": "C#5",
          "midi": 73,
          "duration": 0.869565,
          "velocity": 0.795276
        },
        {
          "time": 215.670123,
          "name": "E6",
          "midi": 88,
          "duration": 0.869565,
          "velocity": 0.795276
        },
        {
          "time": 216.539688,
          "name": "D5",
          "midi": 74,
          "duration": 0.434783,
          "velocity": 0.795276
        },
        {
          "time": 216.539688,
          "name": "D6",
          "midi": 86,
          "duration": 0.434783,
          "velocity": 0.795276
        },
        {
          "time": 216.974471,
          "name": "C5",
          "midi": 72,
          "duration": 0.434782,
          "velocity": 0.795276
        },
        {
          "time": 216.974471,
          "name": "A#5",
          "midi": 82,
          "duration": 0.434782,
          "velocity": 0.795276
        },
        {
          "time": 216.974471,
          "name": "G5",
          "midi": 79,
          "duration": 1.73913,
          "velocity": 0.692913
        },
        {
          "time": 217.409253,
          "name": "A#4",
          "midi": 70,
          "duration": 0.869565,
          "velocity": 0.795276
        },
        {
          "time": 217.409253,
          "name": "C6",
          "midi": 84,
          "duration": 0.869565,
          "velocity": 0.795276
        },
        {
          "time": 218.278818,
          "name": "B4",
          "midi": 71,
          "duration": 0.434782,
          "velocity": 0.795276
        },
        {
          "time": 218.278818,
          "name": "B5",
          "midi": 83,
          "duration": 0.434782,
          "velocity": 0.795276
        },
        {
          "time": 218.713601,
          "name": "A4",
          "midi": 69,
          "duration": 0.434783,
          "velocity": 0.795276
        },
        {
          "time": 218.713601,
          "name": "F#5",
          "midi": 78,
          "duration": 0.434783,
          "velocity": 0.795276
        },
        {
          "time": 218.713601,
          "name": "D5",
          "midi": 74,
          "duration": 1.286399,
          "velocity": 0.692913
        },
        {
          "time": 219.148383,
          "name": "F#4",
          "midi": 66,
          "duration": 0.851617,
          "velocity": 0.795276
        },
        {
          "time": 219.148383,
          "name": "A5",
          "midi": 81,
          "duration": 0.851617,
          "velocity": 0.795276
        }
      ]
    },
    {
      "id": 2,
      "instrument": "viola",
      "startTime": 0,
      "duration": 220.08,
      "length": 0,
      "notes": []
    },
    {
      "id": 3,
      "instrument": "cello",
      "startTime": 0,
      "duration": 220.08,
      "length": 1906,
      "notes": [
        {
          "time": 0,
          "name": "G2",
          "midi": 43,
          "duration": 0.434782,
          "velocity": 0.590551
        },
        {
          "time": 0,
          "name": "B2",
          "midi": 47,
          "duration": 0.434782,
          "velocity": 0.590551
        },
        {
          "time": 0,
          "name": "D3",
          "midi": 50,
          "duration": 0.434782,
          "velocity": 0.590551
        },
        {
          "time": 0.869565,
          "name": "D3",
          "midi": 50,
          "duration": 0.434783,
          "velocity": 0.590551
        },
        {
          "time": 0.869565,
          "name": "G3",
          "midi": 55,
          "duration": 0.434783,
          "velocity": 0.590551
        },
        {
          "time": 0.869565,
          "name": "B3",
          "midi": 59,
          "duration": 0.434783,
          "velocity": 0.590551
        },
        {
          "time": 1.73913,
          "name": "E2",
          "midi": 40,
          "duration": 0.434782,
          "velocity": 0.590551
        },
        {
          "time": 1.73913,
          "name": "G2",
          "midi": 43,
          "duration": 0.434782,
          "velocity": 0.590551
        },
        {
          "time": 1.73913,
          "name": "B2",
          "midi": 47,
          "duration": 0.434782,
          "velocity": 0.590551
        },
        {
          "time": 1.73913,
          "name": "E3",
          "midi": 52,
          "duration": 0.434782,
          "velocity": 0.590551
        },
        {
          "time": 2.608695,
          "name": "E3",
          "midi": 52,
          "duration": 0.434782,
          "velocity": 0.590551
        },
        {
          "time": 2.608695,
          "name": "G3",
          "midi": 55,
          "duration": 0.434782,
          "velocity": 0.590551
        },
        {
          "time": 2.608695,
          "name": "B3",
          "midi": 59,
          "duration": 0.434782,
          "velocity": 0.590551
        },
        {
          "time": 3.47826,
          "name": "C2",
          "midi": 36,
          "duration": 0.434782,
          "velocity": 0.590551
        },
        {
          "time": 3.47826,
          "name": "E2",
          "midi": 40,
          "duration": 0.434782,
          "velocity": 0.590551
        },
        {
          "time": 3.47826,
          "name": "A2",
          "midi": 45,
          "duration": 0.434782,
          "velocity": 0.590551
        },
        {
          "time": 3.47826,
          "name": "C3",
          "midi": 48,
          "duration": 0.434782,
          "velocity": 0.590551
        },
        {
          "time": 4.347825,
          "name": "C3",
          "midi": 48,
          "duration": 0.434782,
          "velocity": 0.590551
        },
        {
          "time": 4.347825,
          "name": "E3",
          "midi": 52,
          "duration": 0.434782,
          "velocity": 0.590551
        },
        {
          "time": 4.347825,
          "name": "A3",
          "midi": 57,
          "duration": 0.434782,
          "velocity": 0.590551
        },
        {
          "time": 5.21739,
          "name": "D2",
          "midi": 38,
          "duration": 0.434782,
          "velocity": 0.590551
        },
        {
          "time": 5.21739,
          "name": "F#2",
          "midi": 42,
          "duration": 0.434782,
          "velocity": 0.590551
        },
        {
          "time": 5.21739,
          "name": "A2",
          "midi": 45,
          "duration": 0.434782,
          "velocity": 0.590551
        },
        {
          "time": 5.21739,
          "name": "D3",
          "midi": 50,
          "duration": 0.434782,
          "velocity": 0.590551
        },
        {
          "time": 6.086955,
          "name": "D3",
          "midi": 50,
          "duration": 0.434782,
          "velocity": 0.590551
        },
        {
          "time": 6.086955,
          "name": "F#3",
          "midi": 54,
          "duration": 0.434782,
          "velocity": 0.590551
        },
        {
          "time": 6.086955,
          "name": "A3",
          "midi": 57,
          "duration": 0.434782,
          "velocity": 0.590551
        },
        {
          "time": 6.95652,
          "name": "G2",
          "midi": 43,
          "duration": 0.434782,
          "velocity": 0.590551
        },
        {
          "time": 6.95652,
          "name": "B2",
          "midi": 47,
          "duration": 0.434782,
          "velocity": 0.590551
        },
        {
          "time": 6.95652,
          "name": "D3",
          "midi": 50,
          "duration": 0.434782,
          "velocity": 0.590551
        },
        {
          "time": 7.826085,
          "name": "D3",
          "midi": 50,
          "duration": 0.434783,
          "velocity": 0.590551
        },
        {
          "time": 7.826085,
          "name": "G3",
          "midi": 55,
          "duration": 0.434783,
          "velocity": 0.590551
        },
        {
          "time": 7.826085,
          "name": "B3",
          "midi": 59,
          "duration": 0.434783,
          "velocity": 0.590551
        },
        {
          "time": 8.69565,
          "name": "E2",
          "midi": 40,
          "duration": 0.434783,
          "velocity": 0.590551
        },
        {
          "time": 8.69565,
          "name": "G2",
          "midi": 43,
          "duration": 0.434783,
          "velocity": 0.590551
        },
        {
          "time": 8.69565,
          "name": "B2",
          "midi": 47,
          "duration": 0.434783,
          "velocity": 0.590551
        },
        {
          "time": 8.69565,
          "name": "E3",
          "midi": 52,
          "duration": 0.434783,
          "velocity": 0.590551
        },
        {
          "time": 9.565215,
          "name": "E3",
          "midi": 52,
          "duration": 0.434783,
          "velocity": 0.590551
        },
        {
          "time": 9.565215,
          "name": "G3",
          "midi": 55,
          "duration": 0.434783,
          "velocity": 0.590551
        },
        {
          "time": 9.565215,
          "name": "B3",
          "midi": 59,
          "duration": 0.434783,
          "velocity": 0.590551
        },
        {
          "time": 10.43478,
          "name": "C2",
          "midi": 36,
          "duration": 0.434782,
          "velocity": 0.590551
        },
        {
          "time": 10.43478,
          "name": "E2",
          "midi": 40,
          "duration": 0.434782,
          "velocity": 0.590551
        },
        {
          "time": 10.43478,
          "name": "A2",
          "midi": 45,
          "duration": 0.434782,
          "velocity": 0.590551
        },
        {
          "time": 10.43478,
          "name": "C3",
          "midi": 48,
          "duration": 0.434782,
          "velocity": 0.590551
        },
        {
          "time": 11.304345,
          "name": "A3",
          "midi": 57,
          "duration": 0.434783,
          "velocity": 0.590551
        },
        {
          "time": 11.304345,
          "name": "C4",
          "midi": 60,
          "duration": 0.434783,
          "velocity": 0.590551
        },
        {
          "time": 12.17391,
          "name": "D2",
          "midi": 38,
          "duration": 0.434783,
          "velocity": 0.488189
        },
        {
          "time": 12.17391,
          "name": "F#2",
          "midi": 42,
          "duration": 0.434783,
          "velocity": 0.488189
        },
        {
          "time": 12.17391,
          "name": "A2",
          "midi": 45,
          "duration": 0.434783,
          "velocity": 0.488189
        },
        {
          "time": 12.17391,
          "name": "D3",
          "midi": 50,
          "duration": 0.434783,
          "velocity": 0.488189
        },
        {
          "time": 13.043475,
          "name": "D3",
          "midi": 50,
          "duration": 0.434782,
          "velocity": 0.488189
        },
        {
          "time": 13.043475,
          "name": "F#3",
          "midi": 54,
          "duration": 0.434782,
          "velocity": 0.488189
        },
        {
          "time": 13.043475,
          "name": "A3",
          "midi": 57,
          "duration": 0.434782,
          "velocity": 0.488189
        },
        {
          "time": 13.91304,
          "name": "G3",
          "midi": 55,
          "duration": 0.869565,
          "velocity": 0.692913
        },
        {
          "time": 13.91304,
          "name": "G2",
          "midi": 43,
          "duration": 0.434783,
          "velocity": 0.590551
        },
        {
          "time": 13.91304,
          "name": "B2",
          "midi": 47,
          "duration": 0.434783,
          "velocity": 0.590551
        },
        {
          "time": 13.91304,
          "name": "D3",
          "midi": 50,
          "duration": 0.434783,
          "velocity": 0.590551
        },
        {
          "time": 14.782605,
          "name": "D3",
          "midi": 50,
          "duration": 0.434783,
          "velocity": 0.590551
        },
        {
          "time": 14.782605,
          "name": "G3",
          "midi": 55,
          "duration": 0.434783,
          "velocity": 0.590551
        },
        {
          "time": 14.782605,
          "name": "B3",
          "midi": 59,
          "duration": 0.434783,
          "velocity": 0.590551
        },
        {
          "time": 15.65217,
          "name": "G2",
          "midi": 43,
          "duration": 0.434783,
          "velocity": 0.590551
        },
        {
          "time": 15.65217,
          "name": "C3",
          "midi": 48,
          "duration": 0.434783,
          "velocity": 0.590551
        },
        {
          "time": 15.65217,
          "name": "D3",
          "midi": 50,
          "duration": 0.434783,
          "velocity": 0.590551
        },
        {
          "time": 16.521735,
          "name": "C4",
          "midi": 60,
          "duration": 0.434782,
          "velocity": 0.795276
        },
        {
          "time": 16.521735,
          "name": "D3",
          "midi": 50,
          "duration": 0.434782,
          "velocity": 0.488189
        },
        {
          "time": 16.521735,
          "name": "F#3",
          "midi": 54,
          "duration": 0.434782,
          "velocity": 0.488189
        },
        {
          "time": 16.956517,
          "name": "B3",
          "midi": 59,
          "duration": 0.434783,
          "velocity": 0.590551
        },
        {
          "time": 17.3913,
          "name": "G3",
          "midi": 55,
          "duration": 0.652174,
          "velocity": 0.590551
        },
        {
          "time": 17.3913,
          "name": "G2",
          "midi": 43,
          "duration": 0.434782,
          "velocity": 0.488189
        },
        {
          "time": 17.3913,
          "name": "B2",
          "midi": 47,
          "duration": 0.434782,
          "velocity": 0.488189
        },
        {
          "time": 17.3913,
          "name": "D3",
          "midi": 50,
          "duration": 0.434782,
          "velocity": 0.488189
        },
        {
          "time": 18.043474,
          "name": "A3",
          "midi": 57,
          "duration": 0.217391,
          "velocity": 0.590551
        },
        {
          "time": 18.260865,
          "name": "G3",
          "midi": 55,
          "duration": 0.869565,
          "velocity": 0.590551
        },
        {
          "time": 18.260865,
          "name": "D3",
          "midi": 50,
          "duration": 0.434783,
          "velocity": 0.488189
        },
        {
          "time": 18.260865,
          "name": "B3",
          "midi": 59,
          "duration": 0.434783,
          "velocity": 0.488189
        },
        {
          "time": 19.13043,
          "name": "G2",
          "midi": 43,
          "duration": 0.434783,
          "velocity": 0.488189
        },
        {
          "time": 19.13043,
          "name": "C3",
          "midi": 48,
          "duration": 0.434783,
          "velocity": 0.488189
        },
        {
          "time": 19.13043,
          "name": "D3",
          "midi": 50,
          "duration": 0.434783,
          "velocity": 0.488189
        },
        {
          "time": 19.999995,
          "name": "C4",
          "midi": 60,
          "duration": 0.434782,
          "velocity": 0.590551
        },
        {
          "time": 19.999995,
          "name": "D3",
          "midi": 50,
          "duration": 0.434782,
          "velocity": 0.488189
        },
        {
          "time": 19.999995,
          "name": "F#3",
          "midi": 54,
          "duration": 0.434782,
          "velocity": 0.488189
        },
        {
          "time": 20.434777,
          "name": "B3",
          "midi": 59,
          "duration": 0.434783,
          "velocity": 0.590551
        },
        {
          "time": 20.86956,
          "name": "G3",
          "midi": 55,
          "duration": 0.652174,
          "velocity": 0.590551
        },
        {
          "time": 20.86956,
          "name": "G2",
          "midi": 43,
          "duration": 0.434782,
          "velocity": 0.488189
        },
        {
          "time": 20.86956,
          "name": "B2",
          "midi": 47,
          "duration": 0.434782,
          "velocity": 0.488189
        },
        {
          "time": 20.86956,
          "name": "D3",
          "midi": 50,
          "duration": 0.434782,
          "velocity": 0.488189
        },
        {
          "time": 21.521734,
          "name": "A3",
          "midi": 57,
          "duration": 0.217391,
          "velocity": 0.590551
        },
        {
          "time": 21.739125,
          "name": "G3",
          "midi": 55,
          "duration": 0.869565,
          "velocity": 0.590551
        },
        {
          "time": 21.739125,
          "name": "D3",
          "midi": 50,
          "duration": 0.434783,
          "velocity": 0.488189
        },
        {
          "time": 21.739125,
          "name": "B3",
          "midi": 59,
          "duration": 0.434783,
          "velocity": 0.488189
        },
        {
          "time": 22.60869,
          "name": "E2",
          "midi": 40,
          "duration": 0.434783,
          "velocity": 0.590551
        },
        {
          "time": 22.60869,
          "name": "G2",
          "midi": 43,
          "duration": 0.434783,
          "velocity": 0.590551
        },
        {
          "time": 22.60869,
          "name": "B2",
          "midi": 47,
          "duration": 0.434783,
          "velocity": 0.590551
        },
        {
          "time": 22.60869,
          "name": "E3",
          "midi": 52,
          "duration": 0.434783,
          "velocity": 0.590551
        },
        {
          "time": 23.478255,
          "name": "E3",
          "midi": 52,
          "duration": 0.434782,
          "velocity": 0.590551
        },
        {
          "time": 23.478255,
          "name": "G3",
          "midi": 55,
          "duration": 0.434782,
          "velocity": 0.590551
        },
        {
          "time": 23.478255,
          "name": "B3",
          "midi": 59,
          "duration": 0.434782,
          "velocity": 0.590551
        },
        {
          "time": 24.34782,
          "name": "E4",
          "midi": 64,
          "duration": 0.869565,
          "velocity": 0.897638
        },
        {
          "time": 24.34782,
          "name": "A2",
          "midi": 45,
          "duration": 0.434782,
          "velocity": 0.692913
        },
        {
          "time": 24.34782,
          "name": "E3",
          "midi": 52,
          "duration": 0.434782,
          "velocity": 0.692913
        },
        {
          "time": 24.34782,
          "name": "F#3",
          "midi": 54,
          "duration": 0.434782,
          "velocity": 0.692913
        },
        {
          "time": 25.217385,
          "name": "D4",
          "midi": 62,
          "duration": 0.434782,
          "velocity": 0.897638
        },
        {
          "time": 25.217385,
          "name": "E3",
          "midi": 52,
          "duration": 0.434782,
          "velocity": 0.692913
        },
        {
          "time": 25.217385,
          "name": "F#3",
          "midi": 54,
          "duration": 0.434782,
          "velocity": 0.692913
        },
        {
          "time": 25.217385,
          "name": "A3",
          "midi": 57,
          "duration": 0.434782,
          "velocity": 0.692913
        },
        {
          "time": 25.652167,
          "name": "C4",
          "midi": 60,
          "duration": 0.434782,
          "velocity": 0.897638
        },
        {
          "time": 26.08695,
          "name": "B3",
          "midi": 59,
          "duration": 0.434783,
          "velocity": 0.692913
        },
        {
          "time": 26.08695,
          "name": "B2",
          "midi": 47,
          "duration": 0.434783,
          "velocity": 0.590551
        },
        {
          "time": 26.08695,
          "name": "D#3",
          "midi": 51,
          "duration": 0.434783,
          "velocity": 0.590551
        },
        {
          "time": 26.08695,
          "name": "F#3",
          "midi": 54,
          "duration": 0.434783,
          "velocity": 0.590551
        },
        {
          "time": 26.521732,
          "name": "A3",
          "midi": 57,
          "duration": 0.869565,
          "velocity": 0.692913
        },
        {
          "time": 26.956515,
          "name": "D#3",
          "midi": 51,
          "duration": 0.434783,
          "velocity": 0.590551
        },
        {
          "time": 26.956515,
          "name": "F#3",
          "midi": 54,
          "duration": 0.434783,
          "velocity": 0.590551
        },
        {
          "time": 26.956515,
          "name": "B3",
          "midi": 59,
          "duration": 0.434783,
          "velocity": 0.590551
        },
        {
          "time": 27.391298,
          "name": "G3",
          "midi": 55,
          "duration": 0.217391,
          "velocity": 0.692913
        },
        {
          "time": 27.608689,
          "name": "F#3",
          "midi": 54,
          "duration": 0.217391,
          "velocity": 0.692913
        },
        {
          "time": 27.82608,
          "name": "E3",
          "midi": 52,
          "duration": 0.869565,
          "velocity": 0.692913
        },
        {
          "time": 27.82608,
          "name": "E2",
          "midi": 40,
          "duration": 0.434782,
          "velocity": 0.590551
        },
        {
          "time": 27.82608,
          "name": "G2",
          "midi": 43,
          "duration": 0.434782,
          "velocity": 0.590551
        },
        {
          "time": 27.82608,
          "name": "B2",
          "midi": 47,
          "duration": 0.434782,
          "velocity": 0.590551
        },
        {
          "time": 28.695645,
          "name": "E3",
          "midi": 52,
          "duration": 0.434782,
          "velocity": 0.590551
        },
        {
          "time": 28.695645,
          "name": "G3",
          "midi": 55,
          "duration": 0.434782,
          "velocity": 0.590551
        },
        {
          "time": 28.695645,
          "name": "B3",
          "midi": 59,
          "duration": 0.434782,
          "velocity": 0.590551
        },
        {
          "time": 29.56521,
          "name": "E2",
          "midi": 40,
          "duration": 0.434782,
          "velocity": 0.488189
        },
        {
          "time": 29.56521,
          "name": "A2",
          "midi": 45,
          "duration": 0.434782,
          "velocity": 0.488189
        },
        {
          "time": 29.56521,
          "name": "C3",
          "midi": 48,
          "duration": 0.434782,
          "velocity": 0.488189
        },
        {
          "time": 30.434775,
          "name": "A3",
          "midi": 57,
          "duration": 0.434783,
          "velocity": 0.795276
        },
        {
          "time": 30.434775,
          "name": "C3",
          "midi": 48,
          "duration": 0.434783,
          "velocity": 0.488189
        },
        {
          "time": 30.434775,
          "name": "E3",
          "midi": 52,
          "duration": 0.434783,
          "velocity": 0.488189
        },
        {
          "time": 30.869557,
          "name": "G3",
          "midi": 55,
          "duration": 0.434782,
          "velocity": 0.590551
        },
        {
          "time": 31.30434,
          "name": "E3",
          "midi": 52,
          "duration": 0.652174,
          "velocity": 0.590551
        },
        {
          "time": 31.30434,
          "name": "E2",
          "midi": 40,
          "duration": 0.434783,
          "velocity": 0.488189
        },
        {
          "time": 31.30434,
          "name": "G2",
          "midi": 43,
          "duration": 0.434783,
          "velocity": 0.488189
        },
        {
          "time": 31.30434,
          "name": "B2",
          "midi": 47,
          "duration": 0.434783,
          "velocity": 0.488189
        },
        {
          "time": 31.956514,
          "name": "F#3",
          "midi": 54,
          "duration": 0.217391,
          "velocity": 0.590551
        },
        {
          "time": 32.173905,
          "name": "E3",
          "midi": 52,
          "duration": 0.869565,
          "velocity": 0.590551
        },
        {
          "time": 32.173905,
          "name": "G3",
          "midi": 55,
          "duration": 0.434782,
          "velocity": 0.488189
        },
        {
          "time": 32.173905,
          "name": "B3",
          "midi": 59,
          "duration": 0.434782,
          "velocity": 0.488189
        },
        {
          "time": 33.04347,
          "name": "E2",
          "midi": 40,
          "duration": 0.434782,
          "velocity": 0.488189
        },
        {
          "time": 33.04347,
          "name": "A2",
          "midi": 45,
          "duration": 0.434782,
          "velocity": 0.488189
        },
        {
          "time": 33.04347,
          "name": "C3",
          "midi": 48,
          "duration": 0.434782,
          "velocity": 0.488189
        },
        {
          "time": 33.913035,
          "name": "A3",
          "midi": 57,
          "duration": 0.434783,
          "velocity": 0.590551
        },
        {
          "time": 33.913035,
          "name": "C3",
          "midi": 48,
          "duration": 0.434783,
          "velocity": 0.488189
        },
        {
          "time": 33.913035,
          "name": "E3",
          "midi": 52,
          "duration": 0.434783,
          "velocity": 0.488189
        },
        {
          "time": 34.347817,
          "name": "G3",
          "midi": 55,
          "duration": 0.434782,
          "velocity": 0.590551
        },
        {
          "time": 34.7826,
          "name": "E3",
          "midi": 52,
          "duration": 0.652174,
          "velocity": 0.590551
        },
        {
          "time": 34.7826,
          "name": "E2",
          "midi": 40,
          "duration": 0.434783,
          "velocity": 0.488189
        },
        {
          "time": 34.7826,
          "name": "G2",
          "midi": 43,
          "duration": 0.434783,
          "velocity": 0.488189
        },
        {
          "time": 34.7826,
          "name": "B2",
          "midi": 47,
          "duration": 0.434783,
          "velocity": 0.488189
        },
        {
          "time": 35.434774,
          "name": "F#3",
          "midi": 54,
          "duration": 0.217391,
          "velocity": 0.590551
        },
        {
          "time": 35.652165,
          "name": "E3",
          "midi": 52,
          "duration": 0.869565,
          "velocity": 0.590551
        },
        {
          "time": 35.652165,
          "name": "G3",
          "midi": 55,
          "duration": 0.434782,
          "velocity": 0.488189
        },
        {
          "time": 35.652165,
          "name": "B3",
          "midi": 59,
          "duration": 0.434782,
          "velocity": 0.488189
        },
        {
          "time": 36.52173,
          "name": "D2",
          "midi": 38,
          "duration": 0.434782,
          "velocity": 0.488189
        },
        {
          "time": 36.52173,
          "name": "G2",
          "midi": 43,
          "duration": 0.434782,
          "velocity": 0.488189
        },
        {
          "time": 36.52173,
          "name": "B2",
          "midi": 47,
          "duration": 0.434782,
          "velocity": 0.488189
        },
        {
          "time": 36.52173,
          "name": "D3",
          "midi": 50,
          "duration": 0.434782,
          "velocity": 0.488189
        },
        {
          "time": 37.391295,
          "name": "D3",
          "midi": 50,
          "duration": 0.434782,
          "velocity": 0.590551
        },
        {
          "time": 37.391295,
          "name": "E3",
          "midi": 52,
          "duration": 0.434782,
          "velocity": 0.590551
        },
        {
          "time": 37.391295,
          "name": "G3",
          "midi": 55,
          "duration": 0.434782,
          "velocity": 0.590551
        },
        {
          "time": 37.391295,
          "name": "B3",
          "midi": 59,
          "duration": 0.434782,
          "velocity": 0.590551
        },
        {
          "time": 38.26086,
          "name": "C#2",
          "midi": 37,
          "duration": 0.144928,
          "velocity": 0.590551
        },
        {
          "time": 38.405787,
          "name": "A2",
          "midi": 45,
          "duration": 0.143116,
          "velocity": 0.590551
        },
        {
          "time": 38.548903,
          "name": "E3",
          "midi": 52,
          "duration": 0.146739,
          "velocity": 0.590551
        },
        {
          "time": 38.695642,
          "name": "A3",
          "midi": 57,
          "duration": 0.144927,
          "velocity": 0.590551
        },
        {
          "time": 38.84057,
          "name": "E4",
          "midi": 64,
          "duration": 0.143116,
          "velocity": 0.590551
        },
        {
          "time": 38.983686,
          "name": "G4",
          "midi": 67,
          "duration": 0.146739,
          "velocity": 0.590551
        },
        {
          "time": 39.130425,
          "name": "C#3",
          "midi": 49,
          "duration": 0.144927,
          "velocity": 0.590551
        },
        {
          "time": 39.275352,
          "name": "E3",
          "midi": 52,
          "duration": 0.143116,
          "velocity": 0.590551
        },
        {
          "time": 39.418468,
          "name": "G3",
          "midi": 55,
          "duration": 0.146739,
          "velocity": 0.590551
        },
        {
          "time": 39.565207,
          "name": "A3",
          "midi": 57,
          "duration": 0.434783,
          "velocity": 0.590551
        },
        {
          "time": 39.99999,
          "name": "A1",
          "midi": 33,
          "duration": 0.144927,
          "velocity": 0.488189
        },
        {
          "time": 40.144917,
          "name": "A2",
          "midi": 45,
          "duration": 0.143116,
          "velocity": 0.488189
        },
        {
          "time": 40.288033,
          "name": "C#3",
          "midi": 49,
          "duration": 0.146739,
          "velocity": 0.488189
        },
        {
          "time": 40.434772,
          "name": "G3",
          "midi": 55,
          "duration": 0.434782,
          "velocity": 0.488189
        },
        {
          "time": 40.869555,
          "name": "G3",
          "midi": 55,
          "duration": 0.434783,
          "velocity": 0.488189
        },
        {
          "time": 40.869555,
          "name": "A3",
          "midi": 57,
          "duration": 0.434783,
          "velocity": 0.488189
        },
        {
          "time": 41.73912,
          "name": "D2",
          "midi": 38,
          "duration": 0.144928,
          "velocity": 0.488189
        },
        {
          "time": 41.884047,
          "name": "D3",
          "midi": 50,
          "duration": 0.143116,
          "velocity": 0.488189
        },
        {
          "time": 42.027163,
          "name": "F#3",
          "midi": 54,
          "duration": 0.146739,
          "velocity": 0.488189
        },
        {
          "time": 42.173902,
          "name": "A3",
          "midi": 57,
          "duration": 0.434782,
          "velocity": 0.488189
        },
        {
          "time": 42.608685,
          "name": "D3",
          "midi": 50,
          "duration": 0.434782,
          "velocity": 0.488189
        },
        {
          "time": 42.608685,
          "name": "F#3",
          "midi": 54,
          "duration": 0.434782,
          "velocity": 0.488189
        },
        {
          "time": 42.608685,
          "name": "A3",
          "midi": 57,
          "duration": 0.434782,
          "velocity": 0.488189
        },
        {
          "time": 43.47825,
          "name": "B2",
          "midi": 47,
          "duration": 0.144927,
          "velocity": 0.488189
        },
        {
          "time": 43.623177,
          "name": "F#3",
          "midi": 54,
          "duration": 0.143116,
          "velocity": 0.488189
        },
        {
          "time": 43.766293,
          "name": "A3",
          "midi": 57,
          "duration": 0.146739,
          "velocity": 0.488189
        },
        {
          "time": 43.913032,
          "name": "B3",
          "midi": 59,
          "duration": 0.434783,
          "velocity": 0.488189
        },
        {
          "time": 44.347815,
          "name": "F#3",
          "midi": 54,
          "duration": 0.434782,
          "velocity": 0.488189
        },
        {
          "time": 44.347815,
          "name": "A3",
          "midi": 57,
          "duration": 0.434782,
          "velocity": 0.488189
        },
        {
          "time": 44.347815,
          "name": "B3",
          "midi": 59,
          "duration": 0.434782,
          "velocity": 0.488189
        },
        {
          "time": 45.21738,
          "name": "E4",
          "midi": 64,
          "duration": 1.304348,
          "velocity": 0.795276
        },
        {
          "time": 45.362307,
          "name": "A2",
          "midi": 45,
          "duration": 0.143116,
          "velocity": 0.590551
        },
        {
          "time": 45.505423,
          "name": "C3",
          "midi": 48,
          "duration": 0.146739,
          "velocity": 0.590551
        },
        {
          "time": 45.652162,
          "name": "E3",
          "midi": 52,
          "duration": 0.144927,
          "velocity": 0.590551
        },
        {
          "time": 45.79709,
          "name": "A3",
          "midi": 57,
          "duration": 0.143116,
          "velocity": 0.590551
        },
        {
          "time": 45.940206,
          "name": "C4",
          "midi": 60,
          "duration": 0.146739,
          "velocity": 0.590551
        },
        {
          "time": 46.086945,
          "name": "E4",
          "midi": 64,
          "duration": 0.144928,
          "velocity": 0.590551
        },
        {
          "time": 46.231872,
          "name": "C4",
          "midi": 60,
          "duration": 0.143116,
          "velocity": 0.590551
        },
        {
          "time": 46.374988,
          "name": "A3",
          "midi": 57,
          "duration": 0.146739,
          "velocity": 0.590551
        },
        {
          "time": 46.521727,
          "name": "F#4",
          "midi": 66,
          "duration": 0.108696,
          "velocity": 0.795276
        },
        {
          "time": 46.630423,
          "name": "E4",
          "midi": 64,
          "duration": 0.108696,
          "velocity": 0.795276
        },
        {
          "time": 46.739119,
          "name": "D#4",
          "midi": 63,
          "duration": 0.108696,
          "velocity": 0.795276
        },
        {
          "time": 46.847814,
          "name": "E4",
          "midi": 64,
          "duration": 0.108696,
          "velocity": 0.795276
        },
        {
          "time": 46.95651,
          "name": "F#4",
          "midi": 66,
          "duration": 1.304347,
          "velocity": 0.795276
        },
        {
          "time": 47.101437,
          "name": "D3",
          "midi": 50,
          "duration": 0.143116,
          "velocity": 0.590551
        },
        {
          "time": 47.244553,
          "name": "F#3",
          "midi": 54,
          "duration": 0.146739,
          "velocity": 0.590551
        },
        {
          "time": 47.391292,
          "name": "A3",
          "midi": 57,
          "duration": 0.144928,
          "velocity": 0.590551
        },
        {
          "time": 47.53622,
          "name": "C4",
          "midi": 60,
          "duration": 0.143116,
          "velocity": 0.590551
        },
        {
          "time": 47.679336,
          "name": "D4",
          "midi": 62,
          "duration": 0.146739,
          "velocity": 0.590551
        },
        {
          "time": 47.826075,
          "name": "F#4",
          "midi": 66,
          "duration": 0.144927,
          "velocity": 0.590551
        },
        {
          "time": 47.971002,
          "name": "D4",
          "midi": 62,
          "duration": 0.143116,
          "velocity": 0.590551
        },
        {
          "time": 48.114118,
          "name": "C4",
          "midi": 60,
          "duration": 0.146739,
          "velocity": 0.590551
        },
        {
          "time": 48.260857,
          "name": "G4",
          "midi": 67,
          "duration": 0.108696,
          "velocity": 0.795276
        },
        {
          "time": 48.369553,
          "name": "F#4",
          "midi": 66,
          "duration": 0.108696,
          "velocity": 0.795276
        },
        {
          "time": 48.478249,
          "name": "E4",
          "midi": 64,
          "duration": 0.108696,
          "velocity": 0.795276
        },
        {
          "time": 48.586944,
          "name": "F#4",
          "midi": 66,
          "duration": 0.108696,
          "velocity": 0.795276
        },
        {
          "time": 48.69564,
          "name": "E3",
          "midi": 52,
          "duration": 0.144927,
          "velocity": 0.590551
        },
        {
          "time": 48.840567,
          "name": "G3",
          "midi": 55,
          "duration": 0.143116,
          "velocity": 0.590551
        },
        {
          "time": 48.983683,
          "name": "B3",
          "midi": 59,
          "duration": 0.146739,
          "velocity": 0.590551
        },
        {
          "time": 49.130422,
          "name": "E4",
          "midi": 64,
          "duration": 0.434782,
          "velocity": 0.590551
        },
        {
          "time": 49.565205,
          "name": "B3",
          "midi": 59,
          "duration": 0.434783,
          "velocity": 0.590551
        },
        {
          "time": 49.565205,
          "name": "E4",
          "midi": 64,
          "duration": 0.434783,
          "velocity": 0.590551
        },
        {
          "time": 49.565205,
          "name": "G4",
          "midi": 67,
          "duration": 0.434783,
          "velocity": 0.590551
        },
        {
          "time": 50.43477,
          "name": "D3",
          "midi": 50,
          "duration": 0.144928,
          "velocity": 0.590551
        },
        {
          "time": 50.579697,
          "name": "G#3",
          "midi": 56,
          "duration": 0.143116,
          "velocity": 0.590551
        },
        {
          "time": 50.722813,
          "name": "B3",
          "midi": 59,
          "duration": 0.146739,
          "velocity": 0.590551
        },
        {
          "time": 50.869552,
          "name": "E4",
          "midi": 64,
          "duration": 0.434783,
          "velocity": 0.590551
        },
        {
          "time": 51.304335,
          "name": "B3",
          "midi": 59,
          "duration": 0.434782,
          "velocity": 0.590551
        },
        {
          "time": 51.304335,
          "name": "E4",
          "midi": 64,
          "duration": 0.434782,
          "velocity": 0.590551
        },
        {
          "time": 51.304335,
          "name": "G#4",
          "midi": 68,
          "duration": 0.434782,
          "velocity": 0.590551
        },
        {
          "time": 52.1739,
          "name": "C3",
          "midi": 48,
          "duration": 0.144927,
          "velocity": 0.590551
        },
        {
          "time": 52.1739,
          "name": "A2",
          "midi": 45,
          "duration": 0.434782,
          "velocity": 0.692913
        },
        {
          "time": 52.1739,
          "name": "E3",
          "midi": 52,
          "duration": 0.434782,
          "velocity": 0.692913
        },
        {
          "time": 52.1739,
          "name": "F#3",
          "midi": 54,
          "duration": 0.434782,
          "velocity": 0.692913
        },
        {
          "time": 52.318827,
          "name": "E3",
          "midi": 52,
          "duration": 0.143116,
          "velocity": 0.590551
        },
        {
          "time": 52.461943,
          "name": "A3",
          "midi": 57,
          "duration": 0.146739,
          "velocity": 0.590551
        },
        {
          "time": 52.608682,
          "name": "C4",
          "midi": 60,
          "duration": 0.434782,
          "velocity": 0.590551
        },
        {
          "time": 53.043465,
          "name": "D4",
          "midi": 62,
          "duration": 0.434783,
          "velocity": 0.897638
        },
        {
          "time": 53.043465,
          "name": "E3",
          "midi": 52,
          "duration": 0.434783,
          "velocity": 0.692913
        },
        {
          "time": 53.043465,
          "name": "F#3",
          "midi": 54,
          "duration": 0.434783,
          "velocity": 0.692913
        },
        {
          "time": 53.043465,
          "name": "A3",
          "midi": 57,
          "duration": 0.434783,
          "velocity": 0.692913
        },
        {
          "time": 53.478247,
          "name": "C4",
          "midi": 60,
          "duration": 0.434782,
          "velocity": 0.897638
        },
        {
          "time": 53.91303,
          "name": "B3",
          "midi": 59,
          "duration": 0.434783,
          "velocity": 0.692913
        },
        {
          "time": 53.91303,
          "name": "D3",
          "midi": 50,
          "duration": 0.869565,
          "velocity": 0.590551
        },
        {
          "time": 53.91303,
          "name": "F#3",
          "midi": 54,
          "duration": 0.869565,
          "velocity": 0.590551
        },
        {
          "time": 54.347812,
          "name": "A3",
          "midi": 57,
          "duration": 0.434782,
          "velocity": 0.692913
        },
        {
          "time": 54.782595,
          "name": "G3",
          "midi": 55,
          "duration": 0.434782,
          "velocity": 0.692913
        },
        {
          "time": 54.782595,
          "name": "G4",
          "midi": 67,
          "duration": 0.144927,
          "velocity": 0.590551
        },
        {
          "time": 54.927522,
          "name": "C4",
          "midi": 60,
          "duration": 0.143116,
          "velocity": 0.590551
        },
        {
          "time": 55.070638,
          "name": "D4",
          "midi": 62,
          "duration": 0.146739,
          "velocity": 0.590551
        },
        {
          "time": 55.217377,
          "name": "F#3",
          "midi": 54,
          "duration": 0.434783,
          "velocity": 0.692913
        },
        {
          "time": 55.217377,
          "name": "F#4",
          "midi": 66,
          "duration": 0.144928,
          "velocity": 0.590551
        },
        {
          "time": 55.362305,
          "name": "C4",
          "midi": 60,
          "duration": 0.143116,
          "velocity": 0.590551
        },
        {
          "time": 55.505421,
          "name": "D4",
          "midi": 62,
          "duration": 0.146739,
          "velocity": 0.590551
        },
        {
          "time": 55.65216,
          "name": "G2",
          "midi": 43,
          "duration": 0.144927,
          "velocity": 0.590551
        },
        {
          "time": 55.797087,
          "name": "B2",
          "midi": 47,
          "duration": 0.143116,
          "velocity": 0.590551
        },
        {
          "time": 55.940203,
          "name": "D3",
          "midi": 50,
          "duration": 0.146739,
          "velocity": 0.590551
        },
        {
          "time": 56.086942,
          "name": "G3",
          "midi": 55,
          "duration": 0.434783,
          "velocity": 0.590551
        },
        {
          "time": 56.521725,
          "name": "D3",
          "midi": 50,
          "duration": 0.434782,
          "velocity": 0.590551
        },
        {
          "time": 56.521725,
          "name": "G3",
          "midi": 55,
          "duration": 0.434782,
          "velocity": 0.590551
        },
        {
          "time": 56.521725,
          "name": "B3",
          "midi": 59,
          "duration": 0.434782,
          "velocity": 0.590551
        },
        {
          "time": 57.39129,
          "name": "E2",
          "midi": 40,
          "duration": 0.434783,
          "velocity": 0.590551
        },
        {
          "time": 57.39129,
          "name": "G2",
          "midi": 43,
          "duration": 0.434783,
          "velocity": 0.590551
        },
        {
          "time": 57.39129,
          "name": "B2",
          "midi": 47,
          "duration": 0.434783,
          "velocity": 0.590551
        },
        {
          "time": 57.39129,
          "name": "E3",
          "midi": 52,
          "duration": 0.434783,
          "velocity": 0.590551
        },
        {
          "time": 58.260855,
          "name": "E3",
          "midi": 52,
          "duration": 0.434782,
          "velocity": 0.590551
        },
        {
          "time": 58.260855,
          "name": "G3",
          "midi": 55,
          "duration": 0.434782,
          "velocity": 0.590551
        },
        {
          "time": 58.260855,
          "name": "B3",
          "midi": 59,
          "duration": 0.434782,
          "velocity": 0.590551
        },
        {
          "time": 59.13042,
          "name": "C2",
          "midi": 36,
          "duration": 0.144927,
          "velocity": 0.692913
        },
        {
          "time": 59.275347,
          "name": "G2",
          "midi": 43,
          "duration": 0.143116,
          "velocity": 0.692913
        },
        {
          "time": 59.418463,
          "name": "A2",
          "midi": 45,
          "duration": 0.146739,
          "velocity": 0.692913
        },
        {
          "time": 59.565202,
          "name": "C3",
          "midi": 48,
          "duration": 0.144928,
          "velocity": 0.692913
        },
        {
          "time": 59.71013,
          "name": "G3",
          "midi": 55,
          "duration": 0.143116,
          "velocity": 0.692913
        },
        {
          "time": 59.853246,
          "name": "A3",
          "midi": 57,
          "duration": 0.146739,
          "velocity": 0.692913
        },
        {
          "time": 59.999985,
          "name": "C4",
          "midi": 60,
          "duration": 0.144927,
          "velocity": 0.692913
        },
        {
          "time": 60.144912,
          "name": "A3",
          "midi": 57,
          "duration": 0.143116,
          "velocity": 0.692913
        },
        {
          "time": 60.288028,
          "name": "G3",
          "midi": 55,
          "duration": 0.146739,
          "velocity": 0.692913
        },
        {
          "time": 60.434767,
          "name": "C3",
          "midi": 48,
          "duration": 0.144928,
          "velocity": 0.692913
        },
        {
          "time": 60.579695,
          "name": "A2",
          "midi": 45,
          "duration": 0.143116,
          "velocity": 0.692913
        },
        {
          "time": 60.722811,
          "name": "G2",
          "midi": 43,
          "duration": 0.146739,
          "velocity": 0.692913
        },
        {
          "time": 60.86955,
          "name": "D2",
          "midi": 38,
          "duration": 0.144928,
          "velocity": 0.590551
        },
        {
          "time": 61.014477,
          "name": "F#2",
          "midi": 42,
          "duration": 0.143116,
          "velocity": 0.590551
        },
        {
          "time": 61.157593,
          "name": "A2",
          "midi": 45,
          "duration": 0.146739,
          "velocity": 0.590551
        },
        {
          "time": 61.304332,
          "name": "D3",
          "midi": 50,
          "duration": 0.144927,
          "velocity": 0.590551
        },
        {
          "time": 61.44926,
          "name": "F#3",
          "midi": 54,
          "duration": 0.143116,
          "velocity": 0.590551
        },
        {
          "time": 61.592376,
          "name": "A3",
          "midi": 57,
          "duration": 0.146739,
          "velocity": 0.590551
        },
        {
          "time": 61.739115,
          "name": "D4",
          "midi": 62,
          "duration": 0.144928,
          "velocity": 0.590551
        },
        {
          "time": 61.884042,
          "name": "A3",
          "midi": 57,
          "duration": 0.143116,
          "velocity": 0.590551
        },
        {
          "time": 62.027158,
          "name": "F#3",
          "midi": 54,
          "duration": 0.146739,
          "velocity": 0.590551
        },
        {
          "time": 62.173897,
          "name": "D3",
          "midi": 50,
          "duration": 0.144927,
          "velocity": 0.590551
        },
        {
          "time": 62.318825,
          "name": "A2",
          "midi": 45,
          "duration": 0.143116,
          "velocity": 0.590551
        },
        {
          "time": 62.461941,
          "name": "F#2",
          "midi": 42,
          "duration": 0.146739,
          "velocity": 0.590551
        },
        {
          "time": 62.60868,
          "name": "G2",
          "midi": 43,
          "duration": 0.144928,
          "velocity": 0.488189
        },
        {
          "time": 62.753607,
          "name": "B2",
          "midi": 47,
          "duration": 0.143116,
          "velocity": 0.488189
        },
        {
          "time": 62.896723,
          "name": "D3",
          "midi": 50,
          "duration": 0.146739,
          "velocity": 0.488189
        },
        {
          "time": 63.043462,
          "name": "G3",
          "midi": 55,
          "duration": 0.434783,
          "velocity": 0.488189
        },
        {
          "time": 63.478245,
          "name": "D3",
          "midi": 50,
          "duration": 0.434782,
          "velocity": 0.488189
        },
        {
          "time": 63.478245,
          "name": "G3",
          "midi": 55,
          "duration": 0.434782,
          "velocity": 0.488189
        },
        {
          "time": 63.478245,
          "name": "B3",
          "midi": 59,
          "duration": 0.434782,
          "velocity": 0.488189
        },
        {
          "time": 64.34781,
          "name": "G2",
          "midi": 43,
          "duration": 0.434782,
          "velocity": 0.488189
        },
        {
          "time": 64.34781,
          "name": "D3",
          "midi": 50,
          "duration": 0.434782,
          "velocity": 0.488189
        },
        {
          "time": 64.34781,
          "name": "F#3",
          "midi": 54,
          "duration": 0.434782,
          "velocity": 0.488189
        },
        {
          "time": 65.217375,
          "name": "C4",
          "midi": 60,
          "duration": 0.434783,
          "velocity": 0.590551
        },
        {
          "time": 65.217375,
          "name": "D3",
          "midi": 50,
          "duration": 0.869565,
          "velocity": 0.488189
        },
        {
          "time": 65.217375,
          "name": "F#3",
          "midi": 54,
          "duration": 0.869565,
          "velocity": 0.488189
        },
        {
          "time": 65.652158,
          "name": "B3",
          "midi": 59,
          "duration": 0.434782,
          "velocity": 0.590551
        },
        {
          "time": 66.08694,
          "name": "G3",
          "midi": 55,
          "duration": 0.652174,
          "velocity": 0.590551
        },
        {
          "time": 66.08694,
          "name": "G2",
          "midi": 43,
          "duration": 0.434782,
          "velocity": 0.488189
        },
        {
          "time": 66.08694,
          "name": "B2",
          "midi": 47,
          "duration": 0.434782,
          "velocity": 0.488189
        },
        {
          "time": 66.08694,
          "name": "D3",
          "midi": 50,
          "duration": 0.434782,
          "velocity": 0.488189
        },
        {
          "time": 66.739114,
          "name": "A3",
          "midi": 57,
          "duration": 0.217391,
          "velocity": 0.590551
        },
        {
          "time": 66.956505,
          "name": "G3",
          "midi": 55,
          "duration": 0.434782,
          "velocity": 0.590551
        },
        {
          "time": 66.956505,
          "name": "D3",
          "midi": 50,
          "duration": 0.434782,
          "velocity": 0.488189
        },
        {
          "time": 66.956505,
          "name": "B3",
          "midi": 59,
          "duration": 0.434782,
          "velocity": 0.488189
        },
        {
          "time": 67.82607,
          "name": "G2",
          "midi": 43,
          "duration": 0.434782,
          "velocity": 0.488189
        },
        {
          "time": 67.82607,
          "name": "D3",
          "midi": 50,
          "duration": 0.434782,
          "velocity": 0.488189
        },
        {
          "time": 67.82607,
          "name": "F#3",
          "midi": 54,
          "duration": 0.434782,
          "velocity": 0.488189
        },
        {
          "time": 68.695635,
          "name": "C4",
          "midi": 60,
          "duration": 0.434782,
          "velocity": 0.590551
        },
        {
          "time": 68.695635,
          "name": "D3",
          "midi": 50,
          "duration": 0.869565,
          "velocity": 0.488189
        },
        {
          "time": 68.695635,
          "name": "F#3",
          "midi": 54,
          "duration": 0.869565,
          "velocity": 0.488189
        },
        {
          "time": 69.130417,
          "name": "B3",
          "midi": 59,
          "duration": 0.434782,
          "velocity": 0.590551
        },
        {
          "time": 69.5652,
          "name": "G3",
          "midi": 55,
          "duration": 0.652174,
          "velocity": 0.590551
        },
        {
          "time": 69.5652,
          "name": "G2",
          "midi": 43,
          "duration": 0.434783,
          "velocity": 0.488189
        },
        {
          "time": 69.5652,
          "name": "B2",
          "midi": 47,
          "duration": 0.434783,
          "velocity": 0.488189
        },
        {
          "time": 69.5652,
          "name": "D3",
          "midi": 50,
          "duration": 0.434783,
          "velocity": 0.488189
        },
        {
          "time": 70.217374,
          "name": "A3",
          "midi": 57,
          "duration": 0.217391,
          "velocity": 0.590551
        },
        {
          "time": 70.434765,
          "name": "G3",
          "midi": 55,
          "duration": 0.434782,
          "velocity": 0.590551
        },
        {
          "time": 70.434765,
          "name": "D3",
          "midi": 50,
          "duration": 0.434782,
          "velocity": 0.488189
        },
        {
          "time": 70.434765,
          "name": "B3",
          "midi": 59,
          "duration": 0.434782,
          "velocity": 0.488189
        },
        {
          "time": 71.30433,
          "name": "E2",
          "midi": 40,
          "duration": 0.434782,
          "velocity": 0.488189
        },
        {
          "time": 71.30433,
          "name": "G2",
          "midi": 43,
          "duration": 0.434782,
          "velocity": 0.488189
        },
        {
          "time": 71.30433,
          "name": "B2",
          "midi": 47,
          "duration": 0.434782,
          "velocity": 0.488189
        },
        {
          "time": 71.30433,
          "name": "E3",
          "midi": 52,
          "duration": 0.434782,
          "velocity": 0.488189
        },
        {
          "time": 72.173895,
          "name": "E3",
          "midi": 52,
          "duration": 0.434782,
          "velocity": 0.590551
        },
        {
          "time": 72.173895,
          "name": "G3",
          "midi": 55,
          "duration": 0.434782,
          "velocity": 0.590551
        },
        {
          "time": 72.173895,
          "name": "B3",
          "midi": 59,
          "duration": 0.434782,
          "velocity": 0.590551
        },
        {
          "time": 72.173895,
          "name": "E4",
          "midi": 64,
          "duration": 0.434782,
          "velocity": 0.590551
        },
        {
          "time": 73.04346,
          "name": "A1",
          "midi": 33,
          "duration": 0.144927,
          "velocity": 0.590551
        },
        {
          "time": 73.188387,
          "name": "E2",
          "midi": 40,
          "duration": 0.143116,
          "velocity": 0.590551
        },
        {
          "time": 73.331503,
          "name": "F#2",
          "midi": 42,
          "duration": 0.146739,
          "velocity": 0.590551
        },
        {
          "time": 73.478242,
          "name": "A2",
          "midi": 45,
          "duration": 0.144928,
          "velocity": 0.590551
        },
        {
          "time": 73.62317,
          "name": "E3",
          "midi": 52,
          "duration": 0.143116,
          "velocity": 0.590551
        },
        {
          "time": 73.766286,
          "name": "F#3",
          "midi": 54,
          "duration": 0.146739,
          "velocity": 0.590551
        },
        {
          "time": 73.913025,
          "name": "A3",
          "midi": 57,
          "duration": 0.144928,
          "velocity": 0.590551
        },
        {
          "time": 74.057952,
          "name": "F#3",
          "midi": 54,
          "duration": 0.143116,
          "velocity": 0.590551
        },
        {
          "time": 74.201068,
          "name": "E3",
          "midi": 52,
          "duration": 0.146739,
          "velocity": 0.590551
        },
        {
          "time": 74.347807,
          "name": "A2",
          "midi": 45,
          "duration": 0.144928,
          "velocity": 0.590551
        },
        {
          "time": 74.492735,
          "name": "F#2",
          "midi": 42,
          "duration": 0.143116,
          "velocity": 0.590551
        },
        {
          "time": 74.635851,
          "name": "E2",
          "midi": 40,
          "duration": 0.146739,
          "velocity": 0.590551
        },
        {
          "time": 74.78259,
          "name": "B1",
          "midi": 35,
          "duration": 0.144928,
          "velocity": 0.590551
        },
        {
          "time": 74.927517,
          "name": "D#2",
          "midi": 39,
          "duration": 0.143116,
          "velocity": 0.590551
        },
        {
          "time": 75.070633,
          "name": "F#2",
          "midi": 42,
          "duration": 0.146739,
          "velocity": 0.590551
        },
        {
          "time": 75.217372,
          "name": "B2",
          "midi": 47,
          "duration": 0.144927,
          "velocity": 0.590551
        },
        {
          "time": 75.3623,
          "name": "D#3",
          "midi": 51,
          "duration": 0.143116,
          "velocity": 0.590551
        },
        {
          "time": 75.505416,
          "name": "F#3",
          "midi": 54,
          "duration": 0.146739,
          "velocity": 0.590551
        },
        {
          "time": 75.652155,
          "name": "B3",
          "midi": 59,
          "duration": 0.144928,
          "velocity": 0.590551
        },
        {
          "time": 75.797083,
          "name": "F#3",
          "midi": 54,
          "duration": 0.143116,
          "velocity": 0.590551
        },
        {
          "time": 75.940198,
          "name": "D#3",
          "midi": 51,
          "duration": 0.146739,
          "velocity": 0.590551
        },
        {
          "time": 76.086937,
          "name": "B2",
          "midi": 47,
          "duration": 0.144928,
          "velocity": 0.590551
        },
        {
          "time": 76.231865,
          "name": "F#2",
          "midi": 42,
          "duration": 0.143116,
          "velocity": 0.590551
        },
        {
          "time": 76.374981,
          "name": "D#2",
          "midi": 39,
          "duration": 0.146739,
          "velocity": 0.590551
        },
        {
          "time": 76.52172,
          "name": "E2",
          "midi": 40,
          "duration": 0.144928,
          "velocity": 0.488189
        },
        {
          "time": 76.666647,
          "name": "G2",
          "midi": 43,
          "duration": 0.143116,
          "velocity": 0.488189
        },
        {
          "time": 76.809763,
          "name": "B2",
          "midi": 47,
          "duration": 0.146739,
          "velocity": 0.488189
        },
        {
          "time": 76.956502,
          "name": "E3",
          "midi": 52,
          "duration": 0.434783,
          "velocity": 0.488189
        },
        {
          "time": 77.391285,
          "name": "E3",
          "midi": 52,
          "duration": 0.434782,
          "velocity": 0.488189
        },
        {
          "time": 77.391285,
          "name": "G3",
          "midi": 55,
          "duration": 0.434782,
          "velocity": 0.488189
        },
        {
          "time": 77.391285,
          "name": "B3",
          "midi": 59,
          "duration": 0.434782,
          "velocity": 0.488189
        },
        {
          "time": 78.26085,
          "name": "E2",
          "midi": 40,
          "duration": 0.434782,
          "velocity": 0.488189
        },
        {
          "time": 78.26085,
          "name": "A2",
          "midi": 45,
          "duration": 0.434782,
          "velocity": 0.488189
        },
        {
          "time": 78.26085,
          "name": "C3",
          "midi": 48,
          "duration": 0.434782,
          "velocity": 0.488189
        },
        {
          "time": 78.26085,
          "name": "E3",
          "midi": 52,
          "duration": 0.434782,
          "velocity": 0.488189
        },
        {
          "time": 79.130415,
          "name": "A3",
          "midi": 57,
          "duration": 0.434783,
          "velocity": 0.590551
        },
        {
          "time": 79.130415,
          "name": "E3",
          "midi": 52,
          "duration": 0.869565,
          "velocity": 0.488189
        },
        {
          "time": 79.565197,
          "name": "G3",
          "midi": 55,
          "duration": 0.434782,
          "velocity": 0.590551
        },
        {
          "time": 79.99998,
          "name": "E3",
          "midi": 52,
          "duration": 0.652174,
          "velocity": 0.590551
        },
        {
          "time": 79.99998,
          "name": "E2",
          "midi": 40,
          "duration": 0.434782,
          "velocity": 0.488189
        },
        {
          "time": 79.99998,
          "name": "G2",
          "midi": 43,
          "duration": 0.434782,
          "velocity": 0.488189
        },
        {
          "time": 79.99998,
          "name": "B2",
          "midi": 47,
          "duration": 0.434782,
          "velocity": 0.488189
        },
        {
          "time": 80.652154,
          "name": "F#3",
          "midi": 54,
          "duration": 0.217391,
          "velocity": 0.590551
        },
        {
          "time": 80.869545,
          "name": "E3",
          "midi": 52,
          "duration": 0.434782,
          "velocity": 0.590551
        },
        {
          "time": 80.869545,
          "name": "G3",
          "midi": 55,
          "duration": 0.434782,
          "velocity": 0.488189
        },
        {
          "time": 80.869545,
          "name": "B3",
          "midi": 59,
          "duration": 0.434782,
          "velocity": 0.488189
        },
        {
          "time": 81.73911,
          "name": "E2",
          "midi": 40,
          "duration": 0.434782,
          "velocity": 0.488189
        },
        {
          "time": 81.73911,
          "name": "A2",
          "midi": 45,
          "duration": 0.434782,
          "velocity": 0.488189
        },
        {
          "time": 81.73911,
          "name": "C3",
          "midi": 48,
          "duration": 0.434782,
          "velocity": 0.488189
        },
        {
          "time": 81.73911,
          "name": "E3",
          "midi": 52,
          "duration": 0.434782,
          "velocity": 0.488189
        },
        {
          "time": 82.608675,
          "name": "A3",
          "midi": 57,
          "duration": 0.434782,
          "velocity": 0.590551
        },
        {
          "time": 82.608675,
          "name": "E3",
          "midi": 52,
          "duration": 0.869565,
          "velocity": 0.488189
        },
        {
          "time": 83.043457,
          "name": "G3",
          "midi": 55,
          "duration": 0.434782,
          "velocity": 0.590551
        },
        {
          "time": 83.47824,
          "name": "E2",
          "midi": 40,
          "duration": 0.416667,
          "velocity": 0.488189
        },
        {
          "time": 83.47824,
          "name": "G2",
          "midi": 43,
          "duration": 0.416667,
          "velocity": 0.488189
        },
        {
          "time": 83.47824,
          "name": "B2",
          "midi": 47,
          "duration": 0.416667,
          "velocity": 0.488189
        },
        {
          "time": 83.47824,
          "name": "E3",
          "midi": 52,
          "duration": 0.416667,
          "velocity": 0.488189
        },
        {
          "time": 84.311573,
          "name": "E3",
          "midi": 52,
          "duration": 0.416667,
          "velocity": 0.488189
        },
        {
          "time": 84.311573,
          "name": "G3",
          "midi": 55,
          "duration": 0.416667,
          "velocity": 0.488189
        },
        {
          "time": 84.311573,
          "name": "B3",
          "midi": 59,
          "duration": 0.416667,
          "velocity": 0.488189
        },
        {
          "time": 85.144906,
          "name": "E3",
          "midi": 52,
          "duration": 0.138889,
          "velocity": 0.488189
        },
        {
          "time": 85.283795,
          "name": "G3",
          "midi": 55,
          "duration": 0.137153,
          "velocity": 0.488189
        },
        {
          "time": 85.420948,
          "name": "B3",
          "midi": 59,
          "duration": 0.140625,
          "velocity": 0.488189
        },
        {
          "time": 85.561572,
          "name": "E4",
          "midi": 64,
          "duration": 0.416667,
          "velocity": 0.488189
        },
        {
          "time": 85.978239,
          "name": "E4",
          "midi": 64,
          "duration": 0.208333,
          "velocity": 0.385827
        },
        {
          "time": 85.978239,
          "name": "G4",
          "midi": 67,
          "duration": 0.208333,
          "velocity": 0.385827
        },
        {
          "time": 85.978239,
          "name": "B4",
          "midi": 71,
          "duration": 0.208333,
          "velocity": 0.385827
        },
        {
          "time": 86.186572,
          "name": "E4",
          "midi": 64,
          "duration": 0.208333,
          "velocity": 0.385827
        },
        {
          "time": 86.186572,
          "name": "G4",
          "midi": 67,
          "duration": 0.208333,
          "velocity": 0.385827
        },
        {
          "time": 86.186572,
          "name": "B4",
          "midi": 71,
          "duration": 0.208333,
          "velocity": 0.385827
        },
        {
          "time": 86.394905,
          "name": "E4",
          "midi": 64,
          "duration": 0.208333,
          "velocity": 0.385827
        },
        {
          "time": 86.394905,
          "name": "G4",
          "midi": 67,
          "duration": 0.208333,
          "velocity": 0.385827
        },
        {
          "time": 86.394905,
          "name": "B4",
          "midi": 71,
          "duration": 0.208333,
          "velocity": 0.385827
        },
        {
          "time": 86.603239,
          "name": "E4",
          "midi": 64,
          "duration": 0.208333,
          "velocity": 0.385827
        },
        {
          "time": 86.603239,
          "name": "G4",
          "midi": 67,
          "duration": 0.208333,
          "velocity": 0.385827
        },
        {
          "time": 86.603239,
          "name": "B4",
          "midi": 71,
          "duration": 0.208333,
          "velocity": 0.385827
        },
        {
          "time": 86.811572,
          "name": "E4",
          "midi": 64,
          "duration": 0.197368,
          "velocity": 0.385827
        },
        {
          "time": 86.811572,
          "name": "G4",
          "midi": 67,
          "duration": 0.197368,
          "velocity": 0.385827
        },
        {
          "time": 86.811572,
          "name": "B4",
          "midi": 71,
          "duration": 0.197368,
          "velocity": 0.385827
        },
        {
          "time": 87.00894,
          "name": "E4",
          "midi": 64,
          "duration": 0.197369,
          "velocity": 0.385827
        },
        {
          "time": 87.00894,
          "name": "G4",
          "midi": 67,
          "duration": 0.197369,
          "velocity": 0.385827
        },
        {
          "time": 87.00894,
          "name": "B4",
          "midi": 71,
          "duration": 0.197369,
          "velocity": 0.385827
        },
        {
          "time": 87.206309,
          "name": "E4",
          "midi": 64,
          "duration": 0.197368,
          "velocity": 0.385827
        },
        {
          "time": 87.206309,
          "name": "G4",
          "midi": 67,
          "duration": 0.197368,
          "velocity": 0.385827
        },
        {
          "time": 87.206309,
          "name": "B4",
          "midi": 71,
          "duration": 0.197368,
          "velocity": 0.385827
        },
        {
          "time": 87.403677,
          "name": "E4",
          "midi": 64,
          "duration": 0.197368,
          "velocity": 0.385827
        },
        {
          "time": 87.403677,
          "name": "G4",
          "midi": 67,
          "duration": 0.197368,
          "velocity": 0.385827
        },
        {
          "time": 87.403677,
          "name": "B4",
          "midi": 71,
          "duration": 0.197368,
          "velocity": 0.385827
        },
        {
          "time": 87.601046,
          "name": "E4",
          "midi": 64,
          "duration": 0.197368,
          "velocity": 0.385827
        },
        {
          "time": 87.601046,
          "name": "G4",
          "midi": 67,
          "duration": 0.197368,
          "velocity": 0.385827
        },
        {
          "time": 87.601046,
          "name": "B4",
          "midi": 71,
          "duration": 0.197368,
          "velocity": 0.385827
        },
        {
          "time": 87.798414,
          "name": "E4",
          "midi": 64,
          "duration": 0.197369,
          "velocity": 0.385827
        },
        {
          "time": 87.798414,
          "name": "G4",
          "midi": 67,
          "duration": 0.197369,
          "velocity": 0.385827
        },
        {
          "time": 87.798414,
          "name": "B4",
          "midi": 71,
          "duration": 0.197369,
          "velocity": 0.385827
        },
        {
          "time": 87.995783,
          "name": "E4",
          "midi": 64,
          "duration": 0.197368,
          "velocity": 0.385827
        },
        {
          "time": 87.995783,
          "name": "G4",
          "midi": 67,
          "duration": 0.197368,
          "velocity": 0.385827
        },
        {
          "time": 87.995783,
          "name": "B4",
          "midi": 71,
          "duration": 0.197368,
          "velocity": 0.385827
        },
        {
          "time": 88.193151,
          "name": "E4",
          "midi": 64,
          "duration": 0.197368,
          "velocity": 0.385827
        },
        {
          "time": 88.193151,
          "name": "G4",
          "midi": 67,
          "duration": 0.197368,
          "velocity": 0.385827
        },
        {
          "time": 88.193151,
          "name": "B4",
          "midi": 71,
          "duration": 0.197368,
          "velocity": 0.385827
        },
        {
          "time": 88.39052,
          "name": "E4",
          "midi": 64,
          "duration": 0.197368,
          "velocity": 0.385827
        },
        {
          "time": 88.39052,
          "name": "G4",
          "midi": 67,
          "duration": 0.197368,
          "velocity": 0.385827
        },
        {
          "time": 88.39052,
          "name": "B4",
          "midi": 71,
          "duration": 0.197368,
          "velocity": 0.385827
        },
        {
          "time": 88.587888,
          "name": "E4",
          "midi": 64,
          "duration": 0.197369,
          "velocity": 0.385827
        },
        {
          "time": 88.587888,
          "name": "G4",
          "midi": 67,
          "duration": 0.197369,
          "velocity": 0.385827
        },
        {
          "time": 88.587888,
          "name": "B4",
          "midi": 71,
          "duration": 0.197369,
          "velocity": 0.385827
        },
        {
          "time": 88.785257,
          "name": "E4",
          "midi": 64,
          "duration": 0.197368,
          "velocity": 0.385827
        },
        {
          "time": 88.785257,
          "name": "G4",
          "midi": 67,
          "duration": 0.197368,
          "velocity": 0.385827
        },
        {
          "time": 88.785257,
          "name": "B4",
          "midi": 71,
          "duration": 0.197368,
          "velocity": 0.385827
        },
        {
          "time": 88.982625,
          "name": "E4",
          "midi": 64,
          "duration": 0.197368,
          "velocity": 0.385827
        },
        {
          "time": 88.982625,
          "name": "G4",
          "midi": 67,
          "duration": 0.197368,
          "velocity": 0.385827
        },
        {
          "time": 88.982625,
          "name": "B4",
          "midi": 71,
          "duration": 0.197368,
          "velocity": 0.385827
        },
        {
          "time": 89.179994,
          "name": "E4",
          "midi": 64,
          "duration": 0.197369,
          "velocity": 0.385827
        },
        {
          "time": 89.179994,
          "name": "G4",
          "midi": 67,
          "duration": 0.197369,
          "velocity": 0.385827
        },
        {
          "time": 89.179994,
          "name": "B4",
          "midi": 71,
          "duration": 0.197369,
          "velocity": 0.385827
        },
        {
          "time": 89.377362,
          "name": "E4",
          "midi": 64,
          "duration": 0.197368,
          "velocity": 0.385827
        },
        {
          "time": 89.377362,
          "name": "G4",
          "midi": 67,
          "duration": 0.197368,
          "velocity": 0.385827
        },
        {
          "time": 89.377362,
          "name": "B4",
          "midi": 71,
          "duration": 0.197368,
          "velocity": 0.385827
        },
        {
          "time": 89.574731,
          "name": "E4",
          "midi": 64,
          "duration": 0.197368,
          "velocity": 0.385827
        },
        {
          "time": 89.574731,
          "name": "G4",
          "midi": 67,
          "duration": 0.197368,
          "velocity": 0.385827
        },
        {
          "time": 89.574731,
          "name": "B4",
          "midi": 71,
          "duration": 0.197368,
          "velocity": 0.385827
        },
        {
          "time": 89.772099,
          "name": "E4",
          "midi": 64,
          "duration": 0.197368,
          "velocity": 0.385827
        },
        {
          "time": 89.772099,
          "name": "G4",
          "midi": 67,
          "duration": 0.197368,
          "velocity": 0.385827
        },
        {
          "time": 89.772099,
          "name": "B4",
          "midi": 71,
          "duration": 0.197368,
          "velocity": 0.385827
        },
        {
          "time": 89.969468,
          "name": "E4",
          "midi": 64,
          "duration": 0.197369,
          "velocity": 0.385827
        },
        {
          "time": 89.969468,
          "name": "A4",
          "midi": 69,
          "duration": 0.197369,
          "velocity": 0.385827
        },
        {
          "time": 89.969468,
          "name": "C5",
          "midi": 72,
          "duration": 0.197369,
          "velocity": 0.385827
        },
        {
          "time": 90.166836,
          "name": "E4",
          "midi": 64,
          "duration": 0.197368,
          "velocity": 0.385827
        },
        {
          "time": 90.166836,
          "name": "A4",
          "midi": 69,
          "duration": 0.197368,
          "velocity": 0.385827
        },
        {
          "time": 90.166836,
          "name": "C5",
          "midi": 72,
          "duration": 0.197368,
          "velocity": 0.385827
        },
        {
          "time": 90.364205,
          "name": "E4",
          "midi": 64,
          "duration": 0.197368,
          "velocity": 0.385827
        },
        {
          "time": 90.364205,
          "name": "A4",
          "midi": 69,
          "duration": 0.197368,
          "velocity": 0.385827
        },
        {
          "time": 90.364205,
          "name": "C5",
          "midi": 72,
          "duration": 0.197368,
          "velocity": 0.385827
        },
        {
          "time": 90.561573,
          "name": "E4",
          "midi": 64,
          "duration": 0.197369,
          "velocity": 0.385827
        },
        {
          "time": 90.561573,
          "name": "A4",
          "midi": 69,
          "duration": 0.197369,
          "velocity": 0.385827
        },
        {
          "time": 90.561573,
          "name": "C5",
          "midi": 72,
          "duration": 0.197369,
          "velocity": 0.385827
        },
        {
          "time": 90.758942,
          "name": "E4",
          "midi": 64,
          "duration": 0.197368,
          "velocity": 0.385827
        },
        {
          "time": 90.758942,
          "name": "A4",
          "midi": 69,
          "duration": 0.197368,
          "velocity": 0.385827
        },
        {
          "time": 90.758942,
          "name": "C5",
          "midi": 72,
          "duration": 0.197368,
          "velocity": 0.385827
        },
        {
          "time": 90.95631,
          "name": "E4",
          "midi": 64,
          "duration": 0.197368,
          "velocity": 0.385827
        },
        {
          "time": 90.95631,
          "name": "A4",
          "midi": 69,
          "duration": 0.197368,
          "velocity": 0.385827
        },
        {
          "time": 90.95631,
          "name": "C5",
          "midi": 72,
          "duration": 0.197368,
          "velocity": 0.385827
        },
        {
          "time": 91.153679,
          "name": "E4",
          "midi": 64,
          "duration": 0.197368,
          "velocity": 0.385827
        },
        {
          "time": 91.153679,
          "name": "A4",
          "midi": 69,
          "duration": 0.197368,
          "velocity": 0.385827
        },
        {
          "time": 91.153679,
          "name": "C5",
          "midi": 72,
          "duration": 0.197368,
          "velocity": 0.385827
        },
        {
          "time": 91.351047,
          "name": "E4",
          "midi": 64,
          "duration": 0.197369,
          "velocity": 0.385827
        },
        {
          "time": 91.351047,
          "name": "A4",
          "midi": 69,
          "duration": 0.197369,
          "velocity": 0.385827
        },
        {
          "time": 91.351047,
          "name": "C5",
          "midi": 72,
          "duration": 0.197369,
          "velocity": 0.385827
        },
        {
          "time": 91.548416,
          "name": "C4",
          "midi": 60,
          "duration": 0.197368,
          "velocity": 0.385827
        },
        {
          "time": 91.548416,
          "name": "E4",
          "midi": 64,
          "duration": 0.197368,
          "velocity": 0.385827
        },
        {
          "time": 91.548416,
          "name": "A4",
          "midi": 69,
          "duration": 0.197368,
          "velocity": 0.385827
        },
        {
          "time": 91.745784,
          "name": "C4",
          "midi": 60,
          "duration": 0.197368,
          "velocity": 0.385827
        },
        {
          "time": 91.745784,
          "name": "E4",
          "midi": 64,
          "duration": 0.197368,
          "velocity": 0.385827
        },
        {
          "time": 91.745784,
          "name": "A4",
          "midi": 69,
          "duration": 0.197368,
          "velocity": 0.385827
        },
        {
          "time": 91.943153,
          "name": "C4",
          "midi": 60,
          "duration": 0.197368,
          "velocity": 0.385827
        },
        {
          "time": 91.943153,
          "name": "E4",
          "midi": 64,
          "duration": 0.197368,
          "velocity": 0.385827
        },
        {
          "time": 91.943153,
          "name": "A4",
          "midi": 69,
          "duration": 0.197368,
          "velocity": 0.385827
        },
        {
          "time": 92.140521,
          "name": "C4",
          "midi": 60,
          "duration": 0.197369,
          "velocity": 0.385827
        },
        {
          "time": 92.140521,
          "name": "E4",
          "midi": 64,
          "duration": 0.197369,
          "velocity": 0.385827
        },
        {
          "time": 92.140521,
          "name": "A4",
          "midi": 69,
          "duration": 0.197369,
          "velocity": 0.385827
        },
        {
          "time": 92.33789,
          "name": "C4",
          "midi": 60,
          "duration": 0.197368,
          "velocity": 0.385827
        },
        {
          "time": 92.33789,
          "name": "E4",
          "midi": 64,
          "duration": 0.197368,
          "velocity": 0.385827
        },
        {
          "time": 92.33789,
          "name": "A4",
          "midi": 69,
          "duration": 0.197368,
          "velocity": 0.385827
        },
        {
          "time": 92.535258,
          "name": "C4",
          "midi": 60,
          "duration": 0.197368,
          "velocity": 0.385827
        },
        {
          "time": 92.535258,
          "name": "E4",
          "midi": 64,
          "duration": 0.197368,
          "velocity": 0.385827
        },
        {
          "time": 92.535258,
          "name": "A4",
          "midi": 69,
          "duration": 0.197368,
          "velocity": 0.385827
        },
        {
          "time": 92.732627,
          "name": "C4",
          "midi": 60,
          "duration": 0.197369,
          "velocity": 0.385827
        },
        {
          "time": 92.732627,
          "name": "E4",
          "midi": 64,
          "duration": 0.197369,
          "velocity": 0.385827
        },
        {
          "time": 92.732627,
          "name": "A4",
          "midi": 69,
          "duration": 0.197369,
          "velocity": 0.385827
        },
        {
          "time": 92.929995,
          "name": "C4",
          "midi": 60,
          "duration": 0.197368,
          "velocity": 0.385827
        },
        {
          "time": 92.929995,
          "name": "E4",
          "midi": 64,
          "duration": 0.197368,
          "velocity": 0.385827
        },
        {
          "time": 92.929995,
          "name": "A4",
          "midi": 69,
          "duration": 0.197368,
          "velocity": 0.385827
        },
        {
          "time": 93.127364,
          "name": "B3",
          "midi": 59,
          "duration": 0.197368,
          "velocity": 0.385827
        },
        {
          "time": 93.127364,
          "name": "D#4",
          "midi": 63,
          "duration": 0.197368,
          "velocity": 0.385827
        },
        {
          "time": 93.127364,
          "name": "F#4",
          "midi": 66,
          "duration": 0.197368,
          "velocity": 0.385827
        },
        {
          "time": 93.324732,
          "name": "B3",
          "midi": 59,
          "duration": 0.197368,
          "velocity": 0.385827
        },
        {
          "time": 93.324732,
          "name": "D#4",
          "midi": 63,
          "duration": 0.197368,
          "velocity": 0.385827
        },
        {
          "time": 93.324732,
          "name": "F#4",
          "midi": 66,
          "duration": 0.197368,
          "velocity": 0.385827
        },
        {
          "time": 93.522101,
          "name": "B3",
          "midi": 59,
          "duration": 0.197369,
          "velocity": 0.385827
        },
        {
          "time": 93.522101,
          "name": "D#4",
          "midi": 63,
          "duration": 0.197369,
          "velocity": 0.385827
        },
        {
          "time": 93.522101,
          "name": "F#4",
          "midi": 66,
          "duration": 0.197369,
          "velocity": 0.385827
        },
        {
          "time": 93.719469,
          "name": "B3",
          "midi": 59,
          "duration": 0.197368,
          "velocity": 0.385827
        },
        {
          "time": 93.719469,
          "name": "D#4",
          "midi": 63,
          "duration": 0.197368,
          "velocity": 0.385827
        },
        {
          "time": 93.719469,
          "name": "F#4",
          "midi": 66,
          "duration": 0.197368,
          "velocity": 0.385827
        },
        {
          "time": 93.916838,
          "name": "B3",
          "midi": 59,
          "duration": 0.197368,
          "velocity": 0.385827
        },
        {
          "time": 93.916838,
          "name": "D#4",
          "midi": 63,
          "duration": 0.197368,
          "velocity": 0.385827
        },
        {
          "time": 93.916838,
          "name": "F#4",
          "midi": 66,
          "duration": 0.197368,
          "velocity": 0.385827
        },
        {
          "time": 94.114206,
          "name": "B3",
          "midi": 59,
          "duration": 0.197368,
          "velocity": 0.385827
        },
        {
          "time": 94.114206,
          "name": "D#4",
          "midi": 63,
          "duration": 0.197368,
          "velocity": 0.385827
        },
        {
          "time": 94.114206,
          "name": "F#4",
          "midi": 66,
          "duration": 0.197368,
          "velocity": 0.385827
        },
        {
          "time": 94.311575,
          "name": "B3",
          "midi": 59,
          "duration": 0.197369,
          "velocity": 0.385827
        },
        {
          "time": 94.311575,
          "name": "D#4",
          "midi": 63,
          "duration": 0.197369,
          "velocity": 0.385827
        },
        {
          "time": 94.311575,
          "name": "F#4",
          "midi": 66,
          "duration": 0.197369,
          "velocity": 0.385827
        },
        {
          "time": 94.508943,
          "name": "B3",
          "midi": 59,
          "duration": 0.197368,
          "velocity": 0.385827
        },
        {
          "time": 94.508943,
          "name": "D#4",
          "midi": 63,
          "duration": 0.197368,
          "velocity": 0.385827
        },
        {
          "time": 94.508943,
          "name": "F#4",
          "midi": 66,
          "duration": 0.197368,
          "velocity": 0.385827
        },
        {
          "time": 94.706312,
          "name": "A3",
          "midi": 57,
          "duration": 0.197368,
          "velocity": 0.385827
        },
        {
          "time": 94.706312,
          "name": "E4",
          "midi": 64,
          "duration": 0.197368,
          "velocity": 0.385827
        },
        {
          "time": 94.706312,
          "name": "F#4",
          "midi": 66,
          "duration": 0.197368,
          "velocity": 0.385827
        },
        {
          "time": 94.90368,
          "name": "A3",
          "midi": 57,
          "duration": 0.197369,
          "velocity": 0.385827
        },
        {
          "time": 94.90368,
          "name": "E4",
          "midi": 64,
          "duration": 0.197369,
          "velocity": 0.385827
        },
        {
          "time": 94.90368,
          "name": "F#4",
          "midi": 66,
          "duration": 0.197369,
          "velocity": 0.385827
        },
        {
          "time": 95.101049,
          "name": "A3",
          "midi": 57,
          "duration": 0.197368,
          "velocity": 0.385827
        },
        {
          "time": 95.101049,
          "name": "E4",
          "midi": 64,
          "duration": 0.197368,
          "velocity": 0.385827
        },
        {
          "time": 95.101049,
          "name": "F#4",
          "midi": 66,
          "duration": 0.197368,
          "velocity": 0.385827
        },
        {
          "time": 95.298417,
          "name": "A3",
          "midi": 57,
          "duration": 0.197368,
          "velocity": 0.385827
        },
        {
          "time": 95.298417,
          "name": "E4",
          "midi": 64,
          "duration": 0.197368,
          "velocity": 0.385827
        },
        {
          "time": 95.298417,
          "name": "F#4",
          "midi": 66,
          "duration": 0.197368,
          "velocity": 0.385827
        },
        {
          "time": 95.495786,
          "name": "A3",
          "midi": 57,
          "duration": 0.197368,
          "velocity": 0.385827
        },
        {
          "time": 95.495786,
          "name": "E4",
          "midi": 64,
          "duration": 0.197368,
          "velocity": 0.385827
        },
        {
          "time": 95.495786,
          "name": "F#4",
          "midi": 66,
          "duration": 0.197368,
          "velocity": 0.385827
        },
        {
          "time": 95.693154,
          "name": "A3",
          "midi": 57,
          "duration": 0.197369,
          "velocity": 0.385827
        },
        {
          "time": 95.693154,
          "name": "E4",
          "midi": 64,
          "duration": 0.197369,
          "velocity": 0.385827
        },
        {
          "time": 95.693154,
          "name": "F#4",
          "midi": 66,
          "duration": 0.197369,
          "velocity": 0.385827
        },
        {
          "time": 95.890523,
          "name": "A3",
          "midi": 57,
          "duration": 0.197368,
          "velocity": 0.385827
        },
        {
          "time": 95.890523,
          "name": "E4",
          "midi": 64,
          "duration": 0.197368,
          "velocity": 0.385827
        },
        {
          "time": 95.890523,
          "name": "F#4",
          "midi": 66,
          "duration": 0.197368,
          "velocity": 0.385827
        },
        {
          "time": 96.087891,
          "name": "A3",
          "midi": 57,
          "duration": 0.197368,
          "velocity": 0.385827
        },
        {
          "time": 96.087891,
          "name": "E4",
          "midi": 64,
          "duration": 0.197368,
          "velocity": 0.385827
        },
        {
          "time": 96.087891,
          "name": "F#4",
          "midi": 66,
          "duration": 0.197368,
          "velocity": 0.385827
        },
        {
          "time": 96.28526,
          "name": "B3",
          "midi": 59,
          "duration": 0.197368,
          "velocity": 0.385827
        },
        {
          "time": 96.28526,
          "name": "D#4",
          "midi": 63,
          "duration": 0.197368,
          "velocity": 0.385827
        },
        {
          "time": 96.28526,
          "name": "F#4",
          "midi": 66,
          "duration": 0.197368,
          "velocity": 0.385827
        },
        {
          "time": 96.482628,
          "name": "B3",
          "midi": 59,
          "duration": 0.197369,
          "velocity": 0.385827
        },
        {
          "time": 96.482628,
          "name": "D#4",
          "midi": 63,
          "duration": 0.197369,
          "velocity": 0.385827
        },
        {
          "time": 96.482628,
          "name": "F#4",
          "midi": 66,
          "duration": 0.197369,
          "velocity": 0.385827
        },
        {
          "time": 96.679997,
          "name": "B3",
          "midi": 59,
          "duration": 0.197368,
          "velocity": 0.385827
        },
        {
          "time": 96.679997,
          "name": "D#4",
          "midi": 63,
          "duration": 0.197368,
          "velocity": 0.385827
        },
        {
          "time": 96.679997,
          "name": "F#4",
          "midi": 66,
          "duration": 0.197368,
          "velocity": 0.385827
        },
        {
          "time": 96.877365,
          "name": "B3",
          "midi": 59,
          "duration": 0.197368,
          "velocity": 0.385827
        },
        {
          "time": 96.877365,
          "name": "D#4",
          "midi": 63,
          "duration": 0.197368,
          "velocity": 0.385827
        },
        {
          "time": 96.877365,
          "name": "F#4",
          "midi": 66,
          "duration": 0.197368,
          "velocity": 0.385827
        },
        {
          "time": 97.074734,
          "name": "B1",
          "midi": 35,
          "duration": 0.064145,
          "velocity": 0.488189
        },
        {
          "time": 97.138879,
          "name": "D#2",
          "midi": 39,
          "duration": 0.067434,
          "velocity": 0.488189
        },
        {
          "time": 97.206313,
          "name": "F#2",
          "midi": 42,
          "duration": 0.06579,
          "velocity": 0.488189
        },
        {
          "time": 97.272102,
          "name": "B2",
          "midi": 47,
          "duration": 0.064145,
          "velocity": 0.488189
        },
        {
          "time": 97.336247,
          "name": "D#3",
          "midi": 51,
          "duration": 0.067434,
          "velocity": 0.488189
        },
        {
          "time": 97.403681,
          "name": "F#3",
          "midi": 54,
          "duration": 0.06579,
          "velocity": 0.488189
        },
        {
          "time": 97.864208,
          "name": "B3",
          "midi": 59,
          "duration": 0.197369,
          "velocity": 0.488189
        },
        {
          "time": 97.864208,
          "name": "D#4",
          "midi": 63,
          "duration": 0.197369,
          "velocity": 0.488189
        },
        {
          "time": 97.864208,
          "name": "F#4",
          "midi": 66,
          "duration": 0.197369,
          "velocity": 0.488189
        },
        {
          "time": 98.061576,
          "name": "B3",
          "midi": 59,
          "duration": 0.197368,
          "velocity": 0.488189
        },
        {
          "time": 98.061576,
          "name": "D#4",
          "midi": 63,
          "duration": 0.197368,
          "velocity": 0.488189
        },
        {
          "time": 98.061576,
          "name": "F#4",
          "midi": 66,
          "duration": 0.197368,
          "velocity": 0.488189
        },
        {
          "time": 98.258945,
          "name": "B3",
          "midi": 59,
          "duration": 0.197368,
          "velocity": 0.488189
        },
        {
          "time": 98.258945,
          "name": "D#4",
          "midi": 63,
          "duration": 0.197368,
          "velocity": 0.488189
        },
        {
          "time": 98.258945,
          "name": "F#4",
          "midi": 66,
          "duration": 0.197368,
          "velocity": 0.488189
        },
        {
          "time": 98.456313,
          "name": "B3",
          "midi": 59,
          "duration": 0.197368,
          "velocity": 0.488189
        },
        {
          "time": 98.456313,
          "name": "D#4",
          "midi": 63,
          "duration": 0.197368,
          "velocity": 0.488189
        },
        {
          "time": 98.456313,
          "name": "F#4",
          "midi": 66,
          "duration": 0.197368,
          "velocity": 0.488189
        },
        {
          "time": 98.653682,
          "name": "B3",
          "midi": 59,
          "duration": 0.394737,
          "velocity": 0.692913
        },
        {
          "time": 99.048419,
          "name": "A3",
          "midi": 57,
          "duration": 0.394737,
          "velocity": 0.488189
        },
        {
          "time": 99.443156,
          "name": "G3",
          "midi": 55,
          "duration": 0.789474,
          "velocity": 0.692913
        },
        {
          "time": 100.23263,
          "name": "D4",
          "midi": 62,
          "duration": 0.394737,
          "velocity": 0.692913
        },
        {
          "time": 100.627367,
          "name": "C4",
          "midi": 60,
          "duration": 0.394737,
          "velocity": 0.692913
        },
        {
          "time": 101.022104,
          "name": "B3",
          "midi": 59,
          "duration": 0.592106,
          "velocity": 0.488189
        },
        {
          "time": 101.614209,
          "name": "C4",
          "midi": 60,
          "duration": 0.098684,
          "velocity": 0.488189
        },
        {
          "time": 101.712894,
          "name": "B3",
          "midi": 59,
          "duration": 0.098684,
          "velocity": 0.488189
        },
        {
          "time": 101.811578,
          "name": "A3",
          "midi": 57,
          "duration": 0.394737,
          "velocity": 0.692913
        },
        {
          "time": 102.206315,
          "name": "G3",
          "midi": 55,
          "duration": 0.394737,
          "velocity": 0.692913
        },
        {
          "time": 102.601052,
          "name": "B3",
          "midi": 59,
          "duration": 0.789474,
          "velocity": 0.488189
        },
        {
          "time": 102.601052,
          "name": "F#3",
          "midi": 54,
          "duration": 1.578948,
          "velocity": 0.385827
        },
        {
          "time": 103.390526,
          "name": "A3",
          "midi": 57,
          "duration": 0.789474,
          "velocity": 0.488189
        },
        {
          "time": 104.18,
          "name": "B1",
          "midi": 35,
          "duration": 0.394737,
          "velocity": 0.385827
        },
        {
          "time": 104.18,
          "name": "B2",
          "midi": 47,
          "duration": 0.394737,
          "velocity": 0.385827
        },
        {
          "time": 104.969474,
          "name": "A3",
          "midi": 57,
          "duration": 0.394737,
          "velocity": 0.488189
        },
        {
          "time": 105.364211,
          "name": "B3",
          "midi": 59,
          "duration": 0.394737,
          "velocity": 0.488189
        },
        {
          "time": 105.610922,
          "name": "E2",
          "midi": 40,
          "duration": 0.740132,
          "velocity": 0.488189
        },
        {
          "time": 105.660264,
          "name": "G2",
          "midi": 43,
          "duration": 0.69079,
          "velocity": 0.488189
        },
        {
          "time": 105.709606,
          "name": "B2",
          "midi": 47,
          "duration": 0.641448,
          "velocity": 0.488189
        },
        {
          "time": 105.758948,
          "name": "E3",
          "midi": 52,
          "duration": 0.592106,
          "velocity": 0.488189
        },
        {
          "time": 106.351053,
          "name": "F#3",
          "midi": 54,
          "duration": 0.098684,
          "velocity": 0.488189
        },
        {
          "time": 106.449738,
          "name": "E3",
          "midi": 52,
          "duration": 0.098684,
          "velocity": 0.488189
        },
        {
          "time": 106.548422,
          "name": "D#3",
          "midi": 51,
          "duration": 0.394737,
          "velocity": 0.590551
        },
        {
          "time": 106.943159,
          "name": "E3",
          "midi": 52,
          "duration": 0.394737,
          "velocity": 0.590551
        },
        {
          "time": 107.337896,
          "name": "G3",
          "midi": 55,
          "duration": 0.789474,
          "velocity": 0.590551
        },
        {
          "time": 107.337896,
          "name": "C3",
          "midi": 48,
          "duration": 1.578948,
          "velocity": 0.385827
        },
        {
          "time": 108.12737,
          "name": "F#3",
          "midi": 54,
          "duration": 0.394737,
          "velocity": 0.590551
        },
        {
          "time": 108.522107,
          "name": "E3",
          "midi": 52,
          "duration": 0.394737,
          "velocity": 0.488189
        },
        {
          "time": 108.916844,
          "name": "B2",
          "midi": 47,
          "duration": 0.394737,
          "velocity": 0.488189
        },
        {
          "time": 109.706318,
          "name": "B1",
          "midi": 35,
          "duration": 0.064145,
          "velocity": 0.488189
        },
        {
          "time": 109.770463,
          "name": "D#2",
          "midi": 39,
          "duration": 0.067434,
          "velocity": 0.488189
        },
        {
          "time": 109.837897,
          "name": "F#2",
          "midi": 42,
          "duration": 0.065789,
          "velocity": 0.488189
        },
        {
          "time": 109.903686,
          "name": "B2",
          "midi": 47,
          "duration": 0.064145,
          "velocity": 0.488189
        },
        {
          "time": 109.967831,
          "name": "D#3",
          "midi": 51,
          "duration": 0.067434,
          "velocity": 0.488189
        },
        {
          "time": 110.035265,
          "name": "F#3",
          "midi": 54,
          "duration": 0.065789,
          "velocity": 0.488189
        },
        {
          "time": 110.495792,
          "name": "D#3",
          "midi": 51,
          "duration": 0.261513,
          "velocity": 0.385827
        },
        {
          "time": 110.495792,
          "name": "F#3",
          "midi": 54,
          "duration": 0.261513,
          "velocity": 0.385827
        },
        {
          "time": 110.757305,
          "name": "D#3",
          "midi": 51,
          "duration": 0.264803,
          "velocity": 0.385827
        },
        {
          "time": 110.757305,
          "name": "F#3",
          "midi": 54,
          "duration": 0.264803,
          "velocity": 0.385827
        },
        {
          "time": 111.022108,
          "name": "D#3",
          "midi": 51,
          "duration": 0.263158,
          "velocity": 0.385827
        },
        {
          "time": 111.022108,
          "name": "F#3",
          "midi": 54,
          "duration": 0.263158,
          "velocity": 0.385827
        },
        {
          "time": 111.285266,
          "name": "D#3",
          "midi": 51,
          "duration": 0.261513,
          "velocity": 0.385827
        },
        {
          "time": 111.285266,
          "name": "F#3",
          "midi": 54,
          "duration": 0.261513,
          "velocity": 0.385827
        },
        {
          "time": 111.546779,
          "name": "D#3",
          "midi": 51,
          "duration": 0.264803,
          "velocity": 0.385827
        },
        {
          "time": 111.546779,
          "name": "F#3",
          "midi": 54,
          "duration": 0.264803,
          "velocity": 0.385827
        },
        {
          "time": 111.811582,
          "name": "D#3",
          "midi": 51,
          "duration": 0.263158,
          "velocity": 0.385827
        },
        {
          "time": 111.811582,
          "name": "F#3",
          "midi": 54,
          "duration": 0.263158,
          "velocity": 0.385827
        },
        {
          "time": 112.07474,
          "name": "E3",
          "midi": 52,
          "duration": 0.261513,
          "velocity": 0.385827
        },
        {
          "time": 112.07474,
          "name": "A3",
          "midi": 57,
          "duration": 0.261513,
          "velocity": 0.385827
        },
        {
          "time": 112.07474,
          "name": "B2",
          "midi": 47,
          "duration": 3.157896,
          "velocity": 0.488189
        },
        {
          "time": 112.336253,
          "name": "E3",
          "midi": 52,
          "duration": 0.264803,
          "velocity": 0.385827
        },
        {
          "time": 112.336253,
          "name": "A3",
          "midi": 57,
          "duration": 0.264803,
          "velocity": 0.385827
        },
        {
          "time": 112.601056,
          "name": "E3",
          "midi": 52,
          "duration": 0.263158,
          "velocity": 0.385827
        },
        {
          "time": 112.601056,
          "name": "A3",
          "midi": 57,
          "duration": 0.263158,
          "velocity": 0.385827
        },
        {
          "time": 112.864214,
          "name": "C3",
          "midi": 48,
          "duration": 0.261513,
          "velocity": 0.385827
        },
        {
          "time": 112.864214,
          "name": "E3",
          "midi": 52,
          "duration": 0.261513,
          "velocity": 0.385827
        },
        {
          "time": 113.125727,
          "name": "C3",
          "midi": 48,
          "duration": 0.264803,
          "velocity": 0.385827
        },
        {
          "time": 113.125727,
          "name": "E3",
          "midi": 52,
          "duration": 0.264803,
          "velocity": 0.385827
        },
        {
          "time": 113.39053,
          "name": "C3",
          "midi": 48,
          "duration": 0.263158,
          "velocity": 0.385827
        },
        {
          "time": 113.39053,
          "name": "E3",
          "midi": 52,
          "duration": 0.263158,
          "velocity": 0.385827
        },
        {
          "time": 113.653688,
          "name": "C3",
          "midi": 48,
          "duration": 0.261513,
          "velocity": 0.385827
        },
        {
          "time": 113.653688,
          "name": "E3",
          "midi": 52,
          "duration": 0.261513,
          "velocity": 0.385827
        },
        {
          "time": 113.653688,
          "name": "A3",
          "midi": 57,
          "duration": 0.261513,
          "velocity": 0.385827
        },
        {
          "time": 113.915201,
          "name": "C3",
          "midi": 48,
          "duration": 0.264803,
          "velocity": 0.385827
        },
        {
          "time": 113.915201,
          "name": "E3",
          "midi": 52,
          "duration": 0.264803,
          "velocity": 0.385827
        },
        {
          "time": 113.915201,
          "name": "A3",
          "midi": 57,
          "duration": 0.264803,
          "velocity": 0.385827
        },
        {
          "time": 114.180004,
          "name": "C3",
          "midi": 48,
          "duration": 0.263158,
          "velocity": 0.385827
        },
        {
          "time": 114.180004,
          "name": "E3",
          "midi": 52,
          "duration": 0.263158,
          "velocity": 0.385827
        },
        {
          "time": 114.180004,
          "name": "A3",
          "midi": 57,
          "duration": 0.263158,
          "velocity": 0.385827
        },
        {
          "time": 114.443162,
          "name": "C3",
          "midi": 48,
          "duration": 0.261513,
          "velocity": 0.385827
        },
        {
          "time": 114.443162,
          "name": "E3",
          "midi": 52,
          "duration": 0.261513,
          "velocity": 0.385827
        },
        {
          "time": 114.704675,
          "name": "C3",
          "midi": 48,
          "duration": 0.264803,
          "velocity": 0.385827
        },
        {
          "time": 114.704675,
          "name": "E3",
          "midi": 52,
          "duration": 0.264803,
          "velocity": 0.385827
        },
        {
          "time": 114.969478,
          "name": "E3",
          "midi": 52,
          "duration": 0.263158,
          "velocity": 0.385827
        },
        {
          "time": 114.969478,
          "name": "A3",
          "midi": 57,
          "duration": 0.263158,
          "velocity": 0.385827
        },
        {
          "time": 115.232636,
          "name": "F#3",
          "midi": 54,
          "duration": 0.261513,
          "velocity": 0.385827
        },
        {
          "time": 115.232636,
          "name": "A3",
          "midi": 57,
          "duration": 0.261513,
          "velocity": 0.385827
        },
        {
          "time": 115.232636,
          "name": "B2",
          "midi": 47,
          "duration": 2.368422,
          "velocity": 0.488189
        },
        {
          "time": 115.494149,
          "name": "F#3",
          "midi": 54,
          "duration": 0.264803,
          "velocity": 0.385827
        },
        {
          "time": 115.494149,
          "name": "A3",
          "midi": 57,
          "duration": 0.264803,
          "velocity": 0.385827
        },
        {
          "time": 115.758952,
          "name": "F#3",
          "midi": 54,
          "duration": 0.263158,
          "velocity": 0.385827
        },
        {
          "time": 115.758952,
          "name": "A3",
          "midi": 57,
          "duration": 0.263158,
          "velocity": 0.385827
        },
        {
          "time": 116.02211,
          "name": "F#3",
          "midi": 54,
          "duration": 0.261513,
          "velocity": 0.385827
        },
        {
          "time": 116.02211,
          "name": "A3",
          "midi": 57,
          "duration": 0.261513,
          "velocity": 0.385827
        },
        {
          "time": 116.283623,
          "name": "F#3",
          "midi": 54,
          "duration": 0.264803,
          "velocity": 0.385827
        },
        {
          "time": 116.283623,
          "name": "A3",
          "midi": 57,
          "duration": 0.264803,
          "velocity": 0.385827
        },
        {
          "time": 116.548426,
          "name": "F#3",
          "midi": 54,
          "duration": 0.263158,
          "velocity": 0.385827
        },
        {
          "time": 116.548426,
          "name": "A3",
          "midi": 57,
          "duration": 0.263158,
          "velocity": 0.385827
        },
        {
          "time": 116.811584,
          "name": "F#3",
          "midi": 54,
          "duration": 0.261513,
          "velocity": 0.385827
        },
        {
          "time": 116.811584,
          "name": "A3",
          "midi": 57,
          "duration": 0.261513,
          "velocity": 0.385827
        },
        {
          "time": 117.073097,
          "name": "F#3",
          "midi": 54,
          "duration": 0.264803,
          "velocity": 0.385827
        },
        {
          "time": 117.073097,
          "name": "A3",
          "midi": 57,
          "duration": 0.264803,
          "velocity": 0.385827
        },
        {
          "time": 117.3379,
          "name": "F#3",
          "midi": 54,
          "duration": 0.263158,
          "velocity": 0.385827
        },
        {
          "time": 117.3379,
          "name": "A3",
          "midi": 57,
          "duration": 0.263158,
          "velocity": 0.385827
        },
        {
          "time": 117.601058,
          "name": "D#3",
          "midi": 51,
          "duration": 0.261513,
          "velocity": 0.385827
        },
        {
          "time": 117.601058,
          "name": "F#3",
          "midi": 54,
          "duration": 0.261513,
          "velocity": 0.385827
        },
        {
          "time": 117.862571,
          "name": "D#3",
          "midi": 51,
          "duration": 0.264803,
          "velocity": 0.385827
        },
        {
          "time": 117.862571,
          "name": "F#3",
          "midi": 54,
          "duration": 0.264803,
          "velocity": 0.385827
        },
        {
          "time": 118.127374,
          "name": "D#3",
          "midi": 51,
          "duration": 0.263158,
          "velocity": 0.385827
        },
        {
          "time": 118.127374,
          "name": "F#3",
          "midi": 54,
          "duration": 0.263158,
          "velocity": 0.385827
        },
        {
          "time": 118.390532,
          "name": "E3",
          "midi": 52,
          "duration": 0.261513,
          "velocity": 0.385827
        },
        {
          "time": 118.390532,
          "name": "A3",
          "midi": 57,
          "duration": 0.261513,
          "velocity": 0.385827
        },
        {
          "time": 118.390532,
          "name": "B2",
          "midi": 47,
          "duration": 3.157896,
          "velocity": 0.488189
        },
        {
          "time": 118.652045,
          "name": "E3",
          "midi": 52,
          "duration": 0.264803,
          "velocity": 0.385827
        },
        {
          "time": 118.652045,
          "name": "A3",
          "midi": 57,
          "duration": 0.264803,
          "velocity": 0.385827
        },
        {
          "time": 118.916848,
          "name": "E3",
          "midi": 52,
          "duration": 0.263158,
          "velocity": 0.385827
        },
        {
          "time": 118.916848,
          "name": "A3",
          "midi": 57,
          "duration": 0.263158,
          "velocity": 0.385827
        },
        {
          "time": 119.180006,
          "name": "C3",
          "midi": 48,
          "duration": 0.261513,
          "velocity": 0.385827
        },
        {
          "time": 119.180006,
          "name": "E3",
          "midi": 52,
          "duration": 0.261513,
          "velocity": 0.385827
        },
        {
          "time": 119.441519,
          "name": "C3",
          "midi": 48,
          "duration": 0.264803,
          "velocity": 0.385827
        },
        {
          "time": 119.441519,
          "name": "E3",
          "midi": 52,
          "duration": 0.264803,
          "velocity": 0.385827
        },
        {
          "time": 119.706322,
          "name": "C3",
          "midi": 48,
          "duration": 0.263158,
          "velocity": 0.385827
        },
        {
          "time": 119.706322,
          "name": "E3",
          "midi": 52,
          "duration": 0.263158,
          "velocity": 0.385827
        },
        {
          "time": 119.96948,
          "name": "C3",
          "midi": 48,
          "duration": 0.261513,
          "velocity": 0.385827
        },
        {
          "time": 119.96948,
          "name": "E3",
          "midi": 52,
          "duration": 0.261513,
          "velocity": 0.385827
        },
        {
          "time": 119.96948,
          "name": "A3",
          "midi": 57,
          "duration": 0.261513,
          "velocity": 0.385827
        },
        {
          "time": 120.230993,
          "name": "C3",
          "midi": 48,
          "duration": 0.264803,
          "velocity": 0.385827
        },
        {
          "time": 120.230993,
          "name": "E3",
          "midi": 52,
          "duration": 0.264803,
          "velocity": 0.385827
        },
        {
          "time": 120.230993,
          "name": "A3",
          "midi": 57,
          "duration": 0.264803,
          "velocity": 0.385827
        },
        {
          "time": 120.495796,
          "name": "C3",
          "midi": 48,
          "duration": 0.263158,
          "velocity": 0.385827
        },
        {
          "time": 120.495796,
          "name": "E3",
          "midi": 52,
          "duration": 0.263158,
          "velocity": 0.385827
        },
        {
          "time": 120.495796,
          "name": "A3",
          "midi": 57,
          "duration": 0.263158,
          "velocity": 0.385827
        },
        {
          "time": 120.758954,
          "name": "C3",
          "midi": 48,
          "duration": 0.261513,
          "velocity": 0.385827
        },
        {
          "time": 120.758954,
          "name": "E3",
          "midi": 52,
          "duration": 0.261513,
          "velocity": 0.385827
        },
        {
          "time": 121.020467,
          "name": "E3",
          "midi": 52,
          "duration": 0.264803,
          "velocity": 0.385827
        },
        {
          "time": 121.020467,
          "name": "A3",
          "midi": 57,
          "duration": 0.264803,
          "velocity": 0.385827
        },
        {
          "time": 121.28527,
          "name": "E3",
          "midi": 52,
          "duration": 0.263158,
          "velocity": 0.385827
        },
        {
          "time": 121.28527,
          "name": "A3",
          "midi": 57,
          "duration": 0.263158,
          "velocity": 0.385827
        },
        {
          "time": 121.548428,
          "name": "B2",
          "midi": 47,
          "duration": 0.261513,
          "velocity": 0.385827
        },
        {
          "time": 121.548428,
          "name": "D#3",
          "midi": 51,
          "duration": 0.261513,
          "velocity": 0.385827
        },
        {
          "time": 121.548428,
          "name": "A3",
          "midi": 57,
          "duration": 0.261513,
          "velocity": 0.385827
        },
        {
          "time": 121.809941,
          "name": "B2",
          "midi": 47,
          "duration": 0.264803,
          "velocity": 0.385827
        },
        {
          "time": 121.809941,
          "name": "D#3",
          "midi": 51,
          "duration": 0.264803,
          "velocity": 0.385827
        },
        {
          "time": 121.809941,
          "name": "A3",
          "midi": 57,
          "duration": 0.264803,
          "velocity": 0.385827
        },
        {
          "time": 122.074744,
          "name": "B2",
          "midi": 47,
          "duration": 0.263158,
          "velocity": 0.385827
        },
        {
          "time": 122.074744,
          "name": "D#3",
          "midi": 51,
          "duration": 0.263158,
          "velocity": 0.385827
        },
        {
          "time": 122.074744,
          "name": "A3",
          "midi": 57,
          "duration": 0.263158,
          "velocity": 0.385827
        },
        {
          "time": 122.337902,
          "name": "B2",
          "midi": 47,
          "duration": 0.261513,
          "velocity": 0.385827
        },
        {
          "time": 122.337902,
          "name": "D#3",
          "midi": 51,
          "duration": 0.261513,
          "velocity": 0.385827
        },
        {
          "time": 122.337902,
          "name": "A3",
          "midi": 57,
          "duration": 0.261513,
          "velocity": 0.385827
        },
        {
          "time": 122.599415,
          "name": "A3",
          "midi": 57,
          "duration": 0.264803,
          "velocity": 0.385827
        },
        {
          "time": 122.599415,
          "name": "B3",
          "midi": 59,
          "duration": 0.264803,
          "velocity": 0.385827
        },
        {
          "time": 122.599415,
          "name": "D#4",
          "midi": 63,
          "duration": 0.264803,
          "velocity": 0.385827
        },
        {
          "time": 122.864218,
          "name": "A3",
          "midi": 57,
          "duration": 0.263158,
          "velocity": 0.385827
        },
        {
          "time": 122.864218,
          "name": "B3",
          "midi": 59,
          "duration": 0.263158,
          "velocity": 0.385827
        },
        {
          "time": 122.864218,
          "name": "D#4",
          "midi": 63,
          "duration": 0.263158,
          "velocity": 0.385827
        },
        {
          "time": 123.127376,
          "name": "A3",
          "midi": 57,
          "duration": 0.261513,
          "velocity": 0.385827
        },
        {
          "time": 123.127376,
          "name": "B3",
          "midi": 59,
          "duration": 0.261513,
          "velocity": 0.385827
        },
        {
          "time": 123.127376,
          "name": "D#4",
          "midi": 63,
          "duration": 0.261513,
          "velocity": 0.385827
        },
        {
          "time": 123.388889,
          "name": "A3",
          "midi": 57,
          "duration": 0.264803,
          "velocity": 0.385827
        },
        {
          "time": 123.388889,
          "name": "B3",
          "midi": 59,
          "duration": 0.264803,
          "velocity": 0.385827
        },
        {
          "time": 123.388889,
          "name": "D#4",
          "midi": 63,
          "duration": 0.264803,
          "velocity": 0.385827
        },
        {
          "time": 123.653692,
          "name": "A3",
          "midi": 57,
          "duration": 0.263158,
          "velocity": 0.385827
        },
        {
          "time": 123.653692,
          "name": "B3",
          "midi": 59,
          "duration": 0.263158,
          "velocity": 0.385827
        },
        {
          "time": 123.653692,
          "name": "D#4",
          "midi": 63,
          "duration": 0.263158,
          "velocity": 0.385827
        },
        {
          "time": 123.91685,
          "name": "B2",
          "midi": 47,
          "duration": 0.261513,
          "velocity": 0.385827
        },
        {
          "time": 123.91685,
          "name": "D#3",
          "midi": 51,
          "duration": 0.261513,
          "velocity": 0.385827
        },
        {
          "time": 123.91685,
          "name": "A3",
          "midi": 57,
          "duration": 0.261513,
          "velocity": 0.385827
        },
        {
          "time": 124.178363,
          "name": "B2",
          "midi": 47,
          "duration": 0.264803,
          "velocity": 0.385827
        },
        {
          "time": 124.178363,
          "name": "D#3",
          "midi": 51,
          "duration": 0.264803,
          "velocity": 0.385827
        },
        {
          "time": 124.178363,
          "name": "A3",
          "midi": 57,
          "duration": 0.264803,
          "velocity": 0.385827
        },
        {
          "time": 124.443166,
          "name": "B2",
          "midi": 47,
          "duration": 0.263158,
          "velocity": 0.385827
        },
        {
          "time": 124.443166,
          "name": "D#3",
          "midi": 51,
          "duration": 0.263158,
          "velocity": 0.385827
        },
        {
          "time": 124.443166,
          "name": "A3",
          "midi": 57,
          "duration": 0.263158,
          "velocity": 0.385827
        },
        {
          "time": 124.706324,
          "name": "B2",
          "midi": 47,
          "duration": 0.261513,
          "velocity": 0.385827
        },
        {
          "time": 124.706324,
          "name": "E3",
          "midi": 52,
          "duration": 0.261513,
          "velocity": 0.385827
        },
        {
          "time": 124.706324,
          "name": "G3",
          "midi": 55,
          "duration": 0.261513,
          "velocity": 0.385827
        },
        {
          "time": 124.967837,
          "name": "B2",
          "midi": 47,
          "duration": 0.264803,
          "velocity": 0.385827
        },
        {
          "time": 124.967837,
          "name": "E3",
          "midi": 52,
          "duration": 0.264803,
          "velocity": 0.385827
        },
        {
          "time": 124.967837,
          "name": "G3",
          "midi": 55,
          "duration": 0.264803,
          "velocity": 0.385827
        },
        {
          "time": 125.23264,
          "name": "B2",
          "midi": 47,
          "duration": 0.263158,
          "velocity": 0.385827
        },
        {
          "time": 125.23264,
          "name": "E3",
          "midi": 52,
          "duration": 0.263158,
          "velocity": 0.385827
        },
        {
          "time": 125.23264,
          "name": "G3",
          "midi": 55,
          "duration": 0.263158,
          "velocity": 0.385827
        },
        {
          "time": 125.495798,
          "name": "B2",
          "midi": 47,
          "duration": 0.261513,
          "velocity": 0.385827
        },
        {
          "time": 125.495798,
          "name": "E3",
          "midi": 52,
          "duration": 0.261513,
          "velocity": 0.385827
        },
        {
          "time": 125.495798,
          "name": "G3",
          "midi": 55,
          "duration": 0.261513,
          "velocity": 0.385827
        },
        {
          "time": 125.757311,
          "name": "G3",
          "midi": 55,
          "duration": 0.264803,
          "velocity": 0.385827
        },
        {
          "time": 125.757311,
          "name": "B3",
          "midi": 59,
          "duration": 0.264803,
          "velocity": 0.385827
        },
        {
          "time": 125.757311,
          "name": "E4",
          "midi": 64,
          "duration": 0.264803,
          "velocity": 0.385827
        },
        {
          "time": 126.022114,
          "name": "G3",
          "midi": 55,
          "duration": 0.263158,
          "velocity": 0.385827
        },
        {
          "time": 126.022114,
          "name": "B3",
          "midi": 59,
          "duration": 0.263158,
          "velocity": 0.385827
        },
        {
          "time": 126.022114,
          "name": "E4",
          "midi": 64,
          "duration": 0.263158,
          "velocity": 0.385827
        },
        {
          "time": 126.285272,
          "name": "G3",
          "midi": 55,
          "duration": 0.261513,
          "velocity": 0.385827
        },
        {
          "time": 126.285272,
          "name": "B3",
          "midi": 59,
          "duration": 0.261513,
          "velocity": 0.385827
        },
        {
          "time": 126.285272,
          "name": "E4",
          "midi": 64,
          "duration": 0.261513,
          "velocity": 0.385827
        },
        {
          "time": 126.546785,
          "name": "G3",
          "midi": 55,
          "duration": 0.264803,
          "velocity": 0.385827
        },
        {
          "time": 126.546785,
          "name": "B3",
          "midi": 59,
          "duration": 0.264803,
          "velocity": 0.385827
        },
        {
          "time": 126.546785,
          "name": "E4",
          "midi": 64,
          "duration": 0.264803,
          "velocity": 0.385827
        },
        {
          "time": 126.811588,
          "name": "G3",
          "midi": 55,
          "duration": 0.263158,
          "velocity": 0.385827
        },
        {
          "time": 126.811588,
          "name": "B3",
          "midi": 59,
          "duration": 0.263158,
          "velocity": 0.385827
        },
        {
          "time": 126.811588,
          "name": "E4",
          "midi": 64,
          "duration": 0.263158,
          "velocity": 0.385827
        },
        {
          "time": 127.074746,
          "name": "B2",
          "midi": 47,
          "duration": 0.261513,
          "velocity": 0.385827
        },
        {
          "time": 127.074746,
          "name": "E3",
          "midi": 52,
          "duration": 0.261513,
          "velocity": 0.385827
        },
        {
          "time": 127.074746,
          "name": "G3",
          "midi": 55,
          "duration": 0.261513,
          "velocity": 0.385827
        },
        {
          "time": 127.336259,
          "name": "B2",
          "midi": 47,
          "duration": 0.264803,
          "velocity": 0.385827
        },
        {
          "time": 127.336259,
          "name": "E3",
          "midi": 52,
          "duration": 0.264803,
          "velocity": 0.385827
        },
        {
          "time": 127.336259,
          "name": "G3",
          "midi": 55,
          "duration": 0.264803,
          "velocity": 0.385827
        },
        {
          "time": 127.601062,
          "name": "B2",
          "midi": 47,
          "duration": 0.263158,
          "velocity": 0.385827
        },
        {
          "time": 127.601062,
          "name": "E3",
          "midi": 52,
          "duration": 0.263158,
          "velocity": 0.385827
        },
        {
          "time": 127.601062,
          "name": "G3",
          "midi": 55,
          "duration": 0.263158,
          "velocity": 0.385827
        },
        {
          "time": 127.86422,
          "name": "B2",
          "midi": 47,
          "duration": 0.231105,
          "velocity": 0.385827
        },
        {
          "time": 127.86422,
          "name": "C3",
          "midi": 48,
          "duration": 0.231105,
          "velocity": 0.385827
        },
        {
          "time": 127.86422,
          "name": "E3",
          "midi": 52,
          "duration": 0.231105,
          "velocity": 0.385827
        },
        {
          "time": 127.86422,
          "name": "A3",
          "midi": 57,
          "duration": 0.231105,
          "velocity": 0.385827
        },
        {
          "time": 128.095325,
          "name": "B2",
          "midi": 47,
          "duration": 0.234011,
          "velocity": 0.385827
        },
        {
          "time": 128.095325,
          "name": "C3",
          "midi": 48,
          "duration": 0.234011,
          "velocity": 0.385827
        },
        {
          "time": 128.095325,
          "name": "E3",
          "midi": 52,
          "duration": 0.234011,
          "velocity": 0.385827
        },
        {
          "time": 128.095325,
          "name": "A3",
          "midi": 57,
          "duration": 0.234011,
          "velocity": 0.385827
        },
        {
          "time": 128.329336,
          "name": "B2",
          "midi": 47,
          "duration": 0.232558,
          "velocity": 0.385827
        },
        {
          "time": 128.329336,
          "name": "C3",
          "midi": 48,
          "duration": 0.232558,
          "velocity": 0.385827
        },
        {
          "time": 128.329336,
          "name": "E3",
          "midi": 52,
          "duration": 0.232558,
          "velocity": 0.385827
        },
        {
          "time": 128.329336,
          "name": "A3",
          "midi": 57,
          "duration": 0.232558,
          "velocity": 0.385827
        },
        {
          "time": 128.561894,
          "name": "B2",
          "midi": 47,
          "duration": 0.231105,
          "velocity": 0.385827
        },
        {
          "time": 128.561894,
          "name": "D#3",
          "midi": 51,
          "duration": 0.231105,
          "velocity": 0.385827
        },
        {
          "time": 128.561894,
          "name": "F#3",
          "midi": 54,
          "duration": 0.231105,
          "velocity": 0.385827
        },
        {
          "time": 128.561894,
          "name": "A3",
          "midi": 57,
          "duration": 0.231105,
          "velocity": 0.385827
        },
        {
          "time": 128.792999,
          "name": "B2",
          "midi": 47,
          "duration": 0.234011,
          "velocity": 0.385827
        },
        {
          "time": 128.792999,
          "name": "D#3",
          "midi": 51,
          "duration": 0.234011,
          "velocity": 0.385827
        },
        {
          "time": 128.792999,
          "name": "F#3",
          "midi": 54,
          "duration": 0.234011,
          "velocity": 0.385827
        },
        {
          "time": 128.792999,
          "name": "A3",
          "midi": 57,
          "duration": 0.234011,
          "velocity": 0.385827
        },
        {
          "time": 129.02701,
          "name": "B2",
          "midi": 47,
          "duration": 0.232558,
          "velocity": 0.385827
        },
        {
          "time": 129.02701,
          "name": "D#3",
          "midi": 51,
          "duration": 0.232558,
          "velocity": 0.385827
        },
        {
          "time": 129.02701,
          "name": "F#3",
          "midi": 54,
          "duration": 0.232558,
          "velocity": 0.385827
        },
        {
          "time": 129.02701,
          "name": "A3",
          "midi": 57,
          "duration": 0.232558,
          "velocity": 0.385827
        },
        {
          "time": 129.259568,
          "name": "B2",
          "midi": 47,
          "duration": 0.231105,
          "velocity": 0.385827
        },
        {
          "time": 129.259568,
          "name": "E3",
          "midi": 52,
          "duration": 0.231105,
          "velocity": 0.385827
        },
        {
          "time": 129.259568,
          "name": "G3",
          "midi": 55,
          "duration": 0.231105,
          "velocity": 0.385827
        },
        {
          "time": 129.490673,
          "name": "B2",
          "midi": 47,
          "duration": 0.234011,
          "velocity": 0.385827
        },
        {
          "time": 129.490673,
          "name": "E3",
          "midi": 52,
          "duration": 0.234011,
          "velocity": 0.385827
        },
        {
          "time": 129.490673,
          "name": "G3",
          "midi": 55,
          "duration": 0.234011,
          "velocity": 0.385827
        },
        {
          "time": 129.724684,
          "name": "B2",
          "midi": 47,
          "duration": 0.232558,
          "velocity": 0.385827
        },
        {
          "time": 129.724684,
          "name": "E3",
          "midi": 52,
          "duration": 0.232558,
          "velocity": 0.385827
        },
        {
          "time": 129.724684,
          "name": "G3",
          "midi": 55,
          "duration": 0.232558,
          "velocity": 0.385827
        },
        {
          "time": 129.957242,
          "name": "B2",
          "midi": 47,
          "duration": 0.231105,
          "velocity": 0.385827
        },
        {
          "time": 129.957242,
          "name": "E3",
          "midi": 52,
          "duration": 0.231105,
          "velocity": 0.385827
        },
        {
          "time": 129.957242,
          "name": "G#3",
          "midi": 56,
          "duration": 0.231105,
          "velocity": 0.385827
        },
        {
          "time": 130.188347,
          "name": "B2",
          "midi": 47,
          "duration": 0.234011,
          "velocity": 0.385827
        },
        {
          "time": 130.188347,
          "name": "E3",
          "midi": 52,
          "duration": 0.234011,
          "velocity": 0.385827
        },
        {
          "time": 130.188347,
          "name": "G#3",
          "midi": 56,
          "duration": 0.234011,
          "velocity": 0.385827
        },
        {
          "time": 130.422358,
          "name": "B2",
          "midi": 47,
          "duration": 0.232558,
          "velocity": 0.385827
        },
        {
          "time": 130.422358,
          "name": "E3",
          "midi": 52,
          "duration": 0.232558,
          "velocity": 0.385827
        },
        {
          "time": 130.422358,
          "name": "G#3",
          "midi": 56,
          "duration": 0.232558,
          "velocity": 0.385827
        },
        {
          "time": 130.654916,
          "name": "B2",
          "midi": 47,
          "duration": 0.231105,
          "velocity": 0.488189
        },
        {
          "time": 130.654916,
          "name": "E3",
          "midi": 52,
          "duration": 0.231105,
          "velocity": 0.488189
        },
        {
          "time": 130.654916,
          "name": "A3",
          "midi": 57,
          "duration": 0.231105,
          "velocity": 0.488189
        },
        {
          "time": 130.886021,
          "name": "B2",
          "midi": 47,
          "duration": 0.234011,
          "velocity": 0.488189
        },
        {
          "time": 130.886021,
          "name": "E3",
          "midi": 52,
          "duration": 0.234011,
          "velocity": 0.488189
        },
        {
          "time": 130.886021,
          "name": "A3",
          "midi": 57,
          "duration": 0.234011,
          "velocity": 0.488189
        },
        {
          "time": 131.120032,
          "name": "B2",
          "midi": 47,
          "duration": 0.232558,
          "velocity": 0.488189
        },
        {
          "time": 131.120032,
          "name": "E3",
          "midi": 52,
          "duration": 0.232558,
          "velocity": 0.488189
        },
        {
          "time": 131.120032,
          "name": "A3",
          "midi": 57,
          "duration": 0.232558,
          "velocity": 0.488189
        },
        {
          "time": 131.35259,
          "name": "B2",
          "midi": 47,
          "duration": 0.231105,
          "velocity": 0.488189
        },
        {
          "time": 131.35259,
          "name": "E3",
          "midi": 52,
          "duration": 0.231105,
          "velocity": 0.488189
        },
        {
          "time": 131.35259,
          "name": "A3",
          "midi": 57,
          "duration": 0.231105,
          "velocity": 0.488189
        },
        {
          "time": 131.583695,
          "name": "B2",
          "midi": 47,
          "duration": 0.234011,
          "velocity": 0.488189
        },
        {
          "time": 131.583695,
          "name": "E3",
          "midi": 52,
          "duration": 0.234011,
          "velocity": 0.488189
        },
        {
          "time": 131.583695,
          "name": "A3",
          "midi": 57,
          "duration": 0.234011,
          "velocity": 0.488189
        },
        {
          "time": 131.817706,
          "name": "B2",
          "midi": 47,
          "duration": 0.232558,
          "velocity": 0.488189
        },
        {
          "time": 131.817706,
          "name": "E3",
          "midi": 52,
          "duration": 0.232558,
          "velocity": 0.488189
        },
        {
          "time": 131.817706,
          "name": "A3",
          "midi": 57,
          "duration": 0.232558,
          "velocity": 0.488189
        },
        {
          "time": 132.050264,
          "name": "B2",
          "midi": 47,
          "duration": 0.231105,
          "velocity": 0.488189
        },
        {
          "time": 132.050264,
          "name": "F#3",
          "midi": 54,
          "duration": 0.231105,
          "velocity": 0.488189
        },
        {
          "time": 132.050264,
          "name": "A3",
          "midi": 57,
          "duration": 0.231105,
          "velocity": 0.488189
        },
        {
          "time": 132.281369,
          "name": "B2",
          "midi": 47,
          "duration": 0.234011,
          "velocity": 0.488189
        },
        {
          "time": 132.281369,
          "name": "F#3",
          "midi": 54,
          "duration": 0.234011,
          "velocity": 0.488189
        },
        {
          "time": 132.281369,
          "name": "A3",
          "midi": 57,
          "duration": 0.234011,
          "velocity": 0.488189
        },
        {
          "time": 132.51538,
          "name": "B2",
          "midi": 47,
          "duration": 0.232558,
          "velocity": 0.488189
        },
        {
          "time": 132.51538,
          "name": "F#3",
          "midi": 54,
          "duration": 0.232558,
          "velocity": 0.488189
        },
        {
          "time": 132.51538,
          "name": "A3",
          "midi": 57,
          "duration": 0.232558,
          "velocity": 0.488189
        },
        {
          "time": 132.747938,
          "name": "B2",
          "midi": 47,
          "duration": 0.231105,
          "velocity": 0.590551
        },
        {
          "time": 132.747938,
          "name": "F#3",
          "midi": 54,
          "duration": 0.231105,
          "velocity": 0.590551
        },
        {
          "time": 132.747938,
          "name": "A3",
          "midi": 57,
          "duration": 0.231105,
          "velocity": 0.590551
        },
        {
          "time": 132.979043,
          "name": "B2",
          "midi": 47,
          "duration": 0.234011,
          "velocity": 0.590551
        },
        {
          "time": 132.979043,
          "name": "F#3",
          "midi": 54,
          "duration": 0.234011,
          "velocity": 0.590551
        },
        {
          "time": 132.979043,
          "name": "A3",
          "midi": 57,
          "duration": 0.234011,
          "velocity": 0.590551
        },
        {
          "time": 133.213054,
          "name": "B2",
          "midi": 47,
          "duration": 0.232558,
          "velocity": 0.590551
        },
        {
          "time": 133.213054,
          "name": "F#3",
          "midi": 54,
          "duration": 0.232558,
          "velocity": 0.590551
        },
        {
          "time": 133.213054,
          "name": "A3",
          "midi": 57,
          "duration": 0.232558,
          "velocity": 0.590551
        },
        {
          "time": 133.445612,
          "name": "B2",
          "midi": 47,
          "duration": 0.231105,
          "velocity": 0.590551
        },
        {
          "time": 133.445612,
          "name": "G3",
          "midi": 55,
          "duration": 0.231105,
          "velocity": 0.590551
        },
        {
          "time": 133.445612,
          "name": "B3",
          "midi": 59,
          "duration": 0.231105,
          "velocity": 0.590551
        },
        {
          "time": 133.676717,
          "name": "B2",
          "midi": 47,
          "duration": 0.234011,
          "velocity": 0.590551
        },
        {
          "time": 133.676717,
          "name": "G3",
          "midi": 55,
          "duration": 0.234011,
          "velocity": 0.590551
        },
        {
          "time": 133.676717,
          "name": "B3",
          "midi": 59,
          "duration": 0.234011,
          "velocity": 0.590551
        },
        {
          "time": 133.910728,
          "name": "B2",
          "midi": 47,
          "duration": 0.232558,
          "velocity": 0.590551
        },
        {
          "time": 133.910728,
          "name": "G3",
          "midi": 55,
          "duration": 0.232558,
          "velocity": 0.590551
        },
        {
          "time": 133.910728,
          "name": "B3",
          "midi": 59,
          "duration": 0.232558,
          "velocity": 0.590551
        },
        {
          "time": 134.143286,
          "name": "B1",
          "midi": 35,
          "duration": 0.087209,
          "velocity": 0.795276
        },
        {
          "time": 134.230495,
          "name": "B2",
          "midi": 47,
          "duration": 0.087209,
          "velocity": 0.795276
        },
        {
          "time": 134.317704,
          "name": "B1",
          "midi": 35,
          "duration": 0.087209,
          "velocity": 0.590551
        },
        {
          "time": 134.404914,
          "name": "B2",
          "midi": 47,
          "duration": 0.087209,
          "velocity": 0.590551
        },
        {
          "time": 134.492123,
          "name": "B1",
          "midi": 35,
          "duration": 0.087209,
          "velocity": 0.590551
        },
        {
          "time": 134.579332,
          "name": "B2",
          "midi": 47,
          "duration": 0.087209,
          "velocity": 0.590551
        },
        {
          "time": 134.666541,
          "name": "B1",
          "midi": 35,
          "duration": 0.087209,
          "velocity": 0.590551
        },
        {
          "time": 134.753751,
          "name": "B2",
          "midi": 47,
          "duration": 0.087209,
          "velocity": 0.590551
        },
        {
          "time": 134.84096,
          "name": "B1",
          "midi": 35,
          "duration": 0.087209,
          "velocity": 0.590551
        },
        {
          "time": 134.928169,
          "name": "B2",
          "midi": 47,
          "duration": 0.087209,
          "velocity": 0.590551
        },
        {
          "time": 135.015378,
          "name": "B1",
          "midi": 35,
          "duration": 0.087209,
          "velocity": 0.590551
        },
        {
          "time": 135.102588,
          "name": "B2",
          "midi": 47,
          "duration": 0.087209,
          "velocity": 0.590551
        },
        {
          "time": 135.189797,
          "name": "B1",
          "midi": 35,
          "duration": 0.087209,
          "velocity": 0.590551
        },
        {
          "time": 135.277006,
          "name": "B2",
          "midi": 47,
          "duration": 0.087209,
          "velocity": 0.590551
        },
        {
          "time": 135.364216,
          "name": "B1",
          "midi": 35,
          "duration": 0.087209,
          "velocity": 0.590551
        },
        {
          "time": 135.451425,
          "name": "B2",
          "midi": 47,
          "duration": 0.087209,
          "velocity": 0.590551
        },
        {
          "time": 135.538634,
          "name": "B1",
          "midi": 35,
          "duration": 0.087209,
          "velocity": 0.590551
        },
        {
          "time": 135.625843,
          "name": "B2",
          "midi": 47,
          "duration": 0.087209,
          "velocity": 0.590551
        },
        {
          "time": 135.713053,
          "name": "B1",
          "midi": 35,
          "duration": 0.087209,
          "velocity": 0.590551
        },
        {
          "time": 135.800262,
          "name": "B2",
          "midi": 47,
          "duration": 0.087209,
          "velocity": 0.590551
        },
        {
          "time": 135.887471,
          "name": "B1",
          "midi": 35,
          "duration": 0.087209,
          "velocity": 0.590551
        },
        {
          "time": 135.97468,
          "name": "B2",
          "midi": 47,
          "duration": 0.087209,
          "velocity": 0.590551
        },
        {
          "time": 136.061889,
          "name": "B1",
          "midi": 35,
          "duration": 0.087209,
          "velocity": 0.590551
        },
        {
          "time": 136.149099,
          "name": "B2",
          "midi": 47,
          "duration": 0.087209,
          "velocity": 0.590551
        },
        {
          "time": 136.236308,
          "name": "B1",
          "midi": 35,
          "duration": 0.087209,
          "velocity": 0.590551
        },
        {
          "time": 136.323517,
          "name": "B2",
          "midi": 47,
          "duration": 0.087209,
          "velocity": 0.590551
        },
        {
          "time": 136.410726,
          "name": "B1",
          "midi": 35,
          "duration": 0.087209,
          "velocity": 0.590551
        },
        {
          "time": 136.497936,
          "name": "B2",
          "midi": 47,
          "duration": 0.087209,
          "velocity": 0.590551
        },
        {
          "time": 136.585145,
          "name": "B1",
          "midi": 35,
          "duration": 0.090362,
          "velocity": 0.590551
        },
        {
          "time": 136.675506,
          "name": "B2",
          "midi": 47,
          "duration": 0.090362,
          "velocity": 0.590551
        },
        {
          "time": 136.765868,
          "name": "B1",
          "midi": 35,
          "duration": 0.090362,
          "velocity": 0.590551
        },
        {
          "time": 136.856229,
          "name": "B2",
          "midi": 47,
          "duration": 0.090362,
          "velocity": 0.590551
        },
        {
          "time": 136.946591,
          "name": "B1",
          "midi": 35,
          "duration": 0.09375,
          "velocity": 0.590551
        },
        {
          "time": 137.040341,
          "name": "B2",
          "midi": 47,
          "duration": 0.09375,
          "velocity": 0.590551
        },
        {
          "time": 137.134091,
          "name": "B1",
          "midi": 35,
          "duration": 0.09375,
          "velocity": 0.590551
        },
        {
          "time": 137.227841,
          "name": "B2",
          "midi": 47,
          "duration": 0.09375,
          "velocity": 0.590551
        },
        {
          "time": 137.321591,
          "name": "B1",
          "midi": 35,
          "duration": 0.097403,
          "velocity": 0.590551
        },
        {
          "time": 137.418994,
          "name": "B2",
          "midi": 47,
          "duration": 0.097403,
          "velocity": 0.590551
        },
        {
          "time": 137.516396,
          "name": "B1",
          "midi": 35,
          "duration": 0.097403,
          "velocity": 0.590551
        },
        {
          "time": 137.613799,
          "name": "B2",
          "midi": 47,
          "duration": 0.097403,
          "velocity": 0.590551
        },
        {
          "time": 137.711201,
          "name": "B1",
          "midi": 35,
          "duration": 0.10274,
          "velocity": 0.590551
        },
        {
          "time": 137.813941,
          "name": "B2",
          "midi": 47,
          "duration": 0.10274,
          "velocity": 0.590551
        },
        {
          "time": 137.916681,
          "name": "B1",
          "midi": 35,
          "duration": 0.10274,
          "velocity": 0.590551
        },
        {
          "time": 138.019421,
          "name": "B2",
          "midi": 47,
          "duration": 0.10274,
          "velocity": 0.590551
        },
        {
          "time": 138.12216,
          "name": "B1",
          "midi": 35,
          "duration": 0.107143,
          "velocity": 0.590551
        },
        {
          "time": 138.229303,
          "name": "B2",
          "midi": 47,
          "duration": 0.107143,
          "velocity": 0.590551
        },
        {
          "time": 138.336446,
          "name": "B1",
          "midi": 35,
          "duration": 0.107143,
          "velocity": 0.590551
        },
        {
          "time": 138.443589,
          "name": "B2",
          "midi": 47,
          "duration": 0.107143,
          "velocity": 0.590551
        },
        {
          "time": 138.550732,
          "name": "B1",
          "midi": 35,
          "duration": 0.11194,
          "velocity": 0.590551
        },
        {
          "time": 138.662672,
          "name": "B2",
          "midi": 47,
          "duration": 0.11194,
          "velocity": 0.590551
        },
        {
          "time": 138.774612,
          "name": "B1",
          "midi": 35,
          "duration": 0.11194,
          "velocity": 0.590551
        },
        {
          "time": 138.886553,
          "name": "B2",
          "midi": 47,
          "duration": 0.11194,
          "velocity": 0.590551
        },
        {
          "time": 138.998493,
          "name": "B1",
          "midi": 35,
          "duration": 0.117188,
          "velocity": 0.590551
        },
        {
          "time": 139.11568,
          "name": "B2",
          "midi": 47,
          "duration": 0.117188,
          "velocity": 0.590551
        },
        {
          "time": 139.232868,
          "name": "B1",
          "midi": 35,
          "duration": 0.117188,
          "velocity": 0.590551
        },
        {
          "time": 139.350055,
          "name": "B2",
          "midi": 47,
          "duration": 0.117188,
          "velocity": 0.590551
        },
        {
          "time": 139.467243,
          "name": "B1",
          "midi": 35,
          "duration": 0.125,
          "velocity": 0.590551
        },
        {
          "time": 139.592243,
          "name": "B2",
          "midi": 47,
          "duration": 0.125,
          "velocity": 0.590551
        },
        {
          "time": 139.717243,
          "name": "B1",
          "midi": 35,
          "duration": 0.125,
          "velocity": 0.590551
        },
        {
          "time": 139.842243,
          "name": "B2",
          "midi": 47,
          "duration": 0.125,
          "velocity": 0.590551
        },
        {
          "time": 139.967243,
          "name": "B1",
          "midi": 35,
          "duration": 0.125,
          "velocity": 0.590551
        },
        {
          "time": 140.092243,
          "name": "B2",
          "midi": 47,
          "duration": 0.125,
          "velocity": 0.590551
        },
        {
          "time": 140.217243,
          "name": "B1",
          "midi": 35,
          "duration": 0.125,
          "velocity": 0.590551
        },
        {
          "time": 140.342243,
          "name": "B2",
          "midi": 47,
          "duration": 0.125,
          "velocity": 0.590551
        },
        {
          "time": 140.467243,
          "name": "B1",
          "midi": 35,
          "duration": 0.125,
          "velocity": 0.590551
        },
        {
          "time": 140.592243,
          "name": "B2",
          "midi": 47,
          "duration": 0.125,
          "velocity": 0.590551
        },
        {
          "time": 140.717243,
          "name": "B1",
          "midi": 35,
          "duration": 0.125,
          "velocity": 0.590551
        },
        {
          "time": 140.842243,
          "name": "B2",
          "midi": 47,
          "duration": 0.125,
          "velocity": 0.590551
        },
        {
          "time": 140.967243,
          "name": "B1",
          "midi": 35,
          "duration": 0.125,
          "velocity": 0.590551
        },
        {
          "time": 141.092243,
          "name": "B2",
          "midi": 47,
          "duration": 0.125,
          "velocity": 0.590551
        },
        {
          "time": 141.217243,
          "name": "B1",
          "midi": 35,
          "duration": 0.125,
          "velocity": 0.590551
        },
        {
          "time": 141.342243,
          "name": "B2",
          "midi": 47,
          "duration": 0.125,
          "velocity": 0.590551
        },
        {
          "time": 141.467243,
          "name": "B1",
          "midi": 35,
          "duration": 0.125,
          "velocity": 0.590551
        },
        {
          "time": 141.592243,
          "name": "B2",
          "midi": 47,
          "duration": 0.125,
          "velocity": 0.590551
        },
        {
          "time": 141.717243,
          "name": "B1",
          "midi": 35,
          "duration": 0.125,
          "velocity": 0.590551
        },
        {
          "time": 141.842243,
          "name": "B2",
          "midi": 47,
          "duration": 0.125,
          "velocity": 0.590551
        },
        {
          "time": 141.967243,
          "name": "B1",
          "midi": 35,
          "duration": 0.125,
          "velocity": 0.590551
        },
        {
          "time": 142.092243,
          "name": "B2",
          "midi": 47,
          "duration": 0.125,
          "velocity": 0.590551
        },
        {
          "time": 142.217243,
          "name": "B1",
          "midi": 35,
          "duration": 0.125,
          "velocity": 0.590551
        },
        {
          "time": 142.342243,
          "name": "B2",
          "midi": 47,
          "duration": 0.125,
          "velocity": 0.590551
        },
        {
          "time": 142.467243,
          "name": "B1",
          "midi": 35,
          "duration": 0.125,
          "velocity": 0.590551
        },
        {
          "time": 142.592243,
          "name": "B2",
          "midi": 47,
          "duration": 0.125,
          "velocity": 0.590551
        },
        {
          "time": 142.717243,
          "name": "B1",
          "midi": 35,
          "duration": 0.125,
          "velocity": 0.590551
        },
        {
          "time": 142.842243,
          "name": "B2",
          "midi": 47,
          "duration": 0.125,
          "velocity": 0.590551
        },
        {
          "time": 142.967243,
          "name": "B1",
          "midi": 35,
          "duration": 0.125,
          "velocity": 0.590551
        },
        {
          "time": 143.092243,
          "name": "B2",
          "midi": 47,
          "duration": 0.125,
          "velocity": 0.590551
        },
        {
          "time": 143.217243,
          "name": "B1",
          "midi": 35,
          "duration": 0.125,
          "velocity": 0.590551
        },
        {
          "time": 143.342243,
          "name": "B2",
          "midi": 47,
          "duration": 0.125,
          "velocity": 0.590551
        },
        {
          "time": 143.467243,
          "name": "B1",
          "midi": 35,
          "duration": 0.125,
          "velocity": 0.590551
        },
        {
          "time": 143.592243,
          "name": "B2",
          "midi": 47,
          "duration": 0.125,
          "velocity": 0.590551
        },
        {
          "time": 143.717243,
          "name": "B1",
          "midi": 35,
          "duration": 0.125,
          "velocity": 0.590551
        },
        {
          "time": 143.842243,
          "name": "B2",
          "midi": 47,
          "duration": 0.125,
          "velocity": 0.590551
        },
        {
          "time": 143.967243,
          "name": "B1",
          "midi": 35,
          "duration": 0.125,
          "velocity": 0.590551
        },
        {
          "time": 144.092243,
          "name": "B2",
          "midi": 47,
          "duration": 0.125,
          "velocity": 0.590551
        },
        {
          "time": 144.217243,
          "name": "B1",
          "midi": 35,
          "duration": 0.125,
          "velocity": 0.590551
        },
        {
          "time": 144.342243,
          "name": "B2",
          "midi": 47,
          "duration": 0.125,
          "velocity": 0.590551
        },
        {
          "time": 144.467243,
          "name": "G3",
          "midi": 55,
          "duration": 0.5,
          "velocity": 0.897638
        },
        {
          "time": 144.967243,
          "name": "F#3",
          "midi": 54,
          "duration": 0.5,
          "velocity": 0.897638
        },
        {
          "time": 145.467243,
          "name": "E3",
          "midi": 52,
          "duration": 0.5,
          "velocity": 0.897638
        },
        {
          "time": 145.467243,
          "name": "E4",
          "midi": 64,
          "duration": 0.5,
          "velocity": 0.897638
        },
        {
          "time": 145.967243,
          "name": "D#3",
          "midi": 51,
          "duration": 0.5,
          "velocity": 0.897638
        },
        {
          "time": 145.967243,
          "name": "D#4",
          "midi": 63,
          "duration": 0.5,
          "velocity": 0.897638
        },
        {
          "time": 146.467243,
          "name": "C3",
          "midi": 48,
          "duration": 0.5,
          "velocity": 0.897638
        },
        {
          "time": 146.467243,
          "name": "C4",
          "midi": 60,
          "duration": 0.5,
          "velocity": 0.897638
        },
        {
          "time": 146.967243,
          "name": "B2",
          "midi": 47,
          "duration": 0.5,
          "velocity": 0.897638
        },
        {
          "time": 146.967243,
          "name": "B3",
          "midi": 59,
          "duration": 0.5,
          "velocity": 0.897638
        },
        {
          "time": 147.467243,
          "name": "A2",
          "midi": 45,
          "duration": 0.5,
          "velocity": 0.897638
        },
        {
          "time": 147.467243,
          "name": "A3",
          "midi": 57,
          "duration": 0.5,
          "velocity": 0.897638
        },
        {
          "time": 147.967243,
          "name": "G2",
          "midi": 43,
          "duration": 0.5,
          "velocity": 0.897638
        },
        {
          "time": 147.967243,
          "name": "G3",
          "midi": 55,
          "duration": 0.5,
          "velocity": 0.897638
        },
        {
          "time": 148.467243,
          "name": "F#2",
          "midi": 42,
          "duration": 0.5,
          "velocity": 0.897638
        },
        {
          "time": 148.467243,
          "name": "F#3",
          "midi": 54,
          "duration": 0.5,
          "velocity": 0.897638
        },
        {
          "time": 148.967243,
          "name": "E2",
          "midi": 40,
          "duration": 0.83125,
          "velocity": 0.897638
        },
        {
          "time": 148.967243,
          "name": "E3",
          "midi": 52,
          "duration": 0.83125,
          "velocity": 0.897638
        },
        {
          "time": 149.798493,
          "name": "D#2",
          "midi": 39,
          "duration": 0.335417,
          "velocity": 0.897638
        },
        {
          "time": 149.798493,
          "name": "D#3",
          "midi": 51,
          "duration": 0.335417,
          "velocity": 0.897638
        },
        {
          "time": 150.13391,
          "name": "D2",
          "midi": 38,
          "duration": 0.333333,
          "velocity": 0.897638
        },
        {
          "time": 150.13391,
          "name": "D3",
          "midi": 50,
          "duration": 0.333333,
          "velocity": 0.897638
        },
        {
          "time": 150.467243,
          "name": "C#2",
          "midi": 37,
          "duration": 0.33125,
          "velocity": 0.897638
        },
        {
          "time": 150.467243,
          "name": "C#3",
          "midi": 49,
          "duration": 0.33125,
          "velocity": 0.897638
        },
        {
          "time": 150.798493,
          "name": "C2",
          "midi": 36,
          "duration": 0.335417,
          "velocity": 0.897638
        },
        {
          "time": 150.798493,
          "name": "C3",
          "midi": 48,
          "duration": 0.335417,
          "velocity": 0.897638
        },
        {
          "time": 151.13391,
          "name": "B1",
          "midi": 35,
          "duration": 0.333333,
          "velocity": 0.897638
        },
        {
          "time": 151.13391,
          "name": "B2",
          "midi": 47,
          "duration": 0.333333,
          "velocity": 0.897638
        },
        {
          "time": 151.467243,
          "name": "E2",
          "midi": 40,
          "duration": 0.108696,
          "velocity": 0.692913
        },
        {
          "time": 151.467243,
          "name": "G2",
          "midi": 43,
          "duration": 0.108696,
          "velocity": 0.692913
        },
        {
          "time": 151.467243,
          "name": "B2",
          "midi": 47,
          "duration": 0.108696,
          "velocity": 0.692913
        },
        {
          "time": 151.575939,
          "name": "E3",
          "midi": 52,
          "duration": 0.108696,
          "velocity": 0.692913
        },
        {
          "time": 151.684634,
          "name": "E2",
          "midi": 40,
          "duration": 0.108696,
          "velocity": 0.488189
        },
        {
          "time": 151.684634,
          "name": "G2",
          "midi": 43,
          "duration": 0.108696,
          "velocity": 0.488189
        },
        {
          "time": 151.684634,
          "name": "B2",
          "midi": 47,
          "duration": 0.108696,
          "velocity": 0.488189
        },
        {
          "time": 151.79333,
          "name": "E3",
          "midi": 52,
          "duration": 0.108696,
          "velocity": 0.488189
        },
        {
          "time": 151.902026,
          "name": "E2",
          "midi": 40,
          "duration": 0.108696,
          "velocity": 0.488189
        },
        {
          "time": 151.902026,
          "name": "G2",
          "midi": 43,
          "duration": 0.108696,
          "velocity": 0.488189
        },
        {
          "time": 151.902026,
          "name": "B2",
          "midi": 47,
          "duration": 0.108696,
          "velocity": 0.488189
        },
        {
          "time": 152.010721,
          "name": "E3",
          "midi": 52,
          "duration": 0.108696,
          "velocity": 0.488189
        },
        {
          "time": 152.119417,
          "name": "E2",
          "midi": 40,
          "duration": 0.108696,
          "velocity": 0.488189
        },
        {
          "time": 152.119417,
          "name": "G2",
          "midi": 43,
          "duration": 0.108696,
          "velocity": 0.488189
        },
        {
          "time": 152.119417,
          "name": "B2",
          "midi": 47,
          "duration": 0.108696,
          "velocity": 0.488189
        },
        {
          "time": 152.228112,
          "name": "E3",
          "midi": 52,
          "duration": 0.108696,
          "velocity": 0.488189
        },
        {
          "time": 152.336808,
          "name": "E2",
          "midi": 40,
          "duration": 0.108696,
          "velocity": 0.488189
        },
        {
          "time": 152.336808,
          "name": "G2",
          "midi": 43,
          "duration": 0.108696,
          "velocity": 0.488189
        },
        {
          "time": 152.336808,
          "name": "B2",
          "midi": 47,
          "duration": 0.108696,
          "velocity": 0.488189
        },
        {
          "time": 152.445504,
          "name": "E3",
          "midi": 52,
          "duration": 0.108696,
          "velocity": 0.488189
        },
        {
          "time": 152.554199,
          "name": "E2",
          "midi": 40,
          "duration": 0.108696,
          "velocity": 0.488189
        },
        {
          "time": 152.554199,
          "name": "G2",
          "midi": 43,
          "duration": 0.108696,
          "velocity": 0.488189
        },
        {
          "time": 152.554199,
          "name": "B2",
          "midi": 47,
          "duration": 0.108696,
          "velocity": 0.488189
        },
        {
          "time": 152.662895,
          "name": "E3",
          "midi": 52,
          "duration": 0.108696,
          "velocity": 0.488189
        },
        {
          "time": 152.771591,
          "name": "E2",
          "midi": 40,
          "duration": 0.108696,
          "velocity": 0.488189
        },
        {
          "time": 152.771591,
          "name": "G2",
          "midi": 43,
          "duration": 0.108696,
          "velocity": 0.488189
        },
        {
          "time": 152.771591,
          "name": "B2",
          "midi": 47,
          "duration": 0.108696,
          "velocity": 0.488189
        },
        {
          "time": 152.880286,
          "name": "E3",
          "midi": 52,
          "duration": 0.108696,
          "velocity": 0.488189
        },
        {
          "time": 152.988982,
          "name": "E2",
          "midi": 40,
          "duration": 0.108696,
          "velocity": 0.488189
        },
        {
          "time": 152.988982,
          "name": "G2",
          "midi": 43,
          "duration": 0.108696,
          "velocity": 0.488189
        },
        {
          "time": 152.988982,
          "name": "B2",
          "midi": 47,
          "duration": 0.108696,
          "velocity": 0.488189
        },
        {
          "time": 153.097677,
          "name": "E3",
          "midi": 52,
          "duration": 0.108696,
          "velocity": 0.488189
        },
        {
          "time": 153.206373,
          "name": "C2",
          "midi": 36,
          "duration": 0.108696,
          "velocity": 0.692913
        },
        {
          "time": 153.206373,
          "name": "E2",
          "midi": 40,
          "duration": 0.108696,
          "velocity": 0.692913
        },
        {
          "time": 153.206373,
          "name": "G2",
          "midi": 43,
          "duration": 0.108696,
          "velocity": 0.692913
        },
        {
          "time": 153.315069,
          "name": "C3",
          "midi": 48,
          "duration": 0.108696,
          "velocity": 0.692913
        },
        {
          "time": 153.423764,
          "name": "C2",
          "midi": 36,
          "duration": 0.108696,
          "velocity": 0.488189
        },
        {
          "time": 153.423764,
          "name": "E2",
          "midi": 40,
          "duration": 0.108696,
          "velocity": 0.488189
        },
        {
          "time": 153.423764,
          "name": "G2",
          "midi": 43,
          "duration": 0.108696,
          "velocity": 0.488189
        },
        {
          "time": 153.53246,
          "name": "C3",
          "midi": 48,
          "duration": 0.108696,
          "velocity": 0.488189
        },
        {
          "time": 153.641155,
          "name": "C2",
          "midi": 36,
          "duration": 0.108696,
          "velocity": 0.488189
        },
        {
          "time": 153.641155,
          "name": "E2",
          "midi": 40,
          "duration": 0.108696,
          "velocity": 0.488189
        },
        {
          "time": 153.641155,
          "name": "G2",
          "midi": 43,
          "duration": 0.108696,
          "velocity": 0.488189
        },
        {
          "time": 153.749851,
          "name": "C3",
          "midi": 48,
          "duration": 0.108696,
          "velocity": 0.488189
        },
        {
          "time": 153.858547,
          "name": "C2",
          "midi": 36,
          "duration": 0.108696,
          "velocity": 0.488189
        },
        {
          "time": 153.858547,
          "name": "E2",
          "midi": 40,
          "duration": 0.108696,
          "velocity": 0.488189
        },
        {
          "time": 153.858547,
          "name": "G2",
          "midi": 43,
          "duration": 0.108696,
          "velocity": 0.488189
        },
        {
          "time": 153.967242,
          "name": "C3",
          "midi": 48,
          "duration": 0.108696,
          "velocity": 0.488189
        },
        {
          "time": 154.075938,
          "name": "C2",
          "midi": 36,
          "duration": 0.108696,
          "velocity": 0.488189
        },
        {
          "time": 154.075938,
          "name": "E2",
          "midi": 40,
          "duration": 0.108696,
          "velocity": 0.488189
        },
        {
          "time": 154.075938,
          "name": "G2",
          "midi": 43,
          "duration": 0.108696,
          "velocity": 0.488189
        },
        {
          "time": 154.184634,
          "name": "C3",
          "midi": 48,
          "duration": 0.108696,
          "velocity": 0.488189
        },
        {
          "time": 154.293329,
          "name": "C2",
          "midi": 36,
          "duration": 0.108696,
          "velocity": 0.488189
        },
        {
          "time": 154.293329,
          "name": "E2",
          "midi": 40,
          "duration": 0.108696,
          "velocity": 0.488189
        },
        {
          "time": 154.293329,
          "name": "G2",
          "midi": 43,
          "duration": 0.108696,
          "velocity": 0.488189
        },
        {
          "time": 154.402025,
          "name": "C3",
          "midi": 48,
          "duration": 0.108696,
          "velocity": 0.488189
        },
        {
          "time": 154.51072,
          "name": "C2",
          "midi": 36,
          "duration": 0.108696,
          "velocity": 0.488189
        },
        {
          "time": 154.51072,
          "name": "E2",
          "midi": 40,
          "duration": 0.108696,
          "velocity": 0.488189
        },
        {
          "time": 154.51072,
          "name": "G2",
          "midi": 43,
          "duration": 0.108696,
          "velocity": 0.488189
        },
        {
          "time": 154.619416,
          "name": "C3",
          "midi": 48,
          "duration": 0.108696,
          "velocity": 0.488189
        },
        {
          "time": 154.728112,
          "name": "C2",
          "midi": 36,
          "duration": 0.108696,
          "velocity": 0.488189
        },
        {
          "time": 154.728112,
          "name": "E2",
          "midi": 40,
          "duration": 0.108696,
          "velocity": 0.488189
        },
        {
          "time": 154.728112,
          "name": "G2",
          "midi": 43,
          "duration": 0.108696,
          "velocity": 0.488189
        },
        {
          "time": 154.836807,
          "name": "C3",
          "midi": 48,
          "duration": 0.108696,
          "velocity": 0.488189
        },
        {
          "time": 154.945503,
          "name": "A1",
          "midi": 33,
          "duration": 0.108696,
          "velocity": 0.795276
        },
        {
          "time": 154.945503,
          "name": "C2",
          "midi": 36,
          "duration": 0.108696,
          "velocity": 0.795276
        },
        {
          "time": 154.945503,
          "name": "E2",
          "midi": 40,
          "duration": 0.108696,
          "velocity": 0.795276
        },
        {
          "time": 155.054199,
          "name": "A2",
          "midi": 45,
          "duration": 0.108696,
          "velocity": 0.795276
        },
        {
          "time": 155.162894,
          "name": "A1",
          "midi": 33,
          "duration": 0.108696,
          "velocity": 0.590551
        },
        {
          "time": 155.162894,
          "name": "C2",
          "midi": 36,
          "duration": 0.108696,
          "velocity": 0.590551
        },
        {
          "time": 155.162894,
          "name": "E2",
          "midi": 40,
          "duration": 0.108696,
          "velocity": 0.590551
        },
        {
          "time": 155.27159,
          "name": "A2",
          "midi": 45,
          "duration": 0.108696,
          "velocity": 0.590551
        },
        {
          "time": 155.380285,
          "name": "A1",
          "midi": 33,
          "duration": 0.108696,
          "velocity": 0.590551
        },
        {
          "time": 155.380285,
          "name": "C2",
          "midi": 36,
          "duration": 0.108696,
          "velocity": 0.590551
        },
        {
          "time": 155.380285,
          "name": "E2",
          "midi": 40,
          "duration": 0.108696,
          "velocity": 0.590551
        },
        {
          "time": 155.488981,
          "name": "A2",
          "midi": 45,
          "duration": 0.108696,
          "velocity": 0.590551
        },
        {
          "time": 155.597677,
          "name": "A1",
          "midi": 33,
          "duration": 0.108696,
          "velocity": 0.590551
        },
        {
          "time": 155.597677,
          "name": "C2",
          "midi": 36,
          "duration": 0.108696,
          "velocity": 0.590551
        },
        {
          "time": 155.597677,
          "name": "E2",
          "midi": 40,
          "duration": 0.108696,
          "velocity": 0.590551
        },
        {
          "time": 155.706372,
          "name": "A2",
          "midi": 45,
          "duration": 0.108696,
          "velocity": 0.590551
        },
        {
          "time": 155.815068,
          "name": "A1",
          "midi": 33,
          "duration": 0.108696,
          "velocity": 0.590551
        },
        {
          "time": 155.815068,
          "name": "C2",
          "midi": 36,
          "duration": 0.108696,
          "velocity": 0.590551
        },
        {
          "time": 155.815068,
          "name": "E2",
          "midi": 40,
          "duration": 0.108696,
          "velocity": 0.590551
        },
        {
          "time": 155.923764,
          "name": "A2",
          "midi": 45,
          "duration": 0.108696,
          "velocity": 0.590551
        },
        {
          "time": 156.032459,
          "name": "A1",
          "midi": 33,
          "duration": 0.108696,
          "velocity": 0.590551
        },
        {
          "time": 156.032459,
          "name": "C2",
          "midi": 36,
          "duration": 0.108696,
          "velocity": 0.590551
        },
        {
          "time": 156.032459,
          "name": "E2",
          "midi": 40,
          "duration": 0.108696,
          "velocity": 0.590551
        },
        {
          "time": 156.141155,
          "name": "A2",
          "midi": 45,
          "duration": 0.108696,
          "velocity": 0.590551
        },
        {
          "time": 156.249851,
          "name": "A1",
          "midi": 33,
          "duration": 0.108696,
          "velocity": 0.590551
        },
        {
          "time": 156.249851,
          "name": "C2",
          "midi": 36,
          "duration": 0.108696,
          "velocity": 0.590551
        },
        {
          "time": 156.249851,
          "name": "E2",
          "midi": 40,
          "duration": 0.108696,
          "velocity": 0.590551
        },
        {
          "time": 156.358546,
          "name": "A2",
          "midi": 45,
          "duration": 0.108696,
          "velocity": 0.590551
        },
        {
          "time": 156.467242,
          "name": "A1",
          "midi": 33,
          "duration": 0.108696,
          "velocity": 0.590551
        },
        {
          "time": 156.467242,
          "name": "C2",
          "midi": 36,
          "duration": 0.108696,
          "velocity": 0.590551
        },
        {
          "time": 156.467242,
          "name": "E2",
          "midi": 40,
          "duration": 0.108696,
          "velocity": 0.590551
        },
        {
          "time": 156.575937,
          "name": "A2",
          "midi": 45,
          "duration": 0.108696,
          "velocity": 0.590551
        },
        {
          "time": 156.684633,
          "name": "D2",
          "midi": 38,
          "duration": 0.108696,
          "velocity": 0.795276
        },
        {
          "time": 156.684633,
          "name": "F#2",
          "midi": 42,
          "duration": 0.108696,
          "velocity": 0.795276
        },
        {
          "time": 156.684633,
          "name": "A2",
          "midi": 45,
          "duration": 0.108696,
          "velocity": 0.795276
        },
        {
          "time": 156.793329,
          "name": "D3",
          "midi": 50,
          "duration": 0.108696,
          "velocity": 0.795276
        },
        {
          "time": 156.902024,
          "name": "D2",
          "midi": 38,
          "duration": 0.108696,
          "velocity": 0.590551
        },
        {
          "time": 156.902024,
          "name": "F#2",
          "midi": 42,
          "duration": 0.108696,
          "velocity": 0.590551
        },
        {
          "time": 156.902024,
          "name": "A2",
          "midi": 45,
          "duration": 0.108696,
          "velocity": 0.590551
        },
        {
          "time": 157.01072,
          "name": "D3",
          "midi": 50,
          "duration": 0.108696,
          "velocity": 0.590551
        },
        {
          "time": 157.119416,
          "name": "D2",
          "midi": 38,
          "duration": 0.108696,
          "velocity": 0.590551
        },
        {
          "time": 157.119416,
          "name": "F#2",
          "midi": 42,
          "duration": 0.108696,
          "velocity": 0.590551
        },
        {
          "time": 157.119416,
          "name": "A2",
          "midi": 45,
          "duration": 0.108696,
          "velocity": 0.590551
        },
        {
          "time": 157.228111,
          "name": "D3",
          "midi": 50,
          "duration": 0.108696,
          "velocity": 0.590551
        },
        {
          "time": 157.336807,
          "name": "D2",
          "midi": 38,
          "duration": 0.108696,
          "velocity": 0.590551
        },
        {
          "time": 157.336807,
          "name": "F#2",
          "midi": 42,
          "duration": 0.108696,
          "velocity": 0.590551
        },
        {
          "time": 157.336807,
          "name": "A2",
          "midi": 45,
          "duration": 0.108696,
          "velocity": 0.590551
        },
        {
          "time": 157.445502,
          "name": "D3",
          "midi": 50,
          "duration": 0.108696,
          "velocity": 0.590551
        },
        {
          "time": 157.554198,
          "name": "D2",
          "midi": 38,
          "duration": 0.108696,
          "velocity": 0.590551
        },
        {
          "time": 157.554198,
          "name": "F#2",
          "midi": 42,
          "duration": 0.108696,
          "velocity": 0.590551
        },
        {
          "time": 157.554198,
          "name": "A2",
          "midi": 45,
          "duration": 0.108696,
          "velocity": 0.590551
        },
        {
          "time": 157.662894,
          "name": "D3",
          "midi": 50,
          "duration": 0.108696,
          "velocity": 0.590551
        },
        {
          "time": 157.771589,
          "name": "D2",
          "midi": 38,
          "duration": 0.108696,
          "velocity": 0.590551
        },
        {
          "time": 157.771589,
          "name": "F#2",
          "midi": 42,
          "duration": 0.108696,
          "velocity": 0.590551
        },
        {
          "time": 157.771589,
          "name": "A2",
          "midi": 45,
          "duration": 0.108696,
          "velocity": 0.590551
        },
        {
          "time": 157.880285,
          "name": "D3",
          "midi": 50,
          "duration": 0.108696,
          "velocity": 0.590551
        },
        {
          "time": 157.98898,
          "name": "D2",
          "midi": 38,
          "duration": 0.108696,
          "velocity": 0.590551
        },
        {
          "time": 157.98898,
          "name": "F#2",
          "midi": 42,
          "duration": 0.108696,
          "velocity": 0.590551
        },
        {
          "time": 157.98898,
          "name": "A2",
          "midi": 45,
          "duration": 0.108696,
          "velocity": 0.590551
        },
        {
          "time": 158.097676,
          "name": "D3",
          "midi": 50,
          "duration": 0.108696,
          "velocity": 0.590551
        },
        {
          "time": 158.206372,
          "name": "D2",
          "midi": 38,
          "duration": 0.108696,
          "velocity": 0.590551
        },
        {
          "time": 158.206372,
          "name": "F#2",
          "midi": 42,
          "duration": 0.108696,
          "velocity": 0.590551
        },
        {
          "time": 158.206372,
          "name": "A2",
          "midi": 45,
          "duration": 0.108696,
          "velocity": 0.590551
        },
        {
          "time": 158.315067,
          "name": "D3",
          "midi": 50,
          "duration": 0.108696,
          "velocity": 0.590551
        },
        {
          "time": 158.423763,
          "name": "G2",
          "midi": 43,
          "duration": 0.108696,
          "velocity": 0.795276
        },
        {
          "time": 158.423763,
          "name": "B2",
          "midi": 47,
          "duration": 0.108696,
          "velocity": 0.795276
        },
        {
          "time": 158.423763,
          "name": "D3",
          "midi": 50,
          "duration": 0.108696,
          "velocity": 0.795276
        },
        {
          "time": 158.532459,
          "name": "G3",
          "midi": 55,
          "duration": 0.108696,
          "velocity": 0.795276
        },
        {
          "time": 158.641154,
          "name": "G2",
          "midi": 43,
          "duration": 0.108696,
          "velocity": 0.590551
        },
        {
          "time": 158.641154,
          "name": "B2",
          "midi": 47,
          "duration": 0.108696,
          "velocity": 0.590551
        },
        {
          "time": 158.641154,
          "name": "D3",
          "midi": 50,
          "duration": 0.108696,
          "velocity": 0.590551
        },
        {
          "time": 158.74985,
          "name": "G3",
          "midi": 55,
          "duration": 0.108696,
          "velocity": 0.590551
        },
        {
          "time": 158.858545,
          "name": "G2",
          "midi": 43,
          "duration": 0.108696,
          "velocity": 0.590551
        },
        {
          "time": 158.858545,
          "name": "B2",
          "midi": 47,
          "duration": 0.108696,
          "velocity": 0.590551
        },
        {
          "time": 158.858545,
          "name": "D3",
          "midi": 50,
          "duration": 0.108696,
          "velocity": 0.590551
        },
        {
          "time": 158.967241,
          "name": "G3",
          "midi": 55,
          "duration": 0.108696,
          "velocity": 0.590551
        },
        {
          "time": 159.075937,
          "name": "G2",
          "midi": 43,
          "duration": 0.108696,
          "velocity": 0.590551
        },
        {
          "time": 159.075937,
          "name": "B2",
          "midi": 47,
          "duration": 0.108696,
          "velocity": 0.590551
        },
        {
          "time": 159.075937,
          "name": "D3",
          "midi": 50,
          "duration": 0.108696,
          "velocity": 0.590551
        },
        {
          "time": 159.184632,
          "name": "G3",
          "midi": 55,
          "duration": 0.108696,
          "velocity": 0.590551
        },
        {
          "time": 159.293328,
          "name": "G2",
          "midi": 43,
          "duration": 0.108696,
          "velocity": 0.590551
        },
        {
          "time": 159.293328,
          "name": "B2",
          "midi": 47,
          "duration": 0.108696,
          "velocity": 0.590551
        },
        {
          "time": 159.293328,
          "name": "D3",
          "midi": 50,
          "duration": 0.108696,
          "velocity": 0.590551
        },
        {
          "time": 159.402024,
          "name": "G3",
          "midi": 55,
          "duration": 0.108696,
          "velocity": 0.590551
        },
        {
          "time": 159.510719,
          "name": "G2",
          "midi": 43,
          "duration": 0.108696,
          "velocity": 0.590551
        },
        {
          "time": 159.510719,
          "name": "B2",
          "midi": 47,
          "duration": 0.108696,
          "velocity": 0.590551
        },
        {
          "time": 159.510719,
          "name": "D3",
          "midi": 50,
          "duration": 0.108696,
          "velocity": 0.590551
        },
        {
          "time": 159.619415,
          "name": "G3",
          "midi": 55,
          "duration": 0.108696,
          "velocity": 0.590551
        },
        {
          "time": 159.72811,
          "name": "G2",
          "midi": 43,
          "duration": 0.108696,
          "velocity": 0.590551
        },
        {
          "time": 159.72811,
          "name": "B2",
          "midi": 47,
          "duration": 0.108696,
          "velocity": 0.590551
        },
        {
          "time": 159.72811,
          "name": "D3",
          "midi": 50,
          "duration": 0.108696,
          "velocity": 0.590551
        },
        {
          "time": 159.836806,
          "name": "G3",
          "midi": 55,
          "duration": 0.108696,
          "velocity": 0.590551
        },
        {
          "time": 159.945502,
          "name": "G2",
          "midi": 43,
          "duration": 0.108696,
          "velocity": 0.590551
        },
        {
          "time": 159.945502,
          "name": "B2",
          "midi": 47,
          "duration": 0.108696,
          "velocity": 0.590551
        },
        {
          "time": 159.945502,
          "name": "D3",
          "midi": 50,
          "duration": 0.108696,
          "velocity": 0.590551
        },
        {
          "time": 160.054197,
          "name": "G3",
          "midi": 55,
          "duration": 0.108696,
          "velocity": 0.590551
        },
        {
          "time": 160.162893,
          "name": "E2",
          "midi": 40,
          "duration": 0.108696,
          "velocity": 0.795276
        },
        {
          "time": 160.162893,
          "name": "G2",
          "midi": 43,
          "duration": 0.108696,
          "velocity": 0.795276
        },
        {
          "time": 160.162893,
          "name": "B2",
          "midi": 47,
          "duration": 0.108696,
          "velocity": 0.795276
        },
        {
          "time": 160.271589,
          "name": "E3",
          "midi": 52,
          "duration": 0.108696,
          "velocity": 0.795276
        },
        {
          "time": 160.380284,
          "name": "E2",
          "midi": 40,
          "duration": 0.108696,
          "velocity": 0.590551
        },
        {
          "time": 160.380284,
          "name": "G2",
          "midi": 43,
          "duration": 0.108696,
          "velocity": 0.590551
        },
        {
          "time": 160.380284,
          "name": "B2",
          "midi": 47,
          "duration": 0.108696,
          "velocity": 0.590551
        },
        {
          "time": 160.48898,
          "name": "E3",
          "midi": 52,
          "duration": 0.108696,
          "velocity": 0.590551
        },
        {
          "time": 160.597676,
          "name": "E2",
          "midi": 40,
          "duration": 0.108696,
          "velocity": 0.590551
        },
        {
          "time": 160.597676,
          "name": "G2",
          "midi": 43,
          "duration": 0.108696,
          "velocity": 0.590551
        },
        {
          "time": 160.597676,
          "name": "B2",
          "midi": 47,
          "duration": 0.108696,
          "velocity": 0.590551
        },
        {
          "time": 160.706371,
          "name": "E3",
          "midi": 52,
          "duration": 0.108696,
          "velocity": 0.590551
        },
        {
          "time": 160.815067,
          "name": "E2",
          "midi": 40,
          "duration": 0.108696,
          "velocity": 0.590551
        },
        {
          "time": 160.815067,
          "name": "G2",
          "midi": 43,
          "duration": 0.108696,
          "velocity": 0.590551
        },
        {
          "time": 160.815067,
          "name": "B2",
          "midi": 47,
          "duration": 0.108696,
          "velocity": 0.590551
        },
        {
          "time": 160.923762,
          "name": "E3",
          "midi": 52,
          "duration": 0.108696,
          "velocity": 0.590551
        },
        {
          "time": 161.032458,
          "name": "E2",
          "midi": 40,
          "duration": 0.108696,
          "velocity": 0.590551
        },
        {
          "time": 161.032458,
          "name": "G2",
          "midi": 43,
          "duration": 0.108696,
          "velocity": 0.590551
        },
        {
          "time": 161.032458,
          "name": "B2",
          "midi": 47,
          "duration": 0.108696,
          "velocity": 0.590551
        },
        {
          "time": 161.141154,
          "name": "E3",
          "midi": 52,
          "duration": 0.108696,
          "velocity": 0.590551
        },
        {
          "time": 161.249849,
          "name": "E2",
          "midi": 40,
          "duration": 0.108696,
          "velocity": 0.590551
        },
        {
          "time": 161.249849,
          "name": "G2",
          "midi": 43,
          "duration": 0.108696,
          "velocity": 0.590551
        },
        {
          "time": 161.249849,
          "name": "B2",
          "midi": 47,
          "duration": 0.108696,
          "velocity": 0.590551
        },
        {
          "time": 161.358545,
          "name": "E3",
          "midi": 52,
          "duration": 0.108696,
          "velocity": 0.590551
        },
        {
          "time": 161.467241,
          "name": "E2",
          "midi": 40,
          "duration": 0.108696,
          "velocity": 0.590551
        },
        {
          "time": 161.467241,
          "name": "G2",
          "midi": 43,
          "duration": 0.108696,
          "velocity": 0.590551
        },
        {
          "time": 161.467241,
          "name": "B2",
          "midi": 47,
          "duration": 0.108696,
          "velocity": 0.590551
        },
        {
          "time": 161.575936,
          "name": "E3",
          "midi": 52,
          "duration": 0.108696,
          "velocity": 0.590551
        },
        {
          "time": 161.684632,
          "name": "E2",
          "midi": 40,
          "duration": 0.108696,
          "velocity": 0.590551
        },
        {
          "time": 161.684632,
          "name": "G2",
          "midi": 43,
          "duration": 0.108696,
          "velocity": 0.590551
        },
        {
          "time": 161.684632,
          "name": "B2",
          "midi": 47,
          "duration": 0.108696,
          "velocity": 0.590551
        },
        {
          "time": 161.793327,
          "name": "E3",
          "midi": 52,
          "duration": 0.108696,
          "velocity": 0.590551
        },
        {
          "time": 161.902023,
          "name": "A1",
          "midi": 33,
          "duration": 0.108696,
          "velocity": 0.795276
        },
        {
          "time": 161.902023,
          "name": "C2",
          "midi": 36,
          "duration": 0.108696,
          "velocity": 0.795276
        },
        {
          "time": 161.902023,
          "name": "E2",
          "midi": 40,
          "duration": 0.108696,
          "velocity": 0.795276
        },
        {
          "time": 162.010719,
          "name": "A2",
          "midi": 45,
          "duration": 0.108696,
          "velocity": 0.795276
        },
        {
          "time": 162.119414,
          "name": "A1",
          "midi": 33,
          "duration": 0.108696,
          "velocity": 0.590551
        },
        {
          "time": 162.119414,
          "name": "C2",
          "midi": 36,
          "duration": 0.108696,
          "velocity": 0.590551
        },
        {
          "time": 162.119414,
          "name": "E2",
          "midi": 40,
          "duration": 0.108696,
          "velocity": 0.590551
        },
        {
          "time": 162.22811,
          "name": "A2",
          "midi": 45,
          "duration": 0.108696,
          "velocity": 0.590551
        },
        {
          "time": 162.336805,
          "name": "A1",
          "midi": 33,
          "duration": 0.108696,
          "velocity": 0.590551
        },
        {
          "time": 162.336805,
          "name": "C2",
          "midi": 36,
          "duration": 0.108696,
          "velocity": 0.590551
        },
        {
          "time": 162.336805,
          "name": "E2",
          "midi": 40,
          "duration": 0.108696,
          "velocity": 0.590551
        },
        {
          "time": 162.445501,
          "name": "A2",
          "midi": 45,
          "duration": 0.108696,
          "velocity": 0.590551
        },
        {
          "time": 162.554197,
          "name": "A1",
          "midi": 33,
          "duration": 0.108696,
          "velocity": 0.590551
        },
        {
          "time": 162.554197,
          "name": "C2",
          "midi": 36,
          "duration": 0.108696,
          "velocity": 0.590551
        },
        {
          "time": 162.554197,
          "name": "E2",
          "midi": 40,
          "duration": 0.108696,
          "velocity": 0.590551
        },
        {
          "time": 162.662892,
          "name": "A2",
          "midi": 45,
          "duration": 0.108696,
          "velocity": 0.590551
        },
        {
          "time": 162.771588,
          "name": "A1",
          "midi": 33,
          "duration": 0.108696,
          "velocity": 0.590551
        },
        {
          "time": 162.771588,
          "name": "C2",
          "midi": 36,
          "duration": 0.108696,
          "velocity": 0.590551
        },
        {
          "time": 162.771588,
          "name": "E2",
          "midi": 40,
          "duration": 0.108696,
          "velocity": 0.590551
        },
        {
          "time": 162.880284,
          "name": "A2",
          "midi": 45,
          "duration": 0.108696,
          "velocity": 0.590551
        },
        {
          "time": 162.988979,
          "name": "A1",
          "midi": 33,
          "duration": 0.108696,
          "velocity": 0.590551
        },
        {
          "time": 162.988979,
          "name": "C2",
          "midi": 36,
          "duration": 0.108696,
          "velocity": 0.590551
        },
        {
          "time": 162.988979,
          "name": "E2",
          "midi": 40,
          "duration": 0.108696,
          "velocity": 0.590551
        },
        {
          "time": 163.097675,
          "name": "A2",
          "midi": 45,
          "duration": 0.108696,
          "velocity": 0.590551
        },
        {
          "time": 163.20637,
          "name": "A1",
          "midi": 33,
          "duration": 0.108696,
          "velocity": 0.590551
        },
        {
          "time": 163.20637,
          "name": "C2",
          "midi": 36,
          "duration": 0.108696,
          "velocity": 0.590551
        },
        {
          "time": 163.20637,
          "name": "E2",
          "midi": 40,
          "duration": 0.108696,
          "velocity": 0.590551
        },
        {
          "time": 163.315066,
          "name": "A2",
          "midi": 45,
          "duration": 0.108696,
          "velocity": 0.590551
        },
        {
          "time": 163.423762,
          "name": "A1",
          "midi": 33,
          "duration": 0.108696,
          "velocity": 0.590551
        },
        {
          "time": 163.423762,
          "name": "C2",
          "midi": 36,
          "duration": 0.108696,
          "velocity": 0.590551
        },
        {
          "time": 163.423762,
          "name": "E2",
          "midi": 40,
          "duration": 0.108696,
          "velocity": 0.590551
        },
        {
          "time": 163.532457,
          "name": "A2",
          "midi": 45,
          "duration": 0.108696,
          "velocity": 0.590551
        },
        {
          "time": 163.641153,
          "name": "D2",
          "midi": 38,
          "duration": 0.108696,
          "velocity": 0.795276
        },
        {
          "time": 163.641153,
          "name": "F#2",
          "midi": 42,
          "duration": 0.108696,
          "velocity": 0.795276
        },
        {
          "time": 163.641153,
          "name": "A2",
          "midi": 45,
          "duration": 0.108696,
          "velocity": 0.795276
        },
        {
          "time": 163.749849,
          "name": "D3",
          "midi": 50,
          "duration": 0.108696,
          "velocity": 0.795276
        },
        {
          "time": 163.858544,
          "name": "D2",
          "midi": 38,
          "duration": 0.108696,
          "velocity": 0.590551
        },
        {
          "time": 163.858544,
          "name": "F#2",
          "midi": 42,
          "duration": 0.108696,
          "velocity": 0.590551
        },
        {
          "time": 163.858544,
          "name": "A2",
          "midi": 45,
          "duration": 0.108696,
          "velocity": 0.590551
        },
        {
          "time": 163.96724,
          "name": "D3",
          "midi": 50,
          "duration": 0.108696,
          "velocity": 0.590551
        },
        {
          "time": 164.075935,
          "name": "D2",
          "midi": 38,
          "duration": 0.108696,
          "velocity": 0.590551
        },
        {
          "time": 164.075935,
          "name": "F#2",
          "midi": 42,
          "duration": 0.108696,
          "velocity": 0.590551
        },
        {
          "time": 164.075935,
          "name": "A2",
          "midi": 45,
          "duration": 0.108696,
          "velocity": 0.590551
        },
        {
          "time": 164.184631,
          "name": "D3",
          "midi": 50,
          "duration": 0.108696,
          "velocity": 0.590551
        },
        {
          "time": 164.293327,
          "name": "D2",
          "midi": 38,
          "duration": 0.108696,
          "velocity": 0.590551
        },
        {
          "time": 164.293327,
          "name": "F#2",
          "midi": 42,
          "duration": 0.108696,
          "velocity": 0.590551
        },
        {
          "time": 164.293327,
          "name": "A2",
          "midi": 45,
          "duration": 0.108696,
          "velocity": 0.590551
        },
        {
          "time": 164.402022,
          "name": "D3",
          "midi": 50,
          "duration": 0.108696,
          "velocity": 0.590551
        },
        {
          "time": 164.510718,
          "name": "D2",
          "midi": 38,
          "duration": 0.108696,
          "velocity": 0.590551
        },
        {
          "time": 164.510718,
          "name": "F#2",
          "midi": 42,
          "duration": 0.108696,
          "velocity": 0.590551
        },
        {
          "time": 164.510718,
          "name": "A2",
          "midi": 45,
          "duration": 0.108696,
          "velocity": 0.590551
        },
        {
          "time": 164.619414,
          "name": "D3",
          "midi": 50,
          "duration": 0.108696,
          "velocity": 0.590551
        },
        {
          "time": 164.728109,
          "name": "D2",
          "midi": 38,
          "duration": 0.108696,
          "velocity": 0.590551
        },
        {
          "time": 164.728109,
          "name": "F#2",
          "midi": 42,
          "duration": 0.108696,
          "velocity": 0.590551
        },
        {
          "time": 164.728109,
          "name": "A2",
          "midi": 45,
          "duration": 0.108696,
          "velocity": 0.590551
        },
        {
          "time": 164.836805,
          "name": "D3",
          "midi": 50,
          "duration": 0.108696,
          "velocity": 0.590551
        },
        {
          "time": 164.9455,
          "name": "D2",
          "midi": 38,
          "duration": 0.108696,
          "velocity": 0.590551
        },
        {
          "time": 164.9455,
          "name": "F#2",
          "midi": 42,
          "duration": 0.108696,
          "velocity": 0.590551
        },
        {
          "time": 164.9455,
          "name": "A2",
          "midi": 45,
          "duration": 0.108696,
          "velocity": 0.590551
        },
        {
          "time": 165.054196,
          "name": "D3",
          "midi": 50,
          "duration": 0.108696,
          "velocity": 0.590551
        },
        {
          "time": 165.162892,
          "name": "D2",
          "midi": 38,
          "duration": 0.108696,
          "velocity": 0.590551
        },
        {
          "time": 165.162892,
          "name": "F#2",
          "midi": 42,
          "duration": 0.108696,
          "velocity": 0.590551
        },
        {
          "time": 165.162892,
          "name": "A2",
          "midi": 45,
          "duration": 0.108696,
          "velocity": 0.590551
        },
        {
          "time": 165.271587,
          "name": "D3",
          "midi": 50,
          "duration": 0.108696,
          "velocity": 0.590551
        },
        {
          "time": 165.380283,
          "name": "G2",
          "midi": 43,
          "duration": 0.108696,
          "velocity": 0.795276
        },
        {
          "time": 165.380283,
          "name": "B2",
          "midi": 47,
          "duration": 0.108696,
          "velocity": 0.795276
        },
        {
          "time": 165.380283,
          "name": "D3",
          "midi": 50,
          "duration": 0.108696,
          "velocity": 0.795276
        },
        {
          "time": 165.488979,
          "name": "G3",
          "midi": 55,
          "duration": 0.108696,
          "velocity": 0.795276
        },
        {
          "time": 165.597674,
          "name": "G2",
          "midi": 43,
          "duration": 0.108696,
          "velocity": 0.590551
        },
        {
          "time": 165.597674,
          "name": "B2",
          "midi": 47,
          "duration": 0.108696,
          "velocity": 0.590551
        },
        {
          "time": 165.597674,
          "name": "D3",
          "midi": 50,
          "duration": 0.108696,
          "velocity": 0.590551
        },
        {
          "time": 165.70637,
          "name": "G3",
          "midi": 55,
          "duration": 0.108696,
          "velocity": 0.590551
        },
        {
          "time": 165.815066,
          "name": "G2",
          "midi": 43,
          "duration": 0.108696,
          "velocity": 0.590551
        },
        {
          "time": 165.815066,
          "name": "B2",
          "midi": 47,
          "duration": 0.108696,
          "velocity": 0.590551
        },
        {
          "time": 165.815066,
          "name": "D3",
          "midi": 50,
          "duration": 0.108696,
          "velocity": 0.590551
        },
        {
          "time": 165.923761,
          "name": "G3",
          "midi": 55,
          "duration": 0.108696,
          "velocity": 0.590551
        },
        {
          "time": 166.032457,
          "name": "G2",
          "midi": 43,
          "duration": 0.108696,
          "velocity": 0.590551
        },
        {
          "time": 166.032457,
          "name": "B2",
          "midi": 47,
          "duration": 0.108696,
          "velocity": 0.590551
        },
        {
          "time": 166.032457,
          "name": "D3",
          "midi": 50,
          "duration": 0.108696,
          "velocity": 0.590551
        },
        {
          "time": 166.141152,
          "name": "G3",
          "midi": 55,
          "duration": 0.108696,
          "velocity": 0.590551
        },
        {
          "time": 166.249848,
          "name": "G2",
          "midi": 43,
          "duration": 0.108696,
          "velocity": 0.590551
        },
        {
          "time": 166.249848,
          "name": "B2",
          "midi": 47,
          "duration": 0.108696,
          "velocity": 0.590551
        },
        {
          "time": 166.249848,
          "name": "D3",
          "midi": 50,
          "duration": 0.108696,
          "velocity": 0.590551
        },
        {
          "time": 166.358544,
          "name": "G3",
          "midi": 55,
          "duration": 0.108696,
          "velocity": 0.590551
        },
        {
          "time": 166.467239,
          "name": "G2",
          "midi": 43,
          "duration": 0.108696,
          "velocity": 0.590551
        },
        {
          "time": 166.467239,
          "name": "B2",
          "midi": 47,
          "duration": 0.108696,
          "velocity": 0.590551
        },
        {
          "time": 166.467239,
          "name": "D3",
          "midi": 50,
          "duration": 0.108696,
          "velocity": 0.590551
        },
        {
          "time": 166.575935,
          "name": "G3",
          "midi": 55,
          "duration": 0.108696,
          "velocity": 0.590551
        },
        {
          "time": 166.68463,
          "name": "G2",
          "midi": 43,
          "duration": 0.108696,
          "velocity": 0.590551
        },
        {
          "time": 166.68463,
          "name": "B2",
          "midi": 47,
          "duration": 0.108696,
          "velocity": 0.590551
        },
        {
          "time": 166.68463,
          "name": "D3",
          "midi": 50,
          "duration": 0.108696,
          "velocity": 0.590551
        },
        {
          "time": 166.793326,
          "name": "G3",
          "midi": 55,
          "duration": 0.108696,
          "velocity": 0.590551
        },
        {
          "time": 166.902022,
          "name": "G2",
          "midi": 43,
          "duration": 0.108696,
          "velocity": 0.590551
        },
        {
          "time": 166.902022,
          "name": "B2",
          "midi": 47,
          "duration": 0.108696,
          "velocity": 0.590551
        },
        {
          "time": 166.902022,
          "name": "D3",
          "midi": 50,
          "duration": 0.108696,
          "velocity": 0.590551
        },
        {
          "time": 167.010717,
          "name": "G3",
          "midi": 55,
          "duration": 0.108696,
          "velocity": 0.590551
        },
        {
          "time": 167.119413,
          "name": "E2",
          "midi": 40,
          "duration": 0.108696,
          "velocity": 0.795276
        },
        {
          "time": 167.119413,
          "name": "G2",
          "midi": 43,
          "duration": 0.108696,
          "velocity": 0.795276
        },
        {
          "time": 167.119413,
          "name": "B2",
          "midi": 47,
          "duration": 0.108696,
          "velocity": 0.795276
        },
        {
          "time": 167.228109,
          "name": "E3",
          "midi": 52,
          "duration": 0.108696,
          "velocity": 0.795276
        },
        {
          "time": 167.336804,
          "name": "E2",
          "midi": 40,
          "duration": 0.108696,
          "velocity": 0.590551
        },
        {
          "time": 167.336804,
          "name": "G2",
          "midi": 43,
          "duration": 0.108696,
          "velocity": 0.590551
        },
        {
          "time": 167.336804,
          "name": "B2",
          "midi": 47,
          "duration": 0.108696,
          "velocity": 0.590551
        },
        {
          "time": 167.4455,
          "name": "E3",
          "midi": 52,
          "duration": 0.108696,
          "velocity": 0.590551
        },
        {
          "time": 167.554195,
          "name": "E2",
          "midi": 40,
          "duration": 0.108696,
          "velocity": 0.590551
        },
        {
          "time": 167.554195,
          "name": "G2",
          "midi": 43,
          "duration": 0.108696,
          "velocity": 0.590551
        },
        {
          "time": 167.554195,
          "name": "B2",
          "midi": 47,
          "duration": 0.108696,
          "velocity": 0.590551
        },
        {
          "time": 167.662891,
          "name": "E3",
          "midi": 52,
          "duration": 0.108696,
          "velocity": 0.590551
        },
        {
          "time": 167.771587,
          "name": "E2",
          "midi": 40,
          "duration": 0.108696,
          "velocity": 0.590551
        },
        {
          "time": 167.771587,
          "name": "G2",
          "midi": 43,
          "duration": 0.108696,
          "velocity": 0.590551
        },
        {
          "time": 167.771587,
          "name": "B2",
          "midi": 47,
          "duration": 0.108696,
          "velocity": 0.590551
        },
        {
          "time": 167.880282,
          "name": "E3",
          "midi": 52,
          "duration": 0.108696,
          "velocity": 0.590551
        },
        {
          "time": 167.988978,
          "name": "E2",
          "midi": 40,
          "duration": 0.108696,
          "velocity": 0.590551
        },
        {
          "time": 167.988978,
          "name": "G2",
          "midi": 43,
          "duration": 0.108696,
          "velocity": 0.590551
        },
        {
          "time": 167.988978,
          "name": "B2",
          "midi": 47,
          "duration": 0.108696,
          "velocity": 0.590551
        },
        {
          "time": 168.097674,
          "name": "E3",
          "midi": 52,
          "duration": 0.108696,
          "velocity": 0.590551
        },
        {
          "time": 168.206369,
          "name": "E2",
          "midi": 40,
          "duration": 0.108696,
          "velocity": 0.590551
        },
        {
          "time": 168.206369,
          "name": "G2",
          "midi": 43,
          "duration": 0.108696,
          "velocity": 0.590551
        },
        {
          "time": 168.206369,
          "name": "B2",
          "midi": 47,
          "duration": 0.108696,
          "velocity": 0.590551
        },
        {
          "time": 168.315065,
          "name": "E3",
          "midi": 52,
          "duration": 0.108696,
          "velocity": 0.590551
        },
        {
          "time": 168.42376,
          "name": "E2",
          "midi": 40,
          "duration": 0.108696,
          "velocity": 0.590551
        },
        {
          "time": 168.42376,
          "name": "G2",
          "midi": 43,
          "duration": 0.108696,
          "velocity": 0.590551
        },
        {
          "time": 168.42376,
          "name": "B2",
          "midi": 47,
          "duration": 0.108696,
          "velocity": 0.590551
        },
        {
          "time": 168.532456,
          "name": "E3",
          "midi": 52,
          "duration": 0.108696,
          "velocity": 0.590551
        },
        {
          "time": 168.641152,
          "name": "E2",
          "midi": 40,
          "duration": 0.108696,
          "velocity": 0.590551
        },
        {
          "time": 168.641152,
          "name": "G2",
          "midi": 43,
          "duration": 0.108696,
          "velocity": 0.590551
        },
        {
          "time": 168.641152,
          "name": "B2",
          "midi": 47,
          "duration": 0.108696,
          "velocity": 0.590551
        },
        {
          "time": 168.749847,
          "name": "E3",
          "midi": 52,
          "duration": 0.108696,
          "velocity": 0.590551
        },
        {
          "time": 168.858543,
          "name": "A1",
          "midi": 33,
          "duration": 0.104167,
          "velocity": 0.795276
        },
        {
          "time": 168.858543,
          "name": "C2",
          "midi": 36,
          "duration": 0.104167,
          "velocity": 0.795276
        },
        {
          "time": 168.858543,
          "name": "E2",
          "midi": 40,
          "duration": 0.104167,
          "velocity": 0.795276
        },
        {
          "time": 168.96271,
          "name": "A2",
          "midi": 45,
          "duration": 0.104167,
          "velocity": 0.795276
        },
        {
          "time": 169.066876,
          "name": "A1",
          "midi": 33,
          "duration": 0.104167,
          "velocity": 0.590551
        },
        {
          "time": 169.066876,
          "name": "C2",
          "midi": 36,
          "duration": 0.104167,
          "velocity": 0.590551
        },
        {
          "time": 169.066876,
          "name": "E2",
          "midi": 40,
          "duration": 0.104167,
          "velocity": 0.590551
        },
        {
          "time": 169.171043,
          "name": "A2",
          "midi": 45,
          "duration": 0.104167,
          "velocity": 0.590551
        },
        {
          "time": 169.275209,
          "name": "A1",
          "midi": 33,
          "duration": 0.104167,
          "velocity": 0.590551
        },
        {
          "time": 169.275209,
          "name": "C2",
          "midi": 36,
          "duration": 0.104167,
          "velocity": 0.590551
        },
        {
          "time": 169.275209,
          "name": "E2",
          "midi": 40,
          "duration": 0.104167,
          "velocity": 0.590551
        },
        {
          "time": 169.379376,
          "name": "A2",
          "midi": 45,
          "duration": 0.104167,
          "velocity": 0.590551
        },
        {
          "time": 169.483543,
          "name": "A1",
          "midi": 33,
          "duration": 0.104167,
          "velocity": 0.590551
        },
        {
          "time": 169.483543,
          "name": "C2",
          "midi": 36,
          "duration": 0.104167,
          "velocity": 0.590551
        },
        {
          "time": 169.483543,
          "name": "E2",
          "midi": 40,
          "duration": 0.104167,
          "velocity": 0.590551
        },
        {
          "time": 169.587709,
          "name": "A2",
          "midi": 45,
          "duration": 0.104167,
          "velocity": 0.590551
        },
        {
          "time": 169.691876,
          "name": "A1",
          "midi": 33,
          "duration": 0.104167,
          "velocity": 0.590551
        },
        {
          "time": 169.691876,
          "name": "C2",
          "midi": 36,
          "duration": 0.104167,
          "velocity": 0.590551
        },
        {
          "time": 169.691876,
          "name": "E2",
          "midi": 40,
          "duration": 0.104167,
          "velocity": 0.590551
        },
        {
          "time": 169.796043,
          "name": "A2",
          "midi": 45,
          "duration": 0.104167,
          "velocity": 0.590551
        },
        {
          "time": 169.900209,
          "name": "A1",
          "midi": 33,
          "duration": 0.104167,
          "velocity": 0.590551
        },
        {
          "time": 169.900209,
          "name": "C2",
          "midi": 36,
          "duration": 0.104167,
          "velocity": 0.590551
        },
        {
          "time": 169.900209,
          "name": "E2",
          "midi": 40,
          "duration": 0.104167,
          "velocity": 0.590551
        },
        {
          "time": 170.004376,
          "name": "A2",
          "midi": 45,
          "duration": 0.104167,
          "velocity": 0.590551
        },
        {
          "time": 170.108542,
          "name": "A1",
          "midi": 33,
          "duration": 0.104167,
          "velocity": 0.590551
        },
        {
          "time": 170.108542,
          "name": "C2",
          "midi": 36,
          "duration": 0.104167,
          "velocity": 0.590551
        },
        {
          "time": 170.108542,
          "name": "E2",
          "midi": 40,
          "duration": 0.104167,
          "velocity": 0.590551
        },
        {
          "time": 170.212709,
          "name": "A2",
          "midi": 45,
          "duration": 0.104167,
          "velocity": 0.590551
        },
        {
          "time": 170.316876,
          "name": "A1",
          "midi": 33,
          "duration": 0.104167,
          "velocity": 0.590551
        },
        {
          "time": 170.316876,
          "name": "C2",
          "midi": 36,
          "duration": 0.104167,
          "velocity": 0.590551
        },
        {
          "time": 170.316876,
          "name": "E2",
          "midi": 40,
          "duration": 0.104167,
          "velocity": 0.590551
        },
        {
          "time": 170.421042,
          "name": "A2",
          "midi": 45,
          "duration": 0.104167,
          "velocity": 0.590551
        },
        {
          "time": 170.525209,
          "name": "A#1",
          "midi": 34,
          "duration": 0.104167,
          "velocity": 0.795276
        },
        {
          "time": 170.525209,
          "name": "C2",
          "midi": 36,
          "duration": 0.104167,
          "velocity": 0.795276
        },
        {
          "time": 170.525209,
          "name": "E2",
          "midi": 40,
          "duration": 0.104167,
          "velocity": 0.795276
        },
        {
          "time": 170.629376,
          "name": "A#2",
          "midi": 46,
          "duration": 0.104167,
          "velocity": 0.795276
        },
        {
          "time": 170.733542,
          "name": "A#1",
          "midi": 34,
          "duration": 0.104167,
          "velocity": 0.590551
        },
        {
          "time": 170.733542,
          "name": "C2",
          "midi": 36,
          "duration": 0.104167,
          "velocity": 0.590551
        },
        {
          "time": 170.733542,
          "name": "E2",
          "midi": 40,
          "duration": 0.104167,
          "velocity": 0.590551
        },
        {
          "time": 170.837709,
          "name": "A#2",
          "midi": 46,
          "duration": 0.104167,
          "velocity": 0.590551
        },
        {
          "time": 170.941876,
          "name": "A#1",
          "midi": 34,
          "duration": 0.104167,
          "velocity": 0.590551
        },
        {
          "time": 170.941876,
          "name": "C2",
          "midi": 36,
          "duration": 0.104167,
          "velocity": 0.590551
        },
        {
          "time": 170.941876,
          "name": "E2",
          "midi": 40,
          "duration": 0.104167,
          "velocity": 0.590551
        },
        {
          "time": 171.046042,
          "name": "A#2",
          "midi": 46,
          "duration": 0.104167,
          "velocity": 0.590551
        },
        {
          "time": 171.150209,
          "name": "A#1",
          "midi": 34,
          "duration": 0.104167,
          "velocity": 0.590551
        },
        {
          "time": 171.150209,
          "name": "C2",
          "midi": 36,
          "duration": 0.104167,
          "velocity": 0.590551
        },
        {
          "time": 171.150209,
          "name": "E2",
          "midi": 40,
          "duration": 0.104167,
          "velocity": 0.590551
        },
        {
          "time": 171.254375,
          "name": "A#2",
          "midi": 46,
          "duration": 0.104167,
          "velocity": 0.590551
        },
        {
          "time": 171.358542,
          "name": "A#1",
          "midi": 34,
          "duration": 0.104167,
          "velocity": 0.590551
        },
        {
          "time": 171.358542,
          "name": "C2",
          "midi": 36,
          "duration": 0.104167,
          "velocity": 0.590551
        },
        {
          "time": 171.358542,
          "name": "E2",
          "midi": 40,
          "duration": 0.104167,
          "velocity": 0.590551
        },
        {
          "time": 171.462709,
          "name": "A#2",
          "midi": 46,
          "duration": 0.104167,
          "velocity": 0.590551
        },
        {
          "time": 171.566875,
          "name": "A#1",
          "midi": 34,
          "duration": 0.104167,
          "velocity": 0.590551
        },
        {
          "time": 171.566875,
          "name": "C2",
          "midi": 36,
          "duration": 0.104167,
          "velocity": 0.590551
        },
        {
          "time": 171.566875,
          "name": "E2",
          "midi": 40,
          "duration": 0.104167,
          "velocity": 0.590551
        },
        {
          "time": 171.671042,
          "name": "A#2",
          "midi": 46,
          "duration": 0.104167,
          "velocity": 0.590551
        },
        {
          "time": 171.775208,
          "name": "A#1",
          "midi": 34,
          "duration": 0.104167,
          "velocity": 0.590551
        },
        {
          "time": 171.775208,
          "name": "C2",
          "midi": 36,
          "duration": 0.104167,
          "velocity": 0.590551
        },
        {
          "time": 171.775208,
          "name": "E2",
          "midi": 40,
          "duration": 0.104167,
          "velocity": 0.590551
        },
        {
          "time": 171.879375,
          "name": "A#2",
          "midi": 46,
          "duration": 0.104167,
          "velocity": 0.590551
        },
        {
          "time": 171.983542,
          "name": "A#1",
          "midi": 34,
          "duration": 0.104167,
          "velocity": 0.590551
        },
        {
          "time": 171.983542,
          "name": "C2",
          "midi": 36,
          "duration": 0.104167,
          "velocity": 0.590551
        },
        {
          "time": 171.983542,
          "name": "E2",
          "midi": 40,
          "duration": 0.104167,
          "velocity": 0.590551
        },
        {
          "time": 172.087708,
          "name": "A#2",
          "midi": 46,
          "duration": 0.104167,
          "velocity": 0.590551
        },
        {
          "time": 172.191875,
          "name": "B1",
          "midi": 35,
          "duration": 0.138889,
          "velocity": 0.795276
        },
        {
          "time": 172.191875,
          "name": "E2",
          "midi": 40,
          "duration": 0.138889,
          "velocity": 0.795276
        },
        {
          "time": 172.191875,
          "name": "G2",
          "midi": 43,
          "duration": 0.138889,
          "velocity": 0.795276
        },
        {
          "time": 172.330764,
          "name": "B2",
          "midi": 47,
          "duration": 0.137153,
          "velocity": 0.795276
        },
        {
          "time": 172.467917,
          "name": "B1",
          "midi": 35,
          "duration": 0.140625,
          "velocity": 0.590551
        },
        {
          "time": 172.467917,
          "name": "E2",
          "midi": 40,
          "duration": 0.140625,
          "velocity": 0.590551
        },
        {
          "time": 172.467917,
          "name": "G2",
          "midi": 43,
          "duration": 0.140625,
          "velocity": 0.590551
        },
        {
          "time": 172.608542,
          "name": "B2",
          "midi": 47,
          "duration": 0.138889,
          "velocity": 0.590551
        },
        {
          "time": 172.74743,
          "name": "B1",
          "midi": 35,
          "duration": 0.137153,
          "velocity": 0.590551
        },
        {
          "time": 172.74743,
          "name": "E2",
          "midi": 40,
          "duration": 0.137153,
          "velocity": 0.590551
        },
        {
          "time": 172.74743,
          "name": "G2",
          "midi": 43,
          "duration": 0.137153,
          "velocity": 0.590551
        },
        {
          "time": 172.884583,
          "name": "B2",
          "midi": 47,
          "duration": 0.140625,
          "velocity": 0.590551
        },
        {
          "time": 173.025208,
          "name": "B1",
          "midi": 35,
          "duration": 0.138889,
          "velocity": 0.590551
        },
        {
          "time": 173.025208,
          "name": "E2",
          "midi": 40,
          "duration": 0.138889,
          "velocity": 0.590551
        },
        {
          "time": 173.025208,
          "name": "G2",
          "midi": 43,
          "duration": 0.138889,
          "velocity": 0.590551
        },
        {
          "time": 173.164097,
          "name": "B2",
          "midi": 47,
          "duration": 0.137153,
          "velocity": 0.590551
        },
        {
          "time": 173.30125,
          "name": "B1",
          "midi": 35,
          "duration": 0.140625,
          "velocity": 0.590551
        },
        {
          "time": 173.30125,
          "name": "E2",
          "midi": 40,
          "duration": 0.140625,
          "velocity": 0.590551
        },
        {
          "time": 173.30125,
          "name": "G2",
          "midi": 43,
          "duration": 0.140625,
          "velocity": 0.590551
        },
        {
          "time": 173.441874,
          "name": "B2",
          "midi": 47,
          "duration": 0.138889,
          "velocity": 0.590551
        },
        {
          "time": 173.580763,
          "name": "B1",
          "midi": 35,
          "duration": 0.137153,
          "velocity": 0.590551
        },
        {
          "time": 173.580763,
          "name": "E2",
          "midi": 40,
          "duration": 0.137153,
          "velocity": 0.590551
        },
        {
          "time": 173.580763,
          "name": "G2",
          "midi": 43,
          "duration": 0.137153,
          "velocity": 0.590551
        },
        {
          "time": 173.717916,
          "name": "B2",
          "midi": 47,
          "duration": 0.140625,
          "velocity": 0.590551
        },
        {
          "time": 173.858541,
          "name": "C2",
          "midi": 36,
          "duration": 0.138889,
          "velocity": 0.795276
        },
        {
          "time": 173.858541,
          "name": "E2",
          "midi": 40,
          "duration": 0.138889,
          "velocity": 0.795276
        },
        {
          "time": 173.858541,
          "name": "G2",
          "midi": 43,
          "duration": 0.138889,
          "velocity": 0.795276
        },
        {
          "time": 173.99743,
          "name": "C3",
          "midi": 48,
          "duration": 0.137153,
          "velocity": 0.795276
        },
        {
          "time": 174.134583,
          "name": "C2",
          "midi": 36,
          "duration": 0.140625,
          "velocity": 0.590551
        },
        {
          "time": 174.134583,
          "name": "E2",
          "midi": 40,
          "duration": 0.140625,
          "velocity": 0.590551
        },
        {
          "time": 174.134583,
          "name": "G2",
          "midi": 43,
          "duration": 0.140625,
          "velocity": 0.590551
        },
        {
          "time": 174.275207,
          "name": "C3",
          "midi": 48,
          "duration": 0.138889,
          "velocity": 0.590551
        },
        {
          "time": 174.414096,
          "name": "C2",
          "midi": 36,
          "duration": 0.137153,
          "velocity": 0.590551
        },
        {
          "time": 174.414096,
          "name": "E2",
          "midi": 40,
          "duration": 0.137153,
          "velocity": 0.590551
        },
        {
          "time": 174.414096,
          "name": "G2",
          "midi": 43,
          "duration": 0.137153,
          "velocity": 0.590551
        },
        {
          "time": 174.551249,
          "name": "C3",
          "midi": 48,
          "duration": 0.140625,
          "velocity": 0.590551
        },
        {
          "time": 174.691874,
          "name": "C2",
          "midi": 36,
          "duration": 0.138889,
          "velocity": 0.590551
        },
        {
          "time": 174.691874,
          "name": "E2",
          "midi": 40,
          "duration": 0.138889,
          "velocity": 0.590551
        },
        {
          "time": 174.691874,
          "name": "G2",
          "midi": 43,
          "duration": 0.138889,
          "velocity": 0.590551
        },
        {
          "time": 174.830763,
          "name": "C3",
          "midi": 48,
          "duration": 0.137153,
          "velocity": 0.590551
        },
        {
          "time": 174.967916,
          "name": "C2",
          "midi": 36,
          "duration": 0.140625,
          "velocity": 0.590551
        },
        {
          "time": 174.967916,
          "name": "E2",
          "midi": 40,
          "duration": 0.140625,
          "velocity": 0.590551
        },
        {
          "time": 174.967916,
          "name": "G2",
          "midi": 43,
          "duration": 0.140625,
          "velocity": 0.590551
        },
        {
          "time": 175.108541,
          "name": "C3",
          "midi": 48,
          "duration": 0.138889,
          "velocity": 0.590551
        },
        {
          "time": 175.247429,
          "name": "C2",
          "midi": 36,
          "duration": 0.137153,
          "velocity": 0.590551
        },
        {
          "time": 175.247429,
          "name": "E2",
          "midi": 40,
          "duration": 0.137153,
          "velocity": 0.590551
        },
        {
          "time": 175.247429,
          "name": "G2",
          "midi": 43,
          "duration": 0.137153,
          "velocity": 0.590551
        },
        {
          "time": 175.384582,
          "name": "C3",
          "midi": 48,
          "duration": 0.140625,
          "velocity": 0.590551
        },
        {
          "time": 175.525207,
          "name": "C2",
          "midi": 36,
          "duration": 0.833333,
          "velocity": 0.897638
        },
        {
          "time": 175.525207,
          "name": "E2",
          "midi": 40,
          "duration": 0.833333,
          "velocity": 0.897638
        },
        {
          "time": 175.525207,
          "name": "G2",
          "midi": 43,
          "duration": 0.833333,
          "velocity": 0.897638
        },
        {
          "time": 175.525207,
          "name": "C3",
          "midi": 48,
          "duration": 0.833333,
          "velocity": 0.897638
        },
        {
          "time": 176.35854,
          "name": "C#2",
          "midi": 37,
          "duration": 0.833333,
          "velocity": 0.897638
        },
        {
          "time": 176.35854,
          "name": "G2",
          "midi": 43,
          "duration": 0.833333,
          "velocity": 0.897638
        },
        {
          "time": 176.35854,
          "name": "A#2",
          "midi": 46,
          "duration": 0.833333,
          "velocity": 0.897638
        },
        {
          "time": 176.35854,
          "name": "C#3",
          "midi": 49,
          "duration": 0.833333,
          "velocity": 0.897638
        },
        {
          "time": 177.191873,
          "name": "D2",
          "midi": 38,
          "duration": 1.666666,
          "velocity": 0.897638
        },
        {
          "time": 177.191873,
          "name": "G2",
          "midi": 43,
          "duration": 1.666666,
          "velocity": 0.897638
        },
        {
          "time": 177.191873,
          "name": "B2",
          "midi": 47,
          "duration": 1.666666,
          "velocity": 0.897638
        },
        {
          "time": 177.191873,
          "name": "D3",
          "midi": 50,
          "duration": 1.666666,
          "velocity": 0.897638
        },
        {
          "time": 178.858539,
          "name": "D#2",
          "midi": 39,
          "duration": 0.416666,
          "velocity": 0.897638
        },
        {
          "time": 178.858539,
          "name": "G2",
          "midi": 43,
          "duration": 0.416666,
          "velocity": 0.897638
        },
        {
          "time": 178.858539,
          "name": "B2",
          "midi": 47,
          "duration": 0.416666,
          "velocity": 0.897638
        },
        {
          "time": 178.858539,
          "name": "D#3",
          "midi": 51,
          "duration": 0.416666,
          "velocity": 0.897638
        },
        {
          "time": 179.275205,
          "name": "E2",
          "midi": 40,
          "duration": 0.416666,
          "velocity": 0.897638
        },
        {
          "time": 179.275205,
          "name": "E3",
          "midi": 52,
          "duration": 0.416666,
          "velocity": 0.897638
        },
        {
          "time": 179.691872,
          "name": "G2",
          "midi": 43,
          "duration": 0.416667,
          "velocity": 0.897638
        },
        {
          "time": 179.691872,
          "name": "G3",
          "midi": 55,
          "duration": 0.416667,
          "velocity": 0.897638
        },
        {
          "time": 180.108539,
          "name": "B2",
          "midi": 47,
          "duration": 0.416666,
          "velocity": 0.897638
        },
        {
          "time": 180.108539,
          "name": "B3",
          "midi": 59,
          "duration": 0.416666,
          "velocity": 0.897638
        },
        {
          "time": 180.525205,
          "name": "E3",
          "midi": 52,
          "duration": 0.416666,
          "velocity": 0.897638
        },
        {
          "time": 180.525205,
          "name": "E4",
          "midi": 64,
          "duration": 0.416666,
          "velocity": 0.897638
        },
        {
          "time": 180.941871,
          "name": "G3",
          "midi": 55,
          "duration": 0.416667,
          "velocity": 0.897638
        },
        {
          "time": 180.941871,
          "name": "G4",
          "midi": 67,
          "duration": 0.416667,
          "velocity": 0.897638
        },
        {
          "time": 181.358538,
          "name": "B3",
          "midi": 59,
          "duration": 0.416666,
          "velocity": 0.897638
        },
        {
          "time": 181.358538,
          "name": "B4",
          "midi": 71,
          "duration": 0.416666,
          "velocity": 0.897638
        },
        {
          "time": 181.775205,
          "name": "E4",
          "midi": 64,
          "duration": 0.416666,
          "velocity": 0.897638
        },
        {
          "time": 181.775205,
          "name": "E5",
          "midi": 76,
          "duration": 0.416666,
          "velocity": 0.897638
        },
        {
          "time": 182.191871,
          "name": "C2",
          "midi": 36,
          "duration": 0.108696,
          "velocity": 0.795276
        },
        {
          "time": 182.191871,
          "name": "E2",
          "midi": 40,
          "duration": 0.108696,
          "velocity": 0.795276
        },
        {
          "time": 182.191871,
          "name": "A2",
          "midi": 45,
          "duration": 0.108696,
          "velocity": 0.795276
        },
        {
          "time": 182.300567,
          "name": "C3",
          "midi": 48,
          "duration": 0.108696,
          "velocity": 0.795276
        },
        {
          "time": 182.409262,
          "name": "C2",
          "midi": 36,
          "duration": 0.108696,
          "velocity": 0.590551
        },
        {
          "time": 182.409262,
          "name": "E2",
          "midi": 40,
          "duration": 0.108696,
          "velocity": 0.590551
        },
        {
          "time": 182.409262,
          "name": "A2",
          "midi": 45,
          "duration": 0.108696,
          "velocity": 0.590551
        },
        {
          "time": 182.517958,
          "name": "C3",
          "midi": 48,
          "duration": 0.108696,
          "velocity": 0.590551
        },
        {
          "time": 182.626654,
          "name": "C2",
          "midi": 36,
          "duration": 0.108696,
          "velocity": 0.590551
        },
        {
          "time": 182.626654,
          "name": "E2",
          "midi": 40,
          "duration": 0.108696,
          "velocity": 0.590551
        },
        {
          "time": 182.626654,
          "name": "A2",
          "midi": 45,
          "duration": 0.108696,
          "velocity": 0.590551
        },
        {
          "time": 182.735349,
          "name": "C3",
          "midi": 48,
          "duration": 0.108696,
          "velocity": 0.590551
        },
        {
          "time": 182.844045,
          "name": "C2",
          "midi": 36,
          "duration": 0.108696,
          "velocity": 0.590551
        },
        {
          "time": 182.844045,
          "name": "E2",
          "midi": 40,
          "duration": 0.108696,
          "velocity": 0.590551
        },
        {
          "time": 182.844045,
          "name": "A2",
          "midi": 45,
          "duration": 0.108696,
          "velocity": 0.590551
        },
        {
          "time": 182.95274,
          "name": "C3",
          "midi": 48,
          "duration": 0.108696,
          "velocity": 0.590551
        },
        {
          "time": 183.061436,
          "name": "C2",
          "midi": 36,
          "duration": 0.108696,
          "velocity": 0.590551
        },
        {
          "time": 183.061436,
          "name": "E2",
          "midi": 40,
          "duration": 0.108696,
          "velocity": 0.590551
        },
        {
          "time": 183.061436,
          "name": "A2",
          "midi": 45,
          "duration": 0.108696,
          "velocity": 0.590551
        },
        {
          "time": 183.170132,
          "name": "C3",
          "midi": 48,
          "duration": 0.108696,
          "velocity": 0.590551
        },
        {
          "time": 183.278827,
          "name": "C2",
          "midi": 36,
          "duration": 0.108696,
          "velocity": 0.590551
        },
        {
          "time": 183.278827,
          "name": "E2",
          "midi": 40,
          "duration": 0.108696,
          "velocity": 0.590551
        },
        {
          "time": 183.278827,
          "name": "A2",
          "midi": 45,
          "duration": 0.108696,
          "velocity": 0.590551
        },
        {
          "time": 183.387523,
          "name": "C3",
          "midi": 48,
          "duration": 0.108696,
          "velocity": 0.590551
        },
        {
          "time": 183.496218,
          "name": "C2",
          "midi": 36,
          "duration": 0.108696,
          "velocity": 0.590551
        },
        {
          "time": 183.496218,
          "name": "E2",
          "midi": 40,
          "duration": 0.108696,
          "velocity": 0.590551
        },
        {
          "time": 183.496218,
          "name": "A2",
          "midi": 45,
          "duration": 0.108696,
          "velocity": 0.590551
        },
        {
          "time": 183.604914,
          "name": "C3",
          "midi": 48,
          "duration": 0.108696,
          "velocity": 0.590551
        },
        {
          "time": 183.71361,
          "name": "C2",
          "midi": 36,
          "duration": 0.108696,
          "velocity": 0.590551
        },
        {
          "time": 183.71361,
          "name": "E2",
          "midi": 40,
          "duration": 0.108696,
          "velocity": 0.590551
        },
        {
          "time": 183.71361,
          "name": "A2",
          "midi": 45,
          "duration": 0.108696,
          "velocity": 0.590551
        },
        {
          "time": 183.822305,
          "name": "C3",
          "midi": 48,
          "duration": 0.108696,
          "velocity": 0.590551
        },
        {
          "time": 183.931001,
          "name": "D2",
          "midi": 38,
          "duration": 0.108696,
          "velocity": 0.795276
        },
        {
          "time": 183.931001,
          "name": "F#2",
          "midi": 42,
          "duration": 0.108696,
          "velocity": 0.795276
        },
        {
          "time": 183.931001,
          "name": "A2",
          "midi": 45,
          "duration": 0.108696,
          "velocity": 0.795276
        },
        {
          "time": 184.039697,
          "name": "D3",
          "midi": 50,
          "duration": 0.108696,
          "velocity": 0.795276
        },
        {
          "time": 184.148392,
          "name": "D2",
          "midi": 38,
          "duration": 0.108696,
          "velocity": 0.590551
        },
        {
          "time": 184.148392,
          "name": "F#2",
          "midi": 42,
          "duration": 0.108696,
          "velocity": 0.590551
        },
        {
          "time": 184.148392,
          "name": "A2",
          "midi": 45,
          "duration": 0.108696,
          "velocity": 0.590551
        },
        {
          "time": 184.257088,
          "name": "D3",
          "midi": 50,
          "duration": 0.108696,
          "velocity": 0.590551
        },
        {
          "time": 184.365783,
          "name": "D2",
          "midi": 38,
          "duration": 0.108696,
          "velocity": 0.590551
        },
        {
          "time": 184.365783,
          "name": "F#2",
          "midi": 42,
          "duration": 0.108696,
          "velocity": 0.590551
        },
        {
          "time": 184.365783,
          "name": "A2",
          "midi": 45,
          "duration": 0.108696,
          "velocity": 0.590551
        },
        {
          "time": 184.474479,
          "name": "D3",
          "midi": 50,
          "duration": 0.108696,
          "velocity": 0.590551
        },
        {
          "time": 184.583175,
          "name": "D2",
          "midi": 38,
          "duration": 0.108696,
          "velocity": 0.590551
        },
        {
          "time": 184.583175,
          "name": "F#2",
          "midi": 42,
          "duration": 0.108696,
          "velocity": 0.590551
        },
        {
          "time": 184.583175,
          "name": "A2",
          "midi": 45,
          "duration": 0.108696,
          "velocity": 0.590551
        },
        {
          "time": 184.69187,
          "name": "D3",
          "midi": 50,
          "duration": 0.108696,
          "velocity": 0.590551
        },
        {
          "time": 184.800566,
          "name": "D2",
          "midi": 38,
          "duration": 0.108696,
          "velocity": 0.590551
        },
        {
          "time": 184.800566,
          "name": "F#2",
          "midi": 42,
          "duration": 0.108696,
          "velocity": 0.590551
        },
        {
          "time": 184.800566,
          "name": "A2",
          "midi": 45,
          "duration": 0.108696,
          "velocity": 0.590551
        },
        {
          "time": 184.909262,
          "name": "D3",
          "midi": 50,
          "duration": 0.108696,
          "velocity": 0.590551
        },
        {
          "time": 185.017957,
          "name": "D2",
          "midi": 38,
          "duration": 0.108696,
          "velocity": 0.590551
        },
        {
          "time": 185.017957,
          "name": "F#2",
          "midi": 42,
          "duration": 0.108696,
          "velocity": 0.590551
        },
        {
          "time": 185.017957,
          "name": "A2",
          "midi": 45,
          "duration": 0.108696,
          "velocity": 0.590551
        },
        {
          "time": 185.126653,
          "name": "D3",
          "midi": 50,
          "duration": 0.108696,
          "velocity": 0.590551
        },
        {
          "time": 185.235348,
          "name": "D2",
          "midi": 38,
          "duration": 0.108696,
          "velocity": 0.590551
        },
        {
          "time": 185.235348,
          "name": "F#2",
          "midi": 42,
          "duration": 0.108696,
          "velocity": 0.590551
        },
        {
          "time": 185.235348,
          "name": "A2",
          "midi": 45,
          "duration": 0.108696,
          "velocity": 0.590551
        },
        {
          "time": 185.344044,
          "name": "D3",
          "midi": 50,
          "duration": 0.108696,
          "velocity": 0.590551
        },
        {
          "time": 185.45274,
          "name": "D2",
          "midi": 38,
          "duration": 0.108696,
          "velocity": 0.590551
        },
        {
          "time": 185.45274,
          "name": "F#2",
          "midi": 42,
          "duration": 0.108696,
          "velocity": 0.590551
        },
        {
          "time": 185.45274,
          "name": "A2",
          "midi": 45,
          "duration": 0.108696,
          "velocity": 0.590551
        },
        {
          "time": 185.561435,
          "name": "D3",
          "midi": 50,
          "duration": 0.108696,
          "velocity": 0.590551
        },
        {
          "time": 185.670131,
          "name": "G2",
          "midi": 43,
          "duration": 0.108696,
          "velocity": 0.795276
        },
        {
          "time": 185.670131,
          "name": "B2",
          "midi": 47,
          "duration": 0.108696,
          "velocity": 0.795276
        },
        {
          "time": 185.670131,
          "name": "D3",
          "midi": 50,
          "duration": 0.108696,
          "velocity": 0.795276
        },
        {
          "time": 185.778827,
          "name": "G3",
          "midi": 55,
          "duration": 0.108696,
          "velocity": 0.795276
        },
        {
          "time": 185.887522,
          "name": "G2",
          "midi": 43,
          "duration": 0.108696,
          "velocity": 0.590551
        },
        {
          "time": 185.887522,
          "name": "B2",
          "midi": 47,
          "duration": 0.108696,
          "velocity": 0.590551
        },
        {
          "time": 185.887522,
          "name": "D3",
          "midi": 50,
          "duration": 0.108696,
          "velocity": 0.590551
        },
        {
          "time": 185.996218,
          "name": "G3",
          "midi": 55,
          "duration": 0.108696,
          "velocity": 0.590551
        },
        {
          "time": 186.104913,
          "name": "G2",
          "midi": 43,
          "duration": 0.108696,
          "velocity": 0.590551
        },
        {
          "time": 186.104913,
          "name": "B2",
          "midi": 47,
          "duration": 0.108696,
          "velocity": 0.590551
        },
        {
          "time": 186.104913,
          "name": "D3",
          "midi": 50,
          "duration": 0.108696,
          "velocity": 0.590551
        },
        {
          "time": 186.213609,
          "name": "G3",
          "midi": 55,
          "duration": 0.108696,
          "velocity": 0.590551
        },
        {
          "time": 186.322305,
          "name": "G2",
          "midi": 43,
          "duration": 0.108696,
          "velocity": 0.590551
        },
        {
          "time": 186.322305,
          "name": "B2",
          "midi": 47,
          "duration": 0.108696,
          "velocity": 0.590551
        },
        {
          "time": 186.322305,
          "name": "D3",
          "midi": 50,
          "duration": 0.108696,
          "velocity": 0.590551
        },
        {
          "time": 186.431,
          "name": "G3",
          "midi": 55,
          "duration": 0.108696,
          "velocity": 0.590551
        },
        {
          "time": 186.539696,
          "name": "G2",
          "midi": 43,
          "duration": 0.108696,
          "velocity": 0.590551
        },
        {
          "time": 186.539696,
          "name": "B2",
          "midi": 47,
          "duration": 0.108696,
          "velocity": 0.590551
        },
        {
          "time": 186.539696,
          "name": "D3",
          "midi": 50,
          "duration": 0.108696,
          "velocity": 0.590551
        },
        {
          "time": 186.648392,
          "name": "G3",
          "midi": 55,
          "duration": 0.108696,
          "velocity": 0.590551
        },
        {
          "time": 186.757087,
          "name": "G2",
          "midi": 43,
          "duration": 0.108696,
          "velocity": 0.590551
        },
        {
          "time": 186.757087,
          "name": "B2",
          "midi": 47,
          "duration": 0.108696,
          "velocity": 0.590551
        },
        {
          "time": 186.757087,
          "name": "D3",
          "midi": 50,
          "duration": 0.108696,
          "velocity": 0.590551
        },
        {
          "time": 186.865783,
          "name": "G3",
          "midi": 55,
          "duration": 0.108696,
          "velocity": 0.590551
        },
        {
          "time": 186.974479,
          "name": "G2",
          "midi": 43,
          "duration": 0.108696,
          "velocity": 0.590551
        },
        {
          "time": 186.974479,
          "name": "B2",
          "midi": 47,
          "duration": 0.108696,
          "velocity": 0.590551
        },
        {
          "time": 186.974479,
          "name": "D3",
          "midi": 50,
          "duration": 0.108696,
          "velocity": 0.590551
        },
        {
          "time": 187.083174,
          "name": "G3",
          "midi": 55,
          "duration": 0.108696,
          "velocity": 0.590551
        },
        {
          "time": 187.19187,
          "name": "G2",
          "midi": 43,
          "duration": 0.108696,
          "velocity": 0.590551
        },
        {
          "time": 187.19187,
          "name": "B2",
          "midi": 47,
          "duration": 0.108696,
          "velocity": 0.590551
        },
        {
          "time": 187.19187,
          "name": "D3",
          "midi": 50,
          "duration": 0.108696,
          "velocity": 0.590551
        },
        {
          "time": 187.300565,
          "name": "G3",
          "midi": 55,
          "duration": 0.108696,
          "velocity": 0.590551
        },
        {
          "time": 187.409261,
          "name": "E2",
          "midi": 40,
          "duration": 0.108696,
          "velocity": 0.795276
        },
        {
          "time": 187.409261,
          "name": "G2",
          "midi": 43,
          "duration": 0.108696,
          "velocity": 0.795276
        },
        {
          "time": 187.409261,
          "name": "B2",
          "midi": 47,
          "duration": 0.108696,
          "velocity": 0.795276
        },
        {
          "time": 187.517957,
          "name": "E3",
          "midi": 52,
          "duration": 0.108696,
          "velocity": 0.795276
        },
        {
          "time": 187.626652,
          "name": "E2",
          "midi": 40,
          "duration": 0.108696,
          "velocity": 0.590551
        },
        {
          "time": 187.626652,
          "name": "G2",
          "midi": 43,
          "duration": 0.108696,
          "velocity": 0.590551
        },
        {
          "time": 187.626652,
          "name": "B2",
          "midi": 47,
          "duration": 0.108696,
          "velocity": 0.590551
        },
        {
          "time": 187.735348,
          "name": "E3",
          "midi": 52,
          "duration": 0.108696,
          "velocity": 0.590551
        },
        {
          "time": 187.844043,
          "name": "E2",
          "midi": 40,
          "duration": 0.108696,
          "velocity": 0.590551
        },
        {
          "time": 187.844043,
          "name": "G2",
          "midi": 43,
          "duration": 0.108696,
          "velocity": 0.590551
        },
        {
          "time": 187.844043,
          "name": "B2",
          "midi": 47,
          "duration": 0.108696,
          "velocity": 0.590551
        },
        {
          "time": 187.952739,
          "name": "E3",
          "midi": 52,
          "duration": 0.108696,
          "velocity": 0.590551
        },
        {
          "time": 188.061435,
          "name": "E2",
          "midi": 40,
          "duration": 0.108696,
          "velocity": 0.590551
        },
        {
          "time": 188.061435,
          "name": "G2",
          "midi": 43,
          "duration": 0.108696,
          "velocity": 0.590551
        },
        {
          "time": 188.061435,
          "name": "B2",
          "midi": 47,
          "duration": 0.108696,
          "velocity": 0.590551
        },
        {
          "time": 188.17013,
          "name": "E3",
          "midi": 52,
          "duration": 0.108696,
          "velocity": 0.590551
        },
        {
          "time": 188.278826,
          "name": "E2",
          "midi": 40,
          "duration": 0.108696,
          "velocity": 0.590551
        },
        {
          "time": 188.278826,
          "name": "G2",
          "midi": 43,
          "duration": 0.108696,
          "velocity": 0.590551
        },
        {
          "time": 188.278826,
          "name": "B2",
          "midi": 47,
          "duration": 0.108696,
          "velocity": 0.590551
        },
        {
          "time": 188.387522,
          "name": "E3",
          "midi": 52,
          "duration": 0.108696,
          "velocity": 0.590551
        },
        {
          "time": 188.496217,
          "name": "E2",
          "midi": 40,
          "duration": 0.108696,
          "velocity": 0.590551
        },
        {
          "time": 188.496217,
          "name": "G2",
          "midi": 43,
          "duration": 0.108696,
          "velocity": 0.590551
        },
        {
          "time": 188.496217,
          "name": "B2",
          "midi": 47,
          "duration": 0.108696,
          "velocity": 0.590551
        },
        {
          "time": 188.604913,
          "name": "E3",
          "midi": 52,
          "duration": 0.108696,
          "velocity": 0.590551
        },
        {
          "time": 188.713608,
          "name": "E2",
          "midi": 40,
          "duration": 0.108696,
          "velocity": 0.590551
        },
        {
          "time": 188.713608,
          "name": "G2",
          "midi": 43,
          "duration": 0.108696,
          "velocity": 0.590551
        },
        {
          "time": 188.713608,
          "name": "B2",
          "midi": 47,
          "duration": 0.108696,
          "velocity": 0.590551
        },
        {
          "time": 188.822304,
          "name": "E3",
          "midi": 52,
          "duration": 0.108696,
          "velocity": 0.590551
        },
        {
          "time": 188.931,
          "name": "E2",
          "midi": 40,
          "duration": 0.108696,
          "velocity": 0.590551
        },
        {
          "time": 188.931,
          "name": "G2",
          "midi": 43,
          "duration": 0.108696,
          "velocity": 0.590551
        },
        {
          "time": 188.931,
          "name": "B2",
          "midi": 47,
          "duration": 0.108696,
          "velocity": 0.590551
        },
        {
          "time": 189.039695,
          "name": "E3",
          "midi": 52,
          "duration": 0.108696,
          "velocity": 0.590551
        },
        {
          "time": 189.148391,
          "name": "C2",
          "midi": 36,
          "duration": 0.108696,
          "velocity": 0.795276
        },
        {
          "time": 189.148391,
          "name": "E2",
          "midi": 40,
          "duration": 0.108696,
          "velocity": 0.795276
        },
        {
          "time": 189.148391,
          "name": "A2",
          "midi": 45,
          "duration": 0.108696,
          "velocity": 0.795276
        },
        {
          "time": 189.257087,
          "name": "C3",
          "midi": 48,
          "duration": 0.108696,
          "velocity": 0.795276
        },
        {
          "time": 189.365782,
          "name": "C2",
          "midi": 36,
          "duration": 0.108696,
          "velocity": 0.590551
        },
        {
          "time": 189.365782,
          "name": "E2",
          "midi": 40,
          "duration": 0.108696,
          "velocity": 0.590551
        },
        {
          "time": 189.365782,
          "name": "A2",
          "midi": 45,
          "duration": 0.108696,
          "velocity": 0.590551
        },
        {
          "time": 189.474478,
          "name": "C3",
          "midi": 48,
          "duration": 0.108696,
          "velocity": 0.590551
        },
        {
          "time": 189.583173,
          "name": "C2",
          "midi": 36,
          "duration": 0.108696,
          "velocity": 0.590551
        },
        {
          "time": 189.583173,
          "name": "E2",
          "midi": 40,
          "duration": 0.108696,
          "velocity": 0.590551
        },
        {
          "time": 189.583173,
          "name": "A2",
          "midi": 45,
          "duration": 0.108696,
          "velocity": 0.590551
        },
        {
          "time": 189.691869,
          "name": "C3",
          "midi": 48,
          "duration": 0.108696,
          "velocity": 0.590551
        },
        {
          "time": 189.800565,
          "name": "C2",
          "midi": 36,
          "duration": 0.108696,
          "velocity": 0.590551
        },
        {
          "time": 189.800565,
          "name": "E2",
          "midi": 40,
          "duration": 0.108696,
          "velocity": 0.590551
        },
        {
          "time": 189.800565,
          "name": "A2",
          "midi": 45,
          "duration": 0.108696,
          "velocity": 0.590551
        },
        {
          "time": 189.90926,
          "name": "C3",
          "midi": 48,
          "duration": 0.108696,
          "velocity": 0.590551
        },
        {
          "time": 190.017956,
          "name": "C2",
          "midi": 36,
          "duration": 0.108696,
          "velocity": 0.590551
        },
        {
          "time": 190.017956,
          "name": "E2",
          "midi": 40,
          "duration": 0.108696,
          "velocity": 0.590551
        },
        {
          "time": 190.017956,
          "name": "A2",
          "midi": 45,
          "duration": 0.108696,
          "velocity": 0.590551
        },
        {
          "time": 190.126652,
          "name": "C3",
          "midi": 48,
          "duration": 0.108696,
          "velocity": 0.590551
        },
        {
          "time": 190.235347,
          "name": "C2",
          "midi": 36,
          "duration": 0.108696,
          "velocity": 0.590551
        },
        {
          "time": 190.235347,
          "name": "E2",
          "midi": 40,
          "duration": 0.108696,
          "velocity": 0.590551
        },
        {
          "time": 190.235347,
          "name": "A2",
          "midi": 45,
          "duration": 0.108696,
          "velocity": 0.590551
        },
        {
          "time": 190.344043,
          "name": "C3",
          "midi": 48,
          "duration": 0.108696,
          "velocity": 0.590551
        },
        {
          "time": 190.452738,
          "name": "C2",
          "midi": 36,
          "duration": 0.108696,
          "velocity": 0.590551
        },
        {
          "time": 190.452738,
          "name": "E2",
          "midi": 40,
          "duration": 0.108696,
          "velocity": 0.590551
        },
        {
          "time": 190.452738,
          "name": "A2",
          "midi": 45,
          "duration": 0.108696,
          "velocity": 0.590551
        },
        {
          "time": 190.561434,
          "name": "C3",
          "midi": 48,
          "duration": 0.108696,
          "velocity": 0.590551
        },
        {
          "time": 190.67013,
          "name": "C2",
          "midi": 36,
          "duration": 0.108696,
          "velocity": 0.590551
        },
        {
          "time": 190.67013,
          "name": "E2",
          "midi": 40,
          "duration": 0.108696,
          "velocity": 0.590551
        },
        {
          "time": 190.67013,
          "name": "A2",
          "midi": 45,
          "duration": 0.108696,
          "velocity": 0.590551
        },
        {
          "time": 190.778825,
          "name": "C3",
          "midi": 48,
          "duration": 0.108696,
          "velocity": 0.590551
        },
        {
          "time": 190.887521,
          "name": "D2",
          "midi": 38,
          "duration": 0.108696,
          "velocity": 0.795276
        },
        {
          "time": 190.887521,
          "name": "F#2",
          "midi": 42,
          "duration": 0.108696,
          "velocity": 0.795276
        },
        {
          "time": 190.887521,
          "name": "A2",
          "midi": 45,
          "duration": 0.108696,
          "velocity": 0.795276
        },
        {
          "time": 190.996217,
          "name": "D3",
          "midi": 50,
          "duration": 0.108696,
          "velocity": 0.795276
        },
        {
          "time": 191.104912,
          "name": "D2",
          "midi": 38,
          "duration": 0.108696,
          "velocity": 0.590551
        },
        {
          "time": 191.104912,
          "name": "F#2",
          "midi": 42,
          "duration": 0.108696,
          "velocity": 0.590551
        },
        {
          "time": 191.104912,
          "name": "A2",
          "midi": 45,
          "duration": 0.108696,
          "velocity": 0.590551
        },
        {
          "time": 191.213608,
          "name": "D3",
          "midi": 50,
          "duration": 0.108696,
          "velocity": 0.590551
        },
        {
          "time": 191.322304,
          "name": "D2",
          "midi": 38,
          "duration": 0.108696,
          "velocity": 0.590551
        },
        {
          "time": 191.322304,
          "name": "F#2",
          "midi": 42,
          "duration": 0.108696,
          "velocity": 0.590551
        },
        {
          "time": 191.322304,
          "name": "A2",
          "midi": 45,
          "duration": 0.108696,
          "velocity": 0.590551
        },
        {
          "time": 191.430999,
          "name": "D3",
          "midi": 50,
          "duration": 0.108696,
          "velocity": 0.590551
        },
        {
          "time": 191.539695,
          "name": "D2",
          "midi": 38,
          "duration": 0.108696,
          "velocity": 0.590551
        },
        {
          "time": 191.539695,
          "name": "F#2",
          "midi": 42,
          "duration": 0.108696,
          "velocity": 0.590551
        },
        {
          "time": 191.539695,
          "name": "A2",
          "midi": 45,
          "duration": 0.108696,
          "velocity": 0.590551
        },
        {
          "time": 191.64839,
          "name": "D3",
          "midi": 50,
          "duration": 0.108696,
          "velocity": 0.590551
        },
        {
          "time": 191.757086,
          "name": "D2",
          "midi": 38,
          "duration": 0.108696,
          "velocity": 0.590551
        },
        {
          "time": 191.757086,
          "name": "F#2",
          "midi": 42,
          "duration": 0.108696,
          "velocity": 0.590551
        },
        {
          "time": 191.757086,
          "name": "A2",
          "midi": 45,
          "duration": 0.108696,
          "velocity": 0.590551
        },
        {
          "time": 191.865782,
          "name": "D3",
          "midi": 50,
          "duration": 0.108696,
          "velocity": 0.590551
        },
        {
          "time": 191.974477,
          "name": "D2",
          "midi": 38,
          "duration": 0.108696,
          "velocity": 0.590551
        },
        {
          "time": 191.974477,
          "name": "F#2",
          "midi": 42,
          "duration": 0.108696,
          "velocity": 0.590551
        },
        {
          "time": 191.974477,
          "name": "A2",
          "midi": 45,
          "duration": 0.108696,
          "velocity": 0.590551
        },
        {
          "time": 192.083173,
          "name": "D3",
          "midi": 50,
          "duration": 0.108696,
          "velocity": 0.590551
        },
        {
          "time": 192.191868,
          "name": "D2",
          "midi": 38,
          "duration": 0.108696,
          "velocity": 0.590551
        },
        {
          "time": 192.191868,
          "name": "F#2",
          "midi": 42,
          "duration": 0.108696,
          "velocity": 0.590551
        },
        {
          "time": 192.191868,
          "name": "A2",
          "midi": 45,
          "duration": 0.108696,
          "velocity": 0.590551
        },
        {
          "time": 192.300564,
          "name": "D3",
          "midi": 50,
          "duration": 0.108696,
          "velocity": 0.590551
        },
        {
          "time": 192.40926,
          "name": "D2",
          "midi": 38,
          "duration": 0.108696,
          "velocity": 0.590551
        },
        {
          "time": 192.40926,
          "name": "F#2",
          "midi": 42,
          "duration": 0.108696,
          "velocity": 0.590551
        },
        {
          "time": 192.40926,
          "name": "A2",
          "midi": 45,
          "duration": 0.108696,
          "velocity": 0.590551
        },
        {
          "time": 192.517955,
          "name": "D3",
          "midi": 50,
          "duration": 0.108696,
          "velocity": 0.590551
        },
        {
          "time": 192.626651,
          "name": "G1",
          "midi": 31,
          "duration": 0.108696,
          "velocity": 0.795276
        },
        {
          "time": 192.735347,
          "name": "G2",
          "midi": 43,
          "duration": 0.108696,
          "velocity": 0.795276
        },
        {
          "time": 192.844042,
          "name": "G1",
          "midi": 31,
          "duration": 0.108696,
          "velocity": 0.590551
        },
        {
          "time": 192.952738,
          "name": "G2",
          "midi": 43,
          "duration": 0.108696,
          "velocity": 0.590551
        },
        {
          "time": 193.061433,
          "name": "G1",
          "midi": 31,
          "duration": 0.108696,
          "velocity": 0.590551
        },
        {
          "time": 193.170129,
          "name": "G2",
          "midi": 43,
          "duration": 0.108696,
          "velocity": 0.590551
        },
        {
          "time": 193.278825,
          "name": "G1",
          "midi": 31,
          "duration": 0.108696,
          "velocity": 0.590551
        },
        {
          "time": 193.38752,
          "name": "G2",
          "midi": 43,
          "duration": 0.108696,
          "velocity": 0.590551
        },
        {
          "time": 193.496216,
          "name": "G1",
          "midi": 31,
          "duration": 0.108696,
          "velocity": 0.590551
        },
        {
          "time": 193.604912,
          "name": "G2",
          "midi": 43,
          "duration": 0.108696,
          "velocity": 0.590551
        },
        {
          "time": 193.713607,
          "name": "G1",
          "midi": 31,
          "duration": 0.108696,
          "velocity": 0.590551
        },
        {
          "time": 193.822303,
          "name": "G2",
          "midi": 43,
          "duration": 0.108696,
          "velocity": 0.590551
        },
        {
          "time": 193.930998,
          "name": "G1",
          "midi": 31,
          "duration": 0.108696,
          "velocity": 0.590551
        },
        {
          "time": 194.039694,
          "name": "G2",
          "midi": 43,
          "duration": 0.108696,
          "velocity": 0.590551
        },
        {
          "time": 194.14839,
          "name": "G1",
          "midi": 31,
          "duration": 0.108696,
          "velocity": 0.590551
        },
        {
          "time": 194.257085,
          "name": "G2",
          "midi": 43,
          "duration": 0.108696,
          "velocity": 0.590551
        },
        {
          "time": 194.365781,
          "name": "G2",
          "midi": 43,
          "duration": 0.108696,
          "velocity": 0.795276
        },
        {
          "time": 194.474477,
          "name": "F3",
          "midi": 53,
          "duration": 0.108696,
          "velocity": 0.692913
        },
        {
          "time": 194.583172,
          "name": "G2",
          "midi": 43,
          "duration": 0.108696,
          "velocity": 0.488189
        },
        {
          "time": 194.691868,
          "name": "F3",
          "midi": 53,
          "duration": 0.108696,
          "velocity": 0.488189
        },
        {
          "time": 194.800563,
          "name": "G2",
          "midi": 43,
          "duration": 0.108696,
          "velocity": 0.488189
        },
        {
          "time": 194.909259,
          "name": "F3",
          "midi": 53,
          "duration": 0.108696,
          "velocity": 0.488189
        },
        {
          "time": 195.017955,
          "name": "G2",
          "midi": 43,
          "duration": 0.108696,
          "velocity": 0.488189
        },
        {
          "time": 195.12665,
          "name": "F3",
          "midi": 53,
          "duration": 0.108696,
          "velocity": 0.488189
        },
        {
          "time": 195.235346,
          "name": "G2",
          "midi": 43,
          "duration": 0.108696,
          "velocity": 0.488189
        },
        {
          "time": 195.344042,
          "name": "F3",
          "midi": 53,
          "duration": 0.108696,
          "velocity": 0.488189
        },
        {
          "time": 195.452737,
          "name": "G2",
          "midi": 43,
          "duration": 0.108696,
          "velocity": 0.488189
        },
        {
          "time": 195.561433,
          "name": "F3",
          "midi": 53,
          "duration": 0.108696,
          "velocity": 0.488189
        },
        {
          "time": 195.670128,
          "name": "G2",
          "midi": 43,
          "duration": 0.108696,
          "velocity": 0.488189
        },
        {
          "time": 195.778824,
          "name": "F3",
          "midi": 53,
          "duration": 0.108696,
          "velocity": 0.488189
        },
        {
          "time": 195.88752,
          "name": "G2",
          "midi": 43,
          "duration": 0.108696,
          "velocity": 0.488189
        },
        {
          "time": 195.996215,
          "name": "F3",
          "midi": 53,
          "duration": 0.108696,
          "velocity": 0.488189
        },
        {
          "time": 196.104911,
          "name": "G2",
          "midi": 43,
          "duration": 0.108696,
          "velocity": 0.692913
        },
        {
          "time": 196.213607,
          "name": "E3",
          "midi": 52,
          "duration": 0.108696,
          "velocity": 0.692913
        },
        {
          "time": 196.322302,
          "name": "G2",
          "midi": 43,
          "duration": 0.108696,
          "velocity": 0.488189
        },
        {
          "time": 196.430998,
          "name": "E3",
          "midi": 52,
          "duration": 0.108696,
          "velocity": 0.488189
        },
        {
          "time": 196.539693,
          "name": "G2",
          "midi": 43,
          "duration": 0.108696,
          "velocity": 0.488189
        },
        {
          "time": 196.648389,
          "name": "E3",
          "midi": 52,
          "duration": 0.108696,
          "velocity": 0.488189
        },
        {
          "time": 196.757085,
          "name": "G2",
          "midi": 43,
          "duration": 0.108696,
          "velocity": 0.488189
        },
        {
          "time": 196.86578,
          "name": "E3",
          "midi": 52,
          "duration": 0.108696,
          "velocity": 0.488189
        },
        {
          "time": 196.974476,
          "name": "G2",
          "midi": 43,
          "duration": 0.108696,
          "velocity": 0.488189
        },
        {
          "time": 197.083172,
          "name": "E3",
          "midi": 52,
          "duration": 0.108696,
          "velocity": 0.488189
        },
        {
          "time": 197.191867,
          "name": "G2",
          "midi": 43,
          "duration": 0.108696,
          "velocity": 0.488189
        },
        {
          "time": 197.300563,
          "name": "E3",
          "midi": 52,
          "duration": 0.108696,
          "velocity": 0.488189
        },
        {
          "time": 197.409258,
          "name": "G2",
          "midi": 43,
          "duration": 0.108696,
          "velocity": 0.488189
        },
        {
          "time": 197.517954,
          "name": "E3",
          "midi": 52,
          "duration": 0.108696,
          "velocity": 0.488189
        },
        {
          "time": 197.62665,
          "name": "G2",
          "midi": 43,
          "duration": 0.108696,
          "velocity": 0.488189
        },
        {
          "time": 197.735345,
          "name": "E3",
          "midi": 52,
          "duration": 0.108696,
          "velocity": 0.488189
        },
        {
          "time": 197.844041,
          "name": "G2",
          "midi": 43,
          "duration": 0.108696,
          "velocity": 0.692913
        },
        {
          "time": 197.952737,
          "name": "D#3",
          "midi": 51,
          "duration": 0.108696,
          "velocity": 0.692913
        },
        {
          "time": 198.061432,
          "name": "G2",
          "midi": 43,
          "duration": 0.108696,
          "velocity": 0.488189
        },
        {
          "time": 198.170128,
          "name": "D#3",
          "midi": 51,
          "duration": 0.108696,
          "velocity": 0.488189
        },
        {
          "time": 198.278823,
          "name": "G2",
          "midi": 43,
          "duration": 0.108696,
          "velocity": 0.488189
        },
        {
          "time": 198.387519,
          "name": "D#3",
          "midi": 51,
          "duration": 0.108696,
          "velocity": 0.488189
        },
        {
          "time": 198.496215,
          "name": "G2",
          "midi": 43,
          "duration": 0.108696,
          "velocity": 0.488189
        },
        {
          "time": 198.60491,
          "name": "D#3",
          "midi": 51,
          "duration": 0.108696,
          "velocity": 0.488189
        },
        {
          "time": 198.713606,
          "name": "G2",
          "midi": 43,
          "duration": 0.108696,
          "velocity": 0.488189
        },
        {
          "time": 198.822302,
          "name": "D#3",
          "midi": 51,
          "duration": 0.108696,
          "velocity": 0.488189
        },
        {
          "time": 198.930997,
          "name": "G2",
          "midi": 43,
          "duration": 0.108696,
          "velocity": 0.488189
        },
        {
          "time": 199.039693,
          "name": "D#3",
          "midi": 51,
          "duration": 0.108696,
          "velocity": 0.488189
        },
        {
          "time": 199.148388,
          "name": "G2",
          "midi": 43,
          "duration": 0.108696,
          "velocity": 0.488189
        },
        {
          "time": 199.257084,
          "name": "D#3",
          "midi": 51,
          "duration": 0.108696,
          "velocity": 0.488189
        },
        {
          "time": 199.36578,
          "name": "G2",
          "midi": 43,
          "duration": 0.108696,
          "velocity": 0.488189
        },
        {
          "time": 199.474475,
          "name": "D#3",
          "midi": 51,
          "duration": 0.108696,
          "velocity": 0.488189
        },
        {
          "time": 199.583171,
          "name": "G2",
          "midi": 43,
          "duration": 0.108696,
          "velocity": 0.692913
        },
        {
          "time": 199.691867,
          "name": "D3",
          "midi": 50,
          "duration": 0.108696,
          "velocity": 0.692913
        },
        {
          "time": 199.800562,
          "name": "G2",
          "midi": 43,
          "duration": 0.108696,
          "velocity": 0.488189
        },
        {
          "time": 199.909258,
          "name": "D3",
          "midi": 50,
          "duration": 0.108696,
          "velocity": 0.488189
        },
        {
          "time": 200.017953,
          "name": "G2",
          "midi": 43,
          "duration": 0.108696,
          "velocity": 0.488189
        },
        {
          "time": 200.126649,
          "name": "D3",
          "midi": 50,
          "duration": 0.108696,
          "velocity": 0.488189
        },
        {
          "time": 200.235345,
          "name": "G2",
          "midi": 43,
          "duration": 0.108696,
          "velocity": 0.488189
        },
        {
          "time": 200.34404,
          "name": "D3",
          "midi": 50,
          "duration": 0.108696,
          "velocity": 0.488189
        },
        {
          "time": 200.452736,
          "name": "G2",
          "midi": 43,
          "duration": 0.108696,
          "velocity": 0.488189
        },
        {
          "time": 200.561432,
          "name": "D3",
          "midi": 50,
          "duration": 0.108696,
          "velocity": 0.488189
        },
        {
          "time": 200.670127,
          "name": "G2",
          "midi": 43,
          "duration": 0.108696,
          "velocity": 0.488189
        },
        {
          "time": 200.778823,
          "name": "D3",
          "midi": 50,
          "duration": 0.108696,
          "velocity": 0.488189
        },
        {
          "time": 200.887518,
          "name": "G2",
          "midi": 43,
          "duration": 0.108696,
          "velocity": 0.488189
        },
        {
          "time": 200.996214,
          "name": "D3",
          "midi": 50,
          "duration": 0.108696,
          "velocity": 0.488189
        },
        {
          "time": 201.10491,
          "name": "G2",
          "midi": 43,
          "duration": 0.108696,
          "velocity": 0.488189
        },
        {
          "time": 201.213605,
          "name": "D3",
          "midi": 50,
          "duration": 0.108696,
          "velocity": 0.488189
        },
        {
          "time": 201.322301,
          "name": "G2",
          "midi": 43,
          "duration": 0.108696,
          "velocity": 0.692913
        },
        {
          "time": 201.430997,
          "name": "F3",
          "midi": 53,
          "duration": 0.108696,
          "velocity": 0.692913
        },
        {
          "time": 201.539692,
          "name": "G2",
          "midi": 43,
          "duration": 0.108696,
          "velocity": 0.488189
        },
        {
          "time": 201.648388,
          "name": "F3",
          "midi": 53,
          "duration": 0.108696,
          "velocity": 0.488189
        },
        {
          "time": 201.757083,
          "name": "G2",
          "midi": 43,
          "duration": 0.108696,
          "velocity": 0.488189
        },
        {
          "time": 201.865779,
          "name": "F3",
          "midi": 53,
          "duration": 0.108696,
          "velocity": 0.488189
        },
        {
          "time": 201.974475,
          "name": "G2",
          "midi": 43,
          "duration": 0.108696,
          "velocity": 0.488189
        },
        {
          "time": 202.08317,
          "name": "F3",
          "midi": 53,
          "duration": 0.108696,
          "velocity": 0.488189
        },
        {
          "time": 202.191866,
          "name": "G2",
          "midi": 43,
          "duration": 0.108696,
          "velocity": 0.488189
        },
        {
          "time": 202.300562,
          "name": "F3",
          "midi": 53,
          "duration": 0.108696,
          "velocity": 0.488189
        },
        {
          "time": 202.409257,
          "name": "G2",
          "midi": 43,
          "duration": 0.108696,
          "velocity": 0.488189
        },
        {
          "time": 202.517953,
          "name": "F3",
          "midi": 53,
          "duration": 0.108696,
          "velocity": 0.488189
        },
        {
          "time": 202.626648,
          "name": "G2",
          "midi": 43,
          "duration": 0.108696,
          "velocity": 0.488189
        },
        {
          "time": 202.735344,
          "name": "F3",
          "midi": 53,
          "duration": 0.108696,
          "velocity": 0.488189
        },
        {
          "time": 202.84404,
          "name": "G2",
          "midi": 43,
          "duration": 0.108696,
          "velocity": 0.488189
        },
        {
          "time": 202.952735,
          "name": "F3",
          "midi": 53,
          "duration": 0.108696,
          "velocity": 0.488189
        },
        {
          "time": 203.061431,
          "name": "G2",
          "midi": 43,
          "duration": 0.108696,
          "velocity": 0.692913
        },
        {
          "time": 203.170127,
          "name": "E3",
          "midi": 52,
          "duration": 0.108696,
          "velocity": 0.692913
        },
        {
          "time": 203.278822,
          "name": "G2",
          "midi": 43,
          "duration": 0.108696,
          "velocity": 0.488189
        },
        {
          "time": 203.387518,
          "name": "E3",
          "midi": 52,
          "duration": 0.108696,
          "velocity": 0.488189
        },
        {
          "time": 203.496213,
          "name": "G2",
          "midi": 43,
          "duration": 0.108696,
          "velocity": 0.488189
        },
        {
          "time": 203.604909,
          "name": "E3",
          "midi": 52,
          "duration": 0.108696,
          "velocity": 0.488189
        },
        {
          "time": 203.713605,
          "name": "G2",
          "midi": 43,
          "duration": 0.108696,
          "velocity": 0.488189
        },
        {
          "time": 203.8223,
          "name": "E3",
          "midi": 52,
          "duration": 0.108696,
          "velocity": 0.488189
        },
        {
          "time": 203.930996,
          "name": "G2",
          "midi": 43,
          "duration": 0.108696,
          "velocity": 0.488189
        },
        {
          "time": 204.039692,
          "name": "E3",
          "midi": 52,
          "duration": 0.108696,
          "velocity": 0.488189
        },
        {
          "time": 204.148387,
          "name": "G2",
          "midi": 43,
          "duration": 0.108696,
          "velocity": 0.488189
        },
        {
          "time": 204.257083,
          "name": "E3",
          "midi": 52,
          "duration": 0.108696,
          "velocity": 0.488189
        },
        {
          "time": 204.365778,
          "name": "G2",
          "midi": 43,
          "duration": 0.108696,
          "velocity": 0.488189
        },
        {
          "time": 204.474474,
          "name": "E3",
          "midi": 52,
          "duration": 0.108696,
          "velocity": 0.488189
        },
        {
          "time": 204.58317,
          "name": "G2",
          "midi": 43,
          "duration": 0.108696,
          "velocity": 0.488189
        },
        {
          "time": 204.691865,
          "name": "E3",
          "midi": 52,
          "duration": 0.108696,
          "velocity": 0.488189
        },
        {
          "time": 204.800561,
          "name": "G2",
          "midi": 43,
          "duration": 0.108696,
          "velocity": 0.795276
        },
        {
          "time": 204.909257,
          "name": "D#3",
          "midi": 51,
          "duration": 0.108696,
          "velocity": 0.795276
        },
        {
          "time": 205.017952,
          "name": "G2",
          "midi": 43,
          "duration": 0.108696,
          "velocity": 0.590551
        },
        {
          "time": 205.126648,
          "name": "D#3",
          "midi": 51,
          "duration": 0.108696,
          "velocity": 0.590551
        },
        {
          "time": 205.235343,
          "name": "G2",
          "midi": 43,
          "duration": 0.108696,
          "velocity": 0.590551
        },
        {
          "time": 205.344039,
          "name": "D#3",
          "midi": 51,
          "duration": 0.108696,
          "velocity": 0.590551
        },
        {
          "time": 205.452735,
          "name": "G2",
          "midi": 43,
          "duration": 0.108696,
          "velocity": 0.590551
        },
        {
          "time": 205.56143,
          "name": "D#3",
          "midi": 51,
          "duration": 0.108696,
          "velocity": 0.590551
        },
        {
          "time": 205.670126,
          "name": "G2",
          "midi": 43,
          "duration": 0.108696,
          "velocity": 0.590551
        },
        {
          "time": 205.778822,
          "name": "D#3",
          "midi": 51,
          "duration": 0.108696,
          "velocity": 0.590551
        },
        {
          "time": 205.887517,
          "name": "G2",
          "midi": 43,
          "duration": 0.108696,
          "velocity": 0.590551
        },
        {
          "time": 205.996213,
          "name": "D#3",
          "midi": 51,
          "duration": 0.108696,
          "velocity": 0.590551
        },
        {
          "time": 206.104908,
          "name": "G2",
          "midi": 43,
          "duration": 0.108696,
          "velocity": 0.590551
        },
        {
          "time": 206.213604,
          "name": "D#3",
          "midi": 51,
          "duration": 0.108696,
          "velocity": 0.590551
        },
        {
          "time": 206.3223,
          "name": "G2",
          "midi": 43,
          "duration": 0.108696,
          "velocity": 0.590551
        },
        {
          "time": 206.430995,
          "name": "D#3",
          "midi": 51,
          "duration": 0.108696,
          "velocity": 0.590551
        },
        {
          "time": 206.539691,
          "name": "G2",
          "midi": 43,
          "duration": 0.108696,
          "velocity": 0.795276
        },
        {
          "time": 206.648387,
          "name": "D3",
          "midi": 50,
          "duration": 0.108696,
          "velocity": 0.795276
        },
        {
          "time": 206.757082,
          "name": "G2",
          "midi": 43,
          "duration": 0.108696,
          "velocity": 0.590551
        },
        {
          "time": 206.865778,
          "name": "D3",
          "midi": 50,
          "duration": 0.108696,
          "velocity": 0.590551
        },
        {
          "time": 206.974473,
          "name": "G2",
          "midi": 43,
          "duration": 0.108696,
          "velocity": 0.590551
        },
        {
          "time": 207.083169,
          "name": "D3",
          "midi": 50,
          "duration": 0.108696,
          "velocity": 0.590551
        },
        {
          "time": 207.191865,
          "name": "G2",
          "midi": 43,
          "duration": 0.108696,
          "velocity": 0.590551
        },
        {
          "time": 207.30056,
          "name": "D3",
          "midi": 50,
          "duration": 0.108696,
          "velocity": 0.590551
        },
        {
          "time": 207.409256,
          "name": "G2",
          "midi": 43,
          "duration": 0.108696,
          "velocity": 0.590551
        },
        {
          "time": 207.517952,
          "name": "D3",
          "midi": 50,
          "duration": 0.108696,
          "velocity": 0.590551
        },
        {
          "time": 207.626647,
          "name": "G2",
          "midi": 43,
          "duration": 0.108696,
          "velocity": 0.590551
        },
        {
          "time": 207.735343,
          "name": "D3",
          "midi": 50,
          "duration": 0.108696,
          "velocity": 0.590551
        },
        {
          "time": 207.844038,
          "name": "G2",
          "midi": 43,
          "duration": 0.108696,
          "velocity": 0.590551
        },
        {
          "time": 207.952734,
          "name": "D3",
          "midi": 50,
          "duration": 0.108696,
          "velocity": 0.590551
        },
        {
          "time": 208.06143,
          "name": "G2",
          "midi": 43,
          "duration": 0.108696,
          "velocity": 0.590551
        },
        {
          "time": 208.170125,
          "name": "D3",
          "midi": 50,
          "duration": 0.108696,
          "velocity": 0.590551
        },
        {
          "time": 208.278821,
          "name": "G2",
          "midi": 43,
          "duration": 0.108696,
          "velocity": 0.795276
        },
        {
          "time": 208.387517,
          "name": "D#3",
          "midi": 51,
          "duration": 0.108696,
          "velocity": 0.795276
        },
        {
          "time": 208.496212,
          "name": "G2",
          "midi": 43,
          "duration": 0.108696,
          "velocity": 0.590551
        },
        {
          "time": 208.604908,
          "name": "D#3",
          "midi": 51,
          "duration": 0.108696,
          "velocity": 0.590551
        },
        {
          "time": 208.713603,
          "name": "G2",
          "midi": 43,
          "duration": 0.108696,
          "velocity": 0.590551
        },
        {
          "time": 208.822299,
          "name": "D#3",
          "midi": 51,
          "duration": 0.108696,
          "velocity": 0.590551
        },
        {
          "time": 208.930995,
          "name": "G2",
          "midi": 43,
          "duration": 0.108696,
          "velocity": 0.590551
        },
        {
          "time": 209.03969,
          "name": "D#3",
          "midi": 51,
          "duration": 0.108696,
          "velocity": 0.590551
        },
        {
          "time": 209.148386,
          "name": "G2",
          "midi": 43,
          "duration": 0.108696,
          "velocity": 0.590551
        },
        {
          "time": 209.257082,
          "name": "D#3",
          "midi": 51,
          "duration": 0.108696,
          "velocity": 0.590551
        },
        {
          "time": 209.365777,
          "name": "G2",
          "midi": 43,
          "duration": 0.108696,
          "velocity": 0.590551
        },
        {
          "time": 209.474473,
          "name": "D#3",
          "midi": 51,
          "duration": 0.108696,
          "velocity": 0.590551
        },
        {
          "time": 209.583168,
          "name": "G2",
          "midi": 43,
          "duration": 0.108696,
          "velocity": 0.590551
        },
        {
          "time": 209.691864,
          "name": "D#3",
          "midi": 51,
          "duration": 0.108696,
          "velocity": 0.590551
        },
        {
          "time": 209.80056,
          "name": "G2",
          "midi": 43,
          "duration": 0.108696,
          "velocity": 0.590551
        },
        {
          "time": 209.909255,
          "name": "D#3",
          "midi": 51,
          "duration": 0.108696,
          "velocity": 0.590551
        },
        {
          "time": 210.017951,
          "name": "G2",
          "midi": 43,
          "duration": 0.108696,
          "velocity": 0.795276
        },
        {
          "time": 210.126647,
          "name": "D3",
          "midi": 50,
          "duration": 0.108696,
          "velocity": 0.795276
        },
        {
          "time": 210.235342,
          "name": "G2",
          "midi": 43,
          "duration": 0.108696,
          "velocity": 0.590551
        },
        {
          "time": 210.344038,
          "name": "D3",
          "midi": 50,
          "duration": 0.108696,
          "velocity": 0.590551
        },
        {
          "time": 210.452733,
          "name": "G2",
          "midi": 43,
          "duration": 0.108696,
          "velocity": 0.590551
        },
        {
          "time": 210.561429,
          "name": "D3",
          "midi": 50,
          "duration": 0.108696,
          "velocity": 0.590551
        },
        {
          "time": 210.670125,
          "name": "G2",
          "midi": 43,
          "duration": 0.108696,
          "velocity": 0.590551
        },
        {
          "time": 210.77882,
          "name": "D3",
          "midi": 50,
          "duration": 0.108696,
          "velocity": 0.590551
        },
        {
          "time": 210.887516,
          "name": "G2",
          "midi": 43,
          "duration": 0.108696,
          "velocity": 0.590551
        },
        {
          "time": 210.996212,
          "name": "D3",
          "midi": 50,
          "duration": 0.108696,
          "velocity": 0.590551
        },
        {
          "time": 211.104907,
          "name": "G2",
          "midi": 43,
          "duration": 0.108696,
          "velocity": 0.590551
        },
        {
          "time": 211.213603,
          "name": "D3",
          "midi": 50,
          "duration": 0.108696,
          "velocity": 0.590551
        },
        {
          "time": 211.322298,
          "name": "G2",
          "midi": 43,
          "duration": 0.108696,
          "velocity": 0.590551
        },
        {
          "time": 211.430994,
          "name": "D3",
          "midi": 50,
          "duration": 0.108696,
          "velocity": 0.590551
        },
        {
          "time": 211.53969,
          "name": "G2",
          "midi": 43,
          "duration": 0.108696,
          "velocity": 0.590551
        },
        {
          "time": 211.648385,
          "name": "D3",
          "midi": 50,
          "duration": 0.108696,
          "velocity": 0.590551
        },
        {
          "time": 211.757081,
          "name": "G2",
          "midi": 43,
          "duration": 0.108696,
          "velocity": 0.795276
        },
        {
          "time": 211.865777,
          "name": "D#3",
          "midi": 51,
          "duration": 0.108696,
          "velocity": 0.795276
        },
        {
          "time": 211.974472,
          "name": "G2",
          "midi": 43,
          "duration": 0.108696,
          "velocity": 0.590551
        },
        {
          "time": 212.083168,
          "name": "D#3",
          "midi": 51,
          "duration": 0.108696,
          "velocity": 0.590551
        },
        {
          "time": 212.191863,
          "name": "G2",
          "midi": 43,
          "duration": 0.108696,
          "velocity": 0.590551
        },
        {
          "time": 212.300559,
          "name": "D#3",
          "midi": 51,
          "duration": 0.108696,
          "velocity": 0.590551
        },
        {
          "time": 212.409255,
          "name": "G2",
          "midi": 43,
          "duration": 0.108696,
          "velocity": 0.590551
        },
        {
          "time": 212.51795,
          "name": "D#3",
          "midi": 51,
          "duration": 0.108696,
          "velocity": 0.590551
        },
        {
          "time": 212.626646,
          "name": "G2",
          "midi": 43,
          "duration": 0.108696,
          "velocity": 0.590551
        },
        {
          "time": 212.735342,
          "name": "D#3",
          "midi": 51,
          "duration": 0.108696,
          "velocity": 0.590551
        },
        {
          "time": 212.844037,
          "name": "G2",
          "midi": 43,
          "duration": 0.108696,
          "velocity": 0.590551
        },
        {
          "time": 212.952733,
          "name": "D#3",
          "midi": 51,
          "duration": 0.108696,
          "velocity": 0.590551
        },
        {
          "time": 213.061428,
          "name": "G2",
          "midi": 43,
          "duration": 0.108696,
          "velocity": 0.590551
        },
        {
          "time": 213.170124,
          "name": "D#3",
          "midi": 51,
          "duration": 0.108696,
          "velocity": 0.590551
        },
        {
          "time": 213.27882,
          "name": "G2",
          "midi": 43,
          "duration": 0.108696,
          "velocity": 0.590551
        },
        {
          "time": 213.387515,
          "name": "D#3",
          "midi": 51,
          "duration": 0.108696,
          "velocity": 0.590551
        },
        {
          "time": 213.496211,
          "name": "G2",
          "midi": 43,
          "duration": 0.108696,
          "velocity": 0.795276
        },
        {
          "time": 213.604907,
          "name": "D3",
          "midi": 50,
          "duration": 0.108696,
          "velocity": 0.795276
        },
        {
          "time": 213.713602,
          "name": "G2",
          "midi": 43,
          "duration": 0.108696,
          "velocity": 0.590551
        },
        {
          "time": 213.822298,
          "name": "D3",
          "midi": 50,
          "duration": 0.108696,
          "velocity": 0.590551
        },
        {
          "time": 213.930993,
          "name": "G2",
          "midi": 43,
          "duration": 0.108696,
          "velocity": 0.590551
        },
        {
          "time": 214.039689,
          "name": "D3",
          "midi": 50,
          "duration": 0.108696,
          "velocity": 0.590551
        },
        {
          "time": 214.148385,
          "name": "G2",
          "midi": 43,
          "duration": 0.108696,
          "velocity": 0.590551
        },
        {
          "time": 214.25708,
          "name": "D3",
          "midi": 50,
          "duration": 0.108696,
          "velocity": 0.590551
        },
        {
          "time": 214.365776,
          "name": "G2",
          "midi": 43,
          "duration": 0.108696,
          "velocity": 0.590551
        },
        {
          "time": 214.474472,
          "name": "D3",
          "midi": 50,
          "duration": 0.108696,
          "velocity": 0.590551
        },
        {
          "time": 214.583167,
          "name": "G2",
          "midi": 43,
          "duration": 0.108696,
          "velocity": 0.590551
        },
        {
          "time": 214.691863,
          "name": "D3",
          "midi": 50,
          "duration": 0.108696,
          "velocity": 0.590551
        },
        {
          "time": 214.800558,
          "name": "G2",
          "midi": 43,
          "duration": 0.108696,
          "velocity": 0.590551
        },
        {
          "time": 214.909254,
          "name": "D3",
          "midi": 50,
          "duration": 0.108696,
          "velocity": 0.590551
        },
        {
          "time": 215.01795,
          "name": "G2",
          "midi": 43,
          "duration": 0.108696,
          "velocity": 0.590551
        },
        {
          "time": 215.126645,
          "name": "D3",
          "midi": 50,
          "duration": 0.108696,
          "velocity": 0.590551
        },
        {
          "time": 215.235341,
          "name": "G2",
          "midi": 43,
          "duration": 0.108696,
          "velocity": 1
        },
        {
          "time": 215.344037,
          "name": "B2",
          "midi": 47,
          "duration": 0.108696,
          "velocity": 0.795276
        },
        {
          "time": 215.452732,
          "name": "G2",
          "midi": 43,
          "duration": 0.108696,
          "velocity": 0.590551
        },
        {
          "time": 215.561428,
          "name": "B2",
          "midi": 47,
          "duration": 0.108696,
          "velocity": 0.590551
        },
        {
          "time": 215.670123,
          "name": "G2",
          "midi": 43,
          "duration": 0.108696,
          "velocity": 0.590551
        },
        {
          "time": 215.778819,
          "name": "B2",
          "midi": 47,
          "duration": 0.108696,
          "velocity": 0.590551
        },
        {
          "time": 215.887515,
          "name": "G2",
          "midi": 43,
          "duration": 0.108696,
          "velocity": 0.590551
        },
        {
          "time": 215.99621,
          "name": "B2",
          "midi": 47,
          "duration": 0.108696,
          "velocity": 0.590551
        },
        {
          "time": 216.104906,
          "name": "G2",
          "midi": 43,
          "duration": 0.108696,
          "velocity": 0.590551
        },
        {
          "time": 216.213602,
          "name": "B2",
          "midi": 47,
          "duration": 0.108696,
          "velocity": 0.590551
        },
        {
          "time": 216.322297,
          "name": "G2",
          "midi": 43,
          "duration": 0.108696,
          "velocity": 0.590551
        },
        {
          "time": 216.430993,
          "name": "B2",
          "midi": 47,
          "duration": 0.108696,
          "velocity": 0.590551
        },
        {
          "time": 216.539688,
          "name": "G2",
          "midi": 43,
          "duration": 0.108696,
          "velocity": 0.590551
        },
        {
          "time": 216.648384,
          "name": "B2",
          "midi": 47,
          "duration": 0.108696,
          "velocity": 0.590551
        },
        {
          "time": 216.75708,
          "name": "G2",
          "midi": 43,
          "duration": 0.108696,
          "velocity": 0.590551
        },
        {
          "time": 216.865775,
          "name": "B2",
          "midi": 47,
          "duration": 0.108696,
          "velocity": 0.590551
        },
        {
          "time": 216.974471,
          "name": "D2",
          "midi": 38,
          "duration": 0.108696,
          "velocity": 0.795276
        },
        {
          "time": 217.083167,
          "name": "G2",
          "midi": 43,
          "duration": 0.108696,
          "velocity": 0.795276
        },
        {
          "time": 217.191862,
          "name": "D2",
          "midi": 38,
          "duration": 0.108696,
          "velocity": 0.590551
        },
        {
          "time": 217.300558,
          "name": "G2",
          "midi": 43,
          "duration": 0.108696,
          "velocity": 0.590551
        },
        {
          "time": 217.409253,
          "name": "D2",
          "midi": 38,
          "duration": 0.108696,
          "velocity": 0.590551
        },
        {
          "time": 217.517949,
          "name": "G2",
          "midi": 43,
          "duration": 0.108696,
          "velocity": 0.590551
        },
        {
          "time": 217.626645,
          "name": "D2",
          "midi": 38,
          "duration": 0.108696,
          "velocity": 0.590551
        },
        {
          "time": 217.73534,
          "name": "G2",
          "midi": 43,
          "duration": 0.108696,
          "velocity": 0.590551
        },
        {
          "time": 217.844036,
          "name": "D2",
          "midi": 38,
          "duration": 0.108696,
          "velocity": 0.590551
        },
        {
          "time": 217.952732,
          "name": "G2",
          "midi": 43,
          "duration": 0.108696,
          "velocity": 0.590551
        },
        {
          "time": 218.061427,
          "name": "D2",
          "midi": 38,
          "duration": 0.108696,
          "velocity": 0.590551
        },
        {
          "time": 218.170123,
          "name": "G2",
          "midi": 43,
          "duration": 0.108696,
          "velocity": 0.590551
        },
        {
          "time": 218.278818,
          "name": "D2",
          "midi": 38,
          "duration": 0.108696,
          "velocity": 0.590551
        },
        {
          "time": 218.387514,
          "name": "G2",
          "midi": 43,
          "duration": 0.108696,
          "velocity": 0.590551
        },
        {
          "time": 218.49621,
          "name": "D2",
          "midi": 38,
          "duration": 0.108696,
          "velocity": 0.590551
        },
        {
          "time": 218.604905,
          "name": "G2",
          "midi": 43,
          "duration": 0.108696,
          "velocity": 0.590551
        },
        {
          "time": 218.713601,
          "name": "B1",
          "midi": 35,
          "duration": 0.108696,
          "velocity": 0.795276
        },
        {
          "time": 218.822297,
          "name": "D2",
          "midi": 38,
          "duration": 0.108696,
          "velocity": 0.795276
        },
        {
          "time": 218.930992,
          "name": "B1",
          "midi": 35,
          "duration": 0.108696,
          "velocity": 0.590551
        },
        {
          "time": 219.039688,
          "name": "D2",
          "midi": 38,
          "duration": 0.108696,
          "velocity": 0.590551
        },
        {
          "time": 219.148383,
          "name": "B1",
          "midi": 35,
          "duration": 0.108696,
          "velocity": 0.590551
        },
        {
          "time": 219.257079,
          "name": "D2",
          "midi": 38,
          "duration": 0.108696,
          "velocity": 0.590551
        },
        {
          "time": 219.365775,
          "name": "B1",
          "midi": 35,
          "duration": 0.108696,
          "velocity": 0.590551
        },
        {
          "time": 219.47447,
          "name": "D2",
          "midi": 38,
          "duration": 0.108696,
          "velocity": 0.590551
        },
        {
          "time": 219.583166,
          "name": "B1",
          "midi": 35,
          "duration": 0.108696,
          "velocity": 0.590551
        },
        {
          "time": 219.691862,
          "name": "D2",
          "midi": 38,
          "duration": 0.108696,
          "velocity": 0.590551
        },
        {
          "time": 219.800557,
          "name": "B1",
          "midi": 35,
          "duration": 0.108696,
          "velocity": 0.590551
        },
        {
          "time": 219.909253,
          "name": "D2",
          "midi": 38,
          "duration": 0.090747,
          "velocity": 0.590551
        }
      ]
    },
    {
      "id": 4,
      "instrument": "contrabass",
      "startTime": 0,
      "duration": 220.08,
      "length": 0,
      "notes": []
    }
  ]
}
