{
  "header": {
    "PPQ": 120,
    "bpm": 80,
    "timeSignature": [
      3,
      4
    ],
    "name": "Swan Lake (excerpt)"
  },
  "startTime": 0,
  "duration": 667.193676,
  "tracks": [
    {
      "id": 0,
      "instrument": "violin",
      "startTime": 0,
      "duration": 667.193676,
      "length": 5502,
      "notes": [
        {
          "time": 0.75,
          "name": "A4",
          "midi": 69,
          "duration": 0.335294,
          "velocity": 0.88189
        },
        {
          "time": 0.75,
          "name": "A5",
          "midi": 81,
          "duration": 0.335294,
          "velocity": 0.88189
        },
        {
          "time": 0.752941,
          "name": "A5",
          "midi": 81,
          "duration": 0.335294,
          "velocity": 0.811024
        },
        {
          "time": 0.755882,
          "name": "A5",
          "midi": 81,
          "duration": 0.335294,
          "velocity": 0.834646
        },
        {
          "time": 0.758824,
          "name": "E5",
          "midi": 76,
          "duration": 0.335294,
          "velocity": 0.818898
        },
        {
          "time": 0.758824,
          "name": "C#5",
          "midi": 73,
          "duration": 0.335294,
          "velocity": 0.818898
        },
        {
          "time": 1.102941,
          "name": "A5",
          "midi": 81,
          "duration": 0.725355,
          "velocity": 0.88189
        },
        {
          "time": 1.102941,
          "name": "A4",
          "midi": 69,
          "duration": 0.725355,
          "velocity": 0.88189
        },
        {
          "time": 1.105882,
          "name": "A5",
          "midi": 81,
          "duration": 0.725862,
          "velocity": 0.811024
        },
        {
          "time": 1.108823,
          "name": "A5",
          "midi": 81,
          "duration": 0.726369,
          "velocity": 0.834646
        },
        {
          "time": 1.111765,
          "name": "E5",
          "midi": 76,
          "duration": 0.726876,
          "velocity": 0.818898
        },
        {
          "time": 1.111765,
          "name": "C#5",
          "midi": 73,
          "duration": 0.726876,
          "velocity": 0.818898
        },
        {
          "time": 1.869675,
          "name": "D5",
          "midi": 74,
          "duration": 0.335294,
          "velocity": 0.88189
        },
        {
          "time": 1.869675,
          "name": "B5",
          "midi": 83,
          "duration": 0.335294,
          "velocity": 0.88189
        },
        {
          "time": 1.872616,
          "name": "B5",
          "midi": 83,
          "duration": 0.335294,
          "velocity": 0.811024
        },
        {
          "time": 1.875557,
          "name": "B5",
          "midi": 83,
          "duration": 0.335294,
          "velocity": 0.834646
        },
        {
          "time": 1.878499,
          "name": "F5",
          "midi": 77,
          "duration": 0.335294,
          "velocity": 0.818898
        },
        {
          "time": 1.878499,
          "name": "D5",
          "midi": 74,
          "duration": 0.335294,
          "velocity": 0.818898
        },
        {
          "time": 2.222616,
          "name": "B5",
          "midi": 83,
          "duration": 0.725355,
          "velocity": 0.88189
        },
        {
          "time": 2.222616,
          "name": "D5",
          "midi": 74,
          "duration": 0.725355,
          "velocity": 0.88189
        },
        {
          "time": 2.225557,
          "name": "B5",
          "midi": 83,
          "duration": 0.725862,
          "velocity": 0.811024
        },
        {
          "time": 2.228498,
          "name": "B5",
          "midi": 83,
          "duration": 0.726369,
          "velocity": 0.834646
        },
        {
          "time": 2.23144,
          "name": "F5",
          "midi": 77,
          "duration": 0.726876,
          "velocity": 0.818898
        },
        {
          "time": 2.23144,
          "name": "D5",
          "midi": 74,
          "duration": 0.726876,
          "velocity": 0.818898
        },
        {
          "time": 2.98935,
          "name": "E5",
          "midi": 76,
          "duration": 0.335294,
          "velocity": 0.88189
        },
        {
          "time": 2.98935,
          "name": "C#6",
          "midi": 85,
          "duration": 0.335294,
          "velocity": 0.88189
        },
        {
          "time": 2.992291,
          "name": "C#6",
          "midi": 85,
          "duration": 0.335294,
          "velocity": 0.811024
        },
        {
          "time": 2.995232,
          "name": "C#6",
          "midi": 85,
          "duration": 0.335294,
          "velocity": 0.834646
        },
        {
          "time": 2.998174,
          "name": "A5",
          "midi": 81,
          "duration": 0.335294,
          "velocity": 0.818898
        },
        {
          "time": 2.998174,
          "name": "E5",
          "midi": 76,
          "duration": 0.335294,
          "velocity": 0.818898
        },
        {
          "time": 3.342291,
          "name": "E5",
          "midi": 76,
          "duration": 0.528803,
          "velocity": 0.88189
        },
        {
          "time": 3.342291,
          "name": "C#6",
          "midi": 85,
          "duration": 0.528803,
          "velocity": 0.88189
        },
        {
          "time": 3.345232,
          "name": "C#6",
          "midi": 85,
          "duration": 0.52931,
          "velocity": 0.811024
        },
        {
          "time": 3.348173,
          "name": "C#6",
          "midi": 85,
          "duration": 0.529817,
          "velocity": 0.834646
        },
        {
          "time": 3.351115,
          "name": "A5",
          "midi": 81,
          "duration": 0.530324,
          "velocity": 0.818898
        },
        {
          "time": 3.351115,
          "name": "E5",
          "midi": 76,
          "duration": 0.530324,
          "velocity": 0.818898
        },
        {
          "time": 3.902128,
          "name": "D6",
          "midi": 86,
          "duration": 0.196552,
          "velocity": 0.88189
        },
        {
          "time": 3.905577,
          "name": "D6",
          "midi": 86,
          "duration": 0.196552,
          "velocity": 0.811024
        },
        {
          "time": 3.909025,
          "name": "D6",
          "midi": 86,
          "duration": 0.196552,
          "velocity": 0.834646
        },
        {
          "time": 3.912473,
          "name": "D6",
          "midi": 86,
          "duration": 0.196552,
          "velocity": 0.818898
        },
        {
          "time": 3.912473,
          "name": "A5",
          "midi": 81,
          "duration": 0.196552,
          "velocity": 0.818898
        },
        {
          "time": 4.109025,
          "name": "E6",
          "midi": 88,
          "duration": 0.335294,
          "velocity": 0.88189
        },
        {
          "time": 4.109025,
          "name": "A4",
          "midi": 69,
          "duration": 0.335294,
          "velocity": 0.88189
        },
        {
          "time": 4.111966,
          "name": "E6",
          "midi": 88,
          "duration": 0.335294,
          "velocity": 0.811024
        },
        {
          "time": 4.114907,
          "name": "E6",
          "midi": 88,
          "duration": 0.335294,
          "velocity": 0.834646
        },
        {
          "time": 4.117849,
          "name": "C#6",
          "midi": 85,
          "duration": 0.335294,
          "velocity": 0.818898
        },
        {
          "time": 4.117849,
          "name": "A5",
          "midi": 81,
          "duration": 0.335294,
          "velocity": 0.818898
        },
        {
          "time": 5.2287,
          "name": "C#6",
          "midi": 85,
          "duration": 0.335294,
          "velocity": 0.88189
        },
        {
          "time": 5.2287,
          "name": "A4",
          "midi": 69,
          "duration": 0.335294,
          "velocity": 0.88189
        },
        {
          "time": 5.231641,
          "name": "C#6",
          "midi": 85,
          "duration": 0.335294,
          "velocity": 0.811024
        },
        {
          "time": 5.234582,
          "name": "C#6",
          "midi": 85,
          "duration": 0.335294,
          "velocity": 0.834646
        },
        {
          "time": 5.237524,
          "name": "A5",
          "midi": 81,
          "duration": 0.335294,
          "velocity": 0.818898
        },
        {
          "time": 5.237524,
          "name": "E5",
          "midi": 76,
          "duration": 0.335294,
          "velocity": 0.818898
        },
        {
          "time": 5.581641,
          "name": "C#6",
          "midi": 85,
          "duration": 0.725355,
          "velocity": 0.88189
        },
        {
          "time": 5.581641,
          "name": "A4",
          "midi": 69,
          "duration": 0.725355,
          "velocity": 0.88189
        },
        {
          "time": 5.584582,
          "name": "C#6",
          "midi": 85,
          "duration": 0.725862,
          "velocity": 0.811024
        },
        {
          "time": 5.587523,
          "name": "C#6",
          "midi": 85,
          "duration": 0.726369,
          "velocity": 0.834646
        },
        {
          "time": 5.590465,
          "name": "A5",
          "midi": 81,
          "duration": 0.726876,
          "velocity": 0.818898
        },
        {
          "time": 5.590465,
          "name": "E5",
          "midi": 76,
          "duration": 0.726876,
          "velocity": 0.818898
        },
        {
          "time": 6.348375,
          "name": "D6",
          "midi": 86,
          "duration": 0.335294,
          "velocity": 0.88189
        },
        {
          "time": 6.351316,
          "name": "D6",
          "midi": 86,
          "duration": 0.335294,
          "velocity": 0.811024
        },
        {
          "time": 6.354257,
          "name": "D6",
          "midi": 86,
          "duration": 0.335294,
          "velocity": 0.834646
        },
        {
          "time": 6.357199,
          "name": "B5",
          "midi": 83,
          "duration": 0.335294,
          "velocity": 0.818898
        },
        {
          "time": 6.357199,
          "name": "G#5",
          "midi": 80,
          "duration": 0.335294,
          "velocity": 0.818898
        },
        {
          "time": 6.701316,
          "name": "D6",
          "midi": 86,
          "duration": 0.725355,
          "velocity": 0.88189
        },
        {
          "time": 6.704257,
          "name": "D6",
          "midi": 86,
          "duration": 0.725862,
          "velocity": 0.811024
        },
        {
          "time": 6.707198,
          "name": "D6",
          "midi": 86,
          "duration": 0.726369,
          "velocity": 0.834646
        },
        {
          "time": 6.71014,
          "name": "B5",
          "midi": 83,
          "duration": 0.726876,
          "velocity": 0.818898
        },
        {
          "time": 6.71014,
          "name": "G#5",
          "midi": 80,
          "duration": 0.726876,
          "velocity": 0.818898
        },
        {
          "time": 7.46805,
          "name": "E6",
          "midi": 88,
          "duration": 0.335294,
          "velocity": 0.88189
        },
        {
          "time": 7.470991,
          "name": "E6",
          "midi": 88,
          "duration": 0.335294,
          "velocity": 0.811024
        },
        {
          "time": 7.473932,
          "name": "E6",
          "midi": 88,
          "duration": 0.335294,
          "velocity": 0.834646
        },
        {
          "time": 7.476874,
          "name": "C#6",
          "midi": 85,
          "duration": 0.335294,
          "velocity": 0.818898
        },
        {
          "time": 7.476874,
          "name": "A5",
          "midi": 81,
          "duration": 0.335294,
          "velocity": 0.818898
        },
        {
          "time": 7.820991,
          "name": "E6",
          "midi": 88,
          "duration": 0.528803,
          "velocity": 0.88189
        },
        {
          "time": 7.823932,
          "name": "E6",
          "midi": 88,
          "duration": 0.52931,
          "velocity": 0.811024
        },
        {
          "time": 7.826873,
          "name": "E6",
          "midi": 88,
          "duration": 0.529817,
          "velocity": 0.834646
        },
        {
          "time": 7.829815,
          "name": "C#6",
          "midi": 85,
          "duration": 0.530324,
          "velocity": 0.818898
        },
        {
          "time": 7.829815,
          "name": "A5",
          "midi": 81,
          "duration": 0.530324,
          "velocity": 0.818898
        },
        {
          "time": 8.380828,
          "name": "F#6",
          "midi": 90,
          "duration": 0.196552,
          "velocity": 0.88189
        },
        {
          "time": 8.384277,
          "name": "F#6",
          "midi": 90,
          "duration": 0.196552,
          "velocity": 0.811024
        },
        {
          "time": 8.387725,
          "name": "F#6",
          "midi": 90,
          "duration": 0.196552,
          "velocity": 0.834646
        },
        {
          "time": 8.391173,
          "name": "D6",
          "midi": 86,
          "duration": 0.196552,
          "velocity": 0.818898
        },
        {
          "time": 8.391173,
          "name": "A5",
          "midi": 81,
          "duration": 0.196552,
          "velocity": 0.818898
        },
        {
          "time": 8.587725,
          "name": "G6",
          "midi": 91,
          "duration": 0.335294,
          "velocity": 0.88189
        },
        {
          "time": 8.590666,
          "name": "G6",
          "midi": 91,
          "duration": 0.335294,
          "velocity": 0.811024
        },
        {
          "time": 8.593607,
          "name": "G6",
          "midi": 91,
          "duration": 0.335294,
          "velocity": 0.834646
        },
        {
          "time": 8.596549,
          "name": "E6",
          "midi": 88,
          "duration": 0.335294,
          "velocity": 0.818898
        },
        {
          "time": 8.596549,
          "name": "A5",
          "midi": 81,
          "duration": 0.335294,
          "velocity": 0.818898
        },
        {
          "time": 9.793607,
          "name": "A3",
          "midi": 57,
          "duration": 0.240964,
          "velocity": 0.88189
        },
        {
          "time": 10.275535,
          "name": "A3",
          "midi": 57,
          "duration": 0.781758,
          "velocity": 0.88189
        },
        {
          "time": 11.057293,
          "name": "A#3",
          "midi": 58,
          "duration": 0.25862,
          "velocity": 0.88189
        },
        {
          "time": 11.574534,
          "name": "A#3",
          "midi": 58,
          "duration": 0.83916,
          "velocity": 0.88189
        },
        {
          "time": 12.413694,
          "name": "B3",
          "midi": 59,
          "duration": 0.255319,
          "velocity": 0.88189
        },
        {
          "time": 12.924332,
          "name": "B3",
          "midi": 59,
          "duration": 0.882352,
          "velocity": 0.88189
        },
        {
          "time": 13.806684,
          "name": "C#4",
          "midi": 61,
          "duration": 0.25974,
          "velocity": 0.88189
        },
        {
          "time": 14.326165,
          "name": "C#4",
          "midi": 61,
          "duration": 0.930232,
          "velocity": 0.88189
        },
        {
          "time": 15.256397,
          "name": "D4",
          "midi": 62,
          "duration": 0.2,
          "velocity": 0.88189
        },
        {
          "time": 15.656397,
          "name": "D4",
          "midi": 62,
          "duration": 0.78531,
          "velocity": 1
        },
        {
          "time": 16.441707,
          "name": "C#4",
          "midi": 61,
          "duration": 0.176471,
          "velocity": 0.88189
        },
        {
          "time": 16.794648,
          "name": "C#4",
          "midi": 61,
          "duration": 0.766734,
          "velocity": 1
        },
        {
          "time": 17.561382,
          "name": "E4",
          "midi": 64,
          "duration": 0.176471,
          "velocity": 0.88189
        },
        {
          "time": 17.914323,
          "name": "E4",
          "midi": 64,
          "duration": 0.559837,
          "velocity": 1
        },
        {
          "time": 18.47416,
          "name": "D4",
          "midi": 62,
          "duration": 0.206896,
          "velocity": 0.88189
        },
        {
          "time": 18.681057,
          "name": "A3",
          "midi": 57,
          "duration": 1.119675,
          "velocity": 0.88189
        },
        {
          "time": 19.800732,
          "name": "D4",
          "midi": 62,
          "duration": 0.176471,
          "velocity": 0.88189
        },
        {
          "time": 20.153673,
          "name": "D4",
          "midi": 62,
          "duration": 0.766734,
          "velocity": 1
        },
        {
          "time": 20.920407,
          "name": "C#4",
          "midi": 61,
          "duration": 0.176471,
          "velocity": 0.88189
        },
        {
          "time": 21.273348,
          "name": "C#4",
          "midi": 61,
          "duration": 0.766734,
          "velocity": 1
        },
        {
          "time": 22.040082,
          "name": "B3",
          "midi": 59,
          "duration": 0.352941,
          "velocity": 0.88189
        },
        {
          "time": 22.393023,
          "name": "C#4",
          "midi": 61,
          "duration": 0.559837,
          "velocity": 1
        },
        {
          "time": 22.95286,
          "name": "D#4",
          "midi": 63,
          "duration": 0.206896,
          "velocity": 0.88189
        },
        {
          "time": 23.159757,
          "name": "E4",
          "midi": 64,
          "duration": 1.119675,
          "velocity": 0.88189
        },
        {
          "time": 24.279432,
          "name": "D5",
          "midi": 74,
          "duration": 0.176471,
          "velocity": 0.88189
        },
        {
          "time": 24.632373,
          "name": "D5",
          "midi": 74,
          "duration": 0.766734,
          "velocity": 1
        },
        {
          "time": 25.399107,
          "name": "C#5",
          "midi": 73,
          "duration": 0.176471,
          "velocity": 0.88189
        },
        {
          "time": 25.752048,
          "name": "C#5",
          "midi": 73,
          "duration": 0.766734,
          "velocity": 1
        },
        {
          "time": 26.518782,
          "name": "B4",
          "midi": 71,
          "duration": 0.308823,
          "velocity": 0.88189
        },
        {
          "time": 26.871723,
          "name": "B4",
          "midi": 71,
          "duration": 0.308823,
          "velocity": 0.88189
        },
        {
          "time": 27.224664,
          "name": "B4",
          "midi": 71,
          "duration": 0.362069,
          "velocity": 0.88189
        },
        {
          "time": 27.638457,
          "name": "B4",
          "midi": 71,
          "duration": 0.352941,
          "velocity": 0.88189
        },
        {
          "time": 27.991398,
          "name": "C#5",
          "midi": 73,
          "duration": 0.17647,
          "velocity": 0.88189
        },
        {
          "time": 28.167868,
          "name": "B4",
          "midi": 71,
          "duration": 0.176471,
          "velocity": 0.88189
        },
        {
          "time": 28.344339,
          "name": "A4",
          "midi": 69,
          "duration": 0.413793,
          "velocity": 0.88189
        },
        {
          "time": 28.758132,
          "name": "B4",
          "midi": 71,
          "duration": 0.308823,
          "velocity": 0.88189
        },
        {
          "time": 29.111073,
          "name": "B4",
          "midi": 71,
          "duration": 0.308823,
          "velocity": 0.88189
        },
        {
          "time": 29.464014,
          "name": "B4",
          "midi": 71,
          "duration": 0.362069,
          "velocity": 0.88189
        },
        {
          "time": 29.877807,
          "name": "B4",
          "midi": 71,
          "duration": 0.352941,
          "velocity": 0.88189
        },
        {
          "time": 30.230748,
          "name": "C#5",
          "midi": 73,
          "duration": 0.17647,
          "velocity": 0.88189
        },
        {
          "time": 30.407218,
          "name": "B4",
          "midi": 71,
          "duration": 0.176471,
          "velocity": 0.88189
        },
        {
          "time": 30.583689,
          "name": "A4",
          "midi": 69,
          "duration": 0.413793,
          "velocity": 0.88189
        },
        {
          "time": 30.997482,
          "name": "B4",
          "midi": 71,
          "duration": 0.176471,
          "velocity": 0.88189
        },
        {
          "time": 31.173952,
          "name": "A4",
          "midi": 69,
          "duration": 0.176471,
          "velocity": 0.88189
        },
        {
          "time": 31.350423,
          "name": "G#4",
          "midi": 68,
          "duration": 0.352941,
          "velocity": 0.88189
        },
        {
          "time": 31.703364,
          "name": "A4",
          "midi": 69,
          "duration": 0.206896,
          "velocity": 0.88189
        },
        {
          "time": 31.91026,
          "name": "G4",
          "midi": 67,
          "duration": 0.206896,
          "velocity": 0.88189
        },
        {
          "time": 32.117157,
          "name": "F#4",
          "midi": 66,
          "duration": 0.375,
          "velocity": 0.88189
        },
        {
          "time": 32.492157,
          "name": "G4",
          "midi": 67,
          "duration": 0.206896,
          "velocity": 0.88189
        },
        {
          "time": 32.699053,
          "name": "F#4",
          "midi": 66,
          "duration": 0.206896,
          "velocity": 0.88189
        },
        {
          "time": 32.90595,
          "name": "E4",
          "midi": 64,
          "duration": 0.461538,
          "velocity": 0.88189
        },
        {
          "time": 33.367488,
          "name": "D4",
          "midi": 62,
          "duration": 0.1875,
          "velocity": 0.88189
        },
        {
          "time": 33.742488,
          "name": "D4",
          "midi": 62,
          "duration": 0.788793,
          "velocity": 1
        },
        {
          "time": 34.531281,
          "name": "C#4",
          "midi": 61,
          "duration": 0.176471,
          "velocity": 0.88189
        },
        {
          "time": 34.884222,
          "name": "C#4",
          "midi": 61,
          "duration": 0.766734,
          "velocity": 1
        },
        {
          "time": 35.650956,
          "name": "E4",
          "midi": 64,
          "duration": 0.176471,
          "velocity": 0.88189
        },
        {
          "time": 36.003897,
          "name": "E4",
          "midi": 64,
          "duration": 0.559838,
          "velocity": 1
        },
        {
          "time": 36.563734,
          "name": "D4",
          "midi": 62,
          "duration": 0.206896,
          "velocity": 0.88189
        },
        {
          "time": 36.770631,
          "name": "A3",
          "midi": 57,
          "duration": 1.119675,
          "velocity": 0.88189
        },
        {
          "time": 37.890306,
          "name": "D4",
          "midi": 62,
          "duration": 0.176471,
          "velocity": 0.88189
        },
        {
          "time": 38.243247,
          "name": "D4",
          "midi": 62,
          "duration": 0.766734,
          "velocity": 1
        },
        {
          "time": 39.009981,
          "name": "C#4",
          "midi": 61,
          "duration": 0.176471,
          "velocity": 0.88189
        },
        {
          "time": 39.362922,
          "name": "C#4",
          "midi": 61,
          "duration": 0.766734,
          "velocity": 1
        },
        {
          "time": 40.129656,
          "name": "B3",
          "midi": 59,
          "duration": 0.352941,
          "velocity": 0.88189
        },
        {
          "time": 40.482597,
          "name": "C#4",
          "midi": 61,
          "duration": 0.559838,
          "velocity": 1
        },
        {
          "time": 41.042434,
          "name": "D#4",
          "midi": 63,
          "duration": 0.206896,
          "velocity": 0.88189
        },
        {
          "time": 41.249331,
          "name": "E4",
          "midi": 64,
          "duration": 1.119675,
          "velocity": 0.88189
        },
        {
          "time": 42.369006,
          "name": "D5",
          "midi": 74,
          "duration": 0.176471,
          "velocity": 0.88189
        },
        {
          "time": 42.721947,
          "name": "D5",
          "midi": 74,
          "duration": 0.766734,
          "velocity": 1
        },
        {
          "time": 43.488681,
          "name": "C#5",
          "midi": 73,
          "duration": 0.176471,
          "velocity": 0.88189
        },
        {
          "time": 43.841622,
          "name": "C#5",
          "midi": 73,
          "duration": 0.766734,
          "velocity": 1
        },
        {
          "time": 44.608356,
          "name": "B4",
          "midi": 71,
          "duration": 0.338235,
          "velocity": 0.88189
        },
        {
          "time": 44.961297,
          "name": "B4",
          "midi": 71,
          "duration": 0.338235,
          "velocity": 0.88189
        },
        {
          "time": 45.314238,
          "name": "B4",
          "midi": 71,
          "duration": 0.396552,
          "velocity": 0.88189
        },
        {
          "time": 45.728031,
          "name": "B4",
          "midi": 71,
          "duration": 0.352941,
          "velocity": 0.88189
        },
        {
          "time": 46.080972,
          "name": "C#5",
          "midi": 73,
          "duration": 0.176471,
          "velocity": 0.88189
        },
        {
          "time": 46.257442,
          "name": "B4",
          "midi": 71,
          "duration": 0.176471,
          "velocity": 0.88189
        },
        {
          "time": 46.433913,
          "name": "A#4",
          "midi": 70,
          "duration": 0.413793,
          "velocity": 0.88189
        },
        {
          "time": 46.847706,
          "name": "A4",
          "midi": 69,
          "duration": 0.308823,
          "velocity": 0.88189
        },
        {
          "time": 47.200647,
          "name": "A4",
          "midi": 69,
          "duration": 0.308823,
          "velocity": 0.88189
        },
        {
          "time": 47.553588,
          "name": "A4",
          "midi": 69,
          "duration": 0.362069,
          "velocity": 0.88189
        },
        {
          "time": 47.967381,
          "name": "A4",
          "midi": 69,
          "duration": 0.352941,
          "velocity": 0.88189
        },
        {
          "time": 48.320322,
          "name": "B4",
          "midi": 71,
          "duration": 0.176471,
          "velocity": 0.88189
        },
        {
          "time": 48.496792,
          "name": "A4",
          "midi": 69,
          "duration": 0.176471,
          "velocity": 0.88189
        },
        {
          "time": 48.673263,
          "name": "G#4",
          "midi": 68,
          "duration": 0.413793,
          "velocity": 0.88189
        },
        {
          "time": 49.087056,
          "name": "E5",
          "midi": 76,
          "duration": 0.352941,
          "velocity": 0.88189
        },
        {
          "time": 49.439997,
          "name": "G4",
          "midi": 67,
          "duration": 0.58371,
          "velocity": 0.88189
        },
        {
          "time": 50.023707,
          "name": "A4",
          "midi": 69,
          "duration": 0.230769,
          "velocity": 0.88189
        },
        {
          "time": 50.254476,
          "name": "F#4",
          "midi": 66,
          "duration": 0.193548,
          "velocity": 0.88189
        },
        {
          "time": 50.448024,
          "name": "A3",
          "midi": 57,
          "duration": 0.193548,
          "velocity": 0.88189
        },
        {
          "time": 50.641573,
          "name": "G#3",
          "midi": 56,
          "duration": 0.193549,
          "velocity": 0.88189
        },
        {
          "time": 50.835121,
          "name": "A3",
          "midi": 57,
          "duration": 0.193548,
          "velocity": 0.88189
        },
        {
          "time": 51.02867,
          "name": "B3",
          "midi": 59,
          "duration": 0.206896,
          "velocity": 0.88189
        },
        {
          "time": 51.235566,
          "name": "C#4",
          "midi": 61,
          "duration": 0.206896,
          "velocity": 0.88189
        },
        {
          "time": 51.442463,
          "name": "D4",
          "midi": 62,
          "duration": 0.176471,
          "velocity": 0.88189
        },
        {
          "time": 51.795404,
          "name": "D4",
          "midi": 62,
          "duration": 0.766734,
          "velocity": 1
        },
        {
          "time": 52.562138,
          "name": "C#4",
          "midi": 61,
          "duration": 0.176471,
          "velocity": 0.88189
        },
        {
          "time": 52.915079,
          "name": "C#4",
          "midi": 61,
          "duration": 0.766734,
          "velocity": 1
        },
        {
          "time": 53.681813,
          "name": "E4",
          "midi": 64,
          "duration": 0.176471,
          "velocity": 0.88189
        },
        {
          "time": 54.034754,
          "name": "E4",
          "midi": 64,
          "duration": 0.559838,
          "velocity": 1
        },
        {
          "time": 54.594591,
          "name": "D4",
          "midi": 62,
          "duration": 0.206896,
          "velocity": 0.88189
        },
        {
          "time": 54.801488,
          "name": "A3",
          "midi": 57,
          "duration": 1.119675,
          "velocity": 0.88189
        },
        {
          "time": 55.921163,
          "name": "D4",
          "midi": 62,
          "duration": 0.176471,
          "velocity": 0.88189
        },
        {
          "time": 56.274104,
          "name": "D4",
          "midi": 62,
          "duration": 0.766734,
          "velocity": 1
        },
        {
          "time": 57.040838,
          "name": "C#4",
          "midi": 61,
          "duration": 0.176471,
          "velocity": 0.88189
        },
        {
          "time": 57.393779,
          "name": "C#4",
          "midi": 61,
          "duration": 0.766734,
          "velocity": 1
        },
        {
          "time": 58.160513,
          "name": "B3",
          "midi": 59,
          "duration": 0.352941,
          "velocity": 0.88189
        },
        {
          "time": 58.513454,
          "name": "C#4",
          "midi": 61,
          "duration": 0.559838,
          "velocity": 1
        },
        {
          "time": 59.073291,
          "name": "D#4",
          "midi": 63,
          "duration": 0.206896,
          "velocity": 0.88189
        },
        {
          "time": 59.280188,
          "name": "E4",
          "midi": 64,
          "duration": 1.119675,
          "velocity": 0.88189
        },
        {
          "time": 60.399863,
          "name": "D5",
          "midi": 74,
          "duration": 0.176471,
          "velocity": 0.88189
        },
        {
          "time": 60.752804,
          "name": "D5",
          "midi": 74,
          "duration": 0.766734,
          "velocity": 1
        },
        {
          "time": 61.519538,
          "name": "C#5",
          "midi": 73,
          "duration": 0.176471,
          "velocity": 0.88189
        },
        {
          "time": 61.872479,
          "name": "C#5",
          "midi": 73,
          "duration": 0.766734,
          "velocity": 1
        },
        {
          "time": 62.639213,
          "name": "B4",
          "midi": 71,
          "duration": 0.308823,
          "velocity": 0.88189
        },
        {
          "time": 62.992154,
          "name": "B4",
          "midi": 71,
          "duration": 0.308823,
          "velocity": 0.88189
        },
        {
          "time": 63.345095,
          "name": "B4",
          "midi": 71,
          "duration": 0.362069,
          "velocity": 0.88189
        },
        {
          "time": 63.758888,
          "name": "B4",
          "midi": 71,
          "duration": 0.352941,
          "velocity": 0.88189
        },
        {
          "time": 64.111829,
          "name": "C#5",
          "midi": 73,
          "duration": 0.176471,
          "velocity": 0.88189
        },
        {
          "time": 64.288299,
          "name": "B4",
          "midi": 71,
          "duration": 0.17647,
          "velocity": 0.88189
        },
        {
          "time": 64.46477,
          "name": "A4",
          "midi": 69,
          "duration": 0.413793,
          "velocity": 0.88189
        },
        {
          "time": 64.878563,
          "name": "B4",
          "midi": 71,
          "duration": 0.308823,
          "velocity": 0.88189
        },
        {
          "time": 65.231504,
          "name": "B4",
          "midi": 71,
          "duration": 0.308823,
          "velocity": 0.88189
        },
        {
          "time": 65.584445,
          "name": "B4",
          "midi": 71,
          "duration": 0.362069,
          "velocity": 0.88189
        },
        {
          "time": 65.998238,
          "name": "B4",
          "midi": 71,
          "duration": 0.352941,
          "velocity": 0.88189
        },
        {
          "time": 66.351179,
          "name": "C#5",
          "midi": 73,
          "duration": 0.17647,
          "velocity": 0.88189
        },
        {
          "time": 66.527649,
          "name": "B4",
          "midi": 71,
          "duration": 0.176471,
          "velocity": 0.88189
        },
        {
          "time": 66.70412,
          "name": "A4",
          "midi": 69,
          "duration": 0.413793,
          "velocity": 0.88189
        },
        {
          "time": 67.117913,
          "name": "B4",
          "midi": 71,
          "duration": 0.17647,
          "velocity": 0.88189
        },
        {
          "time": 67.294383,
          "name": "A4",
          "midi": 69,
          "duration": 0.176471,
          "velocity": 0.88189
        },
        {
          "time": 67.470854,
          "name": "G#4",
          "midi": 68,
          "duration": 0.352941,
          "velocity": 0.88189
        },
        {
          "time": 67.823795,
          "name": "A4",
          "midi": 69,
          "duration": 0.206896,
          "velocity": 0.88189
        },
        {
          "time": 68.030691,
          "name": "G4",
          "midi": 67,
          "duration": 0.206896,
          "velocity": 0.88189
        },
        {
          "time": 68.237588,
          "name": "F#4",
          "midi": 66,
          "duration": 0.375,
          "velocity": 0.88189
        },
        {
          "time": 68.612588,
          "name": "G4",
          "midi": 67,
          "duration": 0.207612,
          "velocity": 0.88189
        },
        {
          "time": 68.8202,
          "name": "F#4",
          "midi": 66,
          "duration": 0.207613,
          "velocity": 0.88189
        },
        {
          "time": 69.027813,
          "name": "E4",
          "midi": 64,
          "duration": 0.461538,
          "velocity": 0.88189
        },
        {
          "time": 69.489351,
          "name": "D4",
          "midi": 62,
          "duration": 0.1875,
          "velocity": 0.88189
        },
        {
          "time": 69.864351,
          "name": "D4",
          "midi": 62,
          "duration": 0.788793,
          "velocity": 1
        },
        {
          "time": 70.653144,
          "name": "C#4",
          "midi": 61,
          "duration": 0.17647,
          "velocity": 0.88189
        },
        {
          "time": 71.006085,
          "name": "C#4",
          "midi": 61,
          "duration": 0.766734,
          "velocity": 1
        },
        {
          "time": 71.772819,
          "name": "E4",
          "midi": 64,
          "duration": 0.17647,
          "velocity": 0.88189
        },
        {
          "time": 72.12576,
          "name": "E4",
          "midi": 64,
          "duration": 0.559838,
          "velocity": 1
        },
        {
          "time": 72.685597,
          "name": "D4",
          "midi": 62,
          "duration": 0.206896,
          "velocity": 0.88189
        },
        {
          "time": 72.892494,
          "name": "A3",
          "midi": 57,
          "duration": 1.119675,
          "velocity": 0.88189
        },
        {
          "time": 74.012169,
          "name": "D4",
          "midi": 62,
          "duration": 0.17647,
          "velocity": 0.88189
        },
        {
          "time": 74.36511,
          "name": "D4",
          "midi": 62,
          "duration": 0.766734,
          "velocity": 1
        },
        {
          "time": 75.131844,
          "name": "C#4",
          "midi": 61,
          "duration": 0.17647,
          "velocity": 0.88189
        },
        {
          "time": 75.484785,
          "name": "C#4",
          "midi": 61,
          "duration": 0.766734,
          "velocity": 1
        },
        {
          "time": 76.251519,
          "name": "B3",
          "midi": 59,
          "duration": 0.352941,
          "velocity": 0.88189
        },
        {
          "time": 76.60446,
          "name": "C#4",
          "midi": 61,
          "duration": 0.559838,
          "velocity": 1
        },
        {
          "time": 77.164297,
          "name": "D#4",
          "midi": 63,
          "duration": 0.206896,
          "velocity": 0.88189
        },
        {
          "time": 77.371194,
          "name": "E4",
          "midi": 64,
          "duration": 1.119675,
          "velocity": 0.88189
        },
        {
          "time": 78.490869,
          "name": "D5",
          "midi": 74,
          "duration": 0.17647,
          "velocity": 0.88189
        },
        {
          "time": 78.84381,
          "name": "D5",
          "midi": 74,
          "duration": 0.766734,
          "velocity": 1
        },
        {
          "time": 79.610544,
          "name": "C#5",
          "midi": 73,
          "duration": 0.17647,
          "velocity": 0.88189
        },
        {
          "time": 79.963485,
          "name": "C#5",
          "midi": 73,
          "duration": 0.766734,
          "velocity": 1
        },
        {
          "time": 80.730219,
          "name": "B4",
          "midi": 71,
          "duration": 0.338235,
          "velocity": 0.88189
        },
        {
          "time": 81.08316,
          "name": "B4",
          "midi": 71,
          "duration": 0.338235,
          "velocity": 0.88189
        },
        {
          "time": 81.436101,
          "name": "B4",
          "midi": 71,
          "duration": 0.396552,
          "velocity": 0.88189
        },
        {
          "time": 81.849894,
          "name": "B4",
          "midi": 71,
          "duration": 0.352941,
          "velocity": 0.88189
        },
        {
          "time": 82.202835,
          "name": "C#5",
          "midi": 73,
          "duration": 0.17647,
          "velocity": 0.88189
        },
        {
          "time": 82.379305,
          "name": "B4",
          "midi": 71,
          "duration": 0.176471,
          "velocity": 0.88189
        },
        {
          "time": 82.555776,
          "name": "A#4",
          "midi": 70,
          "duration": 0.413793,
          "velocity": 0.88189
        },
        {
          "time": 82.969569,
          "name": "A4",
          "midi": 69,
          "duration": 0.308823,
          "velocity": 0.88189
        },
        {
          "time": 83.32251,
          "name": "A4",
          "midi": 69,
          "duration": 0.308823,
          "velocity": 0.88189
        },
        {
          "time": 83.675451,
          "name": "A4",
          "midi": 69,
          "duration": 0.362069,
          "velocity": 0.88189
        },
        {
          "time": 84.089244,
          "name": "A4",
          "midi": 69,
          "duration": 0.352941,
          "velocity": 0.88189
        },
        {
          "time": 84.442185,
          "name": "B4",
          "midi": 71,
          "duration": 0.17647,
          "velocity": 0.88189
        },
        {
          "time": 84.618655,
          "name": "A4",
          "midi": 69,
          "duration": 0.176471,
          "velocity": 0.88189
        },
        {
          "time": 84.795126,
          "name": "G#4",
          "midi": 68,
          "duration": 0.413793,
          "velocity": 0.88189
        },
        {
          "time": 85.208919,
          "name": "E5",
          "midi": 76,
          "duration": 0.352941,
          "velocity": 0.88189
        },
        {
          "time": 85.56186,
          "name": "G4",
          "midi": 67,
          "duration": 0.58371,
          "velocity": 0.88189
        },
        {
          "time": 86.14557,
          "name": "A4",
          "midi": 69,
          "duration": 0.230769,
          "velocity": 0.88189
        },
        {
          "time": 86.376339,
          "name": "F#4",
          "midi": 66,
          "duration": 0.17647,
          "velocity": 0.88189
        },
        {
          "time": 86.552809,
          "name": "F#5",
          "midi": 78,
          "duration": 0.176471,
          "velocity": 0.88189
        },
        {
          "time": 86.555751,
          "name": "F#6",
          "midi": 90,
          "duration": 0.176471,
          "velocity": 0.811024
        },
        {
          "time": 86.558692,
          "name": "F#5",
          "midi": 78,
          "duration": 0.17647,
          "velocity": 0.834646
        },
        {
          "time": 86.72928,
          "name": "A5",
          "midi": 81,
          "duration": 0.17647,
          "velocity": 0.88189
        },
        {
          "time": 86.732221,
          "name": "A6",
          "midi": 93,
          "duration": 0.17647,
          "velocity": 0.811024
        },
        {
          "time": 86.735162,
          "name": "A5",
          "midi": 81,
          "duration": 0.176471,
          "velocity": 0.834646
        },
        {
          "time": 86.90575,
          "name": "B5",
          "midi": 83,
          "duration": 0.176471,
          "velocity": 0.88189
        },
        {
          "time": 86.908692,
          "name": "B6",
          "midi": 95,
          "duration": 0.176654,
          "velocity": 0.811024
        },
        {
          "time": 86.911633,
          "name": "B5",
          "midi": 83,
          "duration": 0.176838,
          "velocity": 0.834646
        },
        {
          "time": 87.082221,
          "name": "C#6",
          "midi": 85,
          "duration": 0.1875,
          "velocity": 0.88189
        },
        {
          "time": 87.085346,
          "name": "C#7",
          "midi": 97,
          "duration": 0.1875,
          "velocity": 0.811024
        },
        {
          "time": 87.088471,
          "name": "C#6",
          "midi": 85,
          "duration": 0.1875,
          "velocity": 0.834646
        },
        {
          "time": 87.269721,
          "name": "D6",
          "midi": 86,
          "duration": 0.1875,
          "velocity": 0.88189
        },
        {
          "time": 87.272846,
          "name": "D7",
          "midi": 98,
          "duration": 0.187153,
          "velocity": 0.811024
        },
        {
          "time": 87.275971,
          "name": "D6",
          "midi": 86,
          "duration": 0.186806,
          "velocity": 0.834646
        },
        {
          "time": 87.457221,
          "name": "E6",
          "midi": 88,
          "duration": 0.333333,
          "velocity": 0.88189
        },
        {
          "time": 87.459999,
          "name": "E7",
          "midi": 100,
          "duration": 0.333333,
          "velocity": 0.811024
        },
        {
          "time": 87.462777,
          "name": "E6",
          "midi": 88,
          "duration": 0.333333,
          "velocity": 0.834646
        },
        {
          "time": 87.465554,
          "name": "C#6",
          "midi": 85,
          "duration": 0.66801,
          "velocity": 0.818898
        },
        {
          "time": 87.465554,
          "name": "A5",
          "midi": 81,
          "duration": 0.66801,
          "velocity": 0.818898
        },
        {
          "time": 87.790554,
          "name": "F#6",
          "midi": 90,
          "duration": 0.316666,
          "velocity": 0.88189
        },
        {
          "time": 87.793332,
          "name": "F#7",
          "midi": 102,
          "duration": 0.316666,
          "velocity": 0.811024
        },
        {
          "time": 87.79611,
          "name": "F#6",
          "midi": 90,
          "duration": 0.316666,
          "velocity": 0.834646
        },
        {
          "time": 88.123887,
          "name": "E6",
          "midi": 88,
          "duration": 0.367742,
          "velocity": 0.88189
        },
        {
          "time": 88.127113,
          "name": "E7",
          "midi": 100,
          "duration": 0.367742,
          "velocity": 0.811024
        },
        {
          "time": 88.130339,
          "name": "E6",
          "midi": 88,
          "duration": 0.367742,
          "velocity": 0.834646
        },
        {
          "time": 88.133564,
          "name": "C#6",
          "midi": 85,
          "duration": 0.719086,
          "velocity": 0.818898
        },
        {
          "time": 88.133564,
          "name": "G5",
          "midi": 79,
          "duration": 0.719086,
          "velocity": 0.818898
        },
        {
          "time": 88.510984,
          "name": "F#6",
          "midi": 90,
          "duration": 0.666666,
          "velocity": 0.88189
        },
        {
          "time": 88.513762,
          "name": "F#7",
          "midi": 102,
          "duration": 0.667114,
          "velocity": 0.811024
        },
        {
          "time": 88.51654,
          "name": "F#6",
          "midi": 90,
          "duration": 0.667562,
          "velocity": 0.834646
        },
        {
          "time": 88.85265,
          "name": "G#5",
          "midi": 80,
          "duration": 0.72043,
          "velocity": 0.818898
        },
        {
          "time": 88.85265,
          "name": "D6",
          "midi": 86,
          "duration": 0.72043,
          "velocity": 0.818898
        },
        {
          "time": 89.17765,
          "name": "E6",
          "midi": 88,
          "duration": 0.367742,
          "velocity": 0.88189
        },
        {
          "time": 89.180876,
          "name": "E7",
          "midi": 100,
          "duration": 0.367742,
          "velocity": 0.811024
        },
        {
          "time": 89.184102,
          "name": "E6",
          "midi": 88,
          "duration": 0.367742,
          "velocity": 0.834646
        },
        {
          "time": 89.564747,
          "name": "E6",
          "midi": 88,
          "duration": 0.333333,
          "velocity": 0.88189
        },
        {
          "time": 89.567525,
          "name": "E7",
          "midi": 100,
          "duration": 0.333333,
          "velocity": 0.811024
        },
        {
          "time": 89.570303,
          "name": "E6",
          "midi": 88,
          "duration": 0.333333,
          "velocity": 0.834646
        },
        {
          "time": 89.57308,
          "name": "A5",
          "midi": 81,
          "duration": 0.66801,
          "velocity": 0.818898
        },
        {
          "time": 89.57308,
          "name": "F#5",
          "midi": 78,
          "duration": 0.66801,
          "velocity": 0.818898
        },
        {
          "time": 89.89808,
          "name": "F#6",
          "midi": 90,
          "duration": 0.316666,
          "velocity": 0.88189
        },
        {
          "time": 89.900858,
          "name": "F#7",
          "midi": 102,
          "duration": 0.316666,
          "velocity": 0.811024
        },
        {
          "time": 89.903636,
          "name": "F#6",
          "midi": 90,
          "duration": 0.316666,
          "velocity": 0.834646
        },
        {
          "time": 90.231413,
          "name": "E6",
          "midi": 88,
          "duration": 0.367742,
          "velocity": 0.88189
        },
        {
          "time": 90.234639,
          "name": "E7",
          "midi": 100,
          "duration": 0.367742,
          "velocity": 0.811024
        },
        {
          "time": 90.237865,
          "name": "E6",
          "midi": 88,
          "duration": 0.367742,
          "velocity": 0.834646
        },
        {
          "time": 90.24109,
          "name": "A#5",
          "midi": 82,
          "duration": 0.719086,
          "velocity": 0.818898
        },
        {
          "time": 90.24109,
          "name": "F#5",
          "midi": 78,
          "duration": 0.719086,
          "velocity": 0.818898
        },
        {
          "time": 90.61851,
          "name": "F#6",
          "midi": 90,
          "duration": 0.666666,
          "velocity": 0.88189
        },
        {
          "time": 90.621288,
          "name": "F#7",
          "midi": 102,
          "duration": 0.667337,
          "velocity": 0.811024
        },
        {
          "time": 90.624066,
          "name": "F#6",
          "midi": 90,
          "duration": 0.668007,
          "velocity": 0.834646
        },
        {
          "time": 90.960176,
          "name": "B5",
          "midi": 83,
          "duration": 0.747616,
          "velocity": 0.818898
        },
        {
          "time": 90.960176,
          "name": "G#5",
          "midi": 80,
          "duration": 0.747616,
          "velocity": 0.818898
        },
        {
          "time": 91.285176,
          "name": "E6",
          "midi": 88,
          "duration": 0.393103,
          "velocity": 0.88189
        },
        {
          "time": 91.288624,
          "name": "E7",
          "midi": 100,
          "duration": 0.393103,
          "velocity": 0.811024
        },
        {
          "time": 91.292073,
          "name": "E6",
          "midi": 88,
          "duration": 0.393103,
          "velocity": 0.834646
        },
        {
          "time": 91.698969,
          "name": "E6",
          "midi": 88,
          "duration": 0.352941,
          "velocity": 0.88189
        },
        {
          "time": 91.704851,
          "name": "E6",
          "midi": 88,
          "duration": 0.352941,
          "velocity": 0.834646
        },
        {
          "time": 92.05191,
          "name": "F#6",
          "midi": 90,
          "duration": 0.335294,
          "velocity": 0.88189
        },
        {
          "time": 92.057792,
          "name": "F#6",
          "midi": 90,
          "duration": 0.335294,
          "velocity": 0.834646
        },
        {
          "time": 92.404851,
          "name": "E6",
          "midi": 88,
          "duration": 0.387097,
          "velocity": 0.88189
        },
        {
          "time": 92.411303,
          "name": "E6",
          "midi": 88,
          "duration": 0.386201,
          "velocity": 0.834646
        },
        {
          "time": 92.791948,
          "name": "F#6",
          "midi": 90,
          "duration": 0.316666,
          "velocity": 0.88189
        },
        {
          "time": 92.797504,
          "name": "F#6",
          "midi": 90,
          "duration": 0.316666,
          "velocity": 0.834646
        },
        {
          "time": 93.125281,
          "name": "D#6",
          "midi": 87,
          "duration": 0.166667,
          "velocity": 0.88189
        },
        {
          "time": 93.130837,
          "name": "D#6",
          "midi": 87,
          "duration": 0.166667,
          "velocity": 0.834646
        },
        {
          "time": 93.291948,
          "name": "C#6",
          "midi": 85,
          "duration": 0.166667,
          "velocity": 0.88189
        },
        {
          "time": 93.297503,
          "name": "C#6",
          "midi": 85,
          "duration": 0.167563,
          "velocity": 0.834646
        },
        {
          "time": 93.458614,
          "name": "B5",
          "midi": 83,
          "duration": 0.367742,
          "velocity": 0.88189
        },
        {
          "time": 93.465066,
          "name": "B5",
          "midi": 83,
          "duration": 0.367742,
          "velocity": 0.834646
        },
        {
          "time": 93.845711,
          "name": "D6",
          "midi": 86,
          "duration": 0.333333,
          "velocity": 0.88189
        },
        {
          "time": 93.851267,
          "name": "D6",
          "midi": 86,
          "duration": 0.333333,
          "velocity": 0.834646
        },
        {
          "time": 94.179044,
          "name": "E6",
          "midi": 88,
          "duration": 0.316666,
          "velocity": 0.88189
        },
        {
          "time": 94.1846,
          "name": "E6",
          "midi": 88,
          "duration": 0.316666,
          "velocity": 0.834646
        },
        {
          "time": 94.512377,
          "name": "D6",
          "midi": 86,
          "duration": 0.387097,
          "velocity": 0.88189
        },
        {
          "time": 94.518829,
          "name": "D6",
          "midi": 86,
          "duration": 0.386201,
          "velocity": 0.834646
        },
        {
          "time": 94.899474,
          "name": "E6",
          "midi": 88,
          "duration": 0.316666,
          "velocity": 0.88189
        },
        {
          "time": 94.90503,
          "name": "E6",
          "midi": 88,
          "duration": 0.316666,
          "velocity": 0.834646
        },
        {
          "time": 95.232807,
          "name": "C#6",
          "midi": 85,
          "duration": 0.166667,
          "velocity": 0.88189
        },
        {
          "time": 95.238363,
          "name": "C#6",
          "midi": 85,
          "duration": 0.166667,
          "velocity": 0.834646
        },
        {
          "time": 95.399474,
          "name": "B5",
          "midi": 83,
          "duration": 0.166667,
          "velocity": 0.88189
        },
        {
          "time": 95.405029,
          "name": "B5",
          "midi": 83,
          "duration": 0.167563,
          "velocity": 0.834646
        },
        {
          "time": 95.56614,
          "name": "A5",
          "midi": 81,
          "duration": 0.367742,
          "velocity": 0.88189
        },
        {
          "time": 95.572592,
          "name": "A5",
          "midi": 81,
          "duration": 0.367742,
          "velocity": 0.834646
        },
        {
          "time": 95.953237,
          "name": "E6",
          "midi": 88,
          "duration": 0.333333,
          "velocity": 0.88189
        },
        {
          "time": 95.956015,
          "name": "E7",
          "midi": 100,
          "duration": 0.333333,
          "velocity": 0.811024
        },
        {
          "time": 95.958793,
          "name": "E6",
          "midi": 88,
          "duration": 0.333333,
          "velocity": 0.834646
        },
        {
          "time": 95.96157,
          "name": "C#6",
          "midi": 85,
          "duration": 0.66801,
          "velocity": 0.818898
        },
        {
          "time": 95.96157,
          "name": "A5",
          "midi": 81,
          "duration": 0.66801,
          "velocity": 0.818898
        },
        {
          "time": 96.28657,
          "name": "F#6",
          "midi": 90,
          "duration": 0.316666,
          "velocity": 0.88189
        },
        {
          "time": 96.289348,
          "name": "F#7",
          "midi": 102,
          "duration": 0.316666,
          "velocity": 0.811024
        },
        {
          "time": 96.292126,
          "name": "F#6",
          "midi": 90,
          "duration": 0.316666,
          "velocity": 0.834646
        },
        {
          "time": 96.619903,
          "name": "E6",
          "midi": 88,
          "duration": 0.367742,
          "velocity": 0.88189
        },
        {
          "time": 96.623129,
          "name": "E7",
          "midi": 100,
          "duration": 0.367742,
          "velocity": 0.811024
        },
        {
          "time": 96.626355,
          "name": "E6",
          "midi": 88,
          "duration": 0.367742,
          "velocity": 0.834646
        },
        {
          "time": 96.62958,
          "name": "C#6",
          "midi": 85,
          "duration": 0.719086,
          "velocity": 0.818898
        },
        {
          "time": 96.62958,
          "name": "G5",
          "midi": 79,
          "duration": 0.719086,
          "velocity": 0.818898
        },
        {
          "time": 97.007,
          "name": "F#6",
          "midi": 90,
          "duration": 0.666666,
          "velocity": 0.88189
        },
        {
          "time": 97.009778,
          "name": "F#7",
          "midi": 102,
          "duration": 0.667114,
          "velocity": 0.811024
        },
        {
          "time": 97.012556,
          "name": "F#6",
          "midi": 90,
          "duration": 0.667562,
          "velocity": 0.834646
        },
        {
          "time": 97.348666,
          "name": "G#5",
          "midi": 80,
          "duration": 0.72043,
          "velocity": 0.818898
        },
        {
          "time": 97.348666,
          "name": "D6",
          "midi": 86,
          "duration": 0.72043,
          "velocity": 0.818898
        },
        {
          "time": 97.673666,
          "name": "E6",
          "midi": 88,
          "duration": 0.367742,
          "velocity": 0.88189
        },
        {
          "time": 97.676892,
          "name": "E7",
          "midi": 100,
          "duration": 0.367742,
          "velocity": 0.811024
        },
        {
          "time": 97.680118,
          "name": "E6",
          "midi": 88,
          "duration": 0.367742,
          "velocity": 0.834646
        },
        {
          "time": 98.060763,
          "name": "E6",
          "midi": 88,
          "duration": 0.333333,
          "velocity": 0.88189
        },
        {
          "time": 98.063541,
          "name": "E7",
          "midi": 100,
          "duration": 0.333333,
          "velocity": 0.811024
        },
        {
          "time": 98.066319,
          "name": "E6",
          "midi": 88,
          "duration": 0.333333,
          "velocity": 0.834646
        },
        {
          "time": 98.069096,
          "name": "A5",
          "midi": 81,
          "duration": 0.66801,
          "velocity": 0.818898
        },
        {
          "time": 98.069096,
          "name": "F#5",
          "midi": 78,
          "duration": 0.66801,
          "velocity": 0.818898
        },
        {
          "time": 98.394096,
          "name": "F#6",
          "midi": 90,
          "duration": 0.316666,
          "velocity": 0.88189
        },
        {
          "time": 98.396874,
          "name": "F#7",
          "midi": 102,
          "duration": 0.316666,
          "velocity": 0.811024
        },
        {
          "time": 98.399652,
          "name": "F#6",
          "midi": 90,
          "duration": 0.316666,
          "velocity": 0.834646
        },
        {
          "time": 98.727429,
          "name": "E6",
          "midi": 88,
          "duration": 0.367742,
          "velocity": 0.88189
        },
        {
          "time": 98.730655,
          "name": "E7",
          "midi": 100,
          "duration": 0.367742,
          "velocity": 0.811024
        },
        {
          "time": 98.733881,
          "name": "E6",
          "midi": 88,
          "duration": 0.367742,
          "velocity": 0.834646
        },
        {
          "time": 98.737106,
          "name": "A#5",
          "midi": 82,
          "duration": 0.719086,
          "velocity": 0.818898
        },
        {
          "time": 98.737106,
          "name": "F#5",
          "midi": 78,
          "duration": 0.719086,
          "velocity": 0.818898
        },
        {
          "time": 99.114526,
          "name": "F#6",
          "midi": 90,
          "duration": 0.666666,
          "velocity": 0.88189
        },
        {
          "time": 99.117304,
          "name": "F#7",
          "midi": 102,
          "duration": 0.667337,
          "velocity": 0.811024
        },
        {
          "time": 99.120082,
          "name": "F#6",
          "midi": 90,
          "duration": 0.668007,
          "velocity": 0.834646
        },
        {
          "time": 99.456192,
          "name": "B5",
          "midi": 83,
          "duration": 0.747616,
          "velocity": 0.818898
        },
        {
          "time": 99.456192,
          "name": "G#5",
          "midi": 80,
          "duration": 0.747616,
          "velocity": 0.818898
        },
        {
          "time": 99.781192,
          "name": "E6",
          "midi": 88,
          "duration": 0.393103,
          "velocity": 0.88189
        },
        {
          "time": 99.78464,
          "name": "E7",
          "midi": 100,
          "duration": 0.393103,
          "velocity": 0.811024
        },
        {
          "time": 99.788089,
          "name": "E6",
          "midi": 88,
          "duration": 0.393103,
          "velocity": 0.834646
        },
        {
          "time": 100.194985,
          "name": "E6",
          "midi": 88,
          "duration": 0.352941,
          "velocity": 0.88189
        },
        {
          "time": 100.200867,
          "name": "E6",
          "midi": 88,
          "duration": 0.352941,
          "velocity": 0.834646
        },
        {
          "time": 100.547926,
          "name": "F#6",
          "midi": 90,
          "duration": 0.335294,
          "velocity": 0.88189
        },
        {
          "time": 100.553808,
          "name": "F#6",
          "midi": 90,
          "duration": 0.335294,
          "velocity": 0.834646
        },
        {
          "time": 100.900867,
          "name": "E6",
          "midi": 88,
          "duration": 0.387097,
          "velocity": 0.88189
        },
        {
          "time": 100.907319,
          "name": "E6",
          "midi": 88,
          "duration": 0.386201,
          "velocity": 0.834646
        },
        {
          "time": 101.287964,
          "name": "F#6",
          "midi": 90,
          "duration": 0.316666,
          "velocity": 0.88189
        },
        {
          "time": 101.29352,
          "name": "F#6",
          "midi": 90,
          "duration": 0.316666,
          "velocity": 0.834646
        },
        {
          "time": 101.621297,
          "name": "D#6",
          "midi": 87,
          "duration": 0.166667,
          "velocity": 0.88189
        },
        {
          "time": 101.626853,
          "name": "D#6",
          "midi": 87,
          "duration": 0.166667,
          "velocity": 0.834646
        },
        {
          "time": 101.787964,
          "name": "C#6",
          "midi": 85,
          "duration": 0.166667,
          "velocity": 0.88189
        },
        {
          "time": 101.793519,
          "name": "C#6",
          "midi": 85,
          "duration": 0.167563,
          "velocity": 0.834646
        },
        {
          "time": 101.95463,
          "name": "B5",
          "midi": 83,
          "duration": 0.367742,
          "velocity": 0.88189
        },
        {
          "time": 101.961082,
          "name": "B5",
          "midi": 83,
          "duration": 0.367742,
          "velocity": 0.834646
        },
        {
          "time": 102.341727,
          "name": "E6",
          "midi": 88,
          "duration": 0.316666,
          "velocity": 0.88189
        },
        {
          "time": 102.347283,
          "name": "E6",
          "midi": 88,
          "duration": 0.316666,
          "velocity": 0.834646
        },
        {
          "time": 102.67506,
          "name": "D6",
          "midi": 86,
          "duration": 0.166667,
          "velocity": 0.88189
        },
        {
          "time": 102.680616,
          "name": "D6",
          "midi": 86,
          "duration": 0.166667,
          "velocity": 0.834646
        },
        {
          "time": 102.841727,
          "name": "C#6",
          "midi": 85,
          "duration": 0.166667,
          "velocity": 0.88189
        },
        {
          "time": 102.847282,
          "name": "C#6",
          "midi": 85,
          "duration": 0.167563,
          "velocity": 0.834646
        },
        {
          "time": 103.008393,
          "name": "B5",
          "midi": 83,
          "duration": 0.193549,
          "velocity": 0.88189
        },
        {
          "time": 103.014845,
          "name": "B5",
          "midi": 83,
          "duration": 0.193549,
          "velocity": 0.834646
        },
        {
          "time": 103.201942,
          "name": "C#6",
          "midi": 85,
          "duration": 0.193548,
          "velocity": 0.88189
        },
        {
          "time": 103.208393,
          "name": "C#6",
          "midi": 85,
          "duration": 0.192652,
          "velocity": 0.834646
        },
        {
          "time": 103.39549,
          "name": "A5",
          "midi": 81,
          "duration": 0.166667,
          "velocity": 0.88189
        },
        {
          "time": 103.401046,
          "name": "A5",
          "midi": 81,
          "duration": 0.166667,
          "velocity": 0.834646
        },
        {
          "time": 103.562157,
          "name": "G#5",
          "midi": 80,
          "duration": 0.166666,
          "velocity": 0.88189
        },
        {
          "time": 103.567712,
          "name": "G#5",
          "midi": 80,
          "duration": 0.166666,
          "velocity": 0.834646
        },
        {
          "time": 103.728823,
          "name": "A5",
          "midi": 81,
          "duration": 0.166667,
          "velocity": 0.88189
        },
        {
          "time": 103.734379,
          "name": "A5",
          "midi": 81,
          "duration": 0.166667,
          "velocity": 0.834646
        },
        {
          "time": 103.89549,
          "name": "B5",
          "midi": 83,
          "duration": 0.166667,
          "velocity": 0.88189
        },
        {
          "time": 103.901045,
          "name": "B5",
          "midi": 83,
          "duration": 0.167563,
          "velocity": 0.834646
        },
        {
          "time": 104.062156,
          "name": "C#6",
          "midi": 85,
          "duration": 0.193549,
          "velocity": 0.88189
        },
        {
          "time": 104.068608,
          "name": "C#6",
          "midi": 85,
          "duration": 0.193549,
          "velocity": 0.834646
        },
        {
          "time": 104.255705,
          "name": "D6",
          "midi": 86,
          "duration": 0.193548,
          "velocity": 0.88189
        },
        {
          "time": 104.262156,
          "name": "D6",
          "midi": 86,
          "duration": 0.192652,
          "velocity": 0.834646
        },
        {
          "time": 104.449253,
          "name": "E6",
          "midi": 88,
          "duration": 0.333333,
          "velocity": 0.88189
        },
        {
          "time": 104.452031,
          "name": "E7",
          "midi": 100,
          "duration": 0.333333,
          "velocity": 0.811024
        },
        {
          "time": 104.454809,
          "name": "E6",
          "midi": 88,
          "duration": 0.333333,
          "velocity": 0.834646
        },
        {
          "time": 104.457586,
          "name": "C#6",
          "midi": 85,
          "duration": 0.66801,
          "velocity": 0.818898
        },
        {
          "time": 104.457586,
          "name": "A5",
          "midi": 81,
          "duration": 0.66801,
          "velocity": 0.818898
        },
        {
          "time": 104.782586,
          "name": "F#6",
          "midi": 90,
          "duration": 0.316666,
          "velocity": 0.88189
        },
        {
          "time": 104.785364,
          "name": "F#7",
          "midi": 102,
          "duration": 0.316666,
          "velocity": 0.811024
        },
        {
          "time": 104.788142,
          "name": "F#6",
          "midi": 90,
          "duration": 0.316666,
          "velocity": 0.834646
        },
        {
          "time": 105.115919,
          "name": "E6",
          "midi": 88,
          "duration": 0.367742,
          "velocity": 0.88189
        },
        {
          "time": 105.119145,
          "name": "E7",
          "midi": 100,
          "duration": 0.367742,
          "velocity": 0.811024
        },
        {
          "time": 105.122371,
          "name": "E6",
          "midi": 88,
          "duration": 0.367742,
          "velocity": 0.834646
        },
        {
          "time": 105.125596,
          "name": "C#6",
          "midi": 85,
          "duration": 0.719086,
          "velocity": 0.818898
        },
        {
          "time": 105.125596,
          "name": "G5",
          "midi": 79,
          "duration": 0.719086,
          "velocity": 0.818898
        },
        {
          "time": 105.503016,
          "name": "F#6",
          "midi": 90,
          "duration": 0.666666,
          "velocity": 0.88189
        },
        {
          "time": 105.505794,
          "name": "F#7",
          "midi": 102,
          "duration": 0.667114,
          "velocity": 0.811024
        },
        {
          "time": 105.508572,
          "name": "F#6",
          "midi": 90,
          "duration": 0.667562,
          "velocity": 0.834646
        },
        {
          "time": 105.844682,
          "name": "G#5",
          "midi": 80,
          "duration": 0.72043,
          "velocity": 0.818898
        },
        {
          "time": 105.844682,
          "name": "D6",
          "midi": 86,
          "duration": 0.72043,
          "velocity": 0.818898
        },
        {
          "time": 106.169682,
          "name": "E6",
          "midi": 88,
          "duration": 0.367742,
          "velocity": 0.88189
        },
        {
          "time": 106.172908,
          "name": "E7",
          "midi": 100,
          "duration": 0.367742,
          "velocity": 0.811024
        },
        {
          "time": 106.176134,
          "name": "E6",
          "midi": 88,
          "duration": 0.367742,
          "velocity": 0.834646
        },
        {
          "time": 106.556779,
          "name": "E6",
          "midi": 88,
          "duration": 0.333333,
          "velocity": 0.88189
        },
        {
          "time": 106.559557,
          "name": "E7",
          "midi": 100,
          "duration": 0.333333,
          "velocity": 0.811024
        },
        {
          "time": 106.562335,
          "name": "E6",
          "midi": 88,
          "duration": 0.333333,
          "velocity": 0.834646
        },
        {
          "time": 106.565112,
          "name": "A5",
          "midi": 81,
          "duration": 0.66801,
          "velocity": 0.818898
        },
        {
          "time": 106.565112,
          "name": "F#5",
          "midi": 78,
          "duration": 0.66801,
          "velocity": 0.818898
        },
        {
          "time": 106.890112,
          "name": "F#6",
          "midi": 90,
          "duration": 0.316666,
          "velocity": 0.88189
        },
        {
          "time": 106.89289,
          "name": "F#7",
          "midi": 102,
          "duration": 0.316666,
          "velocity": 0.811024
        },
        {
          "time": 106.895668,
          "name": "F#6",
          "midi": 90,
          "duration": 0.316666,
          "velocity": 0.834646
        },
        {
          "time": 107.223445,
          "name": "E6",
          "midi": 88,
          "duration": 0.367742,
          "velocity": 0.88189
        },
        {
          "time": 107.226671,
          "name": "E7",
          "midi": 100,
          "duration": 0.367742,
          "velocity": 0.811024
        },
        {
          "time": 107.229897,
          "name": "E6",
          "midi": 88,
          "duration": 0.367742,
          "velocity": 0.834646
        },
        {
          "time": 107.233122,
          "name": "A#5",
          "midi": 82,
          "duration": 0.719086,
          "velocity": 0.818898
        },
        {
          "time": 107.233122,
          "name": "F#5",
          "midi": 78,
          "duration": 0.719086,
          "velocity": 0.818898
        },
        {
          "time": 107.610542,
          "name": "F#6",
          "midi": 90,
          "duration": 0.666666,
          "velocity": 0.88189
        },
        {
          "time": 107.61332,
          "name": "F#7",
          "midi": 102,
          "duration": 0.667337,
          "velocity": 0.811024
        },
        {
          "time": 107.616098,
          "name": "F#6",
          "midi": 90,
          "duration": 0.668007,
          "velocity": 0.834646
        },
        {
          "time": 107.952208,
          "name": "B5",
          "midi": 83,
          "duration": 0.747616,
          "velocity": 0.818898
        },
        {
          "time": 107.952208,
          "name": "G#5",
          "midi": 80,
          "duration": 0.747616,
          "velocity": 0.818898
        },
        {
          "time": 108.277208,
          "name": "E6",
          "midi": 88,
          "duration": 0.393103,
          "velocity": 0.88189
        },
        {
          "time": 108.280656,
          "name": "E7",
          "midi": 100,
          "duration": 0.393103,
          "velocity": 0.811024
        },
        {
          "time": 108.284105,
          "name": "E6",
          "midi": 88,
          "duration": 0.393103,
          "velocity": 0.834646
        },
        {
          "time": 108.691001,
          "name": "E6",
          "midi": 88,
          "duration": 0.352941,
          "velocity": 0.88189
        },
        {
          "time": 108.696883,
          "name": "E6",
          "midi": 88,
          "duration": 0.352941,
          "velocity": 0.834646
        },
        {
          "time": 109.043942,
          "name": "F#6",
          "midi": 90,
          "duration": 0.335294,
          "velocity": 0.88189
        },
        {
          "time": 109.049824,
          "name": "F#6",
          "midi": 90,
          "duration": 0.335294,
          "velocity": 0.834646
        },
        {
          "time": 109.396883,
          "name": "E6",
          "midi": 88,
          "duration": 0.387097,
          "velocity": 0.88189
        },
        {
          "time": 109.403335,
          "name": "E6",
          "midi": 88,
          "duration": 0.386201,
          "velocity": 0.834646
        },
        {
          "time": 109.78398,
          "name": "F#6",
          "midi": 90,
          "duration": 0.316666,
          "velocity": 0.88189
        },
        {
          "time": 109.789536,
          "name": "F#6",
          "midi": 90,
          "duration": 0.316666,
          "velocity": 0.834646
        },
        {
          "time": 110.117313,
          "name": "D#6",
          "midi": 87,
          "duration": 0.166667,
          "velocity": 0.88189
        },
        {
          "time": 110.122869,
          "name": "D#6",
          "midi": 87,
          "duration": 0.166667,
          "velocity": 0.834646
        },
        {
          "time": 110.28398,
          "name": "C#6",
          "midi": 85,
          "duration": 0.166667,
          "velocity": 0.88189
        },
        {
          "time": 110.289535,
          "name": "C#6",
          "midi": 85,
          "duration": 0.167563,
          "velocity": 0.834646
        },
        {
          "time": 110.450646,
          "name": "B5",
          "midi": 83,
          "duration": 0.367742,
          "velocity": 0.88189
        },
        {
          "time": 110.457098,
          "name": "B5",
          "midi": 83,
          "duration": 0.367742,
          "velocity": 0.834646
        },
        {
          "time": 110.837743,
          "name": "D6",
          "midi": 86,
          "duration": 0.333333,
          "velocity": 0.88189
        },
        {
          "time": 110.843299,
          "name": "D6",
          "midi": 86,
          "duration": 0.333333,
          "velocity": 0.834646
        },
        {
          "time": 111.171076,
          "name": "E6",
          "midi": 88,
          "duration": 0.316666,
          "velocity": 0.88189
        },
        {
          "time": 111.176632,
          "name": "E6",
          "midi": 88,
          "duration": 0.316666,
          "velocity": 0.834646
        },
        {
          "time": 111.504409,
          "name": "D6",
          "midi": 86,
          "duration": 0.387097,
          "velocity": 0.88189
        },
        {
          "time": 111.510861,
          "name": "D6",
          "midi": 86,
          "duration": 0.386201,
          "velocity": 0.834646
        },
        {
          "time": 111.891506,
          "name": "E6",
          "midi": 88,
          "duration": 0.316666,
          "velocity": 0.88189
        },
        {
          "time": 111.897062,
          "name": "E6",
          "midi": 88,
          "duration": 0.316666,
          "velocity": 0.834646
        },
        {
          "time": 112.224839,
          "name": "C#6",
          "midi": 85,
          "duration": 0.166667,
          "velocity": 0.88189
        },
        {
          "time": 112.230395,
          "name": "C#6",
          "midi": 85,
          "duration": 0.166667,
          "velocity": 0.834646
        },
        {
          "time": 112.391506,
          "name": "B5",
          "midi": 83,
          "duration": 0.166667,
          "velocity": 0.88189
        },
        {
          "time": 112.397061,
          "name": "B5",
          "midi": 83,
          "duration": 0.167563,
          "velocity": 0.834646
        },
        {
          "time": 112.558172,
          "name": "A5",
          "midi": 81,
          "duration": 0.367742,
          "velocity": 0.88189
        },
        {
          "time": 112.564624,
          "name": "A5",
          "midi": 81,
          "duration": 0.367742,
          "velocity": 0.834646
        },
        {
          "time": 112.945269,
          "name": "E6",
          "midi": 88,
          "duration": 0.333333,
          "velocity": 0.88189
        },
        {
          "time": 112.948047,
          "name": "E7",
          "midi": 100,
          "duration": 0.333333,
          "velocity": 0.811024
        },
        {
          "time": 112.950825,
          "name": "E6",
          "midi": 88,
          "duration": 0.333333,
          "velocity": 0.834646
        },
        {
          "time": 112.953602,
          "name": "C#6",
          "midi": 85,
          "duration": 0.66801,
          "velocity": 0.818898
        },
        {
          "time": 112.953602,
          "name": "A5",
          "midi": 81,
          "duration": 0.66801,
          "velocity": 0.818898
        },
        {
          "time": 113.278602,
          "name": "F#6",
          "midi": 90,
          "duration": 0.316666,
          "velocity": 0.88189
        },
        {
          "time": 113.28138,
          "name": "F#7",
          "midi": 102,
          "duration": 0.316666,
          "velocity": 0.811024
        },
        {
          "time": 113.284158,
          "name": "F#6",
          "midi": 90,
          "duration": 0.316666,
          "velocity": 0.834646
        },
        {
          "time": 113.611935,
          "name": "E6",
          "midi": 88,
          "duration": 0.367742,
          "velocity": 0.88189
        },
        {
          "time": 113.615161,
          "name": "E7",
          "midi": 100,
          "duration": 0.367742,
          "velocity": 0.811024
        },
        {
          "time": 113.618387,
          "name": "E6",
          "midi": 88,
          "duration": 0.367742,
          "velocity": 0.834646
        },
        {
          "time": 113.621612,
          "name": "C#6",
          "midi": 85,
          "duration": 0.719086,
          "velocity": 0.818898
        },
        {
          "time": 113.621612,
          "name": "G5",
          "midi": 79,
          "duration": 0.719086,
          "velocity": 0.818898
        },
        {
          "time": 113.999032,
          "name": "F#6",
          "midi": 90,
          "duration": 0.666666,
          "velocity": 0.88189
        },
        {
          "time": 114.00181,
          "name": "F#7",
          "midi": 102,
          "duration": 0.667114,
          "velocity": 0.811024
        },
        {
          "time": 114.004588,
          "name": "F#6",
          "midi": 90,
          "duration": 0.667562,
          "velocity": 0.834646
        },
        {
          "time": 114.340698,
          "name": "G#5",
          "midi": 80,
          "duration": 0.72043,
          "velocity": 0.818898
        },
        {
          "time": 114.340698,
          "name": "D6",
          "midi": 86,
          "duration": 0.72043,
          "velocity": 0.818898
        },
        {
          "time": 114.665698,
          "name": "E6",
          "midi": 88,
          "duration": 0.367742,
          "velocity": 0.88189
        },
        {
          "time": 114.668924,
          "name": "E7",
          "midi": 100,
          "duration": 0.367742,
          "velocity": 0.811024
        },
        {
          "time": 114.67215,
          "name": "E6",
          "midi": 88,
          "duration": 0.367742,
          "velocity": 0.834646
        },
        {
          "time": 115.052795,
          "name": "E6",
          "midi": 88,
          "duration": 0.333333,
          "velocity": 0.88189
        },
        {
          "time": 115.055573,
          "name": "E7",
          "midi": 100,
          "duration": 0.333333,
          "velocity": 0.811024
        },
        {
          "time": 115.058351,
          "name": "E6",
          "midi": 88,
          "duration": 0.333333,
          "velocity": 0.834646
        },
        {
          "time": 115.061128,
          "name": "A5",
          "midi": 81,
          "duration": 0.66801,
          "velocity": 0.818898
        },
        {
          "time": 115.061128,
          "name": "F#5",
          "midi": 78,
          "duration": 0.66801,
          "velocity": 0.818898
        },
        {
          "time": 115.386128,
          "name": "F#6",
          "midi": 90,
          "duration": 0.316666,
          "velocity": 0.88189
        },
        {
          "time": 115.388906,
          "name": "F#7",
          "midi": 102,
          "duration": 0.316666,
          "velocity": 0.811024
        },
        {
          "time": 115.391684,
          "name": "F#6",
          "midi": 90,
          "duration": 0.316666,
          "velocity": 0.834646
        },
        {
          "time": 115.719461,
          "name": "E6",
          "midi": 88,
          "duration": 0.367742,
          "velocity": 0.88189
        },
        {
          "time": 115.722687,
          "name": "E7",
          "midi": 100,
          "duration": 0.367742,
          "velocity": 0.811024
        },
        {
          "time": 115.725913,
          "name": "E6",
          "midi": 88,
          "duration": 0.367742,
          "velocity": 0.834646
        },
        {
          "time": 115.729138,
          "name": "A#5",
          "midi": 82,
          "duration": 0.719086,
          "velocity": 0.818898
        },
        {
          "time": 115.729138,
          "name": "F#5",
          "midi": 78,
          "duration": 0.719086,
          "velocity": 0.818898
        },
        {
          "time": 116.106558,
          "name": "F#6",
          "midi": 90,
          "duration": 0.666666,
          "velocity": 0.88189
        },
        {
          "time": 116.109336,
          "name": "F#7",
          "midi": 102,
          "duration": 0.667337,
          "velocity": 0.811024
        },
        {
          "time": 116.112114,
          "name": "F#6",
          "midi": 90,
          "duration": 0.668007,
          "velocity": 0.834646
        },
        {
          "time": 116.448224,
          "name": "B5",
          "midi": 83,
          "duration": 0.747616,
          "velocity": 0.818898
        },
        {
          "time": 116.448224,
          "name": "G#5",
          "midi": 80,
          "duration": 0.747616,
          "velocity": 0.818898
        },
        {
          "time": 116.773224,
          "name": "E6",
          "midi": 88,
          "duration": 0.393103,
          "velocity": 0.88189
        },
        {
          "time": 116.776672,
          "name": "E7",
          "midi": 100,
          "duration": 0.393103,
          "velocity": 0.811024
        },
        {
          "time": 116.780121,
          "name": "E6",
          "midi": 88,
          "duration": 0.393103,
          "velocity": 0.834646
        },
        {
          "time": 117.187017,
          "name": "E6",
          "midi": 88,
          "duration": 0.352941,
          "velocity": 0.88189
        },
        {
          "time": 117.192899,
          "name": "E6",
          "midi": 88,
          "duration": 0.352941,
          "velocity": 0.834646
        },
        {
          "time": 117.539958,
          "name": "F#6",
          "midi": 90,
          "duration": 0.335294,
          "velocity": 0.88189
        },
        {
          "time": 117.54584,
          "name": "F#6",
          "midi": 90,
          "duration": 0.335294,
          "velocity": 0.834646
        },
        {
          "time": 117.892899,
          "name": "E6",
          "midi": 88,
          "duration": 0.387097,
          "velocity": 0.88189
        },
        {
          "time": 117.899351,
          "name": "E6",
          "midi": 88,
          "duration": 0.386201,
          "velocity": 0.834646
        },
        {
          "time": 118.279996,
          "name": "F#6",
          "midi": 90,
          "duration": 0.316666,
          "velocity": 0.88189
        },
        {
          "time": 118.285552,
          "name": "F#6",
          "midi": 90,
          "duration": 0.316666,
          "velocity": 0.834646
        },
        {
          "time": 118.613329,
          "name": "D#6",
          "midi": 87,
          "duration": 0.166667,
          "velocity": 0.88189
        },
        {
          "time": 118.618885,
          "name": "D#6",
          "midi": 87,
          "duration": 0.166667,
          "velocity": 0.834646
        },
        {
          "time": 118.779996,
          "name": "C#6",
          "midi": 85,
          "duration": 0.166667,
          "velocity": 0.88189
        },
        {
          "time": 118.785551,
          "name": "C#6",
          "midi": 85,
          "duration": 0.167563,
          "velocity": 0.834646
        },
        {
          "time": 118.946662,
          "name": "B5",
          "midi": 83,
          "duration": 0.367742,
          "velocity": 0.88189
        },
        {
          "time": 118.953114,
          "name": "B5",
          "midi": 83,
          "duration": 0.367742,
          "velocity": 0.834646
        },
        {
          "time": 119.333759,
          "name": "E6",
          "midi": 88,
          "duration": 0.316666,
          "velocity": 0.88189
        },
        {
          "time": 119.339315,
          "name": "E6",
          "midi": 88,
          "duration": 0.316666,
          "velocity": 0.834646
        },
        {
          "time": 119.667092,
          "name": "D6",
          "midi": 86,
          "duration": 0.166667,
          "velocity": 0.88189
        },
        {
          "time": 119.672648,
          "name": "D6",
          "midi": 86,
          "duration": 0.166667,
          "velocity": 0.834646
        },
        {
          "time": 119.833759,
          "name": "C#6",
          "midi": 85,
          "duration": 0.166667,
          "velocity": 0.88189
        },
        {
          "time": 119.839314,
          "name": "C#6",
          "midi": 85,
          "duration": 0.167563,
          "velocity": 0.834646
        },
        {
          "time": 120.000425,
          "name": "B5",
          "midi": 83,
          "duration": 0.193549,
          "velocity": 0.88189
        },
        {
          "time": 120.006877,
          "name": "B5",
          "midi": 83,
          "duration": 0.193549,
          "velocity": 0.834646
        },
        {
          "time": 120.193974,
          "name": "C#6",
          "midi": 85,
          "duration": 0.193548,
          "velocity": 0.88189
        },
        {
          "time": 120.200425,
          "name": "C#6",
          "midi": 85,
          "duration": 0.192811,
          "velocity": 0.834646
        },
        {
          "time": 120.387522,
          "name": "A5",
          "midi": 81,
          "duration": 0.171429,
          "velocity": 0.88189
        },
        {
          "time": 120.393236,
          "name": "A5",
          "midi": 81,
          "duration": 0.171429,
          "velocity": 0.834646
        },
        {
          "time": 120.558951,
          "name": "A#5",
          "midi": 82,
          "duration": 0.171428,
          "velocity": 0.88189
        },
        {
          "time": 120.730379,
          "name": "C#6",
          "midi": 85,
          "duration": 0.171429,
          "velocity": 0.88189
        },
        {
          "time": 120.901808,
          "name": "B5",
          "midi": 83,
          "duration": 0.171429,
          "velocity": 0.88189
        },
        {
          "time": 121.073236,
          "name": "A5",
          "midi": 81,
          "duration": 0.193549,
          "velocity": 0.88189
        },
        {
          "time": 121.266785,
          "name": "G5",
          "midi": 79,
          "duration": 0.193548,
          "velocity": 0.88189
        },
        {
          "time": 121.460333,
          "name": "F#5",
          "midi": 78,
          "duration": 0.529411,
          "velocity": 0.88189
        },
        {
          "time": 121.466215,
          "name": "F#5",
          "midi": 78,
          "duration": 0.529412,
          "velocity": 0.834646
        },
        {
          "time": 121.989745,
          "name": "A5",
          "midi": 81,
          "duration": 0.176471,
          "velocity": 0.88189
        },
        {
          "time": 121.995627,
          "name": "A5",
          "midi": 81,
          "duration": 0.177485,
          "velocity": 0.834646
        },
        {
          "time": 122.166215,
          "name": "B5",
          "midi": 83,
          "duration": 0.206896,
          "velocity": 0.88189
        },
        {
          "time": 122.173112,
          "name": "B5",
          "midi": 83,
          "duration": 0.206897,
          "velocity": 0.834646
        },
        {
          "time": 122.373112,
          "name": "A5",
          "midi": 81,
          "duration": 0.206896,
          "velocity": 0.88189
        },
        {
          "time": 122.380008,
          "name": "A5",
          "midi": 81,
          "duration": 0.205882,
          "velocity": 0.834646
        },
        {
          "time": 122.580008,
          "name": "E5",
          "midi": 76,
          "duration": 0.529411,
          "velocity": 0.88189
        },
        {
          "time": 122.58589,
          "name": "E5",
          "midi": 76,
          "duration": 0.529412,
          "velocity": 0.834646
        },
        {
          "time": 123.10942,
          "name": "A5",
          "midi": 81,
          "duration": 0.176471,
          "velocity": 0.88189
        },
        {
          "time": 123.115302,
          "name": "A5",
          "midi": 81,
          "duration": 0.177485,
          "velocity": 0.834646
        },
        {
          "time": 123.28589,
          "name": "B5",
          "midi": 83,
          "duration": 0.206896,
          "velocity": 0.88189
        },
        {
          "time": 123.292787,
          "name": "B5",
          "midi": 83,
          "duration": 0.206897,
          "velocity": 0.834646
        },
        {
          "time": 123.492787,
          "name": "A5",
          "midi": 81,
          "duration": 0.206896,
          "velocity": 0.88189
        },
        {
          "time": 123.499683,
          "name": "A5",
          "midi": 81,
          "duration": 0.205882,
          "velocity": 0.834646
        },
        {
          "time": 123.699683,
          "name": "A4",
          "midi": 69,
          "duration": 0.529411,
          "velocity": 0.88189
        },
        {
          "time": 123.705565,
          "name": "A4",
          "midi": 69,
          "duration": 0.529412,
          "velocity": 0.834646
        },
        {
          "time": 124.229095,
          "name": "B4",
          "midi": 71,
          "duration": 0.176471,
          "velocity": 0.88189
        },
        {
          "time": 124.234977,
          "name": "B4",
          "midi": 71,
          "duration": 0.177485,
          "velocity": 0.834646
        },
        {
          "time": 124.405565,
          "name": "C#5",
          "midi": 73,
          "duration": 0.206896,
          "velocity": 0.88189
        },
        {
          "time": 124.412462,
          "name": "C#5",
          "midi": 73,
          "duration": 0.206897,
          "velocity": 0.834646
        },
        {
          "time": 124.612462,
          "name": "D5",
          "midi": 74,
          "duration": 0.206896,
          "velocity": 0.88189
        },
        {
          "time": 124.619358,
          "name": "D5",
          "midi": 74,
          "duration": 0.205882,
          "velocity": 0.834646
        },
        {
          "time": 124.819358,
          "name": "C#5",
          "midi": 73,
          "duration": 0.529411,
          "velocity": 0.88189
        },
        {
          "time": 124.82524,
          "name": "C#5",
          "midi": 73,
          "duration": 0.529412,
          "velocity": 0.834646
        },
        {
          "time": 125.34877,
          "name": "D5",
          "midi": 74,
          "duration": 0.176471,
          "velocity": 0.88189
        },
        {
          "time": 125.354652,
          "name": "D5",
          "midi": 74,
          "duration": 0.177485,
          "velocity": 0.834646
        },
        {
          "time": 125.52524,
          "name": "E5",
          "midi": 76,
          "duration": 0.206896,
          "velocity": 0.88189
        },
        {
          "time": 125.532137,
          "name": "E5",
          "midi": 76,
          "duration": 0.206897,
          "velocity": 0.834646
        },
        {
          "time": 125.732137,
          "name": "F#5",
          "midi": 78,
          "duration": 0.206896,
          "velocity": 0.88189
        },
        {
          "time": 125.739033,
          "name": "F#5",
          "midi": 78,
          "duration": 0.205882,
          "velocity": 0.834646
        },
        {
          "time": 125.939033,
          "name": "B5",
          "midi": 83,
          "duration": 0.529411,
          "velocity": 0.88189
        },
        {
          "time": 125.944915,
          "name": "B5",
          "midi": 83,
          "duration": 0.529412,
          "velocity": 0.834646
        },
        {
          "time": 126.468445,
          "name": "A5",
          "midi": 81,
          "duration": 0.176471,
          "velocity": 0.88189
        },
        {
          "time": 126.474327,
          "name": "A5",
          "midi": 81,
          "duration": 0.177485,
          "velocity": 0.834646
        },
        {
          "time": 126.644915,
          "name": "F#5",
          "midi": 78,
          "duration": 0.206896,
          "velocity": 0.88189
        },
        {
          "time": 126.651812,
          "name": "F#5",
          "midi": 78,
          "duration": 0.206897,
          "velocity": 0.834646
        },
        {
          "time": 126.851812,
          "name": "D5",
          "midi": 74,
          "duration": 0.206896,
          "velocity": 0.88189
        },
        {
          "time": 126.858708,
          "name": "D5",
          "midi": 74,
          "duration": 0.205882,
          "velocity": 0.834646
        },
        {
          "time": 127.058708,
          "name": "E6",
          "midi": 88,
          "duration": 0.529411,
          "velocity": 0.88189
        },
        {
          "time": 127.06459,
          "name": "E6",
          "midi": 88,
          "duration": 0.529412,
          "velocity": 0.834646
        },
        {
          "time": 127.58812,
          "name": "F#6",
          "midi": 90,
          "duration": 0.176471,
          "velocity": 0.88189
        },
        {
          "time": 127.594002,
          "name": "F#6",
          "midi": 90,
          "duration": 0.177485,
          "velocity": 0.834646
        },
        {
          "time": 127.76459,
          "name": "C#6",
          "midi": 85,
          "duration": 0.206896,
          "velocity": 0.88189
        },
        {
          "time": 127.771487,
          "name": "C#6",
          "midi": 85,
          "duration": 0.206897,
          "velocity": 0.834646
        },
        {
          "time": 127.971487,
          "name": "D6",
          "midi": 86,
          "duration": 0.206896,
          "velocity": 0.88189
        },
        {
          "time": 127.978383,
          "name": "D6",
          "midi": 86,
          "duration": 0.205882,
          "velocity": 0.834646
        },
        {
          "time": 128.178383,
          "name": "E6",
          "midi": 88,
          "duration": 0.529412,
          "velocity": 0.88189
        },
        {
          "time": 128.184265,
          "name": "E6",
          "midi": 88,
          "duration": 0.529411,
          "velocity": 0.834646
        },
        {
          "time": 128.707795,
          "name": "B5",
          "midi": 83,
          "duration": 0.17647,
          "velocity": 0.88189
        },
        {
          "time": 128.713677,
          "name": "B5",
          "midi": 83,
          "duration": 0.177485,
          "velocity": 0.834646
        },
        {
          "time": 128.884265,
          "name": "A#5",
          "midi": 82,
          "duration": 0.206896,
          "velocity": 0.88189
        },
        {
          "time": 128.891162,
          "name": "A#5",
          "midi": 82,
          "duration": 0.206896,
          "velocity": 0.834646
        },
        {
          "time": 129.091162,
          "name": "B5",
          "midi": 83,
          "duration": 0.206896,
          "velocity": 0.88189
        },
        {
          "time": 129.098058,
          "name": "B5",
          "midi": 83,
          "duration": 0.205882,
          "velocity": 0.834646
        },
        {
          "time": 129.298058,
          "name": "A5",
          "midi": 81,
          "duration": 0.529412,
          "velocity": 0.88189
        },
        {
          "time": 129.30394,
          "name": "A5",
          "midi": 81,
          "duration": 0.529411,
          "velocity": 0.834646
        },
        {
          "time": 129.82747,
          "name": "G5",
          "midi": 79,
          "duration": 0.17647,
          "velocity": 0.88189
        },
        {
          "time": 129.833352,
          "name": "G5",
          "midi": 79,
          "duration": 0.177485,
          "velocity": 0.834646
        },
        {
          "time": 130.00394,
          "name": "F#5",
          "midi": 78,
          "duration": 0.206896,
          "velocity": 0.88189
        },
        {
          "time": 130.010837,
          "name": "F#5",
          "midi": 78,
          "duration": 0.206896,
          "velocity": 0.834646
        },
        {
          "time": 130.210837,
          "name": "G5",
          "midi": 79,
          "duration": 0.206896,
          "velocity": 0.88189
        },
        {
          "time": 130.217733,
          "name": "G5",
          "midi": 79,
          "duration": 0.205882,
          "velocity": 0.834646
        },
        {
          "time": 138.804239,
          "name": "A5",
          "midi": 81,
          "duration": 0.182927,
          "velocity": 0.88189
        },
        {
          "time": 138.810337,
          "name": "A5",
          "midi": 81,
          "duration": 0.184522,
          "velocity": 0.834646
        },
        {
          "time": 138.987166,
          "name": "G#5",
          "midi": 80,
          "duration": 0.230769,
          "velocity": 0.88189
        },
        {
          "time": 138.994858,
          "name": "G#5",
          "midi": 80,
          "duration": 0.230769,
          "velocity": 0.834646
        },
        {
          "time": 139.217935,
          "name": "G5",
          "midi": 79,
          "duration": 0.230769,
          "velocity": 0.88189
        },
        {
          "time": 139.225627,
          "name": "G5",
          "midi": 79,
          "duration": 0.229327,
          "velocity": 0.834646
        },
        {
          "time": 139.448704,
          "name": "F#5",
          "midi": 78,
          "duration": 0.5625,
          "velocity": 0.88189
        },
        {
          "time": 139.454954,
          "name": "F#5",
          "midi": 78,
          "duration": 0.5625,
          "velocity": 0.834646
        },
        {
          "time": 140.011204,
          "name": "A5",
          "midi": 81,
          "duration": 0.1875,
          "velocity": 0.88189
        },
        {
          "time": 140.017454,
          "name": "A5",
          "midi": 81,
          "duration": 0.188147,
          "velocity": 0.834646
        },
        {
          "time": 140.198704,
          "name": "B5",
          "midi": 83,
          "duration": 0.206896,
          "velocity": 0.88189
        },
        {
          "time": 140.205601,
          "name": "B5",
          "midi": 83,
          "duration": 0.206896,
          "velocity": 0.834646
        },
        {
          "time": 140.405601,
          "name": "A5",
          "midi": 81,
          "duration": 0.206896,
          "velocity": 0.88189
        },
        {
          "time": 140.412497,
          "name": "A5",
          "midi": 81,
          "duration": 0.205882,
          "velocity": 0.834646
        },
        {
          "time": 140.612497,
          "name": "E5",
          "midi": 76,
          "duration": 0.529412,
          "velocity": 0.88189
        },
        {
          "time": 140.618379,
          "name": "E5",
          "midi": 76,
          "duration": 0.529411,
          "velocity": 0.834646
        },
        {
          "time": 141.141909,
          "name": "A5",
          "midi": 81,
          "duration": 0.17647,
          "velocity": 0.88189
        },
        {
          "time": 141.147791,
          "name": "A5",
          "midi": 81,
          "duration": 0.177485,
          "velocity": 0.834646
        },
        {
          "time": 141.318379,
          "name": "B5",
          "midi": 83,
          "duration": 0.206896,
          "velocity": 0.88189
        },
        {
          "time": 141.325276,
          "name": "B5",
          "midi": 83,
          "duration": 0.206896,
          "velocity": 0.834646
        },
        {
          "time": 141.525276,
          "name": "A5",
          "midi": 81,
          "duration": 0.206896,
          "velocity": 0.88189
        },
        {
          "time": 141.532172,
          "name": "A5",
          "midi": 81,
          "duration": 0.205882,
          "velocity": 0.834646
        },
        {
          "time": 141.732172,
          "name": "A4",
          "midi": 69,
          "duration": 0.529412,
          "velocity": 0.88189
        },
        {
          "time": 141.738054,
          "name": "A4",
          "midi": 69,
          "duration": 0.529411,
          "velocity": 0.834646
        },
        {
          "time": 142.261584,
          "name": "B4",
          "midi": 71,
          "duration": 0.17647,
          "velocity": 0.88189
        },
        {
          "time": 142.267466,
          "name": "B4",
          "midi": 71,
          "duration": 0.177485,
          "velocity": 0.834646
        },
        {
          "time": 142.438054,
          "name": "C#5",
          "midi": 73,
          "duration": 0.206896,
          "velocity": 0.88189
        },
        {
          "time": 142.444951,
          "name": "C#5",
          "midi": 73,
          "duration": 0.206896,
          "velocity": 0.834646
        },
        {
          "time": 142.644951,
          "name": "D5",
          "midi": 74,
          "duration": 0.206896,
          "velocity": 0.88189
        },
        {
          "time": 142.651847,
          "name": "D5",
          "midi": 74,
          "duration": 0.205882,
          "velocity": 0.834646
        },
        {
          "time": 142.851847,
          "name": "C#5",
          "midi": 73,
          "duration": 0.529412,
          "velocity": 0.88189
        },
        {
          "time": 142.857729,
          "name": "C#5",
          "midi": 73,
          "duration": 0.529411,
          "velocity": 0.834646
        },
        {
          "time": 143.381259,
          "name": "D5",
          "midi": 74,
          "duration": 0.17647,
          "velocity": 0.88189
        },
        {
          "time": 143.387141,
          "name": "D5",
          "midi": 74,
          "duration": 0.177485,
          "velocity": 0.834646
        },
        {
          "time": 143.557729,
          "name": "E5",
          "midi": 76,
          "duration": 0.206896,
          "velocity": 0.88189
        },
        {
          "time": 143.564626,
          "name": "E5",
          "midi": 76,
          "duration": 0.206896,
          "velocity": 0.834646
        },
        {
          "time": 143.764626,
          "name": "F#5",
          "midi": 78,
          "duration": 0.206896,
          "velocity": 0.88189
        },
        {
          "time": 143.771522,
          "name": "F#5",
          "midi": 78,
          "duration": 0.205882,
          "velocity": 0.834646
        },
        {
          "time": 143.971522,
          "name": "B5",
          "midi": 83,
          "duration": 0.529412,
          "velocity": 0.88189
        },
        {
          "time": 143.977404,
          "name": "B5",
          "midi": 83,
          "duration": 0.529411,
          "velocity": 0.834646
        },
        {
          "time": 144.500934,
          "name": "A5",
          "midi": 81,
          "duration": 0.17647,
          "velocity": 0.88189
        },
        {
          "time": 144.506816,
          "name": "A5",
          "midi": 81,
          "duration": 0.177485,
          "velocity": 0.834646
        },
        {
          "time": 144.677404,
          "name": "F#5",
          "midi": 78,
          "duration": 0.206896,
          "velocity": 0.88189
        },
        {
          "time": 144.684301,
          "name": "F#5",
          "midi": 78,
          "duration": 0.206896,
          "velocity": 0.834646
        },
        {
          "time": 144.884301,
          "name": "D5",
          "midi": 74,
          "duration": 0.206896,
          "velocity": 0.88189
        },
        {
          "time": 144.891197,
          "name": "D5",
          "midi": 74,
          "duration": 0.205882,
          "velocity": 0.834646
        },
        {
          "time": 145.091197,
          "name": "E6",
          "midi": 88,
          "duration": 0.529412,
          "velocity": 0.88189
        },
        {
          "time": 145.097079,
          "name": "E6",
          "midi": 88,
          "duration": 0.529411,
          "velocity": 0.834646
        },
        {
          "time": 145.620609,
          "name": "F#6",
          "midi": 90,
          "duration": 0.17647,
          "velocity": 0.88189
        },
        {
          "time": 145.626491,
          "name": "F#6",
          "midi": 90,
          "duration": 0.177485,
          "velocity": 0.834646
        },
        {
          "time": 145.797079,
          "name": "C#6",
          "midi": 85,
          "duration": 0.206896,
          "velocity": 0.88189
        },
        {
          "time": 145.803976,
          "name": "C#6",
          "midi": 85,
          "duration": 0.206896,
          "velocity": 0.834646
        },
        {
          "time": 146.003976,
          "name": "D6",
          "midi": 86,
          "duration": 0.206896,
          "velocity": 0.88189
        },
        {
          "time": 146.010872,
          "name": "D6",
          "midi": 86,
          "duration": 0.205882,
          "velocity": 0.834646
        },
        {
          "time": 146.210872,
          "name": "E6",
          "midi": 88,
          "duration": 0.529412,
          "velocity": 0.88189
        },
        {
          "time": 146.216754,
          "name": "E6",
          "midi": 88,
          "duration": 0.529411,
          "velocity": 0.834646
        },
        {
          "time": 146.740284,
          "name": "B5",
          "midi": 83,
          "duration": 0.17647,
          "velocity": 0.88189
        },
        {
          "time": 146.746166,
          "name": "B5",
          "midi": 83,
          "duration": 0.177485,
          "velocity": 0.834646
        },
        {
          "time": 146.916754,
          "name": "A#5",
          "midi": 82,
          "duration": 0.206896,
          "velocity": 0.88189
        },
        {
          "time": 146.923651,
          "name": "A#5",
          "midi": 82,
          "duration": 0.206896,
          "velocity": 0.834646
        },
        {
          "time": 147.123651,
          "name": "B5",
          "midi": 83,
          "duration": 0.206896,
          "velocity": 0.88189
        },
        {
          "time": 147.130547,
          "name": "B5",
          "midi": 83,
          "duration": 0.205882,
          "velocity": 0.834646
        },
        {
          "time": 147.330547,
          "name": "A5",
          "midi": 81,
          "duration": 0.529412,
          "velocity": 0.88189
        },
        {
          "time": 147.336429,
          "name": "A5",
          "midi": 81,
          "duration": 0.529411,
          "velocity": 0.834646
        },
        {
          "time": 147.859959,
          "name": "G5",
          "midi": 79,
          "duration": 0.17647,
          "velocity": 0.88189
        },
        {
          "time": 147.865841,
          "name": "G5",
          "midi": 79,
          "duration": 0.177485,
          "velocity": 0.834646
        },
        {
          "time": 148.036429,
          "name": "F#5",
          "midi": 78,
          "duration": 0.206896,
          "velocity": 0.88189
        },
        {
          "time": 148.043326,
          "name": "F#5",
          "midi": 78,
          "duration": 0.206896,
          "velocity": 0.834646
        },
        {
          "time": 148.243326,
          "name": "G5",
          "midi": 79,
          "duration": 0.206896,
          "velocity": 0.88189
        },
        {
          "time": 148.250222,
          "name": "G5",
          "midi": 79,
          "duration": 0.206024,
          "velocity": 0.834646
        },
        {
          "time": 155.215933,
          "name": "A4",
          "midi": 69,
          "duration": 0.362538,
          "velocity": 1
        },
        {
          "time": 155.578471,
          "name": "B4",
          "midi": 71,
          "duration": 0.181269,
          "velocity": 0.88189
        },
        {
          "time": 155.75974,
          "name": "A4",
          "midi": 69,
          "duration": 0.181269,
          "velocity": 0.88189
        },
        {
          "time": 155.941009,
          "name": "G#4",
          "midi": 68,
          "duration": 0.413793,
          "velocity": 1
        },
        {
          "time": 156.354802,
          "name": "A4",
          "midi": 69,
          "duration": 0.366972,
          "velocity": 1
        },
        {
          "time": 156.721774,
          "name": "B4",
          "midi": 71,
          "duration": 0.183486,
          "velocity": 0.88189
        },
        {
          "time": 156.90526,
          "name": "A4",
          "midi": 69,
          "duration": 0.183486,
          "velocity": 0.88189
        },
        {
          "time": 157.088746,
          "name": "G#4",
          "midi": 68,
          "duration": 0.413793,
          "velocity": 1
        },
        {
          "time": 157.502539,
          "name": "A4",
          "midi": 69,
          "duration": 0.37037,
          "velocity": 1
        },
        {
          "time": 157.872909,
          "name": "B4",
          "midi": 71,
          "duration": 0.185185,
          "velocity": 0.88189
        },
        {
          "time": 158.058094,
          "name": "A4",
          "midi": 69,
          "duration": 0.185185,
          "velocity": 0.88189
        },
        {
          "time": 158.243279,
          "name": "G#4",
          "midi": 68,
          "duration": 0.413793,
          "velocity": 1
        },
        {
          "time": 158.657072,
          "name": "A4",
          "midi": 69,
          "duration": 0.352941,
          "velocity": 1
        },
        {
          "time": 159.010013,
          "name": "B4",
          "midi": 71,
          "duration": 0.176471,
          "velocity": 0.88189
        },
        {
          "time": 159.186484,
          "name": "A4",
          "midi": 69,
          "duration": 0.17647,
          "velocity": 0.88189
        },
        {
          "time": 159.362954,
          "name": "G#4",
          "midi": 68,
          "duration": 0.352941,
          "velocity": 1
        },
        {
          "time": 159.715895,
          "name": "A4",
          "midi": 69,
          "duration": 0.169491,
          "velocity": 0.88189
        },
        {
          "time": 159.885387,
          "name": "B4",
          "midi": 71,
          "duration": 0.169492,
          "velocity": 0.88189
        },
        {
          "time": 160.054878,
          "name": "A4",
          "midi": 69,
          "duration": 0.169491,
          "velocity": 0.88189
        },
        {
          "time": 160.22437,
          "name": "G#4",
          "midi": 68,
          "duration": 0.169491,
          "velocity": 0.88189
        },
        {
          "time": 160.393861,
          "name": "A4",
          "midi": 69,
          "duration": 0.169491,
          "velocity": 0.88189
        },
        {
          "time": 160.563353,
          "name": "B4",
          "midi": 71,
          "duration": 0.169492,
          "velocity": 0.88189
        },
        {
          "time": 160.732844,
          "name": "A4",
          "midi": 69,
          "duration": 0.163043,
          "velocity": 0.88189
        },
        {
          "time": 160.895888,
          "name": "G#4",
          "midi": 68,
          "duration": 0.163044,
          "velocity": 0.88189
        },
        {
          "time": 161.058931,
          "name": "A4",
          "midi": 69,
          "duration": 0.163043,
          "velocity": 0.88189
        },
        {
          "time": 161.221975,
          "name": "B4",
          "midi": 71,
          "duration": 0.163044,
          "velocity": 0.88189
        },
        {
          "time": 161.385018,
          "name": "A4",
          "midi": 69,
          "duration": 0.163043,
          "velocity": 0.88189
        },
        {
          "time": 161.548062,
          "name": "G#4",
          "midi": 68,
          "duration": 0.163044,
          "velocity": 0.88189
        },
        {
          "time": 161.711105,
          "name": "A4",
          "midi": 69,
          "duration": 0.157068,
          "velocity": 0.88189
        },
        {
          "time": 161.868173,
          "name": "B4",
          "midi": 71,
          "duration": 0.157068,
          "velocity": 0.88189
        },
        {
          "time": 162.025241,
          "name": "A4",
          "midi": 69,
          "duration": 0.157068,
          "velocity": 0.88189
        },
        {
          "time": 162.182309,
          "name": "G#4",
          "midi": 68,
          "duration": 0.157068,
          "velocity": 0.88189
        },
        {
          "time": 162.339377,
          "name": "A4",
          "midi": 69,
          "duration": 0.157068,
          "velocity": 0.88189
        },
        {
          "time": 162.496445,
          "name": "B4",
          "midi": 71,
          "duration": 0.157068,
          "velocity": 0.88189
        },
        {
          "time": 162.653513,
          "name": "C#5",
          "midi": 73,
          "duration": 0.152285,
          "velocity": 0.88189
        },
        {
          "time": 162.805798,
          "name": "D5",
          "midi": 74,
          "duration": 0.152284,
          "velocity": 0.88189
        },
        {
          "time": 162.958082,
          "name": "C#5",
          "midi": 73,
          "duration": 0.152285,
          "velocity": 0.88189
        },
        {
          "time": 163.110367,
          "name": "B4",
          "midi": 71,
          "duration": 0.152285,
          "velocity": 0.88189
        },
        {
          "time": 163.262651,
          "name": "C#5",
          "midi": 73,
          "duration": 0.152285,
          "velocity": 0.88189
        },
        {
          "time": 163.414936,
          "name": "D5",
          "midi": 74,
          "duration": 0.152284,
          "velocity": 0.88189
        },
        {
          "time": 163.56722,
          "name": "E5",
          "midi": 76,
          "duration": 0.147784,
          "velocity": 0.88189
        },
        {
          "time": 163.715004,
          "name": "F#5",
          "midi": 78,
          "duration": 0.147784,
          "velocity": 0.88189
        },
        {
          "time": 163.862787,
          "name": "E5",
          "midi": 76,
          "duration": 0.147784,
          "velocity": 0.88189
        },
        {
          "time": 164.010571,
          "name": "D#5",
          "midi": 75,
          "duration": 0.147784,
          "velocity": 0.88189
        },
        {
          "time": 164.158354,
          "name": "E5",
          "midi": 76,
          "duration": 0.147784,
          "velocity": 0.88189
        },
        {
          "time": 164.306138,
          "name": "F#5",
          "midi": 78,
          "duration": 0.147783,
          "velocity": 0.88189
        },
        {
          "time": 164.453921,
          "name": "G5",
          "midi": 79,
          "duration": 0.142857,
          "velocity": 0.88189
        },
        {
          "time": 164.596778,
          "name": "A5",
          "midi": 81,
          "duration": 0.142857,
          "velocity": 0.88189
        },
        {
          "time": 164.739635,
          "name": "G5",
          "midi": 79,
          "duration": 0.142857,
          "velocity": 0.88189
        },
        {
          "time": 164.882492,
          "name": "F#5",
          "midi": 78,
          "duration": 0.142857,
          "velocity": 0.88189
        },
        {
          "time": 165.025349,
          "name": "G5",
          "midi": 79,
          "duration": 0.142857,
          "velocity": 0.88189
        },
        {
          "time": 165.168206,
          "name": "G#5",
          "midi": 80,
          "duration": 0.142857,
          "velocity": 0.88189
        },
        {
          "time": 165.311063,
          "name": "A5",
          "midi": 81,
          "duration": 0.136987,
          "velocity": 0.88189
        },
        {
          "time": 165.44805,
          "name": "B5",
          "midi": 83,
          "duration": 0.136987,
          "velocity": 0.88189
        },
        {
          "time": 165.585036,
          "name": "C#6",
          "midi": 85,
          "duration": 0.136986,
          "velocity": 0.88189
        },
        {
          "time": 165.722023,
          "name": "D6",
          "midi": 86,
          "duration": 0.136987,
          "velocity": 0.88189
        },
        {
          "time": 165.859009,
          "name": "E6",
          "midi": 88,
          "duration": 0.136987,
          "velocity": 0.88189
        },
        {
          "time": 165.995996,
          "name": "F#6",
          "midi": 90,
          "duration": 0.136987,
          "velocity": 0.88189
        },
        {
          "time": 166.132982,
          "name": "G6",
          "midi": 91,
          "duration": 0.273973,
          "velocity": 0.88189
        },
        {
          "time": 166.135265,
          "name": "G6",
          "midi": 91,
          "duration": 0.273973,
          "velocity": 0.811024
        },
        {
          "time": 166.137548,
          "name": "G6",
          "midi": 91,
          "duration": 0.273973,
          "velocity": 0.834646
        },
        {
          "time": 166.137548,
          "name": "E6",
          "midi": 88,
          "duration": 0.273973,
          "velocity": 0.834646
        },
        {
          "time": 166.139831,
          "name": "C#6",
          "midi": 85,
          "duration": 0.273973,
          "velocity": 0.818898
        },
        {
          "time": 166.139831,
          "name": "G5",
          "midi": 79,
          "duration": 0.273973,
          "velocity": 0.818898
        },
        {
          "time": 169.280928,
          "name": "F#6",
          "midi": 90,
          "duration": 1.135715,
          "velocity": 1
        },
        {
          "time": 170.416643,
          "name": "C#6",
          "midi": 85,
          "duration": 0.535714,
          "velocity": 1
        },
        {
          "time": 170.952357,
          "name": "E6",
          "midi": 88,
          "duration": 0.566037,
          "velocity": 1
        },
        {
          "time": 171.518395,
          "name": "D6",
          "midi": 86,
          "duration": 0.566037,
          "velocity": 1
        },
        {
          "time": 172.084432,
          "name": "C#6",
          "midi": 85,
          "duration": 0.508475,
          "velocity": 1
        },
        {
          "time": 172.592907,
          "name": "B5",
          "midi": 83,
          "duration": 0.508475,
          "velocity": 1
        },
        {
          "time": 173.101381,
          "name": "A5",
          "midi": 81,
          "duration": 1.561081,
          "velocity": 1
        },
        {
          "time": 174.662462,
          "name": "F5",
          "midi": 77,
          "duration": 0.48,
          "velocity": 1
        },
        {
          "time": 175.142462,
          "name": "G#5",
          "midi": 80,
          "duration": 0.526316,
          "velocity": 1
        },
        {
          "time": 175.668778,
          "name": "F#5",
          "midi": 78,
          "duration": 0.526316,
          "velocity": 1
        },
        {
          "time": 177.104185,
          "name": "B5",
          "midi": 83,
          "duration": 0.521739,
          "velocity": 1
        },
        {
          "time": 177.625924,
          "name": "A5",
          "midi": 81,
          "duration": 0.521739,
          "velocity": 1
        },
        {
          "time": 178.147663,
          "name": "G#5",
          "midi": 80,
          "duration": 0.472441,
          "velocity": 1
        },
        {
          "time": 178.620104,
          "name": "F#5",
          "midi": 78,
          "duration": 0.472441,
          "velocity": 1
        },
        {
          "time": 179.092545,
          "name": "E5",
          "midi": 76,
          "duration": 0.566037,
          "velocity": 1
        },
        {
          "time": 179.658583,
          "name": "A5",
          "midi": 81,
          "duration": 0.491804,
          "velocity": 1
        },
        {
          "time": 180.150386,
          "name": "G#5",
          "midi": 80,
          "duration": 0.401515,
          "velocity": 1
        },
        {
          "time": 180.604932,
          "name": "F#5",
          "midi": 78,
          "duration": 0.401515,
          "velocity": 1
        },
        {
          "time": 181.059477,
          "name": "E5",
          "midi": 76,
          "duration": 1.438153,
          "velocity": 1
        },
        {
          "time": 182.49763,
          "name": "D5",
          "midi": 74,
          "duration": 0.454545,
          "velocity": 1
        },
        {
          "time": 182.952175,
          "name": "C#5",
          "midi": 73,
          "duration": 2.063153,
          "velocity": 1
        },
        {
          "time": 185.140328,
          "name": "B4",
          "midi": 71,
          "duration": 0.535715,
          "velocity": 1
        },
        {
          "time": 185.676042,
          "name": "E5",
          "midi": 76,
          "duration": 0.491804,
          "velocity": 1
        },
        {
          "time": 186.167846,
          "name": "F#5",
          "midi": 78,
          "duration": 0.454545,
          "velocity": 1
        },
        {
          "time": 186.622391,
          "name": "G#5",
          "midi": 80,
          "duration": 0.454545,
          "velocity": 1
        },
        {
          "time": 187.076937,
          "name": "F#5",
          "midi": 78,
          "duration": 0.081967,
          "velocity": 1
        },
        {
          "time": 187.158904,
          "name": "G#5",
          "midi": 80,
          "duration": 0.081967,
          "velocity": 1
        },
        {
          "time": 187.240871,
          "name": "F#5",
          "midi": 78,
          "duration": 1.274218,
          "velocity": 1
        },
        {
          "time": 188.515089,
          "name": "E5",
          "midi": 76,
          "duration": 0.530973,
          "velocity": 1
        },
        {
          "time": 189.046063,
          "name": "B4",
          "midi": 71,
          "duration": 0.535715,
          "velocity": 1
        },
        {
          "time": 189.581777,
          "name": "E5",
          "midi": 76,
          "duration": 0.491804,
          "velocity": 1
        },
        {
          "time": 190.073581,
          "name": "F#5",
          "midi": 78,
          "duration": 0.454545,
          "velocity": 1
        },
        {
          "time": 190.528126,
          "name": "G#5",
          "midi": 80,
          "duration": 0.454545,
          "velocity": 1
        },
        {
          "time": 190.982672,
          "name": "F#5",
          "midi": 78,
          "duration": 0.081967,
          "velocity": 1
        },
        {
          "time": 191.064639,
          "name": "G#5",
          "midi": 80,
          "duration": 0.081967,
          "velocity": 1
        },
        {
          "time": 191.146606,
          "name": "F#5",
          "midi": 78,
          "duration": 1.274218,
          "velocity": 1
        },
        {
          "time": 192.420824,
          "name": "E5",
          "midi": 76,
          "duration": 0.550458,
          "velocity": 1
        },
        {
          "time": 192.971283,
          "name": "D#5",
          "midi": 75,
          "duration": 0.491804,
          "velocity": 1
        },
        {
          "time": 193.463086,
          "name": "A5",
          "midi": 81,
          "duration": 0.491804,
          "velocity": 1
        },
        {
          "time": 193.95489,
          "name": "B5",
          "midi": 83,
          "duration": 0.454545,
          "velocity": 1
        },
        {
          "time": 194.409435,
          "name": "A5",
          "midi": 81,
          "duration": 0.454545,
          "velocity": 1
        },
        {
          "time": 194.863981,
          "name": "G#5",
          "midi": 80,
          "duration": 0.3125,
          "velocity": 1
        },
        {
          "time": 195.176481,
          "name": "G#5",
          "midi": 80,
          "duration": 0.245902,
          "velocity": 1
        },
        {
          "time": 195.422382,
          "name": "A#5",
          "midi": 82,
          "duration": 0.245902,
          "velocity": 1
        },
        {
          "time": 195.668284,
          "name": "C6",
          "midi": 84,
          "duration": 0.245902,
          "velocity": 1
        },
        {
          "time": 195.914186,
          "name": "C#6",
          "midi": 85,
          "duration": 0.227273,
          "velocity": 1
        },
        {
          "time": 196.141459,
          "name": "D#6",
          "midi": 87,
          "duration": 0.227273,
          "velocity": 1
        },
        {
          "time": 196.368731,
          "name": "E6",
          "midi": 88,
          "duration": 0.227273,
          "velocity": 1
        },
        {
          "time": 196.596004,
          "name": "F#6",
          "midi": 90,
          "duration": 0.227273,
          "velocity": 1
        },
        {
          "time": 196.823277,
          "name": "G#6",
          "midi": 92,
          "duration": 1.438153,
          "velocity": 1
        },
        {
          "time": 198.261429,
          "name": "C6",
          "midi": 84,
          "duration": 0.454545,
          "velocity": 1
        },
        {
          "time": 198.715975,
          "name": "C#6",
          "midi": 85,
          "duration": 1.057841,
          "velocity": 1
        },
        {
          "time": 201.17471,
          "name": "F#6",
          "midi": 90,
          "duration": 0.946349,
          "velocity": 1
        },
        {
          "time": 202.121059,
          "name": "C#6",
          "midi": 85,
          "duration": 0.454545,
          "velocity": 1
        },
        {
          "time": 202.575605,
          "name": "E6",
          "midi": 88,
          "duration": 0.245902,
          "velocity": 1
        },
        {
          "time": 202.821507,
          "name": "D6",
          "midi": 86,
          "duration": 0.245902,
          "velocity": 1
        },
        {
          "time": 203.067408,
          "name": "E6",
          "midi": 88,
          "duration": 0.188525,
          "velocity": 1
        },
        {
          "time": 203.31331,
          "name": "D6",
          "midi": 86,
          "duration": 0.188525,
          "velocity": 1
        },
        {
          "time": 203.559212,
          "name": "C#6",
          "midi": 85,
          "duration": 0.060606,
          "velocity": 1
        },
        {
          "time": 203.619818,
          "name": "D6",
          "midi": 86,
          "duration": 0.060606,
          "velocity": 1
        },
        {
          "time": 203.680424,
          "name": "C#6",
          "midi": 85,
          "duration": 0.106061,
          "velocity": 1
        },
        {
          "time": 203.786485,
          "name": "B5",
          "midi": 83,
          "duration": 0.227273,
          "velocity": 1
        },
        {
          "time": 204.013757,
          "name": "C#6",
          "midi": 85,
          "duration": 0.174242,
          "velocity": 1
        },
        {
          "time": 204.24103,
          "name": "B5",
          "midi": 83,
          "duration": 0.174242,
          "velocity": 1
        },
        {
          "time": 204.468303,
          "name": "A5",
          "midi": 81,
          "duration": 0.3125,
          "velocity": 1
        },
        {
          "time": 204.780803,
          "name": "B4",
          "midi": 71,
          "duration": 0.245902,
          "velocity": 1
        },
        {
          "time": 205.026705,
          "name": "C#5",
          "midi": 73,
          "duration": 0.245902,
          "velocity": 1
        },
        {
          "time": 205.272606,
          "name": "F5",
          "midi": 77,
          "duration": 0.245902,
          "velocity": 1
        },
        {
          "time": 205.518508,
          "name": "A5",
          "midi": 81,
          "duration": 0.227273,
          "velocity": 1
        },
        {
          "time": 205.745781,
          "name": "F5",
          "midi": 77,
          "duration": 0.227273,
          "velocity": 1
        },
        {
          "time": 205.973054,
          "name": "A5",
          "midi": 81,
          "duration": 0.227273,
          "velocity": 1
        },
        {
          "time": 206.200326,
          "name": "F5",
          "midi": 77,
          "duration": 0.227273,
          "velocity": 1
        },
        {
          "time": 206.427599,
          "name": "G#5",
          "midi": 80,
          "duration": 0.245902,
          "velocity": 1
        },
        {
          "time": 206.673501,
          "name": "F#5",
          "midi": 78,
          "duration": 0.245902,
          "velocity": 1
        },
        {
          "time": 206.919403,
          "name": "F#5",
          "midi": 78,
          "duration": 0.065574,
          "velocity": 1
        },
        {
          "time": 206.984976,
          "name": "G#5",
          "midi": 80,
          "duration": 0.065574,
          "velocity": 1
        },
        {
          "time": 207.05055,
          "name": "F#5",
          "midi": 78,
          "duration": 0.114754,
          "velocity": 1
        },
        {
          "time": 207.165304,
          "name": "F5",
          "midi": 77,
          "duration": 0.245902,
          "velocity": 1
        },
        {
          "time": 207.411206,
          "name": "F#5",
          "midi": 78,
          "duration": 0.909091,
          "velocity": 1
        },
        {
          "time": 208.715034,
          "name": "B5",
          "midi": 83,
          "duration": 0.3,
          "velocity": 1
        },
        {
          "time": 209.015034,
          "name": "A5",
          "midi": 81,
          "duration": 0.254237,
          "velocity": 1
        },
        {
          "time": 209.269271,
          "name": "G#5",
          "midi": 80,
          "duration": 0.254237,
          "velocity": 1
        },
        {
          "time": 209.523508,
          "name": "G#5",
          "midi": 80,
          "duration": 0.227273,
          "velocity": 1
        },
        {
          "time": 209.750781,
          "name": "A5",
          "midi": 81,
          "duration": 0.227273,
          "velocity": 1
        },
        {
          "time": 209.978054,
          "name": "G#5",
          "midi": 80,
          "duration": 0.174242,
          "velocity": 1
        },
        {
          "time": 210.205327,
          "name": "F#5",
          "midi": 78,
          "duration": 0.174242,
          "velocity": 1
        },
        {
          "time": 210.432599,
          "name": "E5",
          "midi": 76,
          "duration": 0.288462,
          "velocity": 1
        },
        {
          "time": 210.721061,
          "name": "A5",
          "midi": 81,
          "duration": 0.243902,
          "velocity": 1
        },
        {
          "time": 210.964963,
          "name": "G#5",
          "midi": 80,
          "duration": 0.186992,
          "velocity": 1
        },
        {
          "time": 211.208866,
          "name": "F#5",
          "midi": 78,
          "duration": 0.186992,
          "velocity": 1
        },
        {
          "time": 211.452768,
          "name": "E5",
          "midi": 76,
          "duration": 0.280374,
          "velocity": 1
        },
        {
          "time": 211.733142,
          "name": "A5",
          "midi": 81,
          "duration": 0.280374,
          "velocity": 1
        },
        {
          "time": 212.013516,
          "name": "G#5",
          "midi": 80,
          "duration": 0.242105,
          "velocity": 1
        },
        {
          "time": 212.329305,
          "name": "F#5",
          "midi": 78,
          "duration": 0.242105,
          "velocity": 1
        },
        {
          "time": 212.645095,
          "name": "E5",
          "midi": 76,
          "duration": 0.491804,
          "velocity": 1
        },
        {
          "time": 213.136898,
          "name": "E5",
          "midi": 76,
          "duration": 0.75729,
          "velocity": 1
        },
        {
          "time": 213.894189,
          "name": "B4",
          "midi": 71,
          "duration": 0.265487,
          "velocity": 1
        },
        {
          "time": 214.159675,
          "name": "E5",
          "midi": 76,
          "duration": 0.265487,
          "velocity": 1
        },
        {
          "time": 214.425162,
          "name": "D5",
          "midi": 74,
          "duration": 0.265487,
          "velocity": 1
        },
        {
          "time": 214.690649,
          "name": "C#5",
          "midi": 73,
          "duration": 1.892698,
          "velocity": 1
        },
        {
          "time": 216.829249,
          "name": "G#3",
          "midi": 56,
          "duration": 0.245902,
          "velocity": 1
        },
        {
          "time": 217.07515,
          "name": "B3",
          "midi": 59,
          "duration": 0.245902,
          "velocity": 1
        },
        {
          "time": 217.321052,
          "name": "E4",
          "midi": 64,
          "duration": 0.245902,
          "velocity": 1
        },
        {
          "time": 217.566954,
          "name": "F#4",
          "midi": 66,
          "duration": 0.151515,
          "velocity": 1
        },
        {
          "time": 217.718469,
          "name": "G#4",
          "midi": 68,
          "duration": 0.151515,
          "velocity": 1
        },
        {
          "time": 217.869984,
          "name": "B4",
          "midi": 71,
          "duration": 0.151515,
          "velocity": 1
        },
        {
          "time": 218.021499,
          "name": "E5",
          "midi": 76,
          "duration": 0.151515,
          "velocity": 1
        },
        {
          "time": 218.173014,
          "name": "F#5",
          "midi": 78,
          "duration": 0.151515,
          "velocity": 1
        },
        {
          "time": 218.32453,
          "name": "G#5",
          "midi": 80,
          "duration": 0.151515,
          "velocity": 1
        },
        {
          "time": 218.476045,
          "name": "F#5",
          "midi": 78,
          "duration": 0.081967,
          "velocity": 1
        },
        {
          "time": 218.558012,
          "name": "G#5",
          "midi": 80,
          "duration": 0.081967,
          "velocity": 1
        },
        {
          "time": 218.639979,
          "name": "F#5",
          "midi": 78,
          "duration": 1.274218,
          "velocity": 1
        },
        {
          "time": 219.914197,
          "name": "E5",
          "midi": 76,
          "duration": 0.454545,
          "velocity": 1
        },
        {
          "time": 220.614644,
          "name": "G#3",
          "midi": 56,
          "duration": 0.245902,
          "velocity": 1
        },
        {
          "time": 220.860546,
          "name": "B3",
          "midi": 59,
          "duration": 0.245902,
          "velocity": 1
        },
        {
          "time": 221.106448,
          "name": "E4",
          "midi": 64,
          "duration": 0.245902,
          "velocity": 1
        },
        {
          "time": 221.35235,
          "name": "F#4",
          "midi": 66,
          "duration": 0.151515,
          "velocity": 1
        },
        {
          "time": 221.503865,
          "name": "G#4",
          "midi": 68,
          "duration": 0.151515,
          "velocity": 1
        },
        {
          "time": 221.65538,
          "name": "B4",
          "midi": 71,
          "duration": 0.151515,
          "velocity": 1
        },
        {
          "time": 221.806895,
          "name": "E5",
          "midi": 76,
          "duration": 0.151515,
          "velocity": 1
        },
        {
          "time": 221.95841,
          "name": "F#5",
          "midi": 78,
          "duration": 0.151515,
          "velocity": 1
        },
        {
          "time": 222.109926,
          "name": "G#5",
          "midi": 80,
          "duration": 0.151515,
          "velocity": 1
        },
        {
          "time": 222.261441,
          "name": "F#5",
          "midi": 78,
          "duration": 0.081967,
          "velocity": 1
        },
        {
          "time": 222.343408,
          "name": "G#5",
          "midi": 80,
          "duration": 0.081967,
          "velocity": 1
        },
        {
          "time": 222.425375,
          "name": "F#5",
          "midi": 78,
          "duration": 1.274218,
          "velocity": 1
        },
        {
          "time": 223.699593,
          "name": "E5",
          "midi": 76,
          "duration": 0.454545,
          "velocity": 1
        },
        {
          "time": 224.476719,
          "name": "D#5",
          "midi": 75,
          "duration": 0.245902,
          "velocity": 1
        },
        {
          "time": 224.722621,
          "name": "A5",
          "midi": 81,
          "duration": 0.245902,
          "velocity": 1
        },
        {
          "time": 224.968523,
          "name": "C#6",
          "midi": 85,
          "duration": 0.245902,
          "velocity": 1
        },
        {
          "time": 225.214425,
          "name": "D#6",
          "midi": 87,
          "duration": 0.060606,
          "velocity": 1
        },
        {
          "time": 225.275031,
          "name": "E6",
          "midi": 88,
          "duration": 0.060606,
          "velocity": 1
        },
        {
          "time": 225.335637,
          "name": "D#6",
          "midi": 87,
          "duration": 0.106061,
          "velocity": 1
        },
        {
          "time": 225.441697,
          "name": "C#6",
          "midi": 85,
          "duration": 0.227273,
          "velocity": 1
        },
        {
          "time": 225.66897,
          "name": "B5",
          "midi": 83,
          "duration": 0.174242,
          "velocity": 1
        },
        {
          "time": 225.896243,
          "name": "A5",
          "midi": 81,
          "duration": 0.174242,
          "velocity": 1
        },
        {
          "time": 226.123516,
          "name": "G#5",
          "midi": 80,
          "duration": 0.12987,
          "velocity": 1
        },
        {
          "time": 226.318321,
          "name": "G#5",
          "midi": 80,
          "duration": 0.127741,
          "velocity": 1
        },
        {
          "time": 226.446062,
          "name": "A#5",
          "midi": 82,
          "duration": 0.122951,
          "velocity": 1
        },
        {
          "time": 226.569013,
          "name": "C6",
          "midi": 84,
          "duration": 0.122951,
          "velocity": 1
        },
        {
          "time": 226.691964,
          "name": "C#6",
          "midi": 85,
          "duration": 0.122951,
          "velocity": 1
        },
        {
          "time": 226.814915,
          "name": "C6",
          "midi": 84,
          "duration": 0.122951,
          "velocity": 1
        },
        {
          "time": 226.937866,
          "name": "C#6",
          "midi": 85,
          "duration": 0.122951,
          "velocity": 1
        },
        {
          "time": 227.060817,
          "name": "D#6",
          "midi": 87,
          "duration": 0.122951,
          "velocity": 1
        },
        {
          "time": 227.183767,
          "name": "E6",
          "midi": 88,
          "duration": 0.113636,
          "velocity": 1
        },
        {
          "time": 227.297404,
          "name": "C6",
          "midi": 84,
          "duration": 0.113636,
          "velocity": 1
        },
        {
          "time": 227.41104,
          "name": "C#6",
          "midi": 85,
          "duration": 0.113636,
          "velocity": 1
        },
        {
          "time": 227.524677,
          "name": "D#6",
          "midi": 87,
          "duration": 0.113636,
          "velocity": 1
        },
        {
          "time": 227.638313,
          "name": "E6",
          "midi": 88,
          "duration": 0.113636,
          "velocity": 1
        },
        {
          "time": 227.751949,
          "name": "D#6",
          "midi": 87,
          "duration": 0.113636,
          "velocity": 1
        },
        {
          "time": 227.865586,
          "name": "E6",
          "midi": 88,
          "duration": 0.113636,
          "velocity": 1
        },
        {
          "time": 227.979222,
          "name": "F#6",
          "midi": 90,
          "duration": 0.113636,
          "velocity": 1
        },
        {
          "time": 228.092858,
          "name": "G#6",
          "midi": 92,
          "duration": 0.163935,
          "velocity": 1
        },
        {
          "time": 228.256793,
          "name": "G#6",
          "midi": 92,
          "duration": 0.163934,
          "velocity": 1
        },
        {
          "time": 228.420727,
          "name": "A6",
          "midi": 93,
          "duration": 0.163935,
          "velocity": 1
        },
        {
          "time": 228.584662,
          "name": "G#6",
          "midi": 92,
          "duration": 0.163935,
          "velocity": 1
        },
        {
          "time": 228.748596,
          "name": "A6",
          "midi": 93,
          "duration": 0.163934,
          "velocity": 1
        },
        {
          "time": 228.912531,
          "name": "G#6",
          "midi": 92,
          "duration": 0.163935,
          "velocity": 1
        },
        {
          "time": 229.076465,
          "name": "A6",
          "midi": 93,
          "duration": 0.151515,
          "velocity": 1
        },
        {
          "time": 229.227981,
          "name": "G#6",
          "midi": 92,
          "duration": 0.151515,
          "velocity": 1
        },
        {
          "time": 229.379496,
          "name": "A6",
          "midi": 93,
          "duration": 0.151515,
          "velocity": 1
        },
        {
          "time": 229.531011,
          "name": "G#6",
          "midi": 92,
          "duration": 0.192308,
          "velocity": 1
        },
        {
          "time": 229.723319,
          "name": "B5",
          "midi": 83,
          "duration": 0.215054,
          "velocity": 1
        },
        {
          "time": 229.938372,
          "name": "C6",
          "midi": 84,
          "duration": 0.322581,
          "velocity": 1
        },
        {
          "time": 230.260953,
          "name": "C#6",
          "midi": 85,
          "duration": 0.983607,
          "velocity": 1
        },
        {
          "time": 232.299106,
          "name": "G#3",
          "midi": 56,
          "duration": 0.550458,
          "velocity": 1
        },
        {
          "time": 232.849564,
          "name": "C4",
          "midi": 60,
          "duration": 0.491804,
          "velocity": 1
        },
        {
          "time": 233.341368,
          "name": "C#4",
          "midi": 61,
          "duration": 0.454545,
          "velocity": 1
        },
        {
          "time": 233.795913,
          "name": "D#4",
          "midi": 63,
          "duration": 0.454545,
          "velocity": 1
        },
        {
          "time": 234.250459,
          "name": "F#4",
          "midi": 66,
          "duration": 0.491804,
          "velocity": 1
        },
        {
          "time": 234.742262,
          "name": "E4",
          "midi": 64,
          "duration": 0.491804,
          "velocity": 1
        },
        {
          "time": 235.234066,
          "name": "F#4",
          "midi": 66,
          "duration": 0.075758,
          "velocity": 1
        },
        {
          "time": 235.309823,
          "name": "E4",
          "midi": 64,
          "duration": 0.075758,
          "velocity": 1
        },
        {
          "time": 235.385581,
          "name": "D#4",
          "midi": 63,
          "duration": 0.30303,
          "velocity": 1
        },
        {
          "time": 235.688611,
          "name": "C#4",
          "midi": 61,
          "duration": 0.454545,
          "velocity": 1
        },
        {
          "time": 236.143157,
          "name": "E4",
          "midi": 64,
          "duration": 1.438153,
          "velocity": 1
        },
        {
          "time": 237.581309,
          "name": "C4",
          "midi": 60,
          "duration": 0.454545,
          "velocity": 1
        },
        {
          "time": 238.035855,
          "name": "D#4",
          "midi": 63,
          "duration": 1.438153,
          "velocity": 1
        },
        {
          "time": 239.474007,
          "name": "C#4",
          "midi": 61,
          "duration": 0.454545,
          "velocity": 1
        },
        {
          "time": 240.256422,
          "name": "G#3",
          "midi": 56,
          "duration": 0.327869,
          "velocity": 1
        },
        {
          "time": 240.584291,
          "name": "A#3",
          "midi": 58,
          "duration": 0.327869,
          "velocity": 1
        },
        {
          "time": 240.91216,
          "name": "C4",
          "midi": 60,
          "duration": 0.30303,
          "velocity": 1
        },
        {
          "time": 241.21519,
          "name": "C#4",
          "midi": 61,
          "duration": 0.30303,
          "velocity": 1
        },
        {
          "time": 241.51822,
          "name": "D#4",
          "midi": 63,
          "duration": 0.30303,
          "velocity": 1
        },
        {
          "time": 241.821251,
          "name": "F#4",
          "midi": 66,
          "duration": 0.327869,
          "velocity": 1
        },
        {
          "time": 242.14912,
          "name": "E4",
          "midi": 64,
          "duration": 0.327869,
          "velocity": 1
        },
        {
          "time": 242.476989,
          "name": "F#4",
          "midi": 66,
          "duration": 0.327869,
          "velocity": 1
        },
        {
          "time": 242.804858,
          "name": "E4",
          "midi": 64,
          "duration": 0.075758,
          "velocity": 1
        },
        {
          "time": 242.880615,
          "name": "F#4",
          "midi": 66,
          "duration": 0.075758,
          "velocity": 1
        },
        {
          "time": 242.956373,
          "name": "E4",
          "midi": 64,
          "duration": 0.151515,
          "velocity": 1
        },
        {
          "time": 243.107888,
          "name": "D#4",
          "midi": 63,
          "duration": 0.30303,
          "velocity": 1
        },
        {
          "time": 243.410918,
          "name": "C#4",
          "midi": 61,
          "duration": 0.30303,
          "velocity": 1
        },
        {
          "time": 243.713949,
          "name": "G#4",
          "midi": 68,
          "duration": 0.491804,
          "velocity": 1
        },
        {
          "time": 244.205752,
          "name": "G#4",
          "midi": 68,
          "duration": 0.946349,
          "velocity": 1
        },
        {
          "time": 245.152101,
          "name": "C4",
          "midi": 60,
          "duration": 0.454545,
          "velocity": 1
        },
        {
          "time": 245.606647,
          "name": "C#4",
          "midi": 61,
          "duration": 1.892698,
          "velocity": 1
        },
        {
          "time": 247.907399,
          "name": "G#5",
          "midi": 80,
          "duration": 0.327869,
          "velocity": 1
        },
        {
          "time": 248.235268,
          "name": "A5",
          "midi": 81,
          "duration": 0.327869,
          "velocity": 1
        },
        {
          "time": 248.563137,
          "name": "G#5",
          "midi": 80,
          "duration": 0.30303,
          "velocity": 1
        },
        {
          "time": 248.866167,
          "name": "D#5",
          "midi": 75,
          "duration": 0.30303,
          "velocity": 1
        },
        {
          "time": 249.169197,
          "name": "G#5",
          "midi": 80,
          "duration": 0.30303,
          "velocity": 1
        },
        {
          "time": 249.800097,
          "name": "G#4",
          "midi": 68,
          "duration": 0.327869,
          "velocity": 1
        },
        {
          "time": 250.127966,
          "name": "C5",
          "midi": 72,
          "duration": 0.327869,
          "velocity": 1
        },
        {
          "time": 250.455835,
          "name": "C#5",
          "midi": 73,
          "duration": 0.075758,
          "velocity": 1
        },
        {
          "time": 250.531592,
          "name": "D#5",
          "midi": 75,
          "duration": 0.075758,
          "velocity": 1
        },
        {
          "time": 250.60735,
          "name": "C#5",
          "midi": 73,
          "duration": 0.151515,
          "velocity": 1
        },
        {
          "time": 250.758865,
          "name": "D#5",
          "midi": 75,
          "duration": 0.30303,
          "velocity": 1
        },
        {
          "time": 251.061895,
          "name": "E5",
          "midi": 76,
          "duration": 0.30303,
          "velocity": 1
        },
        {
          "time": 251.364926,
          "name": "G#5",
          "midi": 80,
          "duration": 0.327869,
          "velocity": 1
        },
        {
          "time": 251.692795,
          "name": "G5",
          "midi": 79,
          "duration": 0.327869,
          "velocity": 1
        },
        {
          "time": 252.020664,
          "name": "G#5",
          "midi": 80,
          "duration": 0.327869,
          "velocity": 1
        },
        {
          "time": 252.348533,
          "name": "C6",
          "midi": 84,
          "duration": 0.30303,
          "velocity": 1
        },
        {
          "time": 252.651563,
          "name": "C#6",
          "midi": 85,
          "duration": 0.30303,
          "velocity": 1
        },
        {
          "time": 252.954593,
          "name": "D#6",
          "midi": 87,
          "duration": 0.30303,
          "velocity": 1
        },
        {
          "time": 253.257624,
          "name": "G#5",
          "midi": 80,
          "duration": 0.245902,
          "velocity": 1
        },
        {
          "time": 253.585493,
          "name": "A#5",
          "midi": 82,
          "duration": 0.245902,
          "velocity": 1
        },
        {
          "time": 253.913362,
          "name": "C6",
          "midi": 84,
          "duration": 0.245902,
          "velocity": 1
        },
        {
          "time": 254.241231,
          "name": "C#6",
          "midi": 85,
          "duration": 0.227273,
          "velocity": 1
        },
        {
          "time": 254.544261,
          "name": "D#6",
          "midi": 87,
          "duration": 0.227273,
          "velocity": 1
        },
        {
          "time": 254.847291,
          "name": "E6",
          "midi": 88,
          "duration": 0.227273,
          "velocity": 1
        },
        {
          "time": 255.150322,
          "name": "A6",
          "midi": 93,
          "duration": 0.113636,
          "velocity": 1
        },
        {
          "time": 255.263958,
          "name": "G#6",
          "midi": 92,
          "duration": 0.113636,
          "velocity": 1
        },
        {
          "time": 255.377595,
          "name": "A6",
          "midi": 93,
          "duration": 0.113636,
          "velocity": 1
        },
        {
          "time": 255.491231,
          "name": "G#6",
          "midi": 92,
          "duration": 0.113636,
          "velocity": 1
        },
        {
          "time": 255.604867,
          "name": "A6",
          "midi": 93,
          "duration": 0.113636,
          "velocity": 1
        },
        {
          "time": 255.718504,
          "name": "G#6",
          "midi": 92,
          "duration": 0.113636,
          "velocity": 1
        },
        {
          "time": 255.83214,
          "name": "A6",
          "midi": 93,
          "duration": 0.113636,
          "velocity": 1
        },
        {
          "time": 255.945776,
          "name": "G#6",
          "midi": 92,
          "duration": 0.113636,
          "velocity": 1
        },
        {
          "time": 256.059413,
          "name": "A6",
          "midi": 93,
          "duration": 0.087719,
          "velocity": 1
        },
        {
          "time": 256.147132,
          "name": "G#6",
          "midi": 92,
          "duration": 0.087719,
          "velocity": 1
        },
        {
          "time": 256.234851,
          "name": "A6",
          "midi": 93,
          "duration": 0.087719,
          "velocity": 1
        },
        {
          "time": 256.322571,
          "name": "G#6",
          "midi": 92,
          "duration": 0.087719,
          "velocity": 1
        },
        {
          "time": 256.41029,
          "name": "A6",
          "midi": 93,
          "duration": 0.087719,
          "velocity": 1
        },
        {
          "time": 256.498009,
          "name": "G#6",
          "midi": 92,
          "duration": 0.087719,
          "velocity": 1
        },
        {
          "time": 256.585729,
          "name": "A6",
          "midi": 93,
          "duration": 0.087719,
          "velocity": 1
        },
        {
          "time": 256.673448,
          "name": "G#6",
          "midi": 92,
          "duration": 0.087719,
          "velocity": 1
        },
        {
          "time": 256.761167,
          "name": "A6",
          "midi": 93,
          "duration": 0.087719,
          "velocity": 1
        },
        {
          "time": 256.848887,
          "name": "G#6",
          "midi": 92,
          "duration": 0.087719,
          "velocity": 1
        },
        {
          "time": 256.936606,
          "name": "A6",
          "midi": 93,
          "duration": 0.087719,
          "velocity": 1
        },
        {
          "time": 257.024325,
          "name": "G#6",
          "midi": 92,
          "duration": 0.087719,
          "velocity": 1
        },
        {
          "time": 257.112045,
          "name": "A6",
          "midi": 93,
          "duration": 0.081967,
          "velocity": 1
        },
        {
          "time": 257.194012,
          "name": "G#6",
          "midi": 92,
          "duration": 0.081967,
          "velocity": 1
        },
        {
          "time": 257.275979,
          "name": "A6",
          "midi": 93,
          "duration": 0.081967,
          "velocity": 1
        },
        {
          "time": 257.357947,
          "name": "G#6",
          "midi": 92,
          "duration": 0.081967,
          "velocity": 1
        },
        {
          "time": 257.439914,
          "name": "A6",
          "midi": 93,
          "duration": 0.081967,
          "velocity": 1
        },
        {
          "time": 257.521881,
          "name": "G#6",
          "midi": 92,
          "duration": 0.081967,
          "velocity": 1
        },
        {
          "time": 257.603848,
          "name": "A6",
          "midi": 93,
          "duration": 0.081967,
          "velocity": 1
        },
        {
          "time": 257.685816,
          "name": "G#6",
          "midi": 92,
          "duration": 0.081967,
          "velocity": 1
        },
        {
          "time": 257.77598,
          "name": "A6",
          "midi": 93,
          "duration": 0.081967,
          "velocity": 1
        },
        {
          "time": 257.857947,
          "name": "G#6",
          "midi": 92,
          "duration": 0.081967,
          "velocity": 1
        },
        {
          "time": 257.939914,
          "name": "A6",
          "midi": 93,
          "duration": 0.081967,
          "velocity": 1
        },
        {
          "time": 258.021881,
          "name": "G#6",
          "midi": 92,
          "duration": 0.081346,
          "velocity": 1
        },
        {
          "time": 258.103228,
          "name": "A6",
          "midi": 93,
          "duration": 0.075758,
          "velocity": 1
        },
        {
          "time": 258.178985,
          "name": "G#6",
          "midi": 92,
          "duration": 0.075758,
          "velocity": 1
        },
        {
          "time": 258.254743,
          "name": "A6",
          "midi": 93,
          "duration": 0.075758,
          "velocity": 1
        },
        {
          "time": 258.3305,
          "name": "G#6",
          "midi": 92,
          "duration": 0.075758,
          "velocity": 1
        },
        {
          "time": 258.406258,
          "name": "A6",
          "midi": 93,
          "duration": 0.075758,
          "velocity": 1
        },
        {
          "time": 258.482016,
          "name": "G#6",
          "midi": 92,
          "duration": 0.075758,
          "velocity": 1
        },
        {
          "time": 258.557773,
          "name": "A6",
          "midi": 93,
          "duration": 0.075758,
          "velocity": 1
        },
        {
          "time": 258.633531,
          "name": "G#6",
          "midi": 92,
          "duration": 0.075758,
          "velocity": 1
        },
        {
          "time": 258.709288,
          "name": "A6",
          "midi": 93,
          "duration": 0.075758,
          "velocity": 1
        },
        {
          "time": 258.785046,
          "name": "G#6",
          "midi": 92,
          "duration": 0.075758,
          "velocity": 1
        },
        {
          "time": 258.860803,
          "name": "A6",
          "midi": 93,
          "duration": 0.075758,
          "velocity": 1
        },
        {
          "time": 258.936561,
          "name": "G#6",
          "midi": 92,
          "duration": 0.076379,
          "velocity": 1
        },
        {
          "time": 259.004743,
          "name": "A6",
          "midi": 93,
          "duration": 0.081967,
          "velocity": 1
        },
        {
          "time": 259.08671,
          "name": "G#6",
          "midi": 92,
          "duration": 0.081967,
          "velocity": 1
        },
        {
          "time": 259.168677,
          "name": "A6",
          "midi": 93,
          "duration": 0.081967,
          "velocity": 1
        },
        {
          "time": 259.250645,
          "name": "G#6",
          "midi": 92,
          "duration": 0.081967,
          "velocity": 1
        },
        {
          "time": 259.332612,
          "name": "A6",
          "midi": 93,
          "duration": 0.081967,
          "velocity": 1
        },
        {
          "time": 259.414579,
          "name": "G#6",
          "midi": 92,
          "duration": 0.081967,
          "velocity": 1
        },
        {
          "time": 259.496546,
          "name": "A6",
          "midi": 93,
          "duration": 0.081967,
          "velocity": 1
        },
        {
          "time": 259.578514,
          "name": "G#6",
          "midi": 92,
          "duration": 0.081967,
          "velocity": 1
        },
        {
          "time": 259.668678,
          "name": "A6",
          "midi": 93,
          "duration": 0.081967,
          "velocity": 1
        },
        {
          "time": 259.750645,
          "name": "G#6",
          "midi": 92,
          "duration": 0.081967,
          "velocity": 1
        },
        {
          "time": 259.832612,
          "name": "A6",
          "midi": 93,
          "duration": 0.081967,
          "velocity": 1
        },
        {
          "time": 259.914579,
          "name": "G#6",
          "midi": 92,
          "duration": 0.081346,
          "velocity": 1
        },
        {
          "time": 259.995926,
          "name": "A6",
          "midi": 93,
          "duration": 0.075758,
          "velocity": 1
        },
        {
          "time": 260.071683,
          "name": "G#6",
          "midi": 92,
          "duration": 0.075758,
          "velocity": 1
        },
        {
          "time": 260.147441,
          "name": "A6",
          "midi": 93,
          "duration": 0.075758,
          "velocity": 1
        },
        {
          "time": 260.223198,
          "name": "G#6",
          "midi": 92,
          "duration": 0.075758,
          "velocity": 1
        },
        {
          "time": 260.298956,
          "name": "A6",
          "midi": 93,
          "duration": 0.075758,
          "velocity": 1
        },
        {
          "time": 260.374714,
          "name": "G#6",
          "midi": 92,
          "duration": 0.075758,
          "velocity": 1
        },
        {
          "time": 260.442895,
          "name": "G6",
          "midi": 91,
          "duration": 0.227273,
          "velocity": 1
        },
        {
          "time": 260.670168,
          "name": "G#6",
          "midi": 92,
          "duration": 0.227273,
          "velocity": 1
        },
        {
          "time": 260.897441,
          "name": "G#6",
          "midi": 92,
          "duration": 0.163934,
          "velocity": 1
        },
        {
          "time": 261.061375,
          "name": "E6",
          "midi": 88,
          "duration": 0.163935,
          "velocity": 1
        },
        {
          "time": 261.22531,
          "name": "D#6",
          "midi": 87,
          "duration": 0.163934,
          "velocity": 1
        },
        {
          "time": 261.389244,
          "name": "C#6",
          "midi": 85,
          "duration": 0.163934,
          "velocity": 1
        },
        {
          "time": 261.553179,
          "name": "A5",
          "midi": 81,
          "duration": 0.163935,
          "velocity": 1
        },
        {
          "time": 261.717113,
          "name": "G#5",
          "midi": 80,
          "duration": 0.163934,
          "velocity": 1
        },
        {
          "time": 261.881048,
          "name": "E5",
          "midi": 76,
          "duration": 0.151515,
          "velocity": 1
        },
        {
          "time": 262.032563,
          "name": "D#5",
          "midi": 75,
          "duration": 0.151515,
          "velocity": 1
        },
        {
          "time": 262.184078,
          "name": "C#5",
          "midi": 73,
          "duration": 0.151515,
          "velocity": 1
        },
        {
          "time": 262.335593,
          "name": "G#4",
          "midi": 68,
          "duration": 0.151515,
          "velocity": 1
        },
        {
          "time": 262.487108,
          "name": "E4",
          "midi": 64,
          "duration": 0.16469,
          "velocity": 1
        },
        {
          "time": 262.651799,
          "name": "C#4",
          "midi": 61,
          "duration": 0.217391,
          "velocity": 1
        },
        {
          "time": 262.86919,
          "name": "B3",
          "midi": 59,
          "duration": 0.122951,
          "velocity": 1
        },
        {
          "time": 262.992141,
          "name": "E4",
          "midi": 64,
          "duration": 0.122951,
          "velocity": 1
        },
        {
          "time": 263.115092,
          "name": "B4",
          "midi": 71,
          "duration": 0.122951,
          "velocity": 1
        },
        {
          "time": 263.238043,
          "name": "E5",
          "midi": 76,
          "duration": 0.122951,
          "velocity": 1
        },
        {
          "time": 263.360994,
          "name": "E5",
          "midi": 76,
          "duration": 0.122951,
          "velocity": 1
        },
        {
          "time": 263.360994,
          "name": "E5",
          "midi": 76,
          "duration": 0.491804,
          "velocity": 0.88189
        },
        {
          "time": 263.483945,
          "name": "B4",
          "midi": 71,
          "duration": 0.122951,
          "velocity": 1
        },
        {
          "time": 263.606895,
          "name": "E4",
          "midi": 64,
          "duration": 0.122951,
          "velocity": 1
        },
        {
          "time": 263.729846,
          "name": "B3",
          "midi": 59,
          "duration": 0.122951,
          "velocity": 1
        },
        {
          "time": 263.852797,
          "name": "B3",
          "midi": 59,
          "duration": 0.113636,
          "velocity": 1
        },
        {
          "time": 263.852797,
          "name": "F#5",
          "midi": 78,
          "duration": 0.454545,
          "velocity": 0.88189
        },
        {
          "time": 263.966434,
          "name": "E4",
          "midi": 64,
          "duration": 0.113636,
          "velocity": 1
        },
        {
          "time": 264.08007,
          "name": "B4",
          "midi": 71,
          "duration": 0.113636,
          "velocity": 1
        },
        {
          "time": 264.193706,
          "name": "E5",
          "midi": 76,
          "duration": 0.113636,
          "velocity": 1
        },
        {
          "time": 264.307343,
          "name": "E5",
          "midi": 76,
          "duration": 0.113636,
          "velocity": 1
        },
        {
          "time": 264.307343,
          "name": "G#5",
          "midi": 80,
          "duration": 0.454545,
          "velocity": 0.88189
        },
        {
          "time": 264.420979,
          "name": "B4",
          "midi": 71,
          "duration": 0.113636,
          "velocity": 1
        },
        {
          "time": 264.534615,
          "name": "E4",
          "midi": 64,
          "duration": 0.113636,
          "velocity": 1
        },
        {
          "time": 264.648252,
          "name": "B3",
          "midi": 59,
          "duration": 0.113636,
          "velocity": 1
        },
        {
          "time": 264.761888,
          "name": "A3",
          "midi": 57,
          "duration": 0.122951,
          "velocity": 1
        },
        {
          "time": 264.761888,
          "name": "A5",
          "midi": 81,
          "duration": 0.491804,
          "velocity": 0.88189
        },
        {
          "time": 264.884839,
          "name": "E4",
          "midi": 64,
          "duration": 0.122951,
          "velocity": 1
        },
        {
          "time": 265.00779,
          "name": "A4",
          "midi": 69,
          "duration": 0.122951,
          "velocity": 1
        },
        {
          "time": 265.130741,
          "name": "E5",
          "midi": 76,
          "duration": 0.122951,
          "velocity": 1
        },
        {
          "time": 265.253692,
          "name": "E5",
          "midi": 76,
          "duration": 0.122951,
          "velocity": 1
        },
        {
          "time": 265.253692,
          "name": "C#5",
          "midi": 73,
          "duration": 0.491804,
          "velocity": 0.88189
        },
        {
          "time": 265.376643,
          "name": "A4",
          "midi": 69,
          "duration": 0.122951,
          "velocity": 1
        },
        {
          "time": 265.499593,
          "name": "E4",
          "midi": 64,
          "duration": 0.122951,
          "velocity": 1
        },
        {
          "time": 265.622544,
          "name": "A3",
          "midi": 57,
          "duration": 0.122951,
          "velocity": 1
        },
        {
          "time": 265.745495,
          "name": "A3",
          "midi": 57,
          "duration": 0.113636,
          "velocity": 1
        },
        {
          "time": 265.745495,
          "name": "G#5",
          "midi": 80,
          "duration": 0.454545,
          "velocity": 0.88189
        },
        {
          "time": 265.859132,
          "name": "E4",
          "midi": 64,
          "duration": 0.113636,
          "velocity": 1
        },
        {
          "time": 265.972768,
          "name": "A4",
          "midi": 69,
          "duration": 0.113636,
          "velocity": 1
        },
        {
          "time": 266.086404,
          "name": "E5",
          "midi": 76,
          "duration": 0.113636,
          "velocity": 1
        },
        {
          "time": 266.200041,
          "name": "E5",
          "midi": 76,
          "duration": 0.113636,
          "velocity": 1
        },
        {
          "time": 266.200041,
          "name": "F#5",
          "midi": 78,
          "duration": 0.454545,
          "velocity": 0.88189
        },
        {
          "time": 266.313677,
          "name": "A4",
          "midi": 69,
          "duration": 0.113636,
          "velocity": 1
        },
        {
          "time": 266.427313,
          "name": "E4",
          "midi": 64,
          "duration": 0.113636,
          "velocity": 1
        },
        {
          "time": 266.54095,
          "name": "A3",
          "midi": 57,
          "duration": 0.113636,
          "velocity": 1
        },
        {
          "time": 266.654586,
          "name": "B3",
          "midi": 59,
          "duration": 0.122951,
          "velocity": 1
        },
        {
          "time": 266.654586,
          "name": "E5",
          "midi": 76,
          "duration": 1.438153,
          "velocity": 0.88189
        },
        {
          "time": 266.777537,
          "name": "E4",
          "midi": 64,
          "duration": 0.122951,
          "velocity": 1
        },
        {
          "time": 266.900488,
          "name": "B4",
          "midi": 71,
          "duration": 0.122951,
          "velocity": 1
        },
        {
          "time": 267.023439,
          "name": "E5",
          "midi": 76,
          "duration": 0.122951,
          "velocity": 1
        },
        {
          "time": 267.14639,
          "name": "E5",
          "midi": 76,
          "duration": 0.122951,
          "velocity": 1
        },
        {
          "time": 267.269341,
          "name": "B4",
          "midi": 71,
          "duration": 0.122951,
          "velocity": 1
        },
        {
          "time": 267.392291,
          "name": "E4",
          "midi": 64,
          "duration": 0.122951,
          "velocity": 1
        },
        {
          "time": 267.515242,
          "name": "B3",
          "midi": 59,
          "duration": 0.122951,
          "velocity": 1
        },
        {
          "time": 267.638193,
          "name": "B3",
          "midi": 59,
          "duration": 0.113636,
          "velocity": 1
        },
        {
          "time": 267.75183,
          "name": "E4",
          "midi": 64,
          "duration": 0.113636,
          "velocity": 1
        },
        {
          "time": 267.865466,
          "name": "B4",
          "midi": 71,
          "duration": 0.113636,
          "velocity": 1
        },
        {
          "time": 267.979102,
          "name": "E5",
          "midi": 76,
          "duration": 0.113636,
          "velocity": 1
        },
        {
          "time": 268.092739,
          "name": "E5",
          "midi": 76,
          "duration": 0.113636,
          "velocity": 1
        },
        {
          "time": 268.092739,
          "name": "D5",
          "midi": 74,
          "duration": 0.454545,
          "velocity": 0.88189
        },
        {
          "time": 268.206375,
          "name": "B4",
          "midi": 71,
          "duration": 0.113636,
          "velocity": 1
        },
        {
          "time": 268.320011,
          "name": "E4",
          "midi": 64,
          "duration": 0.113636,
          "velocity": 1
        },
        {
          "time": 268.433648,
          "name": "B3",
          "midi": 59,
          "duration": 0.113636,
          "velocity": 1
        },
        {
          "time": 268.547284,
          "name": "A3",
          "midi": 57,
          "duration": 0.122951,
          "velocity": 1
        },
        {
          "time": 268.547284,
          "name": "C#5",
          "midi": 73,
          "duration": 0.491804,
          "velocity": 0.88189
        },
        {
          "time": 268.670235,
          "name": "E4",
          "midi": 64,
          "duration": 0.122951,
          "velocity": 1
        },
        {
          "time": 268.793186,
          "name": "A4",
          "midi": 69,
          "duration": 0.122951,
          "velocity": 1
        },
        {
          "time": 268.916137,
          "name": "E5",
          "midi": 76,
          "duration": 0.122951,
          "velocity": 1
        },
        {
          "time": 269.039088,
          "name": "E5",
          "midi": 76,
          "duration": 0.122951,
          "velocity": 1
        },
        {
          "time": 269.039088,
          "name": "F#5",
          "midi": 78,
          "duration": 0.491804,
          "velocity": 0.88189
        },
        {
          "time": 269.162039,
          "name": "A4",
          "midi": 69,
          "duration": 0.122951,
          "velocity": 1
        },
        {
          "time": 269.284989,
          "name": "E4",
          "midi": 64,
          "duration": 0.122951,
          "velocity": 1
        },
        {
          "time": 269.40794,
          "name": "A3",
          "midi": 57,
          "duration": 0.122951,
          "velocity": 1
        },
        {
          "time": 269.530891,
          "name": "A3",
          "midi": 57,
          "duration": 0.113636,
          "velocity": 1
        },
        {
          "time": 269.530891,
          "name": "E5",
          "midi": 76,
          "duration": 0.909091,
          "velocity": 0.88189
        },
        {
          "time": 269.644528,
          "name": "E4",
          "midi": 64,
          "duration": 0.113636,
          "velocity": 1
        },
        {
          "time": 269.758164,
          "name": "A4",
          "midi": 69,
          "duration": 0.113636,
          "velocity": 1
        },
        {
          "time": 269.8718,
          "name": "E5",
          "midi": 76,
          "duration": 0.113636,
          "velocity": 1
        },
        {
          "time": 269.985437,
          "name": "E5",
          "midi": 76,
          "duration": 0.113636,
          "velocity": 1
        },
        {
          "time": 270.099073,
          "name": "A4",
          "midi": 69,
          "duration": 0.113636,
          "velocity": 1
        },
        {
          "time": 270.212709,
          "name": "E4",
          "midi": 64,
          "duration": 0.113636,
          "velocity": 1
        },
        {
          "time": 270.326346,
          "name": "A3",
          "midi": 57,
          "duration": 0.113636,
          "velocity": 1
        },
        {
          "time": 270.439982,
          "name": "B3",
          "midi": 59,
          "duration": 0.122951,
          "velocity": 1
        },
        {
          "time": 270.562933,
          "name": "E4",
          "midi": 64,
          "duration": 0.122951,
          "velocity": 1
        },
        {
          "time": 270.685884,
          "name": "B4",
          "midi": 71,
          "duration": 0.122951,
          "velocity": 1
        },
        {
          "time": 270.808835,
          "name": "E5",
          "midi": 76,
          "duration": 0.122951,
          "velocity": 1
        },
        {
          "time": 270.931786,
          "name": "E5",
          "midi": 76,
          "duration": 0.122951,
          "velocity": 1
        },
        {
          "time": 270.931786,
          "name": "E5",
          "midi": 76,
          "duration": 0.491804,
          "velocity": 0.88189
        },
        {
          "time": 271.054737,
          "name": "B4",
          "midi": 71,
          "duration": 0.122951,
          "velocity": 1
        },
        {
          "time": 271.177687,
          "name": "E4",
          "midi": 64,
          "duration": 0.122951,
          "velocity": 1
        },
        {
          "time": 271.300638,
          "name": "B3",
          "midi": 59,
          "duration": 0.122951,
          "velocity": 1
        },
        {
          "time": 271.423589,
          "name": "B3",
          "midi": 59,
          "duration": 0.113636,
          "velocity": 1
        },
        {
          "time": 271.423589,
          "name": "F#5",
          "midi": 78,
          "duration": 0.454545,
          "velocity": 0.88189
        },
        {
          "time": 271.537226,
          "name": "E4",
          "midi": 64,
          "duration": 0.113636,
          "velocity": 1
        },
        {
          "time": 271.650862,
          "name": "B4",
          "midi": 71,
          "duration": 0.113636,
          "velocity": 1
        },
        {
          "time": 271.764498,
          "name": "E5",
          "midi": 76,
          "duration": 0.113636,
          "velocity": 1
        },
        {
          "time": 271.878135,
          "name": "E5",
          "midi": 76,
          "duration": 0.113636,
          "velocity": 1
        },
        {
          "time": 271.878135,
          "name": "G#5",
          "midi": 80,
          "duration": 0.454545,
          "velocity": 0.88189
        },
        {
          "time": 271.991771,
          "name": "B4",
          "midi": 71,
          "duration": 0.113636,
          "velocity": 1
        },
        {
          "time": 272.105407,
          "name": "E4",
          "midi": 64,
          "duration": 0.113636,
          "velocity": 1
        },
        {
          "time": 272.219044,
          "name": "B3",
          "midi": 59,
          "duration": 0.113636,
          "velocity": 1
        },
        {
          "time": 272.33268,
          "name": "A3",
          "midi": 57,
          "duration": 0.122951,
          "velocity": 1
        },
        {
          "time": 272.33268,
          "name": "A5",
          "midi": 81,
          "duration": 0.491804,
          "velocity": 0.88189
        },
        {
          "time": 272.455631,
          "name": "E4",
          "midi": 64,
          "duration": 0.122951,
          "velocity": 1
        },
        {
          "time": 272.578582,
          "name": "A4",
          "midi": 69,
          "duration": 0.122951,
          "velocity": 1
        },
        {
          "time": 272.701533,
          "name": "E5",
          "midi": 76,
          "duration": 0.122951,
          "velocity": 1
        },
        {
          "time": 272.824484,
          "name": "E5",
          "midi": 76,
          "duration": 0.122951,
          "velocity": 1
        },
        {
          "time": 272.824484,
          "name": "C#5",
          "midi": 73,
          "duration": 0.491804,
          "velocity": 0.88189
        },
        {
          "time": 272.947435,
          "name": "A4",
          "midi": 69,
          "duration": 0.122951,
          "velocity": 1
        },
        {
          "time": 273.070385,
          "name": "E4",
          "midi": 64,
          "duration": 0.122951,
          "velocity": 1
        },
        {
          "time": 273.193336,
          "name": "A3",
          "midi": 57,
          "duration": 0.122951,
          "velocity": 1
        },
        {
          "time": 273.316287,
          "name": "A3",
          "midi": 57,
          "duration": 0.113636,
          "velocity": 1
        },
        {
          "time": 273.316287,
          "name": "G#5",
          "midi": 80,
          "duration": 0.454545,
          "velocity": 0.88189
        },
        {
          "time": 273.429924,
          "name": "E4",
          "midi": 64,
          "duration": 0.113636,
          "velocity": 1
        },
        {
          "time": 273.54356,
          "name": "A4",
          "midi": 69,
          "duration": 0.113636,
          "velocity": 1
        },
        {
          "time": 273.657196,
          "name": "E5",
          "midi": 76,
          "duration": 0.113636,
          "velocity": 1
        },
        {
          "time": 273.770833,
          "name": "E5",
          "midi": 76,
          "duration": 0.113636,
          "velocity": 1
        },
        {
          "time": 273.770833,
          "name": "F#5",
          "midi": 78,
          "duration": 0.454545,
          "velocity": 0.88189
        },
        {
          "time": 273.884469,
          "name": "A4",
          "midi": 69,
          "duration": 0.113636,
          "velocity": 1
        },
        {
          "time": 273.998105,
          "name": "E4",
          "midi": 64,
          "duration": 0.113636,
          "velocity": 1
        },
        {
          "time": 274.111742,
          "name": "A3",
          "midi": 57,
          "duration": 0.113636,
          "velocity": 1
        },
        {
          "time": 274.225378,
          "name": "B3",
          "midi": 59,
          "duration": 0.122951,
          "velocity": 1
        },
        {
          "time": 274.225378,
          "name": "E5",
          "midi": 76,
          "duration": 1.438153,
          "velocity": 0.88189
        },
        {
          "time": 274.348329,
          "name": "E4",
          "midi": 64,
          "duration": 0.122951,
          "velocity": 1
        },
        {
          "time": 274.47128,
          "name": "B4",
          "midi": 71,
          "duration": 0.122951,
          "velocity": 1
        },
        {
          "time": 274.594231,
          "name": "E5",
          "midi": 76,
          "duration": 0.122951,
          "velocity": 1
        },
        {
          "time": 274.717182,
          "name": "E5",
          "midi": 76,
          "duration": 0.122951,
          "velocity": 1
        },
        {
          "time": 274.840133,
          "name": "B4",
          "midi": 71,
          "duration": 0.122951,
          "velocity": 1
        },
        {
          "time": 274.963083,
          "name": "E4",
          "midi": 64,
          "duration": 0.122951,
          "velocity": 1
        },
        {
          "time": 275.086034,
          "name": "B3",
          "midi": 59,
          "duration": 0.122951,
          "velocity": 1
        },
        {
          "time": 275.208985,
          "name": "B3",
          "midi": 59,
          "duration": 0.113636,
          "velocity": 1
        },
        {
          "time": 275.322622,
          "name": "E4",
          "midi": 64,
          "duration": 0.113636,
          "velocity": 1
        },
        {
          "time": 275.436258,
          "name": "B4",
          "midi": 71,
          "duration": 0.113636,
          "velocity": 1
        },
        {
          "time": 275.549894,
          "name": "E5",
          "midi": 76,
          "duration": 0.113636,
          "velocity": 1
        },
        {
          "time": 275.663531,
          "name": "E5",
          "midi": 76,
          "duration": 0.113636,
          "velocity": 1
        },
        {
          "time": 275.663531,
          "name": "D5",
          "midi": 74,
          "duration": 0.454545,
          "velocity": 0.88189
        },
        {
          "time": 275.777167,
          "name": "B4",
          "midi": 71,
          "duration": 0.113636,
          "velocity": 1
        },
        {
          "time": 275.890803,
          "name": "E4",
          "midi": 64,
          "duration": 0.113636,
          "velocity": 1
        },
        {
          "time": 276.00444,
          "name": "B3",
          "midi": 59,
          "duration": 0.113636,
          "velocity": 1
        },
        {
          "time": 276.118076,
          "name": "A3",
          "midi": 57,
          "duration": 0.122951,
          "velocity": 1
        },
        {
          "time": 276.118076,
          "name": "C#5",
          "midi": 73,
          "duration": 2.113186,
          "velocity": 0.88189
        },
        {
          "time": 276.241027,
          "name": "E4",
          "midi": 64,
          "duration": 0.122951,
          "velocity": 1
        },
        {
          "time": 276.363978,
          "name": "A4",
          "midi": 69,
          "duration": 0.122951,
          "velocity": 1
        },
        {
          "time": 276.486929,
          "name": "E5",
          "midi": 76,
          "duration": 0.122951,
          "velocity": 1
        },
        {
          "time": 276.60988,
          "name": "E5",
          "midi": 76,
          "duration": 0.122951,
          "velocity": 1
        },
        {
          "time": 276.732831,
          "name": "A4",
          "midi": 69,
          "duration": 0.122951,
          "velocity": 1
        },
        {
          "time": 276.855781,
          "name": "E4",
          "midi": 64,
          "duration": 0.122951,
          "velocity": 1
        },
        {
          "time": 276.978732,
          "name": "A3",
          "midi": 57,
          "duration": 0.122951,
          "velocity": 1
        },
        {
          "time": 277.101683,
          "name": "A3",
          "midi": 57,
          "duration": 0.113636,
          "velocity": 1
        },
        {
          "time": 277.21532,
          "name": "E4",
          "midi": 64,
          "duration": 0.113636,
          "velocity": 1
        },
        {
          "time": 277.328956,
          "name": "A4",
          "midi": 69,
          "duration": 0.113636,
          "velocity": 1
        },
        {
          "time": 277.442592,
          "name": "E5",
          "midi": 76,
          "duration": 0.113636,
          "velocity": 1
        },
        {
          "time": 277.556229,
          "name": "E5",
          "midi": 76,
          "duration": 0.113636,
          "velocity": 1
        },
        {
          "time": 277.669865,
          "name": "A4",
          "midi": 69,
          "duration": 0.113636,
          "velocity": 1
        },
        {
          "time": 277.783501,
          "name": "E4",
          "midi": 64,
          "duration": 0.223881,
          "velocity": 1
        },
        {
          "time": 278.007382,
          "name": "A3",
          "midi": 57,
          "duration": 0.223881,
          "velocity": 1
        },
        {
          "time": 278.231263,
          "name": "G#5",
          "midi": 80,
          "duration": 0.122951,
          "velocity": 0.88189
        },
        {
          "time": 278.231263,
          "name": "B4",
          "midi": 71,
          "duration": 0.122951,
          "velocity": 0.88189
        },
        {
          "time": 278.354214,
          "name": "G#5",
          "midi": 80,
          "duration": 0.122951,
          "velocity": 0.88189
        },
        {
          "time": 278.354214,
          "name": "B4",
          "midi": 71,
          "duration": 0.122951,
          "velocity": 0.88189
        },
        {
          "time": 278.477164,
          "name": "G#5",
          "midi": 80,
          "duration": 0.122951,
          "velocity": 0.88189
        },
        {
          "time": 278.477164,
          "name": "B4",
          "midi": 71,
          "duration": 0.122951,
          "velocity": 0.88189
        },
        {
          "time": 278.600115,
          "name": "G#5",
          "midi": 80,
          "duration": 0.122951,
          "velocity": 0.88189
        },
        {
          "time": 278.600115,
          "name": "B4",
          "midi": 71,
          "duration": 0.122951,
          "velocity": 0.88189
        },
        {
          "time": 278.723066,
          "name": "E6",
          "midi": 88,
          "duration": 0.491804,
          "velocity": 1
        },
        {
          "time": 278.723066,
          "name": "G#5",
          "midi": 80,
          "duration": 0.122951,
          "velocity": 0.88189
        },
        {
          "time": 278.723066,
          "name": "B4",
          "midi": 71,
          "duration": 0.122951,
          "velocity": 0.88189
        },
        {
          "time": 278.846017,
          "name": "G#5",
          "midi": 80,
          "duration": 0.122951,
          "velocity": 0.88189
        },
        {
          "time": 278.846017,
          "name": "B4",
          "midi": 71,
          "duration": 0.122951,
          "velocity": 0.88189
        },
        {
          "time": 278.968968,
          "name": "G#5",
          "midi": 80,
          "duration": 0.122951,
          "velocity": 0.88189
        },
        {
          "time": 278.968968,
          "name": "B4",
          "midi": 71,
          "duration": 0.122951,
          "velocity": 0.88189
        },
        {
          "time": 279.091919,
          "name": "G#5",
          "midi": 80,
          "duration": 0.122951,
          "velocity": 0.88189
        },
        {
          "time": 279.091919,
          "name": "B4",
          "midi": 71,
          "duration": 0.122951,
          "velocity": 0.88189
        },
        {
          "time": 279.21487,
          "name": "F#6",
          "midi": 90,
          "duration": 0.454545,
          "velocity": 1
        },
        {
          "time": 279.21487,
          "name": "G#5",
          "midi": 80,
          "duration": 0.113636,
          "velocity": 0.88189
        },
        {
          "time": 279.21487,
          "name": "B4",
          "midi": 71,
          "duration": 0.113636,
          "velocity": 0.88189
        },
        {
          "time": 279.328506,
          "name": "G#5",
          "midi": 80,
          "duration": 0.113636,
          "velocity": 0.88189
        },
        {
          "time": 279.328506,
          "name": "B4",
          "midi": 71,
          "duration": 0.113636,
          "velocity": 0.88189
        },
        {
          "time": 279.442142,
          "name": "G#5",
          "midi": 80,
          "duration": 0.113636,
          "velocity": 0.88189
        },
        {
          "time": 279.442142,
          "name": "B4",
          "midi": 71,
          "duration": 0.113636,
          "velocity": 0.88189
        },
        {
          "time": 279.555779,
          "name": "G#5",
          "midi": 80,
          "duration": 0.113636,
          "velocity": 0.88189
        },
        {
          "time": 279.555779,
          "name": "B4",
          "midi": 71,
          "duration": 0.113636,
          "velocity": 0.88189
        },
        {
          "time": 279.669415,
          "name": "G#6",
          "midi": 92,
          "duration": 0.454545,
          "velocity": 1
        },
        {
          "time": 279.669415,
          "name": "G#5",
          "midi": 80,
          "duration": 0.113636,
          "velocity": 0.88189
        },
        {
          "time": 279.669415,
          "name": "B4",
          "midi": 71,
          "duration": 0.113636,
          "velocity": 0.88189
        },
        {
          "time": 279.783052,
          "name": "G#5",
          "midi": 80,
          "duration": 0.113636,
          "velocity": 0.88189
        },
        {
          "time": 279.783052,
          "name": "B4",
          "midi": 71,
          "duration": 0.113636,
          "velocity": 0.88189
        },
        {
          "time": 279.896688,
          "name": "G#5",
          "midi": 80,
          "duration": 0.113636,
          "velocity": 0.88189
        },
        {
          "time": 279.896688,
          "name": "B4",
          "midi": 71,
          "duration": 0.113636,
          "velocity": 0.88189
        },
        {
          "time": 280.010324,
          "name": "G#5",
          "midi": 80,
          "duration": 0.113636,
          "velocity": 0.88189
        },
        {
          "time": 280.010324,
          "name": "B4",
          "midi": 71,
          "duration": 0.113636,
          "velocity": 0.88189
        },
        {
          "time": 280.123961,
          "name": "A6",
          "midi": 93,
          "duration": 0.491804,
          "velocity": 1
        },
        {
          "time": 280.123961,
          "name": "A4",
          "midi": 69,
          "duration": 0.122951,
          "velocity": 0.88189
        },
        {
          "time": 280.123961,
          "name": "A5",
          "midi": 81,
          "duration": 0.122951,
          "velocity": 0.88189
        },
        {
          "time": 280.246912,
          "name": "A4",
          "midi": 69,
          "duration": 0.122951,
          "velocity": 0.88189
        },
        {
          "time": 280.246912,
          "name": "A5",
          "midi": 81,
          "duration": 0.122951,
          "velocity": 0.88189
        },
        {
          "time": 280.369862,
          "name": "A4",
          "midi": 69,
          "duration": 0.122951,
          "velocity": 0.88189
        },
        {
          "time": 280.369862,
          "name": "A5",
          "midi": 81,
          "duration": 0.122951,
          "velocity": 0.88189
        },
        {
          "time": 280.492813,
          "name": "A4",
          "midi": 69,
          "duration": 0.122951,
          "velocity": 0.88189
        },
        {
          "time": 280.492813,
          "name": "A5",
          "midi": 81,
          "duration": 0.122951,
          "velocity": 0.88189
        },
        {
          "time": 280.615764,
          "name": "C#6",
          "midi": 85,
          "duration": 0.491804,
          "velocity": 1
        },
        {
          "time": 280.615764,
          "name": "A4",
          "midi": 69,
          "duration": 0.122951,
          "velocity": 0.88189
        },
        {
          "time": 280.615764,
          "name": "A5",
          "midi": 81,
          "duration": 0.122951,
          "velocity": 0.88189
        },
        {
          "time": 280.738715,
          "name": "A4",
          "midi": 69,
          "duration": 0.122951,
          "velocity": 0.88189
        },
        {
          "time": 280.738715,
          "name": "A5",
          "midi": 81,
          "duration": 0.122951,
          "velocity": 0.88189
        },
        {
          "time": 280.861666,
          "name": "A4",
          "midi": 69,
          "duration": 0.122951,
          "velocity": 0.88189
        },
        {
          "time": 280.861666,
          "name": "A5",
          "midi": 81,
          "duration": 0.122951,
          "velocity": 0.88189
        },
        {
          "time": 280.984617,
          "name": "A4",
          "midi": 69,
          "duration": 0.122951,
          "velocity": 0.88189
        },
        {
          "time": 280.984617,
          "name": "A5",
          "midi": 81,
          "duration": 0.122951,
          "velocity": 0.88189
        },
        {
          "time": 281.107568,
          "name": "G#6",
          "midi": 92,
          "duration": 0.454545,
          "velocity": 1
        },
        {
          "time": 281.107568,
          "name": "A4",
          "midi": 69,
          "duration": 0.113636,
          "velocity": 0.88189
        },
        {
          "time": 281.107568,
          "name": "A5",
          "midi": 81,
          "duration": 0.113636,
          "velocity": 0.88189
        },
        {
          "time": 281.221204,
          "name": "A4",
          "midi": 69,
          "duration": 0.113636,
          "velocity": 0.88189
        },
        {
          "time": 281.221204,
          "name": "A5",
          "midi": 81,
          "duration": 0.113636,
          "velocity": 0.88189
        },
        {
          "time": 281.33484,
          "name": "A4",
          "midi": 69,
          "duration": 0.113636,
          "velocity": 0.88189
        },
        {
          "time": 281.33484,
          "name": "A5",
          "midi": 81,
          "duration": 0.113636,
          "velocity": 0.88189
        },
        {
          "time": 281.448477,
          "name": "A4",
          "midi": 69,
          "duration": 0.113636,
          "velocity": 0.88189
        },
        {
          "time": 281.448477,
          "name": "A5",
          "midi": 81,
          "duration": 0.113636,
          "velocity": 0.88189
        },
        {
          "time": 281.562113,
          "name": "F#6",
          "midi": 90,
          "duration": 0.454545,
          "velocity": 1
        },
        {
          "time": 281.562113,
          "name": "A4",
          "midi": 69,
          "duration": 0.113636,
          "velocity": 0.88189
        },
        {
          "time": 281.562113,
          "name": "A5",
          "midi": 81,
          "duration": 0.113636,
          "velocity": 0.88189
        },
        {
          "time": 281.67575,
          "name": "A4",
          "midi": 69,
          "duration": 0.113636,
          "velocity": 0.88189
        },
        {
          "time": 281.67575,
          "name": "A5",
          "midi": 81,
          "duration": 0.113636,
          "velocity": 0.88189
        },
        {
          "time": 281.789386,
          "name": "A4",
          "midi": 69,
          "duration": 0.113636,
          "velocity": 0.88189
        },
        {
          "time": 281.789386,
          "name": "A5",
          "midi": 81,
          "duration": 0.113636,
          "velocity": 0.88189
        },
        {
          "time": 281.903022,
          "name": "A4",
          "midi": 69,
          "duration": 0.113636,
          "velocity": 0.88189
        },
        {
          "time": 281.903022,
          "name": "A5",
          "midi": 81,
          "duration": 0.113636,
          "velocity": 0.88189
        },
        {
          "time": 282.016659,
          "name": "E6",
          "midi": 88,
          "duration": 1.438153,
          "velocity": 1
        },
        {
          "time": 282.016659,
          "name": "D5",
          "midi": 74,
          "duration": 0.122951,
          "velocity": 0.88189
        },
        {
          "time": 282.016659,
          "name": "E5",
          "midi": 76,
          "duration": 0.122951,
          "velocity": 0.88189
        },
        {
          "time": 282.13961,
          "name": "E5",
          "midi": 76,
          "duration": 0.122951,
          "velocity": 0.88189
        },
        {
          "time": 282.13961,
          "name": "D5",
          "midi": 74,
          "duration": 0.122951,
          "velocity": 0.88189
        },
        {
          "time": 282.26256,
          "name": "E5",
          "midi": 76,
          "duration": 0.122951,
          "velocity": 0.88189
        },
        {
          "time": 282.26256,
          "name": "D5",
          "midi": 74,
          "duration": 0.122951,
          "velocity": 0.88189
        },
        {
          "time": 282.385511,
          "name": "D5",
          "midi": 74,
          "duration": 0.122951,
          "velocity": 0.88189
        },
        {
          "time": 282.385511,
          "name": "E5",
          "midi": 76,
          "duration": 0.122951,
          "velocity": 0.88189
        },
        {
          "time": 282.508462,
          "name": "E5",
          "midi": 76,
          "duration": 0.122951,
          "velocity": 0.88189
        },
        {
          "time": 282.508462,
          "name": "D5",
          "midi": 74,
          "duration": 0.122951,
          "velocity": 0.88189
        },
        {
          "time": 282.533052,
          "name": "E5",
          "midi": 76,
          "duration": 0.489941,
          "velocity": 0.818898
        },
        {
          "time": 282.631413,
          "name": "E5",
          "midi": 76,
          "duration": 0.122951,
          "velocity": 0.88189
        },
        {
          "time": 282.631413,
          "name": "D5",
          "midi": 74,
          "duration": 0.122951,
          "velocity": 0.88189
        },
        {
          "time": 282.754364,
          "name": "D5",
          "midi": 74,
          "duration": 0.122951,
          "velocity": 0.88189
        },
        {
          "time": 282.754364,
          "name": "E5",
          "midi": 76,
          "duration": 0.122951,
          "velocity": 0.88189
        },
        {
          "time": 282.877315,
          "name": "E5",
          "midi": 76,
          "duration": 0.122951,
          "velocity": 0.88189
        },
        {
          "time": 282.877315,
          "name": "D5",
          "midi": 74,
          "duration": 0.122951,
          "velocity": 0.88189
        },
        {
          "time": 283.000266,
          "name": "E5",
          "midi": 76,
          "duration": 0.113636,
          "velocity": 0.88189
        },
        {
          "time": 283.000266,
          "name": "D5",
          "midi": 74,
          "duration": 0.113636,
          "velocity": 0.88189
        },
        {
          "time": 283.022993,
          "name": "F#5",
          "midi": 78,
          "duration": 0.454545,
          "velocity": 0.818898
        },
        {
          "time": 283.113902,
          "name": "D5",
          "midi": 74,
          "duration": 0.113636,
          "velocity": 0.88189
        },
        {
          "time": 283.113902,
          "name": "E5",
          "midi": 76,
          "duration": 0.113636,
          "velocity": 0.88189
        },
        {
          "time": 283.227538,
          "name": "E5",
          "midi": 76,
          "duration": 0.113636,
          "velocity": 0.88189
        },
        {
          "time": 283.227538,
          "name": "D5",
          "midi": 74,
          "duration": 0.113636,
          "velocity": 0.88189
        },
        {
          "time": 283.341175,
          "name": "E5",
          "midi": 76,
          "duration": 0.113636,
          "velocity": 0.88189
        },
        {
          "time": 283.341175,
          "name": "D5",
          "midi": 74,
          "duration": 0.113636,
          "velocity": 0.88189
        },
        {
          "time": 283.454811,
          "name": "D6",
          "midi": 86,
          "duration": 0.454545,
          "velocity": 1
        },
        {
          "time": 283.454811,
          "name": "D5",
          "midi": 74,
          "duration": 0.113636,
          "velocity": 0.88189
        },
        {
          "time": 283.454811,
          "name": "E5",
          "midi": 76,
          "duration": 0.113636,
          "velocity": 0.88189
        },
        {
          "time": 283.477539,
          "name": "G#5",
          "midi": 80,
          "duration": 0.456408,
          "velocity": 0.818898
        },
        {
          "time": 283.568448,
          "name": "E5",
          "midi": 76,
          "duration": 0.113636,
          "velocity": 0.88189
        },
        {
          "time": 283.568448,
          "name": "D5",
          "midi": 74,
          "duration": 0.113636,
          "velocity": 0.88189
        },
        {
          "time": 283.682084,
          "name": "E5",
          "midi": 76,
          "duration": 0.113636,
          "velocity": 0.88189
        },
        {
          "time": 283.682084,
          "name": "D5",
          "midi": 74,
          "duration": 0.113636,
          "velocity": 0.88189
        },
        {
          "time": 283.79572,
          "name": "D5",
          "midi": 74,
          "duration": 0.113636,
          "velocity": 0.88189
        },
        {
          "time": 283.79572,
          "name": "E5",
          "midi": 76,
          "duration": 0.113636,
          "velocity": 0.88189
        },
        {
          "time": 283.909357,
          "name": "C#6",
          "midi": 85,
          "duration": 0.491804,
          "velocity": 1
        },
        {
          "time": 283.909357,
          "name": "E5",
          "midi": 76,
          "duration": 0.122951,
          "velocity": 0.88189
        },
        {
          "time": 283.909357,
          "name": "C#5",
          "midi": 73,
          "duration": 0.122951,
          "velocity": 0.88189
        },
        {
          "time": 283.933947,
          "name": "A5",
          "midi": 81,
          "duration": 0.491804,
          "velocity": 0.818898
        },
        {
          "time": 284.032308,
          "name": "E5",
          "midi": 76,
          "duration": 0.122951,
          "velocity": 0.88189
        },
        {
          "time": 284.032308,
          "name": "C#5",
          "midi": 73,
          "duration": 0.122951,
          "velocity": 0.88189
        },
        {
          "time": 284.155258,
          "name": "C#5",
          "midi": 73,
          "duration": 0.122951,
          "velocity": 0.88189
        },
        {
          "time": 284.155258,
          "name": "E5",
          "midi": 76,
          "duration": 0.122951,
          "velocity": 0.88189
        },
        {
          "time": 284.278209,
          "name": "C#5",
          "midi": 73,
          "duration": 0.122951,
          "velocity": 0.88189
        },
        {
          "time": 284.278209,
          "name": "E5",
          "midi": 76,
          "duration": 0.122951,
          "velocity": 0.88189
        },
        {
          "time": 284.40116,
          "name": "F#6",
          "midi": 90,
          "duration": 0.491804,
          "velocity": 1
        },
        {
          "time": 284.40116,
          "name": "E5",
          "midi": 76,
          "duration": 0.122951,
          "velocity": 0.88189
        },
        {
          "time": 284.40116,
          "name": "C#5",
          "midi": 73,
          "duration": 0.122951,
          "velocity": 0.88189
        },
        {
          "time": 284.42575,
          "name": "C#5",
          "midi": 73,
          "duration": 0.489941,
          "velocity": 0.818898
        },
        {
          "time": 284.524111,
          "name": "C#5",
          "midi": 73,
          "duration": 0.122951,
          "velocity": 0.88189
        },
        {
          "time": 284.524111,
          "name": "E5",
          "midi": 76,
          "duration": 0.122951,
          "velocity": 0.88189
        },
        {
          "time": 284.647062,
          "name": "C#5",
          "midi": 73,
          "duration": 0.122951,
          "velocity": 0.88189
        },
        {
          "time": 284.647062,
          "name": "E5",
          "midi": 76,
          "duration": 0.122951,
          "velocity": 0.88189
        },
        {
          "time": 284.770013,
          "name": "E5",
          "midi": 76,
          "duration": 0.122951,
          "velocity": 0.88189
        },
        {
          "time": 284.770013,
          "name": "C#5",
          "midi": 73,
          "duration": 0.122951,
          "velocity": 0.88189
        },
        {
          "time": 284.892964,
          "name": "E6",
          "midi": 88,
          "duration": 0.909091,
          "velocity": 1
        },
        {
          "time": 284.892964,
          "name": "E5",
          "midi": 76,
          "duration": 0.113636,
          "velocity": 0.88189
        },
        {
          "time": 284.892964,
          "name": "C#5",
          "midi": 73,
          "duration": 0.113636,
          "velocity": 0.88189
        },
        {
          "time": 284.915691,
          "name": "G#5",
          "midi": 80,
          "duration": 0.454545,
          "velocity": 0.818898
        },
        {
          "time": 285.0066,
          "name": "C#5",
          "midi": 73,
          "duration": 0.113636,
          "velocity": 0.88189
        },
        {
          "time": 285.0066,
          "name": "E5",
          "midi": 76,
          "duration": 0.113636,
          "velocity": 0.88189
        },
        {
          "time": 285.120236,
          "name": "C#5",
          "midi": 73,
          "duration": 0.113636,
          "velocity": 0.88189
        },
        {
          "time": 285.120236,
          "name": "E5",
          "midi": 76,
          "duration": 0.113636,
          "velocity": 0.88189
        },
        {
          "time": 285.233873,
          "name": "E5",
          "midi": 76,
          "duration": 0.113636,
          "velocity": 0.88189
        },
        {
          "time": 285.233873,
          "name": "C#5",
          "midi": 73,
          "duration": 0.113636,
          "velocity": 0.88189
        },
        {
          "time": 285.347509,
          "name": "C#5",
          "midi": 73,
          "duration": 0.113636,
          "velocity": 0.88189
        },
        {
          "time": 285.347509,
          "name": "E5",
          "midi": 76,
          "duration": 0.113636,
          "velocity": 0.88189
        },
        {
          "time": 285.370237,
          "name": "F#5",
          "midi": 78,
          "duration": 0.456408,
          "velocity": 0.818898
        },
        {
          "time": 285.461146,
          "name": "C#5",
          "midi": 73,
          "duration": 0.113636,
          "velocity": 0.88189
        },
        {
          "time": 285.461146,
          "name": "E5",
          "midi": 76,
          "duration": 0.113636,
          "velocity": 0.88189
        },
        {
          "time": 285.574782,
          "name": "E5",
          "midi": 76,
          "duration": 0.113636,
          "velocity": 0.88189
        },
        {
          "time": 285.574782,
          "name": "C#5",
          "midi": 73,
          "duration": 0.113636,
          "velocity": 0.88189
        },
        {
          "time": 285.688418,
          "name": "E5",
          "midi": 76,
          "duration": 0.113636,
          "velocity": 0.88189
        },
        {
          "time": 285.688418,
          "name": "C#5",
          "midi": 73,
          "duration": 0.113636,
          "velocity": 0.88189
        },
        {
          "time": 285.802055,
          "name": "E5",
          "midi": 76,
          "duration": 0.122951,
          "velocity": 0.88189
        },
        {
          "time": 285.802055,
          "name": "B4",
          "midi": 71,
          "duration": 0.122951,
          "velocity": 0.88189
        },
        {
          "time": 285.826645,
          "name": "E5",
          "midi": 76,
          "duration": 1.43629,
          "velocity": 0.818898
        },
        {
          "time": 285.925006,
          "name": "E5",
          "midi": 76,
          "duration": 0.122951,
          "velocity": 0.88189
        },
        {
          "time": 285.925006,
          "name": "B4",
          "midi": 71,
          "duration": 0.122951,
          "velocity": 0.88189
        },
        {
          "time": 286.047956,
          "name": "E5",
          "midi": 76,
          "duration": 0.122951,
          "velocity": 0.88189
        },
        {
          "time": 286.047956,
          "name": "B4",
          "midi": 71,
          "duration": 0.122951,
          "velocity": 0.88189
        },
        {
          "time": 286.129924,
          "name": "B5",
          "midi": 83,
          "duration": 0.327869,
          "velocity": 1
        },
        {
          "time": 286.170907,
          "name": "E5",
          "midi": 76,
          "duration": 0.122951,
          "velocity": 0.88189
        },
        {
          "time": 286.170907,
          "name": "B4",
          "midi": 71,
          "duration": 0.122951,
          "velocity": 0.88189
        },
        {
          "time": 286.293858,
          "name": "E5",
          "midi": 76,
          "duration": 0.122951,
          "velocity": 0.88189
        },
        {
          "time": 286.293858,
          "name": "B4",
          "midi": 71,
          "duration": 0.122951,
          "velocity": 0.88189
        },
        {
          "time": 286.416809,
          "name": "E5",
          "midi": 76,
          "duration": 0.122951,
          "velocity": 0.88189
        },
        {
          "time": 286.416809,
          "name": "B4",
          "midi": 71,
          "duration": 0.122951,
          "velocity": 0.88189
        },
        {
          "time": 286.457793,
          "name": "E6",
          "midi": 88,
          "duration": 0.327869,
          "velocity": 1
        },
        {
          "time": 286.53976,
          "name": "E5",
          "midi": 76,
          "duration": 0.122951,
          "velocity": 0.88189
        },
        {
          "time": 286.53976,
          "name": "B4",
          "midi": 71,
          "duration": 0.122951,
          "velocity": 0.88189
        },
        {
          "time": 286.662711,
          "name": "E5",
          "midi": 76,
          "duration": 0.122951,
          "velocity": 0.88189
        },
        {
          "time": 286.662711,
          "name": "B4",
          "midi": 71,
          "duration": 0.122951,
          "velocity": 0.88189
        },
        {
          "time": 286.785662,
          "name": "E6",
          "midi": 88,
          "duration": 0.30303,
          "velocity": 1
        },
        {
          "time": 286.785662,
          "name": "E5",
          "midi": 76,
          "duration": 0.113636,
          "velocity": 0.88189
        },
        {
          "time": 286.785662,
          "name": "B4",
          "midi": 71,
          "duration": 0.113636,
          "velocity": 0.88189
        },
        {
          "time": 286.899298,
          "name": "E5",
          "midi": 76,
          "duration": 0.113636,
          "velocity": 0.88189
        },
        {
          "time": 286.899298,
          "name": "B4",
          "midi": 71,
          "duration": 0.113636,
          "velocity": 0.88189
        },
        {
          "time": 287.012934,
          "name": "E5",
          "midi": 76,
          "duration": 0.113636,
          "velocity": 0.88189
        },
        {
          "time": 287.012934,
          "name": "B4",
          "midi": 71,
          "duration": 0.113636,
          "velocity": 0.88189
        },
        {
          "time": 287.088692,
          "name": "F#6",
          "midi": 90,
          "duration": 0.30303,
          "velocity": 1
        },
        {
          "time": 287.126571,
          "name": "E5",
          "midi": 76,
          "duration": 0.113636,
          "velocity": 0.88189
        },
        {
          "time": 287.126571,
          "name": "B4",
          "midi": 71,
          "duration": 0.113636,
          "velocity": 0.88189
        },
        {
          "time": 287.240207,
          "name": "E5",
          "midi": 76,
          "duration": 0.113636,
          "velocity": 0.88189
        },
        {
          "time": 287.240207,
          "name": "B4",
          "midi": 71,
          "duration": 0.113636,
          "velocity": 0.88189
        },
        {
          "time": 287.262935,
          "name": "D5",
          "midi": 74,
          "duration": 0.456408,
          "velocity": 0.818898
        },
        {
          "time": 287.353844,
          "name": "E5",
          "midi": 76,
          "duration": 0.113636,
          "velocity": 0.88189
        },
        {
          "time": 287.353844,
          "name": "B4",
          "midi": 71,
          "duration": 0.113636,
          "velocity": 0.88189
        },
        {
          "time": 287.391722,
          "name": "G#6",
          "midi": 92,
          "duration": 0.30303,
          "velocity": 1
        },
        {
          "time": 287.46748,
          "name": "E5",
          "midi": 76,
          "duration": 0.113636,
          "velocity": 0.88189
        },
        {
          "time": 287.46748,
          "name": "B4",
          "midi": 71,
          "duration": 0.113636,
          "velocity": 0.88189
        },
        {
          "time": 287.581116,
          "name": "E5",
          "midi": 76,
          "duration": 0.113636,
          "velocity": 0.88189
        },
        {
          "time": 287.581116,
          "name": "B4",
          "midi": 71,
          "duration": 0.113636,
          "velocity": 0.88189
        },
        {
          "time": 287.694753,
          "name": "A6",
          "midi": 93,
          "duration": 0.327869,
          "velocity": 1
        },
        {
          "time": 287.694753,
          "name": "E5",
          "midi": 76,
          "duration": 0.122951,
          "velocity": 0.88189
        },
        {
          "time": 287.694753,
          "name": "C#5",
          "midi": 73,
          "duration": 0.122951,
          "velocity": 0.88189
        },
        {
          "time": 287.719343,
          "name": "C#5",
          "midi": 73,
          "duration": 0.491804,
          "velocity": 0.818898
        },
        {
          "time": 287.817704,
          "name": "C#5",
          "midi": 73,
          "duration": 0.122951,
          "velocity": 0.88189
        },
        {
          "time": 287.817704,
          "name": "E5",
          "midi": 76,
          "duration": 0.122951,
          "velocity": 0.88189
        },
        {
          "time": 287.940654,
          "name": "E5",
          "midi": 76,
          "duration": 0.122951,
          "velocity": 0.88189
        },
        {
          "time": 287.940654,
          "name": "C#5",
          "midi": 73,
          "duration": 0.122951,
          "velocity": 0.88189
        },
        {
          "time": 288.022622,
          "name": "C#6",
          "midi": 85,
          "duration": 0.327869,
          "velocity": 1
        },
        {
          "time": 288.063605,
          "name": "C#5",
          "midi": 73,
          "duration": 0.122951,
          "velocity": 0.88189
        },
        {
          "time": 288.063605,
          "name": "E5",
          "midi": 76,
          "duration": 0.122951,
          "velocity": 0.88189
        },
        {
          "time": 288.186556,
          "name": "E5",
          "midi": 76,
          "duration": 0.122951,
          "velocity": 0.88189
        },
        {
          "time": 288.186556,
          "name": "C#5",
          "midi": 73,
          "duration": 0.122951,
          "velocity": 0.88189
        },
        {
          "time": 288.309507,
          "name": "C#5",
          "midi": 73,
          "duration": 0.122951,
          "velocity": 0.88189
        },
        {
          "time": 288.309507,
          "name": "E5",
          "midi": 76,
          "duration": 0.122951,
          "velocity": 0.88189
        },
        {
          "time": 288.350491,
          "name": "E6",
          "midi": 88,
          "duration": 0.327869,
          "velocity": 1
        },
        {
          "time": 288.432458,
          "name": "E5",
          "midi": 76,
          "duration": 0.122951,
          "velocity": 0.88189
        },
        {
          "time": 288.432458,
          "name": "C#5",
          "midi": 73,
          "duration": 0.122951,
          "velocity": 0.88189
        },
        {
          "time": 288.555409,
          "name": "C#5",
          "midi": 73,
          "duration": 0.122951,
          "velocity": 0.88189
        },
        {
          "time": 288.555409,
          "name": "E5",
          "midi": 76,
          "duration": 0.122951,
          "velocity": 0.88189
        },
        {
          "time": 288.67836,
          "name": "G#6",
          "midi": 92,
          "duration": 0.606061,
          "velocity": 1
        },
        {
          "time": 288.67836,
          "name": "C#5",
          "midi": 73,
          "duration": 0.113636,
          "velocity": 0.88189
        },
        {
          "time": 288.67836,
          "name": "E5",
          "midi": 76,
          "duration": 0.113636,
          "velocity": 0.88189
        },
        {
          "time": 288.791996,
          "name": "E5",
          "midi": 76,
          "duration": 0.113636,
          "velocity": 0.88189
        },
        {
          "time": 288.791996,
          "name": "C#5",
          "midi": 73,
          "duration": 0.113636,
          "velocity": 0.88189
        },
        {
          "time": 288.905632,
          "name": "C#5",
          "midi": 73,
          "duration": 0.113636,
          "velocity": 0.88189
        },
        {
          "time": 288.905632,
          "name": "E5",
          "midi": 76,
          "duration": 0.113636,
          "velocity": 0.88189
        },
        {
          "time": 289.019269,
          "name": "E5",
          "midi": 76,
          "duration": 0.113636,
          "velocity": 0.88189
        },
        {
          "time": 289.019269,
          "name": "C#5",
          "midi": 73,
          "duration": 0.113636,
          "velocity": 0.88189
        },
        {
          "time": 289.132905,
          "name": "C#5",
          "midi": 73,
          "duration": 0.113636,
          "velocity": 0.88189
        },
        {
          "time": 289.132905,
          "name": "E5",
          "midi": 76,
          "duration": 0.113636,
          "velocity": 0.88189
        },
        {
          "time": 289.246542,
          "name": "E5",
          "midi": 76,
          "duration": 0.113636,
          "velocity": 0.88189
        },
        {
          "time": 289.246542,
          "name": "C#5",
          "midi": 73,
          "duration": 0.113636,
          "velocity": 0.88189
        },
        {
          "time": 289.28442,
          "name": "F#6",
          "midi": 90,
          "duration": 0.30303,
          "velocity": 1
        },
        {
          "time": 289.360178,
          "name": "C#5",
          "midi": 73,
          "duration": 0.113636,
          "velocity": 0.88189
        },
        {
          "time": 289.360178,
          "name": "E5",
          "midi": 76,
          "duration": 0.113636,
          "velocity": 0.88189
        },
        {
          "time": 289.473814,
          "name": "E5",
          "midi": 76,
          "duration": 0.113636,
          "velocity": 0.88189
        },
        {
          "time": 289.473814,
          "name": "C#5",
          "midi": 73,
          "duration": 0.113636,
          "velocity": 0.88189
        },
        {
          "time": 289.587451,
          "name": "E6",
          "midi": 88,
          "duration": 1.438153,
          "velocity": 1
        },
        {
          "time": 289.587451,
          "name": "D5",
          "midi": 74,
          "duration": 0.122951,
          "velocity": 0.88189
        },
        {
          "time": 289.587451,
          "name": "E5",
          "midi": 76,
          "duration": 0.122951,
          "velocity": 0.88189
        },
        {
          "time": 289.710402,
          "name": "E5",
          "midi": 76,
          "duration": 0.122951,
          "velocity": 0.88189
        },
        {
          "time": 289.710402,
          "name": "D5",
          "midi": 74,
          "duration": 0.122951,
          "velocity": 0.88189
        },
        {
          "time": 289.833352,
          "name": "E5",
          "midi": 76,
          "duration": 0.122951,
          "velocity": 0.88189
        },
        {
          "time": 289.833352,
          "name": "D5",
          "midi": 74,
          "duration": 0.122951,
          "velocity": 0.88189
        },
        {
          "time": 289.93991,
          "name": "G#4",
          "midi": 68,
          "duration": 0.327869,
          "velocity": 0.818898
        },
        {
          "time": 289.956303,
          "name": "E5",
          "midi": 76,
          "duration": 0.122951,
          "velocity": 0.88189
        },
        {
          "time": 289.956303,
          "name": "D5",
          "midi": 74,
          "duration": 0.122951,
          "velocity": 0.88189
        },
        {
          "time": 290.079254,
          "name": "E5",
          "midi": 76,
          "duration": 0.122951,
          "velocity": 0.88189
        },
        {
          "time": 290.079254,
          "name": "D5",
          "midi": 74,
          "duration": 0.122951,
          "velocity": 0.88189
        },
        {
          "time": 290.202205,
          "name": "D5",
          "midi": 74,
          "duration": 0.122951,
          "velocity": 0.88189
        },
        {
          "time": 290.202205,
          "name": "E5",
          "midi": 76,
          "duration": 0.122951,
          "velocity": 0.88189
        },
        {
          "time": 290.267779,
          "name": "B4",
          "midi": 71,
          "duration": 0.326006,
          "velocity": 0.818898
        },
        {
          "time": 290.325156,
          "name": "E5",
          "midi": 76,
          "duration": 0.122951,
          "velocity": 0.88189
        },
        {
          "time": 290.325156,
          "name": "D5",
          "midi": 74,
          "duration": 0.122951,
          "velocity": 0.88189
        },
        {
          "time": 290.448107,
          "name": "E5",
          "midi": 76,
          "duration": 0.122951,
          "velocity": 0.88189
        },
        {
          "time": 290.448107,
          "name": "D5",
          "midi": 74,
          "duration": 0.122951,
          "velocity": 0.88189
        },
        {
          "time": 290.571058,
          "name": "E5",
          "midi": 76,
          "duration": 0.113636,
          "velocity": 0.88189
        },
        {
          "time": 290.571058,
          "name": "D5",
          "midi": 74,
          "duration": 0.113636,
          "velocity": 0.88189
        },
        {
          "time": 290.593785,
          "name": "E5",
          "midi": 76,
          "duration": 0.30303,
          "velocity": 0.818898
        },
        {
          "time": 290.684694,
          "name": "E5",
          "midi": 76,
          "duration": 0.113636,
          "velocity": 0.88189
        },
        {
          "time": 290.684694,
          "name": "D5",
          "midi": 74,
          "duration": 0.113636,
          "velocity": 0.88189
        },
        {
          "time": 290.79833,
          "name": "D5",
          "midi": 74,
          "duration": 0.113636,
          "velocity": 0.88189
        },
        {
          "time": 290.79833,
          "name": "E5",
          "midi": 76,
          "duration": 0.113636,
          "velocity": 0.88189
        },
        {
          "time": 290.896815,
          "name": "F#5",
          "midi": 78,
          "duration": 0.30303,
          "velocity": 0.818898
        },
        {
          "time": 290.911967,
          "name": "E5",
          "midi": 76,
          "duration": 0.113636,
          "velocity": 0.88189
        },
        {
          "time": 290.911967,
          "name": "D5",
          "midi": 74,
          "duration": 0.113636,
          "velocity": 0.88189
        },
        {
          "time": 291.025603,
          "name": "D6",
          "midi": 86,
          "duration": 0.454545,
          "velocity": 1
        },
        {
          "time": 291.025603,
          "name": "E5",
          "midi": 76,
          "duration": 0.113636,
          "velocity": 0.88189
        },
        {
          "time": 291.025603,
          "name": "D5",
          "midi": 74,
          "duration": 0.113636,
          "velocity": 0.88189
        },
        {
          "time": 291.13924,
          "name": "E5",
          "midi": 76,
          "duration": 0.113636,
          "velocity": 0.88189
        },
        {
          "time": 291.13924,
          "name": "D5",
          "midi": 74,
          "duration": 0.113636,
          "velocity": 0.88189
        },
        {
          "time": 291.199846,
          "name": "G#5",
          "midi": 80,
          "duration": 0.304893,
          "velocity": 0.818898
        },
        {
          "time": 291.252876,
          "name": "E5",
          "midi": 76,
          "duration": 0.113636,
          "velocity": 0.88189
        },
        {
          "time": 291.252876,
          "name": "D5",
          "midi": 74,
          "duration": 0.113636,
          "velocity": 0.88189
        },
        {
          "time": 291.366512,
          "name": "D5",
          "midi": 74,
          "duration": 0.113636,
          "velocity": 0.88189
        },
        {
          "time": 291.366512,
          "name": "E5",
          "midi": 76,
          "duration": 0.113636,
          "velocity": 0.88189
        },
        {
          "time": 291.480149,
          "name": "C#6",
          "midi": 85,
          "duration": 0.983607,
          "velocity": 1
        },
        {
          "time": 291.480149,
          "name": "E5",
          "midi": 76,
          "duration": 0.122951,
          "velocity": 0.88189
        },
        {
          "time": 291.480149,
          "name": "C#5",
          "midi": 73,
          "duration": 0.122951,
          "velocity": 0.88189
        },
        {
          "time": 291.504739,
          "name": "B5",
          "midi": 83,
          "duration": 0.327869,
          "velocity": 0.818898
        },
        {
          "time": 291.6031,
          "name": "C#5",
          "midi": 73,
          "duration": 0.122951,
          "velocity": 0.88189
        },
        {
          "time": 291.6031,
          "name": "E5",
          "midi": 76,
          "duration": 0.122951,
          "velocity": 0.88189
        },
        {
          "time": 291.72605,
          "name": "E5",
          "midi": 76,
          "duration": 0.122951,
          "velocity": 0.88189
        },
        {
          "time": 291.72605,
          "name": "C#5",
          "midi": 73,
          "duration": 0.122951,
          "velocity": 0.88189
        },
        {
          "time": 291.832608,
          "name": "A5",
          "midi": 81,
          "duration": 0.327869,
          "velocity": 0.818898
        },
        {
          "time": 291.849001,
          "name": "C#5",
          "midi": 73,
          "duration": 0.122951,
          "velocity": 0.88189
        },
        {
          "time": 291.849001,
          "name": "E5",
          "midi": 76,
          "duration": 0.122951,
          "velocity": 0.88189
        },
        {
          "time": 291.971952,
          "name": "E5",
          "midi": 76,
          "duration": 0.122951,
          "velocity": 0.88189
        },
        {
          "time": 291.971952,
          "name": "C#5",
          "midi": 73,
          "duration": 0.122951,
          "velocity": 0.88189
        },
        {
          "time": 292.094903,
          "name": "C#5",
          "midi": 73,
          "duration": 0.122951,
          "velocity": 0.88189
        },
        {
          "time": 292.094903,
          "name": "E5",
          "midi": 76,
          "duration": 0.122951,
          "velocity": 0.88189
        },
        {
          "time": 292.160477,
          "name": "G#5",
          "midi": 80,
          "duration": 0.326006,
          "velocity": 0.818898
        },
        {
          "time": 292.217854,
          "name": "E5",
          "midi": 76,
          "duration": 0.122951,
          "velocity": 0.88189
        },
        {
          "time": 292.217854,
          "name": "C#5",
          "midi": 73,
          "duration": 0.122951,
          "velocity": 0.88189
        },
        {
          "time": 292.340805,
          "name": "C#5",
          "midi": 73,
          "duration": 0.122951,
          "velocity": 0.88189
        },
        {
          "time": 292.340805,
          "name": "E5",
          "midi": 76,
          "duration": 0.122951,
          "velocity": 0.88189
        },
        {
          "time": 292.463756,
          "name": "C#5",
          "midi": 73,
          "duration": 0.113636,
          "velocity": 0.88189
        },
        {
          "time": 292.463756,
          "name": "E5",
          "midi": 76,
          "duration": 0.113636,
          "velocity": 0.88189
        },
        {
          "time": 292.486483,
          "name": "A5",
          "midi": 81,
          "duration": 0.910954,
          "velocity": 0.818898
        },
        {
          "time": 292.577392,
          "name": "E5",
          "midi": 76,
          "duration": 0.113636,
          "velocity": 0.88189
        },
        {
          "time": 292.577392,
          "name": "C#5",
          "midi": 73,
          "duration": 0.113636,
          "velocity": 0.88189
        },
        {
          "time": 292.691028,
          "name": "C#5",
          "midi": 73,
          "duration": 0.113636,
          "velocity": 0.88189
        },
        {
          "time": 292.691028,
          "name": "E5",
          "midi": 76,
          "duration": 0.113636,
          "velocity": 0.88189
        },
        {
          "time": 292.804665,
          "name": "E5",
          "midi": 76,
          "duration": 0.113636,
          "velocity": 0.88189
        },
        {
          "time": 292.804665,
          "name": "C#5",
          "midi": 73,
          "duration": 0.113636,
          "velocity": 0.88189
        },
        {
          "time": 292.918301,
          "name": "C#5",
          "midi": 73,
          "duration": 0.113636,
          "velocity": 0.88189
        },
        {
          "time": 292.918301,
          "name": "E5",
          "midi": 76,
          "duration": 0.113636,
          "velocity": 0.88189
        },
        {
          "time": 293.031938,
          "name": "E5",
          "midi": 76,
          "duration": 0.113636,
          "velocity": 0.88189
        },
        {
          "time": 293.031938,
          "name": "C#5",
          "midi": 73,
          "duration": 0.113636,
          "velocity": 0.88189
        },
        {
          "time": 293.145574,
          "name": "C#5",
          "midi": 73,
          "duration": 0.113636,
          "velocity": 0.88189
        },
        {
          "time": 293.145574,
          "name": "E5",
          "midi": 76,
          "duration": 0.113636,
          "velocity": 0.88189
        },
        {
          "time": 293.25921,
          "name": "E5",
          "midi": 76,
          "duration": 0.113636,
          "velocity": 0.88189
        },
        {
          "time": 293.25921,
          "name": "C#5",
          "midi": 73,
          "duration": 0.113636,
          "velocity": 0.88189
        },
        {
          "time": 293.372847,
          "name": "E5",
          "midi": 76,
          "duration": 0.122951,
          "velocity": 0.88189
        },
        {
          "time": 293.372847,
          "name": "C#5",
          "midi": 73,
          "duration": 0.122951,
          "velocity": 0.88189
        },
        {
          "time": 293.495798,
          "name": "C#5",
          "midi": 73,
          "duration": 0.122951,
          "velocity": 0.88189
        },
        {
          "time": 293.495798,
          "name": "E5",
          "midi": 76,
          "duration": 0.122951,
          "velocity": 0.88189
        },
        {
          "time": 293.618748,
          "name": "E5",
          "midi": 76,
          "duration": 0.122951,
          "velocity": 0.88189
        },
        {
          "time": 293.618748,
          "name": "C#5",
          "midi": 73,
          "duration": 0.122951,
          "velocity": 0.88189
        },
        {
          "time": 293.741699,
          "name": "C#5",
          "midi": 73,
          "duration": 0.122951,
          "velocity": 0.88189
        },
        {
          "time": 293.741699,
          "name": "E5",
          "midi": 76,
          "duration": 0.122951,
          "velocity": 0.88189
        },
        {
          "time": 293.86465,
          "name": "F#5",
          "midi": 78,
          "duration": 1.035556,
          "velocity": 1
        },
        {
          "time": 293.86465,
          "name": "E5",
          "midi": 76,
          "duration": 0.138889,
          "velocity": 0.88189
        },
        {
          "time": 293.86465,
          "name": "C#5",
          "midi": 73,
          "duration": 0.138889,
          "velocity": 0.88189
        },
        {
          "time": 293.910947,
          "name": "F#6",
          "midi": 90,
          "duration": 1.029259,
          "velocity": 1
        },
        {
          "time": 294.003539,
          "name": "C#5",
          "midi": 73,
          "duration": 0.138889,
          "velocity": 0.88189
        },
        {
          "time": 294.003539,
          "name": "E5",
          "midi": 76,
          "duration": 0.138889,
          "velocity": 0.88189
        },
        {
          "time": 294.142428,
          "name": "E5",
          "midi": 76,
          "duration": 0.138889,
          "velocity": 0.88189
        },
        {
          "time": 294.142428,
          "name": "C#5",
          "midi": 73,
          "duration": 0.138889,
          "velocity": 0.88189
        },
        {
          "time": 294.281317,
          "name": "C#5",
          "midi": 73,
          "duration": 0.138889,
          "velocity": 0.88189
        },
        {
          "time": 294.281317,
          "name": "E5",
          "midi": 76,
          "duration": 0.138889,
          "velocity": 0.88189
        },
        {
          "time": 294.420206,
          "name": "C#5",
          "midi": 73,
          "duration": 0.12,
          "velocity": 0.88189
        },
        {
          "time": 294.420206,
          "name": "E5",
          "midi": 76,
          "duration": 0.12,
          "velocity": 0.88189
        },
        {
          "time": 294.540206,
          "name": "E5",
          "midi": 76,
          "duration": 0.12,
          "velocity": 0.88189
        },
        {
          "time": 294.540206,
          "name": "C#5",
          "midi": 73,
          "duration": 0.12,
          "velocity": 0.88189
        },
        {
          "time": 294.660206,
          "name": "C#5",
          "midi": 73,
          "duration": 0.12,
          "velocity": 0.88189
        },
        {
          "time": 294.660206,
          "name": "E5",
          "midi": 76,
          "duration": 0.12,
          "velocity": 0.88189
        },
        {
          "time": 294.780206,
          "name": "E5",
          "midi": 76,
          "duration": 0.12,
          "velocity": 0.88189
        },
        {
          "time": 294.780206,
          "name": "C#5",
          "midi": 73,
          "duration": 0.12,
          "velocity": 0.88189
        },
        {
          "time": 294.900206,
          "name": "C#5",
          "midi": 73,
          "duration": 0.48,
          "velocity": 1
        },
        {
          "time": 294.900206,
          "name": "C#5",
          "midi": 73,
          "duration": 0.12,
          "velocity": 0.88189
        },
        {
          "time": 294.900206,
          "name": "E5",
          "midi": 76,
          "duration": 0.12,
          "velocity": 0.88189
        },
        {
          "time": 294.940206,
          "name": "C#6",
          "midi": 85,
          "duration": 0.480984,
          "velocity": 1
        },
        {
          "time": 295.020206,
          "name": "E5",
          "midi": 76,
          "duration": 0.12,
          "velocity": 0.88189
        },
        {
          "time": 295.020206,
          "name": "C#5",
          "midi": 73,
          "duration": 0.12,
          "velocity": 0.88189
        },
        {
          "time": 295.140206,
          "name": "C#5",
          "midi": 73,
          "duration": 0.12,
          "velocity": 0.88189
        },
        {
          "time": 295.140206,
          "name": "E5",
          "midi": 76,
          "duration": 0.12,
          "velocity": 0.88189
        },
        {
          "time": 295.260206,
          "name": "E5",
          "midi": 76,
          "duration": 0.12,
          "velocity": 0.88189
        },
        {
          "time": 295.260206,
          "name": "C#5",
          "midi": 73,
          "duration": 0.12,
          "velocity": 0.88189
        },
        {
          "time": 295.380206,
          "name": "E5",
          "midi": 76,
          "duration": 0.491804,
          "velocity": 1
        },
        {
          "time": 295.380206,
          "name": "B4",
          "midi": 71,
          "duration": 0.491804,
          "velocity": 0.88189
        },
        {
          "time": 295.380206,
          "name": "D5",
          "midi": 74,
          "duration": 0.491804,
          "velocity": 0.88189
        },
        {
          "time": 295.421189,
          "name": "E6",
          "midi": 88,
          "duration": 0.491804,
          "velocity": 1
        },
        {
          "time": 295.872009,
          "name": "D5",
          "midi": 74,
          "duration": 0.491804,
          "velocity": 1
        },
        {
          "time": 295.912993,
          "name": "D6",
          "midi": 86,
          "duration": 0.488699,
          "velocity": 1
        },
        {
          "time": 296.363813,
          "name": "C#5",
          "midi": 73,
          "duration": 0.454545,
          "velocity": 1
        },
        {
          "time": 296.363813,
          "name": "B4",
          "midi": 71,
          "duration": 0.909091,
          "velocity": 0.88189
        },
        {
          "time": 296.401692,
          "name": "C#6",
          "midi": 85,
          "duration": 0.454545,
          "velocity": 1
        },
        {
          "time": 296.818358,
          "name": "B4",
          "midi": 71,
          "duration": 0.454545,
          "velocity": 1
        },
        {
          "time": 296.856237,
          "name": "B5",
          "midi": 83,
          "duration": 0.45765,
          "velocity": 1
        },
        {
          "time": 297.272904,
          "name": "A4",
          "midi": 69,
          "duration": 1.438153,
          "velocity": 1
        },
        {
          "time": 297.272904,
          "name": "B4",
          "midi": 71,
          "duration": 0.983607,
          "velocity": 0.88189
        },
        {
          "time": 297.313887,
          "name": "A5",
          "midi": 81,
          "duration": 1.435048,
          "velocity": 1
        },
        {
          "time": 298.711056,
          "name": "F4",
          "midi": 65,
          "duration": 0.454545,
          "velocity": 1
        },
        {
          "time": 298.748935,
          "name": "F5",
          "midi": 77,
          "duration": 0.45765,
          "velocity": 1
        },
        {
          "time": 299.165602,
          "name": "G#4",
          "midi": 68,
          "duration": 0.491804,
          "velocity": 1
        },
        {
          "time": 299.165602,
          "name": "A4",
          "midi": 69,
          "duration": 0.983607,
          "velocity": 0.88189
        },
        {
          "time": 299.206585,
          "name": "G#5",
          "midi": 80,
          "duration": 0.491804,
          "velocity": 1
        },
        {
          "time": 299.657405,
          "name": "F#4",
          "midi": 66,
          "duration": 0.491804,
          "velocity": 1
        },
        {
          "time": 299.698389,
          "name": "F#5",
          "midi": 78,
          "duration": 0.488699,
          "velocity": 1
        },
        {
          "time": 300.149209,
          "name": "A4",
          "midi": 69,
          "duration": 0.995086,
          "velocity": 0.88189
        },
        {
          "time": 301.144295,
          "name": "B4",
          "midi": 71,
          "duration": 0.491804,
          "velocity": 1
        },
        {
          "time": 301.144295,
          "name": "A4",
          "midi": 69,
          "duration": 0.983607,
          "velocity": 0.88189
        },
        {
          "time": 301.185278,
          "name": "B5",
          "midi": 83,
          "duration": 0.491804,
          "velocity": 1
        },
        {
          "time": 301.636098,
          "name": "A4",
          "midi": 69,
          "duration": 0.491804,
          "velocity": 1
        },
        {
          "time": 301.677082,
          "name": "A5",
          "midi": 81,
          "duration": 0.488699,
          "velocity": 1
        },
        {
          "time": 302.127902,
          "name": "G#4",
          "midi": 68,
          "duration": 0.454545,
          "velocity": 1
        },
        {
          "time": 302.127902,
          "name": "A4",
          "midi": 69,
          "duration": 0.909091,
          "velocity": 0.88189
        },
        {
          "time": 302.165781,
          "name": "G#5",
          "midi": 80,
          "duration": 0.454545,
          "velocity": 1
        },
        {
          "time": 302.582447,
          "name": "F#4",
          "midi": 66,
          "duration": 0.454545,
          "velocity": 1
        },
        {
          "time": 302.620326,
          "name": "F#5",
          "midi": 78,
          "duration": 0.466667,
          "velocity": 1
        },
        {
          "time": 303.036993,
          "name": "E4",
          "midi": 64,
          "duration": 0.6,
          "velocity": 1
        },
        {
          "time": 303.036993,
          "name": "A4",
          "midi": 69,
          "duration": 1.091804,
          "velocity": 0.88189
        },
        {
          "time": 303.086993,
          "name": "E5",
          "midi": 76,
          "duration": 0.590984,
          "velocity": 1
        },
        {
          "time": 303.636993,
          "name": "A4",
          "midi": 69,
          "duration": 0.491804,
          "velocity": 1
        },
        {
          "time": 303.677976,
          "name": "A5",
          "midi": 81,
          "duration": 0.488699,
          "velocity": 1
        },
        {
          "time": 304.128796,
          "name": "G#4",
          "midi": 68,
          "duration": 0.454545,
          "velocity": 1
        },
        {
          "time": 304.128796,
          "name": "A4",
          "midi": 69,
          "duration": 0.909091,
          "velocity": 0.88189
        },
        {
          "time": 304.166675,
          "name": "G#5",
          "midi": 80,
          "duration": 0.454545,
          "velocity": 1
        },
        {
          "time": 304.583342,
          "name": "F#4",
          "midi": 66,
          "duration": 0.454545,
          "velocity": 1
        },
        {
          "time": 304.621221,
          "name": "F#5",
          "midi": 78,
          "duration": 0.45765,
          "velocity": 1
        },
        {
          "time": 305.037887,
          "name": "E4",
          "midi": 64,
          "duration": 1.438153,
          "velocity": 1
        },
        {
          "time": 305.037887,
          "name": "A4",
          "midi": 69,
          "duration": 0.983607,
          "velocity": 0.88189
        },
        {
          "time": 305.078871,
          "name": "E5",
          "midi": 76,
          "duration": 1.435048,
          "velocity": 1
        },
        {
          "time": 306.021494,
          "name": "G#4",
          "midi": 68,
          "duration": 0.909091,
          "velocity": 0.88189
        },
        {
          "time": 306.47604,
          "name": "D4",
          "midi": 62,
          "duration": 0.454545,
          "velocity": 1
        },
        {
          "time": 306.513919,
          "name": "D5",
          "midi": 74,
          "duration": 0.45765,
          "velocity": 1
        },
        {
          "time": 306.930585,
          "name": "C#4",
          "midi": 61,
          "duration": 2.038153,
          "velocity": 1
        },
        {
          "time": 306.930585,
          "name": "A4",
          "midi": 69,
          "duration": 0.983607,
          "velocity": 0.88189
        },
        {
          "time": 306.971569,
          "name": "C#5",
          "midi": 73,
          "duration": 2.038153,
          "velocity": 1
        },
        {
          "time": 307.914192,
          "name": "A5",
          "midi": 81,
          "duration": 1.054546,
          "velocity": 0.88189
        },
        {
          "time": 307.914192,
          "name": "A4",
          "midi": 69,
          "duration": 1.054546,
          "velocity": 0.88189
        },
        {
          "time": 308.968738,
          "name": "B5",
          "midi": 83,
          "duration": 0.491804,
          "velocity": 1
        },
        {
          "time": 309.460541,
          "name": "E6",
          "midi": 88,
          "duration": 0.491804,
          "velocity": 1
        },
        {
          "time": 309.952345,
          "name": "F#6",
          "midi": 90,
          "duration": 0.454545,
          "velocity": 1
        },
        {
          "time": 310.40689,
          "name": "G#6",
          "midi": 92,
          "duration": 0.454545,
          "velocity": 1
        },
        {
          "time": 310.861436,
          "name": "F#6",
          "midi": 90,
          "duration": 0.081967,
          "velocity": 1
        },
        {
          "time": 310.943403,
          "name": "G#6",
          "midi": 92,
          "duration": 0.081967,
          "velocity": 1
        },
        {
          "time": 311.02537,
          "name": "F#6",
          "midi": 90,
          "duration": 1.274218,
          "velocity": 1
        },
        {
          "time": 312.299588,
          "name": "E6",
          "midi": 88,
          "duration": 0.454545,
          "velocity": 1
        },
        {
          "time": 312.754134,
          "name": "B5",
          "midi": 83,
          "duration": 0.588235,
          "velocity": 1
        },
        {
          "time": 313.342369,
          "name": "E6",
          "midi": 88,
          "duration": 0.491804,
          "velocity": 1
        },
        {
          "time": 313.834173,
          "name": "F#6",
          "midi": 90,
          "duration": 0.454545,
          "velocity": 1
        },
        {
          "time": 314.288718,
          "name": "G#6",
          "midi": 92,
          "duration": 0.454545,
          "velocity": 1
        },
        {
          "time": 314.743264,
          "name": "F#6",
          "midi": 90,
          "duration": 0.081967,
          "velocity": 1
        },
        {
          "time": 314.825231,
          "name": "G#6",
          "midi": 92,
          "duration": 0.081967,
          "velocity": 1
        },
        {
          "time": 314.907198,
          "name": "F#6",
          "midi": 90,
          "duration": 1.274218,
          "velocity": 1
        },
        {
          "time": 316.181416,
          "name": "E6",
          "midi": 88,
          "duration": 0.454545,
          "velocity": 1
        },
        {
          "time": 316.635962,
          "name": "D#6",
          "midi": 87,
          "duration": 0.6,
          "velocity": 1
        },
        {
          "time": 317.235962,
          "name": "A6",
          "midi": 93,
          "duration": 0.487805,
          "velocity": 1
        },
        {
          "time": 317.723767,
          "name": "B6",
          "midi": 95,
          "duration": 0.454545,
          "velocity": 1
        },
        {
          "time": 318.178312,
          "name": "A6",
          "midi": 93,
          "duration": 0.454545,
          "velocity": 1
        },
        {
          "time": 318.632858,
          "name": "G#6",
          "midi": 92,
          "duration": 0.337079,
          "velocity": 1
        },
        {
          "time": 318.969936,
          "name": "G#5",
          "midi": 80,
          "duration": 0.245902,
          "velocity": 1
        },
        {
          "time": 319.215838,
          "name": "A#5",
          "midi": 82,
          "duration": 0.245902,
          "velocity": 1
        },
        {
          "time": 319.46174,
          "name": "C6",
          "midi": 84,
          "duration": 0.245902,
          "velocity": 1
        },
        {
          "time": 319.707642,
          "name": "C#6",
          "midi": 85,
          "duration": 0.227273,
          "velocity": 1
        },
        {
          "time": 319.934914,
          "name": "D#6",
          "midi": 87,
          "duration": 0.227273,
          "velocity": 1
        },
        {
          "time": 320.162187,
          "name": "E6",
          "midi": 88,
          "duration": 0.227273,
          "velocity": 1
        },
        {
          "time": 320.38946,
          "name": "F#6",
          "midi": 90,
          "duration": 0.227273,
          "velocity": 1
        },
        {
          "time": 320.616733,
          "name": "G#6",
          "midi": 92,
          "duration": 0.491804,
          "velocity": 1
        },
        {
          "time": 321.108536,
          "name": "G#6",
          "midi": 92,
          "duration": 0.946349,
          "velocity": 1
        },
        {
          "time": 322.054885,
          "name": "C6",
          "midi": 84,
          "duration": 0.454545,
          "velocity": 1
        },
        {
          "time": 322.509431,
          "name": "D#6",
          "midi": 87,
          "duration": 0.109489,
          "velocity": 1
        },
        {
          "time": 322.61892,
          "name": "C#6",
          "midi": 85,
          "duration": 0.109489,
          "velocity": 1
        },
        {
          "time": 322.728409,
          "name": "D#6",
          "midi": 87,
          "duration": 0.109489,
          "velocity": 1
        },
        {
          "time": 322.837898,
          "name": "C#6",
          "midi": 85,
          "duration": 0.109489,
          "velocity": 1
        },
        {
          "time": 322.947387,
          "name": "D#6",
          "midi": 87,
          "duration": 0.109489,
          "velocity": 1
        },
        {
          "time": 323.056876,
          "name": "C#6",
          "midi": 85,
          "duration": 0.109489,
          "velocity": 1
        },
        {
          "time": 323.166365,
          "name": "D#6",
          "midi": 87,
          "duration": 0.109489,
          "velocity": 1
        },
        {
          "time": 323.275854,
          "name": "C#6",
          "midi": 85,
          "duration": 0.109489,
          "velocity": 1
        },
        {
          "time": 323.385343,
          "name": "D#6",
          "midi": 87,
          "duration": 0.089286,
          "velocity": 1
        },
        {
          "time": 323.474628,
          "name": "C#6",
          "midi": 85,
          "duration": 0.089286,
          "velocity": 1
        },
        {
          "time": 323.563914,
          "name": "D#6",
          "midi": 87,
          "duration": 0.089286,
          "velocity": 1
        },
        {
          "time": 323.6532,
          "name": "C#6",
          "midi": 85,
          "duration": 0.089286,
          "velocity": 1
        },
        {
          "time": 323.742486,
          "name": "D#6",
          "midi": 87,
          "duration": 0.089286,
          "velocity": 1
        },
        {
          "time": 323.831771,
          "name": "C#6",
          "midi": 85,
          "duration": 0.089286,
          "velocity": 1
        },
        {
          "time": 323.921057,
          "name": "D#6",
          "midi": 87,
          "duration": 0.089286,
          "velocity": 1
        },
        {
          "time": 324.010343,
          "name": "C#6",
          "midi": 85,
          "duration": 0.089286,
          "velocity": 1
        },
        {
          "time": 324.099629,
          "name": "D#6",
          "midi": 87,
          "duration": 0.089286,
          "velocity": 1
        },
        {
          "time": 324.188914,
          "name": "C#6",
          "midi": 85,
          "duration": 0.089286,
          "velocity": 1
        },
        {
          "time": 324.2782,
          "name": "D#6",
          "midi": 87,
          "duration": 0.089286,
          "velocity": 1
        },
        {
          "time": 324.367486,
          "name": "C#6",
          "midi": 85,
          "duration": 0.089286,
          "velocity": 1
        },
        {
          "time": 324.456772,
          "name": "D#6",
          "midi": 87,
          "duration": 0.081967,
          "velocity": 1
        },
        {
          "time": 324.456772,
          "name": "G#4",
          "midi": 68,
          "duration": 0.491804,
          "velocity": 0.88189
        },
        {
          "time": 324.456772,
          "name": "C#4",
          "midi": 61,
          "duration": 0.491804,
          "velocity": 0.88189
        },
        {
          "time": 324.473165,
          "name": "E5",
          "midi": 76,
          "duration": 0.491804,
          "velocity": 0.88189
        },
        {
          "time": 324.489559,
          "name": "C#6",
          "midi": 85,
          "duration": 0.491804,
          "velocity": 0.88189
        },
        {
          "time": 324.538739,
          "name": "C#6",
          "midi": 85,
          "duration": 0.081967,
          "velocity": 1
        },
        {
          "time": 324.620706,
          "name": "D#6",
          "midi": 87,
          "duration": 0.081967,
          "velocity": 1
        },
        {
          "time": 324.702673,
          "name": "C#6",
          "midi": 85,
          "duration": 0.081967,
          "velocity": 1
        },
        {
          "time": 324.784641,
          "name": "D#6",
          "midi": 87,
          "duration": 0.081967,
          "velocity": 1
        },
        {
          "time": 324.866608,
          "name": "C#6",
          "midi": 85,
          "duration": 0.081967,
          "velocity": 1
        },
        {
          "time": 324.948575,
          "name": "D#6",
          "midi": 87,
          "duration": 0.081967,
          "velocity": 1
        },
        {
          "time": 325.030542,
          "name": "C#6",
          "midi": 85,
          "duration": 0.081967,
          "velocity": 1
        },
        {
          "time": 325.11251,
          "name": "D#6",
          "midi": 87,
          "duration": 0.081967,
          "velocity": 1
        },
        {
          "time": 325.194477,
          "name": "C#6",
          "midi": 85,
          "duration": 0.081967,
          "velocity": 1
        },
        {
          "time": 325.276444,
          "name": "D#6",
          "midi": 87,
          "duration": 0.081967,
          "velocity": 1
        },
        {
          "time": 325.358411,
          "name": "C#6",
          "midi": 85,
          "duration": 0.081967,
          "velocity": 1
        },
        {
          "time": 325.440379,
          "name": "D#6",
          "midi": 87,
          "duration": 0.075758,
          "velocity": 1
        },
        {
          "time": 325.516136,
          "name": "C#6",
          "midi": 85,
          "duration": 0.075758,
          "velocity": 1
        },
        {
          "time": 325.591894,
          "name": "D#6",
          "midi": 87,
          "duration": 0.075758,
          "velocity": 1
        },
        {
          "time": 325.667651,
          "name": "C#6",
          "midi": 85,
          "duration": 0.075758,
          "velocity": 1
        },
        {
          "time": 325.743409,
          "name": "D#6",
          "midi": 87,
          "duration": 0.075758,
          "velocity": 1
        },
        {
          "time": 325.819167,
          "name": "C#6",
          "midi": 85,
          "duration": 0.075758,
          "velocity": 1
        },
        {
          "time": 325.894924,
          "name": "D#6",
          "midi": 87,
          "duration": 0.075758,
          "velocity": 1
        },
        {
          "time": 325.970682,
          "name": "C#6",
          "midi": 85,
          "duration": 0.075758,
          "velocity": 1
        },
        {
          "time": 326.046439,
          "name": "D#6",
          "midi": 87,
          "duration": 0.075758,
          "velocity": 1
        },
        {
          "time": 326.122197,
          "name": "C#6",
          "midi": 85,
          "duration": 0.075758,
          "velocity": 1
        },
        {
          "time": 326.197955,
          "name": "D#6",
          "midi": 87,
          "duration": 0.075758,
          "velocity": 1
        },
        {
          "time": 326.273712,
          "name": "C#6",
          "midi": 85,
          "duration": 0.075758,
          "velocity": 1
        },
        {
          "time": 326.34947,
          "name": "D#6",
          "midi": 87,
          "duration": 0.081967,
          "velocity": 1
        },
        {
          "time": 326.431437,
          "name": "C#6",
          "midi": 85,
          "duration": 0.081967,
          "velocity": 1
        },
        {
          "time": 326.513404,
          "name": "D#6",
          "midi": 87,
          "duration": 0.081967,
          "velocity": 1
        },
        {
          "time": 326.595371,
          "name": "C#6",
          "midi": 85,
          "duration": 0.081967,
          "velocity": 1
        },
        {
          "time": 326.677339,
          "name": "D#6",
          "midi": 87,
          "duration": 0.081967,
          "velocity": 1
        },
        {
          "time": 326.759306,
          "name": "C#6",
          "midi": 85,
          "duration": 0.081967,
          "velocity": 1
        },
        {
          "time": 326.841273,
          "name": "D#6",
          "midi": 87,
          "duration": 0.081967,
          "velocity": 1
        },
        {
          "time": 326.92324,
          "name": "C#6",
          "midi": 85,
          "duration": 0.081967,
          "velocity": 1
        },
        {
          "time": 327.005208,
          "name": "D#6",
          "midi": 87,
          "duration": 0.081967,
          "velocity": 1
        },
        {
          "time": 327.087175,
          "name": "C#6",
          "midi": 85,
          "duration": 0.081967,
          "velocity": 1
        },
        {
          "time": 327.169142,
          "name": "D#6",
          "midi": 87,
          "duration": 0.081967,
          "velocity": 1
        },
        {
          "time": 327.251109,
          "name": "C#6",
          "midi": 85,
          "duration": 0.081967,
          "velocity": 1
        },
        {
          "time": 327.333077,
          "name": "D#6",
          "midi": 87,
          "duration": 0.075758,
          "velocity": 1
        },
        {
          "time": 327.408834,
          "name": "C#6",
          "midi": 85,
          "duration": 0.075758,
          "velocity": 1
        },
        {
          "time": 327.484592,
          "name": "D#6",
          "midi": 87,
          "duration": 0.075758,
          "velocity": 1
        },
        {
          "time": 327.560349,
          "name": "C#6",
          "midi": 85,
          "duration": 0.075758,
          "velocity": 1
        },
        {
          "time": 327.636107,
          "name": "D#6",
          "midi": 87,
          "duration": 0.075758,
          "velocity": 1
        },
        {
          "time": 327.711865,
          "name": "C#6",
          "midi": 85,
          "duration": 0.075758,
          "velocity": 1
        },
        {
          "time": 327.787622,
          "name": "D#6",
          "midi": 87,
          "duration": 0.075758,
          "velocity": 1
        },
        {
          "time": 327.86338,
          "name": "C#6",
          "midi": 85,
          "duration": 0.075758,
          "velocity": 1
        },
        {
          "time": 327.939137,
          "name": "D#6",
          "midi": 87,
          "duration": 0.075758,
          "velocity": 1
        },
        {
          "time": 328.014895,
          "name": "C#6",
          "midi": 85,
          "duration": 0.075758,
          "velocity": 1
        },
        {
          "time": 328.090653,
          "name": "D#6",
          "midi": 87,
          "duration": 0.075758,
          "velocity": 1
        },
        {
          "time": 328.16641,
          "name": "C#6",
          "midi": 85,
          "duration": 0.075758,
          "velocity": 1
        },
        {
          "time": 328.242168,
          "name": "D#6",
          "midi": 87,
          "duration": 0.081967,
          "velocity": 1
        },
        {
          "time": 328.242168,
          "name": "C#4",
          "midi": 61,
          "duration": 0.491804,
          "velocity": 0.88189
        },
        {
          "time": 328.242168,
          "name": "G#4",
          "midi": 68,
          "duration": 0.491804,
          "velocity": 0.88189
        },
        {
          "time": 328.258561,
          "name": "E5",
          "midi": 76,
          "duration": 0.491804,
          "velocity": 0.88189
        },
        {
          "time": 328.274955,
          "name": "C#6",
          "midi": 85,
          "duration": 0.491804,
          "velocity": 0.88189
        },
        {
          "time": 328.324135,
          "name": "C#6",
          "midi": 85,
          "duration": 0.081967,
          "velocity": 1
        },
        {
          "time": 328.406102,
          "name": "D#6",
          "midi": 87,
          "duration": 0.081967,
          "velocity": 1
        },
        {
          "time": 328.488069,
          "name": "C#6",
          "midi": 85,
          "duration": 0.081967,
          "velocity": 1
        },
        {
          "time": 328.570037,
          "name": "D#6",
          "midi": 87,
          "duration": 0.081967,
          "velocity": 1
        },
        {
          "time": 328.652004,
          "name": "C#6",
          "midi": 85,
          "duration": 0.081967,
          "velocity": 1
        },
        {
          "time": 328.733971,
          "name": "D#6",
          "midi": 87,
          "duration": 0.081967,
          "velocity": 1
        },
        {
          "time": 328.815938,
          "name": "C#6",
          "midi": 85,
          "duration": 0.081967,
          "velocity": 1
        },
        {
          "time": 328.897906,
          "name": "D#6",
          "midi": 87,
          "duration": 0.081967,
          "velocity": 1
        },
        {
          "time": 328.979873,
          "name": "C#6",
          "midi": 85,
          "duration": 0.081967,
          "velocity": 1
        },
        {
          "time": 329.06184,
          "name": "D#6",
          "midi": 87,
          "duration": 0.081967,
          "velocity": 1
        },
        {
          "time": 329.143807,
          "name": "C#6",
          "midi": 85,
          "duration": 0.081967,
          "velocity": 1
        },
        {
          "time": 329.225775,
          "name": "D#6",
          "midi": 87,
          "duration": 0.075758,
          "velocity": 1
        },
        {
          "time": 329.301532,
          "name": "C#6",
          "midi": 85,
          "duration": 0.075758,
          "velocity": 1
        },
        {
          "time": 329.37729,
          "name": "D#6",
          "midi": 87,
          "duration": 0.075758,
          "velocity": 1
        },
        {
          "time": 329.453047,
          "name": "C#6",
          "midi": 85,
          "duration": 0.075758,
          "velocity": 1
        },
        {
          "time": 329.528805,
          "name": "D#6",
          "midi": 87,
          "duration": 0.075758,
          "velocity": 1
        },
        {
          "time": 329.604563,
          "name": "C#6",
          "midi": 85,
          "duration": 0.075758,
          "velocity": 1
        },
        {
          "time": 329.68032,
          "name": "D#6",
          "midi": 87,
          "duration": 0.075758,
          "velocity": 1
        },
        {
          "time": 329.756078,
          "name": "C#6",
          "midi": 85,
          "duration": 0.075758,
          "velocity": 1
        },
        {
          "time": 329.831835,
          "name": "D#6",
          "midi": 87,
          "duration": 0.075758,
          "velocity": 1
        },
        {
          "time": 329.907593,
          "name": "C#6",
          "midi": 85,
          "duration": 0.075758,
          "velocity": 1
        },
        {
          "time": 329.983351,
          "name": "D#6",
          "midi": 87,
          "duration": 0.151515,
          "velocity": 1
        },
        {
          "time": 330.134866,
          "name": "C#6",
          "midi": 85,
          "duration": 0.491804,
          "velocity": 1
        },
        {
          "time": 330.626669,
          "name": "C#6",
          "midi": 85,
          "duration": 0.946349,
          "velocity": 1
        },
        {
          "time": 331.573018,
          "name": "C#6",
          "midi": 85,
          "duration": 0.946349,
          "velocity": 1
        },
        {
          "time": 332.519367,
          "name": "C#6",
          "midi": 85,
          "duration": 0.946349,
          "velocity": 1
        },
        {
          "time": 333.465716,
          "name": "C#6",
          "midi": 85,
          "duration": 0.946349,
          "velocity": 1
        },
        {
          "time": 334.412065,
          "name": "C#5",
          "midi": 73,
          "duration": 0.946349,
          "velocity": 1
        },
        {
          "time": 335.358414,
          "name": "C#5",
          "midi": 73,
          "duration": 0.946349,
          "velocity": 1
        },
        {
          "time": 336.304763,
          "name": "C#4",
          "midi": 61,
          "duration": 0.946349,
          "velocity": 1
        },
        {
          "time": 337.251112,
          "name": "C#4",
          "midi": 61,
          "duration": 0.99026,
          "velocity": 1
        },
        {
          "time": 338.241372,
          "name": "C#4",
          "midi": 61,
          "duration": 1.107143,
          "velocity": 1
        },
        {
          "time": 339.348515,
          "name": "C#4",
          "midi": 61,
          "duration": 1.165488,
          "velocity": 1
        },
        {
          "time": 340.514003,
          "name": "C#4",
          "midi": 61,
          "duration": 1.246233,
          "velocity": 1
        },
        {
          "time": 341.760237,
          "name": "C#4",
          "midi": 61,
          "duration": 1.462985,
          "velocity": 1
        },
        {
          "time": 343.223222,
          "name": "C#4",
          "midi": 61,
          "duration": 2.325963,
          "velocity": 1
        },
        {
          "time": 345.852215,
          "name": "C#4",
          "midi": 61,
          "duration": 0.571429,
          "velocity": 1
        },
        {
          "time": 346.423643,
          "name": "G#4",
          "midi": 68,
          "duration": 0.428571,
          "velocity": 1
        },
        {
          "time": 346.852215,
          "name": "F#4",
          "midi": 66,
          "duration": 0.321429,
          "velocity": 1
        },
        {
          "time": 346.852215,
          "name": "E4",
          "midi": 64,
          "duration": 0.428572,
          "velocity": 0.88189
        },
        {
          "time": 347.280786,
          "name": "B4",
          "midi": 71,
          "duration": 0.136095,
          "velocity": 1
        },
        {
          "time": 347.458301,
          "name": "A4",
          "midi": 69,
          "duration": 0.136095,
          "velocity": 1
        },
        {
          "time": 347.635816,
          "name": "G#4",
          "midi": 68,
          "duration": 0.136095,
          "velocity": 1
        },
        {
          "time": 347.635816,
          "name": "E4",
          "midi": 64,
          "duration": 0.35503,
          "velocity": 0.88189
        },
        {
          "time": 347.81333,
          "name": "F#4",
          "midi": 66,
          "duration": 0.136095,
          "velocity": 1
        },
        {
          "time": 347.990845,
          "name": "E4",
          "midi": 64,
          "duration": 0.365854,
          "velocity": 1
        },
        {
          "time": 348.356699,
          "name": "G#5",
          "midi": 80,
          "duration": 0.060976,
          "velocity": 1
        },
        {
          "time": 348.356699,
          "name": "C#5",
          "midi": 73,
          "duration": 0.365853,
          "velocity": 1
        },
        {
          "time": 348.356699,
          "name": "E4",
          "midi": 64,
          "duration": 0.365853,
          "velocity": 0.88189
        },
        {
          "time": 348.417674,
          "name": "F#5",
          "midi": 78,
          "duration": 0.060976,
          "velocity": 1
        },
        {
          "time": 348.47865,
          "name": "G#5",
          "midi": 80,
          "duration": 0.060976,
          "velocity": 1
        },
        {
          "time": 348.539625,
          "name": "F#5",
          "midi": 78,
          "duration": 0.060976,
          "velocity": 1
        },
        {
          "time": 348.600601,
          "name": "F#5",
          "midi": 78,
          "duration": 0.060976,
          "velocity": 1
        },
        {
          "time": 348.661577,
          "name": "G#5",
          "midi": 80,
          "duration": 0.060976,
          "velocity": 1
        },
        {
          "time": 348.722552,
          "name": "E5",
          "midi": 76,
          "duration": 0.166667,
          "velocity": 1
        },
        {
          "time": 348.722552,
          "name": "C#5",
          "midi": 73,
          "duration": 0.166667,
          "velocity": 1
        },
        {
          "time": 348.889219,
          "name": "A3",
          "midi": 57,
          "duration": 0.166667,
          "velocity": 1
        },
        {
          "time": 349.055886,
          "name": "B3",
          "midi": 59,
          "duration": 0.166667,
          "velocity": 1
        },
        {
          "time": 349.055886,
          "name": "E4",
          "midi": 64,
          "duration": 0.333334,
          "velocity": 0.88189
        },
        {
          "time": 349.222552,
          "name": "C#4",
          "midi": 61,
          "duration": 0.166667,
          "velocity": 1
        },
        {
          "time": 349.389219,
          "name": "D4",
          "midi": 62,
          "duration": 0.365854,
          "velocity": 1
        },
        {
          "time": 349.755073,
          "name": "D5",
          "midi": 74,
          "duration": 0.365853,
          "velocity": 1
        },
        {
          "time": 349.755073,
          "name": "G#5",
          "midi": 80,
          "duration": 0.060976,
          "velocity": 1
        },
        {
          "time": 349.755073,
          "name": "E4",
          "midi": 64,
          "duration": 0.365853,
          "velocity": 0.88189
        },
        {
          "time": 349.816048,
          "name": "F#5",
          "midi": 78,
          "duration": 0.060976,
          "velocity": 1
        },
        {
          "time": 349.877024,
          "name": "G#5",
          "midi": 80,
          "duration": 0.060976,
          "velocity": 1
        },
        {
          "time": 349.937999,
          "name": "F#5",
          "midi": 78,
          "duration": 0.060976,
          "velocity": 1
        },
        {
          "time": 349.998975,
          "name": "F#5",
          "midi": 78,
          "duration": 0.060976,
          "velocity": 1
        },
        {
          "time": 350.059951,
          "name": "G#5",
          "midi": 80,
          "duration": 0.060976,
          "velocity": 1
        },
        {
          "time": 350.120926,
          "name": "E5",
          "midi": 76,
          "duration": 0.166667,
          "velocity": 1
        },
        {
          "time": 350.120926,
          "name": "D5",
          "midi": 74,
          "duration": 0.166667,
          "velocity": 1
        },
        {
          "time": 350.287593,
          "name": "G#3",
          "midi": 56,
          "duration": 0.166667,
          "velocity": 1
        },
        {
          "time": 350.45426,
          "name": "A3",
          "midi": 57,
          "duration": 0.166667,
          "velocity": 1
        },
        {
          "time": 350.45426,
          "name": "E4",
          "midi": 64,
          "duration": 0.333334,
          "velocity": 0.88189
        },
        {
          "time": 350.620926,
          "name": "B3",
          "midi": 59,
          "duration": 0.166667,
          "velocity": 1
        },
        {
          "time": 350.787593,
          "name": "C#4",
          "midi": 61,
          "duration": 0.365854,
          "velocity": 1
        },
        {
          "time": 351.153447,
          "name": "C#5",
          "midi": 73,
          "duration": 0.365853,
          "velocity": 1
        },
        {
          "time": 351.153447,
          "name": "G#5",
          "midi": 80,
          "duration": 0.060976,
          "velocity": 1
        },
        {
          "time": 351.153447,
          "name": "E4",
          "midi": 64,
          "duration": 0.365853,
          "velocity": 0.88189
        },
        {
          "time": 351.214422,
          "name": "F#5",
          "midi": 78,
          "duration": 0.060976,
          "velocity": 1
        },
        {
          "time": 351.275398,
          "name": "G#5",
          "midi": 80,
          "duration": 0.060976,
          "velocity": 1
        },
        {
          "time": 351.336373,
          "name": "F#5",
          "midi": 78,
          "duration": 0.060976,
          "velocity": 1
        },
        {
          "time": 351.397349,
          "name": "F#5",
          "midi": 78,
          "duration": 0.060976,
          "velocity": 1
        },
        {
          "time": 351.458325,
          "name": "G#5",
          "midi": 80,
          "duration": 0.060976,
          "velocity": 1
        },
        {
          "time": 351.5193,
          "name": "E5",
          "midi": 76,
          "duration": 0.447761,
          "velocity": 1
        },
        {
          "time": 351.5193,
          "name": "C#5",
          "midi": 73,
          "duration": 0.447761,
          "velocity": 1
        },
        {
          "time": 351.967061,
          "name": "A4",
          "midi": 69,
          "duration": 0.35503,
          "velocity": 1
        },
        {
          "time": 351.967061,
          "name": "A4",
          "midi": 69,
          "duration": 0.35503,
          "velocity": 0.88189
        },
        {
          "time": 352.322091,
          "name": "G#4",
          "midi": 68,
          "duration": 0.365854,
          "velocity": 1
        },
        {
          "time": 352.687944,
          "name": "F#4",
          "midi": 66,
          "duration": 0.27439,
          "velocity": 1
        },
        {
          "time": 352.687944,
          "name": "F#4",
          "midi": 66,
          "duration": 0.365853,
          "velocity": 0.88189
        },
        {
          "time": 353.053798,
          "name": "B4",
          "midi": 71,
          "duration": 0.127778,
          "velocity": 1
        },
        {
          "time": 353.220464,
          "name": "A4",
          "midi": 69,
          "duration": 0.127778,
          "velocity": 1
        },
        {
          "time": 353.387131,
          "name": "G#4",
          "midi": 68,
          "duration": 0.127778,
          "velocity": 1
        },
        {
          "time": 353.387131,
          "name": "G#4",
          "midi": 68,
          "duration": 0.333334,
          "velocity": 0.88189
        },
        {
          "time": 353.553798,
          "name": "F#4",
          "midi": 66,
          "duration": 0.127778,
          "velocity": 1
        },
        {
          "time": 353.720465,
          "name": "E4",
          "midi": 64,
          "duration": 0.365854,
          "velocity": 1
        },
        {
          "time": 354.086318,
          "name": "G#5",
          "midi": 80,
          "duration": 0.060976,
          "velocity": 1
        },
        {
          "time": 354.086318,
          "name": "C#5",
          "midi": 73,
          "duration": 0.365853,
          "velocity": 1
        },
        {
          "time": 354.086318,
          "name": "A4",
          "midi": 69,
          "duration": 0.365853,
          "velocity": 0.88189
        },
        {
          "time": 354.147294,
          "name": "F#5",
          "midi": 78,
          "duration": 0.060976,
          "velocity": 1
        },
        {
          "time": 354.208269,
          "name": "G#5",
          "midi": 80,
          "duration": 0.060976,
          "velocity": 1
        },
        {
          "time": 354.269245,
          "name": "F#5",
          "midi": 78,
          "duration": 0.060976,
          "velocity": 1
        },
        {
          "time": 354.330221,
          "name": "F#5",
          "midi": 78,
          "duration": 0.060976,
          "velocity": 1
        },
        {
          "time": 354.391196,
          "name": "G#5",
          "midi": 80,
          "duration": 0.060976,
          "velocity": 1
        },
        {
          "time": 354.452172,
          "name": "E5",
          "midi": 76,
          "duration": 0.166667,
          "velocity": 1
        },
        {
          "time": 354.452172,
          "name": "C#5",
          "midi": 73,
          "duration": 0.166667,
          "velocity": 1
        },
        {
          "time": 354.618838,
          "name": "A3",
          "midi": 57,
          "duration": 0.166667,
          "velocity": 1
        },
        {
          "time": 354.785505,
          "name": "B3",
          "midi": 59,
          "duration": 0.166667,
          "velocity": 1
        },
        {
          "time": 354.785505,
          "name": "A4",
          "midi": 69,
          "duration": 0.333334,
          "velocity": 0.88189
        },
        {
          "time": 354.952172,
          "name": "C#4",
          "midi": 61,
          "duration": 0.166667,
          "velocity": 1
        },
        {
          "time": 355.118839,
          "name": "D4",
          "midi": 62,
          "duration": 0.365854,
          "velocity": 1
        },
        {
          "time": 355.484692,
          "name": "D5",
          "midi": 74,
          "duration": 0.365853,
          "velocity": 1
        },
        {
          "time": 355.484692,
          "name": "G#5",
          "midi": 80,
          "duration": 0.060976,
          "velocity": 1
        },
        {
          "time": 355.484692,
          "name": "B4",
          "midi": 71,
          "duration": 0.365853,
          "velocity": 0.88189
        },
        {
          "time": 355.545668,
          "name": "F#5",
          "midi": 78,
          "duration": 0.060976,
          "velocity": 1
        },
        {
          "time": 355.606643,
          "name": "G#5",
          "midi": 80,
          "duration": 0.060976,
          "velocity": 1
        },
        {
          "time": 355.667619,
          "name": "F#5",
          "midi": 78,
          "duration": 0.060976,
          "velocity": 1
        },
        {
          "time": 355.728595,
          "name": "F#5",
          "midi": 78,
          "duration": 0.060976,
          "velocity": 1
        },
        {
          "time": 355.78957,
          "name": "G#5",
          "midi": 80,
          "duration": 0.060976,
          "velocity": 1
        },
        {
          "time": 355.850546,
          "name": "E5",
          "midi": 76,
          "duration": 0.166667,
          "velocity": 1
        },
        {
          "time": 355.850546,
          "name": "D5",
          "midi": 74,
          "duration": 0.166667,
          "velocity": 1
        },
        {
          "time": 356.017212,
          "name": "D5",
          "midi": 74,
          "duration": 0.166667,
          "velocity": 1
        },
        {
          "time": 356.017212,
          "name": "E5",
          "midi": 76,
          "duration": 0.166667,
          "velocity": 1
        },
        {
          "time": 356.183879,
          "name": "C#5",
          "midi": 73,
          "duration": 0.166667,
          "velocity": 1
        },
        {
          "time": 356.183879,
          "name": "E5",
          "midi": 76,
          "duration": 0.166667,
          "velocity": 1
        },
        {
          "time": 356.183879,
          "name": "G#4",
          "midi": 68,
          "duration": 0.333334,
          "velocity": 0.88189
        },
        {
          "time": 356.350546,
          "name": "B4",
          "midi": 71,
          "duration": 0.166667,
          "velocity": 1
        },
        {
          "time": 356.350546,
          "name": "E5",
          "midi": 76,
          "duration": 0.166667,
          "velocity": 1
        },
        {
          "time": 356.517213,
          "name": "A4",
          "midi": 69,
          "duration": 0.202703,
          "velocity": 1
        },
        {
          "time": 356.517213,
          "name": "E5",
          "midi": 76,
          "duration": 0.202703,
          "velocity": 1
        },
        {
          "time": 356.517213,
          "name": "A4",
          "midi": 69,
          "duration": 0.405405,
          "velocity": 0.88189
        },
        {
          "time": 356.719915,
          "name": "A4",
          "midi": 69,
          "duration": 0.155405,
          "velocity": 1
        },
        {
          "time": 356.922618,
          "name": "B4",
          "midi": 71,
          "duration": 0.146497,
          "velocity": 1
        },
        {
          "time": 357.113701,
          "name": "C#5",
          "midi": 73,
          "duration": 0.146497,
          "velocity": 1
        },
        {
          "time": 357.304784,
          "name": "D5",
          "midi": 74,
          "duration": 0.140244,
          "velocity": 1
        },
        {
          "time": 357.48771,
          "name": "C#5",
          "midi": 73,
          "duration": 0.140244,
          "velocity": 1
        },
        {
          "time": 357.670637,
          "name": "D5",
          "midi": 74,
          "duration": 0.132184,
          "velocity": 1
        },
        {
          "time": 357.843051,
          "name": "E5",
          "midi": 76,
          "duration": 0.132184,
          "velocity": 1
        },
        {
          "time": 358.015465,
          "name": "G#5",
          "midi": 80,
          "duration": 0.335366,
          "velocity": 1
        },
        {
          "time": 358.381318,
          "name": "F#5",
          "midi": 78,
          "duration": 0.335366,
          "velocity": 1
        },
        {
          "time": 358.381318,
          "name": "D5",
          "midi": 74,
          "duration": 0.365853,
          "velocity": 0.88189
        },
        {
          "time": 358.747172,
          "name": "B5",
          "midi": 83,
          "duration": 0.127778,
          "velocity": 1
        },
        {
          "time": 358.747172,
          "name": "G#5",
          "midi": 80,
          "duration": 0.127778,
          "velocity": 1
        },
        {
          "time": 358.913838,
          "name": "A5",
          "midi": 81,
          "duration": 0.127778,
          "velocity": 1
        },
        {
          "time": 358.913838,
          "name": "F#5",
          "midi": 78,
          "duration": 0.127778,
          "velocity": 1
        },
        {
          "time": 359.080505,
          "name": "G#5",
          "midi": 80,
          "duration": 0.127778,
          "velocity": 1
        },
        {
          "time": 359.080505,
          "name": "E5",
          "midi": 76,
          "duration": 0.127778,
          "velocity": 1
        },
        {
          "time": 359.080505,
          "name": "E5",
          "midi": 76,
          "duration": 0.333334,
          "velocity": 0.88189
        },
        {
          "time": 359.247172,
          "name": "F#5",
          "midi": 78,
          "duration": 0.127778,
          "velocity": 1
        },
        {
          "time": 359.247172,
          "name": "D5",
          "midi": 74,
          "duration": 0.127778,
          "velocity": 1
        },
        {
          "time": 359.413839,
          "name": "E5",
          "midi": 76,
          "duration": 0.335366,
          "velocity": 1
        },
        {
          "time": 359.779692,
          "name": "G#6",
          "midi": 92,
          "duration": 0.060976,
          "velocity": 1
        },
        {
          "time": 359.779692,
          "name": "E5",
          "midi": 76,
          "duration": 0.365853,
          "velocity": 0.88189
        },
        {
          "time": 359.840668,
          "name": "F#6",
          "midi": 90,
          "duration": 0.060976,
          "velocity": 1
        },
        {
          "time": 359.901643,
          "name": "G#6",
          "midi": 92,
          "duration": 0.060976,
          "velocity": 1
        },
        {
          "time": 359.962619,
          "name": "F#6",
          "midi": 90,
          "duration": 0.060976,
          "velocity": 1
        },
        {
          "time": 360.023595,
          "name": "F#6",
          "midi": 90,
          "duration": 0.060976,
          "velocity": 1
        },
        {
          "time": 360.08457,
          "name": "G#6",
          "midi": 92,
          "duration": 0.060976,
          "velocity": 1
        },
        {
          "time": 360.145546,
          "name": "E6",
          "midi": 88,
          "duration": 0.127778,
          "velocity": 1
        },
        {
          "time": 360.312212,
          "name": "A3",
          "midi": 57,
          "duration": 0.127778,
          "velocity": 1
        },
        {
          "time": 360.478879,
          "name": "B3",
          "midi": 59,
          "duration": 0.127778,
          "velocity": 1
        },
        {
          "time": 360.478879,
          "name": "E5",
          "midi": 76,
          "duration": 0.333334,
          "velocity": 0.88189
        },
        {
          "time": 360.645546,
          "name": "C#4",
          "midi": 61,
          "duration": 0.127778,
          "velocity": 1
        },
        {
          "time": 360.812213,
          "name": "D4",
          "midi": 62,
          "duration": 0.335366,
          "velocity": 1
        },
        {
          "time": 361.178066,
          "name": "G#6",
          "midi": 92,
          "duration": 0.060976,
          "velocity": 1
        },
        {
          "time": 361.178066,
          "name": "D5",
          "midi": 74,
          "duration": 0.365853,
          "velocity": 0.88189
        },
        {
          "time": 361.239042,
          "name": "F#6",
          "midi": 90,
          "duration": 0.060976,
          "velocity": 1
        },
        {
          "time": 361.300017,
          "name": "G#6",
          "midi": 92,
          "duration": 0.060976,
          "velocity": 1
        },
        {
          "time": 361.360993,
          "name": "F#6",
          "midi": 90,
          "duration": 0.060976,
          "velocity": 1
        },
        {
          "time": 361.421969,
          "name": "F#6",
          "midi": 90,
          "duration": 0.060976,
          "velocity": 1
        },
        {
          "time": 361.482944,
          "name": "G#6",
          "midi": 92,
          "duration": 0.060976,
          "velocity": 1
        },
        {
          "time": 361.54392,
          "name": "E6",
          "midi": 88,
          "duration": 0.127778,
          "velocity": 1
        },
        {
          "time": 361.710586,
          "name": "G#3",
          "midi": 56,
          "duration": 0.127778,
          "velocity": 1
        },
        {
          "time": 361.877253,
          "name": "A3",
          "midi": 57,
          "duration": 0.127778,
          "velocity": 1
        },
        {
          "time": 361.877253,
          "name": "G#4",
          "midi": 68,
          "duration": 0.333334,
          "velocity": 0.88189
        },
        {
          "time": 362.04392,
          "name": "B3",
          "midi": 59,
          "duration": 0.127778,
          "velocity": 1
        },
        {
          "time": 362.210587,
          "name": "C#4",
          "midi": 61,
          "duration": 0.335366,
          "velocity": 1
        },
        {
          "time": 362.57644,
          "name": "G#6",
          "midi": 92,
          "duration": 0.060976,
          "velocity": 1
        },
        {
          "time": 362.57644,
          "name": "A4",
          "midi": 69,
          "duration": 0.365853,
          "velocity": 0.88189
        },
        {
          "time": 362.637416,
          "name": "F#6",
          "midi": 90,
          "duration": 0.060976,
          "velocity": 1
        },
        {
          "time": 362.698391,
          "name": "G#6",
          "midi": 92,
          "duration": 0.060976,
          "velocity": 1
        },
        {
          "time": 362.759367,
          "name": "F#6",
          "midi": 90,
          "duration": 0.060976,
          "velocity": 1
        },
        {
          "time": 362.820343,
          "name": "F#6",
          "midi": 90,
          "duration": 0.060976,
          "velocity": 1
        },
        {
          "time": 362.881318,
          "name": "G#6",
          "midi": 92,
          "duration": 0.060976,
          "velocity": 1
        },
        {
          "time": 362.942294,
          "name": "E6",
          "midi": 88,
          "duration": 0.410448,
          "velocity": 1
        },
        {
          "time": 363.390055,
          "name": "A6",
          "midi": 93,
          "duration": 0.357143,
          "velocity": 1
        },
        {
          "time": 363.390055,
          "name": "C#5",
          "midi": 73,
          "duration": 0.357143,
          "velocity": 0.88189
        },
        {
          "time": 363.747198,
          "name": "G#6",
          "midi": 92,
          "duration": 0.365854,
          "velocity": 1
        },
        {
          "time": 364.113051,
          "name": "F#6",
          "midi": 90,
          "duration": 0.365853,
          "velocity": 1
        },
        {
          "time": 364.113051,
          "name": "D5",
          "midi": 74,
          "duration": 0.365853,
          "velocity": 0.88189
        },
        {
          "time": 364.478905,
          "name": "B6",
          "midi": 95,
          "duration": 0.127778,
          "velocity": 1
        },
        {
          "time": 364.645571,
          "name": "A6",
          "midi": 93,
          "duration": 0.127778,
          "velocity": 1
        },
        {
          "time": 364.812238,
          "name": "G#6",
          "midi": 92,
          "duration": 0.127778,
          "velocity": 1
        },
        {
          "time": 364.812238,
          "name": "E5",
          "midi": 76,
          "duration": 0.333334,
          "velocity": 0.88189
        },
        {
          "time": 364.978905,
          "name": "F#6",
          "midi": 90,
          "duration": 0.127778,
          "velocity": 1
        },
        {
          "time": 365.145572,
          "name": "E6",
          "midi": 88,
          "duration": 0.140244,
          "velocity": 1
        },
        {
          "time": 365.328498,
          "name": "E6",
          "midi": 88,
          "duration": 0.140244,
          "velocity": 1
        },
        {
          "time": 365.511425,
          "name": "A6",
          "midi": 93,
          "duration": 0.140244,
          "velocity": 1
        },
        {
          "time": 365.511425,
          "name": "E5",
          "midi": 76,
          "duration": 0.365853,
          "velocity": 0.88189
        },
        {
          "time": 365.694352,
          "name": "G#6",
          "midi": 92,
          "duration": 0.140244,
          "velocity": 1
        },
        {
          "time": 365.877279,
          "name": "G#6",
          "midi": 92,
          "duration": 0.055556,
          "velocity": 1
        },
        {
          "time": 365.932834,
          "name": "F#6",
          "midi": 90,
          "duration": 0.055556,
          "velocity": 1
        },
        {
          "time": 365.98839,
          "name": "F#6",
          "midi": 90,
          "duration": 0.055556,
          "velocity": 1
        },
        {
          "time": 366.043945,
          "name": "E6",
          "midi": 88,
          "duration": 0.127778,
          "velocity": 1
        },
        {
          "time": 366.210612,
          "name": "D6",
          "midi": 86,
          "duration": 0.127778,
          "velocity": 1
        },
        {
          "time": 366.210612,
          "name": "E5",
          "midi": 76,
          "duration": 0.333334,
          "velocity": 0.88189
        },
        {
          "time": 366.377279,
          "name": "C#6",
          "midi": 85,
          "duration": 0.127778,
          "velocity": 1
        },
        {
          "time": 366.543946,
          "name": "B5",
          "midi": 83,
          "duration": 0.140244,
          "velocity": 1
        },
        {
          "time": 366.726872,
          "name": "A6",
          "midi": 93,
          "duration": 0.140244,
          "velocity": 1
        },
        {
          "time": 366.909799,
          "name": "G#6",
          "midi": 92,
          "duration": 0.140244,
          "velocity": 1
        },
        {
          "time": 366.909799,
          "name": "D5",
          "midi": 74,
          "duration": 0.365853,
          "velocity": 0.88189
        },
        {
          "time": 367.092726,
          "name": "F#6",
          "midi": 90,
          "duration": 0.140244,
          "velocity": 1
        },
        {
          "time": 367.275653,
          "name": "F#6",
          "midi": 90,
          "duration": 0.055556,
          "velocity": 1
        },
        {
          "time": 367.331208,
          "name": "E6",
          "midi": 88,
          "duration": 0.055556,
          "velocity": 1
        },
        {
          "time": 367.386764,
          "name": "E6",
          "midi": 88,
          "duration": 0.055556,
          "velocity": 1
        },
        {
          "time": 367.442319,
          "name": "D6",
          "midi": 86,
          "duration": 0.127778,
          "velocity": 1
        },
        {
          "time": 367.608986,
          "name": "C#6",
          "midi": 85,
          "duration": 0.127778,
          "velocity": 1
        },
        {
          "time": 367.608986,
          "name": "G#4",
          "midi": 68,
          "duration": 0.333334,
          "velocity": 0.88189
        },
        {
          "time": 367.775653,
          "name": "B5",
          "midi": 83,
          "duration": 0.127778,
          "velocity": 1
        },
        {
          "time": 367.94232,
          "name": "A5",
          "midi": 81,
          "duration": 0.140244,
          "velocity": 1
        },
        {
          "time": 367.94232,
          "name": "A4",
          "midi": 69,
          "duration": 0.365854,
          "velocity": 0.88189
        },
        {
          "time": 368.125246,
          "name": "A5",
          "midi": 81,
          "duration": 0.140244,
          "velocity": 1
        },
        {
          "time": 368.308173,
          "name": "C#6",
          "midi": 85,
          "duration": 0.140244,
          "velocity": 1
        },
        {
          "time": 368.4911,
          "name": "E6",
          "midi": 88,
          "duration": 0.140244,
          "velocity": 1
        },
        {
          "time": 368.674027,
          "name": "A6",
          "midi": 93,
          "duration": 0.371901,
          "velocity": 1
        },
        {
          "time": 369.169895,
          "name": "A5",
          "midi": 81,
          "duration": 0.428571,
          "velocity": 0.88189
        },
        {
          "time": 369.177038,
          "name": "A6",
          "midi": 93,
          "duration": 0.429062,
          "velocity": 0.811024
        },
        {
          "time": 369.18418,
          "name": "A6",
          "midi": 93,
          "duration": 0.429553,
          "velocity": 0.834646
        },
        {
          "time": 369.18418,
          "name": "A5",
          "midi": 81,
          "duration": 0.429553,
          "velocity": 0.834646
        },
        {
          "time": 369.598466,
          "name": "G#5",
          "midi": 80,
          "duration": 0.458015,
          "velocity": 0.88189
        },
        {
          "time": 369.6061,
          "name": "G#6",
          "midi": 92,
          "duration": 0.456834,
          "velocity": 0.811024
        },
        {
          "time": 369.613733,
          "name": "G#6",
          "midi": 92,
          "duration": 0.455652,
          "velocity": 0.834646
        },
        {
          "time": 369.613733,
          "name": "G#5",
          "midi": 80,
          "duration": 0.455652,
          "velocity": 0.834646
        },
        {
          "time": 370.056482,
          "name": "F#5",
          "midi": 78,
          "duration": 0.387097,
          "velocity": 0.88189
        },
        {
          "time": 370.062933,
          "name": "F#6",
          "midi": 90,
          "duration": 0.386563,
          "velocity": 0.811024
        },
        {
          "time": 370.069385,
          "name": "F#6",
          "midi": 90,
          "duration": 0.386028,
          "velocity": 0.834646
        },
        {
          "time": 370.069385,
          "name": "F#5",
          "midi": 78,
          "duration": 0.386028,
          "velocity": 0.834646
        },
        {
          "time": 370.075837,
          "name": "D5",
          "midi": 74,
          "duration": 0.385494,
          "velocity": 0.818898
        },
        {
          "time": 370.075837,
          "name": "A4",
          "midi": 69,
          "duration": 0.385494,
          "velocity": 0.818898
        },
        {
          "time": 370.443579,
          "name": "B5",
          "midi": 83,
          "duration": 0.177515,
          "velocity": 0.88189
        },
        {
          "time": 370.449496,
          "name": "B6",
          "midi": 95,
          "duration": 0.177515,
          "velocity": 0.811024
        },
        {
          "time": 370.455413,
          "name": "B6",
          "midi": 95,
          "duration": 0.177515,
          "velocity": 0.834646
        },
        {
          "time": 370.455413,
          "name": "B5",
          "midi": 83,
          "duration": 0.177515,
          "velocity": 0.834646
        },
        {
          "time": 370.621093,
          "name": "A5",
          "midi": 81,
          "duration": 0.177515,
          "velocity": 0.88189
        },
        {
          "time": 370.627011,
          "name": "A6",
          "midi": 93,
          "duration": 0.177515,
          "velocity": 0.811024
        },
        {
          "time": 370.632928,
          "name": "A6",
          "midi": 93,
          "duration": 0.177515,
          "velocity": 0.834646
        },
        {
          "time": 370.632928,
          "name": "A5",
          "midi": 81,
          "duration": 0.177515,
          "velocity": 0.834646
        },
        {
          "time": 370.798608,
          "name": "G#5",
          "midi": 80,
          "duration": 0.136095,
          "velocity": 0.88189
        },
        {
          "time": 370.804525,
          "name": "G#6",
          "midi": 92,
          "duration": 0.136095,
          "velocity": 0.811024
        },
        {
          "time": 370.810443,
          "name": "G#5",
          "midi": 80,
          "duration": 0.136095,
          "velocity": 0.834646
        },
        {
          "time": 370.810443,
          "name": "G#6",
          "midi": 92,
          "duration": 0.136095,
          "velocity": 0.834646
        },
        {
          "time": 370.81636,
          "name": "E4",
          "midi": 64,
          "duration": 0.355571,
          "velocity": 0.818898
        },
        {
          "time": 370.81636,
          "name": "B4",
          "midi": 71,
          "duration": 0.355571,
          "velocity": 0.818898
        },
        {
          "time": 370.976123,
          "name": "F#5",
          "midi": 78,
          "duration": 0.136095,
          "velocity": 0.88189
        },
        {
          "time": 370.98204,
          "name": "F#6",
          "midi": 90,
          "duration": 0.136095,
          "velocity": 0.811024
        },
        {
          "time": 370.987957,
          "name": "F#6",
          "midi": 90,
          "duration": 0.136095,
          "velocity": 0.834646
        },
        {
          "time": 370.987957,
          "name": "F#5",
          "midi": 78,
          "duration": 0.136095,
          "velocity": 0.834646
        },
        {
          "time": 371.153638,
          "name": "E5",
          "midi": 76,
          "duration": 0.27439,
          "velocity": 0.88189
        },
        {
          "time": 371.159735,
          "name": "E6",
          "midi": 88,
          "duration": 0.27439,
          "velocity": 0.811024
        },
        {
          "time": 371.165833,
          "name": "E6",
          "midi": 88,
          "duration": 0.27439,
          "velocity": 0.834646
        },
        {
          "time": 371.165833,
          "name": "E5",
          "midi": 76,
          "duration": 0.27439,
          "velocity": 0.834646
        },
        {
          "time": 371.519491,
          "name": "F#6",
          "midi": 90,
          "duration": 0.121951,
          "velocity": 0.88189
        },
        {
          "time": 371.525589,
          "name": "F#7",
          "midi": 102,
          "duration": 0.121951,
          "velocity": 0.811024
        },
        {
          "time": 371.531686,
          "name": "F#6",
          "midi": 90,
          "duration": 0.121951,
          "velocity": 0.834646
        },
        {
          "time": 371.537784,
          "name": "A4",
          "midi": 69,
          "duration": 0.364227,
          "velocity": 0.818898
        },
        {
          "time": 371.537784,
          "name": "E4",
          "midi": 64,
          "duration": 0.364227,
          "velocity": 0.818898
        },
        {
          "time": 371.641442,
          "name": "G#6",
          "midi": 92,
          "duration": 0.121951,
          "velocity": 0.88189
        },
        {
          "time": 371.64754,
          "name": "G#7",
          "midi": 104,
          "duration": 0.121951,
          "velocity": 0.811024
        },
        {
          "time": 371.653638,
          "name": "G#6",
          "midi": 92,
          "duration": 0.121951,
          "velocity": 0.834646
        },
        {
          "time": 371.763394,
          "name": "F#6",
          "midi": 90,
          "duration": 0.121951,
          "velocity": 0.88189
        },
        {
          "time": 371.769491,
          "name": "F#7",
          "midi": 102,
          "duration": 0.121409,
          "velocity": 0.811024
        },
        {
          "time": 371.775589,
          "name": "F#6",
          "midi": 90,
          "duration": 0.120867,
          "velocity": 0.834646
        },
        {
          "time": 371.885345,
          "name": "E6",
          "midi": 88,
          "duration": 0.333333,
          "velocity": 0.88189
        },
        {
          "time": 371.8909,
          "name": "E7",
          "midi": 100,
          "duration": 0.333333,
          "velocity": 0.811024
        },
        {
          "time": 371.896456,
          "name": "E6",
          "midi": 88,
          "duration": 0.333334,
          "velocity": 0.834646
        },
        {
          "time": 372.235345,
          "name": "E4",
          "midi": 64,
          "duration": 0.33496,
          "velocity": 0.818898
        },
        {
          "time": 372.235345,
          "name": "A4",
          "midi": 69,
          "duration": 0.33496,
          "velocity": 0.818898
        },
        {
          "time": 372.917865,
          "name": "F#6",
          "midi": 90,
          "duration": 0.121951,
          "velocity": 0.88189
        },
        {
          "time": 372.923963,
          "name": "F#7",
          "midi": 102,
          "duration": 0.121951,
          "velocity": 0.811024
        },
        {
          "time": 372.93006,
          "name": "F#6",
          "midi": 90,
          "duration": 0.121951,
          "velocity": 0.834646
        },
        {
          "time": 372.936158,
          "name": "D4",
          "midi": 62,
          "duration": 0.364227,
          "velocity": 0.818898
        },
        {
          "time": 372.936158,
          "name": "B4",
          "midi": 71,
          "duration": 0.364227,
          "velocity": 0.818898
        },
        {
          "time": 373.039816,
          "name": "G#6",
          "midi": 92,
          "duration": 0.121951,
          "velocity": 0.88189
        },
        {
          "time": 373.045914,
          "name": "G#7",
          "midi": 104,
          "duration": 0.121951,
          "velocity": 0.811024
        },
        {
          "time": 373.052012,
          "name": "G#6",
          "midi": 92,
          "duration": 0.121951,
          "velocity": 0.834646
        },
        {
          "time": 373.161768,
          "name": "F#6",
          "midi": 90,
          "duration": 0.121951,
          "velocity": 0.88189
        },
        {
          "time": 373.167865,
          "name": "F#7",
          "midi": 102,
          "duration": 0.121409,
          "velocity": 0.811024
        },
        {
          "time": 373.173963,
          "name": "F#6",
          "midi": 90,
          "duration": 0.120867,
          "velocity": 0.834646
        },
        {
          "time": 373.283719,
          "name": "E6",
          "midi": 88,
          "duration": 0.333333,
          "velocity": 0.88189
        },
        {
          "time": 373.289274,
          "name": "E7",
          "midi": 100,
          "duration": 0.333333,
          "velocity": 0.811024
        },
        {
          "time": 373.29483,
          "name": "E6",
          "midi": 88,
          "duration": 0.333334,
          "velocity": 0.834646
        },
        {
          "time": 373.633719,
          "name": "E4",
          "midi": 64,
          "duration": 0.33496,
          "velocity": 0.818898
        },
        {
          "time": 373.633719,
          "name": "D4",
          "midi": 62,
          "duration": 0.33496,
          "velocity": 0.818898
        },
        {
          "time": 374.316239,
          "name": "F#6",
          "midi": 90,
          "duration": 0.121951,
          "velocity": 0.88189
        },
        {
          "time": 374.322337,
          "name": "F#7",
          "midi": 102,
          "duration": 0.121951,
          "velocity": 0.811024
        },
        {
          "time": 374.328434,
          "name": "F#6",
          "midi": 90,
          "duration": 0.121951,
          "velocity": 0.834646
        },
        {
          "time": 374.334532,
          "name": "E4",
          "midi": 64,
          "duration": 0.364227,
          "velocity": 0.818898
        },
        {
          "time": 374.334532,
          "name": "C#4",
          "midi": 61,
          "duration": 0.364227,
          "velocity": 0.818898
        },
        {
          "time": 374.43819,
          "name": "G#6",
          "midi": 92,
          "duration": 0.121951,
          "velocity": 0.88189
        },
        {
          "time": 374.444288,
          "name": "G#7",
          "midi": 104,
          "duration": 0.121951,
          "velocity": 0.811024
        },
        {
          "time": 374.450386,
          "name": "G#6",
          "midi": 92,
          "duration": 0.121951,
          "velocity": 0.834646
        },
        {
          "time": 374.560142,
          "name": "F#6",
          "midi": 90,
          "duration": 0.121951,
          "velocity": 0.88189
        },
        {
          "time": 374.566239,
          "name": "F#7",
          "midi": 102,
          "duration": 0.121409,
          "velocity": 0.811024
        },
        {
          "time": 374.572337,
          "name": "F#6",
          "midi": 90,
          "duration": 0.120867,
          "velocity": 0.834646
        },
        {
          "time": 374.682093,
          "name": "E6",
          "midi": 88,
          "duration": 0.333333,
          "velocity": 0.88189
        },
        {
          "time": 374.687648,
          "name": "E7",
          "midi": 100,
          "duration": 0.335131,
          "velocity": 0.811024
        },
        {
          "time": 374.693204,
          "name": "E6",
          "midi": 88,
          "duration": 0.336928,
          "velocity": 0.834646
        },
        {
          "time": 375.015426,
          "name": "A5",
          "midi": 81,
          "duration": 0.441176,
          "velocity": 0.88189
        },
        {
          "time": 375.037485,
          "name": "A4",
          "midi": 69,
          "duration": 0.43741,
          "velocity": 0.818898
        },
        {
          "time": 375.037485,
          "name": "E4",
          "midi": 64,
          "duration": 0.43741,
          "velocity": 0.818898
        },
        {
          "time": 375.456603,
          "name": "G#5",
          "midi": 80,
          "duration": 0.365854,
          "velocity": 0.88189
        },
        {
          "time": 375.4627,
          "name": "G#6",
          "midi": 92,
          "duration": 0.365853,
          "velocity": 0.811024
        },
        {
          "time": 375.468798,
          "name": "G#6",
          "midi": 92,
          "duration": 0.365854,
          "velocity": 0.834646
        },
        {
          "time": 375.468798,
          "name": "G#5",
          "midi": 80,
          "duration": 0.365854,
          "velocity": 0.834646
        },
        {
          "time": 375.822456,
          "name": "F#5",
          "midi": 78,
          "duration": 0.365853,
          "velocity": 0.88189
        },
        {
          "time": 375.828554,
          "name": "F#6",
          "midi": 90,
          "duration": 0.365312,
          "velocity": 0.811024
        },
        {
          "time": 375.834651,
          "name": "F#6",
          "midi": 90,
          "duration": 0.364769,
          "velocity": 0.834646
        },
        {
          "time": 375.834651,
          "name": "F#5",
          "midi": 78,
          "duration": 0.364769,
          "velocity": 0.834646
        },
        {
          "time": 375.840749,
          "name": "D5",
          "midi": 74,
          "duration": 0.364227,
          "velocity": 0.818898
        },
        {
          "time": 375.840749,
          "name": "A4",
          "midi": 69,
          "duration": 0.364227,
          "velocity": 0.818898
        },
        {
          "time": 376.18831,
          "name": "B5",
          "midi": 83,
          "duration": 0.166667,
          "velocity": 0.88189
        },
        {
          "time": 376.193865,
          "name": "B6",
          "midi": 95,
          "duration": 0.166667,
          "velocity": 0.811024
        },
        {
          "time": 376.199421,
          "name": "B6",
          "midi": 95,
          "duration": 0.166667,
          "velocity": 0.834646
        },
        {
          "time": 376.199421,
          "name": "B5",
          "midi": 83,
          "duration": 0.166667,
          "velocity": 0.834646
        },
        {
          "time": 376.354976,
          "name": "A5",
          "midi": 81,
          "duration": 0.166667,
          "velocity": 0.88189
        },
        {
          "time": 376.360532,
          "name": "A6",
          "midi": 93,
          "duration": 0.166667,
          "velocity": 0.811024
        },
        {
          "time": 376.366088,
          "name": "A6",
          "midi": 93,
          "duration": 0.166667,
          "velocity": 0.834646
        },
        {
          "time": 376.366088,
          "name": "A5",
          "midi": 81,
          "duration": 0.166667,
          "velocity": 0.834646
        },
        {
          "time": 376.521643,
          "name": "G#5",
          "midi": 80,
          "duration": 0.127778,
          "velocity": 0.88189
        },
        {
          "time": 376.527199,
          "name": "G#6",
          "midi": 92,
          "duration": 0.127778,
          "velocity": 0.811024
        },
        {
          "time": 376.532754,
          "name": "G#5",
          "midi": 80,
          "duration": 0.127778,
          "velocity": 0.834646
        },
        {
          "time": 376.532754,
          "name": "G#6",
          "midi": 92,
          "duration": 0.127778,
          "velocity": 0.834646
        },
        {
          "time": 376.53831,
          "name": "E4",
          "midi": 64,
          "duration": 0.33496,
          "velocity": 0.818898
        },
        {
          "time": 376.53831,
          "name": "B4",
          "midi": 71,
          "duration": 0.33496,
          "velocity": 0.818898
        },
        {
          "time": 376.68831,
          "name": "F#5",
          "midi": 78,
          "duration": 0.127778,
          "velocity": 0.88189
        },
        {
          "time": 376.693866,
          "name": "F#6",
          "midi": 90,
          "duration": 0.127778,
          "velocity": 0.811024
        },
        {
          "time": 376.699421,
          "name": "F#6",
          "midi": 90,
          "duration": 0.127778,
          "velocity": 0.834646
        },
        {
          "time": 376.699421,
          "name": "F#5",
          "midi": 78,
          "duration": 0.127778,
          "velocity": 0.834646
        },
        {
          "time": 376.854977,
          "name": "E5",
          "midi": 76,
          "duration": 0.27439,
          "velocity": 0.88189
        },
        {
          "time": 376.861074,
          "name": "E6",
          "midi": 88,
          "duration": 0.27439,
          "velocity": 0.811024
        },
        {
          "time": 376.867172,
          "name": "E6",
          "midi": 88,
          "duration": 0.27439,
          "velocity": 0.834646
        },
        {
          "time": 376.867172,
          "name": "E5",
          "midi": 76,
          "duration": 0.27439,
          "velocity": 0.834646
        },
        {
          "time": 377.22083,
          "name": "F#6",
          "midi": 90,
          "duration": 0.121951,
          "velocity": 0.88189
        },
        {
          "time": 377.226928,
          "name": "F#7",
          "midi": 102,
          "duration": 0.121951,
          "velocity": 0.811024
        },
        {
          "time": 377.233025,
          "name": "F#6",
          "midi": 90,
          "duration": 0.121951,
          "velocity": 0.834646
        },
        {
          "time": 377.239123,
          "name": "A4",
          "midi": 69,
          "duration": 0.364227,
          "velocity": 0.818898
        },
        {
          "time": 377.239123,
          "name": "E4",
          "midi": 64,
          "duration": 0.364227,
          "velocity": 0.818898
        },
        {
          "time": 377.342781,
          "name": "G#6",
          "midi": 92,
          "duration": 0.121951,
          "velocity": 0.88189
        },
        {
          "time": 377.348879,
          "name": "G#7",
          "midi": 104,
          "duration": 0.121951,
          "velocity": 0.811024
        },
        {
          "time": 377.354977,
          "name": "G#6",
          "midi": 92,
          "duration": 0.121951,
          "velocity": 0.834646
        },
        {
          "time": 377.464733,
          "name": "F#6",
          "midi": 90,
          "duration": 0.121951,
          "velocity": 0.88189
        },
        {
          "time": 377.47083,
          "name": "F#7",
          "midi": 102,
          "duration": 0.121409,
          "velocity": 0.811024
        },
        {
          "time": 377.476928,
          "name": "F#6",
          "midi": 90,
          "duration": 0.120867,
          "velocity": 0.834646
        },
        {
          "time": 377.586684,
          "name": "E6",
          "midi": 88,
          "duration": 0.333333,
          "velocity": 0.88189
        },
        {
          "time": 377.592239,
          "name": "E7",
          "midi": 100,
          "duration": 0.333333,
          "velocity": 0.811024
        },
        {
          "time": 377.597795,
          "name": "E6",
          "midi": 88,
          "duration": 0.333334,
          "velocity": 0.834646
        },
        {
          "time": 377.936684,
          "name": "A4",
          "midi": 69,
          "duration": 0.33496,
          "velocity": 0.818898
        },
        {
          "time": 377.936684,
          "name": "E4",
          "midi": 64,
          "duration": 0.33496,
          "velocity": 0.818898
        },
        {
          "time": 378.619204,
          "name": "F#6",
          "midi": 90,
          "duration": 0.121951,
          "velocity": 0.88189
        },
        {
          "time": 378.625302,
          "name": "F#7",
          "midi": 102,
          "duration": 0.121951,
          "velocity": 0.811024
        },
        {
          "time": 378.631399,
          "name": "F#6",
          "midi": 90,
          "duration": 0.121951,
          "velocity": 0.834646
        },
        {
          "time": 378.637497,
          "name": "D4",
          "midi": 62,
          "duration": 0.364227,
          "velocity": 0.818898
        },
        {
          "time": 378.637497,
          "name": "B4",
          "midi": 71,
          "duration": 0.364227,
          "velocity": 0.818898
        },
        {
          "time": 378.741155,
          "name": "G#6",
          "midi": 92,
          "duration": 0.121951,
          "velocity": 0.88189
        },
        {
          "time": 378.747253,
          "name": "G#7",
          "midi": 104,
          "duration": 0.121951,
          "velocity": 0.811024
        },
        {
          "time": 378.753351,
          "name": "G#6",
          "midi": 92,
          "duration": 0.121951,
          "velocity": 0.834646
        },
        {
          "time": 378.863107,
          "name": "F#6",
          "midi": 90,
          "duration": 0.121951,
          "velocity": 0.88189
        },
        {
          "time": 378.869204,
          "name": "F#7",
          "midi": 102,
          "duration": 0.121409,
          "velocity": 0.811024
        },
        {
          "time": 378.875302,
          "name": "F#6",
          "midi": 90,
          "duration": 0.120867,
          "velocity": 0.834646
        },
        {
          "time": 378.985058,
          "name": "E6",
          "midi": 88,
          "duration": 0.333333,
          "velocity": 0.88189
        },
        {
          "time": 378.990613,
          "name": "E7",
          "midi": 100,
          "duration": 0.333333,
          "velocity": 0.811024
        },
        {
          "time": 378.996169,
          "name": "E6",
          "midi": 88,
          "duration": 0.333334,
          "velocity": 0.834646
        },
        {
          "time": 379.335058,
          "name": "E4",
          "midi": 64,
          "duration": 0.33496,
          "velocity": 0.818898
        },
        {
          "time": 379.335058,
          "name": "D4",
          "midi": 62,
          "duration": 0.33496,
          "velocity": 0.818898
        },
        {
          "time": 379.834651,
          "name": "E6",
          "midi": 88,
          "duration": 0.182927,
          "velocity": 0.88189
        },
        {
          "time": 379.840749,
          "name": "E7",
          "midi": 100,
          "duration": 0.183365,
          "velocity": 0.811024
        },
        {
          "time": 379.846847,
          "name": "E6",
          "midi": 88,
          "duration": 0.183804,
          "velocity": 0.834646
        },
        {
          "time": 380.017578,
          "name": "F#6",
          "midi": 90,
          "duration": 0.196078,
          "velocity": 0.88189
        },
        {
          "time": 380.024114,
          "name": "F#7",
          "midi": 102,
          "duration": 0.196078,
          "velocity": 0.811024
        },
        {
          "time": 380.03065,
          "name": "F#6",
          "midi": 90,
          "duration": 0.196078,
          "velocity": 0.834646
        },
        {
          "time": 380.037186,
          "name": "B5",
          "midi": 83,
          "duration": 0.393826,
          "velocity": 0.818898
        },
        {
          "time": 380.037186,
          "name": "D6",
          "midi": 86,
          "duration": 0.393826,
          "velocity": 0.818898
        },
        {
          "time": 380.213657,
          "name": "G#6",
          "midi": 92,
          "duration": 0.196078,
          "velocity": 0.88189
        },
        {
          "time": 380.220193,
          "name": "G#7",
          "midi": 104,
          "duration": 0.196635,
          "velocity": 0.811024
        },
        {
          "time": 380.226729,
          "name": "G#6",
          "midi": 92,
          "duration": 0.197191,
          "velocity": 0.834646
        },
        {
          "time": 380.409735,
          "name": "A6",
          "midi": 93,
          "duration": 0.425532,
          "velocity": 0.88189
        },
        {
          "time": 380.416827,
          "name": "A7",
          "midi": 105,
          "duration": 0.425532,
          "velocity": 0.811024
        },
        {
          "time": 380.42392,
          "name": "A6",
          "midi": 93,
          "duration": 0.425532,
          "velocity": 0.834646
        },
        {
          "time": 380.431012,
          "name": "A5",
          "midi": 81,
          "duration": 0.425532,
          "velocity": 0.818898
        },
        {
          "time": 380.431012,
          "name": "C#6",
          "midi": 85,
          "duration": 0.425532,
          "velocity": 0.818898
        },
        {
          "time": 381.718815,
          "name": "C#6",
          "midi": 85,
          "duration": 0.392157,
          "velocity": 1
        },
        {
          "time": 381.718815,
          "name": "A5",
          "midi": 81,
          "duration": 0.392157,
          "velocity": 1
        },
        {
          "time": 381.718815,
          "name": "F#4",
          "midi": 66,
          "duration": 0.392157,
          "velocity": 0.88189
        },
        {
          "time": 382.110972,
          "name": "A5",
          "midi": 81,
          "duration": 0.060976,
          "velocity": 1
        },
        {
          "time": 382.110972,
          "name": "F#5",
          "midi": 78,
          "duration": 0.060976,
          "velocity": 1
        },
        {
          "time": 382.110972,
          "name": "A4",
          "midi": 69,
          "duration": 0.365854,
          "velocity": 0.88189
        },
        {
          "time": 382.171947,
          "name": "B5",
          "midi": 83,
          "duration": 0.060976,
          "velocity": 1
        },
        {
          "time": 382.171947,
          "name": "G#5",
          "midi": 80,
          "duration": 0.060976,
          "velocity": 1
        },
        {
          "time": 382.232923,
          "name": "F#5",
          "midi": 78,
          "duration": 0.060976,
          "velocity": 1
        },
        {
          "time": 382.232923,
          "name": "A5",
          "midi": 81,
          "duration": 0.060976,
          "velocity": 1
        },
        {
          "time": 382.293898,
          "name": "F5",
          "midi": 77,
          "duration": 0.182927,
          "velocity": 1
        },
        {
          "time": 382.293898,
          "name": "G#5",
          "midi": 80,
          "duration": 0.182927,
          "velocity": 1
        },
        {
          "time": 382.476825,
          "name": "A5",
          "midi": 81,
          "duration": 0.365853,
          "velocity": 1
        },
        {
          "time": 382.476825,
          "name": "F#5",
          "midi": 78,
          "duration": 0.365853,
          "velocity": 1
        },
        {
          "time": 382.476825,
          "name": "C#5",
          "midi": 73,
          "duration": 0.365853,
          "velocity": 0.88189
        },
        {
          "time": 383.232289,
          "name": "B5",
          "midi": 83,
          "duration": 0.389611,
          "velocity": 1
        },
        {
          "time": 383.232289,
          "name": "G#5",
          "midi": 80,
          "duration": 0.389611,
          "velocity": 1
        },
        {
          "time": 383.232289,
          "name": "F4",
          "midi": 65,
          "duration": 0.389611,
          "velocity": 0.88189
        },
        {
          "time": 383.6219,
          "name": "F5",
          "midi": 77,
          "duration": 0.060976,
          "velocity": 1
        },
        {
          "time": 383.6219,
          "name": "G#5",
          "midi": 80,
          "duration": 0.060976,
          "velocity": 1
        },
        {
          "time": 383.6219,
          "name": "G#4",
          "midi": 68,
          "duration": 0.365854,
          "velocity": 0.88189
        },
        {
          "time": 383.682875,
          "name": "A5",
          "midi": 81,
          "duration": 0.060976,
          "velocity": 1
        },
        {
          "time": 383.682875,
          "name": "F#5",
          "midi": 78,
          "duration": 0.060976,
          "velocity": 1
        },
        {
          "time": 383.743851,
          "name": "F5",
          "midi": 77,
          "duration": 0.060976,
          "velocity": 1
        },
        {
          "time": 383.743851,
          "name": "G#5",
          "midi": 80,
          "duration": 0.060976,
          "velocity": 1
        },
        {
          "time": 383.804826,
          "name": "D#5",
          "midi": 75,
          "duration": 0.182927,
          "velocity": 1
        },
        {
          "time": 383.804826,
          "name": "F#5",
          "midi": 78,
          "duration": 0.182927,
          "velocity": 1
        },
        {
          "time": 383.987753,
          "name": "G#5",
          "midi": 80,
          "duration": 0.365853,
          "velocity": 1
        },
        {
          "time": 383.987753,
          "name": "F5",
          "midi": 77,
          "duration": 0.365853,
          "velocity": 1
        },
        {
          "time": 383.987753,
          "name": "C#5",
          "midi": 73,
          "duration": 0.365853,
          "velocity": 0.88189
        },
        {
          "time": 384.353607,
          "name": "A4",
          "midi": 69,
          "duration": 0.389611,
          "velocity": 0.88189
        },
        {
          "time": 384.743217,
          "name": "A5",
          "midi": 81,
          "duration": 0.389611,
          "velocity": 1
        },
        {
          "time": 384.743217,
          "name": "F#5",
          "midi": 78,
          "duration": 0.389611,
          "velocity": 1
        },
        {
          "time": 385.132828,
          "name": "B5",
          "midi": 83,
          "duration": 0.182927,
          "velocity": 1
        },
        {
          "time": 385.132828,
          "name": "G#5",
          "midi": 80,
          "duration": 0.182927,
          "velocity": 1
        },
        {
          "time": 385.315754,
          "name": "F#5",
          "midi": 78,
          "duration": 0.182927,
          "velocity": 1
        },
        {
          "time": 385.315754,
          "name": "A5",
          "midi": 81,
          "duration": 0.182927,
          "velocity": 1
        },
        {
          "time": 385.498681,
          "name": "F5",
          "midi": 77,
          "duration": 0.140244,
          "velocity": 1
        },
        {
          "time": 385.498681,
          "name": "G#5",
          "midi": 80,
          "duration": 0.140244,
          "velocity": 1
        },
        {
          "time": 385.681608,
          "name": "D#5",
          "midi": 75,
          "duration": 0.140244,
          "velocity": 1
        },
        {
          "time": 385.681608,
          "name": "F#5",
          "midi": 78,
          "duration": 0.140244,
          "velocity": 1
        },
        {
          "time": 385.864535,
          "name": "C#5",
          "midi": 73,
          "duration": 0.389611,
          "velocity": 1
        },
        {
          "time": 385.864535,
          "name": "F5",
          "midi": 77,
          "duration": 0.389611,
          "velocity": 1
        },
        {
          "time": 386.254145,
          "name": "G#4",
          "midi": 68,
          "duration": 0.389611,
          "velocity": 0.88189
        },
        {
          "time": 386.267132,
          "name": "F5",
          "midi": 77,
          "duration": 0.388819,
          "velocity": 0.88189
        },
        {
          "time": 386.273626,
          "name": "C#6",
          "midi": 85,
          "duration": 0.388423,
          "velocity": 0.88189
        },
        {
          "time": 387.009609,
          "name": "G#4",
          "midi": 68,
          "duration": 0.365853,
          "velocity": 0.88189
        },
        {
          "time": 387.021804,
          "name": "F5",
          "midi": 77,
          "duration": 0.366645,
          "velocity": 0.88189
        },
        {
          "time": 387.027902,
          "name": "C#6",
          "midi": 85,
          "duration": 0.367041,
          "velocity": 0.88189
        },
        {
          "time": 387.765073,
          "name": "C#6",
          "midi": 85,
          "duration": 0.389611,
          "velocity": 1
        },
        {
          "time": 387.765073,
          "name": "A5",
          "midi": 81,
          "duration": 0.389611,
          "velocity": 1
        },
        {
          "time": 387.765073,
          "name": "F#4",
          "midi": 66,
          "duration": 0.389611,
          "velocity": 0.88189
        },
        {
          "time": 388.154684,
          "name": "A5",
          "midi": 81,
          "duration": 0.060976,
          "velocity": 1
        },
        {
          "time": 388.154684,
          "name": "F#5",
          "midi": 78,
          "duration": 0.060976,
          "velocity": 1
        },
        {
          "time": 388.154684,
          "name": "A4",
          "midi": 69,
          "duration": 0.365854,
          "velocity": 0.88189
        },
        {
          "time": 388.215659,
          "name": "B5",
          "midi": 83,
          "duration": 0.060976,
          "velocity": 1
        },
        {
          "time": 388.215659,
          "name": "G#5",
          "midi": 80,
          "duration": 0.060976,
          "velocity": 1
        },
        {
          "time": 388.276635,
          "name": "F#5",
          "midi": 78,
          "duration": 0.060976,
          "velocity": 1
        },
        {
          "time": 388.276635,
          "name": "A5",
          "midi": 81,
          "duration": 0.060976,
          "velocity": 1
        },
        {
          "time": 388.33761,
          "name": "F5",
          "midi": 77,
          "duration": 0.182927,
          "velocity": 1
        },
        {
          "time": 388.33761,
          "name": "G#5",
          "midi": 80,
          "duration": 0.182927,
          "velocity": 1
        },
        {
          "time": 388.520537,
          "name": "A5",
          "midi": 81,
          "duration": 0.365853,
          "velocity": 1
        },
        {
          "time": 388.520537,
          "name": "F#5",
          "midi": 78,
          "duration": 0.365853,
          "velocity": 1
        },
        {
          "time": 388.520537,
          "name": "C#5",
          "midi": 73,
          "duration": 0.365853,
          "velocity": 0.88189
        },
        {
          "time": 389.276001,
          "name": "B5",
          "midi": 83,
          "duration": 0.389611,
          "velocity": 1
        },
        {
          "time": 389.276001,
          "name": "G#5",
          "midi": 80,
          "duration": 0.389611,
          "velocity": 1
        },
        {
          "time": 389.276001,
          "name": "F4",
          "midi": 65,
          "duration": 0.389611,
          "velocity": 0.88189
        },
        {
          "time": 389.665612,
          "name": "F5",
          "midi": 77,
          "duration": 0.060976,
          "velocity": 1
        },
        {
          "time": 389.665612,
          "name": "G#5",
          "midi": 80,
          "duration": 0.060976,
          "velocity": 1
        },
        {
          "time": 389.665612,
          "name": "G#4",
          "midi": 68,
          "duration": 0.365854,
          "velocity": 0.88189
        },
        {
          "time": 389.726587,
          "name": "A5",
          "midi": 81,
          "duration": 0.060976,
          "velocity": 1
        },
        {
          "time": 389.726587,
          "name": "F#5",
          "midi": 78,
          "duration": 0.060976,
          "velocity": 1
        },
        {
          "time": 389.787563,
          "name": "F5",
          "midi": 77,
          "duration": 0.060976,
          "velocity": 1
        },
        {
          "time": 389.787563,
          "name": "G#5",
          "midi": 80,
          "duration": 0.060976,
          "velocity": 1
        },
        {
          "time": 389.848538,
          "name": "D#5",
          "midi": 75,
          "duration": 0.182927,
          "velocity": 1
        },
        {
          "time": 389.848538,
          "name": "F#5",
          "midi": 78,
          "duration": 0.182927,
          "velocity": 1
        },
        {
          "time": 390.031465,
          "name": "G#5",
          "midi": 80,
          "duration": 0.365853,
          "velocity": 1
        },
        {
          "time": 390.031465,
          "name": "F5",
          "midi": 77,
          "duration": 0.365853,
          "velocity": 1
        },
        {
          "time": 390.031465,
          "name": "C#5",
          "midi": 73,
          "duration": 0.365853,
          "velocity": 0.88189
        },
        {
          "time": 390.397319,
          "name": "A4",
          "midi": 69,
          "duration": 0.389611,
          "velocity": 0.88189
        },
        {
          "time": 390.786929,
          "name": "A5",
          "midi": 81,
          "duration": 0.389611,
          "velocity": 1
        },
        {
          "time": 390.786929,
          "name": "F#5",
          "midi": 78,
          "duration": 0.389611,
          "velocity": 1
        },
        {
          "time": 391.17654,
          "name": "B5",
          "midi": 83,
          "duration": 0.182927,
          "velocity": 1
        },
        {
          "time": 391.17654,
          "name": "G#5",
          "midi": 80,
          "duration": 0.182927,
          "velocity": 1
        },
        {
          "time": 391.359466,
          "name": "F#5",
          "midi": 78,
          "duration": 0.182927,
          "velocity": 1
        },
        {
          "time": 391.359466,
          "name": "A5",
          "midi": 81,
          "duration": 0.182927,
          "velocity": 1
        },
        {
          "time": 391.542393,
          "name": "F5",
          "midi": 77,
          "duration": 0.140244,
          "velocity": 1
        },
        {
          "time": 391.542393,
          "name": "G#5",
          "midi": 80,
          "duration": 0.140244,
          "velocity": 1
        },
        {
          "time": 391.72532,
          "name": "D#5",
          "midi": 75,
          "duration": 0.140244,
          "velocity": 1
        },
        {
          "time": 391.72532,
          "name": "F#5",
          "midi": 78,
          "duration": 0.140244,
          "velocity": 1
        },
        {
          "time": 391.908247,
          "name": "C#5",
          "midi": 73,
          "duration": 0.149351,
          "velocity": 1
        },
        {
          "time": 391.908247,
          "name": "F5",
          "midi": 77,
          "duration": 0.149351,
          "velocity": 1
        },
        {
          "time": 392.103052,
          "name": "C#6",
          "midi": 85,
          "duration": 0.194805,
          "velocity": 1
        },
        {
          "time": 392.109545,
          "name": "C#7",
          "midi": 97,
          "duration": 0.195455,
          "velocity": 0.811024
        },
        {
          "time": 392.116039,
          "name": "C#6",
          "midi": 85,
          "duration": 0.196104,
          "velocity": 0.834646
        },
        {
          "time": 392.297857,
          "name": "D#6",
          "midi": 87,
          "duration": 0.214286,
          "velocity": 1
        },
        {
          "time": 392.297857,
          "name": "C#6",
          "midi": 85,
          "duration": 0.428571,
          "velocity": 0.88189
        },
        {
          "time": 392.297857,
          "name": "G#4",
          "midi": 68,
          "duration": 0.428571,
          "velocity": 0.88189
        },
        {
          "time": 392.297857,
          "name": "F5",
          "midi": 77,
          "duration": 0.428571,
          "velocity": 0.88189
        },
        {
          "time": 392.305,
          "name": "D#7",
          "midi": 99,
          "duration": 0.214286,
          "velocity": 0.811024
        },
        {
          "time": 392.312143,
          "name": "D#6",
          "midi": 87,
          "duration": 0.214286,
          "velocity": 0.834646
        },
        {
          "time": 392.512143,
          "name": "F6",
          "midi": 89,
          "duration": 0.214286,
          "velocity": 1
        },
        {
          "time": 392.519286,
          "name": "F7",
          "midi": 101,
          "duration": 0.21324,
          "velocity": 0.811024
        },
        {
          "time": 392.526429,
          "name": "F6",
          "midi": 89,
          "duration": 0.212195,
          "velocity": 0.834646
        },
        {
          "time": 392.726429,
          "name": "F#6",
          "midi": 90,
          "duration": 0.365854,
          "velocity": 1
        },
        {
          "time": 392.726429,
          "name": "F#5",
          "midi": 78,
          "duration": 0.365854,
          "velocity": 0.88189
        },
        {
          "time": 392.726429,
          "name": "A4",
          "midi": 69,
          "duration": 0.365854,
          "velocity": 0.88189
        },
        {
          "time": 392.732526,
          "name": "F#7",
          "midi": 102,
          "duration": 0.365853,
          "velocity": 0.811024
        },
        {
          "time": 392.738624,
          "name": "F#6",
          "midi": 90,
          "duration": 0.365854,
          "velocity": 0.834646
        },
        {
          "time": 393.886707,
          "name": "C#6",
          "midi": 85,
          "duration": 0.384615,
          "velocity": 1
        },
        {
          "time": 393.886707,
          "name": "A5",
          "midi": 81,
          "duration": 0.384615,
          "velocity": 1
        },
        {
          "time": 393.886707,
          "name": "F#4",
          "midi": 66,
          "duration": 0.384615,
          "velocity": 0.88189
        },
        {
          "time": 394.271323,
          "name": "A5",
          "midi": 81,
          "duration": 0.060976,
          "velocity": 1
        },
        {
          "time": 394.271323,
          "name": "F#5",
          "midi": 78,
          "duration": 0.060976,
          "velocity": 1
        },
        {
          "time": 394.271323,
          "name": "A4",
          "midi": 69,
          "duration": 0.365854,
          "velocity": 0.88189
        },
        {
          "time": 394.332298,
          "name": "B5",
          "midi": 83,
          "duration": 0.060976,
          "velocity": 1
        },
        {
          "time": 394.332298,
          "name": "G#5",
          "midi": 80,
          "duration": 0.060976,
          "velocity": 1
        },
        {
          "time": 394.393274,
          "name": "F#5",
          "midi": 78,
          "duration": 0.060976,
          "velocity": 1
        },
        {
          "time": 394.393274,
          "name": "A5",
          "midi": 81,
          "duration": 0.060976,
          "velocity": 1
        },
        {
          "time": 394.454249,
          "name": "F5",
          "midi": 77,
          "duration": 0.182927,
          "velocity": 1
        },
        {
          "time": 394.454249,
          "name": "G#5",
          "midi": 80,
          "duration": 0.182927,
          "velocity": 1
        },
        {
          "time": 394.637176,
          "name": "A5",
          "midi": 81,
          "duration": 0.365853,
          "velocity": 1
        },
        {
          "time": 394.637176,
          "name": "F#5",
          "midi": 78,
          "duration": 0.365853,
          "velocity": 1
        },
        {
          "time": 394.637176,
          "name": "C#5",
          "midi": 73,
          "duration": 0.365853,
          "velocity": 0.88189
        },
        {
          "time": 395.39264,
          "name": "B5",
          "midi": 83,
          "duration": 0.389611,
          "velocity": 1
        },
        {
          "time": 395.39264,
          "name": "G#5",
          "midi": 80,
          "duration": 0.389611,
          "velocity": 1
        },
        {
          "time": 395.39264,
          "name": "F4",
          "midi": 65,
          "duration": 0.389611,
          "velocity": 0.88189
        },
        {
          "time": 395.782251,
          "name": "F5",
          "midi": 77,
          "duration": 0.060976,
          "velocity": 1
        },
        {
          "time": 395.782251,
          "name": "G#5",
          "midi": 80,
          "duration": 0.060976,
          "velocity": 1
        },
        {
          "time": 395.782251,
          "name": "G#4",
          "midi": 68,
          "duration": 0.365854,
          "velocity": 0.88189
        },
        {
          "time": 395.843226,
          "name": "A5",
          "midi": 81,
          "duration": 0.060976,
          "velocity": 1
        },
        {
          "time": 395.843226,
          "name": "F#5",
          "midi": 78,
          "duration": 0.060976,
          "velocity": 1
        },
        {
          "time": 395.904202,
          "name": "F5",
          "midi": 77,
          "duration": 0.060976,
          "velocity": 1
        },
        {
          "time": 395.904202,
          "name": "G#5",
          "midi": 80,
          "duration": 0.060976,
          "velocity": 1
        },
        {
          "time": 395.965177,
          "name": "D#5",
          "midi": 75,
          "duration": 0.182927,
          "velocity": 1
        },
        {
          "time": 395.965177,
          "name": "F#5",
          "midi": 78,
          "duration": 0.182927,
          "velocity": 1
        },
        {
          "time": 396.148104,
          "name": "G#5",
          "midi": 80,
          "duration": 0.365853,
          "velocity": 1
        },
        {
          "time": 396.148104,
          "name": "F5",
          "midi": 77,
          "duration": 0.365853,
          "velocity": 1
        },
        {
          "time": 396.148104,
          "name": "C#5",
          "midi": 73,
          "duration": 0.365853,
          "velocity": 0.88189
        },
        {
          "time": 396.513958,
          "name": "A4",
          "midi": 69,
          "duration": 0.389611,
          "velocity": 0.88189
        },
        {
          "time": 396.903568,
          "name": "A5",
          "midi": 81,
          "duration": 0.389611,
          "velocity": 1
        },
        {
          "time": 396.903568,
          "name": "F#5",
          "midi": 78,
          "duration": 0.389611,
          "velocity": 1
        },
        {
          "time": 397.293179,
          "name": "B5",
          "midi": 83,
          "duration": 0.182927,
          "velocity": 1
        },
        {
          "time": 397.293179,
          "name": "G#5",
          "midi": 80,
          "duration": 0.182927,
          "velocity": 1
        },
        {
          "time": 397.476105,
          "name": "F#5",
          "midi": 78,
          "duration": 0.182927,
          "velocity": 1
        },
        {
          "time": 397.476105,
          "name": "A5",
          "midi": 81,
          "duration": 0.182927,
          "velocity": 1
        },
        {
          "time": 397.659032,
          "name": "F5",
          "midi": 77,
          "duration": 0.140244,
          "velocity": 1
        },
        {
          "time": 397.659032,
          "name": "G#5",
          "midi": 80,
          "duration": 0.140244,
          "velocity": 1
        },
        {
          "time": 397.841959,
          "name": "D#5",
          "midi": 75,
          "duration": 0.140244,
          "velocity": 1
        },
        {
          "time": 397.841959,
          "name": "F#5",
          "midi": 78,
          "duration": 0.140244,
          "velocity": 1
        },
        {
          "time": 398.024886,
          "name": "C#5",
          "midi": 73,
          "duration": 0.389611,
          "velocity": 1
        },
        {
          "time": 398.024886,
          "name": "F5",
          "midi": 77,
          "duration": 0.389611,
          "velocity": 1
        },
        {
          "time": 398.414496,
          "name": "G#4",
          "midi": 68,
          "duration": 0.389611,
          "velocity": 0.88189
        },
        {
          "time": 398.427483,
          "name": "F5",
          "midi": 77,
          "duration": 0.388819,
          "velocity": 0.88189
        },
        {
          "time": 398.433977,
          "name": "C#6",
          "midi": 85,
          "duration": 0.388423,
          "velocity": 0.88189
        },
        {
          "time": 399.16996,
          "name": "G#4",
          "midi": 68,
          "duration": 0.365853,
          "velocity": 0.88189
        },
        {
          "time": 399.182155,
          "name": "F5",
          "midi": 77,
          "duration": 0.366645,
          "velocity": 0.88189
        },
        {
          "time": 399.188253,
          "name": "C#6",
          "midi": 85,
          "duration": 0.367041,
          "velocity": 0.88189
        },
        {
          "time": 399.925424,
          "name": "C#6",
          "midi": 85,
          "duration": 0.389611,
          "velocity": 1
        },
        {
          "time": 399.925424,
          "name": "A5",
          "midi": 81,
          "duration": 0.389611,
          "velocity": 1
        },
        {
          "time": 399.925424,
          "name": "F#4",
          "midi": 66,
          "duration": 0.389611,
          "velocity": 0.88189
        },
        {
          "time": 400.315035,
          "name": "A5",
          "midi": 81,
          "duration": 0.060976,
          "velocity": 1
        },
        {
          "time": 400.315035,
          "name": "F#5",
          "midi": 78,
          "duration": 0.060976,
          "velocity": 1
        },
        {
          "time": 400.315035,
          "name": "A4",
          "midi": 69,
          "duration": 0.365854,
          "velocity": 0.88189
        },
        {
          "time": 400.37601,
          "name": "B5",
          "midi": 83,
          "duration": 0.060976,
          "velocity": 1
        },
        {
          "time": 400.37601,
          "name": "G#5",
          "midi": 80,
          "duration": 0.060976,
          "velocity": 1
        },
        {
          "time": 400.436986,
          "name": "F#5",
          "midi": 78,
          "duration": 0.060976,
          "velocity": 1
        },
        {
          "time": 400.436986,
          "name": "A5",
          "midi": 81,
          "duration": 0.060976,
          "velocity": 1
        },
        {
          "time": 400.497961,
          "name": "F5",
          "midi": 77,
          "duration": 0.182927,
          "velocity": 1
        },
        {
          "time": 400.497961,
          "name": "G#5",
          "midi": 80,
          "duration": 0.182927,
          "velocity": 1
        },
        {
          "time": 400.680888,
          "name": "A5",
          "midi": 81,
          "duration": 0.365853,
          "velocity": 1
        },
        {
          "time": 400.680888,
          "name": "F#5",
          "midi": 78,
          "duration": 0.365853,
          "velocity": 1
        },
        {
          "time": 400.680888,
          "name": "C#5",
          "midi": 73,
          "duration": 0.365853,
          "velocity": 0.88189
        },
        {
          "time": 401.436352,
          "name": "B5",
          "midi": 83,
          "duration": 0.389611,
          "velocity": 1
        },
        {
          "time": 401.436352,
          "name": "G#5",
          "midi": 80,
          "duration": 0.389611,
          "velocity": 1
        },
        {
          "time": 401.436352,
          "name": "F4",
          "midi": 65,
          "duration": 0.389611,
          "velocity": 0.88189
        },
        {
          "time": 401.825963,
          "name": "F5",
          "midi": 77,
          "duration": 0.060976,
          "velocity": 1
        },
        {
          "time": 401.825963,
          "name": "G#5",
          "midi": 80,
          "duration": 0.060976,
          "velocity": 1
        },
        {
          "time": 401.825963,
          "name": "G#4",
          "midi": 68,
          "duration": 0.365854,
          "velocity": 0.88189
        },
        {
          "time": 401.886938,
          "name": "A5",
          "midi": 81,
          "duration": 0.060976,
          "velocity": 1
        },
        {
          "time": 401.886938,
          "name": "F#5",
          "midi": 78,
          "duration": 0.060976,
          "velocity": 1
        },
        {
          "time": 401.947914,
          "name": "F5",
          "midi": 77,
          "duration": 0.060976,
          "velocity": 1
        },
        {
          "time": 401.947914,
          "name": "G#5",
          "midi": 80,
          "duration": 0.060976,
          "velocity": 1
        },
        {
          "time": 402.008889,
          "name": "D#5",
          "midi": 75,
          "duration": 0.182927,
          "velocity": 1
        },
        {
          "time": 402.008889,
          "name": "F#5",
          "midi": 78,
          "duration": 0.182927,
          "velocity": 1
        },
        {
          "time": 402.191816,
          "name": "G#5",
          "midi": 80,
          "duration": 0.365853,
          "velocity": 1
        },
        {
          "time": 402.191816,
          "name": "F5",
          "midi": 77,
          "duration": 0.365853,
          "velocity": 1
        },
        {
          "time": 402.191816,
          "name": "C#5",
          "midi": 73,
          "duration": 0.365853,
          "velocity": 0.88189
        },
        {
          "time": 402.55767,
          "name": "A4",
          "midi": 69,
          "duration": 0.389611,
          "velocity": 0.88189
        },
        {
          "time": 402.94728,
          "name": "A5",
          "midi": 81,
          "duration": 0.389611,
          "velocity": 1
        },
        {
          "time": 402.94728,
          "name": "F#5",
          "midi": 78,
          "duration": 0.389611,
          "velocity": 1
        },
        {
          "time": 403.336891,
          "name": "B5",
          "midi": 83,
          "duration": 0.182927,
          "velocity": 1
        },
        {
          "time": 403.336891,
          "name": "G#5",
          "midi": 80,
          "duration": 0.182927,
          "velocity": 1
        },
        {
          "time": 403.519817,
          "name": "F#5",
          "midi": 78,
          "duration": 0.182927,
          "velocity": 1
        },
        {
          "time": 403.519817,
          "name": "A5",
          "midi": 81,
          "duration": 0.182927,
          "velocity": 1
        },
        {
          "time": 403.702744,
          "name": "F5",
          "midi": 77,
          "duration": 0.140244,
          "velocity": 1
        },
        {
          "time": 403.702744,
          "name": "G#5",
          "midi": 80,
          "duration": 0.140244,
          "velocity": 1
        },
        {
          "time": 403.885671,
          "name": "D#5",
          "midi": 75,
          "duration": 0.140244,
          "velocity": 1
        },
        {
          "time": 403.885671,
          "name": "F#5",
          "midi": 78,
          "duration": 0.140244,
          "velocity": 1
        },
        {
          "time": 404.068598,
          "name": "C#5",
          "midi": 73,
          "duration": 0.149351,
          "velocity": 1
        },
        {
          "time": 404.068598,
          "name": "F5",
          "midi": 77,
          "duration": 0.149351,
          "velocity": 1
        },
        {
          "time": 404.263403,
          "name": "C#6",
          "midi": 85,
          "duration": 0.194805,
          "velocity": 1
        },
        {
          "time": 404.269896,
          "name": "C#7",
          "midi": 97,
          "duration": 0.195455,
          "velocity": 0.811024
        },
        {
          "time": 404.27639,
          "name": "C#6",
          "midi": 85,
          "duration": 0.196104,
          "velocity": 0.834646
        },
        {
          "time": 404.458208,
          "name": "D#6",
          "midi": 87,
          "duration": 0.214286,
          "velocity": 1
        },
        {
          "time": 404.458208,
          "name": "G#4",
          "midi": 68,
          "duration": 0.428571,
          "velocity": 0.88189
        },
        {
          "time": 404.458208,
          "name": "C#6",
          "midi": 85,
          "duration": 0.428571,
          "velocity": 0.88189
        },
        {
          "time": 404.458208,
          "name": "F5",
          "midi": 77,
          "duration": 0.428571,
          "velocity": 0.88189
        },
        {
          "time": 404.465351,
          "name": "D#7",
          "midi": 99,
          "duration": 0.214286,
          "velocity": 0.811024
        },
        {
          "time": 404.472494,
          "name": "D#6",
          "midi": 87,
          "duration": 0.214286,
          "velocity": 0.834646
        },
        {
          "time": 404.672494,
          "name": "F6",
          "midi": 89,
          "duration": 0.214286,
          "velocity": 1
        },
        {
          "time": 404.679637,
          "name": "F7",
          "midi": 101,
          "duration": 0.217143,
          "velocity": 0.811024
        },
        {
          "time": 404.68678,
          "name": "F6",
          "midi": 89,
          "duration": 0.22,
          "velocity": 0.834646
        },
        {
          "time": 404.88678,
          "name": "F#6",
          "midi": 90,
          "duration": 0.6,
          "velocity": 1
        },
        {
          "time": 404.88678,
          "name": "A4",
          "midi": 69,
          "duration": 0.6,
          "velocity": 0.88189
        },
        {
          "time": 404.88678,
          "name": "F#5",
          "midi": 78,
          "duration": 0.6,
          "velocity": 0.88189
        },
        {
          "time": 404.89678,
          "name": "F#7",
          "midi": 102,
          "duration": 0.598772,
          "velocity": 0.811024
        },
        {
          "time": 404.90678,
          "name": "F#6",
          "midi": 90,
          "duration": 0.597544,
          "velocity": 0.834646
        },
        {
          "time": 405.48678,
          "name": "A4",
          "midi": 69,
          "duration": 0.526316,
          "velocity": 1
        },
        {
          "time": 406.013096,
          "name": "G#4",
          "midi": 68,
          "duration": 0.428571,
          "velocity": 1
        },
        {
          "time": 406.441667,
          "name": "F#4",
          "midi": 66,
          "duration": 0.321429,
          "velocity": 1
        },
        {
          "time": 406.441667,
          "name": "E4",
          "midi": 64,
          "duration": 0.428572,
          "velocity": 0.88189
        },
        {
          "time": 406.870239,
          "name": "B4",
          "midi": 71,
          "duration": 0.136095,
          "velocity": 1
        },
        {
          "time": 407.047753,
          "name": "A4",
          "midi": 69,
          "duration": 0.136095,
          "velocity": 1
        },
        {
          "time": 407.225268,
          "name": "G#4",
          "midi": 68,
          "duration": 0.136095,
          "velocity": 1
        },
        {
          "time": 407.225268,
          "name": "E4",
          "midi": 64,
          "duration": 0.35503,
          "velocity": 0.88189
        },
        {
          "time": 407.402783,
          "name": "F#4",
          "midi": 66,
          "duration": 0.136095,
          "velocity": 1
        },
        {
          "time": 407.580298,
          "name": "E4",
          "midi": 64,
          "duration": 0.365854,
          "velocity": 1
        },
        {
          "time": 407.946151,
          "name": "G#5",
          "midi": 80,
          "duration": 0.060976,
          "velocity": 1
        },
        {
          "time": 407.946151,
          "name": "C#5",
          "midi": 73,
          "duration": 0.365853,
          "velocity": 1
        },
        {
          "time": 407.946151,
          "name": "E4",
          "midi": 64,
          "duration": 0.365853,
          "velocity": 0.88189
        },
        {
          "time": 408.007127,
          "name": "F#5",
          "midi": 78,
          "duration": 0.060976,
          "velocity": 1
        },
        {
          "time": 408.068102,
          "name": "G#5",
          "midi": 80,
          "duration": 0.060976,
          "velocity": 1
        },
        {
          "time": 408.129078,
          "name": "F#5",
          "midi": 78,
          "duration": 0.060976,
          "velocity": 1
        },
        {
          "time": 408.190054,
          "name": "F#5",
          "midi": 78,
          "duration": 0.060976,
          "velocity": 1
        },
        {
          "time": 408.251029,
          "name": "G#5",
          "midi": 80,
          "duration": 0.060976,
          "velocity": 1
        },
        {
          "time": 408.312005,
          "name": "E5",
          "midi": 76,
          "duration": 0.166667,
          "velocity": 1
        },
        {
          "time": 408.312005,
          "name": "C#5",
          "midi": 73,
          "duration": 0.166667,
          "velocity": 1
        },
        {
          "time": 408.478671,
          "name": "A3",
          "midi": 57,
          "duration": 0.166667,
          "velocity": 1
        },
        {
          "time": 408.645338,
          "name": "B3",
          "midi": 59,
          "duration": 0.166667,
          "velocity": 1
        },
        {
          "time": 408.645338,
          "name": "E4",
          "midi": 64,
          "duration": 0.333334,
          "velocity": 0.88189
        },
        {
          "time": 408.812005,
          "name": "C#4",
          "midi": 61,
          "duration": 0.166667,
          "velocity": 1
        },
        {
          "time": 408.978672,
          "name": "D4",
          "midi": 62,
          "duration": 0.365854,
          "velocity": 1
        },
        {
          "time": 409.344525,
          "name": "D5",
          "midi": 74,
          "duration": 0.365853,
          "velocity": 1
        },
        {
          "time": 409.344525,
          "name": "G#5",
          "midi": 80,
          "duration": 0.060976,
          "velocity": 1
        },
        {
          "time": 409.344525,
          "name": "E4",
          "midi": 64,
          "duration": 0.365853,
          "velocity": 0.88189
        },
        {
          "time": 409.405501,
          "name": "F#5",
          "midi": 78,
          "duration": 0.060976,
          "velocity": 1
        },
        {
          "time": 409.466476,
          "name": "G#5",
          "midi": 80,
          "duration": 0.060976,
          "velocity": 1
        },
        {
          "time": 409.527452,
          "name": "F#5",
          "midi": 78,
          "duration": 0.060976,
          "velocity": 1
        },
        {
          "time": 409.588428,
          "name": "F#5",
          "midi": 78,
          "duration": 0.060976,
          "velocity": 1
        },
        {
          "time": 409.649403,
          "name": "G#5",
          "midi": 80,
          "duration": 0.060976,
          "velocity": 1
        },
        {
          "time": 409.710379,
          "name": "E5",
          "midi": 76,
          "duration": 0.166667,
          "velocity": 1
        },
        {
          "time": 409.710379,
          "name": "D5",
          "midi": 74,
          "duration": 0.166667,
          "velocity": 1
        },
        {
          "time": 409.877045,
          "name": "G#3",
          "midi": 56,
          "duration": 0.166667,
          "velocity": 1
        },
        {
          "time": 410.043712,
          "name": "A3",
          "midi": 57,
          "duration": 0.166667,
          "velocity": 1
        },
        {
          "time": 410.043712,
          "name": "E4",
          "midi": 64,
          "duration": 0.333334,
          "velocity": 0.88189
        },
        {
          "time": 410.210379,
          "name": "B3",
          "midi": 59,
          "duration": 0.166667,
          "velocity": 1
        },
        {
          "time": 410.377046,
          "name": "C#4",
          "midi": 61,
          "duration": 0.365854,
          "velocity": 1
        },
        {
          "time": 410.742899,
          "name": "C#5",
          "midi": 73,
          "duration": 0.365853,
          "velocity": 1
        },
        {
          "time": 410.742899,
          "name": "G#5",
          "midi": 80,
          "duration": 0.060976,
          "velocity": 1
        },
        {
          "time": 410.742899,
          "name": "E4",
          "midi": 64,
          "duration": 0.365853,
          "velocity": 0.88189
        },
        {
          "time": 410.803875,
          "name": "F#5",
          "midi": 78,
          "duration": 0.060976,
          "velocity": 1
        },
        {
          "time": 410.86485,
          "name": "G#5",
          "midi": 80,
          "duration": 0.060976,
          "velocity": 1
        },
        {
          "time": 410.925826,
          "name": "F#5",
          "midi": 78,
          "duration": 0.060976,
          "velocity": 1
        },
        {
          "time": 410.986802,
          "name": "F#5",
          "midi": 78,
          "duration": 0.060976,
          "velocity": 1
        },
        {
          "time": 411.047777,
          "name": "G#5",
          "midi": 80,
          "duration": 0.060976,
          "velocity": 1
        },
        {
          "time": 411.108753,
          "name": "E5",
          "midi": 76,
          "duration": 0.447761,
          "velocity": 1
        },
        {
          "time": 411.108753,
          "name": "C#5",
          "midi": 73,
          "duration": 0.447761,
          "velocity": 1
        },
        {
          "time": 411.556514,
          "name": "A4",
          "midi": 69,
          "duration": 0.35503,
          "velocity": 1
        },
        {
          "time": 411.556514,
          "name": "A4",
          "midi": 69,
          "duration": 0.35503,
          "velocity": 0.88189
        },
        {
          "time": 411.911543,
          "name": "G#4",
          "midi": 68,
          "duration": 0.365854,
          "velocity": 1
        },
        {
          "time": 412.277397,
          "name": "F#4",
          "midi": 66,
          "duration": 0.27439,
          "velocity": 1
        },
        {
          "time": 412.277397,
          "name": "F#4",
          "midi": 66,
          "duration": 0.365853,
          "velocity": 0.88189
        },
        {
          "time": 412.64325,
          "name": "B4",
          "midi": 71,
          "duration": 0.127778,
          "velocity": 1
        },
        {
          "time": 412.809917,
          "name": "A4",
          "midi": 69,
          "duration": 0.127778,
          "velocity": 1
        },
        {
          "time": 412.976584,
          "name": "G#4",
          "midi": 68,
          "duration": 0.127778,
          "velocity": 1
        },
        {
          "time": 412.976584,
          "name": "G#4",
          "midi": 68,
          "duration": 0.333334,
          "velocity": 0.88189
        },
        {
          "time": 413.14325,
          "name": "F#4",
          "midi": 66,
          "duration": 0.127778,
          "velocity": 1
        },
        {
          "time": 413.309917,
          "name": "E4",
          "midi": 64,
          "duration": 0.365854,
          "velocity": 1
        },
        {
          "time": 413.675771,
          "name": "G#5",
          "midi": 80,
          "duration": 0.060976,
          "velocity": 1
        },
        {
          "time": 413.675771,
          "name": "C#5",
          "midi": 73,
          "duration": 0.365853,
          "velocity": 1
        },
        {
          "time": 413.675771,
          "name": "A4",
          "midi": 69,
          "duration": 0.365853,
          "velocity": 0.88189
        },
        {
          "time": 413.736746,
          "name": "F#5",
          "midi": 78,
          "duration": 0.060976,
          "velocity": 1
        },
        {
          "time": 413.797722,
          "name": "G#5",
          "midi": 80,
          "duration": 0.060976,
          "velocity": 1
        },
        {
          "time": 413.858697,
          "name": "F#5",
          "midi": 78,
          "duration": 0.060976,
          "velocity": 1
        },
        {
          "time": 413.919673,
          "name": "F#5",
          "midi": 78,
          "duration": 0.060976,
          "velocity": 1
        },
        {
          "time": 413.980649,
          "name": "G#5",
          "midi": 80,
          "duration": 0.060976,
          "velocity": 1
        },
        {
          "time": 414.041624,
          "name": "E5",
          "midi": 76,
          "duration": 0.166667,
          "velocity": 1
        },
        {
          "time": 414.041624,
          "name": "C#5",
          "midi": 73,
          "duration": 0.166667,
          "velocity": 1
        },
        {
          "time": 414.208291,
          "name": "A3",
          "midi": 57,
          "duration": 0.166667,
          "velocity": 1
        },
        {
          "time": 414.374958,
          "name": "B3",
          "midi": 59,
          "duration": 0.166667,
          "velocity": 1
        },
        {
          "time": 414.374958,
          "name": "A4",
          "midi": 69,
          "duration": 0.333334,
          "velocity": 0.88189
        },
        {
          "time": 414.541624,
          "name": "C#4",
          "midi": 61,
          "duration": 0.166667,
          "velocity": 1
        },
        {
          "time": 414.708291,
          "name": "D4",
          "midi": 62,
          "duration": 0.365854,
          "velocity": 1
        },
        {
          "time": 415.074145,
          "name": "D5",
          "midi": 74,
          "duration": 0.365853,
          "velocity": 1
        },
        {
          "time": 415.074145,
          "name": "G#5",
          "midi": 80,
          "duration": 0.060976,
          "velocity": 1
        },
        {
          "time": 415.074145,
          "name": "B4",
          "midi": 71,
          "duration": 0.365853,
          "velocity": 0.88189
        },
        {
          "time": 415.13512,
          "name": "F#5",
          "midi": 78,
          "duration": 0.060976,
          "velocity": 1
        },
        {
          "time": 415.196096,
          "name": "G#5",
          "midi": 80,
          "duration": 0.060976,
          "velocity": 1
        },
        {
          "time": 415.257071,
          "name": "F#5",
          "midi": 78,
          "duration": 0.060976,
          "velocity": 1
        },
        {
          "time": 415.318047,
          "name": "F#5",
          "midi": 78,
          "duration": 0.060976,
          "velocity": 1
        },
        {
          "time": 415.379023,
          "name": "G#5",
          "midi": 80,
          "duration": 0.060976,
          "velocity": 1
        },
        {
          "time": 415.439998,
          "name": "E5",
          "midi": 76,
          "duration": 0.166667,
          "velocity": 1
        },
        {
          "time": 415.439998,
          "name": "D5",
          "midi": 74,
          "duration": 0.166667,
          "velocity": 1
        },
        {
          "time": 415.606665,
          "name": "D5",
          "midi": 74,
          "duration": 0.166667,
          "velocity": 1
        },
        {
          "time": 415.606665,
          "name": "E5",
          "midi": 76,
          "duration": 0.166667,
          "velocity": 1
        },
        {
          "time": 415.773332,
          "name": "C#5",
          "midi": 73,
          "duration": 0.166667,
          "velocity": 1
        },
        {
          "time": 415.773332,
          "name": "E5",
          "midi": 76,
          "duration": 0.166667,
          "velocity": 1
        },
        {
          "time": 415.773332,
          "name": "G#4",
          "midi": 68,
          "duration": 0.333334,
          "velocity": 0.88189
        },
        {
          "time": 415.939998,
          "name": "B4",
          "midi": 71,
          "duration": 0.166667,
          "velocity": 1
        },
        {
          "time": 415.939998,
          "name": "E5",
          "midi": 76,
          "duration": 0.166667,
          "velocity": 1
        },
        {
          "time": 416.106665,
          "name": "A4",
          "midi": 69,
          "duration": 0.202703,
          "velocity": 1
        },
        {
          "time": 416.106665,
          "name": "E5",
          "midi": 76,
          "duration": 0.202703,
          "velocity": 1
        },
        {
          "time": 416.106665,
          "name": "A4",
          "midi": 69,
          "duration": 0.405405,
          "velocity": 0.88189
        },
        {
          "time": 416.309368,
          "name": "A4",
          "midi": 69,
          "duration": 0.155405,
          "velocity": 1
        },
        {
          "time": 416.512071,
          "name": "B4",
          "midi": 71,
          "duration": 0.146497,
          "velocity": 1
        },
        {
          "time": 416.703153,
          "name": "C#5",
          "midi": 73,
          "duration": 0.146497,
          "velocity": 1
        },
        {
          "time": 416.894236,
          "name": "D5",
          "midi": 74,
          "duration": 0.140244,
          "velocity": 1
        },
        {
          "time": 417.077163,
          "name": "C#5",
          "midi": 73,
          "duration": 0.140244,
          "velocity": 1
        },
        {
          "time": 417.26009,
          "name": "D5",
          "midi": 74,
          "duration": 0.132184,
          "velocity": 1
        },
        {
          "time": 417.432503,
          "name": "E5",
          "midi": 76,
          "duration": 0.132184,
          "velocity": 1
        },
        {
          "time": 417.604917,
          "name": "G#5",
          "midi": 80,
          "duration": 0.335366,
          "velocity": 1
        },
        {
          "time": 417.970771,
          "name": "F#5",
          "midi": 78,
          "duration": 0.335366,
          "velocity": 1
        },
        {
          "time": 417.970771,
          "name": "D5",
          "midi": 74,
          "duration": 0.365853,
          "velocity": 0.88189
        },
        {
          "time": 418.336624,
          "name": "B5",
          "midi": 83,
          "duration": 0.127778,
          "velocity": 1
        },
        {
          "time": 418.336624,
          "name": "G#5",
          "midi": 80,
          "duration": 0.127778,
          "velocity": 1
        },
        {
          "time": 418.503291,
          "name": "A5",
          "midi": 81,
          "duration": 0.127778,
          "velocity": 1
        },
        {
          "time": 418.503291,
          "name": "F#5",
          "midi": 78,
          "duration": 0.127778,
          "velocity": 1
        },
        {
          "time": 418.669958,
          "name": "G#5",
          "midi": 80,
          "duration": 0.127778,
          "velocity": 1
        },
        {
          "time": 418.669958,
          "name": "E5",
          "midi": 76,
          "duration": 0.127778,
          "velocity": 1
        },
        {
          "time": 418.669958,
          "name": "E5",
          "midi": 76,
          "duration": 0.333334,
          "velocity": 0.88189
        },
        {
          "time": 418.836624,
          "name": "F#5",
          "midi": 78,
          "duration": 0.127778,
          "velocity": 1
        },
        {
          "time": 418.836624,
          "name": "D5",
          "midi": 74,
          "duration": 0.127778,
          "velocity": 1
        },
        {
          "time": 419.003291,
          "name": "E5",
          "midi": 76,
          "duration": 0.335366,
          "velocity": 1
        },
        {
          "time": 419.369145,
          "name": "G#6",
          "midi": 92,
          "duration": 0.060976,
          "velocity": 1
        },
        {
          "time": 419.369145,
          "name": "E5",
          "midi": 76,
          "duration": 0.365853,
          "velocity": 0.88189
        },
        {
          "time": 419.43012,
          "name": "F#6",
          "midi": 90,
          "duration": 0.060976,
          "velocity": 1
        },
        {
          "time": 419.491096,
          "name": "G#6",
          "midi": 92,
          "duration": 0.060976,
          "velocity": 1
        },
        {
          "time": 419.552071,
          "name": "F#6",
          "midi": 90,
          "duration": 0.060976,
          "velocity": 1
        },
        {
          "time": 419.613047,
          "name": "F#6",
          "midi": 90,
          "duration": 0.060976,
          "velocity": 1
        },
        {
          "time": 419.674023,
          "name": "G#6",
          "midi": 92,
          "duration": 0.060976,
          "velocity": 1
        },
        {
          "time": 419.734998,
          "name": "E6",
          "midi": 88,
          "duration": 0.127778,
          "velocity": 1
        },
        {
          "time": 419.901665,
          "name": "A3",
          "midi": 57,
          "duration": 0.127778,
          "velocity": 1
        },
        {
          "time": 420.068332,
          "name": "B3",
          "midi": 59,
          "duration": 0.127778,
          "velocity": 1
        },
        {
          "time": 420.068332,
          "name": "E5",
          "midi": 76,
          "duration": 0.333334,
          "velocity": 0.88189
        },
        {
          "time": 420.234998,
          "name": "C#4",
          "midi": 61,
          "duration": 0.127778,
          "velocity": 1
        },
        {
          "time": 420.401665,
          "name": "D4",
          "midi": 62,
          "duration": 0.335366,
          "velocity": 1
        },
        {
          "time": 420.767519,
          "name": "G#6",
          "midi": 92,
          "duration": 0.060976,
          "velocity": 1
        },
        {
          "time": 420.767519,
          "name": "D5",
          "midi": 74,
          "duration": 0.365853,
          "velocity": 0.88189
        },
        {
          "time": 420.828494,
          "name": "F#6",
          "midi": 90,
          "duration": 0.060976,
          "velocity": 1
        },
        {
          "time": 420.88947,
          "name": "G#6",
          "midi": 92,
          "duration": 0.060976,
          "velocity": 1
        },
        {
          "time": 420.950445,
          "name": "F#6",
          "midi": 90,
          "duration": 0.060976,
          "velocity": 1
        },
        {
          "time": 421.011421,
          "name": "F#6",
          "midi": 90,
          "duration": 0.060976,
          "velocity": 1
        },
        {
          "time": 421.072397,
          "name": "G#6",
          "midi": 92,
          "duration": 0.060976,
          "velocity": 1
        },
        {
          "time": 421.133372,
          "name": "E6",
          "midi": 88,
          "duration": 0.127778,
          "velocity": 1
        },
        {
          "time": 421.300039,
          "name": "G#3",
          "midi": 56,
          "duration": 0.127778,
          "velocity": 1
        },
        {
          "time": 421.466706,
          "name": "A3",
          "midi": 57,
          "duration": 0.127778,
          "velocity": 1
        },
        {
          "time": 421.466706,
          "name": "G#4",
          "midi": 68,
          "duration": 0.333334,
          "velocity": 0.88189
        },
        {
          "time": 421.633372,
          "name": "B3",
          "midi": 59,
          "duration": 0.127778,
          "velocity": 1
        },
        {
          "time": 421.800039,
          "name": "C#4",
          "midi": 61,
          "duration": 0.335366,
          "velocity": 1
        },
        {
          "time": 422.165893,
          "name": "G#6",
          "midi": 92,
          "duration": 0.060976,
          "velocity": 1
        },
        {
          "time": 422.165893,
          "name": "A4",
          "midi": 69,
          "duration": 0.365853,
          "velocity": 0.88189
        },
        {
          "time": 422.226868,
          "name": "F#6",
          "midi": 90,
          "duration": 0.060976,
          "velocity": 1
        },
        {
          "time": 422.287844,
          "name": "G#6",
          "midi": 92,
          "duration": 0.060976,
          "velocity": 1
        },
        {
          "time": 422.348819,
          "name": "F#6",
          "midi": 90,
          "duration": 0.060976,
          "velocity": 1
        },
        {
          "time": 422.409795,
          "name": "F#6",
          "midi": 90,
          "duration": 0.060976,
          "velocity": 1
        },
        {
          "time": 422.470771,
          "name": "G#6",
          "midi": 92,
          "duration": 0.060976,
          "velocity": 1
        },
        {
          "time": 422.531746,
          "name": "E6",
          "midi": 88,
          "duration": 0.410448,
          "velocity": 1
        },
        {
          "time": 422.979507,
          "name": "A6",
          "midi": 93,
          "duration": 0.357143,
          "velocity": 1
        },
        {
          "time": 422.979507,
          "name": "C#5",
          "midi": 73,
          "duration": 0.357143,
          "velocity": 0.88189
        },
        {
          "time": 423.33665,
          "name": "G#6",
          "midi": 92,
          "duration": 0.365854,
          "velocity": 1
        },
        {
          "time": 423.702504,
          "name": "F#6",
          "midi": 90,
          "duration": 0.365853,
          "velocity": 1
        },
        {
          "time": 423.702504,
          "name": "D5",
          "midi": 74,
          "duration": 0.365853,
          "velocity": 0.88189
        },
        {
          "time": 424.068357,
          "name": "B6",
          "midi": 95,
          "duration": 0.127778,
          "velocity": 1
        },
        {
          "time": 424.235024,
          "name": "A6",
          "midi": 93,
          "duration": 0.127778,
          "velocity": 1
        },
        {
          "time": 424.401691,
          "name": "G#6",
          "midi": 92,
          "duration": 0.127778,
          "velocity": 1
        },
        {
          "time": 424.401691,
          "name": "E5",
          "midi": 76,
          "duration": 0.333334,
          "velocity": 0.88189
        },
        {
          "time": 424.568357,
          "name": "F#6",
          "midi": 90,
          "duration": 0.127778,
          "velocity": 1
        },
        {
          "time": 424.735024,
          "name": "E6",
          "midi": 88,
          "duration": 0.140244,
          "velocity": 1
        },
        {
          "time": 424.917951,
          "name": "E6",
          "midi": 88,
          "duration": 0.140244,
          "velocity": 1
        },
        {
          "time": 425.100878,
          "name": "A6",
          "midi": 93,
          "duration": 0.140244,
          "velocity": 1
        },
        {
          "time": 425.100878,
          "name": "E5",
          "midi": 76,
          "duration": 0.365853,
          "velocity": 0.88189
        },
        {
          "time": 425.283804,
          "name": "G#6",
          "midi": 92,
          "duration": 0.140244,
          "velocity": 1
        },
        {
          "time": 425.466731,
          "name": "G#6",
          "midi": 92,
          "duration": 0.053192,
          "velocity": 1
        },
        {
          "time": 425.519923,
          "name": "F#6",
          "midi": 90,
          "duration": 0.053191,
          "velocity": 1
        },
        {
          "time": 425.573114,
          "name": "F#6",
          "midi": 90,
          "duration": 0.053192,
          "velocity": 1
        },
        {
          "time": 425.626306,
          "name": "E6",
          "midi": 88,
          "duration": 0.12234,
          "velocity": 1
        },
        {
          "time": 425.78588,
          "name": "D6",
          "midi": 86,
          "duration": 0.12234,
          "velocity": 1
        },
        {
          "time": 425.78588,
          "name": "E5",
          "midi": 76,
          "duration": 0.319149,
          "velocity": 0.88189
        },
        {
          "time": 425.945455,
          "name": "C#6",
          "midi": 85,
          "duration": 0.12234,
          "velocity": 1
        },
        {
          "time": 426.105029,
          "name": "B5",
          "midi": 83,
          "duration": 0.132948,
          "velocity": 1
        },
        {
          "time": 426.27844,
          "name": "A6",
          "midi": 93,
          "duration": 0.132948,
          "velocity": 1
        },
        {
          "time": 426.45185,
          "name": "G#6",
          "midi": 92,
          "duration": 0.132948,
          "velocity": 1
        },
        {
          "time": 426.45185,
          "name": "D5",
          "midi": 74,
          "duration": 0.346821,
          "velocity": 0.88189
        },
        {
          "time": 426.625261,
          "name": "F#6",
          "midi": 90,
          "duration": 0.132948,
          "velocity": 1
        },
        {
          "time": 426.798671,
          "name": "F#6",
          "midi": 90,
          "duration": 0.05,
          "velocity": 1
        },
        {
          "time": 426.848671,
          "name": "E6",
          "midi": 88,
          "duration": 0.05,
          "velocity": 1
        },
        {
          "time": 426.898671,
          "name": "E6",
          "midi": 88,
          "duration": 0.05,
          "velocity": 1
        },
        {
          "time": 426.948671,
          "name": "D6",
          "midi": 86,
          "duration": 0.115,
          "velocity": 1
        },
        {
          "time": 427.098671,
          "name": "C#6",
          "midi": 85,
          "duration": 0.115,
          "velocity": 1
        },
        {
          "time": 427.098671,
          "name": "G#4",
          "midi": 68,
          "duration": 0.3,
          "velocity": 0.88189
        },
        {
          "time": 427.248671,
          "name": "B5",
          "midi": 83,
          "duration": 0.115,
          "velocity": 1
        },
        {
          "time": 427.398671,
          "name": "A5",
          "midi": 81,
          "duration": 0.226415,
          "velocity": 1
        },
        {
          "time": 427.398671,
          "name": "A4",
          "midi": 69,
          "duration": 0.226415,
          "velocity": 0.88189
        },
        {
          "time": 427.625086,
          "name": "C#5",
          "midi": 73,
          "duration": 0.09434,
          "velocity": 1
        },
        {
          "time": 427.625086,
          "name": "E5",
          "midi": 76,
          "duration": 0.09434,
          "velocity": 1
        },
        {
          "time": 427.738294,
          "name": "C#5",
          "midi": 73,
          "duration": 0.09434,
          "velocity": 1
        },
        {
          "time": 427.738294,
          "name": "E5",
          "midi": 76,
          "duration": 0.09434,
          "velocity": 1
        },
        {
          "time": 427.851501,
          "name": "F#5",
          "midi": 78,
          "duration": 0.075301,
          "velocity": 1
        },
        {
          "time": 427.851501,
          "name": "C#5",
          "midi": 73,
          "duration": 0.075301,
          "velocity": 1
        },
        {
          "time": 427.851501,
          "name": "A4",
          "midi": 69,
          "duration": 0.361446,
          "velocity": 0.88189
        },
        {
          "time": 427.941863,
          "name": "E5",
          "midi": 76,
          "duration": 0.075301,
          "velocity": 1
        },
        {
          "time": 427.941863,
          "name": "C#5",
          "midi": 73,
          "duration": 0.075301,
          "velocity": 1
        },
        {
          "time": 428.032224,
          "name": "E5",
          "midi": 76,
          "duration": 0.075301,
          "velocity": 1
        },
        {
          "time": 428.032224,
          "name": "C#5",
          "midi": 73,
          "duration": 0.075301,
          "velocity": 1
        },
        {
          "time": 428.122586,
          "name": "E5",
          "midi": 76,
          "duration": 0.075301,
          "velocity": 1
        },
        {
          "time": 428.122586,
          "name": "C#5",
          "midi": 73,
          "duration": 0.075301,
          "velocity": 1
        },
        {
          "time": 428.212947,
          "name": "F#5",
          "midi": 78,
          "duration": 0.081169,
          "velocity": 1
        },
        {
          "time": 428.212947,
          "name": "D5",
          "midi": 74,
          "duration": 0.081169,
          "velocity": 1
        },
        {
          "time": 428.212947,
          "name": "G#4",
          "midi": 68,
          "duration": 0.38961,
          "velocity": 0.88189
        },
        {
          "time": 428.31035,
          "name": "E5",
          "midi": 76,
          "duration": 0.081169,
          "velocity": 1
        },
        {
          "time": 428.31035,
          "name": "D5",
          "midi": 74,
          "duration": 0.081169,
          "velocity": 1
        },
        {
          "time": 428.407752,
          "name": "E5",
          "midi": 76,
          "duration": 0.081169,
          "velocity": 1
        },
        {
          "time": 428.407752,
          "name": "D5",
          "midi": 74,
          "duration": 0.081169,
          "velocity": 1
        },
        {
          "time": 428.505155,
          "name": "E5",
          "midi": 76,
          "duration": 0.081169,
          "velocity": 1
        },
        {
          "time": 428.505155,
          "name": "D5",
          "midi": 74,
          "duration": 0.081169,
          "velocity": 1
        },
        {
          "time": 428.602557,
          "name": "F#5",
          "midi": 78,
          "duration": 0.075301,
          "velocity": 1
        },
        {
          "time": 428.602557,
          "name": "D5",
          "midi": 74,
          "duration": 0.075301,
          "velocity": 1
        },
        {
          "time": 428.602557,
          "name": "A4",
          "midi": 69,
          "duration": 0.180723,
          "velocity": 0.88189
        },
        {
          "time": 428.692919,
          "name": "E5",
          "midi": 76,
          "duration": 0.075301,
          "velocity": 1
        },
        {
          "time": 428.692919,
          "name": "D5",
          "midi": 74,
          "duration": 0.075301,
          "velocity": 1
        },
        {
          "time": 428.78328,
          "name": "E5",
          "midi": 76,
          "duration": 0.075301,
          "velocity": 1
        },
        {
          "time": 428.78328,
          "name": "D5",
          "midi": 74,
          "duration": 0.075301,
          "velocity": 1
        },
        {
          "time": 428.78328,
          "name": "B4",
          "midi": 71,
          "duration": 0.180723,
          "velocity": 0.88189
        },
        {
          "time": 428.873642,
          "name": "E5",
          "midi": 76,
          "duration": 0.075301,
          "velocity": 1
        },
        {
          "time": 428.873642,
          "name": "D5",
          "midi": 74,
          "duration": 0.075301,
          "velocity": 1
        },
        {
          "time": 428.964003,
          "name": "F#5",
          "midi": 78,
          "duration": 0.081169,
          "velocity": 1
        },
        {
          "time": 428.964003,
          "name": "C#5",
          "midi": 73,
          "duration": 0.081169,
          "velocity": 1
        },
        {
          "time": 428.964003,
          "name": "E4",
          "midi": 64,
          "duration": 0.38961,
          "velocity": 0.88189
        },
        {
          "time": 429.061406,
          "name": "E5",
          "midi": 76,
          "duration": 0.081169,
          "velocity": 1
        },
        {
          "time": 429.061406,
          "name": "C#5",
          "midi": 73,
          "duration": 0.081169,
          "velocity": 1
        },
        {
          "time": 429.158808,
          "name": "E5",
          "midi": 76,
          "duration": 0.081169,
          "velocity": 1
        },
        {
          "time": 429.158808,
          "name": "C#5",
          "midi": 73,
          "duration": 0.081169,
          "velocity": 1
        },
        {
          "time": 429.256211,
          "name": "E5",
          "midi": 76,
          "duration": 0.081169,
          "velocity": 1
        },
        {
          "time": 429.256211,
          "name": "C#5",
          "midi": 73,
          "duration": 0.081169,
          "velocity": 1
        },
        {
          "time": 429.353613,
          "name": "B5",
          "midi": 83,
          "duration": 0.075301,
          "velocity": 1
        },
        {
          "time": 429.353613,
          "name": "A4",
          "midi": 69,
          "duration": 0.075301,
          "velocity": 1
        },
        {
          "time": 429.353613,
          "name": "C#5",
          "midi": 73,
          "duration": 0.361446,
          "velocity": 0.88189
        },
        {
          "time": 429.443975,
          "name": "A5",
          "midi": 81,
          "duration": 0.075301,
          "velocity": 1
        },
        {
          "time": 429.443975,
          "name": "A4",
          "midi": 69,
          "duration": 0.075301,
          "velocity": 1
        },
        {
          "time": 429.534336,
          "name": "A5",
          "midi": 81,
          "duration": 0.075301,
          "velocity": 1
        },
        {
          "time": 429.534336,
          "name": "A4",
          "midi": 69,
          "duration": 0.075301,
          "velocity": 1
        },
        {
          "time": 429.624698,
          "name": "A5",
          "midi": 81,
          "duration": 0.075301,
          "velocity": 1
        },
        {
          "time": 429.624698,
          "name": "A4",
          "midi": 69,
          "duration": 0.075301,
          "velocity": 1
        },
        {
          "time": 429.715059,
          "name": "B5",
          "midi": 83,
          "duration": 0.081169,
          "velocity": 1
        },
        {
          "time": 429.715059,
          "name": "B4",
          "midi": 71,
          "duration": 0.081169,
          "velocity": 1
        },
        {
          "time": 429.715059,
          "name": "D5",
          "midi": 74,
          "duration": 0.38961,
          "velocity": 0.88189
        },
        {
          "time": 429.812462,
          "name": "A5",
          "midi": 81,
          "duration": 0.081169,
          "velocity": 1
        },
        {
          "time": 429.812462,
          "name": "A4",
          "midi": 69,
          "duration": 0.081169,
          "velocity": 1
        },
        {
          "time": 429.909864,
          "name": "A5",
          "midi": 81,
          "duration": 0.081169,
          "velocity": 1
        },
        {
          "time": 429.909864,
          "name": "A4",
          "midi": 69,
          "duration": 0.081169,
          "velocity": 1
        },
        {
          "time": 430.007267,
          "name": "A5",
          "midi": 81,
          "duration": 0.081169,
          "velocity": 1
        },
        {
          "time": 430.007267,
          "name": "A4",
          "midi": 69,
          "duration": 0.081169,
          "velocity": 1
        },
        {
          "time": 430.104669,
          "name": "C#6",
          "midi": 85,
          "duration": 0.075301,
          "velocity": 1
        },
        {
          "time": 430.104669,
          "name": "E5",
          "midi": 76,
          "duration": 0.075301,
          "velocity": 1
        },
        {
          "time": 430.104669,
          "name": "G4",
          "midi": 67,
          "duration": 0.180723,
          "velocity": 0.88189
        },
        {
          "time": 430.195031,
          "name": "B5",
          "midi": 83,
          "duration": 0.075301,
          "velocity": 1
        },
        {
          "time": 430.195031,
          "name": "E5",
          "midi": 76,
          "duration": 0.075301,
          "velocity": 1
        },
        {
          "time": 430.285392,
          "name": "B5",
          "midi": 83,
          "duration": 0.075301,
          "velocity": 1
        },
        {
          "time": 430.285392,
          "name": "E5",
          "midi": 76,
          "duration": 0.075301,
          "velocity": 1
        },
        {
          "time": 430.285392,
          "name": "G#4",
          "midi": 68,
          "duration": 0.180723,
          "velocity": 0.88189
        },
        {
          "time": 430.375754,
          "name": "B5",
          "midi": 83,
          "duration": 0.075301,
          "velocity": 1
        },
        {
          "time": 430.375754,
          "name": "E5",
          "midi": 76,
          "duration": 0.075301,
          "velocity": 1
        },
        {
          "time": 430.466115,
          "name": "F#6",
          "midi": 90,
          "duration": 0.081169,
          "velocity": 1
        },
        {
          "time": 430.466115,
          "name": "F#5",
          "midi": 78,
          "duration": 0.081169,
          "velocity": 1
        },
        {
          "time": 430.466115,
          "name": "A4",
          "midi": 69,
          "duration": 0.38961,
          "velocity": 0.88189
        },
        {
          "time": 430.563518,
          "name": "E6",
          "midi": 88,
          "duration": 0.081169,
          "velocity": 1
        },
        {
          "time": 430.563518,
          "name": "E5",
          "midi": 76,
          "duration": 0.081169,
          "velocity": 1
        },
        {
          "time": 430.66092,
          "name": "E6",
          "midi": 88,
          "duration": 0.081169,
          "velocity": 1
        },
        {
          "time": 430.66092,
          "name": "E5",
          "midi": 76,
          "duration": 0.081169,
          "velocity": 1
        },
        {
          "time": 430.758323,
          "name": "E6",
          "midi": 88,
          "duration": 0.081169,
          "velocity": 1
        },
        {
          "time": 430.758323,
          "name": "E5",
          "midi": 76,
          "duration": 0.081169,
          "velocity": 1
        },
        {
          "time": 430.855725,
          "name": "F#6",
          "midi": 90,
          "duration": 0.075301,
          "velocity": 1
        },
        {
          "time": 430.855725,
          "name": "F#5",
          "midi": 78,
          "duration": 0.075301,
          "velocity": 1
        },
        {
          "time": 430.855725,
          "name": "A5",
          "midi": 81,
          "duration": 0.361446,
          "velocity": 0.88189
        },
        {
          "time": 430.946087,
          "name": "E6",
          "midi": 88,
          "duration": 0.075301,
          "velocity": 1
        },
        {
          "time": 430.946087,
          "name": "E5",
          "midi": 76,
          "duration": 0.075301,
          "velocity": 1
        },
        {
          "time": 431.036448,
          "name": "E6",
          "midi": 88,
          "duration": 0.075301,
          "velocity": 1
        },
        {
          "time": 431.036448,
          "name": "E5",
          "midi": 76,
          "duration": 0.075301,
          "velocity": 1
        },
        {
          "time": 431.12681,
          "name": "E6",
          "midi": 88,
          "duration": 0.075301,
          "velocity": 1
        },
        {
          "time": 431.12681,
          "name": "E5",
          "midi": 76,
          "duration": 0.075301,
          "velocity": 1
        },
        {
          "time": 431.217171,
          "name": "B4",
          "midi": 71,
          "duration": 0.081169,
          "velocity": 1
        },
        {
          "time": 431.217171,
          "name": "D4",
          "midi": 62,
          "duration": 0.081169,
          "velocity": 1
        },
        {
          "time": 431.217171,
          "name": "F#5",
          "midi": 78,
          "duration": 0.38961,
          "velocity": 0.88189
        },
        {
          "time": 431.314574,
          "name": "B4",
          "midi": 71,
          "duration": 0.081169,
          "velocity": 1
        },
        {
          "time": 431.314574,
          "name": "D4",
          "midi": 62,
          "duration": 0.081169,
          "velocity": 1
        },
        {
          "time": 431.411976,
          "name": "D6",
          "midi": 86,
          "duration": 0.081169,
          "velocity": 1
        },
        {
          "time": 431.411976,
          "name": "F#5",
          "midi": 78,
          "duration": 0.081169,
          "velocity": 1
        },
        {
          "time": 431.509379,
          "name": "D6",
          "midi": 86,
          "duration": 0.081169,
          "velocity": 1
        },
        {
          "time": 431.509379,
          "name": "F#5",
          "midi": 78,
          "duration": 0.081169,
          "velocity": 1
        },
        {
          "time": 431.606781,
          "name": "B4",
          "midi": 71,
          "duration": 0.075301,
          "velocity": 1
        },
        {
          "time": 431.606781,
          "name": "D4",
          "midi": 62,
          "duration": 0.075301,
          "velocity": 1
        },
        {
          "time": 431.606781,
          "name": "E5",
          "midi": 76,
          "duration": 0.180723,
          "velocity": 0.88189
        },
        {
          "time": 431.697143,
          "name": "B4",
          "midi": 71,
          "duration": 0.075301,
          "velocity": 1
        },
        {
          "time": 431.697143,
          "name": "D4",
          "midi": 62,
          "duration": 0.075301,
          "velocity": 1
        },
        {
          "time": 431.787504,
          "name": "D6",
          "midi": 86,
          "duration": 0.075301,
          "velocity": 1
        },
        {
          "time": 431.787504,
          "name": "F#5",
          "midi": 78,
          "duration": 0.075301,
          "velocity": 1
        },
        {
          "time": 431.787504,
          "name": "D5",
          "midi": 74,
          "duration": 0.180723,
          "velocity": 0.88189
        },
        {
          "time": 431.877866,
          "name": "D6",
          "midi": 86,
          "duration": 0.075301,
          "velocity": 1
        },
        {
          "time": 431.877866,
          "name": "F#5",
          "midi": 78,
          "duration": 0.075301,
          "velocity": 1
        },
        {
          "time": 431.968227,
          "name": "A3",
          "midi": 57,
          "duration": 0.081169,
          "velocity": 1
        },
        {
          "time": 431.968227,
          "name": "E4",
          "midi": 64,
          "duration": 0.081169,
          "velocity": 1
        },
        {
          "time": 431.968227,
          "name": "C#5",
          "midi": 73,
          "duration": 0.38961,
          "velocity": 0.88189
        },
        {
          "time": 432.06563,
          "name": "A3",
          "midi": 57,
          "duration": 0.081169,
          "velocity": 1
        },
        {
          "time": 432.06563,
          "name": "E4",
          "midi": 64,
          "duration": 0.081169,
          "velocity": 1
        },
        {
          "time": 432.163032,
          "name": "E5",
          "midi": 76,
          "duration": 0.081169,
          "velocity": 1
        },
        {
          "time": 432.163032,
          "name": "C#5",
          "midi": 73,
          "duration": 0.081169,
          "velocity": 1
        },
        {
          "time": 432.260435,
          "name": "E5",
          "midi": 76,
          "duration": 0.081169,
          "velocity": 1
        },
        {
          "time": 432.260435,
          "name": "C#5",
          "midi": 73,
          "duration": 0.081169,
          "velocity": 1
        },
        {
          "time": 432.357837,
          "name": "A5",
          "midi": 81,
          "duration": 0.075301,
          "velocity": 1
        },
        {
          "time": 432.357837,
          "name": "A4",
          "midi": 69,
          "duration": 0.075301,
          "velocity": 1
        },
        {
          "time": 432.357837,
          "name": "B4",
          "midi": 71,
          "duration": 0.180723,
          "velocity": 0.88189
        },
        {
          "time": 432.448199,
          "name": "A5",
          "midi": 81,
          "duration": 0.075301,
          "velocity": 1
        },
        {
          "time": 432.448199,
          "name": "A4",
          "midi": 69,
          "duration": 0.075301,
          "velocity": 1
        },
        {
          "time": 432.53856,
          "name": "C#6",
          "midi": 85,
          "duration": 0.075301,
          "velocity": 1
        },
        {
          "time": 432.53856,
          "name": "A4",
          "midi": 69,
          "duration": 0.075301,
          "velocity": 1
        },
        {
          "time": 432.53856,
          "name": "A4",
          "midi": 69,
          "duration": 0.180723,
          "velocity": 0.88189
        },
        {
          "time": 432.628922,
          "name": "C#6",
          "midi": 85,
          "duration": 0.075301,
          "velocity": 1
        },
        {
          "time": 432.628922,
          "name": "A4",
          "midi": 69,
          "duration": 0.075301,
          "velocity": 1
        },
        {
          "time": 432.719283,
          "name": "E6",
          "midi": 88,
          "duration": 0.081169,
          "velocity": 1
        },
        {
          "time": 432.719283,
          "name": "G#5",
          "midi": 80,
          "duration": 0.081169,
          "velocity": 1
        },
        {
          "time": 432.719283,
          "name": "E5",
          "midi": 76,
          "duration": 0.194805,
          "velocity": 0.88189
        },
        {
          "time": 432.816686,
          "name": "E6",
          "midi": 88,
          "duration": 0.081169,
          "velocity": 1
        },
        {
          "time": 432.816686,
          "name": "G#5",
          "midi": 80,
          "duration": 0.081169,
          "velocity": 1
        },
        {
          "time": 432.914088,
          "name": "E6",
          "midi": 88,
          "duration": 0.081169,
          "velocity": 1
        },
        {
          "time": 432.914088,
          "name": "G#5",
          "midi": 80,
          "duration": 0.081169,
          "velocity": 1
        },
        {
          "time": 432.914088,
          "name": "D5",
          "midi": 74,
          "duration": 0.194805,
          "velocity": 0.88189
        },
        {
          "time": 433.011491,
          "name": "E6",
          "midi": 88,
          "duration": 0.081169,
          "velocity": 1
        },
        {
          "time": 433.011491,
          "name": "G#5",
          "midi": 80,
          "duration": 0.081169,
          "velocity": 1
        },
        {
          "time": 433.108893,
          "name": "F#6",
          "midi": 90,
          "duration": 0.075301,
          "velocity": 1
        },
        {
          "time": 433.108893,
          "name": "A5",
          "midi": 81,
          "duration": 0.075301,
          "velocity": 1
        },
        {
          "time": 433.108893,
          "name": "C#5",
          "midi": 73,
          "duration": 0.180723,
          "velocity": 0.88189
        },
        {
          "time": 433.199255,
          "name": "F#6",
          "midi": 90,
          "duration": 0.075301,
          "velocity": 1
        },
        {
          "time": 433.199255,
          "name": "A5",
          "midi": 81,
          "duration": 0.075301,
          "velocity": 1
        },
        {
          "time": 433.289616,
          "name": "G#6",
          "midi": 92,
          "duration": 0.075301,
          "velocity": 1
        },
        {
          "time": 433.289616,
          "name": "B5",
          "midi": 83,
          "duration": 0.075301,
          "velocity": 1
        },
        {
          "time": 433.289616,
          "name": "B4",
          "midi": 71,
          "duration": 0.180723,
          "velocity": 0.88189
        },
        {
          "time": 433.379978,
          "name": "G#6",
          "midi": 92,
          "duration": 0.075301,
          "velocity": 1
        },
        {
          "time": 433.379978,
          "name": "B5",
          "midi": 83,
          "duration": 0.075301,
          "velocity": 1
        },
        {
          "time": 433.470339,
          "name": "C#6",
          "midi": 85,
          "duration": 0.194805,
          "velocity": 1
        },
        {
          "time": 433.470339,
          "name": "A6",
          "midi": 93,
          "duration": 0.194805,
          "velocity": 1
        },
        {
          "time": 433.470339,
          "name": "A4",
          "midi": 69,
          "duration": 0.194805,
          "velocity": 0.88189
        },
        {
          "time": 433.665144,
          "name": "C#5",
          "midi": 73,
          "duration": 0.081169,
          "velocity": 1
        },
        {
          "time": 433.665144,
          "name": "E5",
          "midi": 76,
          "duration": 0.081169,
          "velocity": 1
        },
        {
          "time": 433.762547,
          "name": "C#5",
          "midi": 73,
          "duration": 0.081169,
          "velocity": 1
        },
        {
          "time": 433.762547,
          "name": "E5",
          "midi": 76,
          "duration": 0.081169,
          "velocity": 1
        },
        {
          "time": 433.859949,
          "name": "F#5",
          "midi": 78,
          "duration": 0.075301,
          "velocity": 1
        },
        {
          "time": 433.859949,
          "name": "C#5",
          "midi": 73,
          "duration": 0.075301,
          "velocity": 1
        },
        {
          "time": 433.859949,
          "name": "A4",
          "midi": 69,
          "duration": 0.361446,
          "velocity": 0.88189
        },
        {
          "time": 433.950311,
          "name": "E5",
          "midi": 76,
          "duration": 0.075301,
          "velocity": 1
        },
        {
          "time": 433.950311,
          "name": "C#5",
          "midi": 73,
          "duration": 0.075301,
          "velocity": 1
        },
        {
          "time": 434.040672,
          "name": "E5",
          "midi": 76,
          "duration": 0.075301,
          "velocity": 1
        },
        {
          "time": 434.040672,
          "name": "C#5",
          "midi": 73,
          "duration": 0.075301,
          "velocity": 1
        },
        {
          "time": 434.131034,
          "name": "E5",
          "midi": 76,
          "duration": 0.075301,
          "velocity": 1
        },
        {
          "time": 434.131034,
          "name": "C#5",
          "midi": 73,
          "duration": 0.075301,
          "velocity": 1
        },
        {
          "time": 434.221395,
          "name": "F#5",
          "midi": 78,
          "duration": 0.081169,
          "velocity": 1
        },
        {
          "time": 434.221395,
          "name": "D5",
          "midi": 74,
          "duration": 0.081169,
          "velocity": 1
        },
        {
          "time": 434.221395,
          "name": "G#4",
          "midi": 68,
          "duration": 0.38961,
          "velocity": 0.88189
        },
        {
          "time": 434.318798,
          "name": "E5",
          "midi": 76,
          "duration": 0.081169,
          "velocity": 1
        },
        {
          "time": 434.318798,
          "name": "D5",
          "midi": 74,
          "duration": 0.081169,
          "velocity": 1
        },
        {
          "time": 434.4162,
          "name": "E5",
          "midi": 76,
          "duration": 0.081169,
          "velocity": 1
        },
        {
          "time": 434.4162,
          "name": "D5",
          "midi": 74,
          "duration": 0.081169,
          "velocity": 1
        },
        {
          "time": 434.513603,
          "name": "E5",
          "midi": 76,
          "duration": 0.081169,
          "velocity": 1
        },
        {
          "time": 434.513603,
          "name": "D5",
          "midi": 74,
          "duration": 0.081169,
          "velocity": 1
        },
        {
          "time": 434.611005,
          "name": "F#5",
          "midi": 78,
          "duration": 0.075301,
          "velocity": 1
        },
        {
          "time": 434.611005,
          "name": "D5",
          "midi": 74,
          "duration": 0.075301,
          "velocity": 1
        },
        {
          "time": 434.611005,
          "name": "A4",
          "midi": 69,
          "duration": 0.180723,
          "velocity": 0.88189
        },
        {
          "time": 434.701367,
          "name": "E5",
          "midi": 76,
          "duration": 0.075301,
          "velocity": 1
        },
        {
          "time": 434.701367,
          "name": "D5",
          "midi": 74,
          "duration": 0.075301,
          "velocity": 1
        },
        {
          "time": 434.791728,
          "name": "E5",
          "midi": 76,
          "duration": 0.075301,
          "velocity": 1
        },
        {
          "time": 434.791728,
          "name": "D5",
          "midi": 74,
          "duration": 0.075301,
          "velocity": 1
        },
        {
          "time": 434.791728,
          "name": "B4",
          "midi": 71,
          "duration": 0.180723,
          "velocity": 0.88189
        },
        {
          "time": 434.88209,
          "name": "E5",
          "midi": 76,
          "duration": 0.075301,
          "velocity": 1
        },
        {
          "time": 434.88209,
          "name": "D5",
          "midi": 74,
          "duration": 0.075301,
          "velocity": 1
        },
        {
          "time": 434.972451,
          "name": "F#5",
          "midi": 78,
          "duration": 0.081169,
          "velocity": 1
        },
        {
          "time": 434.972451,
          "name": "C#5",
          "midi": 73,
          "duration": 0.081169,
          "velocity": 1
        },
        {
          "time": 434.972451,
          "name": "E4",
          "midi": 64,
          "duration": 0.38961,
          "velocity": 0.88189
        },
        {
          "time": 435.069854,
          "name": "E5",
          "midi": 76,
          "duration": 0.081169,
          "velocity": 1
        },
        {
          "time": 435.069854,
          "name": "C#5",
          "midi": 73,
          "duration": 0.081169,
          "velocity": 1
        },
        {
          "time": 435.167256,
          "name": "E5",
          "midi": 76,
          "duration": 0.081169,
          "velocity": 1
        },
        {
          "time": 435.167256,
          "name": "C#5",
          "midi": 73,
          "duration": 0.081169,
          "velocity": 1
        },
        {
          "time": 435.264659,
          "name": "E5",
          "midi": 76,
          "duration": 0.081169,
          "velocity": 1
        },
        {
          "time": 435.264659,
          "name": "C#5",
          "midi": 73,
          "duration": 0.081169,
          "velocity": 1
        },
        {
          "time": 435.362061,
          "name": "B5",
          "midi": 83,
          "duration": 0.075301,
          "velocity": 1
        },
        {
          "time": 435.362061,
          "name": "A4",
          "midi": 69,
          "duration": 0.075301,
          "velocity": 1
        },
        {
          "time": 435.362061,
          "name": "C#5",
          "midi": 73,
          "duration": 0.361446,
          "velocity": 0.88189
        },
        {
          "time": 435.452423,
          "name": "A5",
          "midi": 81,
          "duration": 0.075301,
          "velocity": 1
        },
        {
          "time": 435.452423,
          "name": "A4",
          "midi": 69,
          "duration": 0.075301,
          "velocity": 1
        },
        {
          "time": 435.542784,
          "name": "A5",
          "midi": 81,
          "duration": 0.075301,
          "velocity": 1
        },
        {
          "time": 435.542784,
          "name": "A4",
          "midi": 69,
          "duration": 0.075301,
          "velocity": 1
        },
        {
          "time": 435.633146,
          "name": "A5",
          "midi": 81,
          "duration": 0.075301,
          "velocity": 1
        },
        {
          "time": 435.633146,
          "name": "A4",
          "midi": 69,
          "duration": 0.075301,
          "velocity": 1
        },
        {
          "time": 435.723507,
          "name": "B5",
          "midi": 83,
          "duration": 0.081169,
          "velocity": 1
        },
        {
          "time": 435.723507,
          "name": "B4",
          "midi": 71,
          "duration": 0.081169,
          "velocity": 1
        },
        {
          "time": 435.723507,
          "name": "D5",
          "midi": 74,
          "duration": 0.38961,
          "velocity": 0.88189
        },
        {
          "time": 435.82091,
          "name": "A5",
          "midi": 81,
          "duration": 0.081169,
          "velocity": 1
        },
        {
          "time": 435.82091,
          "name": "A4",
          "midi": 69,
          "duration": 0.081169,
          "velocity": 1
        },
        {
          "time": 435.918312,
          "name": "A5",
          "midi": 81,
          "duration": 0.081169,
          "velocity": 1
        },
        {
          "time": 435.918312,
          "name": "A4",
          "midi": 69,
          "duration": 0.081169,
          "velocity": 1
        },
        {
          "time": 436.015715,
          "name": "A5",
          "midi": 81,
          "duration": 0.081169,
          "velocity": 1
        },
        {
          "time": 436.015715,
          "name": "A4",
          "midi": 69,
          "duration": 0.081169,
          "velocity": 1
        },
        {
          "time": 436.113117,
          "name": "C#6",
          "midi": 85,
          "duration": 0.075301,
          "velocity": 1
        },
        {
          "time": 436.113117,
          "name": "E5",
          "midi": 76,
          "duration": 0.075301,
          "velocity": 1
        },
        {
          "time": 436.113117,
          "name": "G4",
          "midi": 67,
          "duration": 0.180723,
          "velocity": 0.88189
        },
        {
          "time": 436.203479,
          "name": "B5",
          "midi": 83,
          "duration": 0.075301,
          "velocity": 1
        },
        {
          "time": 436.203479,
          "name": "E5",
          "midi": 76,
          "duration": 0.075301,
          "velocity": 1
        },
        {
          "time": 436.29384,
          "name": "B5",
          "midi": 83,
          "duration": 0.075301,
          "velocity": 1
        },
        {
          "time": 436.29384,
          "name": "E5",
          "midi": 76,
          "duration": 0.075301,
          "velocity": 1
        },
        {
          "time": 436.29384,
          "name": "G#4",
          "midi": 68,
          "duration": 0.180723,
          "velocity": 0.88189
        },
        {
          "time": 436.384202,
          "name": "B5",
          "midi": 83,
          "duration": 0.075301,
          "velocity": 1
        },
        {
          "time": 436.384202,
          "name": "E5",
          "midi": 76,
          "duration": 0.075301,
          "velocity": 1
        },
        {
          "time": 436.474563,
          "name": "F#6",
          "midi": 90,
          "duration": 0.081169,
          "velocity": 1
        },
        {
          "time": 436.474563,
          "name": "F#5",
          "midi": 78,
          "duration": 0.081169,
          "velocity": 1
        },
        {
          "time": 436.474563,
          "name": "A4",
          "midi": 69,
          "duration": 0.38961,
          "velocity": 0.88189
        },
        {
          "time": 436.571966,
          "name": "E6",
          "midi": 88,
          "duration": 0.081169,
          "velocity": 1
        },
        {
          "time": 436.571966,
          "name": "E5",
          "midi": 76,
          "duration": 0.081169,
          "velocity": 1
        },
        {
          "time": 436.669368,
          "name": "E6",
          "midi": 88,
          "duration": 0.081169,
          "velocity": 1
        },
        {
          "time": 436.669368,
          "name": "E5",
          "midi": 76,
          "duration": 0.081169,
          "velocity": 1
        },
        {
          "time": 436.766771,
          "name": "E6",
          "midi": 88,
          "duration": 0.081169,
          "velocity": 1
        },
        {
          "time": 436.766771,
          "name": "E5",
          "midi": 76,
          "duration": 0.081169,
          "velocity": 1
        },
        {
          "time": 436.864173,
          "name": "F#6",
          "midi": 90,
          "duration": 0.075301,
          "velocity": 1
        },
        {
          "time": 436.864173,
          "name": "F#5",
          "midi": 78,
          "duration": 0.075301,
          "velocity": 1
        },
        {
          "time": 436.864173,
          "name": "A5",
          "midi": 81,
          "duration": 0.361446,
          "velocity": 0.88189
        },
        {
          "time": 436.954535,
          "name": "E6",
          "midi": 88,
          "duration": 0.075301,
          "velocity": 1
        },
        {
          "time": 436.954535,
          "name": "E5",
          "midi": 76,
          "duration": 0.075301,
          "velocity": 1
        },
        {
          "time": 437.044896,
          "name": "E6",
          "midi": 88,
          "duration": 0.075301,
          "velocity": 1
        },
        {
          "time": 437.044896,
          "name": "E5",
          "midi": 76,
          "duration": 0.075301,
          "velocity": 1
        },
        {
          "time": 437.135258,
          "name": "E6",
          "midi": 88,
          "duration": 0.075301,
          "velocity": 1
        },
        {
          "time": 437.135258,
          "name": "E5",
          "midi": 76,
          "duration": 0.075301,
          "velocity": 1
        },
        {
          "time": 437.225619,
          "name": "B4",
          "midi": 71,
          "duration": 0.081169,
          "velocity": 1
        },
        {
          "time": 437.225619,
          "name": "D4",
          "midi": 62,
          "duration": 0.081169,
          "velocity": 1
        },
        {
          "time": 437.225619,
          "name": "F#5",
          "midi": 78,
          "duration": 0.38961,
          "velocity": 0.88189
        },
        {
          "time": 437.323022,
          "name": "B4",
          "midi": 71,
          "duration": 0.081169,
          "velocity": 1
        },
        {
          "time": 437.323022,
          "name": "D4",
          "midi": 62,
          "duration": 0.081169,
          "velocity": 1
        },
        {
          "time": 437.420424,
          "name": "D6",
          "midi": 86,
          "duration": 0.081169,
          "velocity": 1
        },
        {
          "time": 437.420424,
          "name": "F#5",
          "midi": 78,
          "duration": 0.081169,
          "velocity": 1
        },
        {
          "time": 437.517827,
          "name": "D6",
          "midi": 86,
          "duration": 0.081169,
          "velocity": 1
        },
        {
          "time": 437.517827,
          "name": "F#5",
          "midi": 78,
          "duration": 0.081169,
          "velocity": 1
        },
        {
          "time": 437.615229,
          "name": "B4",
          "midi": 71,
          "duration": 0.075301,
          "velocity": 1
        },
        {
          "time": 437.615229,
          "name": "D4",
          "midi": 62,
          "duration": 0.075301,
          "velocity": 1
        },
        {
          "time": 437.615229,
          "name": "E5",
          "midi": 76,
          "duration": 0.180723,
          "velocity": 0.88189
        },
        {
          "time": 437.705591,
          "name": "B4",
          "midi": 71,
          "duration": 0.075301,
          "velocity": 1
        },
        {
          "time": 437.705591,
          "name": "D4",
          "midi": 62,
          "duration": 0.075301,
          "velocity": 1
        },
        {
          "time": 437.795952,
          "name": "D6",
          "midi": 86,
          "duration": 0.075301,
          "velocity": 1
        },
        {
          "time": 437.795952,
          "name": "F#5",
          "midi": 78,
          "duration": 0.075301,
          "velocity": 1
        },
        {
          "time": 437.795952,
          "name": "D5",
          "midi": 74,
          "duration": 0.180723,
          "velocity": 0.88189
        },
        {
          "time": 437.886314,
          "name": "D6",
          "midi": 86,
          "duration": 0.075301,
          "velocity": 1
        },
        {
          "time": 437.886314,
          "name": "F#5",
          "midi": 78,
          "duration": 0.075301,
          "velocity": 1
        },
        {
          "time": 437.976675,
          "name": "A3",
          "midi": 57,
          "duration": 0.081169,
          "velocity": 1
        },
        {
          "time": 437.976675,
          "name": "E4",
          "midi": 64,
          "duration": 0.081169,
          "velocity": 1
        },
        {
          "time": 437.976675,
          "name": "C#5",
          "midi": 73,
          "duration": 0.38961,
          "velocity": 0.88189
        },
        {
          "time": 438.074078,
          "name": "A3",
          "midi": 57,
          "duration": 0.081169,
          "velocity": 1
        },
        {
          "time": 438.074078,
          "name": "E4",
          "midi": 64,
          "duration": 0.081169,
          "velocity": 1
        },
        {
          "time": 438.17148,
          "name": "E5",
          "midi": 76,
          "duration": 0.081169,
          "velocity": 1
        },
        {
          "time": 438.17148,
          "name": "C#5",
          "midi": 73,
          "duration": 0.081169,
          "velocity": 1
        },
        {
          "time": 438.268883,
          "name": "E5",
          "midi": 76,
          "duration": 0.081169,
          "velocity": 1
        },
        {
          "time": 438.268883,
          "name": "C#5",
          "midi": 73,
          "duration": 0.081169,
          "velocity": 1
        },
        {
          "time": 438.366285,
          "name": "A5",
          "midi": 81,
          "duration": 0.075301,
          "velocity": 1
        },
        {
          "time": 438.366285,
          "name": "A4",
          "midi": 69,
          "duration": 0.075301,
          "velocity": 1
        },
        {
          "time": 438.366285,
          "name": "B4",
          "midi": 71,
          "duration": 0.180723,
          "velocity": 0.88189
        },
        {
          "time": 438.456647,
          "name": "A5",
          "midi": 81,
          "duration": 0.075301,
          "velocity": 1
        },
        {
          "time": 438.456647,
          "name": "A4",
          "midi": 69,
          "duration": 0.075301,
          "velocity": 1
        },
        {
          "time": 438.547008,
          "name": "C#6",
          "midi": 85,
          "duration": 0.075301,
          "velocity": 1
        },
        {
          "time": 438.547008,
          "name": "A4",
          "midi": 69,
          "duration": 0.075301,
          "velocity": 1
        },
        {
          "time": 438.547008,
          "name": "A4",
          "midi": 69,
          "duration": 0.180723,
          "velocity": 0.88189
        },
        {
          "time": 438.63737,
          "name": "C#6",
          "midi": 85,
          "duration": 0.075301,
          "velocity": 1
        },
        {
          "time": 438.63737,
          "name": "A4",
          "midi": 69,
          "duration": 0.075301,
          "velocity": 1
        },
        {
          "time": 438.727731,
          "name": "E6",
          "midi": 88,
          "duration": 0.081169,
          "velocity": 1
        },
        {
          "time": 438.727731,
          "name": "G#5",
          "midi": 80,
          "duration": 0.081169,
          "velocity": 1
        },
        {
          "time": 438.727731,
          "name": "E5",
          "midi": 76,
          "duration": 0.194805,
          "velocity": 0.88189
        },
        {
          "time": 438.825134,
          "name": "E6",
          "midi": 88,
          "duration": 0.081169,
          "velocity": 1
        },
        {
          "time": 438.825134,
          "name": "G#5",
          "midi": 80,
          "duration": 0.081169,
          "velocity": 1
        },
        {
          "time": 438.922536,
          "name": "E6",
          "midi": 88,
          "duration": 0.081169,
          "velocity": 1
        },
        {
          "time": 438.922536,
          "name": "G#5",
          "midi": 80,
          "duration": 0.081169,
          "velocity": 1
        },
        {
          "time": 438.922536,
          "name": "D5",
          "midi": 74,
          "duration": 0.194805,
          "velocity": 0.88189
        },
        {
          "time": 439.019939,
          "name": "E6",
          "midi": 88,
          "duration": 0.081169,
          "velocity": 1
        },
        {
          "time": 439.019939,
          "name": "G#5",
          "midi": 80,
          "duration": 0.081169,
          "velocity": 1
        },
        {
          "time": 439.117341,
          "name": "F#6",
          "midi": 90,
          "duration": 0.075301,
          "velocity": 1
        },
        {
          "time": 439.117341,
          "name": "A5",
          "midi": 81,
          "duration": 0.075301,
          "velocity": 1
        },
        {
          "time": 439.117341,
          "name": "C#5",
          "midi": 73,
          "duration": 0.180723,
          "velocity": 0.88189
        },
        {
          "time": 439.207703,
          "name": "F#6",
          "midi": 90,
          "duration": 0.075301,
          "velocity": 1
        },
        {
          "time": 439.207703,
          "name": "A5",
          "midi": 81,
          "duration": 0.075301,
          "velocity": 1
        },
        {
          "time": 439.298064,
          "name": "G#6",
          "midi": 92,
          "duration": 0.075301,
          "velocity": 1
        },
        {
          "time": 439.298064,
          "name": "B5",
          "midi": 83,
          "duration": 0.075301,
          "velocity": 1
        },
        {
          "time": 439.298064,
          "name": "B4",
          "midi": 71,
          "duration": 0.180723,
          "velocity": 0.88189
        },
        {
          "time": 439.388426,
          "name": "G#6",
          "midi": 92,
          "duration": 0.075301,
          "velocity": 1
        },
        {
          "time": 439.388426,
          "name": "B5",
          "midi": 83,
          "duration": 0.075301,
          "velocity": 1
        },
        {
          "time": 439.478787,
          "name": "A6",
          "midi": 93,
          "duration": 0.081169,
          "velocity": 1
        },
        {
          "time": 439.478787,
          "name": "C#6",
          "midi": 85,
          "duration": 0.081169,
          "velocity": 1
        },
        {
          "time": 439.478787,
          "name": "A4",
          "midi": 69,
          "duration": 0.194805,
          "velocity": 0.88189
        },
        {
          "time": 439.57619,
          "name": "A6",
          "midi": 93,
          "duration": 0.081169,
          "velocity": 1
        },
        {
          "time": 439.57619,
          "name": "C#6",
          "midi": 85,
          "duration": 0.081169,
          "velocity": 1
        },
        {
          "time": 439.673592,
          "name": "A6",
          "midi": 93,
          "duration": 0.081169,
          "velocity": 1
        },
        {
          "time": 439.673592,
          "name": "C#6",
          "midi": 85,
          "duration": 0.081169,
          "velocity": 1
        },
        {
          "time": 439.673592,
          "name": "A4",
          "midi": 69,
          "duration": 0.194805,
          "velocity": 0.88189
        },
        {
          "time": 439.770995,
          "name": "A6",
          "midi": 93,
          "duration": 0.081169,
          "velocity": 1
        },
        {
          "time": 439.770995,
          "name": "C#6",
          "midi": 85,
          "duration": 0.081169,
          "velocity": 1
        },
        {
          "time": 439.868397,
          "name": "A6",
          "midi": 93,
          "duration": 0.075301,
          "velocity": 1
        },
        {
          "time": 439.868397,
          "name": "C#6",
          "midi": 85,
          "duration": 0.075301,
          "velocity": 1
        },
        {
          "time": 439.958759,
          "name": "A6",
          "midi": 93,
          "duration": 0.075301,
          "velocity": 1
        },
        {
          "time": 439.958759,
          "name": "C#6",
          "midi": 85,
          "duration": 0.075301,
          "velocity": 1
        },
        {
          "time": 440.04912,
          "name": "A6",
          "midi": 93,
          "duration": 0.075301,
          "velocity": 1
        },
        {
          "time": 440.04912,
          "name": "C#6",
          "midi": 85,
          "duration": 0.075301,
          "velocity": 1
        },
        {
          "time": 440.04912,
          "name": "A4",
          "midi": 69,
          "duration": 0.180723,
          "velocity": 0.88189
        },
        {
          "time": 440.139482,
          "name": "A6",
          "midi": 93,
          "duration": 0.075301,
          "velocity": 1
        },
        {
          "time": 440.139482,
          "name": "C#6",
          "midi": 85,
          "duration": 0.075301,
          "velocity": 1
        },
        {
          "time": 440.229843,
          "name": "A6",
          "midi": 93,
          "duration": 0.081169,
          "velocity": 1
        },
        {
          "time": 440.229843,
          "name": "C#6",
          "midi": 85,
          "duration": 0.081169,
          "velocity": 1
        },
        {
          "time": 440.327246,
          "name": "A6",
          "midi": 93,
          "duration": 0.081169,
          "velocity": 1
        },
        {
          "time": 440.327246,
          "name": "C#6",
          "midi": 85,
          "duration": 0.081169,
          "velocity": 1
        },
        {
          "time": 440.424648,
          "name": "A6",
          "midi": 93,
          "duration": 0.081169,
          "velocity": 1
        },
        {
          "time": 440.424648,
          "name": "C#6",
          "midi": 85,
          "duration": 0.081169,
          "velocity": 1
        },
        {
          "time": 440.424648,
          "name": "A4",
          "midi": 69,
          "duration": 0.194805,
          "velocity": 0.88189
        },
        {
          "time": 440.522051,
          "name": "A6",
          "midi": 93,
          "duration": 0.081169,
          "velocity": 1
        },
        {
          "time": 440.522051,
          "name": "C#6",
          "midi": 85,
          "duration": 0.081169,
          "velocity": 1
        },
        {
          "time": 440.619453,
          "name": "A6",
          "midi": 93,
          "duration": 0.075301,
          "velocity": 1
        },
        {
          "time": 440.619453,
          "name": "C#6",
          "midi": 85,
          "duration": 0.075301,
          "velocity": 1
        },
        {
          "time": 440.709815,
          "name": "A6",
          "midi": 93,
          "duration": 0.075301,
          "velocity": 1
        },
        {
          "time": 440.709815,
          "name": "C#6",
          "midi": 85,
          "duration": 0.075301,
          "velocity": 1
        },
        {
          "time": 440.800176,
          "name": "A6",
          "midi": 93,
          "duration": 0.075301,
          "velocity": 1
        },
        {
          "time": 440.800176,
          "name": "C#6",
          "midi": 85,
          "duration": 0.075301,
          "velocity": 1
        },
        {
          "time": 440.800176,
          "name": "A4",
          "midi": 69,
          "duration": 0.180723,
          "velocity": 0.88189
        },
        {
          "time": 440.890538,
          "name": "A6",
          "midi": 93,
          "duration": 0.075301,
          "velocity": 1
        },
        {
          "time": 440.890538,
          "name": "C#6",
          "midi": 85,
          "duration": 0.075301,
          "velocity": 1
        },
        {
          "time": 440.980899,
          "name": "A6",
          "midi": 93,
          "duration": 0.081169,
          "velocity": 1
        },
        {
          "time": 440.980899,
          "name": "C#6",
          "midi": 85,
          "duration": 0.081169,
          "velocity": 1
        },
        {
          "time": 440.987393,
          "name": "E5",
          "midi": 76,
          "duration": 0.389141,
          "velocity": 0.834646
        },
        {
          "time": 440.987393,
          "name": "A5",
          "midi": 81,
          "duration": 1.502112,
          "velocity": 0.834646
        },
        {
          "time": 440.990639,
          "name": "E4",
          "midi": 64,
          "duration": 0.388906,
          "velocity": 0.818898
        },
        {
          "time": 440.990639,
          "name": "A4",
          "midi": 69,
          "duration": 1.502112,
          "velocity": 0.818898
        },
        {
          "time": 441.078302,
          "name": "A6",
          "midi": 93,
          "duration": 0.081169,
          "velocity": 1
        },
        {
          "time": 441.078302,
          "name": "C#6",
          "midi": 85,
          "duration": 0.081169,
          "velocity": 1
        },
        {
          "time": 441.175704,
          "name": "A6",
          "midi": 93,
          "duration": 0.081169,
          "velocity": 1
        },
        {
          "time": 441.175704,
          "name": "C#6",
          "midi": 85,
          "duration": 0.081169,
          "velocity": 1
        },
        {
          "time": 441.175704,
          "name": "A4",
          "midi": 69,
          "duration": 0.194805,
          "velocity": 0.88189
        },
        {
          "time": 441.273107,
          "name": "A6",
          "midi": 93,
          "duration": 0.081169,
          "velocity": 1
        },
        {
          "time": 441.273107,
          "name": "C#6",
          "midi": 85,
          "duration": 0.081169,
          "velocity": 1
        },
        {
          "time": 441.370509,
          "name": "A6",
          "midi": 93,
          "duration": 0.075301,
          "velocity": 1
        },
        {
          "time": 441.370509,
          "name": "C#6",
          "midi": 85,
          "duration": 0.075301,
          "velocity": 1
        },
        {
          "time": 441.376533,
          "name": "F#5",
          "midi": 78,
          "duration": 0.361915,
          "velocity": 0.834646
        },
        {
          "time": 441.379545,
          "name": "F#4",
          "midi": 66,
          "duration": 0.36215,
          "velocity": 0.818898
        },
        {
          "time": 441.460871,
          "name": "A6",
          "midi": 93,
          "duration": 0.075301,
          "velocity": 1
        },
        {
          "time": 441.460871,
          "name": "C#6",
          "midi": 85,
          "duration": 0.075301,
          "velocity": 1
        },
        {
          "time": 441.551232,
          "name": "A6",
          "midi": 93,
          "duration": 0.075301,
          "velocity": 1
        },
        {
          "time": 441.551232,
          "name": "C#6",
          "midi": 85,
          "duration": 0.075301,
          "velocity": 1
        },
        {
          "time": 441.551232,
          "name": "A4",
          "midi": 69,
          "duration": 0.180723,
          "velocity": 0.88189
        },
        {
          "time": 441.641594,
          "name": "A6",
          "midi": 93,
          "duration": 0.075301,
          "velocity": 1
        },
        {
          "time": 441.641594,
          "name": "C#6",
          "midi": 85,
          "duration": 0.075301,
          "velocity": 1
        },
        {
          "time": 441.731955,
          "name": "A6",
          "midi": 93,
          "duration": 0.081169,
          "velocity": 1
        },
        {
          "time": 441.731955,
          "name": "C#6",
          "midi": 85,
          "duration": 0.081169,
          "velocity": 1
        },
        {
          "time": 441.738449,
          "name": "E5",
          "midi": 76,
          "duration": 0.389141,
          "velocity": 0.834646
        },
        {
          "time": 441.741695,
          "name": "E4",
          "midi": 64,
          "duration": 0.388906,
          "velocity": 0.818898
        },
        {
          "time": 441.829358,
          "name": "A6",
          "midi": 93,
          "duration": 0.081169,
          "velocity": 1
        },
        {
          "time": 441.829358,
          "name": "C#6",
          "midi": 85,
          "duration": 0.081169,
          "velocity": 1
        },
        {
          "time": 441.92676,
          "name": "A6",
          "midi": 93,
          "duration": 0.081169,
          "velocity": 1
        },
        {
          "time": 441.92676,
          "name": "C#6",
          "midi": 85,
          "duration": 0.081169,
          "velocity": 1
        },
        {
          "time": 441.92676,
          "name": "A4",
          "midi": 69,
          "duration": 0.194805,
          "velocity": 0.88189
        },
        {
          "time": 442.024163,
          "name": "A6",
          "midi": 93,
          "duration": 0.081169,
          "velocity": 1
        },
        {
          "time": 442.024163,
          "name": "C#6",
          "midi": 85,
          "duration": 0.081169,
          "velocity": 1
        },
        {
          "time": 442.121565,
          "name": "A6",
          "midi": 93,
          "duration": 0.075301,
          "velocity": 1
        },
        {
          "time": 442.121565,
          "name": "C#6",
          "midi": 85,
          "duration": 0.075301,
          "velocity": 1
        },
        {
          "time": 442.127589,
          "name": "F#5",
          "midi": 78,
          "duration": 0.361915,
          "velocity": 0.834646
        },
        {
          "time": 442.130601,
          "name": "F#4",
          "midi": 66,
          "duration": 0.36215,
          "velocity": 0.818898
        },
        {
          "time": 442.211927,
          "name": "A6",
          "midi": 93,
          "duration": 0.075301,
          "velocity": 1
        },
        {
          "time": 442.211927,
          "name": "C#6",
          "midi": 85,
          "duration": 0.075301,
          "velocity": 1
        },
        {
          "time": 442.302288,
          "name": "A6",
          "midi": 93,
          "duration": 0.075301,
          "velocity": 1
        },
        {
          "time": 442.302288,
          "name": "C#6",
          "midi": 85,
          "duration": 0.075301,
          "velocity": 1
        },
        {
          "time": 442.302288,
          "name": "A4",
          "midi": 69,
          "duration": 0.180723,
          "velocity": 0.88189
        },
        {
          "time": 442.39265,
          "name": "A6",
          "midi": 93,
          "duration": 0.075301,
          "velocity": 1
        },
        {
          "time": 442.39265,
          "name": "C#6",
          "midi": 85,
          "duration": 0.075301,
          "velocity": 1
        },
        {
          "time": 442.483011,
          "name": "A6",
          "midi": 93,
          "duration": 0.146104,
          "velocity": 1
        },
        {
          "time": 442.483011,
          "name": "C#6",
          "midi": 85,
          "duration": 0.146104,
          "velocity": 1
        },
        {
          "time": 442.483011,
          "name": "A4",
          "midi": 69,
          "duration": 0.194805,
          "velocity": 0.88189
        },
        {
          "time": 442.489505,
          "name": "E5",
          "midi": 76,
          "duration": 0.194805,
          "velocity": 0.834646
        },
        {
          "time": 442.489505,
          "name": "A5",
          "midi": 81,
          "duration": 0.194805,
          "velocity": 0.834646
        },
        {
          "time": 442.492751,
          "name": "E4",
          "midi": 64,
          "duration": 0.194805,
          "velocity": 0.818898
        },
        {
          "time": 442.492751,
          "name": "A4",
          "midi": 69,
          "duration": 0.194805,
          "velocity": 0.818898
        },
        {
          "time": 442.677816,
          "name": "A4",
          "midi": 69,
          "duration": 0.146104,
          "velocity": 1
        },
        {
          "time": 442.872621,
          "name": "A5",
          "midi": 81,
          "duration": 0.135542,
          "velocity": 1
        },
        {
          "time": 442.872621,
          "name": "A4",
          "midi": 69,
          "duration": 0.180723,
          "velocity": 0.88189
        },
        {
          "time": 442.872621,
          "name": "A5",
          "midi": 81,
          "duration": 0.180723,
          "velocity": 0.88189
        },
        {
          "time": 442.878645,
          "name": "E5",
          "midi": 76,
          "duration": 0.180723,
          "velocity": 0.834646
        },
        {
          "time": 442.878645,
          "name": "A5",
          "midi": 81,
          "duration": 0.180723,
          "velocity": 0.834646
        },
        {
          "time": 442.881657,
          "name": "E4",
          "midi": 64,
          "duration": 0.180723,
          "velocity": 0.818898
        },
        {
          "time": 442.881657,
          "name": "A4",
          "midi": 69,
          "duration": 0.180723,
          "velocity": 0.818898
        },
        {
          "time": 443.053344,
          "name": "A4",
          "midi": 69,
          "duration": 0.135542,
          "velocity": 1
        },
        {
          "time": 443.234067,
          "name": "C#6",
          "midi": 85,
          "duration": 0.146104,
          "velocity": 1
        },
        {
          "time": 443.234067,
          "name": "A5",
          "midi": 81,
          "duration": 0.194805,
          "velocity": 0.88189
        },
        {
          "time": 443.234067,
          "name": "A4",
          "midi": 69,
          "duration": 0.194805,
          "velocity": 0.88189
        },
        {
          "time": 443.240561,
          "name": "E5",
          "midi": 76,
          "duration": 0.194805,
          "velocity": 0.834646
        },
        {
          "time": 443.240561,
          "name": "A5",
          "midi": 81,
          "duration": 0.194805,
          "velocity": 0.834646
        },
        {
          "time": 443.243807,
          "name": "E4",
          "midi": 64,
          "duration": 0.194805,
          "velocity": 0.818898
        },
        {
          "time": 443.243807,
          "name": "A4",
          "midi": 69,
          "duration": 0.194805,
          "velocity": 0.818898
        },
        {
          "time": 443.428872,
          "name": "A4",
          "midi": 69,
          "duration": 0.146104,
          "velocity": 1
        },
        {
          "time": 443.623677,
          "name": "E6",
          "midi": 88,
          "duration": 0.135542,
          "velocity": 1
        },
        {
          "time": 443.623677,
          "name": "A5",
          "midi": 81,
          "duration": 0.180723,
          "velocity": 0.88189
        },
        {
          "time": 443.623677,
          "name": "A4",
          "midi": 69,
          "duration": 0.180723,
          "velocity": 0.88189
        },
        {
          "time": 443.629701,
          "name": "E5",
          "midi": 76,
          "duration": 0.180723,
          "velocity": 0.834646
        },
        {
          "time": 443.629701,
          "name": "A5",
          "midi": 81,
          "duration": 0.180723,
          "velocity": 0.834646
        },
        {
          "time": 443.632713,
          "name": "E4",
          "midi": 64,
          "duration": 0.180723,
          "velocity": 0.818898
        },
        {
          "time": 443.632713,
          "name": "A4",
          "midi": 69,
          "duration": 0.180723,
          "velocity": 0.818898
        },
        {
          "time": 443.8044,
          "name": "A4",
          "midi": 69,
          "duration": 0.135542,
          "velocity": 1
        },
        {
          "time": 443.985123,
          "name": "A6",
          "midi": 93,
          "duration": 0.146104,
          "velocity": 1
        },
        {
          "time": 443.985123,
          "name": "A5",
          "midi": 81,
          "duration": 0.194805,
          "velocity": 0.88189
        },
        {
          "time": 443.985123,
          "name": "A4",
          "midi": 69,
          "duration": 0.194805,
          "velocity": 0.88189
        },
        {
          "time": 443.991617,
          "name": "E5",
          "midi": 76,
          "duration": 0.194805,
          "velocity": 0.834646
        },
        {
          "time": 443.991617,
          "name": "A5",
          "midi": 81,
          "duration": 0.194805,
          "velocity": 0.834646
        },
        {
          "time": 443.994863,
          "name": "E4",
          "midi": 64,
          "duration": 0.194805,
          "velocity": 0.818898
        },
        {
          "time": 443.994863,
          "name": "A4",
          "midi": 69,
          "duration": 0.194805,
          "velocity": 0.818898
        },
        {
          "time": 444.179928,
          "name": "A4",
          "midi": 69,
          "duration": 0.146104,
          "velocity": 1
        },
        {
          "time": 444.374733,
          "name": "A5",
          "midi": 81,
          "duration": 0.135542,
          "velocity": 1
        },
        {
          "time": 444.374733,
          "name": "A5",
          "midi": 81,
          "duration": 0.180723,
          "velocity": 0.88189
        },
        {
          "time": 444.374733,
          "name": "A4",
          "midi": 69,
          "duration": 0.180723,
          "velocity": 0.88189
        },
        {
          "time": 444.380757,
          "name": "E5",
          "midi": 76,
          "duration": 0.180723,
          "velocity": 0.834646
        },
        {
          "time": 444.380757,
          "name": "A5",
          "midi": 81,
          "duration": 0.180723,
          "velocity": 0.834646
        },
        {
          "time": 444.383769,
          "name": "E4",
          "midi": 64,
          "duration": 0.180723,
          "velocity": 0.818898
        },
        {
          "time": 444.383769,
          "name": "A4",
          "midi": 69,
          "duration": 0.180723,
          "velocity": 0.818898
        },
        {
          "time": 444.555456,
          "name": "A4",
          "midi": 69,
          "duration": 0.135542,
          "velocity": 1
        },
        {
          "time": 444.736179,
          "name": "C#6",
          "midi": 85,
          "duration": 0.146104,
          "velocity": 1
        },
        {
          "time": 444.736179,
          "name": "A4",
          "midi": 69,
          "duration": 0.194805,
          "velocity": 0.88189
        },
        {
          "time": 444.736179,
          "name": "A5",
          "midi": 81,
          "duration": 0.194805,
          "velocity": 0.88189
        },
        {
          "time": 444.742673,
          "name": "E5",
          "midi": 76,
          "duration": 0.194805,
          "velocity": 0.834646
        },
        {
          "time": 444.742673,
          "name": "A5",
          "midi": 81,
          "duration": 0.194805,
          "velocity": 0.834646
        },
        {
          "time": 444.745919,
          "name": "E4",
          "midi": 64,
          "duration": 0.194805,
          "velocity": 0.818898
        },
        {
          "time": 444.745919,
          "name": "A4",
          "midi": 69,
          "duration": 0.194805,
          "velocity": 0.818898
        },
        {
          "time": 444.930984,
          "name": "A4",
          "midi": 69,
          "duration": 0.146104,
          "velocity": 1
        },
        {
          "time": 445.125789,
          "name": "E6",
          "midi": 88,
          "duration": 0.135542,
          "velocity": 1
        },
        {
          "time": 445.125789,
          "name": "A4",
          "midi": 69,
          "duration": 0.180723,
          "velocity": 0.88189
        },
        {
          "time": 445.125789,
          "name": "A5",
          "midi": 81,
          "duration": 0.180723,
          "velocity": 0.88189
        },
        {
          "time": 445.131813,
          "name": "E5",
          "midi": 76,
          "duration": 0.180723,
          "velocity": 0.834646
        },
        {
          "time": 445.131813,
          "name": "A5",
          "midi": 81,
          "duration": 0.180723,
          "velocity": 0.834646
        },
        {
          "time": 445.134825,
          "name": "E4",
          "midi": 64,
          "duration": 0.180723,
          "velocity": 0.818898
        },
        {
          "time": 445.134825,
          "name": "A4",
          "midi": 69,
          "duration": 0.180723,
          "velocity": 0.818898
        },
        {
          "time": 445.306512,
          "name": "A4",
          "midi": 69,
          "duration": 0.135542,
          "velocity": 1
        },
        {
          "time": 445.487235,
          "name": "A6",
          "midi": 93,
          "duration": 0.135542,
          "velocity": 1
        },
        {
          "time": 445.487235,
          "name": "A4",
          "midi": 69,
          "duration": 0.180723,
          "velocity": 0.88189
        },
        {
          "time": 445.487235,
          "name": "A5",
          "midi": 81,
          "duration": 0.180723,
          "velocity": 0.88189
        },
        {
          "time": 445.493259,
          "name": "E5",
          "midi": 76,
          "duration": 0.180723,
          "velocity": 0.834646
        },
        {
          "time": 445.493259,
          "name": "A5",
          "midi": 81,
          "duration": 0.180723,
          "velocity": 0.834646
        },
        {
          "time": 445.851693,
          "name": "A6",
          "midi": 93,
          "duration": 0.180723,
          "velocity": 0.811024
        },
        {
          "time": 445.854705,
          "name": "A6",
          "midi": 93,
          "duration": 0.180723,
          "velocity": 0.834646
        },
        {
          "time": 445.854705,
          "name": "E6",
          "midi": 88,
          "duration": 0.180723,
          "velocity": 0.834646
        },
        {
          "time": 445.857717,
          "name": "E6",
          "midi": 88,
          "duration": 0.180723,
          "velocity": 0.818898
        },
        {
          "time": 445.857717,
          "name": "A5",
          "midi": 81,
          "duration": 0.180723,
          "velocity": 0.818898
        },
        {
          "time": 446.210127,
          "name": "C#5",
          "midi": 73,
          "duration": 0.180723,
          "velocity": 0.88189
        },
        {
          "time": 446.210127,
          "name": "A5",
          "midi": 81,
          "duration": 0.180723,
          "velocity": 0.88189
        },
        {
          "time": 446.210127,
          "name": "A3",
          "midi": 57,
          "duration": 0.180723,
          "velocity": 0.88189
        },
        {
          "time": 446.210127,
          "name": "E4",
          "midi": 64,
          "duration": 0.180723,
          "velocity": 0.88189
        },
        {
          "time": 451.111135,
          "name": "D4",
          "midi": 62,
          "duration": 0.384615,
          "velocity": 0.88189
        },
        {
          "time": 451.49575,
          "name": "D4",
          "midi": 62,
          "duration": 0.384615,
          "velocity": 0.88189
        },
        {
          "time": 451.880365,
          "name": "D4",
          "midi": 62,
          "duration": 0.344828,
          "velocity": 0.88189
        },
        {
          "time": 452.225193,
          "name": "D4",
          "midi": 62,
          "duration": 0.384615,
          "velocity": 0.88189
        },
        {
          "time": 452.609808,
          "name": "G4",
          "midi": 67,
          "duration": 0.384615,
          "velocity": 0.88189
        },
        {
          "time": 452.994423,
          "name": "F4",
          "midi": 65,
          "duration": 0.344828,
          "velocity": 0.88189
        },
        {
          "time": 453.339251,
          "name": "C4",
          "midi": 60,
          "duration": 0.673076,
          "velocity": 0.88189
        },
        {
          "time": 454.012327,
          "name": "B3",
          "midi": 59,
          "duration": 0.096154,
          "velocity": 0.88189
        },
        {
          "time": 454.108481,
          "name": "C4",
          "midi": 60,
          "duration": 0.633289,
          "velocity": 0.88189
        },
        {
          "time": 454.74177,
          "name": "B3",
          "midi": 59,
          "duration": 0.096154,
          "velocity": 0.88189
        },
        {
          "time": 454.837924,
          "name": "C4",
          "midi": 60,
          "duration": 0.384615,
          "velocity": 0.88189
        },
        {
          "time": 455.222539,
          "name": "D4",
          "midi": 62,
          "duration": 0.344828,
          "velocity": 0.88189
        },
        {
          "time": 455.567367,
          "name": "G4",
          "midi": 67,
          "duration": 0.384615,
          "velocity": 0.88189
        },
        {
          "time": 455.951982,
          "name": "D#5",
          "midi": 75,
          "duration": 0.384615,
          "velocity": 0.88189
        },
        {
          "time": 456.336597,
          "name": "D5",
          "midi": 74,
          "duration": 0.344828,
          "velocity": 0.88189
        },
        {
          "time": 456.681425,
          "name": "G4",
          "midi": 67,
          "duration": 0.76923,
          "velocity": 0.88189
        },
        {
          "time": 457.450655,
          "name": "F4",
          "midi": 65,
          "duration": 0.344828,
          "velocity": 0.88189
        },
        {
          "time": 457.795483,
          "name": "D#4",
          "midi": 63,
          "duration": 0.576923,
          "velocity": 0.88189
        },
        {
          "time": 458.372406,
          "name": "D4",
          "midi": 62,
          "duration": 0.192307,
          "velocity": 0.88189
        },
        {
          "time": 458.564713,
          "name": "C4",
          "midi": 60,
          "duration": 0.172414,
          "velocity": 0.88189
        },
        {
          "time": 458.737127,
          "name": "D4",
          "midi": 62,
          "duration": 0.172414,
          "velocity": 0.88189
        },
        {
          "time": 458.909541,
          "name": "D#4",
          "midi": 63,
          "duration": 0.192308,
          "velocity": 0.88189
        },
        {
          "time": 459.101849,
          "name": "D4",
          "midi": 62,
          "duration": 0.192307,
          "velocity": 0.88189
        },
        {
          "time": 459.294156,
          "name": "D#4",
          "midi": 63,
          "duration": 0.192308,
          "velocity": 0.88189
        },
        {
          "time": 459.486464,
          "name": "F#4",
          "midi": 66,
          "duration": 0.192307,
          "velocity": 0.88189
        },
        {
          "time": 459.678771,
          "name": "G4",
          "midi": 67,
          "duration": 0.172414,
          "velocity": 0.88189
        },
        {
          "time": 459.851185,
          "name": "B4",
          "midi": 71,
          "duration": 0.172414,
          "velocity": 0.88189
        },
        {
          "time": 460.023599,
          "name": "C5",
          "midi": 72,
          "duration": 0.192308,
          "velocity": 0.88189
        },
        {
          "time": 467.822005,
          "name": "D4",
          "midi": 62,
          "duration": 0.192308,
          "velocity": 0.88189
        },
        {
          "time": 468.20662,
          "name": "D#4",
          "midi": 63,
          "duration": 0.192308,
          "velocity": 0.88189
        },
        {
          "time": 468.591235,
          "name": "F4",
          "midi": 65,
          "duration": 0.172414,
          "velocity": 0.88189
        },
        {
          "time": 468.977935,
          "name": "D4",
          "midi": 62,
          "duration": 0.384615,
          "velocity": 0.88189
        },
        {
          "time": 469.36255,
          "name": "D4",
          "midi": 62,
          "duration": 0.384615,
          "velocity": 0.88189
        },
        {
          "time": 469.747165,
          "name": "D4",
          "midi": 62,
          "duration": 0.344828,
          "velocity": 0.88189
        },
        {
          "time": 470.091993,
          "name": "D4",
          "midi": 62,
          "duration": 0.384615,
          "velocity": 0.88189
        },
        {
          "time": 470.476608,
          "name": "G4",
          "midi": 67,
          "duration": 0.384615,
          "velocity": 0.88189
        },
        {
          "time": 470.861223,
          "name": "F4",
          "midi": 65,
          "duration": 0.344828,
          "velocity": 0.88189
        },
        {
          "time": 471.206051,
          "name": "C4",
          "midi": 60,
          "duration": 0.673076,
          "velocity": 0.88189
        },
        {
          "time": 471.879127,
          "name": "B3",
          "midi": 59,
          "duration": 0.096154,
          "velocity": 0.88189
        },
        {
          "time": 471.975281,
          "name": "C4",
          "midi": 60,
          "duration": 0.633289,
          "velocity": 0.88189
        },
        {
          "time": 472.60857,
          "name": "B3",
          "midi": 59,
          "duration": 0.096154,
          "velocity": 0.88189
        },
        {
          "time": 472.704724,
          "name": "C4",
          "midi": 60,
          "duration": 0.384615,
          "velocity": 0.88189
        },
        {
          "time": 473.089339,
          "name": "D4",
          "midi": 62,
          "duration": 0.344828,
          "velocity": 0.88189
        },
        {
          "time": 473.434167,
          "name": "G4",
          "midi": 67,
          "duration": 0.384615,
          "velocity": 0.88189
        },
        {
          "time": 473.818782,
          "name": "D#5",
          "midi": 75,
          "duration": 0.384615,
          "velocity": 0.88189
        },
        {
          "time": 474.203397,
          "name": "D5",
          "midi": 74,
          "duration": 0.344828,
          "velocity": 0.88189
        },
        {
          "time": 474.548225,
          "name": "G4",
          "midi": 67,
          "duration": 0.76923,
          "velocity": 0.88189
        },
        {
          "time": 475.317455,
          "name": "F4",
          "midi": 65,
          "duration": 0.344828,
          "velocity": 0.88189
        },
        {
          "time": 475.662283,
          "name": "D#4",
          "midi": 63,
          "duration": 0.576923,
          "velocity": 0.88189
        },
        {
          "time": 476.239205,
          "name": "D4",
          "midi": 62,
          "duration": 0.192307,
          "velocity": 0.88189
        },
        {
          "time": 476.431513,
          "name": "C4",
          "midi": 60,
          "duration": 0.172414,
          "velocity": 0.88189
        },
        {
          "time": 476.603927,
          "name": "D4",
          "midi": 62,
          "duration": 0.172414,
          "velocity": 0.88189
        },
        {
          "time": 476.776341,
          "name": "D#4",
          "midi": 63,
          "duration": 0.192308,
          "velocity": 0.88189
        },
        {
          "time": 476.968648,
          "name": "D4",
          "midi": 62,
          "duration": 0.192307,
          "velocity": 0.88189
        },
        {
          "time": 477.160956,
          "name": "D#4",
          "midi": 63,
          "duration": 0.192308,
          "velocity": 0.88189
        },
        {
          "time": 477.353263,
          "name": "F#4",
          "midi": 66,
          "duration": 0.192307,
          "velocity": 0.88189
        },
        {
          "time": 477.545571,
          "name": "G4",
          "midi": 67,
          "duration": 0.172414,
          "velocity": 0.88189
        },
        {
          "time": 477.717985,
          "name": "B4",
          "midi": 71,
          "duration": 0.172414,
          "velocity": 0.88189
        },
        {
          "time": 477.890399,
          "name": "C5",
          "midi": 72,
          "duration": 0.192308,
          "velocity": 0.88189
        },
        {
          "time": 482.731246,
          "name": "A4",
          "midi": 69,
          "duration": 0.346154,
          "velocity": 0.88189
        },
        {
          "time": 483.115861,
          "name": "A4",
          "midi": 69,
          "duration": 0.310345,
          "velocity": 0.88189
        },
        {
          "time": 483.845304,
          "name": "A4",
          "midi": 69,
          "duration": 0.346154,
          "velocity": 0.88189
        },
        {
          "time": 484.229919,
          "name": "A4",
          "midi": 69,
          "duration": 0.310345,
          "velocity": 0.88189
        },
        {
          "time": 484.959362,
          "name": "A4",
          "midi": 69,
          "duration": 0.346154,
          "velocity": 0.88189
        },
        {
          "time": 485.343977,
          "name": "A4",
          "midi": 69,
          "duration": 0.310345,
          "velocity": 0.88189
        },
        {
          "time": 486.07342,
          "name": "A4",
          "midi": 69,
          "duration": 0.346154,
          "velocity": 0.88189
        },
        {
          "time": 486.458035,
          "name": "A4",
          "midi": 69,
          "duration": 0.310345,
          "velocity": 0.88189
        },
        {
          "time": 487.187478,
          "name": "A4",
          "midi": 69,
          "duration": 0.384615,
          "velocity": 0.88189
        },
        {
          "time": 488.301536,
          "name": "C#4",
          "midi": 61,
          "duration": 0.346154,
          "velocity": 0.88189
        },
        {
          "time": 488.686151,
          "name": "D4",
          "midi": 62,
          "duration": 0.343842,
          "velocity": 0.88189
        },
        {
          "time": 489.07285,
          "name": "D4",
          "midi": 62,
          "duration": 1.076536,
          "velocity": 0.88189
        },
        {
          "time": 489.07285,
          "name": "B3",
          "midi": 59,
          "duration": 1.076536,
          "velocity": 0.88189
        },
        {
          "time": 489.078948,
          "name": "G6",
          "midi": 91,
          "duration": 0.173781,
          "velocity": 0.834646
        },
        {
          "time": 489.081997,
          "name": "G5",
          "midi": 79,
          "duration": 0.173781,
          "velocity": 0.818898
        },
        {
          "time": 489.081997,
          "name": "G4",
          "midi": 67,
          "duration": 0.173781,
          "velocity": 0.818898
        },
        {
          "time": 489.261875,
          "name": "G6",
          "midi": 91,
          "duration": 0.173781,
          "velocity": 0.834646
        },
        {
          "time": 489.264924,
          "name": "G5",
          "midi": 79,
          "duration": 0.173781,
          "velocity": 0.818898
        },
        {
          "time": 489.264924,
          "name": "G4",
          "midi": 67,
          "duration": 0.173781,
          "velocity": 0.818898
        },
        {
          "time": 489.444802,
          "name": "G6",
          "midi": 91,
          "duration": 0.347561,
          "velocity": 0.834646
        },
        {
          "time": 489.447851,
          "name": "G5",
          "midi": 79,
          "duration": 0.347561,
          "velocity": 0.818898
        },
        {
          "time": 489.447851,
          "name": "G4",
          "midi": 67,
          "duration": 0.347561,
          "velocity": 0.818898
        },
        {
          "time": 489.810305,
          "name": "G5",
          "midi": 79,
          "duration": 0.163793,
          "velocity": 0.834646
        },
        {
          "time": 489.813179,
          "name": "G4",
          "midi": 67,
          "duration": 0.163793,
          "velocity": 0.818898
        },
        {
          "time": 489.982719,
          "name": "G5",
          "midi": 79,
          "duration": 0.163793,
          "velocity": 0.834646
        },
        {
          "time": 489.985593,
          "name": "G4",
          "midi": 67,
          "duration": 0.163793,
          "velocity": 0.818898
        },
        {
          "time": 490.149386,
          "name": "E4",
          "midi": 64,
          "duration": 1.076536,
          "velocity": 0.88189
        },
        {
          "time": 490.149386,
          "name": "C4",
          "midi": 60,
          "duration": 1.076536,
          "velocity": 0.88189
        },
        {
          "time": 490.155484,
          "name": "G5",
          "midi": 79,
          "duration": 0.347561,
          "velocity": 0.834646
        },
        {
          "time": 490.158533,
          "name": "G4",
          "midi": 67,
          "duration": 0.347561,
          "velocity": 0.818898
        },
        {
          "time": 490.521338,
          "name": "A5",
          "midi": 81,
          "duration": 0.173781,
          "velocity": 0.834646
        },
        {
          "time": 490.524387,
          "name": "A4",
          "midi": 69,
          "duration": 0.173781,
          "velocity": 0.818898
        },
        {
          "time": 490.704265,
          "name": "A5",
          "midi": 81,
          "duration": 0.173781,
          "velocity": 0.834646
        },
        {
          "time": 490.707314,
          "name": "A4",
          "midi": 69,
          "duration": 0.173781,
          "velocity": 0.818898
        },
        {
          "time": 490.886841,
          "name": "A5",
          "midi": 81,
          "duration": 0.327587,
          "velocity": 0.834646
        },
        {
          "time": 490.889715,
          "name": "A4",
          "midi": 69,
          "duration": 0.327587,
          "velocity": 0.818898
        },
        {
          "time": 491.225922,
          "name": "F4",
          "midi": 65,
          "duration": 1.076536,
          "velocity": 0.88189
        },
        {
          "time": 491.225922,
          "name": "D4",
          "midi": 62,
          "duration": 1.076536,
          "velocity": 0.88189
        },
        {
          "time": 491.23202,
          "name": "D6",
          "midi": 86,
          "duration": 0.173781,
          "velocity": 0.834646
        },
        {
          "time": 491.235069,
          "name": "D5",
          "midi": 74,
          "duration": 0.173781,
          "velocity": 0.818898
        },
        {
          "time": 491.414947,
          "name": "D6",
          "midi": 86,
          "duration": 0.173781,
          "velocity": 0.834646
        },
        {
          "time": 491.417996,
          "name": "D5",
          "midi": 74,
          "duration": 0.173781,
          "velocity": 0.818898
        },
        {
          "time": 491.597874,
          "name": "D6",
          "midi": 86,
          "duration": 0.347561,
          "velocity": 0.834646
        },
        {
          "time": 491.600923,
          "name": "D5",
          "midi": 74,
          "duration": 0.347561,
          "velocity": 0.818898
        },
        {
          "time": 491.963377,
          "name": "B5",
          "midi": 83,
          "duration": 0.163793,
          "velocity": 0.834646
        },
        {
          "time": 491.966251,
          "name": "B4",
          "midi": 71,
          "duration": 0.163793,
          "velocity": 0.818898
        },
        {
          "time": 492.135791,
          "name": "B5",
          "midi": 83,
          "duration": 0.163793,
          "velocity": 0.834646
        },
        {
          "time": 492.138665,
          "name": "B4",
          "midi": 71,
          "duration": 0.163793,
          "velocity": 0.818898
        },
        {
          "time": 492.302458,
          "name": "G4",
          "midi": 67,
          "duration": 1.076536,
          "velocity": 0.88189
        },
        {
          "time": 492.302458,
          "name": "E4",
          "midi": 64,
          "duration": 1.076536,
          "velocity": 0.88189
        },
        {
          "time": 492.308556,
          "name": "B5",
          "midi": 83,
          "duration": 0.347561,
          "velocity": 0.834646
        },
        {
          "time": 492.311605,
          "name": "B4",
          "midi": 71,
          "duration": 0.347561,
          "velocity": 0.818898
        },
        {
          "time": 492.67441,
          "name": "C6",
          "midi": 84,
          "duration": 0.173781,
          "velocity": 0.834646
        },
        {
          "time": 492.677459,
          "name": "C5",
          "midi": 72,
          "duration": 0.173781,
          "velocity": 0.818898
        },
        {
          "time": 492.857337,
          "name": "C6",
          "midi": 84,
          "duration": 0.173781,
          "velocity": 0.834646
        },
        {
          "time": 492.860386,
          "name": "C5",
          "midi": 72,
          "duration": 0.173781,
          "velocity": 0.818898
        },
        {
          "time": 493.039913,
          "name": "C6",
          "midi": 84,
          "duration": 0.327587,
          "velocity": 0.834646
        },
        {
          "time": 493.042787,
          "name": "C5",
          "midi": 72,
          "duration": 0.327587,
          "velocity": 0.818898
        },
        {
          "time": 493.378994,
          "name": "D4",
          "midi": 62,
          "duration": 1.076536,
          "velocity": 0.88189
        },
        {
          "time": 493.378994,
          "name": "B3",
          "midi": 59,
          "duration": 1.076536,
          "velocity": 0.88189
        },
        {
          "time": 493.385092,
          "name": "G6",
          "midi": 91,
          "duration": 0.173781,
          "velocity": 0.834646
        },
        {
          "time": 493.388141,
          "name": "G5",
          "midi": 79,
          "duration": 0.173781,
          "velocity": 0.818898
        },
        {
          "time": 493.388141,
          "name": "G4",
          "midi": 67,
          "duration": 0.173781,
          "velocity": 0.818898
        },
        {
          "time": 493.568019,
          "name": "G6",
          "midi": 91,
          "duration": 0.173781,
          "velocity": 0.834646
        },
        {
          "time": 493.571068,
          "name": "G5",
          "midi": 79,
          "duration": 0.173781,
          "velocity": 0.818898
        },
        {
          "time": 493.571068,
          "name": "G4",
          "midi": 67,
          "duration": 0.173781,
          "velocity": 0.818898
        },
        {
          "time": 493.750946,
          "name": "G6",
          "midi": 91,
          "duration": 0.347561,
          "velocity": 0.834646
        },
        {
          "time": 493.753995,
          "name": "G5",
          "midi": 79,
          "duration": 0.347561,
          "velocity": 0.818898
        },
        {
          "time": 493.753995,
          "name": "G4",
          "midi": 67,
          "duration": 0.347561,
          "velocity": 0.818898
        },
        {
          "time": 494.116449,
          "name": "G5",
          "midi": 79,
          "duration": 0.163793,
          "velocity": 0.834646
        },
        {
          "time": 494.119323,
          "name": "G4",
          "midi": 67,
          "duration": 0.163793,
          "velocity": 0.818898
        },
        {
          "time": 494.288863,
          "name": "G5",
          "midi": 79,
          "duration": 0.163793,
          "velocity": 0.834646
        },
        {
          "time": 494.291737,
          "name": "G4",
          "midi": 67,
          "duration": 0.163793,
          "velocity": 0.818898
        },
        {
          "time": 494.45553,
          "name": "E4",
          "midi": 64,
          "duration": 1.076536,
          "velocity": 0.88189
        },
        {
          "time": 494.45553,
          "name": "C4",
          "midi": 60,
          "duration": 1.076536,
          "velocity": 0.88189
        },
        {
          "time": 494.461628,
          "name": "G5",
          "midi": 79,
          "duration": 0.347561,
          "velocity": 0.834646
        },
        {
          "time": 494.464677,
          "name": "G4",
          "midi": 67,
          "duration": 0.347561,
          "velocity": 0.818898
        },
        {
          "time": 494.827482,
          "name": "A5",
          "midi": 81,
          "duration": 0.173781,
          "velocity": 0.834646
        },
        {
          "time": 494.830531,
          "name": "A4",
          "midi": 69,
          "duration": 0.173781,
          "velocity": 0.818898
        },
        {
          "time": 495.010409,
          "name": "A5",
          "midi": 81,
          "duration": 0.173781,
          "velocity": 0.834646
        },
        {
          "time": 495.013458,
          "name": "A4",
          "midi": 69,
          "duration": 0.173781,
          "velocity": 0.818898
        },
        {
          "time": 495.192985,
          "name": "A5",
          "midi": 81,
          "duration": 0.327587,
          "velocity": 0.834646
        },
        {
          "time": 495.195859,
          "name": "A4",
          "midi": 69,
          "duration": 0.327587,
          "velocity": 0.818898
        },
        {
          "time": 495.532066,
          "name": "F4",
          "midi": 65,
          "duration": 1.076536,
          "velocity": 0.88189
        },
        {
          "time": 495.532066,
          "name": "D4",
          "midi": 62,
          "duration": 1.076536,
          "velocity": 0.88189
        },
        {
          "time": 495.538164,
          "name": "D6",
          "midi": 86,
          "duration": 0.173781,
          "velocity": 0.834646
        },
        {
          "time": 495.541213,
          "name": "D5",
          "midi": 74,
          "duration": 0.173781,
          "velocity": 0.818898
        },
        {
          "time": 495.721091,
          "name": "D6",
          "midi": 86,
          "duration": 0.173781,
          "velocity": 0.834646
        },
        {
          "time": 495.72414,
          "name": "D5",
          "midi": 74,
          "duration": 0.173781,
          "velocity": 0.818898
        },
        {
          "time": 495.904018,
          "name": "D6",
          "midi": 86,
          "duration": 0.347561,
          "velocity": 0.834646
        },
        {
          "time": 495.907067,
          "name": "D5",
          "midi": 74,
          "duration": 0.347561,
          "velocity": 0.818898
        },
        {
          "time": 496.269521,
          "name": "B5",
          "midi": 83,
          "duration": 0.163793,
          "velocity": 0.834646
        },
        {
          "time": 496.272395,
          "name": "B4",
          "midi": 71,
          "duration": 0.163793,
          "velocity": 0.818898
        },
        {
          "time": 496.441935,
          "name": "B5",
          "midi": 83,
          "duration": 0.163793,
          "velocity": 0.834646
        },
        {
          "time": 496.444809,
          "name": "B4",
          "midi": 71,
          "duration": 0.163793,
          "velocity": 0.818898
        },
        {
          "time": 496.608602,
          "name": "G4",
          "midi": 67,
          "duration": 1.118408,
          "velocity": 0.88189
        },
        {
          "time": 496.608602,
          "name": "E4",
          "midi": 64,
          "duration": 1.118408,
          "velocity": 0.88189
        },
        {
          "time": 496.6147,
          "name": "B5",
          "midi": 83,
          "duration": 0.173781,
          "velocity": 0.834646
        },
        {
          "time": 496.617749,
          "name": "B5",
          "midi": 83,
          "duration": 0.173781,
          "velocity": 0.818898
        },
        {
          "time": 496.617749,
          "name": "B4",
          "midi": 71,
          "duration": 0.173781,
          "velocity": 0.818898
        },
        {
          "time": 496.797627,
          "name": "C6",
          "midi": 84,
          "duration": 0.173781,
          "velocity": 0.834646
        },
        {
          "time": 496.800676,
          "name": "C6",
          "midi": 84,
          "duration": 0.173781,
          "velocity": 0.818898
        },
        {
          "time": 496.800676,
          "name": "C5",
          "midi": 72,
          "duration": 0.173781,
          "velocity": 0.818898
        },
        {
          "time": 496.980554,
          "name": "B5",
          "midi": 83,
          "duration": 0.173781,
          "velocity": 0.834646
        },
        {
          "time": 496.983603,
          "name": "B5",
          "midi": 83,
          "duration": 0.173781,
          "velocity": 0.818898
        },
        {
          "time": 496.983603,
          "name": "B4",
          "midi": 71,
          "duration": 0.173781,
          "velocity": 0.818898
        },
        {
          "time": 497.163481,
          "name": "A5",
          "midi": 81,
          "duration": 0.173781,
          "velocity": 0.834646
        },
        {
          "time": 497.16653,
          "name": "A5",
          "midi": 81,
          "duration": 0.173781,
          "velocity": 0.818898
        },
        {
          "time": 497.16653,
          "name": "A4",
          "midi": 69,
          "duration": 0.173781,
          "velocity": 0.818898
        },
        {
          "time": 497.346057,
          "name": "G5",
          "midi": 79,
          "duration": 0.366667,
          "velocity": 0.834646
        },
        {
          "time": 497.348931,
          "name": "G5",
          "midi": 79,
          "duration": 0.367365,
          "velocity": 0.818898
        },
        {
          "time": 497.348931,
          "name": "G4",
          "midi": 67,
          "duration": 0.367365,
          "velocity": 0.818898
        },
        {
          "time": 497.72701,
          "name": "D4",
          "midi": 62,
          "duration": 1.076536,
          "velocity": 0.88189
        },
        {
          "time": 497.72701,
          "name": "B3",
          "midi": 59,
          "duration": 1.076536,
          "velocity": 0.88189
        },
        {
          "time": 497.733107,
          "name": "G6",
          "midi": 91,
          "duration": 0.173781,
          "velocity": 0.834646
        },
        {
          "time": 497.736156,
          "name": "G5",
          "midi": 79,
          "duration": 0.173781,
          "velocity": 0.818898
        },
        {
          "time": 497.736156,
          "name": "G4",
          "midi": 67,
          "duration": 0.173781,
          "velocity": 0.818898
        },
        {
          "time": 497.916034,
          "name": "G6",
          "midi": 91,
          "duration": 0.173781,
          "velocity": 0.834646
        },
        {
          "time": 497.919083,
          "name": "G5",
          "midi": 79,
          "duration": 0.173781,
          "velocity": 0.818898
        },
        {
          "time": 497.919083,
          "name": "G4",
          "midi": 67,
          "duration": 0.173781,
          "velocity": 0.818898
        },
        {
          "time": 498.098961,
          "name": "G6",
          "midi": 91,
          "duration": 0.347561,
          "velocity": 0.834646
        },
        {
          "time": 498.10201,
          "name": "G5",
          "midi": 79,
          "duration": 0.347561,
          "velocity": 0.818898
        },
        {
          "time": 498.10201,
          "name": "G4",
          "midi": 67,
          "duration": 0.347561,
          "velocity": 0.818898
        },
        {
          "time": 498.464465,
          "name": "G5",
          "midi": 79,
          "duration": 0.163793,
          "velocity": 0.834646
        },
        {
          "time": 498.467338,
          "name": "G4",
          "midi": 67,
          "duration": 0.163793,
          "velocity": 0.818898
        },
        {
          "time": 498.636879,
          "name": "G5",
          "midi": 79,
          "duration": 0.163793,
          "velocity": 0.834646
        },
        {
          "time": 498.639752,
          "name": "G4",
          "midi": 67,
          "duration": 0.163793,
          "velocity": 0.818898
        },
        {
          "time": 498.803546,
          "name": "E4",
          "midi": 64,
          "duration": 1.076536,
          "velocity": 0.88189
        },
        {
          "time": 498.803546,
          "name": "C4",
          "midi": 60,
          "duration": 1.076536,
          "velocity": 0.88189
        },
        {
          "time": 498.809643,
          "name": "G5",
          "midi": 79,
          "duration": 0.347561,
          "velocity": 0.834646
        },
        {
          "time": 498.812692,
          "name": "G4",
          "midi": 67,
          "duration": 0.347561,
          "velocity": 0.818898
        },
        {
          "time": 499.175497,
          "name": "A5",
          "midi": 81,
          "duration": 0.173781,
          "velocity": 0.834646
        },
        {
          "time": 499.178546,
          "name": "A4",
          "midi": 69,
          "duration": 0.173781,
          "velocity": 0.818898
        },
        {
          "time": 499.358424,
          "name": "A5",
          "midi": 81,
          "duration": 0.173781,
          "velocity": 0.834646
        },
        {
          "time": 499.361473,
          "name": "A4",
          "midi": 69,
          "duration": 0.173781,
          "velocity": 0.818898
        },
        {
          "time": 499.541001,
          "name": "A5",
          "midi": 81,
          "duration": 0.327587,
          "velocity": 0.834646
        },
        {
          "time": 499.543874,
          "name": "A4",
          "midi": 69,
          "duration": 0.327587,
          "velocity": 0.818898
        },
        {
          "time": 499.880082,
          "name": "F4",
          "midi": 65,
          "duration": 1.076536,
          "velocity": 0.88189
        },
        {
          "time": 499.880082,
          "name": "D4",
          "midi": 62,
          "duration": 1.076536,
          "velocity": 0.88189
        },
        {
          "time": 499.886179,
          "name": "D6",
          "midi": 86,
          "duration": 0.173781,
          "velocity": 0.834646
        },
        {
          "time": 499.889228,
          "name": "D5",
          "midi": 74,
          "duration": 0.173781,
          "velocity": 0.818898
        },
        {
          "time": 500.069106,
          "name": "D6",
          "midi": 86,
          "duration": 0.173781,
          "velocity": 0.834646
        },
        {
          "time": 500.072155,
          "name": "D5",
          "midi": 74,
          "duration": 0.173781,
          "velocity": 0.818898
        },
        {
          "time": 500.252033,
          "name": "D6",
          "midi": 86,
          "duration": 0.347561,
          "velocity": 0.834646
        },
        {
          "time": 500.255082,
          "name": "D5",
          "midi": 74,
          "duration": 0.347561,
          "velocity": 0.818898
        },
        {
          "time": 500.617537,
          "name": "B5",
          "midi": 83,
          "duration": 0.163793,
          "velocity": 0.834646
        },
        {
          "time": 500.62041,
          "name": "B4",
          "midi": 71,
          "duration": 0.163793,
          "velocity": 0.818898
        },
        {
          "time": 500.789951,
          "name": "B5",
          "midi": 83,
          "duration": 0.163793,
          "velocity": 0.834646
        },
        {
          "time": 500.792824,
          "name": "B4",
          "midi": 71,
          "duration": 0.163793,
          "velocity": 0.818898
        },
        {
          "time": 500.956618,
          "name": "G4",
          "midi": 67,
          "duration": 1.076536,
          "velocity": 0.88189
        },
        {
          "time": 500.956618,
          "name": "E4",
          "midi": 64,
          "duration": 1.076536,
          "velocity": 0.88189
        },
        {
          "time": 500.962715,
          "name": "B5",
          "midi": 83,
          "duration": 0.347561,
          "velocity": 0.834646
        },
        {
          "time": 500.965764,
          "name": "B4",
          "midi": 71,
          "duration": 0.347561,
          "velocity": 0.818898
        },
        {
          "time": 501.328569,
          "name": "C6",
          "midi": 84,
          "duration": 0.173781,
          "velocity": 0.834646
        },
        {
          "time": 501.331618,
          "name": "C5",
          "midi": 72,
          "duration": 0.173781,
          "velocity": 0.818898
        },
        {
          "time": 501.511496,
          "name": "C6",
          "midi": 84,
          "duration": 0.173781,
          "velocity": 0.834646
        },
        {
          "time": 501.514545,
          "name": "C5",
          "midi": 72,
          "duration": 0.173781,
          "velocity": 0.818898
        },
        {
          "time": 501.694073,
          "name": "C6",
          "midi": 84,
          "duration": 0.327587,
          "velocity": 0.834646
        },
        {
          "time": 501.696946,
          "name": "C5",
          "midi": 72,
          "duration": 0.327587,
          "velocity": 0.818898
        },
        {
          "time": 502.033154,
          "name": "D4",
          "midi": 62,
          "duration": 1.076536,
          "velocity": 0.88189
        },
        {
          "time": 502.033154,
          "name": "B3",
          "midi": 59,
          "duration": 1.076536,
          "velocity": 0.88189
        },
        {
          "time": 502.039251,
          "name": "G6",
          "midi": 91,
          "duration": 0.173781,
          "velocity": 0.834646
        },
        {
          "time": 502.0423,
          "name": "G5",
          "midi": 79,
          "duration": 0.173781,
          "velocity": 0.818898
        },
        {
          "time": 502.0423,
          "name": "G4",
          "midi": 67,
          "duration": 0.173781,
          "velocity": 0.818898
        },
        {
          "time": 502.222178,
          "name": "G6",
          "midi": 91,
          "duration": 0.173781,
          "velocity": 0.834646
        },
        {
          "time": 502.225227,
          "name": "G5",
          "midi": 79,
          "duration": 0.173781,
          "velocity": 0.818898
        },
        {
          "time": 502.225227,
          "name": "G4",
          "midi": 67,
          "duration": 0.173781,
          "velocity": 0.818898
        },
        {
          "time": 502.405105,
          "name": "G6",
          "midi": 91,
          "duration": 0.347561,
          "velocity": 0.834646
        },
        {
          "time": 502.408154,
          "name": "G5",
          "midi": 79,
          "duration": 0.347561,
          "velocity": 0.818898
        },
        {
          "time": 502.408154,
          "name": "G4",
          "midi": 67,
          "duration": 0.347561,
          "velocity": 0.818898
        },
        {
          "time": 502.770609,
          "name": "G5",
          "midi": 79,
          "duration": 0.163793,
          "velocity": 0.834646
        },
        {
          "time": 502.773482,
          "name": "G4",
          "midi": 67,
          "duration": 0.163793,
          "velocity": 0.818898
        },
        {
          "time": 502.943023,
          "name": "G5",
          "midi": 79,
          "duration": 0.163793,
          "velocity": 0.834646
        },
        {
          "time": 502.945896,
          "name": "G4",
          "midi": 67,
          "duration": 0.163793,
          "velocity": 0.818898
        },
        {
          "time": 503.10969,
          "name": "E4",
          "midi": 64,
          "duration": 1.076536,
          "velocity": 0.88189
        },
        {
          "time": 503.10969,
          "name": "C4",
          "midi": 60,
          "duration": 1.076536,
          "velocity": 0.88189
        },
        {
          "time": 503.115787,
          "name": "G5",
          "midi": 79,
          "duration": 0.347561,
          "velocity": 0.834646
        },
        {
          "time": 503.118836,
          "name": "G4",
          "midi": 67,
          "duration": 0.347561,
          "velocity": 0.818898
        },
        {
          "time": 503.481641,
          "name": "A5",
          "midi": 81,
          "duration": 0.173781,
          "velocity": 0.834646
        },
        {
          "time": 503.48469,
          "name": "A4",
          "midi": 69,
          "duration": 0.173781,
          "velocity": 0.818898
        },
        {
          "time": 503.664568,
          "name": "A5",
          "midi": 81,
          "duration": 0.173781,
          "velocity": 0.834646
        },
        {
          "time": 503.667617,
          "name": "A4",
          "midi": 69,
          "duration": 0.173781,
          "velocity": 0.818898
        },
        {
          "time": 503.847145,
          "name": "A5",
          "midi": 81,
          "duration": 0.327587,
          "velocity": 0.834646
        },
        {
          "time": 503.850018,
          "name": "A4",
          "midi": 69,
          "duration": 0.327587,
          "velocity": 0.818898
        },
        {
          "time": 504.186226,
          "name": "F4",
          "midi": 65,
          "duration": 1.076536,
          "velocity": 0.88189
        },
        {
          "time": 504.186226,
          "name": "D4",
          "midi": 62,
          "duration": 1.076536,
          "velocity": 0.88189
        },
        {
          "time": 504.192323,
          "name": "D6",
          "midi": 86,
          "duration": 0.173781,
          "velocity": 0.834646
        },
        {
          "time": 504.195372,
          "name": "D5",
          "midi": 74,
          "duration": 0.173781,
          "velocity": 0.818898
        },
        {
          "time": 504.37525,
          "name": "D6",
          "midi": 86,
          "duration": 0.173781,
          "velocity": 0.834646
        },
        {
          "time": 504.378299,
          "name": "D5",
          "midi": 74,
          "duration": 0.173781,
          "velocity": 0.818898
        },
        {
          "time": 504.558177,
          "name": "D6",
          "midi": 86,
          "duration": 0.347561,
          "velocity": 0.834646
        },
        {
          "time": 504.561226,
          "name": "D5",
          "midi": 74,
          "duration": 0.347561,
          "velocity": 0.818898
        },
        {
          "time": 504.923681,
          "name": "B5",
          "midi": 83,
          "duration": 0.163793,
          "velocity": 0.834646
        },
        {
          "time": 504.926554,
          "name": "B4",
          "midi": 71,
          "duration": 0.163793,
          "velocity": 0.818898
        },
        {
          "time": 505.096095,
          "name": "B5",
          "midi": 83,
          "duration": 0.163793,
          "velocity": 0.834646
        },
        {
          "time": 505.098968,
          "name": "B4",
          "midi": 71,
          "duration": 0.163793,
          "velocity": 0.818898
        },
        {
          "time": 505.262762,
          "name": "G4",
          "midi": 67,
          "duration": 1.13647,
          "velocity": 0.88189
        },
        {
          "time": 505.262762,
          "name": "E4",
          "midi": 64,
          "duration": 1.13647,
          "velocity": 0.88189
        },
        {
          "time": 505.268859,
          "name": "B5",
          "midi": 83,
          "duration": 0.173781,
          "velocity": 0.834646
        },
        {
          "time": 505.271908,
          "name": "B5",
          "midi": 83,
          "duration": 0.173781,
          "velocity": 0.818898
        },
        {
          "time": 505.271908,
          "name": "B4",
          "midi": 71,
          "duration": 0.173781,
          "velocity": 0.818898
        },
        {
          "time": 505.451786,
          "name": "C6",
          "midi": 84,
          "duration": 0.173781,
          "velocity": 0.834646
        },
        {
          "time": 505.454835,
          "name": "C6",
          "midi": 84,
          "duration": 0.173781,
          "velocity": 0.818898
        },
        {
          "time": 505.454835,
          "name": "C5",
          "midi": 72,
          "duration": 0.173781,
          "velocity": 0.818898
        },
        {
          "time": 505.634713,
          "name": "D6",
          "midi": 86,
          "duration": 0.173781,
          "velocity": 0.834646
        },
        {
          "time": 505.637762,
          "name": "D5",
          "midi": 74,
          "duration": 0.173781,
          "velocity": 0.818898
        },
        {
          "time": 505.81764,
          "name": "E6",
          "midi": 88,
          "duration": 0.173781,
          "velocity": 0.834646
        },
        {
          "time": 505.820689,
          "name": "E4",
          "midi": 64,
          "duration": 0.173781,
          "velocity": 0.818898
        },
        {
          "time": 505.820689,
          "name": "E5",
          "midi": 76,
          "duration": 0.173781,
          "velocity": 0.818898
        },
        {
          "time": 506.000819,
          "name": "F#6",
          "midi": 90,
          "duration": 0.180952,
          "velocity": 0.834646
        },
        {
          "time": 506.003994,
          "name": "F#4",
          "midi": 66,
          "duration": 0.180952,
          "velocity": 0.818898
        },
        {
          "time": 506.003994,
          "name": "F#5",
          "midi": 78,
          "duration": 0.180952,
          "velocity": 0.818898
        },
        {
          "time": 506.192089,
          "name": "G6",
          "midi": 91,
          "duration": 0.203571,
          "velocity": 0.834646
        },
        {
          "time": 506.19566,
          "name": "G4",
          "midi": 67,
          "duration": 0.203571,
          "velocity": 0.818898
        },
        {
          "time": 506.19566,
          "name": "G5",
          "midi": 79,
          "duration": 0.203571,
          "velocity": 0.818898
        },
        {
          "time": 506.399231,
          "name": "C6",
          "midi": 84,
          "duration": 0.173781,
          "velocity": 0.88189
        },
        {
          "time": 506.582158,
          "name": "C6",
          "midi": 84,
          "duration": 0.173781,
          "velocity": 0.88189
        },
        {
          "time": 506.765085,
          "name": "C6",
          "midi": 84,
          "duration": 0.347561,
          "velocity": 0.88189
        },
        {
          "time": 507.130939,
          "name": "C5",
          "midi": 72,
          "duration": 0.163793,
          "velocity": 0.88189
        },
        {
          "time": 507.303353,
          "name": "C5",
          "midi": 72,
          "duration": 0.163793,
          "velocity": 0.88189
        },
        {
          "time": 507.475767,
          "name": "C5",
          "midi": 72,
          "duration": 0.347561,
          "velocity": 0.88189
        },
        {
          "time": 507.841621,
          "name": "D5",
          "midi": 74,
          "duration": 0.173781,
          "velocity": 0.88189
        },
        {
          "time": 508.024548,
          "name": "D5",
          "midi": 74,
          "duration": 0.173781,
          "velocity": 0.88189
        },
        {
          "time": 508.207475,
          "name": "D5",
          "midi": 74,
          "duration": 0.327587,
          "velocity": 0.88189
        },
        {
          "time": 508.552303,
          "name": "G5",
          "midi": 79,
          "duration": 0.173781,
          "velocity": 0.88189
        },
        {
          "time": 508.73523,
          "name": "G5",
          "midi": 79,
          "duration": 0.173781,
          "velocity": 0.88189
        },
        {
          "time": 508.918157,
          "name": "G5",
          "midi": 79,
          "duration": 0.347561,
          "velocity": 0.88189
        },
        {
          "time": 509.284011,
          "name": "E5",
          "midi": 76,
          "duration": 0.163793,
          "velocity": 0.88189
        },
        {
          "time": 509.456425,
          "name": "E5",
          "midi": 76,
          "duration": 0.163793,
          "velocity": 0.88189
        },
        {
          "time": 509.628839,
          "name": "E5",
          "midi": 76,
          "duration": 0.347561,
          "velocity": 0.88189
        },
        {
          "time": 509.994693,
          "name": "F5",
          "midi": 77,
          "duration": 0.173781,
          "velocity": 0.88189
        },
        {
          "time": 510.17762,
          "name": "F5",
          "midi": 77,
          "duration": 0.173781,
          "velocity": 0.88189
        },
        {
          "time": 510.360547,
          "name": "F5",
          "midi": 77,
          "duration": 0.327587,
          "velocity": 0.88189
        },
        {
          "time": 510.705375,
          "name": "C6",
          "midi": 84,
          "duration": 0.173781,
          "velocity": 0.88189
        },
        {
          "time": 510.888302,
          "name": "C6",
          "midi": 84,
          "duration": 0.173781,
          "velocity": 0.88189
        },
        {
          "time": 511.071229,
          "name": "C6",
          "midi": 84,
          "duration": 0.347561,
          "velocity": 0.88189
        },
        {
          "time": 511.437083,
          "name": "C5",
          "midi": 72,
          "duration": 0.163793,
          "velocity": 0.88189
        },
        {
          "time": 511.609497,
          "name": "C5",
          "midi": 72,
          "duration": 0.163793,
          "velocity": 0.88189
        },
        {
          "time": 511.781911,
          "name": "C5",
          "midi": 72,
          "duration": 0.347561,
          "velocity": 0.88189
        },
        {
          "time": 512.147765,
          "name": "D5",
          "midi": 74,
          "duration": 0.173781,
          "velocity": 0.88189
        },
        {
          "time": 512.330692,
          "name": "D5",
          "midi": 74,
          "duration": 0.173781,
          "velocity": 0.88189
        },
        {
          "time": 512.513619,
          "name": "D5",
          "midi": 74,
          "duration": 0.327587,
          "velocity": 0.88189
        },
        {
          "time": 512.858447,
          "name": "G5",
          "midi": 79,
          "duration": 0.173781,
          "velocity": 0.88189
        },
        {
          "time": 513.041374,
          "name": "G5",
          "midi": 79,
          "duration": 0.173781,
          "velocity": 0.88189
        },
        {
          "time": 513.224301,
          "name": "G5",
          "midi": 79,
          "duration": 0.347561,
          "velocity": 0.88189
        },
        {
          "time": 513.590155,
          "name": "E5",
          "midi": 76,
          "duration": 0.163793,
          "velocity": 0.88189
        },
        {
          "time": 513.762569,
          "name": "E5",
          "midi": 76,
          "duration": 0.163793,
          "velocity": 0.88189
        },
        {
          "time": 513.934983,
          "name": "E5",
          "midi": 76,
          "duration": 0.192307,
          "velocity": 0.88189
        },
        {
          "time": 514.127291,
          "name": "F5",
          "midi": 77,
          "duration": 0.192308,
          "velocity": 0.88189
        },
        {
          "time": 514.319598,
          "name": "C6",
          "midi": 84,
          "duration": 0.2,
          "velocity": 0.88189
        },
        {
          "time": 514.519598,
          "name": "A#5",
          "midi": 82,
          "duration": 0.2,
          "velocity": 0.88189
        },
        {
          "time": 514.719598,
          "name": "A5",
          "midi": 81,
          "duration": 0.1875,
          "velocity": 0.88189
        },
        {
          "time": 514.907098,
          "name": "G5",
          "midi": 79,
          "duration": 0.1875,
          "velocity": 0.88189
        },
        {
          "time": 515.094598,
          "name": "F5",
          "midi": 77,
          "duration": 0.76923,
          "velocity": 0.88189
        },
        {
          "time": 515.863828,
          "name": "G5",
          "midi": 79,
          "duration": 0.344828,
          "velocity": 0.88189
        },
        {
          "time": 516.208656,
          "name": "A5",
          "midi": 81,
          "duration": 0.76923,
          "velocity": 0.88189
        },
        {
          "time": 516.977886,
          "name": "A#5",
          "midi": 82,
          "duration": 0.344828,
          "velocity": 0.88189
        },
        {
          "time": 517.322714,
          "name": "C6",
          "midi": 84,
          "duration": 0.384615,
          "velocity": 0.88189
        },
        {
          "time": 517.707329,
          "name": "D6",
          "midi": 86,
          "duration": 0.384615,
          "velocity": 0.88189
        },
        {
          "time": 518.091944,
          "name": "D#6",
          "midi": 87,
          "duration": 0.344828,
          "velocity": 0.88189
        },
        {
          "time": 518.436772,
          "name": "F6",
          "midi": 89,
          "duration": 0.76923,
          "velocity": 0.88189
        },
        {
          "time": 519.206002,
          "name": "F#6",
          "midi": 90,
          "duration": 0.344828,
          "velocity": 0.88189
        },
        {
          "time": 519.55083,
          "name": "G6",
          "midi": 91,
          "duration": 0.76923,
          "velocity": 0.88189
        },
        {
          "time": 520.32006,
          "name": "F6",
          "midi": 89,
          "duration": 0.344828,
          "velocity": 0.88189
        },
        {
          "time": 520.664888,
          "name": "D#6",
          "midi": 87,
          "duration": 0.76923,
          "velocity": 0.88189
        },
        {
          "time": 521.434118,
          "name": "D6",
          "midi": 86,
          "duration": 0.344828,
          "velocity": 0.88189
        },
        {
          "time": 521.778946,
          "name": "C6",
          "midi": 84,
          "duration": 0.384615,
          "velocity": 0.88189
        },
        {
          "time": 522.163561,
          "name": "G5",
          "midi": 79,
          "duration": 0.384615,
          "velocity": 0.88189
        },
        {
          "time": 522.548176,
          "name": "D#5",
          "midi": 75,
          "duration": 0.344828,
          "velocity": 0.88189
        },
        {
          "time": 522.893004,
          "name": "C5",
          "midi": 72,
          "duration": 0.192307,
          "velocity": 0.88189
        },
        {
          "time": 524.007062,
          "name": "C5",
          "midi": 72,
          "duration": 0.192307,
          "velocity": 0.88189
        },
        {
          "time": 524.391677,
          "name": "C4",
          "midi": 60,
          "duration": 0.346153,
          "velocity": 0.88189
        },
        {
          "time": 524.776292,
          "name": "C4",
          "midi": 60,
          "duration": 0.310345,
          "velocity": 0.88189
        },
        {
          "time": 525.505735,
          "name": "C4",
          "midi": 60,
          "duration": 0.346153,
          "velocity": 0.88189
        },
        {
          "time": 525.89035,
          "name": "C4",
          "midi": 60,
          "duration": 0.310345,
          "velocity": 0.88189
        },
        {
          "time": 526.619793,
          "name": "D4",
          "midi": 62,
          "duration": 0.346153,
          "velocity": 0.88189
        },
        {
          "time": 527.004408,
          "name": "D4",
          "midi": 62,
          "duration": 0.310345,
          "velocity": 0.88189
        },
        {
          "time": 527.733851,
          "name": "D4",
          "midi": 62,
          "duration": 0.346153,
          "velocity": 0.88189
        },
        {
          "time": 528.118466,
          "name": "D4",
          "midi": 62,
          "duration": 0.310345,
          "velocity": 0.88189
        },
        {
          "time": 528.847909,
          "name": "D#4",
          "midi": 63,
          "duration": 0.346153,
          "velocity": 0.88189
        },
        {
          "time": 529.232524,
          "name": "D#4",
          "midi": 63,
          "duration": 0.310345,
          "velocity": 0.88189
        },
        {
          "time": 529.961967,
          "name": "D#4",
          "midi": 63,
          "duration": 0.346153,
          "velocity": 0.88189
        },
        {
          "time": 530.346582,
          "name": "D#4",
          "midi": 63,
          "duration": 0.310345,
          "velocity": 0.88189
        },
        {
          "time": 531.076025,
          "name": "D4",
          "midi": 62,
          "duration": 0.346153,
          "velocity": 0.88189
        },
        {
          "time": 531.46064,
          "name": "D4",
          "midi": 62,
          "duration": 0.310345,
          "velocity": 0.88189
        },
        {
          "time": 531.805468,
          "name": "D4",
          "midi": 62,
          "duration": 0.192307,
          "velocity": 0.88189
        },
        {
          "time": 532.190083,
          "name": "D#4",
          "midi": 63,
          "duration": 0.192307,
          "velocity": 0.88189
        },
        {
          "time": 532.574698,
          "name": "F4",
          "midi": 65,
          "duration": 0.172414,
          "velocity": 0.88189
        },
        {
          "time": 532.919526,
          "name": "F5",
          "midi": 77,
          "duration": 0.76923,
          "velocity": 0.88189
        },
        {
          "time": 533.688756,
          "name": "G5",
          "midi": 79,
          "duration": 0.344828,
          "velocity": 0.88189
        },
        {
          "time": 534.033584,
          "name": "A5",
          "midi": 81,
          "duration": 0.76923,
          "velocity": 0.88189
        },
        {
          "time": 534.802814,
          "name": "A#5",
          "midi": 82,
          "duration": 0.344828,
          "velocity": 0.88189
        },
        {
          "time": 535.147642,
          "name": "C6",
          "midi": 84,
          "duration": 0.384615,
          "velocity": 0.88189
        },
        {
          "time": 535.532257,
          "name": "D6",
          "midi": 86,
          "duration": 0.384615,
          "velocity": 0.88189
        },
        {
          "time": 535.916872,
          "name": "D#6",
          "midi": 87,
          "duration": 0.344828,
          "velocity": 0.88189
        },
        {
          "time": 536.2617,
          "name": "F6",
          "midi": 89,
          "duration": 0.76923,
          "velocity": 0.88189
        },
        {
          "time": 537.03093,
          "name": "F#6",
          "midi": 90,
          "duration": 0.344828,
          "velocity": 0.88189
        },
        {
          "time": 537.375758,
          "name": "G6",
          "midi": 91,
          "duration": 0.76923,
          "velocity": 0.88189
        },
        {
          "time": 538.144988,
          "name": "F6",
          "midi": 89,
          "duration": 0.344828,
          "velocity": 0.88189
        },
        {
          "time": 538.489816,
          "name": "D#6",
          "midi": 87,
          "duration": 0.76923,
          "velocity": 0.88189
        },
        {
          "time": 539.259046,
          "name": "D6",
          "midi": 86,
          "duration": 0.344828,
          "velocity": 0.88189
        },
        {
          "time": 539.603874,
          "name": "C6",
          "midi": 84,
          "duration": 0.384615,
          "velocity": 0.88189
        },
        {
          "time": 539.988489,
          "name": "G5",
          "midi": 79,
          "duration": 0.384615,
          "velocity": 0.88189
        },
        {
          "time": 540.373104,
          "name": "D#5",
          "midi": 75,
          "duration": 0.344828,
          "velocity": 0.88189
        },
        {
          "time": 540.717932,
          "name": "C5",
          "midi": 72,
          "duration": 0.192307,
          "velocity": 0.88189
        },
        {
          "time": 541.83199,
          "name": "C5",
          "midi": 72,
          "duration": 0.192307,
          "velocity": 0.88189
        },
        {
          "time": 542.216605,
          "name": "C4",
          "midi": 60,
          "duration": 0.346153,
          "velocity": 0.88189
        },
        {
          "time": 542.60122,
          "name": "C4",
          "midi": 60,
          "duration": 0.310345,
          "velocity": 0.88189
        },
        {
          "time": 543.330663,
          "name": "C4",
          "midi": 60,
          "duration": 0.346153,
          "velocity": 0.88189
        },
        {
          "time": 543.715278,
          "name": "C4",
          "midi": 60,
          "duration": 0.310345,
          "velocity": 0.88189
        },
        {
          "time": 544.444721,
          "name": "D4",
          "midi": 62,
          "duration": 0.346153,
          "velocity": 0.88189
        },
        {
          "time": 544.829336,
          "name": "D4",
          "midi": 62,
          "duration": 0.310345,
          "velocity": 0.88189
        },
        {
          "time": 545.558779,
          "name": "D4",
          "midi": 62,
          "duration": 0.346153,
          "velocity": 0.88189
        },
        {
          "time": 545.943394,
          "name": "D4",
          "midi": 62,
          "duration": 0.310345,
          "velocity": 0.88189
        },
        {
          "time": 546.672837,
          "name": "D#4",
          "midi": 63,
          "duration": 0.346153,
          "velocity": 0.88189
        },
        {
          "time": 547.057452,
          "name": "D#4",
          "midi": 63,
          "duration": 0.310345,
          "velocity": 0.88189
        },
        {
          "time": 547.786895,
          "name": "C4",
          "midi": 60,
          "duration": 0.346153,
          "velocity": 0.88189
        },
        {
          "time": 548.17151,
          "name": "C4",
          "midi": 60,
          "duration": 0.310345,
          "velocity": 0.88189
        },
        {
          "time": 548.516338,
          "name": "D4",
          "midi": 62,
          "duration": 0.321429,
          "velocity": 0.88189
        },
        {
          "time": 548.873481,
          "name": "D6",
          "midi": 86,
          "duration": 0.301676,
          "velocity": 0.88189
        },
        {
          "time": 548.879068,
          "name": "D6",
          "midi": 86,
          "duration": 0.301676,
          "velocity": 0.834646
        },
        {
          "time": 548.881861,
          "name": "D6",
          "midi": 86,
          "duration": 0.301676,
          "velocity": 0.818898
        },
        {
          "time": 548.881861,
          "name": "D5",
          "midi": 74,
          "duration": 0.301676,
          "velocity": 0.818898
        },
        {
          "time": 549.208677,
          "name": "D6",
          "midi": 86,
          "duration": 0.301676,
          "velocity": 0.88189
        },
        {
          "time": 549.214264,
          "name": "D6",
          "midi": 86,
          "duration": 0.301676,
          "velocity": 0.834646
        },
        {
          "time": 549.217057,
          "name": "D5",
          "midi": 74,
          "duration": 0.301676,
          "velocity": 0.818898
        },
        {
          "time": 549.217057,
          "name": "D6",
          "midi": 86,
          "duration": 0.301676,
          "velocity": 0.818898
        },
        {
          "time": 549.543873,
          "name": "D6",
          "midi": 86,
          "duration": 1.157022,
          "velocity": 0.88189
        },
        {
          "time": 549.54967,
          "name": "D6",
          "midi": 86,
          "duration": 1.180043,
          "velocity": 0.834646
        },
        {
          "time": 549.552569,
          "name": "D5",
          "midi": 74,
          "duration": 1.180026,
          "velocity": 0.818898
        },
        {
          "time": 549.552569,
          "name": "D6",
          "midi": 86,
          "duration": 1.180026,
          "velocity": 0.818898
        },
        {
          "time": 550.72395,
          "name": "D6",
          "midi": 86,
          "duration": 0.172911,
          "velocity": 0.88189
        },
        {
          "time": 550.729713,
          "name": "D6",
          "midi": 86,
          "duration": 0.172538,
          "velocity": 0.834646
        },
        {
          "time": 550.732595,
          "name": "D6",
          "midi": 86,
          "duration": 0.172351,
          "velocity": 0.818898
        },
        {
          "time": 550.732595,
          "name": "D5",
          "midi": 74,
          "duration": 0.172351,
          "velocity": 0.818898
        },
        {
          "time": 550.89686,
          "name": "E6",
          "midi": 88,
          "duration": 0.161725,
          "velocity": 0.88189
        },
        {
          "time": 550.902251,
          "name": "E6",
          "midi": 88,
          "duration": 0.161725,
          "velocity": 0.834646
        },
        {
          "time": 550.904946,
          "name": "E6",
          "midi": 88,
          "duration": 0.161725,
          "velocity": 0.818898
        },
        {
          "time": 550.904946,
          "name": "E5",
          "midi": 76,
          "duration": 0.161725,
          "velocity": 0.818898
        },
        {
          "time": 551.058585,
          "name": "D6",
          "midi": 86,
          "duration": 0.161725,
          "velocity": 0.88189
        },
        {
          "time": 551.063976,
          "name": "D6",
          "midi": 86,
          "duration": 0.161725,
          "velocity": 0.834646
        },
        {
          "time": 551.066671,
          "name": "D6",
          "midi": 86,
          "duration": 0.161725,
          "velocity": 0.818898
        },
        {
          "time": 551.066671,
          "name": "D5",
          "midi": 74,
          "duration": 0.161725,
          "velocity": 0.818898
        },
        {
          "time": 551.22031,
          "name": "C6",
          "midi": 84,
          "duration": 0.161725,
          "velocity": 0.88189
        },
        {
          "time": 551.225701,
          "name": "C6",
          "midi": 84,
          "duration": 0.161725,
          "velocity": 0.834646
        },
        {
          "time": 551.228396,
          "name": "C6",
          "midi": 84,
          "duration": 0.161725,
          "velocity": 0.818898
        },
        {
          "time": 551.228396,
          "name": "C5",
          "midi": 72,
          "duration": 0.161725,
          "velocity": 0.818898
        },
        {
          "time": 551.382035,
          "name": "B5",
          "midi": 83,
          "duration": 0.161725,
          "velocity": 0.88189
        },
        {
          "time": 551.387426,
          "name": "B5",
          "midi": 83,
          "duration": 0.161725,
          "velocity": 0.834646
        },
        {
          "time": 551.390121,
          "name": "B5",
          "midi": 83,
          "duration": 0.161725,
          "velocity": 0.818898
        },
        {
          "time": 551.390121,
          "name": "B4",
          "midi": 71,
          "duration": 0.161725,
          "velocity": 0.818898
        },
        {
          "time": 551.54376,
          "name": "C6",
          "midi": 84,
          "duration": 0.291105,
          "velocity": 0.88189
        },
        {
          "time": 551.549151,
          "name": "C6",
          "midi": 84,
          "duration": 0.291105,
          "velocity": 0.834646
        },
        {
          "time": 551.551846,
          "name": "C6",
          "midi": 84,
          "duration": 0.291105,
          "velocity": 0.818898
        },
        {
          "time": 551.551846,
          "name": "C5",
          "midi": 72,
          "duration": 0.291105,
          "velocity": 0.818898
        },
        {
          "time": 551.86721,
          "name": "A5",
          "midi": 81,
          "duration": 0.291105,
          "velocity": 0.88189
        },
        {
          "time": 551.872601,
          "name": "A5",
          "midi": 81,
          "duration": 0.291105,
          "velocity": 0.834646
        },
        {
          "time": 551.875296,
          "name": "A5",
          "midi": 81,
          "duration": 0.291105,
          "velocity": 0.818898
        },
        {
          "time": 551.875296,
          "name": "A4",
          "midi": 69,
          "duration": 0.291105,
          "velocity": 0.818898
        },
        {
          "time": 552.19066,
          "name": "D6",
          "midi": 86,
          "duration": 0.291105,
          "velocity": 0.88189
        },
        {
          "time": 552.196051,
          "name": "D6",
          "midi": 86,
          "duration": 0.291105,
          "velocity": 0.834646
        },
        {
          "time": 552.198746,
          "name": "D6",
          "midi": 86,
          "duration": 0.291105,
          "velocity": 0.818898
        },
        {
          "time": 552.198746,
          "name": "D5",
          "midi": 74,
          "duration": 0.291105,
          "velocity": 0.818898
        },
        {
          "time": 554.187686,
          "name": "G5",
          "midi": 79,
          "duration": 0.192935,
          "velocity": 0.818898
        },
        {
          "time": 554.187686,
          "name": "B4",
          "midi": 71,
          "duration": 0.192935,
          "velocity": 0.818898
        },
        {
          "time": 554.56189,
          "name": "G5",
          "midi": 79,
          "duration": 0.181883,
          "velocity": 0.818898
        },
        {
          "time": 554.56189,
          "name": "B4",
          "midi": 71,
          "duration": 0.181883,
          "velocity": 0.818898
        },
        {
          "time": 554.937321,
          "name": "G5",
          "midi": 79,
          "duration": 0.192935,
          "velocity": 0.818898
        },
        {
          "time": 554.937321,
          "name": "B4",
          "midi": 71,
          "duration": 0.192935,
          "velocity": 0.818898
        },
        {
          "time": 555.302461,
          "name": "D6",
          "midi": 86,
          "duration": 0.163142,
          "velocity": 0.88189
        },
        {
          "time": 555.305482,
          "name": "D7",
          "midi": 98,
          "duration": 0.163142,
          "velocity": 0.811024
        },
        {
          "time": 555.308504,
          "name": "D6",
          "midi": 86,
          "duration": 0.163142,
          "velocity": 0.834646
        },
        {
          "time": 555.311525,
          "name": "G5",
          "midi": 79,
          "duration": 0.181883,
          "velocity": 0.818898
        },
        {
          "time": 555.311525,
          "name": "B4",
          "midi": 71,
          "duration": 0.181883,
          "velocity": 0.818898
        },
        {
          "time": 555.48373,
          "name": "G6",
          "midi": 91,
          "duration": 0.547218,
          "velocity": 0.88189
        },
        {
          "time": 555.486956,
          "name": "G7",
          "midi": 103,
          "duration": 0.547013,
          "velocity": 0.811024
        },
        {
          "time": 555.490182,
          "name": "G6",
          "midi": 91,
          "duration": 0.546809,
          "velocity": 0.834646
        },
        {
          "time": 555.686956,
          "name": "G5",
          "midi": 79,
          "duration": 0.192935,
          "velocity": 0.818898
        },
        {
          "time": 555.686956,
          "name": "B4",
          "midi": 71,
          "duration": 0.192935,
          "velocity": 0.818898
        },
        {
          "time": 556.052096,
          "name": "B5",
          "midi": 83,
          "duration": 0.163142,
          "velocity": 0.88189
        },
        {
          "time": 556.055117,
          "name": "B6",
          "midi": 95,
          "duration": 0.163142,
          "velocity": 0.811024
        },
        {
          "time": 556.058139,
          "name": "B5",
          "midi": 83,
          "duration": 0.163142,
          "velocity": 0.834646
        },
        {
          "time": 556.06116,
          "name": "G5",
          "midi": 79,
          "duration": 0.181883,
          "velocity": 0.818898
        },
        {
          "time": 556.06116,
          "name": "B4",
          "midi": 71,
          "duration": 0.181883,
          "velocity": 0.818898
        },
        {
          "time": 556.233365,
          "name": "E6",
          "midi": 88,
          "duration": 0.547218,
          "velocity": 0.88189
        },
        {
          "time": 556.236591,
          "name": "E7",
          "midi": 100,
          "duration": 0.547013,
          "velocity": 0.811024
        },
        {
          "time": 556.239817,
          "name": "E6",
          "midi": 88,
          "duration": 0.546809,
          "velocity": 0.834646
        },
        {
          "time": 556.436591,
          "name": "F#5",
          "midi": 78,
          "duration": 0.192935,
          "velocity": 0.818898
        },
        {
          "time": 556.436591,
          "name": "C5",
          "midi": 72,
          "duration": 0.192935,
          "velocity": 0.818898
        },
        {
          "time": 556.801731,
          "name": "A5",
          "midi": 81,
          "duration": 0.163142,
          "velocity": 0.88189
        },
        {
          "time": 556.804752,
          "name": "A6",
          "midi": 93,
          "duration": 0.163142,
          "velocity": 0.811024
        },
        {
          "time": 556.807774,
          "name": "A5",
          "midi": 81,
          "duration": 0.163142,
          "velocity": 0.834646
        },
        {
          "time": 556.810795,
          "name": "F#5",
          "midi": 78,
          "duration": 0.181883,
          "velocity": 0.818898
        },
        {
          "time": 556.810795,
          "name": "C5",
          "midi": 72,
          "duration": 0.181883,
          "velocity": 0.818898
        },
        {
          "time": 556.983,
          "name": "D6",
          "midi": 86,
          "duration": 0.547218,
          "velocity": 0.88189
        },
        {
          "time": 556.986226,
          "name": "D7",
          "midi": 98,
          "duration": 0.547013,
          "velocity": 0.811024
        },
        {
          "time": 556.989452,
          "name": "D6",
          "midi": 86,
          "duration": 0.546809,
          "velocity": 0.834646
        },
        {
          "time": 557.186226,
          "name": "G5",
          "midi": 79,
          "duration": 0.192935,
          "velocity": 0.818898
        },
        {
          "time": 557.186226,
          "name": "B4",
          "midi": 71,
          "duration": 0.192935,
          "velocity": 0.818898
        },
        {
          "time": 557.551366,
          "name": "F#5",
          "midi": 78,
          "duration": 0.163142,
          "velocity": 0.88189
        },
        {
          "time": 557.554387,
          "name": "F#6",
          "midi": 90,
          "duration": 0.163142,
          "velocity": 0.811024
        },
        {
          "time": 557.557409,
          "name": "F#5",
          "midi": 78,
          "duration": 0.163142,
          "velocity": 0.834646
        },
        {
          "time": 557.56043,
          "name": "D5",
          "midi": 74,
          "duration": 0.181883,
          "velocity": 0.818898
        },
        {
          "time": 557.56043,
          "name": "B4",
          "midi": 71,
          "duration": 0.181883,
          "velocity": 0.818898
        },
        {
          "time": 557.732635,
          "name": "A5",
          "midi": 81,
          "duration": 0.05,
          "velocity": 0.88189
        },
        {
          "time": 557.735861,
          "name": "A6",
          "midi": 93,
          "duration": 0.05,
          "velocity": 0.811024
        },
        {
          "time": 557.739087,
          "name": "A5",
          "midi": 81,
          "duration": 0.05,
          "velocity": 0.834646
        },
        {
          "time": 557.781022,
          "name": "G5",
          "midi": 79,
          "duration": 0.132258,
          "velocity": 0.88189
        },
        {
          "time": 557.784248,
          "name": "G6",
          "midi": 91,
          "duration": 0.132258,
          "velocity": 0.811024
        },
        {
          "time": 557.787474,
          "name": "G5",
          "midi": 79,
          "duration": 0.132258,
          "velocity": 0.834646
        },
        {
          "time": 557.926184,
          "name": "F#5",
          "midi": 78,
          "duration": 0.174194,
          "velocity": 0.88189
        },
        {
          "time": 557.92941,
          "name": "F#6",
          "midi": 90,
          "duration": 0.174194,
          "velocity": 0.811024
        },
        {
          "time": 557.932635,
          "name": "F#5",
          "midi": 78,
          "duration": 0.174194,
          "velocity": 0.834646
        },
        {
          "time": 557.935861,
          "name": "D5",
          "midi": 74,
          "duration": 0.192935,
          "velocity": 0.818898
        },
        {
          "time": 557.935861,
          "name": "B4",
          "midi": 71,
          "duration": 0.192935,
          "velocity": 0.818898
        },
        {
          "time": 558.119732,
          "name": "G5",
          "midi": 79,
          "duration": 0.163142,
          "velocity": 0.88189
        },
        {
          "time": 558.122753,
          "name": "G6",
          "midi": 91,
          "duration": 0.163142,
          "velocity": 0.811024
        },
        {
          "time": 558.125775,
          "name": "G5",
          "midi": 79,
          "duration": 0.163142,
          "velocity": 0.834646
        },
        {
          "time": 558.301001,
          "name": "B5",
          "midi": 83,
          "duration": 0.163142,
          "velocity": 0.88189
        },
        {
          "time": 558.304022,
          "name": "B6",
          "midi": 95,
          "duration": 0.163142,
          "velocity": 0.811024
        },
        {
          "time": 558.307044,
          "name": "B5",
          "midi": 83,
          "duration": 0.163142,
          "velocity": 0.834646
        },
        {
          "time": 558.310065,
          "name": "G5",
          "midi": 79,
          "duration": 0.181883,
          "velocity": 0.818898
        },
        {
          "time": 558.310065,
          "name": "B4",
          "midi": 71,
          "duration": 0.181883,
          "velocity": 0.818898
        },
        {
          "time": 558.48227,
          "name": "E6",
          "midi": 88,
          "duration": 0.547218,
          "velocity": 0.88189
        },
        {
          "time": 558.485496,
          "name": "E7",
          "midi": 100,
          "duration": 0.547013,
          "velocity": 0.811024
        },
        {
          "time": 558.488722,
          "name": "E6",
          "midi": 88,
          "duration": 0.546809,
          "velocity": 0.834646
        },
        {
          "time": 558.685496,
          "name": "C5",
          "midi": 72,
          "duration": 0.192935,
          "velocity": 0.818898
        },
        {
          "time": 558.685496,
          "name": "F#5",
          "midi": 78,
          "duration": 0.192935,
          "velocity": 0.818898
        },
        {
          "time": 559.050636,
          "name": "G#5",
          "midi": 80,
          "duration": 0.163142,
          "velocity": 0.88189
        },
        {
          "time": 559.053657,
          "name": "G#6",
          "midi": 92,
          "duration": 0.163142,
          "velocity": 0.811024
        },
        {
          "time": 559.056679,
          "name": "G#5",
          "midi": 80,
          "duration": 0.163142,
          "velocity": 0.834646
        },
        {
          "time": 559.0597,
          "name": "F#5",
          "midi": 78,
          "duration": 0.181883,
          "velocity": 0.818898
        },
        {
          "time": 559.0597,
          "name": "C5",
          "midi": 72,
          "duration": 0.181883,
          "velocity": 0.818898
        },
        {
          "time": 559.231905,
          "name": "B5",
          "midi": 83,
          "duration": 0.05,
          "velocity": 0.88189
        },
        {
          "time": 559.235131,
          "name": "B6",
          "midi": 95,
          "duration": 0.05,
          "velocity": 0.811024
        },
        {
          "time": 559.238357,
          "name": "B5",
          "midi": 83,
          "duration": 0.05,
          "velocity": 0.834646
        },
        {
          "time": 559.280292,
          "name": "A5",
          "midi": 81,
          "duration": 0.132258,
          "velocity": 0.88189
        },
        {
          "time": 559.283518,
          "name": "A6",
          "midi": 93,
          "duration": 0.132258,
          "velocity": 0.811024
        },
        {
          "time": 559.286744,
          "name": "A5",
          "midi": 81,
          "duration": 0.132258,
          "velocity": 0.834646
        },
        {
          "time": 559.425454,
          "name": "G#5",
          "midi": 80,
          "duration": 0.174194,
          "velocity": 0.88189
        },
        {
          "time": 559.42868,
          "name": "G#6",
          "midi": 92,
          "duration": 0.174194,
          "velocity": 0.811024
        },
        {
          "time": 559.431905,
          "name": "G#5",
          "midi": 80,
          "duration": 0.174194,
          "velocity": 0.834646
        },
        {
          "time": 559.435131,
          "name": "F#5",
          "midi": 78,
          "duration": 0.192935,
          "velocity": 0.818898
        },
        {
          "time": 559.435131,
          "name": "C5",
          "midi": 72,
          "duration": 0.192935,
          "velocity": 0.818898
        },
        {
          "time": 559.619002,
          "name": "A5",
          "midi": 81,
          "duration": 0.163142,
          "velocity": 0.88189
        },
        {
          "time": 559.622023,
          "name": "A6",
          "midi": 93,
          "duration": 0.163142,
          "velocity": 0.811024
        },
        {
          "time": 559.625045,
          "name": "A5",
          "midi": 81,
          "duration": 0.163142,
          "velocity": 0.834646
        },
        {
          "time": 559.800271,
          "name": "F#6",
          "midi": 90,
          "duration": 0.163142,
          "velocity": 0.88189
        },
        {
          "time": 559.803292,
          "name": "F#7",
          "midi": 102,
          "duration": 0.163142,
          "velocity": 0.811024
        },
        {
          "time": 559.806314,
          "name": "F#6",
          "midi": 90,
          "duration": 0.163142,
          "velocity": 0.834646
        },
        {
          "time": 559.809335,
          "name": "F#5",
          "midi": 78,
          "duration": 0.181883,
          "velocity": 0.818898
        },
        {
          "time": 559.809335,
          "name": "C5",
          "midi": 72,
          "duration": 0.181883,
          "velocity": 0.818898
        },
        {
          "time": 559.98154,
          "name": "E6",
          "midi": 88,
          "duration": 0.547218,
          "velocity": 0.88189
        },
        {
          "time": 559.984766,
          "name": "E7",
          "midi": 100,
          "duration": 0.547013,
          "velocity": 0.811024
        },
        {
          "time": 559.987992,
          "name": "E6",
          "midi": 88,
          "duration": 0.546809,
          "velocity": 0.834646
        },
        {
          "time": 560.184766,
          "name": "G5",
          "midi": 79,
          "duration": 0.192935,
          "velocity": 0.818898
        },
        {
          "time": 560.184766,
          "name": "B4",
          "midi": 71,
          "duration": 0.192935,
          "velocity": 0.818898
        },
        {
          "time": 560.549906,
          "name": "A#5",
          "midi": 82,
          "duration": 0.163142,
          "velocity": 0.88189
        },
        {
          "time": 560.552927,
          "name": "A#6",
          "midi": 94,
          "duration": 0.163142,
          "velocity": 0.811024
        },
        {
          "time": 560.555949,
          "name": "A#5",
          "midi": 82,
          "duration": 0.163142,
          "velocity": 0.834646
        },
        {
          "time": 560.55897,
          "name": "G5",
          "midi": 79,
          "duration": 0.181883,
          "velocity": 0.818898
        },
        {
          "time": 560.55897,
          "name": "C#5",
          "midi": 73,
          "duration": 0.181883,
          "velocity": 0.818898
        },
        {
          "time": 560.731175,
          "name": "C6",
          "midi": 84,
          "duration": 0.05,
          "velocity": 0.88189
        },
        {
          "time": 560.734401,
          "name": "C7",
          "midi": 96,
          "duration": 0.05,
          "velocity": 0.811024
        },
        {
          "time": 560.737627,
          "name": "C6",
          "midi": 84,
          "duration": 0.05,
          "velocity": 0.834646
        },
        {
          "time": 560.779562,
          "name": "B5",
          "midi": 83,
          "duration": 0.132258,
          "velocity": 0.88189
        },
        {
          "time": 560.782788,
          "name": "B6",
          "midi": 95,
          "duration": 0.132258,
          "velocity": 0.811024
        },
        {
          "time": 560.786014,
          "name": "B5",
          "midi": 83,
          "duration": 0.132258,
          "velocity": 0.834646
        },
        {
          "time": 560.924724,
          "name": "A#5",
          "midi": 82,
          "duration": 0.174194,
          "velocity": 0.88189
        },
        {
          "time": 560.92795,
          "name": "A#6",
          "midi": 94,
          "duration": 0.174194,
          "velocity": 0.811024
        },
        {
          "time": 560.931175,
          "name": "A#5",
          "midi": 82,
          "duration": 0.174194,
          "velocity": 0.834646
        },
        {
          "time": 560.934401,
          "name": "G5",
          "midi": 79,
          "duration": 0.192935,
          "velocity": 0.818898
        },
        {
          "time": 560.934401,
          "name": "D5",
          "midi": 74,
          "duration": 0.192935,
          "velocity": 0.818898
        },
        {
          "time": 561.118272,
          "name": "B5",
          "midi": 83,
          "duration": 0.163142,
          "velocity": 0.88189
        },
        {
          "time": 561.121293,
          "name": "B6",
          "midi": 95,
          "duration": 0.163142,
          "velocity": 0.811024
        },
        {
          "time": 561.124315,
          "name": "B5",
          "midi": 83,
          "duration": 0.163142,
          "velocity": 0.834646
        },
        {
          "time": 561.299541,
          "name": "D6",
          "midi": 86,
          "duration": 0.163142,
          "velocity": 0.88189
        },
        {
          "time": 561.308605,
          "name": "B4",
          "midi": 71,
          "duration": 0.181883,
          "velocity": 0.818898
        },
        {
          "time": 561.308605,
          "name": "G5",
          "midi": 79,
          "duration": 0.181883,
          "velocity": 0.818898
        },
        {
          "time": 561.48081,
          "name": "G6",
          "midi": 91,
          "duration": 0.547218,
          "velocity": 0.88189
        },
        {
          "time": 561.484036,
          "name": "G7",
          "midi": 103,
          "duration": 0.547013,
          "velocity": 0.811024
        },
        {
          "time": 561.487262,
          "name": "G6",
          "midi": 91,
          "duration": 0.546809,
          "velocity": 0.834646
        },
        {
          "time": 561.684036,
          "name": "G5",
          "midi": 79,
          "duration": 0.192935,
          "velocity": 0.818898
        },
        {
          "time": 561.684036,
          "name": "B4",
          "midi": 71,
          "duration": 0.192935,
          "velocity": 0.818898
        },
        {
          "time": 562.049176,
          "name": "B5",
          "midi": 83,
          "duration": 0.163142,
          "velocity": 0.88189
        },
        {
          "time": 562.052197,
          "name": "B6",
          "midi": 95,
          "duration": 0.163142,
          "velocity": 0.811024
        },
        {
          "time": 562.055219,
          "name": "B5",
          "midi": 83,
          "duration": 0.163142,
          "velocity": 0.834646
        },
        {
          "time": 562.05824,
          "name": "G5",
          "midi": 79,
          "duration": 0.181883,
          "velocity": 0.818898
        },
        {
          "time": 562.05824,
          "name": "B4",
          "midi": 71,
          "duration": 0.181883,
          "velocity": 0.818898
        },
        {
          "time": 562.230445,
          "name": "E6",
          "midi": 88,
          "duration": 0.547218,
          "velocity": 0.88189
        },
        {
          "time": 562.233671,
          "name": "E7",
          "midi": 100,
          "duration": 0.547013,
          "velocity": 0.811024
        },
        {
          "time": 562.236897,
          "name": "E6",
          "midi": 88,
          "duration": 0.546809,
          "velocity": 0.834646
        },
        {
          "time": 562.433671,
          "name": "F#5",
          "midi": 78,
          "duration": 0.192935,
          "velocity": 0.818898
        },
        {
          "time": 562.433671,
          "name": "C5",
          "midi": 72,
          "duration": 0.192935,
          "velocity": 0.818898
        },
        {
          "time": 562.798811,
          "name": "A5",
          "midi": 81,
          "duration": 0.163142,
          "velocity": 0.88189
        },
        {
          "time": 562.801832,
          "name": "A6",
          "midi": 93,
          "duration": 0.163142,
          "velocity": 0.811024
        },
        {
          "time": 562.804854,
          "name": "A5",
          "midi": 81,
          "duration": 0.163142,
          "velocity": 0.834646
        },
        {
          "time": 562.807875,
          "name": "F#5",
          "midi": 78,
          "duration": 0.181883,
          "velocity": 0.818898
        },
        {
          "time": 562.807875,
          "name": "C5",
          "midi": 72,
          "duration": 0.181883,
          "velocity": 0.818898
        },
        {
          "time": 562.98008,
          "name": "D6",
          "midi": 86,
          "duration": 0.547218,
          "velocity": 0.88189
        },
        {
          "time": 562.983306,
          "name": "D7",
          "midi": 98,
          "duration": 0.547013,
          "velocity": 0.811024
        },
        {
          "time": 562.986532,
          "name": "D6",
          "midi": 86,
          "duration": 0.546809,
          "velocity": 0.834646
        },
        {
          "time": 563.183306,
          "name": "G5",
          "midi": 79,
          "duration": 0.192935,
          "velocity": 0.818898
        },
        {
          "time": 563.183306,
          "name": "B4",
          "midi": 71,
          "duration": 0.192935,
          "velocity": 0.818898
        },
        {
          "time": 563.548446,
          "name": "F#5",
          "midi": 78,
          "duration": 0.163142,
          "velocity": 0.88189
        },
        {
          "time": 563.551467,
          "name": "F#6",
          "midi": 90,
          "duration": 0.163142,
          "velocity": 0.811024
        },
        {
          "time": 563.554489,
          "name": "F#5",
          "midi": 78,
          "duration": 0.163142,
          "velocity": 0.834646
        },
        {
          "time": 563.55751,
          "name": "D5",
          "midi": 74,
          "duration": 0.181883,
          "velocity": 0.818898
        },
        {
          "time": 563.55751,
          "name": "B4",
          "midi": 71,
          "duration": 0.181883,
          "velocity": 0.818898
        },
        {
          "time": 563.729715,
          "name": "A5",
          "midi": 81,
          "duration": 0.05,
          "velocity": 0.88189
        },
        {
          "time": 563.732941,
          "name": "A6",
          "midi": 93,
          "duration": 0.05,
          "velocity": 0.811024
        },
        {
          "time": 563.736167,
          "name": "A5",
          "midi": 81,
          "duration": 0.05,
          "velocity": 0.834646
        },
        {
          "time": 563.778102,
          "name": "G5",
          "midi": 79,
          "duration": 0.132258,
          "velocity": 0.88189
        },
        {
          "time": 563.781328,
          "name": "G6",
          "midi": 91,
          "duration": 0.132258,
          "velocity": 0.811024
        },
        {
          "time": 563.784554,
          "name": "G5",
          "midi": 79,
          "duration": 0.132258,
          "velocity": 0.834646
        },
        {
          "time": 563.923264,
          "name": "F#5",
          "midi": 78,
          "duration": 0.174194,
          "velocity": 0.88189
        },
        {
          "time": 563.92649,
          "name": "F#6",
          "midi": 90,
          "duration": 0.174194,
          "velocity": 0.811024
        },
        {
          "time": 563.929715,
          "name": "F#5",
          "midi": 78,
          "duration": 0.174194,
          "velocity": 0.834646
        },
        {
          "time": 563.932941,
          "name": "D5",
          "midi": 74,
          "duration": 0.192935,
          "velocity": 0.818898
        },
        {
          "time": 563.932941,
          "name": "B4",
          "midi": 71,
          "duration": 0.192935,
          "velocity": 0.818898
        },
        {
          "time": 564.116812,
          "name": "G5",
          "midi": 79,
          "duration": 0.163142,
          "velocity": 0.88189
        },
        {
          "time": 564.119833,
          "name": "G6",
          "midi": 91,
          "duration": 0.163142,
          "velocity": 0.811024
        },
        {
          "time": 564.122855,
          "name": "G5",
          "midi": 79,
          "duration": 0.163142,
          "velocity": 0.834646
        },
        {
          "time": 564.298081,
          "name": "B5",
          "midi": 83,
          "duration": 0.163142,
          "velocity": 0.88189
        },
        {
          "time": 564.301102,
          "name": "B6",
          "midi": 95,
          "duration": 0.163142,
          "velocity": 0.811024
        },
        {
          "time": 564.304124,
          "name": "B5",
          "midi": 83,
          "duration": 0.163142,
          "velocity": 0.834646
        },
        {
          "time": 564.307145,
          "name": "G5",
          "midi": 79,
          "duration": 0.181883,
          "velocity": 0.818898
        },
        {
          "time": 564.307145,
          "name": "B4",
          "midi": 71,
          "duration": 0.181883,
          "velocity": 0.818898
        },
        {
          "time": 564.47935,
          "name": "C#6",
          "midi": 85,
          "duration": 0.547218,
          "velocity": 0.88189
        },
        {
          "time": 564.482576,
          "name": "C#7",
          "midi": 97,
          "duration": 0.547013,
          "velocity": 0.811024
        },
        {
          "time": 564.485802,
          "name": "C#7",
          "midi": 97,
          "duration": 0.546809,
          "velocity": 0.834646
        },
        {
          "time": 564.485802,
          "name": "C#6",
          "midi": 85,
          "duration": 0.546809,
          "velocity": 0.834646
        },
        {
          "time": 564.682576,
          "name": "E5",
          "midi": 76,
          "duration": 0.192935,
          "velocity": 0.818898
        },
        {
          "time": 564.682576,
          "name": "C#5",
          "midi": 73,
          "duration": 0.192935,
          "velocity": 0.818898
        },
        {
          "time": 565.047716,
          "name": "B5",
          "midi": 83,
          "duration": 0.163142,
          "velocity": 0.88189
        },
        {
          "time": 565.050737,
          "name": "B6",
          "midi": 95,
          "duration": 0.163142,
          "velocity": 0.811024
        },
        {
          "time": 565.053759,
          "name": "B6",
          "midi": 95,
          "duration": 0.163142,
          "velocity": 0.834646
        },
        {
          "time": 565.053759,
          "name": "B5",
          "midi": 83,
          "duration": 0.163142,
          "velocity": 0.834646
        },
        {
          "time": 565.05678,
          "name": "E5",
          "midi": 76,
          "duration": 0.181883,
          "velocity": 0.818898
        },
        {
          "time": 565.05678,
          "name": "C#5",
          "midi": 73,
          "duration": 0.181883,
          "velocity": 0.818898
        },
        {
          "time": 565.228985,
          "name": "A5",
          "midi": 81,
          "duration": 0.174194,
          "velocity": 0.88189
        },
        {
          "time": 565.232211,
          "name": "A6",
          "midi": 93,
          "duration": 0.174194,
          "velocity": 0.811024
        },
        {
          "time": 565.235437,
          "name": "A5",
          "midi": 81,
          "duration": 0.174194,
          "velocity": 0.834646
        },
        {
          "time": 565.235437,
          "name": "A6",
          "midi": 93,
          "duration": 0.174194,
          "velocity": 0.834646
        },
        {
          "time": 565.422534,
          "name": "G5",
          "midi": 79,
          "duration": 0.174194,
          "velocity": 0.88189
        },
        {
          "time": 565.42576,
          "name": "G6",
          "midi": 91,
          "duration": 0.174194,
          "velocity": 0.811024
        },
        {
          "time": 565.428985,
          "name": "G5",
          "midi": 79,
          "duration": 0.174194,
          "velocity": 0.834646
        },
        {
          "time": 565.428985,
          "name": "G6",
          "midi": 91,
          "duration": 0.174194,
          "velocity": 0.834646
        },
        {
          "time": 565.432211,
          "name": "E5",
          "midi": 76,
          "duration": 0.192935,
          "velocity": 0.818898
        },
        {
          "time": 565.432211,
          "name": "C#5",
          "midi": 73,
          "duration": 0.192935,
          "velocity": 0.818898
        },
        {
          "time": 565.616082,
          "name": "F#5",
          "midi": 78,
          "duration": 0.163142,
          "velocity": 0.88189
        },
        {
          "time": 565.619103,
          "name": "F#6",
          "midi": 90,
          "duration": 0.163142,
          "velocity": 0.811024
        },
        {
          "time": 565.622125,
          "name": "F#6",
          "midi": 90,
          "duration": 0.163142,
          "velocity": 0.834646
        },
        {
          "time": 565.622125,
          "name": "F#5",
          "midi": 78,
          "duration": 0.163142,
          "velocity": 0.834646
        },
        {
          "time": 565.797351,
          "name": "E5",
          "midi": 76,
          "duration": 0.163142,
          "velocity": 0.88189
        },
        {
          "time": 565.800372,
          "name": "E6",
          "midi": 88,
          "duration": 0.163142,
          "velocity": 0.811024
        },
        {
          "time": 565.803394,
          "name": "E6",
          "midi": 88,
          "duration": 0.163142,
          "velocity": 0.834646
        },
        {
          "time": 565.803394,
          "name": "E5",
          "midi": 76,
          "duration": 0.163142,
          "velocity": 0.834646
        },
        {
          "time": 565.806415,
          "name": "G4",
          "midi": 67,
          "duration": 0.181883,
          "velocity": 0.818898
        },
        {
          "time": 565.806415,
          "name": "C#5",
          "midi": 73,
          "duration": 0.181883,
          "velocity": 0.818898
        },
        {
          "time": 565.97862,
          "name": "D5",
          "midi": 74,
          "duration": 0.174194,
          "velocity": 0.88189
        },
        {
          "time": 565.981846,
          "name": "D6",
          "midi": 86,
          "duration": 0.174194,
          "velocity": 0.811024
        },
        {
          "time": 565.985072,
          "name": "D5",
          "midi": 74,
          "duration": 0.174194,
          "velocity": 0.834646
        },
        {
          "time": 565.985072,
          "name": "D6",
          "midi": 86,
          "duration": 0.174194,
          "velocity": 0.834646
        },
        {
          "time": 566.172169,
          "name": "D5",
          "midi": 74,
          "duration": 0.174194,
          "velocity": 0.88189
        },
        {
          "time": 566.175395,
          "name": "D6",
          "midi": 86,
          "duration": 0.174194,
          "velocity": 0.811024
        },
        {
          "time": 566.17862,
          "name": "D5",
          "midi": 74,
          "duration": 0.174194,
          "velocity": 0.834646
        },
        {
          "time": 566.17862,
          "name": "D6",
          "midi": 86,
          "duration": 0.174194,
          "velocity": 0.834646
        },
        {
          "time": 566.181846,
          "name": "F#5",
          "midi": 78,
          "duration": 0.192935,
          "velocity": 0.818898
        },
        {
          "time": 566.181846,
          "name": "A4",
          "midi": 69,
          "duration": 0.192935,
          "velocity": 0.818898
        },
        {
          "time": 566.365717,
          "name": "F#5",
          "midi": 78,
          "duration": 0.163142,
          "velocity": 0.88189
        },
        {
          "time": 566.368738,
          "name": "F#6",
          "midi": 90,
          "duration": 0.163142,
          "velocity": 0.811024
        },
        {
          "time": 566.37176,
          "name": "F#6",
          "midi": 90,
          "duration": 0.163142,
          "velocity": 0.834646
        },
        {
          "time": 566.37176,
          "name": "F#5",
          "midi": 78,
          "duration": 0.163142,
          "velocity": 0.834646
        },
        {
          "time": 566.546986,
          "name": "A5",
          "midi": 81,
          "duration": 0.163142,
          "velocity": 0.88189
        },
        {
          "time": 566.550007,
          "name": "A6",
          "midi": 93,
          "duration": 0.163142,
          "velocity": 0.811024
        },
        {
          "time": 566.553029,
          "name": "A6",
          "midi": 93,
          "duration": 0.163142,
          "velocity": 0.834646
        },
        {
          "time": 566.553029,
          "name": "A5",
          "midi": 81,
          "duration": 0.163142,
          "velocity": 0.834646
        },
        {
          "time": 566.55605,
          "name": "D5",
          "midi": 74,
          "duration": 0.181883,
          "velocity": 0.818898
        },
        {
          "time": 566.55605,
          "name": "F#5",
          "midi": 78,
          "duration": 0.181883,
          "velocity": 0.818898
        },
        {
          "time": 566.728255,
          "name": "D6",
          "midi": 86,
          "duration": 0.174194,
          "velocity": 0.88189
        },
        {
          "time": 566.731481,
          "name": "D7",
          "midi": 98,
          "duration": 0.174194,
          "velocity": 0.811024
        },
        {
          "time": 566.734707,
          "name": "D6",
          "midi": 86,
          "duration": 0.174194,
          "velocity": 0.834646
        },
        {
          "time": 566.737933,
          "name": "A5",
          "midi": 81,
          "duration": 0.193549,
          "velocity": 0.818898
        },
        {
          "time": 566.737933,
          "name": "F#5",
          "midi": 78,
          "duration": 0.193549,
          "velocity": 0.818898
        },
        {
          "time": 566.921804,
          "name": "D#6",
          "midi": 87,
          "duration": 0.174194,
          "velocity": 0.88189
        },
        {
          "time": 566.92503,
          "name": "D#7",
          "midi": 99,
          "duration": 0.174194,
          "velocity": 0.811024
        },
        {
          "time": 566.928255,
          "name": "D#6",
          "midi": 87,
          "duration": 0.174194,
          "velocity": 0.834646
        },
        {
          "time": 566.931481,
          "name": "D#5",
          "midi": 75,
          "duration": 0.192935,
          "velocity": 0.818898
        },
        {
          "time": 567.115352,
          "name": "E6",
          "midi": 88,
          "duration": 0.163142,
          "velocity": 0.88189
        },
        {
          "time": 567.118373,
          "name": "E7",
          "midi": 100,
          "duration": 0.163142,
          "velocity": 0.811024
        },
        {
          "time": 567.121395,
          "name": "E6",
          "midi": 88,
          "duration": 0.163142,
          "velocity": 0.834646
        },
        {
          "time": 567.124416,
          "name": "E5",
          "midi": 76,
          "duration": 0.181269,
          "velocity": 0.818898
        },
        {
          "time": 567.296621,
          "name": "F#6",
          "midi": 90,
          "duration": 0.163142,
          "velocity": 0.88189
        },
        {
          "time": 567.299642,
          "name": "F#7",
          "midi": 102,
          "duration": 0.163142,
          "velocity": 0.811024
        },
        {
          "time": 567.302664,
          "name": "F#6",
          "midi": 90,
          "duration": 0.163142,
          "velocity": 0.834646
        },
        {
          "time": 567.305685,
          "name": "F#5",
          "midi": 78,
          "duration": 0.181883,
          "velocity": 0.818898
        },
        {
          "time": 567.47789,
          "name": "G6",
          "midi": 91,
          "duration": 0.547218,
          "velocity": 0.88189
        },
        {
          "time": 567.481116,
          "name": "G7",
          "midi": 103,
          "duration": 0.547013,
          "velocity": 0.811024
        },
        {
          "time": 567.484342,
          "name": "G6",
          "midi": 91,
          "duration": 0.546809,
          "velocity": 0.834646
        },
        {
          "time": 567.681116,
          "name": "G5",
          "midi": 79,
          "duration": 0.192935,
          "velocity": 0.818898
        },
        {
          "time": 567.681116,
          "name": "B4",
          "midi": 71,
          "duration": 0.192935,
          "velocity": 0.818898
        },
        {
          "time": 568.046256,
          "name": "B5",
          "midi": 83,
          "duration": 0.163142,
          "velocity": 0.88189
        },
        {
          "time": 568.049277,
          "name": "B6",
          "midi": 95,
          "duration": 0.163142,
          "velocity": 0.811024
        },
        {
          "time": 568.052299,
          "name": "B5",
          "midi": 83,
          "duration": 0.163142,
          "velocity": 0.834646
        },
        {
          "time": 568.05532,
          "name": "G5",
          "midi": 79,
          "duration": 0.181883,
          "velocity": 0.818898
        },
        {
          "time": 568.05532,
          "name": "B4",
          "midi": 71,
          "duration": 0.181883,
          "velocity": 0.818898
        },
        {
          "time": 568.227525,
          "name": "E6",
          "midi": 88,
          "duration": 0.547218,
          "velocity": 0.88189
        },
        {
          "time": 568.230751,
          "name": "E7",
          "midi": 100,
          "duration": 0.547013,
          "velocity": 0.811024
        },
        {
          "time": 568.233977,
          "name": "E6",
          "midi": 88,
          "duration": 0.546809,
          "velocity": 0.834646
        },
        {
          "time": 568.430751,
          "name": "F#5",
          "midi": 78,
          "duration": 0.192935,
          "velocity": 0.818898
        },
        {
          "time": 568.430751,
          "name": "C5",
          "midi": 72,
          "duration": 0.192935,
          "velocity": 0.818898
        },
        {
          "time": 568.795891,
          "name": "A5",
          "midi": 81,
          "duration": 0.163142,
          "velocity": 0.88189
        },
        {
          "time": 568.798912,
          "name": "A6",
          "midi": 93,
          "duration": 0.163142,
          "velocity": 0.811024
        },
        {
          "time": 568.801934,
          "name": "A5",
          "midi": 81,
          "duration": 0.163142,
          "velocity": 0.834646
        },
        {
          "time": 568.804955,
          "name": "F#5",
          "midi": 78,
          "duration": 0.181883,
          "velocity": 0.818898
        },
        {
          "time": 568.804955,
          "name": "C5",
          "midi": 72,
          "duration": 0.181883,
          "velocity": 0.818898
        },
        {
          "time": 568.97716,
          "name": "D6",
          "midi": 86,
          "duration": 0.547218,
          "velocity": 0.88189
        },
        {
          "time": 568.980386,
          "name": "D7",
          "midi": 98,
          "duration": 0.547013,
          "velocity": 0.811024
        },
        {
          "time": 568.983612,
          "name": "D6",
          "midi": 86,
          "duration": 0.546809,
          "velocity": 0.834646
        },
        {
          "time": 569.180386,
          "name": "G5",
          "midi": 79,
          "duration": 0.192935,
          "velocity": 0.818898
        },
        {
          "time": 569.180386,
          "name": "B4",
          "midi": 71,
          "duration": 0.192935,
          "velocity": 0.818898
        },
        {
          "time": 569.545526,
          "name": "F#5",
          "midi": 78,
          "duration": 0.163142,
          "velocity": 0.88189
        },
        {
          "time": 569.548547,
          "name": "F#6",
          "midi": 90,
          "duration": 0.163142,
          "velocity": 0.811024
        },
        {
          "time": 569.551569,
          "name": "F#5",
          "midi": 78,
          "duration": 0.163142,
          "velocity": 0.834646
        },
        {
          "time": 569.55459,
          "name": "D5",
          "midi": 74,
          "duration": 0.181883,
          "velocity": 0.818898
        },
        {
          "time": 569.55459,
          "name": "B4",
          "midi": 71,
          "duration": 0.181883,
          "velocity": 0.818898
        },
        {
          "time": 569.726795,
          "name": "A5",
          "midi": 81,
          "duration": 0.05,
          "velocity": 0.88189
        },
        {
          "time": 569.730021,
          "name": "A6",
          "midi": 93,
          "duration": 0.05,
          "velocity": 0.811024
        },
        {
          "time": 569.733247,
          "name": "A5",
          "midi": 81,
          "duration": 0.05,
          "velocity": 0.834646
        },
        {
          "time": 569.775182,
          "name": "G5",
          "midi": 79,
          "duration": 0.132258,
          "velocity": 0.88189
        },
        {
          "time": 569.778408,
          "name": "G6",
          "midi": 91,
          "duration": 0.132258,
          "velocity": 0.811024
        },
        {
          "time": 569.781634,
          "name": "G5",
          "midi": 79,
          "duration": 0.132258,
          "velocity": 0.834646
        },
        {
          "time": 569.920344,
          "name": "F#5",
          "midi": 78,
          "duration": 0.174194,
          "velocity": 0.88189
        },
        {
          "time": 569.92357,
          "name": "F#6",
          "midi": 90,
          "duration": 0.174194,
          "velocity": 0.811024
        },
        {
          "time": 569.926795,
          "name": "F#5",
          "midi": 78,
          "duration": 0.174194,
          "velocity": 0.834646
        },
        {
          "time": 569.930021,
          "name": "D5",
          "midi": 74,
          "duration": 0.192935,
          "velocity": 0.818898
        },
        {
          "time": 569.930021,
          "name": "B4",
          "midi": 71,
          "duration": 0.192935,
          "velocity": 0.818898
        },
        {
          "time": 570.113892,
          "name": "G5",
          "midi": 79,
          "duration": 0.163142,
          "velocity": 0.88189
        },
        {
          "time": 570.116913,
          "name": "G6",
          "midi": 91,
          "duration": 0.163142,
          "velocity": 0.811024
        },
        {
          "time": 570.119935,
          "name": "G5",
          "midi": 79,
          "duration": 0.163142,
          "velocity": 0.834646
        },
        {
          "time": 570.295161,
          "name": "B5",
          "midi": 83,
          "duration": 0.163142,
          "velocity": 0.88189
        },
        {
          "time": 570.298182,
          "name": "B6",
          "midi": 95,
          "duration": 0.163142,
          "velocity": 0.811024
        },
        {
          "time": 570.301204,
          "name": "B5",
          "midi": 83,
          "duration": 0.163142,
          "velocity": 0.834646
        },
        {
          "time": 570.304225,
          "name": "G5",
          "midi": 79,
          "duration": 0.181883,
          "velocity": 0.818898
        },
        {
          "time": 570.304225,
          "name": "B4",
          "midi": 71,
          "duration": 0.181883,
          "velocity": 0.818898
        },
        {
          "time": 570.47643,
          "name": "E6",
          "midi": 88,
          "duration": 0.547218,
          "velocity": 0.88189
        },
        {
          "time": 570.479656,
          "name": "E7",
          "midi": 100,
          "duration": 0.547013,
          "velocity": 0.811024
        },
        {
          "time": 570.482882,
          "name": "E6",
          "midi": 88,
          "duration": 0.546809,
          "velocity": 0.834646
        },
        {
          "time": 570.679656,
          "name": "C5",
          "midi": 72,
          "duration": 0.192935,
          "velocity": 0.818898
        },
        {
          "time": 570.679656,
          "name": "F#5",
          "midi": 78,
          "duration": 0.192935,
          "velocity": 0.818898
        },
        {
          "time": 571.044796,
          "name": "G#5",
          "midi": 80,
          "duration": 0.163142,
          "velocity": 0.88189
        },
        {
          "time": 571.047817,
          "name": "G#6",
          "midi": 92,
          "duration": 0.163142,
          "velocity": 0.811024
        },
        {
          "time": 571.050839,
          "name": "G#5",
          "midi": 80,
          "duration": 0.163142,
          "velocity": 0.834646
        },
        {
          "time": 571.05386,
          "name": "F#5",
          "midi": 78,
          "duration": 0.181883,
          "velocity": 0.818898
        },
        {
          "time": 571.05386,
          "name": "C5",
          "midi": 72,
          "duration": 0.181883,
          "velocity": 0.818898
        },
        {
          "time": 571.226065,
          "name": "B5",
          "midi": 83,
          "duration": 0.05,
          "velocity": 0.88189
        },
        {
          "time": 571.229291,
          "name": "B6",
          "midi": 95,
          "duration": 0.05,
          "velocity": 0.811024
        },
        {
          "time": 571.232517,
          "name": "B5",
          "midi": 83,
          "duration": 0.05,
          "velocity": 0.834646
        },
        {
          "time": 571.274452,
          "name": "A5",
          "midi": 81,
          "duration": 0.132258,
          "velocity": 0.88189
        },
        {
          "time": 571.277678,
          "name": "A6",
          "midi": 93,
          "duration": 0.132258,
          "velocity": 0.811024
        },
        {
          "time": 571.280904,
          "name": "A5",
          "midi": 81,
          "duration": 0.132258,
          "velocity": 0.834646
        },
        {
          "time": 571.419614,
          "name": "G#5",
          "midi": 80,
          "duration": 0.174194,
          "velocity": 0.88189
        },
        {
          "time": 571.42284,
          "name": "G#6",
          "midi": 92,
          "duration": 0.174194,
          "velocity": 0.811024
        },
        {
          "time": 571.426065,
          "name": "G#5",
          "midi": 80,
          "duration": 0.174194,
          "velocity": 0.834646
        },
        {
          "time": 571.429291,
          "name": "F#5",
          "midi": 78,
          "duration": 0.192935,
          "velocity": 0.818898
        },
        {
          "time": 571.429291,
          "name": "C5",
          "midi": 72,
          "duration": 0.192935,
          "velocity": 0.818898
        },
        {
          "time": 571.613162,
          "name": "A5",
          "midi": 81,
          "duration": 0.163142,
          "velocity": 0.88189
        },
        {
          "time": 571.616183,
          "name": "A6",
          "midi": 93,
          "duration": 0.163142,
          "velocity": 0.811024
        },
        {
          "time": 571.619205,
          "name": "A5",
          "midi": 81,
          "duration": 0.163142,
          "velocity": 0.834646
        },
        {
          "time": 571.794431,
          "name": "F#6",
          "midi": 90,
          "duration": 0.163142,
          "velocity": 0.88189
        },
        {
          "time": 571.797452,
          "name": "F#7",
          "midi": 102,
          "duration": 0.163142,
          "velocity": 0.811024
        },
        {
          "time": 571.800474,
          "name": "F#6",
          "midi": 90,
          "duration": 0.163142,
          "velocity": 0.834646
        },
        {
          "time": 571.803495,
          "name": "F#5",
          "midi": 78,
          "duration": 0.181883,
          "velocity": 0.818898
        },
        {
          "time": 571.803495,
          "name": "C5",
          "midi": 72,
          "duration": 0.181883,
          "velocity": 0.818898
        },
        {
          "time": 571.9757,
          "name": "E6",
          "midi": 88,
          "duration": 0.547218,
          "velocity": 0.88189
        },
        {
          "time": 571.978926,
          "name": "E7",
          "midi": 100,
          "duration": 0.547013,
          "velocity": 0.811024
        },
        {
          "time": 571.982152,
          "name": "E6",
          "midi": 88,
          "duration": 0.546809,
          "velocity": 0.834646
        },
        {
          "time": 572.178926,
          "name": "G5",
          "midi": 79,
          "duration": 0.192935,
          "velocity": 0.818898
        },
        {
          "time": 572.178926,
          "name": "B4",
          "midi": 71,
          "duration": 0.192935,
          "velocity": 0.818898
        },
        {
          "time": 572.544066,
          "name": "A#5",
          "midi": 82,
          "duration": 0.163142,
          "velocity": 0.88189
        },
        {
          "time": 572.547087,
          "name": "A#6",
          "midi": 94,
          "duration": 0.163142,
          "velocity": 0.811024
        },
        {
          "time": 572.550109,
          "name": "A#5",
          "midi": 82,
          "duration": 0.163142,
          "velocity": 0.834646
        },
        {
          "time": 572.55313,
          "name": "G5",
          "midi": 79,
          "duration": 0.181883,
          "velocity": 0.818898
        },
        {
          "time": 572.55313,
          "name": "C#5",
          "midi": 73,
          "duration": 0.181883,
          "velocity": 0.818898
        },
        {
          "time": 572.725335,
          "name": "C6",
          "midi": 84,
          "duration": 0.05,
          "velocity": 0.88189
        },
        {
          "time": 572.728561,
          "name": "C7",
          "midi": 96,
          "duration": 0.05,
          "velocity": 0.811024
        },
        {
          "time": 572.731787,
          "name": "C6",
          "midi": 84,
          "duration": 0.05,
          "velocity": 0.834646
        },
        {
          "time": 572.773722,
          "name": "B5",
          "midi": 83,
          "duration": 0.132258,
          "velocity": 0.88189
        },
        {
          "time": 572.776948,
          "name": "B6",
          "midi": 95,
          "duration": 0.132258,
          "velocity": 0.811024
        },
        {
          "time": 572.780174,
          "name": "B5",
          "midi": 83,
          "duration": 0.132258,
          "velocity": 0.834646
        },
        {
          "time": 572.918884,
          "name": "A#5",
          "midi": 82,
          "duration": 0.174194,
          "velocity": 0.88189
        },
        {
          "time": 572.92211,
          "name": "A#6",
          "midi": 94,
          "duration": 0.174194,
          "velocity": 0.811024
        },
        {
          "time": 572.925335,
          "name": "A#5",
          "midi": 82,
          "duration": 0.174194,
          "velocity": 0.834646
        },
        {
          "time": 572.928561,
          "name": "G5",
          "midi": 79,
          "duration": 0.192935,
          "velocity": 0.818898
        },
        {
          "time": 572.928561,
          "name": "D5",
          "midi": 74,
          "duration": 0.192935,
          "velocity": 0.818898
        },
        {
          "time": 573.112432,
          "name": "B5",
          "midi": 83,
          "duration": 0.163142,
          "velocity": 0.88189
        },
        {
          "time": 573.115453,
          "name": "B6",
          "midi": 95,
          "duration": 0.163142,
          "velocity": 0.811024
        },
        {
          "time": 573.118475,
          "name": "B5",
          "midi": 83,
          "duration": 0.163142,
          "velocity": 0.834646
        },
        {
          "time": 573.293701,
          "name": "D6",
          "midi": 86,
          "duration": 0.163142,
          "velocity": 0.88189
        },
        {
          "time": 573.302765,
          "name": "B4",
          "midi": 71,
          "duration": 0.181883,
          "velocity": 0.818898
        },
        {
          "time": 573.302765,
          "name": "G5",
          "midi": 79,
          "duration": 0.181883,
          "velocity": 0.818898
        },
        {
          "time": 573.47497,
          "name": "G6",
          "midi": 91,
          "duration": 0.547218,
          "velocity": 0.88189
        },
        {
          "time": 573.478196,
          "name": "G7",
          "midi": 103,
          "duration": 0.547013,
          "velocity": 0.811024
        },
        {
          "time": 573.481422,
          "name": "G6",
          "midi": 91,
          "duration": 0.546809,
          "velocity": 0.834646
        },
        {
          "time": 573.678196,
          "name": "G5",
          "midi": 79,
          "duration": 0.192935,
          "velocity": 0.818898
        },
        {
          "time": 573.678196,
          "name": "B4",
          "midi": 71,
          "duration": 0.192935,
          "velocity": 0.818898
        },
        {
          "time": 574.043336,
          "name": "B5",
          "midi": 83,
          "duration": 0.163142,
          "velocity": 0.88189
        },
        {
          "time": 574.046357,
          "name": "B6",
          "midi": 95,
          "duration": 0.163142,
          "velocity": 0.811024
        },
        {
          "time": 574.049379,
          "name": "B5",
          "midi": 83,
          "duration": 0.163142,
          "velocity": 0.834646
        },
        {
          "time": 574.0524,
          "name": "G5",
          "midi": 79,
          "duration": 0.181883,
          "velocity": 0.818898
        },
        {
          "time": 574.0524,
          "name": "B4",
          "midi": 71,
          "duration": 0.181883,
          "velocity": 0.818898
        },
        {
          "time": 574.224605,
          "name": "E6",
          "midi": 88,
          "duration": 0.547218,
          "velocity": 0.88189
        },
        {
          "time": 574.227831,
          "name": "E7",
          "midi": 100,
          "duration": 0.547013,
          "velocity": 0.811024
        },
        {
          "time": 574.231057,
          "name": "E6",
          "midi": 88,
          "duration": 0.546809,
          "velocity": 0.834646
        },
        {
          "time": 574.427831,
          "name": "F#5",
          "midi": 78,
          "duration": 0.192935,
          "velocity": 0.818898
        },
        {
          "time": 574.427831,
          "name": "C5",
          "midi": 72,
          "duration": 0.192935,
          "velocity": 0.818898
        },
        {
          "time": 574.792971,
          "name": "A5",
          "midi": 81,
          "duration": 0.163142,
          "velocity": 0.88189
        },
        {
          "time": 574.795992,
          "name": "A6",
          "midi": 93,
          "duration": 0.163142,
          "velocity": 0.811024
        },
        {
          "time": 574.799014,
          "name": "A5",
          "midi": 81,
          "duration": 0.163142,
          "velocity": 0.834646
        },
        {
          "time": 574.802035,
          "name": "F#5",
          "midi": 78,
          "duration": 0.181883,
          "velocity": 0.818898
        },
        {
          "time": 574.802035,
          "name": "C5",
          "midi": 72,
          "duration": 0.181883,
          "velocity": 0.818898
        },
        {
          "time": 574.97424,
          "name": "D6",
          "midi": 86,
          "duration": 0.547218,
          "velocity": 0.88189
        },
        {
          "time": 574.977466,
          "name": "D7",
          "midi": 98,
          "duration": 0.547013,
          "velocity": 0.811024
        },
        {
          "time": 574.980692,
          "name": "D6",
          "midi": 86,
          "duration": 0.546809,
          "velocity": 0.834646
        },
        {
          "time": 575.177466,
          "name": "G5",
          "midi": 79,
          "duration": 0.192935,
          "velocity": 0.818898
        },
        {
          "time": 575.177466,
          "name": "B4",
          "midi": 71,
          "duration": 0.192935,
          "velocity": 0.818898
        },
        {
          "time": 575.542606,
          "name": "F#5",
          "midi": 78,
          "duration": 0.163142,
          "velocity": 0.88189
        },
        {
          "time": 575.545627,
          "name": "F#6",
          "midi": 90,
          "duration": 0.163142,
          "velocity": 0.811024
        },
        {
          "time": 575.548649,
          "name": "F#5",
          "midi": 78,
          "duration": 0.163142,
          "velocity": 0.834646
        },
        {
          "time": 575.55167,
          "name": "D5",
          "midi": 74,
          "duration": 0.181883,
          "velocity": 0.818898
        },
        {
          "time": 575.55167,
          "name": "B4",
          "midi": 71,
          "duration": 0.181883,
          "velocity": 0.818898
        },
        {
          "time": 575.723875,
          "name": "A5",
          "midi": 81,
          "duration": 0.05,
          "velocity": 0.88189
        },
        {
          "time": 575.727101,
          "name": "A6",
          "midi": 93,
          "duration": 0.05,
          "velocity": 0.811024
        },
        {
          "time": 575.730327,
          "name": "A5",
          "midi": 81,
          "duration": 0.05,
          "velocity": 0.834646
        },
        {
          "time": 575.772262,
          "name": "G5",
          "midi": 79,
          "duration": 0.132258,
          "velocity": 0.88189
        },
        {
          "time": 575.775488,
          "name": "G6",
          "midi": 91,
          "duration": 0.132258,
          "velocity": 0.811024
        },
        {
          "time": 575.778714,
          "name": "G5",
          "midi": 79,
          "duration": 0.132258,
          "velocity": 0.834646
        },
        {
          "time": 575.917424,
          "name": "F#5",
          "midi": 78,
          "duration": 0.174194,
          "velocity": 0.88189
        },
        {
          "time": 575.92065,
          "name": "F#6",
          "midi": 90,
          "duration": 0.174194,
          "velocity": 0.811024
        },
        {
          "time": 575.923875,
          "name": "F#5",
          "midi": 78,
          "duration": 0.174194,
          "velocity": 0.834646
        },
        {
          "time": 575.927101,
          "name": "D5",
          "midi": 74,
          "duration": 0.192935,
          "velocity": 0.818898
        },
        {
          "time": 575.927101,
          "name": "B4",
          "midi": 71,
          "duration": 0.192935,
          "velocity": 0.818898
        },
        {
          "time": 576.110972,
          "name": "G5",
          "midi": 79,
          "duration": 0.163142,
          "velocity": 0.88189
        },
        {
          "time": 576.113993,
          "name": "G6",
          "midi": 91,
          "duration": 0.163142,
          "velocity": 0.811024
        },
        {
          "time": 576.117015,
          "name": "G5",
          "midi": 79,
          "duration": 0.163142,
          "velocity": 0.834646
        },
        {
          "time": 576.292241,
          "name": "B5",
          "midi": 83,
          "duration": 0.163142,
          "velocity": 0.88189
        },
        {
          "time": 576.295262,
          "name": "B6",
          "midi": 95,
          "duration": 0.163142,
          "velocity": 0.811024
        },
        {
          "time": 576.298284,
          "name": "B5",
          "midi": 83,
          "duration": 0.163142,
          "velocity": 0.834646
        },
        {
          "time": 576.301305,
          "name": "G5",
          "midi": 79,
          "duration": 0.181883,
          "velocity": 0.818898
        },
        {
          "time": 576.301305,
          "name": "B4",
          "midi": 71,
          "duration": 0.181883,
          "velocity": 0.818898
        },
        {
          "time": 576.47351,
          "name": "C#6",
          "midi": 85,
          "duration": 0.547218,
          "velocity": 0.88189
        },
        {
          "time": 576.476736,
          "name": "C#7",
          "midi": 97,
          "duration": 0.547013,
          "velocity": 0.811024
        },
        {
          "time": 576.479962,
          "name": "C#7",
          "midi": 97,
          "duration": 0.546809,
          "velocity": 0.834646
        },
        {
          "time": 576.479962,
          "name": "C#6",
          "midi": 85,
          "duration": 0.546809,
          "velocity": 0.834646
        },
        {
          "time": 576.676736,
          "name": "E5",
          "midi": 76,
          "duration": 0.192935,
          "velocity": 0.818898
        },
        {
          "time": 576.676736,
          "name": "C#5",
          "midi": 73,
          "duration": 0.192935,
          "velocity": 0.818898
        },
        {
          "time": 577.041876,
          "name": "B5",
          "midi": 83,
          "duration": 0.163142,
          "velocity": 0.88189
        },
        {
          "time": 577.044897,
          "name": "B6",
          "midi": 95,
          "duration": 0.163142,
          "velocity": 0.811024
        },
        {
          "time": 577.047919,
          "name": "B6",
          "midi": 95,
          "duration": 0.163142,
          "velocity": 0.834646
        },
        {
          "time": 577.047919,
          "name": "B5",
          "midi": 83,
          "duration": 0.163142,
          "velocity": 0.834646
        },
        {
          "time": 577.05094,
          "name": "E5",
          "midi": 76,
          "duration": 0.181883,
          "velocity": 0.818898
        },
        {
          "time": 577.05094,
          "name": "C#5",
          "midi": 73,
          "duration": 0.181883,
          "velocity": 0.818898
        },
        {
          "time": 577.223145,
          "name": "A5",
          "midi": 81,
          "duration": 0.174194,
          "velocity": 0.88189
        },
        {
          "time": 577.226371,
          "name": "A6",
          "midi": 93,
          "duration": 0.174194,
          "velocity": 0.811024
        },
        {
          "time": 577.229597,
          "name": "A5",
          "midi": 81,
          "duration": 0.174194,
          "velocity": 0.834646
        },
        {
          "time": 577.229597,
          "name": "A6",
          "midi": 93,
          "duration": 0.174194,
          "velocity": 0.834646
        },
        {
          "time": 577.416694,
          "name": "G5",
          "midi": 79,
          "duration": 0.174194,
          "velocity": 0.88189
        },
        {
          "time": 577.41992,
          "name": "G6",
          "midi": 91,
          "duration": 0.174194,
          "velocity": 0.811024
        },
        {
          "time": 577.423145,
          "name": "G5",
          "midi": 79,
          "duration": 0.174194,
          "velocity": 0.834646
        },
        {
          "time": 577.423145,
          "name": "G6",
          "midi": 91,
          "duration": 0.174194,
          "velocity": 0.834646
        },
        {
          "time": 577.426371,
          "name": "E5",
          "midi": 76,
          "duration": 0.192935,
          "velocity": 0.818898
        },
        {
          "time": 577.426371,
          "name": "C#5",
          "midi": 73,
          "duration": 0.192935,
          "velocity": 0.818898
        },
        {
          "time": 577.610242,
          "name": "F#5",
          "midi": 78,
          "duration": 0.163142,
          "velocity": 0.88189
        },
        {
          "time": 577.613263,
          "name": "F#6",
          "midi": 90,
          "duration": 0.163142,
          "velocity": 0.811024
        },
        {
          "time": 577.616285,
          "name": "F#6",
          "midi": 90,
          "duration": 0.163142,
          "velocity": 0.834646
        },
        {
          "time": 577.616285,
          "name": "F#5",
          "midi": 78,
          "duration": 0.163142,
          "velocity": 0.834646
        },
        {
          "time": 577.791511,
          "name": "E5",
          "midi": 76,
          "duration": 0.163142,
          "velocity": 0.88189
        },
        {
          "time": 577.794532,
          "name": "E6",
          "midi": 88,
          "duration": 0.163142,
          "velocity": 0.811024
        },
        {
          "time": 577.797554,
          "name": "E6",
          "midi": 88,
          "duration": 0.163142,
          "velocity": 0.834646
        },
        {
          "time": 577.797554,
          "name": "E5",
          "midi": 76,
          "duration": 0.163142,
          "velocity": 0.834646
        },
        {
          "time": 577.800575,
          "name": "G4",
          "midi": 67,
          "duration": 0.181883,
          "velocity": 0.818898
        },
        {
          "time": 577.800575,
          "name": "C#5",
          "midi": 73,
          "duration": 0.181883,
          "velocity": 0.818898
        },
        {
          "time": 577.97278,
          "name": "D5",
          "midi": 74,
          "duration": 0.174194,
          "velocity": 0.88189
        },
        {
          "time": 577.976006,
          "name": "D6",
          "midi": 86,
          "duration": 0.174194,
          "velocity": 0.811024
        },
        {
          "time": 577.979232,
          "name": "D5",
          "midi": 74,
          "duration": 0.174194,
          "velocity": 0.834646
        },
        {
          "time": 577.979232,
          "name": "D6",
          "midi": 86,
          "duration": 0.174194,
          "velocity": 0.834646
        },
        {
          "time": 578.166329,
          "name": "D5",
          "midi": 74,
          "duration": 0.174194,
          "velocity": 0.88189
        },
        {
          "time": 578.169555,
          "name": "D6",
          "midi": 86,
          "duration": 0.174194,
          "velocity": 0.811024
        },
        {
          "time": 578.17278,
          "name": "D5",
          "midi": 74,
          "duration": 0.174194,
          "velocity": 0.834646
        },
        {
          "time": 578.17278,
          "name": "D6",
          "midi": 86,
          "duration": 0.174194,
          "velocity": 0.834646
        },
        {
          "time": 578.176006,
          "name": "F#5",
          "midi": 78,
          "duration": 0.192935,
          "velocity": 0.818898
        },
        {
          "time": 578.176006,
          "name": "A4",
          "midi": 69,
          "duration": 0.192935,
          "velocity": 0.818898
        },
        {
          "time": 578.359877,
          "name": "F#5",
          "midi": 78,
          "duration": 0.163142,
          "velocity": 0.88189
        },
        {
          "time": 578.362898,
          "name": "F#6",
          "midi": 90,
          "duration": 0.163142,
          "velocity": 0.811024
        },
        {
          "time": 578.36592,
          "name": "F#6",
          "midi": 90,
          "duration": 0.163142,
          "velocity": 0.834646
        },
        {
          "time": 578.36592,
          "name": "F#5",
          "midi": 78,
          "duration": 0.163142,
          "velocity": 0.834646
        },
        {
          "time": 578.541146,
          "name": "A5",
          "midi": 81,
          "duration": 0.163142,
          "velocity": 0.88189
        },
        {
          "time": 578.544167,
          "name": "A6",
          "midi": 93,
          "duration": 0.163142,
          "velocity": 0.811024
        },
        {
          "time": 578.547189,
          "name": "A6",
          "midi": 93,
          "duration": 0.163142,
          "velocity": 0.834646
        },
        {
          "time": 578.547189,
          "name": "A5",
          "midi": 81,
          "duration": 0.163142,
          "velocity": 0.834646
        },
        {
          "time": 578.55021,
          "name": "D5",
          "midi": 74,
          "duration": 0.181883,
          "velocity": 0.818898
        },
        {
          "time": 578.55021,
          "name": "F#5",
          "midi": 78,
          "duration": 0.181883,
          "velocity": 0.818898
        },
        {
          "time": 578.722415,
          "name": "D6",
          "midi": 86,
          "duration": 0.174194,
          "velocity": 0.88189
        },
        {
          "time": 578.725641,
          "name": "D7",
          "midi": 98,
          "duration": 0.174194,
          "velocity": 0.811024
        },
        {
          "time": 578.728867,
          "name": "D6",
          "midi": 86,
          "duration": 0.174194,
          "velocity": 0.834646
        },
        {
          "time": 578.732093,
          "name": "A5",
          "midi": 81,
          "duration": 0.193549,
          "velocity": 0.818898
        },
        {
          "time": 578.732093,
          "name": "F#5",
          "midi": 78,
          "duration": 0.193549,
          "velocity": 0.818898
        },
        {
          "time": 578.915964,
          "name": "D5",
          "midi": 74,
          "duration": 0.174194,
          "velocity": 0.88189
        },
        {
          "time": 579.109512,
          "name": "D4",
          "midi": 62,
          "duration": 0.163142,
          "velocity": 0.88189
        },
        {
          "time": 579.296824,
          "name": "A5",
          "midi": 81,
          "duration": 0.181678,
          "velocity": 0.834646
        },
        {
          "time": 579.296824,
          "name": "F#5",
          "midi": 78,
          "duration": 0.181678,
          "velocity": 0.834646
        },
        {
          "time": 579.299845,
          "name": "A5",
          "midi": 81,
          "duration": 0.181883,
          "velocity": 0.818898
        },
        {
          "time": 579.299845,
          "name": "F#5",
          "midi": 78,
          "duration": 0.181883,
          "velocity": 0.818898
        },
        {
          "time": 579.478502,
          "name": "A5",
          "midi": 81,
          "duration": 0.567957,
          "velocity": 0.834646
        },
        {
          "time": 579.478502,
          "name": "C6",
          "midi": 84,
          "duration": 0.567957,
          "velocity": 0.834646
        },
        {
          "time": 579.481728,
          "name": "A5",
          "midi": 81,
          "duration": 0.567752,
          "velocity": 0.818898
        },
        {
          "time": 579.481728,
          "name": "C6",
          "midi": 84,
          "duration": 0.567752,
          "velocity": 0.818898
        },
        {
          "time": 579.859147,
          "name": "D5",
          "midi": 74,
          "duration": 0.181269,
          "velocity": 0.88189
        },
        {
          "time": 580.040416,
          "name": "D6",
          "midi": 86,
          "duration": 0.181269,
          "velocity": 0.88189
        },
        {
          "time": 580.046459,
          "name": "F#5",
          "midi": 78,
          "duration": 0.181678,
          "velocity": 0.834646
        },
        {
          "time": 580.046459,
          "name": "D5",
          "midi": 74,
          "duration": 0.181678,
          "velocity": 0.834646
        },
        {
          "time": 580.04948,
          "name": "F#5",
          "midi": 78,
          "duration": 0.181883,
          "velocity": 0.818898
        },
        {
          "time": 580.04948,
          "name": "D5",
          "midi": 74,
          "duration": 0.181883,
          "velocity": 0.818898
        },
        {
          "time": 580.228137,
          "name": "G#5",
          "midi": 80,
          "duration": 0.567957,
          "velocity": 0.834646
        },
        {
          "time": 580.228137,
          "name": "F5",
          "midi": 77,
          "duration": 0.567957,
          "velocity": 0.834646
        },
        {
          "time": 580.231363,
          "name": "G#5",
          "midi": 80,
          "duration": 0.567752,
          "velocity": 0.818898
        },
        {
          "time": 580.231363,
          "name": "F5",
          "midi": 77,
          "duration": 0.567752,
          "velocity": 0.818898
        },
        {
          "time": 580.608782,
          "name": "D5",
          "midi": 74,
          "duration": 0.181269,
          "velocity": 0.88189
        },
        {
          "time": 580.790051,
          "name": "D6",
          "midi": 86,
          "duration": 0.181269,
          "velocity": 0.88189
        },
        {
          "time": 580.796094,
          "name": "F5",
          "midi": 77,
          "duration": 0.181678,
          "velocity": 0.834646
        },
        {
          "time": 580.796094,
          "name": "D5",
          "midi": 74,
          "duration": 0.181678,
          "velocity": 0.834646
        },
        {
          "time": 580.799115,
          "name": "F5",
          "midi": 77,
          "duration": 0.181883,
          "velocity": 0.818898
        },
        {
          "time": 580.799115,
          "name": "D5",
          "midi": 74,
          "duration": 0.181883,
          "velocity": 0.818898
        },
        {
          "time": 580.977772,
          "name": "A5",
          "midi": 81,
          "duration": 0.567957,
          "velocity": 0.834646
        },
        {
          "time": 580.977772,
          "name": "F#5",
          "midi": 78,
          "duration": 0.567957,
          "velocity": 0.834646
        },
        {
          "time": 580.980998,
          "name": "A5",
          "midi": 81,
          "duration": 0.567752,
          "velocity": 0.818898
        },
        {
          "time": 580.980998,
          "name": "F#5",
          "midi": 78,
          "duration": 0.567752,
          "velocity": 0.818898
        },
        {
          "time": 581.358417,
          "name": "D5",
          "midi": 74,
          "duration": 0.181269,
          "velocity": 0.88189
        },
        {
          "time": 581.539686,
          "name": "D6",
          "midi": 86,
          "duration": 0.181269,
          "velocity": 0.88189
        },
        {
          "time": 581.545729,
          "name": "F5",
          "midi": 77,
          "duration": 0.181678,
          "velocity": 0.834646
        },
        {
          "time": 581.545729,
          "name": "D5",
          "midi": 74,
          "duration": 0.181678,
          "velocity": 0.834646
        },
        {
          "time": 581.54875,
          "name": "F5",
          "midi": 77,
          "duration": 0.181883,
          "velocity": 0.818898
        },
        {
          "time": 581.54875,
          "name": "D5",
          "midi": 74,
          "duration": 0.181883,
          "velocity": 0.818898
        },
        {
          "time": 581.727407,
          "name": "G5",
          "midi": 79,
          "duration": 0.05,
          "velocity": 0.834646
        },
        {
          "time": 581.730633,
          "name": "G5",
          "midi": 79,
          "duration": 0.05,
          "velocity": 0.818898
        },
        {
          "time": 581.775794,
          "name": "D5",
          "midi": 74,
          "duration": 0.087097,
          "velocity": 0.834646
        },
        {
          "time": 581.775794,
          "name": "F#5",
          "midi": 78,
          "duration": 0.087097,
          "velocity": 0.834646
        },
        {
          "time": 581.77902,
          "name": "D5",
          "midi": 74,
          "duration": 0.087097,
          "velocity": 0.818898
        },
        {
          "time": 581.77902,
          "name": "F#5",
          "midi": 78,
          "duration": 0.087097,
          "velocity": 0.818898
        },
        {
          "time": 581.920955,
          "name": "G#5",
          "midi": 80,
          "duration": 0.145161,
          "velocity": 0.834646
        },
        {
          "time": 581.920955,
          "name": "F5",
          "midi": 77,
          "duration": 0.145161,
          "velocity": 0.834646
        },
        {
          "time": 581.924181,
          "name": "F5",
          "midi": 77,
          "duration": 0.145161,
          "velocity": 0.818898
        },
        {
          "time": 581.924181,
          "name": "G#5",
          "midi": 80,
          "duration": 0.145161,
          "velocity": 0.818898
        },
        {
          "time": 582.108052,
          "name": "D5",
          "midi": 74,
          "duration": 0.181269,
          "velocity": 0.88189
        },
        {
          "time": 582.114095,
          "name": "A5",
          "midi": 81,
          "duration": 0.135952,
          "velocity": 0.834646
        },
        {
          "time": 582.114095,
          "name": "F#5",
          "midi": 78,
          "duration": 0.135952,
          "velocity": 0.834646
        },
        {
          "time": 582.117116,
          "name": "A5",
          "midi": 81,
          "duration": 0.135952,
          "velocity": 0.818898
        },
        {
          "time": 582.117116,
          "name": "F#5",
          "midi": 78,
          "duration": 0.135952,
          "velocity": 0.818898
        },
        {
          "time": 582.289321,
          "name": "D6",
          "midi": 86,
          "duration": 0.181269,
          "velocity": 0.88189
        },
        {
          "time": 582.295364,
          "name": "C6",
          "midi": 84,
          "duration": 0.135952,
          "velocity": 0.834646
        },
        {
          "time": 582.295364,
          "name": "A5",
          "midi": 81,
          "duration": 0.135952,
          "velocity": 0.834646
        },
        {
          "time": 582.298385,
          "name": "C6",
          "midi": 84,
          "duration": 0.135952,
          "velocity": 0.818898
        },
        {
          "time": 582.298385,
          "name": "A5",
          "midi": 81,
          "duration": 0.135952,
          "velocity": 0.818898
        },
        {
          "time": 582.477042,
          "name": "E6",
          "midi": 88,
          "duration": 0.567957,
          "velocity": 0.834646
        },
        {
          "time": 582.477042,
          "name": "C6",
          "midi": 84,
          "duration": 0.567957,
          "velocity": 0.834646
        },
        {
          "time": 582.480268,
          "name": "E6",
          "midi": 88,
          "duration": 0.567752,
          "velocity": 0.818898
        },
        {
          "time": 582.480268,
          "name": "C6",
          "midi": 84,
          "duration": 0.567752,
          "velocity": 0.818898
        },
        {
          "time": 582.857687,
          "name": "D5",
          "midi": 74,
          "duration": 0.181269,
          "velocity": 0.88189
        },
        {
          "time": 583.038956,
          "name": "D6",
          "midi": 86,
          "duration": 0.181269,
          "velocity": 0.88189
        },
        {
          "time": 583.044999,
          "name": "A5",
          "midi": 81,
          "duration": 0.181678,
          "velocity": 0.834646
        },
        {
          "time": 583.044999,
          "name": "F#5",
          "midi": 78,
          "duration": 0.181678,
          "velocity": 0.834646
        },
        {
          "time": 583.04802,
          "name": "A5",
          "midi": 81,
          "duration": 0.181883,
          "velocity": 0.818898
        },
        {
          "time": 583.04802,
          "name": "F#5",
          "midi": 78,
          "duration": 0.181883,
          "velocity": 0.818898
        },
        {
          "time": 583.226677,
          "name": "B5",
          "midi": 83,
          "duration": 0.567957,
          "velocity": 0.834646
        },
        {
          "time": 583.226677,
          "name": "G#5",
          "midi": 80,
          "duration": 0.567957,
          "velocity": 0.834646
        },
        {
          "time": 583.229903,
          "name": "B5",
          "midi": 83,
          "duration": 0.567752,
          "velocity": 0.818898
        },
        {
          "time": 583.229903,
          "name": "G#5",
          "midi": 80,
          "duration": 0.567752,
          "velocity": 0.818898
        },
        {
          "time": 583.607322,
          "name": "D5",
          "midi": 74,
          "duration": 0.181269,
          "velocity": 0.88189
        },
        {
          "time": 583.788591,
          "name": "D6",
          "midi": 86,
          "duration": 0.181269,
          "velocity": 0.88189
        },
        {
          "time": 583.794634,
          "name": "A5",
          "midi": 81,
          "duration": 0.181678,
          "velocity": 0.834646
        },
        {
          "time": 583.794634,
          "name": "F#5",
          "midi": 78,
          "duration": 0.181678,
          "velocity": 0.834646
        },
        {
          "time": 583.797655,
          "name": "A5",
          "midi": 81,
          "duration": 0.181883,
          "velocity": 0.818898
        },
        {
          "time": 583.797655,
          "name": "F#5",
          "midi": 78,
          "duration": 0.181883,
          "velocity": 0.818898
        },
        {
          "time": 583.976312,
          "name": "C6",
          "midi": 84,
          "duration": 0.567957,
          "velocity": 0.834646
        },
        {
          "time": 583.976312,
          "name": "A5",
          "midi": 81,
          "duration": 0.567957,
          "velocity": 0.834646
        },
        {
          "time": 583.979538,
          "name": "C6",
          "midi": 84,
          "duration": 0.567752,
          "velocity": 0.818898
        },
        {
          "time": 583.979538,
          "name": "A5",
          "midi": 81,
          "duration": 0.567752,
          "velocity": 0.818898
        },
        {
          "time": 584.356957,
          "name": "D5",
          "midi": 74,
          "duration": 0.181269,
          "velocity": 0.88189
        },
        {
          "time": 584.538226,
          "name": "D6",
          "midi": 86,
          "duration": 0.181269,
          "velocity": 0.88189
        },
        {
          "time": 584.544269,
          "name": "G#5",
          "midi": 80,
          "duration": 0.181678,
          "velocity": 0.834646
        },
        {
          "time": 584.544269,
          "name": "F5",
          "midi": 77,
          "duration": 0.181678,
          "velocity": 0.834646
        },
        {
          "time": 584.54729,
          "name": "G#5",
          "midi": 80,
          "duration": 0.181883,
          "velocity": 0.818898
        },
        {
          "time": 584.54729,
          "name": "F5",
          "midi": 77,
          "duration": 0.181883,
          "velocity": 0.818898
        },
        {
          "time": 584.725947,
          "name": "B5",
          "midi": 83,
          "duration": 0.05,
          "velocity": 0.834646
        },
        {
          "time": 584.729173,
          "name": "B5",
          "midi": 83,
          "duration": 0.05,
          "velocity": 0.818898
        },
        {
          "time": 584.774334,
          "name": "A5",
          "midi": 81,
          "duration": 0.087097,
          "velocity": 0.834646
        },
        {
          "time": 584.774334,
          "name": "F#5",
          "midi": 78,
          "duration": 0.087097,
          "velocity": 0.834646
        },
        {
          "time": 584.77756,
          "name": "A5",
          "midi": 81,
          "duration": 0.087097,
          "velocity": 0.818898
        },
        {
          "time": 584.77756,
          "name": "F#5",
          "midi": 78,
          "duration": 0.087097,
          "velocity": 0.818898
        },
        {
          "time": 584.919495,
          "name": "G#5",
          "midi": 80,
          "duration": 0.145161,
          "velocity": 0.834646
        },
        {
          "time": 584.919495,
          "name": "F5",
          "midi": 77,
          "duration": 0.145161,
          "velocity": 0.834646
        },
        {
          "time": 584.922721,
          "name": "G#5",
          "midi": 80,
          "duration": 0.145161,
          "velocity": 0.818898
        },
        {
          "time": 584.922721,
          "name": "F5",
          "midi": 77,
          "duration": 0.145161,
          "velocity": 0.818898
        },
        {
          "time": 585.106592,
          "name": "D5",
          "midi": 74,
          "duration": 0.181269,
          "velocity": 0.88189
        },
        {
          "time": 585.112635,
          "name": "A5",
          "midi": 81,
          "duration": 0.135952,
          "velocity": 0.834646
        },
        {
          "time": 585.112635,
          "name": "F#5",
          "midi": 78,
          "duration": 0.135952,
          "velocity": 0.834646
        },
        {
          "time": 585.115656,
          "name": "A5",
          "midi": 81,
          "duration": 0.135952,
          "velocity": 0.818898
        },
        {
          "time": 585.115656,
          "name": "F#5",
          "midi": 78,
          "duration": 0.135952,
          "velocity": 0.818898
        },
        {
          "time": 585.287861,
          "name": "D6",
          "midi": 86,
          "duration": 0.181269,
          "velocity": 0.88189
        },
        {
          "time": 585.293904,
          "name": "A5",
          "midi": 81,
          "duration": 0.135952,
          "velocity": 0.834646
        },
        {
          "time": 585.293904,
          "name": "F#5",
          "midi": 78,
          "duration": 0.135952,
          "velocity": 0.834646
        },
        {
          "time": 585.296925,
          "name": "A5",
          "midi": 81,
          "duration": 0.135952,
          "velocity": 0.818898
        },
        {
          "time": 585.296925,
          "name": "F#5",
          "midi": 78,
          "duration": 0.135952,
          "velocity": 0.818898
        },
        {
          "time": 585.475582,
          "name": "A5",
          "midi": 81,
          "duration": 0.567957,
          "velocity": 0.834646
        },
        {
          "time": 585.475582,
          "name": "C6",
          "midi": 84,
          "duration": 0.567957,
          "velocity": 0.834646
        },
        {
          "time": 585.478808,
          "name": "A5",
          "midi": 81,
          "duration": 0.567752,
          "velocity": 0.818898
        },
        {
          "time": 585.478808,
          "name": "C6",
          "midi": 84,
          "duration": 0.567752,
          "velocity": 0.818898
        },
        {
          "time": 585.856227,
          "name": "D5",
          "midi": 74,
          "duration": 0.181269,
          "velocity": 0.88189
        },
        {
          "time": 586.037496,
          "name": "D6",
          "midi": 86,
          "duration": 0.181269,
          "velocity": 0.88189
        },
        {
          "time": 586.043539,
          "name": "F#5",
          "midi": 78,
          "duration": 0.181678,
          "velocity": 0.834646
        },
        {
          "time": 586.043539,
          "name": "D5",
          "midi": 74,
          "duration": 0.181678,
          "velocity": 0.834646
        },
        {
          "time": 586.04656,
          "name": "F#5",
          "midi": 78,
          "duration": 0.181883,
          "velocity": 0.818898
        },
        {
          "time": 586.04656,
          "name": "D5",
          "midi": 74,
          "duration": 0.181883,
          "velocity": 0.818898
        },
        {
          "time": 586.225217,
          "name": "G#5",
          "midi": 80,
          "duration": 0.567957,
          "velocity": 0.834646
        },
        {
          "time": 586.225217,
          "name": "F5",
          "midi": 77,
          "duration": 0.567957,
          "velocity": 0.834646
        },
        {
          "time": 586.228443,
          "name": "G#5",
          "midi": 80,
          "duration": 0.567752,
          "velocity": 0.818898
        },
        {
          "time": 586.228443,
          "name": "F5",
          "midi": 77,
          "duration": 0.567752,
          "velocity": 0.818898
        },
        {
          "time": 586.605862,
          "name": "D5",
          "midi": 74,
          "duration": 0.181269,
          "velocity": 0.88189
        },
        {
          "time": 586.787131,
          "name": "D6",
          "midi": 86,
          "duration": 0.181269,
          "velocity": 0.88189
        },
        {
          "time": 586.793174,
          "name": "F5",
          "midi": 77,
          "duration": 0.181678,
          "velocity": 0.834646
        },
        {
          "time": 586.793174,
          "name": "D5",
          "midi": 74,
          "duration": 0.181678,
          "velocity": 0.834646
        },
        {
          "time": 586.796195,
          "name": "F5",
          "midi": 77,
          "duration": 0.181883,
          "velocity": 0.818898
        },
        {
          "time": 586.796195,
          "name": "D5",
          "midi": 74,
          "duration": 0.181883,
          "velocity": 0.818898
        },
        {
          "time": 586.974852,
          "name": "A5",
          "midi": 81,
          "duration": 0.567957,
          "velocity": 0.834646
        },
        {
          "time": 586.974852,
          "name": "F#5",
          "midi": 78,
          "duration": 0.567957,
          "velocity": 0.834646
        },
        {
          "time": 586.978078,
          "name": "A5",
          "midi": 81,
          "duration": 0.567752,
          "velocity": 0.818898
        },
        {
          "time": 586.978078,
          "name": "F#5",
          "midi": 78,
          "duration": 0.567752,
          "velocity": 0.818898
        },
        {
          "time": 587.355497,
          "name": "D5",
          "midi": 74,
          "duration": 0.181269,
          "velocity": 0.88189
        },
        {
          "time": 587.536766,
          "name": "D6",
          "midi": 86,
          "duration": 0.181269,
          "velocity": 0.88189
        },
        {
          "time": 587.542809,
          "name": "F5",
          "midi": 77,
          "duration": 0.181678,
          "velocity": 0.834646
        },
        {
          "time": 587.542809,
          "name": "D5",
          "midi": 74,
          "duration": 0.181678,
          "velocity": 0.834646
        },
        {
          "time": 587.54583,
          "name": "F5",
          "midi": 77,
          "duration": 0.181883,
          "velocity": 0.818898
        },
        {
          "time": 587.54583,
          "name": "D5",
          "midi": 74,
          "duration": 0.181883,
          "velocity": 0.818898
        },
        {
          "time": 587.724487,
          "name": "G5",
          "midi": 79,
          "duration": 0.05,
          "velocity": 0.834646
        },
        {
          "time": 587.727713,
          "name": "G5",
          "midi": 79,
          "duration": 0.05,
          "velocity": 0.818898
        },
        {
          "time": 587.772874,
          "name": "D5",
          "midi": 74,
          "duration": 0.087097,
          "velocity": 0.834646
        },
        {
          "time": 587.772874,
          "name": "F#5",
          "midi": 78,
          "duration": 0.087097,
          "velocity": 0.834646
        },
        {
          "time": 587.7761,
          "name": "D5",
          "midi": 74,
          "duration": 0.087097,
          "velocity": 0.818898
        },
        {
          "time": 587.7761,
          "name": "F#5",
          "midi": 78,
          "duration": 0.087097,
          "velocity": 0.818898
        },
        {
          "time": 587.918035,
          "name": "G#5",
          "midi": 80,
          "duration": 0.145161,
          "velocity": 0.834646
        },
        {
          "time": 587.918035,
          "name": "F5",
          "midi": 77,
          "duration": 0.145161,
          "velocity": 0.834646
        },
        {
          "time": 587.921261,
          "name": "F5",
          "midi": 77,
          "duration": 0.145161,
          "velocity": 0.818898
        },
        {
          "time": 587.921261,
          "name": "G#5",
          "midi": 80,
          "duration": 0.145161,
          "velocity": 0.818898
        },
        {
          "time": 588.105132,
          "name": "D5",
          "midi": 74,
          "duration": 0.181269,
          "velocity": 0.88189
        },
        {
          "time": 588.111175,
          "name": "A5",
          "midi": 81,
          "duration": 0.135952,
          "velocity": 0.834646
        },
        {
          "time": 588.111175,
          "name": "F#5",
          "midi": 78,
          "duration": 0.135952,
          "velocity": 0.834646
        },
        {
          "time": 588.114196,
          "name": "A5",
          "midi": 81,
          "duration": 0.135952,
          "velocity": 0.818898
        },
        {
          "time": 588.114196,
          "name": "F#5",
          "midi": 78,
          "duration": 0.135952,
          "velocity": 0.818898
        },
        {
          "time": 588.286401,
          "name": "D6",
          "midi": 86,
          "duration": 0.181269,
          "velocity": 0.88189
        },
        {
          "time": 588.292444,
          "name": "C6",
          "midi": 84,
          "duration": 0.135952,
          "velocity": 0.834646
        },
        {
          "time": 588.292444,
          "name": "A5",
          "midi": 81,
          "duration": 0.135952,
          "velocity": 0.834646
        },
        {
          "time": 588.295465,
          "name": "C6",
          "midi": 84,
          "duration": 0.135952,
          "velocity": 0.818898
        },
        {
          "time": 588.295465,
          "name": "A5",
          "midi": 81,
          "duration": 0.135952,
          "velocity": 0.818898
        },
        {
          "time": 588.474122,
          "name": "E6",
          "midi": 88,
          "duration": 0.567957,
          "velocity": 0.834646
        },
        {
          "time": 588.474122,
          "name": "C6",
          "midi": 84,
          "duration": 0.567957,
          "velocity": 0.834646
        },
        {
          "time": 588.477348,
          "name": "E6",
          "midi": 88,
          "duration": 0.567752,
          "velocity": 0.818898
        },
        {
          "time": 588.477348,
          "name": "C6",
          "midi": 84,
          "duration": 0.567752,
          "velocity": 0.818898
        },
        {
          "time": 588.854767,
          "name": "D5",
          "midi": 74,
          "duration": 0.181269,
          "velocity": 0.88189
        },
        {
          "time": 589.036036,
          "name": "D6",
          "midi": 86,
          "duration": 0.181269,
          "velocity": 0.88189
        },
        {
          "time": 589.042079,
          "name": "A5",
          "midi": 81,
          "duration": 0.181678,
          "velocity": 0.834646
        },
        {
          "time": 589.042079,
          "name": "F#5",
          "midi": 78,
          "duration": 0.181678,
          "velocity": 0.834646
        },
        {
          "time": 589.0451,
          "name": "A5",
          "midi": 81,
          "duration": 0.181883,
          "velocity": 0.818898
        },
        {
          "time": 589.0451,
          "name": "F#5",
          "midi": 78,
          "duration": 0.181883,
          "velocity": 0.818898
        },
        {
          "time": 589.223757,
          "name": "B5",
          "midi": 83,
          "duration": 0.567957,
          "velocity": 0.834646
        },
        {
          "time": 589.223757,
          "name": "G#5",
          "midi": 80,
          "duration": 0.567957,
          "velocity": 0.834646
        },
        {
          "time": 589.226983,
          "name": "B5",
          "midi": 83,
          "duration": 0.567752,
          "velocity": 0.818898
        },
        {
          "time": 589.226983,
          "name": "G#5",
          "midi": 80,
          "duration": 0.567752,
          "velocity": 0.818898
        },
        {
          "time": 589.604402,
          "name": "D5",
          "midi": 74,
          "duration": 0.181269,
          "velocity": 0.88189
        },
        {
          "time": 589.785671,
          "name": "D6",
          "midi": 86,
          "duration": 0.181269,
          "velocity": 0.88189
        },
        {
          "time": 589.791714,
          "name": "A5",
          "midi": 81,
          "duration": 0.181678,
          "velocity": 0.834646
        },
        {
          "time": 589.791714,
          "name": "F#5",
          "midi": 78,
          "duration": 0.181678,
          "velocity": 0.834646
        },
        {
          "time": 589.794735,
          "name": "A5",
          "midi": 81,
          "duration": 0.181883,
          "velocity": 0.818898
        },
        {
          "time": 589.794735,
          "name": "F#5",
          "midi": 78,
          "duration": 0.181883,
          "velocity": 0.818898
        },
        {
          "time": 589.973392,
          "name": "C6",
          "midi": 84,
          "duration": 0.567957,
          "velocity": 0.834646
        },
        {
          "time": 589.973392,
          "name": "A5",
          "midi": 81,
          "duration": 0.567957,
          "velocity": 0.834646
        },
        {
          "time": 589.976618,
          "name": "C6",
          "midi": 84,
          "duration": 0.567752,
          "velocity": 0.818898
        },
        {
          "time": 589.976618,
          "name": "A5",
          "midi": 81,
          "duration": 0.567752,
          "velocity": 0.818898
        },
        {
          "time": 590.354037,
          "name": "D5",
          "midi": 74,
          "duration": 0.181269,
          "velocity": 0.88189
        },
        {
          "time": 590.535306,
          "name": "D6",
          "midi": 86,
          "duration": 0.181269,
          "velocity": 0.88189
        },
        {
          "time": 590.541349,
          "name": "G#5",
          "midi": 80,
          "duration": 0.181678,
          "velocity": 0.834646
        },
        {
          "time": 590.541349,
          "name": "F5",
          "midi": 77,
          "duration": 0.181678,
          "velocity": 0.834646
        },
        {
          "time": 590.54437,
          "name": "G#5",
          "midi": 80,
          "duration": 0.181883,
          "velocity": 0.818898
        },
        {
          "time": 590.54437,
          "name": "F5",
          "midi": 77,
          "duration": 0.181883,
          "velocity": 0.818898
        },
        {
          "time": 590.723027,
          "name": "B5",
          "midi": 83,
          "duration": 0.05,
          "velocity": 0.834646
        },
        {
          "time": 590.726253,
          "name": "B5",
          "midi": 83,
          "duration": 0.05,
          "velocity": 0.818898
        },
        {
          "time": 590.771414,
          "name": "A5",
          "midi": 81,
          "duration": 0.087097,
          "velocity": 0.834646
        },
        {
          "time": 590.771414,
          "name": "F#5",
          "midi": 78,
          "duration": 0.087097,
          "velocity": 0.834646
        },
        {
          "time": 590.77464,
          "name": "A5",
          "midi": 81,
          "duration": 0.087097,
          "velocity": 0.818898
        },
        {
          "time": 590.77464,
          "name": "F#5",
          "midi": 78,
          "duration": 0.087097,
          "velocity": 0.818898
        },
        {
          "time": 590.916575,
          "name": "G#5",
          "midi": 80,
          "duration": 0.145161,
          "velocity": 0.834646
        },
        {
          "time": 590.916575,
          "name": "F5",
          "midi": 77,
          "duration": 0.145161,
          "velocity": 0.834646
        },
        {
          "time": 590.919801,
          "name": "G#5",
          "midi": 80,
          "duration": 0.145161,
          "velocity": 0.818898
        },
        {
          "time": 590.919801,
          "name": "F5",
          "midi": 77,
          "duration": 0.145161,
          "velocity": 0.818898
        },
        {
          "time": 591.103672,
          "name": "D6",
          "midi": 86,
          "duration": 0.181269,
          "velocity": 0.88189
        },
        {
          "time": 591.109715,
          "name": "A5",
          "midi": 81,
          "duration": 0.135952,
          "velocity": 0.834646
        },
        {
          "time": 591.109715,
          "name": "F#5",
          "midi": 78,
          "duration": 0.135952,
          "velocity": 0.834646
        },
        {
          "time": 591.112736,
          "name": "A5",
          "midi": 81,
          "duration": 0.135952,
          "velocity": 0.818898
        },
        {
          "time": 591.112736,
          "name": "F#5",
          "midi": 78,
          "duration": 0.135952,
          "velocity": 0.818898
        },
        {
          "time": 591.284941,
          "name": "D5",
          "midi": 74,
          "duration": 0.181269,
          "velocity": 0.88189
        },
        {
          "time": 591.290984,
          "name": "D5",
          "midi": 74,
          "duration": 0.135952,
          "velocity": 0.834646
        },
        {
          "time": 591.290984,
          "name": "F#5",
          "midi": 78,
          "duration": 0.135952,
          "velocity": 0.834646
        },
        {
          "time": 591.294005,
          "name": "D5",
          "midi": 74,
          "duration": 0.135952,
          "velocity": 0.818898
        },
        {
          "time": 591.294005,
          "name": "F#5",
          "midi": 78,
          "duration": 0.135952,
          "velocity": 0.818898
        },
        {
          "time": 591.46621,
          "name": "A5",
          "midi": 81,
          "duration": 0.193549,
          "velocity": 0.88189
        },
        {
          "time": 591.472662,
          "name": "A5",
          "midi": 81,
          "duration": 0.193548,
          "velocity": 0.834646
        },
        {
          "time": 591.472662,
          "name": "F#5",
          "midi": 78,
          "duration": 0.193548,
          "velocity": 0.834646
        },
        {
          "time": 591.475888,
          "name": "A5",
          "midi": 81,
          "duration": 0.193549,
          "velocity": 0.818898
        },
        {
          "time": 591.475888,
          "name": "F#5",
          "midi": 78,
          "duration": 0.193549,
          "velocity": 0.818898
        },
        {
          "time": 591.659759,
          "name": "C6",
          "midi": 84,
          "duration": 0.193549,
          "velocity": 0.88189
        },
        {
          "time": 591.66621,
          "name": "A5",
          "midi": 81,
          "duration": 0.193139,
          "velocity": 0.834646
        },
        {
          "time": 591.66621,
          "name": "C6",
          "midi": 84,
          "duration": 0.193139,
          "velocity": 0.834646
        },
        {
          "time": 591.669436,
          "name": "A5",
          "midi": 81,
          "duration": 0.192935,
          "velocity": 0.818898
        },
        {
          "time": 591.669436,
          "name": "C6",
          "midi": 84,
          "duration": 0.192935,
          "velocity": 0.818898
        },
        {
          "time": 591.853307,
          "name": "B5",
          "midi": 83,
          "duration": 0.181269,
          "velocity": 0.88189
        },
        {
          "time": 591.85935,
          "name": "B5",
          "midi": 83,
          "duration": 0.181269,
          "velocity": 0.834646
        },
        {
          "time": 591.85935,
          "name": "G5",
          "midi": 79,
          "duration": 0.181269,
          "velocity": 0.834646
        },
        {
          "time": 591.862371,
          "name": "B5",
          "midi": 83,
          "duration": 0.181269,
          "velocity": 0.818898
        },
        {
          "time": 591.862371,
          "name": "G5",
          "midi": 79,
          "duration": 0.181269,
          "velocity": 0.818898
        },
        {
          "time": 592.034576,
          "name": "G5",
          "midi": 79,
          "duration": 0.181269,
          "velocity": 0.88189
        },
        {
          "time": 592.040619,
          "name": "B4",
          "midi": 71,
          "duration": 0.181678,
          "velocity": 0.834646
        },
        {
          "time": 592.040619,
          "name": "G5",
          "midi": 79,
          "duration": 0.181678,
          "velocity": 0.834646
        },
        {
          "time": 592.04364,
          "name": "B4",
          "midi": 71,
          "duration": 0.181883,
          "velocity": 0.818898
        },
        {
          "time": 592.04364,
          "name": "G5",
          "midi": 79,
          "duration": 0.181883,
          "velocity": 0.818898
        },
        {
          "time": 592.215845,
          "name": "F#5",
          "midi": 78,
          "duration": 0.193549,
          "velocity": 0.88189
        },
        {
          "time": 592.222297,
          "name": "F#5",
          "midi": 78,
          "duration": 0.193548,
          "velocity": 0.834646
        },
        {
          "time": 592.222297,
          "name": "A4",
          "midi": 69,
          "duration": 0.193548,
          "velocity": 0.834646
        },
        {
          "time": 592.225523,
          "name": "F#5",
          "midi": 78,
          "duration": 0.193549,
          "velocity": 0.818898
        },
        {
          "time": 592.225523,
          "name": "A4",
          "midi": 69,
          "duration": 0.193549,
          "velocity": 0.818898
        },
        {
          "time": 592.409394,
          "name": "A5",
          "midi": 81,
          "duration": 0.193549,
          "velocity": 0.88189
        },
        {
          "time": 592.415845,
          "name": "C5",
          "midi": 72,
          "duration": 0.193139,
          "velocity": 0.834646
        },
        {
          "time": 592.415845,
          "name": "A5",
          "midi": 81,
          "duration": 0.193139,
          "velocity": 0.834646
        },
        {
          "time": 592.419071,
          "name": "C5",
          "midi": 72,
          "duration": 0.192935,
          "velocity": 0.818898
        },
        {
          "time": 592.419071,
          "name": "A5",
          "midi": 81,
          "duration": 0.192935,
          "velocity": 0.818898
        },
        {
          "time": 592.602942,
          "name": "G5",
          "midi": 79,
          "duration": 0.181269,
          "velocity": 0.88189
        },
        {
          "time": 592.608985,
          "name": "G5",
          "midi": 79,
          "duration": 0.181269,
          "velocity": 0.834646
        },
        {
          "time": 592.608985,
          "name": "B4",
          "midi": 71,
          "duration": 0.181269,
          "velocity": 0.834646
        },
        {
          "time": 592.612006,
          "name": "G5",
          "midi": 79,
          "duration": 0.181269,
          "velocity": 0.818898
        },
        {
          "time": 592.612006,
          "name": "B4",
          "midi": 71,
          "duration": 0.181269,
          "velocity": 0.818898
        },
        {
          "time": 592.784211,
          "name": "E5",
          "midi": 76,
          "duration": 0.181269,
          "velocity": 0.88189
        },
        {
          "time": 592.790254,
          "name": "G4",
          "midi": 67,
          "duration": 0.181678,
          "velocity": 0.834646
        },
        {
          "time": 592.790254,
          "name": "E5",
          "midi": 76,
          "duration": 0.181678,
          "velocity": 0.834646
        },
        {
          "time": 592.793275,
          "name": "G4",
          "midi": 67,
          "duration": 0.181883,
          "velocity": 0.818898
        },
        {
          "time": 592.793275,
          "name": "E5",
          "midi": 76,
          "duration": 0.181883,
          "velocity": 0.818898
        },
        {
          "time": 592.96548,
          "name": "D5",
          "midi": 74,
          "duration": 0.193549,
          "velocity": 0.88189
        },
        {
          "time": 592.971932,
          "name": "D5",
          "midi": 74,
          "duration": 0.193548,
          "velocity": 0.834646
        },
        {
          "time": 592.971932,
          "name": "F#4",
          "midi": 66,
          "duration": 0.193548,
          "velocity": 0.834646
        },
        {
          "time": 592.975158,
          "name": "D5",
          "midi": 74,
          "duration": 0.193549,
          "velocity": 0.818898
        },
        {
          "time": 592.975158,
          "name": "F#4",
          "midi": 66,
          "duration": 0.193549,
          "velocity": 0.818898
        },
        {
          "time": 593.159029,
          "name": "F#5",
          "midi": 78,
          "duration": 0.193549,
          "velocity": 0.88189
        },
        {
          "time": 593.16548,
          "name": "A4",
          "midi": 69,
          "duration": 0.193139,
          "velocity": 0.834646
        },
        {
          "time": 593.16548,
          "name": "F#5",
          "midi": 78,
          "duration": 0.193139,
          "velocity": 0.834646
        },
        {
          "time": 593.168706,
          "name": "A4",
          "midi": 69,
          "duration": 0.192935,
          "velocity": 0.818898
        },
        {
          "time": 593.168706,
          "name": "F#5",
          "midi": 78,
          "duration": 0.192935,
          "velocity": 0.818898
        },
        {
          "time": 593.352577,
          "name": "E5",
          "midi": 76,
          "duration": 0.181269,
          "velocity": 0.88189
        },
        {
          "time": 593.35862,
          "name": "E5",
          "midi": 76,
          "duration": 0.181269,
          "velocity": 0.834646
        },
        {
          "time": 593.35862,
          "name": "G4",
          "midi": 67,
          "duration": 0.181269,
          "velocity": 0.834646
        },
        {
          "time": 593.361641,
          "name": "E5",
          "midi": 76,
          "duration": 0.181269,
          "velocity": 0.818898
        },
        {
          "time": 593.361641,
          "name": "G4",
          "midi": 67,
          "duration": 0.181269,
          "velocity": 0.818898
        },
        {
          "time": 593.533846,
          "name": "G5",
          "midi": 79,
          "duration": 0.181269,
          "velocity": 0.88189
        },
        {
          "time": 593.539889,
          "name": "B4",
          "midi": 71,
          "duration": 0.181678,
          "velocity": 0.834646
        },
        {
          "time": 593.539889,
          "name": "G5",
          "midi": 79,
          "duration": 0.181678,
          "velocity": 0.834646
        },
        {
          "time": 593.54291,
          "name": "B4",
          "midi": 71,
          "duration": 0.181883,
          "velocity": 0.818898
        },
        {
          "time": 593.54291,
          "name": "G5",
          "midi": 79,
          "duration": 0.181883,
          "velocity": 0.818898
        },
        {
          "time": 593.715115,
          "name": "F#5",
          "midi": 78,
          "duration": 0.193549,
          "velocity": 0.88189
        },
        {
          "time": 593.721567,
          "name": "F#5",
          "midi": 78,
          "duration": 0.193548,
          "velocity": 0.834646
        },
        {
          "time": 593.721567,
          "name": "A4",
          "midi": 69,
          "duration": 0.193548,
          "velocity": 0.834646
        },
        {
          "time": 593.724793,
          "name": "F#5",
          "midi": 78,
          "duration": 0.193549,
          "velocity": 0.818898
        },
        {
          "time": 593.724793,
          "name": "A4",
          "midi": 69,
          "duration": 0.193549,
          "velocity": 0.818898
        },
        {
          "time": 593.908664,
          "name": "A5",
          "midi": 81,
          "duration": 0.193549,
          "velocity": 0.88189
        },
        {
          "time": 593.915115,
          "name": "C5",
          "midi": 72,
          "duration": 0.193139,
          "velocity": 0.834646
        },
        {
          "time": 593.915115,
          "name": "A5",
          "midi": 81,
          "duration": 0.193139,
          "velocity": 0.834646
        },
        {
          "time": 593.918341,
          "name": "C5",
          "midi": 72,
          "duration": 0.192935,
          "velocity": 0.818898
        },
        {
          "time": 593.918341,
          "name": "A5",
          "midi": 81,
          "duration": 0.192935,
          "velocity": 0.818898
        },
        {
          "time": 594.102212,
          "name": "G5",
          "midi": 79,
          "duration": 0.181269,
          "velocity": 0.88189
        },
        {
          "time": 594.108255,
          "name": "G5",
          "midi": 79,
          "duration": 0.181269,
          "velocity": 0.834646
        },
        {
          "time": 594.108255,
          "name": "B4",
          "midi": 71,
          "duration": 0.181269,
          "velocity": 0.834646
        },
        {
          "time": 594.111276,
          "name": "G5",
          "midi": 79,
          "duration": 0.181269,
          "velocity": 0.818898
        },
        {
          "time": 594.111276,
          "name": "B4",
          "midi": 71,
          "duration": 0.181269,
          "velocity": 0.818898
        },
        {
          "time": 594.283481,
          "name": "B5",
          "midi": 83,
          "duration": 0.181269,
          "velocity": 0.88189
        },
        {
          "time": 594.289524,
          "name": "G5",
          "midi": 79,
          "duration": 0.181678,
          "velocity": 0.834646
        },
        {
          "time": 594.289524,
          "name": "B5",
          "midi": 83,
          "duration": 0.181678,
          "velocity": 0.834646
        },
        {
          "time": 594.292545,
          "name": "G5",
          "midi": 79,
          "duration": 0.181883,
          "velocity": 0.818898
        },
        {
          "time": 594.292545,
          "name": "B5",
          "midi": 83,
          "duration": 0.181883,
          "velocity": 0.818898
        },
        {
          "time": 594.46475,
          "name": "A5",
          "midi": 81,
          "duration": 0.193549,
          "velocity": 0.88189
        },
        {
          "time": 594.471202,
          "name": "A5",
          "midi": 81,
          "duration": 0.193548,
          "velocity": 0.834646
        },
        {
          "time": 594.471202,
          "name": "F#5",
          "midi": 78,
          "duration": 0.193548,
          "velocity": 0.834646
        },
        {
          "time": 594.474428,
          "name": "A5",
          "midi": 81,
          "duration": 0.193549,
          "velocity": 0.818898
        },
        {
          "time": 594.474428,
          "name": "F#5",
          "midi": 78,
          "duration": 0.193549,
          "velocity": 0.818898
        },
        {
          "time": 594.658299,
          "name": "C6",
          "midi": 84,
          "duration": 0.193549,
          "velocity": 0.88189
        },
        {
          "time": 594.66475,
          "name": "A5",
          "midi": 81,
          "duration": 0.193139,
          "velocity": 0.834646
        },
        {
          "time": 594.66475,
          "name": "C6",
          "midi": 84,
          "duration": 0.193139,
          "velocity": 0.834646
        },
        {
          "time": 594.667976,
          "name": "A5",
          "midi": 81,
          "duration": 0.192935,
          "velocity": 0.818898
        },
        {
          "time": 594.667976,
          "name": "C6",
          "midi": 84,
          "duration": 0.192935,
          "velocity": 0.818898
        },
        {
          "time": 594.851847,
          "name": "B5",
          "midi": 83,
          "duration": 0.181269,
          "velocity": 0.88189
        },
        {
          "time": 594.85789,
          "name": "B5",
          "midi": 83,
          "duration": 0.181269,
          "velocity": 0.834646
        },
        {
          "time": 594.85789,
          "name": "G5",
          "midi": 79,
          "duration": 0.181269,
          "velocity": 0.834646
        },
        {
          "time": 594.860911,
          "name": "B5",
          "midi": 83,
          "duration": 0.181269,
          "velocity": 0.818898
        },
        {
          "time": 594.860911,
          "name": "G5",
          "midi": 79,
          "duration": 0.181269,
          "velocity": 0.818898
        },
        {
          "time": 595.033116,
          "name": "G5",
          "midi": 79,
          "duration": 0.181269,
          "velocity": 0.88189
        },
        {
          "time": 595.039159,
          "name": "B4",
          "midi": 71,
          "duration": 0.181678,
          "velocity": 0.834646
        },
        {
          "time": 595.039159,
          "name": "G5",
          "midi": 79,
          "duration": 0.181678,
          "velocity": 0.834646
        },
        {
          "time": 595.04218,
          "name": "B4",
          "midi": 71,
          "duration": 0.181883,
          "velocity": 0.818898
        },
        {
          "time": 595.04218,
          "name": "G5",
          "midi": 79,
          "duration": 0.181883,
          "velocity": 0.818898
        },
        {
          "time": 595.214385,
          "name": "F#5",
          "midi": 78,
          "duration": 0.193549,
          "velocity": 0.88189
        },
        {
          "time": 595.220837,
          "name": "F#5",
          "midi": 78,
          "duration": 0.193548,
          "velocity": 0.834646
        },
        {
          "time": 595.220837,
          "name": "A4",
          "midi": 69,
          "duration": 0.193548,
          "velocity": 0.834646
        },
        {
          "time": 595.224063,
          "name": "F#5",
          "midi": 78,
          "duration": 0.193549,
          "velocity": 0.818898
        },
        {
          "time": 595.224063,
          "name": "A4",
          "midi": 69,
          "duration": 0.193549,
          "velocity": 0.818898
        },
        {
          "time": 595.407934,
          "name": "A5",
          "midi": 81,
          "duration": 0.193549,
          "velocity": 0.88189
        },
        {
          "time": 595.414385,
          "name": "C5",
          "midi": 72,
          "duration": 0.193139,
          "velocity": 0.834646
        },
        {
          "time": 595.414385,
          "name": "A5",
          "midi": 81,
          "duration": 0.193139,
          "velocity": 0.834646
        },
        {
          "time": 595.417611,
          "name": "C5",
          "midi": 72,
          "duration": 0.192935,
          "velocity": 0.818898
        },
        {
          "time": 595.417611,
          "name": "A5",
          "midi": 81,
          "duration": 0.192935,
          "velocity": 0.818898
        },
        {
          "time": 595.601482,
          "name": "G5",
          "midi": 79,
          "duration": 0.181269,
          "velocity": 0.88189
        },
        {
          "time": 595.607525,
          "name": "G5",
          "midi": 79,
          "duration": 0.181269,
          "velocity": 0.834646
        },
        {
          "time": 595.607525,
          "name": "B4",
          "midi": 71,
          "duration": 0.181269,
          "velocity": 0.834646
        },
        {
          "time": 595.610546,
          "name": "G5",
          "midi": 79,
          "duration": 0.181269,
          "velocity": 0.818898
        },
        {
          "time": 595.610546,
          "name": "B4",
          "midi": 71,
          "duration": 0.181269,
          "velocity": 0.818898
        },
        {
          "time": 595.782751,
          "name": "E5",
          "midi": 76,
          "duration": 0.181269,
          "velocity": 0.88189
        },
        {
          "time": 595.788794,
          "name": "G4",
          "midi": 67,
          "duration": 0.181678,
          "velocity": 0.834646
        },
        {
          "time": 595.788794,
          "name": "E5",
          "midi": 76,
          "duration": 0.181678,
          "velocity": 0.834646
        },
        {
          "time": 595.791815,
          "name": "G4",
          "midi": 67,
          "duration": 0.181883,
          "velocity": 0.818898
        },
        {
          "time": 595.791815,
          "name": "E5",
          "midi": 76,
          "duration": 0.181883,
          "velocity": 0.818898
        },
        {
          "time": 595.96402,
          "name": "D5",
          "midi": 74,
          "duration": 0.193549,
          "velocity": 0.88189
        },
        {
          "time": 595.970472,
          "name": "D5",
          "midi": 74,
          "duration": 0.193548,
          "velocity": 0.834646
        },
        {
          "time": 595.970472,
          "name": "F#4",
          "midi": 66,
          "duration": 0.193548,
          "velocity": 0.834646
        },
        {
          "time": 595.973698,
          "name": "D5",
          "midi": 74,
          "duration": 0.193549,
          "velocity": 0.818898
        },
        {
          "time": 595.973698,
          "name": "F#4",
          "midi": 66,
          "duration": 0.193549,
          "velocity": 0.818898
        },
        {
          "time": 596.167246,
          "name": "D5",
          "midi": 74,
          "duration": 0.145161,
          "velocity": 0.818898
        },
        {
          "time": 596.167246,
          "name": "F#5",
          "midi": 78,
          "duration": 0.145161,
          "velocity": 0.818898
        },
        {
          "time": 596.360181,
          "name": "C5",
          "midi": 72,
          "duration": 0.135952,
          "velocity": 0.818898
        },
        {
          "time": 596.360181,
          "name": "E5",
          "midi": 76,
          "duration": 0.135952,
          "velocity": 0.818898
        },
        {
          "time": 596.54145,
          "name": "A4",
          "midi": 69,
          "duration": 0.135952,
          "velocity": 0.818898
        },
        {
          "time": 596.54145,
          "name": "C5",
          "midi": 72,
          "duration": 0.135952,
          "velocity": 0.818898
        },
        {
          "time": 596.723333,
          "name": "G#4",
          "midi": 68,
          "duration": 0.145161,
          "velocity": 0.818898
        },
        {
          "time": 596.723333,
          "name": "B4",
          "midi": 71,
          "duration": 0.145161,
          "velocity": 0.818898
        },
        {
          "time": 596.916881,
          "name": "B4",
          "midi": 71,
          "duration": 0.145161,
          "velocity": 0.818898
        },
        {
          "time": 596.916881,
          "name": "D5",
          "midi": 74,
          "duration": 0.145161,
          "velocity": 0.818898
        },
        {
          "time": 597.109816,
          "name": "A4",
          "midi": 69,
          "duration": 0.135952,
          "velocity": 0.818898
        },
        {
          "time": 597.109816,
          "name": "C5",
          "midi": 72,
          "duration": 0.135952,
          "velocity": 0.818898
        },
        {
          "time": 597.282021,
          "name": "D6",
          "midi": 86,
          "duration": 0.181269,
          "velocity": 0.88189
        },
        {
          "time": 597.285042,
          "name": "D7",
          "midi": 98,
          "duration": 0.181474,
          "velocity": 0.811024
        },
        {
          "time": 597.288064,
          "name": "D6",
          "midi": 86,
          "duration": 0.181678,
          "velocity": 0.834646
        },
        {
          "time": 597.291085,
          "name": "F#4",
          "midi": 66,
          "duration": 0.135952,
          "velocity": 0.818898
        },
        {
          "time": 597.291085,
          "name": "A4",
          "midi": 69,
          "duration": 0.135952,
          "velocity": 0.818898
        },
        {
          "time": 597.46329,
          "name": "G6",
          "midi": 91,
          "duration": 0.547218,
          "velocity": 0.88189
        },
        {
          "time": 597.466516,
          "name": "G7",
          "midi": 103,
          "duration": 0.547013,
          "velocity": 0.811024
        },
        {
          "time": 597.469742,
          "name": "G6",
          "midi": 91,
          "duration": 0.546809,
          "velocity": 0.834646
        },
        {
          "time": 597.666516,
          "name": "G5",
          "midi": 79,
          "duration": 0.192935,
          "velocity": 0.818898
        },
        {
          "time": 597.666516,
          "name": "B4",
          "midi": 71,
          "duration": 0.192935,
          "velocity": 0.818898
        },
        {
          "time": 598.031656,
          "name": "B5",
          "midi": 83,
          "duration": 0.163142,
          "velocity": 0.88189
        },
        {
          "time": 598.034677,
          "name": "B6",
          "midi": 95,
          "duration": 0.163142,
          "velocity": 0.811024
        },
        {
          "time": 598.037699,
          "name": "B5",
          "midi": 83,
          "duration": 0.163142,
          "velocity": 0.834646
        },
        {
          "time": 598.04072,
          "name": "G5",
          "midi": 79,
          "duration": 0.181883,
          "velocity": 0.818898
        },
        {
          "time": 598.04072,
          "name": "B4",
          "midi": 71,
          "duration": 0.181883,
          "velocity": 0.818898
        },
        {
          "time": 598.212925,
          "name": "E6",
          "midi": 88,
          "duration": 0.547218,
          "velocity": 0.88189
        },
        {
          "time": 598.216151,
          "name": "E7",
          "midi": 100,
          "duration": 0.547013,
          "velocity": 0.811024
        },
        {
          "time": 598.219377,
          "name": "E6",
          "midi": 88,
          "duration": 0.546809,
          "velocity": 0.834646
        },
        {
          "time": 598.416151,
          "name": "F#5",
          "midi": 78,
          "duration": 0.192935,
          "velocity": 0.818898
        },
        {
          "time": 598.416151,
          "name": "C5",
          "midi": 72,
          "duration": 0.192935,
          "velocity": 0.818898
        },
        {
          "time": 598.781291,
          "name": "A5",
          "midi": 81,
          "duration": 0.163142,
          "velocity": 0.88189
        },
        {
          "time": 598.784312,
          "name": "A6",
          "midi": 93,
          "duration": 0.163142,
          "velocity": 0.811024
        },
        {
          "time": 598.787334,
          "name": "A5",
          "midi": 81,
          "duration": 0.163142,
          "velocity": 0.834646
        },
        {
          "time": 598.790355,
          "name": "F#5",
          "midi": 78,
          "duration": 0.181883,
          "velocity": 0.818898
        },
        {
          "time": 598.790355,
          "name": "C5",
          "midi": 72,
          "duration": 0.181883,
          "velocity": 0.818898
        },
        {
          "time": 598.96256,
          "name": "D6",
          "midi": 86,
          "duration": 0.547218,
          "velocity": 0.88189
        },
        {
          "time": 598.965786,
          "name": "D7",
          "midi": 98,
          "duration": 0.547013,
          "velocity": 0.811024
        },
        {
          "time": 598.969012,
          "name": "D6",
          "midi": 86,
          "duration": 0.546809,
          "velocity": 0.834646
        },
        {
          "time": 599.165786,
          "name": "G5",
          "midi": 79,
          "duration": 0.192935,
          "velocity": 0.818898
        },
        {
          "time": 599.165786,
          "name": "B4",
          "midi": 71,
          "duration": 0.192935,
          "velocity": 0.818898
        },
        {
          "time": 599.530926,
          "name": "F#5",
          "midi": 78,
          "duration": 0.163142,
          "velocity": 0.88189
        },
        {
          "time": 599.533947,
          "name": "F#6",
          "midi": 90,
          "duration": 0.163142,
          "velocity": 0.811024
        },
        {
          "time": 599.536969,
          "name": "F#5",
          "midi": 78,
          "duration": 0.163142,
          "velocity": 0.834646
        },
        {
          "time": 599.53999,
          "name": "D5",
          "midi": 74,
          "duration": 0.181883,
          "velocity": 0.818898
        },
        {
          "time": 599.53999,
          "name": "B4",
          "midi": 71,
          "duration": 0.181883,
          "velocity": 0.818898
        },
        {
          "time": 599.712195,
          "name": "A5",
          "midi": 81,
          "duration": 0.05,
          "velocity": 0.88189
        },
        {
          "time": 599.715421,
          "name": "A6",
          "midi": 93,
          "duration": 0.05,
          "velocity": 0.811024
        },
        {
          "time": 599.718647,
          "name": "A5",
          "midi": 81,
          "duration": 0.05,
          "velocity": 0.834646
        },
        {
          "time": 599.760582,
          "name": "G5",
          "midi": 79,
          "duration": 0.132258,
          "velocity": 0.88189
        },
        {
          "time": 599.763808,
          "name": "G6",
          "midi": 91,
          "duration": 0.132258,
          "velocity": 0.811024
        },
        {
          "time": 599.767034,
          "name": "G5",
          "midi": 79,
          "duration": 0.132258,
          "velocity": 0.834646
        },
        {
          "time": 599.905744,
          "name": "F#5",
          "midi": 78,
          "duration": 0.174194,
          "velocity": 0.88189
        },
        {
          "time": 599.90897,
          "name": "F#6",
          "midi": 90,
          "duration": 0.174194,
          "velocity": 0.811024
        },
        {
          "time": 599.912195,
          "name": "F#5",
          "midi": 78,
          "duration": 0.174194,
          "velocity": 0.834646
        },
        {
          "time": 599.915421,
          "name": "D5",
          "midi": 74,
          "duration": 0.192935,
          "velocity": 0.818898
        },
        {
          "time": 599.915421,
          "name": "B4",
          "midi": 71,
          "duration": 0.192935,
          "velocity": 0.818898
        },
        {
          "time": 600.099292,
          "name": "G5",
          "midi": 79,
          "duration": 0.163142,
          "velocity": 0.88189
        },
        {
          "time": 600.102313,
          "name": "G6",
          "midi": 91,
          "duration": 0.163142,
          "velocity": 0.811024
        },
        {
          "time": 600.105335,
          "name": "G5",
          "midi": 79,
          "duration": 0.163142,
          "velocity": 0.834646
        },
        {
          "time": 600.280561,
          "name": "B5",
          "midi": 83,
          "duration": 0.163142,
          "velocity": 0.88189
        },
        {
          "time": 600.283582,
          "name": "B6",
          "midi": 95,
          "duration": 0.163142,
          "velocity": 0.811024
        },
        {
          "time": 600.286604,
          "name": "B5",
          "midi": 83,
          "duration": 0.163142,
          "velocity": 0.834646
        },
        {
          "time": 600.289625,
          "name": "G5",
          "midi": 79,
          "duration": 0.181883,
          "velocity": 0.818898
        },
        {
          "time": 600.289625,
          "name": "B4",
          "midi": 71,
          "duration": 0.181883,
          "velocity": 0.818898
        },
        {
          "time": 600.46183,
          "name": "E6",
          "midi": 88,
          "duration": 0.547218,
          "velocity": 0.88189
        },
        {
          "time": 600.465056,
          "name": "E7",
          "midi": 100,
          "duration": 0.547013,
          "velocity": 0.811024
        },
        {
          "time": 600.468282,
          "name": "E6",
          "midi": 88,
          "duration": 0.546809,
          "velocity": 0.834646
        },
        {
          "time": 600.665056,
          "name": "C5",
          "midi": 72,
          "duration": 0.192935,
          "velocity": 0.818898
        },
        {
          "time": 600.665056,
          "name": "F#5",
          "midi": 78,
          "duration": 0.192935,
          "velocity": 0.818898
        },
        {
          "time": 601.030196,
          "name": "G#5",
          "midi": 80,
          "duration": 0.163142,
          "velocity": 0.88189
        },
        {
          "time": 601.033217,
          "name": "G#6",
          "midi": 92,
          "duration": 0.163142,
          "velocity": 0.811024
        },
        {
          "time": 601.036239,
          "name": "G#5",
          "midi": 80,
          "duration": 0.163142,
          "velocity": 0.834646
        },
        {
          "time": 601.03926,
          "name": "F#5",
          "midi": 78,
          "duration": 0.181883,
          "velocity": 0.818898
        },
        {
          "time": 601.03926,
          "name": "C5",
          "midi": 72,
          "duration": 0.181883,
          "velocity": 0.818898
        },
        {
          "time": 601.211465,
          "name": "B5",
          "midi": 83,
          "duration": 0.05,
          "velocity": 0.88189
        },
        {
          "time": 601.214691,
          "name": "B6",
          "midi": 95,
          "duration": 0.05,
          "velocity": 0.811024
        },
        {
          "time": 601.217917,
          "name": "B5",
          "midi": 83,
          "duration": 0.05,
          "velocity": 0.834646
        },
        {
          "time": 601.259852,
          "name": "A5",
          "midi": 81,
          "duration": 0.132258,
          "velocity": 0.88189
        },
        {
          "time": 601.263078,
          "name": "A6",
          "midi": 93,
          "duration": 0.132258,
          "velocity": 0.811024
        },
        {
          "time": 601.266304,
          "name": "A5",
          "midi": 81,
          "duration": 0.132258,
          "velocity": 0.834646
        },
        {
          "time": 601.405014,
          "name": "G#5",
          "midi": 80,
          "duration": 0.174194,
          "velocity": 0.88189
        },
        {
          "time": 601.40824,
          "name": "G#6",
          "midi": 92,
          "duration": 0.174194,
          "velocity": 0.811024
        },
        {
          "time": 601.411465,
          "name": "G#5",
          "midi": 80,
          "duration": 0.174194,
          "velocity": 0.834646
        },
        {
          "time": 601.414691,
          "name": "F#5",
          "midi": 78,
          "duration": 0.192935,
          "velocity": 0.818898
        },
        {
          "time": 601.414691,
          "name": "C5",
          "midi": 72,
          "duration": 0.192935,
          "velocity": 0.818898
        },
        {
          "time": 601.598562,
          "name": "A5",
          "midi": 81,
          "duration": 0.163142,
          "velocity": 0.88189
        },
        {
          "time": 601.601583,
          "name": "A6",
          "midi": 93,
          "duration": 0.163142,
          "velocity": 0.811024
        },
        {
          "time": 601.604605,
          "name": "A5",
          "midi": 81,
          "duration": 0.163142,
          "velocity": 0.834646
        },
        {
          "time": 601.779831,
          "name": "F#6",
          "midi": 90,
          "duration": 0.163142,
          "velocity": 0.88189
        },
        {
          "time": 601.782852,
          "name": "F#7",
          "midi": 102,
          "duration": 0.163142,
          "velocity": 0.811024
        },
        {
          "time": 601.785874,
          "name": "F#6",
          "midi": 90,
          "duration": 0.163142,
          "velocity": 0.834646
        },
        {
          "time": 601.788895,
          "name": "F#5",
          "midi": 78,
          "duration": 0.181883,
          "velocity": 0.818898
        },
        {
          "time": 601.788895,
          "name": "C5",
          "midi": 72,
          "duration": 0.181883,
          "velocity": 0.818898
        },
        {
          "time": 601.9611,
          "name": "E6",
          "midi": 88,
          "duration": 0.547218,
          "velocity": 0.88189
        },
        {
          "time": 601.964326,
          "name": "E7",
          "midi": 100,
          "duration": 0.547013,
          "velocity": 0.811024
        },
        {
          "time": 601.967552,
          "name": "E6",
          "midi": 88,
          "duration": 0.546809,
          "velocity": 0.834646
        },
        {
          "time": 602.164326,
          "name": "G5",
          "midi": 79,
          "duration": 0.192935,
          "velocity": 0.818898
        },
        {
          "time": 602.164326,
          "name": "B4",
          "midi": 71,
          "duration": 0.192935,
          "velocity": 0.818898
        },
        {
          "time": 602.529466,
          "name": "A#5",
          "midi": 82,
          "duration": 0.163142,
          "velocity": 0.88189
        },
        {
          "time": 602.532487,
          "name": "A#6",
          "midi": 94,
          "duration": 0.163142,
          "velocity": 0.811024
        },
        {
          "time": 602.535509,
          "name": "A#5",
          "midi": 82,
          "duration": 0.163142,
          "velocity": 0.834646
        },
        {
          "time": 602.53853,
          "name": "G5",
          "midi": 79,
          "duration": 0.181883,
          "velocity": 0.818898
        },
        {
          "time": 602.53853,
          "name": "C#5",
          "midi": 73,
          "duration": 0.181883,
          "velocity": 0.818898
        },
        {
          "time": 602.710735,
          "name": "C6",
          "midi": 84,
          "duration": 0.05,
          "velocity": 0.88189
        },
        {
          "time": 602.713961,
          "name": "C7",
          "midi": 96,
          "duration": 0.05,
          "velocity": 0.811024
        },
        {
          "time": 602.717187,
          "name": "C6",
          "midi": 84,
          "duration": 0.05,
          "velocity": 0.834646
        },
        {
          "time": 602.759122,
          "name": "B5",
          "midi": 83,
          "duration": 0.132258,
          "velocity": 0.88189
        },
        {
          "time": 602.762348,
          "name": "B6",
          "midi": 95,
          "duration": 0.132258,
          "velocity": 0.811024
        },
        {
          "time": 602.765574,
          "name": "B5",
          "midi": 83,
          "duration": 0.132258,
          "velocity": 0.834646
        },
        {
          "time": 602.904284,
          "name": "A#5",
          "midi": 82,
          "duration": 0.174194,
          "velocity": 0.88189
        },
        {
          "time": 602.90751,
          "name": "A#6",
          "midi": 94,
          "duration": 0.174194,
          "velocity": 0.811024
        },
        {
          "time": 602.910735,
          "name": "A#5",
          "midi": 82,
          "duration": 0.174194,
          "velocity": 0.834646
        },
        {
          "time": 602.913961,
          "name": "G5",
          "midi": 79,
          "duration": 0.192935,
          "velocity": 0.818898
        },
        {
          "time": 602.913961,
          "name": "D5",
          "midi": 74,
          "duration": 0.192935,
          "velocity": 0.818898
        },
        {
          "time": 603.097832,
          "name": "B5",
          "midi": 83,
          "duration": 0.163142,
          "velocity": 0.88189
        },
        {
          "time": 603.100853,
          "name": "B6",
          "midi": 95,
          "duration": 0.163142,
          "velocity": 0.811024
        },
        {
          "time": 603.103875,
          "name": "B5",
          "midi": 83,
          "duration": 0.163142,
          "velocity": 0.834646
        },
        {
          "time": 603.279101,
          "name": "D6",
          "midi": 86,
          "duration": 0.163142,
          "velocity": 0.88189
        },
        {
          "time": 603.288165,
          "name": "B4",
          "midi": 71,
          "duration": 0.181883,
          "velocity": 0.818898
        },
        {
          "time": 603.288165,
          "name": "G5",
          "midi": 79,
          "duration": 0.181883,
          "velocity": 0.818898
        },
        {
          "time": 603.46037,
          "name": "G6",
          "midi": 91,
          "duration": 0.547218,
          "velocity": 0.88189
        },
        {
          "time": 603.463596,
          "name": "G7",
          "midi": 103,
          "duration": 0.547013,
          "velocity": 0.811024
        },
        {
          "time": 603.466822,
          "name": "G6",
          "midi": 91,
          "duration": 0.546809,
          "velocity": 0.834646
        },
        {
          "time": 603.663596,
          "name": "G5",
          "midi": 79,
          "duration": 0.192935,
          "velocity": 0.818898
        },
        {
          "time": 603.663596,
          "name": "B4",
          "midi": 71,
          "duration": 0.192935,
          "velocity": 0.818898
        },
        {
          "time": 604.028736,
          "name": "B5",
          "midi": 83,
          "duration": 0.163142,
          "velocity": 0.88189
        },
        {
          "time": 604.031757,
          "name": "B6",
          "midi": 95,
          "duration": 0.163142,
          "velocity": 0.811024
        },
        {
          "time": 604.034779,
          "name": "B5",
          "midi": 83,
          "duration": 0.163142,
          "velocity": 0.834646
        },
        {
          "time": 604.0378,
          "name": "G5",
          "midi": 79,
          "duration": 0.181883,
          "velocity": 0.818898
        },
        {
          "time": 604.0378,
          "name": "B4",
          "midi": 71,
          "duration": 0.181883,
          "velocity": 0.818898
        },
        {
          "time": 604.210005,
          "name": "E6",
          "midi": 88,
          "duration": 0.547218,
          "velocity": 0.88189
        },
        {
          "time": 604.213231,
          "name": "E7",
          "midi": 100,
          "duration": 0.547013,
          "velocity": 0.811024
        },
        {
          "time": 604.216457,
          "name": "E6",
          "midi": 88,
          "duration": 0.546809,
          "velocity": 0.834646
        },
        {
          "time": 604.413231,
          "name": "F#5",
          "midi": 78,
          "duration": 0.192935,
          "velocity": 0.818898
        },
        {
          "time": 604.413231,
          "name": "C5",
          "midi": 72,
          "duration": 0.192935,
          "velocity": 0.818898
        },
        {
          "time": 604.778371,
          "name": "A5",
          "midi": 81,
          "duration": 0.163142,
          "velocity": 0.88189
        },
        {
          "time": 604.781392,
          "name": "A6",
          "midi": 93,
          "duration": 0.163142,
          "velocity": 0.811024
        },
        {
          "time": 604.784414,
          "name": "A5",
          "midi": 81,
          "duration": 0.163142,
          "velocity": 0.834646
        },
        {
          "time": 604.787435,
          "name": "F#5",
          "midi": 78,
          "duration": 0.181883,
          "velocity": 0.818898
        },
        {
          "time": 604.787435,
          "name": "C5",
          "midi": 72,
          "duration": 0.181883,
          "velocity": 0.818898
        },
        {
          "time": 604.95964,
          "name": "D6",
          "midi": 86,
          "duration": 0.547218,
          "velocity": 0.88189
        },
        {
          "time": 604.962866,
          "name": "D7",
          "midi": 98,
          "duration": 0.547013,
          "velocity": 0.811024
        },
        {
          "time": 604.966092,
          "name": "D6",
          "midi": 86,
          "duration": 0.546809,
          "velocity": 0.834646
        },
        {
          "time": 605.162866,
          "name": "G5",
          "midi": 79,
          "duration": 0.192935,
          "velocity": 0.818898
        },
        {
          "time": 605.162866,
          "name": "B4",
          "midi": 71,
          "duration": 0.192935,
          "velocity": 0.818898
        },
        {
          "time": 605.528006,
          "name": "F#5",
          "midi": 78,
          "duration": 0.163142,
          "velocity": 0.88189
        },
        {
          "time": 605.531027,
          "name": "F#6",
          "midi": 90,
          "duration": 0.163142,
          "velocity": 0.811024
        },
        {
          "time": 605.534049,
          "name": "F#5",
          "midi": 78,
          "duration": 0.163142,
          "velocity": 0.834646
        },
        {
          "time": 605.53707,
          "name": "D5",
          "midi": 74,
          "duration": 0.181883,
          "velocity": 0.818898
        },
        {
          "time": 605.53707,
          "name": "B4",
          "midi": 71,
          "duration": 0.181883,
          "velocity": 0.818898
        },
        {
          "time": 605.709275,
          "name": "A5",
          "midi": 81,
          "duration": 0.05,
          "velocity": 0.88189
        },
        {
          "time": 605.712501,
          "name": "A6",
          "midi": 93,
          "duration": 0.05,
          "velocity": 0.811024
        },
        {
          "time": 605.715727,
          "name": "A5",
          "midi": 81,
          "duration": 0.05,
          "velocity": 0.834646
        },
        {
          "time": 605.757662,
          "name": "G5",
          "midi": 79,
          "duration": 0.132258,
          "velocity": 0.88189
        },
        {
          "time": 605.760888,
          "name": "G6",
          "midi": 91,
          "duration": 0.132258,
          "velocity": 0.811024
        },
        {
          "time": 605.764114,
          "name": "G5",
          "midi": 79,
          "duration": 0.132258,
          "velocity": 0.834646
        },
        {
          "time": 605.902824,
          "name": "F#5",
          "midi": 78,
          "duration": 0.174194,
          "velocity": 0.88189
        },
        {
          "time": 605.90605,
          "name": "F#6",
          "midi": 90,
          "duration": 0.174194,
          "velocity": 0.811024
        },
        {
          "time": 605.909275,
          "name": "F#5",
          "midi": 78,
          "duration": 0.174194,
          "velocity": 0.834646
        },
        {
          "time": 605.912501,
          "name": "D5",
          "midi": 74,
          "duration": 0.192935,
          "velocity": 0.818898
        },
        {
          "time": 605.912501,
          "name": "B4",
          "midi": 71,
          "duration": 0.192935,
          "velocity": 0.818898
        },
        {
          "time": 606.096372,
          "name": "G5",
          "midi": 79,
          "duration": 0.163142,
          "velocity": 0.88189
        },
        {
          "time": 606.099393,
          "name": "G6",
          "midi": 91,
          "duration": 0.163142,
          "velocity": 0.811024
        },
        {
          "time": 606.102415,
          "name": "G5",
          "midi": 79,
          "duration": 0.163142,
          "velocity": 0.834646
        },
        {
          "time": 606.277641,
          "name": "B5",
          "midi": 83,
          "duration": 0.163142,
          "velocity": 0.88189
        },
        {
          "time": 606.280662,
          "name": "B6",
          "midi": 95,
          "duration": 0.163142,
          "velocity": 0.811024
        },
        {
          "time": 606.283684,
          "name": "B5",
          "midi": 83,
          "duration": 0.163142,
          "velocity": 0.834646
        },
        {
          "time": 606.286705,
          "name": "G5",
          "midi": 79,
          "duration": 0.181883,
          "velocity": 0.818898
        },
        {
          "time": 606.286705,
          "name": "B4",
          "midi": 71,
          "duration": 0.181883,
          "velocity": 0.818898
        },
        {
          "time": 606.45891,
          "name": "E6",
          "midi": 88,
          "duration": 0.547218,
          "velocity": 0.88189
        },
        {
          "time": 606.462136,
          "name": "E7",
          "midi": 100,
          "duration": 0.547013,
          "velocity": 0.811024
        },
        {
          "time": 606.465362,
          "name": "E6",
          "midi": 88,
          "duration": 0.546809,
          "velocity": 0.834646
        },
        {
          "time": 606.662136,
          "name": "G5",
          "midi": 79,
          "duration": 0.192935,
          "velocity": 0.818898
        },
        {
          "time": 606.662136,
          "name": "E5",
          "midi": 76,
          "duration": 0.192935,
          "velocity": 0.818898
        },
        {
          "time": 607.027276,
          "name": "A5",
          "midi": 81,
          "duration": 0.163142,
          "velocity": 0.88189
        },
        {
          "time": 607.030297,
          "name": "A6",
          "midi": 93,
          "duration": 0.163142,
          "velocity": 0.811024
        },
        {
          "time": 607.033319,
          "name": "A5",
          "midi": 81,
          "duration": 0.163142,
          "velocity": 0.834646
        },
        {
          "time": 607.03634,
          "name": "G5",
          "midi": 79,
          "duration": 0.181883,
          "velocity": 0.818898
        },
        {
          "time": 607.03634,
          "name": "E5",
          "midi": 76,
          "duration": 0.181883,
          "velocity": 0.818898
        },
        {
          "time": 607.208545,
          "name": "F#6",
          "midi": 90,
          "duration": 0.174194,
          "velocity": 0.88189
        },
        {
          "time": 607.211771,
          "name": "F#7",
          "midi": 102,
          "duration": 0.174194,
          "velocity": 0.811024
        },
        {
          "time": 607.214997,
          "name": "F#6",
          "midi": 90,
          "duration": 0.174194,
          "velocity": 0.834646
        },
        {
          "time": 607.402094,
          "name": "E6",
          "midi": 88,
          "duration": 0.174194,
          "velocity": 0.88189
        },
        {
          "time": 607.40532,
          "name": "E7",
          "midi": 100,
          "duration": 0.174194,
          "velocity": 0.811024
        },
        {
          "time": 607.408545,
          "name": "E6",
          "midi": 88,
          "duration": 0.174194,
          "velocity": 0.834646
        },
        {
          "time": 607.411771,
          "name": "C5",
          "midi": 72,
          "duration": 0.192935,
          "velocity": 0.818898
        },
        {
          "time": 607.411771,
          "name": "F#5",
          "midi": 78,
          "duration": 0.192935,
          "velocity": 0.818898
        },
        {
          "time": 607.595642,
          "name": "C6",
          "midi": 84,
          "duration": 0.163142,
          "velocity": 0.88189
        },
        {
          "time": 607.598663,
          "name": "C7",
          "midi": 96,
          "duration": 0.163142,
          "velocity": 0.811024
        },
        {
          "time": 607.601685,
          "name": "C6",
          "midi": 84,
          "duration": 0.163142,
          "velocity": 0.834646
        },
        {
          "time": 607.776911,
          "name": "A5",
          "midi": 81,
          "duration": 0.163142,
          "velocity": 0.88189
        },
        {
          "time": 607.779932,
          "name": "A6",
          "midi": 93,
          "duration": 0.163142,
          "velocity": 0.811024
        },
        {
          "time": 607.782954,
          "name": "A5",
          "midi": 81,
          "duration": 0.163142,
          "velocity": 0.834646
        },
        {
          "time": 607.785975,
          "name": "C5",
          "midi": 72,
          "duration": 0.181883,
          "velocity": 0.818898
        },
        {
          "time": 607.785975,
          "name": "F#5",
          "midi": 78,
          "duration": 0.181883,
          "velocity": 0.818898
        },
        {
          "time": 607.95818,
          "name": "G5",
          "midi": 79,
          "duration": 0.174194,
          "velocity": 0.88189
        },
        {
          "time": 607.961406,
          "name": "G6",
          "midi": 91,
          "duration": 0.174194,
          "velocity": 0.811024
        },
        {
          "time": 607.964632,
          "name": "G5",
          "midi": 79,
          "duration": 0.174194,
          "velocity": 0.834646
        },
        {
          "time": 608.151729,
          "name": "G5",
          "midi": 79,
          "duration": 0.174194,
          "velocity": 0.88189
        },
        {
          "time": 608.154955,
          "name": "G6",
          "midi": 91,
          "duration": 0.174194,
          "velocity": 0.811024
        },
        {
          "time": 608.15818,
          "name": "G5",
          "midi": 79,
          "duration": 0.174194,
          "velocity": 0.834646
        },
        {
          "time": 608.161406,
          "name": "D5",
          "midi": 74,
          "duration": 0.192935,
          "velocity": 0.818898
        },
        {
          "time": 608.161406,
          "name": "B4",
          "midi": 71,
          "duration": 0.192935,
          "velocity": 0.818898
        },
        {
          "time": 608.345277,
          "name": "B5",
          "midi": 83,
          "duration": 0.163142,
          "velocity": 0.88189
        },
        {
          "time": 608.348298,
          "name": "B6",
          "midi": 95,
          "duration": 0.163142,
          "velocity": 0.811024
        },
        {
          "time": 608.35132,
          "name": "B5",
          "midi": 83,
          "duration": 0.163142,
          "velocity": 0.834646
        },
        {
          "time": 608.354341,
          "name": "G5",
          "midi": 79,
          "duration": 0.181269,
          "velocity": 0.818898
        },
        {
          "time": 608.354341,
          "name": "D5",
          "midi": 74,
          "duration": 0.181269,
          "velocity": 0.818898
        },
        {
          "time": 608.526546,
          "name": "D6",
          "midi": 86,
          "duration": 0.163142,
          "velocity": 0.88189
        },
        {
          "time": 608.529567,
          "name": "D7",
          "midi": 98,
          "duration": 0.163142,
          "velocity": 0.811024
        },
        {
          "time": 608.532589,
          "name": "D6",
          "midi": 86,
          "duration": 0.163142,
          "velocity": 0.834646
        },
        {
          "time": 608.53561,
          "name": "B5",
          "midi": 83,
          "duration": 0.181883,
          "velocity": 0.818898
        },
        {
          "time": 608.53561,
          "name": "G5",
          "midi": 79,
          "duration": 0.181883,
          "velocity": 0.818898
        },
        {
          "time": 608.707815,
          "name": "G6",
          "midi": 91,
          "duration": 0.174194,
          "velocity": 0.88189
        },
        {
          "time": 608.711041,
          "name": "G7",
          "midi": 103,
          "duration": 0.174194,
          "velocity": 0.811024
        },
        {
          "time": 608.714267,
          "name": "G6",
          "midi": 91,
          "duration": 0.096774,
          "velocity": 0.834646
        },
        {
          "time": 608.717493,
          "name": "D6",
          "midi": 86,
          "duration": 0.193549,
          "velocity": 0.818898
        },
        {
          "time": 608.717493,
          "name": "B5",
          "midi": 83,
          "duration": 0.193549,
          "velocity": 0.818898
        },
        {
          "time": 608.811041,
          "name": "B5",
          "midi": 83,
          "duration": 0.096774,
          "velocity": 0.834646
        },
        {
          "time": 608.907815,
          "name": "C#6",
          "midi": 85,
          "duration": 0.096774,
          "velocity": 0.834646
        },
        {
          "time": 609.00459,
          "name": "D#6",
          "midi": 87,
          "duration": 0.096365,
          "velocity": 0.834646
        },
        {
          "time": 609.100955,
          "name": "E6",
          "midi": 88,
          "duration": 0.090634,
          "velocity": 0.834646
        },
        {
          "time": 609.191589,
          "name": "F#6",
          "midi": 90,
          "duration": 0.090635,
          "velocity": 0.834646
        },
        {
          "time": 609.282224,
          "name": "G6",
          "midi": 91,
          "duration": 0.090634,
          "velocity": 0.834646
        },
        {
          "time": 609.372858,
          "name": "A6",
          "midi": 93,
          "duration": 0.091044,
          "velocity": 0.834646
        },
        {
          "time": 609.45745,
          "name": "B5",
          "midi": 83,
          "duration": 0.367742,
          "velocity": 0.88189
        },
        {
          "time": 609.45745,
          "name": "E5",
          "midi": 76,
          "duration": 0.367742,
          "velocity": 0.88189
        },
        {
          "time": 609.45745,
          "name": "G4",
          "midi": 67,
          "duration": 0.367742,
          "velocity": 0.88189
        },
        {
          "time": 609.460676,
          "name": "B6",
          "midi": 95,
          "duration": 0.367742,
          "velocity": 0.811024
        },
        {
          "time": 609.463902,
          "name": "B6",
          "midi": 95,
          "duration": 0.367742,
          "velocity": 0.834646
        },
        {
          "time": 609.467128,
          "name": "G5",
          "midi": 79,
          "duration": 0.367742,
          "velocity": 0.818898
        },
        {
          "time": 609.467128,
          "name": "B5",
          "midi": 83,
          "duration": 0.367742,
          "velocity": 0.818898
        },
        {
          "time": 609.844547,
          "name": "G5",
          "midi": 79,
          "duration": 0.344411,
          "velocity": 0.88189
        },
        {
          "time": 609.844547,
          "name": "B4",
          "midi": 71,
          "duration": 0.344411,
          "velocity": 0.88189
        },
        {
          "time": 609.844547,
          "name": "E4",
          "midi": 64,
          "duration": 0.344411,
          "velocity": 0.88189
        },
        {
          "time": 609.847568,
          "name": "G6",
          "midi": 91,
          "duration": 0.344411,
          "velocity": 0.811024
        },
        {
          "time": 609.85059,
          "name": "G6",
          "midi": 91,
          "duration": 0.344411,
          "velocity": 0.834646
        },
        {
          "time": 609.853611,
          "name": "E5",
          "midi": 76,
          "duration": 0.344411,
          "velocity": 0.818898
        },
        {
          "time": 609.853611,
          "name": "G5",
          "midi": 79,
          "duration": 0.344411,
          "velocity": 0.818898
        },
        {
          "time": 610.207085,
          "name": "B4",
          "midi": 71,
          "duration": 0.367742,
          "velocity": 0.88189
        },
        {
          "time": 610.207085,
          "name": "F#5",
          "midi": 78,
          "duration": 0.367742,
          "velocity": 0.88189
        },
        {
          "time": 610.207085,
          "name": "D#4",
          "midi": 63,
          "duration": 0.367742,
          "velocity": 0.88189
        },
        {
          "time": 610.210311,
          "name": "F#6",
          "midi": 90,
          "duration": 0.367742,
          "velocity": 0.811024
        },
        {
          "time": 610.213537,
          "name": "F#6",
          "midi": 90,
          "duration": 0.367742,
          "velocity": 0.834646
        },
        {
          "time": 610.216763,
          "name": "D#5",
          "midi": 75,
          "duration": 0.367742,
          "velocity": 0.818898
        },
        {
          "time": 610.216763,
          "name": "F#5",
          "midi": 78,
          "duration": 0.367742,
          "velocity": 0.818898
        },
        {
          "time": 610.594182,
          "name": "B5",
          "midi": 83,
          "duration": 0.344411,
          "velocity": 0.88189
        },
        {
          "time": 610.594182,
          "name": "E5",
          "midi": 76,
          "duration": 0.344411,
          "velocity": 0.88189
        },
        {
          "time": 610.594182,
          "name": "G4",
          "midi": 67,
          "duration": 0.344411,
          "velocity": 0.88189
        },
        {
          "time": 610.597203,
          "name": "B6",
          "midi": 95,
          "duration": 0.344411,
          "velocity": 0.811024
        },
        {
          "time": 610.600225,
          "name": "B6",
          "midi": 95,
          "duration": 0.344411,
          "velocity": 0.834646
        },
        {
          "time": 610.603246,
          "name": "G5",
          "midi": 79,
          "duration": 0.344411,
          "velocity": 0.818898
        },
        {
          "time": 610.603246,
          "name": "B5",
          "midi": 83,
          "duration": 0.344411,
          "velocity": 0.818898
        },
        {
          "time": 610.95672,
          "name": "B4",
          "midi": 71,
          "duration": 0.367742,
          "velocity": 0.88189
        },
        {
          "time": 610.95672,
          "name": "G5",
          "midi": 79,
          "duration": 0.367742,
          "velocity": 0.88189
        },
        {
          "time": 610.95672,
          "name": "E4",
          "midi": 64,
          "duration": 0.367742,
          "velocity": 0.88189
        },
        {
          "time": 610.959946,
          "name": "G6",
          "midi": 91,
          "duration": 0.367742,
          "velocity": 0.811024
        },
        {
          "time": 610.963172,
          "name": "G6",
          "midi": 91,
          "duration": 0.367742,
          "velocity": 0.834646
        },
        {
          "time": 610.966398,
          "name": "E5",
          "midi": 76,
          "duration": 0.367742,
          "velocity": 0.818898
        },
        {
          "time": 610.966398,
          "name": "G5",
          "midi": 79,
          "duration": 0.367742,
          "velocity": 0.818898
        },
        {
          "time": 611.343817,
          "name": "F#5",
          "midi": 78,
          "duration": 0.344411,
          "velocity": 0.88189
        },
        {
          "time": 611.343817,
          "name": "B4",
          "midi": 71,
          "duration": 0.344411,
          "velocity": 0.88189
        },
        {
          "time": 611.343817,
          "name": "D#4",
          "midi": 63,
          "duration": 0.344411,
          "velocity": 0.88189
        },
        {
          "time": 611.346838,
          "name": "F#6",
          "midi": 90,
          "duration": 0.344411,
          "velocity": 0.811024
        },
        {
          "time": 611.34986,
          "name": "F#6",
          "midi": 90,
          "duration": 0.344411,
          "velocity": 0.834646
        },
        {
          "time": 611.352881,
          "name": "D#5",
          "midi": 75,
          "duration": 0.344411,
          "velocity": 0.818898
        },
        {
          "time": 611.352881,
          "name": "F#5",
          "midi": 78,
          "duration": 0.344411,
          "velocity": 0.818898
        },
        {
          "time": 611.706355,
          "name": "B5",
          "midi": 83,
          "duration": 0.183871,
          "velocity": 0.88189
        },
        {
          "time": 611.709581,
          "name": "B6",
          "midi": 95,
          "duration": 0.183871,
          "velocity": 0.811024
        },
        {
          "time": 611.712807,
          "name": "B6",
          "midi": 95,
          "duration": 0.183871,
          "velocity": 0.834646
        },
        {
          "time": 611.716033,
          "name": "G5",
          "midi": 79,
          "duration": 0.183871,
          "velocity": 0.818898
        },
        {
          "time": 611.716033,
          "name": "B5",
          "midi": 83,
          "duration": 0.183871,
          "velocity": 0.818898
        },
        {
          "time": 611.899904,
          "name": "G5",
          "midi": 79,
          "duration": 0.183871,
          "velocity": 0.88189
        },
        {
          "time": 611.90313,
          "name": "G6",
          "midi": 91,
          "duration": 0.183871,
          "velocity": 0.811024
        },
        {
          "time": 611.906355,
          "name": "G6",
          "midi": 91,
          "duration": 0.183871,
          "velocity": 0.834646
        },
        {
          "time": 611.909581,
          "name": "E5",
          "midi": 76,
          "duration": 0.183871,
          "velocity": 0.818898
        },
        {
          "time": 611.909581,
          "name": "G5",
          "midi": 79,
          "duration": 0.183871,
          "velocity": 0.818898
        },
        {
          "time": 612.093452,
          "name": "F#5",
          "midi": 78,
          "duration": 0.344411,
          "velocity": 0.88189
        },
        {
          "time": 612.093452,
          "name": "B4",
          "midi": 71,
          "duration": 0.344411,
          "velocity": 0.88189
        },
        {
          "time": 612.093452,
          "name": "D#4",
          "midi": 63,
          "duration": 0.344411,
          "velocity": 0.88189
        },
        {
          "time": 612.096473,
          "name": "F#6",
          "midi": 90,
          "duration": 0.344411,
          "velocity": 0.811024
        },
        {
          "time": 612.099495,
          "name": "F#6",
          "midi": 90,
          "duration": 0.344411,
          "velocity": 0.834646
        },
        {
          "time": 612.102516,
          "name": "D#5",
          "midi": 75,
          "duration": 0.344411,
          "velocity": 0.818898
        },
        {
          "time": 612.102516,
          "name": "F#5",
          "midi": 78,
          "duration": 0.344411,
          "velocity": 0.818898
        },
        {
          "time": 612.45599,
          "name": "B5",
          "midi": 83,
          "duration": 0.367742,
          "velocity": 0.88189
        },
        {
          "time": 612.45599,
          "name": "E5",
          "midi": 76,
          "duration": 0.367742,
          "velocity": 0.88189
        },
        {
          "time": 612.45599,
          "name": "G4",
          "midi": 67,
          "duration": 0.367742,
          "velocity": 0.88189
        },
        {
          "time": 612.459216,
          "name": "B6",
          "midi": 95,
          "duration": 0.367742,
          "velocity": 0.811024
        },
        {
          "time": 612.462442,
          "name": "B6",
          "midi": 95,
          "duration": 0.367742,
          "velocity": 0.834646
        },
        {
          "time": 612.465668,
          "name": "G5",
          "midi": 79,
          "duration": 0.367742,
          "velocity": 0.818898
        },
        {
          "time": 612.465668,
          "name": "B5",
          "midi": 83,
          "duration": 0.367742,
          "velocity": 0.818898
        },
        {
          "time": 612.843087,
          "name": "B4",
          "midi": 71,
          "duration": 0.344411,
          "velocity": 0.88189
        },
        {
          "time": 612.843087,
          "name": "G5",
          "midi": 79,
          "duration": 0.344411,
          "velocity": 0.88189
        },
        {
          "time": 612.843087,
          "name": "E4",
          "midi": 64,
          "duration": 0.344411,
          "velocity": 0.88189
        },
        {
          "time": 612.846108,
          "name": "G6",
          "midi": 91,
          "duration": 0.344411,
          "velocity": 0.811024
        },
        {
          "time": 612.84913,
          "name": "G6",
          "midi": 91,
          "duration": 0.344411,
          "velocity": 0.834646
        },
        {
          "time": 612.852151,
          "name": "E5",
          "midi": 76,
          "duration": 0.344411,
          "velocity": 0.818898
        },
        {
          "time": 612.852151,
          "name": "G5",
          "midi": 79,
          "duration": 0.344411,
          "velocity": 0.818898
        },
        {
          "time": 613.205625,
          "name": "B4",
          "midi": 71,
          "duration": 0.367742,
          "velocity": 0.88189
        },
        {
          "time": 613.205625,
          "name": "F#5",
          "midi": 78,
          "duration": 0.367742,
          "velocity": 0.88189
        },
        {
          "time": 613.205625,
          "name": "D#4",
          "midi": 63,
          "duration": 0.367742,
          "velocity": 0.88189
        },
        {
          "time": 613.208851,
          "name": "F#6",
          "midi": 90,
          "duration": 0.367742,
          "velocity": 0.811024
        },
        {
          "time": 613.212077,
          "name": "F#6",
          "midi": 90,
          "duration": 0.367742,
          "velocity": 0.834646
        },
        {
          "time": 613.215303,
          "name": "D#5",
          "midi": 75,
          "duration": 0.367742,
          "velocity": 0.818898
        },
        {
          "time": 613.215303,
          "name": "F#5",
          "midi": 78,
          "duration": 0.367742,
          "velocity": 0.818898
        },
        {
          "time": 613.592722,
          "name": "B5",
          "midi": 83,
          "duration": 0.344411,
          "velocity": 0.88189
        },
        {
          "time": 613.592722,
          "name": "E5",
          "midi": 76,
          "duration": 0.344411,
          "velocity": 0.88189
        },
        {
          "time": 613.592722,
          "name": "G4",
          "midi": 67,
          "duration": 0.344411,
          "velocity": 0.88189
        },
        {
          "time": 613.595743,
          "name": "B6",
          "midi": 95,
          "duration": 0.344411,
          "velocity": 0.811024
        },
        {
          "time": 613.598765,
          "name": "B6",
          "midi": 95,
          "duration": 0.344411,
          "velocity": 0.834646
        },
        {
          "time": 613.601786,
          "name": "G5",
          "midi": 79,
          "duration": 0.344411,
          "velocity": 0.818898
        },
        {
          "time": 613.601786,
          "name": "B5",
          "midi": 83,
          "duration": 0.344411,
          "velocity": 0.818898
        },
        {
          "time": 613.95526,
          "name": "G5",
          "midi": 79,
          "duration": 0.183871,
          "velocity": 0.88189
        },
        {
          "time": 613.958486,
          "name": "G6",
          "midi": 91,
          "duration": 0.183871,
          "velocity": 0.811024
        },
        {
          "time": 613.961712,
          "name": "G6",
          "midi": 91,
          "duration": 0.183871,
          "velocity": 0.834646
        },
        {
          "time": 613.964938,
          "name": "E5",
          "midi": 76,
          "duration": 0.183871,
          "velocity": 0.818898
        },
        {
          "time": 613.964938,
          "name": "G5",
          "midi": 79,
          "duration": 0.183871,
          "velocity": 0.818898
        },
        {
          "time": 614.148809,
          "name": "F#5",
          "midi": 78,
          "duration": 0.183871,
          "velocity": 0.88189
        },
        {
          "time": 614.152035,
          "name": "F#6",
          "midi": 90,
          "duration": 0.183871,
          "velocity": 0.811024
        },
        {
          "time": 614.15526,
          "name": "F#6",
          "midi": 90,
          "duration": 0.183871,
          "velocity": 0.834646
        },
        {
          "time": 614.158486,
          "name": "D#5",
          "midi": 75,
          "duration": 0.183871,
          "velocity": 0.818898
        },
        {
          "time": 614.158486,
          "name": "F#5",
          "midi": 78,
          "duration": 0.183871,
          "velocity": 0.818898
        },
        {
          "time": 614.342357,
          "name": "B5",
          "midi": 83,
          "duration": 0.172206,
          "velocity": 0.88189
        },
        {
          "time": 614.345378,
          "name": "B6",
          "midi": 95,
          "duration": 0.172206,
          "velocity": 0.811024
        },
        {
          "time": 614.3484,
          "name": "B6",
          "midi": 95,
          "duration": 0.172206,
          "velocity": 0.834646
        },
        {
          "time": 614.351421,
          "name": "G5",
          "midi": 79,
          "duration": 0.172206,
          "velocity": 0.818898
        },
        {
          "time": 614.351421,
          "name": "B5",
          "midi": 83,
          "duration": 0.172206,
          "velocity": 0.818898
        },
        {
          "time": 614.523626,
          "name": "G5",
          "midi": 79,
          "duration": 0.172206,
          "velocity": 0.88189
        },
        {
          "time": 614.526647,
          "name": "G6",
          "midi": 91,
          "duration": 0.172206,
          "velocity": 0.811024
        },
        {
          "time": 614.529669,
          "name": "G6",
          "midi": 91,
          "duration": 0.172206,
          "velocity": 0.834646
        },
        {
          "time": 614.53269,
          "name": "E5",
          "midi": 76,
          "duration": 0.172206,
          "velocity": 0.818898
        },
        {
          "time": 614.53269,
          "name": "G5",
          "midi": 79,
          "duration": 0.172206,
          "velocity": 0.818898
        },
        {
          "time": 614.704895,
          "name": "D#4",
          "midi": 63,
          "duration": 0.183871,
          "velocity": 0.88189
        },
        {
          "time": 614.704895,
          "name": "B4",
          "midi": 71,
          "duration": 0.183871,
          "velocity": 0.88189
        },
        {
          "time": 614.704895,
          "name": "F#5",
          "midi": 78,
          "duration": 0.183871,
          "velocity": 0.88189
        },
        {
          "time": 614.708121,
          "name": "F#6",
          "midi": 90,
          "duration": 0.096774,
          "velocity": 0.811024
        },
        {
          "time": 614.711347,
          "name": "F#6",
          "midi": 90,
          "duration": 0.096774,
          "velocity": 0.834646
        },
        {
          "time": 614.714573,
          "name": "D#5",
          "midi": 75,
          "duration": 0.183871,
          "velocity": 0.818898
        },
        {
          "time": 614.714573,
          "name": "F#5",
          "midi": 78,
          "duration": 0.183871,
          "velocity": 0.818898
        },
        {
          "time": 614.804895,
          "name": "B5",
          "midi": 83,
          "duration": 0.096774,
          "velocity": 0.811024
        },
        {
          "time": 614.808121,
          "name": "B5",
          "midi": 83,
          "duration": 0.096774,
          "velocity": 0.834646
        },
        {
          "time": 614.90167,
          "name": "C6",
          "midi": 84,
          "duration": 0.096774,
          "velocity": 0.811024
        },
        {
          "time": 614.904895,
          "name": "C#6",
          "midi": 85,
          "duration": 0.096774,
          "velocity": 0.834646
        },
        {
          "time": 614.998444,
          "name": "D6",
          "midi": 86,
          "duration": 0.09657,
          "velocity": 0.811024
        },
        {
          "time": 615.00167,
          "name": "D#6",
          "midi": 87,
          "duration": 0.096365,
          "velocity": 0.834646
        },
        {
          "time": 615.095013,
          "name": "E6",
          "midi": 88,
          "duration": 0.090634,
          "velocity": 0.811024
        },
        {
          "time": 615.098035,
          "name": "E6",
          "midi": 88,
          "duration": 0.090634,
          "velocity": 0.834646
        },
        {
          "time": 615.185648,
          "name": "F#6",
          "midi": 90,
          "duration": 0.090635,
          "velocity": 0.811024
        },
        {
          "time": 615.188669,
          "name": "F#6",
          "midi": 90,
          "duration": 0.090635,
          "velocity": 0.834646
        },
        {
          "time": 615.276282,
          "name": "G6",
          "midi": 91,
          "duration": 0.090634,
          "velocity": 0.811024
        },
        {
          "time": 615.279304,
          "name": "G6",
          "midi": 91,
          "duration": 0.090634,
          "velocity": 0.834646
        },
        {
          "time": 615.366917,
          "name": "A6",
          "midi": 93,
          "duration": 0.090839,
          "velocity": 0.811024
        },
        {
          "time": 615.369938,
          "name": "A6",
          "midi": 93,
          "duration": 0.091044,
          "velocity": 0.834646
        },
        {
          "time": 615.45453,
          "name": "B5",
          "midi": 83,
          "duration": 0.367742,
          "velocity": 0.88189
        },
        {
          "time": 615.45453,
          "name": "E5",
          "midi": 76,
          "duration": 0.367742,
          "velocity": 0.88189
        },
        {
          "time": 615.45453,
          "name": "G4",
          "midi": 67,
          "duration": 0.367742,
          "velocity": 0.88189
        },
        {
          "time": 615.457756,
          "name": "B6",
          "midi": 95,
          "duration": 0.367742,
          "velocity": 0.811024
        },
        {
          "time": 615.460982,
          "name": "B6",
          "midi": 95,
          "duration": 0.367742,
          "velocity": 0.834646
        },
        {
          "time": 615.464208,
          "name": "G5",
          "midi": 79,
          "duration": 0.367742,
          "velocity": 0.818898
        },
        {
          "time": 615.464208,
          "name": "B5",
          "midi": 83,
          "duration": 0.367742,
          "velocity": 0.818898
        },
        {
          "time": 615.841627,
          "name": "G5",
          "midi": 79,
          "duration": 0.344411,
          "velocity": 0.88189
        },
        {
          "time": 615.841627,
          "name": "B4",
          "midi": 71,
          "duration": 0.344411,
          "velocity": 0.88189
        },
        {
          "time": 615.841627,
          "name": "E4",
          "midi": 64,
          "duration": 0.344411,
          "velocity": 0.88189
        },
        {
          "time": 615.844648,
          "name": "G6",
          "midi": 91,
          "duration": 0.344411,
          "velocity": 0.811024
        },
        {
          "time": 615.84767,
          "name": "G6",
          "midi": 91,
          "duration": 0.344411,
          "velocity": 0.834646
        },
        {
          "time": 615.850691,
          "name": "E5",
          "midi": 76,
          "duration": 0.344411,
          "velocity": 0.818898
        },
        {
          "time": 615.850691,
          "name": "G5",
          "midi": 79,
          "duration": 0.344411,
          "velocity": 0.818898
        },
        {
          "time": 616.204165,
          "name": "B4",
          "midi": 71,
          "duration": 0.367742,
          "velocity": 0.88189
        },
        {
          "time": 616.204165,
          "name": "F#5",
          "midi": 78,
          "duration": 0.367742,
          "velocity": 0.88189
        },
        {
          "time": 616.204165,
          "name": "D#4",
          "midi": 63,
          "duration": 0.367742,
          "velocity": 0.88189
        },
        {
          "time": 616.207391,
          "name": "F#6",
          "midi": 90,
          "duration": 0.367742,
          "velocity": 0.811024
        },
        {
          "time": 616.210617,
          "name": "F#6",
          "midi": 90,
          "duration": 0.367742,
          "velocity": 0.834646
        },
        {
          "time": 616.213843,
          "name": "D#5",
          "midi": 75,
          "duration": 0.367742,
          "velocity": 0.818898
        },
        {
          "time": 616.213843,
          "name": "F#5",
          "midi": 78,
          "duration": 0.367742,
          "velocity": 0.818898
        },
        {
          "time": 616.591262,
          "name": "B5",
          "midi": 83,
          "duration": 0.344411,
          "velocity": 0.88189
        },
        {
          "time": 616.591262,
          "name": "E5",
          "midi": 76,
          "duration": 0.344411,
          "velocity": 0.88189
        },
        {
          "time": 616.591262,
          "name": "G4",
          "midi": 67,
          "duration": 0.344411,
          "velocity": 0.88189
        },
        {
          "time": 616.594283,
          "name": "B6",
          "midi": 95,
          "duration": 0.344411,
          "velocity": 0.811024
        },
        {
          "time": 616.597305,
          "name": "B6",
          "midi": 95,
          "duration": 0.344411,
          "velocity": 0.834646
        },
        {
          "time": 616.600326,
          "name": "G5",
          "midi": 79,
          "duration": 0.344411,
          "velocity": 0.818898
        },
        {
          "time": 616.600326,
          "name": "B5",
          "midi": 83,
          "duration": 0.344411,
          "velocity": 0.818898
        },
        {
          "time": 616.9538,
          "name": "B4",
          "midi": 71,
          "duration": 0.367742,
          "velocity": 0.88189
        },
        {
          "time": 616.9538,
          "name": "G5",
          "midi": 79,
          "duration": 0.367742,
          "velocity": 0.88189
        },
        {
          "time": 616.9538,
          "name": "E4",
          "midi": 64,
          "duration": 0.367742,
          "velocity": 0.88189
        },
        {
          "time": 616.957026,
          "name": "G6",
          "midi": 91,
          "duration": 0.367742,
          "velocity": 0.811024
        },
        {
          "time": 616.960252,
          "name": "G6",
          "midi": 91,
          "duration": 0.367742,
          "velocity": 0.834646
        },
        {
          "time": 616.963478,
          "name": "E5",
          "midi": 76,
          "duration": 0.367742,
          "velocity": 0.818898
        },
        {
          "time": 616.963478,
          "name": "G5",
          "midi": 79,
          "duration": 0.367742,
          "velocity": 0.818898
        },
        {
          "time": 617.340897,
          "name": "F#5",
          "midi": 78,
          "duration": 0.344411,
          "velocity": 0.88189
        },
        {
          "time": 617.340897,
          "name": "B4",
          "midi": 71,
          "duration": 0.344411,
          "velocity": 0.88189
        },
        {
          "time": 617.340897,
          "name": "D#4",
          "midi": 63,
          "duration": 0.344411,
          "velocity": 0.88189
        },
        {
          "time": 617.343918,
          "name": "F#6",
          "midi": 90,
          "duration": 0.344411,
          "velocity": 0.811024
        },
        {
          "time": 617.34694,
          "name": "F#6",
          "midi": 90,
          "duration": 0.344411,
          "velocity": 0.834646
        },
        {
          "time": 617.349961,
          "name": "D#5",
          "midi": 75,
          "duration": 0.344411,
          "velocity": 0.818898
        },
        {
          "time": 617.349961,
          "name": "F#5",
          "midi": 78,
          "duration": 0.344411,
          "velocity": 0.818898
        },
        {
          "time": 617.703435,
          "name": "B5",
          "midi": 83,
          "duration": 0.183871,
          "velocity": 0.88189
        },
        {
          "time": 617.706661,
          "name": "B6",
          "midi": 95,
          "duration": 0.183871,
          "velocity": 0.811024
        },
        {
          "time": 617.709887,
          "name": "B6",
          "midi": 95,
          "duration": 0.183871,
          "velocity": 0.834646
        },
        {
          "time": 617.713113,
          "name": "G5",
          "midi": 79,
          "duration": 0.183871,
          "velocity": 0.818898
        },
        {
          "time": 617.713113,
          "name": "B5",
          "midi": 83,
          "duration": 0.183871,
          "velocity": 0.818898
        },
        {
          "time": 617.896984,
          "name": "G5",
          "midi": 79,
          "duration": 0.183871,
          "velocity": 0.88189
        },
        {
          "time": 617.90021,
          "name": "G6",
          "midi": 91,
          "duration": 0.183871,
          "velocity": 0.811024
        },
        {
          "time": 617.903435,
          "name": "G6",
          "midi": 91,
          "duration": 0.183871,
          "velocity": 0.834646
        },
        {
          "time": 617.906661,
          "name": "E5",
          "midi": 76,
          "duration": 0.183871,
          "velocity": 0.818898
        },
        {
          "time": 617.906661,
          "name": "G5",
          "midi": 79,
          "duration": 0.183871,
          "velocity": 0.818898
        },
        {
          "time": 618.090532,
          "name": "F#5",
          "midi": 78,
          "duration": 0.344411,
          "velocity": 0.88189
        },
        {
          "time": 618.090532,
          "name": "B4",
          "midi": 71,
          "duration": 0.344411,
          "velocity": 0.88189
        },
        {
          "time": 618.090532,
          "name": "D#4",
          "midi": 63,
          "duration": 0.344411,
          "velocity": 0.88189
        },
        {
          "time": 618.093553,
          "name": "F#6",
          "midi": 90,
          "duration": 0.344411,
          "velocity": 0.811024
        },
        {
          "time": 618.096575,
          "name": "F#6",
          "midi": 90,
          "duration": 0.344411,
          "velocity": 0.834646
        },
        {
          "time": 618.099596,
          "name": "D#5",
          "midi": 75,
          "duration": 0.344411,
          "velocity": 0.818898
        },
        {
          "time": 618.099596,
          "name": "F#5",
          "midi": 78,
          "duration": 0.344411,
          "velocity": 0.818898
        },
        {
          "time": 618.45307,
          "name": "B5",
          "midi": 83,
          "duration": 0.367742,
          "velocity": 0.88189
        },
        {
          "time": 618.45307,
          "name": "E5",
          "midi": 76,
          "duration": 0.367742,
          "velocity": 0.88189
        },
        {
          "time": 618.45307,
          "name": "G4",
          "midi": 67,
          "duration": 0.367742,
          "velocity": 0.88189
        },
        {
          "time": 618.456296,
          "name": "B6",
          "midi": 95,
          "duration": 0.367742,
          "velocity": 0.811024
        },
        {
          "time": 618.459522,
          "name": "B6",
          "midi": 95,
          "duration": 0.367742,
          "velocity": 0.834646
        },
        {
          "time": 618.462748,
          "name": "G5",
          "midi": 79,
          "duration": 0.367742,
          "velocity": 0.818898
        },
        {
          "time": 618.462748,
          "name": "B5",
          "midi": 83,
          "duration": 0.367742,
          "velocity": 0.818898
        },
        {
          "time": 618.840167,
          "name": "B4",
          "midi": 71,
          "duration": 0.344411,
          "velocity": 0.88189
        },
        {
          "time": 618.840167,
          "name": "G5",
          "midi": 79,
          "duration": 0.344411,
          "velocity": 0.88189
        },
        {
          "time": 618.840167,
          "name": "E4",
          "midi": 64,
          "duration": 0.344411,
          "velocity": 0.88189
        },
        {
          "time": 618.843188,
          "name": "G6",
          "midi": 91,
          "duration": 0.344411,
          "velocity": 0.811024
        },
        {
          "time": 618.84621,
          "name": "G6",
          "midi": 91,
          "duration": 0.344411,
          "velocity": 0.834646
        },
        {
          "time": 618.849231,
          "name": "E5",
          "midi": 76,
          "duration": 0.344411,
          "velocity": 0.818898
        },
        {
          "time": 618.849231,
          "name": "G5",
          "midi": 79,
          "duration": 0.344411,
          "velocity": 0.818898
        },
        {
          "time": 619.202705,
          "name": "B4",
          "midi": 71,
          "duration": 0.367742,
          "velocity": 0.88189
        },
        {
          "time": 619.202705,
          "name": "F#5",
          "midi": 78,
          "duration": 0.367742,
          "velocity": 0.88189
        },
        {
          "time": 619.202705,
          "name": "D#4",
          "midi": 63,
          "duration": 0.367742,
          "velocity": 0.88189
        },
        {
          "time": 619.205931,
          "name": "F#6",
          "midi": 90,
          "duration": 0.367742,
          "velocity": 0.811024
        },
        {
          "time": 619.209157,
          "name": "F#6",
          "midi": 90,
          "duration": 0.367742,
          "velocity": 0.834646
        },
        {
          "time": 619.212383,
          "name": "D#5",
          "midi": 75,
          "duration": 0.367742,
          "velocity": 0.818898
        },
        {
          "time": 619.212383,
          "name": "F#5",
          "midi": 78,
          "duration": 0.367742,
          "velocity": 0.818898
        },
        {
          "time": 619.589802,
          "name": "B5",
          "midi": 83,
          "duration": 0.344411,
          "velocity": 0.88189
        },
        {
          "time": 619.589802,
          "name": "E5",
          "midi": 76,
          "duration": 0.344411,
          "velocity": 0.88189
        },
        {
          "time": 619.589802,
          "name": "G4",
          "midi": 67,
          "duration": 0.344411,
          "velocity": 0.88189
        },
        {
          "time": 619.592823,
          "name": "B6",
          "midi": 95,
          "duration": 0.344411,
          "velocity": 0.811024
        },
        {
          "time": 619.595845,
          "name": "B6",
          "midi": 95,
          "duration": 0.344411,
          "velocity": 0.834646
        },
        {
          "time": 619.598866,
          "name": "G5",
          "midi": 79,
          "duration": 0.344411,
          "velocity": 0.818898
        },
        {
          "time": 619.598866,
          "name": "B5",
          "midi": 83,
          "duration": 0.344411,
          "velocity": 0.818898
        },
        {
          "time": 619.95234,
          "name": "G5",
          "midi": 79,
          "duration": 0.183871,
          "velocity": 0.88189
        },
        {
          "time": 619.955566,
          "name": "G6",
          "midi": 91,
          "duration": 0.183871,
          "velocity": 0.811024
        },
        {
          "time": 619.958792,
          "name": "G6",
          "midi": 91,
          "duration": 0.183871,
          "velocity": 0.834646
        },
        {
          "time": 619.962018,
          "name": "E5",
          "midi": 76,
          "duration": 0.183871,
          "velocity": 0.818898
        },
        {
          "time": 619.962018,
          "name": "G5",
          "midi": 79,
          "duration": 0.183871,
          "velocity": 0.818898
        },
        {
          "time": 620.145889,
          "name": "F#5",
          "midi": 78,
          "duration": 0.183871,
          "velocity": 0.88189
        },
        {
          "time": 620.149115,
          "name": "F#6",
          "midi": 90,
          "duration": 0.183871,
          "velocity": 0.811024
        },
        {
          "time": 620.15234,
          "name": "F#6",
          "midi": 90,
          "duration": 0.183871,
          "velocity": 0.834646
        },
        {
          "time": 620.155566,
          "name": "D#5",
          "midi": 75,
          "duration": 0.183871,
          "velocity": 0.818898
        },
        {
          "time": 620.155566,
          "name": "F#5",
          "midi": 78,
          "duration": 0.183871,
          "velocity": 0.818898
        },
        {
          "time": 620.339437,
          "name": "B5",
          "midi": 83,
          "duration": 0.172206,
          "velocity": 0.88189
        },
        {
          "time": 620.342458,
          "name": "B6",
          "midi": 95,
          "duration": 0.172206,
          "velocity": 0.811024
        },
        {
          "time": 620.34548,
          "name": "B5",
          "midi": 83,
          "duration": 0.172206,
          "velocity": 0.834646
        },
        {
          "time": 620.348501,
          "name": "G5",
          "midi": 79,
          "duration": 0.172206,
          "velocity": 0.818898
        },
        {
          "time": 620.348501,
          "name": "E5",
          "midi": 76,
          "duration": 0.172206,
          "velocity": 0.818898
        },
        {
          "time": 620.520706,
          "name": "C#6",
          "midi": 85,
          "duration": 0.172206,
          "velocity": 0.88189
        },
        {
          "time": 620.523727,
          "name": "C#7",
          "midi": 97,
          "duration": 0.172206,
          "velocity": 0.811024
        },
        {
          "time": 620.526749,
          "name": "C#6",
          "midi": 85,
          "duration": 0.172206,
          "velocity": 0.834646
        },
        {
          "time": 620.52977,
          "name": "G5",
          "midi": 79,
          "duration": 0.172206,
          "velocity": 0.818898
        },
        {
          "time": 620.52977,
          "name": "E5",
          "midi": 76,
          "duration": 0.172206,
          "velocity": 0.818898
        },
        {
          "time": 620.701975,
          "name": "D6",
          "midi": 86,
          "duration": 0.193549,
          "velocity": 0.88189
        },
        {
          "time": 620.705201,
          "name": "D7",
          "midi": 98,
          "duration": 0.193549,
          "velocity": 0.811024
        },
        {
          "time": 620.708427,
          "name": "D6",
          "midi": 86,
          "duration": 0.193548,
          "velocity": 0.834646
        },
        {
          "time": 620.711653,
          "name": "D5",
          "midi": 74,
          "duration": 0.193549,
          "velocity": 0.818898
        },
        {
          "time": 620.711653,
          "name": "F#5",
          "midi": 78,
          "duration": 0.193549,
          "velocity": 0.818898
        },
        {
          "time": 621.089072,
          "name": "D5",
          "midi": 74,
          "duration": 0.181269,
          "velocity": 0.88189
        },
        {
          "time": 621.270341,
          "name": "D6",
          "midi": 86,
          "duration": 12.175429,
          "velocity": 0.88189
        },
        {
          "time": 621.276384,
          "name": "A5",
          "midi": 81,
          "duration": 0.181678,
          "velocity": 0.834646
        },
        {
          "time": 621.276384,
          "name": "F#5",
          "midi": 78,
          "duration": 0.181678,
          "velocity": 0.834646
        },
        {
          "time": 621.279405,
          "name": "A5",
          "midi": 81,
          "duration": 0.181883,
          "velocity": 0.818898
        },
        {
          "time": 621.279405,
          "name": "F#5",
          "midi": 78,
          "duration": 0.181883,
          "velocity": 0.818898
        },
        {
          "time": 621.458062,
          "name": "A5",
          "midi": 81,
          "duration": 0.567957,
          "velocity": 0.834646
        },
        {
          "time": 621.458062,
          "name": "C6",
          "midi": 84,
          "duration": 0.567957,
          "velocity": 0.834646
        },
        {
          "time": 621.461288,
          "name": "A5",
          "midi": 81,
          "duration": 0.567752,
          "velocity": 0.818898
        },
        {
          "time": 621.461288,
          "name": "C6",
          "midi": 84,
          "duration": 0.567752,
          "velocity": 0.818898
        },
        {
          "time": 621.838707,
          "name": "D5",
          "midi": 74,
          "duration": 0.181269,
          "velocity": 0.88189
        },
        {
          "time": 622.019976,
          "name": "D6",
          "midi": 86,
          "duration": 0.181269,
          "velocity": 0.88189
        },
        {
          "time": 622.026019,
          "name": "F#5",
          "midi": 78,
          "duration": 0.181678,
          "velocity": 0.834646
        },
        {
          "time": 622.026019,
          "name": "D5",
          "midi": 74,
          "duration": 0.181678,
          "velocity": 0.834646
        },
        {
          "time": 622.02904,
          "name": "F#5",
          "midi": 78,
          "duration": 0.181883,
          "velocity": 0.818898
        },
        {
          "time": 622.02904,
          "name": "D5",
          "midi": 74,
          "duration": 0.181883,
          "velocity": 0.818898
        },
        {
          "time": 622.207697,
          "name": "G#5",
          "midi": 80,
          "duration": 0.567957,
          "velocity": 0.834646
        },
        {
          "time": 622.207697,
          "name": "F5",
          "midi": 77,
          "duration": 0.567957,
          "velocity": 0.834646
        },
        {
          "time": 622.210923,
          "name": "G#5",
          "midi": 80,
          "duration": 0.567752,
          "velocity": 0.818898
        },
        {
          "time": 622.210923,
          "name": "F5",
          "midi": 77,
          "duration": 0.567752,
          "velocity": 0.818898
        },
        {
          "time": 622.588342,
          "name": "D5",
          "midi": 74,
          "duration": 0.181269,
          "velocity": 0.88189
        },
        {
          "time": 622.769611,
          "name": "D6",
          "midi": 86,
          "duration": 0.181269,
          "velocity": 0.88189
        },
        {
          "time": 622.775654,
          "name": "F5",
          "midi": 77,
          "duration": 0.181678,
          "velocity": 0.834646
        },
        {
          "time": 622.775654,
          "name": "D5",
          "midi": 74,
          "duration": 0.181678,
          "velocity": 0.834646
        },
        {
          "time": 622.778675,
          "name": "F5",
          "midi": 77,
          "duration": 0.181883,
          "velocity": 0.818898
        },
        {
          "time": 622.778675,
          "name": "D5",
          "midi": 74,
          "duration": 0.181883,
          "velocity": 0.818898
        },
        {
          "time": 622.957332,
          "name": "A5",
          "midi": 81,
          "duration": 0.567957,
          "velocity": 0.834646
        },
        {
          "time": 622.957332,
          "name": "F#5",
          "midi": 78,
          "duration": 0.567957,
          "velocity": 0.834646
        },
        {
          "time": 622.960558,
          "name": "A5",
          "midi": 81,
          "duration": 0.567752,
          "velocity": 0.818898
        },
        {
          "time": 622.960558,
          "name": "F#5",
          "midi": 78,
          "duration": 0.567752,
          "velocity": 0.818898
        },
        {
          "time": 623.337977,
          "name": "D5",
          "midi": 74,
          "duration": 0.181269,
          "velocity": 0.88189
        },
        {
          "time": 623.519246,
          "name": "D6",
          "midi": 86,
          "duration": 0.181269,
          "velocity": 0.88189
        },
        {
          "time": 623.525289,
          "name": "F5",
          "midi": 77,
          "duration": 0.181678,
          "velocity": 0.834646
        },
        {
          "time": 623.525289,
          "name": "D5",
          "midi": 74,
          "duration": 0.181678,
          "velocity": 0.834646
        },
        {
          "time": 623.52831,
          "name": "F5",
          "midi": 77,
          "duration": 0.181883,
          "velocity": 0.818898
        },
        {
          "time": 623.52831,
          "name": "D5",
          "midi": 74,
          "duration": 0.181883,
          "velocity": 0.818898
        },
        {
          "time": 623.706967,
          "name": "G5",
          "midi": 79,
          "duration": 0.05,
          "velocity": 0.834646
        },
        {
          "time": 623.710193,
          "name": "G5",
          "midi": 79,
          "duration": 0.05,
          "velocity": 0.818898
        },
        {
          "time": 623.755354,
          "name": "D5",
          "midi": 74,
          "duration": 0.087097,
          "velocity": 0.834646
        },
        {
          "time": 623.755354,
          "name": "F#5",
          "midi": 78,
          "duration": 0.087097,
          "velocity": 0.834646
        },
        {
          "time": 623.75858,
          "name": "D5",
          "midi": 74,
          "duration": 0.087097,
          "velocity": 0.818898
        },
        {
          "time": 623.75858,
          "name": "F#5",
          "midi": 78,
          "duration": 0.087097,
          "velocity": 0.818898
        },
        {
          "time": 623.900515,
          "name": "G#5",
          "midi": 80,
          "duration": 0.145161,
          "velocity": 0.834646
        },
        {
          "time": 623.900515,
          "name": "F5",
          "midi": 77,
          "duration": 0.145161,
          "velocity": 0.834646
        },
        {
          "time": 623.903741,
          "name": "F5",
          "midi": 77,
          "duration": 0.145161,
          "velocity": 0.818898
        },
        {
          "time": 623.903741,
          "name": "G#5",
          "midi": 80,
          "duration": 0.145161,
          "velocity": 0.818898
        },
        {
          "time": 624.087612,
          "name": "D5",
          "midi": 74,
          "duration": 0.181269,
          "velocity": 0.88189
        },
        {
          "time": 624.093655,
          "name": "A5",
          "midi": 81,
          "duration": 0.135952,
          "velocity": 0.834646
        },
        {
          "time": 624.093655,
          "name": "F#5",
          "midi": 78,
          "duration": 0.135952,
          "velocity": 0.834646
        },
        {
          "time": 624.096676,
          "name": "A5",
          "midi": 81,
          "duration": 0.135952,
          "velocity": 0.818898
        },
        {
          "time": 624.096676,
          "name": "F#5",
          "midi": 78,
          "duration": 0.135952,
          "velocity": 0.818898
        },
        {
          "time": 624.268881,
          "name": "D6",
          "midi": 86,
          "duration": 0.181269,
          "velocity": 0.88189
        },
        {
          "time": 624.274924,
          "name": "C6",
          "midi": 84,
          "duration": 0.135952,
          "velocity": 0.834646
        },
        {
          "time": 624.274924,
          "name": "A5",
          "midi": 81,
          "duration": 0.135952,
          "velocity": 0.834646
        },
        {
          "time": 624.277945,
          "name": "C6",
          "midi": 84,
          "duration": 0.135952,
          "velocity": 0.818898
        },
        {
          "time": 624.277945,
          "name": "A5",
          "midi": 81,
          "duration": 0.135952,
          "velocity": 0.818898
        },
        {
          "time": 624.456602,
          "name": "E6",
          "midi": 88,
          "duration": 0.567957,
          "velocity": 0.834646
        },
        {
          "time": 624.456602,
          "name": "C6",
          "midi": 84,
          "duration": 0.567957,
          "velocity": 0.834646
        },
        {
          "time": 624.459828,
          "name": "E6",
          "midi": 88,
          "duration": 0.567752,
          "velocity": 0.818898
        },
        {
          "time": 624.459828,
          "name": "C6",
          "midi": 84,
          "duration": 0.567752,
          "velocity": 0.818898
        },
        {
          "time": 624.837247,
          "name": "D5",
          "midi": 74,
          "duration": 0.181269,
          "velocity": 0.88189
        },
        {
          "time": 625.018516,
          "name": "D6",
          "midi": 86,
          "duration": 0.181269,
          "velocity": 0.88189
        },
        {
          "time": 625.024559,
          "name": "A5",
          "midi": 81,
          "duration": 0.181678,
          "velocity": 0.834646
        },
        {
          "time": 625.024559,
          "name": "F#5",
          "midi": 78,
          "duration": 0.181678,
          "velocity": 0.834646
        },
        {
          "time": 625.02758,
          "name": "A5",
          "midi": 81,
          "duration": 0.181883,
          "velocity": 0.818898
        },
        {
          "time": 625.02758,
          "name": "F#5",
          "midi": 78,
          "duration": 0.181883,
          "velocity": 0.818898
        },
        {
          "time": 625.206237,
          "name": "B5",
          "midi": 83,
          "duration": 0.567957,
          "velocity": 0.834646
        },
        {
          "time": 625.206237,
          "name": "G#5",
          "midi": 80,
          "duration": 0.567957,
          "velocity": 0.834646
        },
        {
          "time": 625.209463,
          "name": "B5",
          "midi": 83,
          "duration": 0.567752,
          "velocity": 0.818898
        },
        {
          "time": 625.209463,
          "name": "G#5",
          "midi": 80,
          "duration": 0.567752,
          "velocity": 0.818898
        },
        {
          "time": 625.586882,
          "name": "D5",
          "midi": 74,
          "duration": 0.181269,
          "velocity": 0.88189
        },
        {
          "time": 625.768151,
          "name": "D6",
          "midi": 86,
          "duration": 0.181269,
          "velocity": 0.88189
        },
        {
          "time": 625.774194,
          "name": "A5",
          "midi": 81,
          "duration": 0.181678,
          "velocity": 0.834646
        },
        {
          "time": 625.774194,
          "name": "F#5",
          "midi": 78,
          "duration": 0.181678,
          "velocity": 0.834646
        },
        {
          "time": 625.777215,
          "name": "A5",
          "midi": 81,
          "duration": 0.181883,
          "velocity": 0.818898
        },
        {
          "time": 625.777215,
          "name": "F#5",
          "midi": 78,
          "duration": 0.181883,
          "velocity": 0.818898
        },
        {
          "time": 625.955872,
          "name": "C6",
          "midi": 84,
          "duration": 0.567957,
          "velocity": 0.834646
        },
        {
          "time": 625.955872,
          "name": "A5",
          "midi": 81,
          "duration": 0.567957,
          "velocity": 0.834646
        },
        {
          "time": 625.959098,
          "name": "C6",
          "midi": 84,
          "duration": 0.567752,
          "velocity": 0.818898
        },
        {
          "time": 625.959098,
          "name": "A5",
          "midi": 81,
          "duration": 0.567752,
          "velocity": 0.818898
        },
        {
          "time": 626.336517,
          "name": "D5",
          "midi": 74,
          "duration": 0.181269,
          "velocity": 0.88189
        },
        {
          "time": 626.517786,
          "name": "D6",
          "midi": 86,
          "duration": 0.181269,
          "velocity": 0.88189
        },
        {
          "time": 626.523829,
          "name": "G#5",
          "midi": 80,
          "duration": 0.181678,
          "velocity": 0.834646
        },
        {
          "time": 626.523829,
          "name": "F5",
          "midi": 77,
          "duration": 0.181678,
          "velocity": 0.834646
        },
        {
          "time": 626.52685,
          "name": "G#5",
          "midi": 80,
          "duration": 0.181883,
          "velocity": 0.818898
        },
        {
          "time": 626.52685,
          "name": "F5",
          "midi": 77,
          "duration": 0.181883,
          "velocity": 0.818898
        },
        {
          "time": 626.705507,
          "name": "B5",
          "midi": 83,
          "duration": 0.05,
          "velocity": 0.834646
        },
        {
          "time": 626.708733,
          "name": "B5",
          "midi": 83,
          "duration": 0.05,
          "velocity": 0.818898
        },
        {
          "time": 626.753894,
          "name": "A5",
          "midi": 81,
          "duration": 0.087097,
          "velocity": 0.834646
        },
        {
          "time": 626.753894,
          "name": "F#5",
          "midi": 78,
          "duration": 0.087097,
          "velocity": 0.834646
        },
        {
          "time": 626.75712,
          "name": "A5",
          "midi": 81,
          "duration": 0.087097,
          "velocity": 0.818898
        },
        {
          "time": 626.75712,
          "name": "F#5",
          "midi": 78,
          "duration": 0.087097,
          "velocity": 0.818898
        },
        {
          "time": 626.899055,
          "name": "G#5",
          "midi": 80,
          "duration": 0.145161,
          "velocity": 0.834646
        },
        {
          "time": 626.899055,
          "name": "F5",
          "midi": 77,
          "duration": 0.145161,
          "velocity": 0.834646
        },
        {
          "time": 626.902281,
          "name": "G#5",
          "midi": 80,
          "duration": 0.145161,
          "velocity": 0.818898
        },
        {
          "time": 626.902281,
          "name": "F5",
          "midi": 77,
          "duration": 0.145161,
          "velocity": 0.818898
        },
        {
          "time": 627.086152,
          "name": "D6",
          "midi": 86,
          "duration": 0.181269,
          "velocity": 0.88189
        },
        {
          "time": 627.092195,
          "name": "A5",
          "midi": 81,
          "duration": 0.135952,
          "velocity": 0.834646
        },
        {
          "time": 627.092195,
          "name": "F#5",
          "midi": 78,
          "duration": 0.135952,
          "velocity": 0.834646
        },
        {
          "time": 627.095216,
          "name": "A5",
          "midi": 81,
          "duration": 0.135952,
          "velocity": 0.818898
        },
        {
          "time": 627.095216,
          "name": "F#5",
          "midi": 78,
          "duration": 0.135952,
          "velocity": 0.818898
        },
        {
          "time": 627.267421,
          "name": "D5",
          "midi": 74,
          "duration": 0.181269,
          "velocity": 0.88189
        },
        {
          "time": 627.273464,
          "name": "D5",
          "midi": 74,
          "duration": 0.135952,
          "velocity": 0.834646
        },
        {
          "time": 627.273464,
          "name": "F#5",
          "midi": 78,
          "duration": 0.135952,
          "velocity": 0.834646
        },
        {
          "time": 627.276485,
          "name": "D5",
          "midi": 74,
          "duration": 0.135952,
          "velocity": 0.818898
        },
        {
          "time": 627.276485,
          "name": "F#5",
          "midi": 78,
          "duration": 0.135952,
          "velocity": 0.818898
        },
        {
          "time": 627.44869,
          "name": "A5",
          "midi": 81,
          "duration": 0.193549,
          "velocity": 0.88189
        },
        {
          "time": 627.455142,
          "name": "A5",
          "midi": 81,
          "duration": 0.193548,
          "velocity": 0.834646
        },
        {
          "time": 627.455142,
          "name": "F#5",
          "midi": 78,
          "duration": 0.193548,
          "velocity": 0.834646
        },
        {
          "time": 627.458368,
          "name": "A5",
          "midi": 81,
          "duration": 0.193549,
          "velocity": 0.818898
        },
        {
          "time": 627.458368,
          "name": "F#5",
          "midi": 78,
          "duration": 0.193549,
          "velocity": 0.818898
        },
        {
          "time": 627.642239,
          "name": "C6",
          "midi": 84,
          "duration": 0.193549,
          "velocity": 0.88189
        },
        {
          "time": 627.64869,
          "name": "A5",
          "midi": 81,
          "duration": 0.193139,
          "velocity": 0.834646
        },
        {
          "time": 627.64869,
          "name": "C6",
          "midi": 84,
          "duration": 0.193139,
          "velocity": 0.834646
        },
        {
          "time": 627.651916,
          "name": "A5",
          "midi": 81,
          "duration": 0.192935,
          "velocity": 0.818898
        },
        {
          "time": 627.651916,
          "name": "C6",
          "midi": 84,
          "duration": 0.192935,
          "velocity": 0.818898
        },
        {
          "time": 627.835787,
          "name": "B5",
          "midi": 83,
          "duration": 0.181269,
          "velocity": 0.88189
        },
        {
          "time": 627.84183,
          "name": "B5",
          "midi": 83,
          "duration": 0.181269,
          "velocity": 0.834646
        },
        {
          "time": 627.84183,
          "name": "G5",
          "midi": 79,
          "duration": 0.181269,
          "velocity": 0.834646
        },
        {
          "time": 627.844851,
          "name": "B5",
          "midi": 83,
          "duration": 0.181269,
          "velocity": 0.818898
        },
        {
          "time": 627.844851,
          "name": "G5",
          "midi": 79,
          "duration": 0.181269,
          "velocity": 0.818898
        },
        {
          "time": 628.017056,
          "name": "G5",
          "midi": 79,
          "duration": 0.181269,
          "velocity": 0.88189
        },
        {
          "time": 628.023099,
          "name": "B4",
          "midi": 71,
          "duration": 0.181678,
          "velocity": 0.834646
        },
        {
          "time": 628.023099,
          "name": "G5",
          "midi": 79,
          "duration": 0.181678,
          "velocity": 0.834646
        },
        {
          "time": 628.02612,
          "name": "B4",
          "midi": 71,
          "duration": 0.181883,
          "velocity": 0.818898
        },
        {
          "time": 628.02612,
          "name": "G5",
          "midi": 79,
          "duration": 0.181883,
          "velocity": 0.818898
        },
        {
          "time": 628.198325,
          "name": "F#5",
          "midi": 78,
          "duration": 0.193549,
          "velocity": 0.88189
        },
        {
          "time": 628.204777,
          "name": "F#5",
          "midi": 78,
          "duration": 0.193548,
          "velocity": 0.834646
        },
        {
          "time": 628.204777,
          "name": "A4",
          "midi": 69,
          "duration": 0.193548,
          "velocity": 0.834646
        },
        {
          "time": 628.208003,
          "name": "F#5",
          "midi": 78,
          "duration": 0.193549,
          "velocity": 0.818898
        },
        {
          "time": 628.208003,
          "name": "A4",
          "midi": 69,
          "duration": 0.193549,
          "velocity": 0.818898
        },
        {
          "time": 628.391874,
          "name": "A5",
          "midi": 81,
          "duration": 0.193549,
          "velocity": 0.88189
        },
        {
          "time": 628.398325,
          "name": "C5",
          "midi": 72,
          "duration": 0.193139,
          "velocity": 0.834646
        },
        {
          "time": 628.398325,
          "name": "A5",
          "midi": 81,
          "duration": 0.193139,
          "velocity": 0.834646
        },
        {
          "time": 628.401551,
          "name": "C5",
          "midi": 72,
          "duration": 0.192935,
          "velocity": 0.818898
        },
        {
          "time": 628.401551,
          "name": "A5",
          "midi": 81,
          "duration": 0.192935,
          "velocity": 0.818898
        },
        {
          "time": 628.585422,
          "name": "G5",
          "midi": 79,
          "duration": 0.181269,
          "velocity": 0.88189
        },
        {
          "time": 628.591465,
          "name": "G5",
          "midi": 79,
          "duration": 0.181269,
          "velocity": 0.834646
        },
        {
          "time": 628.591465,
          "name": "B4",
          "midi": 71,
          "duration": 0.181269,
          "velocity": 0.834646
        },
        {
          "time": 628.594486,
          "name": "G5",
          "midi": 79,
          "duration": 0.181269,
          "velocity": 0.818898
        },
        {
          "time": 628.594486,
          "name": "B4",
          "midi": 71,
          "duration": 0.181269,
          "velocity": 0.818898
        },
        {
          "time": 628.766691,
          "name": "E5",
          "midi": 76,
          "duration": 0.181269,
          "velocity": 0.88189
        },
        {
          "time": 628.772734,
          "name": "G4",
          "midi": 67,
          "duration": 0.181678,
          "velocity": 0.834646
        },
        {
          "time": 628.772734,
          "name": "E5",
          "midi": 76,
          "duration": 0.181678,
          "velocity": 0.834646
        },
        {
          "time": 628.775755,
          "name": "G4",
          "midi": 67,
          "duration": 0.181883,
          "velocity": 0.818898
        },
        {
          "time": 628.775755,
          "name": "E5",
          "midi": 76,
          "duration": 0.181883,
          "velocity": 0.818898
        },
        {
          "time": 628.94796,
          "name": "D5",
          "midi": 74,
          "duration": 0.193549,
          "velocity": 0.88189
        },
        {
          "time": 628.954412,
          "name": "D5",
          "midi": 74,
          "duration": 0.193548,
          "velocity": 0.834646
        },
        {
          "time": 628.954412,
          "name": "F#4",
          "midi": 66,
          "duration": 0.193548,
          "velocity": 0.834646
        },
        {
          "time": 628.957638,
          "name": "D5",
          "midi": 74,
          "duration": 0.193549,
          "velocity": 0.818898
        },
        {
          "time": 628.957638,
          "name": "F#4",
          "midi": 66,
          "duration": 0.193549,
          "velocity": 0.818898
        },
        {
          "time": 629.141509,
          "name": "F#5",
          "midi": 78,
          "duration": 0.193549,
          "velocity": 0.88189
        },
        {
          "time": 629.14796,
          "name": "A4",
          "midi": 69,
          "duration": 0.193139,
          "velocity": 0.834646
        },
        {
          "time": 629.14796,
          "name": "F#5",
          "midi": 78,
          "duration": 0.193139,
          "velocity": 0.834646
        },
        {
          "time": 629.151186,
          "name": "A4",
          "midi": 69,
          "duration": 0.192935,
          "velocity": 0.818898
        },
        {
          "time": 629.151186,
          "name": "F#5",
          "midi": 78,
          "duration": 0.192935,
          "velocity": 0.818898
        },
        {
          "time": 629.335057,
          "name": "E5",
          "midi": 76,
          "duration": 0.181269,
          "velocity": 0.88189
        },
        {
          "time": 629.3411,
          "name": "E5",
          "midi": 76,
          "duration": 0.181269,
          "velocity": 0.834646
        },
        {
          "time": 629.3411,
          "name": "G4",
          "midi": 67,
          "duration": 0.181269,
          "velocity": 0.834646
        },
        {
          "time": 629.344121,
          "name": "E5",
          "midi": 76,
          "duration": 0.181269,
          "velocity": 0.818898
        },
        {
          "time": 629.344121,
          "name": "G4",
          "midi": 67,
          "duration": 0.181269,
          "velocity": 0.818898
        },
        {
          "time": 629.516326,
          "name": "G5",
          "midi": 79,
          "duration": 0.181269,
          "velocity": 0.88189
        },
        {
          "time": 629.522369,
          "name": "B4",
          "midi": 71,
          "duration": 0.181678,
          "velocity": 0.834646
        },
        {
          "time": 629.522369,
          "name": "G5",
          "midi": 79,
          "duration": 0.181678,
          "velocity": 0.834646
        },
        {
          "time": 629.52539,
          "name": "B4",
          "midi": 71,
          "duration": 0.181883,
          "velocity": 0.818898
        },
        {
          "time": 629.52539,
          "name": "G5",
          "midi": 79,
          "duration": 0.181883,
          "velocity": 0.818898
        },
        {
          "time": 629.697595,
          "name": "F#5",
          "midi": 78,
          "duration": 0.193549,
          "velocity": 0.88189
        },
        {
          "time": 629.704047,
          "name": "F#5",
          "midi": 78,
          "duration": 0.193548,
          "velocity": 0.834646
        },
        {
          "time": 629.704047,
          "name": "A4",
          "midi": 69,
          "duration": 0.193548,
          "velocity": 0.834646
        },
        {
          "time": 629.707273,
          "name": "F#5",
          "midi": 78,
          "duration": 0.193549,
          "velocity": 0.818898
        },
        {
          "time": 629.707273,
          "name": "A4",
          "midi": 69,
          "duration": 0.193549,
          "velocity": 0.818898
        },
        {
          "time": 629.891144,
          "name": "A5",
          "midi": 81,
          "duration": 0.193549,
          "velocity": 0.88189
        },
        {
          "time": 629.897595,
          "name": "C5",
          "midi": 72,
          "duration": 0.193139,
          "velocity": 0.834646
        },
        {
          "time": 629.897595,
          "name": "A5",
          "midi": 81,
          "duration": 0.193139,
          "velocity": 0.834646
        },
        {
          "time": 629.900821,
          "name": "C5",
          "midi": 72,
          "duration": 0.192935,
          "velocity": 0.818898
        },
        {
          "time": 629.900821,
          "name": "A5",
          "midi": 81,
          "duration": 0.192935,
          "velocity": 0.818898
        },
        {
          "time": 630.084692,
          "name": "G5",
          "midi": 79,
          "duration": 0.181269,
          "velocity": 0.88189
        },
        {
          "time": 630.090735,
          "name": "G5",
          "midi": 79,
          "duration": 0.181269,
          "velocity": 0.834646
        },
        {
          "time": 630.090735,
          "name": "B4",
          "midi": 71,
          "duration": 0.181269,
          "velocity": 0.834646
        },
        {
          "time": 630.093756,
          "name": "G5",
          "midi": 79,
          "duration": 0.181269,
          "velocity": 0.818898
        },
        {
          "time": 630.093756,
          "name": "B4",
          "midi": 71,
          "duration": 0.181269,
          "velocity": 0.818898
        },
        {
          "time": 630.265961,
          "name": "B5",
          "midi": 83,
          "duration": 0.181269,
          "velocity": 0.88189
        },
        {
          "time": 630.272004,
          "name": "G5",
          "midi": 79,
          "duration": 0.181678,
          "velocity": 0.834646
        },
        {
          "time": 630.272004,
          "name": "B5",
          "midi": 83,
          "duration": 0.181678,
          "velocity": 0.834646
        },
        {
          "time": 630.275025,
          "name": "G5",
          "midi": 79,
          "duration": 0.181883,
          "velocity": 0.818898
        },
        {
          "time": 630.275025,
          "name": "B5",
          "midi": 83,
          "duration": 0.181883,
          "velocity": 0.818898
        },
        {
          "time": 630.44723,
          "name": "A5",
          "midi": 81,
          "duration": 0.193549,
          "velocity": 0.88189
        },
        {
          "time": 630.453682,
          "name": "A5",
          "midi": 81,
          "duration": 0.193548,
          "velocity": 0.834646
        },
        {
          "time": 630.453682,
          "name": "F#5",
          "midi": 78,
          "duration": 0.193548,
          "velocity": 0.834646
        },
        {
          "time": 630.456908,
          "name": "A5",
          "midi": 81,
          "duration": 0.193549,
          "velocity": 0.818898
        },
        {
          "time": 630.456908,
          "name": "F#5",
          "midi": 78,
          "duration": 0.193549,
          "velocity": 0.818898
        },
        {
          "time": 630.640779,
          "name": "C6",
          "midi": 84,
          "duration": 0.193549,
          "velocity": 0.88189
        },
        {
          "time": 630.64723,
          "name": "A5",
          "midi": 81,
          "duration": 0.193139,
          "velocity": 0.834646
        },
        {
          "time": 630.64723,
          "name": "C6",
          "midi": 84,
          "duration": 0.193139,
          "velocity": 0.834646
        },
        {
          "time": 630.650456,
          "name": "A5",
          "midi": 81,
          "duration": 0.192935,
          "velocity": 0.818898
        },
        {
          "time": 630.650456,
          "name": "C6",
          "midi": 84,
          "duration": 0.192935,
          "velocity": 0.818898
        },
        {
          "time": 630.834327,
          "name": "B5",
          "midi": 83,
          "duration": 0.181269,
          "velocity": 0.88189
        },
        {
          "time": 630.84037,
          "name": "B5",
          "midi": 83,
          "duration": 0.181269,
          "velocity": 0.834646
        },
        {
          "time": 630.84037,
          "name": "G5",
          "midi": 79,
          "duration": 0.181269,
          "velocity": 0.834646
        },
        {
          "time": 630.843391,
          "name": "B5",
          "midi": 83,
          "duration": 0.181269,
          "velocity": 0.818898
        },
        {
          "time": 630.843391,
          "name": "G5",
          "midi": 79,
          "duration": 0.181269,
          "velocity": 0.818898
        },
        {
          "time": 631.015596,
          "name": "G5",
          "midi": 79,
          "duration": 0.181269,
          "velocity": 0.88189
        },
        {
          "time": 631.021639,
          "name": "B4",
          "midi": 71,
          "duration": 0.181678,
          "velocity": 0.834646
        },
        {
          "time": 631.021639,
          "name": "G5",
          "midi": 79,
          "duration": 0.181678,
          "velocity": 0.834646
        },
        {
          "time": 631.02466,
          "name": "B4",
          "midi": 71,
          "duration": 0.181883,
          "velocity": 0.818898
        },
        {
          "time": 631.02466,
          "name": "G5",
          "midi": 79,
          "duration": 0.181883,
          "velocity": 0.818898
        },
        {
          "time": 631.196865,
          "name": "F#5",
          "midi": 78,
          "duration": 0.193549,
          "velocity": 0.88189
        },
        {
          "time": 631.203317,
          "name": "F#5",
          "midi": 78,
          "duration": 0.193548,
          "velocity": 0.834646
        },
        {
          "time": 631.203317,
          "name": "A4",
          "midi": 69,
          "duration": 0.193548,
          "velocity": 0.834646
        },
        {
          "time": 631.206543,
          "name": "F#5",
          "midi": 78,
          "duration": 0.193549,
          "velocity": 0.818898
        },
        {
          "time": 631.206543,
          "name": "A4",
          "midi": 69,
          "duration": 0.193549,
          "velocity": 0.818898
        },
        {
          "time": 631.390414,
          "name": "A5",
          "midi": 81,
          "duration": 0.193549,
          "velocity": 0.88189
        },
        {
          "time": 631.396865,
          "name": "C5",
          "midi": 72,
          "duration": 0.193139,
          "velocity": 0.834646
        },
        {
          "time": 631.396865,
          "name": "A5",
          "midi": 81,
          "duration": 0.193139,
          "velocity": 0.834646
        },
        {
          "time": 631.400091,
          "name": "C5",
          "midi": 72,
          "duration": 0.192935,
          "velocity": 0.818898
        },
        {
          "time": 631.400091,
          "name": "A5",
          "midi": 81,
          "duration": 0.192935,
          "velocity": 0.818898
        },
        {
          "time": 631.583962,
          "name": "G5",
          "midi": 79,
          "duration": 0.181269,
          "velocity": 0.88189
        },
        {
          "time": 631.590005,
          "name": "G5",
          "midi": 79,
          "duration": 0.181269,
          "velocity": 0.834646
        },
        {
          "time": 631.590005,
          "name": "B4",
          "midi": 71,
          "duration": 0.181269,
          "velocity": 0.834646
        },
        {
          "time": 631.593026,
          "name": "G5",
          "midi": 79,
          "duration": 0.181269,
          "velocity": 0.818898
        },
        {
          "time": 631.593026,
          "name": "B4",
          "midi": 71,
          "duration": 0.181269,
          "velocity": 0.818898
        },
        {
          "time": 631.765231,
          "name": "E5",
          "midi": 76,
          "duration": 0.181269,
          "velocity": 0.88189
        },
        {
          "time": 631.771274,
          "name": "G4",
          "midi": 67,
          "duration": 0.181678,
          "velocity": 0.834646
        },
        {
          "time": 631.771274,
          "name": "E5",
          "midi": 76,
          "duration": 0.181678,
          "velocity": 0.834646
        },
        {
          "time": 631.774295,
          "name": "G4",
          "midi": 67,
          "duration": 0.181883,
          "velocity": 0.818898
        },
        {
          "time": 631.774295,
          "name": "E5",
          "midi": 76,
          "duration": 0.181883,
          "velocity": 0.818898
        },
        {
          "time": 631.9465,
          "name": "D5",
          "midi": 74,
          "duration": 0.193549,
          "velocity": 0.88189
        },
        {
          "time": 631.952952,
          "name": "D5",
          "midi": 74,
          "duration": 0.193548,
          "velocity": 0.834646
        },
        {
          "time": 631.952952,
          "name": "F#4",
          "midi": 66,
          "duration": 0.193548,
          "velocity": 0.834646
        },
        {
          "time": 631.956178,
          "name": "D5",
          "midi": 74,
          "duration": 0.193549,
          "velocity": 0.818898
        },
        {
          "time": 631.956178,
          "name": "F#4",
          "midi": 66,
          "duration": 0.193549,
          "velocity": 0.818898
        },
        {
          "time": 632.149726,
          "name": "D5",
          "midi": 74,
          "duration": 0.145161,
          "velocity": 0.818898
        },
        {
          "time": 632.149726,
          "name": "F#5",
          "midi": 78,
          "duration": 0.145161,
          "velocity": 0.818898
        },
        {
          "time": 632.342661,
          "name": "C5",
          "midi": 72,
          "duration": 0.135952,
          "velocity": 0.818898
        },
        {
          "time": 632.342661,
          "name": "E5",
          "midi": 76,
          "duration": 0.135952,
          "velocity": 0.818898
        },
        {
          "time": 632.52393,
          "name": "A4",
          "midi": 69,
          "duration": 0.135952,
          "velocity": 0.818898
        },
        {
          "time": 632.52393,
          "name": "C5",
          "midi": 72,
          "duration": 0.135952,
          "velocity": 0.818898
        },
        {
          "time": 632.705813,
          "name": "G#4",
          "midi": 68,
          "duration": 0.145161,
          "velocity": 0.818898
        },
        {
          "time": 632.705813,
          "name": "B4",
          "midi": 71,
          "duration": 0.145161,
          "velocity": 0.818898
        },
        {
          "time": 632.899361,
          "name": "B4",
          "midi": 71,
          "duration": 0.145161,
          "velocity": 0.818898
        },
        {
          "time": 632.899361,
          "name": "D5",
          "midi": 74,
          "duration": 0.145161,
          "velocity": 0.818898
        },
        {
          "time": 633.092296,
          "name": "A4",
          "midi": 69,
          "duration": 0.135952,
          "velocity": 0.818898
        },
        {
          "time": 633.092296,
          "name": "C5",
          "midi": 72,
          "duration": 0.135952,
          "velocity": 0.818898
        },
        {
          "time": 633.264501,
          "name": "D6",
          "midi": 86,
          "duration": 2.227757,
          "velocity": 0.88189
        },
        {
          "time": 633.267522,
          "name": "D7",
          "midi": 98,
          "duration": 0.181474,
          "velocity": 0.811024
        },
        {
          "time": 633.270544,
          "name": "D6",
          "midi": 86,
          "duration": 0.181678,
          "velocity": 0.834646
        },
        {
          "time": 633.273565,
          "name": "F#4",
          "midi": 66,
          "duration": 0.135952,
          "velocity": 0.818898
        },
        {
          "time": 633.273565,
          "name": "A4",
          "midi": 69,
          "duration": 0.135952,
          "velocity": 0.818898
        },
        {
          "time": 633.44577,
          "name": "G6",
          "midi": 91,
          "duration": 0.547218,
          "velocity": 0.88189
        },
        {
          "time": 633.448996,
          "name": "G7",
          "midi": 103,
          "duration": 0.547013,
          "velocity": 0.811024
        },
        {
          "time": 633.452222,
          "name": "G6",
          "midi": 91,
          "duration": 0.546809,
          "velocity": 0.834646
        },
        {
          "time": 633.648996,
          "name": "G5",
          "midi": 79,
          "duration": 0.192935,
          "velocity": 0.818898
        },
        {
          "time": 633.648996,
          "name": "B4",
          "midi": 71,
          "duration": 0.192935,
          "velocity": 0.818898
        },
        {
          "time": 634.014136,
          "name": "B5",
          "midi": 83,
          "duration": 0.163142,
          "velocity": 0.88189
        },
        {
          "time": 634.017157,
          "name": "B6",
          "midi": 95,
          "duration": 0.163142,
          "velocity": 0.811024
        },
        {
          "time": 634.020179,
          "name": "B5",
          "midi": 83,
          "duration": 0.163142,
          "velocity": 0.834646
        },
        {
          "time": 634.0232,
          "name": "G5",
          "midi": 79,
          "duration": 0.181883,
          "velocity": 0.818898
        },
        {
          "time": 634.0232,
          "name": "B4",
          "midi": 71,
          "duration": 0.181883,
          "velocity": 0.818898
        },
        {
          "time": 634.195405,
          "name": "E6",
          "midi": 88,
          "duration": 0.547218,
          "velocity": 0.88189
        },
        {
          "time": 634.198631,
          "name": "E7",
          "midi": 100,
          "duration": 0.547013,
          "velocity": 0.811024
        },
        {
          "time": 634.201857,
          "name": "E6",
          "midi": 88,
          "duration": 0.546809,
          "velocity": 0.834646
        },
        {
          "time": 634.398631,
          "name": "F#5",
          "midi": 78,
          "duration": 0.192935,
          "velocity": 0.818898
        },
        {
          "time": 634.398631,
          "name": "C5",
          "midi": 72,
          "duration": 0.192935,
          "velocity": 0.818898
        },
        {
          "time": 634.763771,
          "name": "A5",
          "midi": 81,
          "duration": 0.163142,
          "velocity": 0.88189
        },
        {
          "time": 634.766792,
          "name": "A6",
          "midi": 93,
          "duration": 0.163142,
          "velocity": 0.811024
        },
        {
          "time": 634.769814,
          "name": "A5",
          "midi": 81,
          "duration": 0.163142,
          "velocity": 0.834646
        },
        {
          "time": 634.772835,
          "name": "F#5",
          "midi": 78,
          "duration": 0.181883,
          "velocity": 0.818898
        },
        {
          "time": 634.772835,
          "name": "C5",
          "midi": 72,
          "duration": 0.181883,
          "velocity": 0.818898
        },
        {
          "time": 634.94504,
          "name": "D6",
          "midi": 86,
          "duration": 4.479683,
          "velocity": 0.88189
        },
        {
          "time": 634.948266,
          "name": "D7",
          "midi": 98,
          "duration": 0.547013,
          "velocity": 0.811024
        },
        {
          "time": 634.951492,
          "name": "D6",
          "midi": 86,
          "duration": 0.546809,
          "velocity": 0.834646
        },
        {
          "time": 635.148266,
          "name": "G5",
          "midi": 79,
          "duration": 0.192935,
          "velocity": 0.818898
        },
        {
          "time": 635.148266,
          "name": "B4",
          "midi": 71,
          "duration": 0.192935,
          "velocity": 0.818898
        },
        {
          "time": 635.513406,
          "name": "F#5",
          "midi": 78,
          "duration": 0.163142,
          "velocity": 0.88189
        },
        {
          "time": 635.516427,
          "name": "F#6",
          "midi": 90,
          "duration": 0.163142,
          "velocity": 0.811024
        },
        {
          "time": 635.519449,
          "name": "F#5",
          "midi": 78,
          "duration": 0.163142,
          "velocity": 0.834646
        },
        {
          "time": 635.52247,
          "name": "D5",
          "midi": 74,
          "duration": 0.181883,
          "velocity": 0.818898
        },
        {
          "time": 635.52247,
          "name": "B4",
          "midi": 71,
          "duration": 0.181883,
          "velocity": 0.818898
        },
        {
          "time": 635.694675,
          "name": "A5",
          "midi": 81,
          "duration": 0.05,
          "velocity": 0.88189
        },
        {
          "time": 635.697901,
          "name": "A6",
          "midi": 93,
          "duration": 0.05,
          "velocity": 0.811024
        },
        {
          "time": 635.701127,
          "name": "A5",
          "midi": 81,
          "duration": 0.05,
          "velocity": 0.834646
        },
        {
          "time": 635.743062,
          "name": "G5",
          "midi": 79,
          "duration": 0.132258,
          "velocity": 0.88189
        },
        {
          "time": 635.746288,
          "name": "G6",
          "midi": 91,
          "duration": 0.132258,
          "velocity": 0.811024
        },
        {
          "time": 635.749514,
          "name": "G5",
          "midi": 79,
          "duration": 0.132258,
          "velocity": 0.834646
        },
        {
          "time": 635.888224,
          "name": "F#5",
          "midi": 78,
          "duration": 0.174194,
          "velocity": 0.88189
        },
        {
          "time": 635.89145,
          "name": "F#6",
          "midi": 90,
          "duration": 0.174194,
          "velocity": 0.811024
        },
        {
          "time": 635.894675,
          "name": "F#5",
          "midi": 78,
          "duration": 0.174194,
          "velocity": 0.834646
        },
        {
          "time": 635.897901,
          "name": "D5",
          "midi": 74,
          "duration": 0.192935,
          "velocity": 0.818898
        },
        {
          "time": 635.897901,
          "name": "B4",
          "midi": 71,
          "duration": 0.192935,
          "velocity": 0.818898
        },
        {
          "time": 636.081772,
          "name": "G5",
          "midi": 79,
          "duration": 0.163142,
          "velocity": 0.88189
        },
        {
          "time": 636.084793,
          "name": "G6",
          "midi": 91,
          "duration": 0.163142,
          "velocity": 0.811024
        },
        {
          "time": 636.087815,
          "name": "G5",
          "midi": 79,
          "duration": 0.163142,
          "velocity": 0.834646
        },
        {
          "time": 636.263041,
          "name": "B5",
          "midi": 83,
          "duration": 0.163142,
          "velocity": 0.88189
        },
        {
          "time": 636.266062,
          "name": "B6",
          "midi": 95,
          "duration": 0.163142,
          "velocity": 0.811024
        },
        {
          "time": 636.269084,
          "name": "B5",
          "midi": 83,
          "duration": 0.163142,
          "velocity": 0.834646
        },
        {
          "time": 636.272105,
          "name": "G5",
          "midi": 79,
          "duration": 0.181883,
          "velocity": 0.818898
        },
        {
          "time": 636.272105,
          "name": "B4",
          "midi": 71,
          "duration": 0.181883,
          "velocity": 0.818898
        },
        {
          "time": 636.44431,
          "name": "E6",
          "midi": 88,
          "duration": 0.547218,
          "velocity": 0.88189
        },
        {
          "time": 636.447536,
          "name": "E7",
          "midi": 100,
          "duration": 0.547013,
          "velocity": 0.811024
        },
        {
          "time": 636.450762,
          "name": "E6",
          "midi": 88,
          "duration": 0.546809,
          "velocity": 0.834646
        },
        {
          "time": 636.647536,
          "name": "C5",
          "midi": 72,
          "duration": 0.192935,
          "velocity": 0.818898
        },
        {
          "time": 636.647536,
          "name": "F#5",
          "midi": 78,
          "duration": 0.192935,
          "velocity": 0.818898
        },
        {
          "time": 637.012676,
          "name": "G#5",
          "midi": 80,
          "duration": 0.163142,
          "velocity": 0.88189
        },
        {
          "time": 637.015697,
          "name": "G#6",
          "midi": 92,
          "duration": 0.163142,
          "velocity": 0.811024
        },
        {
          "time": 637.018719,
          "name": "G#5",
          "midi": 80,
          "duration": 0.163142,
          "velocity": 0.834646
        },
        {
          "time": 637.02174,
          "name": "F#5",
          "midi": 78,
          "duration": 0.181883,
          "velocity": 0.818898
        },
        {
          "time": 637.02174,
          "name": "C5",
          "midi": 72,
          "duration": 0.181883,
          "velocity": 0.818898
        },
        {
          "time": 637.193945,
          "name": "B5",
          "midi": 83,
          "duration": 0.05,
          "velocity": 0.88189
        },
        {
          "time": 637.197171,
          "name": "B6",
          "midi": 95,
          "duration": 0.05,
          "velocity": 0.811024
        },
        {
          "time": 637.200397,
          "name": "B5",
          "midi": 83,
          "duration": 0.05,
          "velocity": 0.834646
        },
        {
          "time": 637.242332,
          "name": "A5",
          "midi": 81,
          "duration": 0.132258,
          "velocity": 0.88189
        },
        {
          "time": 637.245558,
          "name": "A6",
          "midi": 93,
          "duration": 0.132258,
          "velocity": 0.811024
        },
        {
          "time": 637.248784,
          "name": "A5",
          "midi": 81,
          "duration": 0.132258,
          "velocity": 0.834646
        },
        {
          "time": 637.387494,
          "name": "G#5",
          "midi": 80,
          "duration": 0.174194,
          "velocity": 0.88189
        },
        {
          "time": 637.39072,
          "name": "G#6",
          "midi": 92,
          "duration": 0.174194,
          "velocity": 0.811024
        },
        {
          "time": 637.393945,
          "name": "G#5",
          "midi": 80,
          "duration": 0.174194,
          "velocity": 0.834646
        },
        {
          "time": 637.397171,
          "name": "F#5",
          "midi": 78,
          "duration": 0.192935,
          "velocity": 0.818898
        },
        {
          "time": 637.397171,
          "name": "C5",
          "midi": 72,
          "duration": 0.192935,
          "velocity": 0.818898
        },
        {
          "time": 637.581042,
          "name": "A5",
          "midi": 81,
          "duration": 0.163142,
          "velocity": 0.88189
        },
        {
          "time": 637.584063,
          "name": "A6",
          "midi": 93,
          "duration": 0.163142,
          "velocity": 0.811024
        },
        {
          "time": 637.587085,
          "name": "A5",
          "midi": 81,
          "duration": 0.163142,
          "velocity": 0.834646
        },
        {
          "time": 637.762311,
          "name": "F#6",
          "midi": 90,
          "duration": 0.163142,
          "velocity": 0.88189
        },
        {
          "time": 637.765332,
          "name": "F#7",
          "midi": 102,
          "duration": 0.163142,
          "velocity": 0.811024
        },
        {
          "time": 637.768354,
          "name": "F#6",
          "midi": 90,
          "duration": 0.163142,
          "velocity": 0.834646
        },
        {
          "time": 637.771375,
          "name": "F#5",
          "midi": 78,
          "duration": 0.181883,
          "velocity": 0.818898
        },
        {
          "time": 637.771375,
          "name": "C5",
          "midi": 72,
          "duration": 0.181883,
          "velocity": 0.818898
        },
        {
          "time": 637.94358,
          "name": "E6",
          "midi": 88,
          "duration": 0.547218,
          "velocity": 0.88189
        },
        {
          "time": 637.946806,
          "name": "E7",
          "midi": 100,
          "duration": 0.547013,
          "velocity": 0.811024
        },
        {
          "time": 637.950032,
          "name": "E6",
          "midi": 88,
          "duration": 0.546809,
          "velocity": 0.834646
        },
        {
          "time": 638.146806,
          "name": "G5",
          "midi": 79,
          "duration": 0.192935,
          "velocity": 0.818898
        },
        {
          "time": 638.146806,
          "name": "B4",
          "midi": 71,
          "duration": 0.192935,
          "velocity": 0.818898
        },
        {
          "time": 638.511946,
          "name": "A#5",
          "midi": 82,
          "duration": 0.163142,
          "velocity": 0.88189
        },
        {
          "time": 638.514967,
          "name": "A#6",
          "midi": 94,
          "duration": 0.163142,
          "velocity": 0.811024
        },
        {
          "time": 638.517989,
          "name": "A#5",
          "midi": 82,
          "duration": 0.163142,
          "velocity": 0.834646
        },
        {
          "time": 638.52101,
          "name": "G5",
          "midi": 79,
          "duration": 0.181883,
          "velocity": 0.818898
        },
        {
          "time": 638.52101,
          "name": "C#5",
          "midi": 73,
          "duration": 0.181883,
          "velocity": 0.818898
        },
        {
          "time": 638.693215,
          "name": "C6",
          "midi": 84,
          "duration": 0.05,
          "velocity": 0.88189
        },
        {
          "time": 638.696441,
          "name": "C7",
          "midi": 96,
          "duration": 0.05,
          "velocity": 0.811024
        },
        {
          "time": 638.699667,
          "name": "C6",
          "midi": 84,
          "duration": 0.05,
          "velocity": 0.834646
        },
        {
          "time": 638.741602,
          "name": "B5",
          "midi": 83,
          "duration": 0.132258,
          "velocity": 0.88189
        },
        {
          "time": 638.744828,
          "name": "B6",
          "midi": 95,
          "duration": 0.132258,
          "velocity": 0.811024
        },
        {
          "time": 638.748054,
          "name": "B5",
          "midi": 83,
          "duration": 0.132258,
          "velocity": 0.834646
        },
        {
          "time": 638.886764,
          "name": "A#5",
          "midi": 82,
          "duration": 0.174194,
          "velocity": 0.88189
        },
        {
          "time": 638.88999,
          "name": "A#6",
          "midi": 94,
          "duration": 0.174194,
          "velocity": 0.811024
        },
        {
          "time": 638.893215,
          "name": "A#5",
          "midi": 82,
          "duration": 0.174194,
          "velocity": 0.834646
        },
        {
          "time": 638.896441,
          "name": "G5",
          "midi": 79,
          "duration": 0.192935,
          "velocity": 0.818898
        },
        {
          "time": 638.896441,
          "name": "D5",
          "midi": 74,
          "duration": 0.192935,
          "velocity": 0.818898
        },
        {
          "time": 639.080312,
          "name": "B5",
          "midi": 83,
          "duration": 0.163142,
          "velocity": 0.88189
        },
        {
          "time": 639.083333,
          "name": "B6",
          "midi": 95,
          "duration": 0.163142,
          "velocity": 0.811024
        },
        {
          "time": 639.086355,
          "name": "B5",
          "midi": 83,
          "duration": 0.163142,
          "velocity": 0.834646
        },
        {
          "time": 639.261581,
          "name": "D6",
          "midi": 86,
          "duration": 2.227757,
          "velocity": 0.88189
        },
        {
          "time": 639.270645,
          "name": "B4",
          "midi": 71,
          "duration": 0.181883,
          "velocity": 0.818898
        },
        {
          "time": 639.270645,
          "name": "G5",
          "midi": 79,
          "duration": 0.181883,
          "velocity": 0.818898
        },
        {
          "time": 639.44285,
          "name": "G6",
          "midi": 91,
          "duration": 0.547218,
          "velocity": 0.88189
        },
        {
          "time": 639.446076,
          "name": "G7",
          "midi": 103,
          "duration": 0.547013,
          "velocity": 0.811024
        },
        {
          "time": 639.449302,
          "name": "G6",
          "midi": 91,
          "duration": 0.546809,
          "velocity": 0.834646
        },
        {
          "time": 639.646076,
          "name": "G5",
          "midi": 79,
          "duration": 0.192935,
          "velocity": 0.818898
        },
        {
          "time": 639.646076,
          "name": "B4",
          "midi": 71,
          "duration": 0.192935,
          "velocity": 0.818898
        },
        {
          "time": 640.011216,
          "name": "B5",
          "midi": 83,
          "duration": 0.163142,
          "velocity": 0.88189
        },
        {
          "time": 640.014237,
          "name": "B6",
          "midi": 95,
          "duration": 0.163142,
          "velocity": 0.811024
        },
        {
          "time": 640.017259,
          "name": "B5",
          "midi": 83,
          "duration": 0.163142,
          "velocity": 0.834646
        },
        {
          "time": 640.02028,
          "name": "G5",
          "midi": 79,
          "duration": 0.181883,
          "velocity": 0.818898
        },
        {
          "time": 640.02028,
          "name": "B4",
          "midi": 71,
          "duration": 0.181883,
          "velocity": 0.818898
        },
        {
          "time": 640.192485,
          "name": "E6",
          "midi": 88,
          "duration": 0.547218,
          "velocity": 0.88189
        },
        {
          "time": 640.195711,
          "name": "E7",
          "midi": 100,
          "duration": 0.547013,
          "velocity": 0.811024
        },
        {
          "time": 640.198937,
          "name": "E6",
          "midi": 88,
          "duration": 0.546809,
          "velocity": 0.834646
        },
        {
          "time": 640.395711,
          "name": "F#5",
          "midi": 78,
          "duration": 0.192935,
          "velocity": 0.818898
        },
        {
          "time": 640.395711,
          "name": "C5",
          "midi": 72,
          "duration": 0.192935,
          "velocity": 0.818898
        },
        {
          "time": 640.760851,
          "name": "A5",
          "midi": 81,
          "duration": 0.163142,
          "velocity": 0.88189
        },
        {
          "time": 640.763872,
          "name": "A6",
          "midi": 93,
          "duration": 0.163142,
          "velocity": 0.811024
        },
        {
          "time": 640.766894,
          "name": "A5",
          "midi": 81,
          "duration": 0.163142,
          "velocity": 0.834646
        },
        {
          "time": 640.769915,
          "name": "F#5",
          "midi": 78,
          "duration": 0.181883,
          "velocity": 0.818898
        },
        {
          "time": 640.769915,
          "name": "C5",
          "midi": 72,
          "duration": 0.181883,
          "velocity": 0.818898
        },
        {
          "time": 640.94212,
          "name": "D6",
          "midi": 86,
          "duration": 7.767318,
          "velocity": 0.88189
        },
        {
          "time": 640.945346,
          "name": "D7",
          "midi": 98,
          "duration": 0.547013,
          "velocity": 0.811024
        },
        {
          "time": 640.948572,
          "name": "D6",
          "midi": 86,
          "duration": 0.546809,
          "velocity": 0.834646
        },
        {
          "time": 641.145346,
          "name": "G5",
          "midi": 79,
          "duration": 0.192935,
          "velocity": 0.818898
        },
        {
          "time": 641.145346,
          "name": "B4",
          "midi": 71,
          "duration": 0.192935,
          "velocity": 0.818898
        },
        {
          "time": 641.510486,
          "name": "F#5",
          "midi": 78,
          "duration": 0.163142,
          "velocity": 0.88189
        },
        {
          "time": 641.513507,
          "name": "F#6",
          "midi": 90,
          "duration": 0.163142,
          "velocity": 0.811024
        },
        {
          "time": 641.516529,
          "name": "F#5",
          "midi": 78,
          "duration": 0.163142,
          "velocity": 0.834646
        },
        {
          "time": 641.51955,
          "name": "D5",
          "midi": 74,
          "duration": 0.181883,
          "velocity": 0.818898
        },
        {
          "time": 641.51955,
          "name": "B4",
          "midi": 71,
          "duration": 0.181883,
          "velocity": 0.818898
        },
        {
          "time": 641.691755,
          "name": "A5",
          "midi": 81,
          "duration": 0.05,
          "velocity": 0.88189
        },
        {
          "time": 641.694981,
          "name": "A6",
          "midi": 93,
          "duration": 0.05,
          "velocity": 0.811024
        },
        {
          "time": 641.698207,
          "name": "A5",
          "midi": 81,
          "duration": 0.05,
          "velocity": 0.834646
        },
        {
          "time": 641.740142,
          "name": "G5",
          "midi": 79,
          "duration": 0.132258,
          "velocity": 0.88189
        },
        {
          "time": 641.743368,
          "name": "G6",
          "midi": 91,
          "duration": 0.132258,
          "velocity": 0.811024
        },
        {
          "time": 641.746594,
          "name": "G5",
          "midi": 79,
          "duration": 0.132258,
          "velocity": 0.834646
        },
        {
          "time": 641.885304,
          "name": "F#5",
          "midi": 78,
          "duration": 0.174194,
          "velocity": 0.88189
        },
        {
          "time": 641.88853,
          "name": "F#6",
          "midi": 90,
          "duration": 0.174194,
          "velocity": 0.811024
        },
        {
          "time": 641.891755,
          "name": "F#5",
          "midi": 78,
          "duration": 0.174194,
          "velocity": 0.834646
        },
        {
          "time": 641.894981,
          "name": "D5",
          "midi": 74,
          "duration": 0.192935,
          "velocity": 0.818898
        },
        {
          "time": 641.894981,
          "name": "B4",
          "midi": 71,
          "duration": 0.192935,
          "velocity": 0.818898
        },
        {
          "time": 642.078852,
          "name": "G5",
          "midi": 79,
          "duration": 0.163142,
          "velocity": 0.88189
        },
        {
          "time": 642.081873,
          "name": "G6",
          "midi": 91,
          "duration": 0.163142,
          "velocity": 0.811024
        },
        {
          "time": 642.084895,
          "name": "G5",
          "midi": 79,
          "duration": 0.163142,
          "velocity": 0.834646
        },
        {
          "time": 642.260121,
          "name": "B5",
          "midi": 83,
          "duration": 0.163142,
          "velocity": 0.88189
        },
        {
          "time": 642.263142,
          "name": "B6",
          "midi": 95,
          "duration": 0.163142,
          "velocity": 0.811024
        },
        {
          "time": 642.266164,
          "name": "B5",
          "midi": 83,
          "duration": 0.163142,
          "velocity": 0.834646
        },
        {
          "time": 642.269185,
          "name": "G5",
          "midi": 79,
          "duration": 0.181883,
          "velocity": 0.818898
        },
        {
          "time": 642.269185,
          "name": "B4",
          "midi": 71,
          "duration": 0.181883,
          "velocity": 0.818898
        },
        {
          "time": 642.44139,
          "name": "E6",
          "midi": 88,
          "duration": 0.547218,
          "velocity": 0.88189
        },
        {
          "time": 642.444616,
          "name": "E7",
          "midi": 100,
          "duration": 0.547013,
          "velocity": 0.811024
        },
        {
          "time": 642.447842,
          "name": "E6",
          "midi": 88,
          "duration": 0.546809,
          "velocity": 0.834646
        },
        {
          "time": 642.644616,
          "name": "E5",
          "midi": 76,
          "duration": 0.192935,
          "velocity": 0.818898
        },
        {
          "time": 642.644616,
          "name": "G5",
          "midi": 79,
          "duration": 0.192935,
          "velocity": 0.818898
        },
        {
          "time": 643.009756,
          "name": "B5",
          "midi": 83,
          "duration": 0.163142,
          "velocity": 0.88189
        },
        {
          "time": 643.012777,
          "name": "B6",
          "midi": 95,
          "duration": 0.163142,
          "velocity": 0.811024
        },
        {
          "time": 643.015799,
          "name": "B5",
          "midi": 83,
          "duration": 0.163142,
          "velocity": 0.834646
        },
        {
          "time": 643.01882,
          "name": "E5",
          "midi": 76,
          "duration": 0.181883,
          "velocity": 0.818898
        },
        {
          "time": 643.01882,
          "name": "G5",
          "midi": 79,
          "duration": 0.181883,
          "velocity": 0.818898
        },
        {
          "time": 643.191025,
          "name": "C6",
          "midi": 84,
          "duration": 0.05,
          "velocity": 0.88189
        },
        {
          "time": 643.194251,
          "name": "C7",
          "midi": 96,
          "duration": 0.05,
          "velocity": 0.811024
        },
        {
          "time": 643.197477,
          "name": "C6",
          "midi": 84,
          "duration": 0.05,
          "velocity": 0.834646
        },
        {
          "time": 643.239412,
          "name": "B5",
          "midi": 83,
          "duration": 0.132258,
          "velocity": 0.88189
        },
        {
          "time": 643.242638,
          "name": "B6",
          "midi": 95,
          "duration": 0.132258,
          "velocity": 0.811024
        },
        {
          "time": 643.245864,
          "name": "B5",
          "midi": 83,
          "duration": 0.132258,
          "velocity": 0.834646
        },
        {
          "time": 643.384574,
          "name": "A#5",
          "midi": 82,
          "duration": 0.174194,
          "velocity": 0.88189
        },
        {
          "time": 643.3878,
          "name": "A#6",
          "midi": 94,
          "duration": 0.174194,
          "velocity": 0.811024
        },
        {
          "time": 643.391025,
          "name": "A#5",
          "midi": 82,
          "duration": 0.174194,
          "velocity": 0.834646
        },
        {
          "time": 643.394251,
          "name": "E5",
          "midi": 76,
          "duration": 0.192935,
          "velocity": 0.818898
        },
        {
          "time": 643.394251,
          "name": "G5",
          "midi": 79,
          "duration": 0.192935,
          "velocity": 0.818898
        },
        {
          "time": 643.578122,
          "name": "B5",
          "midi": 83,
          "duration": 0.163142,
          "velocity": 0.88189
        },
        {
          "time": 643.581143,
          "name": "B6",
          "midi": 95,
          "duration": 0.163142,
          "velocity": 0.811024
        },
        {
          "time": 643.584165,
          "name": "B5",
          "midi": 83,
          "duration": 0.163142,
          "velocity": 0.834646
        },
        {
          "time": 643.759391,
          "name": "E6",
          "midi": 88,
          "duration": 0.163142,
          "velocity": 0.88189
        },
        {
          "time": 643.762412,
          "name": "E7",
          "midi": 100,
          "duration": 0.163142,
          "velocity": 0.811024
        },
        {
          "time": 643.765434,
          "name": "E6",
          "midi": 88,
          "duration": 0.163142,
          "velocity": 0.834646
        },
        {
          "time": 643.768455,
          "name": "B4",
          "midi": 71,
          "duration": 0.181883,
          "velocity": 0.818898
        },
        {
          "time": 643.768455,
          "name": "G5",
          "midi": 79,
          "duration": 0.181883,
          "velocity": 0.818898
        },
        {
          "time": 643.94066,
          "name": "F#6",
          "midi": 90,
          "duration": 0.547218,
          "velocity": 0.88189
        },
        {
          "time": 643.943886,
          "name": "F#7",
          "midi": 102,
          "duration": 0.547013,
          "velocity": 0.811024
        },
        {
          "time": 643.947112,
          "name": "F#6",
          "midi": 90,
          "duration": 0.546809,
          "velocity": 0.834646
        },
        {
          "time": 644.143886,
          "name": "D#5",
          "midi": 75,
          "duration": 0.192935,
          "velocity": 0.818898
        },
        {
          "time": 644.143886,
          "name": "F#5",
          "midi": 78,
          "duration": 0.192935,
          "velocity": 0.818898
        },
        {
          "time": 644.509026,
          "name": "B5",
          "midi": 83,
          "duration": 0.163142,
          "velocity": 0.88189
        },
        {
          "time": 644.512047,
          "name": "B6",
          "midi": 95,
          "duration": 0.163142,
          "velocity": 0.811024
        },
        {
          "time": 644.515069,
          "name": "B5",
          "midi": 83,
          "duration": 0.163142,
          "velocity": 0.834646
        },
        {
          "time": 644.51809,
          "name": "D#5",
          "midi": 75,
          "duration": 0.181883,
          "velocity": 0.818898
        },
        {
          "time": 644.51809,
          "name": "F#5",
          "midi": 78,
          "duration": 0.181883,
          "velocity": 0.818898
        },
        {
          "time": 644.690295,
          "name": "C#6",
          "midi": 85,
          "duration": 0.077419,
          "velocity": 0.88189
        },
        {
          "time": 644.693521,
          "name": "C#7",
          "midi": 97,
          "duration": 0.174194,
          "velocity": 0.811024
        },
        {
          "time": 644.696747,
          "name": "C#6",
          "midi": 85,
          "duration": 0.174194,
          "velocity": 0.834646
        },
        {
          "time": 644.787069,
          "name": "C#6",
          "midi": 85,
          "duration": 0.077419,
          "velocity": 0.88189
        },
        {
          "time": 644.883844,
          "name": "D#6",
          "midi": 87,
          "duration": 0.077419,
          "velocity": 0.88189
        },
        {
          "time": 644.88707,
          "name": "D#7",
          "midi": 99,
          "duration": 0.174194,
          "velocity": 0.811024
        },
        {
          "time": 644.890295,
          "name": "D#6",
          "midi": 87,
          "duration": 0.174194,
          "velocity": 0.834646
        },
        {
          "time": 644.893521,
          "name": "D#5",
          "midi": 75,
          "duration": 0.192935,
          "velocity": 0.818898
        },
        {
          "time": 644.893521,
          "name": "F#5",
          "midi": 78,
          "duration": 0.192935,
          "velocity": 0.818898
        },
        {
          "time": 644.980618,
          "name": "D#6",
          "midi": 87,
          "duration": 0.077419,
          "velocity": 0.88189
        },
        {
          "time": 645.077392,
          "name": "E6",
          "midi": 88,
          "duration": 0.072508,
          "velocity": 0.88189
        },
        {
          "time": 645.080413,
          "name": "E7",
          "midi": 100,
          "duration": 0.163142,
          "velocity": 0.811024
        },
        {
          "time": 645.083435,
          "name": "E6",
          "midi": 88,
          "duration": 0.163142,
          "velocity": 0.834646
        },
        {
          "time": 645.168027,
          "name": "E6",
          "midi": 88,
          "duration": 0.072508,
          "velocity": 0.88189
        },
        {
          "time": 645.258661,
          "name": "F#6",
          "midi": 90,
          "duration": 0.072508,
          "velocity": 0.88189
        },
        {
          "time": 645.261682,
          "name": "F#7",
          "midi": 102,
          "duration": 0.163142,
          "velocity": 0.811024
        },
        {
          "time": 645.264704,
          "name": "F#6",
          "midi": 90,
          "duration": 0.163142,
          "velocity": 0.834646
        },
        {
          "time": 645.267725,
          "name": "D#5",
          "midi": 75,
          "duration": 0.181883,
          "velocity": 0.818898
        },
        {
          "time": 645.267725,
          "name": "F#5",
          "midi": 78,
          "duration": 0.181883,
          "velocity": 0.818898
        },
        {
          "time": 645.349296,
          "name": "F#6",
          "midi": 90,
          "duration": 0.072508,
          "velocity": 0.88189
        },
        {
          "time": 645.43993,
          "name": "G6",
          "midi": 91,
          "duration": 0.077419,
          "velocity": 0.88189
        },
        {
          "time": 645.443156,
          "name": "G7",
          "midi": 103,
          "duration": 0.749635,
          "velocity": 0.811024
        },
        {
          "time": 645.446382,
          "name": "G6",
          "midi": 91,
          "duration": 0.749635,
          "velocity": 0.834646
        },
        {
          "time": 645.449608,
          "name": "B5",
          "midi": 83,
          "duration": 0.386483,
          "velocity": 0.818898
        },
        {
          "time": 645.449608,
          "name": "G5",
          "midi": 79,
          "duration": 0.386483,
          "velocity": 0.818898
        },
        {
          "time": 645.536704,
          "name": "G6",
          "midi": 91,
          "duration": 0.077419,
          "velocity": 0.88189
        },
        {
          "time": 645.633479,
          "name": "G6",
          "midi": 91,
          "duration": 0.077419,
          "velocity": 0.88189
        },
        {
          "time": 645.730253,
          "name": "G6",
          "midi": 91,
          "duration": 0.077419,
          "velocity": 0.88189
        },
        {
          "time": 645.827027,
          "name": "G6",
          "midi": 91,
          "duration": 0.072508,
          "velocity": 0.88189
        },
        {
          "time": 645.836091,
          "name": "B5",
          "midi": 83,
          "duration": 0.363152,
          "velocity": 0.818898
        },
        {
          "time": 645.836091,
          "name": "G5",
          "midi": 79,
          "duration": 0.363152,
          "velocity": 0.818898
        },
        {
          "time": 645.917662,
          "name": "G6",
          "midi": 91,
          "duration": 0.072508,
          "velocity": 0.88189
        },
        {
          "time": 646.008296,
          "name": "G6",
          "midi": 91,
          "duration": 0.072508,
          "velocity": 0.88189
        },
        {
          "time": 646.098931,
          "name": "G6",
          "midi": 91,
          "duration": 0.072508,
          "velocity": 0.88189
        },
        {
          "time": 646.189565,
          "name": "G6",
          "midi": 91,
          "duration": 0.077419,
          "velocity": 0.88189
        },
        {
          "time": 646.192791,
          "name": "G7",
          "midi": 103,
          "duration": 0.749635,
          "velocity": 0.811024
        },
        {
          "time": 646.196017,
          "name": "G6",
          "midi": 91,
          "duration": 0.749635,
          "velocity": 0.834646
        },
        {
          "time": 646.199243,
          "name": "C6",
          "midi": 84,
          "duration": 0.386483,
          "velocity": 0.818898
        },
        {
          "time": 646.199243,
          "name": "A5",
          "midi": 81,
          "duration": 0.386483,
          "velocity": 0.818898
        },
        {
          "time": 646.286339,
          "name": "G6",
          "midi": 91,
          "duration": 0.077419,
          "velocity": 0.88189
        },
        {
          "time": 646.383114,
          "name": "G6",
          "midi": 91,
          "duration": 0.077419,
          "velocity": 0.88189
        },
        {
          "time": 646.479888,
          "name": "G6",
          "midi": 91,
          "duration": 0.077419,
          "velocity": 0.88189
        },
        {
          "time": 646.576662,
          "name": "G6",
          "midi": 91,
          "duration": 0.072508,
          "velocity": 0.88189
        },
        {
          "time": 646.585726,
          "name": "C#6",
          "midi": 85,
          "duration": 0.363152,
          "velocity": 0.818898
        },
        {
          "time": 646.585726,
          "name": "A#5",
          "midi": 82,
          "duration": 0.363152,
          "velocity": 0.818898
        },
        {
          "time": 646.667297,
          "name": "G6",
          "midi": 91,
          "duration": 0.072508,
          "velocity": 0.88189
        },
        {
          "time": 646.757931,
          "name": "G6",
          "midi": 91,
          "duration": 0.072508,
          "velocity": 0.88189
        },
        {
          "time": 646.848566,
          "name": "G6",
          "midi": 91,
          "duration": 0.072508,
          "velocity": 0.88189
        },
        {
          "time": 646.9392,
          "name": "G6",
          "midi": 91,
          "duration": 0.077419,
          "velocity": 0.88189
        },
        {
          "time": 646.942426,
          "name": "G7",
          "midi": 103,
          "duration": 0.749635,
          "velocity": 0.811024
        },
        {
          "time": 646.945652,
          "name": "G6",
          "midi": 91,
          "duration": 0.749635,
          "velocity": 0.834646
        },
        {
          "time": 646.948878,
          "name": "B5",
          "midi": 83,
          "duration": 0.386483,
          "velocity": 0.818898
        },
        {
          "time": 646.948878,
          "name": "D6",
          "midi": 86,
          "duration": 0.386483,
          "velocity": 0.818898
        },
        {
          "time": 647.035974,
          "name": "G6",
          "midi": 91,
          "duration": 0.077419,
          "velocity": 0.88189
        },
        {
          "time": 647.132749,
          "name": "G6",
          "midi": 91,
          "duration": 0.077419,
          "velocity": 0.88189
        },
        {
          "time": 647.229523,
          "name": "G6",
          "midi": 91,
          "duration": 0.077419,
          "velocity": 0.88189
        },
        {
          "time": 647.326297,
          "name": "G6",
          "midi": 91,
          "duration": 0.072508,
          "velocity": 0.88189
        },
        {
          "time": 647.335361,
          "name": "G5",
          "midi": 79,
          "duration": 0.363152,
          "velocity": 0.818898
        },
        {
          "time": 647.335361,
          "name": "B5",
          "midi": 83,
          "duration": 0.363152,
          "velocity": 0.818898
        },
        {
          "time": 647.416932,
          "name": "G6",
          "midi": 91,
          "duration": 0.072508,
          "velocity": 0.88189
        },
        {
          "time": 647.507566,
          "name": "G6",
          "midi": 91,
          "duration": 0.072508,
          "velocity": 0.88189
        },
        {
          "time": 647.598201,
          "name": "G6",
          "midi": 91,
          "duration": 0.072508,
          "velocity": 0.88189
        },
        {
          "time": 647.688835,
          "name": "G6",
          "midi": 91,
          "duration": 0.077419,
          "velocity": 0.88189
        },
        {
          "time": 647.692061,
          "name": "G7",
          "midi": 103,
          "duration": 0.749635,
          "velocity": 0.811024
        },
        {
          "time": 647.695287,
          "name": "G6",
          "midi": 91,
          "duration": 0.749635,
          "velocity": 0.834646
        },
        {
          "time": 647.698513,
          "name": "C6",
          "midi": 84,
          "duration": 0.386483,
          "velocity": 0.818898
        },
        {
          "time": 647.698513,
          "name": "A5",
          "midi": 81,
          "duration": 0.386483,
          "velocity": 0.818898
        },
        {
          "time": 647.785609,
          "name": "G6",
          "midi": 91,
          "duration": 0.077419,
          "velocity": 0.88189
        },
        {
          "time": 647.882384,
          "name": "G6",
          "midi": 91,
          "duration": 0.077419,
          "velocity": 0.88189
        },
        {
          "time": 647.979158,
          "name": "G6",
          "midi": 91,
          "duration": 0.077419,
          "velocity": 0.88189
        },
        {
          "time": 648.075932,
          "name": "G6",
          "midi": 91,
          "duration": 0.072508,
          "velocity": 0.88189
        },
        {
          "time": 648.084996,
          "name": "C#6",
          "midi": 85,
          "duration": 0.363152,
          "velocity": 0.818898
        },
        {
          "time": 648.084996,
          "name": "A#5",
          "midi": 82,
          "duration": 0.363152,
          "velocity": 0.818898
        },
        {
          "time": 648.166567,
          "name": "G6",
          "midi": 91,
          "duration": 0.072508,
          "velocity": 0.88189
        },
        {
          "time": 648.257201,
          "name": "G6",
          "midi": 91,
          "duration": 0.072508,
          "velocity": 0.88189
        },
        {
          "time": 648.347836,
          "name": "G6",
          "midi": 91,
          "duration": 0.072508,
          "velocity": 0.88189
        },
        {
          "time": 648.43847,
          "name": "G6",
          "midi": 91,
          "duration": 0.077419,
          "velocity": 0.88189
        },
        {
          "time": 648.441696,
          "name": "G7",
          "midi": 103,
          "duration": 0.193549,
          "velocity": 0.811024
        },
        {
          "time": 648.444922,
          "name": "G6",
          "midi": 91,
          "duration": 0.193548,
          "velocity": 0.834646
        },
        {
          "time": 648.448148,
          "name": "B5",
          "midi": 83,
          "duration": 0.193549,
          "velocity": 0.818898
        },
        {
          "time": 648.448148,
          "name": "D6",
          "midi": 86,
          "duration": 0.193549,
          "velocity": 0.818898
        },
        {
          "time": 648.535244,
          "name": "G6",
          "midi": 91,
          "duration": 0.077419,
          "velocity": 0.88189
        },
        {
          "time": 648.632019,
          "name": "D6",
          "midi": 86,
          "duration": 0.174194,
          "velocity": 0.88189
        },
        {
          "time": 648.635245,
          "name": "D7",
          "midi": 98,
          "duration": 0.193344,
          "velocity": 0.811024
        },
        {
          "time": 648.63847,
          "name": "D6",
          "midi": 86,
          "duration": 0.193139,
          "velocity": 0.834646
        },
        {
          "time": 648.641696,
          "name": "D5",
          "midi": 74,
          "duration": 0.192935,
          "velocity": 0.818898
        },
        {
          "time": 648.728793,
          "name": "D6",
          "midi": 86,
          "duration": 0.73028,
          "velocity": 0.88189
        },
        {
          "time": 648.825567,
          "name": "G6",
          "midi": 91,
          "duration": 0.072508,
          "velocity": 0.88189
        },
        {
          "time": 648.828588,
          "name": "G7",
          "midi": 103,
          "duration": 0.181269,
          "velocity": 0.811024
        },
        {
          "time": 648.83161,
          "name": "G6",
          "midi": 91,
          "duration": 0.181269,
          "velocity": 0.834646
        },
        {
          "time": 648.834631,
          "name": "G5",
          "midi": 79,
          "duration": 0.181269,
          "velocity": 0.818898
        },
        {
          "time": 648.916202,
          "name": "G6",
          "midi": 91,
          "duration": 0.072508,
          "velocity": 0.88189
        },
        {
          "time": 649.006836,
          "name": "F#6",
          "midi": 90,
          "duration": 0.072508,
          "velocity": 0.88189
        },
        {
          "time": 649.009857,
          "name": "F#7",
          "midi": 102,
          "duration": 0.181474,
          "velocity": 0.811024
        },
        {
          "time": 649.012879,
          "name": "F#6",
          "midi": 90,
          "duration": 0.181678,
          "velocity": 0.834646
        },
        {
          "time": 649.0159,
          "name": "F#5",
          "midi": 78,
          "duration": 0.181883,
          "velocity": 0.818898
        },
        {
          "time": 649.097471,
          "name": "F#6",
          "midi": 90,
          "duration": 0.072508,
          "velocity": 0.88189
        },
        {
          "time": 649.188105,
          "name": "E6",
          "midi": 88,
          "duration": 0.077419,
          "velocity": 0.88189
        },
        {
          "time": 649.191331,
          "name": "E7",
          "midi": 100,
          "duration": 0.193549,
          "velocity": 0.811024
        },
        {
          "time": 649.194557,
          "name": "E6",
          "midi": 88,
          "duration": 0.193548,
          "velocity": 0.834646
        },
        {
          "time": 649.197783,
          "name": "E5",
          "midi": 76,
          "duration": 0.193549,
          "velocity": 0.818898
        },
        {
          "time": 649.284879,
          "name": "E6",
          "midi": 88,
          "duration": 0.077419,
          "velocity": 0.88189
        },
        {
          "time": 649.381654,
          "name": "D6",
          "midi": 86,
          "duration": 0.174194,
          "velocity": 0.88189
        },
        {
          "time": 649.38488,
          "name": "D7",
          "midi": 98,
          "duration": 0.193344,
          "velocity": 0.811024
        },
        {
          "time": 649.388105,
          "name": "D6",
          "midi": 86,
          "duration": 0.193139,
          "velocity": 0.834646
        },
        {
          "time": 649.391331,
          "name": "D5",
          "midi": 74,
          "duration": 0.192935,
          "velocity": 0.818898
        },
        {
          "time": 649.478428,
          "name": "D6",
          "midi": 86,
          "duration": 0.918917,
          "velocity": 0.88189
        },
        {
          "time": 649.575202,
          "name": "C6",
          "midi": 84,
          "duration": 0.072508,
          "velocity": 0.88189
        },
        {
          "time": 649.578223,
          "name": "C7",
          "midi": 96,
          "duration": 0.181269,
          "velocity": 0.811024
        },
        {
          "time": 649.581245,
          "name": "C6",
          "midi": 84,
          "duration": 0.181269,
          "velocity": 0.834646
        },
        {
          "time": 649.584266,
          "name": "C5",
          "midi": 72,
          "duration": 0.181269,
          "velocity": 0.818898
        },
        {
          "time": 649.665837,
          "name": "C6",
          "midi": 84,
          "duration": 0.072508,
          "velocity": 0.88189
        },
        {
          "time": 649.756471,
          "name": "B5",
          "midi": 83,
          "duration": 0.072508,
          "velocity": 0.88189
        },
        {
          "time": 649.759492,
          "name": "B6",
          "midi": 95,
          "duration": 0.181474,
          "velocity": 0.811024
        },
        {
          "time": 649.762514,
          "name": "B5",
          "midi": 83,
          "duration": 0.181678,
          "velocity": 0.834646
        },
        {
          "time": 649.765535,
          "name": "B4",
          "midi": 71,
          "duration": 0.181883,
          "velocity": 0.818898
        },
        {
          "time": 649.847106,
          "name": "B5",
          "midi": 83,
          "duration": 0.072508,
          "velocity": 0.88189
        },
        {
          "time": 649.93774,
          "name": "F#6",
          "midi": 90,
          "duration": 0.077419,
          "velocity": 0.88189
        },
        {
          "time": 649.940966,
          "name": "F#7",
          "midi": 102,
          "duration": 0.193549,
          "velocity": 0.811024
        },
        {
          "time": 649.944192,
          "name": "F#6",
          "midi": 90,
          "duration": 0.193548,
          "velocity": 0.834646
        },
        {
          "time": 649.947418,
          "name": "F#5",
          "midi": 78,
          "duration": 0.193549,
          "velocity": 0.818898
        },
        {
          "time": 650.034514,
          "name": "F#6",
          "midi": 90,
          "duration": 0.077419,
          "velocity": 0.88189
        },
        {
          "time": 650.131289,
          "name": "E6",
          "midi": 88,
          "duration": 0.077419,
          "velocity": 0.88189
        },
        {
          "time": 650.134515,
          "name": "E7",
          "midi": 100,
          "duration": 0.193344,
          "velocity": 0.811024
        },
        {
          "time": 650.13774,
          "name": "E6",
          "midi": 88,
          "duration": 0.193139,
          "velocity": 0.834646
        },
        {
          "time": 650.140966,
          "name": "E5",
          "midi": 76,
          "duration": 0.192935,
          "velocity": 0.818898
        },
        {
          "time": 650.228063,
          "name": "E6",
          "midi": 88,
          "duration": 0.077419,
          "velocity": 0.88189
        },
        {
          "time": 650.324837,
          "name": "D6",
          "midi": 86,
          "duration": 0.163142,
          "velocity": 0.88189
        },
        {
          "time": 650.327858,
          "name": "D7",
          "midi": 98,
          "duration": 0.181269,
          "velocity": 0.811024
        },
        {
          "time": 650.33088,
          "name": "D6",
          "midi": 86,
          "duration": 0.181269,
          "velocity": 0.834646
        },
        {
          "time": 650.333901,
          "name": "D5",
          "midi": 74,
          "duration": 0.181269,
          "velocity": 0.818898
        },
        {
          "time": 650.415472,
          "name": "D6",
          "midi": 86,
          "duration": 4.291046,
          "velocity": 0.88189
        },
        {
          "time": 650.506106,
          "name": "C6",
          "midi": 84,
          "duration": 0.072508,
          "velocity": 0.88189
        },
        {
          "time": 650.509127,
          "name": "C7",
          "midi": 96,
          "duration": 0.181474,
          "velocity": 0.811024
        },
        {
          "time": 650.512149,
          "name": "C6",
          "midi": 84,
          "duration": 0.181678,
          "velocity": 0.834646
        },
        {
          "time": 650.51517,
          "name": "C5",
          "midi": 72,
          "duration": 0.181883,
          "velocity": 0.818898
        },
        {
          "time": 650.596741,
          "name": "C6",
          "midi": 84,
          "duration": 0.072508,
          "velocity": 0.88189
        },
        {
          "time": 650.687375,
          "name": "B5",
          "midi": 83,
          "duration": 0.077419,
          "velocity": 0.88189
        },
        {
          "time": 650.690601,
          "name": "B6",
          "midi": 95,
          "duration": 0.193549,
          "velocity": 0.811024
        },
        {
          "time": 650.693827,
          "name": "B5",
          "midi": 83,
          "duration": 0.193548,
          "velocity": 0.834646
        },
        {
          "time": 650.697053,
          "name": "B4",
          "midi": 71,
          "duration": 0.193549,
          "velocity": 0.818898
        },
        {
          "time": 650.784149,
          "name": "B5",
          "midi": 83,
          "duration": 0.077419,
          "velocity": 0.88189
        },
        {
          "time": 650.880924,
          "name": "A5",
          "midi": 81,
          "duration": 0.077419,
          "velocity": 0.88189
        },
        {
          "time": 650.88415,
          "name": "A6",
          "midi": 93,
          "duration": 0.193344,
          "velocity": 0.811024
        },
        {
          "time": 650.887375,
          "name": "A5",
          "midi": 81,
          "duration": 0.193139,
          "velocity": 0.834646
        },
        {
          "time": 650.890601,
          "name": "A4",
          "midi": 69,
          "duration": 0.192935,
          "velocity": 0.818898
        },
        {
          "time": 650.977698,
          "name": "A5",
          "midi": 81,
          "duration": 0.077419,
          "velocity": 0.88189
        },
        {
          "time": 651.074472,
          "name": "E6",
          "midi": 88,
          "duration": 0.072508,
          "velocity": 0.88189
        },
        {
          "time": 651.077493,
          "name": "E7",
          "midi": 100,
          "duration": 0.181269,
          "velocity": 0.811024
        },
        {
          "time": 651.080515,
          "name": "E6",
          "midi": 88,
          "duration": 0.181269,
          "velocity": 0.834646
        },
        {
          "time": 651.083536,
          "name": "E5",
          "midi": 76,
          "duration": 0.181269,
          "velocity": 0.818898
        },
        {
          "time": 651.165107,
          "name": "E6",
          "midi": 88,
          "duration": 0.072508,
          "velocity": 0.88189
        },
        {
          "time": 651.255741,
          "name": "F#6",
          "midi": 90,
          "duration": 0.072508,
          "velocity": 0.88189
        },
        {
          "time": 651.258762,
          "name": "F#7",
          "midi": 102,
          "duration": 0.181474,
          "velocity": 0.811024
        },
        {
          "time": 651.261784,
          "name": "F#6",
          "midi": 90,
          "duration": 0.181678,
          "velocity": 0.834646
        },
        {
          "time": 651.264805,
          "name": "F#5",
          "midi": 78,
          "duration": 0.181883,
          "velocity": 0.818898
        },
        {
          "time": 651.346376,
          "name": "F#6",
          "midi": 90,
          "duration": 0.072508,
          "velocity": 0.88189
        },
        {
          "time": 651.43701,
          "name": "G6",
          "midi": 91,
          "duration": 0.077419,
          "velocity": 0.88189
        },
        {
          "time": 651.440236,
          "name": "G7",
          "midi": 103,
          "duration": 0.749635,
          "velocity": 0.811024
        },
        {
          "time": 651.443462,
          "name": "G6",
          "midi": 91,
          "duration": 0.749635,
          "velocity": 0.834646
        },
        {
          "time": 651.446688,
          "name": "G5",
          "midi": 79,
          "duration": 0.386483,
          "velocity": 0.818898
        },
        {
          "time": 651.446688,
          "name": "B5",
          "midi": 83,
          "duration": 0.386483,
          "velocity": 0.818898
        },
        {
          "time": 651.533784,
          "name": "G6",
          "midi": 91,
          "duration": 0.077419,
          "velocity": 0.88189
        },
        {
          "time": 651.630559,
          "name": "G6",
          "midi": 91,
          "duration": 0.077419,
          "velocity": 0.88189
        },
        {
          "time": 651.727333,
          "name": "G6",
          "midi": 91,
          "duration": 0.077419,
          "velocity": 0.88189
        },
        {
          "time": 651.824107,
          "name": "G6",
          "midi": 91,
          "duration": 0.072508,
          "velocity": 0.88189
        },
        {
          "time": 651.833171,
          "name": "G5",
          "midi": 79,
          "duration": 0.363152,
          "velocity": 0.818898
        },
        {
          "time": 651.833171,
          "name": "B5",
          "midi": 83,
          "duration": 0.363152,
          "velocity": 0.818898
        },
        {
          "time": 651.914742,
          "name": "G6",
          "midi": 91,
          "duration": 0.072508,
          "velocity": 0.88189
        },
        {
          "time": 652.005376,
          "name": "G6",
          "midi": 91,
          "duration": 0.072508,
          "velocity": 0.88189
        },
        {
          "time": 652.096011,
          "name": "G6",
          "midi": 91,
          "duration": 0.072508,
          "velocity": 0.88189
        },
        {
          "time": 652.186645,
          "name": "G6",
          "midi": 91,
          "duration": 0.077419,
          "velocity": 0.88189
        },
        {
          "time": 652.189871,
          "name": "G7",
          "midi": 103,
          "duration": 0.749635,
          "velocity": 0.811024
        },
        {
          "time": 652.193097,
          "name": "G6",
          "midi": 91,
          "duration": 0.749635,
          "velocity": 0.834646
        },
        {
          "time": 652.196323,
          "name": "C6",
          "midi": 84,
          "duration": 0.386483,
          "velocity": 0.818898
        },
        {
          "time": 652.196323,
          "name": "A5",
          "midi": 81,
          "duration": 0.386483,
          "velocity": 0.818898
        },
        {
          "time": 652.283419,
          "name": "G6",
          "midi": 91,
          "duration": 0.077419,
          "velocity": 0.88189
        },
        {
          "time": 652.380194,
          "name": "G6",
          "midi": 91,
          "duration": 0.077419,
          "velocity": 0.88189
        },
        {
          "time": 652.476968,
          "name": "G6",
          "midi": 91,
          "duration": 0.077419,
          "velocity": 0.88189
        },
        {
          "time": 652.573742,
          "name": "G6",
          "midi": 91,
          "duration": 0.072508,
          "velocity": 0.88189
        },
        {
          "time": 652.582806,
          "name": "C#6",
          "midi": 85,
          "duration": 0.363152,
          "velocity": 0.818898
        },
        {
          "time": 652.582806,
          "name": "A#5",
          "midi": 82,
          "duration": 0.363152,
          "velocity": 0.818898
        },
        {
          "time": 652.664377,
          "name": "G6",
          "midi": 91,
          "duration": 0.072508,
          "velocity": 0.88189
        },
        {
          "time": 652.755011,
          "name": "G6",
          "midi": 91,
          "duration": 0.072508,
          "velocity": 0.88189
        },
        {
          "time": 652.845646,
          "name": "G6",
          "midi": 91,
          "duration": 0.072508,
          "velocity": 0.88189
        },
        {
          "time": 652.93628,
          "name": "G6",
          "midi": 91,
          "duration": 0.077419,
          "velocity": 0.88189
        },
        {
          "time": 652.939506,
          "name": "G7",
          "midi": 103,
          "duration": 0.749635,
          "velocity": 0.811024
        },
        {
          "time": 652.942732,
          "name": "G6",
          "midi": 91,
          "duration": 0.749635,
          "velocity": 0.834646
        },
        {
          "time": 652.945958,
          "name": "D6",
          "midi": 86,
          "duration": 0.386483,
          "velocity": 0.818898
        },
        {
          "time": 652.945958,
          "name": "B5",
          "midi": 83,
          "duration": 0.386483,
          "velocity": 0.818898
        },
        {
          "time": 653.033054,
          "name": "G6",
          "midi": 91,
          "duration": 0.077419,
          "velocity": 0.88189
        },
        {
          "time": 653.129829,
          "name": "G6",
          "midi": 91,
          "duration": 0.077419,
          "velocity": 0.88189
        },
        {
          "time": 653.226603,
          "name": "G6",
          "midi": 91,
          "duration": 0.077419,
          "velocity": 0.88189
        },
        {
          "time": 653.323377,
          "name": "G6",
          "midi": 91,
          "duration": 0.072508,
          "velocity": 0.88189
        },
        {
          "time": 653.332441,
          "name": "B5",
          "midi": 83,
          "duration": 0.363152,
          "velocity": 0.818898
        },
        {
          "time": 653.332441,
          "name": "G5",
          "midi": 79,
          "duration": 0.363152,
          "velocity": 0.818898
        },
        {
          "time": 653.414012,
          "name": "G6",
          "midi": 91,
          "duration": 0.072508,
          "velocity": 0.88189
        },
        {
          "time": 653.504646,
          "name": "G6",
          "midi": 91,
          "duration": 0.072508,
          "velocity": 0.88189
        },
        {
          "time": 653.595281,
          "name": "G6",
          "midi": 91,
          "duration": 0.072508,
          "velocity": 0.88189
        },
        {
          "time": 653.685915,
          "name": "G6",
          "midi": 91,
          "duration": 0.077419,
          "velocity": 0.88189
        },
        {
          "time": 653.689141,
          "name": "G7",
          "midi": 103,
          "duration": 0.749635,
          "velocity": 0.811024
        },
        {
          "time": 653.692367,
          "name": "G6",
          "midi": 91,
          "duration": 0.749635,
          "velocity": 0.834646
        },
        {
          "time": 653.695593,
          "name": "A5",
          "midi": 81,
          "duration": 0.386483,
          "velocity": 0.818898
        },
        {
          "time": 653.695593,
          "name": "C6",
          "midi": 84,
          "duration": 0.386483,
          "velocity": 0.818898
        },
        {
          "time": 653.782689,
          "name": "G6",
          "midi": 91,
          "duration": 0.077419,
          "velocity": 0.88189
        },
        {
          "time": 653.879464,
          "name": "G6",
          "midi": 91,
          "duration": 0.077419,
          "velocity": 0.88189
        },
        {
          "time": 653.976238,
          "name": "G6",
          "midi": 91,
          "duration": 0.077419,
          "velocity": 0.88189
        },
        {
          "time": 654.073012,
          "name": "G6",
          "midi": 91,
          "duration": 0.072508,
          "velocity": 0.88189
        },
        {
          "time": 654.082076,
          "name": "C#6",
          "midi": 85,
          "duration": 0.363152,
          "velocity": 0.818898
        },
        {
          "time": 654.082076,
          "name": "A#5",
          "midi": 82,
          "duration": 0.363152,
          "velocity": 0.818898
        },
        {
          "time": 654.163647,
          "name": "G6",
          "midi": 91,
          "duration": 0.072508,
          "velocity": 0.88189
        },
        {
          "time": 654.254281,
          "name": "G6",
          "midi": 91,
          "duration": 0.072508,
          "velocity": 0.88189
        },
        {
          "time": 654.344916,
          "name": "G6",
          "midi": 91,
          "duration": 0.072508,
          "velocity": 0.88189
        },
        {
          "time": 654.43555,
          "name": "G6",
          "midi": 91,
          "duration": 0.077419,
          "velocity": 0.88189
        },
        {
          "time": 654.438776,
          "name": "G7",
          "midi": 103,
          "duration": 0.193549,
          "velocity": 0.811024
        },
        {
          "time": 654.442002,
          "name": "G6",
          "midi": 91,
          "duration": 0.193548,
          "velocity": 0.834646
        },
        {
          "time": 654.445228,
          "name": "B5",
          "midi": 83,
          "duration": 0.193549,
          "velocity": 0.818898
        },
        {
          "time": 654.445228,
          "name": "D6",
          "midi": 86,
          "duration": 0.193549,
          "velocity": 0.818898
        },
        {
          "time": 654.532324,
          "name": "G6",
          "midi": 91,
          "duration": 0.077419,
          "velocity": 0.88189
        },
        {
          "time": 654.629099,
          "name": "D6",
          "midi": 86,
          "duration": 0.174194,
          "velocity": 0.88189
        },
        {
          "time": 654.632325,
          "name": "D7",
          "midi": 98,
          "duration": 0.193344,
          "velocity": 0.811024
        },
        {
          "time": 654.63555,
          "name": "D6",
          "midi": 86,
          "duration": 0.193139,
          "velocity": 0.834646
        },
        {
          "time": 654.638776,
          "name": "D5",
          "midi": 74,
          "duration": 0.192935,
          "velocity": 0.818898
        },
        {
          "time": 654.725873,
          "name": "D6",
          "midi": 86,
          "duration": 0.73028,
          "velocity": 0.88189
        },
        {
          "time": 654.822647,
          "name": "G6",
          "midi": 91,
          "duration": 0.072508,
          "velocity": 0.88189
        },
        {
          "time": 654.825668,
          "name": "G7",
          "midi": 103,
          "duration": 0.181269,
          "velocity": 0.811024
        },
        {
          "time": 654.82869,
          "name": "G6",
          "midi": 91,
          "duration": 0.181269,
          "velocity": 0.834646
        },
        {
          "time": 654.831711,
          "name": "G5",
          "midi": 79,
          "duration": 0.181269,
          "velocity": 0.818898
        },
        {
          "time": 654.913282,
          "name": "G6",
          "midi": 91,
          "duration": 0.072508,
          "velocity": 0.88189
        },
        {
          "time": 655.003916,
          "name": "F#6",
          "midi": 90,
          "duration": 0.072508,
          "velocity": 0.88189
        },
        {
          "time": 655.006937,
          "name": "F#7",
          "midi": 102,
          "duration": 0.181474,
          "velocity": 0.811024
        },
        {
          "time": 655.009959,
          "name": "F#6",
          "midi": 90,
          "duration": 0.181678,
          "velocity": 0.834646
        },
        {
          "time": 655.01298,
          "name": "F#5",
          "midi": 78,
          "duration": 0.181883,
          "velocity": 0.818898
        },
        {
          "time": 655.094551,
          "name": "F#6",
          "midi": 90,
          "duration": 0.072508,
          "velocity": 0.88189
        },
        {
          "time": 655.185185,
          "name": "E6",
          "midi": 88,
          "duration": 0.077419,
          "velocity": 0.88189
        },
        {
          "time": 655.188411,
          "name": "E7",
          "midi": 100,
          "duration": 0.193549,
          "velocity": 0.811024
        },
        {
          "time": 655.191637,
          "name": "E6",
          "midi": 88,
          "duration": 0.193548,
          "velocity": 0.834646
        },
        {
          "time": 655.194863,
          "name": "E5",
          "midi": 76,
          "duration": 0.193549,
          "velocity": 0.818898
        },
        {
          "time": 655.281959,
          "name": "E6",
          "midi": 88,
          "duration": 0.077419,
          "velocity": 0.88189
        },
        {
          "time": 655.378734,
          "name": "D6",
          "midi": 86,
          "duration": 0.174194,
          "velocity": 0.88189
        },
        {
          "time": 655.38196,
          "name": "D7",
          "midi": 98,
          "duration": 0.193344,
          "velocity": 0.811024
        },
        {
          "time": 655.385185,
          "name": "D6",
          "midi": 86,
          "duration": 0.193139,
          "velocity": 0.834646
        },
        {
          "time": 655.388411,
          "name": "D5",
          "midi": 74,
          "duration": 0.192935,
          "velocity": 0.818898
        },
        {
          "time": 655.475508,
          "name": "D6",
          "midi": 86,
          "duration": 0.918917,
          "velocity": 0.88189
        },
        {
          "time": 655.572282,
          "name": "C6",
          "midi": 84,
          "duration": 0.072508,
          "velocity": 0.88189
        },
        {
          "time": 655.575303,
          "name": "C7",
          "midi": 96,
          "duration": 0.181269,
          "velocity": 0.811024
        },
        {
          "time": 655.578325,
          "name": "C6",
          "midi": 84,
          "duration": 0.181269,
          "velocity": 0.834646
        },
        {
          "time": 655.581346,
          "name": "C5",
          "midi": 72,
          "duration": 0.181269,
          "velocity": 0.818898
        },
        {
          "time": 655.662917,
          "name": "C6",
          "midi": 84,
          "duration": 0.072508,
          "velocity": 0.88189
        },
        {
          "time": 655.753551,
          "name": "B5",
          "midi": 83,
          "duration": 0.072508,
          "velocity": 0.88189
        },
        {
          "time": 655.756572,
          "name": "B6",
          "midi": 95,
          "duration": 0.181474,
          "velocity": 0.811024
        },
        {
          "time": 655.759594,
          "name": "B5",
          "midi": 83,
          "duration": 0.181678,
          "velocity": 0.834646
        },
        {
          "time": 655.762615,
          "name": "B4",
          "midi": 71,
          "duration": 0.181883,
          "velocity": 0.818898
        },
        {
          "time": 655.844186,
          "name": "B5",
          "midi": 83,
          "duration": 0.072508,
          "velocity": 0.88189
        },
        {
          "time": 655.93482,
          "name": "F#6",
          "midi": 90,
          "duration": 0.077419,
          "velocity": 0.88189
        },
        {
          "time": 655.938046,
          "name": "F#7",
          "midi": 102,
          "duration": 0.193549,
          "velocity": 0.811024
        },
        {
          "time": 655.941272,
          "name": "F#6",
          "midi": 90,
          "duration": 0.193548,
          "velocity": 0.834646
        },
        {
          "time": 655.944498,
          "name": "F#5",
          "midi": 78,
          "duration": 0.193549,
          "velocity": 0.818898
        },
        {
          "time": 656.031594,
          "name": "F#6",
          "midi": 90,
          "duration": 0.077419,
          "velocity": 0.88189
        },
        {
          "time": 656.128369,
          "name": "E6",
          "midi": 88,
          "duration": 0.077419,
          "velocity": 0.88189
        },
        {
          "time": 656.131595,
          "name": "E7",
          "midi": 100,
          "duration": 0.193344,
          "velocity": 0.811024
        },
        {
          "time": 656.13482,
          "name": "E6",
          "midi": 88,
          "duration": 0.193139,
          "velocity": 0.834646
        },
        {
          "time": 656.138046,
          "name": "E5",
          "midi": 76,
          "duration": 0.192935,
          "velocity": 0.818898
        },
        {
          "time": 656.225143,
          "name": "E6",
          "midi": 88,
          "duration": 0.077419,
          "velocity": 0.88189
        },
        {
          "time": 656.321917,
          "name": "D6",
          "midi": 86,
          "duration": 0.163142,
          "velocity": 0.88189
        },
        {
          "time": 656.324938,
          "name": "D7",
          "midi": 98,
          "duration": 0.181269,
          "velocity": 0.811024
        },
        {
          "time": 656.32796,
          "name": "D6",
          "midi": 86,
          "duration": 0.181269,
          "velocity": 0.834646
        },
        {
          "time": 656.330981,
          "name": "D5",
          "midi": 74,
          "duration": 0.181269,
          "velocity": 0.818898
        },
        {
          "time": 656.412552,
          "name": "D6",
          "midi": 86,
          "duration": 1.292506,
          "velocity": 0.88189
        },
        {
          "time": 656.503186,
          "name": "C6",
          "midi": 84,
          "duration": 0.072508,
          "velocity": 0.88189
        },
        {
          "time": 656.506207,
          "name": "C7",
          "midi": 96,
          "duration": 0.181474,
          "velocity": 0.811024
        },
        {
          "time": 656.509229,
          "name": "C6",
          "midi": 84,
          "duration": 0.181678,
          "velocity": 0.834646
        },
        {
          "time": 656.51225,
          "name": "C5",
          "midi": 72,
          "duration": 0.181883,
          "velocity": 0.818898
        },
        {
          "time": 656.593821,
          "name": "C6",
          "midi": 84,
          "duration": 0.072508,
          "velocity": 0.88189
        },
        {
          "time": 656.684455,
          "name": "B5",
          "midi": 83,
          "duration": 0.077419,
          "velocity": 0.88189
        },
        {
          "time": 656.687681,
          "name": "B6",
          "midi": 95,
          "duration": 0.193549,
          "velocity": 0.811024
        },
        {
          "time": 656.690907,
          "name": "B5",
          "midi": 83,
          "duration": 0.193548,
          "velocity": 0.834646
        },
        {
          "time": 656.694133,
          "name": "B4",
          "midi": 71,
          "duration": 0.193549,
          "velocity": 0.818898
        },
        {
          "time": 656.781229,
          "name": "B5",
          "midi": 83,
          "duration": 0.077419,
          "velocity": 0.88189
        },
        {
          "time": 656.878004,
          "name": "A5",
          "midi": 81,
          "duration": 0.077419,
          "velocity": 0.88189
        },
        {
          "time": 656.88123,
          "name": "A6",
          "midi": 93,
          "duration": 0.193344,
          "velocity": 0.811024
        },
        {
          "time": 656.884455,
          "name": "A5",
          "midi": 81,
          "duration": 0.193139,
          "velocity": 0.834646
        },
        {
          "time": 656.887681,
          "name": "A4",
          "midi": 69,
          "duration": 0.192935,
          "velocity": 0.818898
        },
        {
          "time": 656.974778,
          "name": "A5",
          "midi": 81,
          "duration": 0.077419,
          "velocity": 0.88189
        },
        {
          "time": 657.071552,
          "name": "E6",
          "midi": 88,
          "duration": 0.072508,
          "velocity": 0.88189
        },
        {
          "time": 657.074573,
          "name": "E7",
          "midi": 100,
          "duration": 0.181269,
          "velocity": 0.811024
        },
        {
          "time": 657.077595,
          "name": "E6",
          "midi": 88,
          "duration": 0.181269,
          "velocity": 0.834646
        },
        {
          "time": 657.080616,
          "name": "E5",
          "midi": 76,
          "duration": 0.181269,
          "velocity": 0.818898
        },
        {
          "time": 657.162187,
          "name": "E6",
          "midi": 88,
          "duration": 0.072508,
          "velocity": 0.88189
        },
        {
          "time": 657.252821,
          "name": "F#6",
          "midi": 90,
          "duration": 0.072508,
          "velocity": 0.88189
        },
        {
          "time": 657.255842,
          "name": "F#7",
          "midi": 102,
          "duration": 0.181474,
          "velocity": 0.811024
        },
        {
          "time": 657.258864,
          "name": "F#6",
          "midi": 90,
          "duration": 0.181678,
          "velocity": 0.834646
        },
        {
          "time": 657.261885,
          "name": "F#5",
          "midi": 78,
          "duration": 0.181883,
          "velocity": 0.818898
        },
        {
          "time": 657.343456,
          "name": "F#6",
          "midi": 90,
          "duration": 0.072508,
          "velocity": 0.88189
        },
        {
          "time": 657.43409,
          "name": "G6",
          "midi": 91,
          "duration": 0.077419,
          "velocity": 0.88189
        },
        {
          "time": 657.437316,
          "name": "G7",
          "midi": 103,
          "duration": 0.386892,
          "velocity": 0.811024
        },
        {
          "time": 657.440542,
          "name": "G6",
          "midi": 91,
          "duration": 0.386688,
          "velocity": 0.834646
        },
        {
          "time": 657.443768,
          "name": "D6",
          "midi": 86,
          "duration": 0.386483,
          "velocity": 0.818898
        },
        {
          "time": 657.443768,
          "name": "B5",
          "midi": 83,
          "duration": 0.386483,
          "velocity": 0.818898
        },
        {
          "time": 657.530864,
          "name": "G6",
          "midi": 91,
          "duration": 0.077419,
          "velocity": 0.88189
        },
        {
          "time": 657.627639,
          "name": "D6",
          "midi": 86,
          "duration": 0.174194,
          "velocity": 0.88189
        },
        {
          "time": 657.724413,
          "name": "D6",
          "midi": 86,
          "duration": 0.350551,
          "velocity": 0.88189
        },
        {
          "time": 657.821187,
          "name": "F#6",
          "midi": 90,
          "duration": 0.072508,
          "velocity": 0.88189
        },
        {
          "time": 657.824208,
          "name": "F#7",
          "midi": 102,
          "duration": 0.362743,
          "velocity": 0.811024
        },
        {
          "time": 657.82723,
          "name": "F#6",
          "midi": 90,
          "duration": 0.362947,
          "velocity": 0.834646
        },
        {
          "time": 657.830251,
          "name": "A5",
          "midi": 81,
          "duration": 0.363152,
          "velocity": 0.818898
        },
        {
          "time": 657.830251,
          "name": "D6",
          "midi": 86,
          "duration": 0.363152,
          "velocity": 0.818898
        },
        {
          "time": 657.911822,
          "name": "F#6",
          "midi": 90,
          "duration": 0.072508,
          "velocity": 0.88189
        },
        {
          "time": 658.002456,
          "name": "D6",
          "midi": 86,
          "duration": 0.163142,
          "velocity": 0.88189
        },
        {
          "time": 658.093091,
          "name": "D6",
          "midi": 86,
          "duration": 0.361602,
          "velocity": 0.88189
        },
        {
          "time": 658.183725,
          "name": "G6",
          "midi": 91,
          "duration": 0.077419,
          "velocity": 0.88189
        },
        {
          "time": 658.186951,
          "name": "G7",
          "midi": 103,
          "duration": 0.386892,
          "velocity": 0.811024
        },
        {
          "time": 658.190177,
          "name": "G6",
          "midi": 91,
          "duration": 0.386688,
          "velocity": 0.834646
        },
        {
          "time": 658.193403,
          "name": "B5",
          "midi": 83,
          "duration": 0.386483,
          "velocity": 0.818898
        },
        {
          "time": 658.193403,
          "name": "D6",
          "midi": 86,
          "duration": 0.386483,
          "velocity": 0.818898
        },
        {
          "time": 658.280499,
          "name": "G6",
          "midi": 91,
          "duration": 0.077419,
          "velocity": 0.88189
        },
        {
          "time": 658.377274,
          "name": "D6",
          "midi": 86,
          "duration": 0.174194,
          "velocity": 0.88189
        },
        {
          "time": 658.474048,
          "name": "D6",
          "midi": 86,
          "duration": 0.350551,
          "velocity": 0.88189
        },
        {
          "time": 658.570822,
          "name": "F#6",
          "midi": 90,
          "duration": 0.072508,
          "velocity": 0.88189
        },
        {
          "time": 658.573843,
          "name": "F#7",
          "midi": 102,
          "duration": 0.362743,
          "velocity": 0.811024
        },
        {
          "time": 658.576865,
          "name": "F#6",
          "midi": 90,
          "duration": 0.362947,
          "velocity": 0.834646
        },
        {
          "time": 658.579886,
          "name": "D6",
          "midi": 86,
          "duration": 0.363152,
          "velocity": 0.818898
        },
        {
          "time": 658.579886,
          "name": "A5",
          "midi": 81,
          "duration": 0.363152,
          "velocity": 0.818898
        },
        {
          "time": 658.661457,
          "name": "F#6",
          "midi": 90,
          "duration": 0.072508,
          "velocity": 0.88189
        },
        {
          "time": 658.752091,
          "name": "D6",
          "midi": 86,
          "duration": 0.163142,
          "velocity": 0.88189
        },
        {
          "time": 658.842726,
          "name": "D6",
          "midi": 86,
          "duration": 0.361602,
          "velocity": 0.88189
        },
        {
          "time": 658.93336,
          "name": "G6",
          "midi": 91,
          "duration": 0.077419,
          "velocity": 0.88189
        },
        {
          "time": 658.936586,
          "name": "G7",
          "midi": 103,
          "duration": 0.386892,
          "velocity": 0.811024
        },
        {
          "time": 658.939812,
          "name": "G6",
          "midi": 91,
          "duration": 0.386688,
          "velocity": 0.834646
        },
        {
          "time": 658.943038,
          "name": "D6",
          "midi": 86,
          "duration": 0.386483,
          "velocity": 0.818898
        },
        {
          "time": 658.943038,
          "name": "B5",
          "midi": 83,
          "duration": 0.386483,
          "velocity": 0.818898
        },
        {
          "time": 659.030134,
          "name": "G6",
          "midi": 91,
          "duration": 0.077419,
          "velocity": 0.88189
        },
        {
          "time": 659.126909,
          "name": "D6",
          "midi": 86,
          "duration": 0.174194,
          "velocity": 0.88189
        },
        {
          "time": 659.223683,
          "name": "D6",
          "midi": 86,
          "duration": 0.350551,
          "velocity": 0.88189
        },
        {
          "time": 659.320457,
          "name": "F#6",
          "midi": 90,
          "duration": 0.072508,
          "velocity": 0.88189
        },
        {
          "time": 659.323478,
          "name": "F#7",
          "midi": 102,
          "duration": 0.362743,
          "velocity": 0.811024
        },
        {
          "time": 659.3265,
          "name": "F#6",
          "midi": 90,
          "duration": 0.362947,
          "velocity": 0.834646
        },
        {
          "time": 659.329521,
          "name": "A5",
          "midi": 81,
          "duration": 0.363152,
          "velocity": 0.818898
        },
        {
          "time": 659.329521,
          "name": "D6",
          "midi": 86,
          "duration": 0.363152,
          "velocity": 0.818898
        },
        {
          "time": 659.411092,
          "name": "F#6",
          "midi": 90,
          "duration": 0.072508,
          "velocity": 0.88189
        },
        {
          "time": 659.501726,
          "name": "D6",
          "midi": 86,
          "duration": 0.163142,
          "velocity": 0.88189
        },
        {
          "time": 659.592361,
          "name": "D6",
          "midi": 86,
          "duration": 0.361602,
          "velocity": 0.88189
        },
        {
          "time": 659.682995,
          "name": "G6",
          "midi": 91,
          "duration": 0.077419,
          "velocity": 0.88189
        },
        {
          "time": 659.686221,
          "name": "G7",
          "midi": 103,
          "duration": 0.386892,
          "velocity": 0.811024
        },
        {
          "time": 659.689447,
          "name": "G6",
          "midi": 91,
          "duration": 0.386688,
          "velocity": 0.834646
        },
        {
          "time": 659.692673,
          "name": "B5",
          "midi": 83,
          "duration": 0.386483,
          "velocity": 0.818898
        },
        {
          "time": 659.692673,
          "name": "D6",
          "midi": 86,
          "duration": 0.386483,
          "velocity": 0.818898
        },
        {
          "time": 659.779769,
          "name": "G6",
          "midi": 91,
          "duration": 0.077419,
          "velocity": 0.88189
        },
        {
          "time": 659.876544,
          "name": "D6",
          "midi": 86,
          "duration": 0.174194,
          "velocity": 0.88189
        },
        {
          "time": 659.973318,
          "name": "D6",
          "midi": 86,
          "duration": 0.350551,
          "velocity": 0.88189
        },
        {
          "time": 660.070092,
          "name": "F#6",
          "midi": 90,
          "duration": 0.072508,
          "velocity": 0.88189
        },
        {
          "time": 660.073113,
          "name": "F#7",
          "midi": 102,
          "duration": 0.362743,
          "velocity": 0.811024
        },
        {
          "time": 660.076135,
          "name": "F#6",
          "midi": 90,
          "duration": 0.362947,
          "velocity": 0.834646
        },
        {
          "time": 660.079156,
          "name": "D6",
          "midi": 86,
          "duration": 0.363152,
          "velocity": 0.818898
        },
        {
          "time": 660.079156,
          "name": "A5",
          "midi": 81,
          "duration": 0.363152,
          "velocity": 0.818898
        },
        {
          "time": 660.160727,
          "name": "F#6",
          "midi": 90,
          "duration": 0.072508,
          "velocity": 0.88189
        },
        {
          "time": 660.251361,
          "name": "D6",
          "midi": 86,
          "duration": 0.163142,
          "velocity": 0.88189
        },
        {
          "time": 660.43263,
          "name": "G6",
          "midi": 91,
          "duration": 0.387097,
          "velocity": 0.88189
        },
        {
          "time": 660.435856,
          "name": "G7",
          "midi": 103,
          "duration": 0.386892,
          "velocity": 0.811024
        },
        {
          "time": 660.439082,
          "name": "G6",
          "midi": 91,
          "duration": 0.386688,
          "velocity": 0.834646
        },
        {
          "time": 660.442308,
          "name": "D6",
          "midi": 86,
          "duration": 0.386483,
          "velocity": 0.818898
        },
        {
          "time": 660.442308,
          "name": "B5",
          "midi": 83,
          "duration": 0.386483,
          "velocity": 0.818898
        },
        {
          "time": 660.819727,
          "name": "G3",
          "midi": 55,
          "duration": 0.362538,
          "velocity": 0.88189
        },
        {
          "time": 660.819727,
          "name": "G5",
          "midi": 79,
          "duration": 0.362538,
          "velocity": 0.88189
        },
        {
          "time": 660.819727,
          "name": "B4",
          "midi": 71,
          "duration": 0.362538,
          "velocity": 0.88189
        },
        {
          "time": 660.819727,
          "name": "D4",
          "midi": 62,
          "duration": 0.362538,
          "velocity": 0.88189
        },
        {
          "time": 660.822748,
          "name": "G7",
          "midi": 103,
          "duration": 0.362743,
          "velocity": 0.811024
        },
        {
          "time": 660.82577,
          "name": "G6",
          "midi": 91,
          "duration": 0.362947,
          "velocity": 0.834646
        },
        {
          "time": 660.828791,
          "name": "B5",
          "midi": 83,
          "duration": 0.363152,
          "velocity": 0.818898
        },
        {
          "time": 660.828791,
          "name": "D6",
          "midi": 86,
          "duration": 0.363152,
          "velocity": 0.818898
        },
        {
          "time": 661.182265,
          "name": "G3",
          "midi": 55,
          "duration": 0.387097,
          "velocity": 0.88189
        },
        {
          "time": 661.182265,
          "name": "G5",
          "midi": 79,
          "duration": 0.387097,
          "velocity": 0.88189
        },
        {
          "time": 661.182265,
          "name": "B4",
          "midi": 71,
          "duration": 0.387097,
          "velocity": 0.88189
        },
        {
          "time": 661.182265,
          "name": "D4",
          "midi": 62,
          "duration": 0.387097,
          "velocity": 0.88189
        },
        {
          "time": 661.185491,
          "name": "G7",
          "midi": 103,
          "duration": 0.386892,
          "velocity": 0.811024
        },
        {
          "time": 661.188717,
          "name": "G6",
          "midi": 91,
          "duration": 0.386688,
          "velocity": 0.834646
        },
        {
          "time": 661.191943,
          "name": "B5",
          "midi": 83,
          "duration": 0.386483,
          "velocity": 0.818898
        },
        {
          "time": 661.191943,
          "name": "D6",
          "midi": 86,
          "duration": 0.386483,
          "velocity": 0.818898
        },
        {
          "time": 661.569362,
          "name": "G5",
          "midi": 79,
          "duration": 0.362538,
          "velocity": 0.88189
        },
        {
          "time": 661.569362,
          "name": "D4",
          "midi": 62,
          "duration": 0.362538,
          "velocity": 0.88189
        },
        {
          "time": 661.569362,
          "name": "B4",
          "midi": 71,
          "duration": 0.362538,
          "velocity": 0.88189
        },
        {
          "time": 661.569362,
          "name": "G3",
          "midi": 55,
          "duration": 0.362538,
          "velocity": 0.88189
        },
        {
          "time": 661.572383,
          "name": "G7",
          "midi": 103,
          "duration": 0.362743,
          "velocity": 0.811024
        },
        {
          "time": 661.575405,
          "name": "G6",
          "midi": 91,
          "duration": 0.362947,
          "velocity": 0.834646
        },
        {
          "time": 661.578426,
          "name": "D6",
          "midi": 86,
          "duration": 0.363152,
          "velocity": 0.818898
        },
        {
          "time": 661.578426,
          "name": "B5",
          "midi": 83,
          "duration": 0.363152,
          "velocity": 0.818898
        },
        {
          "time": 661.9319,
          "name": "G5",
          "midi": 79,
          "duration": 0.387097,
          "velocity": 0.88189
        },
        {
          "time": 661.9319,
          "name": "D4",
          "midi": 62,
          "duration": 0.387097,
          "velocity": 0.88189
        },
        {
          "time": 661.9319,
          "name": "B4",
          "midi": 71,
          "duration": 0.387097,
          "velocity": 0.88189
        },
        {
          "time": 661.9319,
          "name": "G3",
          "midi": 55,
          "duration": 0.387097,
          "velocity": 0.88189
        },
        {
          "time": 661.935126,
          "name": "G7",
          "midi": 103,
          "duration": 0.386996,
          "velocity": 0.811024
        },
        {
          "time": 661.938352,
          "name": "G6",
          "midi": 91,
          "duration": 0.386895,
          "velocity": 0.834646
        },
        {
          "time": 661.941578,
          "name": "D6",
          "midi": 86,
          "duration": 0.386795,
          "velocity": 0.818898
        },
        {
          "time": 661.941578,
          "name": "B5",
          "midi": 83,
          "duration": 0.386795,
          "velocity": 0.818898
        },
        {
          "time": 662.318997,
          "name": "B4",
          "midi": 71,
          "duration": 0.375,
          "velocity": 0.88189
        },
        {
          "time": 662.318997,
          "name": "G5",
          "midi": 79,
          "duration": 0.375,
          "velocity": 0.88189
        },
        {
          "time": 662.318997,
          "name": "G3",
          "midi": 55,
          "duration": 0.375,
          "velocity": 0.88189
        },
        {
          "time": 662.318997,
          "name": "D4",
          "midi": 62,
          "duration": 0.375,
          "velocity": 0.88189
        },
        {
          "time": 662.322122,
          "name": "G7",
          "midi": 103,
          "duration": 0.375265,
          "velocity": 0.811024
        },
        {
          "time": 662.325247,
          "name": "G6",
          "midi": 91,
          "duration": 0.37553,
          "velocity": 0.834646
        },
        {
          "time": 662.328372,
          "name": "B5",
          "midi": 83,
          "duration": 0.375794,
          "velocity": 0.818898
        },
        {
          "time": 662.328372,
          "name": "D6",
          "midi": 86,
          "duration": 0.375794,
          "velocity": 0.818898
        },
        {
          "time": 662.693997,
          "name": "B4",
          "midi": 71,
          "duration": 0.40678,
          "velocity": 0.88189
        },
        {
          "time": 662.693997,
          "name": "G5",
          "midi": 79,
          "duration": 0.40678,
          "velocity": 0.88189
        },
        {
          "time": 662.693997,
          "name": "G3",
          "midi": 55,
          "duration": 0.40678,
          "velocity": 0.88189
        },
        {
          "time": 662.693997,
          "name": "D4",
          "midi": 62,
          "duration": 0.40678,
          "velocity": 0.88189
        },
        {
          "time": 662.697387,
          "name": "G7",
          "midi": 103,
          "duration": 0.406924,
          "velocity": 0.811024
        },
        {
          "time": 662.700777,
          "name": "G6",
          "midi": 91,
          "duration": 0.407067,
          "velocity": 0.834646
        },
        {
          "time": 662.704167,
          "name": "B5",
          "midi": 83,
          "duration": 0.407211,
          "velocity": 0.818898
        },
        {
          "time": 662.704167,
          "name": "D6",
          "midi": 86,
          "duration": 0.407211,
          "velocity": 0.818898
        },
        {
          "time": 663.100777,
          "name": "D4",
          "midi": 62,
          "duration": 0.424028,
          "velocity": 0.88189
        },
        {
          "time": 663.100777,
          "name": "G5",
          "midi": 79,
          "duration": 0.424028,
          "velocity": 0.88189
        },
        {
          "time": 663.100777,
          "name": "B4",
          "midi": 71,
          "duration": 0.424028,
          "velocity": 0.88189
        },
        {
          "time": 663.100777,
          "name": "G3",
          "midi": 55,
          "duration": 0.424028,
          "velocity": 0.88189
        },
        {
          "time": 663.104311,
          "name": "G7",
          "midi": 103,
          "duration": 0.424171,
          "velocity": 0.811024
        },
        {
          "time": 663.107844,
          "name": "G6",
          "midi": 91,
          "duration": 0.424314,
          "velocity": 0.834646
        },
        {
          "time": 663.111378,
          "name": "D6",
          "midi": 86,
          "duration": 0.424457,
          "velocity": 0.818898
        },
        {
          "time": 663.111378,
          "name": "B5",
          "midi": 83,
          "duration": 0.424457,
          "velocity": 0.818898
        },
        {
          "time": 663.524805,
          "name": "D4",
          "midi": 62,
          "duration": 0.441176,
          "velocity": 0.88189
        },
        {
          "time": 663.524805,
          "name": "G5",
          "midi": 79,
          "duration": 0.441176,
          "velocity": 0.88189
        },
        {
          "time": 663.524805,
          "name": "B4",
          "midi": 71,
          "duration": 0.441176,
          "velocity": 0.88189
        },
        {
          "time": 663.524805,
          "name": "G3",
          "midi": 55,
          "duration": 0.441176,
          "velocity": 0.88189
        },
        {
          "time": 663.528482,
          "name": "G7",
          "midi": 103,
          "duration": 0.441331,
          "velocity": 0.811024
        },
        {
          "time": 663.532158,
          "name": "G6",
          "midi": 91,
          "duration": 0.441486,
          "velocity": 0.834646
        },
        {
          "time": 663.535835,
          "name": "B5",
          "midi": 83,
          "duration": 0.441641,
          "velocity": 0.818898
        },
        {
          "time": 663.535835,
          "name": "D6",
          "midi": 86,
          "duration": 0.441641,
          "velocity": 0.818898
        },
        {
          "time": 664.425751,
          "name": "B5",
          "midi": 83,
          "duration": 0.489796,
          "velocity": 0.88189
        },
        {
          "time": 664.425751,
          "name": "D5",
          "midi": 74,
          "duration": 0.489796,
          "velocity": 0.88189
        },
        {
          "time": 664.425751,
          "name": "G4",
          "midi": 67,
          "duration": 0.489796,
          "velocity": 0.88189
        },
        {
          "time": 664.425751,
          "name": "G3",
          "midi": 55,
          "duration": 0.489796,
          "velocity": 0.88189
        },
        {
          "time": 664.429833,
          "name": "B6",
          "midi": 95,
          "duration": 0.489796,
          "velocity": 0.811024
        },
        {
          "time": 664.433915,
          "name": "B6",
          "midi": 95,
          "duration": 0.489796,
          "velocity": 0.834646
        },
        {
          "time": 664.433915,
          "name": "G6",
          "midi": 91,
          "duration": 0.489796,
          "velocity": 0.834646
        },
        {
          "time": 664.437996,
          "name": "B5",
          "midi": 83,
          "duration": 0.489796,
          "velocity": 0.818898
        },
        {
          "time": 664.437996,
          "name": "D6",
          "midi": 86,
          "duration": 0.489796,
          "velocity": 0.818898
        },
        {
          "time": 665.405343,
          "name": "G3",
          "midi": 55,
          "duration": 1.6,
          "velocity": 0.88189
        },
        {
          "time": 665.420343,
          "name": "G4",
          "midi": 67,
          "duration": 1.61,
          "velocity": 0.818898
        }
      ]
    },
    {
      "id": 1,
      "instrument": "string ensemble 1",
      "startTime": 0,
      "duration": 667.193676,
      "length": 4545,
      "notes": [
        {
          "time": 0.752941,
          "name": "C#4",
          "midi": 61,
          "duration": 0.335294,
          "velocity": 0.92126
        },
        {
          "time": 0.752941,
          "name": "E4",
          "midi": 64,
          "duration": 0.335294,
          "velocity": 0.92126
        },
        {
          "time": 0.755882,
          "name": "E5",
          "midi": 76,
          "duration": 0.335294,
          "velocity": 0.818898
        },
        {
          "time": 0.755882,
          "name": "C#5",
          "midi": 73,
          "duration": 0.335294,
          "velocity": 0.818898
        },
        {
          "time": 0.755882,
          "name": "E5",
          "midi": 76,
          "duration": 0.335294,
          "velocity": 0.88189
        },
        {
          "time": 0.755882,
          "name": "C#5",
          "midi": 73,
          "duration": 0.335294,
          "velocity": 0.88189
        },
        {
          "time": 0.755882,
          "name": "E4",
          "midi": 64,
          "duration": 0.335294,
          "velocity": 0.88189
        },
        {
          "time": 0.761765,
          "name": "A4",
          "midi": 69,
          "duration": 0.335294,
          "velocity": 0.92126
        },
        {
          "time": 0.761765,
          "name": "C#4",
          "midi": 61,
          "duration": 0.335294,
          "velocity": 0.92126
        },
        {
          "time": 1.105882,
          "name": "C#4",
          "midi": 61,
          "duration": 0.725862,
          "velocity": 0.92126
        },
        {
          "time": 1.105882,
          "name": "E4",
          "midi": 64,
          "duration": 0.725862,
          "velocity": 0.92126
        },
        {
          "time": 1.108823,
          "name": "E5",
          "midi": 76,
          "duration": 0.726369,
          "velocity": 0.818898
        },
        {
          "time": 1.108823,
          "name": "C#5",
          "midi": 73,
          "duration": 0.726369,
          "velocity": 0.818898
        },
        {
          "time": 1.108823,
          "name": "E5",
          "midi": 76,
          "duration": 0.726369,
          "velocity": 0.88189
        },
        {
          "time": 1.108823,
          "name": "C#5",
          "midi": 73,
          "duration": 0.726369,
          "velocity": 0.88189
        },
        {
          "time": 1.108823,
          "name": "E4",
          "midi": 64,
          "duration": 0.726369,
          "velocity": 0.88189
        },
        {
          "time": 1.114706,
          "name": "A4",
          "midi": 69,
          "duration": 0.727383,
          "velocity": 0.92126
        },
        {
          "time": 1.114706,
          "name": "C#4",
          "midi": 61,
          "duration": 0.727383,
          "velocity": 0.92126
        },
        {
          "time": 1.872616,
          "name": "D4",
          "midi": 62,
          "duration": 0.335294,
          "velocity": 0.92126
        },
        {
          "time": 1.872616,
          "name": "F#4",
          "midi": 66,
          "duration": 0.335294,
          "velocity": 0.92126
        },
        {
          "time": 1.875557,
          "name": "F5",
          "midi": 77,
          "duration": 0.335294,
          "velocity": 0.818898
        },
        {
          "time": 1.875557,
          "name": "D5",
          "midi": 74,
          "duration": 0.335294,
          "velocity": 0.818898
        },
        {
          "time": 1.875557,
          "name": "F5",
          "midi": 77,
          "duration": 0.335294,
          "velocity": 0.88189
        },
        {
          "time": 1.875557,
          "name": "B4",
          "midi": 71,
          "duration": 0.335294,
          "velocity": 0.88189
        },
        {
          "time": 1.88144,
          "name": "B4",
          "midi": 71,
          "duration": 0.335294,
          "velocity": 0.92126
        },
        {
          "time": 1.88144,
          "name": "D4",
          "midi": 62,
          "duration": 0.335294,
          "velocity": 0.92126
        },
        {
          "time": 2.225557,
          "name": "D4",
          "midi": 62,
          "duration": 0.725862,
          "velocity": 0.92126
        },
        {
          "time": 2.225557,
          "name": "F#4",
          "midi": 66,
          "duration": 0.725862,
          "velocity": 0.92126
        },
        {
          "time": 2.228498,
          "name": "F5",
          "midi": 77,
          "duration": 0.726369,
          "velocity": 0.818898
        },
        {
          "time": 2.228498,
          "name": "D5",
          "midi": 74,
          "duration": 0.726369,
          "velocity": 0.818898
        },
        {
          "time": 2.228498,
          "name": "B4",
          "midi": 71,
          "duration": 0.726369,
          "velocity": 0.88189
        },
        {
          "time": 2.228498,
          "name": "F5",
          "midi": 77,
          "duration": 0.726369,
          "velocity": 0.88189
        },
        {
          "time": 2.234381,
          "name": "B4",
          "midi": 71,
          "duration": 0.727383,
          "velocity": 0.92126
        },
        {
          "time": 2.234381,
          "name": "D4",
          "midi": 62,
          "duration": 0.727383,
          "velocity": 0.92126
        },
        {
          "time": 2.992291,
          "name": "A4",
          "midi": 69,
          "duration": 0.335294,
          "velocity": 0.92126
        },
        {
          "time": 2.992291,
          "name": "E4",
          "midi": 64,
          "duration": 0.335294,
          "velocity": 0.92126
        },
        {
          "time": 2.995232,
          "name": "A5",
          "midi": 81,
          "duration": 0.335294,
          "velocity": 0.818898
        },
        {
          "time": 2.995232,
          "name": "E5",
          "midi": 76,
          "duration": 0.335294,
          "velocity": 0.818898
        },
        {
          "time": 2.995232,
          "name": "A4",
          "midi": 69,
          "duration": 0.335294,
          "velocity": 0.88189
        },
        {
          "time": 2.995232,
          "name": "A5",
          "midi": 81,
          "duration": 0.335294,
          "velocity": 0.88189
        },
        {
          "time": 3.001115,
          "name": "C#5",
          "midi": 73,
          "duration": 0.335294,
          "velocity": 0.92126
        },
        {
          "time": 3.001115,
          "name": "E4",
          "midi": 64,
          "duration": 0.335294,
          "velocity": 0.92126
        },
        {
          "time": 3.345232,
          "name": "A4",
          "midi": 69,
          "duration": 0.52931,
          "velocity": 0.92126
        },
        {
          "time": 3.345232,
          "name": "E4",
          "midi": 64,
          "duration": 0.52931,
          "velocity": 0.92126
        },
        {
          "time": 3.348173,
          "name": "A5",
          "midi": 81,
          "duration": 0.529817,
          "velocity": 0.818898
        },
        {
          "time": 3.348173,
          "name": "E5",
          "midi": 76,
          "duration": 0.529817,
          "velocity": 0.818898
        },
        {
          "time": 3.348173,
          "name": "A4",
          "midi": 69,
          "duration": 0.529817,
          "velocity": 0.88189
        },
        {
          "time": 3.348173,
          "name": "A5",
          "midi": 81,
          "duration": 0.529817,
          "velocity": 0.88189
        },
        {
          "time": 3.354056,
          "name": "C#5",
          "midi": 73,
          "duration": 0.530831,
          "velocity": 0.92126
        },
        {
          "time": 3.354056,
          "name": "E4",
          "midi": 64,
          "duration": 0.530831,
          "velocity": 0.92126
        },
        {
          "time": 3.905577,
          "name": "D4",
          "midi": 62,
          "duration": 0.196552,
          "velocity": 0.92126
        },
        {
          "time": 3.905577,
          "name": "A4",
          "midi": 69,
          "duration": 0.196552,
          "velocity": 0.92126
        },
        {
          "time": 3.909025,
          "name": "A5",
          "midi": 81,
          "duration": 0.196552,
          "velocity": 0.818898
        },
        {
          "time": 3.909025,
          "name": "D5",
          "midi": 74,
          "duration": 0.196552,
          "velocity": 0.818898
        },
        {
          "time": 3.909025,
          "name": "D5",
          "midi": 74,
          "duration": 0.196552,
          "velocity": 0.88189
        },
        {
          "time": 3.915922,
          "name": "A4",
          "midi": 69,
          "duration": 0.196045,
          "velocity": 0.92126
        },
        {
          "time": 3.915922,
          "name": "D5",
          "midi": 74,
          "duration": 0.196045,
          "velocity": 0.92126
        },
        {
          "time": 4.111966,
          "name": "C#5",
          "midi": 73,
          "duration": 0.335294,
          "velocity": 0.92126
        },
        {
          "time": 4.111966,
          "name": "E4",
          "midi": 64,
          "duration": 0.335294,
          "velocity": 0.92126
        },
        {
          "time": 4.114907,
          "name": "A5",
          "midi": 81,
          "duration": 0.335294,
          "velocity": 0.818898
        },
        {
          "time": 4.114907,
          "name": "E5",
          "midi": 76,
          "duration": 0.335294,
          "velocity": 0.818898
        },
        {
          "time": 4.114907,
          "name": "E5",
          "midi": 76,
          "duration": 0.335294,
          "velocity": 0.88189
        },
        {
          "time": 4.114907,
          "name": "C#5",
          "midi": 73,
          "duration": 0.335294,
          "velocity": 0.88189
        },
        {
          "time": 4.114907,
          "name": "E4",
          "midi": 64,
          "duration": 0.335294,
          "velocity": 0.88189
        },
        {
          "time": 4.12079,
          "name": "E5",
          "midi": 76,
          "duration": 0.335294,
          "velocity": 0.92126
        },
        {
          "time": 4.12079,
          "name": "C#5",
          "midi": 73,
          "duration": 0.335294,
          "velocity": 0.92126
        },
        {
          "time": 5.231641,
          "name": "A4",
          "midi": 69,
          "duration": 0.335294,
          "velocity": 0.92126
        },
        {
          "time": 5.231641,
          "name": "C#4",
          "midi": 61,
          "duration": 0.335294,
          "velocity": 0.92126
        },
        {
          "time": 5.234582,
          "name": "A5",
          "midi": 81,
          "duration": 0.335294,
          "velocity": 0.818898
        },
        {
          "time": 5.234582,
          "name": "E5",
          "midi": 76,
          "duration": 0.335294,
          "velocity": 0.818898
        },
        {
          "time": 5.234582,
          "name": "E5",
          "midi": 76,
          "duration": 0.335294,
          "velocity": 0.88189
        },
        {
          "time": 5.234582,
          "name": "C#5",
          "midi": 73,
          "duration": 0.335294,
          "velocity": 0.88189
        },
        {
          "time": 5.234582,
          "name": "E4",
          "midi": 64,
          "duration": 0.335294,
          "velocity": 0.88189
        },
        {
          "time": 5.240465,
          "name": "C#5",
          "midi": 73,
          "duration": 0.335294,
          "velocity": 0.92126
        },
        {
          "time": 5.240465,
          "name": "E4",
          "midi": 64,
          "duration": 0.335294,
          "velocity": 0.92126
        },
        {
          "time": 5.584582,
          "name": "A4",
          "midi": 69,
          "duration": 0.725862,
          "velocity": 0.92126
        },
        {
          "time": 5.584582,
          "name": "C#4",
          "midi": 61,
          "duration": 0.725862,
          "velocity": 0.92126
        },
        {
          "time": 5.587523,
          "name": "A5",
          "midi": 81,
          "duration": 0.726369,
          "velocity": 0.818898
        },
        {
          "time": 5.587523,
          "name": "E5",
          "midi": 76,
          "duration": 0.726369,
          "velocity": 0.818898
        },
        {
          "time": 5.587523,
          "name": "E5",
          "midi": 76,
          "duration": 0.726369,
          "velocity": 0.88189
        },
        {
          "time": 5.587523,
          "name": "C#5",
          "midi": 73,
          "duration": 0.726369,
          "velocity": 0.88189
        },
        {
          "time": 5.587523,
          "name": "E4",
          "midi": 64,
          "duration": 0.726369,
          "velocity": 0.88189
        },
        {
          "time": 5.593406,
          "name": "C#5",
          "midi": 73,
          "duration": 0.727383,
          "velocity": 0.92126
        },
        {
          "time": 5.593406,
          "name": "E4",
          "midi": 64,
          "duration": 0.727383,
          "velocity": 0.92126
        },
        {
          "time": 6.351316,
          "name": "B4",
          "midi": 71,
          "duration": 0.335294,
          "velocity": 0.92126
        },
        {
          "time": 6.351316,
          "name": "D4",
          "midi": 62,
          "duration": 0.335294,
          "velocity": 0.92126
        },
        {
          "time": 6.354257,
          "name": "B5",
          "midi": 83,
          "duration": 0.335294,
          "velocity": 0.818898
        },
        {
          "time": 6.354257,
          "name": "G#5",
          "midi": 80,
          "duration": 0.335294,
          "velocity": 0.818898
        },
        {
          "time": 6.354257,
          "name": "G#5",
          "midi": 80,
          "duration": 0.335294,
          "velocity": 0.88189
        },
        {
          "time": 6.354257,
          "name": "B4",
          "midi": 71,
          "duration": 0.335294,
          "velocity": 0.88189
        },
        {
          "time": 6.36014,
          "name": "D5",
          "midi": 74,
          "duration": 0.335294,
          "velocity": 0.92126
        },
        {
          "time": 6.36014,
          "name": "G#4",
          "midi": 68,
          "duration": 0.335294,
          "velocity": 0.92126
        },
        {
          "time": 6.704257,
          "name": "D4",
          "midi": 62,
          "duration": 0.725862,
          "velocity": 0.92126
        },
        {
          "time": 6.704257,
          "name": "B4",
          "midi": 71,
          "duration": 0.725862,
          "velocity": 0.92126
        },
        {
          "time": 6.707198,
          "name": "B5",
          "midi": 83,
          "duration": 0.726369,
          "velocity": 0.818898
        },
        {
          "time": 6.707198,
          "name": "G#5",
          "midi": 80,
          "duration": 0.726369,
          "velocity": 0.818898
        },
        {
          "time": 6.707198,
          "name": "B4",
          "midi": 71,
          "duration": 0.726369,
          "velocity": 0.88189
        },
        {
          "time": 6.707198,
          "name": "G#5",
          "midi": 80,
          "duration": 0.726369,
          "velocity": 0.88189
        },
        {
          "time": 6.713081,
          "name": "D5",
          "midi": 74,
          "duration": 0.727383,
          "velocity": 0.92126
        },
        {
          "time": 6.713081,
          "name": "G#4",
          "midi": 68,
          "duration": 0.727383,
          "velocity": 0.92126
        },
        {
          "time": 7.470991,
          "name": "A4",
          "midi": 69,
          "duration": 0.335294,
          "velocity": 0.92126
        },
        {
          "time": 7.470991,
          "name": "E4",
          "midi": 64,
          "duration": 0.335294,
          "velocity": 0.92126
        },
        {
          "time": 7.473932,
          "name": "E5",
          "midi": 76,
          "duration": 0.335294,
          "velocity": 0.818898
        },
        {
          "time": 7.473932,
          "name": "A5",
          "midi": 81,
          "duration": 0.335294,
          "velocity": 0.818898
        },
        {
          "time": 7.473932,
          "name": "C#6",
          "midi": 85,
          "duration": 0.335294,
          "velocity": 0.88189
        },
        {
          "time": 7.479815,
          "name": "E5",
          "midi": 76,
          "duration": 0.335294,
          "velocity": 0.92126
        },
        {
          "time": 7.479815,
          "name": "C#5",
          "midi": 73,
          "duration": 0.335294,
          "velocity": 0.92126
        },
        {
          "time": 7.823932,
          "name": "A4",
          "midi": 69,
          "duration": 0.52931,
          "velocity": 0.92126
        },
        {
          "time": 7.823932,
          "name": "E4",
          "midi": 64,
          "duration": 0.52931,
          "velocity": 0.92126
        },
        {
          "time": 7.826873,
          "name": "A5",
          "midi": 81,
          "duration": 0.529817,
          "velocity": 0.818898
        },
        {
          "time": 7.826873,
          "name": "E5",
          "midi": 76,
          "duration": 0.529817,
          "velocity": 0.818898
        },
        {
          "time": 7.826873,
          "name": "C#6",
          "midi": 85,
          "duration": 0.529817,
          "velocity": 0.88189
        },
        {
          "time": 7.832756,
          "name": "E5",
          "midi": 76,
          "duration": 0.530831,
          "velocity": 0.92126
        },
        {
          "time": 7.832756,
          "name": "C#5",
          "midi": 73,
          "duration": 0.530831,
          "velocity": 0.92126
        },
        {
          "time": 8.384277,
          "name": "A4",
          "midi": 69,
          "duration": 0.196552,
          "velocity": 0.92126
        },
        {
          "time": 8.384277,
          "name": "F#4",
          "midi": 66,
          "duration": 0.196552,
          "velocity": 0.92126
        },
        {
          "time": 8.387725,
          "name": "A5",
          "midi": 81,
          "duration": 0.196552,
          "velocity": 0.818898
        },
        {
          "time": 8.387725,
          "name": "F#5",
          "midi": 78,
          "duration": 0.196552,
          "velocity": 0.818898
        },
        {
          "time": 8.387725,
          "name": "D6",
          "midi": 86,
          "duration": 0.196552,
          "velocity": 0.88189
        },
        {
          "time": 8.394622,
          "name": "F#5",
          "midi": 78,
          "duration": 0.196045,
          "velocity": 0.92126
        },
        {
          "time": 8.394622,
          "name": "D5",
          "midi": 74,
          "duration": 0.196045,
          "velocity": 0.92126
        },
        {
          "time": 8.590666,
          "name": "G4",
          "midi": 67,
          "duration": 0.335294,
          "velocity": 0.92126
        },
        {
          "time": 8.590666,
          "name": "A4",
          "midi": 69,
          "duration": 0.335294,
          "velocity": 0.92126
        },
        {
          "time": 8.593607,
          "name": "A5",
          "midi": 81,
          "duration": 0.335294,
          "velocity": 0.818898
        },
        {
          "time": 8.593607,
          "name": "G5",
          "midi": 79,
          "duration": 0.335294,
          "velocity": 0.818898
        },
        {
          "time": 8.593607,
          "name": "E6",
          "midi": 88,
          "duration": 0.335294,
          "velocity": 0.88189
        },
        {
          "time": 8.59949,
          "name": "G5",
          "midi": 79,
          "duration": 0.335294,
          "velocity": 0.92126
        },
        {
          "time": 8.59949,
          "name": "E5",
          "midi": 76,
          "duration": 0.335294,
          "velocity": 0.92126
        },
        {
          "time": 9.801639,
          "name": "A3",
          "midi": 57,
          "duration": 0.240964,
          "velocity": 0.88189
        },
        {
          "time": 10.28205,
          "name": "A3",
          "midi": 57,
          "duration": 0.783864,
          "velocity": 0.88189
        },
        {
          "time": 11.065914,
          "name": "A#3",
          "midi": 58,
          "duration": 0.25862,
          "velocity": 0.88189
        },
        {
          "time": 11.581527,
          "name": "A#3",
          "midi": 58,
          "duration": 0.840678,
          "velocity": 0.88189
        },
        {
          "time": 12.422205,
          "name": "B3",
          "midi": 59,
          "duration": 0.255319,
          "velocity": 0.88189
        },
        {
          "time": 12.931685,
          "name": "B3",
          "midi": 59,
          "duration": 0.883657,
          "velocity": 0.88189
        },
        {
          "time": 13.815342,
          "name": "C#4",
          "midi": 61,
          "duration": 0.25974,
          "velocity": 0.88189
        },
        {
          "time": 14.333917,
          "name": "C#4",
          "midi": 61,
          "duration": 0.929147,
          "velocity": 0.88189
        },
        {
          "time": 15.263064,
          "name": "D4",
          "midi": 62,
          "duration": 0.2,
          "velocity": 0.818898
        },
        {
          "time": 15.263064,
          "name": "D4",
          "midi": 62,
          "duration": 0.2,
          "velocity": 0.88189
        },
        {
          "time": 15.662589,
          "name": "D4",
          "midi": 62,
          "duration": 0.785,
          "velocity": 0.937008
        },
        {
          "time": 15.662589,
          "name": "D4",
          "midi": 62,
          "duration": 0.785,
          "velocity": 1
        },
        {
          "time": 16.447589,
          "name": "C#4",
          "midi": 61,
          "duration": 0.176471,
          "velocity": 0.818898
        },
        {
          "time": 16.447589,
          "name": "C#4",
          "midi": 61,
          "duration": 0.176471,
          "velocity": 0.88189
        },
        {
          "time": 16.80053,
          "name": "C#4",
          "midi": 61,
          "duration": 0.766734,
          "velocity": 0.937008
        },
        {
          "time": 16.80053,
          "name": "C#4",
          "midi": 61,
          "duration": 0.766734,
          "velocity": 1
        },
        {
          "time": 17.567264,
          "name": "E4",
          "midi": 64,
          "duration": 0.176471,
          "velocity": 0.818898
        },
        {
          "time": 17.567264,
          "name": "E4",
          "midi": 64,
          "duration": 0.176471,
          "velocity": 0.88189
        },
        {
          "time": 17.920205,
          "name": "E4",
          "midi": 64,
          "duration": 0.560852,
          "velocity": 0.937008
        },
        {
          "time": 17.920205,
          "name": "E4",
          "midi": 64,
          "duration": 0.560852,
          "velocity": 1
        },
        {
          "time": 18.481057,
          "name": "D4",
          "midi": 62,
          "duration": 0.205882,
          "velocity": 0.818898
        },
        {
          "time": 18.481057,
          "name": "D4",
          "midi": 62,
          "duration": 0.205882,
          "velocity": 0.88189
        },
        {
          "time": 18.686939,
          "name": "A3",
          "midi": 57,
          "duration": 1.119675,
          "velocity": 0.818898
        },
        {
          "time": 18.686939,
          "name": "A3",
          "midi": 57,
          "duration": 1.119675,
          "velocity": 0.88189
        },
        {
          "time": 19.806614,
          "name": "D4",
          "midi": 62,
          "duration": 0.176471,
          "velocity": 0.818898
        },
        {
          "time": 19.806614,
          "name": "D4",
          "midi": 62,
          "duration": 0.176471,
          "velocity": 0.88189
        },
        {
          "time": 20.159555,
          "name": "D4",
          "midi": 62,
          "duration": 0.766734,
          "velocity": 0.937008
        },
        {
          "time": 20.159555,
          "name": "D4",
          "midi": 62,
          "duration": 0.766734,
          "velocity": 1
        },
        {
          "time": 20.926289,
          "name": "C#4",
          "midi": 61,
          "duration": 0.176471,
          "velocity": 0.818898
        },
        {
          "time": 20.926289,
          "name": "C#4",
          "midi": 61,
          "duration": 0.176471,
          "velocity": 0.88189
        },
        {
          "time": 21.27923,
          "name": "C#4",
          "midi": 61,
          "duration": 0.766734,
          "velocity": 0.937008
        },
        {
          "time": 21.27923,
          "name": "C#4",
          "midi": 61,
          "duration": 0.766734,
          "velocity": 1
        },
        {
          "time": 22.045964,
          "name": "B3",
          "midi": 59,
          "duration": 0.352941,
          "velocity": 0.818898
        },
        {
          "time": 22.045964,
          "name": "B3",
          "midi": 59,
          "duration": 0.352941,
          "velocity": 0.88189
        },
        {
          "time": 22.398905,
          "name": "C#4",
          "midi": 61,
          "duration": 0.560852,
          "velocity": 0.937008
        },
        {
          "time": 22.398905,
          "name": "C#4",
          "midi": 61,
          "duration": 0.560852,
          "velocity": 1
        },
        {
          "time": 22.959757,
          "name": "D#4",
          "midi": 63,
          "duration": 0.205882,
          "velocity": 0.818898
        },
        {
          "time": 22.959757,
          "name": "D#4",
          "midi": 63,
          "duration": 0.205882,
          "velocity": 0.88189
        },
        {
          "time": 23.165639,
          "name": "E4",
          "midi": 64,
          "duration": 1.119675,
          "velocity": 0.818898
        },
        {
          "time": 23.165639,
          "name": "E4",
          "midi": 64,
          "duration": 1.119675,
          "velocity": 0.88189
        },
        {
          "time": 24.285314,
          "name": "D5",
          "midi": 74,
          "duration": 0.176471,
          "velocity": 0.818898
        },
        {
          "time": 24.285314,
          "name": "D5",
          "midi": 74,
          "duration": 0.176471,
          "velocity": 0.88189
        },
        {
          "time": 24.638255,
          "name": "D5",
          "midi": 74,
          "duration": 0.766734,
          "velocity": 0.937008
        },
        {
          "time": 24.638255,
          "name": "D5",
          "midi": 74,
          "duration": 0.766734,
          "velocity": 1
        },
        {
          "time": 25.404989,
          "name": "C#5",
          "midi": 73,
          "duration": 0.176471,
          "velocity": 0.818898
        },
        {
          "time": 25.404989,
          "name": "C#5",
          "midi": 73,
          "duration": 0.176471,
          "velocity": 0.88189
        },
        {
          "time": 25.75793,
          "name": "C#5",
          "midi": 73,
          "duration": 0.766734,
          "velocity": 0.937008
        },
        {
          "time": 25.75793,
          "name": "C#5",
          "midi": 73,
          "duration": 0.766734,
          "velocity": 1
        },
        {
          "time": 26.524664,
          "name": "B4",
          "midi": 71,
          "duration": 0.352941,
          "velocity": 0.818898
        },
        {
          "time": 26.524664,
          "name": "B4",
          "midi": 71,
          "duration": 0.308823,
          "velocity": 0.88189
        },
        {
          "time": 26.877605,
          "name": "B4",
          "midi": 71,
          "duration": 0.353955,
          "velocity": 0.818898
        },
        {
          "time": 26.877605,
          "name": "B4",
          "midi": 71,
          "duration": 0.308823,
          "velocity": 0.88189
        },
        {
          "time": 27.231561,
          "name": "B4",
          "midi": 71,
          "duration": 0.412779,
          "velocity": 0.818898
        },
        {
          "time": 27.231561,
          "name": "B4",
          "midi": 71,
          "duration": 0.362069,
          "velocity": 0.88189
        },
        {
          "time": 27.644339,
          "name": "B4",
          "midi": 71,
          "duration": 0.352941,
          "velocity": 0.818898
        },
        {
          "time": 27.644339,
          "name": "B4",
          "midi": 71,
          "duration": 0.352941,
          "velocity": 0.88189
        },
        {
          "time": 27.99728,
          "name": "C#5",
          "midi": 73,
          "duration": 0.17647,
          "velocity": 0.818898
        },
        {
          "time": 27.99728,
          "name": "C#5",
          "midi": 73,
          "duration": 0.17647,
          "velocity": 0.88189
        },
        {
          "time": 28.173751,
          "name": "B4",
          "midi": 71,
          "duration": 0.177485,
          "velocity": 0.818898
        },
        {
          "time": 28.173751,
          "name": "B4",
          "midi": 71,
          "duration": 0.177485,
          "velocity": 0.88189
        },
        {
          "time": 28.351236,
          "name": "A4",
          "midi": 69,
          "duration": 0.412779,
          "velocity": 0.818898
        },
        {
          "time": 28.351236,
          "name": "A4",
          "midi": 69,
          "duration": 0.412779,
          "velocity": 0.88189
        },
        {
          "time": 28.764014,
          "name": "B4",
          "midi": 71,
          "duration": 0.352941,
          "velocity": 0.818898
        },
        {
          "time": 28.764014,
          "name": "B4",
          "midi": 71,
          "duration": 0.308823,
          "velocity": 0.88189
        },
        {
          "time": 29.116955,
          "name": "B4",
          "midi": 71,
          "duration": 0.353955,
          "velocity": 0.818898
        },
        {
          "time": 29.116955,
          "name": "B4",
          "midi": 71,
          "duration": 0.308823,
          "velocity": 0.88189
        },
        {
          "time": 29.470911,
          "name": "B4",
          "midi": 71,
          "duration": 0.412779,
          "velocity": 0.818898
        },
        {
          "time": 29.470911,
          "name": "B4",
          "midi": 71,
          "duration": 0.362069,
          "velocity": 0.88189
        },
        {
          "time": 29.883689,
          "name": "B4",
          "midi": 71,
          "duration": 0.352941,
          "velocity": 0.818898
        },
        {
          "time": 29.883689,
          "name": "B4",
          "midi": 71,
          "duration": 0.352941,
          "velocity": 0.88189
        },
        {
          "time": 30.23663,
          "name": "C#5",
          "midi": 73,
          "duration": 0.17647,
          "velocity": 0.818898
        },
        {
          "time": 30.23663,
          "name": "C#5",
          "midi": 73,
          "duration": 0.17647,
          "velocity": 0.88189
        },
        {
          "time": 30.413101,
          "name": "B4",
          "midi": 71,
          "duration": 0.177485,
          "velocity": 0.818898
        },
        {
          "time": 30.413101,
          "name": "B4",
          "midi": 71,
          "duration": 0.177485,
          "velocity": 0.88189
        },
        {
          "time": 30.590586,
          "name": "A4",
          "midi": 69,
          "duration": 0.412779,
          "velocity": 0.818898
        },
        {
          "time": 30.590586,
          "name": "A4",
          "midi": 69,
          "duration": 0.412779,
          "velocity": 0.88189
        },
        {
          "time": 31.003364,
          "name": "B4",
          "midi": 71,
          "duration": 0.176471,
          "velocity": 0.818898
        },
        {
          "time": 31.003364,
          "name": "B4",
          "midi": 71,
          "duration": 0.176471,
          "velocity": 0.88189
        },
        {
          "time": 31.179835,
          "name": "A4",
          "midi": 69,
          "duration": 0.176471,
          "velocity": 0.818898
        },
        {
          "time": 31.179835,
          "name": "A4",
          "midi": 69,
          "duration": 0.176471,
          "velocity": 0.88189
        },
        {
          "time": 31.356305,
          "name": "G#4",
          "midi": 68,
          "duration": 0.353955,
          "velocity": 0.818898
        },
        {
          "time": 31.356305,
          "name": "G#4",
          "midi": 68,
          "duration": 0.353955,
          "velocity": 0.88189
        },
        {
          "time": 31.710261,
          "name": "A4",
          "midi": 69,
          "duration": 0.206896,
          "velocity": 0.818898
        },
        {
          "time": 31.710261,
          "name": "A4",
          "midi": 69,
          "duration": 0.206896,
          "velocity": 0.88189
        },
        {
          "time": 31.917157,
          "name": "G4",
          "midi": 67,
          "duration": 0.20625,
          "velocity": 0.818898
        },
        {
          "time": 31.917157,
          "name": "G4",
          "midi": 67,
          "duration": 0.20625,
          "velocity": 0.88189
        },
        {
          "time": 32.123407,
          "name": "F#4",
          "midi": 66,
          "duration": 0.375647,
          "velocity": 0.818898
        },
        {
          "time": 32.123407,
          "name": "F#4",
          "midi": 66,
          "duration": 0.375647,
          "velocity": 0.88189
        },
        {
          "time": 32.499054,
          "name": "G4",
          "midi": 67,
          "duration": 0.206896,
          "velocity": 0.818898
        },
        {
          "time": 32.499054,
          "name": "G4",
          "midi": 67,
          "duration": 0.206896,
          "velocity": 0.88189
        },
        {
          "time": 32.70595,
          "name": "F#4",
          "midi": 66,
          "duration": 0.207692,
          "velocity": 0.818898
        },
        {
          "time": 32.70595,
          "name": "F#4",
          "midi": 66,
          "duration": 0.207692,
          "velocity": 0.88189
        },
        {
          "time": 32.913642,
          "name": "E4",
          "midi": 64,
          "duration": 0.460096,
          "velocity": 0.818898
        },
        {
          "time": 32.913642,
          "name": "E4",
          "midi": 64,
          "duration": 0.460096,
          "velocity": 0.88189
        },
        {
          "time": 33.373738,
          "name": "D4",
          "midi": 62,
          "duration": 0.1875,
          "velocity": 0.818898
        },
        {
          "time": 33.373738,
          "name": "D4",
          "midi": 62,
          "duration": 0.1875,
          "velocity": 0.88189
        },
        {
          "time": 33.748738,
          "name": "D4",
          "midi": 62,
          "duration": 0.788425,
          "velocity": 0.937008
        },
        {
          "time": 33.748738,
          "name": "D4",
          "midi": 62,
          "duration": 0.788425,
          "velocity": 1
        },
        {
          "time": 34.537163,
          "name": "C#4",
          "midi": 61,
          "duration": 0.176471,
          "velocity": 0.818898
        },
        {
          "time": 34.537163,
          "name": "C#4",
          "midi": 61,
          "duration": 0.176471,
          "velocity": 0.88189
        },
        {
          "time": 34.890104,
          "name": "C#4",
          "midi": 61,
          "duration": 0.766734,
          "velocity": 0.937008
        },
        {
          "time": 34.890104,
          "name": "C#4",
          "midi": 61,
          "duration": 0.766734,
          "velocity": 1
        },
        {
          "time": 35.656838,
          "name": "E4",
          "midi": 64,
          "duration": 0.176471,
          "velocity": 0.818898
        },
        {
          "time": 35.656838,
          "name": "E4",
          "midi": 64,
          "duration": 0.176471,
          "velocity": 0.88189
        },
        {
          "time": 36.009779,
          "name": "E4",
          "midi": 64,
          "duration": 0.560852,
          "velocity": 0.937008
        },
        {
          "time": 36.009779,
          "name": "E4",
          "midi": 64,
          "duration": 0.560852,
          "velocity": 1
        },
        {
          "time": 36.570631,
          "name": "D4",
          "midi": 62,
          "duration": 0.205882,
          "velocity": 0.818898
        },
        {
          "time": 36.570631,
          "name": "D4",
          "midi": 62,
          "duration": 0.205882,
          "velocity": 0.88189
        },
        {
          "time": 36.776513,
          "name": "A3",
          "midi": 57,
          "duration": 1.119675,
          "velocity": 0.818898
        },
        {
          "time": 36.776513,
          "name": "A3",
          "midi": 57,
          "duration": 1.119675,
          "velocity": 0.88189
        },
        {
          "time": 37.896188,
          "name": "D4",
          "midi": 62,
          "duration": 0.176471,
          "velocity": 0.818898
        },
        {
          "time": 37.896188,
          "name": "D4",
          "midi": 62,
          "duration": 0.176471,
          "velocity": 0.88189
        },
        {
          "time": 38.249129,
          "name": "D4",
          "midi": 62,
          "duration": 0.766734,
          "velocity": 0.937008
        },
        {
          "time": 38.249129,
          "name": "D4",
          "midi": 62,
          "duration": 0.766734,
          "velocity": 1
        },
        {
          "time": 39.015863,
          "name": "C#4",
          "midi": 61,
          "duration": 0.176471,
          "velocity": 0.818898
        },
        {
          "time": 39.015863,
          "name": "C#4",
          "midi": 61,
          "duration": 0.176471,
          "velocity": 0.88189
        },
        {
          "time": 39.368804,
          "name": "C#4",
          "midi": 61,
          "duration": 0.766734,
          "velocity": 0.937008
        },
        {
          "time": 39.368804,
          "name": "C#4",
          "midi": 61,
          "duration": 0.766734,
          "velocity": 1
        },
        {
          "time": 40.135538,
          "name": "B3",
          "midi": 59,
          "duration": 0.352941,
          "velocity": 0.818898
        },
        {
          "time": 40.135538,
          "name": "B3",
          "midi": 59,
          "duration": 0.352941,
          "velocity": 0.88189
        },
        {
          "time": 40.488479,
          "name": "C#4",
          "midi": 61,
          "duration": 0.560852,
          "velocity": 0.937008
        },
        {
          "time": 40.488479,
          "name": "C#4",
          "midi": 61,
          "duration": 0.560852,
          "velocity": 1
        },
        {
          "time": 41.049331,
          "name": "D#4",
          "midi": 63,
          "duration": 0.205882,
          "velocity": 0.818898
        },
        {
          "time": 41.049331,
          "name": "D#4",
          "midi": 63,
          "duration": 0.205882,
          "velocity": 0.88189
        },
        {
          "time": 41.255213,
          "name": "E4",
          "midi": 64,
          "duration": 1.119675,
          "velocity": 0.818898
        },
        {
          "time": 41.255213,
          "name": "E4",
          "midi": 64,
          "duration": 1.119675,
          "velocity": 0.88189
        },
        {
          "time": 42.374888,
          "name": "D5",
          "midi": 74,
          "duration": 0.176471,
          "velocity": 0.818898
        },
        {
          "time": 42.374888,
          "name": "D5",
          "midi": 74,
          "duration": 0.176471,
          "velocity": 0.88189
        },
        {
          "time": 42.727829,
          "name": "D5",
          "midi": 74,
          "duration": 0.766734,
          "velocity": 0.937008
        },
        {
          "time": 42.727829,
          "name": "D5",
          "midi": 74,
          "duration": 0.766734,
          "velocity": 1
        },
        {
          "time": 43.494563,
          "name": "C#5",
          "midi": 73,
          "duration": 0.176471,
          "velocity": 0.818898
        },
        {
          "time": 43.494563,
          "name": "C#5",
          "midi": 73,
          "duration": 0.176471,
          "velocity": 0.88189
        },
        {
          "time": 43.847504,
          "name": "C#5",
          "midi": 73,
          "duration": 0.766734,
          "velocity": 0.937008
        },
        {
          "time": 43.847504,
          "name": "C#5",
          "midi": 73,
          "duration": 0.766734,
          "velocity": 1
        },
        {
          "time": 44.614238,
          "name": "B4",
          "midi": 71,
          "duration": 0.352941,
          "velocity": 0.818898
        },
        {
          "time": 44.614238,
          "name": "B4",
          "midi": 71,
          "duration": 0.338235,
          "velocity": 0.88189
        },
        {
          "time": 44.967179,
          "name": "B4",
          "midi": 71,
          "duration": 0.353955,
          "velocity": 0.818898
        },
        {
          "time": 44.967179,
          "name": "B4",
          "midi": 71,
          "duration": 0.338235,
          "velocity": 0.88189
        },
        {
          "time": 45.321135,
          "name": "B4",
          "midi": 71,
          "duration": 0.412779,
          "velocity": 0.818898
        },
        {
          "time": 45.321135,
          "name": "B4",
          "midi": 71,
          "duration": 0.396552,
          "velocity": 0.88189
        },
        {
          "time": 45.733913,
          "name": "B4",
          "midi": 71,
          "duration": 0.352941,
          "velocity": 0.818898
        },
        {
          "time": 45.733913,
          "name": "B4",
          "midi": 71,
          "duration": 0.352941,
          "velocity": 0.88189
        },
        {
          "time": 46.086854,
          "name": "C#5",
          "midi": 73,
          "duration": 0.176471,
          "velocity": 0.818898
        },
        {
          "time": 46.086854,
          "name": "C#5",
          "midi": 73,
          "duration": 0.176471,
          "velocity": 0.88189
        },
        {
          "time": 46.263325,
          "name": "B4",
          "midi": 71,
          "duration": 0.177485,
          "velocity": 0.818898
        },
        {
          "time": 46.263325,
          "name": "B4",
          "midi": 71,
          "duration": 0.177485,
          "velocity": 0.88189
        },
        {
          "time": 46.44081,
          "name": "A#4",
          "midi": 70,
          "duration": 0.412779,
          "velocity": 0.818898
        },
        {
          "time": 46.44081,
          "name": "A#4",
          "midi": 70,
          "duration": 0.412779,
          "velocity": 0.88189
        },
        {
          "time": 46.853588,
          "name": "A4",
          "midi": 69,
          "duration": 0.308823,
          "velocity": 0.818898
        },
        {
          "time": 46.853588,
          "name": "A4",
          "midi": 69,
          "duration": 0.308823,
          "velocity": 0.88189
        },
        {
          "time": 47.206529,
          "name": "A4",
          "midi": 69,
          "duration": 0.308823,
          "velocity": 0.818898
        },
        {
          "time": 47.206529,
          "name": "A4",
          "midi": 69,
          "duration": 0.308823,
          "velocity": 0.88189
        },
        {
          "time": 47.560485,
          "name": "A4",
          "midi": 69,
          "duration": 0.362069,
          "velocity": 0.818898
        },
        {
          "time": 47.560485,
          "name": "A4",
          "midi": 69,
          "duration": 0.362069,
          "velocity": 0.88189
        },
        {
          "time": 47.973263,
          "name": "A4",
          "midi": 69,
          "duration": 0.352941,
          "velocity": 0.818898
        },
        {
          "time": 47.973263,
          "name": "A4",
          "midi": 69,
          "duration": 0.352941,
          "velocity": 0.88189
        },
        {
          "time": 48.326204,
          "name": "B4",
          "midi": 71,
          "duration": 0.176471,
          "velocity": 0.818898
        },
        {
          "time": 48.326204,
          "name": "B4",
          "midi": 71,
          "duration": 0.176471,
          "velocity": 0.88189
        },
        {
          "time": 48.502675,
          "name": "A4",
          "midi": 69,
          "duration": 0.177485,
          "velocity": 0.818898
        },
        {
          "time": 48.502675,
          "name": "A4",
          "midi": 69,
          "duration": 0.177485,
          "velocity": 0.88189
        },
        {
          "time": 48.68016,
          "name": "G#4",
          "midi": 68,
          "duration": 0.412779,
          "velocity": 0.818898
        },
        {
          "time": 48.68016,
          "name": "G#4",
          "midi": 68,
          "duration": 0.412779,
          "velocity": 0.88189
        },
        {
          "time": 49.092938,
          "name": "E5",
          "midi": 76,
          "duration": 0.352941,
          "velocity": 0.818898
        },
        {
          "time": 49.092938,
          "name": "E5",
          "midi": 76,
          "duration": 0.352941,
          "velocity": 0.88189
        },
        {
          "time": 49.445879,
          "name": "G4",
          "midi": 67,
          "duration": 0.58552,
          "velocity": 0.818898
        },
        {
          "time": 49.445879,
          "name": "G4",
          "midi": 67,
          "duration": 0.58552,
          "velocity": 0.88189
        },
        {
          "time": 50.031399,
          "name": "A4",
          "midi": 69,
          "duration": 0.229528,
          "velocity": 0.818898
        },
        {
          "time": 50.031399,
          "name": "A4",
          "midi": 69,
          "duration": 0.229528,
          "velocity": 0.88189
        },
        {
          "time": 50.260928,
          "name": "F#4",
          "midi": 66,
          "duration": 0.387097,
          "velocity": 0.818898
        },
        {
          "time": 50.260928,
          "name": "F#4",
          "midi": 66,
          "duration": 0.193548,
          "velocity": 0.88189
        },
        {
          "time": 50.454476,
          "name": "A3",
          "midi": 57,
          "duration": 0.193548,
          "velocity": 0.88189
        },
        {
          "time": 50.648025,
          "name": "G#3",
          "midi": 56,
          "duration": 0.193549,
          "velocity": 0.88189
        },
        {
          "time": 50.841573,
          "name": "A3",
          "midi": 57,
          "duration": 0.193993,
          "velocity": 0.88189
        },
        {
          "time": 51.035567,
          "name": "B3",
          "midi": 59,
          "duration": 0.206896,
          "velocity": 0.88189
        },
        {
          "time": 51.242463,
          "name": "C#4",
          "midi": 61,
          "duration": 0.205882,
          "velocity": 0.88189
        },
        {
          "time": 51.448345,
          "name": "D4",
          "midi": 62,
          "duration": 0.176471,
          "velocity": 0.818898
        },
        {
          "time": 51.448345,
          "name": "D4",
          "midi": 62,
          "duration": 0.176471,
          "velocity": 0.88189
        },
        {
          "time": 51.801286,
          "name": "D4",
          "midi": 62,
          "duration": 0.766734,
          "velocity": 0.937008
        },
        {
          "time": 51.801286,
          "name": "D4",
          "midi": 62,
          "duration": 0.766734,
          "velocity": 1
        },
        {
          "time": 52.56802,
          "name": "C#4",
          "midi": 61,
          "duration": 0.176471,
          "velocity": 0.818898
        },
        {
          "time": 52.56802,
          "name": "C#4",
          "midi": 61,
          "duration": 0.176471,
          "velocity": 0.88189
        },
        {
          "time": 52.920961,
          "name": "C#4",
          "midi": 61,
          "duration": 0.766734,
          "velocity": 0.937008
        },
        {
          "time": 52.920961,
          "name": "C#4",
          "midi": 61,
          "duration": 0.766734,
          "velocity": 1
        },
        {
          "time": 53.687695,
          "name": "E4",
          "midi": 64,
          "duration": 0.176471,
          "velocity": 0.818898
        },
        {
          "time": 53.687695,
          "name": "E4",
          "midi": 64,
          "duration": 0.176471,
          "velocity": 0.88189
        },
        {
          "time": 54.040636,
          "name": "E4",
          "midi": 64,
          "duration": 0.560852,
          "velocity": 0.937008
        },
        {
          "time": 54.040636,
          "name": "E4",
          "midi": 64,
          "duration": 0.560852,
          "velocity": 1
        },
        {
          "time": 54.601488,
          "name": "D4",
          "midi": 62,
          "duration": 0.205882,
          "velocity": 0.818898
        },
        {
          "time": 54.601488,
          "name": "D4",
          "midi": 62,
          "duration": 0.205882,
          "velocity": 0.88189
        },
        {
          "time": 54.80737,
          "name": "A3",
          "midi": 57,
          "duration": 1.119675,
          "velocity": 0.818898
        },
        {
          "time": 54.80737,
          "name": "A3",
          "midi": 57,
          "duration": 1.119675,
          "velocity": 0.88189
        },
        {
          "time": 55.927045,
          "name": "D4",
          "midi": 62,
          "duration": 0.176471,
          "velocity": 0.818898
        },
        {
          "time": 55.927045,
          "name": "D4",
          "midi": 62,
          "duration": 0.176471,
          "velocity": 0.88189
        },
        {
          "time": 56.279986,
          "name": "D4",
          "midi": 62,
          "duration": 0.766734,
          "velocity": 0.937008
        },
        {
          "time": 56.279986,
          "name": "D4",
          "midi": 62,
          "duration": 0.766734,
          "velocity": 1
        },
        {
          "time": 57.04672,
          "name": "C#4",
          "midi": 61,
          "duration": 0.176471,
          "velocity": 0.818898
        },
        {
          "time": 57.04672,
          "name": "C#4",
          "midi": 61,
          "duration": 0.176471,
          "velocity": 0.88189
        },
        {
          "time": 57.399661,
          "name": "C#4",
          "midi": 61,
          "duration": 0.766734,
          "velocity": 0.937008
        },
        {
          "time": 57.399661,
          "name": "C#4",
          "midi": 61,
          "duration": 0.766734,
          "velocity": 1
        },
        {
          "time": 58.166395,
          "name": "B3",
          "midi": 59,
          "duration": 0.352941,
          "velocity": 0.818898
        },
        {
          "time": 58.166395,
          "name": "B3",
          "midi": 59,
          "duration": 0.352941,
          "velocity": 0.88189
        },
        {
          "time": 58.519336,
          "name": "C#4",
          "midi": 61,
          "duration": 0.560852,
          "velocity": 0.937008
        },
        {
          "time": 58.519336,
          "name": "C#4",
          "midi": 61,
          "duration": 0.560852,
          "velocity": 1
        },
        {
          "time": 59.080188,
          "name": "D#4",
          "midi": 63,
          "duration": 0.205882,
          "velocity": 0.818898
        },
        {
          "time": 59.080188,
          "name": "D#4",
          "midi": 63,
          "duration": 0.205882,
          "velocity": 0.88189
        },
        {
          "time": 59.28607,
          "name": "E4",
          "midi": 64,
          "duration": 1.119675,
          "velocity": 0.818898
        },
        {
          "time": 59.28607,
          "name": "E4",
          "midi": 64,
          "duration": 1.119675,
          "velocity": 0.88189
        },
        {
          "time": 60.405745,
          "name": "D5",
          "midi": 74,
          "duration": 0.176471,
          "velocity": 0.818898
        },
        {
          "time": 60.405745,
          "name": "D5",
          "midi": 74,
          "duration": 0.176471,
          "velocity": 0.88189
        },
        {
          "time": 60.758686,
          "name": "D5",
          "midi": 74,
          "duration": 0.766734,
          "velocity": 0.937008
        },
        {
          "time": 60.758686,
          "name": "D5",
          "midi": 74,
          "duration": 0.766734,
          "velocity": 1
        },
        {
          "time": 61.52542,
          "name": "C#5",
          "midi": 73,
          "duration": 0.176471,
          "velocity": 0.818898
        },
        {
          "time": 61.52542,
          "name": "C#5",
          "midi": 73,
          "duration": 0.176471,
          "velocity": 0.88189
        },
        {
          "time": 61.878361,
          "name": "C#5",
          "midi": 73,
          "duration": 0.766734,
          "velocity": 0.937008
        },
        {
          "time": 61.878361,
          "name": "C#5",
          "midi": 73,
          "duration": 0.766734,
          "velocity": 1
        },
        {
          "time": 62.645095,
          "name": "B4",
          "midi": 71,
          "duration": 0.352941,
          "velocity": 0.818898
        },
        {
          "time": 62.645095,
          "name": "B4",
          "midi": 71,
          "duration": 0.308823,
          "velocity": 0.88189
        },
        {
          "time": 62.998036,
          "name": "B4",
          "midi": 71,
          "duration": 0.353955,
          "velocity": 0.818898
        },
        {
          "time": 62.998036,
          "name": "B4",
          "midi": 71,
          "duration": 0.308823,
          "velocity": 0.88189
        },
        {
          "time": 63.351992,
          "name": "B4",
          "midi": 71,
          "duration": 0.412779,
          "velocity": 0.818898
        },
        {
          "time": 63.351992,
          "name": "B4",
          "midi": 71,
          "duration": 0.362069,
          "velocity": 0.88189
        },
        {
          "time": 63.76477,
          "name": "B4",
          "midi": 71,
          "duration": 0.352941,
          "velocity": 0.818898
        },
        {
          "time": 63.76477,
          "name": "B4",
          "midi": 71,
          "duration": 0.352941,
          "velocity": 0.88189
        },
        {
          "time": 64.117711,
          "name": "C#5",
          "midi": 73,
          "duration": 0.17647,
          "velocity": 0.818898
        },
        {
          "time": 64.117711,
          "name": "C#5",
          "midi": 73,
          "duration": 0.17647,
          "velocity": 0.88189
        },
        {
          "time": 64.294182,
          "name": "B4",
          "midi": 71,
          "duration": 0.177485,
          "velocity": 0.818898
        },
        {
          "time": 64.294182,
          "name": "B4",
          "midi": 71,
          "duration": 0.177485,
          "velocity": 0.88189
        },
        {
          "time": 64.471667,
          "name": "A4",
          "midi": 69,
          "duration": 0.412779,
          "velocity": 0.818898
        },
        {
          "time": 64.471667,
          "name": "A4",
          "midi": 69,
          "duration": 0.412779,
          "velocity": 0.88189
        },
        {
          "time": 64.884445,
          "name": "B4",
          "midi": 71,
          "duration": 0.352941,
          "velocity": 0.818898
        },
        {
          "time": 64.884445,
          "name": "B4",
          "midi": 71,
          "duration": 0.308823,
          "velocity": 0.88189
        },
        {
          "time": 65.237386,
          "name": "B4",
          "midi": 71,
          "duration": 0.353955,
          "velocity": 0.818898
        },
        {
          "time": 65.237386,
          "name": "B4",
          "midi": 71,
          "duration": 0.308823,
          "velocity": 0.88189
        },
        {
          "time": 65.591342,
          "name": "B4",
          "midi": 71,
          "duration": 0.412779,
          "velocity": 0.818898
        },
        {
          "time": 65.591342,
          "name": "B4",
          "midi": 71,
          "duration": 0.362069,
          "velocity": 0.88189
        },
        {
          "time": 66.00412,
          "name": "B4",
          "midi": 71,
          "duration": 0.352941,
          "velocity": 0.818898
        },
        {
          "time": 66.00412,
          "name": "B4",
          "midi": 71,
          "duration": 0.352941,
          "velocity": 0.88189
        },
        {
          "time": 66.357061,
          "name": "C#5",
          "midi": 73,
          "duration": 0.176471,
          "velocity": 0.818898
        },
        {
          "time": 66.357061,
          "name": "C#5",
          "midi": 73,
          "duration": 0.176471,
          "velocity": 0.88189
        },
        {
          "time": 66.533532,
          "name": "B4",
          "midi": 71,
          "duration": 0.177485,
          "velocity": 0.818898
        },
        {
          "time": 66.533532,
          "name": "B4",
          "midi": 71,
          "duration": 0.177485,
          "velocity": 0.88189
        },
        {
          "time": 66.711017,
          "name": "A4",
          "midi": 69,
          "duration": 0.412779,
          "velocity": 0.818898
        },
        {
          "time": 66.711017,
          "name": "A4",
          "midi": 69,
          "duration": 0.412779,
          "velocity": 0.88189
        },
        {
          "time": 67.123795,
          "name": "B4",
          "midi": 71,
          "duration": 0.176471,
          "velocity": 0.818898
        },
        {
          "time": 67.123795,
          "name": "B4",
          "midi": 71,
          "duration": 0.176471,
          "velocity": 0.88189
        },
        {
          "time": 67.300266,
          "name": "A4",
          "midi": 69,
          "duration": 0.17647,
          "velocity": 0.818898
        },
        {
          "time": 67.300266,
          "name": "A4",
          "midi": 69,
          "duration": 0.17647,
          "velocity": 0.88189
        },
        {
          "time": 67.476736,
          "name": "G#4",
          "midi": 68,
          "duration": 0.353955,
          "velocity": 0.818898
        },
        {
          "time": 67.476736,
          "name": "G#4",
          "midi": 68,
          "duration": 0.353955,
          "velocity": 0.88189
        },
        {
          "time": 67.830692,
          "name": "A4",
          "midi": 69,
          "duration": 0.206897,
          "velocity": 0.818898
        },
        {
          "time": 67.830692,
          "name": "A4",
          "midi": 69,
          "duration": 0.206897,
          "velocity": 0.88189
        },
        {
          "time": 68.037588,
          "name": "G4",
          "midi": 67,
          "duration": 0.20625,
          "velocity": 0.818898
        },
        {
          "time": 68.037588,
          "name": "G4",
          "midi": 67,
          "duration": 0.20625,
          "velocity": 0.88189
        },
        {
          "time": 68.243838,
          "name": "F#4",
          "midi": 66,
          "duration": 0.37567,
          "velocity": 0.818898
        },
        {
          "time": 68.243838,
          "name": "F#4",
          "midi": 66,
          "duration": 0.37567,
          "velocity": 0.88189
        },
        {
          "time": 68.619508,
          "name": "G4",
          "midi": 67,
          "duration": 0.207612,
          "velocity": 0.818898
        },
        {
          "time": 68.619508,
          "name": "G4",
          "midi": 67,
          "duration": 0.207612,
          "velocity": 0.88189
        },
        {
          "time": 68.827121,
          "name": "F#4",
          "midi": 66,
          "duration": 0.208384,
          "velocity": 0.818898
        },
        {
          "time": 68.827121,
          "name": "F#4",
          "midi": 66,
          "duration": 0.208384,
          "velocity": 0.88189
        },
        {
          "time": 69.035505,
          "name": "E4",
          "midi": 64,
          "duration": 0.460096,
          "velocity": 0.818898
        },
        {
          "time": 69.035505,
          "name": "E4",
          "midi": 64,
          "duration": 0.460096,
          "velocity": 0.88189
        },
        {
          "time": 69.495601,
          "name": "D4",
          "midi": 62,
          "duration": 0.1875,
          "velocity": 0.818898
        },
        {
          "time": 69.495601,
          "name": "D4",
          "midi": 62,
          "duration": 0.1875,
          "velocity": 0.88189
        },
        {
          "time": 69.870601,
          "name": "D4",
          "midi": 62,
          "duration": 0.788425,
          "velocity": 0.937008
        },
        {
          "time": 69.870601,
          "name": "D4",
          "midi": 62,
          "duration": 0.788425,
          "velocity": 1
        },
        {
          "time": 70.659026,
          "name": "C#4",
          "midi": 61,
          "duration": 0.176471,
          "velocity": 0.818898
        },
        {
          "time": 70.659026,
          "name": "C#4",
          "midi": 61,
          "duration": 0.176471,
          "velocity": 0.88189
        },
        {
          "time": 71.011967,
          "name": "C#4",
          "midi": 61,
          "duration": 0.766734,
          "velocity": 0.937008
        },
        {
          "time": 71.011967,
          "name": "C#4",
          "midi": 61,
          "duration": 0.766734,
          "velocity": 1
        },
        {
          "time": 71.778701,
          "name": "E4",
          "midi": 64,
          "duration": 0.176471,
          "velocity": 0.818898
        },
        {
          "time": 71.778701,
          "name": "E4",
          "midi": 64,
          "duration": 0.176471,
          "velocity": 0.88189
        },
        {
          "time": 72.131642,
          "name": "E4",
          "midi": 64,
          "duration": 0.560852,
          "velocity": 0.937008
        },
        {
          "time": 72.131642,
          "name": "E4",
          "midi": 64,
          "duration": 0.560852,
          "velocity": 1
        },
        {
          "time": 72.692494,
          "name": "D4",
          "midi": 62,
          "duration": 0.205882,
          "velocity": 0.818898
        },
        {
          "time": 72.692494,
          "name": "D4",
          "midi": 62,
          "duration": 0.205882,
          "velocity": 0.88189
        },
        {
          "time": 72.898376,
          "name": "A3",
          "midi": 57,
          "duration": 1.119675,
          "velocity": 0.818898
        },
        {
          "time": 72.898376,
          "name": "A3",
          "midi": 57,
          "duration": 1.119675,
          "velocity": 0.88189
        },
        {
          "time": 74.018051,
          "name": "D4",
          "midi": 62,
          "duration": 0.176471,
          "velocity": 0.818898
        },
        {
          "time": 74.018051,
          "name": "D4",
          "midi": 62,
          "duration": 0.176471,
          "velocity": 0.88189
        },
        {
          "time": 74.370992,
          "name": "D4",
          "midi": 62,
          "duration": 0.766734,
          "velocity": 0.937008
        },
        {
          "time": 74.370992,
          "name": "D4",
          "midi": 62,
          "duration": 0.766734,
          "velocity": 1
        },
        {
          "time": 75.137726,
          "name": "C#4",
          "midi": 61,
          "duration": 0.176471,
          "velocity": 0.818898
        },
        {
          "time": 75.137726,
          "name": "C#4",
          "midi": 61,
          "duration": 0.176471,
          "velocity": 0.88189
        },
        {
          "time": 75.490667,
          "name": "C#4",
          "midi": 61,
          "duration": 0.766734,
          "velocity": 0.937008
        },
        {
          "time": 75.490667,
          "name": "C#4",
          "midi": 61,
          "duration": 0.766734,
          "velocity": 1
        },
        {
          "time": 76.257401,
          "name": "B3",
          "midi": 59,
          "duration": 0.352941,
          "velocity": 0.818898
        },
        {
          "time": 76.257401,
          "name": "B3",
          "midi": 59,
          "duration": 0.352941,
          "velocity": 0.88189
        },
        {
          "time": 76.610342,
          "name": "C#4",
          "midi": 61,
          "duration": 0.560852,
          "velocity": 0.937008
        },
        {
          "time": 76.610342,
          "name": "C#4",
          "midi": 61,
          "duration": 0.560852,
          "velocity": 1
        },
        {
          "time": 77.171194,
          "name": "D#4",
          "midi": 63,
          "duration": 0.205882,
          "velocity": 0.818898
        },
        {
          "time": 77.171194,
          "name": "D#4",
          "midi": 63,
          "duration": 0.205882,
          "velocity": 0.88189
        },
        {
          "time": 77.377076,
          "name": "E4",
          "midi": 64,
          "duration": 1.119675,
          "velocity": 0.818898
        },
        {
          "time": 77.377076,
          "name": "E4",
          "midi": 64,
          "duration": 1.119675,
          "velocity": 0.88189
        },
        {
          "time": 78.496751,
          "name": "D5",
          "midi": 74,
          "duration": 0.176471,
          "velocity": 0.818898
        },
        {
          "time": 78.496751,
          "name": "D5",
          "midi": 74,
          "duration": 0.176471,
          "velocity": 0.88189
        },
        {
          "time": 78.849692,
          "name": "D5",
          "midi": 74,
          "duration": 0.766734,
          "velocity": 0.937008
        },
        {
          "time": 78.849692,
          "name": "D5",
          "midi": 74,
          "duration": 0.766734,
          "velocity": 1
        },
        {
          "time": 79.616426,
          "name": "C#5",
          "midi": 73,
          "duration": 0.176471,
          "velocity": 0.818898
        },
        {
          "time": 79.616426,
          "name": "C#5",
          "midi": 73,
          "duration": 0.176471,
          "velocity": 0.88189
        },
        {
          "time": 79.969367,
          "name": "C#5",
          "midi": 73,
          "duration": 0.766734,
          "velocity": 0.937008
        },
        {
          "time": 79.969367,
          "name": "C#5",
          "midi": 73,
          "duration": 0.766734,
          "velocity": 1
        },
        {
          "time": 80.736101,
          "name": "B4",
          "midi": 71,
          "duration": 0.352941,
          "velocity": 0.818898
        },
        {
          "time": 80.736101,
          "name": "B4",
          "midi": 71,
          "duration": 0.338235,
          "velocity": 0.88189
        },
        {
          "time": 81.089042,
          "name": "B4",
          "midi": 71,
          "duration": 0.353955,
          "velocity": 0.818898
        },
        {
          "time": 81.089042,
          "name": "B4",
          "midi": 71,
          "duration": 0.338235,
          "velocity": 0.88189
        },
        {
          "time": 81.442998,
          "name": "B4",
          "midi": 71,
          "duration": 0.412779,
          "velocity": 0.818898
        },
        {
          "time": 81.442998,
          "name": "B4",
          "midi": 71,
          "duration": 0.396552,
          "velocity": 0.88189
        },
        {
          "time": 81.855776,
          "name": "B4",
          "midi": 71,
          "duration": 0.352941,
          "velocity": 0.818898
        },
        {
          "time": 81.855776,
          "name": "B4",
          "midi": 71,
          "duration": 0.352941,
          "velocity": 0.88189
        },
        {
          "time": 82.208717,
          "name": "C#5",
          "midi": 73,
          "duration": 0.176471,
          "velocity": 0.818898
        },
        {
          "time": 82.208717,
          "name": "C#5",
          "midi": 73,
          "duration": 0.176471,
          "velocity": 0.88189
        },
        {
          "time": 82.385188,
          "name": "B4",
          "midi": 71,
          "duration": 0.177485,
          "velocity": 0.818898
        },
        {
          "time": 82.385188,
          "name": "B4",
          "midi": 71,
          "duration": 0.177485,
          "velocity": 0.88189
        },
        {
          "time": 82.562673,
          "name": "A#4",
          "midi": 70,
          "duration": 0.412779,
          "velocity": 0.818898
        },
        {
          "time": 82.562673,
          "name": "A#4",
          "midi": 70,
          "duration": 0.412779,
          "velocity": 0.88189
        },
        {
          "time": 82.975451,
          "name": "A4",
          "midi": 69,
          "duration": 0.308823,
          "velocity": 0.818898
        },
        {
          "time": 82.975451,
          "name": "A4",
          "midi": 69,
          "duration": 0.308823,
          "velocity": 0.88189
        },
        {
          "time": 83.328392,
          "name": "A4",
          "midi": 69,
          "duration": 0.308823,
          "velocity": 0.818898
        },
        {
          "time": 83.328392,
          "name": "A4",
          "midi": 69,
          "duration": 0.308823,
          "velocity": 0.88189
        },
        {
          "time": 83.682348,
          "name": "A4",
          "midi": 69,
          "duration": 0.362069,
          "velocity": 0.818898
        },
        {
          "time": 83.682348,
          "name": "A4",
          "midi": 69,
          "duration": 0.362069,
          "velocity": 0.88189
        },
        {
          "time": 84.095126,
          "name": "A4",
          "midi": 69,
          "duration": 0.352941,
          "velocity": 0.818898
        },
        {
          "time": 84.095126,
          "name": "A4",
          "midi": 69,
          "duration": 0.352941,
          "velocity": 0.88189
        },
        {
          "time": 84.448067,
          "name": "B4",
          "midi": 71,
          "duration": 0.176471,
          "velocity": 0.818898
        },
        {
          "time": 84.448067,
          "name": "B4",
          "midi": 71,
          "duration": 0.176471,
          "velocity": 0.88189
        },
        {
          "time": 84.624538,
          "name": "A4",
          "midi": 69,
          "duration": 0.177485,
          "velocity": 0.818898
        },
        {
          "time": 84.624538,
          "name": "A4",
          "midi": 69,
          "duration": 0.177485,
          "velocity": 0.88189
        },
        {
          "time": 84.802023,
          "name": "G#4",
          "midi": 68,
          "duration": 0.412779,
          "velocity": 0.818898
        },
        {
          "time": 84.802023,
          "name": "G#4",
          "midi": 68,
          "duration": 0.412779,
          "velocity": 0.88189
        },
        {
          "time": 85.214801,
          "name": "E5",
          "midi": 76,
          "duration": 0.352941,
          "velocity": 0.818898
        },
        {
          "time": 85.214801,
          "name": "E5",
          "midi": 76,
          "duration": 0.352941,
          "velocity": 0.88189
        },
        {
          "time": 85.567742,
          "name": "G4",
          "midi": 67,
          "duration": 0.58552,
          "velocity": 0.818898
        },
        {
          "time": 85.567742,
          "name": "G4",
          "midi": 67,
          "duration": 0.58552,
          "velocity": 0.88189
        },
        {
          "time": 86.153262,
          "name": "A4",
          "midi": 69,
          "duration": 0.228959,
          "velocity": 0.818898
        },
        {
          "time": 86.153262,
          "name": "A4",
          "midi": 69,
          "duration": 0.228959,
          "velocity": 0.88189
        },
        {
          "time": 86.382221,
          "name": "F#4",
          "midi": 66,
          "duration": 0.176471,
          "velocity": 0.818898
        },
        {
          "time": 86.382221,
          "name": "F#4",
          "midi": 66,
          "duration": 0.176471,
          "velocity": 0.88189
        },
        {
          "time": 86.558692,
          "name": "F#4",
          "midi": 66,
          "duration": 0.17647,
          "velocity": 0.818898
        },
        {
          "time": 86.558692,
          "name": "F#4",
          "midi": 66,
          "duration": 0.17647,
          "velocity": 0.88189
        },
        {
          "time": 86.735162,
          "name": "A4",
          "midi": 69,
          "duration": 0.176471,
          "velocity": 0.818898
        },
        {
          "time": 86.735162,
          "name": "A4",
          "midi": 69,
          "duration": 0.176471,
          "velocity": 0.88189
        },
        {
          "time": 86.911633,
          "name": "B4",
          "midi": 71,
          "duration": 0.176838,
          "velocity": 0.818898
        },
        {
          "time": 86.911633,
          "name": "B4",
          "midi": 71,
          "duration": 0.176838,
          "velocity": 0.88189
        },
        {
          "time": 87.088471,
          "name": "C#5",
          "midi": 73,
          "duration": 0.1875,
          "velocity": 0.818898
        },
        {
          "time": 87.088471,
          "name": "C#5",
          "midi": 73,
          "duration": 0.1875,
          "velocity": 0.88189
        },
        {
          "time": 87.275971,
          "name": "D5",
          "midi": 74,
          "duration": 0.186806,
          "velocity": 0.818898
        },
        {
          "time": 87.275971,
          "name": "D5",
          "midi": 74,
          "duration": 0.186806,
          "velocity": 0.88189
        },
        {
          "time": 87.459999,
          "name": "C#5",
          "midi": 73,
          "duration": 0.667114,
          "velocity": 0.92126
        },
        {
          "time": 87.459999,
          "name": "A4",
          "midi": 69,
          "duration": 0.667114,
          "velocity": 0.92126
        },
        {
          "time": 87.462777,
          "name": "E5",
          "midi": 76,
          "duration": 0.333333,
          "velocity": 0.818898
        },
        {
          "time": 87.462777,
          "name": "E5",
          "midi": 76,
          "duration": 0.333333,
          "velocity": 0.88189
        },
        {
          "time": 87.468332,
          "name": "E5",
          "midi": 76,
          "duration": 0.333333,
          "velocity": 0.92126
        },
        {
          "time": 87.468332,
          "name": "E4",
          "midi": 64,
          "duration": 0.333333,
          "velocity": 0.92126
        },
        {
          "time": 87.79611,
          "name": "F#5",
          "midi": 78,
          "duration": 0.316666,
          "velocity": 0.818898
        },
        {
          "time": 87.79611,
          "name": "F#5",
          "midi": 78,
          "duration": 0.316666,
          "velocity": 0.88189
        },
        {
          "time": 87.801665,
          "name": "F#5",
          "midi": 78,
          "duration": 0.316666,
          "velocity": 0.92126
        },
        {
          "time": 87.801665,
          "name": "F#4",
          "midi": 66,
          "duration": 0.316666,
          "velocity": 0.92126
        },
        {
          "time": 88.127113,
          "name": "G4",
          "midi": 67,
          "duration": 0.719982,
          "velocity": 0.92126
        },
        {
          "time": 88.127113,
          "name": "C#5",
          "midi": 73,
          "duration": 0.719982,
          "velocity": 0.92126
        },
        {
          "time": 88.130339,
          "name": "E5",
          "midi": 76,
          "duration": 0.367742,
          "velocity": 0.818898
        },
        {
          "time": 88.130339,
          "name": "E5",
          "midi": 76,
          "duration": 0.367742,
          "velocity": 0.88189
        },
        {
          "time": 88.13679,
          "name": "E5",
          "midi": 76,
          "duration": 0.367742,
          "velocity": 0.92126
        },
        {
          "time": 88.13679,
          "name": "E4",
          "midi": 64,
          "duration": 0.367742,
          "velocity": 0.92126
        },
        {
          "time": 88.51654,
          "name": "F#5",
          "midi": 78,
          "duration": 0.667562,
          "velocity": 0.818898
        },
        {
          "time": 88.51654,
          "name": "F#5",
          "midi": 78,
          "duration": 0.667562,
          "velocity": 0.88189
        },
        {
          "time": 88.522095,
          "name": "F#5",
          "midi": 78,
          "duration": 0.668458,
          "velocity": 0.92126
        },
        {
          "time": 88.522095,
          "name": "F#4",
          "midi": 66,
          "duration": 0.668458,
          "velocity": 0.92126
        },
        {
          "time": 88.847095,
          "name": "D5",
          "midi": 74,
          "duration": 0.72043,
          "velocity": 0.92126
        },
        {
          "time": 88.847095,
          "name": "G#4",
          "midi": 68,
          "duration": 0.72043,
          "velocity": 0.92126
        },
        {
          "time": 89.184102,
          "name": "E5",
          "midi": 76,
          "duration": 0.367742,
          "velocity": 0.818898
        },
        {
          "time": 89.184102,
          "name": "E5",
          "midi": 76,
          "duration": 0.367742,
          "velocity": 0.88189
        },
        {
          "time": 89.190553,
          "name": "E5",
          "midi": 76,
          "duration": 0.367742,
          "velocity": 0.92126
        },
        {
          "time": 89.190553,
          "name": "E4",
          "midi": 64,
          "duration": 0.367742,
          "velocity": 0.92126
        },
        {
          "time": 89.567525,
          "name": "A4",
          "midi": 69,
          "duration": 0.667114,
          "velocity": 0.92126
        },
        {
          "time": 89.567525,
          "name": "F#4",
          "midi": 66,
          "duration": 0.667114,
          "velocity": 0.92126
        },
        {
          "time": 89.570303,
          "name": "E5",
          "midi": 76,
          "duration": 0.333333,
          "velocity": 0.818898
        },
        {
          "time": 89.570303,
          "name": "E5",
          "midi": 76,
          "duration": 0.333333,
          "velocity": 0.88189
        },
        {
          "time": 89.575858,
          "name": "E5",
          "midi": 76,
          "duration": 0.333333,
          "velocity": 0.92126
        },
        {
          "time": 89.575858,
          "name": "E4",
          "midi": 64,
          "duration": 0.333333,
          "velocity": 0.92126
        },
        {
          "time": 89.903636,
          "name": "F#5",
          "midi": 78,
          "duration": 0.316666,
          "velocity": 0.818898
        },
        {
          "time": 89.903636,
          "name": "F#5",
          "midi": 78,
          "duration": 0.316666,
          "velocity": 0.88189
        },
        {
          "time": 89.909191,
          "name": "F#5",
          "midi": 78,
          "duration": 0.316666,
          "velocity": 0.92126
        },
        {
          "time": 89.909191,
          "name": "F#4",
          "midi": 66,
          "duration": 0.316666,
          "velocity": 0.92126
        },
        {
          "time": 90.234639,
          "name": "A#4",
          "midi": 70,
          "duration": 0.719982,
          "velocity": 0.92126
        },
        {
          "time": 90.234639,
          "name": "F#4",
          "midi": 66,
          "duration": 0.719982,
          "velocity": 0.92126
        },
        {
          "time": 90.237865,
          "name": "E5",
          "midi": 76,
          "duration": 0.367742,
          "velocity": 0.818898
        },
        {
          "time": 90.237865,
          "name": "E5",
          "midi": 76,
          "duration": 0.367742,
          "velocity": 0.88189
        },
        {
          "time": 90.244316,
          "name": "E5",
          "midi": 76,
          "duration": 0.367742,
          "velocity": 0.92126
        },
        {
          "time": 90.244316,
          "name": "E4",
          "midi": 64,
          "duration": 0.367742,
          "velocity": 0.92126
        },
        {
          "time": 90.624066,
          "name": "F#5",
          "midi": 78,
          "duration": 0.668007,
          "velocity": 0.818898
        },
        {
          "time": 90.624066,
          "name": "F#5",
          "midi": 78,
          "duration": 0.668007,
          "velocity": 0.88189
        },
        {
          "time": 90.629621,
          "name": "F#5",
          "midi": 78,
          "duration": 0.669348,
          "velocity": 0.92126
        },
        {
          "time": 90.629621,
          "name": "F#4",
          "midi": 66,
          "duration": 0.669348,
          "velocity": 0.92126
        },
        {
          "time": 90.954621,
          "name": "B4",
          "midi": 71,
          "duration": 0.747289,
          "velocity": 0.92126
        },
        {
          "time": 90.954621,
          "name": "G#4",
          "midi": 68,
          "duration": 0.747289,
          "velocity": 0.92126
        },
        {
          "time": 91.292073,
          "name": "E5",
          "midi": 76,
          "duration": 0.393103,
          "velocity": 0.818898
        },
        {
          "time": 91.292073,
          "name": "E5",
          "midi": 76,
          "duration": 0.393103,
          "velocity": 0.88189
        },
        {
          "time": 91.298969,
          "name": "E5",
          "midi": 76,
          "duration": 0.393103,
          "velocity": 0.92126
        },
        {
          "time": 91.298969,
          "name": "E4",
          "midi": 64,
          "duration": 0.393103,
          "velocity": 0.92126
        },
        {
          "time": 91.704851,
          "name": "E4",
          "midi": 64,
          "duration": 0.352941,
          "velocity": 0.818898
        },
        {
          "time": 91.704851,
          "name": "E5",
          "midi": 76,
          "duration": 0.352941,
          "velocity": 0.818898
        },
        {
          "time": 91.704851,
          "name": "E5",
          "midi": 76,
          "duration": 0.352941,
          "velocity": 0.88189
        },
        {
          "time": 92.057792,
          "name": "F#5",
          "midi": 78,
          "duration": 0.335294,
          "velocity": 0.818898
        },
        {
          "time": 92.057792,
          "name": "F#4",
          "midi": 66,
          "duration": 0.335294,
          "velocity": 0.818898
        },
        {
          "time": 92.057792,
          "name": "F#5",
          "midi": 78,
          "duration": 0.335294,
          "velocity": 0.88189
        },
        {
          "time": 92.411303,
          "name": "E4",
          "midi": 64,
          "duration": 0.386201,
          "velocity": 0.818898
        },
        {
          "time": 92.411303,
          "name": "E5",
          "midi": 76,
          "duration": 0.386201,
          "velocity": 0.818898
        },
        {
          "time": 92.411303,
          "name": "E5",
          "midi": 76,
          "duration": 0.386201,
          "velocity": 0.88189
        },
        {
          "time": 92.797504,
          "name": "F#4",
          "midi": 66,
          "duration": 0.316666,
          "velocity": 0.818898
        },
        {
          "time": 92.797504,
          "name": "F#5",
          "midi": 78,
          "duration": 0.316666,
          "velocity": 0.818898
        },
        {
          "time": 92.797504,
          "name": "F#5",
          "midi": 78,
          "duration": 0.316666,
          "velocity": 0.88189
        },
        {
          "time": 93.130837,
          "name": "D#5",
          "midi": 75,
          "duration": 0.166667,
          "velocity": 0.818898
        },
        {
          "time": 93.130837,
          "name": "D#4",
          "midi": 63,
          "duration": 0.166667,
          "velocity": 0.818898
        },
        {
          "time": 93.130837,
          "name": "D#5",
          "midi": 75,
          "duration": 0.166667,
          "velocity": 0.88189
        },
        {
          "time": 93.297503,
          "name": "C#4",
          "midi": 61,
          "duration": 0.167563,
          "velocity": 0.818898
        },
        {
          "time": 93.297503,
          "name": "C#5",
          "midi": 73,
          "duration": 0.167563,
          "velocity": 0.818898
        },
        {
          "time": 93.297503,
          "name": "C#5",
          "midi": 73,
          "duration": 0.167563,
          "velocity": 0.88189
        },
        {
          "time": 93.465066,
          "name": "B3",
          "midi": 59,
          "duration": 0.367742,
          "velocity": 0.818898
        },
        {
          "time": 93.465066,
          "name": "B4",
          "midi": 71,
          "duration": 0.367742,
          "velocity": 0.818898
        },
        {
          "time": 93.465066,
          "name": "B4",
          "midi": 71,
          "duration": 0.367742,
          "velocity": 0.88189
        },
        {
          "time": 93.851267,
          "name": "D5",
          "midi": 74,
          "duration": 0.333333,
          "velocity": 0.818898
        },
        {
          "time": 93.851267,
          "name": "D4",
          "midi": 62,
          "duration": 0.333333,
          "velocity": 0.818898
        },
        {
          "time": 93.851267,
          "name": "D5",
          "midi": 74,
          "duration": 0.333333,
          "velocity": 0.88189
        },
        {
          "time": 94.1846,
          "name": "E5",
          "midi": 76,
          "duration": 0.316666,
          "velocity": 0.818898
        },
        {
          "time": 94.1846,
          "name": "E4",
          "midi": 64,
          "duration": 0.316666,
          "velocity": 0.818898
        },
        {
          "time": 94.1846,
          "name": "E5",
          "midi": 76,
          "duration": 0.316666,
          "velocity": 0.88189
        },
        {
          "time": 94.518829,
          "name": "D5",
          "midi": 74,
          "duration": 0.386201,
          "velocity": 0.818898
        },
        {
          "time": 94.518829,
          "name": "D4",
          "midi": 62,
          "duration": 0.386201,
          "velocity": 0.818898
        },
        {
          "time": 94.518829,
          "name": "D5",
          "midi": 74,
          "duration": 0.386201,
          "velocity": 0.88189
        },
        {
          "time": 94.90503,
          "name": "E5",
          "midi": 76,
          "duration": 0.316666,
          "velocity": 0.818898
        },
        {
          "time": 94.90503,
          "name": "E4",
          "midi": 64,
          "duration": 0.316666,
          "velocity": 0.818898
        },
        {
          "time": 94.90503,
          "name": "E5",
          "midi": 76,
          "duration": 0.316666,
          "velocity": 0.88189
        },
        {
          "time": 95.238363,
          "name": "C#5",
          "midi": 73,
          "duration": 0.166667,
          "velocity": 0.818898
        },
        {
          "time": 95.238363,
          "name": "C#4",
          "midi": 61,
          "duration": 0.166667,
          "velocity": 0.818898
        },
        {
          "time": 95.238363,
          "name": "C#5",
          "midi": 73,
          "duration": 0.166667,
          "velocity": 0.88189
        },
        {
          "time": 95.405029,
          "name": "B3",
          "midi": 59,
          "duration": 0.167563,
          "velocity": 0.818898
        },
        {
          "time": 95.405029,
          "name": "B4",
          "midi": 71,
          "duration": 0.167563,
          "velocity": 0.818898
        },
        {
          "time": 95.405029,
          "name": "B4",
          "midi": 71,
          "duration": 0.167563,
          "velocity": 0.88189
        },
        {
          "time": 95.572592,
          "name": "A3",
          "midi": 57,
          "duration": 0.367742,
          "velocity": 0.818898
        },
        {
          "time": 95.572592,
          "name": "A4",
          "midi": 69,
          "duration": 0.367742,
          "velocity": 0.818898
        },
        {
          "time": 95.572592,
          "name": "A4",
          "midi": 69,
          "duration": 0.367742,
          "velocity": 0.88189
        },
        {
          "time": 95.956015,
          "name": "C#5",
          "midi": 73,
          "duration": 0.667114,
          "velocity": 0.92126
        },
        {
          "time": 95.956015,
          "name": "A4",
          "midi": 69,
          "duration": 0.667114,
          "velocity": 0.92126
        },
        {
          "time": 95.958793,
          "name": "E5",
          "midi": 76,
          "duration": 0.333333,
          "velocity": 0.818898
        },
        {
          "time": 95.958793,
          "name": "E5",
          "midi": 76,
          "duration": 0.333333,
          "velocity": 0.88189
        },
        {
          "time": 95.964348,
          "name": "E5",
          "midi": 76,
          "duration": 0.333333,
          "velocity": 0.92126
        },
        {
          "time": 95.964348,
          "name": "E4",
          "midi": 64,
          "duration": 0.333333,
          "velocity": 0.92126
        },
        {
          "time": 96.292126,
          "name": "F#5",
          "midi": 78,
          "duration": 0.316666,
          "velocity": 0.818898
        },
        {
          "time": 96.292126,
          "name": "F#5",
          "midi": 78,
          "duration": 0.316666,
          "velocity": 0.88189
        },
        {
          "time": 96.297681,
          "name": "F#5",
          "midi": 78,
          "duration": 0.316666,
          "velocity": 0.92126
        },
        {
          "time": 96.297681,
          "name": "F#4",
          "midi": 66,
          "duration": 0.316666,
          "velocity": 0.92126
        },
        {
          "time": 96.623129,
          "name": "G4",
          "midi": 67,
          "duration": 0.719982,
          "velocity": 0.92126
        },
        {
          "time": 96.623129,
          "name": "C#5",
          "midi": 73,
          "duration": 0.719982,
          "velocity": 0.92126
        },
        {
          "time": 96.626355,
          "name": "E5",
          "midi": 76,
          "duration": 0.367742,
          "velocity": 0.818898
        },
        {
          "time": 96.626355,
          "name": "E5",
          "midi": 76,
          "duration": 0.367742,
          "velocity": 0.88189
        },
        {
          "time": 96.632806,
          "name": "E5",
          "midi": 76,
          "duration": 0.367742,
          "velocity": 0.92126
        },
        {
          "time": 96.632806,
          "name": "E4",
          "midi": 64,
          "duration": 0.367742,
          "velocity": 0.92126
        },
        {
          "time": 97.012556,
          "name": "F#5",
          "midi": 78,
          "duration": 0.667562,
          "velocity": 0.818898
        },
        {
          "time": 97.012556,
          "name": "F#5",
          "midi": 78,
          "duration": 0.667562,
          "velocity": 0.88189
        },
        {
          "time": 97.018111,
          "name": "F#5",
          "midi": 78,
          "duration": 0.668458,
          "velocity": 0.92126
        },
        {
          "time": 97.018111,
          "name": "F#4",
          "midi": 66,
          "duration": 0.668458,
          "velocity": 0.92126
        },
        {
          "time": 97.343111,
          "name": "D5",
          "midi": 74,
          "duration": 0.72043,
          "velocity": 0.92126
        },
        {
          "time": 97.343111,
          "name": "G#4",
          "midi": 68,
          "duration": 0.72043,
          "velocity": 0.92126
        },
        {
          "time": 97.680118,
          "name": "E5",
          "midi": 76,
          "duration": 0.367742,
          "velocity": 0.818898
        },
        {
          "time": 97.680118,
          "name": "E5",
          "midi": 76,
          "duration": 0.367742,
          "velocity": 0.88189
        },
        {
          "time": 97.686569,
          "name": "E5",
          "midi": 76,
          "duration": 0.367742,
          "velocity": 0.92126
        },
        {
          "time": 97.686569,
          "name": "E4",
          "midi": 64,
          "duration": 0.367742,
          "velocity": 0.92126
        },
        {
          "time": 98.063541,
          "name": "A4",
          "midi": 69,
          "duration": 0.667114,
          "velocity": 0.92126
        },
        {
          "time": 98.063541,
          "name": "F#4",
          "midi": 66,
          "duration": 0.667114,
          "velocity": 0.92126
        },
        {
          "time": 98.066319,
          "name": "E5",
          "midi": 76,
          "duration": 0.333333,
          "velocity": 0.818898
        },
        {
          "time": 98.066319,
          "name": "E5",
          "midi": 76,
          "duration": 0.333333,
          "velocity": 0.88189
        },
        {
          "time": 98.071874,
          "name": "E5",
          "midi": 76,
          "duration": 0.333333,
          "velocity": 0.92126
        },
        {
          "time": 98.071874,
          "name": "E4",
          "midi": 64,
          "duration": 0.333333,
          "velocity": 0.92126
        },
        {
          "time": 98.399652,
          "name": "F#5",
          "midi": 78,
          "duration": 0.316666,
          "velocity": 0.818898
        },
        {
          "time": 98.399652,
          "name": "F#5",
          "midi": 78,
          "duration": 0.316666,
          "velocity": 0.88189
        },
        {
          "time": 98.405207,
          "name": "F#5",
          "midi": 78,
          "duration": 0.316666,
          "velocity": 0.92126
        },
        {
          "time": 98.405207,
          "name": "F#4",
          "midi": 66,
          "duration": 0.316666,
          "velocity": 0.92126
        },
        {
          "time": 98.730655,
          "name": "A#4",
          "midi": 70,
          "duration": 0.719982,
          "velocity": 0.92126
        },
        {
          "time": 98.730655,
          "name": "F#4",
          "midi": 66,
          "duration": 0.719982,
          "velocity": 0.92126
        },
        {
          "time": 98.733881,
          "name": "E5",
          "midi": 76,
          "duration": 0.367742,
          "velocity": 0.818898
        },
        {
          "time": 98.733881,
          "name": "E5",
          "midi": 76,
          "duration": 0.367742,
          "velocity": 0.88189
        },
        {
          "time": 98.740332,
          "name": "E5",
          "midi": 76,
          "duration": 0.367742,
          "velocity": 0.92126
        },
        {
          "time": 98.740332,
          "name": "E4",
          "midi": 64,
          "duration": 0.367742,
          "velocity": 0.92126
        },
        {
          "time": 99.120082,
          "name": "F#5",
          "midi": 78,
          "duration": 0.668007,
          "velocity": 0.818898
        },
        {
          "time": 99.120082,
          "name": "F#5",
          "midi": 78,
          "duration": 0.668007,
          "velocity": 0.88189
        },
        {
          "time": 99.125637,
          "name": "F#5",
          "midi": 78,
          "duration": 0.669348,
          "velocity": 0.92126
        },
        {
          "time": 99.125637,
          "name": "F#4",
          "midi": 66,
          "duration": 0.669348,
          "velocity": 0.92126
        },
        {
          "time": 99.450637,
          "name": "B4",
          "midi": 71,
          "duration": 0.747289,
          "velocity": 0.92126
        },
        {
          "time": 99.450637,
          "name": "G#4",
          "midi": 68,
          "duration": 0.747289,
          "velocity": 0.92126
        },
        {
          "time": 99.788089,
          "name": "E5",
          "midi": 76,
          "duration": 0.393103,
          "velocity": 0.818898
        },
        {
          "time": 99.788089,
          "name": "E5",
          "midi": 76,
          "duration": 0.393103,
          "velocity": 0.88189
        },
        {
          "time": 99.794985,
          "name": "E5",
          "midi": 76,
          "duration": 0.393103,
          "velocity": 0.92126
        },
        {
          "time": 99.794985,
          "name": "E4",
          "midi": 64,
          "duration": 0.393103,
          "velocity": 0.92126
        },
        {
          "time": 100.200867,
          "name": "E4",
          "midi": 64,
          "duration": 0.352941,
          "velocity": 0.818898
        },
        {
          "time": 100.200867,
          "name": "E5",
          "midi": 76,
          "duration": 0.352941,
          "velocity": 0.818898
        },
        {
          "time": 100.200867,
          "name": "E5",
          "midi": 76,
          "duration": 0.352941,
          "velocity": 0.88189
        },
        {
          "time": 100.553808,
          "name": "F#5",
          "midi": 78,
          "duration": 0.335294,
          "velocity": 0.818898
        },
        {
          "time": 100.553808,
          "name": "F#4",
          "midi": 66,
          "duration": 0.335294,
          "velocity": 0.818898
        },
        {
          "time": 100.553808,
          "name": "F#5",
          "midi": 78,
          "duration": 0.335294,
          "velocity": 0.88189
        },
        {
          "time": 100.907319,
          "name": "E5",
          "midi": 76,
          "duration": 0.386201,
          "velocity": 0.818898
        },
        {
          "time": 100.907319,
          "name": "E4",
          "midi": 64,
          "duration": 0.386201,
          "velocity": 0.818898
        },
        {
          "time": 100.907319,
          "name": "E5",
          "midi": 76,
          "duration": 0.386201,
          "velocity": 0.88189
        },
        {
          "time": 101.29352,
          "name": "F#4",
          "midi": 66,
          "duration": 0.316666,
          "velocity": 0.818898
        },
        {
          "time": 101.29352,
          "name": "F#5",
          "midi": 78,
          "duration": 0.316666,
          "velocity": 0.818898
        },
        {
          "time": 101.29352,
          "name": "F#5",
          "midi": 78,
          "duration": 0.316666,
          "velocity": 0.88189
        },
        {
          "time": 101.626853,
          "name": "D#4",
          "midi": 63,
          "duration": 0.166667,
          "velocity": 0.818898
        },
        {
          "time": 101.626853,
          "name": "D#5",
          "midi": 75,
          "duration": 0.166667,
          "velocity": 0.818898
        },
        {
          "time": 101.626853,
          "name": "D#5",
          "midi": 75,
          "duration": 0.166667,
          "velocity": 0.88189
        },
        {
          "time": 101.793519,
          "name": "C#4",
          "midi": 61,
          "duration": 0.167563,
          "velocity": 0.818898
        },
        {
          "time": 101.793519,
          "name": "C#5",
          "midi": 73,
          "duration": 0.167563,
          "velocity": 0.818898
        },
        {
          "time": 101.793519,
          "name": "C#5",
          "midi": 73,
          "duration": 0.167563,
          "velocity": 0.88189
        },
        {
          "time": 101.961082,
          "name": "B3",
          "midi": 59,
          "duration": 0.367742,
          "velocity": 0.818898
        },
        {
          "time": 101.961082,
          "name": "B4",
          "midi": 71,
          "duration": 0.367742,
          "velocity": 0.818898
        },
        {
          "time": 101.961082,
          "name": "B4",
          "midi": 71,
          "duration": 0.367742,
          "velocity": 0.88189
        },
        {
          "time": 102.347283,
          "name": "E5",
          "midi": 76,
          "duration": 0.316666,
          "velocity": 0.818898
        },
        {
          "time": 102.347283,
          "name": "E4",
          "midi": 64,
          "duration": 0.316666,
          "velocity": 0.818898
        },
        {
          "time": 102.347283,
          "name": "E5",
          "midi": 76,
          "duration": 0.316666,
          "velocity": 0.88189
        },
        {
          "time": 102.680616,
          "name": "D4",
          "midi": 62,
          "duration": 0.166667,
          "velocity": 0.818898
        },
        {
          "time": 102.680616,
          "name": "D5",
          "midi": 74,
          "duration": 0.166667,
          "velocity": 0.818898
        },
        {
          "time": 102.680616,
          "name": "D5",
          "midi": 74,
          "duration": 0.166667,
          "velocity": 0.88189
        },
        {
          "time": 102.847282,
          "name": "C#4",
          "midi": 61,
          "duration": 0.167563,
          "velocity": 0.818898
        },
        {
          "time": 102.847282,
          "name": "C#5",
          "midi": 73,
          "duration": 0.167563,
          "velocity": 0.818898
        },
        {
          "time": 102.847282,
          "name": "C#5",
          "midi": 73,
          "duration": 0.167563,
          "velocity": 0.88189
        },
        {
          "time": 103.014845,
          "name": "B4",
          "midi": 71,
          "duration": 0.193549,
          "velocity": 0.818898
        },
        {
          "time": 103.014845,
          "name": "B3",
          "midi": 59,
          "duration": 0.193549,
          "velocity": 0.818898
        },
        {
          "time": 103.014845,
          "name": "B4",
          "midi": 71,
          "duration": 0.193549,
          "velocity": 0.88189
        },
        {
          "time": 103.208393,
          "name": "C#4",
          "midi": 61,
          "duration": 0.192652,
          "velocity": 0.818898
        },
        {
          "time": 103.208393,
          "name": "C#5",
          "midi": 73,
          "duration": 0.192652,
          "velocity": 0.818898
        },
        {
          "time": 103.208393,
          "name": "C#5",
          "midi": 73,
          "duration": 0.192652,
          "velocity": 0.88189
        },
        {
          "time": 103.401046,
          "name": "A3",
          "midi": 57,
          "duration": 0.166667,
          "velocity": 0.818898
        },
        {
          "time": 103.401046,
          "name": "A4",
          "midi": 69,
          "duration": 0.166667,
          "velocity": 0.818898
        },
        {
          "time": 103.401046,
          "name": "A4",
          "midi": 69,
          "duration": 0.166667,
          "velocity": 0.88189
        },
        {
          "time": 103.567712,
          "name": "G#3",
          "midi": 56,
          "duration": 0.166666,
          "velocity": 0.818898
        },
        {
          "time": 103.567712,
          "name": "G#4",
          "midi": 68,
          "duration": 0.166666,
          "velocity": 0.818898
        },
        {
          "time": 103.567712,
          "name": "G#4",
          "midi": 68,
          "duration": 0.166666,
          "velocity": 0.88189
        },
        {
          "time": 103.734379,
          "name": "A4",
          "midi": 69,
          "duration": 0.166667,
          "velocity": 0.818898
        },
        {
          "time": 103.734379,
          "name": "A3",
          "midi": 57,
          "duration": 0.166667,
          "velocity": 0.818898
        },
        {
          "time": 103.734379,
          "name": "A4",
          "midi": 69,
          "duration": 0.166667,
          "velocity": 0.88189
        },
        {
          "time": 103.901045,
          "name": "B4",
          "midi": 71,
          "duration": 0.167563,
          "velocity": 0.818898
        },
        {
          "time": 103.901045,
          "name": "B3",
          "midi": 59,
          "duration": 0.167563,
          "velocity": 0.818898
        },
        {
          "time": 103.901045,
          "name": "B4",
          "midi": 71,
          "duration": 0.167563,
          "velocity": 0.88189
        },
        {
          "time": 104.068608,
          "name": "C#5",
          "midi": 73,
          "duration": 0.193549,
          "velocity": 0.818898
        },
        {
          "time": 104.068608,
          "name": "C#4",
          "midi": 61,
          "duration": 0.193549,
          "velocity": 0.818898
        },
        {
          "time": 104.068608,
          "name": "C#5",
          "midi": 73,
          "duration": 0.193549,
          "velocity": 0.88189
        },
        {
          "time": 104.262156,
          "name": "D5",
          "midi": 74,
          "duration": 0.192652,
          "velocity": 0.818898
        },
        {
          "time": 104.262156,
          "name": "D4",
          "midi": 62,
          "duration": 0.192652,
          "velocity": 0.818898
        },
        {
          "time": 104.262156,
          "name": "D5",
          "midi": 74,
          "duration": 0.192652,
          "velocity": 0.88189
        },
        {
          "time": 104.452031,
          "name": "C#5",
          "midi": 73,
          "duration": 0.667114,
          "velocity": 0.92126
        },
        {
          "time": 104.452031,
          "name": "A4",
          "midi": 69,
          "duration": 0.667114,
          "velocity": 0.92126
        },
        {
          "time": 104.454809,
          "name": "E5",
          "midi": 76,
          "duration": 0.333333,
          "velocity": 0.818898
        },
        {
          "time": 104.454809,
          "name": "E5",
          "midi": 76,
          "duration": 0.333333,
          "velocity": 0.88189
        },
        {
          "time": 104.460364,
          "name": "E5",
          "midi": 76,
          "duration": 0.333333,
          "velocity": 0.92126
        },
        {
          "time": 104.460364,
          "name": "E4",
          "midi": 64,
          "duration": 0.333333,
          "velocity": 0.92126
        },
        {
          "time": 104.788142,
          "name": "F#5",
          "midi": 78,
          "duration": 0.316666,
          "velocity": 0.818898
        },
        {
          "time": 104.788142,
          "name": "F#5",
          "midi": 78,
          "duration": 0.316666,
          "velocity": 0.88189
        },
        {
          "time": 104.793697,
          "name": "F#5",
          "midi": 78,
          "duration": 0.316666,
          "velocity": 0.92126
        },
        {
          "time": 104.793697,
          "name": "F#4",
          "midi": 66,
          "duration": 0.316666,
          "velocity": 0.92126
        },
        {
          "time": 105.119145,
          "name": "G4",
          "midi": 67,
          "duration": 0.719982,
          "velocity": 0.92126
        },
        {
          "time": 105.119145,
          "name": "C#5",
          "midi": 73,
          "duration": 0.719982,
          "velocity": 0.92126
        },
        {
          "time": 105.122371,
          "name": "E5",
          "midi": 76,
          "duration": 0.367742,
          "velocity": 0.818898
        },
        {
          "time": 105.122371,
          "name": "E5",
          "midi": 76,
          "duration": 0.367742,
          "velocity": 0.88189
        },
        {
          "time": 105.128822,
          "name": "E5",
          "midi": 76,
          "duration": 0.367742,
          "velocity": 0.92126
        },
        {
          "time": 105.128822,
          "name": "E4",
          "midi": 64,
          "duration": 0.367742,
          "velocity": 0.92126
        },
        {
          "time": 105.508572,
          "name": "F#5",
          "midi": 78,
          "duration": 0.667562,
          "velocity": 0.818898
        },
        {
          "time": 105.508572,
          "name": "F#5",
          "midi": 78,
          "duration": 0.667562,
          "velocity": 0.88189
        },
        {
          "time": 105.514127,
          "name": "F#5",
          "midi": 78,
          "duration": 0.668458,
          "velocity": 0.92126
        },
        {
          "time": 105.514127,
          "name": "F#4",
          "midi": 66,
          "duration": 0.668458,
          "velocity": 0.92126
        },
        {
          "time": 105.839127,
          "name": "D5",
          "midi": 74,
          "duration": 0.72043,
          "velocity": 0.92126
        },
        {
          "time": 105.839127,
          "name": "G#4",
          "midi": 68,
          "duration": 0.72043,
          "velocity": 0.92126
        },
        {
          "time": 106.176134,
          "name": "E5",
          "midi": 76,
          "duration": 0.367742,
          "velocity": 0.818898
        },
        {
          "time": 106.176134,
          "name": "E5",
          "midi": 76,
          "duration": 0.367742,
          "velocity": 0.88189
        },
        {
          "time": 106.182585,
          "name": "E5",
          "midi": 76,
          "duration": 0.367742,
          "velocity": 0.92126
        },
        {
          "time": 106.182585,
          "name": "E4",
          "midi": 64,
          "duration": 0.367742,
          "velocity": 0.92126
        },
        {
          "time": 106.559557,
          "name": "A4",
          "midi": 69,
          "duration": 0.667114,
          "velocity": 0.92126
        },
        {
          "time": 106.559557,
          "name": "F#4",
          "midi": 66,
          "duration": 0.667114,
          "velocity": 0.92126
        },
        {
          "time": 106.562335,
          "name": "E5",
          "midi": 76,
          "duration": 0.333333,
          "velocity": 0.818898
        },
        {
          "time": 106.562335,
          "name": "E5",
          "midi": 76,
          "duration": 0.333333,
          "velocity": 0.88189
        },
        {
          "time": 106.56789,
          "name": "E5",
          "midi": 76,
          "duration": 0.333333,
          "velocity": 0.92126
        },
        {
          "time": 106.56789,
          "name": "E4",
          "midi": 64,
          "duration": 0.333333,
          "velocity": 0.92126
        },
        {
          "time": 106.895668,
          "name": "F#5",
          "midi": 78,
          "duration": 0.316666,
          "velocity": 0.818898
        },
        {
          "time": 106.895668,
          "name": "F#5",
          "midi": 78,
          "duration": 0.316666,
          "velocity": 0.88189
        },
        {
          "time": 106.901223,
          "name": "F#5",
          "midi": 78,
          "duration": 0.316666,
          "velocity": 0.92126
        },
        {
          "time": 106.901223,
          "name": "F#4",
          "midi": 66,
          "duration": 0.316666,
          "velocity": 0.92126
        },
        {
          "time": 107.226671,
          "name": "A#4",
          "midi": 70,
          "duration": 0.719982,
          "velocity": 0.92126
        },
        {
          "time": 107.226671,
          "name": "F#4",
          "midi": 66,
          "duration": 0.719982,
          "velocity": 0.92126
        },
        {
          "time": 107.229897,
          "name": "E5",
          "midi": 76,
          "duration": 0.367742,
          "velocity": 0.818898
        },
        {
          "time": 107.229897,
          "name": "E5",
          "midi": 76,
          "duration": 0.367742,
          "velocity": 0.88189
        },
        {
          "time": 107.236348,
          "name": "E5",
          "midi": 76,
          "duration": 0.367742,
          "velocity": 0.92126
        },
        {
          "time": 107.236348,
          "name": "E4",
          "midi": 64,
          "duration": 0.367742,
          "velocity": 0.92126
        },
        {
          "time": 107.616098,
          "name": "F#5",
          "midi": 78,
          "duration": 0.668007,
          "velocity": 0.818898
        },
        {
          "time": 107.616098,
          "name": "F#5",
          "midi": 78,
          "duration": 0.668007,
          "velocity": 0.88189
        },
        {
          "time": 107.621653,
          "name": "F#5",
          "midi": 78,
          "duration": 0.669348,
          "velocity": 0.92126
        },
        {
          "time": 107.621653,
          "name": "F#4",
          "midi": 66,
          "duration": 0.669348,
          "velocity": 0.92126
        },
        {
          "time": 107.946653,
          "name": "B4",
          "midi": 71,
          "duration": 0.747289,
          "velocity": 0.92126
        },
        {
          "time": 107.946653,
          "name": "G#4",
          "midi": 68,
          "duration": 0.747289,
          "velocity": 0.92126
        },
        {
          "time": 108.284105,
          "name": "E5",
          "midi": 76,
          "duration": 0.393103,
          "velocity": 0.818898
        },
        {
          "time": 108.284105,
          "name": "E5",
          "midi": 76,
          "duration": 0.393103,
          "velocity": 0.88189
        },
        {
          "time": 108.291001,
          "name": "E5",
          "midi": 76,
          "duration": 0.393103,
          "velocity": 0.92126
        },
        {
          "time": 108.291001,
          "name": "E4",
          "midi": 64,
          "duration": 0.393103,
          "velocity": 0.92126
        },
        {
          "time": 108.696883,
          "name": "E4",
          "midi": 64,
          "duration": 0.352941,
          "velocity": 0.818898
        },
        {
          "time": 108.696883,
          "name": "E5",
          "midi": 76,
          "duration": 0.352941,
          "velocity": 0.818898
        },
        {
          "time": 108.696883,
          "name": "E5",
          "midi": 76,
          "duration": 0.352941,
          "velocity": 0.88189
        },
        {
          "time": 109.049824,
          "name": "F#4",
          "midi": 66,
          "duration": 0.335294,
          "velocity": 0.818898
        },
        {
          "time": 109.049824,
          "name": "F#5",
          "midi": 78,
          "duration": 0.335294,
          "velocity": 0.818898
        },
        {
          "time": 109.049824,
          "name": "F#5",
          "midi": 78,
          "duration": 0.335294,
          "velocity": 0.88189
        },
        {
          "time": 109.403335,
          "name": "E4",
          "midi": 64,
          "duration": 0.386201,
          "velocity": 0.818898
        },
        {
          "time": 109.403335,
          "name": "E5",
          "midi": 76,
          "duration": 0.386201,
          "velocity": 0.818898
        },
        {
          "time": 109.403335,
          "name": "E5",
          "midi": 76,
          "duration": 0.386201,
          "velocity": 0.88189
        },
        {
          "time": 109.789536,
          "name": "F#4",
          "midi": 66,
          "duration": 0.316666,
          "velocity": 0.818898
        },
        {
          "time": 109.789536,
          "name": "F#5",
          "midi": 78,
          "duration": 0.316666,
          "velocity": 0.818898
        },
        {
          "time": 109.789536,
          "name": "F#5",
          "midi": 78,
          "duration": 0.316666,
          "velocity": 0.88189
        },
        {
          "time": 110.122869,
          "name": "D#4",
          "midi": 63,
          "duration": 0.166667,
          "velocity": 0.818898
        },
        {
          "time": 110.122869,
          "name": "D#5",
          "midi": 75,
          "duration": 0.166667,
          "velocity": 0.818898
        },
        {
          "time": 110.122869,
          "name": "D#5",
          "midi": 75,
          "duration": 0.166667,
          "velocity": 0.88189
        },
        {
          "time": 110.289535,
          "name": "C#5",
          "midi": 73,
          "duration": 0.167563,
          "velocity": 0.818898
        },
        {
          "time": 110.289535,
          "name": "C#4",
          "midi": 61,
          "duration": 0.167563,
          "velocity": 0.818898
        },
        {
          "time": 110.289535,
          "name": "C#5",
          "midi": 73,
          "duration": 0.167563,
          "velocity": 0.88189
        },
        {
          "time": 110.457098,
          "name": "B3",
          "midi": 59,
          "duration": 0.367742,
          "velocity": 0.818898
        },
        {
          "time": 110.457098,
          "name": "B4",
          "midi": 71,
          "duration": 0.367742,
          "velocity": 0.818898
        },
        {
          "time": 110.457098,
          "name": "B4",
          "midi": 71,
          "duration": 0.367742,
          "velocity": 0.88189
        },
        {
          "time": 110.843299,
          "name": "D4",
          "midi": 62,
          "duration": 0.333333,
          "velocity": 0.818898
        },
        {
          "time": 110.843299,
          "name": "D5",
          "midi": 74,
          "duration": 0.333333,
          "velocity": 0.818898
        },
        {
          "time": 110.843299,
          "name": "D5",
          "midi": 74,
          "duration": 0.333333,
          "velocity": 0.88189
        },
        {
          "time": 111.176632,
          "name": "E4",
          "midi": 64,
          "duration": 0.316666,
          "velocity": 0.818898
        },
        {
          "time": 111.176632,
          "name": "E5",
          "midi": 76,
          "duration": 0.316666,
          "velocity": 0.818898
        },
        {
          "time": 111.176632,
          "name": "E5",
          "midi": 76,
          "duration": 0.316666,
          "velocity": 0.88189
        },
        {
          "time": 111.510861,
          "name": "D5",
          "midi": 74,
          "duration": 0.386201,
          "velocity": 0.818898
        },
        {
          "time": 111.510861,
          "name": "D4",
          "midi": 62,
          "duration": 0.386201,
          "velocity": 0.818898
        },
        {
          "time": 111.510861,
          "name": "D5",
          "midi": 74,
          "duration": 0.386201,
          "velocity": 0.88189
        },
        {
          "time": 111.897062,
          "name": "E5",
          "midi": 76,
          "duration": 0.316666,
          "velocity": 0.818898
        },
        {
          "time": 111.897062,
          "name": "E4",
          "midi": 64,
          "duration": 0.316666,
          "velocity": 0.818898
        },
        {
          "time": 111.897062,
          "name": "E5",
          "midi": 76,
          "duration": 0.316666,
          "velocity": 0.88189
        },
        {
          "time": 112.230395,
          "name": "C#5",
          "midi": 73,
          "duration": 0.166667,
          "velocity": 0.818898
        },
        {
          "time": 112.230395,
          "name": "C#4",
          "midi": 61,
          "duration": 0.166667,
          "velocity": 0.818898
        },
        {
          "time": 112.230395,
          "name": "C#5",
          "midi": 73,
          "duration": 0.166667,
          "velocity": 0.88189
        },
        {
          "time": 112.397061,
          "name": "B4",
          "midi": 71,
          "duration": 0.167563,
          "velocity": 0.818898
        },
        {
          "time": 112.397061,
          "name": "B3",
          "midi": 59,
          "duration": 0.167563,
          "velocity": 0.818898
        },
        {
          "time": 112.397061,
          "name": "B4",
          "midi": 71,
          "duration": 0.167563,
          "velocity": 0.88189
        },
        {
          "time": 112.564624,
          "name": "A4",
          "midi": 69,
          "duration": 0.367742,
          "velocity": 0.818898
        },
        {
          "time": 112.564624,
          "name": "A3",
          "midi": 57,
          "duration": 0.367742,
          "velocity": 0.818898
        },
        {
          "time": 112.564624,
          "name": "A4",
          "midi": 69,
          "duration": 0.367742,
          "velocity": 0.88189
        },
        {
          "time": 112.948047,
          "name": "C#5",
          "midi": 73,
          "duration": 0.667114,
          "velocity": 0.92126
        },
        {
          "time": 112.948047,
          "name": "A4",
          "midi": 69,
          "duration": 0.667114,
          "velocity": 0.92126
        },
        {
          "time": 112.950825,
          "name": "E5",
          "midi": 76,
          "duration": 0.333333,
          "velocity": 0.818898
        },
        {
          "time": 112.950825,
          "name": "E5",
          "midi": 76,
          "duration": 0.333333,
          "velocity": 0.88189
        },
        {
          "time": 112.95638,
          "name": "E5",
          "midi": 76,
          "duration": 0.333333,
          "velocity": 0.92126
        },
        {
          "time": 112.95638,
          "name": "E4",
          "midi": 64,
          "duration": 0.333333,
          "velocity": 0.92126
        },
        {
          "time": 113.284158,
          "name": "F#5",
          "midi": 78,
          "duration": 0.316666,
          "velocity": 0.818898
        },
        {
          "time": 113.284158,
          "name": "F#5",
          "midi": 78,
          "duration": 0.316666,
          "velocity": 0.88189
        },
        {
          "time": 113.289713,
          "name": "F#5",
          "midi": 78,
          "duration": 0.316666,
          "velocity": 0.92126
        },
        {
          "time": 113.289713,
          "name": "F#4",
          "midi": 66,
          "duration": 0.316666,
          "velocity": 0.92126
        },
        {
          "time": 113.615161,
          "name": "G4",
          "midi": 67,
          "duration": 0.719982,
          "velocity": 0.92126
        },
        {
          "time": 113.615161,
          "name": "C#5",
          "midi": 73,
          "duration": 0.719982,
          "velocity": 0.92126
        },
        {
          "time": 113.618387,
          "name": "E5",
          "midi": 76,
          "duration": 0.367742,
          "velocity": 0.818898
        },
        {
          "time": 113.618387,
          "name": "E5",
          "midi": 76,
          "duration": 0.367742,
          "velocity": 0.88189
        },
        {
          "time": 113.624838,
          "name": "E5",
          "midi": 76,
          "duration": 0.367742,
          "velocity": 0.92126
        },
        {
          "time": 113.624838,
          "name": "E4",
          "midi": 64,
          "duration": 0.367742,
          "velocity": 0.92126
        },
        {
          "time": 114.004588,
          "name": "F#5",
          "midi": 78,
          "duration": 0.667562,
          "velocity": 0.818898
        },
        {
          "time": 114.004588,
          "name": "F#5",
          "midi": 78,
          "duration": 0.667562,
          "velocity": 0.88189
        },
        {
          "time": 114.010143,
          "name": "F#5",
          "midi": 78,
          "duration": 0.668458,
          "velocity": 0.92126
        },
        {
          "time": 114.010143,
          "name": "F#4",
          "midi": 66,
          "duration": 0.668458,
          "velocity": 0.92126
        },
        {
          "time": 114.335143,
          "name": "D5",
          "midi": 74,
          "duration": 0.72043,
          "velocity": 0.92126
        },
        {
          "time": 114.335143,
          "name": "G#4",
          "midi": 68,
          "duration": 0.72043,
          "velocity": 0.92126
        },
        {
          "time": 114.67215,
          "name": "E5",
          "midi": 76,
          "duration": 0.367742,
          "velocity": 0.818898
        },
        {
          "time": 114.67215,
          "name": "E5",
          "midi": 76,
          "duration": 0.367742,
          "velocity": 0.88189
        },
        {
          "time": 114.678601,
          "name": "E5",
          "midi": 76,
          "duration": 0.367742,
          "velocity": 0.92126
        },
        {
          "time": 114.678601,
          "name": "E4",
          "midi": 64,
          "duration": 0.367742,
          "velocity": 0.92126
        },
        {
          "time": 115.055573,
          "name": "A4",
          "midi": 69,
          "duration": 0.667114,
          "velocity": 0.92126
        },
        {
          "time": 115.055573,
          "name": "F#4",
          "midi": 66,
          "duration": 0.667114,
          "velocity": 0.92126
        },
        {
          "time": 115.058351,
          "name": "E5",
          "midi": 76,
          "duration": 0.333333,
          "velocity": 0.818898
        },
        {
          "time": 115.058351,
          "name": "E5",
          "midi": 76,
          "duration": 0.333333,
          "velocity": 0.88189
        },
        {
          "time": 115.063906,
          "name": "E5",
          "midi": 76,
          "duration": 0.333333,
          "velocity": 0.92126
        },
        {
          "time": 115.063906,
          "name": "E4",
          "midi": 64,
          "duration": 0.333333,
          "velocity": 0.92126
        },
        {
          "time": 115.391684,
          "name": "F#5",
          "midi": 78,
          "duration": 0.316666,
          "velocity": 0.818898
        },
        {
          "time": 115.391684,
          "name": "F#5",
          "midi": 78,
          "duration": 0.316666,
          "velocity": 0.88189
        },
        {
          "time": 115.397239,
          "name": "F#5",
          "midi": 78,
          "duration": 0.316666,
          "velocity": 0.92126
        },
        {
          "time": 115.397239,
          "name": "F#4",
          "midi": 66,
          "duration": 0.316666,
          "velocity": 0.92126
        },
        {
          "time": 115.722687,
          "name": "A#4",
          "midi": 70,
          "duration": 0.719982,
          "velocity": 0.92126
        },
        {
          "time": 115.722687,
          "name": "F#4",
          "midi": 66,
          "duration": 0.719982,
          "velocity": 0.92126
        },
        {
          "time": 115.725913,
          "name": "E5",
          "midi": 76,
          "duration": 0.367742,
          "velocity": 0.818898
        },
        {
          "time": 115.725913,
          "name": "E5",
          "midi": 76,
          "duration": 0.367742,
          "velocity": 0.88189
        },
        {
          "time": 115.732364,
          "name": "E5",
          "midi": 76,
          "duration": 0.367742,
          "velocity": 0.92126
        },
        {
          "time": 115.732364,
          "name": "E4",
          "midi": 64,
          "duration": 0.367742,
          "velocity": 0.92126
        },
        {
          "time": 116.112114,
          "name": "F#5",
          "midi": 78,
          "duration": 0.668007,
          "velocity": 0.818898
        },
        {
          "time": 116.112114,
          "name": "F#5",
          "midi": 78,
          "duration": 0.668007,
          "velocity": 0.88189
        },
        {
          "time": 116.117669,
          "name": "F#5",
          "midi": 78,
          "duration": 0.669348,
          "velocity": 0.92126
        },
        {
          "time": 116.117669,
          "name": "F#4",
          "midi": 66,
          "duration": 0.669348,
          "velocity": 0.92126
        },
        {
          "time": 116.442669,
          "name": "B4",
          "midi": 71,
          "duration": 0.747289,
          "velocity": 0.92126
        },
        {
          "time": 116.442669,
          "name": "G#4",
          "midi": 68,
          "duration": 0.747289,
          "velocity": 0.92126
        },
        {
          "time": 116.780121,
          "name": "E5",
          "midi": 76,
          "duration": 0.393103,
          "velocity": 0.818898
        },
        {
          "time": 116.780121,
          "name": "E5",
          "midi": 76,
          "duration": 0.393103,
          "velocity": 0.88189
        },
        {
          "time": 116.787017,
          "name": "E5",
          "midi": 76,
          "duration": 0.393103,
          "velocity": 0.92126
        },
        {
          "time": 116.787017,
          "name": "E4",
          "midi": 64,
          "duration": 0.393103,
          "velocity": 0.92126
        },
        {
          "time": 117.192899,
          "name": "E5",
          "midi": 76,
          "duration": 0.352941,
          "velocity": 0.818898
        },
        {
          "time": 117.192899,
          "name": "E4",
          "midi": 64,
          "duration": 0.352941,
          "velocity": 0.818898
        },
        {
          "time": 117.192899,
          "name": "E5",
          "midi": 76,
          "duration": 0.352941,
          "velocity": 0.88189
        },
        {
          "time": 117.54584,
          "name": "F#5",
          "midi": 78,
          "duration": 0.335294,
          "velocity": 0.818898
        },
        {
          "time": 117.54584,
          "name": "F#4",
          "midi": 66,
          "duration": 0.335294,
          "velocity": 0.818898
        },
        {
          "time": 117.54584,
          "name": "F#5",
          "midi": 78,
          "duration": 0.335294,
          "velocity": 0.88189
        },
        {
          "time": 117.899351,
          "name": "E5",
          "midi": 76,
          "duration": 0.386201,
          "velocity": 0.818898
        },
        {
          "time": 117.899351,
          "name": "E4",
          "midi": 64,
          "duration": 0.386201,
          "velocity": 0.818898
        },
        {
          "time": 117.899351,
          "name": "E5",
          "midi": 76,
          "duration": 0.386201,
          "velocity": 0.88189
        },
        {
          "time": 118.285552,
          "name": "F#5",
          "midi": 78,
          "duration": 0.316666,
          "velocity": 0.818898
        },
        {
          "time": 118.285552,
          "name": "F#4",
          "midi": 66,
          "duration": 0.316666,
          "velocity": 0.818898
        },
        {
          "time": 118.285552,
          "name": "F#5",
          "midi": 78,
          "duration": 0.316666,
          "velocity": 0.88189
        },
        {
          "time": 118.618885,
          "name": "D#4",
          "midi": 63,
          "duration": 0.166667,
          "velocity": 0.818898
        },
        {
          "time": 118.618885,
          "name": "D#5",
          "midi": 75,
          "duration": 0.166667,
          "velocity": 0.818898
        },
        {
          "time": 118.618885,
          "name": "D#5",
          "midi": 75,
          "duration": 0.166667,
          "velocity": 0.88189
        },
        {
          "time": 118.785551,
          "name": "C#4",
          "midi": 61,
          "duration": 0.167563,
          "velocity": 0.818898
        },
        {
          "time": 118.785551,
          "name": "C#5",
          "midi": 73,
          "duration": 0.167563,
          "velocity": 0.818898
        },
        {
          "time": 118.785551,
          "name": "C#5",
          "midi": 73,
          "duration": 0.167563,
          "velocity": 0.88189
        },
        {
          "time": 118.953114,
          "name": "B3",
          "midi": 59,
          "duration": 0.367742,
          "velocity": 0.818898
        },
        {
          "time": 118.953114,
          "name": "B4",
          "midi": 71,
          "duration": 0.367742,
          "velocity": 0.818898
        },
        {
          "time": 118.953114,
          "name": "B4",
          "midi": 71,
          "duration": 0.367742,
          "velocity": 0.88189
        },
        {
          "time": 119.339315,
          "name": "E5",
          "midi": 76,
          "duration": 0.316666,
          "velocity": 0.818898
        },
        {
          "time": 119.339315,
          "name": "E4",
          "midi": 64,
          "duration": 0.316666,
          "velocity": 0.818898
        },
        {
          "time": 119.339315,
          "name": "E5",
          "midi": 76,
          "duration": 0.316666,
          "velocity": 0.88189
        },
        {
          "time": 119.672648,
          "name": "D4",
          "midi": 62,
          "duration": 0.166667,
          "velocity": 0.818898
        },
        {
          "time": 119.672648,
          "name": "D5",
          "midi": 74,
          "duration": 0.166667,
          "velocity": 0.818898
        },
        {
          "time": 119.672648,
          "name": "D5",
          "midi": 74,
          "duration": 0.166667,
          "velocity": 0.88189
        },
        {
          "time": 119.839314,
          "name": "C#4",
          "midi": 61,
          "duration": 0.167563,
          "velocity": 0.818898
        },
        {
          "time": 119.839314,
          "name": "C#5",
          "midi": 73,
          "duration": 0.167563,
          "velocity": 0.818898
        },
        {
          "time": 119.839314,
          "name": "C#5",
          "midi": 73,
          "duration": 0.167563,
          "velocity": 0.88189
        },
        {
          "time": 120.006877,
          "name": "B3",
          "midi": 59,
          "duration": 0.193549,
          "velocity": 0.818898
        },
        {
          "time": 120.006877,
          "name": "B4",
          "midi": 71,
          "duration": 0.193549,
          "velocity": 0.818898
        },
        {
          "time": 120.006877,
          "name": "B4",
          "midi": 71,
          "duration": 0.193549,
          "velocity": 0.88189
        },
        {
          "time": 120.200425,
          "name": "C#4",
          "midi": 61,
          "duration": 0.192811,
          "velocity": 0.818898
        },
        {
          "time": 120.200425,
          "name": "C#5",
          "midi": 73,
          "duration": 0.192811,
          "velocity": 0.818898
        },
        {
          "time": 120.200425,
          "name": "C#5",
          "midi": 73,
          "duration": 0.192811,
          "velocity": 0.88189
        },
        {
          "time": 120.393236,
          "name": "A4",
          "midi": 69,
          "duration": 0.171429,
          "velocity": 0.818898
        },
        {
          "time": 120.393236,
          "name": "A3",
          "midi": 57,
          "duration": 0.171429,
          "velocity": 0.818898
        },
        {
          "time": 120.393236,
          "name": "A4",
          "midi": 69,
          "duration": 0.171429,
          "velocity": 0.88189
        },
        {
          "time": 121.466215,
          "name": "D4",
          "midi": 62,
          "duration": 0.176471,
          "velocity": 0.818898
        },
        {
          "time": 121.466215,
          "name": "D4",
          "midi": 62,
          "duration": 0.176471,
          "velocity": 0.88189
        },
        {
          "time": 121.819156,
          "name": "D4",
          "midi": 62,
          "duration": 0.766734,
          "velocity": 0.937008
        },
        {
          "time": 121.819156,
          "name": "D4",
          "midi": 62,
          "duration": 0.766734,
          "velocity": 1
        },
        {
          "time": 122.58589,
          "name": "C#4",
          "midi": 61,
          "duration": 0.176471,
          "velocity": 0.818898
        },
        {
          "time": 122.58589,
          "name": "C#4",
          "midi": 61,
          "duration": 0.176471,
          "velocity": 0.88189
        },
        {
          "time": 122.938831,
          "name": "C#4",
          "midi": 61,
          "duration": 0.766734,
          "velocity": 0.937008
        },
        {
          "time": 122.938831,
          "name": "C#4",
          "midi": 61,
          "duration": 0.766734,
          "velocity": 1
        },
        {
          "time": 123.705565,
          "name": "E4",
          "midi": 64,
          "duration": 0.176471,
          "velocity": 0.818898
        },
        {
          "time": 123.705565,
          "name": "E4",
          "midi": 64,
          "duration": 0.176471,
          "velocity": 0.88189
        },
        {
          "time": 124.058506,
          "name": "E4",
          "midi": 64,
          "duration": 0.560852,
          "velocity": 0.937008
        },
        {
          "time": 124.058506,
          "name": "E4",
          "midi": 64,
          "duration": 0.560852,
          "velocity": 1
        },
        {
          "time": 124.619358,
          "name": "D4",
          "midi": 62,
          "duration": 0.205882,
          "velocity": 0.818898
        },
        {
          "time": 124.619358,
          "name": "D4",
          "midi": 62,
          "duration": 0.205882,
          "velocity": 0.88189
        },
        {
          "time": 124.82524,
          "name": "A3",
          "midi": 57,
          "duration": 1.119675,
          "velocity": 0.818898
        },
        {
          "time": 124.82524,
          "name": "A3",
          "midi": 57,
          "duration": 1.119675,
          "velocity": 0.88189
        },
        {
          "time": 125.944915,
          "name": "D4",
          "midi": 62,
          "duration": 0.176471,
          "velocity": 0.818898
        },
        {
          "time": 125.944915,
          "name": "D4",
          "midi": 62,
          "duration": 0.176471,
          "velocity": 0.88189
        },
        {
          "time": 126.297856,
          "name": "D4",
          "midi": 62,
          "duration": 0.766734,
          "velocity": 0.937008
        },
        {
          "time": 126.297856,
          "name": "D4",
          "midi": 62,
          "duration": 0.766734,
          "velocity": 1
        },
        {
          "time": 127.06459,
          "name": "C#4",
          "midi": 61,
          "duration": 0.176471,
          "velocity": 0.818898
        },
        {
          "time": 127.06459,
          "name": "C#4",
          "midi": 61,
          "duration": 0.176471,
          "velocity": 0.88189
        },
        {
          "time": 127.417531,
          "name": "C#4",
          "midi": 61,
          "duration": 0.766734,
          "velocity": 0.937008
        },
        {
          "time": 127.417531,
          "name": "C#4",
          "midi": 61,
          "duration": 0.766734,
          "velocity": 1
        },
        {
          "time": 128.184265,
          "name": "B3",
          "midi": 59,
          "duration": 0.17647,
          "velocity": 0.818898
        },
        {
          "time": 128.184265,
          "name": "B3",
          "midi": 59,
          "duration": 0.17647,
          "velocity": 0.88189
        },
        {
          "time": 128.537206,
          "name": "C#4",
          "midi": 61,
          "duration": 0.560852,
          "velocity": 0.937008
        },
        {
          "time": 128.537206,
          "name": "C#4",
          "midi": 61,
          "duration": 0.560852,
          "velocity": 1
        },
        {
          "time": 129.098058,
          "name": "D#4",
          "midi": 63,
          "duration": 0.205882,
          "velocity": 0.818898
        },
        {
          "time": 129.098058,
          "name": "D#4",
          "midi": 63,
          "duration": 0.205882,
          "velocity": 0.88189
        },
        {
          "time": 129.30394,
          "name": "E4",
          "midi": 64,
          "duration": 1.119675,
          "velocity": 0.818898
        },
        {
          "time": 129.30394,
          "name": "E4",
          "midi": 64,
          "duration": 1.119675,
          "velocity": 0.88189
        },
        {
          "time": 130.423615,
          "name": "D5",
          "midi": 74,
          "duration": 0.17647,
          "velocity": 0.818898
        },
        {
          "time": 130.423615,
          "name": "D5",
          "midi": 74,
          "duration": 0.17647,
          "velocity": 0.88189
        },
        {
          "time": 130.776556,
          "name": "D5",
          "midi": 74,
          "duration": 0.766734,
          "velocity": 0.937008
        },
        {
          "time": 130.776556,
          "name": "D5",
          "midi": 74,
          "duration": 0.766734,
          "velocity": 1
        },
        {
          "time": 131.54329,
          "name": "C#5",
          "midi": 73,
          "duration": 0.17647,
          "velocity": 0.818898
        },
        {
          "time": 131.54329,
          "name": "C#5",
          "midi": 73,
          "duration": 0.17647,
          "velocity": 0.88189
        },
        {
          "time": 131.896231,
          "name": "C#5",
          "midi": 73,
          "duration": 0.766734,
          "velocity": 0.937008
        },
        {
          "time": 131.896231,
          "name": "C#5",
          "midi": 73,
          "duration": 0.766734,
          "velocity": 1
        },
        {
          "time": 132.662965,
          "name": "B4",
          "midi": 71,
          "duration": 0.17647,
          "velocity": 0.818898
        },
        {
          "time": 132.662965,
          "name": "B4",
          "midi": 71,
          "duration": 0.17647,
          "velocity": 0.88189
        },
        {
          "time": 133.015906,
          "name": "B4",
          "midi": 71,
          "duration": 0.338235,
          "velocity": 0.818898
        },
        {
          "time": 133.015906,
          "name": "B4",
          "midi": 71,
          "duration": 0.338235,
          "velocity": 0.88189
        },
        {
          "time": 133.369862,
          "name": "B4",
          "midi": 71,
          "duration": 0.396552,
          "velocity": 0.818898
        },
        {
          "time": 133.369862,
          "name": "B4",
          "midi": 71,
          "duration": 0.396552,
          "velocity": 0.88189
        },
        {
          "time": 133.78264,
          "name": "B4",
          "midi": 71,
          "duration": 0.338235,
          "velocity": 0.818898
        },
        {
          "time": 133.78264,
          "name": "B4",
          "midi": 71,
          "duration": 0.338235,
          "velocity": 0.88189
        },
        {
          "time": 134.135581,
          "name": "C#5",
          "midi": 73,
          "duration": 0.17647,
          "velocity": 0.818898
        },
        {
          "time": 134.135581,
          "name": "C#5",
          "midi": 73,
          "duration": 0.17647,
          "velocity": 0.88189
        },
        {
          "time": 134.312052,
          "name": "B4",
          "midi": 71,
          "duration": 0.177485,
          "velocity": 0.818898
        },
        {
          "time": 134.312052,
          "name": "B4",
          "midi": 71,
          "duration": 0.177485,
          "velocity": 0.88189
        },
        {
          "time": 134.489537,
          "name": "A4",
          "midi": 69,
          "duration": 0.396552,
          "velocity": 0.818898
        },
        {
          "time": 134.489537,
          "name": "A4",
          "midi": 69,
          "duration": 0.396552,
          "velocity": 0.88189
        },
        {
          "time": 134.902315,
          "name": "B4",
          "midi": 71,
          "duration": 0.17647,
          "velocity": 0.818898
        },
        {
          "time": 134.902315,
          "name": "B4",
          "midi": 71,
          "duration": 0.17647,
          "velocity": 0.88189
        },
        {
          "time": 135.255256,
          "name": "B4",
          "midi": 71,
          "duration": 0.338235,
          "velocity": 0.818898
        },
        {
          "time": 135.255256,
          "name": "B4",
          "midi": 71,
          "duration": 0.338235,
          "velocity": 0.88189
        },
        {
          "time": 135.609212,
          "name": "B4",
          "midi": 71,
          "duration": 0.396552,
          "velocity": 0.818898
        },
        {
          "time": 135.609212,
          "name": "B4",
          "midi": 71,
          "duration": 0.396552,
          "velocity": 0.88189
        },
        {
          "time": 136.02199,
          "name": "B4",
          "midi": 71,
          "duration": 0.352941,
          "velocity": 0.937008
        },
        {
          "time": 136.02199,
          "name": "B4",
          "midi": 71,
          "duration": 0.352941,
          "velocity": 1
        },
        {
          "time": 136.374931,
          "name": "C#5",
          "midi": 73,
          "duration": 0.17647,
          "velocity": 0.818898
        },
        {
          "time": 136.374931,
          "name": "C#5",
          "midi": 73,
          "duration": 0.17647,
          "velocity": 0.88189
        },
        {
          "time": 136.551402,
          "name": "B4",
          "midi": 71,
          "duration": 0.177485,
          "velocity": 0.818898
        },
        {
          "time": 136.551402,
          "name": "B4",
          "midi": 71,
          "duration": 0.177485,
          "velocity": 0.88189
        },
        {
          "time": 136.728887,
          "name": "A4",
          "midi": 69,
          "duration": 0.412779,
          "velocity": 0.818898
        },
        {
          "time": 136.728887,
          "name": "A4",
          "midi": 69,
          "duration": 0.412779,
          "velocity": 0.88189
        },
        {
          "time": 137.141665,
          "name": "B4",
          "midi": 71,
          "duration": 0.17647,
          "velocity": 0.818898
        },
        {
          "time": 137.141665,
          "name": "B4",
          "midi": 71,
          "duration": 0.17647,
          "velocity": 0.88189
        },
        {
          "time": 137.318136,
          "name": "A4",
          "midi": 69,
          "duration": 0.17647,
          "velocity": 0.818898
        },
        {
          "time": 137.318136,
          "name": "A4",
          "midi": 69,
          "duration": 0.17647,
          "velocity": 0.88189
        },
        {
          "time": 137.494606,
          "name": "G#4",
          "midi": 68,
          "duration": 0.353955,
          "velocity": 0.818898
        },
        {
          "time": 137.494606,
          "name": "G#4",
          "midi": 68,
          "duration": 0.353955,
          "velocity": 0.88189
        },
        {
          "time": 137.848562,
          "name": "A4",
          "midi": 69,
          "duration": 0.206896,
          "velocity": 0.818898
        },
        {
          "time": 137.848562,
          "name": "A4",
          "midi": 69,
          "duration": 0.206896,
          "velocity": 0.88189
        },
        {
          "time": 138.055458,
          "name": "G4",
          "midi": 67,
          "duration": 0.206098,
          "velocity": 0.818898
        },
        {
          "time": 138.055458,
          "name": "G4",
          "midi": 67,
          "duration": 0.206098,
          "velocity": 0.88189
        },
        {
          "time": 138.261556,
          "name": "F#4",
          "midi": 66,
          "duration": 0.365854,
          "velocity": 0.818898
        },
        {
          "time": 138.261556,
          "name": "F#4",
          "midi": 66,
          "duration": 0.365854,
          "velocity": 0.88189
        },
        {
          "time": 138.62741,
          "name": "G4",
          "midi": 67,
          "duration": 0.182927,
          "velocity": 0.818898
        },
        {
          "time": 138.62741,
          "name": "G4",
          "midi": 67,
          "duration": 0.182927,
          "velocity": 0.88189
        },
        {
          "time": 138.810337,
          "name": "F#4",
          "midi": 66,
          "duration": 0.184522,
          "velocity": 0.818898
        },
        {
          "time": 138.810337,
          "name": "F#4",
          "midi": 66,
          "duration": 0.184522,
          "velocity": 0.88189
        },
        {
          "time": 138.994858,
          "name": "E4",
          "midi": 64,
          "duration": 0.460096,
          "velocity": 0.818898
        },
        {
          "time": 138.994858,
          "name": "E4",
          "midi": 64,
          "duration": 0.460096,
          "velocity": 0.88189
        },
        {
          "time": 139.454954,
          "name": "D4",
          "midi": 62,
          "duration": 0.1875,
          "velocity": 0.818898
        },
        {
          "time": 139.454954,
          "name": "D4",
          "midi": 62,
          "duration": 0.1875,
          "velocity": 0.88189
        },
        {
          "time": 139.829954,
          "name": "D4",
          "midi": 62,
          "duration": 0.788425,
          "velocity": 0.937008
        },
        {
          "time": 139.829954,
          "name": "D4",
          "midi": 62,
          "duration": 0.788425,
          "velocity": 1
        },
        {
          "time": 140.618379,
          "name": "C#4",
          "midi": 61,
          "duration": 0.17647,
          "velocity": 0.818898
        },
        {
          "time": 140.618379,
          "name": "C#4",
          "midi": 61,
          "duration": 0.17647,
          "velocity": 0.88189
        },
        {
          "time": 140.97132,
          "name": "C#4",
          "midi": 61,
          "duration": 0.766734,
          "velocity": 0.937008
        },
        {
          "time": 140.97132,
          "name": "C#4",
          "midi": 61,
          "duration": 0.766734,
          "velocity": 1
        },
        {
          "time": 141.738054,
          "name": "E4",
          "midi": 64,
          "duration": 0.17647,
          "velocity": 0.818898
        },
        {
          "time": 141.738054,
          "name": "E4",
          "midi": 64,
          "duration": 0.17647,
          "velocity": 0.88189
        },
        {
          "time": 142.090995,
          "name": "E4",
          "midi": 64,
          "duration": 0.560852,
          "velocity": 0.937008
        },
        {
          "time": 142.090995,
          "name": "E4",
          "midi": 64,
          "duration": 0.560852,
          "velocity": 1
        },
        {
          "time": 142.651847,
          "name": "D4",
          "midi": 62,
          "duration": 0.205882,
          "velocity": 0.818898
        },
        {
          "time": 142.651847,
          "name": "D4",
          "midi": 62,
          "duration": 0.205882,
          "velocity": 0.88189
        },
        {
          "time": 142.857729,
          "name": "A3",
          "midi": 57,
          "duration": 1.119675,
          "velocity": 0.818898
        },
        {
          "time": 142.857729,
          "name": "A3",
          "midi": 57,
          "duration": 1.119675,
          "velocity": 0.88189
        },
        {
          "time": 143.977404,
          "name": "D4",
          "midi": 62,
          "duration": 0.17647,
          "velocity": 0.818898
        },
        {
          "time": 143.977404,
          "name": "D4",
          "midi": 62,
          "duration": 0.17647,
          "velocity": 0.88189
        },
        {
          "time": 144.330345,
          "name": "D4",
          "midi": 62,
          "duration": 0.766734,
          "velocity": 0.937008
        },
        {
          "time": 144.330345,
          "name": "D4",
          "midi": 62,
          "duration": 0.766734,
          "velocity": 1
        },
        {
          "time": 145.097079,
          "name": "C#4",
          "midi": 61,
          "duration": 0.17647,
          "velocity": 0.818898
        },
        {
          "time": 145.097079,
          "name": "C#4",
          "midi": 61,
          "duration": 0.17647,
          "velocity": 0.88189
        },
        {
          "time": 145.45002,
          "name": "C#4",
          "midi": 61,
          "duration": 0.766734,
          "velocity": 0.937008
        },
        {
          "time": 145.45002,
          "name": "C#4",
          "midi": 61,
          "duration": 0.766734,
          "velocity": 1
        },
        {
          "time": 146.216754,
          "name": "B3",
          "midi": 59,
          "duration": 0.17647,
          "velocity": 0.818898
        },
        {
          "time": 146.216754,
          "name": "B3",
          "midi": 59,
          "duration": 0.17647,
          "velocity": 0.88189
        },
        {
          "time": 146.569695,
          "name": "C#4",
          "midi": 61,
          "duration": 0.560852,
          "velocity": 0.937008
        },
        {
          "time": 146.569695,
          "name": "C#4",
          "midi": 61,
          "duration": 0.560852,
          "velocity": 1
        },
        {
          "time": 147.130547,
          "name": "D#4",
          "midi": 63,
          "duration": 0.205882,
          "velocity": 0.818898
        },
        {
          "time": 147.130547,
          "name": "D#4",
          "midi": 63,
          "duration": 0.205882,
          "velocity": 0.88189
        },
        {
          "time": 147.336429,
          "name": "E4",
          "midi": 64,
          "duration": 1.119817,
          "velocity": 0.818898
        },
        {
          "time": 147.336429,
          "name": "E4",
          "midi": 64,
          "duration": 1.119817,
          "velocity": 0.88189
        },
        {
          "time": 148.456246,
          "name": "D5",
          "midi": 74,
          "duration": 0.180723,
          "velocity": 0.818898
        },
        {
          "time": 148.456246,
          "name": "D5",
          "midi": 74,
          "duration": 0.180723,
          "velocity": 0.88189
        },
        {
          "time": 148.817692,
          "name": "D5",
          "midi": 74,
          "duration": 0.775097,
          "velocity": 0.937008
        },
        {
          "time": 148.817692,
          "name": "D5",
          "midi": 74,
          "duration": 0.775097,
          "velocity": 1
        },
        {
          "time": 149.592789,
          "name": "C#5",
          "midi": 73,
          "duration": 0.17647,
          "velocity": 0.818898
        },
        {
          "time": 149.592789,
          "name": "C#5",
          "midi": 73,
          "duration": 0.17647,
          "velocity": 0.88189
        },
        {
          "time": 149.94573,
          "name": "C#5",
          "midi": 73,
          "duration": 0.766734,
          "velocity": 0.937008
        },
        {
          "time": 149.94573,
          "name": "C#5",
          "midi": 73,
          "duration": 0.766734,
          "velocity": 1
        },
        {
          "time": 150.712464,
          "name": "B4",
          "midi": 71,
          "duration": 0.17647,
          "velocity": 0.818898
        },
        {
          "time": 150.712464,
          "name": "B4",
          "midi": 71,
          "duration": 0.17647,
          "velocity": 0.88189
        },
        {
          "time": 151.065405,
          "name": "B4",
          "midi": 71,
          "duration": 0.338235,
          "velocity": 0.818898
        },
        {
          "time": 151.065405,
          "name": "B4",
          "midi": 71,
          "duration": 0.338235,
          "velocity": 0.88189
        },
        {
          "time": 151.419361,
          "name": "B4",
          "midi": 71,
          "duration": 0.396552,
          "velocity": 0.818898
        },
        {
          "time": 151.419361,
          "name": "B4",
          "midi": 71,
          "duration": 0.396552,
          "velocity": 0.88189
        },
        {
          "time": 151.832139,
          "name": "B4",
          "midi": 71,
          "duration": 0.338235,
          "velocity": 0.818898
        },
        {
          "time": 151.832139,
          "name": "B4",
          "midi": 71,
          "duration": 0.338235,
          "velocity": 0.88189
        },
        {
          "time": 152.18508,
          "name": "C#5",
          "midi": 73,
          "duration": 0.17647,
          "velocity": 0.818898
        },
        {
          "time": 152.18508,
          "name": "C#5",
          "midi": 73,
          "duration": 0.17647,
          "velocity": 0.88189
        },
        {
          "time": 152.361551,
          "name": "B4",
          "midi": 71,
          "duration": 0.177485,
          "velocity": 0.818898
        },
        {
          "time": 152.361551,
          "name": "B4",
          "midi": 71,
          "duration": 0.177485,
          "velocity": 0.88189
        },
        {
          "time": 152.539036,
          "name": "A#4",
          "midi": 70,
          "duration": 0.396552,
          "velocity": 0.818898
        },
        {
          "time": 152.539036,
          "name": "A#4",
          "midi": 70,
          "duration": 0.396552,
          "velocity": 0.88189
        },
        {
          "time": 152.951814,
          "name": "A4",
          "midi": 69,
          "duration": 0.17647,
          "velocity": 0.818898
        },
        {
          "time": 152.951814,
          "name": "A4",
          "midi": 69,
          "duration": 0.17647,
          "velocity": 0.88189
        },
        {
          "time": 153.304755,
          "name": "A4",
          "midi": 69,
          "duration": 0.338235,
          "velocity": 0.818898
        },
        {
          "time": 153.304755,
          "name": "A4",
          "midi": 69,
          "duration": 0.338235,
          "velocity": 0.88189
        },
        {
          "time": 153.658711,
          "name": "A4",
          "midi": 69,
          "duration": 0.396552,
          "velocity": 0.818898
        },
        {
          "time": 153.658711,
          "name": "A4",
          "midi": 69,
          "duration": 0.396552,
          "velocity": 0.88189
        },
        {
          "time": 154.071489,
          "name": "A4",
          "midi": 69,
          "duration": 0.338235,
          "velocity": 0.937008
        },
        {
          "time": 154.071489,
          "name": "A4",
          "midi": 69,
          "duration": 0.338235,
          "velocity": 1
        },
        {
          "time": 154.42443,
          "name": "B4",
          "midi": 71,
          "duration": 0.17647,
          "velocity": 0.818898
        },
        {
          "time": 154.42443,
          "name": "B4",
          "midi": 71,
          "duration": 0.17647,
          "velocity": 0.88189
        },
        {
          "time": 154.600901,
          "name": "A4",
          "midi": 69,
          "duration": 0.177996,
          "velocity": 0.818898
        },
        {
          "time": 154.600901,
          "name": "A4",
          "midi": 69,
          "duration": 0.177996,
          "velocity": 0.88189
        },
        {
          "time": 154.778896,
          "name": "G#4",
          "midi": 68,
          "duration": 0.425926,
          "velocity": 0.937008
        },
        {
          "time": 154.778896,
          "name": "G#4",
          "midi": 68,
          "duration": 0.425926,
          "velocity": 1
        },
        {
          "time": 155.221975,
          "name": "C#4",
          "midi": 61,
          "duration": 1.138943,
          "velocity": 0.88189
        },
        {
          "time": 156.360918,
          "name": "D4",
          "midi": 62,
          "duration": 1.147794,
          "velocity": 0.88189
        },
        {
          "time": 157.508712,
          "name": "D#4",
          "midi": 63,
          "duration": 1.154243,
          "velocity": 0.88189
        },
        {
          "time": 158.662954,
          "name": "E4",
          "midi": 64,
          "duration": 1.05859,
          "velocity": 0.88189
        },
        {
          "time": 159.721545,
          "name": "F#4",
          "midi": 66,
          "duration": 1.016734,
          "velocity": 0.88189
        },
        {
          "time": 160.738279,
          "name": "F#4",
          "midi": 66,
          "duration": 0.978062,
          "velocity": 0.88189
        },
        {
          "time": 161.716341,
          "name": "G4",
          "midi": 67,
          "duration": 0.942249,
          "velocity": 0.88189
        },
        {
          "time": 166.135265,
          "name": "C#5",
          "midi": 73,
          "duration": 0.273973,
          "velocity": 0.92126
        },
        {
          "time": 166.135265,
          "name": "G4",
          "midi": 67,
          "duration": 0.273973,
          "velocity": 0.92126
        },
        {
          "time": 166.137548,
          "name": "E5",
          "midi": 76,
          "duration": 0.273973,
          "velocity": 0.818898
        },
        {
          "time": 166.137548,
          "name": "C#5",
          "midi": 73,
          "duration": 0.273973,
          "velocity": 0.818898
        },
        {
          "time": 166.137548,
          "name": "E5",
          "midi": 76,
          "duration": 0.273973,
          "velocity": 0.88189
        },
        {
          "time": 166.137548,
          "name": "E4",
          "midi": 64,
          "duration": 0.273973,
          "velocity": 0.88189
        },
        {
          "time": 166.137548,
          "name": "C#5",
          "midi": 73,
          "duration": 0.273973,
          "velocity": 0.88189
        },
        {
          "time": 166.137548,
          "name": "G3",
          "midi": 55,
          "duration": 0.273973,
          "velocity": 0.88189
        },
        {
          "time": 166.142114,
          "name": "G5",
          "midi": 79,
          "duration": 0.273973,
          "velocity": 0.92126
        },
        {
          "time": 166.142114,
          "name": "E5",
          "midi": 76,
          "duration": 0.273973,
          "velocity": 0.92126
        },
        {
          "time": 169.898785,
          "name": "C#4",
          "midi": 61,
          "duration": 1.07244,
          "velocity": 0.88189
        },
        {
          "time": 172.101381,
          "name": "B3",
          "midi": 59,
          "duration": 1.018018,
          "velocity": 0.88189
        },
        {
          "time": 174.198462,
          "name": "B3",
          "midi": 59,
          "duration": 0.961544,
          "velocity": 0.88189
        },
        {
          "time": 176.210246,
          "name": "A3",
          "midi": 57,
          "duration": 0.911331,
          "velocity": 0.88189
        },
        {
          "time": 178.163411,
          "name": "A3",
          "midi": 57,
          "duration": 0.948002,
          "velocity": 0.88189
        },
        {
          "time": 180.165538,
          "name": "A3",
          "midi": 57,
          "duration": 0.910333,
          "velocity": 0.88189
        },
        {
          "time": 182.058236,
          "name": "B3",
          "midi": 59,
          "duration": 0.910333,
          "velocity": 0.88189
        },
        {
          "time": 183.950934,
          "name": "C#4",
          "midi": 61,
          "duration": 1.207251,
          "velocity": 0.88189
        },
        {
          "time": 185.158185,
          "name": "B3",
          "midi": 59,
          "duration": 1.935145,
          "velocity": 0.88189
        },
        {
          "time": 187.09333,
          "name": "E4",
          "midi": 64,
          "duration": 0.491804,
          "velocity": 0.818898
        },
        {
          "time": 187.09333,
          "name": "A3",
          "midi": 57,
          "duration": 1.97059,
          "velocity": 0.88189
        },
        {
          "time": 187.585133,
          "name": "A4",
          "midi": 69,
          "duration": 0.490562,
          "velocity": 0.818898
        },
        {
          "time": 188.075695,
          "name": "B4",
          "midi": 71,
          "duration": 0.457093,
          "velocity": 0.818898
        },
        {
          "time": 188.532788,
          "name": "C#5",
          "midi": 73,
          "duration": 0.531132,
          "velocity": 0.818898
        },
        {
          "time": 189.06392,
          "name": "B4",
          "midi": 71,
          "duration": 0.534251,
          "velocity": 0.818898
        },
        {
          "time": 189.06392,
          "name": "B3",
          "midi": 59,
          "duration": 1.935145,
          "velocity": 0.88189
        },
        {
          "time": 190.999065,
          "name": "E4",
          "midi": 64,
          "duration": 0.491804,
          "velocity": 0.818898
        },
        {
          "time": 190.999065,
          "name": "A3",
          "midi": 57,
          "duration": 1.988611,
          "velocity": 0.88189
        },
        {
          "time": 191.490868,
          "name": "A4",
          "midi": 69,
          "duration": 0.490562,
          "velocity": 0.818898
        },
        {
          "time": 191.98143,
          "name": "B4",
          "midi": 71,
          "duration": 0.457743,
          "velocity": 0.818898
        },
        {
          "time": 192.439173,
          "name": "C#5",
          "midi": 73,
          "duration": 0.548503,
          "velocity": 0.818898
        },
        {
          "time": 192.987676,
          "name": "D#5",
          "midi": 75,
          "duration": 0.491804,
          "velocity": 0.818898
        },
        {
          "time": 192.987676,
          "name": "C#4",
          "midi": 61,
          "duration": 1.897138,
          "velocity": 0.88189
        },
        {
          "time": 194.884814,
          "name": "C#4",
          "midi": 61,
          "duration": 1.954856,
          "velocity": 0.88189
        },
        {
          "time": 197.822035,
          "name": "D#4",
          "midi": 63,
          "duration": 0.912807,
          "velocity": 0.88189
        },
        {
          "time": 199.788967,
          "name": "C#4",
          "midi": 61,
          "duration": 0.910333,
          "velocity": 0.88189
        },
        {
          "time": 201.681665,
          "name": "C#4",
          "midi": 61,
          "duration": 0.910333,
          "velocity": 0.88189
        },
        {
          "time": 203.574363,
          "name": "B3",
          "midi": 59,
          "duration": 0.914773,
          "velocity": 0.88189
        },
        {
          "time": 205.53366,
          "name": "B3",
          "midi": 59,
          "duration": 0.910333,
          "velocity": 0.88189
        },
        {
          "time": 207.426358,
          "name": "A3",
          "midi": 57,
          "duration": 0.920255,
          "velocity": 0.88189
        },
        {
          "time": 209.53866,
          "name": "A3",
          "midi": 57,
          "duration": 0.91317,
          "velocity": 0.88189
        },
        {
          "time": 211.47146,
          "name": "A3",
          "midi": 57,
          "duration": 1.190028,
          "velocity": 0.88189
        },
        {
          "time": 213.646401,
          "name": "B3",
          "midi": 59,
          "duration": 1.060641,
          "velocity": 0.88189
        },
        {
          "time": 215.689407,
          "name": "C#4",
          "midi": 61,
          "duration": 0.910333,
          "velocity": 0.88189
        },
        {
          "time": 216.59974,
          "name": "B3",
          "midi": 59,
          "duration": 1.892698,
          "velocity": 0.88189
        },
        {
          "time": 218.492438,
          "name": "E4",
          "midi": 64,
          "duration": 0.491804,
          "velocity": 0.818898
        },
        {
          "time": 218.492438,
          "name": "A3",
          "midi": 57,
          "duration": 1.892698,
          "velocity": 0.88189
        },
        {
          "time": 218.984242,
          "name": "A4",
          "midi": 69,
          "duration": 0.490562,
          "velocity": 0.818898
        },
        {
          "time": 219.474803,
          "name": "B4",
          "midi": 71,
          "duration": 0.454545,
          "velocity": 0.818898
        },
        {
          "time": 219.929349,
          "name": "C#5",
          "midi": 73,
          "duration": 0.455787,
          "velocity": 0.818898
        },
        {
          "time": 220.385136,
          "name": "B4",
          "midi": 71,
          "duration": 0.491804,
          "velocity": 0.818898
        },
        {
          "time": 220.385136,
          "name": "B3",
          "midi": 59,
          "duration": 1.892698,
          "velocity": 0.88189
        },
        {
          "time": 222.277834,
          "name": "E4",
          "midi": 64,
          "duration": 0.491804,
          "velocity": 0.818898
        },
        {
          "time": 222.277834,
          "name": "A3",
          "midi": 57,
          "duration": 1.89781,
          "velocity": 0.88189
        },
        {
          "time": 222.769638,
          "name": "A4",
          "midi": 69,
          "duration": 0.490562,
          "velocity": 0.818898
        },
        {
          "time": 223.260199,
          "name": "B4",
          "midi": 71,
          "duration": 0.454545,
          "velocity": 0.818898
        },
        {
          "time": 223.714745,
          "name": "C#5",
          "midi": 73,
          "duration": 0.460899,
          "velocity": 0.818898
        },
        {
          "time": 224.175644,
          "name": "D#5",
          "midi": 75,
          "duration": 0.563371,
          "velocity": 0.818898
        },
        {
          "time": 224.175644,
          "name": "C#4",
          "midi": 61,
          "duration": 1.973846,
          "velocity": 0.88189
        },
        {
          "time": 226.14949,
          "name": "C#4",
          "midi": 61,
          "duration": 1.959762,
          "velocity": 0.88189
        },
        {
          "time": 229.091617,
          "name": "C#4",
          "midi": 61,
          "duration": 1.18573,
          "velocity": 0.88189
        },
        {
          "time": 231.259712,
          "name": "C#4",
          "midi": 61,
          "duration": 1.057743,
          "velocity": 0.88189
        },
        {
          "time": 247.521084,
          "name": "C4",
          "midi": 60,
          "duration": 1.967538,
          "velocity": 0.88189
        },
        {
          "time": 249.488621,
          "name": "C#4",
          "midi": 61,
          "duration": 1.892698,
          "velocity": 0.88189
        },
        {
          "time": 251.381319,
          "name": "F#4",
          "midi": 66,
          "duration": 1.892698,
          "velocity": 0.88189
        },
        {
          "time": 253.274017,
          "name": "E4",
          "midi": 64,
          "duration": 1.891456,
          "velocity": 0.88189
        },
        {
          "time": 255.165473,
          "name": "C4",
          "midi": 60,
          "duration": 1.962965,
          "velocity": 0.88189
        },
        {
          "time": 257.128438,
          "name": "C#4",
          "midi": 61,
          "duration": 1.892698,
          "velocity": 0.88189
        },
        {
          "time": 259.021136,
          "name": "D#4",
          "midi": 63,
          "duration": 1.892698,
          "velocity": 0.88189
        },
        {
          "time": 260.913834,
          "name": "C#4",
          "midi": 61,
          "duration": 0.982365,
          "velocity": 0.88189
        },
        {
          "time": 262.885584,
          "name": "B4",
          "midi": 71,
          "duration": 1.892698,
          "velocity": 0.818898
        },
        {
          "time": 262.885584,
          "name": "E4",
          "midi": 64,
          "duration": 1.892698,
          "velocity": 0.818898
        },
        {
          "time": 263.377387,
          "name": "E4",
          "midi": 64,
          "duration": 0.490562,
          "velocity": 0.88189
        },
        {
          "time": 263.867949,
          "name": "F#4",
          "midi": 66,
          "duration": 0.454545,
          "velocity": 0.88189
        },
        {
          "time": 264.322494,
          "name": "G#4",
          "midi": 68,
          "duration": 0.455787,
          "velocity": 0.88189
        },
        {
          "time": 264.778282,
          "name": "A4",
          "midi": 69,
          "duration": 0.982365,
          "velocity": 0.818898
        },
        {
          "time": 264.778282,
          "name": "E4",
          "midi": 64,
          "duration": 1.892698,
          "velocity": 0.818898
        },
        {
          "time": 264.778282,
          "name": "A4",
          "midi": 69,
          "duration": 0.491804,
          "velocity": 0.88189
        },
        {
          "time": 265.270085,
          "name": "C#4",
          "midi": 61,
          "duration": 0.490562,
          "velocity": 0.88189
        },
        {
          "time": 265.760647,
          "name": "C#5",
          "midi": 73,
          "duration": 0.910333,
          "velocity": 0.818898
        },
        {
          "time": 265.760647,
          "name": "G#4",
          "midi": 68,
          "duration": 0.454545,
          "velocity": 0.88189
        },
        {
          "time": 266.215192,
          "name": "F#4",
          "midi": 66,
          "duration": 0.455787,
          "velocity": 0.88189
        },
        {
          "time": 266.67098,
          "name": "B4",
          "midi": 71,
          "duration": 1.892698,
          "velocity": 0.818898
        },
        {
          "time": 266.67098,
          "name": "E4",
          "midi": 64,
          "duration": 3.785396,
          "velocity": 0.818898
        },
        {
          "time": 266.67098,
          "name": "E4",
          "midi": 64,
          "duration": 1.436911,
          "velocity": 0.88189
        },
        {
          "time": 268.10789,
          "name": "D4",
          "midi": 62,
          "duration": 0.455787,
          "velocity": 0.88189
        },
        {
          "time": 268.563678,
          "name": "C#5",
          "midi": 73,
          "duration": 0.982365,
          "velocity": 0.818898
        },
        {
          "time": 268.563678,
          "name": "C#4",
          "midi": 61,
          "duration": 0.491804,
          "velocity": 0.88189
        },
        {
          "time": 269.055481,
          "name": "F#4",
          "midi": 66,
          "duration": 0.490562,
          "velocity": 0.88189
        },
        {
          "time": 269.546043,
          "name": "A4",
          "midi": 69,
          "duration": 0.910333,
          "velocity": 0.818898
        },
        {
          "time": 269.546043,
          "name": "E4",
          "midi": 64,
          "duration": 0.910333,
          "velocity": 0.88189
        },
        {
          "time": 270.456376,
          "name": "B4",
          "midi": 71,
          "duration": 1.892698,
          "velocity": 0.818898
        },
        {
          "time": 270.456376,
          "name": "G#4",
          "midi": 68,
          "duration": 0.982365,
          "velocity": 0.818898
        },
        {
          "time": 270.948179,
          "name": "E4",
          "midi": 64,
          "duration": 0.490562,
          "velocity": 0.88189
        },
        {
          "time": 271.438741,
          "name": "E4",
          "midi": 64,
          "duration": 0.910333,
          "velocity": 0.818898
        },
        {
          "time": 271.438741,
          "name": "F#4",
          "midi": 66,
          "duration": 0.454545,
          "velocity": 0.88189
        },
        {
          "time": 271.893286,
          "name": "G#4",
          "midi": 68,
          "duration": 0.455787,
          "velocity": 0.88189
        },
        {
          "time": 272.349074,
          "name": "E4",
          "midi": 64,
          "duration": 1.892698,
          "velocity": 0.818898
        },
        {
          "time": 272.349074,
          "name": "A4",
          "midi": 69,
          "duration": 0.982365,
          "velocity": 0.818898
        },
        {
          "time": 272.349074,
          "name": "A4",
          "midi": 69,
          "duration": 0.491804,
          "velocity": 0.88189
        },
        {
          "time": 272.840877,
          "name": "C#4",
          "midi": 61,
          "duration": 0.490562,
          "velocity": 0.88189
        },
        {
          "time": 273.331439,
          "name": "C#5",
          "midi": 73,
          "duration": 0.910333,
          "velocity": 0.818898
        },
        {
          "time": 273.331439,
          "name": "G#4",
          "midi": 68,
          "duration": 0.454545,
          "velocity": 0.88189
        },
        {
          "time": 273.785984,
          "name": "F#4",
          "midi": 66,
          "duration": 0.455787,
          "velocity": 0.88189
        },
        {
          "time": 274.241772,
          "name": "B4",
          "midi": 71,
          "duration": 1.892698,
          "velocity": 0.818898
        },
        {
          "time": 274.241772,
          "name": "E4",
          "midi": 64,
          "duration": 4.005884,
          "velocity": 0.818898
        },
        {
          "time": 274.241772,
          "name": "E4",
          "midi": 64,
          "duration": 1.436911,
          "velocity": 0.88189
        },
        {
          "time": 275.678682,
          "name": "D4",
          "midi": 62,
          "duration": 0.455787,
          "velocity": 0.88189
        },
        {
          "time": 276.13447,
          "name": "A4",
          "midi": 69,
          "duration": 2.113186,
          "velocity": 0.818898
        },
        {
          "time": 276.13447,
          "name": "C#4",
          "midi": 61,
          "duration": 2.113186,
          "velocity": 0.88189
        },
        {
          "time": 278.247656,
          "name": "E5",
          "midi": 76,
          "duration": 0.122951,
          "velocity": 0.88189
        },
        {
          "time": 278.247656,
          "name": "D5",
          "midi": 74,
          "duration": 0.122951,
          "velocity": 0.88189
        },
        {
          "time": 278.370607,
          "name": "E5",
          "midi": 76,
          "duration": 0.122951,
          "velocity": 0.88189
        },
        {
          "time": 278.370607,
          "name": "D5",
          "midi": 74,
          "duration": 0.122951,
          "velocity": 0.88189
        },
        {
          "time": 278.493558,
          "name": "E5",
          "midi": 76,
          "duration": 0.122951,
          "velocity": 0.88189
        },
        {
          "time": 278.493558,
          "name": "D5",
          "midi": 74,
          "duration": 0.122951,
          "velocity": 0.88189
        },
        {
          "time": 278.616509,
          "name": "E5",
          "midi": 76,
          "duration": 0.122951,
          "velocity": 0.88189
        },
        {
          "time": 278.616509,
          "name": "D5",
          "midi": 74,
          "duration": 0.122951,
          "velocity": 0.88189
        },
        {
          "time": 278.73946,
          "name": "E5",
          "midi": 76,
          "duration": 0.122951,
          "velocity": 0.88189
        },
        {
          "time": 278.73946,
          "name": "D5",
          "midi": 74,
          "duration": 0.122951,
          "velocity": 0.88189
        },
        {
          "time": 278.862411,
          "name": "E5",
          "midi": 76,
          "duration": 0.122951,
          "velocity": 0.88189
        },
        {
          "time": 278.862411,
          "name": "D5",
          "midi": 74,
          "duration": 0.122951,
          "velocity": 0.88189
        },
        {
          "time": 278.985361,
          "name": "E5",
          "midi": 76,
          "duration": 0.122951,
          "velocity": 0.88189
        },
        {
          "time": 278.985361,
          "name": "D5",
          "midi": 74,
          "duration": 0.122951,
          "velocity": 0.88189
        },
        {
          "time": 279.108312,
          "name": "E5",
          "midi": 76,
          "duration": 0.121709,
          "velocity": 0.88189
        },
        {
          "time": 279.108312,
          "name": "D5",
          "midi": 74,
          "duration": 0.121709,
          "velocity": 0.88189
        },
        {
          "time": 279.230021,
          "name": "E5",
          "midi": 76,
          "duration": 0.113636,
          "velocity": 0.88189
        },
        {
          "time": 279.230021,
          "name": "D5",
          "midi": 74,
          "duration": 0.113636,
          "velocity": 0.88189
        },
        {
          "time": 279.343658,
          "name": "E5",
          "midi": 76,
          "duration": 0.113636,
          "velocity": 0.88189
        },
        {
          "time": 279.343658,
          "name": "D5",
          "midi": 74,
          "duration": 0.113636,
          "velocity": 0.88189
        },
        {
          "time": 279.457294,
          "name": "E5",
          "midi": 76,
          "duration": 0.113636,
          "velocity": 0.88189
        },
        {
          "time": 279.457294,
          "name": "D5",
          "midi": 74,
          "duration": 0.113636,
          "velocity": 0.88189
        },
        {
          "time": 279.57093,
          "name": "E5",
          "midi": 76,
          "duration": 0.113636,
          "velocity": 0.88189
        },
        {
          "time": 279.57093,
          "name": "D5",
          "midi": 74,
          "duration": 0.113636,
          "velocity": 0.88189
        },
        {
          "time": 279.684567,
          "name": "E5",
          "midi": 76,
          "duration": 0.113636,
          "velocity": 0.88189
        },
        {
          "time": 279.684567,
          "name": "D5",
          "midi": 74,
          "duration": 0.113636,
          "velocity": 0.88189
        },
        {
          "time": 279.798203,
          "name": "E5",
          "midi": 76,
          "duration": 0.113636,
          "velocity": 0.88189
        },
        {
          "time": 279.798203,
          "name": "D5",
          "midi": 74,
          "duration": 0.113636,
          "velocity": 0.88189
        },
        {
          "time": 279.911839,
          "name": "E5",
          "midi": 76,
          "duration": 0.113636,
          "velocity": 0.88189
        },
        {
          "time": 279.911839,
          "name": "D5",
          "midi": 74,
          "duration": 0.113636,
          "velocity": 0.88189
        },
        {
          "time": 280.025476,
          "name": "E5",
          "midi": 76,
          "duration": 0.114878,
          "velocity": 0.88189
        },
        {
          "time": 280.025476,
          "name": "D5",
          "midi": 74,
          "duration": 0.114878,
          "velocity": 0.88189
        },
        {
          "time": 280.140354,
          "name": "E5",
          "midi": 76,
          "duration": 0.122951,
          "velocity": 0.88189
        },
        {
          "time": 280.140354,
          "name": "C#5",
          "midi": 73,
          "duration": 0.122951,
          "velocity": 0.88189
        },
        {
          "time": 280.263305,
          "name": "C#5",
          "midi": 73,
          "duration": 0.122951,
          "velocity": 0.88189
        },
        {
          "time": 280.263305,
          "name": "E5",
          "midi": 76,
          "duration": 0.122951,
          "velocity": 0.88189
        },
        {
          "time": 280.386256,
          "name": "E5",
          "midi": 76,
          "duration": 0.122951,
          "velocity": 0.88189
        },
        {
          "time": 280.386256,
          "name": "C#5",
          "midi": 73,
          "duration": 0.122951,
          "velocity": 0.88189
        },
        {
          "time": 280.509207,
          "name": "C#5",
          "midi": 73,
          "duration": 0.122951,
          "velocity": 0.88189
        },
        {
          "time": 280.509207,
          "name": "E5",
          "midi": 76,
          "duration": 0.122951,
          "velocity": 0.88189
        },
        {
          "time": 280.632158,
          "name": "E5",
          "midi": 76,
          "duration": 0.122951,
          "velocity": 0.88189
        },
        {
          "time": 280.632158,
          "name": "C#5",
          "midi": 73,
          "duration": 0.122951,
          "velocity": 0.88189
        },
        {
          "time": 280.755109,
          "name": "C#5",
          "midi": 73,
          "duration": 0.122951,
          "velocity": 0.88189
        },
        {
          "time": 280.755109,
          "name": "E5",
          "midi": 76,
          "duration": 0.122951,
          "velocity": 0.88189
        },
        {
          "time": 280.878059,
          "name": "E5",
          "midi": 76,
          "duration": 0.122951,
          "velocity": 0.88189
        },
        {
          "time": 280.878059,
          "name": "C#5",
          "midi": 73,
          "duration": 0.122951,
          "velocity": 0.88189
        },
        {
          "time": 281.00101,
          "name": "E5",
          "midi": 76,
          "duration": 0.121709,
          "velocity": 0.88189
        },
        {
          "time": 281.00101,
          "name": "C#5",
          "midi": 73,
          "duration": 0.121709,
          "velocity": 0.88189
        },
        {
          "time": 281.122719,
          "name": "E5",
          "midi": 76,
          "duration": 0.113636,
          "velocity": 0.88189
        },
        {
          "time": 281.122719,
          "name": "C#5",
          "midi": 73,
          "duration": 0.113636,
          "velocity": 0.88189
        },
        {
          "time": 281.236356,
          "name": "E5",
          "midi": 76,
          "duration": 0.113636,
          "velocity": 0.88189
        },
        {
          "time": 281.236356,
          "name": "C#5",
          "midi": 73,
          "duration": 0.113636,
          "velocity": 0.88189
        },
        {
          "time": 281.349992,
          "name": "C#5",
          "midi": 73,
          "duration": 0.113636,
          "velocity": 0.88189
        },
        {
          "time": 281.349992,
          "name": "E5",
          "midi": 76,
          "duration": 0.113636,
          "velocity": 0.88189
        },
        {
          "time": 281.463628,
          "name": "E5",
          "midi": 76,
          "duration": 0.113636,
          "velocity": 0.88189
        },
        {
          "time": 281.463628,
          "name": "C#5",
          "midi": 73,
          "duration": 0.113636,
          "velocity": 0.88189
        },
        {
          "time": 281.577265,
          "name": "C#5",
          "midi": 73,
          "duration": 0.113636,
          "velocity": 0.88189
        },
        {
          "time": 281.577265,
          "name": "E5",
          "midi": 76,
          "duration": 0.113636,
          "velocity": 0.88189
        },
        {
          "time": 281.690901,
          "name": "E5",
          "midi": 76,
          "duration": 0.113636,
          "velocity": 0.88189
        },
        {
          "time": 281.690901,
          "name": "C#5",
          "midi": 73,
          "duration": 0.113636,
          "velocity": 0.88189
        },
        {
          "time": 281.804537,
          "name": "C#5",
          "midi": 73,
          "duration": 0.113636,
          "velocity": 0.88189
        },
        {
          "time": 281.804537,
          "name": "E5",
          "midi": 76,
          "duration": 0.113636,
          "velocity": 0.88189
        },
        {
          "time": 281.918174,
          "name": "E5",
          "midi": 76,
          "duration": 0.114878,
          "velocity": 0.88189
        },
        {
          "time": 281.918174,
          "name": "C#5",
          "midi": 73,
          "duration": 0.114878,
          "velocity": 0.88189
        },
        {
          "time": 282.033052,
          "name": "B4",
          "midi": 71,
          "duration": 0.122951,
          "velocity": 0.88189
        },
        {
          "time": 282.156003,
          "name": "B4",
          "midi": 71,
          "duration": 0.122951,
          "velocity": 0.88189
        },
        {
          "time": 282.278954,
          "name": "B4",
          "midi": 71,
          "duration": 0.122951,
          "velocity": 0.88189
        },
        {
          "time": 282.401905,
          "name": "B4",
          "midi": 71,
          "duration": 0.122951,
          "velocity": 0.88189
        },
        {
          "time": 282.524856,
          "name": "B4",
          "midi": 71,
          "duration": 0.122951,
          "velocity": 0.88189
        },
        {
          "time": 282.647807,
          "name": "B4",
          "midi": 71,
          "duration": 0.122951,
          "velocity": 0.88189
        },
        {
          "time": 282.770757,
          "name": "B4",
          "midi": 71,
          "duration": 0.122951,
          "velocity": 0.88189
        },
        {
          "time": 282.893708,
          "name": "B4",
          "midi": 71,
          "duration": 0.121709,
          "velocity": 0.88189
        },
        {
          "time": 283.015417,
          "name": "B4",
          "midi": 71,
          "duration": 0.113636,
          "velocity": 0.88189
        },
        {
          "time": 283.129054,
          "name": "B4",
          "midi": 71,
          "duration": 0.113636,
          "velocity": 0.88189
        },
        {
          "time": 283.24269,
          "name": "B4",
          "midi": 71,
          "duration": 0.113636,
          "velocity": 0.88189
        },
        {
          "time": 283.356326,
          "name": "B4",
          "midi": 71,
          "duration": 0.113636,
          "velocity": 0.88189
        },
        {
          "time": 283.469963,
          "name": "B4",
          "midi": 71,
          "duration": 0.113636,
          "velocity": 0.88189
        },
        {
          "time": 283.583599,
          "name": "B4",
          "midi": 71,
          "duration": 0.113636,
          "velocity": 0.88189
        },
        {
          "time": 283.697235,
          "name": "B4",
          "midi": 71,
          "duration": 0.113636,
          "velocity": 0.88189
        },
        {
          "time": 283.810872,
          "name": "B4",
          "midi": 71,
          "duration": 0.114878,
          "velocity": 0.88189
        },
        {
          "time": 283.92575,
          "name": "A4",
          "midi": 69,
          "duration": 0.122951,
          "velocity": 0.88189
        },
        {
          "time": 284.048701,
          "name": "A4",
          "midi": 69,
          "duration": 0.122951,
          "velocity": 0.88189
        },
        {
          "time": 284.171652,
          "name": "A4",
          "midi": 69,
          "duration": 0.122951,
          "velocity": 0.88189
        },
        {
          "time": 284.294603,
          "name": "A4",
          "midi": 69,
          "duration": 0.122951,
          "velocity": 0.88189
        },
        {
          "time": 284.417554,
          "name": "A4",
          "midi": 69,
          "duration": 0.122951,
          "velocity": 0.88189
        },
        {
          "time": 284.540505,
          "name": "A4",
          "midi": 69,
          "duration": 0.122951,
          "velocity": 0.88189
        },
        {
          "time": 284.663455,
          "name": "A4",
          "midi": 69,
          "duration": 0.122951,
          "velocity": 0.88189
        },
        {
          "time": 284.786406,
          "name": "A4",
          "midi": 69,
          "duration": 0.121709,
          "velocity": 0.88189
        },
        {
          "time": 284.908115,
          "name": "A4",
          "midi": 69,
          "duration": 0.113636,
          "velocity": 0.88189
        },
        {
          "time": 285.021752,
          "name": "A4",
          "midi": 69,
          "duration": 0.113636,
          "velocity": 0.88189
        },
        {
          "time": 285.135388,
          "name": "A4",
          "midi": 69,
          "duration": 0.113636,
          "velocity": 0.88189
        },
        {
          "time": 285.249024,
          "name": "A4",
          "midi": 69,
          "duration": 0.113636,
          "velocity": 0.88189
        },
        {
          "time": 285.362661,
          "name": "A4",
          "midi": 69,
          "duration": 0.113636,
          "velocity": 0.88189
        },
        {
          "time": 285.476297,
          "name": "A4",
          "midi": 69,
          "duration": 0.113636,
          "velocity": 0.88189
        },
        {
          "time": 285.589933,
          "name": "A4",
          "midi": 69,
          "duration": 0.113636,
          "velocity": 0.88189
        },
        {
          "time": 285.70357,
          "name": "A4",
          "midi": 69,
          "duration": 0.114878,
          "velocity": 0.88189
        },
        {
          "time": 285.818448,
          "name": "G#4",
          "midi": 68,
          "duration": 0.122951,
          "velocity": 0.88189
        },
        {
          "time": 285.941399,
          "name": "G#4",
          "midi": 68,
          "duration": 0.122951,
          "velocity": 0.88189
        },
        {
          "time": 286.06435,
          "name": "G#4",
          "midi": 68,
          "duration": 0.122951,
          "velocity": 0.88189
        },
        {
          "time": 286.187301,
          "name": "G#4",
          "midi": 68,
          "duration": 0.122951,
          "velocity": 0.88189
        },
        {
          "time": 286.310252,
          "name": "G#4",
          "midi": 68,
          "duration": 0.122951,
          "velocity": 0.88189
        },
        {
          "time": 286.433203,
          "name": "G#4",
          "midi": 68,
          "duration": 0.122951,
          "velocity": 0.88189
        },
        {
          "time": 286.556153,
          "name": "G#4",
          "midi": 68,
          "duration": 0.122951,
          "velocity": 0.88189
        },
        {
          "time": 286.679104,
          "name": "G#4",
          "midi": 68,
          "duration": 0.121709,
          "velocity": 0.88189
        },
        {
          "time": 286.800813,
          "name": "G#4",
          "midi": 68,
          "duration": 0.113636,
          "velocity": 0.88189
        },
        {
          "time": 286.91445,
          "name": "G#4",
          "midi": 68,
          "duration": 0.113636,
          "velocity": 0.88189
        },
        {
          "time": 287.028086,
          "name": "G#4",
          "midi": 68,
          "duration": 0.113636,
          "velocity": 0.88189
        },
        {
          "time": 287.141722,
          "name": "G#4",
          "midi": 68,
          "duration": 0.113636,
          "velocity": 0.88189
        },
        {
          "time": 287.255359,
          "name": "G#4",
          "midi": 68,
          "duration": 0.113636,
          "velocity": 0.88189
        },
        {
          "time": 287.368995,
          "name": "G#4",
          "midi": 68,
          "duration": 0.113636,
          "velocity": 0.88189
        },
        {
          "time": 287.482631,
          "name": "G#4",
          "midi": 68,
          "duration": 0.113636,
          "velocity": 0.88189
        },
        {
          "time": 287.596268,
          "name": "G#4",
          "midi": 68,
          "duration": 0.114878,
          "velocity": 0.88189
        },
        {
          "time": 287.711146,
          "name": "A4",
          "midi": 69,
          "duration": 0.122951,
          "velocity": 0.88189
        },
        {
          "time": 287.834097,
          "name": "A4",
          "midi": 69,
          "duration": 0.122951,
          "velocity": 0.88189
        },
        {
          "time": 287.957048,
          "name": "A4",
          "midi": 69,
          "duration": 0.122951,
          "velocity": 0.88189
        },
        {
          "time": 288.079999,
          "name": "A4",
          "midi": 69,
          "duration": 0.122951,
          "velocity": 0.88189
        },
        {
          "time": 288.20295,
          "name": "A4",
          "midi": 69,
          "duration": 0.122951,
          "velocity": 0.88189
        },
        {
          "time": 288.325901,
          "name": "A4",
          "midi": 69,
          "duration": 0.122951,
          "velocity": 0.88189
        },
        {
          "time": 288.448851,
          "name": "A4",
          "midi": 69,
          "duration": 0.122951,
          "velocity": 0.88189
        },
        {
          "time": 288.571802,
          "name": "A4",
          "midi": 69,
          "duration": 0.121709,
          "velocity": 0.88189
        },
        {
          "time": 288.693511,
          "name": "A4",
          "midi": 69,
          "duration": 0.113636,
          "velocity": 0.88189
        },
        {
          "time": 288.807148,
          "name": "A4",
          "midi": 69,
          "duration": 0.113636,
          "velocity": 0.88189
        },
        {
          "time": 288.920784,
          "name": "A4",
          "midi": 69,
          "duration": 0.113636,
          "velocity": 0.88189
        },
        {
          "time": 289.03442,
          "name": "A4",
          "midi": 69,
          "duration": 0.113636,
          "velocity": 0.88189
        },
        {
          "time": 289.148057,
          "name": "A4",
          "midi": 69,
          "duration": 0.113636,
          "velocity": 0.88189
        },
        {
          "time": 289.261693,
          "name": "A4",
          "midi": 69,
          "duration": 0.113636,
          "velocity": 0.88189
        },
        {
          "time": 289.375329,
          "name": "A4",
          "midi": 69,
          "duration": 0.113636,
          "velocity": 0.88189
        },
        {
          "time": 289.488966,
          "name": "A4",
          "midi": 69,
          "duration": 0.114878,
          "velocity": 0.88189
        },
        {
          "time": 289.603844,
          "name": "B4",
          "midi": 71,
          "duration": 0.122951,
          "velocity": 0.88189
        },
        {
          "time": 289.726795,
          "name": "B4",
          "midi": 71,
          "duration": 0.122951,
          "velocity": 0.88189
        },
        {
          "time": 289.849746,
          "name": "B4",
          "midi": 71,
          "duration": 0.122951,
          "velocity": 0.88189
        },
        {
          "time": 289.972697,
          "name": "B4",
          "midi": 71,
          "duration": 0.122951,
          "velocity": 0.88189
        },
        {
          "time": 290.095648,
          "name": "B4",
          "midi": 71,
          "duration": 0.122951,
          "velocity": 0.88189
        },
        {
          "time": 290.218599,
          "name": "B4",
          "midi": 71,
          "duration": 0.122951,
          "velocity": 0.88189
        },
        {
          "time": 290.341549,
          "name": "B4",
          "midi": 71,
          "duration": 0.122951,
          "velocity": 0.88189
        },
        {
          "time": 290.4645,
          "name": "B4",
          "midi": 71,
          "duration": 0.121709,
          "velocity": 0.88189
        },
        {
          "time": 290.586209,
          "name": "B4",
          "midi": 71,
          "duration": 0.113636,
          "velocity": 0.88189
        },
        {
          "time": 290.699846,
          "name": "B4",
          "midi": 71,
          "duration": 0.113636,
          "velocity": 0.88189
        },
        {
          "time": 290.813482,
          "name": "B4",
          "midi": 71,
          "duration": 0.113636,
          "velocity": 0.88189
        },
        {
          "time": 290.927118,
          "name": "B4",
          "midi": 71,
          "duration": 0.113636,
          "velocity": 0.88189
        },
        {
          "time": 291.040755,
          "name": "B4",
          "midi": 71,
          "duration": 0.113636,
          "velocity": 0.88189
        },
        {
          "time": 291.154391,
          "name": "B4",
          "midi": 71,
          "duration": 0.113636,
          "velocity": 0.88189
        },
        {
          "time": 291.268027,
          "name": "B4",
          "midi": 71,
          "duration": 0.113636,
          "velocity": 0.88189
        },
        {
          "time": 291.381664,
          "name": "B4",
          "midi": 71,
          "duration": 0.114878,
          "velocity": 0.88189
        },
        {
          "time": 291.496542,
          "name": "A4",
          "midi": 69,
          "duration": 0.122951,
          "velocity": 0.88189
        },
        {
          "time": 291.619493,
          "name": "A4",
          "midi": 69,
          "duration": 0.122951,
          "velocity": 0.88189
        },
        {
          "time": 291.742444,
          "name": "A4",
          "midi": 69,
          "duration": 0.122951,
          "velocity": 0.88189
        },
        {
          "time": 291.865395,
          "name": "A4",
          "midi": 69,
          "duration": 0.122951,
          "velocity": 0.88189
        },
        {
          "time": 291.988346,
          "name": "A4",
          "midi": 69,
          "duration": 0.122951,
          "velocity": 0.88189
        },
        {
          "time": 292.111297,
          "name": "A4",
          "midi": 69,
          "duration": 0.122951,
          "velocity": 0.88189
        },
        {
          "time": 292.234247,
          "name": "A4",
          "midi": 69,
          "duration": 0.122951,
          "velocity": 0.88189
        },
        {
          "time": 292.357198,
          "name": "A4",
          "midi": 69,
          "duration": 0.121709,
          "velocity": 0.88189
        },
        {
          "time": 292.478907,
          "name": "A4",
          "midi": 69,
          "duration": 0.113636,
          "velocity": 0.88189
        },
        {
          "time": 292.592544,
          "name": "A4",
          "midi": 69,
          "duration": 0.113636,
          "velocity": 0.88189
        },
        {
          "time": 292.70618,
          "name": "A4",
          "midi": 69,
          "duration": 0.113636,
          "velocity": 0.88189
        },
        {
          "time": 292.819816,
          "name": "A4",
          "midi": 69,
          "duration": 0.113636,
          "velocity": 0.88189
        },
        {
          "time": 292.933453,
          "name": "A4",
          "midi": 69,
          "duration": 0.113636,
          "velocity": 0.88189
        },
        {
          "time": 293.047089,
          "name": "A4",
          "midi": 69,
          "duration": 0.113636,
          "velocity": 0.88189
        },
        {
          "time": 293.160725,
          "name": "A4",
          "midi": 69,
          "duration": 0.113636,
          "velocity": 0.88189
        },
        {
          "time": 293.274362,
          "name": "A4",
          "midi": 69,
          "duration": 0.114878,
          "velocity": 0.88189
        },
        {
          "time": 293.38924,
          "name": "G4",
          "midi": 67,
          "duration": 0.122951,
          "velocity": 0.88189
        },
        {
          "time": 293.38924,
          "name": "B3",
          "midi": 59,
          "duration": 0.122951,
          "velocity": 0.88189
        },
        {
          "time": 293.512191,
          "name": "B3",
          "midi": 59,
          "duration": 0.122951,
          "velocity": 0.88189
        },
        {
          "time": 293.512191,
          "name": "G4",
          "midi": 67,
          "duration": 0.122951,
          "velocity": 0.88189
        },
        {
          "time": 293.635142,
          "name": "G4",
          "midi": 67,
          "duration": 0.122951,
          "velocity": 0.88189
        },
        {
          "time": 293.635142,
          "name": "B3",
          "midi": 59,
          "duration": 0.122951,
          "velocity": 0.88189
        },
        {
          "time": 293.758093,
          "name": "B3",
          "midi": 59,
          "duration": 0.125076,
          "velocity": 0.88189
        },
        {
          "time": 293.758093,
          "name": "G4",
          "midi": 67,
          "duration": 0.125076,
          "velocity": 0.88189
        },
        {
          "time": 293.883169,
          "name": "G4",
          "midi": 67,
          "duration": 0.138889,
          "velocity": 0.88189
        },
        {
          "time": 293.883169,
          "name": "B3",
          "midi": 59,
          "duration": 0.138889,
          "velocity": 0.88189
        },
        {
          "time": 294.022058,
          "name": "B3",
          "midi": 59,
          "duration": 0.138889,
          "velocity": 0.88189
        },
        {
          "time": 294.022058,
          "name": "G4",
          "midi": 67,
          "duration": 0.138889,
          "velocity": 0.88189
        },
        {
          "time": 294.160946,
          "name": "G4",
          "midi": 67,
          "duration": 0.138889,
          "velocity": 0.88189
        },
        {
          "time": 294.160946,
          "name": "B3",
          "midi": 59,
          "duration": 0.138889,
          "velocity": 0.88189
        },
        {
          "time": 294.299835,
          "name": "B3",
          "midi": 59,
          "duration": 0.13637,
          "velocity": 0.88189
        },
        {
          "time": 294.299835,
          "name": "G4",
          "midi": 67,
          "duration": 0.13637,
          "velocity": 0.88189
        },
        {
          "time": 294.436206,
          "name": "A#3",
          "midi": 58,
          "duration": 0.12,
          "velocity": 0.88189
        },
        {
          "time": 294.436206,
          "name": "F#4",
          "midi": 66,
          "duration": 0.12,
          "velocity": 0.88189
        },
        {
          "time": 294.556206,
          "name": "A#3",
          "midi": 58,
          "duration": 0.12,
          "velocity": 0.88189
        },
        {
          "time": 294.556206,
          "name": "F#4",
          "midi": 66,
          "duration": 0.12,
          "velocity": 0.88189
        },
        {
          "time": 294.676206,
          "name": "A#3",
          "midi": 58,
          "duration": 0.12,
          "velocity": 0.88189
        },
        {
          "time": 294.676206,
          "name": "F#4",
          "midi": 66,
          "duration": 0.12,
          "velocity": 0.88189
        },
        {
          "time": 294.796206,
          "name": "A#3",
          "midi": 58,
          "duration": 0.12,
          "velocity": 0.88189
        },
        {
          "time": 294.796206,
          "name": "F#4",
          "midi": 66,
          "duration": 0.12,
          "velocity": 0.88189
        },
        {
          "time": 294.916206,
          "name": "A#3",
          "midi": 58,
          "duration": 0.12,
          "velocity": 0.88189
        },
        {
          "time": 294.916206,
          "name": "F#4",
          "midi": 66,
          "duration": 0.12,
          "velocity": 0.88189
        },
        {
          "time": 295.036206,
          "name": "A#3",
          "midi": 58,
          "duration": 0.12,
          "velocity": 0.88189
        },
        {
          "time": 295.036206,
          "name": "F#4",
          "midi": 66,
          "duration": 0.12,
          "velocity": 0.88189
        },
        {
          "time": 295.156206,
          "name": "A#3",
          "midi": 58,
          "duration": 0.12,
          "velocity": 0.88189
        },
        {
          "time": 295.156206,
          "name": "F#4",
          "midi": 66,
          "duration": 0.12,
          "velocity": 0.88189
        },
        {
          "time": 295.276206,
          "name": "A#3",
          "midi": 58,
          "duration": 0.120393,
          "velocity": 0.88189
        },
        {
          "time": 295.276206,
          "name": "F#4",
          "midi": 66,
          "duration": 0.120393,
          "velocity": 0.88189
        },
        {
          "time": 295.396599,
          "name": "B3",
          "midi": 59,
          "duration": 0.491804,
          "velocity": 0.88189
        },
        {
          "time": 295.396599,
          "name": "D4",
          "midi": 62,
          "duration": 0.491804,
          "velocity": 0.88189
        },
        {
          "time": 296.378964,
          "name": "F#4",
          "midi": 66,
          "duration": 0.910333,
          "velocity": 0.88189
        },
        {
          "time": 297.289297,
          "name": "C#4",
          "midi": 61,
          "duration": 0.982365,
          "velocity": 0.88189
        },
        {
          "time": 299.181995,
          "name": "C#4",
          "midi": 61,
          "duration": 0.982365,
          "velocity": 0.88189
        },
        {
          "time": 300.16436,
          "name": "F#4",
          "midi": 66,
          "duration": 0.996328,
          "velocity": 0.88189
        },
        {
          "time": 301.160688,
          "name": "F#4",
          "midi": 66,
          "duration": 0.982365,
          "velocity": 0.88189
        },
        {
          "time": 302.143053,
          "name": "F#4",
          "midi": 66,
          "duration": 0.913939,
          "velocity": 0.88189
        },
        {
          "time": 303.056993,
          "name": "E4",
          "midi": 64,
          "duration": 1.086955,
          "velocity": 0.88189
        },
        {
          "time": 304.143948,
          "name": "D4",
          "midi": 62,
          "duration": 0.910333,
          "velocity": 0.88189
        },
        {
          "time": 305.054281,
          "name": "C#4",
          "midi": 61,
          "duration": 0.982365,
          "velocity": 0.88189
        },
        {
          "time": 306.036646,
          "name": "D4",
          "midi": 62,
          "duration": 0.910333,
          "velocity": 0.88189
        },
        {
          "time": 306.946979,
          "name": "C#4",
          "midi": 61,
          "duration": 0.982365,
          "velocity": 0.88189
        },
        {
          "time": 307.929344,
          "name": "C#5",
          "midi": 73,
          "duration": 1.055787,
          "velocity": 0.88189
        },
        {
          "time": 310.877829,
          "name": "E4",
          "midi": 64,
          "duration": 0.491804,
          "velocity": 0.818898
        },
        {
          "time": 311.369633,
          "name": "A4",
          "midi": 69,
          "duration": 0.490562,
          "velocity": 0.818898
        },
        {
          "time": 311.860194,
          "name": "B4",
          "midi": 71,
          "duration": 0.454545,
          "velocity": 0.818898
        },
        {
          "time": 312.31474,
          "name": "C#5",
          "midi": 73,
          "duration": 0.459002,
          "velocity": 0.818898
        },
        {
          "time": 312.773742,
          "name": "B4",
          "midi": 71,
          "duration": 0.585021,
          "velocity": 0.818898
        },
        {
          "time": 314.759657,
          "name": "E4",
          "midi": 64,
          "duration": 0.491804,
          "velocity": 0.818898
        },
        {
          "time": 315.251461,
          "name": "A4",
          "midi": 69,
          "duration": 0.490562,
          "velocity": 0.818898
        },
        {
          "time": 315.742022,
          "name": "B4",
          "midi": 71,
          "duration": 0.454545,
          "velocity": 0.818898
        },
        {
          "time": 316.196568,
          "name": "C#5",
          "midi": 73,
          "duration": 0.459394,
          "velocity": 0.818898
        },
        {
          "time": 316.655962,
          "name": "D#5",
          "midi": 75,
          "duration": 0.59626,
          "velocity": 0.818898
        },
        {
          "time": 324.473165,
          "name": "E4",
          "midi": 64,
          "duration": 0.491804,
          "velocity": 0.88189
        },
        {
          "time": 324.489559,
          "name": "C#5",
          "midi": 73,
          "duration": 0.491804,
          "velocity": 0.88189
        },
        {
          "time": 324.514149,
          "name": "G#5",
          "midi": 80,
          "duration": 0.491804,
          "velocity": 0.88189
        },
        {
          "time": 328.258561,
          "name": "E4",
          "midi": 64,
          "duration": 0.491804,
          "velocity": 0.88189
        },
        {
          "time": 328.274955,
          "name": "C#5",
          "midi": 73,
          "duration": 0.491804,
          "velocity": 0.88189
        },
        {
          "time": 328.299545,
          "name": "G#5",
          "midi": 80,
          "duration": 0.491804,
          "velocity": 0.88189
        },
        {
          "time": 346.8665,
          "name": "B3",
          "midi": 59,
          "duration": 0.42612,
          "velocity": 0.88189
        },
        {
          "time": 347.64765,
          "name": "B3",
          "midi": 59,
          "duration": 0.35539,
          "velocity": 0.88189
        },
        {
          "time": 348.368894,
          "name": "A3",
          "midi": 57,
          "duration": 0.364769,
          "velocity": 0.88189
        },
        {
          "time": 349.066997,
          "name": "A3",
          "midi": 57,
          "duration": 0.334417,
          "velocity": 0.88189
        },
        {
          "time": 349.767268,
          "name": "D4",
          "midi": 62,
          "duration": 0.364769,
          "velocity": 0.88189
        },
        {
          "time": 350.465371,
          "name": "D4",
          "midi": 62,
          "duration": 0.334417,
          "velocity": 0.88189
        },
        {
          "time": 351.165642,
          "name": "C#4",
          "midi": 61,
          "duration": 0.368584,
          "velocity": 0.88189
        },
        {
          "time": 351.978896,
          "name": "E4",
          "midi": 64,
          "duration": 0.35539,
          "velocity": 0.88189
        },
        {
          "time": 352.700139,
          "name": "D4",
          "midi": 62,
          "duration": 0.364769,
          "velocity": 0.88189
        },
        {
          "time": 353.398242,
          "name": "E4",
          "midi": 64,
          "duration": 0.334417,
          "velocity": 0.88189
        },
        {
          "time": 354.098513,
          "name": "E4",
          "midi": 64,
          "duration": 0.364769,
          "velocity": 0.88189
        },
        {
          "time": 354.796616,
          "name": "E4",
          "midi": 64,
          "duration": 0.334417,
          "velocity": 0.88189
        },
        {
          "time": 355.496887,
          "name": "E4",
          "midi": 64,
          "duration": 0.364769,
          "velocity": 0.88189
        },
        {
          "time": 356.19499,
          "name": "E4",
          "midi": 64,
          "duration": 0.335736,
          "velocity": 0.88189
        },
        {
          "time": 356.530726,
          "name": "E4",
          "midi": 64,
          "duration": 0.404631,
          "velocity": 0.88189
        },
        {
          "time": 358.393513,
          "name": "A4",
          "midi": 69,
          "duration": 0.364769,
          "velocity": 0.88189
        },
        {
          "time": 359.091616,
          "name": "B4",
          "midi": 71,
          "duration": 0.334417,
          "velocity": 0.88189
        },
        {
          "time": 359.791887,
          "name": "A4",
          "midi": 69,
          "duration": 0.364769,
          "velocity": 0.88189
        },
        {
          "time": 360.48999,
          "name": "A4",
          "midi": 69,
          "duration": 0.334417,
          "velocity": 0.88189
        },
        {
          "time": 361.190261,
          "name": "B4",
          "midi": 71,
          "duration": 0.364769,
          "velocity": 0.88189
        },
        {
          "time": 361.888364,
          "name": "E4",
          "midi": 64,
          "duration": 0.334417,
          "velocity": 0.88189
        },
        {
          "time": 362.588635,
          "name": "E4",
          "midi": 64,
          "duration": 0.368584,
          "velocity": 0.88189
        },
        {
          "time": 363.401959,
          "name": "A4",
          "midi": 69,
          "duration": 0.357433,
          "velocity": 0.88189
        },
        {
          "time": 364.125246,
          "name": "A4",
          "midi": 69,
          "duration": 0.364769,
          "velocity": 0.88189
        },
        {
          "time": 364.823349,
          "name": "B4",
          "midi": 71,
          "duration": 0.334417,
          "velocity": 0.88189
        },
        {
          "time": 365.52362,
          "name": "C#5",
          "midi": 73,
          "duration": 0.364769,
          "velocity": 0.88189
        },
        {
          "time": 366.221723,
          "name": "A4",
          "midi": 69,
          "duration": 0.334417,
          "velocity": 0.88189
        },
        {
          "time": 366.921994,
          "name": "B4",
          "midi": 71,
          "duration": 0.364769,
          "velocity": 0.88189
        },
        {
          "time": 367.620097,
          "name": "E4",
          "midi": 64,
          "duration": 0.334417,
          "velocity": 0.88189
        },
        {
          "time": 367.954515,
          "name": "E4",
          "midi": 64,
          "duration": 0.365854,
          "velocity": 0.88189
        },
        {
          "time": 369.18418,
          "name": "A4",
          "midi": 69,
          "duration": 0.429553,
          "velocity": 0.818898
        },
        {
          "time": 369.18418,
          "name": "A5",
          "midi": 81,
          "duration": 0.429553,
          "velocity": 0.818898
        },
        {
          "time": 369.18418,
          "name": "A5",
          "midi": 81,
          "duration": 0.429553,
          "velocity": 0.88189
        },
        {
          "time": 369.613733,
          "name": "G#5",
          "midi": 80,
          "duration": 0.455652,
          "velocity": 0.818898
        },
        {
          "time": 369.613733,
          "name": "G#4",
          "midi": 68,
          "duration": 0.455652,
          "velocity": 0.818898
        },
        {
          "time": 369.613733,
          "name": "G#5",
          "midi": 80,
          "duration": 0.455652,
          "velocity": 0.88189
        },
        {
          "time": 370.069385,
          "name": "F#5",
          "midi": 78,
          "duration": 0.386028,
          "velocity": 0.818898
        },
        {
          "time": 370.069385,
          "name": "F#4",
          "midi": 66,
          "duration": 0.386028,
          "velocity": 0.818898
        },
        {
          "time": 370.069385,
          "name": "F#5",
          "midi": 78,
          "duration": 0.386028,
          "velocity": 0.88189
        },
        {
          "time": 370.455413,
          "name": "B5",
          "midi": 83,
          "duration": 0.177515,
          "velocity": 0.818898
        },
        {
          "time": 370.455413,
          "name": "B4",
          "midi": 71,
          "duration": 0.177515,
          "velocity": 0.818898
        },
        {
          "time": 370.455413,
          "name": "B5",
          "midi": 83,
          "duration": 0.177515,
          "velocity": 0.88189
        },
        {
          "time": 370.632928,
          "name": "A5",
          "midi": 81,
          "duration": 0.177515,
          "velocity": 0.818898
        },
        {
          "time": 370.632928,
          "name": "A4",
          "midi": 69,
          "duration": 0.177515,
          "velocity": 0.818898
        },
        {
          "time": 370.632928,
          "name": "A5",
          "midi": 81,
          "duration": 0.177515,
          "velocity": 0.88189
        },
        {
          "time": 370.810443,
          "name": "G#4",
          "midi": 68,
          "duration": 0.136095,
          "velocity": 0.818898
        },
        {
          "time": 370.810443,
          "name": "G#5",
          "midi": 80,
          "duration": 0.136095,
          "velocity": 0.818898
        },
        {
          "time": 370.810443,
          "name": "G#5",
          "midi": 80,
          "duration": 0.136095,
          "velocity": 0.88189
        },
        {
          "time": 370.987957,
          "name": "F#5",
          "midi": 78,
          "duration": 0.136095,
          "velocity": 0.818898
        },
        {
          "time": 370.987957,
          "name": "F#4",
          "midi": 66,
          "duration": 0.136095,
          "velocity": 0.818898
        },
        {
          "time": 370.987957,
          "name": "F#5",
          "midi": 78,
          "duration": 0.136095,
          "velocity": 0.88189
        },
        {
          "time": 371.165833,
          "name": "E5",
          "midi": 76,
          "duration": 0.27439,
          "velocity": 0.818898
        },
        {
          "time": 371.165833,
          "name": "E4",
          "midi": 64,
          "duration": 0.27439,
          "velocity": 0.818898
        },
        {
          "time": 371.165833,
          "name": "E5",
          "midi": 76,
          "duration": 0.27439,
          "velocity": 0.88189
        },
        {
          "time": 371.531686,
          "name": "F#5",
          "midi": 78,
          "duration": 0.121951,
          "velocity": 0.818898
        },
        {
          "time": 371.531686,
          "name": "F#4",
          "midi": 66,
          "duration": 0.121951,
          "velocity": 0.818898
        },
        {
          "time": 371.531686,
          "name": "F#5",
          "midi": 78,
          "duration": 0.121951,
          "velocity": 0.88189
        },
        {
          "time": 371.653638,
          "name": "G#5",
          "midi": 80,
          "duration": 0.121951,
          "velocity": 0.818898
        },
        {
          "time": 371.653638,
          "name": "G#4",
          "midi": 68,
          "duration": 0.121951,
          "velocity": 0.818898
        },
        {
          "time": 371.653638,
          "name": "G#5",
          "midi": 80,
          "duration": 0.121951,
          "velocity": 0.88189
        },
        {
          "time": 371.775589,
          "name": "F#4",
          "midi": 66,
          "duration": 0.120867,
          "velocity": 0.818898
        },
        {
          "time": 371.775589,
          "name": "F#5",
          "midi": 78,
          "duration": 0.120867,
          "velocity": 0.818898
        },
        {
          "time": 371.775589,
          "name": "F#5",
          "midi": 78,
          "duration": 0.120867,
          "velocity": 0.88189
        },
        {
          "time": 371.896456,
          "name": "E5",
          "midi": 76,
          "duration": 0.333334,
          "velocity": 0.818898
        },
        {
          "time": 371.896456,
          "name": "E4",
          "midi": 64,
          "duration": 0.333334,
          "velocity": 0.818898
        },
        {
          "time": 371.896456,
          "name": "E5",
          "midi": 76,
          "duration": 0.333334,
          "velocity": 0.88189
        },
        {
          "time": 372.057567,
          "name": "A4",
          "midi": 69,
          "duration": 0.166667,
          "velocity": 0.92126
        },
        {
          "time": 372.074234,
          "name": "A3",
          "midi": 57,
          "duration": 0.166667,
          "velocity": 0.92126
        },
        {
          "time": 372.224234,
          "name": "B4",
          "midi": 71,
          "duration": 0.166667,
          "velocity": 0.92126
        },
        {
          "time": 372.2409,
          "name": "B3",
          "midi": 59,
          "duration": 0.166667,
          "velocity": 0.92126
        },
        {
          "time": 372.390901,
          "name": "C#5",
          "midi": 73,
          "duration": 0.167209,
          "velocity": 0.92126
        },
        {
          "time": 372.407567,
          "name": "C#4",
          "midi": 61,
          "duration": 0.168835,
          "velocity": 0.92126
        },
        {
          "time": 372.558109,
          "name": "D5",
          "midi": 74,
          "duration": 0.365853,
          "velocity": 0.92126
        },
        {
          "time": 372.576402,
          "name": "D4",
          "midi": 62,
          "duration": 0.365853,
          "velocity": 0.92126
        },
        {
          "time": 372.93006,
          "name": "F#5",
          "midi": 78,
          "duration": 0.121951,
          "velocity": 0.818898
        },
        {
          "time": 372.93006,
          "name": "F#4",
          "midi": 66,
          "duration": 0.121951,
          "velocity": 0.818898
        },
        {
          "time": 372.93006,
          "name": "F#5",
          "midi": 78,
          "duration": 0.121951,
          "velocity": 0.88189
        },
        {
          "time": 373.052012,
          "name": "G#5",
          "midi": 80,
          "duration": 0.121951,
          "velocity": 0.818898
        },
        {
          "time": 373.052012,
          "name": "G#4",
          "midi": 68,
          "duration": 0.121951,
          "velocity": 0.818898
        },
        {
          "time": 373.052012,
          "name": "G#5",
          "midi": 80,
          "duration": 0.121951,
          "velocity": 0.88189
        },
        {
          "time": 373.173963,
          "name": "F#5",
          "midi": 78,
          "duration": 0.120867,
          "velocity": 0.818898
        },
        {
          "time": 373.173963,
          "name": "F#4",
          "midi": 66,
          "duration": 0.120867,
          "velocity": 0.818898
        },
        {
          "time": 373.173963,
          "name": "F#5",
          "midi": 78,
          "duration": 0.120867,
          "velocity": 0.88189
        },
        {
          "time": 373.29483,
          "name": "E4",
          "midi": 64,
          "duration": 0.333334,
          "velocity": 0.818898
        },
        {
          "time": 373.29483,
          "name": "E5",
          "midi": 76,
          "duration": 0.333334,
          "velocity": 0.818898
        },
        {
          "time": 373.29483,
          "name": "E5",
          "midi": 76,
          "duration": 0.333334,
          "velocity": 0.88189
        },
        {
          "time": 373.455941,
          "name": "G#4",
          "midi": 68,
          "duration": 0.166667,
          "velocity": 0.92126
        },
        {
          "time": 373.472608,
          "name": "G#3",
          "midi": 56,
          "duration": 0.166667,
          "velocity": 0.92126
        },
        {
          "time": 373.622608,
          "name": "A4",
          "midi": 69,
          "duration": 0.166667,
          "velocity": 0.92126
        },
        {
          "time": 373.639274,
          "name": "A3",
          "midi": 57,
          "duration": 0.166667,
          "velocity": 0.92126
        },
        {
          "time": 373.789275,
          "name": "B4",
          "midi": 71,
          "duration": 0.167209,
          "velocity": 0.92126
        },
        {
          "time": 373.805941,
          "name": "B3",
          "midi": 59,
          "duration": 0.168835,
          "velocity": 0.92126
        },
        {
          "time": 373.956483,
          "name": "C#5",
          "midi": 73,
          "duration": 0.365853,
          "velocity": 0.92126
        },
        {
          "time": 373.974776,
          "name": "C#4",
          "midi": 61,
          "duration": 0.365853,
          "velocity": 0.92126
        },
        {
          "time": 374.328434,
          "name": "F#5",
          "midi": 78,
          "duration": 0.121951,
          "velocity": 0.818898
        },
        {
          "time": 374.328434,
          "name": "F#4",
          "midi": 66,
          "duration": 0.121951,
          "velocity": 0.818898
        },
        {
          "time": 374.328434,
          "name": "F#5",
          "midi": 78,
          "duration": 0.121951,
          "velocity": 0.88189
        },
        {
          "time": 374.450386,
          "name": "G#5",
          "midi": 80,
          "duration": 0.121951,
          "velocity": 0.818898
        },
        {
          "time": 374.450386,
          "name": "G#4",
          "midi": 68,
          "duration": 0.121951,
          "velocity": 0.818898
        },
        {
          "time": 374.450386,
          "name": "G#5",
          "midi": 80,
          "duration": 0.121951,
          "velocity": 0.88189
        },
        {
          "time": 374.572337,
          "name": "F#5",
          "midi": 78,
          "duration": 0.120867,
          "velocity": 0.818898
        },
        {
          "time": 374.572337,
          "name": "F#4",
          "midi": 66,
          "duration": 0.120867,
          "velocity": 0.818898
        },
        {
          "time": 374.572337,
          "name": "F#5",
          "midi": 78,
          "duration": 0.120867,
          "velocity": 0.88189
        },
        {
          "time": 374.693204,
          "name": "E5",
          "midi": 76,
          "duration": 0.336928,
          "velocity": 0.818898
        },
        {
          "time": 374.693204,
          "name": "E4",
          "midi": 64,
          "duration": 0.336928,
          "velocity": 0.818898
        },
        {
          "time": 374.693204,
          "name": "E5",
          "midi": 76,
          "duration": 0.336928,
          "velocity": 0.88189
        },
        {
          "time": 375.030132,
          "name": "A5",
          "midi": 81,
          "duration": 0.438666,
          "velocity": 0.88189
        },
        {
          "time": 375.468798,
          "name": "G#5",
          "midi": 80,
          "duration": 0.365854,
          "velocity": 0.818898
        },
        {
          "time": 375.468798,
          "name": "G#4",
          "midi": 68,
          "duration": 0.365854,
          "velocity": 0.818898
        },
        {
          "time": 375.468798,
          "name": "G#5",
          "midi": 80,
          "duration": 0.365854,
          "velocity": 0.88189
        },
        {
          "time": 375.834651,
          "name": "F#5",
          "midi": 78,
          "duration": 0.364769,
          "velocity": 0.818898
        },
        {
          "time": 375.834651,
          "name": "F#4",
          "midi": 66,
          "duration": 0.364769,
          "velocity": 0.818898
        },
        {
          "time": 375.834651,
          "name": "F#5",
          "midi": 78,
          "duration": 0.364769,
          "velocity": 0.88189
        },
        {
          "time": 376.199421,
          "name": "B5",
          "midi": 83,
          "duration": 0.166667,
          "velocity": 0.818898
        },
        {
          "time": 376.199421,
          "name": "B4",
          "midi": 71,
          "duration": 0.166667,
          "velocity": 0.818898
        },
        {
          "time": 376.199421,
          "name": "B5",
          "midi": 83,
          "duration": 0.166667,
          "velocity": 0.88189
        },
        {
          "time": 376.366088,
          "name": "A5",
          "midi": 81,
          "duration": 0.166667,
          "velocity": 0.818898
        },
        {
          "time": 376.366088,
          "name": "A4",
          "midi": 69,
          "duration": 0.166667,
          "velocity": 0.818898
        },
        {
          "time": 376.366088,
          "name": "A5",
          "midi": 81,
          "duration": 0.166667,
          "velocity": 0.88189
        },
        {
          "time": 376.532754,
          "name": "G#4",
          "midi": 68,
          "duration": 0.127778,
          "velocity": 0.818898
        },
        {
          "time": 376.532754,
          "name": "G#5",
          "midi": 80,
          "duration": 0.127778,
          "velocity": 0.818898
        },
        {
          "time": 376.532754,
          "name": "G#5",
          "midi": 80,
          "duration": 0.127778,
          "velocity": 0.88189
        },
        {
          "time": 376.699421,
          "name": "F#5",
          "midi": 78,
          "duration": 0.127778,
          "velocity": 0.818898
        },
        {
          "time": 376.699421,
          "name": "F#4",
          "midi": 66,
          "duration": 0.127778,
          "velocity": 0.818898
        },
        {
          "time": 376.699421,
          "name": "F#5",
          "midi": 78,
          "duration": 0.127778,
          "velocity": 0.88189
        },
        {
          "time": 376.867172,
          "name": "E5",
          "midi": 76,
          "duration": 0.27439,
          "velocity": 0.818898
        },
        {
          "time": 376.867172,
          "name": "E4",
          "midi": 64,
          "duration": 0.27439,
          "velocity": 0.818898
        },
        {
          "time": 376.867172,
          "name": "E5",
          "midi": 76,
          "duration": 0.27439,
          "velocity": 0.88189
        },
        {
          "time": 377.233025,
          "name": "F#5",
          "midi": 78,
          "duration": 0.121951,
          "velocity": 0.818898
        },
        {
          "time": 377.233025,
          "name": "F#4",
          "midi": 66,
          "duration": 0.121951,
          "velocity": 0.818898
        },
        {
          "time": 377.233025,
          "name": "F#5",
          "midi": 78,
          "duration": 0.121951,
          "velocity": 0.88189
        },
        {
          "time": 377.354977,
          "name": "G#5",
          "midi": 80,
          "duration": 0.121951,
          "velocity": 0.818898
        },
        {
          "time": 377.354977,
          "name": "G#4",
          "midi": 68,
          "duration": 0.121951,
          "velocity": 0.818898
        },
        {
          "time": 377.354977,
          "name": "G#5",
          "midi": 80,
          "duration": 0.121951,
          "velocity": 0.88189
        },
        {
          "time": 377.476928,
          "name": "F#4",
          "midi": 66,
          "duration": 0.120867,
          "velocity": 0.818898
        },
        {
          "time": 377.476928,
          "name": "F#5",
          "midi": 78,
          "duration": 0.120867,
          "velocity": 0.818898
        },
        {
          "time": 377.476928,
          "name": "F#5",
          "midi": 78,
          "duration": 0.120867,
          "velocity": 0.88189
        },
        {
          "time": 377.597795,
          "name": "E5",
          "midi": 76,
          "duration": 0.333334,
          "velocity": 0.818898
        },
        {
          "time": 377.597795,
          "name": "E4",
          "midi": 64,
          "duration": 0.333334,
          "velocity": 0.818898
        },
        {
          "time": 377.597795,
          "name": "E5",
          "midi": 76,
          "duration": 0.333334,
          "velocity": 0.88189
        },
        {
          "time": 377.758906,
          "name": "A4",
          "midi": 69,
          "duration": 0.166667,
          "velocity": 0.92126
        },
        {
          "time": 377.775573,
          "name": "A3",
          "midi": 57,
          "duration": 0.166667,
          "velocity": 0.92126
        },
        {
          "time": 377.925573,
          "name": "B4",
          "midi": 71,
          "duration": 0.166667,
          "velocity": 0.92126
        },
        {
          "time": 377.942239,
          "name": "B3",
          "midi": 59,
          "duration": 0.166667,
          "velocity": 0.92126
        },
        {
          "time": 378.09224,
          "name": "C#5",
          "midi": 73,
          "duration": 0.167209,
          "velocity": 0.92126
        },
        {
          "time": 378.108906,
          "name": "C#4",
          "midi": 61,
          "duration": 0.168835,
          "velocity": 0.92126
        },
        {
          "time": 378.259448,
          "name": "D5",
          "midi": 74,
          "duration": 0.365853,
          "velocity": 0.92126
        },
        {
          "time": 378.277741,
          "name": "D4",
          "midi": 62,
          "duration": 0.365853,
          "velocity": 0.92126
        },
        {
          "time": 378.631399,
          "name": "F#5",
          "midi": 78,
          "duration": 0.121951,
          "velocity": 0.818898
        },
        {
          "time": 378.631399,
          "name": "F#4",
          "midi": 66,
          "duration": 0.121951,
          "velocity": 0.818898
        },
        {
          "time": 378.631399,
          "name": "F#5",
          "midi": 78,
          "duration": 0.121951,
          "velocity": 0.88189
        },
        {
          "time": 378.753351,
          "name": "G#5",
          "midi": 80,
          "duration": 0.121951,
          "velocity": 0.818898
        },
        {
          "time": 378.753351,
          "name": "G#4",
          "midi": 68,
          "duration": 0.121951,
          "velocity": 0.818898
        },
        {
          "time": 378.753351,
          "name": "G#5",
          "midi": 80,
          "duration": 0.121951,
          "velocity": 0.88189
        },
        {
          "time": 378.875302,
          "name": "F#5",
          "midi": 78,
          "duration": 0.120867,
          "velocity": 0.818898
        },
        {
          "time": 378.875302,
          "name": "F#4",
          "midi": 66,
          "duration": 0.120867,
          "velocity": 0.818898
        },
        {
          "time": 378.875302,
          "name": "F#5",
          "midi": 78,
          "duration": 0.120867,
          "velocity": 0.88189
        },
        {
          "time": 378.996169,
          "name": "E4",
          "midi": 64,
          "duration": 0.333334,
          "velocity": 0.818898
        },
        {
          "time": 378.996169,
          "name": "E5",
          "midi": 76,
          "duration": 0.333334,
          "velocity": 0.818898
        },
        {
          "time": 378.996169,
          "name": "E5",
          "midi": 76,
          "duration": 0.333334,
          "velocity": 0.88189
        },
        {
          "time": 379.15728,
          "name": "G#4",
          "midi": 68,
          "duration": 0.166667,
          "velocity": 0.92126
        },
        {
          "time": 379.173947,
          "name": "G#3",
          "midi": 56,
          "duration": 0.166667,
          "velocity": 0.92126
        },
        {
          "time": 379.323947,
          "name": "A4",
          "midi": 69,
          "duration": 0.166667,
          "velocity": 0.92126
        },
        {
          "time": 379.340613,
          "name": "A3",
          "midi": 57,
          "duration": 0.166667,
          "velocity": 0.92126
        },
        {
          "time": 379.490614,
          "name": "B4",
          "midi": 71,
          "duration": 0.167209,
          "velocity": 0.92126
        },
        {
          "time": 379.50728,
          "name": "B3",
          "midi": 59,
          "duration": 0.168835,
          "velocity": 0.92126
        },
        {
          "time": 379.657822,
          "name": "C#5",
          "midi": 73,
          "duration": 0.182927,
          "velocity": 0.92126
        },
        {
          "time": 379.676115,
          "name": "C#4",
          "midi": 61,
          "duration": 0.182927,
          "velocity": 0.92126
        },
        {
          "time": 379.846847,
          "name": "E5",
          "midi": 76,
          "duration": 0.183804,
          "velocity": 0.818898
        },
        {
          "time": 379.846847,
          "name": "E4",
          "midi": 64,
          "duration": 0.183804,
          "velocity": 0.818898
        },
        {
          "time": 379.846847,
          "name": "E5",
          "midi": 76,
          "duration": 0.183804,
          "velocity": 0.88189
        },
        {
          "time": 379.859042,
          "name": "E5",
          "midi": 76,
          "duration": 0.18468,
          "velocity": 0.92126
        },
        {
          "time": 379.859042,
          "name": "E4",
          "midi": 64,
          "duration": 0.18468,
          "velocity": 0.92126
        },
        {
          "time": 380.024114,
          "name": "D5",
          "midi": 74,
          "duration": 0.392713,
          "velocity": 0.92126
        },
        {
          "time": 380.024114,
          "name": "B4",
          "midi": 71,
          "duration": 0.392713,
          "velocity": 0.92126
        },
        {
          "time": 380.03065,
          "name": "F#5",
          "midi": 78,
          "duration": 0.196078,
          "velocity": 0.818898
        },
        {
          "time": 380.03065,
          "name": "F#4",
          "midi": 66,
          "duration": 0.196078,
          "velocity": 0.818898
        },
        {
          "time": 380.03065,
          "name": "F#5",
          "midi": 78,
          "duration": 0.196078,
          "velocity": 0.88189
        },
        {
          "time": 380.043722,
          "name": "F#5",
          "midi": 78,
          "duration": 0.196078,
          "velocity": 0.92126
        },
        {
          "time": 380.043722,
          "name": "F#4",
          "midi": 66,
          "duration": 0.196078,
          "velocity": 0.92126
        },
        {
          "time": 380.226729,
          "name": "G#5",
          "midi": 80,
          "duration": 0.197191,
          "velocity": 0.818898
        },
        {
          "time": 380.226729,
          "name": "G#4",
          "midi": 68,
          "duration": 0.197191,
          "velocity": 0.818898
        },
        {
          "time": 380.226729,
          "name": "G#5",
          "midi": 80,
          "duration": 0.197191,
          "velocity": 0.88189
        },
        {
          "time": 380.239801,
          "name": "G#5",
          "midi": 80,
          "duration": 0.198304,
          "velocity": 0.92126
        },
        {
          "time": 380.239801,
          "name": "G#4",
          "midi": 68,
          "duration": 0.198304,
          "velocity": 0.92126
        },
        {
          "time": 380.416827,
          "name": "A4",
          "midi": 69,
          "duration": 0.425532,
          "velocity": 0.92126
        },
        {
          "time": 380.416827,
          "name": "C#5",
          "midi": 73,
          "duration": 0.425532,
          "velocity": 0.92126
        },
        {
          "time": 380.42392,
          "name": "A5",
          "midi": 81,
          "duration": 0.425532,
          "velocity": 0.818898
        },
        {
          "time": 380.42392,
          "name": "A4",
          "midi": 69,
          "duration": 0.425532,
          "velocity": 0.818898
        },
        {
          "time": 380.42392,
          "name": "A5",
          "midi": 81,
          "duration": 0.425532,
          "velocity": 0.88189
        },
        {
          "time": 380.438104,
          "name": "A4",
          "midi": 69,
          "duration": 0.425532,
          "velocity": 0.92126
        },
        {
          "time": 380.438104,
          "name": "A5",
          "midi": 81,
          "duration": 0.425532,
          "velocity": 0.92126
        },
        {
          "time": 381.291334,
          "name": "F#4",
          "midi": 66,
          "duration": 0.453625,
          "velocity": 0.92126
        },
        {
          "time": 381.291334,
          "name": "A4",
          "midi": 69,
          "duration": 0.453625,
          "velocity": 0.92126
        },
        {
          "time": 381.731887,
          "name": "C#4",
          "midi": 61,
          "duration": 0.39128,
          "velocity": 0.88189
        },
        {
          "time": 381.744959,
          "name": "C#5",
          "midi": 73,
          "duration": 0.390403,
          "velocity": 0.92126
        },
        {
          "time": 381.744959,
          "name": "A4",
          "midi": 69,
          "duration": 0.390403,
          "velocity": 0.92126
        },
        {
          "time": 382.123167,
          "name": "F#4",
          "midi": 66,
          "duration": 0.365854,
          "velocity": 0.88189
        },
        {
          "time": 382.135362,
          "name": "F#4",
          "midi": 66,
          "duration": 0.365853,
          "velocity": 0.92126
        },
        {
          "time": 382.135362,
          "name": "A4",
          "midi": 69,
          "duration": 0.365853,
          "velocity": 0.92126
        },
        {
          "time": 382.48902,
          "name": "A4",
          "midi": 69,
          "duration": 0.366645,
          "velocity": 0.88189
        },
        {
          "time": 382.868653,
          "name": "F4",
          "midi": 65,
          "duration": 0.389611,
          "velocity": 0.92126
        },
        {
          "time": 382.868653,
          "name": "G#4",
          "midi": 68,
          "duration": 0.389611,
          "velocity": 0.92126
        },
        {
          "time": 383.245276,
          "name": "C#4",
          "midi": 61,
          "duration": 0.388819,
          "velocity": 0.88189
        },
        {
          "time": 383.258263,
          "name": "B4",
          "midi": 71,
          "duration": 0.388027,
          "velocity": 0.92126
        },
        {
          "time": 383.258263,
          "name": "G#4",
          "midi": 68,
          "duration": 0.388027,
          "velocity": 0.92126
        },
        {
          "time": 383.634095,
          "name": "F4",
          "midi": 65,
          "duration": 0.365854,
          "velocity": 0.88189
        },
        {
          "time": 383.64629,
          "name": "F4",
          "midi": 65,
          "duration": 0.365853,
          "velocity": 0.92126
        },
        {
          "time": 383.64629,
          "name": "G#4",
          "midi": 68,
          "duration": 0.365853,
          "velocity": 0.92126
        },
        {
          "time": 383.999948,
          "name": "G#4",
          "midi": 68,
          "duration": 0.366645,
          "velocity": 0.88189
        },
        {
          "time": 384.366594,
          "name": "F#4",
          "midi": 66,
          "duration": 0.389611,
          "velocity": 0.88189
        },
        {
          "time": 384.769191,
          "name": "A4",
          "midi": 69,
          "duration": 0.388027,
          "velocity": 0.92126
        },
        {
          "time": 384.769191,
          "name": "F#4",
          "midi": 66,
          "duration": 0.388027,
          "velocity": 0.92126
        },
        {
          "time": 385.157218,
          "name": "G#4",
          "midi": 68,
          "duration": 0.182927,
          "velocity": 0.92126
        },
        {
          "time": 385.157218,
          "name": "B4",
          "midi": 71,
          "duration": 0.182927,
          "velocity": 0.92126
        },
        {
          "time": 385.340145,
          "name": "F#4",
          "midi": 66,
          "duration": 0.182927,
          "velocity": 0.92126
        },
        {
          "time": 385.340145,
          "name": "A4",
          "midi": 69,
          "duration": 0.182927,
          "velocity": 0.92126
        },
        {
          "time": 385.523071,
          "name": "F4",
          "midi": 65,
          "duration": 0.140244,
          "velocity": 0.92126
        },
        {
          "time": 385.523071,
          "name": "G#4",
          "midi": 68,
          "duration": 0.140244,
          "velocity": 0.92126
        },
        {
          "time": 385.705998,
          "name": "D#4",
          "midi": 63,
          "duration": 0.140244,
          "velocity": 0.92126
        },
        {
          "time": 385.705998,
          "name": "F#4",
          "midi": 66,
          "duration": 0.140244,
          "velocity": 0.92126
        },
        {
          "time": 385.890509,
          "name": "C#4",
          "midi": 61,
          "duration": 0.292208,
          "velocity": 0.92126
        },
        {
          "time": 385.890509,
          "name": "F4",
          "midi": 65,
          "duration": 0.292208,
          "velocity": 0.92126
        },
        {
          "time": 386.267132,
          "name": "F4",
          "midi": 65,
          "duration": 0.388819,
          "velocity": 0.88189
        },
        {
          "time": 386.280119,
          "name": "C#5",
          "midi": 73,
          "duration": 0.388027,
          "velocity": 0.88189
        },
        {
          "time": 386.286613,
          "name": "G#5",
          "midi": 80,
          "duration": 0.387631,
          "velocity": 0.88189
        },
        {
          "time": 387.021804,
          "name": "F4",
          "midi": 65,
          "duration": 0.366645,
          "velocity": 0.88189
        },
        {
          "time": 387.033999,
          "name": "C#5",
          "midi": 73,
          "duration": 0.367437,
          "velocity": 0.88189
        },
        {
          "time": 387.040097,
          "name": "G#5",
          "midi": 80,
          "duration": 0.367833,
          "velocity": 0.88189
        },
        {
          "time": 387.401437,
          "name": "F#4",
          "midi": 66,
          "duration": 0.389611,
          "velocity": 0.92126
        },
        {
          "time": 387.401437,
          "name": "A4",
          "midi": 69,
          "duration": 0.389611,
          "velocity": 0.92126
        },
        {
          "time": 387.77806,
          "name": "C#4",
          "midi": 61,
          "duration": 0.388819,
          "velocity": 0.88189
        },
        {
          "time": 387.791047,
          "name": "C#5",
          "midi": 73,
          "duration": 0.388027,
          "velocity": 0.92126
        },
        {
          "time": 387.791047,
          "name": "A4",
          "midi": 69,
          "duration": 0.388027,
          "velocity": 0.92126
        },
        {
          "time": 388.166879,
          "name": "F#4",
          "midi": 66,
          "duration": 0.365854,
          "velocity": 0.88189
        },
        {
          "time": 388.179074,
          "name": "F#4",
          "midi": 66,
          "duration": 0.365853,
          "velocity": 0.92126
        },
        {
          "time": 388.179074,
          "name": "A4",
          "midi": 69,
          "duration": 0.365853,
          "velocity": 0.92126
        },
        {
          "time": 388.532732,
          "name": "A4",
          "midi": 69,
          "duration": 0.366645,
          "velocity": 0.88189
        },
        {
          "time": 388.912365,
          "name": "F4",
          "midi": 65,
          "duration": 0.389611,
          "velocity": 0.92126
        },
        {
          "time": 388.912365,
          "name": "G#4",
          "midi": 68,
          "duration": 0.389611,
          "velocity": 0.92126
        },
        {
          "time": 389.288988,
          "name": "C#4",
          "midi": 61,
          "duration": 0.388819,
          "velocity": 0.88189
        },
        {
          "time": 389.301975,
          "name": "B4",
          "midi": 71,
          "duration": 0.388027,
          "velocity": 0.92126
        },
        {
          "time": 389.301975,
          "name": "G#4",
          "midi": 68,
          "duration": 0.388027,
          "velocity": 0.92126
        },
        {
          "time": 389.677807,
          "name": "F4",
          "midi": 65,
          "duration": 0.365854,
          "velocity": 0.88189
        },
        {
          "time": 389.690002,
          "name": "F4",
          "midi": 65,
          "duration": 0.365853,
          "velocity": 0.92126
        },
        {
          "time": 389.690002,
          "name": "G#4",
          "midi": 68,
          "duration": 0.365853,
          "velocity": 0.92126
        },
        {
          "time": 390.04366,
          "name": "G#4",
          "midi": 68,
          "duration": 0.366645,
          "velocity": 0.88189
        },
        {
          "time": 390.410306,
          "name": "F#4",
          "midi": 66,
          "duration": 0.389611,
          "velocity": 0.88189
        },
        {
          "time": 390.812903,
          "name": "A4",
          "midi": 69,
          "duration": 0.388027,
          "velocity": 0.92126
        },
        {
          "time": 390.812903,
          "name": "F#4",
          "midi": 66,
          "duration": 0.388027,
          "velocity": 0.92126
        },
        {
          "time": 391.20093,
          "name": "G#4",
          "midi": 68,
          "duration": 0.182927,
          "velocity": 0.92126
        },
        {
          "time": 391.20093,
          "name": "B4",
          "midi": 71,
          "duration": 0.182927,
          "velocity": 0.92126
        },
        {
          "time": 391.383857,
          "name": "F#4",
          "midi": 66,
          "duration": 0.182927,
          "velocity": 0.92126
        },
        {
          "time": 391.383857,
          "name": "A4",
          "midi": 69,
          "duration": 0.182927,
          "velocity": 0.92126
        },
        {
          "time": 391.566783,
          "name": "F4",
          "midi": 65,
          "duration": 0.140244,
          "velocity": 0.92126
        },
        {
          "time": 391.566783,
          "name": "G#4",
          "midi": 68,
          "duration": 0.140244,
          "velocity": 0.92126
        },
        {
          "time": 391.74971,
          "name": "D#4",
          "midi": 63,
          "duration": 0.140244,
          "velocity": 0.92126
        },
        {
          "time": 391.74971,
          "name": "F#4",
          "midi": 66,
          "duration": 0.140244,
          "velocity": 0.92126
        },
        {
          "time": 391.934221,
          "name": "C#4",
          "midi": 61,
          "duration": 0.292208,
          "velocity": 0.92126
        },
        {
          "time": 391.934221,
          "name": "F4",
          "midi": 65,
          "duration": 0.292208,
          "velocity": 0.92126
        },
        {
          "time": 392.312143,
          "name": "C#5",
          "midi": 73,
          "duration": 0.426481,
          "velocity": 0.88189
        },
        {
          "time": 392.312143,
          "name": "G#5",
          "midi": 80,
          "duration": 0.426481,
          "velocity": 0.88189
        },
        {
          "time": 392.312143,
          "name": "F4",
          "midi": 65,
          "duration": 0.426481,
          "velocity": 0.88189
        },
        {
          "time": 392.738624,
          "name": "C#5",
          "midi": 73,
          "duration": 0.365854,
          "velocity": 0.88189
        },
        {
          "time": 392.933746,
          "name": "C#4",
          "midi": 61,
          "duration": 0.182927,
          "velocity": 0.92126
        },
        {
          "time": 393.116672,
          "name": "F#4",
          "midi": 66,
          "duration": 0.182927,
          "velocity": 0.92126
        },
        {
          "time": 393.299599,
          "name": "G#4",
          "midi": 68,
          "duration": 0.187108,
          "velocity": 0.92126
        },
        {
          "time": 393.486707,
          "name": "F#4",
          "midi": 66,
          "duration": 0.425641,
          "velocity": 0.92126
        },
        {
          "time": 393.486707,
          "name": "A4",
          "midi": 69,
          "duration": 0.425641,
          "velocity": 0.92126
        },
        {
          "time": 393.899528,
          "name": "C#4",
          "midi": 61,
          "duration": 0.38399,
          "velocity": 0.88189
        },
        {
          "time": 393.912348,
          "name": "C#5",
          "midi": 73,
          "duration": 0.383365,
          "velocity": 0.92126
        },
        {
          "time": 393.912348,
          "name": "A4",
          "midi": 69,
          "duration": 0.383365,
          "velocity": 0.92126
        },
        {
          "time": 394.283518,
          "name": "F#4",
          "midi": 66,
          "duration": 0.365854,
          "velocity": 0.88189
        },
        {
          "time": 394.295713,
          "name": "F#4",
          "midi": 66,
          "duration": 0.365853,
          "velocity": 0.92126
        },
        {
          "time": 394.295713,
          "name": "A4",
          "midi": 69,
          "duration": 0.365853,
          "velocity": 0.92126
        },
        {
          "time": 394.649371,
          "name": "A4",
          "midi": 69,
          "duration": 0.366645,
          "velocity": 0.88189
        },
        {
          "time": 395.029004,
          "name": "F4",
          "midi": 65,
          "duration": 0.389611,
          "velocity": 0.92126
        },
        {
          "time": 395.029004,
          "name": "G#4",
          "midi": 68,
          "duration": 0.389611,
          "velocity": 0.92126
        },
        {
          "time": 395.405627,
          "name": "C#4",
          "midi": 61,
          "duration": 0.388819,
          "velocity": 0.88189
        },
        {
          "time": 395.418614,
          "name": "B4",
          "midi": 71,
          "duration": 0.388027,
          "velocity": 0.92126
        },
        {
          "time": 395.418614,
          "name": "G#4",
          "midi": 68,
          "duration": 0.388027,
          "velocity": 0.92126
        },
        {
          "time": 395.794446,
          "name": "F4",
          "midi": 65,
          "duration": 0.365854,
          "velocity": 0.88189
        },
        {
          "time": 395.806641,
          "name": "F4",
          "midi": 65,
          "duration": 0.365853,
          "velocity": 0.92126
        },
        {
          "time": 395.806641,
          "name": "G#4",
          "midi": 68,
          "duration": 0.365853,
          "velocity": 0.92126
        },
        {
          "time": 396.160299,
          "name": "G#4",
          "midi": 68,
          "duration": 0.366645,
          "velocity": 0.88189
        },
        {
          "time": 396.526945,
          "name": "F#4",
          "midi": 66,
          "duration": 0.389611,
          "velocity": 0.88189
        },
        {
          "time": 396.929542,
          "name": "A4",
          "midi": 69,
          "duration": 0.388027,
          "velocity": 0.92126
        },
        {
          "time": 396.929542,
          "name": "F#4",
          "midi": 66,
          "duration": 0.388027,
          "velocity": 0.92126
        },
        {
          "time": 397.317569,
          "name": "G#4",
          "midi": 68,
          "duration": 0.182927,
          "velocity": 0.92126
        },
        {
          "time": 397.317569,
          "name": "B4",
          "midi": 71,
          "duration": 0.182927,
          "velocity": 0.92126
        },
        {
          "time": 397.500496,
          "name": "F#4",
          "midi": 66,
          "duration": 0.182927,
          "velocity": 0.92126
        },
        {
          "time": 397.500496,
          "name": "A4",
          "midi": 69,
          "duration": 0.182927,
          "velocity": 0.92126
        },
        {
          "time": 397.683422,
          "name": "F4",
          "midi": 65,
          "duration": 0.140244,
          "velocity": 0.92126
        },
        {
          "time": 397.683422,
          "name": "G#4",
          "midi": 68,
          "duration": 0.140244,
          "velocity": 0.92126
        },
        {
          "time": 397.866349,
          "name": "D#4",
          "midi": 63,
          "duration": 0.140244,
          "velocity": 0.92126
        },
        {
          "time": 397.866349,
          "name": "F#4",
          "midi": 66,
          "duration": 0.140244,
          "velocity": 0.92126
        },
        {
          "time": 398.05086,
          "name": "C#4",
          "midi": 61,
          "duration": 0.292208,
          "velocity": 0.92126
        },
        {
          "time": 398.05086,
          "name": "F4",
          "midi": 65,
          "duration": 0.292208,
          "velocity": 0.92126
        },
        {
          "time": 398.427483,
          "name": "F4",
          "midi": 65,
          "duration": 0.388819,
          "velocity": 0.88189
        },
        {
          "time": 398.44047,
          "name": "C#5",
          "midi": 73,
          "duration": 0.388027,
          "velocity": 0.88189
        },
        {
          "time": 398.446964,
          "name": "G#5",
          "midi": 80,
          "duration": 0.387631,
          "velocity": 0.88189
        },
        {
          "time": 399.182155,
          "name": "F4",
          "midi": 65,
          "duration": 0.366645,
          "velocity": 0.88189
        },
        {
          "time": 399.19435,
          "name": "C#5",
          "midi": 73,
          "duration": 0.367437,
          "velocity": 0.88189
        },
        {
          "time": 399.200448,
          "name": "G#5",
          "midi": 80,
          "duration": 0.367833,
          "velocity": 0.88189
        },
        {
          "time": 399.561788,
          "name": "F#4",
          "midi": 66,
          "duration": 0.389611,
          "velocity": 0.92126
        },
        {
          "time": 399.561788,
          "name": "A4",
          "midi": 69,
          "duration": 0.389611,
          "velocity": 0.92126
        },
        {
          "time": 399.938411,
          "name": "C#4",
          "midi": 61,
          "duration": 0.388819,
          "velocity": 0.88189
        },
        {
          "time": 399.951398,
          "name": "C#5",
          "midi": 73,
          "duration": 0.388027,
          "velocity": 0.92126
        },
        {
          "time": 399.951398,
          "name": "A4",
          "midi": 69,
          "duration": 0.388027,
          "velocity": 0.92126
        },
        {
          "time": 400.32723,
          "name": "F#4",
          "midi": 66,
          "duration": 0.365854,
          "velocity": 0.88189
        },
        {
          "time": 400.339425,
          "name": "F#4",
          "midi": 66,
          "duration": 0.365853,
          "velocity": 0.92126
        },
        {
          "time": 400.339425,
          "name": "A4",
          "midi": 69,
          "duration": 0.365853,
          "velocity": 0.92126
        },
        {
          "time": 400.693083,
          "name": "A4",
          "midi": 69,
          "duration": 0.366645,
          "velocity": 0.88189
        },
        {
          "time": 401.072716,
          "name": "F4",
          "midi": 65,
          "duration": 0.389611,
          "velocity": 0.92126
        },
        {
          "time": 401.072716,
          "name": "G#4",
          "midi": 68,
          "duration": 0.389611,
          "velocity": 0.92126
        },
        {
          "time": 401.449339,
          "name": "C#4",
          "midi": 61,
          "duration": 0.388819,
          "velocity": 0.88189
        },
        {
          "time": 401.462326,
          "name": "B4",
          "midi": 71,
          "duration": 0.388027,
          "velocity": 0.92126
        },
        {
          "time": 401.462326,
          "name": "G#4",
          "midi": 68,
          "duration": 0.388027,
          "velocity": 0.92126
        },
        {
          "time": 401.838158,
          "name": "F4",
          "midi": 65,
          "duration": 0.365854,
          "velocity": 0.88189
        },
        {
          "time": 401.850353,
          "name": "F4",
          "midi": 65,
          "duration": 0.365853,
          "velocity": 0.92126
        },
        {
          "time": 401.850353,
          "name": "G#4",
          "midi": 68,
          "duration": 0.365853,
          "velocity": 0.92126
        },
        {
          "time": 402.204011,
          "name": "G#4",
          "midi": 68,
          "duration": 0.366645,
          "velocity": 0.88189
        },
        {
          "time": 402.570657,
          "name": "F#4",
          "midi": 66,
          "duration": 0.389611,
          "velocity": 0.88189
        },
        {
          "time": 402.973254,
          "name": "A4",
          "midi": 69,
          "duration": 0.388027,
          "velocity": 0.92126
        },
        {
          "time": 402.973254,
          "name": "F#4",
          "midi": 66,
          "duration": 0.388027,
          "velocity": 0.92126
        },
        {
          "time": 403.361281,
          "name": "G#4",
          "midi": 68,
          "duration": 0.182927,
          "velocity": 0.92126
        },
        {
          "time": 403.361281,
          "name": "B4",
          "midi": 71,
          "duration": 0.182927,
          "velocity": 0.92126
        },
        {
          "time": 403.544208,
          "name": "F#4",
          "midi": 66,
          "duration": 0.182927,
          "velocity": 0.92126
        },
        {
          "time": 403.544208,
          "name": "A4",
          "midi": 69,
          "duration": 0.182927,
          "velocity": 0.92126
        },
        {
          "time": 403.727134,
          "name": "F4",
          "midi": 65,
          "duration": 0.140244,
          "velocity": 0.92126
        },
        {
          "time": 403.727134,
          "name": "G#4",
          "midi": 68,
          "duration": 0.140244,
          "velocity": 0.92126
        },
        {
          "time": 403.910061,
          "name": "D#4",
          "midi": 63,
          "duration": 0.140244,
          "velocity": 0.92126
        },
        {
          "time": 403.910061,
          "name": "F#4",
          "midi": 66,
          "duration": 0.140244,
          "velocity": 0.92126
        },
        {
          "time": 404.094572,
          "name": "C#4",
          "midi": 61,
          "duration": 0.292208,
          "velocity": 0.92126
        },
        {
          "time": 404.094572,
          "name": "F4",
          "midi": 65,
          "duration": 0.292208,
          "velocity": 0.92126
        },
        {
          "time": 404.472494,
          "name": "F4",
          "midi": 65,
          "duration": 0.434286,
          "velocity": 0.88189
        },
        {
          "time": 404.472494,
          "name": "G#5",
          "midi": 80,
          "duration": 0.434286,
          "velocity": 0.88189
        },
        {
          "time": 404.472494,
          "name": "C#5",
          "midi": 73,
          "duration": 0.434286,
          "velocity": 0.88189
        },
        {
          "time": 404.90678,
          "name": "C#5",
          "midi": 73,
          "duration": 0.597544,
          "velocity": 0.88189
        },
        {
          "time": 406.455953,
          "name": "B3",
          "midi": 59,
          "duration": 0.42612,
          "velocity": 0.88189
        },
        {
          "time": 407.237103,
          "name": "B3",
          "midi": 59,
          "duration": 0.35539,
          "velocity": 0.88189
        },
        {
          "time": 407.958346,
          "name": "A3",
          "midi": 57,
          "duration": 0.364769,
          "velocity": 0.88189
        },
        {
          "time": 408.656449,
          "name": "A3",
          "midi": 57,
          "duration": 0.334417,
          "velocity": 0.88189
        },
        {
          "time": 409.35672,
          "name": "D4",
          "midi": 62,
          "duration": 0.364769,
          "velocity": 0.88189
        },
        {
          "time": 410.054823,
          "name": "D4",
          "midi": 62,
          "duration": 0.334417,
          "velocity": 0.88189
        },
        {
          "time": 410.755094,
          "name": "C#4",
          "midi": 61,
          "duration": 0.368584,
          "velocity": 0.88189
        },
        {
          "time": 411.568348,
          "name": "E4",
          "midi": 64,
          "duration": 0.35539,
          "velocity": 0.88189
        },
        {
          "time": 412.289592,
          "name": "D4",
          "midi": 62,
          "duration": 0.364769,
          "velocity": 0.88189
        },
        {
          "time": 412.987695,
          "name": "E4",
          "midi": 64,
          "duration": 0.334417,
          "velocity": 0.88189
        },
        {
          "time": 413.687966,
          "name": "E4",
          "midi": 64,
          "duration": 0.364769,
          "velocity": 0.88189
        },
        {
          "time": 414.386069,
          "name": "E4",
          "midi": 64,
          "duration": 0.334417,
          "velocity": 0.88189
        },
        {
          "time": 415.08634,
          "name": "E4",
          "midi": 64,
          "duration": 0.364769,
          "velocity": 0.88189
        },
        {
          "time": 415.784443,
          "name": "E4",
          "midi": 64,
          "duration": 0.335736,
          "velocity": 0.88189
        },
        {
          "time": 416.120179,
          "name": "E4",
          "midi": 64,
          "duration": 0.404631,
          "velocity": 0.88189
        },
        {
          "time": 417.982966,
          "name": "A4",
          "midi": 69,
          "duration": 0.364769,
          "velocity": 0.88189
        },
        {
          "time": 418.681069,
          "name": "B4",
          "midi": 71,
          "duration": 0.334417,
          "velocity": 0.88189
        },
        {
          "time": 419.38134,
          "name": "A4",
          "midi": 69,
          "duration": 0.364769,
          "velocity": 0.88189
        },
        {
          "time": 420.079443,
          "name": "A4",
          "midi": 69,
          "duration": 0.334417,
          "velocity": 0.88189
        },
        {
          "time": 420.779714,
          "name": "B4",
          "midi": 71,
          "duration": 0.364769,
          "velocity": 0.88189
        },
        {
          "time": 421.477817,
          "name": "E4",
          "midi": 64,
          "duration": 0.334417,
          "velocity": 0.88189
        },
        {
          "time": 422.178088,
          "name": "E4",
          "midi": 64,
          "duration": 0.368584,
          "velocity": 0.88189
        },
        {
          "time": 422.991412,
          "name": "A4",
          "midi": 69,
          "duration": 0.357433,
          "velocity": 0.88189
        },
        {
          "time": 423.714699,
          "name": "A4",
          "midi": 69,
          "duration": 0.364769,
          "velocity": 0.88189
        },
        {
          "time": 424.412802,
          "name": "B4",
          "midi": 71,
          "duration": 0.334417,
          "velocity": 0.88189
        },
        {
          "time": 425.113073,
          "name": "C#5",
          "midi": 73,
          "duration": 0.364297,
          "velocity": 0.88189
        },
        {
          "time": 425.796519,
          "name": "A4",
          "midi": 69,
          "duration": 0.320071,
          "velocity": 0.88189
        },
        {
          "time": 426.463411,
          "name": "B4",
          "midi": 71,
          "duration": 0.34526,
          "velocity": 0.88189
        },
        {
          "time": 427.108671,
          "name": "E4",
          "midi": 64,
          "duration": 0.297547,
          "velocity": 0.88189
        },
        {
          "time": 427.406218,
          "name": "E4",
          "midi": 64,
          "duration": 0.226415,
          "velocity": 0.88189
        },
        {
          "time": 439.680086,
          "name": "E4",
          "midi": 64,
          "duration": 0.194336,
          "velocity": 0.88189
        },
        {
          "time": 440.055144,
          "name": "F#4",
          "midi": 66,
          "duration": 0.181192,
          "velocity": 0.88189
        },
        {
          "time": 440.431142,
          "name": "E4",
          "midi": 64,
          "duration": 0.194336,
          "velocity": 0.88189
        },
        {
          "time": 440.8062,
          "name": "F#4",
          "midi": 66,
          "duration": 0.181192,
          "velocity": 0.88189
        },
        {
          "time": 440.987393,
          "name": "C#4",
          "midi": 61,
          "duration": 1.502112,
          "velocity": 0.818898
        },
        {
          "time": 440.987393,
          "name": "C#5",
          "midi": 73,
          "duration": 1.502112,
          "velocity": 0.818898
        },
        {
          "time": 441.182198,
          "name": "E4",
          "midi": 64,
          "duration": 0.194336,
          "velocity": 0.88189
        },
        {
          "time": 441.557256,
          "name": "F#4",
          "midi": 66,
          "duration": 0.181192,
          "velocity": 0.88189
        },
        {
          "time": 441.933254,
          "name": "E4",
          "midi": 64,
          "duration": 0.194336,
          "velocity": 0.88189
        },
        {
          "time": 442.308312,
          "name": "F#4",
          "midi": 66,
          "duration": 0.181192,
          "velocity": 0.88189
        },
        {
          "time": 442.489505,
          "name": "C#4",
          "midi": 61,
          "duration": 0.194805,
          "velocity": 0.818898
        },
        {
          "time": 442.489505,
          "name": "C#5",
          "midi": 73,
          "duration": 0.194805,
          "velocity": 0.818898
        },
        {
          "time": 442.489505,
          "name": "E4",
          "midi": 64,
          "duration": 0.194805,
          "velocity": 0.88189
        },
        {
          "time": 442.878645,
          "name": "C#4",
          "midi": 61,
          "duration": 0.180723,
          "velocity": 0.818898
        },
        {
          "time": 442.878645,
          "name": "C#5",
          "midi": 73,
          "duration": 0.180723,
          "velocity": 0.818898
        },
        {
          "time": 442.878645,
          "name": "E4",
          "midi": 64,
          "duration": 0.180723,
          "velocity": 0.88189
        },
        {
          "time": 442.878645,
          "name": "E5",
          "midi": 76,
          "duration": 0.180723,
          "velocity": 0.88189
        },
        {
          "time": 442.878645,
          "name": "C#5",
          "midi": 73,
          "duration": 0.180723,
          "velocity": 0.88189
        },
        {
          "time": 443.240561,
          "name": "C#4",
          "midi": 61,
          "duration": 0.194805,
          "velocity": 0.818898
        },
        {
          "time": 443.240561,
          "name": "C#5",
          "midi": 73,
          "duration": 0.194805,
          "velocity": 0.818898
        },
        {
          "time": 443.240561,
          "name": "E4",
          "midi": 64,
          "duration": 0.194805,
          "velocity": 0.88189
        },
        {
          "time": 443.240561,
          "name": "E5",
          "midi": 76,
          "duration": 0.194805,
          "velocity": 0.88189
        },
        {
          "time": 443.240561,
          "name": "C#5",
          "midi": 73,
          "duration": 0.194805,
          "velocity": 0.88189
        },
        {
          "time": 443.629701,
          "name": "C#4",
          "midi": 61,
          "duration": 0.180723,
          "velocity": 0.818898
        },
        {
          "time": 443.629701,
          "name": "C#5",
          "midi": 73,
          "duration": 0.180723,
          "velocity": 0.818898
        },
        {
          "time": 443.629701,
          "name": "C#5",
          "midi": 73,
          "duration": 0.180723,
          "velocity": 0.88189
        },
        {
          "time": 443.629701,
          "name": "E4",
          "midi": 64,
          "duration": 0.180723,
          "velocity": 0.88189
        },
        {
          "time": 443.629701,
          "name": "E5",
          "midi": 76,
          "duration": 0.180723,
          "velocity": 0.88189
        },
        {
          "time": 443.991617,
          "name": "C#4",
          "midi": 61,
          "duration": 0.194805,
          "velocity": 0.818898
        },
        {
          "time": 443.991617,
          "name": "C#5",
          "midi": 73,
          "duration": 0.194805,
          "velocity": 0.818898
        },
        {
          "time": 443.991617,
          "name": "E4",
          "midi": 64,
          "duration": 0.194805,
          "velocity": 0.88189
        },
        {
          "time": 443.991617,
          "name": "E5",
          "midi": 76,
          "duration": 0.194805,
          "velocity": 0.88189
        },
        {
          "time": 443.991617,
          "name": "C#5",
          "midi": 73,
          "duration": 0.194805,
          "velocity": 0.88189
        },
        {
          "time": 444.380757,
          "name": "C#4",
          "midi": 61,
          "duration": 0.180723,
          "velocity": 0.818898
        },
        {
          "time": 444.380757,
          "name": "C#5",
          "midi": 73,
          "duration": 0.180723,
          "velocity": 0.818898
        },
        {
          "time": 444.380757,
          "name": "C#5",
          "midi": 73,
          "duration": 0.180723,
          "velocity": 0.88189
        },
        {
          "time": 444.380757,
          "name": "E4",
          "midi": 64,
          "duration": 0.180723,
          "velocity": 0.88189
        },
        {
          "time": 444.380757,
          "name": "E5",
          "midi": 76,
          "duration": 0.180723,
          "velocity": 0.88189
        },
        {
          "time": 444.742673,
          "name": "C#4",
          "midi": 61,
          "duration": 0.194805,
          "velocity": 0.818898
        },
        {
          "time": 444.742673,
          "name": "C#5",
          "midi": 73,
          "duration": 0.194805,
          "velocity": 0.818898
        },
        {
          "time": 444.742673,
          "name": "C#5",
          "midi": 73,
          "duration": 0.194805,
          "velocity": 0.88189
        },
        {
          "time": 444.742673,
          "name": "E5",
          "midi": 76,
          "duration": 0.194805,
          "velocity": 0.88189
        },
        {
          "time": 444.742673,
          "name": "E4",
          "midi": 64,
          "duration": 0.194805,
          "velocity": 0.88189
        },
        {
          "time": 445.131813,
          "name": "C#4",
          "midi": 61,
          "duration": 0.180723,
          "velocity": 0.818898
        },
        {
          "time": 445.131813,
          "name": "C#5",
          "midi": 73,
          "duration": 0.180723,
          "velocity": 0.818898
        },
        {
          "time": 445.131813,
          "name": "C#5",
          "midi": 73,
          "duration": 0.180723,
          "velocity": 0.88189
        },
        {
          "time": 445.131813,
          "name": "E5",
          "midi": 76,
          "duration": 0.180723,
          "velocity": 0.88189
        },
        {
          "time": 445.131813,
          "name": "E4",
          "midi": 64,
          "duration": 0.180723,
          "velocity": 0.88189
        },
        {
          "time": 445.493259,
          "name": "E4",
          "midi": 64,
          "duration": 0.180723,
          "velocity": 0.88189
        },
        {
          "time": 445.493259,
          "name": "C#5",
          "midi": 73,
          "duration": 0.180723,
          "velocity": 0.88189
        },
        {
          "time": 445.493259,
          "name": "E5",
          "midi": 76,
          "duration": 0.180723,
          "velocity": 0.88189
        },
        {
          "time": 445.851693,
          "name": "C#5",
          "midi": 73,
          "duration": 0.180723,
          "velocity": 0.92126
        },
        {
          "time": 445.851693,
          "name": "E5",
          "midi": 76,
          "duration": 0.180723,
          "velocity": 0.92126
        },
        {
          "time": 445.854705,
          "name": "C#6",
          "midi": 85,
          "duration": 0.180723,
          "velocity": 0.818898
        },
        {
          "time": 445.854705,
          "name": "E5",
          "midi": 76,
          "duration": 0.180723,
          "velocity": 0.818898
        },
        {
          "time": 445.860729,
          "name": "C#5",
          "midi": 73,
          "duration": 0.180723,
          "velocity": 0.92126
        },
        {
          "time": 445.860729,
          "name": "E5",
          "midi": 76,
          "duration": 0.180723,
          "velocity": 0.92126
        },
        {
          "time": 446.216151,
          "name": "C#5",
          "midi": 73,
          "duration": 0.180723,
          "velocity": 0.88189
        },
        {
          "time": 446.216151,
          "name": "E5",
          "midi": 76,
          "duration": 0.180723,
          "velocity": 0.88189
        },
        {
          "time": 446.216151,
          "name": "E4",
          "midi": 64,
          "duration": 0.180723,
          "velocity": 0.88189
        },
        {
          "time": 449.274044,
          "name": "A#3",
          "midi": 58,
          "duration": 0.346154,
          "velocity": 0.88189
        },
        {
          "time": 449.274044,
          "name": "D4",
          "midi": 62,
          "duration": 0.346154,
          "velocity": 0.88189
        },
        {
          "time": 449.657996,
          "name": "A#3",
          "midi": 58,
          "duration": 0.310345,
          "velocity": 0.88189
        },
        {
          "time": 449.657996,
          "name": "D4",
          "midi": 62,
          "duration": 0.310345,
          "velocity": 0.88189
        },
        {
          "time": 450.388102,
          "name": "A#3",
          "midi": 58,
          "duration": 0.346154,
          "velocity": 0.88189
        },
        {
          "time": 450.388102,
          "name": "D4",
          "midi": 62,
          "duration": 0.346154,
          "velocity": 0.88189
        },
        {
          "time": 450.772054,
          "name": "A#3",
          "midi": 58,
          "duration": 0.310345,
          "velocity": 0.88189
        },
        {
          "time": 450.772054,
          "name": "D4",
          "midi": 62,
          "duration": 0.310345,
          "velocity": 0.88189
        },
        {
          "time": 451.123956,
          "name": "D4",
          "midi": 62,
          "duration": 0.384615,
          "velocity": 0.92126
        },
        {
          "time": 451.50216,
          "name": "A#3",
          "midi": 58,
          "duration": 0.346154,
          "velocity": 0.88189
        },
        {
          "time": 451.50216,
          "name": "D4",
          "midi": 62,
          "duration": 0.346154,
          "velocity": 0.88189
        },
        {
          "time": 451.508571,
          "name": "D4",
          "midi": 62,
          "duration": 0.383289,
          "velocity": 0.92126
        },
        {
          "time": 451.886112,
          "name": "A#3",
          "midi": 58,
          "duration": 0.310345,
          "velocity": 0.88189
        },
        {
          "time": 451.886112,
          "name": "D4",
          "midi": 62,
          "duration": 0.310345,
          "velocity": 0.88189
        },
        {
          "time": 451.891859,
          "name": "D4",
          "midi": 62,
          "duration": 0.346154,
          "velocity": 0.92126
        },
        {
          "time": 452.238014,
          "name": "D4",
          "midi": 62,
          "duration": 0.384615,
          "velocity": 0.92126
        },
        {
          "time": 452.616218,
          "name": "A#3",
          "midi": 58,
          "duration": 0.346154,
          "velocity": 0.88189
        },
        {
          "time": 452.616218,
          "name": "D4",
          "midi": 62,
          "duration": 0.346154,
          "velocity": 0.88189
        },
        {
          "time": 452.622629,
          "name": "G4",
          "midi": 67,
          "duration": 0.383289,
          "velocity": 0.92126
        },
        {
          "time": 453.00017,
          "name": "A#3",
          "midi": 58,
          "duration": 0.310345,
          "velocity": 0.88189
        },
        {
          "time": 453.00017,
          "name": "D4",
          "midi": 62,
          "duration": 0.310345,
          "velocity": 0.88189
        },
        {
          "time": 453.005917,
          "name": "F4",
          "midi": 65,
          "duration": 0.346154,
          "velocity": 0.92126
        },
        {
          "time": 453.352072,
          "name": "C4",
          "midi": 60,
          "duration": 0.673076,
          "velocity": 0.92126
        },
        {
          "time": 453.730276,
          "name": "F4",
          "midi": 65,
          "duration": 0.346154,
          "velocity": 0.88189
        },
        {
          "time": 453.730276,
          "name": "C4",
          "midi": 60,
          "duration": 0.346154,
          "velocity": 0.88189
        },
        {
          "time": 454.025148,
          "name": "B3",
          "midi": 59,
          "duration": 0.094828,
          "velocity": 0.92126
        },
        {
          "time": 454.114228,
          "name": "C4",
          "midi": 60,
          "duration": 0.310345,
          "velocity": 0.88189
        },
        {
          "time": 454.114228,
          "name": "F4",
          "midi": 65,
          "duration": 0.310345,
          "velocity": 0.88189
        },
        {
          "time": 454.119975,
          "name": "C4",
          "midi": 60,
          "duration": 0.634615,
          "velocity": 0.92126
        },
        {
          "time": 454.754591,
          "name": "B3",
          "midi": 59,
          "duration": 0.096154,
          "velocity": 0.92126
        },
        {
          "time": 454.844334,
          "name": "F4",
          "midi": 65,
          "duration": 0.346154,
          "velocity": 0.88189
        },
        {
          "time": 454.850745,
          "name": "C4",
          "midi": 60,
          "duration": 0.383289,
          "velocity": 0.92126
        },
        {
          "time": 455.228286,
          "name": "F4",
          "midi": 65,
          "duration": 0.310345,
          "velocity": 0.88189
        },
        {
          "time": 455.234033,
          "name": "D4",
          "midi": 62,
          "duration": 0.346154,
          "velocity": 0.92126
        },
        {
          "time": 455.580188,
          "name": "G4",
          "midi": 67,
          "duration": 0.384615,
          "velocity": 0.92126
        },
        {
          "time": 455.958392,
          "name": "G4",
          "midi": 67,
          "duration": 0.346154,
          "velocity": 0.88189
        },
        {
          "time": 455.964803,
          "name": "D#5",
          "midi": 75,
          "duration": 0.383289,
          "velocity": 0.92126
        },
        {
          "time": 456.342344,
          "name": "G4",
          "midi": 67,
          "duration": 0.310345,
          "velocity": 0.88189
        },
        {
          "time": 456.348091,
          "name": "D5",
          "midi": 74,
          "duration": 0.346154,
          "velocity": 0.92126
        },
        {
          "time": 456.694246,
          "name": "G4",
          "midi": 67,
          "duration": 0.767904,
          "velocity": 0.92126
        },
        {
          "time": 457.07245,
          "name": "G3",
          "midi": 55,
          "duration": 0.346154,
          "velocity": 0.88189
        },
        {
          "time": 457.07245,
          "name": "D4",
          "midi": 62,
          "duration": 0.346154,
          "velocity": 0.88189
        },
        {
          "time": 457.456402,
          "name": "G3",
          "midi": 55,
          "duration": 0.310345,
          "velocity": 0.88189
        },
        {
          "time": 457.456402,
          "name": "D4",
          "midi": 62,
          "duration": 0.310345,
          "velocity": 0.88189
        },
        {
          "time": 457.462149,
          "name": "F4",
          "midi": 65,
          "duration": 0.346154,
          "velocity": 0.92126
        },
        {
          "time": 457.808304,
          "name": "D#4",
          "midi": 63,
          "duration": 0.576923,
          "velocity": 0.92126
        },
        {
          "time": 458.186508,
          "name": "C4",
          "midi": 60,
          "duration": 0.346154,
          "velocity": 0.88189
        },
        {
          "time": 458.385226,
          "name": "D4",
          "midi": 62,
          "duration": 0.190981,
          "velocity": 0.92126
        },
        {
          "time": 458.57046,
          "name": "G3",
          "midi": 55,
          "duration": 0.310345,
          "velocity": 0.88189
        },
        {
          "time": 458.576207,
          "name": "C4",
          "midi": 60,
          "duration": 0.172414,
          "velocity": 0.92126
        },
        {
          "time": 460.030009,
          "name": "A#5",
          "midi": 82,
          "duration": 0.384615,
          "velocity": 0.818898
        },
        {
          "time": 460.030009,
          "name": "G5",
          "midi": 79,
          "duration": 0.384615,
          "velocity": 0.818898
        },
        {
          "time": 460.414624,
          "name": "D#5",
          "midi": 75,
          "duration": 0.383952,
          "velocity": 0.818898
        },
        {
          "time": 460.414624,
          "name": "G5",
          "midi": 79,
          "duration": 0.383952,
          "velocity": 0.818898
        },
        {
          "time": 460.414624,
          "name": "C4",
          "midi": 60,
          "duration": 0.346154,
          "velocity": 0.88189
        },
        {
          "time": 460.798576,
          "name": "C5",
          "midi": 72,
          "duration": 0.345491,
          "velocity": 0.818898
        },
        {
          "time": 460.798576,
          "name": "D#5",
          "midi": 75,
          "duration": 0.345491,
          "velocity": 0.818898
        },
        {
          "time": 460.798576,
          "name": "C4",
          "midi": 60,
          "duration": 0.310345,
          "velocity": 0.88189
        },
        {
          "time": 461.144067,
          "name": "G4",
          "midi": 67,
          "duration": 0.384615,
          "velocity": 0.818898
        },
        {
          "time": 461.144067,
          "name": "C5",
          "midi": 72,
          "duration": 0.384615,
          "velocity": 0.818898
        },
        {
          "time": 461.528682,
          "name": "A#5",
          "midi": 82,
          "duration": 0.556366,
          "velocity": 0.818898
        },
        {
          "time": 461.528682,
          "name": "G5",
          "midi": 79,
          "duration": 0.556366,
          "velocity": 0.818898
        },
        {
          "time": 461.528682,
          "name": "C4",
          "midi": 60,
          "duration": 0.346154,
          "velocity": 0.88189
        },
        {
          "time": 461.912634,
          "name": "C4",
          "midi": 60,
          "duration": 0.310345,
          "velocity": 0.88189
        },
        {
          "time": 462.085048,
          "name": "F5",
          "midi": 77,
          "duration": 0.173077,
          "velocity": 0.818898
        },
        {
          "time": 462.085048,
          "name": "A5",
          "midi": 81,
          "duration": 0.173077,
          "velocity": 0.818898
        },
        {
          "time": 462.258125,
          "name": "D#5",
          "midi": 75,
          "duration": 0.768567,
          "velocity": 0.818898
        },
        {
          "time": 462.258125,
          "name": "G5",
          "midi": 79,
          "duration": 0.768567,
          "velocity": 0.818898
        },
        {
          "time": 462.64274,
          "name": "A#3",
          "midi": 58,
          "duration": 0.346154,
          "velocity": 0.88189
        },
        {
          "time": 462.64274,
          "name": "D4",
          "midi": 62,
          "duration": 0.346154,
          "velocity": 0.88189
        },
        {
          "time": 463.026692,
          "name": "D5",
          "midi": 74,
          "duration": 0.345491,
          "velocity": 0.818898
        },
        {
          "time": 463.026692,
          "name": "F5",
          "midi": 77,
          "duration": 0.345491,
          "velocity": 0.818898
        },
        {
          "time": 463.026692,
          "name": "A#3",
          "midi": 58,
          "duration": 0.310345,
          "velocity": 0.88189
        },
        {
          "time": 463.026692,
          "name": "D4",
          "midi": 62,
          "duration": 0.310345,
          "velocity": 0.88189
        },
        {
          "time": 463.372183,
          "name": "F5",
          "midi": 77,
          "duration": 0.336538,
          "velocity": 0.818898
        },
        {
          "time": 463.372183,
          "name": "D5",
          "midi": 74,
          "duration": 0.336538,
          "velocity": 0.818898
        },
        {
          "time": 463.756798,
          "name": "F5",
          "midi": 77,
          "duration": 0.336538,
          "velocity": 0.818898
        },
        {
          "time": 463.756798,
          "name": "D5",
          "midi": 74,
          "duration": 0.336538,
          "velocity": 0.818898
        },
        {
          "time": 463.756798,
          "name": "B3",
          "midi": 59,
          "duration": 0.346154,
          "velocity": 0.88189
        },
        {
          "time": 463.756798,
          "name": "D4",
          "midi": 62,
          "duration": 0.346154,
          "velocity": 0.88189
        },
        {
          "time": 464.14075,
          "name": "F5",
          "midi": 77,
          "duration": 0.301724,
          "velocity": 0.818898
        },
        {
          "time": 464.14075,
          "name": "D5",
          "midi": 74,
          "duration": 0.301724,
          "velocity": 0.818898
        },
        {
          "time": 464.14075,
          "name": "B3",
          "midi": 59,
          "duration": 0.310345,
          "velocity": 0.88189
        },
        {
          "time": 464.14075,
          "name": "D4",
          "midi": 62,
          "duration": 0.310345,
          "velocity": 0.88189
        },
        {
          "time": 464.486241,
          "name": "F5",
          "midi": 77,
          "duration": 0.064102,
          "velocity": 0.818898
        },
        {
          "time": 464.486241,
          "name": "D5",
          "midi": 74,
          "duration": 0.064102,
          "velocity": 0.818898
        },
        {
          "time": 464.550344,
          "name": "G5",
          "midi": 79,
          "duration": 0.064103,
          "velocity": 0.818898
        },
        {
          "time": 464.550344,
          "name": "D#5",
          "midi": 75,
          "duration": 0.064103,
          "velocity": 0.818898
        },
        {
          "time": 464.614446,
          "name": "F5",
          "midi": 77,
          "duration": 0.640362,
          "velocity": 0.818898
        },
        {
          "time": 464.614446,
          "name": "A5",
          "midi": 81,
          "duration": 0.640362,
          "velocity": 0.818898
        },
        {
          "time": 464.870856,
          "name": "D#4",
          "midi": 63,
          "duration": 0.346154,
          "velocity": 0.88189
        },
        {
          "time": 464.870856,
          "name": "C4",
          "midi": 60,
          "duration": 0.346154,
          "velocity": 0.88189
        },
        {
          "time": 465.254808,
          "name": "C5",
          "midi": 72,
          "duration": 0.345491,
          "velocity": 0.818898
        },
        {
          "time": 465.254808,
          "name": "D#5",
          "midi": 75,
          "duration": 0.345491,
          "velocity": 0.818898
        },
        {
          "time": 465.254808,
          "name": "C4",
          "midi": 60,
          "duration": 0.310345,
          "velocity": 0.88189
        },
        {
          "time": 465.254808,
          "name": "D#4",
          "midi": 63,
          "duration": 0.310345,
          "velocity": 0.88189
        },
        {
          "time": 465.600299,
          "name": "C5",
          "midi": 72,
          "duration": 0.336538,
          "velocity": 0.818898
        },
        {
          "time": 465.600299,
          "name": "D#5",
          "midi": 75,
          "duration": 0.336538,
          "velocity": 0.818898
        },
        {
          "time": 465.984914,
          "name": "C5",
          "midi": 72,
          "duration": 0.336538,
          "velocity": 0.818898
        },
        {
          "time": 465.984914,
          "name": "D#5",
          "midi": 75,
          "duration": 0.336538,
          "velocity": 0.818898
        },
        {
          "time": 465.984914,
          "name": "D#4",
          "midi": 63,
          "duration": 0.346154,
          "velocity": 0.88189
        },
        {
          "time": 465.984914,
          "name": "C4",
          "midi": 60,
          "duration": 0.346154,
          "velocity": 0.88189
        },
        {
          "time": 466.368866,
          "name": "C5",
          "midi": 72,
          "duration": 0.301724,
          "velocity": 0.818898
        },
        {
          "time": 466.368866,
          "name": "D#5",
          "midi": 75,
          "duration": 0.301724,
          "velocity": 0.818898
        },
        {
          "time": 466.368866,
          "name": "C4",
          "midi": 60,
          "duration": 0.310345,
          "velocity": 0.88189
        },
        {
          "time": 466.368866,
          "name": "D#4",
          "midi": 63,
          "duration": 0.310345,
          "velocity": 0.88189
        },
        {
          "time": 466.714357,
          "name": "C5",
          "midi": 72,
          "duration": 0.064102,
          "velocity": 0.818898
        },
        {
          "time": 466.714357,
          "name": "D#5",
          "midi": 75,
          "duration": 0.064102,
          "velocity": 0.818898
        },
        {
          "time": 466.77846,
          "name": "D5",
          "midi": 74,
          "duration": 0.064103,
          "velocity": 0.818898
        },
        {
          "time": 466.77846,
          "name": "F5",
          "midi": 77,
          "duration": 0.064103,
          "velocity": 0.818898
        },
        {
          "time": 466.842562,
          "name": "D#5",
          "midi": 75,
          "duration": 0.448717,
          "velocity": 0.818898
        },
        {
          "time": 466.842562,
          "name": "G5",
          "midi": 79,
          "duration": 0.448717,
          "velocity": 0.818898
        },
        {
          "time": 467.098972,
          "name": "D4",
          "midi": 62,
          "duration": 0.346154,
          "velocity": 0.88189
        },
        {
          "time": 467.098972,
          "name": "A#3",
          "midi": 58,
          "duration": 0.346154,
          "velocity": 0.88189
        },
        {
          "time": 467.29128,
          "name": "A#4",
          "midi": 70,
          "duration": 0.191644,
          "velocity": 0.818898
        },
        {
          "time": 467.29128,
          "name": "D5",
          "midi": 74,
          "duration": 0.191644,
          "velocity": 0.818898
        },
        {
          "time": 467.482924,
          "name": "D#5",
          "midi": 75,
          "duration": 0.172414,
          "velocity": 0.818898
        },
        {
          "time": 467.482924,
          "name": "G5",
          "midi": 79,
          "duration": 0.172414,
          "velocity": 0.818898
        },
        {
          "time": 467.482924,
          "name": "A#3",
          "midi": 58,
          "duration": 0.310345,
          "velocity": 0.88189
        },
        {
          "time": 467.482924,
          "name": "D4",
          "midi": 62,
          "duration": 0.310345,
          "velocity": 0.88189
        },
        {
          "time": 467.655338,
          "name": "D5",
          "midi": 74,
          "duration": 0.173077,
          "velocity": 0.818898
        },
        {
          "time": 467.655338,
          "name": "F5",
          "midi": 77,
          "duration": 0.173077,
          "velocity": 0.818898
        },
        {
          "time": 467.828415,
          "name": "F5",
          "midi": 77,
          "duration": 0.192308,
          "velocity": 0.818898
        },
        {
          "time": 467.828415,
          "name": "D5",
          "midi": 74,
          "duration": 0.192308,
          "velocity": 0.818898
        },
        {
          "time": 467.828415,
          "name": "G#3",
          "midi": 56,
          "duration": 0.192308,
          "velocity": 0.88189
        },
        {
          "time": 468.020723,
          "name": "G#4",
          "midi": 68,
          "duration": 0.192307,
          "velocity": 0.818898
        },
        {
          "time": 468.21303,
          "name": "G5",
          "midi": 79,
          "duration": 0.192308,
          "velocity": 0.818898
        },
        {
          "time": 468.21303,
          "name": "D#5",
          "midi": 75,
          "duration": 0.192308,
          "velocity": 0.818898
        },
        {
          "time": 468.21303,
          "name": "A3",
          "midi": 57,
          "duration": 0.192308,
          "velocity": 0.88189
        },
        {
          "time": 468.405338,
          "name": "D5",
          "midi": 74,
          "duration": 0.191644,
          "velocity": 0.818898
        },
        {
          "time": 468.405338,
          "name": "F5",
          "midi": 77,
          "duration": 0.191644,
          "velocity": 0.818898
        },
        {
          "time": 468.596982,
          "name": "C#5",
          "midi": 73,
          "duration": 0.17381,
          "velocity": 0.818898
        },
        {
          "time": 468.596982,
          "name": "E5",
          "midi": 76,
          "duration": 0.17381,
          "velocity": 0.818898
        },
        {
          "time": 468.596982,
          "name": "A3",
          "midi": 57,
          "duration": 0.17381,
          "velocity": 0.88189
        },
        {
          "time": 468.770792,
          "name": "D#5",
          "midi": 75,
          "duration": 0.213553,
          "velocity": 0.818898
        },
        {
          "time": 468.770792,
          "name": "C5",
          "midi": 72,
          "duration": 0.213553,
          "velocity": 0.818898
        },
        {
          "time": 468.984345,
          "name": "A#4",
          "midi": 70,
          "duration": 0.192308,
          "velocity": 0.818898
        },
        {
          "time": 468.984345,
          "name": "D5",
          "midi": 74,
          "duration": 0.192308,
          "velocity": 0.818898
        },
        {
          "time": 468.990755,
          "name": "D4",
          "midi": 62,
          "duration": 0.384615,
          "velocity": 0.92126
        },
        {
          "time": 469.36896,
          "name": "A#3",
          "midi": 58,
          "duration": 0.346154,
          "velocity": 0.88189
        },
        {
          "time": 469.36896,
          "name": "D4",
          "midi": 62,
          "duration": 0.346154,
          "velocity": 0.88189
        },
        {
          "time": 469.37537,
          "name": "D4",
          "midi": 62,
          "duration": 0.383289,
          "velocity": 0.92126
        },
        {
          "time": 469.752912,
          "name": "A#3",
          "midi": 58,
          "duration": 0.310345,
          "velocity": 0.88189
        },
        {
          "time": 469.752912,
          "name": "D4",
          "midi": 62,
          "duration": 0.310345,
          "velocity": 0.88189
        },
        {
          "time": 469.758659,
          "name": "D4",
          "midi": 62,
          "duration": 0.346154,
          "velocity": 0.92126
        },
        {
          "time": 470.104813,
          "name": "D4",
          "midi": 62,
          "duration": 0.384615,
          "velocity": 0.92126
        },
        {
          "time": 470.483018,
          "name": "A#3",
          "midi": 58,
          "duration": 0.346154,
          "velocity": 0.88189
        },
        {
          "time": 470.483018,
          "name": "D4",
          "midi": 62,
          "duration": 0.346154,
          "velocity": 0.88189
        },
        {
          "time": 470.489428,
          "name": "G4",
          "midi": 67,
          "duration": 0.383289,
          "velocity": 0.92126
        },
        {
          "time": 470.86697,
          "name": "A#3",
          "midi": 58,
          "duration": 0.310345,
          "velocity": 0.88189
        },
        {
          "time": 470.86697,
          "name": "D4",
          "midi": 62,
          "duration": 0.310345,
          "velocity": 0.88189
        },
        {
          "time": 470.872717,
          "name": "F4",
          "midi": 65,
          "duration": 0.346154,
          "velocity": 0.92126
        },
        {
          "time": 471.218871,
          "name": "C4",
          "midi": 60,
          "duration": 0.673076,
          "velocity": 0.92126
        },
        {
          "time": 471.597076,
          "name": "F4",
          "midi": 65,
          "duration": 0.346154,
          "velocity": 0.88189
        },
        {
          "time": 471.597076,
          "name": "C4",
          "midi": 60,
          "duration": 0.346154,
          "velocity": 0.88189
        },
        {
          "time": 471.891947,
          "name": "B3",
          "midi": 59,
          "duration": 0.094828,
          "velocity": 0.92126
        },
        {
          "time": 471.981028,
          "name": "C4",
          "midi": 60,
          "duration": 0.310345,
          "velocity": 0.88189
        },
        {
          "time": 471.981028,
          "name": "F4",
          "midi": 65,
          "duration": 0.310345,
          "velocity": 0.88189
        },
        {
          "time": 471.986775,
          "name": "C4",
          "midi": 60,
          "duration": 0.634615,
          "velocity": 0.92126
        },
        {
          "time": 472.62139,
          "name": "B3",
          "midi": 59,
          "duration": 0.096154,
          "velocity": 0.92126
        },
        {
          "time": 472.711134,
          "name": "F4",
          "midi": 65,
          "duration": 0.346154,
          "velocity": 0.88189
        },
        {
          "time": 472.717544,
          "name": "C4",
          "midi": 60,
          "duration": 0.383289,
          "velocity": 0.92126
        },
        {
          "time": 473.095086,
          "name": "F4",
          "midi": 65,
          "duration": 0.310345,
          "velocity": 0.88189
        },
        {
          "time": 473.100833,
          "name": "D4",
          "midi": 62,
          "duration": 0.346154,
          "velocity": 0.92126
        },
        {
          "time": 473.446987,
          "name": "G4",
          "midi": 67,
          "duration": 0.384615,
          "velocity": 0.92126
        },
        {
          "time": 473.825192,
          "name": "G4",
          "midi": 67,
          "duration": 0.346154,
          "velocity": 0.88189
        },
        {
          "time": 473.831602,
          "name": "D#5",
          "midi": 75,
          "duration": 0.383289,
          "velocity": 0.92126
        },
        {
          "time": 474.209144,
          "name": "G4",
          "midi": 67,
          "duration": 0.310345,
          "velocity": 0.88189
        },
        {
          "time": 474.214891,
          "name": "D5",
          "midi": 74,
          "duration": 0.346154,
          "velocity": 0.92126
        },
        {
          "time": 474.561045,
          "name": "G4",
          "midi": 67,
          "duration": 0.767904,
          "velocity": 0.92126
        },
        {
          "time": 474.93925,
          "name": "G3",
          "midi": 55,
          "duration": 0.346154,
          "velocity": 0.88189
        },
        {
          "time": 474.93925,
          "name": "D4",
          "midi": 62,
          "duration": 0.346154,
          "velocity": 0.88189
        },
        {
          "time": 475.323202,
          "name": "G3",
          "midi": 55,
          "duration": 0.310345,
          "velocity": 0.88189
        },
        {
          "time": 475.323202,
          "name": "D4",
          "midi": 62,
          "duration": 0.310345,
          "velocity": 0.88189
        },
        {
          "time": 475.328949,
          "name": "F4",
          "midi": 65,
          "duration": 0.346154,
          "velocity": 0.92126
        },
        {
          "time": 475.675103,
          "name": "D#4",
          "midi": 63,
          "duration": 0.576923,
          "velocity": 0.92126
        },
        {
          "time": 476.053308,
          "name": "C4",
          "midi": 60,
          "duration": 0.346154,
          "velocity": 0.88189
        },
        {
          "time": 476.252026,
          "name": "D4",
          "midi": 62,
          "duration": 0.190981,
          "velocity": 0.92126
        },
        {
          "time": 476.43726,
          "name": "G3",
          "midi": 55,
          "duration": 0.310345,
          "velocity": 0.88189
        },
        {
          "time": 476.443007,
          "name": "C4",
          "midi": 60,
          "duration": 0.172414,
          "velocity": 0.92126
        },
        {
          "time": 477.896809,
          "name": "A#5",
          "midi": 82,
          "duration": 0.384615,
          "velocity": 0.818898
        },
        {
          "time": 477.896809,
          "name": "G5",
          "midi": 79,
          "duration": 0.384615,
          "velocity": 0.818898
        },
        {
          "time": 478.281424,
          "name": "D#5",
          "midi": 75,
          "duration": 0.383952,
          "velocity": 0.818898
        },
        {
          "time": 478.281424,
          "name": "G5",
          "midi": 79,
          "duration": 0.383952,
          "velocity": 0.818898
        },
        {
          "time": 478.281424,
          "name": "C4",
          "midi": 60,
          "duration": 0.346154,
          "velocity": 0.88189
        },
        {
          "time": 478.665376,
          "name": "C5",
          "midi": 72,
          "duration": 0.345491,
          "velocity": 0.818898
        },
        {
          "time": 478.665376,
          "name": "D#5",
          "midi": 75,
          "duration": 0.345491,
          "velocity": 0.818898
        },
        {
          "time": 478.665376,
          "name": "C4",
          "midi": 60,
          "duration": 0.310345,
          "velocity": 0.88189
        },
        {
          "time": 479.010867,
          "name": "G4",
          "midi": 67,
          "duration": 0.384615,
          "velocity": 0.818898
        },
        {
          "time": 479.010867,
          "name": "C5",
          "midi": 72,
          "duration": 0.384615,
          "velocity": 0.818898
        },
        {
          "time": 479.395482,
          "name": "A#5",
          "midi": 82,
          "duration": 0.556366,
          "velocity": 0.818898
        },
        {
          "time": 479.395482,
          "name": "G5",
          "midi": 79,
          "duration": 0.556366,
          "velocity": 0.818898
        },
        {
          "time": 479.395482,
          "name": "C4",
          "midi": 60,
          "duration": 0.346154,
          "velocity": 0.88189
        },
        {
          "time": 479.779434,
          "name": "C4",
          "midi": 60,
          "duration": 0.310345,
          "velocity": 0.88189
        },
        {
          "time": 479.951848,
          "name": "F5",
          "midi": 77,
          "duration": 0.173077,
          "velocity": 0.818898
        },
        {
          "time": 479.951848,
          "name": "A5",
          "midi": 81,
          "duration": 0.173077,
          "velocity": 0.818898
        },
        {
          "time": 480.124925,
          "name": "D#5",
          "midi": 75,
          "duration": 0.768567,
          "velocity": 0.818898
        },
        {
          "time": 480.124925,
          "name": "G5",
          "midi": 79,
          "duration": 0.768567,
          "velocity": 0.818898
        },
        {
          "time": 480.50954,
          "name": "A#3",
          "midi": 58,
          "duration": 0.346154,
          "velocity": 0.88189
        },
        {
          "time": 480.50954,
          "name": "D4",
          "midi": 62,
          "duration": 0.346154,
          "velocity": 0.88189
        },
        {
          "time": 480.893492,
          "name": "D5",
          "midi": 74,
          "duration": 0.345491,
          "velocity": 0.818898
        },
        {
          "time": 480.893492,
          "name": "F5",
          "midi": 77,
          "duration": 0.345491,
          "velocity": 0.818898
        },
        {
          "time": 480.893492,
          "name": "A#3",
          "midi": 58,
          "duration": 0.310345,
          "velocity": 0.88189
        },
        {
          "time": 480.893492,
          "name": "D4",
          "midi": 62,
          "duration": 0.310345,
          "velocity": 0.88189
        },
        {
          "time": 481.238983,
          "name": "F5",
          "midi": 77,
          "duration": 0.336538,
          "velocity": 0.818898
        },
        {
          "time": 481.238983,
          "name": "D5",
          "midi": 74,
          "duration": 0.336538,
          "velocity": 0.818898
        },
        {
          "time": 481.623598,
          "name": "F5",
          "midi": 77,
          "duration": 0.336538,
          "velocity": 0.818898
        },
        {
          "time": 481.623598,
          "name": "D5",
          "midi": 74,
          "duration": 0.336538,
          "velocity": 0.818898
        },
        {
          "time": 481.623598,
          "name": "B3",
          "midi": 59,
          "duration": 0.346154,
          "velocity": 0.88189
        },
        {
          "time": 481.623598,
          "name": "D4",
          "midi": 62,
          "duration": 0.346154,
          "velocity": 0.88189
        },
        {
          "time": 482.00755,
          "name": "F5",
          "midi": 77,
          "duration": 0.301724,
          "velocity": 0.818898
        },
        {
          "time": 482.00755,
          "name": "D5",
          "midi": 74,
          "duration": 0.301724,
          "velocity": 0.818898
        },
        {
          "time": 482.00755,
          "name": "B3",
          "midi": 59,
          "duration": 0.310345,
          "velocity": 0.88189
        },
        {
          "time": 482.00755,
          "name": "D4",
          "midi": 62,
          "duration": 0.310345,
          "velocity": 0.88189
        },
        {
          "time": 482.353041,
          "name": "D5",
          "midi": 74,
          "duration": 0.064102,
          "velocity": 0.818898
        },
        {
          "time": 482.353041,
          "name": "F5",
          "midi": 77,
          "duration": 0.064102,
          "velocity": 0.818898
        },
        {
          "time": 482.417143,
          "name": "E5",
          "midi": 76,
          "duration": 0.064103,
          "velocity": 0.818898
        },
        {
          "time": 482.417143,
          "name": "G5",
          "midi": 79,
          "duration": 0.064103,
          "velocity": 0.818898
        },
        {
          "time": 482.481246,
          "name": "F5",
          "midi": 77,
          "duration": 0.640362,
          "velocity": 0.818898
        },
        {
          "time": 482.481246,
          "name": "A5",
          "midi": 81,
          "duration": 0.640362,
          "velocity": 0.818898
        },
        {
          "time": 482.737656,
          "name": "C#4",
          "midi": 61,
          "duration": 0.346154,
          "velocity": 0.88189
        },
        {
          "time": 483.121608,
          "name": "E5",
          "midi": 76,
          "duration": 0.345491,
          "velocity": 0.818898
        },
        {
          "time": 483.121608,
          "name": "C#5",
          "midi": 73,
          "duration": 0.345491,
          "velocity": 0.818898
        },
        {
          "time": 483.121608,
          "name": "C#4",
          "midi": 61,
          "duration": 0.310345,
          "velocity": 0.88189
        },
        {
          "time": 483.467099,
          "name": "E5",
          "midi": 76,
          "duration": 0.336538,
          "velocity": 0.818898
        },
        {
          "time": 483.467099,
          "name": "C#5",
          "midi": 73,
          "duration": 0.336538,
          "velocity": 0.818898
        },
        {
          "time": 483.851714,
          "name": "E5",
          "midi": 76,
          "duration": 0.336538,
          "velocity": 0.818898
        },
        {
          "time": 483.851714,
          "name": "C#5",
          "midi": 73,
          "duration": 0.336538,
          "velocity": 0.818898
        },
        {
          "time": 483.851714,
          "name": "C#4",
          "midi": 61,
          "duration": 0.346154,
          "velocity": 0.88189
        },
        {
          "time": 484.235666,
          "name": "E5",
          "midi": 76,
          "duration": 0.301724,
          "velocity": 0.818898
        },
        {
          "time": 484.235666,
          "name": "C#5",
          "midi": 73,
          "duration": 0.301724,
          "velocity": 0.818898
        },
        {
          "time": 484.235666,
          "name": "C#4",
          "midi": 61,
          "duration": 0.310345,
          "velocity": 0.88189
        },
        {
          "time": 484.581157,
          "name": "C#5",
          "midi": 73,
          "duration": 0.064102,
          "velocity": 0.818898
        },
        {
          "time": 484.581157,
          "name": "E5",
          "midi": 76,
          "duration": 0.064102,
          "velocity": 0.818898
        },
        {
          "time": 484.645259,
          "name": "D5",
          "midi": 74,
          "duration": 0.064103,
          "velocity": 0.818898
        },
        {
          "time": 484.645259,
          "name": "F5",
          "midi": 77,
          "duration": 0.064103,
          "velocity": 0.818898
        },
        {
          "time": 484.709362,
          "name": "E5",
          "midi": 76,
          "duration": 0.640362,
          "velocity": 0.818898
        },
        {
          "time": 484.709362,
          "name": "G5",
          "midi": 79,
          "duration": 0.640362,
          "velocity": 0.818898
        },
        {
          "time": 484.965772,
          "name": "D4",
          "midi": 62,
          "duration": 0.346154,
          "velocity": 0.88189
        },
        {
          "time": 485.349724,
          "name": "D5",
          "midi": 74,
          "duration": 0.345491,
          "velocity": 0.818898
        },
        {
          "time": 485.349724,
          "name": "B4",
          "midi": 71,
          "duration": 0.345491,
          "velocity": 0.818898
        },
        {
          "time": 485.349724,
          "name": "D4",
          "midi": 62,
          "duration": 0.310345,
          "velocity": 0.88189
        },
        {
          "time": 485.695215,
          "name": "F5",
          "midi": 77,
          "duration": 0.336538,
          "velocity": 0.818898
        },
        {
          "time": 485.695215,
          "name": "D5",
          "midi": 74,
          "duration": 0.336538,
          "velocity": 0.818898
        },
        {
          "time": 486.07983,
          "name": "F5",
          "midi": 77,
          "duration": 0.336538,
          "velocity": 0.818898
        },
        {
          "time": 486.07983,
          "name": "D5",
          "midi": 74,
          "duration": 0.336538,
          "velocity": 0.818898
        },
        {
          "time": 486.07983,
          "name": "D4",
          "midi": 62,
          "duration": 0.346154,
          "velocity": 0.88189
        },
        {
          "time": 486.463782,
          "name": "F5",
          "midi": 77,
          "duration": 0.301724,
          "velocity": 0.818898
        },
        {
          "time": 486.463782,
          "name": "D5",
          "midi": 74,
          "duration": 0.301724,
          "velocity": 0.818898
        },
        {
          "time": 486.463782,
          "name": "D4",
          "midi": 62,
          "duration": 0.310345,
          "velocity": 0.88189
        },
        {
          "time": 486.809273,
          "name": "D5",
          "midi": 74,
          "duration": 0.064102,
          "velocity": 0.818898
        },
        {
          "time": 486.809273,
          "name": "F5",
          "midi": 77,
          "duration": 0.064102,
          "velocity": 0.818898
        },
        {
          "time": 486.873375,
          "name": "E5",
          "midi": 76,
          "duration": 0.064103,
          "velocity": 0.818898
        },
        {
          "time": 486.873375,
          "name": "G5",
          "midi": 79,
          "duration": 0.064103,
          "velocity": 0.818898
        },
        {
          "time": 486.937478,
          "name": "F5",
          "midi": 77,
          "duration": 0.448717,
          "velocity": 0.818898
        },
        {
          "time": 486.937478,
          "name": "A5",
          "midi": 81,
          "duration": 0.448717,
          "velocity": 0.818898
        },
        {
          "time": 487.193888,
          "name": "C#4",
          "midi": 61,
          "duration": 0.383952,
          "velocity": 0.88189
        },
        {
          "time": 487.386195,
          "name": "C#5",
          "midi": 73,
          "duration": 0.191644,
          "velocity": 0.818898
        },
        {
          "time": 487.386195,
          "name": "A4",
          "midi": 69,
          "duration": 0.191644,
          "velocity": 0.818898
        },
        {
          "time": 487.57784,
          "name": "A5",
          "midi": 81,
          "duration": 0.172414,
          "velocity": 0.818898
        },
        {
          "time": 487.57784,
          "name": "F5",
          "midi": 77,
          "duration": 0.172414,
          "velocity": 0.818898
        },
        {
          "time": 487.750254,
          "name": "C#5",
          "midi": 73,
          "duration": 0.173077,
          "velocity": 0.818898
        },
        {
          "time": 487.750254,
          "name": "A4",
          "midi": 69,
          "duration": 0.173077,
          "velocity": 0.818898
        },
        {
          "time": 487.923331,
          "name": "A5",
          "midi": 81,
          "duration": 0.192308,
          "velocity": 0.818898
        },
        {
          "time": 487.923331,
          "name": "F5",
          "midi": 77,
          "duration": 0.192308,
          "velocity": 0.818898
        },
        {
          "time": 488.115638,
          "name": "E5",
          "midi": 76,
          "duration": 0.192307,
          "velocity": 0.818898
        },
        {
          "time": 488.115638,
          "name": "G5",
          "midi": 79,
          "duration": 0.192307,
          "velocity": 0.818898
        },
        {
          "time": 488.307946,
          "name": "A4",
          "midi": 69,
          "duration": 0.192308,
          "velocity": 0.818898
        },
        {
          "time": 488.307946,
          "name": "F5",
          "midi": 77,
          "duration": 0.192308,
          "velocity": 0.818898
        },
        {
          "time": 488.307946,
          "name": "A3",
          "midi": 57,
          "duration": 0.346154,
          "velocity": 0.88189
        },
        {
          "time": 488.500253,
          "name": "G4",
          "midi": 67,
          "duration": 0.191644,
          "velocity": 0.818898
        },
        {
          "time": 488.500253,
          "name": "E5",
          "midi": 76,
          "duration": 0.191644,
          "velocity": 0.818898
        },
        {
          "time": 488.691898,
          "name": "F4",
          "midi": 65,
          "duration": 0.38705,
          "velocity": 0.818898
        },
        {
          "time": 488.691898,
          "name": "D5",
          "midi": 74,
          "duration": 0.38705,
          "velocity": 0.818898
        },
        {
          "time": 488.691898,
          "name": "A3",
          "midi": 57,
          "duration": 0.345238,
          "velocity": 0.88189
        },
        {
          "time": 489.078948,
          "name": "G5",
          "midi": 79,
          "duration": 0.173781,
          "velocity": 0.818898
        },
        {
          "time": 489.078948,
          "name": "G4",
          "midi": 67,
          "duration": 0.173781,
          "velocity": 0.818898
        },
        {
          "time": 489.078948,
          "name": "D4",
          "midi": 62,
          "duration": 1.076536,
          "velocity": 0.88189
        },
        {
          "time": 489.078948,
          "name": "G3",
          "midi": 55,
          "duration": 1.076536,
          "velocity": 0.88189
        },
        {
          "time": 489.261875,
          "name": "G5",
          "midi": 79,
          "duration": 0.173781,
          "velocity": 0.818898
        },
        {
          "time": 489.261875,
          "name": "G4",
          "midi": 67,
          "duration": 0.173781,
          "velocity": 0.818898
        },
        {
          "time": 489.444802,
          "name": "G5",
          "midi": 79,
          "duration": 0.347561,
          "velocity": 0.818898
        },
        {
          "time": 489.444802,
          "name": "G4",
          "midi": 67,
          "duration": 0.347561,
          "velocity": 0.818898
        },
        {
          "time": 489.810305,
          "name": "G5",
          "midi": 79,
          "duration": 0.163793,
          "velocity": 0.818898
        },
        {
          "time": 489.810305,
          "name": "G4",
          "midi": 67,
          "duration": 0.163793,
          "velocity": 0.818898
        },
        {
          "time": 489.982719,
          "name": "G5",
          "midi": 79,
          "duration": 0.163793,
          "velocity": 0.818898
        },
        {
          "time": 489.982719,
          "name": "G4",
          "midi": 67,
          "duration": 0.163793,
          "velocity": 0.818898
        },
        {
          "time": 490.155484,
          "name": "G5",
          "midi": 79,
          "duration": 0.347561,
          "velocity": 0.818898
        },
        {
          "time": 490.155484,
          "name": "G4",
          "midi": 67,
          "duration": 0.347561,
          "velocity": 0.818898
        },
        {
          "time": 490.155484,
          "name": "E4",
          "midi": 64,
          "duration": 1.076536,
          "velocity": 0.88189
        },
        {
          "time": 490.155484,
          "name": "G3",
          "midi": 55,
          "duration": 1.076536,
          "velocity": 0.88189
        },
        {
          "time": 490.521338,
          "name": "A5",
          "midi": 81,
          "duration": 0.173781,
          "velocity": 0.818898
        },
        {
          "time": 490.521338,
          "name": "A4",
          "midi": 69,
          "duration": 0.173781,
          "velocity": 0.818898
        },
        {
          "time": 490.704265,
          "name": "A5",
          "midi": 81,
          "duration": 0.173781,
          "velocity": 0.818898
        },
        {
          "time": 490.704265,
          "name": "A4",
          "midi": 69,
          "duration": 0.173781,
          "velocity": 0.818898
        },
        {
          "time": 490.886841,
          "name": "A5",
          "midi": 81,
          "duration": 0.327587,
          "velocity": 0.818898
        },
        {
          "time": 490.886841,
          "name": "A4",
          "midi": 69,
          "duration": 0.327587,
          "velocity": 0.818898
        },
        {
          "time": 491.23202,
          "name": "D5",
          "midi": 74,
          "duration": 0.173781,
          "velocity": 0.818898
        },
        {
          "time": 491.23202,
          "name": "F4",
          "midi": 65,
          "duration": 1.076536,
          "velocity": 0.88189
        },
        {
          "time": 491.23202,
          "name": "G3",
          "midi": 55,
          "duration": 1.076536,
          "velocity": 0.88189
        },
        {
          "time": 491.414947,
          "name": "D5",
          "midi": 74,
          "duration": 0.173781,
          "velocity": 0.818898
        },
        {
          "time": 491.597874,
          "name": "D5",
          "midi": 74,
          "duration": 0.347561,
          "velocity": 0.818898
        },
        {
          "time": 491.963377,
          "name": "B4",
          "midi": 71,
          "duration": 0.163793,
          "velocity": 0.818898
        },
        {
          "time": 492.135791,
          "name": "B4",
          "midi": 71,
          "duration": 0.163793,
          "velocity": 0.818898
        },
        {
          "time": 492.308556,
          "name": "B4",
          "midi": 71,
          "duration": 0.347561,
          "velocity": 0.818898
        },
        {
          "time": 492.308556,
          "name": "G4",
          "midi": 67,
          "duration": 1.076536,
          "velocity": 0.88189
        },
        {
          "time": 492.308556,
          "name": "G3",
          "midi": 55,
          "duration": 1.076536,
          "velocity": 0.88189
        },
        {
          "time": 492.67441,
          "name": "C5",
          "midi": 72,
          "duration": 0.173781,
          "velocity": 0.818898
        },
        {
          "time": 492.857337,
          "name": "C5",
          "midi": 72,
          "duration": 0.173781,
          "velocity": 0.818898
        },
        {
          "time": 493.039913,
          "name": "C5",
          "midi": 72,
          "duration": 0.327587,
          "velocity": 0.818898
        },
        {
          "time": 493.385092,
          "name": "G5",
          "midi": 79,
          "duration": 0.173781,
          "velocity": 0.818898
        },
        {
          "time": 493.385092,
          "name": "G4",
          "midi": 67,
          "duration": 0.173781,
          "velocity": 0.818898
        },
        {
          "time": 493.385092,
          "name": "D4",
          "midi": 62,
          "duration": 1.076536,
          "velocity": 0.88189
        },
        {
          "time": 493.385092,
          "name": "G3",
          "midi": 55,
          "duration": 1.076536,
          "velocity": 0.88189
        },
        {
          "time": 493.568019,
          "name": "G5",
          "midi": 79,
          "duration": 0.173781,
          "velocity": 0.818898
        },
        {
          "time": 493.568019,
          "name": "G4",
          "midi": 67,
          "duration": 0.173781,
          "velocity": 0.818898
        },
        {
          "time": 493.750946,
          "name": "G5",
          "midi": 79,
          "duration": 0.347561,
          "velocity": 0.818898
        },
        {
          "time": 493.750946,
          "name": "G4",
          "midi": 67,
          "duration": 0.347561,
          "velocity": 0.818898
        },
        {
          "time": 494.116449,
          "name": "G5",
          "midi": 79,
          "duration": 0.163793,
          "velocity": 0.818898
        },
        {
          "time": 494.116449,
          "name": "G4",
          "midi": 67,
          "duration": 0.163793,
          "velocity": 0.818898
        },
        {
          "time": 494.288863,
          "name": "G5",
          "midi": 79,
          "duration": 0.163793,
          "velocity": 0.818898
        },
        {
          "time": 494.288863,
          "name": "G4",
          "midi": 67,
          "duration": 0.163793,
          "velocity": 0.818898
        },
        {
          "time": 494.461628,
          "name": "G5",
          "midi": 79,
          "duration": 0.347561,
          "velocity": 0.818898
        },
        {
          "time": 494.461628,
          "name": "G4",
          "midi": 67,
          "duration": 0.347561,
          "velocity": 0.818898
        },
        {
          "time": 494.461628,
          "name": "E4",
          "midi": 64,
          "duration": 1.076536,
          "velocity": 0.88189
        },
        {
          "time": 494.461628,
          "name": "G3",
          "midi": 55,
          "duration": 1.076536,
          "velocity": 0.88189
        },
        {
          "time": 494.827482,
          "name": "A5",
          "midi": 81,
          "duration": 0.173781,
          "velocity": 0.818898
        },
        {
          "time": 494.827482,
          "name": "A4",
          "midi": 69,
          "duration": 0.173781,
          "velocity": 0.818898
        },
        {
          "time": 495.010409,
          "name": "A5",
          "midi": 81,
          "duration": 0.173781,
          "velocity": 0.818898
        },
        {
          "time": 495.010409,
          "name": "A4",
          "midi": 69,
          "duration": 0.173781,
          "velocity": 0.818898
        },
        {
          "time": 495.192985,
          "name": "A5",
          "midi": 81,
          "duration": 0.327587,
          "velocity": 0.818898
        },
        {
          "time": 495.192985,
          "name": "A4",
          "midi": 69,
          "duration": 0.327587,
          "velocity": 0.818898
        },
        {
          "time": 495.538164,
          "name": "D5",
          "midi": 74,
          "duration": 0.173781,
          "velocity": 0.818898
        },
        {
          "time": 495.538164,
          "name": "F4",
          "midi": 65,
          "duration": 1.076536,
          "velocity": 0.88189
        },
        {
          "time": 495.538164,
          "name": "G3",
          "midi": 55,
          "duration": 1.076536,
          "velocity": 0.88189
        },
        {
          "time": 495.721091,
          "name": "D5",
          "midi": 74,
          "duration": 0.173781,
          "velocity": 0.818898
        },
        {
          "time": 495.904018,
          "name": "D5",
          "midi": 74,
          "duration": 0.347561,
          "velocity": 0.818898
        },
        {
          "time": 496.269521,
          "name": "B4",
          "midi": 71,
          "duration": 0.163793,
          "velocity": 0.818898
        },
        {
          "time": 496.441935,
          "name": "B4",
          "midi": 71,
          "duration": 0.163793,
          "velocity": 0.818898
        },
        {
          "time": 496.6147,
          "name": "B4",
          "midi": 71,
          "duration": 0.173781,
          "velocity": 0.818898
        },
        {
          "time": 496.6147,
          "name": "G4",
          "midi": 67,
          "duration": 1.118408,
          "velocity": 0.88189
        },
        {
          "time": 496.6147,
          "name": "G3",
          "midi": 55,
          "duration": 1.118408,
          "velocity": 0.88189
        },
        {
          "time": 496.797627,
          "name": "C5",
          "midi": 72,
          "duration": 0.173781,
          "velocity": 0.818898
        },
        {
          "time": 496.980554,
          "name": "B4",
          "midi": 71,
          "duration": 0.173781,
          "velocity": 0.818898
        },
        {
          "time": 497.163481,
          "name": "A4",
          "midi": 69,
          "duration": 0.173781,
          "velocity": 0.818898
        },
        {
          "time": 497.346057,
          "name": "G4",
          "midi": 67,
          "duration": 0.366667,
          "velocity": 0.818898
        },
        {
          "time": 497.733107,
          "name": "G5",
          "midi": 79,
          "duration": 0.173781,
          "velocity": 0.818898
        },
        {
          "time": 497.733107,
          "name": "G4",
          "midi": 67,
          "duration": 0.173781,
          "velocity": 0.818898
        },
        {
          "time": 497.733107,
          "name": "D4",
          "midi": 62,
          "duration": 1.076536,
          "velocity": 0.88189
        },
        {
          "time": 497.733107,
          "name": "G3",
          "midi": 55,
          "duration": 1.076536,
          "velocity": 0.88189
        },
        {
          "time": 497.916034,
          "name": "G5",
          "midi": 79,
          "duration": 0.173781,
          "velocity": 0.818898
        },
        {
          "time": 497.916034,
          "name": "G4",
          "midi": 67,
          "duration": 0.173781,
          "velocity": 0.818898
        },
        {
          "time": 498.098961,
          "name": "G5",
          "midi": 79,
          "duration": 0.347561,
          "velocity": 0.818898
        },
        {
          "time": 498.098961,
          "name": "G4",
          "midi": 67,
          "duration": 0.347561,
          "velocity": 0.818898
        },
        {
          "time": 498.464465,
          "name": "G5",
          "midi": 79,
          "duration": 0.163793,
          "velocity": 0.818898
        },
        {
          "time": 498.464465,
          "name": "G4",
          "midi": 67,
          "duration": 0.163793,
          "velocity": 0.818898
        },
        {
          "time": 498.636879,
          "name": "G5",
          "midi": 79,
          "duration": 0.163793,
          "velocity": 0.818898
        },
        {
          "time": 498.636879,
          "name": "G4",
          "midi": 67,
          "duration": 0.163793,
          "velocity": 0.818898
        },
        {
          "time": 498.809643,
          "name": "G5",
          "midi": 79,
          "duration": 0.347561,
          "velocity": 0.818898
        },
        {
          "time": 498.809643,
          "name": "G4",
          "midi": 67,
          "duration": 0.347561,
          "velocity": 0.818898
        },
        {
          "time": 498.809643,
          "name": "E4",
          "midi": 64,
          "duration": 1.076536,
          "velocity": 0.88189
        },
        {
          "time": 498.809643,
          "name": "G3",
          "midi": 55,
          "duration": 1.076536,
          "velocity": 0.88189
        },
        {
          "time": 499.175497,
          "name": "A5",
          "midi": 81,
          "duration": 0.173781,
          "velocity": 0.818898
        },
        {
          "time": 499.175497,
          "name": "A4",
          "midi": 69,
          "duration": 0.173781,
          "velocity": 0.818898
        },
        {
          "time": 499.358424,
          "name": "A5",
          "midi": 81,
          "duration": 0.173781,
          "velocity": 0.818898
        },
        {
          "time": 499.358424,
          "name": "A4",
          "midi": 69,
          "duration": 0.173781,
          "velocity": 0.818898
        },
        {
          "time": 499.541001,
          "name": "A5",
          "midi": 81,
          "duration": 0.327587,
          "velocity": 0.818898
        },
        {
          "time": 499.541001,
          "name": "A4",
          "midi": 69,
          "duration": 0.327587,
          "velocity": 0.818898
        },
        {
          "time": 499.886179,
          "name": "D5",
          "midi": 74,
          "duration": 0.173781,
          "velocity": 0.818898
        },
        {
          "time": 499.886179,
          "name": "F4",
          "midi": 65,
          "duration": 1.076536,
          "velocity": 0.88189
        },
        {
          "time": 499.886179,
          "name": "G3",
          "midi": 55,
          "duration": 1.076536,
          "velocity": 0.88189
        },
        {
          "time": 500.069106,
          "name": "D5",
          "midi": 74,
          "duration": 0.173781,
          "velocity": 0.818898
        },
        {
          "time": 500.252033,
          "name": "D5",
          "midi": 74,
          "duration": 0.347561,
          "velocity": 0.818898
        },
        {
          "time": 500.617537,
          "name": "B4",
          "midi": 71,
          "duration": 0.163793,
          "velocity": 0.818898
        },
        {
          "time": 500.789951,
          "name": "B4",
          "midi": 71,
          "duration": 0.163793,
          "velocity": 0.818898
        },
        {
          "time": 500.962715,
          "name": "B4",
          "midi": 71,
          "duration": 0.347561,
          "velocity": 0.818898
        },
        {
          "time": 500.962715,
          "name": "G4",
          "midi": 67,
          "duration": 1.076536,
          "velocity": 0.88189
        },
        {
          "time": 500.962715,
          "name": "G3",
          "midi": 55,
          "duration": 1.076536,
          "velocity": 0.88189
        },
        {
          "time": 501.328569,
          "name": "C5",
          "midi": 72,
          "duration": 0.173781,
          "velocity": 0.818898
        },
        {
          "time": 501.511496,
          "name": "C5",
          "midi": 72,
          "duration": 0.173781,
          "velocity": 0.818898
        },
        {
          "time": 501.694073,
          "name": "C5",
          "midi": 72,
          "duration": 0.327587,
          "velocity": 0.818898
        },
        {
          "time": 502.039251,
          "name": "G5",
          "midi": 79,
          "duration": 0.173781,
          "velocity": 0.818898
        },
        {
          "time": 502.039251,
          "name": "G4",
          "midi": 67,
          "duration": 0.173781,
          "velocity": 0.818898
        },
        {
          "time": 502.039251,
          "name": "D4",
          "midi": 62,
          "duration": 1.076536,
          "velocity": 0.88189
        },
        {
          "time": 502.039251,
          "name": "G3",
          "midi": 55,
          "duration": 1.076536,
          "velocity": 0.88189
        },
        {
          "time": 502.222178,
          "name": "G5",
          "midi": 79,
          "duration": 0.173781,
          "velocity": 0.818898
        },
        {
          "time": 502.222178,
          "name": "G4",
          "midi": 67,
          "duration": 0.173781,
          "velocity": 0.818898
        },
        {
          "time": 502.405105,
          "name": "G5",
          "midi": 79,
          "duration": 0.347561,
          "velocity": 0.818898
        },
        {
          "time": 502.405105,
          "name": "G4",
          "midi": 67,
          "duration": 0.347561,
          "velocity": 0.818898
        },
        {
          "time": 502.770609,
          "name": "G5",
          "midi": 79,
          "duration": 0.163793,
          "velocity": 0.818898
        },
        {
          "time": 502.770609,
          "name": "G4",
          "midi": 67,
          "duration": 0.163793,
          "velocity": 0.818898
        },
        {
          "time": 502.943023,
          "name": "G5",
          "midi": 79,
          "duration": 0.163793,
          "velocity": 0.818898
        },
        {
          "time": 502.943023,
          "name": "G4",
          "midi": 67,
          "duration": 0.163793,
          "velocity": 0.818898
        },
        {
          "time": 503.115787,
          "name": "G5",
          "midi": 79,
          "duration": 0.347561,
          "velocity": 0.818898
        },
        {
          "time": 503.115787,
          "name": "G4",
          "midi": 67,
          "duration": 0.347561,
          "velocity": 0.818898
        },
        {
          "time": 503.115787,
          "name": "E4",
          "midi": 64,
          "duration": 1.076536,
          "velocity": 0.88189
        },
        {
          "time": 503.115787,
          "name": "G3",
          "midi": 55,
          "duration": 1.076536,
          "velocity": 0.88189
        },
        {
          "time": 503.481641,
          "name": "A5",
          "midi": 81,
          "duration": 0.173781,
          "velocity": 0.818898
        },
        {
          "time": 503.481641,
          "name": "A4",
          "midi": 69,
          "duration": 0.173781,
          "velocity": 0.818898
        },
        {
          "time": 503.664568,
          "name": "A5",
          "midi": 81,
          "duration": 0.173781,
          "velocity": 0.818898
        },
        {
          "time": 503.664568,
          "name": "A4",
          "midi": 69,
          "duration": 0.173781,
          "velocity": 0.818898
        },
        {
          "time": 503.847145,
          "name": "A5",
          "midi": 81,
          "duration": 0.327587,
          "velocity": 0.818898
        },
        {
          "time": 503.847145,
          "name": "A4",
          "midi": 69,
          "duration": 0.327587,
          "velocity": 0.818898
        },
        {
          "time": 504.192323,
          "name": "D5",
          "midi": 74,
          "duration": 0.173781,
          "velocity": 0.818898
        },
        {
          "time": 504.192323,
          "name": "F4",
          "midi": 65,
          "duration": 1.076536,
          "velocity": 0.88189
        },
        {
          "time": 504.192323,
          "name": "G3",
          "midi": 55,
          "duration": 1.076536,
          "velocity": 0.88189
        },
        {
          "time": 504.37525,
          "name": "D5",
          "midi": 74,
          "duration": 0.173781,
          "velocity": 0.818898
        },
        {
          "time": 504.558177,
          "name": "D5",
          "midi": 74,
          "duration": 0.347561,
          "velocity": 0.818898
        },
        {
          "time": 504.923681,
          "name": "B4",
          "midi": 71,
          "duration": 0.163793,
          "velocity": 0.818898
        },
        {
          "time": 505.096095,
          "name": "B4",
          "midi": 71,
          "duration": 0.163793,
          "velocity": 0.818898
        },
        {
          "time": 505.268859,
          "name": "B4",
          "midi": 71,
          "duration": 0.173781,
          "velocity": 0.818898
        },
        {
          "time": 505.268859,
          "name": "G4",
          "midi": 67,
          "duration": 1.13647,
          "velocity": 0.88189
        },
        {
          "time": 505.268859,
          "name": "G3",
          "midi": 55,
          "duration": 1.13647,
          "velocity": 0.88189
        },
        {
          "time": 505.451786,
          "name": "C5",
          "midi": 72,
          "duration": 0.173781,
          "velocity": 0.818898
        },
        {
          "time": 505.634713,
          "name": "D5",
          "midi": 74,
          "duration": 0.173781,
          "velocity": 0.818898
        },
        {
          "time": 505.81764,
          "name": "E5",
          "midi": 76,
          "duration": 0.173781,
          "velocity": 0.818898
        },
        {
          "time": 506.000819,
          "name": "F#5",
          "midi": 78,
          "duration": 0.180952,
          "velocity": 0.818898
        },
        {
          "time": 506.192089,
          "name": "G5",
          "midi": 79,
          "duration": 0.203571,
          "velocity": 0.818898
        },
        {
          "time": 506.405329,
          "name": "C5",
          "midi": 72,
          "duration": 0.173781,
          "velocity": 0.88189
        },
        {
          "time": 506.588256,
          "name": "C5",
          "midi": 72,
          "duration": 0.173781,
          "velocity": 0.88189
        },
        {
          "time": 506.771183,
          "name": "C5",
          "midi": 72,
          "duration": 0.347561,
          "velocity": 0.88189
        },
        {
          "time": 507.136686,
          "name": "C4",
          "midi": 60,
          "duration": 0.163793,
          "velocity": 0.88189
        },
        {
          "time": 507.3091,
          "name": "C4",
          "midi": 60,
          "duration": 0.163793,
          "velocity": 0.88189
        },
        {
          "time": 507.481865,
          "name": "C4",
          "midi": 60,
          "duration": 0.347561,
          "velocity": 0.88189
        },
        {
          "time": 507.847719,
          "name": "D4",
          "midi": 62,
          "duration": 0.173781,
          "velocity": 0.88189
        },
        {
          "time": 508.030646,
          "name": "D4",
          "midi": 62,
          "duration": 0.173781,
          "velocity": 0.88189
        },
        {
          "time": 508.213222,
          "name": "D4",
          "midi": 62,
          "duration": 0.327587,
          "velocity": 0.88189
        },
        {
          "time": 508.558401,
          "name": "G4",
          "midi": 67,
          "duration": 0.173781,
          "velocity": 0.88189
        },
        {
          "time": 508.741328,
          "name": "G4",
          "midi": 67,
          "duration": 0.173781,
          "velocity": 0.88189
        },
        {
          "time": 508.924255,
          "name": "G4",
          "midi": 67,
          "duration": 0.347561,
          "velocity": 0.88189
        },
        {
          "time": 509.289758,
          "name": "E4",
          "midi": 64,
          "duration": 0.163793,
          "velocity": 0.88189
        },
        {
          "time": 509.462172,
          "name": "E4",
          "midi": 64,
          "duration": 0.163793,
          "velocity": 0.88189
        },
        {
          "time": 509.634937,
          "name": "E4",
          "midi": 64,
          "duration": 0.347561,
          "velocity": 0.88189
        },
        {
          "time": 510.000791,
          "name": "F4",
          "midi": 65,
          "duration": 0.173781,
          "velocity": 0.88189
        },
        {
          "time": 510.183718,
          "name": "F4",
          "midi": 65,
          "duration": 0.173781,
          "velocity": 0.88189
        },
        {
          "time": 510.366294,
          "name": "F4",
          "midi": 65,
          "duration": 0.327587,
          "velocity": 0.88189
        },
        {
          "time": 510.711473,
          "name": "C5",
          "midi": 72,
          "duration": 0.173781,
          "velocity": 0.88189
        },
        {
          "time": 510.8944,
          "name": "C5",
          "midi": 72,
          "duration": 0.173781,
          "velocity": 0.88189
        },
        {
          "time": 511.077327,
          "name": "C5",
          "midi": 72,
          "duration": 0.347561,
          "velocity": 0.88189
        },
        {
          "time": 511.44283,
          "name": "C4",
          "midi": 60,
          "duration": 0.163793,
          "velocity": 0.88189
        },
        {
          "time": 511.615244,
          "name": "C4",
          "midi": 60,
          "duration": 0.163793,
          "velocity": 0.88189
        },
        {
          "time": 511.788009,
          "name": "C4",
          "midi": 60,
          "duration": 0.347561,
          "velocity": 0.88189
        },
        {
          "time": 512.153863,
          "name": "D4",
          "midi": 62,
          "duration": 0.173781,
          "velocity": 0.88189
        },
        {
          "time": 512.33679,
          "name": "D4",
          "midi": 62,
          "duration": 0.173781,
          "velocity": 0.88189
        },
        {
          "time": 512.519366,
          "name": "D4",
          "midi": 62,
          "duration": 0.327587,
          "velocity": 0.88189
        },
        {
          "time": 512.864545,
          "name": "G4",
          "midi": 67,
          "duration": 0.173781,
          "velocity": 0.88189
        },
        {
          "time": 513.047472,
          "name": "G4",
          "midi": 67,
          "duration": 0.173781,
          "velocity": 0.88189
        },
        {
          "time": 513.230399,
          "name": "G4",
          "midi": 67,
          "duration": 0.347561,
          "velocity": 0.88189
        },
        {
          "time": 513.595902,
          "name": "E4",
          "midi": 64,
          "duration": 0.163793,
          "velocity": 0.88189
        },
        {
          "time": 513.768316,
          "name": "E4",
          "midi": 64,
          "duration": 0.163793,
          "velocity": 0.88189
        },
        {
          "time": 513.941393,
          "name": "E4",
          "midi": 64,
          "duration": 0.192307,
          "velocity": 0.88189
        },
        {
          "time": 514.133701,
          "name": "F4",
          "midi": 65,
          "duration": 0.192564,
          "velocity": 0.88189
        },
        {
          "time": 514.326265,
          "name": "C5",
          "midi": 72,
          "duration": 0.2,
          "velocity": 0.88189
        },
        {
          "time": 514.526265,
          "name": "A#4",
          "midi": 70,
          "duration": 0.199583,
          "velocity": 0.88189
        },
        {
          "time": 514.725848,
          "name": "A4",
          "midi": 69,
          "duration": 0.1875,
          "velocity": 0.88189
        },
        {
          "time": 514.913348,
          "name": "G4",
          "midi": 67,
          "duration": 0.18766,
          "velocity": 0.88189
        },
        {
          "time": 515.101008,
          "name": "F4",
          "midi": 65,
          "duration": 0.768567,
          "velocity": 0.88189
        },
        {
          "time": 515.107419,
          "name": "D4",
          "midi": 62,
          "duration": 0.384615,
          "velocity": 0.92126
        },
        {
          "time": 515.492034,
          "name": "D4",
          "midi": 62,
          "duration": 0.383289,
          "velocity": 0.92126
        },
        {
          "time": 515.869575,
          "name": "G4",
          "midi": 67,
          "duration": 0.345491,
          "velocity": 0.88189
        },
        {
          "time": 515.875322,
          "name": "D4",
          "midi": 62,
          "duration": 0.346154,
          "velocity": 0.92126
        },
        {
          "time": 516.215066,
          "name": "A4",
          "midi": 69,
          "duration": 0.768567,
          "velocity": 0.88189
        },
        {
          "time": 516.221477,
          "name": "D4",
          "midi": 62,
          "duration": 0.384615,
          "velocity": 0.92126
        },
        {
          "time": 516.606092,
          "name": "G4",
          "midi": 67,
          "duration": 0.383289,
          "velocity": 0.92126
        },
        {
          "time": 516.983633,
          "name": "A#4",
          "midi": 70,
          "duration": 0.345491,
          "velocity": 0.88189
        },
        {
          "time": 516.98938,
          "name": "F4",
          "midi": 65,
          "duration": 0.346154,
          "velocity": 0.92126
        },
        {
          "time": 517.329124,
          "name": "C5",
          "midi": 72,
          "duration": 0.384615,
          "velocity": 0.88189
        },
        {
          "time": 517.335535,
          "name": "C4",
          "midi": 60,
          "duration": 0.673076,
          "velocity": 0.92126
        },
        {
          "time": 517.713739,
          "name": "D5",
          "midi": 74,
          "duration": 0.383952,
          "velocity": 0.88189
        },
        {
          "time": 518.008611,
          "name": "B3",
          "midi": 59,
          "duration": 0.094828,
          "velocity": 0.92126
        },
        {
          "time": 518.097691,
          "name": "D#5",
          "midi": 75,
          "duration": 0.345491,
          "velocity": 0.88189
        },
        {
          "time": 518.103438,
          "name": "C4",
          "midi": 60,
          "duration": 0.634615,
          "velocity": 0.92126
        },
        {
          "time": 518.443182,
          "name": "F5",
          "midi": 77,
          "duration": 0.768567,
          "velocity": 0.88189
        },
        {
          "time": 518.738054,
          "name": "B3",
          "midi": 59,
          "duration": 0.096154,
          "velocity": 0.92126
        },
        {
          "time": 518.834208,
          "name": "C4",
          "midi": 60,
          "duration": 0.383289,
          "velocity": 0.92126
        },
        {
          "time": 519.211749,
          "name": "F#5",
          "midi": 78,
          "duration": 0.345491,
          "velocity": 0.88189
        },
        {
          "time": 519.217496,
          "name": "D4",
          "midi": 62,
          "duration": 0.346154,
          "velocity": 0.92126
        },
        {
          "time": 519.55724,
          "name": "G5",
          "midi": 79,
          "duration": 0.768567,
          "velocity": 0.88189
        },
        {
          "time": 519.563651,
          "name": "G4",
          "midi": 67,
          "duration": 0.384615,
          "velocity": 0.92126
        },
        {
          "time": 519.948266,
          "name": "D#5",
          "midi": 75,
          "duration": 0.383289,
          "velocity": 0.92126
        },
        {
          "time": 520.325807,
          "name": "F5",
          "midi": 77,
          "duration": 0.345491,
          "velocity": 0.88189
        },
        {
          "time": 520.331554,
          "name": "D5",
          "midi": 74,
          "duration": 0.346154,
          "velocity": 0.92126
        },
        {
          "time": 520.671298,
          "name": "D#5",
          "midi": 75,
          "duration": 0.768567,
          "velocity": 0.88189
        },
        {
          "time": 520.677709,
          "name": "G4",
          "midi": 67,
          "duration": 0.767904,
          "velocity": 0.92126
        },
        {
          "time": 521.439865,
          "name": "D5",
          "midi": 74,
          "duration": 0.345491,
          "velocity": 0.88189
        },
        {
          "time": 521.445612,
          "name": "F4",
          "midi": 65,
          "duration": 0.346154,
          "velocity": 0.92126
        },
        {
          "time": 521.785356,
          "name": "C5",
          "midi": 72,
          "duration": 0.384615,
          "velocity": 0.88189
        },
        {
          "time": 521.791767,
          "name": "D#4",
          "midi": 63,
          "duration": 0.576923,
          "velocity": 0.92126
        },
        {
          "time": 522.169971,
          "name": "G4",
          "midi": 67,
          "duration": 0.383952,
          "velocity": 0.88189
        },
        {
          "time": 522.368689,
          "name": "D4",
          "midi": 62,
          "duration": 0.190981,
          "velocity": 0.92126
        },
        {
          "time": 522.553923,
          "name": "D#4",
          "midi": 63,
          "duration": 0.345491,
          "velocity": 0.88189
        },
        {
          "time": 522.55967,
          "name": "C4",
          "midi": 60,
          "duration": 0.172414,
          "velocity": 0.92126
        },
        {
          "time": 522.899414,
          "name": "C4",
          "midi": 60,
          "duration": 0.192307,
          "velocity": 0.88189
        },
        {
          "time": 524.013472,
          "name": "A#5",
          "midi": 82,
          "duration": 0.384615,
          "velocity": 0.818898
        },
        {
          "time": 524.013472,
          "name": "G5",
          "midi": 79,
          "duration": 0.384615,
          "velocity": 0.818898
        },
        {
          "time": 524.398087,
          "name": "D#5",
          "midi": 75,
          "duration": 0.383952,
          "velocity": 0.818898
        },
        {
          "time": 524.398087,
          "name": "G5",
          "midi": 79,
          "duration": 0.383952,
          "velocity": 0.818898
        },
        {
          "time": 524.398087,
          "name": "G3",
          "midi": 55,
          "duration": 0.346154,
          "velocity": 0.88189
        },
        {
          "time": 524.782039,
          "name": "C5",
          "midi": 72,
          "duration": 0.345491,
          "velocity": 0.818898
        },
        {
          "time": 524.782039,
          "name": "D#5",
          "midi": 75,
          "duration": 0.345491,
          "velocity": 0.818898
        },
        {
          "time": 524.782039,
          "name": "G3",
          "midi": 55,
          "duration": 0.310345,
          "velocity": 0.88189
        },
        {
          "time": 525.12753,
          "name": "G4",
          "midi": 67,
          "duration": 0.384615,
          "velocity": 0.818898
        },
        {
          "time": 525.12753,
          "name": "C5",
          "midi": 72,
          "duration": 0.384615,
          "velocity": 0.818898
        },
        {
          "time": 525.512145,
          "name": "A#5",
          "midi": 82,
          "duration": 0.556366,
          "velocity": 0.818898
        },
        {
          "time": 525.512145,
          "name": "G5",
          "midi": 79,
          "duration": 0.556366,
          "velocity": 0.818898
        },
        {
          "time": 525.512145,
          "name": "G3",
          "midi": 55,
          "duration": 0.346154,
          "velocity": 0.88189
        },
        {
          "time": 525.896097,
          "name": "G3",
          "midi": 55,
          "duration": 0.310345,
          "velocity": 0.88189
        },
        {
          "time": 526.068511,
          "name": "F5",
          "midi": 77,
          "duration": 0.173077,
          "velocity": 0.818898
        },
        {
          "time": 526.068511,
          "name": "A5",
          "midi": 81,
          "duration": 0.173077,
          "velocity": 0.818898
        },
        {
          "time": 526.241588,
          "name": "D#5",
          "midi": 75,
          "duration": 0.768567,
          "velocity": 0.818898
        },
        {
          "time": 526.241588,
          "name": "G5",
          "midi": 79,
          "duration": 0.768567,
          "velocity": 0.818898
        },
        {
          "time": 526.626203,
          "name": "A#3",
          "midi": 58,
          "duration": 0.346154,
          "velocity": 0.88189
        },
        {
          "time": 527.010155,
          "name": "D5",
          "midi": 74,
          "duration": 0.345491,
          "velocity": 0.818898
        },
        {
          "time": 527.010155,
          "name": "F5",
          "midi": 77,
          "duration": 0.345491,
          "velocity": 0.818898
        },
        {
          "time": 527.010155,
          "name": "A#3",
          "midi": 58,
          "duration": 0.310345,
          "velocity": 0.88189
        },
        {
          "time": 527.355646,
          "name": "F5",
          "midi": 77,
          "duration": 0.336538,
          "velocity": 0.818898
        },
        {
          "time": 527.355646,
          "name": "D5",
          "midi": 74,
          "duration": 0.336538,
          "velocity": 0.818898
        },
        {
          "time": 527.740261,
          "name": "F5",
          "midi": 77,
          "duration": 0.336538,
          "velocity": 0.818898
        },
        {
          "time": 527.740261,
          "name": "D5",
          "midi": 74,
          "duration": 0.336538,
          "velocity": 0.818898
        },
        {
          "time": 527.740261,
          "name": "B3",
          "midi": 59,
          "duration": 0.346154,
          "velocity": 0.88189
        },
        {
          "time": 528.124213,
          "name": "F5",
          "midi": 77,
          "duration": 0.301724,
          "velocity": 0.818898
        },
        {
          "time": 528.124213,
          "name": "D5",
          "midi": 74,
          "duration": 0.301724,
          "velocity": 0.818898
        },
        {
          "time": 528.124213,
          "name": "B3",
          "midi": 59,
          "duration": 0.310345,
          "velocity": 0.88189
        },
        {
          "time": 528.469704,
          "name": "F5",
          "midi": 77,
          "duration": 0.064102,
          "velocity": 0.818898
        },
        {
          "time": 528.469704,
          "name": "D5",
          "midi": 74,
          "duration": 0.064102,
          "velocity": 0.818898
        },
        {
          "time": 528.533807,
          "name": "G5",
          "midi": 79,
          "duration": 0.064102,
          "velocity": 0.818898
        },
        {
          "time": 528.533807,
          "name": "D#5",
          "midi": 75,
          "duration": 0.064102,
          "velocity": 0.818898
        },
        {
          "time": 528.597909,
          "name": "F5",
          "midi": 77,
          "duration": 0.640362,
          "velocity": 0.818898
        },
        {
          "time": 528.597909,
          "name": "A5",
          "midi": 81,
          "duration": 0.640362,
          "velocity": 0.818898
        },
        {
          "time": 528.854319,
          "name": "C4",
          "midi": 60,
          "duration": 0.346154,
          "velocity": 0.88189
        },
        {
          "time": 529.238271,
          "name": "C5",
          "midi": 72,
          "duration": 0.345491,
          "velocity": 0.818898
        },
        {
          "time": 529.238271,
          "name": "D#5",
          "midi": 75,
          "duration": 0.345491,
          "velocity": 0.818898
        },
        {
          "time": 529.238271,
          "name": "C4",
          "midi": 60,
          "duration": 0.310345,
          "velocity": 0.88189
        },
        {
          "time": 529.583762,
          "name": "C5",
          "midi": 72,
          "duration": 0.336538,
          "velocity": 0.818898
        },
        {
          "time": 529.583762,
          "name": "D#5",
          "midi": 75,
          "duration": 0.336538,
          "velocity": 0.818898
        },
        {
          "time": 529.968377,
          "name": "C5",
          "midi": 72,
          "duration": 0.336538,
          "velocity": 0.818898
        },
        {
          "time": 529.968377,
          "name": "D#5",
          "midi": 75,
          "duration": 0.336538,
          "velocity": 0.818898
        },
        {
          "time": 529.968377,
          "name": "C4",
          "midi": 60,
          "duration": 0.346154,
          "velocity": 0.88189
        },
        {
          "time": 530.352329,
          "name": "C5",
          "midi": 72,
          "duration": 0.301724,
          "velocity": 0.818898
        },
        {
          "time": 530.352329,
          "name": "D#5",
          "midi": 75,
          "duration": 0.301724,
          "velocity": 0.818898
        },
        {
          "time": 530.352329,
          "name": "C4",
          "midi": 60,
          "duration": 0.310345,
          "velocity": 0.88189
        },
        {
          "time": 530.69782,
          "name": "C5",
          "midi": 72,
          "duration": 0.064102,
          "velocity": 0.818898
        },
        {
          "time": 530.69782,
          "name": "D#5",
          "midi": 75,
          "duration": 0.064102,
          "velocity": 0.818898
        },
        {
          "time": 530.761923,
          "name": "D5",
          "midi": 74,
          "duration": 0.064102,
          "velocity": 0.818898
        },
        {
          "time": 530.761923,
          "name": "F5",
          "midi": 77,
          "duration": 0.064102,
          "velocity": 0.818898
        },
        {
          "time": 530.826025,
          "name": "D#5",
          "midi": 75,
          "duration": 0.448717,
          "velocity": 0.818898
        },
        {
          "time": 530.826025,
          "name": "G5",
          "midi": 79,
          "duration": 0.448717,
          "velocity": 0.818898
        },
        {
          "time": 531.082435,
          "name": "A#3",
          "midi": 58,
          "duration": 0.346154,
          "velocity": 0.88189
        },
        {
          "time": 531.274743,
          "name": "A#4",
          "midi": 70,
          "duration": 0.191644,
          "velocity": 0.818898
        },
        {
          "time": 531.274743,
          "name": "D5",
          "midi": 74,
          "duration": 0.191644,
          "velocity": 0.818898
        },
        {
          "time": 531.466387,
          "name": "D#5",
          "midi": 75,
          "duration": 0.172414,
          "velocity": 0.818898
        },
        {
          "time": 531.466387,
          "name": "G5",
          "midi": 79,
          "duration": 0.172414,
          "velocity": 0.818898
        },
        {
          "time": 531.466387,
          "name": "A#3",
          "midi": 58,
          "duration": 0.310345,
          "velocity": 0.88189
        },
        {
          "time": 531.638801,
          "name": "D5",
          "midi": 74,
          "duration": 0.173077,
          "velocity": 0.818898
        },
        {
          "time": 531.638801,
          "name": "F5",
          "midi": 77,
          "duration": 0.173077,
          "velocity": 0.818898
        },
        {
          "time": 531.811878,
          "name": "F5",
          "midi": 77,
          "duration": 0.192307,
          "velocity": 0.818898
        },
        {
          "time": 531.811878,
          "name": "D5",
          "midi": 74,
          "duration": 0.192307,
          "velocity": 0.818898
        },
        {
          "time": 531.811878,
          "name": "G#3",
          "midi": 56,
          "duration": 0.192307,
          "velocity": 0.88189
        },
        {
          "time": 532.004186,
          "name": "G#4",
          "midi": 68,
          "duration": 0.192307,
          "velocity": 0.818898
        },
        {
          "time": 532.196493,
          "name": "G5",
          "midi": 79,
          "duration": 0.192307,
          "velocity": 0.818898
        },
        {
          "time": 532.196493,
          "name": "D#5",
          "midi": 75,
          "duration": 0.192307,
          "velocity": 0.818898
        },
        {
          "time": 532.196493,
          "name": "A3",
          "midi": 57,
          "duration": 0.192307,
          "velocity": 0.88189
        },
        {
          "time": 532.388801,
          "name": "D5",
          "midi": 74,
          "duration": 0.191644,
          "velocity": 0.818898
        },
        {
          "time": 532.388801,
          "name": "F5",
          "midi": 77,
          "duration": 0.191644,
          "velocity": 0.818898
        },
        {
          "time": 532.580445,
          "name": "C#5",
          "midi": 73,
          "duration": 0.172414,
          "velocity": 0.818898
        },
        {
          "time": 532.580445,
          "name": "E5",
          "midi": 76,
          "duration": 0.172414,
          "velocity": 0.818898
        },
        {
          "time": 532.580445,
          "name": "A3",
          "midi": 57,
          "duration": 0.172414,
          "velocity": 0.88189
        },
        {
          "time": 532.752859,
          "name": "D#5",
          "midi": 75,
          "duration": 0.173077,
          "velocity": 0.818898
        },
        {
          "time": 532.752859,
          "name": "C5",
          "midi": 72,
          "duration": 0.173077,
          "velocity": 0.818898
        },
        {
          "time": 532.925936,
          "name": "D5",
          "midi": 74,
          "duration": 0.192307,
          "velocity": 0.818898
        },
        {
          "time": 532.925936,
          "name": "A#4",
          "midi": 70,
          "duration": 0.192307,
          "velocity": 0.818898
        },
        {
          "time": 532.925936,
          "name": "F4",
          "midi": 65,
          "duration": 0.768567,
          "velocity": 0.88189
        },
        {
          "time": 532.932347,
          "name": "D4",
          "midi": 62,
          "duration": 0.384615,
          "velocity": 0.92126
        },
        {
          "time": 533.316962,
          "name": "D4",
          "midi": 62,
          "duration": 0.383289,
          "velocity": 0.92126
        },
        {
          "time": 533.694503,
          "name": "G4",
          "midi": 67,
          "duration": 0.345491,
          "velocity": 0.88189
        },
        {
          "time": 533.70025,
          "name": "D4",
          "midi": 62,
          "duration": 0.346154,
          "velocity": 0.92126
        },
        {
          "time": 534.039994,
          "name": "A4",
          "midi": 69,
          "duration": 0.768567,
          "velocity": 0.88189
        },
        {
          "time": 534.046405,
          "name": "D4",
          "midi": 62,
          "duration": 0.384615,
          "velocity": 0.92126
        },
        {
          "time": 534.43102,
          "name": "G4",
          "midi": 67,
          "duration": 0.383289,
          "velocity": 0.92126
        },
        {
          "time": 534.808561,
          "name": "A#4",
          "midi": 70,
          "duration": 0.345491,
          "velocity": 0.88189
        },
        {
          "time": 534.814308,
          "name": "F4",
          "midi": 65,
          "duration": 0.346154,
          "velocity": 0.92126
        },
        {
          "time": 535.154052,
          "name": "C5",
          "midi": 72,
          "duration": 0.384615,
          "velocity": 0.88189
        },
        {
          "time": 535.160463,
          "name": "C4",
          "midi": 60,
          "duration": 0.673076,
          "velocity": 0.92126
        },
        {
          "time": 535.538667,
          "name": "D5",
          "midi": 74,
          "duration": 0.383952,
          "velocity": 0.88189
        },
        {
          "time": 535.833539,
          "name": "B3",
          "midi": 59,
          "duration": 0.094828,
          "velocity": 0.92126
        },
        {
          "time": 535.922619,
          "name": "D#5",
          "midi": 75,
          "duration": 0.345491,
          "velocity": 0.88189
        },
        {
          "time": 535.928366,
          "name": "C4",
          "midi": 60,
          "duration": 0.634615,
          "velocity": 0.92126
        },
        {
          "time": 536.26811,
          "name": "F5",
          "midi": 77,
          "duration": 0.768567,
          "velocity": 0.88189
        },
        {
          "time": 536.562982,
          "name": "B3",
          "midi": 59,
          "duration": 0.096154,
          "velocity": 0.92126
        },
        {
          "time": 536.659136,
          "name": "C4",
          "midi": 60,
          "duration": 0.383289,
          "velocity": 0.92126
        },
        {
          "time": 537.036677,
          "name": "F#5",
          "midi": 78,
          "duration": 0.345491,
          "velocity": 0.88189
        },
        {
          "time": 537.042424,
          "name": "D4",
          "midi": 62,
          "duration": 0.346154,
          "velocity": 0.92126
        },
        {
          "time": 537.382168,
          "name": "G5",
          "midi": 79,
          "duration": 0.768567,
          "velocity": 0.88189
        },
        {
          "time": 537.388579,
          "name": "G4",
          "midi": 67,
          "duration": 0.384615,
          "velocity": 0.92126
        },
        {
          "time": 537.773194,
          "name": "D#5",
          "midi": 75,
          "duration": 0.383289,
          "velocity": 0.92126
        },
        {
          "time": 538.150735,
          "name": "F5",
          "midi": 77,
          "duration": 0.345491,
          "velocity": 0.88189
        },
        {
          "time": 538.156482,
          "name": "D5",
          "midi": 74,
          "duration": 0.346154,
          "velocity": 0.92126
        },
        {
          "time": 538.496226,
          "name": "D#5",
          "midi": 75,
          "duration": 0.768567,
          "velocity": 0.88189
        },
        {
          "time": 538.502637,
          "name": "G4",
          "midi": 67,
          "duration": 0.767904,
          "velocity": 0.92126
        },
        {
          "time": 539.264793,
          "name": "D5",
          "midi": 74,
          "duration": 0.345491,
          "velocity": 0.88189
        },
        {
          "time": 539.27054,
          "name": "F4",
          "midi": 65,
          "duration": 0.346154,
          "velocity": 0.92126
        },
        {
          "time": 539.610284,
          "name": "C5",
          "midi": 72,
          "duration": 0.384615,
          "velocity": 0.88189
        },
        {
          "time": 539.616695,
          "name": "D#4",
          "midi": 63,
          "duration": 0.576923,
          "velocity": 0.92126
        },
        {
          "time": 539.994899,
          "name": "G4",
          "midi": 67,
          "duration": 0.383952,
          "velocity": 0.88189
        },
        {
          "time": 540.193617,
          "name": "D4",
          "midi": 62,
          "duration": 0.190981,
          "velocity": 0.92126
        },
        {
          "time": 540.378851,
          "name": "D#4",
          "midi": 63,
          "duration": 0.345491,
          "velocity": 0.88189
        },
        {
          "time": 540.384598,
          "name": "C4",
          "midi": 60,
          "duration": 0.172414,
          "velocity": 0.92126
        },
        {
          "time": 540.724342,
          "name": "C4",
          "midi": 60,
          "duration": 0.192307,
          "velocity": 0.88189
        },
        {
          "time": 541.8384,
          "name": "A#5",
          "midi": 82,
          "duration": 0.384615,
          "velocity": 0.818898
        },
        {
          "time": 541.8384,
          "name": "G5",
          "midi": 79,
          "duration": 0.384615,
          "velocity": 0.818898
        },
        {
          "time": 542.223015,
          "name": "D#5",
          "midi": 75,
          "duration": 0.383952,
          "velocity": 0.818898
        },
        {
          "time": 542.223015,
          "name": "G5",
          "midi": 79,
          "duration": 0.383952,
          "velocity": 0.818898
        },
        {
          "time": 542.223015,
          "name": "G3",
          "midi": 55,
          "duration": 0.346154,
          "velocity": 0.88189
        },
        {
          "time": 542.606967,
          "name": "C5",
          "midi": 72,
          "duration": 0.345491,
          "velocity": 0.818898
        },
        {
          "time": 542.606967,
          "name": "D#5",
          "midi": 75,
          "duration": 0.345491,
          "velocity": 0.818898
        },
        {
          "time": 542.606967,
          "name": "G3",
          "midi": 55,
          "duration": 0.310345,
          "velocity": 0.88189
        },
        {
          "time": 542.952458,
          "name": "G4",
          "midi": 67,
          "duration": 0.384615,
          "velocity": 0.818898
        },
        {
          "time": 542.952458,
          "name": "C5",
          "midi": 72,
          "duration": 0.384615,
          "velocity": 0.818898
        },
        {
          "time": 543.337073,
          "name": "A#5",
          "midi": 82,
          "duration": 0.556366,
          "velocity": 0.818898
        },
        {
          "time": 543.337073,
          "name": "G5",
          "midi": 79,
          "duration": 0.556366,
          "velocity": 0.818898
        },
        {
          "time": 543.337073,
          "name": "G3",
          "midi": 55,
          "duration": 0.346154,
          "velocity": 0.88189
        },
        {
          "time": 543.721025,
          "name": "G3",
          "midi": 55,
          "duration": 0.310345,
          "velocity": 0.88189
        },
        {
          "time": 543.893439,
          "name": "F5",
          "midi": 77,
          "duration": 0.173077,
          "velocity": 0.818898
        },
        {
          "time": 543.893439,
          "name": "A5",
          "midi": 81,
          "duration": 0.173077,
          "velocity": 0.818898
        },
        {
          "time": 544.066516,
          "name": "D#5",
          "midi": 75,
          "duration": 0.768567,
          "velocity": 0.818898
        },
        {
          "time": 544.066516,
          "name": "G5",
          "midi": 79,
          "duration": 0.768567,
          "velocity": 0.818898
        },
        {
          "time": 544.451131,
          "name": "A#3",
          "midi": 58,
          "duration": 0.346154,
          "velocity": 0.88189
        },
        {
          "time": 544.835083,
          "name": "D5",
          "midi": 74,
          "duration": 0.345491,
          "velocity": 0.818898
        },
        {
          "time": 544.835083,
          "name": "F5",
          "midi": 77,
          "duration": 0.345491,
          "velocity": 0.818898
        },
        {
          "time": 544.835083,
          "name": "A#3",
          "midi": 58,
          "duration": 0.310345,
          "velocity": 0.88189
        },
        {
          "time": 545.180574,
          "name": "G5",
          "midi": 79,
          "duration": 0.064102,
          "velocity": 0.818898
        },
        {
          "time": 545.180574,
          "name": "D#5",
          "midi": 75,
          "duration": 0.064102,
          "velocity": 0.818898
        },
        {
          "time": 545.244677,
          "name": "A5",
          "midi": 81,
          "duration": 0.064102,
          "velocity": 0.818898
        },
        {
          "time": 545.244677,
          "name": "F5",
          "midi": 77,
          "duration": 0.064102,
          "velocity": 0.818898
        },
        {
          "time": 545.308779,
          "name": "A#5",
          "midi": 82,
          "duration": 0.25641,
          "velocity": 0.818898
        },
        {
          "time": 545.308779,
          "name": "G5",
          "midi": 79,
          "duration": 0.25641,
          "velocity": 0.818898
        },
        {
          "time": 545.565189,
          "name": "F5",
          "midi": 77,
          "duration": 0.383952,
          "velocity": 0.818898
        },
        {
          "time": 545.565189,
          "name": "D5",
          "midi": 74,
          "duration": 0.383952,
          "velocity": 0.818898
        },
        {
          "time": 545.565189,
          "name": "A#3",
          "midi": 58,
          "duration": 0.346154,
          "velocity": 0.88189
        },
        {
          "time": 545.949141,
          "name": "A#5",
          "midi": 82,
          "duration": 0.345491,
          "velocity": 0.818898
        },
        {
          "time": 545.949141,
          "name": "G5",
          "midi": 79,
          "duration": 0.345491,
          "velocity": 0.818898
        },
        {
          "time": 545.949141,
          "name": "A#3",
          "midi": 58,
          "duration": 0.310345,
          "velocity": 0.88189
        },
        {
          "time": 546.294632,
          "name": "A4",
          "midi": 69,
          "duration": 0.384615,
          "velocity": 0.818898
        },
        {
          "time": 546.294632,
          "name": "C5",
          "midi": 72,
          "duration": 0.384615,
          "velocity": 0.818898
        },
        {
          "time": 546.679247,
          "name": "G5",
          "midi": 79,
          "duration": 0.383952,
          "velocity": 0.818898
        },
        {
          "time": 546.679247,
          "name": "D#5",
          "midi": 75,
          "duration": 0.383952,
          "velocity": 0.818898
        },
        {
          "time": 546.679247,
          "name": "C4",
          "midi": 60,
          "duration": 0.346154,
          "velocity": 0.88189
        },
        {
          "time": 547.063199,
          "name": "C5",
          "midi": 72,
          "duration": 0.345491,
          "velocity": 0.818898
        },
        {
          "time": 547.063199,
          "name": "A4",
          "midi": 69,
          "duration": 0.345491,
          "velocity": 0.818898
        },
        {
          "time": 547.063199,
          "name": "C4",
          "midi": 60,
          "duration": 0.310345,
          "velocity": 0.88189
        },
        {
          "time": 547.40869,
          "name": "G5",
          "midi": 79,
          "duration": 0.576922,
          "velocity": 0.818898
        },
        {
          "time": 547.40869,
          "name": "D#5",
          "midi": 75,
          "duration": 0.576922,
          "velocity": 0.818898
        },
        {
          "time": 547.793305,
          "name": "A3",
          "midi": 57,
          "duration": 0.346154,
          "velocity": 0.88189
        },
        {
          "time": 547.985613,
          "name": "C5",
          "midi": 72,
          "duration": 0.191644,
          "velocity": 0.818898
        },
        {
          "time": 547.985613,
          "name": "A4",
          "midi": 69,
          "duration": 0.191644,
          "velocity": 0.818898
        },
        {
          "time": 548.177257,
          "name": "G4",
          "midi": 67,
          "duration": 0.172414,
          "velocity": 0.818898
        },
        {
          "time": 548.177257,
          "name": "D#5",
          "midi": 75,
          "duration": 0.172414,
          "velocity": 0.818898
        },
        {
          "time": 548.177257,
          "name": "A3",
          "midi": 57,
          "duration": 0.310345,
          "velocity": 0.88189
        },
        {
          "time": 548.349671,
          "name": "F4",
          "midi": 65,
          "duration": 0.172619,
          "velocity": 0.818898
        },
        {
          "time": 548.349671,
          "name": "D5",
          "midi": 74,
          "duration": 0.172619,
          "velocity": 0.818898
        },
        {
          "time": 548.522291,
          "name": "D4",
          "midi": 62,
          "duration": 0.356777,
          "velocity": 0.818898
        },
        {
          "time": 548.522291,
          "name": "A#4",
          "midi": 70,
          "duration": 0.356777,
          "velocity": 0.818898
        },
        {
          "time": 548.522291,
          "name": "A#3",
          "midi": 58,
          "duration": 0.321429,
          "velocity": 0.88189
        },
        {
          "time": 548.876275,
          "name": "D4",
          "midi": 62,
          "duration": 0.301676,
          "velocity": 0.92126
        },
        {
          "time": 548.876275,
          "name": "D5",
          "midi": 74,
          "duration": 0.301676,
          "velocity": 0.92126
        },
        {
          "time": 548.879068,
          "name": "D5",
          "midi": 74,
          "duration": 0.301676,
          "velocity": 0.818898
        },
        {
          "time": 548.879068,
          "name": "D4",
          "midi": 62,
          "duration": 0.301676,
          "velocity": 0.818898
        },
        {
          "time": 548.879068,
          "name": "D5",
          "midi": 74,
          "duration": 0.301676,
          "velocity": 0.88189
        },
        {
          "time": 548.879068,
          "name": "D4",
          "midi": 62,
          "duration": 0.301676,
          "velocity": 0.88189
        },
        {
          "time": 548.884654,
          "name": "D4",
          "midi": 62,
          "duration": 0.301676,
          "velocity": 0.92126
        },
        {
          "time": 548.884654,
          "name": "D5",
          "midi": 74,
          "duration": 0.301676,
          "velocity": 0.92126
        },
        {
          "time": 549.211471,
          "name": "D4",
          "midi": 62,
          "duration": 0.301676,
          "velocity": 0.92126
        },
        {
          "time": 549.211471,
          "name": "D5",
          "midi": 74,
          "duration": 0.301676,
          "velocity": 0.92126
        },
        {
          "time": 549.214264,
          "name": "D5",
          "midi": 74,
          "duration": 0.301676,
          "velocity": 0.818898
        },
        {
          "time": 549.214264,
          "name": "D4",
          "midi": 62,
          "duration": 0.301676,
          "velocity": 0.818898
        },
        {
          "time": 549.214264,
          "name": "D5",
          "midi": 74,
          "duration": 0.301676,
          "velocity": 0.88189
        },
        {
          "time": 549.214264,
          "name": "D4",
          "midi": 62,
          "duration": 0.301676,
          "velocity": 0.88189
        },
        {
          "time": 549.21985,
          "name": "D4",
          "midi": 62,
          "duration": 0.301676,
          "velocity": 0.92126
        },
        {
          "time": 549.21985,
          "name": "D5",
          "midi": 74,
          "duration": 0.301676,
          "velocity": 0.92126
        },
        {
          "time": 549.546772,
          "name": "D5",
          "midi": 74,
          "duration": 1.007149,
          "velocity": 0.92126
        },
        {
          "time": 549.546772,
          "name": "D4",
          "midi": 62,
          "duration": 1.007149,
          "velocity": 0.92126
        },
        {
          "time": 549.54967,
          "name": "D4",
          "midi": 62,
          "duration": 1.180043,
          "velocity": 0.818898
        },
        {
          "time": 549.54967,
          "name": "D5",
          "midi": 74,
          "duration": 1.180043,
          "velocity": 0.818898
        },
        {
          "time": 549.54967,
          "name": "D5",
          "midi": 74,
          "duration": 1.156988,
          "velocity": 0.88189
        },
        {
          "time": 549.54967,
          "name": "D4",
          "midi": 62,
          "duration": 1.156988,
          "velocity": 0.88189
        },
        {
          "time": 549.555467,
          "name": "D5",
          "midi": 74,
          "duration": 1.007099,
          "velocity": 0.92126
        },
        {
          "time": 549.555467,
          "name": "D4",
          "midi": 62,
          "duration": 1.007099,
          "velocity": 0.92126
        },
        {
          "time": 550.729713,
          "name": "D5",
          "midi": 74,
          "duration": 0.172538,
          "velocity": 0.818898
        },
        {
          "time": 550.729713,
          "name": "D4",
          "midi": 62,
          "duration": 0.172538,
          "velocity": 0.818898
        },
        {
          "time": 550.729713,
          "name": "D5",
          "midi": 74,
          "duration": 0.172538,
          "velocity": 0.88189
        },
        {
          "time": 550.902251,
          "name": "E5",
          "midi": 76,
          "duration": 0.161725,
          "velocity": 0.818898
        },
        {
          "time": 550.902251,
          "name": "E4",
          "midi": 64,
          "duration": 0.161725,
          "velocity": 0.818898
        },
        {
          "time": 550.902251,
          "name": "E5",
          "midi": 76,
          "duration": 0.161725,
          "velocity": 0.88189
        },
        {
          "time": 551.063976,
          "name": "D5",
          "midi": 74,
          "duration": 0.161725,
          "velocity": 0.818898
        },
        {
          "time": 551.063976,
          "name": "D4",
          "midi": 62,
          "duration": 0.161725,
          "velocity": 0.818898
        },
        {
          "time": 551.063976,
          "name": "D5",
          "midi": 74,
          "duration": 0.161725,
          "velocity": 0.88189
        },
        {
          "time": 551.225701,
          "name": "C5",
          "midi": 72,
          "duration": 0.161725,
          "velocity": 0.818898
        },
        {
          "time": 551.225701,
          "name": "C4",
          "midi": 60,
          "duration": 0.161725,
          "velocity": 0.818898
        },
        {
          "time": 551.225701,
          "name": "C5",
          "midi": 72,
          "duration": 0.161725,
          "velocity": 0.88189
        },
        {
          "time": 551.387426,
          "name": "B4",
          "midi": 71,
          "duration": 0.161725,
          "velocity": 0.818898
        },
        {
          "time": 551.387426,
          "name": "B3",
          "midi": 59,
          "duration": 0.161725,
          "velocity": 0.818898
        },
        {
          "time": 551.387426,
          "name": "B4",
          "midi": 71,
          "duration": 0.161725,
          "velocity": 0.88189
        },
        {
          "time": 551.549151,
          "name": "C4",
          "midi": 60,
          "duration": 0.291105,
          "velocity": 0.818898
        },
        {
          "time": 551.549151,
          "name": "C5",
          "midi": 72,
          "duration": 0.291105,
          "velocity": 0.818898
        },
        {
          "time": 551.549151,
          "name": "C5",
          "midi": 72,
          "duration": 0.291105,
          "velocity": 0.88189
        },
        {
          "time": 551.872601,
          "name": "A3",
          "midi": 57,
          "duration": 0.291105,
          "velocity": 0.818898
        },
        {
          "time": 551.872601,
          "name": "A4",
          "midi": 69,
          "duration": 0.291105,
          "velocity": 0.818898
        },
        {
          "time": 551.872601,
          "name": "A4",
          "midi": 69,
          "duration": 0.291105,
          "velocity": 0.88189
        },
        {
          "time": 552.196051,
          "name": "D4",
          "midi": 62,
          "duration": 0.291105,
          "velocity": 0.818898
        },
        {
          "time": 552.196051,
          "name": "D5",
          "midi": 74,
          "duration": 0.291105,
          "velocity": 0.818898
        },
        {
          "time": 552.196051,
          "name": "D5",
          "midi": 74,
          "duration": 0.291105,
          "velocity": 0.88189
        },
        {
          "time": 554.18446,
          "name": "D5",
          "midi": 74,
          "duration": 0.193139,
          "velocity": 0.818898
        },
        {
          "time": 554.18446,
          "name": "G4",
          "midi": 67,
          "duration": 0.193139,
          "velocity": 0.818898
        },
        {
          "time": 554.558869,
          "name": "D5",
          "midi": 74,
          "duration": 0.181678,
          "velocity": 0.818898
        },
        {
          "time": 554.558869,
          "name": "G4",
          "midi": 67,
          "duration": 0.181678,
          "velocity": 0.818898
        },
        {
          "time": 554.934095,
          "name": "D5",
          "midi": 74,
          "duration": 0.193139,
          "velocity": 0.818898
        },
        {
          "time": 554.934095,
          "name": "G4",
          "midi": 67,
          "duration": 0.193139,
          "velocity": 0.818898
        },
        {
          "time": 555.305482,
          "name": "D5",
          "midi": 74,
          "duration": 0.163142,
          "velocity": 1
        },
        {
          "time": 555.308504,
          "name": "D5",
          "midi": 74,
          "duration": 0.181678,
          "velocity": 0.818898
        },
        {
          "time": 555.308504,
          "name": "G4",
          "midi": 67,
          "duration": 0.181678,
          "velocity": 0.818898
        },
        {
          "time": 555.308504,
          "name": "D5",
          "midi": 74,
          "duration": 0.163142,
          "velocity": 0.88189
        },
        {
          "time": 555.314546,
          "name": "D5",
          "midi": 74,
          "duration": 0.163142,
          "velocity": 1
        },
        {
          "time": 555.486956,
          "name": "G5",
          "midi": 79,
          "duration": 0.547013,
          "velocity": 1
        },
        {
          "time": 555.490182,
          "name": "G5",
          "midi": 79,
          "duration": 0.546809,
          "velocity": 0.88189
        },
        {
          "time": 555.496633,
          "name": "G5",
          "midi": 79,
          "duration": 0.546399,
          "velocity": 1
        },
        {
          "time": 555.68373,
          "name": "D5",
          "midi": 74,
          "duration": 0.193139,
          "velocity": 0.818898
        },
        {
          "time": 555.68373,
          "name": "G4",
          "midi": 67,
          "duration": 0.193139,
          "velocity": 0.818898
        },
        {
          "time": 556.055117,
          "name": "B4",
          "midi": 71,
          "duration": 0.163142,
          "velocity": 1
        },
        {
          "time": 556.058139,
          "name": "D5",
          "midi": 74,
          "duration": 0.181678,
          "velocity": 0.818898
        },
        {
          "time": 556.058139,
          "name": "G4",
          "midi": 67,
          "duration": 0.181678,
          "velocity": 0.818898
        },
        {
          "time": 556.058139,
          "name": "B4",
          "midi": 71,
          "duration": 0.163142,
          "velocity": 0.88189
        },
        {
          "time": 556.064181,
          "name": "B4",
          "midi": 71,
          "duration": 0.163142,
          "velocity": 1
        },
        {
          "time": 556.236591,
          "name": "E5",
          "midi": 76,
          "duration": 0.547013,
          "velocity": 1
        },
        {
          "time": 556.239817,
          "name": "E5",
          "midi": 76,
          "duration": 0.546809,
          "velocity": 0.88189
        },
        {
          "time": 556.246268,
          "name": "E5",
          "midi": 76,
          "duration": 0.546399,
          "velocity": 1
        },
        {
          "time": 556.433365,
          "name": "D5",
          "midi": 74,
          "duration": 0.193139,
          "velocity": 0.818898
        },
        {
          "time": 556.433365,
          "name": "A4",
          "midi": 69,
          "duration": 0.193139,
          "velocity": 0.818898
        },
        {
          "time": 556.804752,
          "name": "A4",
          "midi": 69,
          "duration": 0.163142,
          "velocity": 1
        },
        {
          "time": 556.807774,
          "name": "D5",
          "midi": 74,
          "duration": 0.181678,
          "velocity": 0.818898
        },
        {
          "time": 556.807774,
          "name": "A4",
          "midi": 69,
          "duration": 0.181678,
          "velocity": 0.818898
        },
        {
          "time": 556.807774,
          "name": "A4",
          "midi": 69,
          "duration": 0.163142,
          "velocity": 0.88189
        },
        {
          "time": 556.813816,
          "name": "A4",
          "midi": 69,
          "duration": 0.163142,
          "velocity": 1
        },
        {
          "time": 556.986226,
          "name": "D5",
          "midi": 74,
          "duration": 0.547013,
          "velocity": 1
        },
        {
          "time": 556.989452,
          "name": "D5",
          "midi": 74,
          "duration": 0.546809,
          "velocity": 0.88189
        },
        {
          "time": 556.995903,
          "name": "D5",
          "midi": 74,
          "duration": 0.546399,
          "velocity": 1
        },
        {
          "time": 557.183,
          "name": "D5",
          "midi": 74,
          "duration": 0.193139,
          "velocity": 0.818898
        },
        {
          "time": 557.183,
          "name": "G4",
          "midi": 67,
          "duration": 0.193139,
          "velocity": 0.818898
        },
        {
          "time": 557.554387,
          "name": "F#4",
          "midi": 66,
          "duration": 0.163142,
          "velocity": 1
        },
        {
          "time": 557.557409,
          "name": "D5",
          "midi": 74,
          "duration": 0.181678,
          "velocity": 0.818898
        },
        {
          "time": 557.557409,
          "name": "B4",
          "midi": 71,
          "duration": 0.181678,
          "velocity": 0.818898
        },
        {
          "time": 557.557409,
          "name": "F#4",
          "midi": 66,
          "duration": 0.163142,
          "velocity": 0.88189
        },
        {
          "time": 557.563451,
          "name": "F#4",
          "midi": 66,
          "duration": 0.163142,
          "velocity": 1
        },
        {
          "time": 557.735861,
          "name": "A4",
          "midi": 69,
          "duration": 0.05,
          "velocity": 1
        },
        {
          "time": 557.739087,
          "name": "A4",
          "midi": 69,
          "duration": 0.05,
          "velocity": 0.88189
        },
        {
          "time": 557.745538,
          "name": "A4",
          "midi": 69,
          "duration": 0.05,
          "velocity": 1
        },
        {
          "time": 557.784248,
          "name": "G4",
          "midi": 67,
          "duration": 0.132258,
          "velocity": 1
        },
        {
          "time": 557.787474,
          "name": "G4",
          "midi": 67,
          "duration": 0.132258,
          "velocity": 0.88189
        },
        {
          "time": 557.793926,
          "name": "G4",
          "midi": 67,
          "duration": 0.132258,
          "velocity": 1
        },
        {
          "time": 557.92941,
          "name": "F#4",
          "midi": 66,
          "duration": 0.174194,
          "velocity": 1
        },
        {
          "time": 557.932635,
          "name": "D5",
          "midi": 74,
          "duration": 0.193139,
          "velocity": 0.818898
        },
        {
          "time": 557.932635,
          "name": "B4",
          "midi": 71,
          "duration": 0.193139,
          "velocity": 0.818898
        },
        {
          "time": 557.932635,
          "name": "F#4",
          "midi": 66,
          "duration": 0.174194,
          "velocity": 0.88189
        },
        {
          "time": 557.939087,
          "name": "F#4",
          "midi": 66,
          "duration": 0.174194,
          "velocity": 1
        },
        {
          "time": 558.122753,
          "name": "G4",
          "midi": 67,
          "duration": 0.163142,
          "velocity": 1
        },
        {
          "time": 558.125775,
          "name": "G4",
          "midi": 67,
          "duration": 0.163142,
          "velocity": 0.88189
        },
        {
          "time": 558.131817,
          "name": "G4",
          "midi": 67,
          "duration": 0.163142,
          "velocity": 1
        },
        {
          "time": 558.304022,
          "name": "B4",
          "midi": 71,
          "duration": 0.163142,
          "velocity": 1
        },
        {
          "time": 558.307044,
          "name": "D5",
          "midi": 74,
          "duration": 0.181678,
          "velocity": 0.818898
        },
        {
          "time": 558.307044,
          "name": "G4",
          "midi": 67,
          "duration": 0.181678,
          "velocity": 0.818898
        },
        {
          "time": 558.307044,
          "name": "B4",
          "midi": 71,
          "duration": 0.163142,
          "velocity": 0.88189
        },
        {
          "time": 558.313086,
          "name": "B4",
          "midi": 71,
          "duration": 0.163142,
          "velocity": 1
        },
        {
          "time": 558.485496,
          "name": "E5",
          "midi": 76,
          "duration": 0.547013,
          "velocity": 1
        },
        {
          "time": 558.488722,
          "name": "E5",
          "midi": 76,
          "duration": 0.546809,
          "velocity": 0.88189
        },
        {
          "time": 558.495173,
          "name": "E5",
          "midi": 76,
          "duration": 0.546399,
          "velocity": 1
        },
        {
          "time": 558.68227,
          "name": "D5",
          "midi": 74,
          "duration": 0.193139,
          "velocity": 0.818898
        },
        {
          "time": 558.68227,
          "name": "F#4",
          "midi": 66,
          "duration": 0.193139,
          "velocity": 0.818898
        },
        {
          "time": 559.053657,
          "name": "G#4",
          "midi": 68,
          "duration": 0.163142,
          "velocity": 1
        },
        {
          "time": 559.056679,
          "name": "D5",
          "midi": 74,
          "duration": 0.181678,
          "velocity": 0.818898
        },
        {
          "time": 559.056679,
          "name": "F#4",
          "midi": 66,
          "duration": 0.181678,
          "velocity": 0.818898
        },
        {
          "time": 559.056679,
          "name": "G#4",
          "midi": 68,
          "duration": 0.163142,
          "velocity": 0.88189
        },
        {
          "time": 559.062721,
          "name": "G#4",
          "midi": 68,
          "duration": 0.163142,
          "velocity": 1
        },
        {
          "time": 559.235131,
          "name": "B4",
          "midi": 71,
          "duration": 0.05,
          "velocity": 1
        },
        {
          "time": 559.238357,
          "name": "B4",
          "midi": 71,
          "duration": 0.05,
          "velocity": 0.88189
        },
        {
          "time": 559.244808,
          "name": "B4",
          "midi": 71,
          "duration": 0.05,
          "velocity": 1
        },
        {
          "time": 559.283518,
          "name": "A4",
          "midi": 69,
          "duration": 0.132258,
          "velocity": 1
        },
        {
          "time": 559.286744,
          "name": "A4",
          "midi": 69,
          "duration": 0.132258,
          "velocity": 0.88189
        },
        {
          "time": 559.293196,
          "name": "A4",
          "midi": 69,
          "duration": 0.132258,
          "velocity": 1
        },
        {
          "time": 559.42868,
          "name": "G#4",
          "midi": 68,
          "duration": 0.174194,
          "velocity": 1
        },
        {
          "time": 559.431905,
          "name": "D5",
          "midi": 74,
          "duration": 0.193139,
          "velocity": 0.818898
        },
        {
          "time": 559.431905,
          "name": "F#4",
          "midi": 66,
          "duration": 0.193139,
          "velocity": 0.818898
        },
        {
          "time": 559.431905,
          "name": "G#4",
          "midi": 68,
          "duration": 0.174194,
          "velocity": 0.88189
        },
        {
          "time": 559.438357,
          "name": "G#4",
          "midi": 68,
          "duration": 0.174194,
          "velocity": 1
        },
        {
          "time": 559.622023,
          "name": "A4",
          "midi": 69,
          "duration": 0.163142,
          "velocity": 1
        },
        {
          "time": 559.625045,
          "name": "A4",
          "midi": 69,
          "duration": 0.163142,
          "velocity": 0.88189
        },
        {
          "time": 559.631087,
          "name": "A4",
          "midi": 69,
          "duration": 0.163142,
          "velocity": 1
        },
        {
          "time": 559.803292,
          "name": "F#5",
          "midi": 78,
          "duration": 0.163142,
          "velocity": 1
        },
        {
          "time": 559.806314,
          "name": "D5",
          "midi": 74,
          "duration": 0.181678,
          "velocity": 0.818898
        },
        {
          "time": 559.806314,
          "name": "F#4",
          "midi": 66,
          "duration": 0.181678,
          "velocity": 0.818898
        },
        {
          "time": 559.806314,
          "name": "F#5",
          "midi": 78,
          "duration": 0.163142,
          "velocity": 0.88189
        },
        {
          "time": 559.812356,
          "name": "F#5",
          "midi": 78,
          "duration": 0.163142,
          "velocity": 1
        },
        {
          "time": 559.984766,
          "name": "E5",
          "midi": 76,
          "duration": 0.547013,
          "velocity": 1
        },
        {
          "time": 559.987992,
          "name": "E5",
          "midi": 76,
          "duration": 0.546809,
          "velocity": 0.88189
        },
        {
          "time": 559.994443,
          "name": "E5",
          "midi": 76,
          "duration": 0.546399,
          "velocity": 1
        },
        {
          "time": 560.18154,
          "name": "D5",
          "midi": 74,
          "duration": 0.193139,
          "velocity": 0.818898
        },
        {
          "time": 560.18154,
          "name": "G4",
          "midi": 67,
          "duration": 0.193139,
          "velocity": 0.818898
        },
        {
          "time": 560.552927,
          "name": "A#4",
          "midi": 70,
          "duration": 0.163142,
          "velocity": 1
        },
        {
          "time": 560.555949,
          "name": "E5",
          "midi": 76,
          "duration": 0.181678,
          "velocity": 0.818898
        },
        {
          "time": 560.555949,
          "name": "G4",
          "midi": 67,
          "duration": 0.181678,
          "velocity": 0.818898
        },
        {
          "time": 560.555949,
          "name": "A#4",
          "midi": 70,
          "duration": 0.163142,
          "velocity": 0.88189
        },
        {
          "time": 560.561991,
          "name": "A#4",
          "midi": 70,
          "duration": 0.163142,
          "velocity": 1
        },
        {
          "time": 560.734401,
          "name": "C5",
          "midi": 72,
          "duration": 0.05,
          "velocity": 1
        },
        {
          "time": 560.737627,
          "name": "C5",
          "midi": 72,
          "duration": 0.05,
          "velocity": 0.88189
        },
        {
          "time": 560.744078,
          "name": "C5",
          "midi": 72,
          "duration": 0.05,
          "velocity": 1
        },
        {
          "time": 560.782788,
          "name": "B4",
          "midi": 71,
          "duration": 0.132258,
          "velocity": 1
        },
        {
          "time": 560.786014,
          "name": "B4",
          "midi": 71,
          "duration": 0.132258,
          "velocity": 0.88189
        },
        {
          "time": 560.792466,
          "name": "B4",
          "midi": 71,
          "duration": 0.132258,
          "velocity": 1
        },
        {
          "time": 560.92795,
          "name": "A#4",
          "midi": 70,
          "duration": 0.174194,
          "velocity": 1
        },
        {
          "time": 560.931175,
          "name": "D5",
          "midi": 74,
          "duration": 0.193139,
          "velocity": 0.818898
        },
        {
          "time": 560.931175,
          "name": "G4",
          "midi": 67,
          "duration": 0.193139,
          "velocity": 0.818898
        },
        {
          "time": 560.931175,
          "name": "A#4",
          "midi": 70,
          "duration": 0.174194,
          "velocity": 0.88189
        },
        {
          "time": 560.937627,
          "name": "A#4",
          "midi": 70,
          "duration": 0.174194,
          "velocity": 1
        },
        {
          "time": 561.121293,
          "name": "B4",
          "midi": 71,
          "duration": 0.163142,
          "velocity": 1
        },
        {
          "time": 561.124315,
          "name": "B4",
          "midi": 71,
          "duration": 0.163142,
          "velocity": 0.88189
        },
        {
          "time": 561.130357,
          "name": "B4",
          "midi": 71,
          "duration": 0.163142,
          "velocity": 1
        },
        {
          "time": 561.305584,
          "name": "B4",
          "midi": 71,
          "duration": 0.181678,
          "velocity": 0.818898
        },
        {
          "time": 561.305584,
          "name": "G4",
          "midi": 67,
          "duration": 0.181678,
          "velocity": 0.818898
        },
        {
          "time": 561.305584,
          "name": "D5",
          "midi": 74,
          "duration": 0.163142,
          "velocity": 0.88189
        },
        {
          "time": 561.484036,
          "name": "G5",
          "midi": 79,
          "duration": 0.547013,
          "velocity": 1
        },
        {
          "time": 561.487262,
          "name": "G5",
          "midi": 79,
          "duration": 0.546809,
          "velocity": 0.88189
        },
        {
          "time": 561.493713,
          "name": "G5",
          "midi": 79,
          "duration": 0.546399,
          "velocity": 1
        },
        {
          "time": 561.68081,
          "name": "D5",
          "midi": 74,
          "duration": 0.193139,
          "velocity": 0.818898
        },
        {
          "time": 561.68081,
          "name": "G4",
          "midi": 67,
          "duration": 0.193139,
          "velocity": 0.818898
        },
        {
          "time": 562.052197,
          "name": "B4",
          "midi": 71,
          "duration": 0.163142,
          "velocity": 1
        },
        {
          "time": 562.055219,
          "name": "D5",
          "midi": 74,
          "duration": 0.181678,
          "velocity": 0.818898
        },
        {
          "time": 562.055219,
          "name": "G4",
          "midi": 67,
          "duration": 0.181678,
          "velocity": 0.818898
        },
        {
          "time": 562.055219,
          "name": "B4",
          "midi": 71,
          "duration": 0.163142,
          "velocity": 0.88189
        },
        {
          "time": 562.061261,
          "name": "B4",
          "midi": 71,
          "duration": 0.163142,
          "velocity": 1
        },
        {
          "time": 562.233671,
          "name": "E5",
          "midi": 76,
          "duration": 0.547013,
          "velocity": 1
        },
        {
          "time": 562.236897,
          "name": "E5",
          "midi": 76,
          "duration": 0.546809,
          "velocity": 0.88189
        },
        {
          "time": 562.243348,
          "name": "E5",
          "midi": 76,
          "duration": 0.546399,
          "velocity": 1
        },
        {
          "time": 562.430445,
          "name": "D5",
          "midi": 74,
          "duration": 0.193139,
          "velocity": 0.818898
        },
        {
          "time": 562.430445,
          "name": "A4",
          "midi": 69,
          "duration": 0.193139,
          "velocity": 0.818898
        },
        {
          "time": 562.801832,
          "name": "A4",
          "midi": 69,
          "duration": 0.163142,
          "velocity": 1
        },
        {
          "time": 562.804854,
          "name": "D5",
          "midi": 74,
          "duration": 0.181678,
          "velocity": 0.818898
        },
        {
          "time": 562.804854,
          "name": "A4",
          "midi": 69,
          "duration": 0.181678,
          "velocity": 0.818898
        },
        {
          "time": 562.804854,
          "name": "A4",
          "midi": 69,
          "duration": 0.163142,
          "velocity": 0.88189
        },
        {
          "time": 562.810896,
          "name": "A4",
          "midi": 69,
          "duration": 0.163142,
          "velocity": 1
        },
        {
          "time": 562.983306,
          "name": "D5",
          "midi": 74,
          "duration": 0.547013,
          "velocity": 1
        },
        {
          "time": 562.986532,
          "name": "D5",
          "midi": 74,
          "duration": 0.546809,
          "velocity": 0.88189
        },
        {
          "time": 562.992983,
          "name": "D5",
          "midi": 74,
          "duration": 0.546399,
          "velocity": 1
        },
        {
          "time": 563.18008,
          "name": "D5",
          "midi": 74,
          "duration": 0.193139,
          "velocity": 0.818898
        },
        {
          "time": 563.18008,
          "name": "G4",
          "midi": 67,
          "duration": 0.193139,
          "velocity": 0.818898
        },
        {
          "time": 563.551467,
          "name": "F#4",
          "midi": 66,
          "duration": 0.163142,
          "velocity": 1
        },
        {
          "time": 563.554489,
          "name": "D5",
          "midi": 74,
          "duration": 0.181678,
          "velocity": 0.818898
        },
        {
          "time": 563.554489,
          "name": "B4",
          "midi": 71,
          "duration": 0.181678,
          "velocity": 0.818898
        },
        {
          "time": 563.554489,
          "name": "F#4",
          "midi": 66,
          "duration": 0.163142,
          "velocity": 0.88189
        },
        {
          "time": 563.560531,
          "name": "F#4",
          "midi": 66,
          "duration": 0.163142,
          "velocity": 1
        },
        {
          "time": 563.732941,
          "name": "A4",
          "midi": 69,
          "duration": 0.05,
          "velocity": 1
        },
        {
          "time": 563.736167,
          "name": "A4",
          "midi": 69,
          "duration": 0.05,
          "velocity": 0.88189
        },
        {
          "time": 563.742618,
          "name": "A4",
          "midi": 69,
          "duration": 0.05,
          "velocity": 1
        },
        {
          "time": 563.781328,
          "name": "G4",
          "midi": 67,
          "duration": 0.132258,
          "velocity": 1
        },
        {
          "time": 563.784554,
          "name": "G4",
          "midi": 67,
          "duration": 0.132258,
          "velocity": 0.88189
        },
        {
          "time": 563.791006,
          "name": "G4",
          "midi": 67,
          "duration": 0.132258,
          "velocity": 1
        },
        {
          "time": 563.92649,
          "name": "F#4",
          "midi": 66,
          "duration": 0.174194,
          "velocity": 1
        },
        {
          "time": 563.929715,
          "name": "D5",
          "midi": 74,
          "duration": 0.193139,
          "velocity": 0.818898
        },
        {
          "time": 563.929715,
          "name": "B4",
          "midi": 71,
          "duration": 0.193139,
          "velocity": 0.818898
        },
        {
          "time": 563.929715,
          "name": "F#4",
          "midi": 66,
          "duration": 0.174194,
          "velocity": 0.88189
        },
        {
          "time": 563.936167,
          "name": "F#4",
          "midi": 66,
          "duration": 0.174194,
          "velocity": 1
        },
        {
          "time": 564.119833,
          "name": "G4",
          "midi": 67,
          "duration": 0.163142,
          "velocity": 1
        },
        {
          "time": 564.122855,
          "name": "G4",
          "midi": 67,
          "duration": 0.163142,
          "velocity": 0.88189
        },
        {
          "time": 564.128897,
          "name": "G4",
          "midi": 67,
          "duration": 0.163142,
          "velocity": 1
        },
        {
          "time": 564.301102,
          "name": "B4",
          "midi": 71,
          "duration": 0.163142,
          "velocity": 1
        },
        {
          "time": 564.304124,
          "name": "D5",
          "midi": 74,
          "duration": 0.181678,
          "velocity": 0.818898
        },
        {
          "time": 564.304124,
          "name": "G4",
          "midi": 67,
          "duration": 0.181678,
          "velocity": 0.818898
        },
        {
          "time": 564.304124,
          "name": "B4",
          "midi": 71,
          "duration": 0.163142,
          "velocity": 0.88189
        },
        {
          "time": 564.310166,
          "name": "B4",
          "midi": 71,
          "duration": 0.163142,
          "velocity": 1
        },
        {
          "time": 564.482576,
          "name": "C#5",
          "midi": 73,
          "duration": 0.547013,
          "velocity": 1
        },
        {
          "time": 564.485802,
          "name": "C#5",
          "midi": 73,
          "duration": 0.546809,
          "velocity": 0.88189
        },
        {
          "time": 564.492253,
          "name": "C#5",
          "midi": 73,
          "duration": 0.546399,
          "velocity": 1
        },
        {
          "time": 564.67935,
          "name": "E5",
          "midi": 76,
          "duration": 0.193139,
          "velocity": 0.818898
        },
        {
          "time": 564.67935,
          "name": "C#5",
          "midi": 73,
          "duration": 0.193139,
          "velocity": 0.818898
        },
        {
          "time": 565.050737,
          "name": "B4",
          "midi": 71,
          "duration": 0.163142,
          "velocity": 1
        },
        {
          "time": 565.053759,
          "name": "E5",
          "midi": 76,
          "duration": 0.181678,
          "velocity": 0.818898
        },
        {
          "time": 565.053759,
          "name": "C#5",
          "midi": 73,
          "duration": 0.181678,
          "velocity": 0.818898
        },
        {
          "time": 565.053759,
          "name": "B5",
          "midi": 83,
          "duration": 0.163142,
          "velocity": 0.88189
        },
        {
          "time": 565.059801,
          "name": "B4",
          "midi": 71,
          "duration": 0.163142,
          "velocity": 1
        },
        {
          "time": 565.232211,
          "name": "A4",
          "midi": 69,
          "duration": 0.174194,
          "velocity": 1
        },
        {
          "time": 565.235437,
          "name": "A5",
          "midi": 81,
          "duration": 0.174194,
          "velocity": 0.88189
        },
        {
          "time": 565.241888,
          "name": "A4",
          "midi": 69,
          "duration": 0.174194,
          "velocity": 1
        },
        {
          "time": 565.42576,
          "name": "G4",
          "midi": 67,
          "duration": 0.174194,
          "velocity": 1
        },
        {
          "time": 565.428985,
          "name": "E5",
          "midi": 76,
          "duration": 0.193139,
          "velocity": 0.818898
        },
        {
          "time": 565.428985,
          "name": "C#5",
          "midi": 73,
          "duration": 0.193139,
          "velocity": 0.818898
        },
        {
          "time": 565.428985,
          "name": "G5",
          "midi": 79,
          "duration": 0.174194,
          "velocity": 0.88189
        },
        {
          "time": 565.435437,
          "name": "G4",
          "midi": 67,
          "duration": 0.174194,
          "velocity": 1
        },
        {
          "time": 565.619103,
          "name": "F#4",
          "midi": 66,
          "duration": 0.163142,
          "velocity": 1
        },
        {
          "time": 565.622125,
          "name": "F#5",
          "midi": 78,
          "duration": 0.163142,
          "velocity": 0.88189
        },
        {
          "time": 565.628167,
          "name": "F#4",
          "midi": 66,
          "duration": 0.163142,
          "velocity": 1
        },
        {
          "time": 565.800372,
          "name": "E4",
          "midi": 64,
          "duration": 0.163142,
          "velocity": 1
        },
        {
          "time": 565.803394,
          "name": "G4",
          "midi": 67,
          "duration": 0.181678,
          "velocity": 0.818898
        },
        {
          "time": 565.803394,
          "name": "C#5",
          "midi": 73,
          "duration": 0.181678,
          "velocity": 0.818898
        },
        {
          "time": 565.803394,
          "name": "E5",
          "midi": 76,
          "duration": 0.163142,
          "velocity": 0.88189
        },
        {
          "time": 565.809436,
          "name": "E4",
          "midi": 64,
          "duration": 0.163142,
          "velocity": 1
        },
        {
          "time": 565.981846,
          "name": "D4",
          "midi": 62,
          "duration": 0.174194,
          "velocity": 1
        },
        {
          "time": 565.985072,
          "name": "D5",
          "midi": 74,
          "duration": 0.174194,
          "velocity": 0.88189
        },
        {
          "time": 565.991523,
          "name": "D4",
          "midi": 62,
          "duration": 0.174194,
          "velocity": 1
        },
        {
          "time": 566.175395,
          "name": "D4",
          "midi": 62,
          "duration": 0.174194,
          "velocity": 1
        },
        {
          "time": 566.17862,
          "name": "F#4",
          "midi": 66,
          "duration": 0.193139,
          "velocity": 0.818898
        },
        {
          "time": 566.17862,
          "name": "D5",
          "midi": 74,
          "duration": 0.193139,
          "velocity": 0.818898
        },
        {
          "time": 566.17862,
          "name": "D5",
          "midi": 74,
          "duration": 0.174194,
          "velocity": 0.88189
        },
        {
          "time": 566.185072,
          "name": "D4",
          "midi": 62,
          "duration": 0.174194,
          "velocity": 1
        },
        {
          "time": 566.368738,
          "name": "F#4",
          "midi": 66,
          "duration": 0.163142,
          "velocity": 1
        },
        {
          "time": 566.37176,
          "name": "F#5",
          "midi": 78,
          "duration": 0.163142,
          "velocity": 0.88189
        },
        {
          "time": 566.377802,
          "name": "F#4",
          "midi": 66,
          "duration": 0.163142,
          "velocity": 1
        },
        {
          "time": 566.550007,
          "name": "A4",
          "midi": 69,
          "duration": 0.163142,
          "velocity": 1
        },
        {
          "time": 566.553029,
          "name": "F#5",
          "midi": 78,
          "duration": 0.181678,
          "velocity": 0.818898
        },
        {
          "time": 566.553029,
          "name": "D5",
          "midi": 74,
          "duration": 0.181678,
          "velocity": 0.818898
        },
        {
          "time": 566.553029,
          "name": "A5",
          "midi": 81,
          "duration": 0.163142,
          "velocity": 0.88189
        },
        {
          "time": 566.559071,
          "name": "A4",
          "midi": 69,
          "duration": 0.163142,
          "velocity": 1
        },
        {
          "time": 566.731481,
          "name": "D5",
          "midi": 74,
          "duration": 0.174194,
          "velocity": 1
        },
        {
          "time": 566.734707,
          "name": "A5",
          "midi": 81,
          "duration": 0.193548,
          "velocity": 0.818898
        },
        {
          "time": 566.734707,
          "name": "F#5",
          "midi": 78,
          "duration": 0.193548,
          "velocity": 0.818898
        },
        {
          "time": 566.734707,
          "name": "D5",
          "midi": 74,
          "duration": 0.174194,
          "velocity": 0.88189
        },
        {
          "time": 566.741158,
          "name": "D5",
          "midi": 74,
          "duration": 0.174194,
          "velocity": 1
        },
        {
          "time": 566.928255,
          "name": "D#5",
          "midi": 75,
          "duration": 0.193139,
          "velocity": 0.818898
        },
        {
          "time": 566.928255,
          "name": "D#5",
          "midi": 75,
          "duration": 0.174194,
          "velocity": 0.88189
        },
        {
          "time": 567.121395,
          "name": "E5",
          "midi": 76,
          "duration": 0.181269,
          "velocity": 0.818898
        },
        {
          "time": 567.121395,
          "name": "E5",
          "midi": 76,
          "duration": 0.163142,
          "velocity": 0.88189
        },
        {
          "time": 567.302664,
          "name": "F#5",
          "midi": 78,
          "duration": 0.181678,
          "velocity": 0.818898
        },
        {
          "time": 567.302664,
          "name": "F#5",
          "midi": 78,
          "duration": 0.163142,
          "velocity": 0.88189
        },
        {
          "time": 567.481116,
          "name": "G5",
          "midi": 79,
          "duration": 0.547013,
          "velocity": 1
        },
        {
          "time": 567.484342,
          "name": "G5",
          "midi": 79,
          "duration": 0.546809,
          "velocity": 0.88189
        },
        {
          "time": 567.490793,
          "name": "G5",
          "midi": 79,
          "duration": 0.546399,
          "velocity": 1
        },
        {
          "time": 567.67789,
          "name": "D5",
          "midi": 74,
          "duration": 0.193139,
          "velocity": 0.818898
        },
        {
          "time": 567.67789,
          "name": "G4",
          "midi": 67,
          "duration": 0.193139,
          "velocity": 0.818898
        },
        {
          "time": 568.049277,
          "name": "B4",
          "midi": 71,
          "duration": 0.163142,
          "velocity": 1
        },
        {
          "time": 568.052299,
          "name": "D5",
          "midi": 74,
          "duration": 0.181678,
          "velocity": 0.818898
        },
        {
          "time": 568.052299,
          "name": "G4",
          "midi": 67,
          "duration": 0.181678,
          "velocity": 0.818898
        },
        {
          "time": 568.052299,
          "name": "B4",
          "midi": 71,
          "duration": 0.163142,
          "velocity": 0.88189
        },
        {
          "time": 568.058341,
          "name": "B4",
          "midi": 71,
          "duration": 0.163142,
          "velocity": 1
        },
        {
          "time": 568.230751,
          "name": "E5",
          "midi": 76,
          "duration": 0.547013,
          "velocity": 1
        },
        {
          "time": 568.233977,
          "name": "E5",
          "midi": 76,
          "duration": 0.546809,
          "velocity": 0.88189
        },
        {
          "time": 568.240428,
          "name": "E5",
          "midi": 76,
          "duration": 0.546399,
          "velocity": 1
        },
        {
          "time": 568.427525,
          "name": "D5",
          "midi": 74,
          "duration": 0.193139,
          "velocity": 0.818898
        },
        {
          "time": 568.427525,
          "name": "A4",
          "midi": 69,
          "duration": 0.193139,
          "velocity": 0.818898
        },
        {
          "time": 568.798912,
          "name": "A4",
          "midi": 69,
          "duration": 0.163142,
          "velocity": 1
        },
        {
          "time": 568.801934,
          "name": "D5",
          "midi": 74,
          "duration": 0.181678,
          "velocity": 0.818898
        },
        {
          "time": 568.801934,
          "name": "A4",
          "midi": 69,
          "duration": 0.181678,
          "velocity": 0.818898
        },
        {
          "time": 568.801934,
          "name": "A4",
          "midi": 69,
          "duration": 0.163142,
          "velocity": 0.88189
        },
        {
          "time": 568.807976,
          "name": "A4",
          "midi": 69,
          "duration": 0.163142,
          "velocity": 1
        },
        {
          "time": 568.980386,
          "name": "D5",
          "midi": 74,
          "duration": 0.547013,
          "velocity": 1
        },
        {
          "time": 568.983612,
          "name": "D5",
          "midi": 74,
          "duration": 0.546809,
          "velocity": 0.88189
        },
        {
          "time": 568.990063,
          "name": "D5",
          "midi": 74,
          "duration": 0.546399,
          "velocity": 1
        },
        {
          "time": 569.17716,
          "name": "D5",
          "midi": 74,
          "duration": 0.193139,
          "velocity": 0.818898
        },
        {
          "time": 569.17716,
          "name": "G4",
          "midi": 67,
          "duration": 0.193139,
          "velocity": 0.818898
        },
        {
          "time": 569.548547,
          "name": "F#4",
          "midi": 66,
          "duration": 0.163142,
          "velocity": 1
        },
        {
          "time": 569.551569,
          "name": "D5",
          "midi": 74,
          "duration": 0.181678,
          "velocity": 0.818898
        },
        {
          "time": 569.551569,
          "name": "B4",
          "midi": 71,
          "duration": 0.181678,
          "velocity": 0.818898
        },
        {
          "time": 569.551569,
          "name": "F#4",
          "midi": 66,
          "duration": 0.163142,
          "velocity": 0.88189
        },
        {
          "time": 569.557611,
          "name": "F#4",
          "midi": 66,
          "duration": 0.163142,
          "velocity": 1
        },
        {
          "time": 569.730021,
          "name": "A4",
          "midi": 69,
          "duration": 0.05,
          "velocity": 1
        },
        {
          "time": 569.733247,
          "name": "A4",
          "midi": 69,
          "duration": 0.05,
          "velocity": 0.88189
        },
        {
          "time": 569.739698,
          "name": "A4",
          "midi": 69,
          "duration": 0.05,
          "velocity": 1
        },
        {
          "time": 569.778408,
          "name": "G4",
          "midi": 67,
          "duration": 0.132258,
          "velocity": 1
        },
        {
          "time": 569.781634,
          "name": "G4",
          "midi": 67,
          "duration": 0.132258,
          "velocity": 0.88189
        },
        {
          "time": 569.788086,
          "name": "G4",
          "midi": 67,
          "duration": 0.132258,
          "velocity": 1
        },
        {
          "time": 569.92357,
          "name": "F#4",
          "midi": 66,
          "duration": 0.174194,
          "velocity": 1
        },
        {
          "time": 569.926795,
          "name": "D5",
          "midi": 74,
          "duration": 0.193139,
          "velocity": 0.818898
        },
        {
          "time": 569.926795,
          "name": "B4",
          "midi": 71,
          "duration": 0.193139,
          "velocity": 0.818898
        },
        {
          "time": 569.926795,
          "name": "F#4",
          "midi": 66,
          "duration": 0.174194,
          "velocity": 0.88189
        },
        {
          "time": 569.933247,
          "name": "F#4",
          "midi": 66,
          "duration": 0.174194,
          "velocity": 1
        },
        {
          "time": 570.116913,
          "name": "G4",
          "midi": 67,
          "duration": 0.163142,
          "velocity": 1
        },
        {
          "time": 570.119935,
          "name": "G4",
          "midi": 67,
          "duration": 0.163142,
          "velocity": 0.88189
        },
        {
          "time": 570.125977,
          "name": "G4",
          "midi": 67,
          "duration": 0.163142,
          "velocity": 1
        },
        {
          "time": 570.298182,
          "name": "B4",
          "midi": 71,
          "duration": 0.163142,
          "velocity": 1
        },
        {
          "time": 570.301204,
          "name": "D5",
          "midi": 74,
          "duration": 0.181678,
          "velocity": 0.818898
        },
        {
          "time": 570.301204,
          "name": "G4",
          "midi": 67,
          "duration": 0.181678,
          "velocity": 0.818898
        },
        {
          "time": 570.301204,
          "name": "B4",
          "midi": 71,
          "duration": 0.163142,
          "velocity": 0.88189
        },
        {
          "time": 570.307246,
          "name": "B4",
          "midi": 71,
          "duration": 0.163142,
          "velocity": 1
        },
        {
          "time": 570.479656,
          "name": "E5",
          "midi": 76,
          "duration": 0.547013,
          "velocity": 1
        },
        {
          "time": 570.482882,
          "name": "E5",
          "midi": 76,
          "duration": 0.546809,
          "velocity": 0.88189
        },
        {
          "time": 570.489333,
          "name": "E5",
          "midi": 76,
          "duration": 0.546399,
          "velocity": 1
        },
        {
          "time": 570.67643,
          "name": "D5",
          "midi": 74,
          "duration": 0.193139,
          "velocity": 0.818898
        },
        {
          "time": 570.67643,
          "name": "F#4",
          "midi": 66,
          "duration": 0.193139,
          "velocity": 0.818898
        },
        {
          "time": 571.047817,
          "name": "G#4",
          "midi": 68,
          "duration": 0.163142,
          "velocity": 1
        },
        {
          "time": 571.050839,
          "name": "D5",
          "midi": 74,
          "duration": 0.181678,
          "velocity": 0.818898
        },
        {
          "time": 571.050839,
          "name": "F#4",
          "midi": 66,
          "duration": 0.181678,
          "velocity": 0.818898
        },
        {
          "time": 571.050839,
          "name": "G#4",
          "midi": 68,
          "duration": 0.163142,
          "velocity": 0.88189
        },
        {
          "time": 571.056881,
          "name": "G#4",
          "midi": 68,
          "duration": 0.163142,
          "velocity": 1
        },
        {
          "time": 571.229291,
          "name": "B4",
          "midi": 71,
          "duration": 0.05,
          "velocity": 1
        },
        {
          "time": 571.232517,
          "name": "B4",
          "midi": 71,
          "duration": 0.05,
          "velocity": 0.88189
        },
        {
          "time": 571.238968,
          "name": "B4",
          "midi": 71,
          "duration": 0.05,
          "velocity": 1
        },
        {
          "time": 571.277678,
          "name": "A4",
          "midi": 69,
          "duration": 0.132258,
          "velocity": 1
        },
        {
          "time": 571.280904,
          "name": "A4",
          "midi": 69,
          "duration": 0.132258,
          "velocity": 0.88189
        },
        {
          "time": 571.287356,
          "name": "A4",
          "midi": 69,
          "duration": 0.132258,
          "velocity": 1
        },
        {
          "time": 571.42284,
          "name": "G#4",
          "midi": 68,
          "duration": 0.174194,
          "velocity": 1
        },
        {
          "time": 571.426065,
          "name": "D5",
          "midi": 74,
          "duration": 0.193139,
          "velocity": 0.818898
        },
        {
          "time": 571.426065,
          "name": "F#4",
          "midi": 66,
          "duration": 0.193139,
          "velocity": 0.818898
        },
        {
          "time": 571.426065,
          "name": "G#4",
          "midi": 68,
          "duration": 0.174194,
          "velocity": 0.88189
        },
        {
          "time": 571.432517,
          "name": "G#4",
          "midi": 68,
          "duration": 0.174194,
          "velocity": 1
        },
        {
          "time": 571.616183,
          "name": "A4",
          "midi": 69,
          "duration": 0.163142,
          "velocity": 1
        },
        {
          "time": 571.619205,
          "name": "A4",
          "midi": 69,
          "duration": 0.163142,
          "velocity": 0.88189
        },
        {
          "time": 571.625247,
          "name": "A4",
          "midi": 69,
          "duration": 0.163142,
          "velocity": 1
        },
        {
          "time": 571.797452,
          "name": "F#5",
          "midi": 78,
          "duration": 0.163142,
          "velocity": 1
        },
        {
          "time": 571.800474,
          "name": "D5",
          "midi": 74,
          "duration": 0.181678,
          "velocity": 0.818898
        },
        {
          "time": 571.800474,
          "name": "F#4",
          "midi": 66,
          "duration": 0.181678,
          "velocity": 0.818898
        },
        {
          "time": 571.800474,
          "name": "F#5",
          "midi": 78,
          "duration": 0.163142,
          "velocity": 0.88189
        },
        {
          "time": 571.806516,
          "name": "F#5",
          "midi": 78,
          "duration": 0.163142,
          "velocity": 1
        },
        {
          "time": 571.978926,
          "name": "E5",
          "midi": 76,
          "duration": 0.547013,
          "velocity": 1
        },
        {
          "time": 571.982152,
          "name": "E5",
          "midi": 76,
          "duration": 0.546809,
          "velocity": 0.88189
        },
        {
          "time": 571.988603,
          "name": "E5",
          "midi": 76,
          "duration": 0.546399,
          "velocity": 1
        },
        {
          "time": 572.1757,
          "name": "D5",
          "midi": 74,
          "duration": 0.193139,
          "velocity": 0.818898
        },
        {
          "time": 572.1757,
          "name": "G4",
          "midi": 67,
          "duration": 0.193139,
          "velocity": 0.818898
        },
        {
          "time": 572.547087,
          "name": "A#4",
          "midi": 70,
          "duration": 0.163142,
          "velocity": 1
        },
        {
          "time": 572.550109,
          "name": "E5",
          "midi": 76,
          "duration": 0.181678,
          "velocity": 0.818898
        },
        {
          "time": 572.550109,
          "name": "G4",
          "midi": 67,
          "duration": 0.181678,
          "velocity": 0.818898
        },
        {
          "time": 572.550109,
          "name": "A#4",
          "midi": 70,
          "duration": 0.163142,
          "velocity": 0.88189
        },
        {
          "time": 572.556151,
          "name": "A#4",
          "midi": 70,
          "duration": 0.163142,
          "velocity": 1
        },
        {
          "time": 572.728561,
          "name": "C5",
          "midi": 72,
          "duration": 0.05,
          "velocity": 1
        },
        {
          "time": 572.731787,
          "name": "C5",
          "midi": 72,
          "duration": 0.05,
          "velocity": 0.88189
        },
        {
          "time": 572.738238,
          "name": "C5",
          "midi": 72,
          "duration": 0.05,
          "velocity": 1
        },
        {
          "time": 572.776948,
          "name": "B4",
          "midi": 71,
          "duration": 0.132258,
          "velocity": 1
        },
        {
          "time": 572.780174,
          "name": "B4",
          "midi": 71,
          "duration": 0.132258,
          "velocity": 0.88189
        },
        {
          "time": 572.786626,
          "name": "B4",
          "midi": 71,
          "duration": 0.132258,
          "velocity": 1
        },
        {
          "time": 572.92211,
          "name": "A#4",
          "midi": 70,
          "duration": 0.174194,
          "velocity": 1
        },
        {
          "time": 572.925335,
          "name": "D5",
          "midi": 74,
          "duration": 0.193139,
          "velocity": 0.818898
        },
        {
          "time": 572.925335,
          "name": "G4",
          "midi": 67,
          "duration": 0.193139,
          "velocity": 0.818898
        },
        {
          "time": 572.925335,
          "name": "A#4",
          "midi": 70,
          "duration": 0.174194,
          "velocity": 0.88189
        },
        {
          "time": 572.931787,
          "name": "A#4",
          "midi": 70,
          "duration": 0.174194,
          "velocity": 1
        },
        {
          "time": 573.115453,
          "name": "B4",
          "midi": 71,
          "duration": 0.163142,
          "velocity": 1
        },
        {
          "time": 573.118475,
          "name": "B4",
          "midi": 71,
          "duration": 0.163142,
          "velocity": 0.88189
        },
        {
          "time": 573.124517,
          "name": "B4",
          "midi": 71,
          "duration": 0.163142,
          "velocity": 1
        },
        {
          "time": 573.299744,
          "name": "B4",
          "midi": 71,
          "duration": 0.181678,
          "velocity": 0.818898
        },
        {
          "time": 573.299744,
          "name": "G4",
          "midi": 67,
          "duration": 0.181678,
          "velocity": 0.818898
        },
        {
          "time": 573.299744,
          "name": "D5",
          "midi": 74,
          "duration": 0.163142,
          "velocity": 0.88189
        },
        {
          "time": 573.478196,
          "name": "G5",
          "midi": 79,
          "duration": 0.547013,
          "velocity": 1
        },
        {
          "time": 573.481422,
          "name": "G5",
          "midi": 79,
          "duration": 0.546809,
          "velocity": 0.88189
        },
        {
          "time": 573.487873,
          "name": "G5",
          "midi": 79,
          "duration": 0.546399,
          "velocity": 1
        },
        {
          "time": 573.67497,
          "name": "D5",
          "midi": 74,
          "duration": 0.193139,
          "velocity": 0.818898
        },
        {
          "time": 573.67497,
          "name": "G4",
          "midi": 67,
          "duration": 0.193139,
          "velocity": 0.818898
        },
        {
          "time": 574.046357,
          "name": "B4",
          "midi": 71,
          "duration": 0.163142,
          "velocity": 1
        },
        {
          "time": 574.049379,
          "name": "D5",
          "midi": 74,
          "duration": 0.181678,
          "velocity": 0.818898
        },
        {
          "time": 574.049379,
          "name": "G4",
          "midi": 67,
          "duration": 0.181678,
          "velocity": 0.818898
        },
        {
          "time": 574.049379,
          "name": "B4",
          "midi": 71,
          "duration": 0.163142,
          "velocity": 0.88189
        },
        {
          "time": 574.055421,
          "name": "B4",
          "midi": 71,
          "duration": 0.163142,
          "velocity": 1
        },
        {
          "time": 574.227831,
          "name": "E5",
          "midi": 76,
          "duration": 0.547013,
          "velocity": 1
        },
        {
          "time": 574.231057,
          "name": "E5",
          "midi": 76,
          "duration": 0.546809,
          "velocity": 0.88189
        },
        {
          "time": 574.237508,
          "name": "E5",
          "midi": 76,
          "duration": 0.546399,
          "velocity": 1
        },
        {
          "time": 574.424605,
          "name": "D5",
          "midi": 74,
          "duration": 0.193139,
          "velocity": 0.818898
        },
        {
          "time": 574.424605,
          "name": "A4",
          "midi": 69,
          "duration": 0.193139,
          "velocity": 0.818898
        },
        {
          "time": 574.795992,
          "name": "A4",
          "midi": 69,
          "duration": 0.163142,
          "velocity": 1
        },
        {
          "time": 574.799014,
          "name": "D5",
          "midi": 74,
          "duration": 0.181678,
          "velocity": 0.818898
        },
        {
          "time": 574.799014,
          "name": "A4",
          "midi": 69,
          "duration": 0.181678,
          "velocity": 0.818898
        },
        {
          "time": 574.799014,
          "name": "A4",
          "midi": 69,
          "duration": 0.163142,
          "velocity": 0.88189
        },
        {
          "time": 574.805056,
          "name": "A4",
          "midi": 69,
          "duration": 0.163142,
          "velocity": 1
        },
        {
          "time": 574.977466,
          "name": "D5",
          "midi": 74,
          "duration": 0.547013,
          "velocity": 1
        },
        {
          "time": 574.980692,
          "name": "D5",
          "midi": 74,
          "duration": 0.546809,
          "velocity": 0.88189
        },
        {
          "time": 574.987143,
          "name": "D5",
          "midi": 74,
          "duration": 0.546399,
          "velocity": 1
        },
        {
          "time": 575.17424,
          "name": "D5",
          "midi": 74,
          "duration": 0.193139,
          "velocity": 0.818898
        },
        {
          "time": 575.17424,
          "name": "G4",
          "midi": 67,
          "duration": 0.193139,
          "velocity": 0.818898
        },
        {
          "time": 575.545627,
          "name": "F#4",
          "midi": 66,
          "duration": 0.163142,
          "velocity": 1
        },
        {
          "time": 575.548649,
          "name": "D5",
          "midi": 74,
          "duration": 0.181678,
          "velocity": 0.818898
        },
        {
          "time": 575.548649,
          "name": "B4",
          "midi": 71,
          "duration": 0.181678,
          "velocity": 0.818898
        },
        {
          "time": 575.548649,
          "name": "F#4",
          "midi": 66,
          "duration": 0.163142,
          "velocity": 0.88189
        },
        {
          "time": 575.554691,
          "name": "F#4",
          "midi": 66,
          "duration": 0.163142,
          "velocity": 1
        },
        {
          "time": 575.727101,
          "name": "A4",
          "midi": 69,
          "duration": 0.05,
          "velocity": 1
        },
        {
          "time": 575.730327,
          "name": "A4",
          "midi": 69,
          "duration": 0.05,
          "velocity": 0.88189
        },
        {
          "time": 575.736778,
          "name": "A4",
          "midi": 69,
          "duration": 0.05,
          "velocity": 1
        },
        {
          "time": 575.775488,
          "name": "G4",
          "midi": 67,
          "duration": 0.132258,
          "velocity": 1
        },
        {
          "time": 575.778714,
          "name": "G4",
          "midi": 67,
          "duration": 0.132258,
          "velocity": 0.88189
        },
        {
          "time": 575.785166,
          "name": "G4",
          "midi": 67,
          "duration": 0.132258,
          "velocity": 1
        },
        {
          "time": 575.92065,
          "name": "F#4",
          "midi": 66,
          "duration": 0.174194,
          "velocity": 1
        },
        {
          "time": 575.923875,
          "name": "D5",
          "midi": 74,
          "duration": 0.193139,
          "velocity": 0.818898
        },
        {
          "time": 575.923875,
          "name": "B4",
          "midi": 71,
          "duration": 0.193139,
          "velocity": 0.818898
        },
        {
          "time": 575.923875,
          "name": "F#4",
          "midi": 66,
          "duration": 0.174194,
          "velocity": 0.88189
        },
        {
          "time": 575.930327,
          "name": "F#4",
          "midi": 66,
          "duration": 0.174194,
          "velocity": 1
        },
        {
          "time": 576.113993,
          "name": "G4",
          "midi": 67,
          "duration": 0.163142,
          "velocity": 1
        },
        {
          "time": 576.117015,
          "name": "G4",
          "midi": 67,
          "duration": 0.163142,
          "velocity": 0.88189
        },
        {
          "time": 576.123057,
          "name": "G4",
          "midi": 67,
          "duration": 0.163142,
          "velocity": 1
        },
        {
          "time": 576.295262,
          "name": "B4",
          "midi": 71,
          "duration": 0.163142,
          "velocity": 1
        },
        {
          "time": 576.298284,
          "name": "D5",
          "midi": 74,
          "duration": 0.181678,
          "velocity": 0.818898
        },
        {
          "time": 576.298284,
          "name": "G4",
          "midi": 67,
          "duration": 0.181678,
          "velocity": 0.818898
        },
        {
          "time": 576.298284,
          "name": "B4",
          "midi": 71,
          "duration": 0.163142,
          "velocity": 0.88189
        },
        {
          "time": 576.304326,
          "name": "B4",
          "midi": 71,
          "duration": 0.163142,
          "velocity": 1
        },
        {
          "time": 576.476736,
          "name": "C#5",
          "midi": 73,
          "duration": 0.547013,
          "velocity": 1
        },
        {
          "time": 576.479962,
          "name": "C#5",
          "midi": 73,
          "duration": 0.546809,
          "velocity": 0.88189
        },
        {
          "time": 576.486413,
          "name": "C#5",
          "midi": 73,
          "duration": 0.546399,
          "velocity": 1
        },
        {
          "time": 576.67351,
          "name": "E5",
          "midi": 76,
          "duration": 0.193139,
          "velocity": 0.818898
        },
        {
          "time": 576.67351,
          "name": "C#5",
          "midi": 73,
          "duration": 0.193139,
          "velocity": 0.818898
        },
        {
          "time": 577.044897,
          "name": "B4",
          "midi": 71,
          "duration": 0.163142,
          "velocity": 1
        },
        {
          "time": 577.047919,
          "name": "E5",
          "midi": 76,
          "duration": 0.181678,
          "velocity": 0.818898
        },
        {
          "time": 577.047919,
          "name": "C#5",
          "midi": 73,
          "duration": 0.181678,
          "velocity": 0.818898
        },
        {
          "time": 577.047919,
          "name": "B5",
          "midi": 83,
          "duration": 0.163142,
          "velocity": 0.88189
        },
        {
          "time": 577.053961,
          "name": "B4",
          "midi": 71,
          "duration": 0.163142,
          "velocity": 1
        },
        {
          "time": 577.226371,
          "name": "A4",
          "midi": 69,
          "duration": 0.174194,
          "velocity": 1
        },
        {
          "time": 577.229597,
          "name": "A5",
          "midi": 81,
          "duration": 0.174194,
          "velocity": 0.88189
        },
        {
          "time": 577.236048,
          "name": "A4",
          "midi": 69,
          "duration": 0.174194,
          "velocity": 1
        },
        {
          "time": 577.41992,
          "name": "G4",
          "midi": 67,
          "duration": 0.174194,
          "velocity": 1
        },
        {
          "time": 577.423145,
          "name": "E5",
          "midi": 76,
          "duration": 0.193139,
          "velocity": 0.818898
        },
        {
          "time": 577.423145,
          "name": "C#5",
          "midi": 73,
          "duration": 0.193139,
          "velocity": 0.818898
        },
        {
          "time": 577.423145,
          "name": "G5",
          "midi": 79,
          "duration": 0.174194,
          "velocity": 0.88189
        },
        {
          "time": 577.429597,
          "name": "G4",
          "midi": 67,
          "duration": 0.174194,
          "velocity": 1
        },
        {
          "time": 577.613263,
          "name": "F#4",
          "midi": 66,
          "duration": 0.163142,
          "velocity": 1
        },
        {
          "time": 577.616285,
          "name": "F#5",
          "midi": 78,
          "duration": 0.163142,
          "velocity": 0.88189
        },
        {
          "time": 577.622327,
          "name": "F#4",
          "midi": 66,
          "duration": 0.163142,
          "velocity": 1
        },
        {
          "time": 577.794532,
          "name": "E4",
          "midi": 64,
          "duration": 0.163142,
          "velocity": 1
        },
        {
          "time": 577.797554,
          "name": "G4",
          "midi": 67,
          "duration": 0.181678,
          "velocity": 0.818898
        },
        {
          "time": 577.797554,
          "name": "C#5",
          "midi": 73,
          "duration": 0.181678,
          "velocity": 0.818898
        },
        {
          "time": 577.797554,
          "name": "E5",
          "midi": 76,
          "duration": 0.163142,
          "velocity": 0.88189
        },
        {
          "time": 577.803596,
          "name": "E4",
          "midi": 64,
          "duration": 0.163142,
          "velocity": 1
        },
        {
          "time": 577.976006,
          "name": "D4",
          "midi": 62,
          "duration": 0.174194,
          "velocity": 1
        },
        {
          "time": 577.979232,
          "name": "D5",
          "midi": 74,
          "duration": 0.174194,
          "velocity": 0.88189
        },
        {
          "time": 577.985683,
          "name": "D4",
          "midi": 62,
          "duration": 0.174194,
          "velocity": 1
        },
        {
          "time": 578.169555,
          "name": "D4",
          "midi": 62,
          "duration": 0.174194,
          "velocity": 1
        },
        {
          "time": 578.17278,
          "name": "F#4",
          "midi": 66,
          "duration": 0.193139,
          "velocity": 0.818898
        },
        {
          "time": 578.17278,
          "name": "D5",
          "midi": 74,
          "duration": 0.193139,
          "velocity": 0.818898
        },
        {
          "time": 578.17278,
          "name": "D5",
          "midi": 74,
          "duration": 0.174194,
          "velocity": 0.88189
        },
        {
          "time": 578.179232,
          "name": "D4",
          "midi": 62,
          "duration": 0.174194,
          "velocity": 1
        },
        {
          "time": 578.362898,
          "name": "F#4",
          "midi": 66,
          "duration": 0.163142,
          "velocity": 1
        },
        {
          "time": 578.36592,
          "name": "F#5",
          "midi": 78,
          "duration": 0.163142,
          "velocity": 0.88189
        },
        {
          "time": 578.371962,
          "name": "F#4",
          "midi": 66,
          "duration": 0.163142,
          "velocity": 1
        },
        {
          "time": 578.544167,
          "name": "A4",
          "midi": 69,
          "duration": 0.163142,
          "velocity": 1
        },
        {
          "time": 578.547189,
          "name": "F#5",
          "midi": 78,
          "duration": 0.181678,
          "velocity": 0.818898
        },
        {
          "time": 578.547189,
          "name": "D5",
          "midi": 74,
          "duration": 0.181678,
          "velocity": 0.818898
        },
        {
          "time": 578.547189,
          "name": "A5",
          "midi": 81,
          "duration": 0.163142,
          "velocity": 0.88189
        },
        {
          "time": 578.553231,
          "name": "A4",
          "midi": 69,
          "duration": 0.163142,
          "velocity": 1
        },
        {
          "time": 578.725641,
          "name": "D5",
          "midi": 74,
          "duration": 0.174194,
          "velocity": 1
        },
        {
          "time": 578.728867,
          "name": "A5",
          "midi": 81,
          "duration": 0.193548,
          "velocity": 0.818898
        },
        {
          "time": 578.728867,
          "name": "F#5",
          "midi": 78,
          "duration": 0.193548,
          "velocity": 0.818898
        },
        {
          "time": 578.728867,
          "name": "D5",
          "midi": 74,
          "duration": 0.174194,
          "velocity": 0.88189
        },
        {
          "time": 578.735318,
          "name": "D5",
          "midi": 74,
          "duration": 0.174194,
          "velocity": 1
        },
        {
          "time": 578.922415,
          "name": "D5",
          "midi": 74,
          "duration": 0.174194,
          "velocity": 0.88189
        },
        {
          "time": 579.115555,
          "name": "D4",
          "midi": 62,
          "duration": 0.163142,
          "velocity": 0.88189
        },
        {
          "time": 579.296824,
          "name": "F#4",
          "midi": 66,
          "duration": 0.181678,
          "velocity": 0.818898
        },
        {
          "time": 579.296824,
          "name": "A4",
          "midi": 69,
          "duration": 0.181678,
          "velocity": 0.818898
        },
        {
          "time": 579.478502,
          "name": "A4",
          "midi": 69,
          "duration": 0.567957,
          "velocity": 0.818898
        },
        {
          "time": 579.478502,
          "name": "C5",
          "midi": 72,
          "duration": 0.567957,
          "velocity": 0.818898
        },
        {
          "time": 579.678502,
          "name": "F#4",
          "midi": 66,
          "duration": 0.19273,
          "velocity": 0.92126
        },
        {
          "time": 579.678502,
          "name": "A4",
          "midi": 69,
          "duration": 0.19273,
          "velocity": 0.92126
        },
        {
          "time": 579.86519,
          "name": "D4",
          "midi": 62,
          "duration": 0.181269,
          "velocity": 0.88189
        },
        {
          "time": 579.871232,
          "name": "C5",
          "midi": 72,
          "duration": 0.363357,
          "velocity": 0.92126
        },
        {
          "time": 579.871232,
          "name": "A4",
          "midi": 69,
          "duration": 0.363357,
          "velocity": 0.92126
        },
        {
          "time": 580.046459,
          "name": "F#4",
          "midi": 66,
          "duration": 0.181678,
          "velocity": 0.818898
        },
        {
          "time": 580.046459,
          "name": "D4",
          "midi": 62,
          "duration": 0.181678,
          "velocity": 0.818898
        },
        {
          "time": 580.046459,
          "name": "D5",
          "midi": 74,
          "duration": 0.181678,
          "velocity": 0.88189
        },
        {
          "time": 580.228137,
          "name": "G#4",
          "midi": 68,
          "duration": 0.567957,
          "velocity": 0.818898
        },
        {
          "time": 580.228137,
          "name": "F4",
          "midi": 65,
          "duration": 0.567957,
          "velocity": 0.818898
        },
        {
          "time": 580.428137,
          "name": "G#4",
          "midi": 68,
          "duration": 0.19273,
          "velocity": 0.92126
        },
        {
          "time": 580.428137,
          "name": "F4",
          "midi": 65,
          "duration": 0.19273,
          "velocity": 0.92126
        },
        {
          "time": 580.614825,
          "name": "D4",
          "midi": 62,
          "duration": 0.181269,
          "velocity": 0.88189
        },
        {
          "time": 580.620867,
          "name": "B4",
          "midi": 71,
          "duration": 0.363357,
          "velocity": 0.92126
        },
        {
          "time": 580.620867,
          "name": "G#4",
          "midi": 68,
          "duration": 0.363357,
          "velocity": 0.92126
        },
        {
          "time": 580.796094,
          "name": "F4",
          "midi": 65,
          "duration": 0.181678,
          "velocity": 0.818898
        },
        {
          "time": 580.796094,
          "name": "D4",
          "midi": 62,
          "duration": 0.181678,
          "velocity": 0.818898
        },
        {
          "time": 580.796094,
          "name": "D5",
          "midi": 74,
          "duration": 0.181678,
          "velocity": 0.88189
        },
        {
          "time": 580.977772,
          "name": "A4",
          "midi": 69,
          "duration": 0.567957,
          "velocity": 0.818898
        },
        {
          "time": 580.977772,
          "name": "F#4",
          "midi": 66,
          "duration": 0.567957,
          "velocity": 0.818898
        },
        {
          "time": 581.177772,
          "name": "A4",
          "midi": 69,
          "duration": 0.19273,
          "velocity": 0.92126
        },
        {
          "time": 581.177772,
          "name": "F#4",
          "midi": 66,
          "duration": 0.19273,
          "velocity": 0.92126
        },
        {
          "time": 581.36446,
          "name": "D4",
          "midi": 62,
          "duration": 0.181269,
          "velocity": 0.88189
        },
        {
          "time": 581.370502,
          "name": "C5",
          "midi": 72,
          "duration": 0.363357,
          "velocity": 0.92126
        },
        {
          "time": 581.370502,
          "name": "A4",
          "midi": 69,
          "duration": 0.363357,
          "velocity": 0.92126
        },
        {
          "time": 581.545729,
          "name": "F4",
          "midi": 65,
          "duration": 0.181678,
          "velocity": 0.818898
        },
        {
          "time": 581.545729,
          "name": "D4",
          "midi": 62,
          "duration": 0.181678,
          "velocity": 0.818898
        },
        {
          "time": 581.545729,
          "name": "D5",
          "midi": 74,
          "duration": 0.181678,
          "velocity": 0.88189
        },
        {
          "time": 581.727407,
          "name": "G4",
          "midi": 67,
          "duration": 0.05,
          "velocity": 0.818898
        },
        {
          "time": 581.775794,
          "name": "D4",
          "midi": 62,
          "duration": 0.087097,
          "velocity": 0.818898
        },
        {
          "time": 581.775794,
          "name": "F#4",
          "midi": 66,
          "duration": 0.087097,
          "velocity": 0.818898
        },
        {
          "time": 581.920955,
          "name": "G#4",
          "midi": 68,
          "duration": 0.145161,
          "velocity": 0.818898
        },
        {
          "time": 581.920955,
          "name": "F4",
          "midi": 65,
          "duration": 0.145161,
          "velocity": 0.818898
        },
        {
          "time": 582.114095,
          "name": "A4",
          "midi": 69,
          "duration": 0.135952,
          "velocity": 0.818898
        },
        {
          "time": 582.114095,
          "name": "F#4",
          "midi": 66,
          "duration": 0.135952,
          "velocity": 0.818898
        },
        {
          "time": 582.114095,
          "name": "D4",
          "midi": 62,
          "duration": 0.181269,
          "velocity": 0.88189
        },
        {
          "time": 582.295364,
          "name": "C5",
          "midi": 72,
          "duration": 0.135952,
          "velocity": 0.818898
        },
        {
          "time": 582.295364,
          "name": "A4",
          "midi": 69,
          "duration": 0.135952,
          "velocity": 0.818898
        },
        {
          "time": 582.295364,
          "name": "D5",
          "midi": 74,
          "duration": 0.181678,
          "velocity": 0.88189
        },
        {
          "time": 582.477042,
          "name": "E5",
          "midi": 76,
          "duration": 0.567957,
          "velocity": 0.818898
        },
        {
          "time": 582.477042,
          "name": "C5",
          "midi": 72,
          "duration": 0.567957,
          "velocity": 0.818898
        },
        {
          "time": 582.677042,
          "name": "C5",
          "midi": 72,
          "duration": 0.19273,
          "velocity": 0.92126
        },
        {
          "time": 582.677042,
          "name": "A4",
          "midi": 69,
          "duration": 0.19273,
          "velocity": 0.92126
        },
        {
          "time": 582.86373,
          "name": "D4",
          "midi": 62,
          "duration": 0.181269,
          "velocity": 0.88189
        },
        {
          "time": 582.869772,
          "name": "E5",
          "midi": 76,
          "duration": 0.181269,
          "velocity": 0.92126
        },
        {
          "time": 582.869772,
          "name": "C5",
          "midi": 72,
          "duration": 0.181269,
          "velocity": 0.92126
        },
        {
          "time": 583.044999,
          "name": "A4",
          "midi": 69,
          "duration": 0.181678,
          "velocity": 0.818898
        },
        {
          "time": 583.044999,
          "name": "F#4",
          "midi": 66,
          "duration": 0.181678,
          "velocity": 0.818898
        },
        {
          "time": 583.044999,
          "name": "D5",
          "midi": 74,
          "duration": 0.181678,
          "velocity": 0.88189
        },
        {
          "time": 583.226677,
          "name": "B4",
          "midi": 71,
          "duration": 0.567957,
          "velocity": 0.818898
        },
        {
          "time": 583.226677,
          "name": "G#4",
          "midi": 68,
          "duration": 0.567957,
          "velocity": 0.818898
        },
        {
          "time": 583.426677,
          "name": "B4",
          "midi": 71,
          "duration": 0.19273,
          "velocity": 0.92126
        },
        {
          "time": 583.426677,
          "name": "G#4",
          "midi": 68,
          "duration": 0.19273,
          "velocity": 0.92126
        },
        {
          "time": 583.613365,
          "name": "D4",
          "midi": 62,
          "duration": 0.181269,
          "velocity": 0.88189
        },
        {
          "time": 583.619407,
          "name": "D5",
          "midi": 74,
          "duration": 0.181269,
          "velocity": 0.92126
        },
        {
          "time": 583.619407,
          "name": "B4",
          "midi": 71,
          "duration": 0.181269,
          "velocity": 0.92126
        },
        {
          "time": 583.794634,
          "name": "A4",
          "midi": 69,
          "duration": 0.181678,
          "velocity": 0.818898
        },
        {
          "time": 583.794634,
          "name": "F#4",
          "midi": 66,
          "duration": 0.181678,
          "velocity": 0.818898
        },
        {
          "time": 583.794634,
          "name": "D5",
          "midi": 74,
          "duration": 0.181678,
          "velocity": 0.88189
        },
        {
          "time": 583.976312,
          "name": "C5",
          "midi": 72,
          "duration": 0.567957,
          "velocity": 0.818898
        },
        {
          "time": 583.976312,
          "name": "A4",
          "midi": 69,
          "duration": 0.567957,
          "velocity": 0.818898
        },
        {
          "time": 584.176312,
          "name": "A4",
          "midi": 69,
          "duration": 0.19273,
          "velocity": 0.92126
        },
        {
          "time": 584.176312,
          "name": "F#4",
          "midi": 66,
          "duration": 0.19273,
          "velocity": 0.92126
        },
        {
          "time": 584.363,
          "name": "D4",
          "midi": 62,
          "duration": 0.181269,
          "velocity": 0.88189
        },
        {
          "time": 584.369042,
          "name": "C5",
          "midi": 72,
          "duration": 0.181269,
          "velocity": 0.92126
        },
        {
          "time": 584.369042,
          "name": "A4",
          "midi": 69,
          "duration": 0.181269,
          "velocity": 0.92126
        },
        {
          "time": 584.544269,
          "name": "G#4",
          "midi": 68,
          "duration": 0.181678,
          "velocity": 0.818898
        },
        {
          "time": 584.544269,
          "name": "F4",
          "midi": 65,
          "duration": 0.181678,
          "velocity": 0.818898
        },
        {
          "time": 584.544269,
          "name": "D5",
          "midi": 74,
          "duration": 0.181678,
          "velocity": 0.88189
        },
        {
          "time": 584.725947,
          "name": "B4",
          "midi": 71,
          "duration": 0.05,
          "velocity": 0.818898
        },
        {
          "time": 584.774334,
          "name": "A4",
          "midi": 69,
          "duration": 0.087097,
          "velocity": 0.818898
        },
        {
          "time": 584.774334,
          "name": "F#4",
          "midi": 66,
          "duration": 0.087097,
          "velocity": 0.818898
        },
        {
          "time": 584.919495,
          "name": "F4",
          "midi": 65,
          "duration": 0.145161,
          "velocity": 0.818898
        },
        {
          "time": 584.919495,
          "name": "G#4",
          "midi": 68,
          "duration": 0.145161,
          "velocity": 0.818898
        },
        {
          "time": 585.112635,
          "name": "A4",
          "midi": 69,
          "duration": 0.135952,
          "velocity": 0.818898
        },
        {
          "time": 585.112635,
          "name": "F#4",
          "midi": 66,
          "duration": 0.135952,
          "velocity": 0.818898
        },
        {
          "time": 585.112635,
          "name": "D4",
          "midi": 62,
          "duration": 0.181269,
          "velocity": 0.88189
        },
        {
          "time": 585.293904,
          "name": "A4",
          "midi": 69,
          "duration": 0.135952,
          "velocity": 0.818898
        },
        {
          "time": 585.293904,
          "name": "F#4",
          "midi": 66,
          "duration": 0.135952,
          "velocity": 0.818898
        },
        {
          "time": 585.293904,
          "name": "D5",
          "midi": 74,
          "duration": 0.181678,
          "velocity": 0.88189
        },
        {
          "time": 585.475582,
          "name": "A4",
          "midi": 69,
          "duration": 0.567957,
          "velocity": 0.818898
        },
        {
          "time": 585.475582,
          "name": "C5",
          "midi": 72,
          "duration": 0.567957,
          "velocity": 0.818898
        },
        {
          "time": 585.675582,
          "name": "F#4",
          "midi": 66,
          "duration": 0.19273,
          "velocity": 0.92126
        },
        {
          "time": 585.675582,
          "name": "A4",
          "midi": 69,
          "duration": 0.19273,
          "velocity": 0.92126
        },
        {
          "time": 585.86227,
          "name": "D4",
          "midi": 62,
          "duration": 0.181269,
          "velocity": 0.88189
        },
        {
          "time": 585.868312,
          "name": "C5",
          "midi": 72,
          "duration": 0.363357,
          "velocity": 0.92126
        },
        {
          "time": 585.868312,
          "name": "A4",
          "midi": 69,
          "duration": 0.363357,
          "velocity": 0.92126
        },
        {
          "time": 586.043539,
          "name": "F#4",
          "midi": 66,
          "duration": 0.181678,
          "velocity": 0.818898
        },
        {
          "time": 586.043539,
          "name": "D4",
          "midi": 62,
          "duration": 0.181678,
          "velocity": 0.818898
        },
        {
          "time": 586.043539,
          "name": "D5",
          "midi": 74,
          "duration": 0.181678,
          "velocity": 0.88189
        },
        {
          "time": 586.225217,
          "name": "G#4",
          "midi": 68,
          "duration": 0.567957,
          "velocity": 0.818898
        },
        {
          "time": 586.225217,
          "name": "F4",
          "midi": 65,
          "duration": 0.567957,
          "velocity": 0.818898
        },
        {
          "time": 586.425217,
          "name": "G#4",
          "midi": 68,
          "duration": 0.19273,
          "velocity": 0.92126
        },
        {
          "time": 586.425217,
          "name": "F4",
          "midi": 65,
          "duration": 0.19273,
          "velocity": 0.92126
        },
        {
          "time": 586.611905,
          "name": "D4",
          "midi": 62,
          "duration": 0.181269,
          "velocity": 0.88189
        },
        {
          "time": 586.617947,
          "name": "B4",
          "midi": 71,
          "duration": 0.363357,
          "velocity": 0.92126
        },
        {
          "time": 586.617947,
          "name": "G#4",
          "midi": 68,
          "duration": 0.363357,
          "velocity": 0.92126
        },
        {
          "time": 586.793174,
          "name": "F4",
          "midi": 65,
          "duration": 0.181678,
          "velocity": 0.818898
        },
        {
          "time": 586.793174,
          "name": "D4",
          "midi": 62,
          "duration": 0.181678,
          "velocity": 0.818898
        },
        {
          "time": 586.793174,
          "name": "D5",
          "midi": 74,
          "duration": 0.181678,
          "velocity": 0.88189
        },
        {
          "time": 586.974852,
          "name": "A4",
          "midi": 69,
          "duration": 0.567957,
          "velocity": 0.818898
        },
        {
          "time": 586.974852,
          "name": "F#4",
          "midi": 66,
          "duration": 0.567957,
          "velocity": 0.818898
        },
        {
          "time": 587.174852,
          "name": "A4",
          "midi": 69,
          "duration": 0.19273,
          "velocity": 0.92126
        },
        {
          "time": 587.174852,
          "name": "F#4",
          "midi": 66,
          "duration": 0.19273,
          "velocity": 0.92126
        },
        {
          "time": 587.36154,
          "name": "D4",
          "midi": 62,
          "duration": 0.181269,
          "velocity": 0.88189
        },
        {
          "time": 587.367582,
          "name": "C5",
          "midi": 72,
          "duration": 0.363357,
          "velocity": 0.92126
        },
        {
          "time": 587.367582,
          "name": "A4",
          "midi": 69,
          "duration": 0.363357,
          "velocity": 0.92126
        },
        {
          "time": 587.542809,
          "name": "F4",
          "midi": 65,
          "duration": 0.181678,
          "velocity": 0.818898
        },
        {
          "time": 587.542809,
          "name": "D4",
          "midi": 62,
          "duration": 0.181678,
          "velocity": 0.818898
        },
        {
          "time": 587.542809,
          "name": "D5",
          "midi": 74,
          "duration": 0.181678,
          "velocity": 0.88189
        },
        {
          "time": 587.724487,
          "name": "G4",
          "midi": 67,
          "duration": 0.05,
          "velocity": 0.818898
        },
        {
          "time": 587.772874,
          "name": "D4",
          "midi": 62,
          "duration": 0.087097,
          "velocity": 0.818898
        },
        {
          "time": 587.772874,
          "name": "F#4",
          "midi": 66,
          "duration": 0.087097,
          "velocity": 0.818898
        },
        {
          "time": 587.918035,
          "name": "G#4",
          "midi": 68,
          "duration": 0.145161,
          "velocity": 0.818898
        },
        {
          "time": 587.918035,
          "name": "F4",
          "midi": 65,
          "duration": 0.145161,
          "velocity": 0.818898
        },
        {
          "time": 588.111175,
          "name": "A4",
          "midi": 69,
          "duration": 0.135952,
          "velocity": 0.818898
        },
        {
          "time": 588.111175,
          "name": "F#4",
          "midi": 66,
          "duration": 0.135952,
          "velocity": 0.818898
        },
        {
          "time": 588.111175,
          "name": "D4",
          "midi": 62,
          "duration": 0.181269,
          "velocity": 0.88189
        },
        {
          "time": 588.292444,
          "name": "C5",
          "midi": 72,
          "duration": 0.135952,
          "velocity": 0.818898
        },
        {
          "time": 588.292444,
          "name": "A4",
          "midi": 69,
          "duration": 0.135952,
          "velocity": 0.818898
        },
        {
          "time": 588.292444,
          "name": "D5",
          "midi": 74,
          "duration": 0.181678,
          "velocity": 0.88189
        },
        {
          "time": 588.474122,
          "name": "E5",
          "midi": 76,
          "duration": 0.567957,
          "velocity": 0.818898
        },
        {
          "time": 588.474122,
          "name": "C5",
          "midi": 72,
          "duration": 0.567957,
          "velocity": 0.818898
        },
        {
          "time": 588.674122,
          "name": "C5",
          "midi": 72,
          "duration": 0.19273,
          "velocity": 0.92126
        },
        {
          "time": 588.674122,
          "name": "A4",
          "midi": 69,
          "duration": 0.19273,
          "velocity": 0.92126
        },
        {
          "time": 588.86081,
          "name": "D4",
          "midi": 62,
          "duration": 0.181269,
          "velocity": 0.88189
        },
        {
          "time": 588.866852,
          "name": "E5",
          "midi": 76,
          "duration": 0.181269,
          "velocity": 0.92126
        },
        {
          "time": 588.866852,
          "name": "C5",
          "midi": 72,
          "duration": 0.181269,
          "velocity": 0.92126
        },
        {
          "time": 589.042079,
          "name": "A4",
          "midi": 69,
          "duration": 0.181678,
          "velocity": 0.818898
        },
        {
          "time": 589.042079,
          "name": "F#4",
          "midi": 66,
          "duration": 0.181678,
          "velocity": 0.818898
        },
        {
          "time": 589.042079,
          "name": "D5",
          "midi": 74,
          "duration": 0.181678,
          "velocity": 0.88189
        },
        {
          "time": 589.223757,
          "name": "B4",
          "midi": 71,
          "duration": 0.567957,
          "velocity": 0.818898
        },
        {
          "time": 589.223757,
          "name": "G#4",
          "midi": 68,
          "duration": 0.567957,
          "velocity": 0.818898
        },
        {
          "time": 589.423757,
          "name": "B4",
          "midi": 71,
          "duration": 0.19273,
          "velocity": 0.92126
        },
        {
          "time": 589.423757,
          "name": "G#4",
          "midi": 68,
          "duration": 0.19273,
          "velocity": 0.92126
        },
        {
          "time": 589.610445,
          "name": "D4",
          "midi": 62,
          "duration": 0.181269,
          "velocity": 0.88189
        },
        {
          "time": 589.616487,
          "name": "D5",
          "midi": 74,
          "duration": 0.181269,
          "velocity": 0.92126
        },
        {
          "time": 589.616487,
          "name": "B4",
          "midi": 71,
          "duration": 0.181269,
          "velocity": 0.92126
        },
        {
          "time": 589.791714,
          "name": "A4",
          "midi": 69,
          "duration": 0.181678,
          "velocity": 0.818898
        },
        {
          "time": 589.791714,
          "name": "F#4",
          "midi": 66,
          "duration": 0.181678,
          "velocity": 0.818898
        },
        {
          "time": 589.791714,
          "name": "D5",
          "midi": 74,
          "duration": 0.181678,
          "velocity": 0.88189
        },
        {
          "time": 589.973392,
          "name": "C5",
          "midi": 72,
          "duration": 0.567957,
          "velocity": 0.818898
        },
        {
          "time": 589.973392,
          "name": "A4",
          "midi": 69,
          "duration": 0.567957,
          "velocity": 0.818898
        },
        {
          "time": 590.173392,
          "name": "A4",
          "midi": 69,
          "duration": 0.19273,
          "velocity": 0.92126
        },
        {
          "time": 590.173392,
          "name": "F#4",
          "midi": 66,
          "duration": 0.19273,
          "velocity": 0.92126
        },
        {
          "time": 590.36008,
          "name": "D4",
          "midi": 62,
          "duration": 0.181269,
          "velocity": 0.88189
        },
        {
          "time": 590.366122,
          "name": "C5",
          "midi": 72,
          "duration": 0.181269,
          "velocity": 0.92126
        },
        {
          "time": 590.366122,
          "name": "A4",
          "midi": 69,
          "duration": 0.181269,
          "velocity": 0.92126
        },
        {
          "time": 590.541349,
          "name": "G#4",
          "midi": 68,
          "duration": 0.181678,
          "velocity": 0.818898
        },
        {
          "time": 590.541349,
          "name": "F4",
          "midi": 65,
          "duration": 0.181678,
          "velocity": 0.818898
        },
        {
          "time": 590.541349,
          "name": "D5",
          "midi": 74,
          "duration": 0.181678,
          "velocity": 0.88189
        },
        {
          "time": 590.723027,
          "name": "B4",
          "midi": 71,
          "duration": 0.05,
          "velocity": 0.818898
        },
        {
          "time": 590.771414,
          "name": "A4",
          "midi": 69,
          "duration": 0.087097,
          "velocity": 0.818898
        },
        {
          "time": 590.771414,
          "name": "F#4",
          "midi": 66,
          "duration": 0.087097,
          "velocity": 0.818898
        },
        {
          "time": 590.916575,
          "name": "F4",
          "midi": 65,
          "duration": 0.145161,
          "velocity": 0.818898
        },
        {
          "time": 590.916575,
          "name": "G#4",
          "midi": 68,
          "duration": 0.145161,
          "velocity": 0.818898
        },
        {
          "time": 591.109715,
          "name": "A4",
          "midi": 69,
          "duration": 0.135952,
          "velocity": 0.818898
        },
        {
          "time": 591.109715,
          "name": "F#4",
          "midi": 66,
          "duration": 0.135952,
          "velocity": 0.818898
        },
        {
          "time": 591.109715,
          "name": "D5",
          "midi": 74,
          "duration": 0.181269,
          "velocity": 0.88189
        },
        {
          "time": 591.290984,
          "name": "D4",
          "midi": 62,
          "duration": 0.135952,
          "velocity": 0.818898
        },
        {
          "time": 591.290984,
          "name": "F#4",
          "midi": 66,
          "duration": 0.135952,
          "velocity": 0.818898
        },
        {
          "time": 591.290984,
          "name": "D5",
          "midi": 74,
          "duration": 0.181678,
          "velocity": 0.88189
        },
        {
          "time": 591.472662,
          "name": "A4",
          "midi": 69,
          "duration": 0.193548,
          "velocity": 0.818898
        },
        {
          "time": 591.472662,
          "name": "F#4",
          "midi": 66,
          "duration": 0.193548,
          "velocity": 0.818898
        },
        {
          "time": 591.472662,
          "name": "F#5",
          "midi": 78,
          "duration": 0.193548,
          "velocity": 0.88189
        },
        {
          "time": 591.66621,
          "name": "A4",
          "midi": 69,
          "duration": 0.193139,
          "velocity": 0.818898
        },
        {
          "time": 591.66621,
          "name": "C5",
          "midi": 72,
          "duration": 0.193139,
          "velocity": 0.818898
        },
        {
          "time": 591.66621,
          "name": "A5",
          "midi": 81,
          "duration": 0.193139,
          "velocity": 0.88189
        },
        {
          "time": 591.85935,
          "name": "B4",
          "midi": 71,
          "duration": 0.181269,
          "velocity": 0.818898
        },
        {
          "time": 591.85935,
          "name": "G4",
          "midi": 67,
          "duration": 0.181269,
          "velocity": 0.818898
        },
        {
          "time": 591.85935,
          "name": "G5",
          "midi": 79,
          "duration": 0.181269,
          "velocity": 0.88189
        },
        {
          "time": 592.040619,
          "name": "B3",
          "midi": 59,
          "duration": 0.181678,
          "velocity": 0.818898
        },
        {
          "time": 592.040619,
          "name": "G4",
          "midi": 67,
          "duration": 0.181678,
          "velocity": 0.818898
        },
        {
          "time": 592.040619,
          "name": "B4",
          "midi": 71,
          "duration": 0.181678,
          "velocity": 0.88189
        },
        {
          "time": 592.222297,
          "name": "F#4",
          "midi": 66,
          "duration": 0.193548,
          "velocity": 0.818898
        },
        {
          "time": 592.222297,
          "name": "A3",
          "midi": 57,
          "duration": 0.193548,
          "velocity": 0.818898
        },
        {
          "time": 592.222297,
          "name": "A4",
          "midi": 69,
          "duration": 0.193548,
          "velocity": 0.88189
        },
        {
          "time": 592.415845,
          "name": "C4",
          "midi": 60,
          "duration": 0.193139,
          "velocity": 0.818898
        },
        {
          "time": 592.415845,
          "name": "A4",
          "midi": 69,
          "duration": 0.193139,
          "velocity": 0.818898
        },
        {
          "time": 592.415845,
          "name": "C5",
          "midi": 72,
          "duration": 0.193139,
          "velocity": 0.88189
        },
        {
          "time": 592.608985,
          "name": "G4",
          "midi": 67,
          "duration": 0.181269,
          "velocity": 0.818898
        },
        {
          "time": 592.608985,
          "name": "B3",
          "midi": 59,
          "duration": 0.181269,
          "velocity": 0.818898
        },
        {
          "time": 592.608985,
          "name": "B4",
          "midi": 71,
          "duration": 0.181269,
          "velocity": 0.88189
        },
        {
          "time": 592.790254,
          "name": "G3",
          "midi": 55,
          "duration": 0.181678,
          "velocity": 0.818898
        },
        {
          "time": 592.790254,
          "name": "E4",
          "midi": 64,
          "duration": 0.181678,
          "velocity": 0.818898
        },
        {
          "time": 592.790254,
          "name": "G4",
          "midi": 67,
          "duration": 0.181678,
          "velocity": 0.88189
        },
        {
          "time": 592.971932,
          "name": "D4",
          "midi": 62,
          "duration": 0.193548,
          "velocity": 0.818898
        },
        {
          "time": 592.971932,
          "name": "F#3",
          "midi": 54,
          "duration": 0.193548,
          "velocity": 0.818898
        },
        {
          "time": 592.971932,
          "name": "F#4",
          "midi": 66,
          "duration": 0.193548,
          "velocity": 0.88189
        },
        {
          "time": 593.16548,
          "name": "A3",
          "midi": 57,
          "duration": 0.193139,
          "velocity": 0.818898
        },
        {
          "time": 593.16548,
          "name": "F#4",
          "midi": 66,
          "duration": 0.193139,
          "velocity": 0.818898
        },
        {
          "time": 593.16548,
          "name": "A4",
          "midi": 69,
          "duration": 0.193139,
          "velocity": 0.88189
        },
        {
          "time": 593.35862,
          "name": "E4",
          "midi": 64,
          "duration": 0.181269,
          "velocity": 0.818898
        },
        {
          "time": 593.35862,
          "name": "G3",
          "midi": 55,
          "duration": 0.181269,
          "velocity": 0.818898
        },
        {
          "time": 593.35862,
          "name": "G4",
          "midi": 67,
          "duration": 0.181269,
          "velocity": 0.88189
        },
        {
          "time": 593.539889,
          "name": "B3",
          "midi": 59,
          "duration": 0.181678,
          "velocity": 0.818898
        },
        {
          "time": 593.539889,
          "name": "G4",
          "midi": 67,
          "duration": 0.181678,
          "velocity": 0.818898
        },
        {
          "time": 593.539889,
          "name": "B4",
          "midi": 71,
          "duration": 0.181678,
          "velocity": 0.88189
        },
        {
          "time": 593.721567,
          "name": "F#4",
          "midi": 66,
          "duration": 0.193548,
          "velocity": 0.818898
        },
        {
          "time": 593.721567,
          "name": "A3",
          "midi": 57,
          "duration": 0.193548,
          "velocity": 0.818898
        },
        {
          "time": 593.721567,
          "name": "A4",
          "midi": 69,
          "duration": 0.193548,
          "velocity": 0.88189
        },
        {
          "time": 593.915115,
          "name": "C4",
          "midi": 60,
          "duration": 0.193139,
          "velocity": 0.818898
        },
        {
          "time": 593.915115,
          "name": "A4",
          "midi": 69,
          "duration": 0.193139,
          "velocity": 0.818898
        },
        {
          "time": 593.915115,
          "name": "C5",
          "midi": 72,
          "duration": 0.193139,
          "velocity": 0.88189
        },
        {
          "time": 594.108255,
          "name": "G4",
          "midi": 67,
          "duration": 0.181269,
          "velocity": 0.818898
        },
        {
          "time": 594.108255,
          "name": "B3",
          "midi": 59,
          "duration": 0.181269,
          "velocity": 0.818898
        },
        {
          "time": 594.108255,
          "name": "B4",
          "midi": 71,
          "duration": 0.181269,
          "velocity": 0.88189
        },
        {
          "time": 594.289524,
          "name": "G4",
          "midi": 67,
          "duration": 0.181678,
          "velocity": 0.818898
        },
        {
          "time": 594.289524,
          "name": "B4",
          "midi": 71,
          "duration": 0.181678,
          "velocity": 0.818898
        },
        {
          "time": 594.289524,
          "name": "G5",
          "midi": 79,
          "duration": 0.181678,
          "velocity": 0.88189
        },
        {
          "time": 594.471202,
          "name": "A4",
          "midi": 69,
          "duration": 0.193548,
          "velocity": 0.818898
        },
        {
          "time": 594.471202,
          "name": "F#4",
          "midi": 66,
          "duration": 0.193548,
          "velocity": 0.818898
        },
        {
          "time": 594.471202,
          "name": "F#5",
          "midi": 78,
          "duration": 0.193548,
          "velocity": 0.88189
        },
        {
          "time": 594.66475,
          "name": "A4",
          "midi": 69,
          "duration": 0.193139,
          "velocity": 0.818898
        },
        {
          "time": 594.66475,
          "name": "C5",
          "midi": 72,
          "duration": 0.193139,
          "velocity": 0.818898
        },
        {
          "time": 594.66475,
          "name": "A5",
          "midi": 81,
          "duration": 0.193139,
          "velocity": 0.88189
        },
        {
          "time": 594.85789,
          "name": "B4",
          "midi": 71,
          "duration": 0.181269,
          "velocity": 0.818898
        },
        {
          "time": 594.85789,
          "name": "G4",
          "midi": 67,
          "duration": 0.181269,
          "velocity": 0.818898
        },
        {
          "time": 594.85789,
          "name": "G5",
          "midi": 79,
          "duration": 0.181269,
          "velocity": 0.88189
        },
        {
          "time": 595.039159,
          "name": "B3",
          "midi": 59,
          "duration": 0.181678,
          "velocity": 0.818898
        },
        {
          "time": 595.039159,
          "name": "G4",
          "midi": 67,
          "duration": 0.181678,
          "velocity": 0.818898
        },
        {
          "time": 595.039159,
          "name": "B4",
          "midi": 71,
          "duration": 0.181678,
          "velocity": 0.88189
        },
        {
          "time": 595.220837,
          "name": "F#4",
          "midi": 66,
          "duration": 0.193548,
          "velocity": 0.818898
        },
        {
          "time": 595.220837,
          "name": "A3",
          "midi": 57,
          "duration": 0.193548,
          "velocity": 0.818898
        },
        {
          "time": 595.220837,
          "name": "A4",
          "midi": 69,
          "duration": 0.193548,
          "velocity": 0.88189
        },
        {
          "time": 595.414385,
          "name": "C4",
          "midi": 60,
          "duration": 0.193139,
          "velocity": 0.818898
        },
        {
          "time": 595.414385,
          "name": "A4",
          "midi": 69,
          "duration": 0.193139,
          "velocity": 0.818898
        },
        {
          "time": 595.414385,
          "name": "C5",
          "midi": 72,
          "duration": 0.193139,
          "velocity": 0.88189
        },
        {
          "time": 595.607525,
          "name": "G4",
          "midi": 67,
          "duration": 0.181269,
          "velocity": 0.818898
        },
        {
          "time": 595.607525,
          "name": "B3",
          "midi": 59,
          "duration": 0.181269,
          "velocity": 0.818898
        },
        {
          "time": 595.607525,
          "name": "B4",
          "midi": 71,
          "duration": 0.181269,
          "velocity": 0.88189
        },
        {
          "time": 595.788794,
          "name": "G3",
          "midi": 55,
          "duration": 0.181678,
          "velocity": 0.818898
        },
        {
          "time": 595.788794,
          "name": "E4",
          "midi": 64,
          "duration": 0.181678,
          "velocity": 0.818898
        },
        {
          "time": 595.788794,
          "name": "G4",
          "midi": 67,
          "duration": 0.181678,
          "velocity": 0.88189
        },
        {
          "time": 595.970472,
          "name": "D4",
          "midi": 62,
          "duration": 0.193548,
          "velocity": 0.818898
        },
        {
          "time": 595.970472,
          "name": "F#3",
          "midi": 54,
          "duration": 0.193548,
          "velocity": 0.818898
        },
        {
          "time": 595.970472,
          "name": "F#4",
          "midi": 66,
          "duration": 0.193548,
          "velocity": 0.88189
        },
        {
          "time": 596.16402,
          "name": "D4",
          "midi": 62,
          "duration": 0.145161,
          "velocity": 0.818898
        },
        {
          "time": 596.16402,
          "name": "F#4",
          "midi": 66,
          "duration": 0.145161,
          "velocity": 0.818898
        },
        {
          "time": 596.35716,
          "name": "C4",
          "midi": 60,
          "duration": 0.135952,
          "velocity": 0.818898
        },
        {
          "time": 596.35716,
          "name": "E4",
          "midi": 64,
          "duration": 0.135952,
          "velocity": 0.818898
        },
        {
          "time": 596.538429,
          "name": "A3",
          "midi": 57,
          "duration": 0.135952,
          "velocity": 0.818898
        },
        {
          "time": 596.538429,
          "name": "C4",
          "midi": 60,
          "duration": 0.135952,
          "velocity": 0.818898
        },
        {
          "time": 596.720107,
          "name": "G#3",
          "midi": 56,
          "duration": 0.145161,
          "velocity": 0.818898
        },
        {
          "time": 596.720107,
          "name": "B3",
          "midi": 59,
          "duration": 0.145161,
          "velocity": 0.818898
        },
        {
          "time": 596.913655,
          "name": "B3",
          "midi": 59,
          "duration": 0.145161,
          "velocity": 0.818898
        },
        {
          "time": 596.913655,
          "name": "D4",
          "midi": 62,
          "duration": 0.145161,
          "velocity": 0.818898
        },
        {
          "time": 597.106795,
          "name": "A3",
          "midi": 57,
          "duration": 0.135952,
          "velocity": 0.818898
        },
        {
          "time": 597.106795,
          "name": "C4",
          "midi": 60,
          "duration": 0.135952,
          "velocity": 0.818898
        },
        {
          "time": 597.285042,
          "name": "D5",
          "midi": 74,
          "duration": 0.181474,
          "velocity": 1
        },
        {
          "time": 597.288064,
          "name": "F#3",
          "midi": 54,
          "duration": 0.135952,
          "velocity": 0.818898
        },
        {
          "time": 597.288064,
          "name": "A3",
          "midi": 57,
          "duration": 0.135952,
          "velocity": 0.818898
        },
        {
          "time": 597.288064,
          "name": "D5",
          "midi": 74,
          "duration": 0.181678,
          "velocity": 0.88189
        },
        {
          "time": 597.294106,
          "name": "D5",
          "midi": 74,
          "duration": 0.182088,
          "velocity": 1
        },
        {
          "time": 597.466516,
          "name": "G5",
          "midi": 79,
          "duration": 0.547013,
          "velocity": 1
        },
        {
          "time": 597.469742,
          "name": "G5",
          "midi": 79,
          "duration": 0.546809,
          "velocity": 0.88189
        },
        {
          "time": 597.476193,
          "name": "G5",
          "midi": 79,
          "duration": 0.546399,
          "velocity": 1
        },
        {
          "time": 597.66329,
          "name": "D5",
          "midi": 74,
          "duration": 0.193139,
          "velocity": 0.818898
        },
        {
          "time": 597.66329,
          "name": "G4",
          "midi": 67,
          "duration": 0.193139,
          "velocity": 0.818898
        },
        {
          "time": 598.034677,
          "name": "B4",
          "midi": 71,
          "duration": 0.163142,
          "velocity": 1
        },
        {
          "time": 598.037699,
          "name": "D5",
          "midi": 74,
          "duration": 0.181678,
          "velocity": 0.818898
        },
        {
          "time": 598.037699,
          "name": "G4",
          "midi": 67,
          "duration": 0.181678,
          "velocity": 0.818898
        },
        {
          "time": 598.037699,
          "name": "B4",
          "midi": 71,
          "duration": 0.163142,
          "velocity": 0.88189
        },
        {
          "time": 598.043741,
          "name": "B4",
          "midi": 71,
          "duration": 0.163142,
          "velocity": 1
        },
        {
          "time": 598.216151,
          "name": "E5",
          "midi": 76,
          "duration": 0.547013,
          "velocity": 1
        },
        {
          "time": 598.219377,
          "name": "E5",
          "midi": 76,
          "duration": 0.546809,
          "velocity": 0.88189
        },
        {
          "time": 598.225828,
          "name": "E5",
          "midi": 76,
          "duration": 0.546399,
          "velocity": 1
        },
        {
          "time": 598.412925,
          "name": "D5",
          "midi": 74,
          "duration": 0.193139,
          "velocity": 0.818898
        },
        {
          "time": 598.412925,
          "name": "A4",
          "midi": 69,
          "duration": 0.193139,
          "velocity": 0.818898
        },
        {
          "time": 598.784312,
          "name": "A4",
          "midi": 69,
          "duration": 0.163142,
          "velocity": 1
        },
        {
          "time": 598.787334,
          "name": "D5",
          "midi": 74,
          "duration": 0.181678,
          "velocity": 0.818898
        },
        {
          "time": 598.787334,
          "name": "A4",
          "midi": 69,
          "duration": 0.181678,
          "velocity": 0.818898
        },
        {
          "time": 598.787334,
          "name": "A4",
          "midi": 69,
          "duration": 0.163142,
          "velocity": 0.88189
        },
        {
          "time": 598.793376,
          "name": "A4",
          "midi": 69,
          "duration": 0.163142,
          "velocity": 1
        },
        {
          "time": 598.965786,
          "name": "D5",
          "midi": 74,
          "duration": 0.547013,
          "velocity": 1
        },
        {
          "time": 598.969012,
          "name": "D5",
          "midi": 74,
          "duration": 0.546809,
          "velocity": 0.88189
        },
        {
          "time": 598.975463,
          "name": "D5",
          "midi": 74,
          "duration": 0.546399,
          "velocity": 1
        },
        {
          "time": 599.16256,
          "name": "D5",
          "midi": 74,
          "duration": 0.193139,
          "velocity": 0.818898
        },
        {
          "time": 599.16256,
          "name": "G4",
          "midi": 67,
          "duration": 0.193139,
          "velocity": 0.818898
        },
        {
          "time": 599.533947,
          "name": "F#4",
          "midi": 66,
          "duration": 0.163142,
          "velocity": 1
        },
        {
          "time": 599.536969,
          "name": "D5",
          "midi": 74,
          "duration": 0.181678,
          "velocity": 0.818898
        },
        {
          "time": 599.536969,
          "name": "B4",
          "midi": 71,
          "duration": 0.181678,
          "velocity": 0.818898
        },
        {
          "time": 599.536969,
          "name": "F#4",
          "midi": 66,
          "duration": 0.163142,
          "velocity": 0.88189
        },
        {
          "time": 599.543011,
          "name": "F#4",
          "midi": 66,
          "duration": 0.163142,
          "velocity": 1
        },
        {
          "time": 599.715421,
          "name": "A4",
          "midi": 69,
          "duration": 0.05,
          "velocity": 1
        },
        {
          "time": 599.718647,
          "name": "A4",
          "midi": 69,
          "duration": 0.05,
          "velocity": 0.88189
        },
        {
          "time": 599.725098,
          "name": "A4",
          "midi": 69,
          "duration": 0.05,
          "velocity": 1
        },
        {
          "time": 599.763808,
          "name": "G4",
          "midi": 67,
          "duration": 0.132258,
          "velocity": 1
        },
        {
          "time": 599.767034,
          "name": "G4",
          "midi": 67,
          "duration": 0.132258,
          "velocity": 0.88189
        },
        {
          "time": 599.773486,
          "name": "G4",
          "midi": 67,
          "duration": 0.132258,
          "velocity": 1
        },
        {
          "time": 599.90897,
          "name": "F#4",
          "midi": 66,
          "duration": 0.174194,
          "velocity": 1
        },
        {
          "time": 599.912195,
          "name": "D5",
          "midi": 74,
          "duration": 0.193139,
          "velocity": 0.818898
        },
        {
          "time": 599.912195,
          "name": "B4",
          "midi": 71,
          "duration": 0.193139,
          "velocity": 0.818898
        },
        {
          "time": 599.912195,
          "name": "F#4",
          "midi": 66,
          "duration": 0.174194,
          "velocity": 0.88189
        },
        {
          "time": 599.918647,
          "name": "F#4",
          "midi": 66,
          "duration": 0.174194,
          "velocity": 1
        },
        {
          "time": 600.102313,
          "name": "G4",
          "midi": 67,
          "duration": 0.163142,
          "velocity": 1
        },
        {
          "time": 600.105335,
          "name": "G4",
          "midi": 67,
          "duration": 0.163142,
          "velocity": 0.88189
        },
        {
          "time": 600.111377,
          "name": "G4",
          "midi": 67,
          "duration": 0.163142,
          "velocity": 1
        },
        {
          "time": 600.283582,
          "name": "B4",
          "midi": 71,
          "duration": 0.163142,
          "velocity": 1
        },
        {
          "time": 600.286604,
          "name": "D5",
          "midi": 74,
          "duration": 0.181678,
          "velocity": 0.818898
        },
        {
          "time": 600.286604,
          "name": "G4",
          "midi": 67,
          "duration": 0.181678,
          "velocity": 0.818898
        },
        {
          "time": 600.286604,
          "name": "B4",
          "midi": 71,
          "duration": 0.163142,
          "velocity": 0.88189
        },
        {
          "time": 600.292646,
          "name": "B4",
          "midi": 71,
          "duration": 0.163142,
          "velocity": 1
        },
        {
          "time": 600.465056,
          "name": "E5",
          "midi": 76,
          "duration": 0.547013,
          "velocity": 1
        },
        {
          "time": 600.468282,
          "name": "E5",
          "midi": 76,
          "duration": 0.546809,
          "velocity": 0.88189
        },
        {
          "time": 600.474733,
          "name": "E5",
          "midi": 76,
          "duration": 0.546399,
          "velocity": 1
        },
        {
          "time": 600.66183,
          "name": "D5",
          "midi": 74,
          "duration": 0.193139,
          "velocity": 0.818898
        },
        {
          "time": 600.66183,
          "name": "F#4",
          "midi": 66,
          "duration": 0.193139,
          "velocity": 0.818898
        },
        {
          "time": 601.033217,
          "name": "G#4",
          "midi": 68,
          "duration": 0.163142,
          "velocity": 1
        },
        {
          "time": 601.036239,
          "name": "D5",
          "midi": 74,
          "duration": 0.181678,
          "velocity": 0.818898
        },
        {
          "time": 601.036239,
          "name": "F#4",
          "midi": 66,
          "duration": 0.181678,
          "velocity": 0.818898
        },
        {
          "time": 601.036239,
          "name": "G#4",
          "midi": 68,
          "duration": 0.163142,
          "velocity": 0.88189
        },
        {
          "time": 601.042281,
          "name": "G#4",
          "midi": 68,
          "duration": 0.163142,
          "velocity": 1
        },
        {
          "time": 601.214691,
          "name": "B4",
          "midi": 71,
          "duration": 0.05,
          "velocity": 1
        },
        {
          "time": 601.217917,
          "name": "B4",
          "midi": 71,
          "duration": 0.05,
          "velocity": 0.88189
        },
        {
          "time": 601.224368,
          "name": "B4",
          "midi": 71,
          "duration": 0.05,
          "velocity": 1
        },
        {
          "time": 601.263078,
          "name": "A4",
          "midi": 69,
          "duration": 0.132258,
          "velocity": 1
        },
        {
          "time": 601.266304,
          "name": "A4",
          "midi": 69,
          "duration": 0.132258,
          "velocity": 0.88189
        },
        {
          "time": 601.272756,
          "name": "A4",
          "midi": 69,
          "duration": 0.132258,
          "velocity": 1
        },
        {
          "time": 601.40824,
          "name": "G#4",
          "midi": 68,
          "duration": 0.174194,
          "velocity": 1
        },
        {
          "time": 601.411465,
          "name": "D5",
          "midi": 74,
          "duration": 0.193139,
          "velocity": 0.818898
        },
        {
          "time": 601.411465,
          "name": "F#4",
          "midi": 66,
          "duration": 0.193139,
          "velocity": 0.818898
        },
        {
          "time": 601.411465,
          "name": "G#4",
          "midi": 68,
          "duration": 0.174194,
          "velocity": 0.88189
        },
        {
          "time": 601.417917,
          "name": "G#4",
          "midi": 68,
          "duration": 0.174194,
          "velocity": 1
        },
        {
          "time": 601.601583,
          "name": "A4",
          "midi": 69,
          "duration": 0.163142,
          "velocity": 1
        },
        {
          "time": 601.604605,
          "name": "A4",
          "midi": 69,
          "duration": 0.163142,
          "velocity": 0.88189
        },
        {
          "time": 601.610647,
          "name": "A4",
          "midi": 69,
          "duration": 0.163142,
          "velocity": 1
        },
        {
          "time": 601.782852,
          "name": "F#5",
          "midi": 78,
          "duration": 0.163142,
          "velocity": 1
        },
        {
          "time": 601.785874,
          "name": "D5",
          "midi": 74,
          "duration": 0.181678,
          "velocity": 0.818898
        },
        {
          "time": 601.785874,
          "name": "F#4",
          "midi": 66,
          "duration": 0.181678,
          "velocity": 0.818898
        },
        {
          "time": 601.785874,
          "name": "F#5",
          "midi": 78,
          "duration": 0.163142,
          "velocity": 0.88189
        },
        {
          "time": 601.791916,
          "name": "F#5",
          "midi": 78,
          "duration": 0.163142,
          "velocity": 1
        },
        {
          "time": 601.964326,
          "name": "E5",
          "midi": 76,
          "duration": 0.547013,
          "velocity": 1
        },
        {
          "time": 601.967552,
          "name": "E5",
          "midi": 76,
          "duration": 0.546809,
          "velocity": 0.88189
        },
        {
          "time": 601.974003,
          "name": "E5",
          "midi": 76,
          "duration": 0.546399,
          "velocity": 1
        },
        {
          "time": 602.1611,
          "name": "D5",
          "midi": 74,
          "duration": 0.193139,
          "velocity": 0.818898
        },
        {
          "time": 602.1611,
          "name": "G4",
          "midi": 67,
          "duration": 0.193139,
          "velocity": 0.818898
        },
        {
          "time": 602.532487,
          "name": "A#4",
          "midi": 70,
          "duration": 0.163142,
          "velocity": 1
        },
        {
          "time": 602.535509,
          "name": "E5",
          "midi": 76,
          "duration": 0.181678,
          "velocity": 0.818898
        },
        {
          "time": 602.535509,
          "name": "G4",
          "midi": 67,
          "duration": 0.181678,
          "velocity": 0.818898
        },
        {
          "time": 602.535509,
          "name": "A#4",
          "midi": 70,
          "duration": 0.163142,
          "velocity": 0.88189
        },
        {
          "time": 602.541551,
          "name": "A#4",
          "midi": 70,
          "duration": 0.163142,
          "velocity": 1
        },
        {
          "time": 602.713961,
          "name": "C5",
          "midi": 72,
          "duration": 0.05,
          "velocity": 1
        },
        {
          "time": 602.717187,
          "name": "C5",
          "midi": 72,
          "duration": 0.05,
          "velocity": 0.88189
        },
        {
          "time": 602.723638,
          "name": "C5",
          "midi": 72,
          "duration": 0.05,
          "velocity": 1
        },
        {
          "time": 602.762348,
          "name": "B4",
          "midi": 71,
          "duration": 0.132258,
          "velocity": 1
        },
        {
          "time": 602.765574,
          "name": "B4",
          "midi": 71,
          "duration": 0.132258,
          "velocity": 0.88189
        },
        {
          "time": 602.772026,
          "name": "B4",
          "midi": 71,
          "duration": 0.132258,
          "velocity": 1
        },
        {
          "time": 602.90751,
          "name": "A#4",
          "midi": 70,
          "duration": 0.174194,
          "velocity": 1
        },
        {
          "time": 602.910735,
          "name": "D5",
          "midi": 74,
          "duration": 0.193139,
          "velocity": 0.818898
        },
        {
          "time": 602.910735,
          "name": "G4",
          "midi": 67,
          "duration": 0.193139,
          "velocity": 0.818898
        },
        {
          "time": 602.910735,
          "name": "A#4",
          "midi": 70,
          "duration": 0.174194,
          "velocity": 0.88189
        },
        {
          "time": 602.917187,
          "name": "A#4",
          "midi": 70,
          "duration": 0.174194,
          "velocity": 1
        },
        {
          "time": 603.100853,
          "name": "B4",
          "midi": 71,
          "duration": 0.163142,
          "velocity": 1
        },
        {
          "time": 603.103875,
          "name": "B4",
          "midi": 71,
          "duration": 0.163142,
          "velocity": 0.88189
        },
        {
          "time": 603.109917,
          "name": "B4",
          "midi": 71,
          "duration": 0.163142,
          "velocity": 1
        },
        {
          "time": 603.285144,
          "name": "B4",
          "midi": 71,
          "duration": 0.181678,
          "velocity": 0.818898
        },
        {
          "time": 603.285144,
          "name": "G4",
          "midi": 67,
          "duration": 0.181678,
          "velocity": 0.818898
        },
        {
          "time": 603.285144,
          "name": "D5",
          "midi": 74,
          "duration": 0.163142,
          "velocity": 0.88189
        },
        {
          "time": 603.463596,
          "name": "G5",
          "midi": 79,
          "duration": 0.547013,
          "velocity": 1
        },
        {
          "time": 603.466822,
          "name": "G5",
          "midi": 79,
          "duration": 0.546809,
          "velocity": 0.88189
        },
        {
          "time": 603.473273,
          "name": "G5",
          "midi": 79,
          "duration": 0.546399,
          "velocity": 1
        },
        {
          "time": 603.66037,
          "name": "D5",
          "midi": 74,
          "duration": 0.193139,
          "velocity": 0.818898
        },
        {
          "time": 603.66037,
          "name": "G4",
          "midi": 67,
          "duration": 0.193139,
          "velocity": 0.818898
        },
        {
          "time": 604.031757,
          "name": "B4",
          "midi": 71,
          "duration": 0.163142,
          "velocity": 1
        },
        {
          "time": 604.034779,
          "name": "D5",
          "midi": 74,
          "duration": 0.181678,
          "velocity": 0.818898
        },
        {
          "time": 604.034779,
          "name": "G4",
          "midi": 67,
          "duration": 0.181678,
          "velocity": 0.818898
        },
        {
          "time": 604.034779,
          "name": "B4",
          "midi": 71,
          "duration": 0.163142,
          "velocity": 0.88189
        },
        {
          "time": 604.040821,
          "name": "B4",
          "midi": 71,
          "duration": 0.163142,
          "velocity": 1
        },
        {
          "time": 604.213231,
          "name": "E5",
          "midi": 76,
          "duration": 0.547013,
          "velocity": 1
        },
        {
          "time": 604.216457,
          "name": "E5",
          "midi": 76,
          "duration": 0.546809,
          "velocity": 0.88189
        },
        {
          "time": 604.222908,
          "name": "E5",
          "midi": 76,
          "duration": 0.546399,
          "velocity": 1
        },
        {
          "time": 604.410005,
          "name": "D5",
          "midi": 74,
          "duration": 0.193139,
          "velocity": 0.818898
        },
        {
          "time": 604.410005,
          "name": "A4",
          "midi": 69,
          "duration": 0.193139,
          "velocity": 0.818898
        },
        {
          "time": 604.781392,
          "name": "A4",
          "midi": 69,
          "duration": 0.163142,
          "velocity": 1
        },
        {
          "time": 604.784414,
          "name": "D5",
          "midi": 74,
          "duration": 0.181678,
          "velocity": 0.818898
        },
        {
          "time": 604.784414,
          "name": "A4",
          "midi": 69,
          "duration": 0.181678,
          "velocity": 0.818898
        },
        {
          "time": 604.784414,
          "name": "A4",
          "midi": 69,
          "duration": 0.163142,
          "velocity": 0.88189
        },
        {
          "time": 604.790456,
          "name": "A4",
          "midi": 69,
          "duration": 0.163142,
          "velocity": 1
        },
        {
          "time": 604.962866,
          "name": "D5",
          "midi": 74,
          "duration": 0.547013,
          "velocity": 1
        },
        {
          "time": 604.966092,
          "name": "D5",
          "midi": 74,
          "duration": 0.546809,
          "velocity": 0.88189
        },
        {
          "time": 604.972543,
          "name": "D5",
          "midi": 74,
          "duration": 0.546399,
          "velocity": 1
        },
        {
          "time": 605.15964,
          "name": "D5",
          "midi": 74,
          "duration": 0.193139,
          "velocity": 0.818898
        },
        {
          "time": 605.15964,
          "name": "G4",
          "midi": 67,
          "duration": 0.193139,
          "velocity": 0.818898
        },
        {
          "time": 605.531027,
          "name": "F#4",
          "midi": 66,
          "duration": 0.163142,
          "velocity": 1
        },
        {
          "time": 605.534049,
          "name": "D5",
          "midi": 74,
          "duration": 0.181678,
          "velocity": 0.818898
        },
        {
          "time": 605.534049,
          "name": "B4",
          "midi": 71,
          "duration": 0.181678,
          "velocity": 0.818898
        },
        {
          "time": 605.534049,
          "name": "F#4",
          "midi": 66,
          "duration": 0.163142,
          "velocity": 0.88189
        },
        {
          "time": 605.540091,
          "name": "F#4",
          "midi": 66,
          "duration": 0.163142,
          "velocity": 1
        },
        {
          "time": 605.712501,
          "name": "A4",
          "midi": 69,
          "duration": 0.05,
          "velocity": 1
        },
        {
          "time": 605.715727,
          "name": "A4",
          "midi": 69,
          "duration": 0.05,
          "velocity": 0.88189
        },
        {
          "time": 605.722178,
          "name": "A4",
          "midi": 69,
          "duration": 0.05,
          "velocity": 1
        },
        {
          "time": 605.760888,
          "name": "G4",
          "midi": 67,
          "duration": 0.132258,
          "velocity": 1
        },
        {
          "time": 605.764114,
          "name": "G4",
          "midi": 67,
          "duration": 0.132258,
          "velocity": 0.88189
        },
        {
          "time": 605.770566,
          "name": "G4",
          "midi": 67,
          "duration": 0.132258,
          "velocity": 1
        },
        {
          "time": 605.90605,
          "name": "F#4",
          "midi": 66,
          "duration": 0.174194,
          "velocity": 1
        },
        {
          "time": 605.909275,
          "name": "D5",
          "midi": 74,
          "duration": 0.193139,
          "velocity": 0.818898
        },
        {
          "time": 605.909275,
          "name": "B4",
          "midi": 71,
          "duration": 0.193139,
          "velocity": 0.818898
        },
        {
          "time": 605.909275,
          "name": "F#4",
          "midi": 66,
          "duration": 0.174194,
          "velocity": 0.88189
        },
        {
          "time": 605.915727,
          "name": "F#4",
          "midi": 66,
          "duration": 0.174194,
          "velocity": 1
        },
        {
          "time": 606.099393,
          "name": "G4",
          "midi": 67,
          "duration": 0.163142,
          "velocity": 1
        },
        {
          "time": 606.102415,
          "name": "G4",
          "midi": 67,
          "duration": 0.163142,
          "velocity": 0.88189
        },
        {
          "time": 606.108457,
          "name": "G4",
          "midi": 67,
          "duration": 0.163142,
          "velocity": 1
        },
        {
          "time": 606.280662,
          "name": "B4",
          "midi": 71,
          "duration": 0.163142,
          "velocity": 1
        },
        {
          "time": 606.283684,
          "name": "D5",
          "midi": 74,
          "duration": 0.181678,
          "velocity": 0.818898
        },
        {
          "time": 606.283684,
          "name": "G4",
          "midi": 67,
          "duration": 0.181678,
          "velocity": 0.818898
        },
        {
          "time": 606.283684,
          "name": "B4",
          "midi": 71,
          "duration": 0.163142,
          "velocity": 0.88189
        },
        {
          "time": 606.289726,
          "name": "B4",
          "midi": 71,
          "duration": 0.163142,
          "velocity": 1
        },
        {
          "time": 606.462136,
          "name": "E5",
          "midi": 76,
          "duration": 0.547013,
          "velocity": 1
        },
        {
          "time": 606.465362,
          "name": "E5",
          "midi": 76,
          "duration": 0.546809,
          "velocity": 0.88189
        },
        {
          "time": 606.471813,
          "name": "E5",
          "midi": 76,
          "duration": 0.546399,
          "velocity": 1
        },
        {
          "time": 606.65891,
          "name": "A4",
          "midi": 69,
          "duration": 0.193139,
          "velocity": 0.818898
        },
        {
          "time": 606.65891,
          "name": "G4",
          "midi": 67,
          "duration": 0.193139,
          "velocity": 0.818898
        },
        {
          "time": 607.030297,
          "name": "A4",
          "midi": 69,
          "duration": 0.163142,
          "velocity": 1
        },
        {
          "time": 607.033319,
          "name": "A4",
          "midi": 69,
          "duration": 0.181678,
          "velocity": 0.818898
        },
        {
          "time": 607.033319,
          "name": "G4",
          "midi": 67,
          "duration": 0.181678,
          "velocity": 0.818898
        },
        {
          "time": 607.033319,
          "name": "A4",
          "midi": 69,
          "duration": 0.163142,
          "velocity": 0.88189
        },
        {
          "time": 607.039361,
          "name": "A4",
          "midi": 69,
          "duration": 0.163142,
          "velocity": 1
        },
        {
          "time": 607.211771,
          "name": "F#5",
          "midi": 78,
          "duration": 0.174194,
          "velocity": 1
        },
        {
          "time": 607.214997,
          "name": "F#5",
          "midi": 78,
          "duration": 0.174194,
          "velocity": 0.88189
        },
        {
          "time": 607.221448,
          "name": "F#5",
          "midi": 78,
          "duration": 0.174194,
          "velocity": 1
        },
        {
          "time": 607.40532,
          "name": "E5",
          "midi": 76,
          "duration": 0.174194,
          "velocity": 1
        },
        {
          "time": 607.408545,
          "name": "A4",
          "midi": 69,
          "duration": 0.193139,
          "velocity": 0.818898
        },
        {
          "time": 607.408545,
          "name": "F#4",
          "midi": 66,
          "duration": 0.193139,
          "velocity": 0.818898
        },
        {
          "time": 607.408545,
          "name": "E5",
          "midi": 76,
          "duration": 0.174194,
          "velocity": 0.88189
        },
        {
          "time": 607.414997,
          "name": "E5",
          "midi": 76,
          "duration": 0.174194,
          "velocity": 1
        },
        {
          "time": 607.598663,
          "name": "C5",
          "midi": 72,
          "duration": 0.163142,
          "velocity": 1
        },
        {
          "time": 607.601685,
          "name": "C5",
          "midi": 72,
          "duration": 0.163142,
          "velocity": 0.88189
        },
        {
          "time": 607.607727,
          "name": "C5",
          "midi": 72,
          "duration": 0.163142,
          "velocity": 1
        },
        {
          "time": 607.779932,
          "name": "A4",
          "midi": 69,
          "duration": 0.163142,
          "velocity": 1
        },
        {
          "time": 607.782954,
          "name": "A4",
          "midi": 69,
          "duration": 0.181678,
          "velocity": 0.818898
        },
        {
          "time": 607.782954,
          "name": "F#4",
          "midi": 66,
          "duration": 0.181678,
          "velocity": 0.818898
        },
        {
          "time": 607.782954,
          "name": "A4",
          "midi": 69,
          "duration": 0.163142,
          "velocity": 0.88189
        },
        {
          "time": 607.788996,
          "name": "A4",
          "midi": 69,
          "duration": 0.163142,
          "velocity": 1
        },
        {
          "time": 607.961406,
          "name": "G4",
          "midi": 67,
          "duration": 0.174194,
          "velocity": 1
        },
        {
          "time": 607.964632,
          "name": "G4",
          "midi": 67,
          "duration": 0.174194,
          "velocity": 0.88189
        },
        {
          "time": 607.971083,
          "name": "G4",
          "midi": 67,
          "duration": 0.174194,
          "velocity": 1
        },
        {
          "time": 608.154955,
          "name": "G4",
          "midi": 67,
          "duration": 0.174194,
          "velocity": 1
        },
        {
          "time": 608.15818,
          "name": "B4",
          "midi": 71,
          "duration": 0.193139,
          "velocity": 0.818898
        },
        {
          "time": 608.15818,
          "name": "D5",
          "midi": 74,
          "duration": 0.193139,
          "velocity": 0.818898
        },
        {
          "time": 608.15818,
          "name": "G4",
          "midi": 67,
          "duration": 0.174194,
          "velocity": 0.88189
        },
        {
          "time": 608.164632,
          "name": "G4",
          "midi": 67,
          "duration": 0.174194,
          "velocity": 1
        },
        {
          "time": 608.348298,
          "name": "G4",
          "midi": 67,
          "duration": 0.163142,
          "velocity": 1
        },
        {
          "time": 608.348298,
          "name": "B4",
          "midi": 71,
          "duration": 0.163142,
          "velocity": 1
        },
        {
          "time": 608.35132,
          "name": "G5",
          "midi": 79,
          "duration": 0.181269,
          "velocity": 0.818898
        },
        {
          "time": 608.35132,
          "name": "D5",
          "midi": 74,
          "duration": 0.181269,
          "velocity": 0.818898
        },
        {
          "time": 608.35132,
          "name": "B4",
          "midi": 71,
          "duration": 0.163142,
          "velocity": 0.88189
        },
        {
          "time": 608.357362,
          "name": "G4",
          "midi": 67,
          "duration": 0.163142,
          "velocity": 1
        },
        {
          "time": 608.357362,
          "name": "B4",
          "midi": 71,
          "duration": 0.163142,
          "velocity": 1
        },
        {
          "time": 608.529567,
          "name": "D5",
          "midi": 74,
          "duration": 0.163142,
          "velocity": 1
        },
        {
          "time": 608.529567,
          "name": "B4",
          "midi": 71,
          "duration": 0.163142,
          "velocity": 1
        },
        {
          "time": 608.532589,
          "name": "B5",
          "midi": 83,
          "duration": 0.181678,
          "velocity": 0.818898
        },
        {
          "time": 608.532589,
          "name": "G5",
          "midi": 79,
          "duration": 0.181678,
          "velocity": 0.818898
        },
        {
          "time": 608.532589,
          "name": "D5",
          "midi": 74,
          "duration": 0.163142,
          "velocity": 0.88189
        },
        {
          "time": 608.538631,
          "name": "B4",
          "midi": 71,
          "duration": 0.163142,
          "velocity": 1
        },
        {
          "time": 608.538631,
          "name": "D5",
          "midi": 74,
          "duration": 0.163142,
          "velocity": 1
        },
        {
          "time": 608.711041,
          "name": "G5",
          "midi": 79,
          "duration": 0.174194,
          "velocity": 1
        },
        {
          "time": 608.711041,
          "name": "B4",
          "midi": 71,
          "duration": 0.174194,
          "velocity": 1
        },
        {
          "time": 608.714267,
          "name": "D6",
          "midi": 86,
          "duration": 0.193548,
          "velocity": 0.818898
        },
        {
          "time": 608.714267,
          "name": "B5",
          "midi": 83,
          "duration": 0.193548,
          "velocity": 0.818898
        },
        {
          "time": 608.714267,
          "name": "G5",
          "midi": 79,
          "duration": 0.096774,
          "velocity": 0.88189
        },
        {
          "time": 608.720718,
          "name": "D5",
          "midi": 74,
          "duration": 0.174194,
          "velocity": 1
        },
        {
          "time": 608.720718,
          "name": "G5",
          "midi": 79,
          "duration": 0.174194,
          "velocity": 1
        },
        {
          "time": 608.811041,
          "name": "B4",
          "midi": 71,
          "duration": 0.096774,
          "velocity": 0.88189
        },
        {
          "time": 608.907815,
          "name": "C#5",
          "midi": 73,
          "duration": 0.096774,
          "velocity": 0.88189
        },
        {
          "time": 609.00459,
          "name": "D#5",
          "midi": 75,
          "duration": 0.096365,
          "velocity": 0.88189
        },
        {
          "time": 609.100955,
          "name": "E5",
          "midi": 76,
          "duration": 0.090634,
          "velocity": 0.88189
        },
        {
          "time": 609.191589,
          "name": "F#5",
          "midi": 78,
          "duration": 0.090635,
          "velocity": 0.88189
        },
        {
          "time": 609.282224,
          "name": "G5",
          "midi": 79,
          "duration": 0.090634,
          "velocity": 0.88189
        },
        {
          "time": 609.372858,
          "name": "A5",
          "midi": 81,
          "duration": 0.091044,
          "velocity": 0.88189
        },
        {
          "time": 609.460676,
          "name": "G5",
          "midi": 79,
          "duration": 0.367742,
          "velocity": 0.92126
        },
        {
          "time": 609.460676,
          "name": "E5",
          "midi": 76,
          "duration": 0.367742,
          "velocity": 0.92126
        },
        {
          "time": 609.463902,
          "name": "G5",
          "midi": 79,
          "duration": 0.367742,
          "velocity": 0.818898
        },
        {
          "time": 609.463902,
          "name": "E5",
          "midi": 76,
          "duration": 0.367742,
          "velocity": 0.818898
        },
        {
          "time": 609.463902,
          "name": "E5",
          "midi": 76,
          "duration": 0.367742,
          "velocity": 0.88189
        },
        {
          "time": 609.463902,
          "name": "B4",
          "midi": 71,
          "duration": 0.367742,
          "velocity": 0.88189
        },
        {
          "time": 609.463902,
          "name": "E4",
          "midi": 64,
          "duration": 0.367742,
          "velocity": 0.88189
        },
        {
          "time": 609.470353,
          "name": "G5",
          "midi": 79,
          "duration": 0.367742,
          "velocity": 0.92126
        },
        {
          "time": 609.470353,
          "name": "E5",
          "midi": 76,
          "duration": 0.367742,
          "velocity": 0.92126
        },
        {
          "time": 609.847568,
          "name": "G5",
          "midi": 79,
          "duration": 0.344411,
          "velocity": 0.92126
        },
        {
          "time": 609.847568,
          "name": "E5",
          "midi": 76,
          "duration": 0.344411,
          "velocity": 0.92126
        },
        {
          "time": 609.85059,
          "name": "G5",
          "midi": 79,
          "duration": 0.344411,
          "velocity": 0.818898
        },
        {
          "time": 609.85059,
          "name": "E5",
          "midi": 76,
          "duration": 0.344411,
          "velocity": 0.818898
        },
        {
          "time": 609.85059,
          "name": "E5",
          "midi": 76,
          "duration": 0.344411,
          "velocity": 0.88189
        },
        {
          "time": 609.85059,
          "name": "B4",
          "midi": 71,
          "duration": 0.344411,
          "velocity": 0.88189
        },
        {
          "time": 609.85059,
          "name": "E4",
          "midi": 64,
          "duration": 0.344411,
          "velocity": 0.88189
        },
        {
          "time": 609.856632,
          "name": "G5",
          "midi": 79,
          "duration": 0.344411,
          "velocity": 0.92126
        },
        {
          "time": 609.856632,
          "name": "E5",
          "midi": 76,
          "duration": 0.344411,
          "velocity": 0.92126
        },
        {
          "time": 610.210311,
          "name": "F#5",
          "midi": 78,
          "duration": 0.367742,
          "velocity": 0.92126
        },
        {
          "time": 610.210311,
          "name": "D#5",
          "midi": 75,
          "duration": 0.367742,
          "velocity": 0.92126
        },
        {
          "time": 610.213537,
          "name": "D#5",
          "midi": 75,
          "duration": 0.367742,
          "velocity": 0.818898
        },
        {
          "time": 610.213537,
          "name": "F#5",
          "midi": 78,
          "duration": 0.367742,
          "velocity": 0.818898
        },
        {
          "time": 610.213537,
          "name": "D#5",
          "midi": 75,
          "duration": 0.367742,
          "velocity": 0.88189
        },
        {
          "time": 610.213537,
          "name": "F#4",
          "midi": 66,
          "duration": 0.367742,
          "velocity": 0.88189
        },
        {
          "time": 610.219988,
          "name": "F#5",
          "midi": 78,
          "duration": 0.367742,
          "velocity": 0.92126
        },
        {
          "time": 610.219988,
          "name": "D#5",
          "midi": 75,
          "duration": 0.367742,
          "velocity": 0.92126
        },
        {
          "time": 610.597203,
          "name": "G5",
          "midi": 79,
          "duration": 0.344411,
          "velocity": 0.92126
        },
        {
          "time": 610.597203,
          "name": "E5",
          "midi": 76,
          "duration": 0.344411,
          "velocity": 0.92126
        },
        {
          "time": 610.600225,
          "name": "G5",
          "midi": 79,
          "duration": 0.344411,
          "velocity": 0.818898
        },
        {
          "time": 610.600225,
          "name": "E5",
          "midi": 76,
          "duration": 0.344411,
          "velocity": 0.818898
        },
        {
          "time": 610.600225,
          "name": "B4",
          "midi": 71,
          "duration": 0.344411,
          "velocity": 0.88189
        },
        {
          "time": 610.600225,
          "name": "E5",
          "midi": 76,
          "duration": 0.344411,
          "velocity": 0.88189
        },
        {
          "time": 610.600225,
          "name": "E4",
          "midi": 64,
          "duration": 0.344411,
          "velocity": 0.88189
        },
        {
          "time": 610.606267,
          "name": "G5",
          "midi": 79,
          "duration": 0.344411,
          "velocity": 0.92126
        },
        {
          "time": 610.606267,
          "name": "E5",
          "midi": 76,
          "duration": 0.344411,
          "velocity": 0.92126
        },
        {
          "time": 610.959946,
          "name": "E5",
          "midi": 76,
          "duration": 0.367742,
          "velocity": 0.92126
        },
        {
          "time": 610.959946,
          "name": "G5",
          "midi": 79,
          "duration": 0.367742,
          "velocity": 0.92126
        },
        {
          "time": 610.963172,
          "name": "E5",
          "midi": 76,
          "duration": 0.367742,
          "velocity": 0.818898
        },
        {
          "time": 610.963172,
          "name": "G5",
          "midi": 79,
          "duration": 0.367742,
          "velocity": 0.818898
        },
        {
          "time": 610.963172,
          "name": "B4",
          "midi": 71,
          "duration": 0.367742,
          "velocity": 0.88189
        },
        {
          "time": 610.963172,
          "name": "E5",
          "midi": 76,
          "duration": 0.367742,
          "velocity": 0.88189
        },
        {
          "time": 610.963172,
          "name": "E4",
          "midi": 64,
          "duration": 0.367742,
          "velocity": 0.88189
        },
        {
          "time": 610.969623,
          "name": "E5",
          "midi": 76,
          "duration": 0.367742,
          "velocity": 0.92126
        },
        {
          "time": 610.969623,
          "name": "G5",
          "midi": 79,
          "duration": 0.367742,
          "velocity": 0.92126
        },
        {
          "time": 611.346838,
          "name": "D#5",
          "midi": 75,
          "duration": 0.344411,
          "velocity": 0.92126
        },
        {
          "time": 611.346838,
          "name": "F#5",
          "midi": 78,
          "duration": 0.344411,
          "velocity": 0.92126
        },
        {
          "time": 611.34986,
          "name": "D#5",
          "midi": 75,
          "duration": 0.344411,
          "velocity": 0.818898
        },
        {
          "time": 611.34986,
          "name": "F#5",
          "midi": 78,
          "duration": 0.344411,
          "velocity": 0.818898
        },
        {
          "time": 611.34986,
          "name": "D#5",
          "midi": 75,
          "duration": 0.344411,
          "velocity": 0.88189
        },
        {
          "time": 611.34986,
          "name": "F#4",
          "midi": 66,
          "duration": 0.344411,
          "velocity": 0.88189
        },
        {
          "time": 611.355902,
          "name": "D#5",
          "midi": 75,
          "duration": 0.344411,
          "velocity": 0.92126
        },
        {
          "time": 611.355902,
          "name": "F#5",
          "midi": 78,
          "duration": 0.344411,
          "velocity": 0.92126
        },
        {
          "time": 611.709581,
          "name": "G5",
          "midi": 79,
          "duration": 0.183871,
          "velocity": 0.92126
        },
        {
          "time": 611.709581,
          "name": "E5",
          "midi": 76,
          "duration": 0.183871,
          "velocity": 0.92126
        },
        {
          "time": 611.712807,
          "name": "G5",
          "midi": 79,
          "duration": 0.183871,
          "velocity": 0.818898
        },
        {
          "time": 611.712807,
          "name": "E5",
          "midi": 76,
          "duration": 0.183871,
          "velocity": 0.818898
        },
        {
          "time": 611.712807,
          "name": "G5",
          "midi": 79,
          "duration": 0.183871,
          "velocity": 0.88189
        },
        {
          "time": 611.719258,
          "name": "G5",
          "midi": 79,
          "duration": 0.183871,
          "velocity": 0.92126
        },
        {
          "time": 611.719258,
          "name": "E5",
          "midi": 76,
          "duration": 0.183871,
          "velocity": 0.92126
        },
        {
          "time": 611.90313,
          "name": "G5",
          "midi": 79,
          "duration": 0.183871,
          "velocity": 0.92126
        },
        {
          "time": 611.90313,
          "name": "E5",
          "midi": 76,
          "duration": 0.183871,
          "velocity": 0.92126
        },
        {
          "time": 611.906355,
          "name": "E5",
          "midi": 76,
          "duration": 0.183871,
          "velocity": 0.818898
        },
        {
          "time": 611.906355,
          "name": "G5",
          "midi": 79,
          "duration": 0.183871,
          "velocity": 0.818898
        },
        {
          "time": 611.906355,
          "name": "E5",
          "midi": 76,
          "duration": 0.183871,
          "velocity": 0.88189
        },
        {
          "time": 611.912807,
          "name": "G5",
          "midi": 79,
          "duration": 0.183666,
          "velocity": 0.92126
        },
        {
          "time": 611.912807,
          "name": "E5",
          "midi": 76,
          "duration": 0.183666,
          "velocity": 0.92126
        },
        {
          "time": 612.096473,
          "name": "D#5",
          "midi": 75,
          "duration": 0.344411,
          "velocity": 0.92126
        },
        {
          "time": 612.096473,
          "name": "F#5",
          "midi": 78,
          "duration": 0.344411,
          "velocity": 0.92126
        },
        {
          "time": 612.099495,
          "name": "D#5",
          "midi": 75,
          "duration": 0.344411,
          "velocity": 0.818898
        },
        {
          "time": 612.099495,
          "name": "F#5",
          "midi": 78,
          "duration": 0.344411,
          "velocity": 0.818898
        },
        {
          "time": 612.099495,
          "name": "D#5",
          "midi": 75,
          "duration": 0.344411,
          "velocity": 0.88189
        },
        {
          "time": 612.099495,
          "name": "F#4",
          "midi": 66,
          "duration": 0.344411,
          "velocity": 0.88189
        },
        {
          "time": 612.105537,
          "name": "D#5",
          "midi": 75,
          "duration": 0.344411,
          "velocity": 0.92126
        },
        {
          "time": 612.105537,
          "name": "F#5",
          "midi": 78,
          "duration": 0.344411,
          "velocity": 0.92126
        },
        {
          "time": 612.459216,
          "name": "G5",
          "midi": 79,
          "duration": 0.367742,
          "velocity": 0.92126
        },
        {
          "time": 612.459216,
          "name": "E5",
          "midi": 76,
          "duration": 0.367742,
          "velocity": 0.92126
        },
        {
          "time": 612.462442,
          "name": "E5",
          "midi": 76,
          "duration": 0.367742,
          "velocity": 0.818898
        },
        {
          "time": 612.462442,
          "name": "G5",
          "midi": 79,
          "duration": 0.367742,
          "velocity": 0.818898
        },
        {
          "time": 612.462442,
          "name": "B4",
          "midi": 71,
          "duration": 0.367742,
          "velocity": 0.88189
        },
        {
          "time": 612.462442,
          "name": "E5",
          "midi": 76,
          "duration": 0.367742,
          "velocity": 0.88189
        },
        {
          "time": 612.462442,
          "name": "E4",
          "midi": 64,
          "duration": 0.367742,
          "velocity": 0.88189
        },
        {
          "time": 612.468893,
          "name": "G5",
          "midi": 79,
          "duration": 0.367742,
          "velocity": 0.92126
        },
        {
          "time": 612.468893,
          "name": "E5",
          "midi": 76,
          "duration": 0.367742,
          "velocity": 0.92126
        },
        {
          "time": 612.846108,
          "name": "G5",
          "midi": 79,
          "duration": 0.344411,
          "velocity": 0.92126
        },
        {
          "time": 612.846108,
          "name": "E5",
          "midi": 76,
          "duration": 0.344411,
          "velocity": 0.92126
        },
        {
          "time": 612.84913,
          "name": "E5",
          "midi": 76,
          "duration": 0.344411,
          "velocity": 0.818898
        },
        {
          "time": 612.84913,
          "name": "G5",
          "midi": 79,
          "duration": 0.344411,
          "velocity": 0.818898
        },
        {
          "time": 612.84913,
          "name": "B4",
          "midi": 71,
          "duration": 0.344411,
          "velocity": 0.88189
        },
        {
          "time": 612.84913,
          "name": "E5",
          "midi": 76,
          "duration": 0.344411,
          "velocity": 0.88189
        },
        {
          "time": 612.84913,
          "name": "E4",
          "midi": 64,
          "duration": 0.344411,
          "velocity": 0.88189
        },
        {
          "time": 612.855172,
          "name": "G5",
          "midi": 79,
          "duration": 0.344411,
          "velocity": 0.92126
        },
        {
          "time": 612.855172,
          "name": "E5",
          "midi": 76,
          "duration": 0.344411,
          "velocity": 0.92126
        },
        {
          "time": 613.208851,
          "name": "D#5",
          "midi": 75,
          "duration": 0.367742,
          "velocity": 0.92126
        },
        {
          "time": 613.208851,
          "name": "F#5",
          "midi": 78,
          "duration": 0.367742,
          "velocity": 0.92126
        },
        {
          "time": 613.212077,
          "name": "D#5",
          "midi": 75,
          "duration": 0.367742,
          "velocity": 0.818898
        },
        {
          "time": 613.212077,
          "name": "F#5",
          "midi": 78,
          "duration": 0.367742,
          "velocity": 0.818898
        },
        {
          "time": 613.212077,
          "name": "D#5",
          "midi": 75,
          "duration": 0.367742,
          "velocity": 0.88189
        },
        {
          "time": 613.212077,
          "name": "F#4",
          "midi": 66,
          "duration": 0.367742,
          "velocity": 0.88189
        },
        {
          "time": 613.218528,
          "name": "D#5",
          "midi": 75,
          "duration": 0.367742,
          "velocity": 0.92126
        },
        {
          "time": 613.218528,
          "name": "F#5",
          "midi": 78,
          "duration": 0.367742,
          "velocity": 0.92126
        },
        {
          "time": 613.595743,
          "name": "G5",
          "midi": 79,
          "duration": 0.344411,
          "velocity": 0.92126
        },
        {
          "time": 613.595743,
          "name": "E5",
          "midi": 76,
          "duration": 0.344411,
          "velocity": 0.92126
        },
        {
          "time": 613.598765,
          "name": "E5",
          "midi": 76,
          "duration": 0.344411,
          "velocity": 0.818898
        },
        {
          "time": 613.598765,
          "name": "G5",
          "midi": 79,
          "duration": 0.344411,
          "velocity": 0.818898
        },
        {
          "time": 613.598765,
          "name": "B4",
          "midi": 71,
          "duration": 0.344411,
          "velocity": 0.88189
        },
        {
          "time": 613.598765,
          "name": "E5",
          "midi": 76,
          "duration": 0.344411,
          "velocity": 0.88189
        },
        {
          "time": 613.598765,
          "name": "E4",
          "midi": 64,
          "duration": 0.344411,
          "velocity": 0.88189
        },
        {
          "time": 613.604807,
          "name": "G5",
          "midi": 79,
          "duration": 0.344411,
          "velocity": 0.92126
        },
        {
          "time": 613.604807,
          "name": "E5",
          "midi": 76,
          "duration": 0.344411,
          "velocity": 0.92126
        },
        {
          "time": 613.958486,
          "name": "E5",
          "midi": 76,
          "duration": 0.183871,
          "velocity": 0.92126
        },
        {
          "time": 613.958486,
          "name": "G5",
          "midi": 79,
          "duration": 0.183871,
          "velocity": 0.92126
        },
        {
          "time": 613.961712,
          "name": "E5",
          "midi": 76,
          "duration": 0.183871,
          "velocity": 0.818898
        },
        {
          "time": 613.961712,
          "name": "G5",
          "midi": 79,
          "duration": 0.183871,
          "velocity": 0.818898
        },
        {
          "time": 613.961712,
          "name": "E5",
          "midi": 76,
          "duration": 0.183871,
          "velocity": 0.88189
        },
        {
          "time": 613.968163,
          "name": "E5",
          "midi": 76,
          "duration": 0.183871,
          "velocity": 0.92126
        },
        {
          "time": 613.968163,
          "name": "G5",
          "midi": 79,
          "duration": 0.183871,
          "velocity": 0.92126
        },
        {
          "time": 614.152035,
          "name": "D#5",
          "midi": 75,
          "duration": 0.183871,
          "velocity": 0.92126
        },
        {
          "time": 614.152035,
          "name": "F#5",
          "midi": 78,
          "duration": 0.183871,
          "velocity": 0.92126
        },
        {
          "time": 614.15526,
          "name": "D#5",
          "midi": 75,
          "duration": 0.183871,
          "velocity": 0.818898
        },
        {
          "time": 614.15526,
          "name": "F#5",
          "midi": 78,
          "duration": 0.183871,
          "velocity": 0.818898
        },
        {
          "time": 614.15526,
          "name": "D#5",
          "midi": 75,
          "duration": 0.183871,
          "velocity": 0.88189
        },
        {
          "time": 614.161712,
          "name": "D#5",
          "midi": 75,
          "duration": 0.183666,
          "velocity": 0.92126
        },
        {
          "time": 614.161712,
          "name": "F#5",
          "midi": 78,
          "duration": 0.183666,
          "velocity": 0.92126
        },
        {
          "time": 614.345378,
          "name": "E5",
          "midi": 76,
          "duration": 0.172206,
          "velocity": 0.92126
        },
        {
          "time": 614.345378,
          "name": "G5",
          "midi": 79,
          "duration": 0.172206,
          "velocity": 0.92126
        },
        {
          "time": 614.3484,
          "name": "E5",
          "midi": 76,
          "duration": 0.172206,
          "velocity": 0.818898
        },
        {
          "time": 614.3484,
          "name": "G5",
          "midi": 79,
          "duration": 0.172206,
          "velocity": 0.818898
        },
        {
          "time": 614.3484,
          "name": "G5",
          "midi": 79,
          "duration": 0.172206,
          "velocity": 0.88189
        },
        {
          "time": 614.354442,
          "name": "E5",
          "midi": 76,
          "duration": 0.172206,
          "velocity": 0.92126
        },
        {
          "time": 614.354442,
          "name": "G5",
          "midi": 79,
          "duration": 0.172206,
          "velocity": 0.92126
        },
        {
          "time": 614.526647,
          "name": "E5",
          "midi": 76,
          "duration": 0.172206,
          "velocity": 0.92126
        },
        {
          "time": 614.526647,
          "name": "G5",
          "midi": 79,
          "duration": 0.172206,
          "velocity": 0.92126
        },
        {
          "time": 614.529669,
          "name": "E5",
          "midi": 76,
          "duration": 0.172206,
          "velocity": 0.818898
        },
        {
          "time": 614.529669,
          "name": "G5",
          "midi": 79,
          "duration": 0.172206,
          "velocity": 0.818898
        },
        {
          "time": 614.529669,
          "name": "E5",
          "midi": 76,
          "duration": 0.172206,
          "velocity": 0.88189
        },
        {
          "time": 614.535711,
          "name": "E5",
          "midi": 76,
          "duration": 0.17241,
          "velocity": 0.92126
        },
        {
          "time": 614.535711,
          "name": "G5",
          "midi": 79,
          "duration": 0.17241,
          "velocity": 0.92126
        },
        {
          "time": 614.708121,
          "name": "D#5",
          "midi": 75,
          "duration": 0.183871,
          "velocity": 0.92126
        },
        {
          "time": 614.708121,
          "name": "F#5",
          "midi": 78,
          "duration": 0.183871,
          "velocity": 0.92126
        },
        {
          "time": 614.711347,
          "name": "D#5",
          "midi": 75,
          "duration": 0.183871,
          "velocity": 0.818898
        },
        {
          "time": 614.711347,
          "name": "F#5",
          "midi": 78,
          "duration": 0.183871,
          "velocity": 0.818898
        },
        {
          "time": 614.711347,
          "name": "D#5",
          "midi": 75,
          "duration": 0.096774,
          "velocity": 0.88189
        },
        {
          "time": 614.717798,
          "name": "D#5",
          "midi": 75,
          "duration": 0.183871,
          "velocity": 0.92126
        },
        {
          "time": 614.717798,
          "name": "F#5",
          "midi": 78,
          "duration": 0.183871,
          "velocity": 0.92126
        },
        {
          "time": 614.808121,
          "name": "B4",
          "midi": 71,
          "duration": 0.096774,
          "velocity": 0.88189
        },
        {
          "time": 614.904895,
          "name": "C#5",
          "midi": 73,
          "duration": 0.096774,
          "velocity": 0.88189
        },
        {
          "time": 615.00167,
          "name": "D#5",
          "midi": 75,
          "duration": 0.096365,
          "velocity": 0.88189
        },
        {
          "time": 615.098035,
          "name": "E5",
          "midi": 76,
          "duration": 0.090634,
          "velocity": 0.88189
        },
        {
          "time": 615.188669,
          "name": "F#5",
          "midi": 78,
          "duration": 0.090635,
          "velocity": 0.88189
        },
        {
          "time": 615.279304,
          "name": "G5",
          "midi": 79,
          "duration": 0.090634,
          "velocity": 0.88189
        },
        {
          "time": 615.369938,
          "name": "A5",
          "midi": 81,
          "duration": 0.091044,
          "velocity": 0.88189
        },
        {
          "time": 615.457756,
          "name": "G5",
          "midi": 79,
          "duration": 0.367742,
          "velocity": 0.92126
        },
        {
          "time": 615.457756,
          "name": "E5",
          "midi": 76,
          "duration": 0.367742,
          "velocity": 0.92126
        },
        {
          "time": 615.460982,
          "name": "G5",
          "midi": 79,
          "duration": 0.367742,
          "velocity": 0.818898
        },
        {
          "time": 615.460982,
          "name": "E5",
          "midi": 76,
          "duration": 0.367742,
          "velocity": 0.818898
        },
        {
          "time": 615.460982,
          "name": "E5",
          "midi": 76,
          "duration": 0.367742,
          "velocity": 0.88189
        },
        {
          "time": 615.460982,
          "name": "B4",
          "midi": 71,
          "duration": 0.367742,
          "velocity": 0.88189
        },
        {
          "time": 615.460982,
          "name": "E4",
          "midi": 64,
          "duration": 0.367742,
          "velocity": 0.88189
        },
        {
          "time": 615.467433,
          "name": "G5",
          "midi": 79,
          "duration": 0.367742,
          "velocity": 0.92126
        },
        {
          "time": 615.467433,
          "name": "E5",
          "midi": 76,
          "duration": 0.367742,
          "velocity": 0.92126
        },
        {
          "time": 615.844648,
          "name": "G5",
          "midi": 79,
          "duration": 0.344411,
          "velocity": 0.92126
        },
        {
          "time": 615.844648,
          "name": "E5",
          "midi": 76,
          "duration": 0.344411,
          "velocity": 0.92126
        },
        {
          "time": 615.84767,
          "name": "G5",
          "midi": 79,
          "duration": 0.344411,
          "velocity": 0.818898
        },
        {
          "time": 615.84767,
          "name": "E5",
          "midi": 76,
          "duration": 0.344411,
          "velocity": 0.818898
        },
        {
          "time": 615.84767,
          "name": "E5",
          "midi": 76,
          "duration": 0.344411,
          "velocity": 0.88189
        },
        {
          "time": 615.84767,
          "name": "B4",
          "midi": 71,
          "duration": 0.344411,
          "velocity": 0.88189
        },
        {
          "time": 615.84767,
          "name": "E4",
          "midi": 64,
          "duration": 0.344411,
          "velocity": 0.88189
        },
        {
          "time": 615.853712,
          "name": "G5",
          "midi": 79,
          "duration": 0.344411,
          "velocity": 0.92126
        },
        {
          "time": 615.853712,
          "name": "E5",
          "midi": 76,
          "duration": 0.344411,
          "velocity": 0.92126
        },
        {
          "time": 616.207391,
          "name": "F#5",
          "midi": 78,
          "duration": 0.367742,
          "velocity": 0.92126
        },
        {
          "time": 616.207391,
          "name": "D#5",
          "midi": 75,
          "duration": 0.367742,
          "velocity": 0.92126
        },
        {
          "time": 616.210617,
          "name": "D#5",
          "midi": 75,
          "duration": 0.367742,
          "velocity": 0.818898
        },
        {
          "time": 616.210617,
          "name": "F#5",
          "midi": 78,
          "duration": 0.367742,
          "velocity": 0.818898
        },
        {
          "time": 616.210617,
          "name": "D#5",
          "midi": 75,
          "duration": 0.367742,
          "velocity": 0.88189
        },
        {
          "time": 616.210617,
          "name": "F#4",
          "midi": 66,
          "duration": 0.367742,
          "velocity": 0.88189
        },
        {
          "time": 616.217068,
          "name": "F#5",
          "midi": 78,
          "duration": 0.367742,
          "velocity": 0.92126
        },
        {
          "time": 616.217068,
          "name": "D#5",
          "midi": 75,
          "duration": 0.367742,
          "velocity": 0.92126
        },
        {
          "time": 616.594283,
          "name": "G5",
          "midi": 79,
          "duration": 0.344411,
          "velocity": 0.92126
        },
        {
          "time": 616.594283,
          "name": "E5",
          "midi": 76,
          "duration": 0.344411,
          "velocity": 0.92126
        },
        {
          "time": 616.597305,
          "name": "G5",
          "midi": 79,
          "duration": 0.344411,
          "velocity": 0.818898
        },
        {
          "time": 616.597305,
          "name": "E5",
          "midi": 76,
          "duration": 0.344411,
          "velocity": 0.818898
        },
        {
          "time": 616.597305,
          "name": "B4",
          "midi": 71,
          "duration": 0.344411,
          "velocity": 0.88189
        },
        {
          "time": 616.597305,
          "name": "E5",
          "midi": 76,
          "duration": 0.344411,
          "velocity": 0.88189
        },
        {
          "time": 616.597305,
          "name": "E4",
          "midi": 64,
          "duration": 0.344411,
          "velocity": 0.88189
        },
        {
          "time": 616.603347,
          "name": "G5",
          "midi": 79,
          "duration": 0.344411,
          "velocity": 0.92126
        },
        {
          "time": 616.603347,
          "name": "E5",
          "midi": 76,
          "duration": 0.344411,
          "velocity": 0.92126
        },
        {
          "time": 616.957026,
          "name": "E5",
          "midi": 76,
          "duration": 0.367742,
          "velocity": 0.92126
        },
        {
          "time": 616.957026,
          "name": "G5",
          "midi": 79,
          "duration": 0.367742,
          "velocity": 0.92126
        },
        {
          "time": 616.960252,
          "name": "E5",
          "midi": 76,
          "duration": 0.367742,
          "velocity": 0.818898
        },
        {
          "time": 616.960252,
          "name": "G5",
          "midi": 79,
          "duration": 0.367742,
          "velocity": 0.818898
        },
        {
          "time": 616.960252,
          "name": "B4",
          "midi": 71,
          "duration": 0.367742,
          "velocity": 0.88189
        },
        {
          "time": 616.960252,
          "name": "E5",
          "midi": 76,
          "duration": 0.367742,
          "velocity": 0.88189
        },
        {
          "time": 616.960252,
          "name": "E4",
          "midi": 64,
          "duration": 0.367742,
          "velocity": 0.88189
        },
        {
          "time": 616.966703,
          "name": "E5",
          "midi": 76,
          "duration": 0.367742,
          "velocity": 0.92126
        },
        {
          "time": 616.966703,
          "name": "G5",
          "midi": 79,
          "duration": 0.367742,
          "velocity": 0.92126
        },
        {
          "time": 617.343918,
          "name": "D#5",
          "midi": 75,
          "duration": 0.344411,
          "velocity": 0.92126
        },
        {
          "time": 617.343918,
          "name": "F#5",
          "midi": 78,
          "duration": 0.344411,
          "velocity": 0.92126
        },
        {
          "time": 617.34694,
          "name": "D#5",
          "midi": 75,
          "duration": 0.344411,
          "velocity": 0.818898
        },
        {
          "time": 617.34694,
          "name": "F#5",
          "midi": 78,
          "duration": 0.344411,
          "velocity": 0.818898
        },
        {
          "time": 617.34694,
          "name": "D#5",
          "midi": 75,
          "duration": 0.344411,
          "velocity": 0.88189
        },
        {
          "time": 617.34694,
          "name": "F#4",
          "midi": 66,
          "duration": 0.344411,
          "velocity": 0.88189
        },
        {
          "time": 617.352982,
          "name": "D#5",
          "midi": 75,
          "duration": 0.344411,
          "velocity": 0.92126
        },
        {
          "time": 617.352982,
          "name": "F#5",
          "midi": 78,
          "duration": 0.344411,
          "velocity": 0.92126
        },
        {
          "time": 617.706661,
          "name": "G5",
          "midi": 79,
          "duration": 0.183871,
          "velocity": 0.92126
        },
        {
          "time": 617.706661,
          "name": "E5",
          "midi": 76,
          "duration": 0.183871,
          "velocity": 0.92126
        },
        {
          "time": 617.709887,
          "name": "G5",
          "midi": 79,
          "duration": 0.183871,
          "velocity": 0.818898
        },
        {
          "time": 617.709887,
          "name": "E5",
          "midi": 76,
          "duration": 0.183871,
          "velocity": 0.818898
        },
        {
          "time": 617.709887,
          "name": "G5",
          "midi": 79,
          "duration": 0.183871,
          "velocity": 0.88189
        },
        {
          "time": 617.716338,
          "name": "G5",
          "midi": 79,
          "duration": 0.183871,
          "velocity": 0.92126
        },
        {
          "time": 617.716338,
          "name": "E5",
          "midi": 76,
          "duration": 0.183871,
          "velocity": 0.92126
        },
        {
          "time": 617.90021,
          "name": "G5",
          "midi": 79,
          "duration": 0.183871,
          "velocity": 0.92126
        },
        {
          "time": 617.90021,
          "name": "E5",
          "midi": 76,
          "duration": 0.183871,
          "velocity": 0.92126
        },
        {
          "time": 617.903435,
          "name": "E5",
          "midi": 76,
          "duration": 0.183871,
          "velocity": 0.818898
        },
        {
          "time": 617.903435,
          "name": "G5",
          "midi": 79,
          "duration": 0.183871,
          "velocity": 0.818898
        },
        {
          "time": 617.903435,
          "name": "E5",
          "midi": 76,
          "duration": 0.183871,
          "velocity": 0.88189
        },
        {
          "time": 617.909887,
          "name": "G5",
          "midi": 79,
          "duration": 0.183666,
          "velocity": 0.92126
        },
        {
          "time": 617.909887,
          "name": "E5",
          "midi": 76,
          "duration": 0.183666,
          "velocity": 0.92126
        },
        {
          "time": 618.093553,
          "name": "D#5",
          "midi": 75,
          "duration": 0.344411,
          "velocity": 0.92126
        },
        {
          "time": 618.093553,
          "name": "F#5",
          "midi": 78,
          "duration": 0.344411,
          "velocity": 0.92126
        },
        {
          "time": 618.096575,
          "name": "D#5",
          "midi": 75,
          "duration": 0.344411,
          "velocity": 0.818898
        },
        {
          "time": 618.096575,
          "name": "F#5",
          "midi": 78,
          "duration": 0.344411,
          "velocity": 0.818898
        },
        {
          "time": 618.096575,
          "name": "D#5",
          "midi": 75,
          "duration": 0.344411,
          "velocity": 0.88189
        },
        {
          "time": 618.096575,
          "name": "F#4",
          "midi": 66,
          "duration": 0.344411,
          "velocity": 0.88189
        },
        {
          "time": 618.102617,
          "name": "D#5",
          "midi": 75,
          "duration": 0.344411,
          "velocity": 0.92126
        },
        {
          "time": 618.102617,
          "name": "F#5",
          "midi": 78,
          "duration": 0.344411,
          "velocity": 0.92126
        },
        {
          "time": 618.456296,
          "name": "G5",
          "midi": 79,
          "duration": 0.367742,
          "velocity": 0.92126
        },
        {
          "time": 618.456296,
          "name": "E5",
          "midi": 76,
          "duration": 0.367742,
          "velocity": 0.92126
        },
        {
          "time": 618.459522,
          "name": "E5",
          "midi": 76,
          "duration": 0.367742,
          "velocity": 0.818898
        },
        {
          "time": 618.459522,
          "name": "G5",
          "midi": 79,
          "duration": 0.367742,
          "velocity": 0.818898
        },
        {
          "time": 618.459522,
          "name": "B4",
          "midi": 71,
          "duration": 0.367742,
          "velocity": 0.88189
        },
        {
          "time": 618.459522,
          "name": "E5",
          "midi": 76,
          "duration": 0.367742,
          "velocity": 0.88189
        },
        {
          "time": 618.459522,
          "name": "E4",
          "midi": 64,
          "duration": 0.367742,
          "velocity": 0.88189
        },
        {
          "time": 618.465973,
          "name": "G5",
          "midi": 79,
          "duration": 0.367742,
          "velocity": 0.92126
        },
        {
          "time": 618.465973,
          "name": "E5",
          "midi": 76,
          "duration": 0.367742,
          "velocity": 0.92126
        },
        {
          "time": 618.843188,
          "name": "G5",
          "midi": 79,
          "duration": 0.344411,
          "velocity": 0.92126
        },
        {
          "time": 618.843188,
          "name": "E5",
          "midi": 76,
          "duration": 0.344411,
          "velocity": 0.92126
        },
        {
          "time": 618.84621,
          "name": "E5",
          "midi": 76,
          "duration": 0.344411,
          "velocity": 0.818898
        },
        {
          "time": 618.84621,
          "name": "G5",
          "midi": 79,
          "duration": 0.344411,
          "velocity": 0.818898
        },
        {
          "time": 618.84621,
          "name": "B4",
          "midi": 71,
          "duration": 0.344411,
          "velocity": 0.88189
        },
        {
          "time": 618.84621,
          "name": "E5",
          "midi": 76,
          "duration": 0.344411,
          "velocity": 0.88189
        },
        {
          "time": 618.84621,
          "name": "E4",
          "midi": 64,
          "duration": 0.344411,
          "velocity": 0.88189
        },
        {
          "time": 618.852252,
          "name": "G5",
          "midi": 79,
          "duration": 0.344411,
          "velocity": 0.92126
        },
        {
          "time": 618.852252,
          "name": "E5",
          "midi": 76,
          "duration": 0.344411,
          "velocity": 0.92126
        },
        {
          "time": 619.205931,
          "name": "D#5",
          "midi": 75,
          "duration": 0.367742,
          "velocity": 0.92126
        },
        {
          "time": 619.205931,
          "name": "F#5",
          "midi": 78,
          "duration": 0.367742,
          "velocity": 0.92126
        },
        {
          "time": 619.209157,
          "name": "D#5",
          "midi": 75,
          "duration": 0.367742,
          "velocity": 0.818898
        },
        {
          "time": 619.209157,
          "name": "F#5",
          "midi": 78,
          "duration": 0.367742,
          "velocity": 0.818898
        },
        {
          "time": 619.209157,
          "name": "D#5",
          "midi": 75,
          "duration": 0.367742,
          "velocity": 0.88189
        },
        {
          "time": 619.209157,
          "name": "F#4",
          "midi": 66,
          "duration": 0.367742,
          "velocity": 0.88189
        },
        {
          "time": 619.215608,
          "name": "D#5",
          "midi": 75,
          "duration": 0.367742,
          "velocity": 0.92126
        },
        {
          "time": 619.215608,
          "name": "F#5",
          "midi": 78,
          "duration": 0.367742,
          "velocity": 0.92126
        },
        {
          "time": 619.592823,
          "name": "G5",
          "midi": 79,
          "duration": 0.344411,
          "velocity": 0.92126
        },
        {
          "time": 619.592823,
          "name": "E5",
          "midi": 76,
          "duration": 0.344411,
          "velocity": 0.92126
        },
        {
          "time": 619.595845,
          "name": "E5",
          "midi": 76,
          "duration": 0.344411,
          "velocity": 0.818898
        },
        {
          "time": 619.595845,
          "name": "G5",
          "midi": 79,
          "duration": 0.344411,
          "velocity": 0.818898
        },
        {
          "time": 619.595845,
          "name": "B4",
          "midi": 71,
          "duration": 0.344411,
          "velocity": 0.88189
        },
        {
          "time": 619.595845,
          "name": "E5",
          "midi": 76,
          "duration": 0.344411,
          "velocity": 0.88189
        },
        {
          "time": 619.595845,
          "name": "E4",
          "midi": 64,
          "duration": 0.344411,
          "velocity": 0.88189
        },
        {
          "time": 619.601887,
          "name": "G5",
          "midi": 79,
          "duration": 0.344411,
          "velocity": 0.92126
        },
        {
          "time": 619.601887,
          "name": "E5",
          "midi": 76,
          "duration": 0.344411,
          "velocity": 0.92126
        },
        {
          "time": 619.955566,
          "name": "E5",
          "midi": 76,
          "duration": 0.183871,
          "velocity": 0.92126
        },
        {
          "time": 619.955566,
          "name": "G5",
          "midi": 79,
          "duration": 0.183871,
          "velocity": 0.92126
        },
        {
          "time": 619.958792,
          "name": "E5",
          "midi": 76,
          "duration": 0.183871,
          "velocity": 0.818898
        },
        {
          "time": 619.958792,
          "name": "G5",
          "midi": 79,
          "duration": 0.183871,
          "velocity": 0.818898
        },
        {
          "time": 619.958792,
          "name": "E5",
          "midi": 76,
          "duration": 0.183871,
          "velocity": 0.88189
        },
        {
          "time": 619.965243,
          "name": "E5",
          "midi": 76,
          "duration": 0.183871,
          "velocity": 0.92126
        },
        {
          "time": 619.965243,
          "name": "G5",
          "midi": 79,
          "duration": 0.183871,
          "velocity": 0.92126
        },
        {
          "time": 620.149115,
          "name": "D#5",
          "midi": 75,
          "duration": 0.183871,
          "velocity": 0.92126
        },
        {
          "time": 620.149115,
          "name": "F#5",
          "midi": 78,
          "duration": 0.183871,
          "velocity": 0.92126
        },
        {
          "time": 620.15234,
          "name": "D#5",
          "midi": 75,
          "duration": 0.183871,
          "velocity": 0.818898
        },
        {
          "time": 620.15234,
          "name": "F#5",
          "midi": 78,
          "duration": 0.183871,
          "velocity": 0.818898
        },
        {
          "time": 620.15234,
          "name": "D#5",
          "midi": 75,
          "duration": 0.183871,
          "velocity": 0.88189
        },
        {
          "time": 620.158792,
          "name": "D#5",
          "midi": 75,
          "duration": 0.183666,
          "velocity": 0.92126
        },
        {
          "time": 620.158792,
          "name": "F#5",
          "midi": 78,
          "duration": 0.183666,
          "velocity": 0.92126
        },
        {
          "time": 620.342458,
          "name": "E5",
          "midi": 76,
          "duration": 0.172206,
          "velocity": 0.92126
        },
        {
          "time": 620.342458,
          "name": "G5",
          "midi": 79,
          "duration": 0.172206,
          "velocity": 0.92126
        },
        {
          "time": 620.34548,
          "name": "G5",
          "midi": 79,
          "duration": 0.172206,
          "velocity": 0.818898
        },
        {
          "time": 620.34548,
          "name": "E5",
          "midi": 76,
          "duration": 0.172206,
          "velocity": 0.818898
        },
        {
          "time": 620.34548,
          "name": "G5",
          "midi": 79,
          "duration": 0.172206,
          "velocity": 0.88189
        },
        {
          "time": 620.34548,
          "name": "E5",
          "midi": 76,
          "duration": 0.172206,
          "velocity": 0.88189
        },
        {
          "time": 620.351522,
          "name": "G5",
          "midi": 79,
          "duration": 0.172206,
          "velocity": 0.92126
        },
        {
          "time": 620.351522,
          "name": "E5",
          "midi": 76,
          "duration": 0.172206,
          "velocity": 0.92126
        },
        {
          "time": 620.523727,
          "name": "C#5",
          "midi": 73,
          "duration": 0.172206,
          "velocity": 0.92126
        },
        {
          "time": 620.523727,
          "name": "E5",
          "midi": 76,
          "duration": 0.172206,
          "velocity": 0.92126
        },
        {
          "time": 620.526749,
          "name": "G5",
          "midi": 79,
          "duration": 0.172206,
          "velocity": 0.818898
        },
        {
          "time": 620.526749,
          "name": "E5",
          "midi": 76,
          "duration": 0.172206,
          "velocity": 0.818898
        },
        {
          "time": 620.526749,
          "name": "G5",
          "midi": 79,
          "duration": 0.172206,
          "velocity": 0.88189
        },
        {
          "time": 620.526749,
          "name": "E5",
          "midi": 76,
          "duration": 0.172206,
          "velocity": 0.88189
        },
        {
          "time": 620.532791,
          "name": "C#5",
          "midi": 73,
          "duration": 0.17241,
          "velocity": 0.92126
        },
        {
          "time": 620.532791,
          "name": "E5",
          "midi": 76,
          "duration": 0.17241,
          "velocity": 0.92126
        },
        {
          "time": 620.705201,
          "name": "D5",
          "midi": 74,
          "duration": 0.193549,
          "velocity": 0.92126
        },
        {
          "time": 620.705201,
          "name": "F#4",
          "midi": 66,
          "duration": 0.193549,
          "velocity": 0.92126
        },
        {
          "time": 620.708427,
          "name": "D5",
          "midi": 74,
          "duration": 0.193548,
          "velocity": 0.818898
        },
        {
          "time": 620.708427,
          "name": "F#5",
          "midi": 78,
          "duration": 0.193548,
          "velocity": 0.818898
        },
        {
          "time": 620.708427,
          "name": "D5",
          "midi": 74,
          "duration": 0.193548,
          "velocity": 0.88189
        },
        {
          "time": 620.708427,
          "name": "F#5",
          "midi": 78,
          "duration": 0.193548,
          "velocity": 0.88189
        },
        {
          "time": 620.714878,
          "name": "F#4",
          "midi": 66,
          "duration": 0.193549,
          "velocity": 0.92126
        },
        {
          "time": 620.714878,
          "name": "D5",
          "midi": 74,
          "duration": 0.193549,
          "velocity": 0.92126
        },
        {
          "time": 621.095115,
          "name": "D4",
          "midi": 62,
          "duration": 0.181269,
          "velocity": 0.88189
        },
        {
          "time": 621.276384,
          "name": "A4",
          "midi": 69,
          "duration": 0.181678,
          "velocity": 0.818898
        },
        {
          "time": 621.276384,
          "name": "F#4",
          "midi": 66,
          "duration": 0.181678,
          "velocity": 0.818898
        },
        {
          "time": 621.276384,
          "name": "D5",
          "midi": 74,
          "duration": 12.175838,
          "velocity": 0.88189
        },
        {
          "time": 621.458062,
          "name": "A4",
          "midi": 69,
          "duration": 0.567957,
          "velocity": 0.818898
        },
        {
          "time": 621.458062,
          "name": "C5",
          "midi": 72,
          "duration": 0.567957,
          "velocity": 0.818898
        },
        {
          "time": 621.658062,
          "name": "F#4",
          "midi": 66,
          "duration": 0.19273,
          "velocity": 0.92126
        },
        {
          "time": 621.658062,
          "name": "A4",
          "midi": 69,
          "duration": 0.19273,
          "velocity": 0.92126
        },
        {
          "time": 621.84475,
          "name": "D4",
          "midi": 62,
          "duration": 0.181269,
          "velocity": 0.88189
        },
        {
          "time": 621.850792,
          "name": "C5",
          "midi": 72,
          "duration": 0.363357,
          "velocity": 0.92126
        },
        {
          "time": 621.850792,
          "name": "A4",
          "midi": 69,
          "duration": 0.363357,
          "velocity": 0.92126
        },
        {
          "time": 622.026019,
          "name": "F#4",
          "midi": 66,
          "duration": 0.181678,
          "velocity": 0.818898
        },
        {
          "time": 622.026019,
          "name": "D4",
          "midi": 62,
          "duration": 0.181678,
          "velocity": 0.818898
        },
        {
          "time": 622.026019,
          "name": "D5",
          "midi": 74,
          "duration": 0.181678,
          "velocity": 0.88189
        },
        {
          "time": 622.207697,
          "name": "G#4",
          "midi": 68,
          "duration": 0.567957,
          "velocity": 0.818898
        },
        {
          "time": 622.207697,
          "name": "F4",
          "midi": 65,
          "duration": 0.567957,
          "velocity": 0.818898
        },
        {
          "time": 622.407697,
          "name": "G#4",
          "midi": 68,
          "duration": 0.19273,
          "velocity": 0.92126
        },
        {
          "time": 622.407697,
          "name": "F4",
          "midi": 65,
          "duration": 0.19273,
          "velocity": 0.92126
        },
        {
          "time": 622.594385,
          "name": "D4",
          "midi": 62,
          "duration": 0.181269,
          "velocity": 0.88189
        },
        {
          "time": 622.600427,
          "name": "B4",
          "midi": 71,
          "duration": 0.363357,
          "velocity": 0.92126
        },
        {
          "time": 622.600427,
          "name": "G#4",
          "midi": 68,
          "duration": 0.363357,
          "velocity": 0.92126
        },
        {
          "time": 622.775654,
          "name": "F4",
          "midi": 65,
          "duration": 0.181678,
          "velocity": 0.818898
        },
        {
          "time": 622.775654,
          "name": "D4",
          "midi": 62,
          "duration": 0.181678,
          "velocity": 0.818898
        },
        {
          "time": 622.775654,
          "name": "D5",
          "midi": 74,
          "duration": 0.181678,
          "velocity": 0.88189
        },
        {
          "time": 622.957332,
          "name": "A4",
          "midi": 69,
          "duration": 0.567957,
          "velocity": 0.818898
        },
        {
          "time": 622.957332,
          "name": "F#4",
          "midi": 66,
          "duration": 0.567957,
          "velocity": 0.818898
        },
        {
          "time": 623.157332,
          "name": "A4",
          "midi": 69,
          "duration": 0.19273,
          "velocity": 0.92126
        },
        {
          "time": 623.157332,
          "name": "F#4",
          "midi": 66,
          "duration": 0.19273,
          "velocity": 0.92126
        },
        {
          "time": 623.34402,
          "name": "D4",
          "midi": 62,
          "duration": 0.181269,
          "velocity": 0.88189
        },
        {
          "time": 623.350062,
          "name": "C5",
          "midi": 72,
          "duration": 0.363357,
          "velocity": 0.92126
        },
        {
          "time": 623.350062,
          "name": "A4",
          "midi": 69,
          "duration": 0.363357,
          "velocity": 0.92126
        },
        {
          "time": 623.525289,
          "name": "F4",
          "midi": 65,
          "duration": 0.181678,
          "velocity": 0.818898
        },
        {
          "time": 623.525289,
          "name": "D4",
          "midi": 62,
          "duration": 0.181678,
          "velocity": 0.818898
        },
        {
          "time": 623.525289,
          "name": "D5",
          "midi": 74,
          "duration": 0.181678,
          "velocity": 0.88189
        },
        {
          "time": 623.706967,
          "name": "G4",
          "midi": 67,
          "duration": 0.05,
          "velocity": 0.818898
        },
        {
          "time": 623.755354,
          "name": "D4",
          "midi": 62,
          "duration": 0.087097,
          "velocity": 0.818898
        },
        {
          "time": 623.755354,
          "name": "F#4",
          "midi": 66,
          "duration": 0.087097,
          "velocity": 0.818898
        },
        {
          "time": 623.900515,
          "name": "G#4",
          "midi": 68,
          "duration": 0.145161,
          "velocity": 0.818898
        },
        {
          "time": 623.900515,
          "name": "F4",
          "midi": 65,
          "duration": 0.145161,
          "velocity": 0.818898
        },
        {
          "time": 624.093655,
          "name": "A4",
          "midi": 69,
          "duration": 0.135952,
          "velocity": 0.818898
        },
        {
          "time": 624.093655,
          "name": "F#4",
          "midi": 66,
          "duration": 0.135952,
          "velocity": 0.818898
        },
        {
          "time": 624.093655,
          "name": "D4",
          "midi": 62,
          "duration": 0.181269,
          "velocity": 0.88189
        },
        {
          "time": 624.274924,
          "name": "C5",
          "midi": 72,
          "duration": 0.135952,
          "velocity": 0.818898
        },
        {
          "time": 624.274924,
          "name": "A4",
          "midi": 69,
          "duration": 0.135952,
          "velocity": 0.818898
        },
        {
          "time": 624.274924,
          "name": "D5",
          "midi": 74,
          "duration": 0.181678,
          "velocity": 0.88189
        },
        {
          "time": 624.456602,
          "name": "E5",
          "midi": 76,
          "duration": 0.567957,
          "velocity": 0.818898
        },
        {
          "time": 624.456602,
          "name": "C5",
          "midi": 72,
          "duration": 0.567957,
          "velocity": 0.818898
        },
        {
          "time": 624.656602,
          "name": "C5",
          "midi": 72,
          "duration": 0.19273,
          "velocity": 0.92126
        },
        {
          "time": 624.656602,
          "name": "A4",
          "midi": 69,
          "duration": 0.19273,
          "velocity": 0.92126
        },
        {
          "time": 624.84329,
          "name": "D4",
          "midi": 62,
          "duration": 0.181269,
          "velocity": 0.88189
        },
        {
          "time": 624.849332,
          "name": "E5",
          "midi": 76,
          "duration": 0.181269,
          "velocity": 0.92126
        },
        {
          "time": 624.849332,
          "name": "C5",
          "midi": 72,
          "duration": 0.181269,
          "velocity": 0.92126
        },
        {
          "time": 625.024559,
          "name": "A4",
          "midi": 69,
          "duration": 0.181678,
          "velocity": 0.818898
        },
        {
          "time": 625.024559,
          "name": "F#4",
          "midi": 66,
          "duration": 0.181678,
          "velocity": 0.818898
        },
        {
          "time": 625.024559,
          "name": "D5",
          "midi": 74,
          "duration": 0.181678,
          "velocity": 0.88189
        },
        {
          "time": 625.206237,
          "name": "B4",
          "midi": 71,
          "duration": 0.567957,
          "velocity": 0.818898
        },
        {
          "time": 625.206237,
          "name": "G#4",
          "midi": 68,
          "duration": 0.567957,
          "velocity": 0.818898
        },
        {
          "time": 625.406237,
          "name": "B4",
          "midi": 71,
          "duration": 0.19273,
          "velocity": 0.92126
        },
        {
          "time": 625.406237,
          "name": "G#4",
          "midi": 68,
          "duration": 0.19273,
          "velocity": 0.92126
        },
        {
          "time": 625.592925,
          "name": "D4",
          "midi": 62,
          "duration": 0.181269,
          "velocity": 0.88189
        },
        {
          "time": 625.598967,
          "name": "D5",
          "midi": 74,
          "duration": 0.181269,
          "velocity": 0.92126
        },
        {
          "time": 625.598967,
          "name": "B4",
          "midi": 71,
          "duration": 0.181269,
          "velocity": 0.92126
        },
        {
          "time": 625.774194,
          "name": "A4",
          "midi": 69,
          "duration": 0.181678,
          "velocity": 0.818898
        },
        {
          "time": 625.774194,
          "name": "F#4",
          "midi": 66,
          "duration": 0.181678,
          "velocity": 0.818898
        },
        {
          "time": 625.774194,
          "name": "D5",
          "midi": 74,
          "duration": 0.181678,
          "velocity": 0.88189
        },
        {
          "time": 625.955872,
          "name": "C5",
          "midi": 72,
          "duration": 0.567957,
          "velocity": 0.818898
        },
        {
          "time": 625.955872,
          "name": "A4",
          "midi": 69,
          "duration": 0.567957,
          "velocity": 0.818898
        },
        {
          "time": 626.155872,
          "name": "A4",
          "midi": 69,
          "duration": 0.19273,
          "velocity": 0.92126
        },
        {
          "time": 626.155872,
          "name": "F#4",
          "midi": 66,
          "duration": 0.19273,
          "velocity": 0.92126
        },
        {
          "time": 626.34256,
          "name": "D4",
          "midi": 62,
          "duration": 0.181269,
          "velocity": 0.88189
        },
        {
          "time": 626.348602,
          "name": "C5",
          "midi": 72,
          "duration": 0.181269,
          "velocity": 0.92126
        },
        {
          "time": 626.348602,
          "name": "A4",
          "midi": 69,
          "duration": 0.181269,
          "velocity": 0.92126
        },
        {
          "time": 626.523829,
          "name": "G#4",
          "midi": 68,
          "duration": 0.181678,
          "velocity": 0.818898
        },
        {
          "time": 626.523829,
          "name": "F4",
          "midi": 65,
          "duration": 0.181678,
          "velocity": 0.818898
        },
        {
          "time": 626.523829,
          "name": "D5",
          "midi": 74,
          "duration": 0.181678,
          "velocity": 0.88189
        },
        {
          "time": 626.705507,
          "name": "B4",
          "midi": 71,
          "duration": 0.05,
          "velocity": 0.818898
        },
        {
          "time": 626.753894,
          "name": "A4",
          "midi": 69,
          "duration": 0.087097,
          "velocity": 0.818898
        },
        {
          "time": 626.753894,
          "name": "F#4",
          "midi": 66,
          "duration": 0.087097,
          "velocity": 0.818898
        },
        {
          "time": 626.899055,
          "name": "F4",
          "midi": 65,
          "duration": 0.145161,
          "velocity": 0.818898
        },
        {
          "time": 626.899055,
          "name": "G#4",
          "midi": 68,
          "duration": 0.145161,
          "velocity": 0.818898
        },
        {
          "time": 627.092195,
          "name": "A4",
          "midi": 69,
          "duration": 0.135952,
          "velocity": 0.818898
        },
        {
          "time": 627.092195,
          "name": "F#4",
          "midi": 66,
          "duration": 0.135952,
          "velocity": 0.818898
        },
        {
          "time": 627.092195,
          "name": "D5",
          "midi": 74,
          "duration": 0.181269,
          "velocity": 0.88189
        },
        {
          "time": 627.273464,
          "name": "D4",
          "midi": 62,
          "duration": 0.135952,
          "velocity": 0.818898
        },
        {
          "time": 627.273464,
          "name": "F#4",
          "midi": 66,
          "duration": 0.135952,
          "velocity": 0.818898
        },
        {
          "time": 627.273464,
          "name": "D5",
          "midi": 74,
          "duration": 0.181678,
          "velocity": 0.88189
        },
        {
          "time": 627.455142,
          "name": "A4",
          "midi": 69,
          "duration": 0.193548,
          "velocity": 0.818898
        },
        {
          "time": 627.455142,
          "name": "F#4",
          "midi": 66,
          "duration": 0.193548,
          "velocity": 0.818898
        },
        {
          "time": 627.455142,
          "name": "F#5",
          "midi": 78,
          "duration": 0.193548,
          "velocity": 0.88189
        },
        {
          "time": 627.64869,
          "name": "A4",
          "midi": 69,
          "duration": 0.193139,
          "velocity": 0.818898
        },
        {
          "time": 627.64869,
          "name": "C5",
          "midi": 72,
          "duration": 0.193139,
          "velocity": 0.818898
        },
        {
          "time": 627.64869,
          "name": "A5",
          "midi": 81,
          "duration": 0.193139,
          "velocity": 0.88189
        },
        {
          "time": 627.84183,
          "name": "B4",
          "midi": 71,
          "duration": 0.181269,
          "velocity": 0.818898
        },
        {
          "time": 627.84183,
          "name": "G4",
          "midi": 67,
          "duration": 0.181269,
          "velocity": 0.818898
        },
        {
          "time": 627.84183,
          "name": "G5",
          "midi": 79,
          "duration": 0.181269,
          "velocity": 0.88189
        },
        {
          "time": 628.023099,
          "name": "B3",
          "midi": 59,
          "duration": 0.181678,
          "velocity": 0.818898
        },
        {
          "time": 628.023099,
          "name": "G4",
          "midi": 67,
          "duration": 0.181678,
          "velocity": 0.818898
        },
        {
          "time": 628.023099,
          "name": "B4",
          "midi": 71,
          "duration": 0.181678,
          "velocity": 0.88189
        },
        {
          "time": 628.204777,
          "name": "F#4",
          "midi": 66,
          "duration": 0.193548,
          "velocity": 0.818898
        },
        {
          "time": 628.204777,
          "name": "A3",
          "midi": 57,
          "duration": 0.193548,
          "velocity": 0.818898
        },
        {
          "time": 628.204777,
          "name": "A4",
          "midi": 69,
          "duration": 0.193548,
          "velocity": 0.88189
        },
        {
          "time": 628.398325,
          "name": "C4",
          "midi": 60,
          "duration": 0.193139,
          "velocity": 0.818898
        },
        {
          "time": 628.398325,
          "name": "A4",
          "midi": 69,
          "duration": 0.193139,
          "velocity": 0.818898
        },
        {
          "time": 628.398325,
          "name": "C5",
          "midi": 72,
          "duration": 0.193139,
          "velocity": 0.88189
        },
        {
          "time": 628.591465,
          "name": "G4",
          "midi": 67,
          "duration": 0.181269,
          "velocity": 0.818898
        },
        {
          "time": 628.591465,
          "name": "B3",
          "midi": 59,
          "duration": 0.181269,
          "velocity": 0.818898
        },
        {
          "time": 628.591465,
          "name": "B4",
          "midi": 71,
          "duration": 0.181269,
          "velocity": 0.88189
        },
        {
          "time": 628.772734,
          "name": "G3",
          "midi": 55,
          "duration": 0.181678,
          "velocity": 0.818898
        },
        {
          "time": 628.772734,
          "name": "E4",
          "midi": 64,
          "duration": 0.181678,
          "velocity": 0.818898
        },
        {
          "time": 628.772734,
          "name": "G4",
          "midi": 67,
          "duration": 0.181678,
          "velocity": 0.88189
        },
        {
          "time": 628.954412,
          "name": "D4",
          "midi": 62,
          "duration": 0.193548,
          "velocity": 0.818898
        },
        {
          "time": 628.954412,
          "name": "F#3",
          "midi": 54,
          "duration": 0.193548,
          "velocity": 0.818898
        },
        {
          "time": 628.954412,
          "name": "F#4",
          "midi": 66,
          "duration": 0.193548,
          "velocity": 0.88189
        },
        {
          "time": 629.14796,
          "name": "A3",
          "midi": 57,
          "duration": 0.193139,
          "velocity": 0.818898
        },
        {
          "time": 629.14796,
          "name": "F#4",
          "midi": 66,
          "duration": 0.193139,
          "velocity": 0.818898
        },
        {
          "time": 629.14796,
          "name": "A4",
          "midi": 69,
          "duration": 0.193139,
          "velocity": 0.88189
        },
        {
          "time": 629.3411,
          "name": "E4",
          "midi": 64,
          "duration": 0.181269,
          "velocity": 0.818898
        },
        {
          "time": 629.3411,
          "name": "G3",
          "midi": 55,
          "duration": 0.181269,
          "velocity": 0.818898
        },
        {
          "time": 629.3411,
          "name": "G4",
          "midi": 67,
          "duration": 0.181269,
          "velocity": 0.88189
        },
        {
          "time": 629.522369,
          "name": "B3",
          "midi": 59,
          "duration": 0.181678,
          "velocity": 0.818898
        },
        {
          "time": 629.522369,
          "name": "G4",
          "midi": 67,
          "duration": 0.181678,
          "velocity": 0.818898
        },
        {
          "time": 629.522369,
          "name": "B4",
          "midi": 71,
          "duration": 0.181678,
          "velocity": 0.88189
        },
        {
          "time": 629.704047,
          "name": "F#4",
          "midi": 66,
          "duration": 0.193548,
          "velocity": 0.818898
        },
        {
          "time": 629.704047,
          "name": "A3",
          "midi": 57,
          "duration": 0.193548,
          "velocity": 0.818898
        },
        {
          "time": 629.704047,
          "name": "A4",
          "midi": 69,
          "duration": 0.193548,
          "velocity": 0.88189
        },
        {
          "time": 629.897595,
          "name": "C4",
          "midi": 60,
          "duration": 0.193139,
          "velocity": 0.818898
        },
        {
          "time": 629.897595,
          "name": "A4",
          "midi": 69,
          "duration": 0.193139,
          "velocity": 0.818898
        },
        {
          "time": 629.897595,
          "name": "C5",
          "midi": 72,
          "duration": 0.193139,
          "velocity": 0.88189
        },
        {
          "time": 630.090735,
          "name": "G4",
          "midi": 67,
          "duration": 0.181269,
          "velocity": 0.818898
        },
        {
          "time": 630.090735,
          "name": "B3",
          "midi": 59,
          "duration": 0.181269,
          "velocity": 0.818898
        },
        {
          "time": 630.090735,
          "name": "B4",
          "midi": 71,
          "duration": 0.181269,
          "velocity": 0.88189
        },
        {
          "time": 630.272004,
          "name": "G4",
          "midi": 67,
          "duration": 0.181678,
          "velocity": 0.818898
        },
        {
          "time": 630.272004,
          "name": "B4",
          "midi": 71,
          "duration": 0.181678,
          "velocity": 0.818898
        },
        {
          "time": 630.272004,
          "name": "G5",
          "midi": 79,
          "duration": 0.181678,
          "velocity": 0.88189
        },
        {
          "time": 630.453682,
          "name": "A4",
          "midi": 69,
          "duration": 0.193548,
          "velocity": 0.818898
        },
        {
          "time": 630.453682,
          "name": "F#4",
          "midi": 66,
          "duration": 0.193548,
          "velocity": 0.818898
        },
        {
          "time": 630.453682,
          "name": "F#5",
          "midi": 78,
          "duration": 0.193548,
          "velocity": 0.88189
        },
        {
          "time": 630.64723,
          "name": "A4",
          "midi": 69,
          "duration": 0.193139,
          "velocity": 0.818898
        },
        {
          "time": 630.64723,
          "name": "C5",
          "midi": 72,
          "duration": 0.193139,
          "velocity": 0.818898
        },
        {
          "time": 630.64723,
          "name": "A5",
          "midi": 81,
          "duration": 0.193139,
          "velocity": 0.88189
        },
        {
          "time": 630.84037,
          "name": "B4",
          "midi": 71,
          "duration": 0.181269,
          "velocity": 0.818898
        },
        {
          "time": 630.84037,
          "name": "G4",
          "midi": 67,
          "duration": 0.181269,
          "velocity": 0.818898
        },
        {
          "time": 630.84037,
          "name": "G5",
          "midi": 79,
          "duration": 0.181269,
          "velocity": 0.88189
        },
        {
          "time": 631.021639,
          "name": "B3",
          "midi": 59,
          "duration": 0.181678,
          "velocity": 0.818898
        },
        {
          "time": 631.021639,
          "name": "G4",
          "midi": 67,
          "duration": 0.181678,
          "velocity": 0.818898
        },
        {
          "time": 631.021639,
          "name": "B4",
          "midi": 71,
          "duration": 0.181678,
          "velocity": 0.88189
        },
        {
          "time": 631.203317,
          "name": "F#4",
          "midi": 66,
          "duration": 0.193548,
          "velocity": 0.818898
        },
        {
          "time": 631.203317,
          "name": "A3",
          "midi": 57,
          "duration": 0.193548,
          "velocity": 0.818898
        },
        {
          "time": 631.203317,
          "name": "A4",
          "midi": 69,
          "duration": 0.193548,
          "velocity": 0.88189
        },
        {
          "time": 631.396865,
          "name": "C4",
          "midi": 60,
          "duration": 0.193139,
          "velocity": 0.818898
        },
        {
          "time": 631.396865,
          "name": "A4",
          "midi": 69,
          "duration": 0.193139,
          "velocity": 0.818898
        },
        {
          "time": 631.396865,
          "name": "C5",
          "midi": 72,
          "duration": 0.193139,
          "velocity": 0.88189
        },
        {
          "time": 631.590005,
          "name": "G4",
          "midi": 67,
          "duration": 0.181269,
          "velocity": 0.818898
        },
        {
          "time": 631.590005,
          "name": "B3",
          "midi": 59,
          "duration": 0.181269,
          "velocity": 0.818898
        },
        {
          "time": 631.590005,
          "name": "B4",
          "midi": 71,
          "duration": 0.181269,
          "velocity": 0.88189
        },
        {
          "time": 631.771274,
          "name": "G3",
          "midi": 55,
          "duration": 0.181678,
          "velocity": 0.818898
        },
        {
          "time": 631.771274,
          "name": "E4",
          "midi": 64,
          "duration": 0.181678,
          "velocity": 0.818898
        },
        {
          "time": 631.771274,
          "name": "G4",
          "midi": 67,
          "duration": 0.181678,
          "velocity": 0.88189
        },
        {
          "time": 631.952952,
          "name": "D4",
          "midi": 62,
          "duration": 0.193548,
          "velocity": 0.818898
        },
        {
          "time": 631.952952,
          "name": "F#3",
          "midi": 54,
          "duration": 0.193548,
          "velocity": 0.818898
        },
        {
          "time": 631.952952,
          "name": "F#4",
          "midi": 66,
          "duration": 0.193548,
          "velocity": 0.88189
        },
        {
          "time": 632.1465,
          "name": "D4",
          "midi": 62,
          "duration": 0.145161,
          "velocity": 0.818898
        },
        {
          "time": 632.1465,
          "name": "F#4",
          "midi": 66,
          "duration": 0.145161,
          "velocity": 0.818898
        },
        {
          "time": 632.33964,
          "name": "C4",
          "midi": 60,
          "duration": 0.135952,
          "velocity": 0.818898
        },
        {
          "time": 632.33964,
          "name": "E4",
          "midi": 64,
          "duration": 0.135952,
          "velocity": 0.818898
        },
        {
          "time": 632.520909,
          "name": "A3",
          "midi": 57,
          "duration": 0.135952,
          "velocity": 0.818898
        },
        {
          "time": 632.520909,
          "name": "C4",
          "midi": 60,
          "duration": 0.135952,
          "velocity": 0.818898
        },
        {
          "time": 632.702587,
          "name": "G#3",
          "midi": 56,
          "duration": 0.145161,
          "velocity": 0.818898
        },
        {
          "time": 632.702587,
          "name": "B3",
          "midi": 59,
          "duration": 0.145161,
          "velocity": 0.818898
        },
        {
          "time": 632.896135,
          "name": "B3",
          "midi": 59,
          "duration": 0.145161,
          "velocity": 0.818898
        },
        {
          "time": 632.896135,
          "name": "D4",
          "midi": 62,
          "duration": 0.145161,
          "velocity": 0.818898
        },
        {
          "time": 633.089275,
          "name": "A3",
          "midi": 57,
          "duration": 0.135952,
          "velocity": 0.818898
        },
        {
          "time": 633.089275,
          "name": "C4",
          "midi": 60,
          "duration": 0.135952,
          "velocity": 0.818898
        },
        {
          "time": 633.267522,
          "name": "D5",
          "midi": 74,
          "duration": 0.181474,
          "velocity": 1
        },
        {
          "time": 633.270544,
          "name": "F#3",
          "midi": 54,
          "duration": 0.135952,
          "velocity": 0.818898
        },
        {
          "time": 633.270544,
          "name": "A3",
          "midi": 57,
          "duration": 0.135952,
          "velocity": 0.818898
        },
        {
          "time": 633.270544,
          "name": "D5",
          "midi": 74,
          "duration": 2.227757,
          "velocity": 0.88189
        },
        {
          "time": 633.276586,
          "name": "D5",
          "midi": 74,
          "duration": 0.182088,
          "velocity": 1
        },
        {
          "time": 633.448996,
          "name": "G5",
          "midi": 79,
          "duration": 0.547013,
          "velocity": 1
        },
        {
          "time": 633.452222,
          "name": "G5",
          "midi": 79,
          "duration": 0.546809,
          "velocity": 0.88189
        },
        {
          "time": 633.458673,
          "name": "G5",
          "midi": 79,
          "duration": 0.546399,
          "velocity": 1
        },
        {
          "time": 633.64577,
          "name": "D5",
          "midi": 74,
          "duration": 0.193139,
          "velocity": 0.818898
        },
        {
          "time": 633.64577,
          "name": "G4",
          "midi": 67,
          "duration": 0.193139,
          "velocity": 0.818898
        },
        {
          "time": 634.017157,
          "name": "B4",
          "midi": 71,
          "duration": 0.163142,
          "velocity": 1
        },
        {
          "time": 634.020179,
          "name": "D5",
          "midi": 74,
          "duration": 0.181678,
          "velocity": 0.818898
        },
        {
          "time": 634.020179,
          "name": "G4",
          "midi": 67,
          "duration": 0.181678,
          "velocity": 0.818898
        },
        {
          "time": 634.020179,
          "name": "B4",
          "midi": 71,
          "duration": 0.163142,
          "velocity": 0.88189
        },
        {
          "time": 634.026221,
          "name": "B4",
          "midi": 71,
          "duration": 0.163142,
          "velocity": 1
        },
        {
          "time": 634.198631,
          "name": "E5",
          "midi": 76,
          "duration": 0.547013,
          "velocity": 1
        },
        {
          "time": 634.201857,
          "name": "E5",
          "midi": 76,
          "duration": 0.546809,
          "velocity": 0.88189
        },
        {
          "time": 634.208308,
          "name": "E5",
          "midi": 76,
          "duration": 0.546399,
          "velocity": 1
        },
        {
          "time": 634.395405,
          "name": "D5",
          "midi": 74,
          "duration": 0.193139,
          "velocity": 0.818898
        },
        {
          "time": 634.395405,
          "name": "A4",
          "midi": 69,
          "duration": 0.193139,
          "velocity": 0.818898
        },
        {
          "time": 634.766792,
          "name": "A4",
          "midi": 69,
          "duration": 0.163142,
          "velocity": 1
        },
        {
          "time": 634.769814,
          "name": "D5",
          "midi": 74,
          "duration": 0.181678,
          "velocity": 0.818898
        },
        {
          "time": 634.769814,
          "name": "A4",
          "midi": 69,
          "duration": 0.181678,
          "velocity": 0.818898
        },
        {
          "time": 634.769814,
          "name": "A4",
          "midi": 69,
          "duration": 0.163142,
          "velocity": 0.88189
        },
        {
          "time": 634.775856,
          "name": "A4",
          "midi": 69,
          "duration": 0.163142,
          "velocity": 1
        },
        {
          "time": 634.948266,
          "name": "D5",
          "midi": 74,
          "duration": 0.547013,
          "velocity": 1
        },
        {
          "time": 634.951492,
          "name": "D5",
          "midi": 74,
          "duration": 4.479274,
          "velocity": 0.88189
        },
        {
          "time": 634.957943,
          "name": "D5",
          "midi": 74,
          "duration": 0.546399,
          "velocity": 1
        },
        {
          "time": 635.14504,
          "name": "D5",
          "midi": 74,
          "duration": 0.193139,
          "velocity": 0.818898
        },
        {
          "time": 635.14504,
          "name": "G4",
          "midi": 67,
          "duration": 0.193139,
          "velocity": 0.818898
        },
        {
          "time": 635.516427,
          "name": "F#4",
          "midi": 66,
          "duration": 0.163142,
          "velocity": 1
        },
        {
          "time": 635.519449,
          "name": "D5",
          "midi": 74,
          "duration": 0.181678,
          "velocity": 0.818898
        },
        {
          "time": 635.519449,
          "name": "B4",
          "midi": 71,
          "duration": 0.181678,
          "velocity": 0.818898
        },
        {
          "time": 635.519449,
          "name": "F#4",
          "midi": 66,
          "duration": 0.163142,
          "velocity": 0.88189
        },
        {
          "time": 635.525491,
          "name": "F#4",
          "midi": 66,
          "duration": 0.163142,
          "velocity": 1
        },
        {
          "time": 635.697901,
          "name": "A4",
          "midi": 69,
          "duration": 0.05,
          "velocity": 1
        },
        {
          "time": 635.701127,
          "name": "A4",
          "midi": 69,
          "duration": 0.05,
          "velocity": 0.88189
        },
        {
          "time": 635.707578,
          "name": "A4",
          "midi": 69,
          "duration": 0.05,
          "velocity": 1
        },
        {
          "time": 635.746288,
          "name": "G4",
          "midi": 67,
          "duration": 0.132258,
          "velocity": 1
        },
        {
          "time": 635.749514,
          "name": "G4",
          "midi": 67,
          "duration": 0.132258,
          "velocity": 0.88189
        },
        {
          "time": 635.755966,
          "name": "G4",
          "midi": 67,
          "duration": 0.132258,
          "velocity": 1
        },
        {
          "time": 635.89145,
          "name": "F#4",
          "midi": 66,
          "duration": 0.174194,
          "velocity": 1
        },
        {
          "time": 635.894675,
          "name": "D5",
          "midi": 74,
          "duration": 0.193139,
          "velocity": 0.818898
        },
        {
          "time": 635.894675,
          "name": "B4",
          "midi": 71,
          "duration": 0.193139,
          "velocity": 0.818898
        },
        {
          "time": 635.894675,
          "name": "F#4",
          "midi": 66,
          "duration": 0.174194,
          "velocity": 0.88189
        },
        {
          "time": 635.901127,
          "name": "F#4",
          "midi": 66,
          "duration": 0.174194,
          "velocity": 1
        },
        {
          "time": 636.084793,
          "name": "G4",
          "midi": 67,
          "duration": 0.163142,
          "velocity": 1
        },
        {
          "time": 636.087815,
          "name": "G4",
          "midi": 67,
          "duration": 0.163142,
          "velocity": 0.88189
        },
        {
          "time": 636.093857,
          "name": "G4",
          "midi": 67,
          "duration": 0.163142,
          "velocity": 1
        },
        {
          "time": 636.266062,
          "name": "B4",
          "midi": 71,
          "duration": 0.163142,
          "velocity": 1
        },
        {
          "time": 636.269084,
          "name": "D5",
          "midi": 74,
          "duration": 0.181678,
          "velocity": 0.818898
        },
        {
          "time": 636.269084,
          "name": "G4",
          "midi": 67,
          "duration": 0.181678,
          "velocity": 0.818898
        },
        {
          "time": 636.269084,
          "name": "B4",
          "midi": 71,
          "duration": 0.163142,
          "velocity": 0.88189
        },
        {
          "time": 636.275126,
          "name": "B4",
          "midi": 71,
          "duration": 0.163142,
          "velocity": 1
        },
        {
          "time": 636.447536,
          "name": "E5",
          "midi": 76,
          "duration": 0.547013,
          "velocity": 1
        },
        {
          "time": 636.450762,
          "name": "E5",
          "midi": 76,
          "duration": 0.546809,
          "velocity": 0.88189
        },
        {
          "time": 636.457213,
          "name": "E5",
          "midi": 76,
          "duration": 0.546399,
          "velocity": 1
        },
        {
          "time": 636.64431,
          "name": "D5",
          "midi": 74,
          "duration": 0.193139,
          "velocity": 0.818898
        },
        {
          "time": 636.64431,
          "name": "F#4",
          "midi": 66,
          "duration": 0.193139,
          "velocity": 0.818898
        },
        {
          "time": 637.015697,
          "name": "G#4",
          "midi": 68,
          "duration": 0.163142,
          "velocity": 1
        },
        {
          "time": 637.018719,
          "name": "D5",
          "midi": 74,
          "duration": 0.181678,
          "velocity": 0.818898
        },
        {
          "time": 637.018719,
          "name": "F#4",
          "midi": 66,
          "duration": 0.181678,
          "velocity": 0.818898
        },
        {
          "time": 637.018719,
          "name": "G#4",
          "midi": 68,
          "duration": 0.163142,
          "velocity": 0.88189
        },
        {
          "time": 637.024761,
          "name": "G#4",
          "midi": 68,
          "duration": 0.163142,
          "velocity": 1
        },
        {
          "time": 637.197171,
          "name": "B4",
          "midi": 71,
          "duration": 0.05,
          "velocity": 1
        },
        {
          "time": 637.200397,
          "name": "B4",
          "midi": 71,
          "duration": 0.05,
          "velocity": 0.88189
        },
        {
          "time": 637.206848,
          "name": "B4",
          "midi": 71,
          "duration": 0.05,
          "velocity": 1
        },
        {
          "time": 637.245558,
          "name": "A4",
          "midi": 69,
          "duration": 0.132258,
          "velocity": 1
        },
        {
          "time": 637.248784,
          "name": "A4",
          "midi": 69,
          "duration": 0.132258,
          "velocity": 0.88189
        },
        {
          "time": 637.255236,
          "name": "A4",
          "midi": 69,
          "duration": 0.132258,
          "velocity": 1
        },
        {
          "time": 637.39072,
          "name": "G#4",
          "midi": 68,
          "duration": 0.174194,
          "velocity": 1
        },
        {
          "time": 637.393945,
          "name": "D5",
          "midi": 74,
          "duration": 0.193139,
          "velocity": 0.818898
        },
        {
          "time": 637.393945,
          "name": "F#4",
          "midi": 66,
          "duration": 0.193139,
          "velocity": 0.818898
        },
        {
          "time": 637.393945,
          "name": "G#4",
          "midi": 68,
          "duration": 0.174194,
          "velocity": 0.88189
        },
        {
          "time": 637.400397,
          "name": "G#4",
          "midi": 68,
          "duration": 0.174194,
          "velocity": 1
        },
        {
          "time": 637.584063,
          "name": "A4",
          "midi": 69,
          "duration": 0.163142,
          "velocity": 1
        },
        {
          "time": 637.587085,
          "name": "A4",
          "midi": 69,
          "duration": 0.163142,
          "velocity": 0.88189
        },
        {
          "time": 637.593127,
          "name": "A4",
          "midi": 69,
          "duration": 0.163142,
          "velocity": 1
        },
        {
          "time": 637.765332,
          "name": "F#5",
          "midi": 78,
          "duration": 0.163142,
          "velocity": 1
        },
        {
          "time": 637.768354,
          "name": "D5",
          "midi": 74,
          "duration": 0.181678,
          "velocity": 0.818898
        },
        {
          "time": 637.768354,
          "name": "F#4",
          "midi": 66,
          "duration": 0.181678,
          "velocity": 0.818898
        },
        {
          "time": 637.768354,
          "name": "F#5",
          "midi": 78,
          "duration": 0.163142,
          "velocity": 0.88189
        },
        {
          "time": 637.774396,
          "name": "F#5",
          "midi": 78,
          "duration": 0.163142,
          "velocity": 1
        },
        {
          "time": 637.946806,
          "name": "E5",
          "midi": 76,
          "duration": 0.547013,
          "velocity": 1
        },
        {
          "time": 637.950032,
          "name": "E5",
          "midi": 76,
          "duration": 0.546809,
          "velocity": 0.88189
        },
        {
          "time": 637.956483,
          "name": "E5",
          "midi": 76,
          "duration": 0.546399,
          "velocity": 1
        },
        {
          "time": 638.14358,
          "name": "D5",
          "midi": 74,
          "duration": 0.193139,
          "velocity": 0.818898
        },
        {
          "time": 638.14358,
          "name": "G4",
          "midi": 67,
          "duration": 0.193139,
          "velocity": 0.818898
        },
        {
          "time": 638.514967,
          "name": "A#4",
          "midi": 70,
          "duration": 0.163142,
          "velocity": 1
        },
        {
          "time": 638.517989,
          "name": "E5",
          "midi": 76,
          "duration": 0.181678,
          "velocity": 0.818898
        },
        {
          "time": 638.517989,
          "name": "G4",
          "midi": 67,
          "duration": 0.181678,
          "velocity": 0.818898
        },
        {
          "time": 638.517989,
          "name": "A#4",
          "midi": 70,
          "duration": 0.163142,
          "velocity": 0.88189
        },
        {
          "time": 638.524031,
          "name": "A#4",
          "midi": 70,
          "duration": 0.163142,
          "velocity": 1
        },
        {
          "time": 638.696441,
          "name": "C5",
          "midi": 72,
          "duration": 0.05,
          "velocity": 1
        },
        {
          "time": 638.699667,
          "name": "C5",
          "midi": 72,
          "duration": 0.05,
          "velocity": 0.88189
        },
        {
          "time": 638.706118,
          "name": "C5",
          "midi": 72,
          "duration": 0.05,
          "velocity": 1
        },
        {
          "time": 638.744828,
          "name": "B4",
          "midi": 71,
          "duration": 0.132258,
          "velocity": 1
        },
        {
          "time": 638.748054,
          "name": "B4",
          "midi": 71,
          "duration": 0.132258,
          "velocity": 0.88189
        },
        {
          "time": 638.754506,
          "name": "B4",
          "midi": 71,
          "duration": 0.132258,
          "velocity": 1
        },
        {
          "time": 638.88999,
          "name": "A#4",
          "midi": 70,
          "duration": 0.174194,
          "velocity": 1
        },
        {
          "time": 638.893215,
          "name": "D5",
          "midi": 74,
          "duration": 0.193139,
          "velocity": 0.818898
        },
        {
          "time": 638.893215,
          "name": "G4",
          "midi": 67,
          "duration": 0.193139,
          "velocity": 0.818898
        },
        {
          "time": 638.893215,
          "name": "A#4",
          "midi": 70,
          "duration": 0.174194,
          "velocity": 0.88189
        },
        {
          "time": 638.899667,
          "name": "A#4",
          "midi": 70,
          "duration": 0.174194,
          "velocity": 1
        },
        {
          "time": 639.083333,
          "name": "B4",
          "midi": 71,
          "duration": 0.163142,
          "velocity": 1
        },
        {
          "time": 639.086355,
          "name": "B4",
          "midi": 71,
          "duration": 0.163142,
          "velocity": 0.88189
        },
        {
          "time": 639.092397,
          "name": "B4",
          "midi": 71,
          "duration": 0.163142,
          "velocity": 1
        },
        {
          "time": 639.267624,
          "name": "B4",
          "midi": 71,
          "duration": 0.181678,
          "velocity": 0.818898
        },
        {
          "time": 639.267624,
          "name": "G4",
          "midi": 67,
          "duration": 0.181678,
          "velocity": 0.818898
        },
        {
          "time": 639.267624,
          "name": "D5",
          "midi": 74,
          "duration": 2.227757,
          "velocity": 0.88189
        },
        {
          "time": 639.446076,
          "name": "G5",
          "midi": 79,
          "duration": 0.547013,
          "velocity": 1
        },
        {
          "time": 639.449302,
          "name": "G5",
          "midi": 79,
          "duration": 0.546809,
          "velocity": 0.88189
        },
        {
          "time": 639.455753,
          "name": "G5",
          "midi": 79,
          "duration": 0.546399,
          "velocity": 1
        },
        {
          "time": 639.64285,
          "name": "D5",
          "midi": 74,
          "duration": 0.193139,
          "velocity": 0.818898
        },
        {
          "time": 639.64285,
          "name": "G4",
          "midi": 67,
          "duration": 0.193139,
          "velocity": 0.818898
        },
        {
          "time": 640.014237,
          "name": "B4",
          "midi": 71,
          "duration": 0.163142,
          "velocity": 1
        },
        {
          "time": 640.017259,
          "name": "D5",
          "midi": 74,
          "duration": 0.181678,
          "velocity": 0.818898
        },
        {
          "time": 640.017259,
          "name": "G4",
          "midi": 67,
          "duration": 0.181678,
          "velocity": 0.818898
        },
        {
          "time": 640.017259,
          "name": "B4",
          "midi": 71,
          "duration": 0.163142,
          "velocity": 0.88189
        },
        {
          "time": 640.023301,
          "name": "B4",
          "midi": 71,
          "duration": 0.163142,
          "velocity": 1
        },
        {
          "time": 640.195711,
          "name": "E5",
          "midi": 76,
          "duration": 0.547013,
          "velocity": 1
        },
        {
          "time": 640.198937,
          "name": "E5",
          "midi": 76,
          "duration": 0.546809,
          "velocity": 0.88189
        },
        {
          "time": 640.205388,
          "name": "E5",
          "midi": 76,
          "duration": 0.546399,
          "velocity": 1
        },
        {
          "time": 640.392485,
          "name": "D5",
          "midi": 74,
          "duration": 0.193139,
          "velocity": 0.818898
        },
        {
          "time": 640.392485,
          "name": "A4",
          "midi": 69,
          "duration": 0.193139,
          "velocity": 0.818898
        },
        {
          "time": 640.763872,
          "name": "A4",
          "midi": 69,
          "duration": 0.163142,
          "velocity": 1
        },
        {
          "time": 640.766894,
          "name": "D5",
          "midi": 74,
          "duration": 0.181678,
          "velocity": 0.818898
        },
        {
          "time": 640.766894,
          "name": "A4",
          "midi": 69,
          "duration": 0.181678,
          "velocity": 0.818898
        },
        {
          "time": 640.766894,
          "name": "A4",
          "midi": 69,
          "duration": 0.163142,
          "velocity": 0.88189
        },
        {
          "time": 640.772936,
          "name": "A4",
          "midi": 69,
          "duration": 0.163142,
          "velocity": 1
        },
        {
          "time": 640.945346,
          "name": "D5",
          "midi": 74,
          "duration": 0.547013,
          "velocity": 1
        },
        {
          "time": 640.948572,
          "name": "D5",
          "midi": 74,
          "duration": 7.767318,
          "velocity": 0.88189
        },
        {
          "time": 640.955023,
          "name": "D5",
          "midi": 74,
          "duration": 0.546399,
          "velocity": 1
        },
        {
          "time": 641.14212,
          "name": "D5",
          "midi": 74,
          "duration": 0.193139,
          "velocity": 0.818898
        },
        {
          "time": 641.14212,
          "name": "G4",
          "midi": 67,
          "duration": 0.193139,
          "velocity": 0.818898
        },
        {
          "time": 641.513507,
          "name": "F#4",
          "midi": 66,
          "duration": 0.163142,
          "velocity": 1
        },
        {
          "time": 641.516529,
          "name": "D5",
          "midi": 74,
          "duration": 0.181678,
          "velocity": 0.818898
        },
        {
          "time": 641.516529,
          "name": "B4",
          "midi": 71,
          "duration": 0.181678,
          "velocity": 0.818898
        },
        {
          "time": 641.516529,
          "name": "F#4",
          "midi": 66,
          "duration": 0.163142,
          "velocity": 0.88189
        },
        {
          "time": 641.522571,
          "name": "F#4",
          "midi": 66,
          "duration": 0.163142,
          "velocity": 1
        },
        {
          "time": 641.694981,
          "name": "A4",
          "midi": 69,
          "duration": 0.05,
          "velocity": 1
        },
        {
          "time": 641.698207,
          "name": "A4",
          "midi": 69,
          "duration": 0.05,
          "velocity": 0.88189
        },
        {
          "time": 641.704658,
          "name": "A4",
          "midi": 69,
          "duration": 0.05,
          "velocity": 1
        },
        {
          "time": 641.743368,
          "name": "G4",
          "midi": 67,
          "duration": 0.132258,
          "velocity": 1
        },
        {
          "time": 641.746594,
          "name": "G4",
          "midi": 67,
          "duration": 0.132258,
          "velocity": 0.88189
        },
        {
          "time": 641.753046,
          "name": "G4",
          "midi": 67,
          "duration": 0.132258,
          "velocity": 1
        },
        {
          "time": 641.88853,
          "name": "F#4",
          "midi": 66,
          "duration": 0.174194,
          "velocity": 1
        },
        {
          "time": 641.891755,
          "name": "D5",
          "midi": 74,
          "duration": 0.193139,
          "velocity": 0.818898
        },
        {
          "time": 641.891755,
          "name": "B4",
          "midi": 71,
          "duration": 0.193139,
          "velocity": 0.818898
        },
        {
          "time": 641.891755,
          "name": "F#4",
          "midi": 66,
          "duration": 0.174194,
          "velocity": 0.88189
        },
        {
          "time": 641.898207,
          "name": "F#4",
          "midi": 66,
          "duration": 0.174194,
          "velocity": 1
        },
        {
          "time": 642.081873,
          "name": "G4",
          "midi": 67,
          "duration": 0.163142,
          "velocity": 1
        },
        {
          "time": 642.084895,
          "name": "G4",
          "midi": 67,
          "duration": 0.163142,
          "velocity": 0.88189
        },
        {
          "time": 642.090937,
          "name": "G4",
          "midi": 67,
          "duration": 0.163142,
          "velocity": 1
        },
        {
          "time": 642.263142,
          "name": "B4",
          "midi": 71,
          "duration": 0.163142,
          "velocity": 1
        },
        {
          "time": 642.266164,
          "name": "D5",
          "midi": 74,
          "duration": 0.181678,
          "velocity": 0.818898
        },
        {
          "time": 642.266164,
          "name": "G4",
          "midi": 67,
          "duration": 0.181678,
          "velocity": 0.818898
        },
        {
          "time": 642.266164,
          "name": "B4",
          "midi": 71,
          "duration": 0.163142,
          "velocity": 0.88189
        },
        {
          "time": 642.272206,
          "name": "B4",
          "midi": 71,
          "duration": 0.163142,
          "velocity": 1
        },
        {
          "time": 642.444616,
          "name": "E5",
          "midi": 76,
          "duration": 0.547013,
          "velocity": 1
        },
        {
          "time": 642.447842,
          "name": "E5",
          "midi": 76,
          "duration": 0.546809,
          "velocity": 0.88189
        },
        {
          "time": 642.454293,
          "name": "E5",
          "midi": 76,
          "duration": 0.546399,
          "velocity": 1
        },
        {
          "time": 642.64139,
          "name": "G4",
          "midi": 67,
          "duration": 0.193139,
          "velocity": 0.818898
        },
        {
          "time": 642.64139,
          "name": "B4",
          "midi": 71,
          "duration": 0.193139,
          "velocity": 0.818898
        },
        {
          "time": 643.012777,
          "name": "B4",
          "midi": 71,
          "duration": 0.163142,
          "velocity": 1
        },
        {
          "time": 643.015799,
          "name": "B4",
          "midi": 71,
          "duration": 0.181678,
          "velocity": 0.818898
        },
        {
          "time": 643.015799,
          "name": "G4",
          "midi": 67,
          "duration": 0.181678,
          "velocity": 0.818898
        },
        {
          "time": 643.015799,
          "name": "B4",
          "midi": 71,
          "duration": 0.163142,
          "velocity": 0.88189
        },
        {
          "time": 643.021841,
          "name": "B4",
          "midi": 71,
          "duration": 0.163142,
          "velocity": 1
        },
        {
          "time": 643.194251,
          "name": "C5",
          "midi": 72,
          "duration": 0.05,
          "velocity": 1
        },
        {
          "time": 643.197477,
          "name": "C5",
          "midi": 72,
          "duration": 0.05,
          "velocity": 0.88189
        },
        {
          "time": 643.203928,
          "name": "C5",
          "midi": 72,
          "duration": 0.05,
          "velocity": 1
        },
        {
          "time": 643.242638,
          "name": "B4",
          "midi": 71,
          "duration": 0.132258,
          "velocity": 1
        },
        {
          "time": 643.245864,
          "name": "B4",
          "midi": 71,
          "duration": 0.132258,
          "velocity": 0.88189
        },
        {
          "time": 643.252316,
          "name": "B4",
          "midi": 71,
          "duration": 0.132258,
          "velocity": 1
        },
        {
          "time": 643.3878,
          "name": "A#4",
          "midi": 70,
          "duration": 0.174194,
          "velocity": 1
        },
        {
          "time": 643.391025,
          "name": "G5",
          "midi": 79,
          "duration": 0.193139,
          "velocity": 0.818898
        },
        {
          "time": 643.391025,
          "name": "E5",
          "midi": 76,
          "duration": 0.193139,
          "velocity": 0.818898
        },
        {
          "time": 643.391025,
          "name": "A#4",
          "midi": 70,
          "duration": 0.174194,
          "velocity": 0.88189
        },
        {
          "time": 643.397477,
          "name": "A#4",
          "midi": 70,
          "duration": 0.174194,
          "velocity": 1
        },
        {
          "time": 643.581143,
          "name": "B4",
          "midi": 71,
          "duration": 0.163142,
          "velocity": 1
        },
        {
          "time": 643.584165,
          "name": "B4",
          "midi": 71,
          "duration": 0.163142,
          "velocity": 0.88189
        },
        {
          "time": 643.590207,
          "name": "B4",
          "midi": 71,
          "duration": 0.163142,
          "velocity": 1
        },
        {
          "time": 643.762412,
          "name": "E5",
          "midi": 76,
          "duration": 0.163142,
          "velocity": 1
        },
        {
          "time": 643.765434,
          "name": "B4",
          "midi": 71,
          "duration": 0.181678,
          "velocity": 0.818898
        },
        {
          "time": 643.765434,
          "name": "G5",
          "midi": 79,
          "duration": 0.181678,
          "velocity": 0.818898
        },
        {
          "time": 643.765434,
          "name": "E5",
          "midi": 76,
          "duration": 0.163142,
          "velocity": 0.88189
        },
        {
          "time": 643.771476,
          "name": "E5",
          "midi": 76,
          "duration": 0.163142,
          "velocity": 1
        },
        {
          "time": 643.943886,
          "name": "F#5",
          "midi": 78,
          "duration": 0.547013,
          "velocity": 1
        },
        {
          "time": 643.947112,
          "name": "F#5",
          "midi": 78,
          "duration": 0.546809,
          "velocity": 0.88189
        },
        {
          "time": 643.953563,
          "name": "F#5",
          "midi": 78,
          "duration": 0.546399,
          "velocity": 1
        },
        {
          "time": 644.14066,
          "name": "D#5",
          "midi": 75,
          "duration": 0.193139,
          "velocity": 0.818898
        },
        {
          "time": 644.14066,
          "name": "F#5",
          "midi": 78,
          "duration": 0.193139,
          "velocity": 0.818898
        },
        {
          "time": 644.512047,
          "name": "B4",
          "midi": 71,
          "duration": 0.163142,
          "velocity": 1
        },
        {
          "time": 644.515069,
          "name": "D#5",
          "midi": 75,
          "duration": 0.181678,
          "velocity": 0.818898
        },
        {
          "time": 644.515069,
          "name": "F#5",
          "midi": 78,
          "duration": 0.181678,
          "velocity": 0.818898
        },
        {
          "time": 644.515069,
          "name": "B4",
          "midi": 71,
          "duration": 0.163142,
          "velocity": 0.88189
        },
        {
          "time": 644.521111,
          "name": "B4",
          "midi": 71,
          "duration": 0.163142,
          "velocity": 1
        },
        {
          "time": 644.693521,
          "name": "C#5",
          "midi": 73,
          "duration": 0.174194,
          "velocity": 1
        },
        {
          "time": 644.696747,
          "name": "C#5",
          "midi": 73,
          "duration": 0.077419,
          "velocity": 0.88189
        },
        {
          "time": 644.703198,
          "name": "C#5",
          "midi": 73,
          "duration": 0.174194,
          "velocity": 1
        },
        {
          "time": 644.793521,
          "name": "C#5",
          "midi": 73,
          "duration": 0.077419,
          "velocity": 0.88189
        },
        {
          "time": 644.88707,
          "name": "D#5",
          "midi": 75,
          "duration": 0.174194,
          "velocity": 1
        },
        {
          "time": 644.890295,
          "name": "D#5",
          "midi": 75,
          "duration": 0.193139,
          "velocity": 0.818898
        },
        {
          "time": 644.890295,
          "name": "F#5",
          "midi": 78,
          "duration": 0.193139,
          "velocity": 0.818898
        },
        {
          "time": 644.890295,
          "name": "D#5",
          "midi": 75,
          "duration": 0.077419,
          "velocity": 0.88189
        },
        {
          "time": 644.896747,
          "name": "D#5",
          "midi": 75,
          "duration": 0.174194,
          "velocity": 1
        },
        {
          "time": 644.98707,
          "name": "D#5",
          "midi": 75,
          "duration": 0.077419,
          "velocity": 0.88189
        },
        {
          "time": 645.080413,
          "name": "E5",
          "midi": 76,
          "duration": 0.163142,
          "velocity": 1
        },
        {
          "time": 645.083435,
          "name": "E5",
          "midi": 76,
          "duration": 0.072508,
          "velocity": 0.88189
        },
        {
          "time": 645.089477,
          "name": "E5",
          "midi": 76,
          "duration": 0.163142,
          "velocity": 1
        },
        {
          "time": 645.174069,
          "name": "E5",
          "midi": 76,
          "duration": 0.072508,
          "velocity": 0.88189
        },
        {
          "time": 645.261682,
          "name": "F#5",
          "midi": 78,
          "duration": 0.163142,
          "velocity": 1
        },
        {
          "time": 645.264704,
          "name": "D#5",
          "midi": 75,
          "duration": 0.181678,
          "velocity": 0.818898
        },
        {
          "time": 645.264704,
          "name": "F#5",
          "midi": 78,
          "duration": 0.181678,
          "velocity": 0.818898
        },
        {
          "time": 645.264704,
          "name": "F#5",
          "midi": 78,
          "duration": 0.072508,
          "velocity": 0.88189
        },
        {
          "time": 645.270746,
          "name": "F#5",
          "midi": 78,
          "duration": 0.163142,
          "velocity": 1
        },
        {
          "time": 645.355338,
          "name": "F#5",
          "midi": 78,
          "duration": 0.072508,
          "velocity": 0.88189
        },
        {
          "time": 645.443156,
          "name": "G5",
          "midi": 79,
          "duration": 0.386892,
          "velocity": 1
        },
        {
          "time": 645.446382,
          "name": "G5",
          "midi": 79,
          "duration": 0.386688,
          "velocity": 0.818898
        },
        {
          "time": 645.446382,
          "name": "B4",
          "midi": 71,
          "duration": 0.386688,
          "velocity": 0.818898
        },
        {
          "time": 645.446382,
          "name": "G5",
          "midi": 79,
          "duration": 0.077419,
          "velocity": 0.88189
        },
        {
          "time": 645.452833,
          "name": "G5",
          "midi": 79,
          "duration": 0.386278,
          "velocity": 1
        },
        {
          "time": 645.543156,
          "name": "G5",
          "midi": 79,
          "duration": 0.077419,
          "velocity": 0.88189
        },
        {
          "time": 645.63993,
          "name": "G5",
          "midi": 79,
          "duration": 0.077419,
          "velocity": 0.88189
        },
        {
          "time": 645.736705,
          "name": "G5",
          "midi": 79,
          "duration": 0.077419,
          "velocity": 0.88189
        },
        {
          "time": 645.830048,
          "name": "G4",
          "midi": 67,
          "duration": 0.362743,
          "velocity": 1
        },
        {
          "time": 645.830048,
          "name": "G5",
          "midi": 79,
          "duration": 0.362743,
          "velocity": 1
        },
        {
          "time": 645.83307,
          "name": "G4",
          "midi": 67,
          "duration": 0.362947,
          "velocity": 0.818898
        },
        {
          "time": 645.83307,
          "name": "B4",
          "midi": 71,
          "duration": 0.362947,
          "velocity": 0.818898
        },
        {
          "time": 645.83307,
          "name": "G5",
          "midi": 79,
          "duration": 0.072508,
          "velocity": 0.88189
        },
        {
          "time": 645.839112,
          "name": "B4",
          "midi": 71,
          "duration": 0.363357,
          "velocity": 1
        },
        {
          "time": 645.839112,
          "name": "G4",
          "midi": 67,
          "duration": 0.363357,
          "velocity": 1
        },
        {
          "time": 645.923704,
          "name": "G5",
          "midi": 79,
          "duration": 0.072508,
          "velocity": 0.88189
        },
        {
          "time": 646.014339,
          "name": "G5",
          "midi": 79,
          "duration": 0.072508,
          "velocity": 0.88189
        },
        {
          "time": 646.104973,
          "name": "G5",
          "midi": 79,
          "duration": 0.072508,
          "velocity": 0.88189
        },
        {
          "time": 646.192791,
          "name": "G4",
          "midi": 67,
          "duration": 0.386892,
          "velocity": 1
        },
        {
          "time": 646.192791,
          "name": "G5",
          "midi": 79,
          "duration": 0.386892,
          "velocity": 1
        },
        {
          "time": 646.196017,
          "name": "C5",
          "midi": 72,
          "duration": 0.386688,
          "velocity": 0.818898
        },
        {
          "time": 646.196017,
          "name": "A4",
          "midi": 69,
          "duration": 0.386688,
          "velocity": 0.818898
        },
        {
          "time": 646.196017,
          "name": "G5",
          "midi": 79,
          "duration": 0.077419,
          "velocity": 0.88189
        },
        {
          "time": 646.202468,
          "name": "C5",
          "midi": 72,
          "duration": 0.386278,
          "velocity": 1
        },
        {
          "time": 646.202468,
          "name": "A4",
          "midi": 69,
          "duration": 0.386278,
          "velocity": 1
        },
        {
          "time": 646.292791,
          "name": "G5",
          "midi": 79,
          "duration": 0.077419,
          "velocity": 0.88189
        },
        {
          "time": 646.389565,
          "name": "G5",
          "midi": 79,
          "duration": 0.077419,
          "velocity": 0.88189
        },
        {
          "time": 646.48634,
          "name": "G5",
          "midi": 79,
          "duration": 0.077419,
          "velocity": 0.88189
        },
        {
          "time": 646.579683,
          "name": "G4",
          "midi": 67,
          "duration": 0.362743,
          "velocity": 1
        },
        {
          "time": 646.579683,
          "name": "G5",
          "midi": 79,
          "duration": 0.362743,
          "velocity": 1
        },
        {
          "time": 646.582705,
          "name": "C#5",
          "midi": 73,
          "duration": 0.362947,
          "velocity": 0.818898
        },
        {
          "time": 646.582705,
          "name": "A#4",
          "midi": 70,
          "duration": 0.362947,
          "velocity": 0.818898
        },
        {
          "time": 646.582705,
          "name": "G5",
          "midi": 79,
          "duration": 0.072508,
          "velocity": 0.88189
        },
        {
          "time": 646.588747,
          "name": "C#5",
          "midi": 73,
          "duration": 0.363357,
          "velocity": 1
        },
        {
          "time": 646.588747,
          "name": "A#4",
          "midi": 70,
          "duration": 0.363357,
          "velocity": 1
        },
        {
          "time": 646.673339,
          "name": "G5",
          "midi": 79,
          "duration": 0.072508,
          "velocity": 0.88189
        },
        {
          "time": 646.763974,
          "name": "G5",
          "midi": 79,
          "duration": 0.072508,
          "velocity": 0.88189
        },
        {
          "time": 646.854608,
          "name": "G5",
          "midi": 79,
          "duration": 0.072508,
          "velocity": 0.88189
        },
        {
          "time": 646.942426,
          "name": "G4",
          "midi": 67,
          "duration": 0.386892,
          "velocity": 1
        },
        {
          "time": 646.942426,
          "name": "G5",
          "midi": 79,
          "duration": 0.386892,
          "velocity": 1
        },
        {
          "time": 646.945652,
          "name": "D5",
          "midi": 74,
          "duration": 0.386688,
          "velocity": 0.818898
        },
        {
          "time": 646.945652,
          "name": "B4",
          "midi": 71,
          "duration": 0.386688,
          "velocity": 0.818898
        },
        {
          "time": 646.945652,
          "name": "G5",
          "midi": 79,
          "duration": 0.077419,
          "velocity": 0.88189
        },
        {
          "time": 646.952103,
          "name": "B4",
          "midi": 71,
          "duration": 0.386278,
          "velocity": 1
        },
        {
          "time": 646.952103,
          "name": "D5",
          "midi": 74,
          "duration": 0.386278,
          "velocity": 1
        },
        {
          "time": 647.042426,
          "name": "G5",
          "midi": 79,
          "duration": 0.077419,
          "velocity": 0.88189
        },
        {
          "time": 647.1392,
          "name": "G5",
          "midi": 79,
          "duration": 0.077419,
          "velocity": 0.88189
        },
        {
          "time": 647.235975,
          "name": "G5",
          "midi": 79,
          "duration": 0.077419,
          "velocity": 0.88189
        },
        {
          "time": 647.329318,
          "name": "G4",
          "midi": 67,
          "duration": 0.362743,
          "velocity": 1
        },
        {
          "time": 647.329318,
          "name": "G5",
          "midi": 79,
          "duration": 0.362743,
          "velocity": 1
        },
        {
          "time": 647.33234,
          "name": "G4",
          "midi": 67,
          "duration": 0.362947,
          "velocity": 0.818898
        },
        {
          "time": 647.33234,
          "name": "B4",
          "midi": 71,
          "duration": 0.362947,
          "velocity": 0.818898
        },
        {
          "time": 647.33234,
          "name": "G5",
          "midi": 79,
          "duration": 0.072508,
          "velocity": 0.88189
        },
        {
          "time": 647.338382,
          "name": "G4",
          "midi": 67,
          "duration": 0.363357,
          "velocity": 1
        },
        {
          "time": 647.338382,
          "name": "B4",
          "midi": 71,
          "duration": 0.363357,
          "velocity": 1
        },
        {
          "time": 647.422974,
          "name": "G5",
          "midi": 79,
          "duration": 0.072508,
          "velocity": 0.88189
        },
        {
          "time": 647.513609,
          "name": "G5",
          "midi": 79,
          "duration": 0.072508,
          "velocity": 0.88189
        },
        {
          "time": 647.604243,
          "name": "G5",
          "midi": 79,
          "duration": 0.072508,
          "velocity": 0.88189
        },
        {
          "time": 647.692061,
          "name": "G4",
          "midi": 67,
          "duration": 0.386892,
          "velocity": 1
        },
        {
          "time": 647.692061,
          "name": "G5",
          "midi": 79,
          "duration": 0.386892,
          "velocity": 1
        },
        {
          "time": 647.695287,
          "name": "C5",
          "midi": 72,
          "duration": 0.386688,
          "velocity": 0.818898
        },
        {
          "time": 647.695287,
          "name": "A4",
          "midi": 69,
          "duration": 0.386688,
          "velocity": 0.818898
        },
        {
          "time": 647.695287,
          "name": "G5",
          "midi": 79,
          "duration": 0.077419,
          "velocity": 0.88189
        },
        {
          "time": 647.701738,
          "name": "C5",
          "midi": 72,
          "duration": 0.386278,
          "velocity": 1
        },
        {
          "time": 647.701738,
          "name": "A4",
          "midi": 69,
          "duration": 0.386278,
          "velocity": 1
        },
        {
          "time": 647.792061,
          "name": "G5",
          "midi": 79,
          "duration": 0.077419,
          "velocity": 0.88189
        },
        {
          "time": 647.888835,
          "name": "G5",
          "midi": 79,
          "duration": 0.077419,
          "velocity": 0.88189
        },
        {
          "time": 647.98561,
          "name": "G5",
          "midi": 79,
          "duration": 0.077419,
          "velocity": 0.88189
        },
        {
          "time": 648.078953,
          "name": "G4",
          "midi": 67,
          "duration": 0.362743,
          "velocity": 1
        },
        {
          "time": 648.078953,
          "name": "G5",
          "midi": 79,
          "duration": 0.362743,
          "velocity": 1
        },
        {
          "time": 648.081975,
          "name": "C#5",
          "midi": 73,
          "duration": 0.362947,
          "velocity": 0.818898
        },
        {
          "time": 648.081975,
          "name": "A#4",
          "midi": 70,
          "duration": 0.362947,
          "velocity": 0.818898
        },
        {
          "time": 648.081975,
          "name": "G5",
          "midi": 79,
          "duration": 0.072508,
          "velocity": 0.88189
        },
        {
          "time": 648.088017,
          "name": "C#5",
          "midi": 73,
          "duration": 0.363357,
          "velocity": 1
        },
        {
          "time": 648.088017,
          "name": "A#4",
          "midi": 70,
          "duration": 0.363357,
          "velocity": 1
        },
        {
          "time": 648.172609,
          "name": "G5",
          "midi": 79,
          "duration": 0.072508,
          "velocity": 0.88189
        },
        {
          "time": 648.263244,
          "name": "G5",
          "midi": 79,
          "duration": 0.072508,
          "velocity": 0.88189
        },
        {
          "time": 648.353878,
          "name": "G5",
          "midi": 79,
          "duration": 0.072508,
          "velocity": 0.88189
        },
        {
          "time": 648.441696,
          "name": "G4",
          "midi": 67,
          "duration": 0.386892,
          "velocity": 1
        },
        {
          "time": 648.441696,
          "name": "G5",
          "midi": 79,
          "duration": 0.386892,
          "velocity": 1
        },
        {
          "time": 648.444922,
          "name": "D5",
          "midi": 74,
          "duration": 0.193548,
          "velocity": 0.818898
        },
        {
          "time": 648.444922,
          "name": "B4",
          "midi": 71,
          "duration": 0.193548,
          "velocity": 0.818898
        },
        {
          "time": 648.444922,
          "name": "G5",
          "midi": 79,
          "duration": 0.077419,
          "velocity": 0.88189
        },
        {
          "time": 648.451373,
          "name": "D5",
          "midi": 74,
          "duration": 0.386278,
          "velocity": 1
        },
        {
          "time": 648.451373,
          "name": "B4",
          "midi": 71,
          "duration": 0.386278,
          "velocity": 1
        },
        {
          "time": 648.541696,
          "name": "G5",
          "midi": 79,
          "duration": 0.077419,
          "velocity": 0.88189
        },
        {
          "time": 648.63847,
          "name": "D4",
          "midi": 62,
          "duration": 0.193139,
          "velocity": 0.818898
        },
        {
          "time": 648.63847,
          "name": "D5",
          "midi": 74,
          "duration": 0.174194,
          "velocity": 0.88189
        },
        {
          "time": 648.735245,
          "name": "D5",
          "midi": 74,
          "duration": 0.73028,
          "velocity": 0.88189
        },
        {
          "time": 648.83161,
          "name": "G4",
          "midi": 67,
          "duration": 0.181269,
          "velocity": 0.818898
        },
        {
          "time": 648.83161,
          "name": "G5",
          "midi": 79,
          "duration": 0.072508,
          "velocity": 0.88189
        },
        {
          "time": 648.922244,
          "name": "G5",
          "midi": 79,
          "duration": 0.072508,
          "velocity": 0.88189
        },
        {
          "time": 649.012879,
          "name": "F#4",
          "midi": 66,
          "duration": 0.181678,
          "velocity": 0.818898
        },
        {
          "time": 649.012879,
          "name": "F#5",
          "midi": 78,
          "duration": 0.072508,
          "velocity": 0.88189
        },
        {
          "time": 649.103513,
          "name": "F#5",
          "midi": 78,
          "duration": 0.072508,
          "velocity": 0.88189
        },
        {
          "time": 649.191331,
          "name": "E5",
          "midi": 76,
          "duration": 0.386892,
          "velocity": 1
        },
        {
          "time": 649.191331,
          "name": "G4",
          "midi": 67,
          "duration": 0.386892,
          "velocity": 1
        },
        {
          "time": 649.194557,
          "name": "E4",
          "midi": 64,
          "duration": 0.193548,
          "velocity": 0.818898
        },
        {
          "time": 649.194557,
          "name": "E5",
          "midi": 76,
          "duration": 0.077419,
          "velocity": 0.88189
        },
        {
          "time": 649.201008,
          "name": "G4",
          "midi": 67,
          "duration": 0.386278,
          "velocity": 1
        },
        {
          "time": 649.201008,
          "name": "E5",
          "midi": 76,
          "duration": 0.386278,
          "velocity": 1
        },
        {
          "time": 649.291331,
          "name": "E5",
          "midi": 76,
          "duration": 0.077419,
          "velocity": 0.88189
        },
        {
          "time": 649.388105,
          "name": "D4",
          "midi": 62,
          "duration": 0.193139,
          "velocity": 0.818898
        },
        {
          "time": 649.388105,
          "name": "D5",
          "midi": 74,
          "duration": 0.174194,
          "velocity": 0.88189
        },
        {
          "time": 649.48488,
          "name": "D5",
          "midi": 74,
          "duration": 0.918508,
          "velocity": 0.88189
        },
        {
          "time": 649.581245,
          "name": "C4",
          "midi": 60,
          "duration": 0.181269,
          "velocity": 0.818898
        },
        {
          "time": 649.581245,
          "name": "C5",
          "midi": 72,
          "duration": 0.072508,
          "velocity": 0.88189
        },
        {
          "time": 649.671879,
          "name": "C5",
          "midi": 72,
          "duration": 0.072508,
          "velocity": 0.88189
        },
        {
          "time": 649.762514,
          "name": "B3",
          "midi": 59,
          "duration": 0.181678,
          "velocity": 0.818898
        },
        {
          "time": 649.762514,
          "name": "B4",
          "midi": 71,
          "duration": 0.072508,
          "velocity": 0.88189
        },
        {
          "time": 649.853148,
          "name": "B4",
          "midi": 71,
          "duration": 0.072508,
          "velocity": 0.88189
        },
        {
          "time": 649.940966,
          "name": "E5",
          "midi": 76,
          "duration": 0.386892,
          "velocity": 1
        },
        {
          "time": 649.940966,
          "name": "A4",
          "midi": 69,
          "duration": 0.386892,
          "velocity": 1
        },
        {
          "time": 649.944192,
          "name": "F#4",
          "midi": 66,
          "duration": 0.193548,
          "velocity": 0.818898
        },
        {
          "time": 649.944192,
          "name": "F#5",
          "midi": 78,
          "duration": 0.077419,
          "velocity": 0.88189
        },
        {
          "time": 649.950643,
          "name": "A4",
          "midi": 69,
          "duration": 0.386278,
          "velocity": 1
        },
        {
          "time": 649.950643,
          "name": "E5",
          "midi": 76,
          "duration": 0.386278,
          "velocity": 1
        },
        {
          "time": 650.040966,
          "name": "F#5",
          "midi": 78,
          "duration": 0.077419,
          "velocity": 0.88189
        },
        {
          "time": 650.13774,
          "name": "E4",
          "midi": 64,
          "duration": 0.193139,
          "velocity": 0.818898
        },
        {
          "time": 650.13774,
          "name": "E5",
          "midi": 76,
          "duration": 0.077419,
          "velocity": 0.88189
        },
        {
          "time": 650.234515,
          "name": "E5",
          "midi": 76,
          "duration": 0.077419,
          "velocity": 0.88189
        },
        {
          "time": 650.33088,
          "name": "D4",
          "midi": 62,
          "duration": 0.181269,
          "velocity": 0.818898
        },
        {
          "time": 650.33088,
          "name": "D5",
          "midi": 74,
          "duration": 0.163142,
          "velocity": 0.88189
        },
        {
          "time": 650.421514,
          "name": "D5",
          "midi": 74,
          "duration": 4.291456,
          "velocity": 0.88189
        },
        {
          "time": 650.512149,
          "name": "C4",
          "midi": 60,
          "duration": 0.181678,
          "velocity": 0.818898
        },
        {
          "time": 650.512149,
          "name": "C5",
          "midi": 72,
          "duration": 0.072508,
          "velocity": 0.88189
        },
        {
          "time": 650.602783,
          "name": "C5",
          "midi": 72,
          "duration": 0.072508,
          "velocity": 0.88189
        },
        {
          "time": 650.690601,
          "name": "F#4",
          "midi": 66,
          "duration": 0.386892,
          "velocity": 1
        },
        {
          "time": 650.690601,
          "name": "D5",
          "midi": 74,
          "duration": 0.386892,
          "velocity": 1
        },
        {
          "time": 650.693827,
          "name": "B3",
          "midi": 59,
          "duration": 0.193548,
          "velocity": 0.818898
        },
        {
          "time": 650.693827,
          "name": "B4",
          "midi": 71,
          "duration": 0.077419,
          "velocity": 0.88189
        },
        {
          "time": 650.700278,
          "name": "F#4",
          "midi": 66,
          "duration": 0.386278,
          "velocity": 1
        },
        {
          "time": 650.700278,
          "name": "D5",
          "midi": 74,
          "duration": 0.386278,
          "velocity": 1
        },
        {
          "time": 650.790601,
          "name": "B4",
          "midi": 71,
          "duration": 0.077419,
          "velocity": 0.88189
        },
        {
          "time": 650.887375,
          "name": "A3",
          "midi": 57,
          "duration": 0.193139,
          "velocity": 0.818898
        },
        {
          "time": 650.887375,
          "name": "A4",
          "midi": 69,
          "duration": 0.077419,
          "velocity": 0.88189
        },
        {
          "time": 650.98415,
          "name": "A4",
          "midi": 69,
          "duration": 0.077419,
          "velocity": 0.88189
        },
        {
          "time": 651.080515,
          "name": "E4",
          "midi": 64,
          "duration": 0.181269,
          "velocity": 0.818898
        },
        {
          "time": 651.080515,
          "name": "E5",
          "midi": 76,
          "duration": 0.072508,
          "velocity": 0.88189
        },
        {
          "time": 651.171149,
          "name": "E5",
          "midi": 76,
          "duration": 0.072508,
          "velocity": 0.88189
        },
        {
          "time": 651.261784,
          "name": "F#4",
          "midi": 66,
          "duration": 0.181678,
          "velocity": 0.818898
        },
        {
          "time": 651.261784,
          "name": "F#5",
          "midi": 78,
          "duration": 0.072508,
          "velocity": 0.88189
        },
        {
          "time": 651.352418,
          "name": "F#5",
          "midi": 78,
          "duration": 0.072508,
          "velocity": 0.88189
        },
        {
          "time": 651.440236,
          "name": "G4",
          "midi": 67,
          "duration": 0.386892,
          "velocity": 1
        },
        {
          "time": 651.440236,
          "name": "G5",
          "midi": 79,
          "duration": 0.386892,
          "velocity": 1
        },
        {
          "time": 651.443462,
          "name": "B4",
          "midi": 71,
          "duration": 0.386688,
          "velocity": 0.818898
        },
        {
          "time": 651.443462,
          "name": "G4",
          "midi": 67,
          "duration": 0.386688,
          "velocity": 0.818898
        },
        {
          "time": 651.443462,
          "name": "G5",
          "midi": 79,
          "duration": 0.077419,
          "velocity": 0.88189
        },
        {
          "time": 651.449913,
          "name": "G4",
          "midi": 67,
          "duration": 0.386278,
          "velocity": 1
        },
        {
          "time": 651.449913,
          "name": "B4",
          "midi": 71,
          "duration": 0.386278,
          "velocity": 1
        },
        {
          "time": 651.540236,
          "name": "G5",
          "midi": 79,
          "duration": 0.077419,
          "velocity": 0.88189
        },
        {
          "time": 651.63701,
          "name": "G5",
          "midi": 79,
          "duration": 0.077419,
          "velocity": 0.88189
        },
        {
          "time": 651.733785,
          "name": "G5",
          "midi": 79,
          "duration": 0.077419,
          "velocity": 0.88189
        },
        {
          "time": 651.827128,
          "name": "G4",
          "midi": 67,
          "duration": 0.362743,
          "velocity": 1
        },
        {
          "time": 651.827128,
          "name": "G5",
          "midi": 79,
          "duration": 0.362743,
          "velocity": 1
        },
        {
          "time": 651.83015,
          "name": "B4",
          "midi": 71,
          "duration": 0.362947,
          "velocity": 0.818898
        },
        {
          "time": 651.83015,
          "name": "G4",
          "midi": 67,
          "duration": 0.362947,
          "velocity": 0.818898
        },
        {
          "time": 651.83015,
          "name": "G5",
          "midi": 79,
          "duration": 0.072508,
          "velocity": 0.88189
        },
        {
          "time": 651.836192,
          "name": "G4",
          "midi": 67,
          "duration": 0.363357,
          "velocity": 1
        },
        {
          "time": 651.836192,
          "name": "B4",
          "midi": 71,
          "duration": 0.363357,
          "velocity": 1
        },
        {
          "time": 651.920784,
          "name": "G5",
          "midi": 79,
          "duration": 0.072508,
          "velocity": 0.88189
        },
        {
          "time": 652.011419,
          "name": "G5",
          "midi": 79,
          "duration": 0.072508,
          "velocity": 0.88189
        },
        {
          "time": 652.102053,
          "name": "G5",
          "midi": 79,
          "duration": 0.072508,
          "velocity": 0.88189
        },
        {
          "time": 652.189871,
          "name": "G5",
          "midi": 79,
          "duration": 0.386892,
          "velocity": 1
        },
        {
          "time": 652.189871,
          "name": "G4",
          "midi": 67,
          "duration": 0.386892,
          "velocity": 1
        },
        {
          "time": 652.193097,
          "name": "C5",
          "midi": 72,
          "duration": 0.386688,
          "velocity": 0.818898
        },
        {
          "time": 652.193097,
          "name": "A4",
          "midi": 69,
          "duration": 0.386688,
          "velocity": 0.818898
        },
        {
          "time": 652.193097,
          "name": "G5",
          "midi": 79,
          "duration": 0.077419,
          "velocity": 0.88189
        },
        {
          "time": 652.199548,
          "name": "C5",
          "midi": 72,
          "duration": 0.386278,
          "velocity": 1
        },
        {
          "time": 652.199548,
          "name": "A4",
          "midi": 69,
          "duration": 0.386278,
          "velocity": 1
        },
        {
          "time": 652.289871,
          "name": "G5",
          "midi": 79,
          "duration": 0.077419,
          "velocity": 0.88189
        },
        {
          "time": 652.386645,
          "name": "G5",
          "midi": 79,
          "duration": 0.077419,
          "velocity": 0.88189
        },
        {
          "time": 652.48342,
          "name": "G5",
          "midi": 79,
          "duration": 0.077419,
          "velocity": 0.88189
        },
        {
          "time": 652.576763,
          "name": "G5",
          "midi": 79,
          "duration": 0.362743,
          "velocity": 1
        },
        {
          "time": 652.576763,
          "name": "G4",
          "midi": 67,
          "duration": 0.362743,
          "velocity": 1
        },
        {
          "time": 652.579785,
          "name": "C#5",
          "midi": 73,
          "duration": 0.362947,
          "velocity": 0.818898
        },
        {
          "time": 652.579785,
          "name": "A#4",
          "midi": 70,
          "duration": 0.362947,
          "velocity": 0.818898
        },
        {
          "time": 652.579785,
          "name": "G5",
          "midi": 79,
          "duration": 0.072508,
          "velocity": 0.88189
        },
        {
          "time": 652.585827,
          "name": "C#5",
          "midi": 73,
          "duration": 0.363357,
          "velocity": 1
        },
        {
          "time": 652.585827,
          "name": "A#4",
          "midi": 70,
          "duration": 0.363357,
          "velocity": 1
        },
        {
          "time": 652.670419,
          "name": "G5",
          "midi": 79,
          "duration": 0.072508,
          "velocity": 0.88189
        },
        {
          "time": 652.761054,
          "name": "G5",
          "midi": 79,
          "duration": 0.072508,
          "velocity": 0.88189
        },
        {
          "time": 652.851688,
          "name": "G5",
          "midi": 79,
          "duration": 0.072508,
          "velocity": 0.88189
        },
        {
          "time": 652.939506,
          "name": "G5",
          "midi": 79,
          "duration": 0.386892,
          "velocity": 1
        },
        {
          "time": 652.939506,
          "name": "G4",
          "midi": 67,
          "duration": 0.386892,
          "velocity": 1
        },
        {
          "time": 652.942732,
          "name": "B4",
          "midi": 71,
          "duration": 0.386688,
          "velocity": 0.818898
        },
        {
          "time": 652.942732,
          "name": "D5",
          "midi": 74,
          "duration": 0.386688,
          "velocity": 0.818898
        },
        {
          "time": 652.942732,
          "name": "G5",
          "midi": 79,
          "duration": 0.077419,
          "velocity": 0.88189
        },
        {
          "time": 652.949183,
          "name": "D5",
          "midi": 74,
          "duration": 0.386278,
          "velocity": 1
        },
        {
          "time": 652.949183,
          "name": "B4",
          "midi": 71,
          "duration": 0.386278,
          "velocity": 1
        },
        {
          "time": 653.039506,
          "name": "G5",
          "midi": 79,
          "duration": 0.077419,
          "velocity": 0.88189
        },
        {
          "time": 653.13628,
          "name": "G5",
          "midi": 79,
          "duration": 0.077419,
          "velocity": 0.88189
        },
        {
          "time": 653.233055,
          "name": "G5",
          "midi": 79,
          "duration": 0.077419,
          "velocity": 0.88189
        },
        {
          "time": 653.326398,
          "name": "G4",
          "midi": 67,
          "duration": 0.362743,
          "velocity": 1
        },
        {
          "time": 653.326398,
          "name": "G5",
          "midi": 79,
          "duration": 0.362743,
          "velocity": 1
        },
        {
          "time": 653.32942,
          "name": "B4",
          "midi": 71,
          "duration": 0.362947,
          "velocity": 0.818898
        },
        {
          "time": 653.32942,
          "name": "G4",
          "midi": 67,
          "duration": 0.362947,
          "velocity": 0.818898
        },
        {
          "time": 653.32942,
          "name": "G5",
          "midi": 79,
          "duration": 0.072508,
          "velocity": 0.88189
        },
        {
          "time": 653.335462,
          "name": "G4",
          "midi": 67,
          "duration": 0.363357,
          "velocity": 1
        },
        {
          "time": 653.335462,
          "name": "B4",
          "midi": 71,
          "duration": 0.363357,
          "velocity": 1
        },
        {
          "time": 653.420054,
          "name": "G5",
          "midi": 79,
          "duration": 0.072508,
          "velocity": 0.88189
        },
        {
          "time": 653.510689,
          "name": "G5",
          "midi": 79,
          "duration": 0.072508,
          "velocity": 0.88189
        },
        {
          "time": 653.601323,
          "name": "G5",
          "midi": 79,
          "duration": 0.072508,
          "velocity": 0.88189
        },
        {
          "time": 653.689141,
          "name": "G4",
          "midi": 67,
          "duration": 0.386892,
          "velocity": 1
        },
        {
          "time": 653.689141,
          "name": "G5",
          "midi": 79,
          "duration": 0.386892,
          "velocity": 1
        },
        {
          "time": 653.692367,
          "name": "A4",
          "midi": 69,
          "duration": 0.386688,
          "velocity": 0.818898
        },
        {
          "time": 653.692367,
          "name": "C5",
          "midi": 72,
          "duration": 0.386688,
          "velocity": 0.818898
        },
        {
          "time": 653.692367,
          "name": "G5",
          "midi": 79,
          "duration": 0.077419,
          "velocity": 0.88189
        },
        {
          "time": 653.698818,
          "name": "C5",
          "midi": 72,
          "duration": 0.386278,
          "velocity": 1
        },
        {
          "time": 653.698818,
          "name": "A4",
          "midi": 69,
          "duration": 0.386278,
          "velocity": 1
        },
        {
          "time": 653.789141,
          "name": "G5",
          "midi": 79,
          "duration": 0.077419,
          "velocity": 0.88189
        },
        {
          "time": 653.885915,
          "name": "G5",
          "midi": 79,
          "duration": 0.077419,
          "velocity": 0.88189
        },
        {
          "time": 653.98269,
          "name": "G5",
          "midi": 79,
          "duration": 0.077419,
          "velocity": 0.88189
        },
        {
          "time": 654.076033,
          "name": "G5",
          "midi": 79,
          "duration": 0.362743,
          "velocity": 1
        },
        {
          "time": 654.076033,
          "name": "G4",
          "midi": 67,
          "duration": 0.362743,
          "velocity": 1
        },
        {
          "time": 654.079055,
          "name": "C#5",
          "midi": 73,
          "duration": 0.362947,
          "velocity": 0.818898
        },
        {
          "time": 654.079055,
          "name": "A#4",
          "midi": 70,
          "duration": 0.362947,
          "velocity": 0.818898
        },
        {
          "time": 654.079055,
          "name": "G5",
          "midi": 79,
          "duration": 0.072508,
          "velocity": 0.88189
        },
        {
          "time": 654.085097,
          "name": "A#4",
          "midi": 70,
          "duration": 0.363357,
          "velocity": 1
        },
        {
          "time": 654.085097,
          "name": "C#5",
          "midi": 73,
          "duration": 0.363357,
          "velocity": 1
        },
        {
          "time": 654.169689,
          "name": "G5",
          "midi": 79,
          "duration": 0.072508,
          "velocity": 0.88189
        },
        {
          "time": 654.260324,
          "name": "G5",
          "midi": 79,
          "duration": 0.072508,
          "velocity": 0.88189
        },
        {
          "time": 654.350958,
          "name": "G5",
          "midi": 79,
          "duration": 0.072508,
          "velocity": 0.88189
        },
        {
          "time": 654.438776,
          "name": "G5",
          "midi": 79,
          "duration": 0.386892,
          "velocity": 1
        },
        {
          "time": 654.438776,
          "name": "G4",
          "midi": 67,
          "duration": 0.386892,
          "velocity": 1
        },
        {
          "time": 654.442002,
          "name": "D5",
          "midi": 74,
          "duration": 0.193548,
          "velocity": 0.818898
        },
        {
          "time": 654.442002,
          "name": "B4",
          "midi": 71,
          "duration": 0.193548,
          "velocity": 0.818898
        },
        {
          "time": 654.442002,
          "name": "G5",
          "midi": 79,
          "duration": 0.077419,
          "velocity": 0.88189
        },
        {
          "time": 654.448453,
          "name": "D5",
          "midi": 74,
          "duration": 0.386278,
          "velocity": 1
        },
        {
          "time": 654.448453,
          "name": "B4",
          "midi": 71,
          "duration": 0.386278,
          "velocity": 1
        },
        {
          "time": 654.538776,
          "name": "G5",
          "midi": 79,
          "duration": 0.077419,
          "velocity": 0.88189
        },
        {
          "time": 654.63555,
          "name": "D4",
          "midi": 62,
          "duration": 0.193139,
          "velocity": 0.818898
        },
        {
          "time": 654.63555,
          "name": "D5",
          "midi": 74,
          "duration": 0.174194,
          "velocity": 0.88189
        },
        {
          "time": 654.732325,
          "name": "D5",
          "midi": 74,
          "duration": 0.73028,
          "velocity": 0.88189
        },
        {
          "time": 654.82869,
          "name": "G4",
          "midi": 67,
          "duration": 0.181269,
          "velocity": 0.818898
        },
        {
          "time": 654.82869,
          "name": "G5",
          "midi": 79,
          "duration": 0.072508,
          "velocity": 0.88189
        },
        {
          "time": 654.919324,
          "name": "G5",
          "midi": 79,
          "duration": 0.072508,
          "velocity": 0.88189
        },
        {
          "time": 655.009959,
          "name": "F#4",
          "midi": 66,
          "duration": 0.181678,
          "velocity": 0.818898
        },
        {
          "time": 655.009959,
          "name": "F#5",
          "midi": 78,
          "duration": 0.072508,
          "velocity": 0.88189
        },
        {
          "time": 655.100593,
          "name": "F#5",
          "midi": 78,
          "duration": 0.072508,
          "velocity": 0.88189
        },
        {
          "time": 655.188411,
          "name": "G4",
          "midi": 67,
          "duration": 0.386892,
          "velocity": 1
        },
        {
          "time": 655.188411,
          "name": "E5",
          "midi": 76,
          "duration": 0.386892,
          "velocity": 1
        },
        {
          "time": 655.191637,
          "name": "E4",
          "midi": 64,
          "duration": 0.193548,
          "velocity": 0.818898
        },
        {
          "time": 655.191637,
          "name": "E5",
          "midi": 76,
          "duration": 0.077419,
          "velocity": 0.88189
        },
        {
          "time": 655.198088,
          "name": "G4",
          "midi": 67,
          "duration": 0.386278,
          "velocity": 1
        },
        {
          "time": 655.198088,
          "name": "E5",
          "midi": 76,
          "duration": 0.386278,
          "velocity": 1
        },
        {
          "time": 655.288411,
          "name": "E5",
          "midi": 76,
          "duration": 0.077419,
          "velocity": 0.88189
        },
        {
          "time": 655.385185,
          "name": "D4",
          "midi": 62,
          "duration": 0.193139,
          "velocity": 0.818898
        },
        {
          "time": 655.385185,
          "name": "D5",
          "midi": 74,
          "duration": 0.174194,
          "velocity": 0.88189
        },
        {
          "time": 655.48196,
          "name": "D5",
          "midi": 74,
          "duration": 0.918508,
          "velocity": 0.88189
        },
        {
          "time": 655.578325,
          "name": "C4",
          "midi": 60,
          "duration": 0.181269,
          "velocity": 0.818898
        },
        {
          "time": 655.578325,
          "name": "C5",
          "midi": 72,
          "duration": 0.072508,
          "velocity": 0.88189
        },
        {
          "time": 655.668959,
          "name": "C5",
          "midi": 72,
          "duration": 0.072508,
          "velocity": 0.88189
        },
        {
          "time": 655.759594,
          "name": "B3",
          "midi": 59,
          "duration": 0.181678,
          "velocity": 0.818898
        },
        {
          "time": 655.759594,
          "name": "B4",
          "midi": 71,
          "duration": 0.072508,
          "velocity": 0.88189
        },
        {
          "time": 655.850228,
          "name": "B4",
          "midi": 71,
          "duration": 0.072508,
          "velocity": 0.88189
        },
        {
          "time": 655.938046,
          "name": "E5",
          "midi": 76,
          "duration": 0.386892,
          "velocity": 1
        },
        {
          "time": 655.938046,
          "name": "A4",
          "midi": 69,
          "duration": 0.386892,
          "velocity": 1
        },
        {
          "time": 655.941272,
          "name": "F#4",
          "midi": 66,
          "duration": 0.193548,
          "velocity": 0.818898
        },
        {
          "time": 655.941272,
          "name": "F#5",
          "midi": 78,
          "duration": 0.077419,
          "velocity": 0.88189
        },
        {
          "time": 655.947723,
          "name": "E5",
          "midi": 76,
          "duration": 0.386278,
          "velocity": 1
        },
        {
          "time": 655.947723,
          "name": "A4",
          "midi": 69,
          "duration": 0.386278,
          "velocity": 1
        },
        {
          "time": 656.038046,
          "name": "F#5",
          "midi": 78,
          "duration": 0.077419,
          "velocity": 0.88189
        },
        {
          "time": 656.13482,
          "name": "E4",
          "midi": 64,
          "duration": 0.193139,
          "velocity": 0.818898
        },
        {
          "time": 656.13482,
          "name": "E5",
          "midi": 76,
          "duration": 0.077419,
          "velocity": 0.88189
        },
        {
          "time": 656.231595,
          "name": "E5",
          "midi": 76,
          "duration": 0.077419,
          "velocity": 0.88189
        },
        {
          "time": 656.32796,
          "name": "D4",
          "midi": 62,
          "duration": 0.181269,
          "velocity": 0.818898
        },
        {
          "time": 656.32796,
          "name": "D5",
          "midi": 74,
          "duration": 0.163142,
          "velocity": 0.88189
        },
        {
          "time": 656.418594,
          "name": "D5",
          "midi": 74,
          "duration": 1.292916,
          "velocity": 0.88189
        },
        {
          "time": 656.509229,
          "name": "C4",
          "midi": 60,
          "duration": 0.181678,
          "velocity": 0.818898
        },
        {
          "time": 656.509229,
          "name": "C5",
          "midi": 72,
          "duration": 0.072508,
          "velocity": 0.88189
        },
        {
          "time": 656.599863,
          "name": "C5",
          "midi": 72,
          "duration": 0.072508,
          "velocity": 0.88189
        },
        {
          "time": 656.687681,
          "name": "F#4",
          "midi": 66,
          "duration": 0.386892,
          "velocity": 1
        },
        {
          "time": 656.687681,
          "name": "D5",
          "midi": 74,
          "duration": 0.386892,
          "velocity": 1
        },
        {
          "time": 656.690907,
          "name": "B3",
          "midi": 59,
          "duration": 0.193548,
          "velocity": 0.818898
        },
        {
          "time": 656.690907,
          "name": "B4",
          "midi": 71,
          "duration": 0.077419,
          "velocity": 0.88189
        },
        {
          "time": 656.697358,
          "name": "F#4",
          "midi": 66,
          "duration": 0.386278,
          "velocity": 1
        },
        {
          "time": 656.697358,
          "name": "D5",
          "midi": 74,
          "duration": 0.386278,
          "velocity": 1
        },
        {
          "time": 656.787681,
          "name": "B4",
          "midi": 71,
          "duration": 0.077419,
          "velocity": 0.88189
        },
        {
          "time": 656.884455,
          "name": "A3",
          "midi": 57,
          "duration": 0.193139,
          "velocity": 0.818898
        },
        {
          "time": 656.884455,
          "name": "A4",
          "midi": 69,
          "duration": 0.077419,
          "velocity": 0.88189
        },
        {
          "time": 656.98123,
          "name": "A4",
          "midi": 69,
          "duration": 0.077419,
          "velocity": 0.88189
        },
        {
          "time": 657.077595,
          "name": "E4",
          "midi": 64,
          "duration": 0.181269,
          "velocity": 0.818898
        },
        {
          "time": 657.077595,
          "name": "E5",
          "midi": 76,
          "duration": 0.072508,
          "velocity": 0.88189
        },
        {
          "time": 657.168229,
          "name": "E5",
          "midi": 76,
          "duration": 0.072508,
          "velocity": 0.88189
        },
        {
          "time": 657.258864,
          "name": "F#4",
          "midi": 66,
          "duration": 0.181678,
          "velocity": 0.818898
        },
        {
          "time": 657.258864,
          "name": "F#5",
          "midi": 78,
          "duration": 0.072508,
          "velocity": 0.88189
        },
        {
          "time": 657.349498,
          "name": "F#5",
          "midi": 78,
          "duration": 0.072508,
          "velocity": 0.88189
        },
        {
          "time": 657.437316,
          "name": "B4",
          "midi": 71,
          "duration": 0.386892,
          "velocity": 1
        },
        {
          "time": 657.437316,
          "name": "G5",
          "midi": 79,
          "duration": 0.386892,
          "velocity": 1
        },
        {
          "time": 657.440542,
          "name": "D5",
          "midi": 74,
          "duration": 0.386688,
          "velocity": 0.818898
        },
        {
          "time": 657.440542,
          "name": "G5",
          "midi": 79,
          "duration": 0.386688,
          "velocity": 0.818898
        },
        {
          "time": 657.440542,
          "name": "G5",
          "midi": 79,
          "duration": 0.077419,
          "velocity": 0.88189
        },
        {
          "time": 657.446993,
          "name": "B4",
          "midi": 71,
          "duration": 0.386278,
          "velocity": 1
        },
        {
          "time": 657.446993,
          "name": "G5",
          "midi": 79,
          "duration": 0.386278,
          "velocity": 1
        },
        {
          "time": 657.537316,
          "name": "G5",
          "midi": 79,
          "duration": 0.077419,
          "velocity": 0.88189
        },
        {
          "time": 657.63409,
          "name": "D5",
          "midi": 74,
          "duration": 0.174194,
          "velocity": 0.88189
        },
        {
          "time": 657.730865,
          "name": "D5",
          "midi": 74,
          "duration": 0.350142,
          "velocity": 0.88189
        },
        {
          "time": 657.824208,
          "name": "A4",
          "midi": 69,
          "duration": 0.362743,
          "velocity": 1
        },
        {
          "time": 657.824208,
          "name": "F#5",
          "midi": 78,
          "duration": 0.362743,
          "velocity": 1
        },
        {
          "time": 657.82723,
          "name": "F#5",
          "midi": 78,
          "duration": 0.362947,
          "velocity": 0.818898
        },
        {
          "time": 657.82723,
          "name": "D5",
          "midi": 74,
          "duration": 0.362947,
          "velocity": 0.818898
        },
        {
          "time": 657.82723,
          "name": "F#5",
          "midi": 78,
          "duration": 0.072508,
          "velocity": 0.88189
        },
        {
          "time": 657.833272,
          "name": "A4",
          "midi": 69,
          "duration": 0.363357,
          "velocity": 1
        },
        {
          "time": 657.833272,
          "name": "F#5",
          "midi": 78,
          "duration": 0.363357,
          "velocity": 1
        },
        {
          "time": 657.917864,
          "name": "F#5",
          "midi": 78,
          "duration": 0.072508,
          "velocity": 0.88189
        },
        {
          "time": 658.008499,
          "name": "D5",
          "midi": 74,
          "duration": 0.163142,
          "velocity": 0.88189
        },
        {
          "time": 658.099133,
          "name": "D5",
          "midi": 74,
          "duration": 0.362012,
          "velocity": 0.88189
        },
        {
          "time": 658.186951,
          "name": "G5",
          "midi": 79,
          "duration": 0.386892,
          "velocity": 1
        },
        {
          "time": 658.186951,
          "name": "B4",
          "midi": 71,
          "duration": 0.386892,
          "velocity": 1
        },
        {
          "time": 658.190177,
          "name": "G5",
          "midi": 79,
          "duration": 0.386688,
          "velocity": 0.818898
        },
        {
          "time": 658.190177,
          "name": "D5",
          "midi": 74,
          "duration": 0.386688,
          "velocity": 0.818898
        },
        {
          "time": 658.190177,
          "name": "G5",
          "midi": 79,
          "duration": 0.077419,
          "velocity": 0.88189
        },
        {
          "time": 658.196628,
          "name": "B4",
          "midi": 71,
          "duration": 0.386278,
          "velocity": 1
        },
        {
          "time": 658.196628,
          "name": "G5",
          "midi": 79,
          "duration": 0.386278,
          "velocity": 1
        },
        {
          "time": 658.286951,
          "name": "G5",
          "midi": 79,
          "duration": 0.077419,
          "velocity": 0.88189
        },
        {
          "time": 658.383725,
          "name": "D5",
          "midi": 74,
          "duration": 0.174194,
          "velocity": 0.88189
        },
        {
          "time": 658.4805,
          "name": "D5",
          "midi": 74,
          "duration": 0.350142,
          "velocity": 0.88189
        },
        {
          "time": 658.573843,
          "name": "F#5",
          "midi": 78,
          "duration": 0.362743,
          "velocity": 1
        },
        {
          "time": 658.573843,
          "name": "A4",
          "midi": 69,
          "duration": 0.362743,
          "velocity": 1
        },
        {
          "time": 658.576865,
          "name": "D5",
          "midi": 74,
          "duration": 0.362947,
          "velocity": 0.818898
        },
        {
          "time": 658.576865,
          "name": "F#5",
          "midi": 78,
          "duration": 0.362947,
          "velocity": 0.818898
        },
        {
          "time": 658.576865,
          "name": "F#5",
          "midi": 78,
          "duration": 0.072508,
          "velocity": 0.88189
        },
        {
          "time": 658.582907,
          "name": "A4",
          "midi": 69,
          "duration": 0.363357,
          "velocity": 1
        },
        {
          "time": 658.582907,
          "name": "F#5",
          "midi": 78,
          "duration": 0.363357,
          "velocity": 1
        },
        {
          "time": 658.667499,
          "name": "F#5",
          "midi": 78,
          "duration": 0.072508,
          "velocity": 0.88189
        },
        {
          "time": 658.758134,
          "name": "D5",
          "midi": 74,
          "duration": 0.163142,
          "velocity": 0.88189
        },
        {
          "time": 658.848768,
          "name": "D5",
          "midi": 74,
          "duration": 0.362012,
          "velocity": 0.88189
        },
        {
          "time": 658.936586,
          "name": "B4",
          "midi": 71,
          "duration": 0.386892,
          "velocity": 1
        },
        {
          "time": 658.936586,
          "name": "G5",
          "midi": 79,
          "duration": 0.386892,
          "velocity": 1
        },
        {
          "time": 658.939812,
          "name": "D5",
          "midi": 74,
          "duration": 0.386688,
          "velocity": 0.818898
        },
        {
          "time": 658.939812,
          "name": "G5",
          "midi": 79,
          "duration": 0.386688,
          "velocity": 0.818898
        },
        {
          "time": 658.939812,
          "name": "G5",
          "midi": 79,
          "duration": 0.077419,
          "velocity": 0.88189
        },
        {
          "time": 658.946263,
          "name": "B4",
          "midi": 71,
          "duration": 0.386278,
          "velocity": 1
        },
        {
          "time": 658.946263,
          "name": "G5",
          "midi": 79,
          "duration": 0.386278,
          "velocity": 1
        },
        {
          "time": 659.036586,
          "name": "G5",
          "midi": 79,
          "duration": 0.077419,
          "velocity": 0.88189
        },
        {
          "time": 659.13336,
          "name": "D5",
          "midi": 74,
          "duration": 0.174194,
          "velocity": 0.88189
        },
        {
          "time": 659.230135,
          "name": "D5",
          "midi": 74,
          "duration": 0.350142,
          "velocity": 0.88189
        },
        {
          "time": 659.323478,
          "name": "A4",
          "midi": 69,
          "duration": 0.362743,
          "velocity": 1
        },
        {
          "time": 659.323478,
          "name": "F#5",
          "midi": 78,
          "duration": 0.362743,
          "velocity": 1
        },
        {
          "time": 659.3265,
          "name": "F#5",
          "midi": 78,
          "duration": 0.362947,
          "velocity": 0.818898
        },
        {
          "time": 659.3265,
          "name": "D5",
          "midi": 74,
          "duration": 0.362947,
          "velocity": 0.818898
        },
        {
          "time": 659.3265,
          "name": "F#5",
          "midi": 78,
          "duration": 0.072508,
          "velocity": 0.88189
        },
        {
          "time": 659.332542,
          "name": "A4",
          "midi": 69,
          "duration": 0.363357,
          "velocity": 1
        },
        {
          "time": 659.332542,
          "name": "F#5",
          "midi": 78,
          "duration": 0.363357,
          "velocity": 1
        },
        {
          "time": 659.417134,
          "name": "F#5",
          "midi": 78,
          "duration": 0.072508,
          "velocity": 0.88189
        },
        {
          "time": 659.507769,
          "name": "D5",
          "midi": 74,
          "duration": 0.163142,
          "velocity": 0.88189
        },
        {
          "time": 659.598403,
          "name": "D5",
          "midi": 74,
          "duration": 0.362012,
          "velocity": 0.88189
        },
        {
          "time": 659.686221,
          "name": "G5",
          "midi": 79,
          "duration": 0.386892,
          "velocity": 1
        },
        {
          "time": 659.686221,
          "name": "B4",
          "midi": 71,
          "duration": 0.386892,
          "velocity": 1
        },
        {
          "time": 659.689447,
          "name": "G5",
          "midi": 79,
          "duration": 0.386688,
          "velocity": 0.818898
        },
        {
          "time": 659.689447,
          "name": "D5",
          "midi": 74,
          "duration": 0.386688,
          "velocity": 0.818898
        },
        {
          "time": 659.689447,
          "name": "G5",
          "midi": 79,
          "duration": 0.077419,
          "velocity": 0.88189
        },
        {
          "time": 659.695898,
          "name": "B4",
          "midi": 71,
          "duration": 0.386278,
          "velocity": 1
        },
        {
          "time": 659.695898,
          "name": "G5",
          "midi": 79,
          "duration": 0.386278,
          "velocity": 1
        },
        {
          "time": 659.786221,
          "name": "G5",
          "midi": 79,
          "duration": 0.077419,
          "velocity": 0.88189
        },
        {
          "time": 659.882995,
          "name": "D5",
          "midi": 74,
          "duration": 0.174194,
          "velocity": 0.88189
        },
        {
          "time": 659.97977,
          "name": "D5",
          "midi": 74,
          "duration": 0.350142,
          "velocity": 0.88189
        },
        {
          "time": 660.073113,
          "name": "F#5",
          "midi": 78,
          "duration": 0.362743,
          "velocity": 1
        },
        {
          "time": 660.073113,
          "name": "A4",
          "midi": 69,
          "duration": 0.362743,
          "velocity": 1
        },
        {
          "time": 660.076135,
          "name": "D5",
          "midi": 74,
          "duration": 0.362947,
          "velocity": 0.818898
        },
        {
          "time": 660.076135,
          "name": "F#5",
          "midi": 78,
          "duration": 0.362947,
          "velocity": 0.818898
        },
        {
          "time": 660.076135,
          "name": "F#5",
          "midi": 78,
          "duration": 0.072508,
          "velocity": 0.88189
        },
        {
          "time": 660.082177,
          "name": "A4",
          "midi": 69,
          "duration": 0.363357,
          "velocity": 1
        },
        {
          "time": 660.082177,
          "name": "F#5",
          "midi": 78,
          "duration": 0.363357,
          "velocity": 1
        },
        {
          "time": 660.166769,
          "name": "F#5",
          "midi": 78,
          "duration": 0.072508,
          "velocity": 0.88189
        },
        {
          "time": 660.257404,
          "name": "D5",
          "midi": 74,
          "duration": 0.163142,
          "velocity": 0.88189
        },
        {
          "time": 660.435856,
          "name": "B4",
          "midi": 71,
          "duration": 0.386892,
          "velocity": 1
        },
        {
          "time": 660.435856,
          "name": "G5",
          "midi": 79,
          "duration": 0.386892,
          "velocity": 1
        },
        {
          "time": 660.439082,
          "name": "D5",
          "midi": 74,
          "duration": 0.386688,
          "velocity": 0.818898
        },
        {
          "time": 660.439082,
          "name": "G5",
          "midi": 79,
          "duration": 0.386688,
          "velocity": 0.818898
        },
        {
          "time": 660.439082,
          "name": "G5",
          "midi": 79,
          "duration": 0.386688,
          "velocity": 0.88189
        },
        {
          "time": 660.445533,
          "name": "B4",
          "midi": 71,
          "duration": 0.386278,
          "velocity": 1
        },
        {
          "time": 660.445533,
          "name": "G5",
          "midi": 79,
          "duration": 0.386278,
          "velocity": 1
        },
        {
          "time": 660.822748,
          "name": "B4",
          "midi": 71,
          "duration": 0.362743,
          "velocity": 1
        },
        {
          "time": 660.822748,
          "name": "G5",
          "midi": 79,
          "duration": 0.362743,
          "velocity": 1
        },
        {
          "time": 660.82577,
          "name": "G5",
          "midi": 79,
          "duration": 0.362947,
          "velocity": 0.818898
        },
        {
          "time": 660.82577,
          "name": "D5",
          "midi": 74,
          "duration": 0.362947,
          "velocity": 0.818898
        },
        {
          "time": 660.82577,
          "name": "G5",
          "midi": 79,
          "duration": 0.362947,
          "velocity": 0.88189
        },
        {
          "time": 660.82577,
          "name": "B4",
          "midi": 71,
          "duration": 0.362947,
          "velocity": 0.88189
        },
        {
          "time": 660.82577,
          "name": "D4",
          "midi": 62,
          "duration": 0.362947,
          "velocity": 0.88189
        },
        {
          "time": 660.82577,
          "name": "G3",
          "midi": 55,
          "duration": 0.362947,
          "velocity": 0.88189
        },
        {
          "time": 660.831812,
          "name": "B4",
          "midi": 71,
          "duration": 0.363357,
          "velocity": 1
        },
        {
          "time": 660.831812,
          "name": "G5",
          "midi": 79,
          "duration": 0.363357,
          "velocity": 1
        },
        {
          "time": 661.185491,
          "name": "G5",
          "midi": 79,
          "duration": 0.386892,
          "velocity": 1
        },
        {
          "time": 661.185491,
          "name": "B4",
          "midi": 71,
          "duration": 0.386892,
          "velocity": 1
        },
        {
          "time": 661.188717,
          "name": "G5",
          "midi": 79,
          "duration": 0.386688,
          "velocity": 0.818898
        },
        {
          "time": 661.188717,
          "name": "D5",
          "midi": 74,
          "duration": 0.386688,
          "velocity": 0.818898
        },
        {
          "time": 661.188717,
          "name": "G5",
          "midi": 79,
          "duration": 0.386688,
          "velocity": 0.88189
        },
        {
          "time": 661.188717,
          "name": "B4",
          "midi": 71,
          "duration": 0.386688,
          "velocity": 0.88189
        },
        {
          "time": 661.188717,
          "name": "D4",
          "midi": 62,
          "duration": 0.386688,
          "velocity": 0.88189
        },
        {
          "time": 661.188717,
          "name": "G3",
          "midi": 55,
          "duration": 0.386688,
          "velocity": 0.88189
        },
        {
          "time": 661.195168,
          "name": "B4",
          "midi": 71,
          "duration": 0.386278,
          "velocity": 1
        },
        {
          "time": 661.195168,
          "name": "G5",
          "midi": 79,
          "duration": 0.386278,
          "velocity": 1
        },
        {
          "time": 661.572383,
          "name": "G5",
          "midi": 79,
          "duration": 0.362743,
          "velocity": 1
        },
        {
          "time": 661.572383,
          "name": "B4",
          "midi": 71,
          "duration": 0.362743,
          "velocity": 1
        },
        {
          "time": 661.575405,
          "name": "D5",
          "midi": 74,
          "duration": 0.362947,
          "velocity": 0.818898
        },
        {
          "time": 661.575405,
          "name": "G5",
          "midi": 79,
          "duration": 0.362947,
          "velocity": 0.818898
        },
        {
          "time": 661.575405,
          "name": "G5",
          "midi": 79,
          "duration": 0.362947,
          "velocity": 0.88189
        },
        {
          "time": 661.575405,
          "name": "B4",
          "midi": 71,
          "duration": 0.362947,
          "velocity": 0.88189
        },
        {
          "time": 661.575405,
          "name": "D4",
          "midi": 62,
          "duration": 0.362947,
          "velocity": 0.88189
        },
        {
          "time": 661.575405,
          "name": "G3",
          "midi": 55,
          "duration": 0.362947,
          "velocity": 0.88189
        },
        {
          "time": 661.581447,
          "name": "B4",
          "midi": 71,
          "duration": 0.363357,
          "velocity": 1
        },
        {
          "time": 661.581447,
          "name": "G5",
          "midi": 79,
          "duration": 0.363357,
          "velocity": 1
        },
        {
          "time": 661.935126,
          "name": "B4",
          "midi": 71,
          "duration": 0.386996,
          "velocity": 1
        },
        {
          "time": 661.935126,
          "name": "G5",
          "midi": 79,
          "duration": 0.386996,
          "velocity": 1
        },
        {
          "time": 661.938352,
          "name": "D5",
          "midi": 74,
          "duration": 0.386895,
          "velocity": 0.818898
        },
        {
          "time": 661.938352,
          "name": "G5",
          "midi": 79,
          "duration": 0.386895,
          "velocity": 0.818898
        },
        {
          "time": 661.938352,
          "name": "G5",
          "midi": 79,
          "duration": 0.386895,
          "velocity": 0.88189
        },
        {
          "time": 661.938352,
          "name": "B4",
          "midi": 71,
          "duration": 0.386895,
          "velocity": 0.88189
        },
        {
          "time": 661.938352,
          "name": "D4",
          "midi": 62,
          "duration": 0.386895,
          "velocity": 0.88189
        },
        {
          "time": 661.938352,
          "name": "G3",
          "midi": 55,
          "duration": 0.386895,
          "velocity": 0.88189
        },
        {
          "time": 661.944803,
          "name": "B4",
          "midi": 71,
          "duration": 0.386694,
          "velocity": 1
        },
        {
          "time": 661.944803,
          "name": "G5",
          "midi": 79,
          "duration": 0.386694,
          "velocity": 1
        },
        {
          "time": 662.322122,
          "name": "B4",
          "midi": 71,
          "duration": 0.375265,
          "velocity": 1
        },
        {
          "time": 662.322122,
          "name": "G5",
          "midi": 79,
          "duration": 0.375265,
          "velocity": 1
        },
        {
          "time": 662.325247,
          "name": "G5",
          "midi": 79,
          "duration": 0.37553,
          "velocity": 0.818898
        },
        {
          "time": 662.325247,
          "name": "D5",
          "midi": 74,
          "duration": 0.37553,
          "velocity": 0.818898
        },
        {
          "time": 662.325247,
          "name": "G5",
          "midi": 79,
          "duration": 0.37553,
          "velocity": 0.88189
        },
        {
          "time": 662.325247,
          "name": "B4",
          "midi": 71,
          "duration": 0.37553,
          "velocity": 0.88189
        },
        {
          "time": 662.325247,
          "name": "D4",
          "midi": 62,
          "duration": 0.37553,
          "velocity": 0.88189
        },
        {
          "time": 662.325247,
          "name": "G3",
          "midi": 55,
          "duration": 0.37553,
          "velocity": 0.88189
        },
        {
          "time": 662.331497,
          "name": "B4",
          "midi": 71,
          "duration": 0.376059,
          "velocity": 1
        },
        {
          "time": 662.331497,
          "name": "G5",
          "midi": 79,
          "duration": 0.376059,
          "velocity": 1
        },
        {
          "time": 662.697387,
          "name": "G5",
          "midi": 79,
          "duration": 0.406924,
          "velocity": 1
        },
        {
          "time": 662.697387,
          "name": "B4",
          "midi": 71,
          "duration": 0.406924,
          "velocity": 1
        },
        {
          "time": 662.700777,
          "name": "G5",
          "midi": 79,
          "duration": 0.407067,
          "velocity": 0.818898
        },
        {
          "time": 662.700777,
          "name": "D5",
          "midi": 74,
          "duration": 0.407067,
          "velocity": 0.818898
        },
        {
          "time": 662.700777,
          "name": "G5",
          "midi": 79,
          "duration": 0.407067,
          "velocity": 0.88189
        },
        {
          "time": 662.700777,
          "name": "B4",
          "midi": 71,
          "duration": 0.407067,
          "velocity": 0.88189
        },
        {
          "time": 662.700777,
          "name": "D4",
          "midi": 62,
          "duration": 0.407067,
          "velocity": 0.88189
        },
        {
          "time": 662.700777,
          "name": "G3",
          "midi": 55,
          "duration": 0.407067,
          "velocity": 0.88189
        },
        {
          "time": 662.707557,
          "name": "B4",
          "midi": 71,
          "duration": 0.407355,
          "velocity": 1
        },
        {
          "time": 662.707557,
          "name": "G5",
          "midi": 79,
          "duration": 0.407355,
          "velocity": 1
        },
        {
          "time": 663.104311,
          "name": "G5",
          "midi": 79,
          "duration": 0.424171,
          "velocity": 1
        },
        {
          "time": 663.104311,
          "name": "B4",
          "midi": 71,
          "duration": 0.424171,
          "velocity": 1
        },
        {
          "time": 663.107844,
          "name": "D5",
          "midi": 74,
          "duration": 0.424314,
          "velocity": 0.818898
        },
        {
          "time": 663.107844,
          "name": "G5",
          "midi": 79,
          "duration": 0.424314,
          "velocity": 0.818898
        },
        {
          "time": 663.107844,
          "name": "G5",
          "midi": 79,
          "duration": 0.424314,
          "velocity": 0.88189
        },
        {
          "time": 663.107844,
          "name": "B4",
          "midi": 71,
          "duration": 0.424314,
          "velocity": 0.88189
        },
        {
          "time": 663.107844,
          "name": "D4",
          "midi": 62,
          "duration": 0.424314,
          "velocity": 0.88189
        },
        {
          "time": 663.107844,
          "name": "G3",
          "midi": 55,
          "duration": 0.424314,
          "velocity": 0.88189
        },
        {
          "time": 663.114912,
          "name": "B4",
          "midi": 71,
          "duration": 0.4246,
          "velocity": 1
        },
        {
          "time": 663.114912,
          "name": "G5",
          "midi": 79,
          "duration": 0.4246,
          "velocity": 1
        },
        {
          "time": 663.528482,
          "name": "B4",
          "midi": 71,
          "duration": 0.441331,
          "velocity": 1
        },
        {
          "time": 663.528482,
          "name": "G5",
          "midi": 79,
          "duration": 0.441331,
          "velocity": 1
        },
        {
          "time": 663.532158,
          "name": "D5",
          "midi": 74,
          "duration": 0.441486,
          "velocity": 0.818898
        },
        {
          "time": 663.532158,
          "name": "G5",
          "midi": 79,
          "duration": 0.441486,
          "velocity": 0.818898
        },
        {
          "time": 663.532158,
          "name": "G5",
          "midi": 79,
          "duration": 0.441486,
          "velocity": 0.88189
        },
        {
          "time": 663.532158,
          "name": "B4",
          "midi": 71,
          "duration": 0.441486,
          "velocity": 0.88189
        },
        {
          "time": 663.532158,
          "name": "D4",
          "midi": 62,
          "duration": 0.441486,
          "velocity": 0.88189
        },
        {
          "time": 663.532158,
          "name": "G3",
          "midi": 55,
          "duration": 0.441486,
          "velocity": 0.88189
        },
        {
          "time": 663.539511,
          "name": "B4",
          "midi": 71,
          "duration": 0.441796,
          "velocity": 1
        },
        {
          "time": 663.539511,
          "name": "G5",
          "midi": 79,
          "duration": 0.441796,
          "velocity": 1
        },
        {
          "time": 664.429833,
          "name": "B4",
          "midi": 71,
          "duration": 0.489796,
          "velocity": 1
        },
        {
          "time": 664.429833,
          "name": "G5",
          "midi": 79,
          "duration": 0.489796,
          "velocity": 1
        },
        {
          "time": 664.433915,
          "name": "G5",
          "midi": 79,
          "duration": 0.489796,
          "velocity": 0.818898
        },
        {
          "time": 664.433915,
          "name": "D5",
          "midi": 74,
          "duration": 0.489796,
          "velocity": 0.818898
        },
        {
          "time": 664.433915,
          "name": "G5",
          "midi": 79,
          "duration": 0.489796,
          "velocity": 0.88189
        },
        {
          "time": 664.433915,
          "name": "B4",
          "midi": 71,
          "duration": 0.489796,
          "velocity": 0.88189
        },
        {
          "time": 664.433915,
          "name": "D4",
          "midi": 62,
          "duration": 0.489796,
          "velocity": 0.88189
        },
        {
          "time": 664.433915,
          "name": "G3",
          "midi": 55,
          "duration": 0.489796,
          "velocity": 0.88189
        },
        {
          "time": 664.442078,
          "name": "B4",
          "midi": 71,
          "duration": 0.489796,
          "velocity": 1
        },
        {
          "time": 664.442078,
          "name": "G5",
          "midi": 79,
          "duration": 0.489796,
          "velocity": 1
        },
        {
          "time": 665.410343,
          "name": "G4",
          "midi": 67,
          "duration": 1.603333,
          "velocity": 1
        },
        {
          "time": 665.415343,
          "name": "G3",
          "midi": 55,
          "duration": 1.606667,
          "velocity": 0.818898
        },
        {
          "time": 665.415343,
          "name": "G3",
          "midi": 55,
          "duration": 1.606667,
          "velocity": 0.88189
        },
        {
          "time": 665.425343,
          "name": "G4",
          "midi": 67,
          "duration": 1.613333,
          "velocity": 1
        }
      ]
    },
    {
      "id": 2,
      "instrument": "viola",
      "startTime": 0,
      "duration": 667.193676,
      "length": 4276,
      "notes": [
        {
          "time": 0.758824,
          "name": "A4",
          "midi": 69,
          "duration": 0.335294,
          "velocity": 0.88189
        },
        {
          "time": 0.758824,
          "name": "C#4",
          "midi": 61,
          "duration": 0.335294,
          "velocity": 0.88189
        },
        {
          "time": 0.764706,
          "name": "C#4",
          "midi": 61,
          "duration": 0.335294,
          "velocity": 0.88189
        },
        {
          "time": 0.767647,
          "name": "E4",
          "midi": 64,
          "duration": 0.335294,
          "velocity": 0.88189
        },
        {
          "time": 0.767647,
          "name": "A3",
          "midi": 57,
          "duration": 0.335294,
          "velocity": 0.88189
        },
        {
          "time": 0.767647,
          "name": "A3",
          "midi": 57,
          "duration": 0.335294,
          "velocity": 0.96063
        },
        {
          "time": 1.111765,
          "name": "C#4",
          "midi": 61,
          "duration": 0.726876,
          "velocity": 0.88189
        },
        {
          "time": 1.111765,
          "name": "A4",
          "midi": 69,
          "duration": 0.726876,
          "velocity": 0.88189
        },
        {
          "time": 1.117647,
          "name": "C#4",
          "midi": 61,
          "duration": 0.72789,
          "velocity": 0.88189
        },
        {
          "time": 1.120588,
          "name": "E4",
          "midi": 64,
          "duration": 0.728397,
          "velocity": 0.88189
        },
        {
          "time": 1.120588,
          "name": "A3",
          "midi": 57,
          "duration": 0.728397,
          "velocity": 0.88189
        },
        {
          "time": 1.120588,
          "name": "A3",
          "midi": 57,
          "duration": 0.728397,
          "velocity": 0.96063
        },
        {
          "time": 1.878499,
          "name": "B4",
          "midi": 71,
          "duration": 0.335294,
          "velocity": 0.88189
        },
        {
          "time": 1.878499,
          "name": "D4",
          "midi": 62,
          "duration": 0.335294,
          "velocity": 0.88189
        },
        {
          "time": 1.884381,
          "name": "F4",
          "midi": 65,
          "duration": 0.335294,
          "velocity": 0.88189
        },
        {
          "time": 1.884381,
          "name": "D4",
          "midi": 62,
          "duration": 0.335294,
          "velocity": 0.88189
        },
        {
          "time": 1.887322,
          "name": "F4",
          "midi": 65,
          "duration": 0.335294,
          "velocity": 0.88189
        },
        {
          "time": 1.887322,
          "name": "B3",
          "midi": 59,
          "duration": 0.335294,
          "velocity": 0.88189
        },
        {
          "time": 1.887322,
          "name": "G#3",
          "midi": 56,
          "duration": 0.335294,
          "velocity": 0.96063
        },
        {
          "time": 2.23144,
          "name": "B4",
          "midi": 71,
          "duration": 0.726876,
          "velocity": 0.88189
        },
        {
          "time": 2.23144,
          "name": "D4",
          "midi": 62,
          "duration": 0.726876,
          "velocity": 0.88189
        },
        {
          "time": 2.237322,
          "name": "D4",
          "midi": 62,
          "duration": 0.72789,
          "velocity": 0.88189
        },
        {
          "time": 2.237322,
          "name": "F4",
          "midi": 65,
          "duration": 0.72789,
          "velocity": 0.88189
        },
        {
          "time": 2.240263,
          "name": "F4",
          "midi": 65,
          "duration": 0.728397,
          "velocity": 0.88189
        },
        {
          "time": 2.240263,
          "name": "B3",
          "midi": 59,
          "duration": 0.728397,
          "velocity": 0.88189
        },
        {
          "time": 2.240263,
          "name": "G#3",
          "midi": 56,
          "duration": 0.728397,
          "velocity": 0.96063
        },
        {
          "time": 2.998174,
          "name": "A4",
          "midi": 69,
          "duration": 0.335294,
          "velocity": 0.88189
        },
        {
          "time": 2.998174,
          "name": "C#4",
          "midi": 61,
          "duration": 0.335294,
          "velocity": 0.88189
        },
        {
          "time": 3.004056,
          "name": "A4",
          "midi": 69,
          "duration": 0.335294,
          "velocity": 0.88189
        },
        {
          "time": 3.004056,
          "name": "E4",
          "midi": 64,
          "duration": 0.335294,
          "velocity": 0.88189
        },
        {
          "time": 3.004056,
          "name": "C#4",
          "midi": 61,
          "duration": 0.335294,
          "velocity": 0.88189
        },
        {
          "time": 3.006997,
          "name": "A3",
          "midi": 57,
          "duration": 0.335294,
          "velocity": 0.88189
        },
        {
          "time": 3.006997,
          "name": "A4",
          "midi": 69,
          "duration": 0.335294,
          "velocity": 0.88189
        },
        {
          "time": 3.006997,
          "name": "G3",
          "midi": 55,
          "duration": 0.335294,
          "velocity": 0.96063
        },
        {
          "time": 3.351115,
          "name": "A4",
          "midi": 69,
          "duration": 0.530324,
          "velocity": 0.88189
        },
        {
          "time": 3.351115,
          "name": "C#4",
          "midi": 61,
          "duration": 0.530324,
          "velocity": 0.88189
        },
        {
          "time": 3.356997,
          "name": "C#5",
          "midi": 73,
          "duration": 0.531339,
          "velocity": 0.88189
        },
        {
          "time": 3.359938,
          "name": "A4",
          "midi": 69,
          "duration": 0.531846,
          "velocity": 0.88189
        },
        {
          "time": 3.359938,
          "name": "A3",
          "midi": 57,
          "duration": 0.531846,
          "velocity": 0.88189
        },
        {
          "time": 3.359938,
          "name": "G3",
          "midi": 55,
          "duration": 0.531846,
          "velocity": 0.96063
        },
        {
          "time": 3.912473,
          "name": "D4",
          "midi": 62,
          "duration": 0.196552,
          "velocity": 0.88189
        },
        {
          "time": 3.912473,
          "name": "A4",
          "midi": 69,
          "duration": 0.196552,
          "velocity": 0.88189
        },
        {
          "time": 3.91937,
          "name": "A4",
          "midi": 69,
          "duration": 0.195537,
          "velocity": 0.88189
        },
        {
          "time": 3.922818,
          "name": "D4",
          "midi": 62,
          "duration": 0.19503,
          "velocity": 0.88189
        },
        {
          "time": 3.922818,
          "name": "A4",
          "midi": 69,
          "duration": 0.19503,
          "velocity": 0.88189
        },
        {
          "time": 3.922818,
          "name": "F#3",
          "midi": 54,
          "duration": 0.19503,
          "velocity": 0.96063
        },
        {
          "time": 4.117849,
          "name": "C#4",
          "midi": 61,
          "duration": 0.335294,
          "velocity": 0.88189
        },
        {
          "time": 4.117849,
          "name": "A4",
          "midi": 69,
          "duration": 0.335294,
          "velocity": 0.88189
        },
        {
          "time": 4.123731,
          "name": "C#4",
          "midi": 61,
          "duration": 0.335294,
          "velocity": 0.88189
        },
        {
          "time": 4.126672,
          "name": "A4",
          "midi": 69,
          "duration": 0.335294,
          "velocity": 0.88189
        },
        {
          "time": 4.126672,
          "name": "C#4",
          "midi": 61,
          "duration": 0.335294,
          "velocity": 0.88189
        },
        {
          "time": 4.126672,
          "name": "E3",
          "midi": 52,
          "duration": 0.335294,
          "velocity": 0.96063
        },
        {
          "time": 5.237524,
          "name": "E4",
          "midi": 64,
          "duration": 0.335294,
          "velocity": 0.88189
        },
        {
          "time": 5.237524,
          "name": "A3",
          "midi": 57,
          "duration": 0.335294,
          "velocity": 0.88189
        },
        {
          "time": 5.243406,
          "name": "E4",
          "midi": 64,
          "duration": 0.335294,
          "velocity": 0.88189
        },
        {
          "time": 5.243406,
          "name": "C#4",
          "midi": 61,
          "duration": 0.335294,
          "velocity": 0.88189
        },
        {
          "time": 5.246347,
          "name": "C#4",
          "midi": 61,
          "duration": 0.335294,
          "velocity": 0.88189
        },
        {
          "time": 5.246347,
          "name": "A3",
          "midi": 57,
          "duration": 0.335294,
          "velocity": 0.88189
        },
        {
          "time": 5.246347,
          "name": "G3",
          "midi": 55,
          "duration": 0.335294,
          "velocity": 0.96063
        },
        {
          "time": 5.590465,
          "name": "A3",
          "midi": 57,
          "duration": 0.726876,
          "velocity": 0.88189
        },
        {
          "time": 5.590465,
          "name": "E4",
          "midi": 64,
          "duration": 0.726876,
          "velocity": 0.88189
        },
        {
          "time": 5.596347,
          "name": "E4",
          "midi": 64,
          "duration": 0.72789,
          "velocity": 0.88189
        },
        {
          "time": 5.596347,
          "name": "C#4",
          "midi": 61,
          "duration": 0.72789,
          "velocity": 0.88189
        },
        {
          "time": 5.599288,
          "name": "C#4",
          "midi": 61,
          "duration": 0.728397,
          "velocity": 0.88189
        },
        {
          "time": 5.599288,
          "name": "A3",
          "midi": 57,
          "duration": 0.728397,
          "velocity": 0.88189
        },
        {
          "time": 5.599288,
          "name": "G3",
          "midi": 55,
          "duration": 0.728397,
          "velocity": 0.96063
        },
        {
          "time": 6.357199,
          "name": "G#4",
          "midi": 68,
          "duration": 0.335294,
          "velocity": 0.88189
        },
        {
          "time": 6.357199,
          "name": "B3",
          "midi": 59,
          "duration": 0.335294,
          "velocity": 0.88189
        },
        {
          "time": 6.363081,
          "name": "D5",
          "midi": 74,
          "duration": 0.335294,
          "velocity": 0.88189
        },
        {
          "time": 6.363081,
          "name": "D4",
          "midi": 62,
          "duration": 0.335294,
          "velocity": 0.88189
        },
        {
          "time": 6.366022,
          "name": "D4",
          "midi": 62,
          "duration": 0.335294,
          "velocity": 0.88189
        },
        {
          "time": 6.366022,
          "name": "B3",
          "midi": 59,
          "duration": 0.335294,
          "velocity": 0.88189
        },
        {
          "time": 6.366022,
          "name": "F3",
          "midi": 53,
          "duration": 0.335294,
          "velocity": 0.96063
        },
        {
          "time": 6.71014,
          "name": "G#4",
          "midi": 68,
          "duration": 0.726876,
          "velocity": 0.88189
        },
        {
          "time": 6.71014,
          "name": "B3",
          "midi": 59,
          "duration": 0.726876,
          "velocity": 0.88189
        },
        {
          "time": 6.716022,
          "name": "D5",
          "midi": 74,
          "duration": 0.72789,
          "velocity": 0.88189
        },
        {
          "time": 6.716022,
          "name": "D4",
          "midi": 62,
          "duration": 0.72789,
          "velocity": 0.88189
        },
        {
          "time": 6.718963,
          "name": "D4",
          "midi": 62,
          "duration": 0.728397,
          "velocity": 0.88189
        },
        {
          "time": 6.718963,
          "name": "B3",
          "midi": 59,
          "duration": 0.728397,
          "velocity": 0.88189
        },
        {
          "time": 6.718963,
          "name": "F3",
          "midi": 53,
          "duration": 0.728397,
          "velocity": 0.96063
        },
        {
          "time": 7.476874,
          "name": "C#4",
          "midi": 61,
          "duration": 0.335294,
          "velocity": 0.88189
        },
        {
          "time": 7.476874,
          "name": "A3",
          "midi": 57,
          "duration": 0.335294,
          "velocity": 0.88189
        },
        {
          "time": 7.482756,
          "name": "A4",
          "midi": 69,
          "duration": 0.335294,
          "velocity": 0.88189
        },
        {
          "time": 7.485697,
          "name": "A3",
          "midi": 57,
          "duration": 0.335294,
          "velocity": 0.88189
        },
        {
          "time": 7.485697,
          "name": "C#4",
          "midi": 61,
          "duration": 0.335294,
          "velocity": 0.88189
        },
        {
          "time": 7.485697,
          "name": "E3",
          "midi": 52,
          "duration": 0.335294,
          "velocity": 0.96063
        },
        {
          "time": 7.829815,
          "name": "C#4",
          "midi": 61,
          "duration": 0.530324,
          "velocity": 0.88189
        },
        {
          "time": 7.829815,
          "name": "A3",
          "midi": 57,
          "duration": 0.530324,
          "velocity": 0.88189
        },
        {
          "time": 7.835697,
          "name": "A4",
          "midi": 69,
          "duration": 0.531339,
          "velocity": 0.88189
        },
        {
          "time": 7.838638,
          "name": "C#4",
          "midi": 61,
          "duration": 0.531846,
          "velocity": 0.88189
        },
        {
          "time": 7.838638,
          "name": "A3",
          "midi": 57,
          "duration": 0.531846,
          "velocity": 0.88189
        },
        {
          "time": 7.838638,
          "name": "E3",
          "midi": 52,
          "duration": 0.531846,
          "velocity": 0.96063
        },
        {
          "time": 8.391173,
          "name": "D4",
          "midi": 62,
          "duration": 0.196552,
          "velocity": 0.88189
        },
        {
          "time": 8.391173,
          "name": "A3",
          "midi": 57,
          "duration": 0.196552,
          "velocity": 0.88189
        },
        {
          "time": 8.39807,
          "name": "A4",
          "midi": 69,
          "duration": 0.195537,
          "velocity": 0.88189
        },
        {
          "time": 8.401518,
          "name": "D4",
          "midi": 62,
          "duration": 0.19503,
          "velocity": 0.88189
        },
        {
          "time": 8.401518,
          "name": "A3",
          "midi": 57,
          "duration": 0.19503,
          "velocity": 0.88189
        },
        {
          "time": 8.401518,
          "name": "D3",
          "midi": 50,
          "duration": 0.19503,
          "velocity": 0.96063
        },
        {
          "time": 8.596549,
          "name": "E4",
          "midi": 64,
          "duration": 0.335294,
          "velocity": 0.88189
        },
        {
          "time": 8.596549,
          "name": "A3",
          "midi": 57,
          "duration": 0.335294,
          "velocity": 0.88189
        },
        {
          "time": 8.602431,
          "name": "A4",
          "midi": 69,
          "duration": 0.335294,
          "velocity": 0.88189
        },
        {
          "time": 8.605372,
          "name": "E4",
          "midi": 64,
          "duration": 0.335294,
          "velocity": 0.88189
        },
        {
          "time": 8.605372,
          "name": "A3",
          "midi": 57,
          "duration": 0.335294,
          "velocity": 0.88189
        },
        {
          "time": 8.605372,
          "name": "C#3",
          "midi": 49,
          "duration": 0.335294,
          "velocity": 0.96063
        },
        {
          "time": 15.671877,
          "name": "A3",
          "midi": 57,
          "duration": 0.373279,
          "velocity": 0.88189
        },
        {
          "time": 15.671877,
          "name": "F#3",
          "midi": 54,
          "duration": 0.373279,
          "velocity": 0.88189
        },
        {
          "time": 16.045155,
          "name": "F#3",
          "midi": 54,
          "duration": 0.411257,
          "velocity": 0.88189
        },
        {
          "time": 16.045155,
          "name": "A3",
          "midi": 57,
          "duration": 0.411257,
          "velocity": 0.88189
        },
        {
          "time": 16.809354,
          "name": "A3",
          "midi": 57,
          "duration": 0.355477,
          "velocity": 0.88189
        },
        {
          "time": 16.809354,
          "name": "F#3",
          "midi": 54,
          "duration": 0.355477,
          "velocity": 0.88189
        },
        {
          "time": 17.16483,
          "name": "F#3",
          "midi": 54,
          "duration": 0.411257,
          "velocity": 0.88189
        },
        {
          "time": 17.16483,
          "name": "A3",
          "midi": 57,
          "duration": 0.411257,
          "velocity": 0.88189
        },
        {
          "time": 17.929029,
          "name": "A3",
          "midi": 57,
          "duration": 0.355477,
          "velocity": 0.88189
        },
        {
          "time": 17.929029,
          "name": "F#3",
          "midi": 54,
          "duration": 0.355477,
          "velocity": 0.88189
        },
        {
          "time": 18.284505,
          "name": "F#3",
          "midi": 54,
          "duration": 0.411257,
          "velocity": 0.88189
        },
        {
          "time": 18.284505,
          "name": "A3",
          "midi": 57,
          "duration": 0.411257,
          "velocity": 0.88189
        },
        {
          "time": 19.048704,
          "name": "A3",
          "midi": 57,
          "duration": 0.355477,
          "velocity": 0.88189
        },
        {
          "time": 19.048704,
          "name": "F#3",
          "midi": 54,
          "duration": 0.355477,
          "velocity": 0.88189
        },
        {
          "time": 19.40418,
          "name": "F#3",
          "midi": 54,
          "duration": 0.411257,
          "velocity": 0.88189
        },
        {
          "time": 19.40418,
          "name": "A3",
          "midi": 57,
          "duration": 0.411257,
          "velocity": 0.88189
        },
        {
          "time": 20.168379,
          "name": "A3",
          "midi": 57,
          "duration": 0.355477,
          "velocity": 0.88189
        },
        {
          "time": 20.168379,
          "name": "F#3",
          "midi": 54,
          "duration": 0.355477,
          "velocity": 0.88189
        },
        {
          "time": 20.523855,
          "name": "F#3",
          "midi": 54,
          "duration": 0.411257,
          "velocity": 0.88189
        },
        {
          "time": 20.523855,
          "name": "A3",
          "midi": 57,
          "duration": 0.411257,
          "velocity": 0.88189
        },
        {
          "time": 21.288054,
          "name": "A#3",
          "midi": 58,
          "duration": 0.355477,
          "velocity": 0.88189
        },
        {
          "time": 21.288054,
          "name": "F#3",
          "midi": 54,
          "duration": 0.355477,
          "velocity": 0.88189
        },
        {
          "time": 21.64353,
          "name": "F#3",
          "midi": 54,
          "duration": 0.411257,
          "velocity": 0.88189
        },
        {
          "time": 21.64353,
          "name": "A#3",
          "midi": 58,
          "duration": 0.411257,
          "velocity": 0.88189
        },
        {
          "time": 22.407729,
          "name": "B3",
          "midi": 59,
          "duration": 0.355477,
          "velocity": 0.88189
        },
        {
          "time": 22.407729,
          "name": "G3",
          "midi": 55,
          "duration": 0.355477,
          "velocity": 0.88189
        },
        {
          "time": 22.763205,
          "name": "B3",
          "midi": 59,
          "duration": 0.411257,
          "velocity": 0.88189
        },
        {
          "time": 22.763205,
          "name": "A3",
          "midi": 57,
          "duration": 0.411257,
          "velocity": 0.88189
        },
        {
          "time": 23.527404,
          "name": "B3",
          "midi": 59,
          "duration": 0.355477,
          "velocity": 0.88189
        },
        {
          "time": 23.527404,
          "name": "G3",
          "midi": 55,
          "duration": 0.355477,
          "velocity": 0.88189
        },
        {
          "time": 23.88288,
          "name": "G3",
          "midi": 55,
          "duration": 0.411257,
          "velocity": 0.88189
        },
        {
          "time": 23.88288,
          "name": "B3",
          "midi": 59,
          "duration": 0.411257,
          "velocity": 0.88189
        },
        {
          "time": 24.288256,
          "name": "B3",
          "midi": 59,
          "duration": 2.23935,
          "velocity": 0.88189
        },
        {
          "time": 24.647079,
          "name": "E4",
          "midi": 64,
          "duration": 0.355477,
          "velocity": 0.88189
        },
        {
          "time": 24.647079,
          "name": "B3",
          "midi": 59,
          "duration": 0.355477,
          "velocity": 0.88189
        },
        {
          "time": 25.002555,
          "name": "B3",
          "midi": 59,
          "duration": 0.411257,
          "velocity": 0.88189
        },
        {
          "time": 25.002555,
          "name": "E4",
          "midi": 64,
          "duration": 0.411257,
          "velocity": 0.88189
        },
        {
          "time": 25.766754,
          "name": "F4",
          "midi": 65,
          "duration": 0.355477,
          "velocity": 0.88189
        },
        {
          "time": 25.766754,
          "name": "B3",
          "midi": 59,
          "duration": 0.355477,
          "velocity": 0.88189
        },
        {
          "time": 26.12223,
          "name": "B3",
          "midi": 59,
          "duration": 0.411257,
          "velocity": 0.88189
        },
        {
          "time": 26.12223,
          "name": "F4",
          "midi": 65,
          "duration": 0.411257,
          "velocity": 0.88189
        },
        {
          "time": 26.527606,
          "name": "D4",
          "midi": 62,
          "duration": 1.119675,
          "velocity": 0.88189
        },
        {
          "time": 26.886429,
          "name": "F#4",
          "midi": 66,
          "duration": 0.355477,
          "velocity": 0.88189
        },
        {
          "time": 26.886429,
          "name": "D4",
          "midi": 62,
          "duration": 0.355477,
          "velocity": 0.88189
        },
        {
          "time": 27.241905,
          "name": "D4",
          "midi": 62,
          "duration": 0.411257,
          "velocity": 0.88189
        },
        {
          "time": 27.241905,
          "name": "F#4",
          "midi": 66,
          "duration": 0.411257,
          "velocity": 0.88189
        },
        {
          "time": 27.647281,
          "name": "D#4",
          "midi": 63,
          "duration": 1.119675,
          "velocity": 0.88189
        },
        {
          "time": 28.006104,
          "name": "F#4",
          "midi": 66,
          "duration": 0.355477,
          "velocity": 0.88189
        },
        {
          "time": 28.006104,
          "name": "D#4",
          "midi": 63,
          "duration": 0.355477,
          "velocity": 0.88189
        },
        {
          "time": 28.36158,
          "name": "F#4",
          "midi": 66,
          "duration": 0.411257,
          "velocity": 0.88189
        },
        {
          "time": 28.36158,
          "name": "D#4",
          "midi": 63,
          "duration": 0.411257,
          "velocity": 0.88189
        },
        {
          "time": 28.766956,
          "name": "E4",
          "midi": 64,
          "duration": 2.23935,
          "velocity": 0.88189
        },
        {
          "time": 29.125779,
          "name": "G4",
          "midi": 67,
          "duration": 0.355477,
          "velocity": 0.88189
        },
        {
          "time": 29.125779,
          "name": "E4",
          "midi": 64,
          "duration": 0.355477,
          "velocity": 0.88189
        },
        {
          "time": 29.481255,
          "name": "E4",
          "midi": 64,
          "duration": 0.411257,
          "velocity": 0.88189
        },
        {
          "time": 29.481255,
          "name": "G4",
          "midi": 67,
          "duration": 0.411257,
          "velocity": 0.88189
        },
        {
          "time": 30.245454,
          "name": "E4",
          "midi": 64,
          "duration": 0.355477,
          "velocity": 0.88189
        },
        {
          "time": 30.245454,
          "name": "G4",
          "midi": 67,
          "duration": 0.355477,
          "velocity": 0.88189
        },
        {
          "time": 30.60093,
          "name": "G4",
          "midi": 67,
          "duration": 0.411257,
          "velocity": 0.88189
        },
        {
          "time": 30.60093,
          "name": "E4",
          "midi": 64,
          "duration": 0.411257,
          "velocity": 0.88189
        },
        {
          "time": 31.006306,
          "name": "A3",
          "midi": 57,
          "duration": 2.370557,
          "velocity": 0.88189
        },
        {
          "time": 31.012188,
          "name": "B3",
          "midi": 59,
          "duration": 1.120594,
          "velocity": 0.88189
        },
        {
          "time": 31.012188,
          "name": "D4",
          "midi": 62,
          "duration": 1.120594,
          "velocity": 0.88189
        },
        {
          "time": 32.132782,
          "name": "C4",
          "midi": 60,
          "duration": 0.792399,
          "velocity": 0.88189
        },
        {
          "time": 32.132782,
          "name": "D#4",
          "midi": 63,
          "duration": 0.792399,
          "velocity": 0.88189
        },
        {
          "time": 32.925181,
          "name": "C#4",
          "midi": 61,
          "duration": 0.457932,
          "velocity": 0.88189
        },
        {
          "time": 32.925181,
          "name": "E4",
          "midi": 64,
          "duration": 0.457932,
          "velocity": 0.88189
        },
        {
          "time": 33.758113,
          "name": "A3",
          "midi": 57,
          "duration": 0.376616,
          "velocity": 0.88189
        },
        {
          "time": 33.758113,
          "name": "F#3",
          "midi": 54,
          "duration": 0.376616,
          "velocity": 0.88189
        },
        {
          "time": 34.134729,
          "name": "F#3",
          "midi": 54,
          "duration": 0.411257,
          "velocity": 0.88189
        },
        {
          "time": 34.134729,
          "name": "A3",
          "midi": 57,
          "duration": 0.411257,
          "velocity": 0.88189
        },
        {
          "time": 34.898928,
          "name": "A3",
          "midi": 57,
          "duration": 0.355477,
          "velocity": 0.88189
        },
        {
          "time": 34.898928,
          "name": "F#3",
          "midi": 54,
          "duration": 0.355477,
          "velocity": 0.88189
        },
        {
          "time": 35.254404,
          "name": "F#3",
          "midi": 54,
          "duration": 0.411257,
          "velocity": 0.88189
        },
        {
          "time": 35.254404,
          "name": "A3",
          "midi": 57,
          "duration": 0.411257,
          "velocity": 0.88189
        },
        {
          "time": 36.018603,
          "name": "A3",
          "midi": 57,
          "duration": 0.355477,
          "velocity": 0.88189
        },
        {
          "time": 36.018603,
          "name": "F#3",
          "midi": 54,
          "duration": 0.355477,
          "velocity": 0.88189
        },
        {
          "time": 36.374079,
          "name": "F#3",
          "midi": 54,
          "duration": 0.411257,
          "velocity": 0.88189
        },
        {
          "time": 36.374079,
          "name": "A3",
          "midi": 57,
          "duration": 0.411257,
          "velocity": 0.88189
        },
        {
          "time": 37.138278,
          "name": "A3",
          "midi": 57,
          "duration": 0.355477,
          "velocity": 0.88189
        },
        {
          "time": 37.138278,
          "name": "F#3",
          "midi": 54,
          "duration": 0.355477,
          "velocity": 0.88189
        },
        {
          "time": 37.493754,
          "name": "F#3",
          "midi": 54,
          "duration": 0.411257,
          "velocity": 0.88189
        },
        {
          "time": 37.493754,
          "name": "A3",
          "midi": 57,
          "duration": 0.411257,
          "velocity": 0.88189
        },
        {
          "time": 38.257953,
          "name": "A3",
          "midi": 57,
          "duration": 0.355477,
          "velocity": 0.88189
        },
        {
          "time": 38.257953,
          "name": "F#3",
          "midi": 54,
          "duration": 0.355477,
          "velocity": 0.88189
        },
        {
          "time": 38.613429,
          "name": "F#3",
          "midi": 54,
          "duration": 0.411257,
          "velocity": 0.88189
        },
        {
          "time": 38.613429,
          "name": "A3",
          "midi": 57,
          "duration": 0.411257,
          "velocity": 0.88189
        },
        {
          "time": 39.377628,
          "name": "A#3",
          "midi": 58,
          "duration": 0.355477,
          "velocity": 0.88189
        },
        {
          "time": 39.377628,
          "name": "F#3",
          "midi": 54,
          "duration": 0.355477,
          "velocity": 0.88189
        },
        {
          "time": 39.733104,
          "name": "F#3",
          "midi": 54,
          "duration": 0.411257,
          "velocity": 0.88189
        },
        {
          "time": 39.733104,
          "name": "A#3",
          "midi": 58,
          "duration": 0.411257,
          "velocity": 0.88189
        },
        {
          "time": 40.497303,
          "name": "B3",
          "midi": 59,
          "duration": 0.355477,
          "velocity": 0.88189
        },
        {
          "time": 40.497303,
          "name": "G3",
          "midi": 55,
          "duration": 0.355477,
          "velocity": 0.88189
        },
        {
          "time": 40.852779,
          "name": "B3",
          "midi": 59,
          "duration": 0.411257,
          "velocity": 0.88189
        },
        {
          "time": 40.852779,
          "name": "A3",
          "midi": 57,
          "duration": 0.411257,
          "velocity": 0.88189
        },
        {
          "time": 41.616978,
          "name": "B3",
          "midi": 59,
          "duration": 0.355477,
          "velocity": 0.88189
        },
        {
          "time": 41.616978,
          "name": "G3",
          "midi": 55,
          "duration": 0.355477,
          "velocity": 0.88189
        },
        {
          "time": 41.972454,
          "name": "G3",
          "midi": 55,
          "duration": 0.411257,
          "velocity": 0.88189
        },
        {
          "time": 41.972454,
          "name": "B3",
          "midi": 59,
          "duration": 0.411257,
          "velocity": 0.88189
        },
        {
          "time": 42.37783,
          "name": "B3",
          "midi": 59,
          "duration": 2.23935,
          "velocity": 0.88189
        },
        {
          "time": 42.736653,
          "name": "E4",
          "midi": 64,
          "duration": 0.355477,
          "velocity": 0.88189
        },
        {
          "time": 42.736653,
          "name": "B3",
          "midi": 59,
          "duration": 0.355477,
          "velocity": 0.88189
        },
        {
          "time": 43.092129,
          "name": "B3",
          "midi": 59,
          "duration": 0.411257,
          "velocity": 0.88189
        },
        {
          "time": 43.092129,
          "name": "E4",
          "midi": 64,
          "duration": 0.411257,
          "velocity": 0.88189
        },
        {
          "time": 43.856328,
          "name": "F4",
          "midi": 65,
          "duration": 0.355477,
          "velocity": 0.88189
        },
        {
          "time": 43.856328,
          "name": "B3",
          "midi": 59,
          "duration": 0.355477,
          "velocity": 0.88189
        },
        {
          "time": 44.211804,
          "name": "B3",
          "midi": 59,
          "duration": 0.411257,
          "velocity": 0.88189
        },
        {
          "time": 44.211804,
          "name": "F4",
          "midi": 65,
          "duration": 0.411257,
          "velocity": 0.88189
        },
        {
          "time": 44.61718,
          "name": "C#4",
          "midi": 61,
          "duration": 2.23935,
          "velocity": 0.88189
        },
        {
          "time": 44.976003,
          "name": "F4",
          "midi": 65,
          "duration": 0.355477,
          "velocity": 0.88189
        },
        {
          "time": 44.976003,
          "name": "C#4",
          "midi": 61,
          "duration": 0.355477,
          "velocity": 0.88189
        },
        {
          "time": 45.331479,
          "name": "C#4",
          "midi": 61,
          "duration": 0.411257,
          "velocity": 0.88189
        },
        {
          "time": 45.331479,
          "name": "F4",
          "midi": 65,
          "duration": 0.411257,
          "velocity": 0.88189
        },
        {
          "time": 46.095678,
          "name": "F#4",
          "midi": 66,
          "duration": 0.355477,
          "velocity": 0.88189
        },
        {
          "time": 46.095678,
          "name": "C#4",
          "midi": 61,
          "duration": 0.355477,
          "velocity": 0.88189
        },
        {
          "time": 46.451154,
          "name": "F#4",
          "midi": 66,
          "duration": 0.411257,
          "velocity": 0.88189
        },
        {
          "time": 46.451154,
          "name": "C#4",
          "midi": 61,
          "duration": 0.411257,
          "velocity": 0.88189
        },
        {
          "time": 46.85653,
          "name": "B3",
          "midi": 59,
          "duration": 1.119675,
          "velocity": 0.88189
        },
        {
          "time": 47.215353,
          "name": "F#4",
          "midi": 66,
          "duration": 0.355477,
          "velocity": 0.88189
        },
        {
          "time": 47.215353,
          "name": "D#4",
          "midi": 63,
          "duration": 0.355477,
          "velocity": 0.88189
        },
        {
          "time": 47.570829,
          "name": "D#4",
          "midi": 63,
          "duration": 0.411257,
          "velocity": 0.88189
        },
        {
          "time": 47.570829,
          "name": "F#4",
          "midi": 66,
          "duration": 0.411257,
          "velocity": 0.88189
        },
        {
          "time": 47.976205,
          "name": "D4",
          "midi": 62,
          "duration": 1.119675,
          "velocity": 0.88189
        },
        {
          "time": 48.335028,
          "name": "G#4",
          "midi": 68,
          "duration": 0.355477,
          "velocity": 0.88189
        },
        {
          "time": 48.335028,
          "name": "D4",
          "midi": 62,
          "duration": 0.355477,
          "velocity": 0.88189
        },
        {
          "time": 48.690504,
          "name": "G#4",
          "midi": 68,
          "duration": 0.411257,
          "velocity": 0.88189
        },
        {
          "time": 48.690504,
          "name": "D4",
          "midi": 62,
          "duration": 0.411257,
          "velocity": 0.88189
        },
        {
          "time": 49.09588,
          "name": "A3",
          "midi": 57,
          "duration": 1.555371,
          "velocity": 0.88189
        },
        {
          "time": 49.454703,
          "name": "E4",
          "midi": 64,
          "duration": 0.357466,
          "velocity": 0.88189
        },
        {
          "time": 49.454703,
          "name": "C#4",
          "midi": 61,
          "duration": 0.357466,
          "velocity": 0.88189
        },
        {
          "time": 49.812169,
          "name": "E4",
          "midi": 64,
          "duration": 0.458436,
          "velocity": 0.88189
        },
        {
          "time": 49.812169,
          "name": "C#4",
          "midi": 61,
          "duration": 0.458436,
          "velocity": 0.88189
        },
        {
          "time": 50.270605,
          "name": "F#4",
          "midi": 66,
          "duration": 0.387097,
          "velocity": 0.88189
        },
        {
          "time": 50.270605,
          "name": "D4",
          "midi": 62,
          "duration": 0.387097,
          "velocity": 0.88189
        },
        {
          "time": 51.81011,
          "name": "F#3",
          "midi": 54,
          "duration": 0.355477,
          "velocity": 0.88189
        },
        {
          "time": 51.81011,
          "name": "A3",
          "midi": 57,
          "duration": 0.355477,
          "velocity": 0.88189
        },
        {
          "time": 52.165586,
          "name": "F#3",
          "midi": 54,
          "duration": 0.411257,
          "velocity": 0.88189
        },
        {
          "time": 52.165586,
          "name": "A3",
          "midi": 57,
          "duration": 0.411257,
          "velocity": 0.88189
        },
        {
          "time": 52.929785,
          "name": "A3",
          "midi": 57,
          "duration": 0.355477,
          "velocity": 0.88189
        },
        {
          "time": 52.929785,
          "name": "F#3",
          "midi": 54,
          "duration": 0.355477,
          "velocity": 0.88189
        },
        {
          "time": 53.285261,
          "name": "A3",
          "midi": 57,
          "duration": 0.411257,
          "velocity": 0.88189
        },
        {
          "time": 53.285261,
          "name": "F#3",
          "midi": 54,
          "duration": 0.411257,
          "velocity": 0.88189
        },
        {
          "time": 54.04946,
          "name": "F#3",
          "midi": 54,
          "duration": 0.355477,
          "velocity": 0.88189
        },
        {
          "time": 54.04946,
          "name": "A3",
          "midi": 57,
          "duration": 0.355477,
          "velocity": 0.88189
        },
        {
          "time": 54.404936,
          "name": "F#3",
          "midi": 54,
          "duration": 0.411257,
          "velocity": 0.88189
        },
        {
          "time": 54.404936,
          "name": "A3",
          "midi": 57,
          "duration": 0.411257,
          "velocity": 0.88189
        },
        {
          "time": 55.169135,
          "name": "F#3",
          "midi": 54,
          "duration": 0.355477,
          "velocity": 0.88189
        },
        {
          "time": 55.169135,
          "name": "A3",
          "midi": 57,
          "duration": 0.355477,
          "velocity": 0.88189
        },
        {
          "time": 55.524611,
          "name": "F#3",
          "midi": 54,
          "duration": 0.411257,
          "velocity": 0.88189
        },
        {
          "time": 55.524611,
          "name": "A3",
          "midi": 57,
          "duration": 0.411257,
          "velocity": 0.88189
        },
        {
          "time": 56.28881,
          "name": "F#3",
          "midi": 54,
          "duration": 0.355477,
          "velocity": 0.88189
        },
        {
          "time": 56.28881,
          "name": "A3",
          "midi": 57,
          "duration": 0.355477,
          "velocity": 0.88189
        },
        {
          "time": 56.644286,
          "name": "F#3",
          "midi": 54,
          "duration": 0.411257,
          "velocity": 0.88189
        },
        {
          "time": 56.644286,
          "name": "A3",
          "midi": 57,
          "duration": 0.411257,
          "velocity": 0.88189
        },
        {
          "time": 57.408485,
          "name": "A#3",
          "midi": 58,
          "duration": 0.355477,
          "velocity": 0.88189
        },
        {
          "time": 57.408485,
          "name": "F#3",
          "midi": 54,
          "duration": 0.355477,
          "velocity": 0.88189
        },
        {
          "time": 57.763961,
          "name": "A#3",
          "midi": 58,
          "duration": 0.411257,
          "velocity": 0.88189
        },
        {
          "time": 57.763961,
          "name": "F#3",
          "midi": 54,
          "duration": 0.411257,
          "velocity": 0.88189
        },
        {
          "time": 58.52816,
          "name": "G3",
          "midi": 55,
          "duration": 0.355477,
          "velocity": 0.88189
        },
        {
          "time": 58.52816,
          "name": "B3",
          "midi": 59,
          "duration": 0.355477,
          "velocity": 0.88189
        },
        {
          "time": 58.883636,
          "name": "B3",
          "midi": 59,
          "duration": 0.411257,
          "velocity": 0.88189
        },
        {
          "time": 58.883636,
          "name": "A3",
          "midi": 57,
          "duration": 0.411257,
          "velocity": 0.88189
        },
        {
          "time": 59.647835,
          "name": "B3",
          "midi": 59,
          "duration": 0.355477,
          "velocity": 0.88189
        },
        {
          "time": 59.647835,
          "name": "G3",
          "midi": 55,
          "duration": 0.355477,
          "velocity": 0.88189
        },
        {
          "time": 60.003311,
          "name": "B3",
          "midi": 59,
          "duration": 0.411257,
          "velocity": 0.88189
        },
        {
          "time": 60.003311,
          "name": "G3",
          "midi": 55,
          "duration": 0.411257,
          "velocity": 0.88189
        },
        {
          "time": 60.408687,
          "name": "B3",
          "midi": 59,
          "duration": 2.23935,
          "velocity": 0.88189
        },
        {
          "time": 60.76751,
          "name": "E4",
          "midi": 64,
          "duration": 0.355477,
          "velocity": 0.88189
        },
        {
          "time": 60.76751,
          "name": "B3",
          "midi": 59,
          "duration": 0.355477,
          "velocity": 0.88189
        },
        {
          "time": 61.122986,
          "name": "E4",
          "midi": 64,
          "duration": 0.411257,
          "velocity": 0.88189
        },
        {
          "time": 61.122986,
          "name": "B3",
          "midi": 59,
          "duration": 0.411257,
          "velocity": 0.88189
        },
        {
          "time": 61.887185,
          "name": "F4",
          "midi": 65,
          "duration": 0.355477,
          "velocity": 0.88189
        },
        {
          "time": 61.887185,
          "name": "B3",
          "midi": 59,
          "duration": 0.355477,
          "velocity": 0.88189
        },
        {
          "time": 62.242661,
          "name": "F4",
          "midi": 65,
          "duration": 0.411257,
          "velocity": 0.88189
        },
        {
          "time": 62.242661,
          "name": "B3",
          "midi": 59,
          "duration": 0.411257,
          "velocity": 0.88189
        },
        {
          "time": 62.648037,
          "name": "D4",
          "midi": 62,
          "duration": 1.119675,
          "velocity": 0.88189
        },
        {
          "time": 63.00686,
          "name": "F#4",
          "midi": 66,
          "duration": 0.355477,
          "velocity": 0.88189
        },
        {
          "time": 63.00686,
          "name": "D4",
          "midi": 62,
          "duration": 0.355477,
          "velocity": 0.88189
        },
        {
          "time": 63.362336,
          "name": "F#4",
          "midi": 66,
          "duration": 0.411257,
          "velocity": 0.88189
        },
        {
          "time": 63.362336,
          "name": "D4",
          "midi": 62,
          "duration": 0.411257,
          "velocity": 0.88189
        },
        {
          "time": 63.767712,
          "name": "D#4",
          "midi": 63,
          "duration": 1.119675,
          "velocity": 0.88189
        },
        {
          "time": 64.126535,
          "name": "F#4",
          "midi": 66,
          "duration": 0.355476,
          "velocity": 0.88189
        },
        {
          "time": 64.126535,
          "name": "D#4",
          "midi": 63,
          "duration": 0.355476,
          "velocity": 0.88189
        },
        {
          "time": 64.482011,
          "name": "D#4",
          "midi": 63,
          "duration": 0.411258,
          "velocity": 0.88189
        },
        {
          "time": 64.482011,
          "name": "F#4",
          "midi": 66,
          "duration": 0.411258,
          "velocity": 0.88189
        },
        {
          "time": 64.887387,
          "name": "E4",
          "midi": 64,
          "duration": 2.23935,
          "velocity": 0.88189
        },
        {
          "time": 65.24621,
          "name": "G4",
          "midi": 67,
          "duration": 0.355476,
          "velocity": 0.88189
        },
        {
          "time": 65.24621,
          "name": "E4",
          "midi": 64,
          "duration": 0.355476,
          "velocity": 0.88189
        },
        {
          "time": 65.601686,
          "name": "E4",
          "midi": 64,
          "duration": 0.411258,
          "velocity": 0.88189
        },
        {
          "time": 65.601686,
          "name": "G4",
          "midi": 67,
          "duration": 0.411258,
          "velocity": 0.88189
        },
        {
          "time": 66.365885,
          "name": "E4",
          "midi": 64,
          "duration": 0.355476,
          "velocity": 0.88189
        },
        {
          "time": 66.365885,
          "name": "G4",
          "midi": 67,
          "duration": 0.355476,
          "velocity": 0.88189
        },
        {
          "time": 66.721361,
          "name": "G4",
          "midi": 67,
          "duration": 0.411258,
          "velocity": 0.88189
        },
        {
          "time": 66.721361,
          "name": "E4",
          "midi": 64,
          "duration": 0.411258,
          "velocity": 0.88189
        },
        {
          "time": 67.126737,
          "name": "A3",
          "midi": 57,
          "duration": 2.371989,
          "velocity": 0.88189
        },
        {
          "time": 67.132619,
          "name": "D4",
          "midi": 62,
          "duration": 1.120594,
          "velocity": 0.88189
        },
        {
          "time": 67.132619,
          "name": "B3",
          "midi": 59,
          "duration": 1.120594,
          "velocity": 0.88189
        },
        {
          "time": 68.253213,
          "name": "C4",
          "midi": 60,
          "duration": 0.793831,
          "velocity": 0.88189
        },
        {
          "time": 68.253213,
          "name": "D#4",
          "midi": 63,
          "duration": 0.793831,
          "velocity": 0.88189
        },
        {
          "time": 69.047044,
          "name": "E4",
          "midi": 64,
          "duration": 0.457932,
          "velocity": 0.88189
        },
        {
          "time": 69.047044,
          "name": "C#4",
          "midi": 61,
          "duration": 0.457932,
          "velocity": 0.88189
        },
        {
          "time": 69.879976,
          "name": "F#3",
          "midi": 54,
          "duration": 0.376616,
          "velocity": 0.88189
        },
        {
          "time": 69.879976,
          "name": "A3",
          "midi": 57,
          "duration": 0.376616,
          "velocity": 0.88189
        },
        {
          "time": 70.256592,
          "name": "F#3",
          "midi": 54,
          "duration": 0.411258,
          "velocity": 0.88189
        },
        {
          "time": 70.256592,
          "name": "A3",
          "midi": 57,
          "duration": 0.411258,
          "velocity": 0.88189
        },
        {
          "time": 71.020791,
          "name": "A3",
          "midi": 57,
          "duration": 0.355476,
          "velocity": 0.88189
        },
        {
          "time": 71.020791,
          "name": "F#3",
          "midi": 54,
          "duration": 0.355476,
          "velocity": 0.88189
        },
        {
          "time": 71.376267,
          "name": "A3",
          "midi": 57,
          "duration": 0.411258,
          "velocity": 0.88189
        },
        {
          "time": 71.376267,
          "name": "F#3",
          "midi": 54,
          "duration": 0.411258,
          "velocity": 0.88189
        },
        {
          "time": 72.140466,
          "name": "A3",
          "midi": 57,
          "duration": 0.355476,
          "velocity": 0.88189
        },
        {
          "time": 72.140466,
          "name": "F#3",
          "midi": 54,
          "duration": 0.355476,
          "velocity": 0.88189
        },
        {
          "time": 72.495942,
          "name": "A3",
          "midi": 57,
          "duration": 0.411258,
          "velocity": 0.88189
        },
        {
          "time": 72.495942,
          "name": "F#3",
          "midi": 54,
          "duration": 0.411258,
          "velocity": 0.88189
        },
        {
          "time": 73.260141,
          "name": "F#3",
          "midi": 54,
          "duration": 0.355476,
          "velocity": 0.88189
        },
        {
          "time": 73.260141,
          "name": "A3",
          "midi": 57,
          "duration": 0.355476,
          "velocity": 0.88189
        },
        {
          "time": 73.615617,
          "name": "F#3",
          "midi": 54,
          "duration": 0.411258,
          "velocity": 0.88189
        },
        {
          "time": 73.615617,
          "name": "A3",
          "midi": 57,
          "duration": 0.411258,
          "velocity": 0.88189
        },
        {
          "time": 74.379816,
          "name": "A3",
          "midi": 57,
          "duration": 0.355476,
          "velocity": 0.88189
        },
        {
          "time": 74.379816,
          "name": "F#3",
          "midi": 54,
          "duration": 0.355476,
          "velocity": 0.88189
        },
        {
          "time": 74.735292,
          "name": "A3",
          "midi": 57,
          "duration": 0.411258,
          "velocity": 0.88189
        },
        {
          "time": 74.735292,
          "name": "F#3",
          "midi": 54,
          "duration": 0.411258,
          "velocity": 0.88189
        },
        {
          "time": 75.499491,
          "name": "A#3",
          "midi": 58,
          "duration": 0.355476,
          "velocity": 0.88189
        },
        {
          "time": 75.499491,
          "name": "F#3",
          "midi": 54,
          "duration": 0.355476,
          "velocity": 0.88189
        },
        {
          "time": 75.854967,
          "name": "F#3",
          "midi": 54,
          "duration": 0.411258,
          "velocity": 0.88189
        },
        {
          "time": 75.854967,
          "name": "A#3",
          "midi": 58,
          "duration": 0.411258,
          "velocity": 0.88189
        },
        {
          "time": 76.619166,
          "name": "B3",
          "midi": 59,
          "duration": 0.355476,
          "velocity": 0.88189
        },
        {
          "time": 76.619166,
          "name": "G3",
          "midi": 55,
          "duration": 0.355476,
          "velocity": 0.88189
        },
        {
          "time": 76.974642,
          "name": "A3",
          "midi": 57,
          "duration": 0.411258,
          "velocity": 0.88189
        },
        {
          "time": 76.974642,
          "name": "B3",
          "midi": 59,
          "duration": 0.411258,
          "velocity": 0.88189
        },
        {
          "time": 77.738841,
          "name": "G3",
          "midi": 55,
          "duration": 0.355476,
          "velocity": 0.88189
        },
        {
          "time": 77.738841,
          "name": "B3",
          "midi": 59,
          "duration": 0.355476,
          "velocity": 0.88189
        },
        {
          "time": 78.094317,
          "name": "B3",
          "midi": 59,
          "duration": 0.411258,
          "velocity": 0.88189
        },
        {
          "time": 78.094317,
          "name": "G3",
          "midi": 55,
          "duration": 0.411258,
          "velocity": 0.88189
        },
        {
          "time": 78.499693,
          "name": "B3",
          "midi": 59,
          "duration": 2.23935,
          "velocity": 0.88189
        },
        {
          "time": 78.858516,
          "name": "E4",
          "midi": 64,
          "duration": 0.355476,
          "velocity": 0.88189
        },
        {
          "time": 78.858516,
          "name": "B3",
          "midi": 59,
          "duration": 0.355476,
          "velocity": 0.88189
        },
        {
          "time": 79.213992,
          "name": "E4",
          "midi": 64,
          "duration": 0.411258,
          "velocity": 0.88189
        },
        {
          "time": 79.213992,
          "name": "B3",
          "midi": 59,
          "duration": 0.411258,
          "velocity": 0.88189
        },
        {
          "time": 79.978191,
          "name": "B3",
          "midi": 59,
          "duration": 0.355476,
          "velocity": 0.88189
        },
        {
          "time": 79.978191,
          "name": "F4",
          "midi": 65,
          "duration": 0.355476,
          "velocity": 0.88189
        },
        {
          "time": 80.333667,
          "name": "F4",
          "midi": 65,
          "duration": 0.411258,
          "velocity": 0.88189
        },
        {
          "time": 80.333667,
          "name": "B3",
          "midi": 59,
          "duration": 0.411258,
          "velocity": 0.88189
        },
        {
          "time": 80.739043,
          "name": "C#4",
          "midi": 61,
          "duration": 2.23935,
          "velocity": 0.88189
        },
        {
          "time": 81.097866,
          "name": "F4",
          "midi": 65,
          "duration": 0.355476,
          "velocity": 0.88189
        },
        {
          "time": 81.097866,
          "name": "C#4",
          "midi": 61,
          "duration": 0.355476,
          "velocity": 0.88189
        },
        {
          "time": 81.453342,
          "name": "F4",
          "midi": 65,
          "duration": 0.411258,
          "velocity": 0.88189
        },
        {
          "time": 81.453342,
          "name": "C#4",
          "midi": 61,
          "duration": 0.411258,
          "velocity": 0.88189
        },
        {
          "time": 82.217541,
          "name": "F#4",
          "midi": 66,
          "duration": 0.355476,
          "velocity": 0.88189
        },
        {
          "time": 82.217541,
          "name": "C#4",
          "midi": 61,
          "duration": 0.355476,
          "velocity": 0.88189
        },
        {
          "time": 82.573017,
          "name": "F#4",
          "midi": 66,
          "duration": 0.411258,
          "velocity": 0.88189
        },
        {
          "time": 82.573017,
          "name": "C#4",
          "midi": 61,
          "duration": 0.411258,
          "velocity": 0.88189
        },
        {
          "time": 82.978393,
          "name": "B3",
          "midi": 59,
          "duration": 1.119675,
          "velocity": 0.88189
        },
        {
          "time": 83.337216,
          "name": "D#4",
          "midi": 63,
          "duration": 0.355476,
          "velocity": 0.88189
        },
        {
          "time": 83.337216,
          "name": "F#4",
          "midi": 66,
          "duration": 0.355476,
          "velocity": 0.88189
        },
        {
          "time": 83.692692,
          "name": "D#4",
          "midi": 63,
          "duration": 0.411258,
          "velocity": 0.88189
        },
        {
          "time": 83.692692,
          "name": "F#4",
          "midi": 66,
          "duration": 0.411258,
          "velocity": 0.88189
        },
        {
          "time": 84.098068,
          "name": "D4",
          "midi": 62,
          "duration": 1.119675,
          "velocity": 0.88189
        },
        {
          "time": 84.456891,
          "name": "G#4",
          "midi": 68,
          "duration": 0.355476,
          "velocity": 0.88189
        },
        {
          "time": 84.456891,
          "name": "D4",
          "midi": 62,
          "duration": 0.355476,
          "velocity": 0.88189
        },
        {
          "time": 84.812367,
          "name": "G#4",
          "midi": 68,
          "duration": 0.411258,
          "velocity": 0.88189
        },
        {
          "time": 84.812367,
          "name": "D4",
          "midi": 62,
          "duration": 0.411258,
          "velocity": 0.88189
        },
        {
          "time": 85.217743,
          "name": "A3",
          "midi": 57,
          "duration": 1.520361,
          "velocity": 0.88189
        },
        {
          "time": 85.576566,
          "name": "C#4",
          "midi": 61,
          "duration": 0.357466,
          "velocity": 0.88189
        },
        {
          "time": 85.576566,
          "name": "E4",
          "midi": 64,
          "duration": 0.357466,
          "velocity": 0.88189
        },
        {
          "time": 85.934032,
          "name": "C#4",
          "midi": 61,
          "duration": 0.457013,
          "velocity": 0.88189
        },
        {
          "time": 85.934032,
          "name": "E4",
          "midi": 64,
          "duration": 0.457013,
          "velocity": 0.88189
        },
        {
          "time": 86.391045,
          "name": "D4",
          "midi": 62,
          "duration": 0.17647,
          "velocity": 0.88189
        },
        {
          "time": 86.391045,
          "name": "F#4",
          "midi": 66,
          "duration": 0.17647,
          "velocity": 0.88189
        },
        {
          "time": 86.567515,
          "name": "F#3",
          "midi": 54,
          "duration": 0.176471,
          "velocity": 0.88189
        },
        {
          "time": 86.743986,
          "name": "A3",
          "midi": 57,
          "duration": 0.17647,
          "velocity": 0.88189
        },
        {
          "time": 86.920456,
          "name": "B3",
          "midi": 59,
          "duration": 0.17739,
          "velocity": 0.88189
        },
        {
          "time": 87.097846,
          "name": "C#4",
          "midi": 61,
          "duration": 0.1875,
          "velocity": 0.88189
        },
        {
          "time": 87.285346,
          "name": "D4",
          "midi": 62,
          "duration": 0.185764,
          "velocity": 0.88189
        },
        {
          "time": 87.465554,
          "name": "A4",
          "midi": 69,
          "duration": 0.66801,
          "velocity": 0.88189
        },
        {
          "time": 87.465554,
          "name": "C#4",
          "midi": 61,
          "duration": 0.66801,
          "velocity": 0.88189
        },
        {
          "time": 87.47111,
          "name": "E4",
          "midi": 64,
          "duration": 0.333333,
          "velocity": 0.88189
        },
        {
          "time": 87.473888,
          "name": "C#4",
          "midi": 61,
          "duration": 0.669354,
          "velocity": 0.88189
        },
        {
          "time": 87.473888,
          "name": "A3",
          "midi": 57,
          "duration": 0.669354,
          "velocity": 0.88189
        },
        {
          "time": 87.473888,
          "name": "C#4",
          "midi": 61,
          "duration": 0.669354,
          "velocity": 0.96063
        },
        {
          "time": 87.473888,
          "name": "A3",
          "midi": 57,
          "duration": 0.669354,
          "velocity": 0.96063
        },
        {
          "time": 87.804443,
          "name": "F#4",
          "midi": 66,
          "duration": 0.316666,
          "velocity": 0.88189
        },
        {
          "time": 88.133564,
          "name": "C#4",
          "midi": 61,
          "duration": 0.719086,
          "velocity": 0.88189
        },
        {
          "time": 88.133564,
          "name": "G4",
          "midi": 67,
          "duration": 0.719086,
          "velocity": 0.88189
        },
        {
          "time": 88.140016,
          "name": "E4",
          "midi": 64,
          "duration": 0.367742,
          "velocity": 0.88189
        },
        {
          "time": 88.143242,
          "name": "C#4",
          "midi": 61,
          "duration": 0.717742,
          "velocity": 0.88189
        },
        {
          "time": 88.143242,
          "name": "G3",
          "midi": 55,
          "duration": 0.717742,
          "velocity": 0.88189
        },
        {
          "time": 88.143242,
          "name": "G3",
          "midi": 55,
          "duration": 0.717742,
          "velocity": 0.96063
        },
        {
          "time": 88.143242,
          "name": "C#4",
          "midi": 61,
          "duration": 0.717742,
          "velocity": 0.96063
        },
        {
          "time": 88.524873,
          "name": "F#4",
          "midi": 66,
          "duration": 0.668906,
          "velocity": 0.88189
        },
        {
          "time": 88.85265,
          "name": "D4",
          "midi": 62,
          "duration": 0.72043,
          "velocity": 0.88189
        },
        {
          "time": 88.85265,
          "name": "G#4",
          "midi": 68,
          "duration": 0.72043,
          "velocity": 0.88189
        },
        {
          "time": 88.860984,
          "name": "D4",
          "midi": 62,
          "duration": 0.72043,
          "velocity": 0.88189
        },
        {
          "time": 88.860984,
          "name": "G#3",
          "midi": 56,
          "duration": 0.72043,
          "velocity": 0.88189
        },
        {
          "time": 88.860984,
          "name": "D4",
          "midi": 62,
          "duration": 0.72043,
          "velocity": 0.96063
        },
        {
          "time": 88.860984,
          "name": "G#3",
          "midi": 56,
          "duration": 0.72043,
          "velocity": 0.96063
        },
        {
          "time": 89.193779,
          "name": "E4",
          "midi": 64,
          "duration": 0.367742,
          "velocity": 0.88189
        },
        {
          "time": 89.57308,
          "name": "A4",
          "midi": 69,
          "duration": 0.66801,
          "velocity": 0.88189
        },
        {
          "time": 89.57308,
          "name": "F#4",
          "midi": 66,
          "duration": 0.66801,
          "velocity": 0.88189
        },
        {
          "time": 89.578636,
          "name": "E4",
          "midi": 64,
          "duration": 0.333333,
          "velocity": 0.88189
        },
        {
          "time": 89.581414,
          "name": "A3",
          "midi": 57,
          "duration": 0.669354,
          "velocity": 0.88189
        },
        {
          "time": 89.581414,
          "name": "F#3",
          "midi": 54,
          "duration": 0.669354,
          "velocity": 0.88189
        },
        {
          "time": 89.581414,
          "name": "A3",
          "midi": 57,
          "duration": 0.669354,
          "velocity": 0.96063
        },
        {
          "time": 89.581414,
          "name": "F#3",
          "midi": 54,
          "duration": 0.669354,
          "velocity": 0.96063
        },
        {
          "time": 89.911969,
          "name": "F#4",
          "midi": 66,
          "duration": 0.316666,
          "velocity": 0.88189
        },
        {
          "time": 90.24109,
          "name": "F#4",
          "midi": 66,
          "duration": 0.719086,
          "velocity": 0.88189
        },
        {
          "time": 90.24109,
          "name": "A#4",
          "midi": 70,
          "duration": 0.719086,
          "velocity": 0.88189
        },
        {
          "time": 90.247542,
          "name": "E4",
          "midi": 64,
          "duration": 0.367742,
          "velocity": 0.88189
        },
        {
          "time": 90.250768,
          "name": "A#3",
          "midi": 58,
          "duration": 0.717742,
          "velocity": 0.88189
        },
        {
          "time": 90.250768,
          "name": "F#3",
          "midi": 54,
          "duration": 0.717742,
          "velocity": 0.88189
        },
        {
          "time": 90.250768,
          "name": "A#3",
          "midi": 58,
          "duration": 0.717742,
          "velocity": 0.96063
        },
        {
          "time": 90.250768,
          "name": "F#3",
          "midi": 54,
          "duration": 0.717742,
          "velocity": 0.96063
        },
        {
          "time": 90.632399,
          "name": "F#4",
          "midi": 66,
          "duration": 0.670018,
          "velocity": 0.88189
        },
        {
          "time": 90.960176,
          "name": "B4",
          "midi": 71,
          "duration": 0.747616,
          "velocity": 0.88189
        },
        {
          "time": 90.960176,
          "name": "G#4",
          "midi": 68,
          "duration": 0.747616,
          "velocity": 0.88189
        },
        {
          "time": 90.96851,
          "name": "G#3",
          "midi": 56,
          "duration": 0.748106,
          "velocity": 0.88189
        },
        {
          "time": 90.96851,
          "name": "B3",
          "midi": 59,
          "duration": 0.748106,
          "velocity": 0.88189
        },
        {
          "time": 90.96851,
          "name": "B3",
          "midi": 59,
          "duration": 0.748106,
          "velocity": 0.96063
        },
        {
          "time": 90.96851,
          "name": "G#3",
          "midi": 56,
          "duration": 0.748106,
          "velocity": 0.96063
        },
        {
          "time": 91.302417,
          "name": "E4",
          "midi": 64,
          "duration": 0.393103,
          "velocity": 0.88189
        },
        {
          "time": 91.713675,
          "name": "E4",
          "midi": 64,
          "duration": 0.352941,
          "velocity": 0.88189
        },
        {
          "time": 91.716616,
          "name": "E4",
          "midi": 64,
          "duration": 0.352941,
          "velocity": 0.96063
        },
        {
          "time": 91.716616,
          "name": "A3",
          "midi": 57,
          "duration": 0.352941,
          "velocity": 0.96063
        },
        {
          "time": 92.060734,
          "name": "F#4",
          "midi": 66,
          "duration": 0.353795,
          "velocity": 0.88189
        },
        {
          "time": 92.060734,
          "name": "A3",
          "midi": 57,
          "duration": 0.353795,
          "velocity": 0.88189
        },
        {
          "time": 92.066616,
          "name": "F#4",
          "midi": 66,
          "duration": 0.335294,
          "velocity": 0.88189
        },
        {
          "time": 92.069557,
          "name": "E4",
          "midi": 64,
          "duration": 0.354649,
          "velocity": 0.88189
        },
        {
          "time": 92.069557,
          "name": "F#3",
          "midi": 54,
          "duration": 0.354649,
          "velocity": 0.88189
        },
        {
          "time": 92.414528,
          "name": "A3",
          "midi": 57,
          "duration": 0.385753,
          "velocity": 0.88189
        },
        {
          "time": 92.414528,
          "name": "F#4",
          "midi": 66,
          "duration": 0.385753,
          "velocity": 0.88189
        },
        {
          "time": 92.42098,
          "name": "E4",
          "midi": 64,
          "duration": 0.384857,
          "velocity": 0.88189
        },
        {
          "time": 92.424206,
          "name": "E4",
          "midi": 64,
          "duration": 0.384409,
          "velocity": 0.88189
        },
        {
          "time": 92.424206,
          "name": "F#3",
          "midi": 54,
          "duration": 0.384409,
          "velocity": 0.88189
        },
        {
          "time": 92.805837,
          "name": "F#4",
          "midi": 66,
          "duration": 0.316666,
          "velocity": 0.88189
        },
        {
          "time": 92.808615,
          "name": "D#4",
          "midi": 63,
          "duration": 0.333333,
          "velocity": 0.96063
        },
        {
          "time": 92.808615,
          "name": "A3",
          "midi": 57,
          "duration": 0.333333,
          "velocity": 0.96063
        },
        {
          "time": 93.133614,
          "name": "F#4",
          "midi": 66,
          "duration": 0.334677,
          "velocity": 0.88189
        },
        {
          "time": 93.133614,
          "name": "A3",
          "midi": 57,
          "duration": 0.334677,
          "velocity": 0.88189
        },
        {
          "time": 93.13917,
          "name": "D#4",
          "midi": 63,
          "duration": 0.166666,
          "velocity": 0.88189
        },
        {
          "time": 93.141948,
          "name": "D#4",
          "midi": 63,
          "duration": 0.336021,
          "velocity": 0.88189
        },
        {
          "time": 93.141948,
          "name": "F#3",
          "midi": 54,
          "duration": 0.336021,
          "velocity": 0.88189
        },
        {
          "time": 93.305836,
          "name": "C#4",
          "midi": 61,
          "duration": 0.168907,
          "velocity": 0.88189
        },
        {
          "time": 93.468291,
          "name": "A3",
          "midi": 57,
          "duration": 0.385753,
          "velocity": 0.88189
        },
        {
          "time": 93.468291,
          "name": "F#4",
          "midi": 66,
          "duration": 0.385753,
          "velocity": 0.88189
        },
        {
          "time": 93.474743,
          "name": "B3",
          "midi": 59,
          "duration": 0.367742,
          "velocity": 0.88189
        },
        {
          "time": 93.477969,
          "name": "D#4",
          "midi": 63,
          "duration": 0.384409,
          "velocity": 0.88189
        },
        {
          "time": 93.477969,
          "name": "F#3",
          "midi": 54,
          "duration": 0.384409,
          "velocity": 0.88189
        },
        {
          "time": 93.8596,
          "name": "D4",
          "midi": 62,
          "duration": 0.333333,
          "velocity": 0.88189
        },
        {
          "time": 93.862378,
          "name": "G#3",
          "midi": 56,
          "duration": 0.333333,
          "velocity": 0.96063
        },
        {
          "time": 93.862378,
          "name": "D4",
          "midi": 62,
          "duration": 0.333333,
          "velocity": 0.96063
        },
        {
          "time": 94.187377,
          "name": "E4",
          "midi": 64,
          "duration": 0.334677,
          "velocity": 0.88189
        },
        {
          "time": 94.187377,
          "name": "G#3",
          "midi": 56,
          "duration": 0.334677,
          "velocity": 0.88189
        },
        {
          "time": 94.192933,
          "name": "E4",
          "midi": 64,
          "duration": 0.316666,
          "velocity": 0.88189
        },
        {
          "time": 94.195711,
          "name": "D4",
          "midi": 62,
          "duration": 0.336021,
          "velocity": 0.88189
        },
        {
          "time": 94.195711,
          "name": "E3",
          "midi": 52,
          "duration": 0.336021,
          "velocity": 0.88189
        },
        {
          "time": 94.522054,
          "name": "G#3",
          "midi": 56,
          "duration": 0.385753,
          "velocity": 0.88189
        },
        {
          "time": 94.522054,
          "name": "E4",
          "midi": 64,
          "duration": 0.385753,
          "velocity": 0.88189
        },
        {
          "time": 94.528506,
          "name": "D4",
          "midi": 62,
          "duration": 0.384857,
          "velocity": 0.88189
        },
        {
          "time": 94.531732,
          "name": "D4",
          "midi": 62,
          "duration": 0.384409,
          "velocity": 0.88189
        },
        {
          "time": 94.531732,
          "name": "E3",
          "midi": 52,
          "duration": 0.384409,
          "velocity": 0.88189
        },
        {
          "time": 94.913363,
          "name": "E4",
          "midi": 64,
          "duration": 0.316666,
          "velocity": 0.88189
        },
        {
          "time": 94.916141,
          "name": "C#4",
          "midi": 61,
          "duration": 0.333333,
          "velocity": 0.96063
        },
        {
          "time": 94.916141,
          "name": "A3",
          "midi": 57,
          "duration": 0.333333,
          "velocity": 0.96063
        },
        {
          "time": 95.24114,
          "name": "E4",
          "midi": 64,
          "duration": 0.334677,
          "velocity": 0.88189
        },
        {
          "time": 95.24114,
          "name": "A3",
          "midi": 57,
          "duration": 0.334677,
          "velocity": 0.88189
        },
        {
          "time": 95.246696,
          "name": "C#4",
          "midi": 61,
          "duration": 0.166666,
          "velocity": 0.88189
        },
        {
          "time": 95.249474,
          "name": "C#4",
          "midi": 61,
          "duration": 0.336021,
          "velocity": 0.88189
        },
        {
          "time": 95.249474,
          "name": "E3",
          "midi": 52,
          "duration": 0.336021,
          "velocity": 0.88189
        },
        {
          "time": 95.413362,
          "name": "B3",
          "midi": 59,
          "duration": 0.168907,
          "velocity": 0.88189
        },
        {
          "time": 95.575817,
          "name": "A3",
          "midi": 57,
          "duration": 0.385753,
          "velocity": 0.88189
        },
        {
          "time": 95.575817,
          "name": "E4",
          "midi": 64,
          "duration": 0.385753,
          "velocity": 0.88189
        },
        {
          "time": 95.582269,
          "name": "A3",
          "midi": 57,
          "duration": 0.367742,
          "velocity": 0.88189
        },
        {
          "time": 95.585495,
          "name": "C#4",
          "midi": 61,
          "duration": 0.384409,
          "velocity": 0.88189
        },
        {
          "time": 95.585495,
          "name": "E3",
          "midi": 52,
          "duration": 0.384409,
          "velocity": 0.88189
        },
        {
          "time": 95.96157,
          "name": "A4",
          "midi": 69,
          "duration": 0.66801,
          "velocity": 0.88189
        },
        {
          "time": 95.96157,
          "name": "C#4",
          "midi": 61,
          "duration": 0.66801,
          "velocity": 0.88189
        },
        {
          "time": 95.967126,
          "name": "E4",
          "midi": 64,
          "duration": 0.333333,
          "velocity": 0.88189
        },
        {
          "time": 95.969904,
          "name": "C#4",
          "midi": 61,
          "duration": 0.669354,
          "velocity": 0.88189
        },
        {
          "time": 95.969904,
          "name": "A3",
          "midi": 57,
          "duration": 0.669354,
          "velocity": 0.88189
        },
        {
          "time": 95.969904,
          "name": "C#4",
          "midi": 61,
          "duration": 0.669354,
          "velocity": 0.96063
        },
        {
          "time": 95.969904,
          "name": "A3",
          "midi": 57,
          "duration": 0.669354,
          "velocity": 0.96063
        },
        {
          "time": 96.300459,
          "name": "F#4",
          "midi": 66,
          "duration": 0.316666,
          "velocity": 0.88189
        },
        {
          "time": 96.62958,
          "name": "G4",
          "midi": 67,
          "duration": 0.719086,
          "velocity": 0.88189
        },
        {
          "time": 96.62958,
          "name": "C#4",
          "midi": 61,
          "duration": 0.719086,
          "velocity": 0.88189
        },
        {
          "time": 96.636032,
          "name": "E4",
          "midi": 64,
          "duration": 0.367742,
          "velocity": 0.88189
        },
        {
          "time": 96.639258,
          "name": "C#4",
          "midi": 61,
          "duration": 0.717742,
          "velocity": 0.88189
        },
        {
          "time": 96.639258,
          "name": "G3",
          "midi": 55,
          "duration": 0.717742,
          "velocity": 0.88189
        },
        {
          "time": 96.639258,
          "name": "G3",
          "midi": 55,
          "duration": 0.717742,
          "velocity": 0.96063
        },
        {
          "time": 96.639258,
          "name": "C#4",
          "midi": 61,
          "duration": 0.717742,
          "velocity": 0.96063
        },
        {
          "time": 97.020889,
          "name": "F#4",
          "midi": 66,
          "duration": 0.668906,
          "velocity": 0.88189
        },
        {
          "time": 97.348666,
          "name": "D4",
          "midi": 62,
          "duration": 0.72043,
          "velocity": 0.88189
        },
        {
          "time": 97.348666,
          "name": "G#4",
          "midi": 68,
          "duration": 0.72043,
          "velocity": 0.88189
        },
        {
          "time": 97.357,
          "name": "D4",
          "midi": 62,
          "duration": 0.72043,
          "velocity": 0.88189
        },
        {
          "time": 97.357,
          "name": "G#3",
          "midi": 56,
          "duration": 0.72043,
          "velocity": 0.88189
        },
        {
          "time": 97.357,
          "name": "D4",
          "midi": 62,
          "duration": 0.72043,
          "velocity": 0.96063
        },
        {
          "time": 97.357,
          "name": "G#3",
          "midi": 56,
          "duration": 0.72043,
          "velocity": 0.96063
        },
        {
          "time": 97.689795,
          "name": "E4",
          "midi": 64,
          "duration": 0.367742,
          "velocity": 0.88189
        },
        {
          "time": 98.069096,
          "name": "A4",
          "midi": 69,
          "duration": 0.66801,
          "velocity": 0.88189
        },
        {
          "time": 98.069096,
          "name": "F#4",
          "midi": 66,
          "duration": 0.66801,
          "velocity": 0.88189
        },
        {
          "time": 98.074652,
          "name": "E4",
          "midi": 64,
          "duration": 0.333333,
          "velocity": 0.88189
        },
        {
          "time": 98.07743,
          "name": "A3",
          "midi": 57,
          "duration": 0.669354,
          "velocity": 0.88189
        },
        {
          "time": 98.07743,
          "name": "F#3",
          "midi": 54,
          "duration": 0.669354,
          "velocity": 0.88189
        },
        {
          "time": 98.07743,
          "name": "A3",
          "midi": 57,
          "duration": 0.669354,
          "velocity": 0.96063
        },
        {
          "time": 98.07743,
          "name": "F#3",
          "midi": 54,
          "duration": 0.669354,
          "velocity": 0.96063
        },
        {
          "time": 98.407985,
          "name": "F#4",
          "midi": 66,
          "duration": 0.316666,
          "velocity": 0.88189
        },
        {
          "time": 98.737106,
          "name": "F#4",
          "midi": 66,
          "duration": 0.719086,
          "velocity": 0.88189
        },
        {
          "time": 98.737106,
          "name": "A#4",
          "midi": 70,
          "duration": 0.719086,
          "velocity": 0.88189
        },
        {
          "time": 98.743558,
          "name": "E4",
          "midi": 64,
          "duration": 0.367742,
          "velocity": 0.88189
        },
        {
          "time": 98.746784,
          "name": "A#3",
          "midi": 58,
          "duration": 0.717742,
          "velocity": 0.88189
        },
        {
          "time": 98.746784,
          "name": "F#3",
          "midi": 54,
          "duration": 0.717742,
          "velocity": 0.88189
        },
        {
          "time": 98.746784,
          "name": "A#3",
          "midi": 58,
          "duration": 0.717742,
          "velocity": 0.96063
        },
        {
          "time": 98.746784,
          "name": "F#3",
          "midi": 54,
          "duration": 0.717742,
          "velocity": 0.96063
        },
        {
          "time": 99.128415,
          "name": "F#4",
          "midi": 66,
          "duration": 0.670018,
          "velocity": 0.88189
        },
        {
          "time": 99.456192,
          "name": "B4",
          "midi": 71,
          "duration": 0.747616,
          "velocity": 0.88189
        },
        {
          "time": 99.456192,
          "name": "G#4",
          "midi": 68,
          "duration": 0.747616,
          "velocity": 0.88189
        },
        {
          "time": 99.464526,
          "name": "G#3",
          "midi": 56,
          "duration": 0.748106,
          "velocity": 0.88189
        },
        {
          "time": 99.464526,
          "name": "B3",
          "midi": 59,
          "duration": 0.748106,
          "velocity": 0.88189
        },
        {
          "time": 99.464526,
          "name": "B3",
          "midi": 59,
          "duration": 0.748106,
          "velocity": 0.96063
        },
        {
          "time": 99.464526,
          "name": "G#3",
          "midi": 56,
          "duration": 0.748106,
          "velocity": 0.96063
        },
        {
          "time": 99.798433,
          "name": "E4",
          "midi": 64,
          "duration": 0.393103,
          "velocity": 0.88189
        },
        {
          "time": 100.209691,
          "name": "E4",
          "midi": 64,
          "duration": 0.352941,
          "velocity": 0.88189
        },
        {
          "time": 100.212632,
          "name": "E4",
          "midi": 64,
          "duration": 0.352941,
          "velocity": 0.96063
        },
        {
          "time": 100.212632,
          "name": "A3",
          "midi": 57,
          "duration": 0.352941,
          "velocity": 0.96063
        },
        {
          "time": 100.55675,
          "name": "F#4",
          "midi": 66,
          "duration": 0.353795,
          "velocity": 0.88189
        },
        {
          "time": 100.55675,
          "name": "A3",
          "midi": 57,
          "duration": 0.353795,
          "velocity": 0.88189
        },
        {
          "time": 100.562632,
          "name": "F#4",
          "midi": 66,
          "duration": 0.335294,
          "velocity": 0.88189
        },
        {
          "time": 100.565573,
          "name": "E4",
          "midi": 64,
          "duration": 0.354649,
          "velocity": 0.88189
        },
        {
          "time": 100.565573,
          "name": "F#3",
          "midi": 54,
          "duration": 0.354649,
          "velocity": 0.88189
        },
        {
          "time": 100.910544,
          "name": "A3",
          "midi": 57,
          "duration": 0.385753,
          "velocity": 0.88189
        },
        {
          "time": 100.910544,
          "name": "F#4",
          "midi": 66,
          "duration": 0.385753,
          "velocity": 0.88189
        },
        {
          "time": 100.916996,
          "name": "E4",
          "midi": 64,
          "duration": 0.384857,
          "velocity": 0.88189
        },
        {
          "time": 100.920222,
          "name": "E4",
          "midi": 64,
          "duration": 0.384409,
          "velocity": 0.88189
        },
        {
          "time": 100.920222,
          "name": "F#3",
          "midi": 54,
          "duration": 0.384409,
          "velocity": 0.88189
        },
        {
          "time": 101.301853,
          "name": "F#4",
          "midi": 66,
          "duration": 0.316666,
          "velocity": 0.88189
        },
        {
          "time": 101.304631,
          "name": "D#4",
          "midi": 63,
          "duration": 0.333333,
          "velocity": 0.96063
        },
        {
          "time": 101.304631,
          "name": "A3",
          "midi": 57,
          "duration": 0.333333,
          "velocity": 0.96063
        },
        {
          "time": 101.62963,
          "name": "A3",
          "midi": 57,
          "duration": 0.334677,
          "velocity": 0.88189
        },
        {
          "time": 101.62963,
          "name": "F#4",
          "midi": 66,
          "duration": 0.334677,
          "velocity": 0.88189
        },
        {
          "time": 101.635186,
          "name": "D#4",
          "midi": 63,
          "duration": 0.166666,
          "velocity": 0.88189
        },
        {
          "time": 101.637964,
          "name": "D#4",
          "midi": 63,
          "duration": 0.336021,
          "velocity": 0.88189
        },
        {
          "time": 101.637964,
          "name": "F#3",
          "midi": 54,
          "duration": 0.336021,
          "velocity": 0.88189
        },
        {
          "time": 101.801852,
          "name": "C#4",
          "midi": 61,
          "duration": 0.168907,
          "velocity": 0.88189
        },
        {
          "time": 101.964307,
          "name": "F#4",
          "midi": 66,
          "duration": 0.385753,
          "velocity": 0.88189
        },
        {
          "time": 101.964307,
          "name": "A3",
          "midi": 57,
          "duration": 0.385753,
          "velocity": 0.88189
        },
        {
          "time": 101.970759,
          "name": "B3",
          "midi": 59,
          "duration": 0.367742,
          "velocity": 0.88189
        },
        {
          "time": 101.973985,
          "name": "D#4",
          "midi": 63,
          "duration": 0.384409,
          "velocity": 0.88189
        },
        {
          "time": 101.973985,
          "name": "F#3",
          "midi": 54,
          "duration": 0.384409,
          "velocity": 0.88189
        },
        {
          "time": 102.355616,
          "name": "E4",
          "midi": 64,
          "duration": 0.316666,
          "velocity": 0.88189
        },
        {
          "time": 102.358394,
          "name": "G#3",
          "midi": 56,
          "duration": 0.333333,
          "velocity": 0.96063
        },
        {
          "time": 102.358394,
          "name": "D4",
          "midi": 62,
          "duration": 0.333333,
          "velocity": 0.96063
        },
        {
          "time": 102.683393,
          "name": "E4",
          "midi": 64,
          "duration": 0.334677,
          "velocity": 0.88189
        },
        {
          "time": 102.683393,
          "name": "G#3",
          "midi": 56,
          "duration": 0.334677,
          "velocity": 0.88189
        },
        {
          "time": 102.688949,
          "name": "D4",
          "midi": 62,
          "duration": 0.166666,
          "velocity": 0.88189
        },
        {
          "time": 102.691727,
          "name": "D4",
          "midi": 62,
          "duration": 0.336021,
          "velocity": 0.88189
        },
        {
          "time": 102.691727,
          "name": "E3",
          "midi": 52,
          "duration": 0.336021,
          "velocity": 0.88189
        },
        {
          "time": 102.855615,
          "name": "C#4",
          "midi": 61,
          "duration": 0.168907,
          "velocity": 0.88189
        },
        {
          "time": 103.01807,
          "name": "G#3",
          "midi": 56,
          "duration": 0.385753,
          "velocity": 0.88189
        },
        {
          "time": 103.01807,
          "name": "E4",
          "midi": 64,
          "duration": 0.385753,
          "velocity": 0.88189
        },
        {
          "time": 103.024522,
          "name": "B3",
          "midi": 59,
          "duration": 0.193548,
          "velocity": 0.88189
        },
        {
          "time": 103.027748,
          "name": "D4",
          "midi": 62,
          "duration": 0.384409,
          "velocity": 0.88189
        },
        {
          "time": 103.027748,
          "name": "E3",
          "midi": 52,
          "duration": 0.384409,
          "velocity": 0.88189
        },
        {
          "time": 103.218071,
          "name": "C#4",
          "midi": 61,
          "duration": 0.191308,
          "velocity": 0.88189
        },
        {
          "time": 103.403823,
          "name": "E4",
          "midi": 64,
          "duration": 0.333333,
          "velocity": 0.88189
        },
        {
          "time": 103.403823,
          "name": "A3",
          "midi": 57,
          "duration": 0.333333,
          "velocity": 0.88189
        },
        {
          "time": 103.409379,
          "name": "A3",
          "midi": 57,
          "duration": 0.166666,
          "velocity": 0.88189
        },
        {
          "time": 103.412157,
          "name": "C#4",
          "midi": 61,
          "duration": 0.333333,
          "velocity": 0.88189
        },
        {
          "time": 103.412157,
          "name": "E3",
          "midi": 52,
          "duration": 0.333333,
          "velocity": 0.88189
        },
        {
          "time": 103.412157,
          "name": "C#4",
          "midi": 61,
          "duration": 0.333333,
          "velocity": 0.96063
        },
        {
          "time": 103.412157,
          "name": "A3",
          "midi": 57,
          "duration": 0.333333,
          "velocity": 0.96063
        },
        {
          "time": 103.576045,
          "name": "G#3",
          "midi": 56,
          "duration": 0.166667,
          "velocity": 0.88189
        },
        {
          "time": 103.742712,
          "name": "A3",
          "midi": 57,
          "duration": 0.166666,
          "velocity": 0.88189
        },
        {
          "time": 103.909378,
          "name": "B3",
          "midi": 59,
          "duration": 0.168907,
          "velocity": 0.88189
        },
        {
          "time": 104.078285,
          "name": "C#4",
          "midi": 61,
          "duration": 0.193548,
          "velocity": 0.88189
        },
        {
          "time": 104.271834,
          "name": "D4",
          "midi": 62,
          "duration": 0.191308,
          "velocity": 0.88189
        },
        {
          "time": 104.457586,
          "name": "C#4",
          "midi": 61,
          "duration": 0.66801,
          "velocity": 0.88189
        },
        {
          "time": 104.457586,
          "name": "A4",
          "midi": 69,
          "duration": 0.66801,
          "velocity": 0.88189
        },
        {
          "time": 104.463142,
          "name": "E4",
          "midi": 64,
          "duration": 0.333333,
          "velocity": 0.88189
        },
        {
          "time": 104.46592,
          "name": "C#4",
          "midi": 61,
          "duration": 0.669354,
          "velocity": 0.88189
        },
        {
          "time": 104.46592,
          "name": "A3",
          "midi": 57,
          "duration": 0.669354,
          "velocity": 0.88189
        },
        {
          "time": 104.46592,
          "name": "C#4",
          "midi": 61,
          "duration": 0.669354,
          "velocity": 0.96063
        },
        {
          "time": 104.46592,
          "name": "A3",
          "midi": 57,
          "duration": 0.669354,
          "velocity": 0.96063
        },
        {
          "time": 104.796475,
          "name": "F#4",
          "midi": 66,
          "duration": 0.316666,
          "velocity": 0.88189
        },
        {
          "time": 105.125596,
          "name": "G4",
          "midi": 67,
          "duration": 0.719086,
          "velocity": 0.88189
        },
        {
          "time": 105.125596,
          "name": "C#4",
          "midi": 61,
          "duration": 0.719086,
          "velocity": 0.88189
        },
        {
          "time": 105.132048,
          "name": "E4",
          "midi": 64,
          "duration": 0.367742,
          "velocity": 0.88189
        },
        {
          "time": 105.135274,
          "name": "C#4",
          "midi": 61,
          "duration": 0.717742,
          "velocity": 0.88189
        },
        {
          "time": 105.135274,
          "name": "G3",
          "midi": 55,
          "duration": 0.717742,
          "velocity": 0.88189
        },
        {
          "time": 105.135274,
          "name": "G3",
          "midi": 55,
          "duration": 0.717742,
          "velocity": 0.96063
        },
        {
          "time": 105.135274,
          "name": "C#4",
          "midi": 61,
          "duration": 0.717742,
          "velocity": 0.96063
        },
        {
          "time": 105.516905,
          "name": "F#4",
          "midi": 66,
          "duration": 0.668906,
          "velocity": 0.88189
        },
        {
          "time": 105.844682,
          "name": "G#4",
          "midi": 68,
          "duration": 0.72043,
          "velocity": 0.88189
        },
        {
          "time": 105.844682,
          "name": "D4",
          "midi": 62,
          "duration": 0.72043,
          "velocity": 0.88189
        },
        {
          "time": 105.853016,
          "name": "D4",
          "midi": 62,
          "duration": 0.72043,
          "velocity": 0.88189
        },
        {
          "time": 105.853016,
          "name": "G#3",
          "midi": 56,
          "duration": 0.72043,
          "velocity": 0.88189
        },
        {
          "time": 105.853016,
          "name": "D4",
          "midi": 62,
          "duration": 0.72043,
          "velocity": 0.96063
        },
        {
          "time": 105.853016,
          "name": "G#3",
          "midi": 56,
          "duration": 0.72043,
          "velocity": 0.96063
        },
        {
          "time": 106.185811,
          "name": "E4",
          "midi": 64,
          "duration": 0.367742,
          "velocity": 0.88189
        },
        {
          "time": 106.565112,
          "name": "F#4",
          "midi": 66,
          "duration": 0.66801,
          "velocity": 0.88189
        },
        {
          "time": 106.565112,
          "name": "A4",
          "midi": 69,
          "duration": 0.66801,
          "velocity": 0.88189
        },
        {
          "time": 106.570668,
          "name": "E4",
          "midi": 64,
          "duration": 0.333333,
          "velocity": 0.88189
        },
        {
          "time": 106.573446,
          "name": "A3",
          "midi": 57,
          "duration": 0.669354,
          "velocity": 0.88189
        },
        {
          "time": 106.573446,
          "name": "F#3",
          "midi": 54,
          "duration": 0.669354,
          "velocity": 0.88189
        },
        {
          "time": 106.573446,
          "name": "A3",
          "midi": 57,
          "duration": 0.669354,
          "velocity": 0.96063
        },
        {
          "time": 106.573446,
          "name": "F#3",
          "midi": 54,
          "duration": 0.669354,
          "velocity": 0.96063
        },
        {
          "time": 106.904001,
          "name": "F#4",
          "midi": 66,
          "duration": 0.316666,
          "velocity": 0.88189
        },
        {
          "time": 107.233122,
          "name": "F#4",
          "midi": 66,
          "duration": 0.719086,
          "velocity": 0.88189
        },
        {
          "time": 107.233122,
          "name": "A#4",
          "midi": 70,
          "duration": 0.719086,
          "velocity": 0.88189
        },
        {
          "time": 107.239574,
          "name": "E4",
          "midi": 64,
          "duration": 0.367742,
          "velocity": 0.88189
        },
        {
          "time": 107.2428,
          "name": "A#3",
          "midi": 58,
          "duration": 0.717742,
          "velocity": 0.88189
        },
        {
          "time": 107.2428,
          "name": "F#3",
          "midi": 54,
          "duration": 0.717742,
          "velocity": 0.88189
        },
        {
          "time": 107.2428,
          "name": "A#3",
          "midi": 58,
          "duration": 0.717742,
          "velocity": 0.96063
        },
        {
          "time": 107.2428,
          "name": "F#3",
          "midi": 54,
          "duration": 0.717742,
          "velocity": 0.96063
        },
        {
          "time": 107.624431,
          "name": "F#4",
          "midi": 66,
          "duration": 0.670018,
          "velocity": 0.88189
        },
        {
          "time": 107.952208,
          "name": "B4",
          "midi": 71,
          "duration": 0.747616,
          "velocity": 0.88189
        },
        {
          "time": 107.952208,
          "name": "G#4",
          "midi": 68,
          "duration": 0.747616,
          "velocity": 0.88189
        },
        {
          "time": 107.960542,
          "name": "G#3",
          "midi": 56,
          "duration": 0.748106,
          "velocity": 0.88189
        },
        {
          "time": 107.960542,
          "name": "B3",
          "midi": 59,
          "duration": 0.748106,
          "velocity": 0.88189
        },
        {
          "time": 107.960542,
          "name": "B3",
          "midi": 59,
          "duration": 0.748106,
          "velocity": 0.96063
        },
        {
          "time": 107.960542,
          "name": "G#3",
          "midi": 56,
          "duration": 0.748106,
          "velocity": 0.96063
        },
        {
          "time": 108.294449,
          "name": "E4",
          "midi": 64,
          "duration": 0.393103,
          "velocity": 0.88189
        },
        {
          "time": 108.705707,
          "name": "E4",
          "midi": 64,
          "duration": 0.352941,
          "velocity": 0.88189
        },
        {
          "time": 108.708648,
          "name": "E4",
          "midi": 64,
          "duration": 0.352941,
          "velocity": 0.96063
        },
        {
          "time": 108.708648,
          "name": "A3",
          "midi": 57,
          "duration": 0.352941,
          "velocity": 0.96063
        },
        {
          "time": 109.052766,
          "name": "F#4",
          "midi": 66,
          "duration": 0.353795,
          "velocity": 0.88189
        },
        {
          "time": 109.052766,
          "name": "A3",
          "midi": 57,
          "duration": 0.353795,
          "velocity": 0.88189
        },
        {
          "time": 109.058648,
          "name": "F#4",
          "midi": 66,
          "duration": 0.335294,
          "velocity": 0.88189
        },
        {
          "time": 109.061589,
          "name": "E4",
          "midi": 64,
          "duration": 0.354649,
          "velocity": 0.88189
        },
        {
          "time": 109.061589,
          "name": "F#3",
          "midi": 54,
          "duration": 0.354649,
          "velocity": 0.88189
        },
        {
          "time": 109.40656,
          "name": "A3",
          "midi": 57,
          "duration": 0.385753,
          "velocity": 0.88189
        },
        {
          "time": 109.40656,
          "name": "F#4",
          "midi": 66,
          "duration": 0.385753,
          "velocity": 0.88189
        },
        {
          "time": 109.413012,
          "name": "E4",
          "midi": 64,
          "duration": 0.384857,
          "velocity": 0.88189
        },
        {
          "time": 109.416238,
          "name": "E4",
          "midi": 64,
          "duration": 0.384409,
          "velocity": 0.88189
        },
        {
          "time": 109.416238,
          "name": "F#3",
          "midi": 54,
          "duration": 0.384409,
          "velocity": 0.88189
        },
        {
          "time": 109.797869,
          "name": "F#4",
          "midi": 66,
          "duration": 0.316666,
          "velocity": 0.88189
        },
        {
          "time": 109.800647,
          "name": "D#4",
          "midi": 63,
          "duration": 0.333333,
          "velocity": 0.96063
        },
        {
          "time": 109.800647,
          "name": "A3",
          "midi": 57,
          "duration": 0.333333,
          "velocity": 0.96063
        },
        {
          "time": 110.125646,
          "name": "A3",
          "midi": 57,
          "duration": 0.334677,
          "velocity": 0.88189
        },
        {
          "time": 110.125646,
          "name": "F#4",
          "midi": 66,
          "duration": 0.334677,
          "velocity": 0.88189
        },
        {
          "time": 110.131202,
          "name": "D#4",
          "midi": 63,
          "duration": 0.166666,
          "velocity": 0.88189
        },
        {
          "time": 110.13398,
          "name": "D#4",
          "midi": 63,
          "duration": 0.336021,
          "velocity": 0.88189
        },
        {
          "time": 110.13398,
          "name": "F#3",
          "midi": 54,
          "duration": 0.336021,
          "velocity": 0.88189
        },
        {
          "time": 110.297868,
          "name": "C#4",
          "midi": 61,
          "duration": 0.168907,
          "velocity": 0.88189
        },
        {
          "time": 110.460323,
          "name": "A3",
          "midi": 57,
          "duration": 0.385753,
          "velocity": 0.88189
        },
        {
          "time": 110.460323,
          "name": "F#4",
          "midi": 66,
          "duration": 0.385753,
          "velocity": 0.88189
        },
        {
          "time": 110.466775,
          "name": "B3",
          "midi": 59,
          "duration": 0.367742,
          "velocity": 0.88189
        },
        {
          "time": 110.470001,
          "name": "D#4",
          "midi": 63,
          "duration": 0.384409,
          "velocity": 0.88189
        },
        {
          "time": 110.470001,
          "name": "F#3",
          "midi": 54,
          "duration": 0.384409,
          "velocity": 0.88189
        },
        {
          "time": 110.851632,
          "name": "D4",
          "midi": 62,
          "duration": 0.333333,
          "velocity": 0.88189
        },
        {
          "time": 110.85441,
          "name": "G#3",
          "midi": 56,
          "duration": 0.333333,
          "velocity": 0.96063
        },
        {
          "time": 110.85441,
          "name": "D4",
          "midi": 62,
          "duration": 0.333333,
          "velocity": 0.96063
        },
        {
          "time": 111.179409,
          "name": "E4",
          "midi": 64,
          "duration": 0.334677,
          "velocity": 0.88189
        },
        {
          "time": 111.179409,
          "name": "G#3",
          "midi": 56,
          "duration": 0.334677,
          "velocity": 0.88189
        },
        {
          "time": 111.184965,
          "name": "E4",
          "midi": 64,
          "duration": 0.316666,
          "velocity": 0.88189
        },
        {
          "time": 111.187743,
          "name": "D4",
          "midi": 62,
          "duration": 0.336021,
          "velocity": 0.88189
        },
        {
          "time": 111.187743,
          "name": "E3",
          "midi": 52,
          "duration": 0.336021,
          "velocity": 0.88189
        },
        {
          "time": 111.514086,
          "name": "E4",
          "midi": 64,
          "duration": 0.385753,
          "velocity": 0.88189
        },
        {
          "time": 111.514086,
          "name": "G#3",
          "midi": 56,
          "duration": 0.385753,
          "velocity": 0.88189
        },
        {
          "time": 111.520538,
          "name": "D4",
          "midi": 62,
          "duration": 0.384857,
          "velocity": 0.88189
        },
        {
          "time": 111.523764,
          "name": "D4",
          "midi": 62,
          "duration": 0.384409,
          "velocity": 0.88189
        },
        {
          "time": 111.523764,
          "name": "E3",
          "midi": 52,
          "duration": 0.384409,
          "velocity": 0.88189
        },
        {
          "time": 111.905395,
          "name": "E4",
          "midi": 64,
          "duration": 0.316666,
          "velocity": 0.88189
        },
        {
          "time": 111.908173,
          "name": "C#4",
          "midi": 61,
          "duration": 0.333333,
          "velocity": 0.96063
        },
        {
          "time": 111.908173,
          "name": "A3",
          "midi": 57,
          "duration": 0.333333,
          "velocity": 0.96063
        },
        {
          "time": 112.233172,
          "name": "A3",
          "midi": 57,
          "duration": 0.334677,
          "velocity": 0.88189
        },
        {
          "time": 112.233172,
          "name": "E4",
          "midi": 64,
          "duration": 0.334677,
          "velocity": 0.88189
        },
        {
          "time": 112.238728,
          "name": "C#4",
          "midi": 61,
          "duration": 0.166666,
          "velocity": 0.88189
        },
        {
          "time": 112.241506,
          "name": "C#4",
          "midi": 61,
          "duration": 0.336021,
          "velocity": 0.88189
        },
        {
          "time": 112.241506,
          "name": "E3",
          "midi": 52,
          "duration": 0.336021,
          "velocity": 0.88189
        },
        {
          "time": 112.405394,
          "name": "B3",
          "midi": 59,
          "duration": 0.168907,
          "velocity": 0.88189
        },
        {
          "time": 112.567849,
          "name": "A3",
          "midi": 57,
          "duration": 0.385753,
          "velocity": 0.88189
        },
        {
          "time": 112.567849,
          "name": "E4",
          "midi": 64,
          "duration": 0.385753,
          "velocity": 0.88189
        },
        {
          "time": 112.574301,
          "name": "A3",
          "midi": 57,
          "duration": 0.367742,
          "velocity": 0.88189
        },
        {
          "time": 112.577527,
          "name": "C#4",
          "midi": 61,
          "duration": 0.384409,
          "velocity": 0.88189
        },
        {
          "time": 112.577527,
          "name": "E3",
          "midi": 52,
          "duration": 0.384409,
          "velocity": 0.88189
        },
        {
          "time": 112.953602,
          "name": "C#4",
          "midi": 61,
          "duration": 0.66801,
          "velocity": 0.88189
        },
        {
          "time": 112.953602,
          "name": "A4",
          "midi": 69,
          "duration": 0.66801,
          "velocity": 0.88189
        },
        {
          "time": 112.959158,
          "name": "E4",
          "midi": 64,
          "duration": 0.333333,
          "velocity": 0.88189
        },
        {
          "time": 112.961936,
          "name": "C#4",
          "midi": 61,
          "duration": 0.669354,
          "velocity": 0.88189
        },
        {
          "time": 112.961936,
          "name": "A3",
          "midi": 57,
          "duration": 0.669354,
          "velocity": 0.88189
        },
        {
          "time": 112.961936,
          "name": "C#4",
          "midi": 61,
          "duration": 0.669354,
          "velocity": 0.96063
        },
        {
          "time": 112.961936,
          "name": "A3",
          "midi": 57,
          "duration": 0.669354,
          "velocity": 0.96063
        },
        {
          "time": 113.292491,
          "name": "F#4",
          "midi": 66,
          "duration": 0.316666,
          "velocity": 0.88189
        },
        {
          "time": 113.621612,
          "name": "G4",
          "midi": 67,
          "duration": 0.719086,
          "velocity": 0.88189
        },
        {
          "time": 113.621612,
          "name": "C#4",
          "midi": 61,
          "duration": 0.719086,
          "velocity": 0.88189
        },
        {
          "time": 113.628064,
          "name": "E4",
          "midi": 64,
          "duration": 0.367742,
          "velocity": 0.88189
        },
        {
          "time": 113.63129,
          "name": "C#4",
          "midi": 61,
          "duration": 0.717742,
          "velocity": 0.88189
        },
        {
          "time": 113.63129,
          "name": "G3",
          "midi": 55,
          "duration": 0.717742,
          "velocity": 0.88189
        },
        {
          "time": 113.63129,
          "name": "G3",
          "midi": 55,
          "duration": 0.717742,
          "velocity": 0.96063
        },
        {
          "time": 113.63129,
          "name": "C#4",
          "midi": 61,
          "duration": 0.717742,
          "velocity": 0.96063
        },
        {
          "time": 114.012921,
          "name": "F#4",
          "midi": 66,
          "duration": 0.668906,
          "velocity": 0.88189
        },
        {
          "time": 114.340698,
          "name": "D4",
          "midi": 62,
          "duration": 0.72043,
          "velocity": 0.88189
        },
        {
          "time": 114.340698,
          "name": "G#4",
          "midi": 68,
          "duration": 0.72043,
          "velocity": 0.88189
        },
        {
          "time": 114.349032,
          "name": "D4",
          "midi": 62,
          "duration": 0.72043,
          "velocity": 0.88189
        },
        {
          "time": 114.349032,
          "name": "G#3",
          "midi": 56,
          "duration": 0.72043,
          "velocity": 0.88189
        },
        {
          "time": 114.349032,
          "name": "D4",
          "midi": 62,
          "duration": 0.72043,
          "velocity": 0.96063
        },
        {
          "time": 114.349032,
          "name": "G#3",
          "midi": 56,
          "duration": 0.72043,
          "velocity": 0.96063
        },
        {
          "time": 114.681827,
          "name": "E4",
          "midi": 64,
          "duration": 0.367742,
          "velocity": 0.88189
        },
        {
          "time": 115.061128,
          "name": "A4",
          "midi": 69,
          "duration": 0.66801,
          "velocity": 0.88189
        },
        {
          "time": 115.061128,
          "name": "F#4",
          "midi": 66,
          "duration": 0.66801,
          "velocity": 0.88189
        },
        {
          "time": 115.066684,
          "name": "E4",
          "midi": 64,
          "duration": 0.333333,
          "velocity": 0.88189
        },
        {
          "time": 115.069462,
          "name": "A3",
          "midi": 57,
          "duration": 0.669354,
          "velocity": 0.88189
        },
        {
          "time": 115.069462,
          "name": "F#3",
          "midi": 54,
          "duration": 0.669354,
          "velocity": 0.88189
        },
        {
          "time": 115.069462,
          "name": "A3",
          "midi": 57,
          "duration": 0.669354,
          "velocity": 0.96063
        },
        {
          "time": 115.069462,
          "name": "F#3",
          "midi": 54,
          "duration": 0.669354,
          "velocity": 0.96063
        },
        {
          "time": 115.400017,
          "name": "F#4",
          "midi": 66,
          "duration": 0.316666,
          "velocity": 0.88189
        },
        {
          "time": 115.729138,
          "name": "A#4",
          "midi": 70,
          "duration": 0.719086,
          "velocity": 0.88189
        },
        {
          "time": 115.729138,
          "name": "F#4",
          "midi": 66,
          "duration": 0.719086,
          "velocity": 0.88189
        },
        {
          "time": 115.73559,
          "name": "E4",
          "midi": 64,
          "duration": 0.367742,
          "velocity": 0.88189
        },
        {
          "time": 115.738816,
          "name": "A#3",
          "midi": 58,
          "duration": 0.717742,
          "velocity": 0.88189
        },
        {
          "time": 115.738816,
          "name": "F#3",
          "midi": 54,
          "duration": 0.717742,
          "velocity": 0.88189
        },
        {
          "time": 115.738816,
          "name": "A#3",
          "midi": 58,
          "duration": 0.717742,
          "velocity": 0.96063
        },
        {
          "time": 115.738816,
          "name": "F#3",
          "midi": 54,
          "duration": 0.717742,
          "velocity": 0.96063
        },
        {
          "time": 116.120447,
          "name": "F#4",
          "midi": 66,
          "duration": 0.670018,
          "velocity": 0.88189
        },
        {
          "time": 116.448224,
          "name": "G#4",
          "midi": 68,
          "duration": 0.747616,
          "velocity": 0.88189
        },
        {
          "time": 116.448224,
          "name": "B4",
          "midi": 71,
          "duration": 0.747616,
          "velocity": 0.88189
        },
        {
          "time": 116.456558,
          "name": "G#3",
          "midi": 56,
          "duration": 0.748106,
          "velocity": 0.88189
        },
        {
          "time": 116.456558,
          "name": "B3",
          "midi": 59,
          "duration": 0.748106,
          "velocity": 0.88189
        },
        {
          "time": 116.456558,
          "name": "B3",
          "midi": 59,
          "duration": 0.748106,
          "velocity": 0.96063
        },
        {
          "time": 116.456558,
          "name": "G#3",
          "midi": 56,
          "duration": 0.748106,
          "velocity": 0.96063
        },
        {
          "time": 116.790465,
          "name": "E4",
          "midi": 64,
          "duration": 0.393103,
          "velocity": 0.88189
        },
        {
          "time": 117.201723,
          "name": "E4",
          "midi": 64,
          "duration": 0.352941,
          "velocity": 0.88189
        },
        {
          "time": 117.204664,
          "name": "E4",
          "midi": 64,
          "duration": 0.352941,
          "velocity": 0.96063
        },
        {
          "time": 117.204664,
          "name": "A3",
          "midi": 57,
          "duration": 0.352941,
          "velocity": 0.96063
        },
        {
          "time": 117.548782,
          "name": "F#4",
          "midi": 66,
          "duration": 0.353795,
          "velocity": 0.88189
        },
        {
          "time": 117.548782,
          "name": "A3",
          "midi": 57,
          "duration": 0.353795,
          "velocity": 0.88189
        },
        {
          "time": 117.554664,
          "name": "F#4",
          "midi": 66,
          "duration": 0.335294,
          "velocity": 0.88189
        },
        {
          "time": 117.557605,
          "name": "E4",
          "midi": 64,
          "duration": 0.354649,
          "velocity": 0.88189
        },
        {
          "time": 117.557605,
          "name": "F#3",
          "midi": 54,
          "duration": 0.354649,
          "velocity": 0.88189
        },
        {
          "time": 117.902576,
          "name": "A3",
          "midi": 57,
          "duration": 0.385753,
          "velocity": 0.88189
        },
        {
          "time": 117.902576,
          "name": "F#4",
          "midi": 66,
          "duration": 0.385753,
          "velocity": 0.88189
        },
        {
          "time": 117.909028,
          "name": "E4",
          "midi": 64,
          "duration": 0.384857,
          "velocity": 0.88189
        },
        {
          "time": 117.912254,
          "name": "E4",
          "midi": 64,
          "duration": 0.384409,
          "velocity": 0.88189
        },
        {
          "time": 117.912254,
          "name": "F#3",
          "midi": 54,
          "duration": 0.384409,
          "velocity": 0.88189
        },
        {
          "time": 118.293885,
          "name": "F#4",
          "midi": 66,
          "duration": 0.316666,
          "velocity": 0.88189
        },
        {
          "time": 118.296663,
          "name": "D#4",
          "midi": 63,
          "duration": 0.333333,
          "velocity": 0.96063
        },
        {
          "time": 118.296663,
          "name": "A3",
          "midi": 57,
          "duration": 0.333333,
          "velocity": 0.96063
        },
        {
          "time": 118.621662,
          "name": "F#4",
          "midi": 66,
          "duration": 0.334677,
          "velocity": 0.88189
        },
        {
          "time": 118.621662,
          "name": "A3",
          "midi": 57,
          "duration": 0.334677,
          "velocity": 0.88189
        },
        {
          "time": 118.627218,
          "name": "D#4",
          "midi": 63,
          "duration": 0.166666,
          "velocity": 0.88189
        },
        {
          "time": 118.629996,
          "name": "D#4",
          "midi": 63,
          "duration": 0.336021,
          "velocity": 0.88189
        },
        {
          "time": 118.629996,
          "name": "F#3",
          "midi": 54,
          "duration": 0.336021,
          "velocity": 0.88189
        },
        {
          "time": 118.793884,
          "name": "C#4",
          "midi": 61,
          "duration": 0.168907,
          "velocity": 0.88189
        },
        {
          "time": 118.956339,
          "name": "F#4",
          "midi": 66,
          "duration": 0.385753,
          "velocity": 0.88189
        },
        {
          "time": 118.956339,
          "name": "A3",
          "midi": 57,
          "duration": 0.385753,
          "velocity": 0.88189
        },
        {
          "time": 118.962791,
          "name": "B3",
          "midi": 59,
          "duration": 0.367742,
          "velocity": 0.88189
        },
        {
          "time": 118.966017,
          "name": "D#4",
          "midi": 63,
          "duration": 0.384409,
          "velocity": 0.88189
        },
        {
          "time": 118.966017,
          "name": "F#3",
          "midi": 54,
          "duration": 0.384409,
          "velocity": 0.88189
        },
        {
          "time": 119.347648,
          "name": "E4",
          "midi": 64,
          "duration": 0.316666,
          "velocity": 0.88189
        },
        {
          "time": 119.350426,
          "name": "G#3",
          "midi": 56,
          "duration": 0.333333,
          "velocity": 0.96063
        },
        {
          "time": 119.350426,
          "name": "D4",
          "midi": 62,
          "duration": 0.333333,
          "velocity": 0.96063
        },
        {
          "time": 119.675425,
          "name": "G#3",
          "midi": 56,
          "duration": 0.334677,
          "velocity": 0.88189
        },
        {
          "time": 119.675425,
          "name": "E4",
          "midi": 64,
          "duration": 0.334677,
          "velocity": 0.88189
        },
        {
          "time": 119.680981,
          "name": "D4",
          "midi": 62,
          "duration": 0.166666,
          "velocity": 0.88189
        },
        {
          "time": 119.683759,
          "name": "D4",
          "midi": 62,
          "duration": 0.336021,
          "velocity": 0.88189
        },
        {
          "time": 119.683759,
          "name": "E3",
          "midi": 52,
          "duration": 0.336021,
          "velocity": 0.88189
        },
        {
          "time": 119.847647,
          "name": "C#4",
          "midi": 61,
          "duration": 0.168907,
          "velocity": 0.88189
        },
        {
          "time": 120.010102,
          "name": "G#3",
          "midi": 56,
          "duration": 0.385991,
          "velocity": 0.88189
        },
        {
          "time": 120.010102,
          "name": "E4",
          "midi": 64,
          "duration": 0.385991,
          "velocity": 0.88189
        },
        {
          "time": 120.016554,
          "name": "B3",
          "midi": 59,
          "duration": 0.193548,
          "velocity": 0.88189
        },
        {
          "time": 120.01978,
          "name": "D4",
          "midi": 62,
          "duration": 0.384885,
          "velocity": 0.88189
        },
        {
          "time": 120.01978,
          "name": "E3",
          "midi": 52,
          "duration": 0.384885,
          "velocity": 0.88189
        },
        {
          "time": 120.210103,
          "name": "C#4",
          "midi": 61,
          "duration": 0.191705,
          "velocity": 0.88189
        },
        {
          "time": 120.396093,
          "name": "E4",
          "midi": 64,
          "duration": 0.171429,
          "velocity": 0.88189
        },
        {
          "time": 120.396093,
          "name": "A3",
          "midi": 57,
          "duration": 0.171429,
          "velocity": 0.88189
        },
        {
          "time": 120.401808,
          "name": "A3",
          "midi": 57,
          "duration": 0.171429,
          "velocity": 0.88189
        },
        {
          "time": 120.404665,
          "name": "C#4",
          "midi": 61,
          "duration": 0.171429,
          "velocity": 0.88189
        },
        {
          "time": 120.404665,
          "name": "E3",
          "midi": 52,
          "duration": 0.171429,
          "velocity": 0.88189
        },
        {
          "time": 120.404665,
          "name": "C#4",
          "midi": 61,
          "duration": 0.171429,
          "velocity": 0.96063
        },
        {
          "time": 120.404665,
          "name": "A3",
          "midi": 57,
          "duration": 0.171429,
          "velocity": 0.96063
        },
        {
          "time": 121.475039,
          "name": "D4",
          "midi": 62,
          "duration": 0.17647,
          "velocity": 0.88189
        },
        {
          "time": 121.822098,
          "name": "F#3",
          "midi": 54,
          "duration": 0.354462,
          "velocity": 0.88189
        },
        {
          "time": 121.822098,
          "name": "A3",
          "midi": 57,
          "duration": 0.354462,
          "velocity": 0.88189
        },
        {
          "time": 121.82798,
          "name": "D4",
          "midi": 62,
          "duration": 0.766734,
          "velocity": 1
        },
        {
          "time": 122.17656,
          "name": "A3",
          "midi": 57,
          "duration": 0.412272,
          "velocity": 0.88189
        },
        {
          "time": 122.17656,
          "name": "F#3",
          "midi": 54,
          "duration": 0.412272,
          "velocity": 0.88189
        },
        {
          "time": 122.594714,
          "name": "C#4",
          "midi": 61,
          "duration": 0.17647,
          "velocity": 0.88189
        },
        {
          "time": 122.941773,
          "name": "F#3",
          "midi": 54,
          "duration": 0.354462,
          "velocity": 0.88189
        },
        {
          "time": 122.941773,
          "name": "A3",
          "midi": 57,
          "duration": 0.354462,
          "velocity": 0.88189
        },
        {
          "time": 122.947655,
          "name": "C#4",
          "midi": 61,
          "duration": 0.766734,
          "velocity": 1
        },
        {
          "time": 123.296235,
          "name": "A3",
          "midi": 57,
          "duration": 0.412272,
          "velocity": 0.88189
        },
        {
          "time": 123.296235,
          "name": "F#3",
          "midi": 54,
          "duration": 0.412272,
          "velocity": 0.88189
        },
        {
          "time": 123.714389,
          "name": "E4",
          "midi": 64,
          "duration": 0.17647,
          "velocity": 0.88189
        },
        {
          "time": 124.061448,
          "name": "F#3",
          "midi": 54,
          "duration": 0.354462,
          "velocity": 0.88189
        },
        {
          "time": 124.061448,
          "name": "A3",
          "midi": 57,
          "duration": 0.354462,
          "velocity": 0.88189
        },
        {
          "time": 124.06733,
          "name": "E4",
          "midi": 64,
          "duration": 0.562373,
          "velocity": 1
        },
        {
          "time": 124.41591,
          "name": "F#3",
          "midi": 54,
          "duration": 0.412272,
          "velocity": 0.88189
        },
        {
          "time": 124.41591,
          "name": "A3",
          "midi": 57,
          "duration": 0.412272,
          "velocity": 0.88189
        },
        {
          "time": 124.629703,
          "name": "D4",
          "midi": 62,
          "duration": 0.204361,
          "velocity": 0.88189
        },
        {
          "time": 124.834064,
          "name": "A3",
          "midi": 57,
          "duration": 1.119675,
          "velocity": 0.88189
        },
        {
          "time": 125.181123,
          "name": "A3",
          "midi": 57,
          "duration": 0.354462,
          "velocity": 0.88189
        },
        {
          "time": 125.181123,
          "name": "F#3",
          "midi": 54,
          "duration": 0.354462,
          "velocity": 0.88189
        },
        {
          "time": 125.535585,
          "name": "F#3",
          "midi": 54,
          "duration": 0.412272,
          "velocity": 0.88189
        },
        {
          "time": 125.535585,
          "name": "A3",
          "midi": 57,
          "duration": 0.412272,
          "velocity": 0.88189
        },
        {
          "time": 125.953739,
          "name": "D4",
          "midi": 62,
          "duration": 0.17647,
          "velocity": 0.88189
        },
        {
          "time": 126.300798,
          "name": "A3",
          "midi": 57,
          "duration": 0.354462,
          "velocity": 0.88189
        },
        {
          "time": 126.300798,
          "name": "F#3",
          "midi": 54,
          "duration": 0.354462,
          "velocity": 0.88189
        },
        {
          "time": 126.30668,
          "name": "D4",
          "midi": 62,
          "duration": 0.766734,
          "velocity": 1
        },
        {
          "time": 126.65526,
          "name": "A3",
          "midi": 57,
          "duration": 0.412272,
          "velocity": 0.88189
        },
        {
          "time": 126.65526,
          "name": "F#3",
          "midi": 54,
          "duration": 0.412272,
          "velocity": 0.88189
        },
        {
          "time": 127.073414,
          "name": "C#4",
          "midi": 61,
          "duration": 0.17647,
          "velocity": 0.88189
        },
        {
          "time": 127.420473,
          "name": "F#3",
          "midi": 54,
          "duration": 0.354462,
          "velocity": 0.88189
        },
        {
          "time": 127.420473,
          "name": "A#3",
          "midi": 58,
          "duration": 0.354462,
          "velocity": 0.88189
        },
        {
          "time": 127.426355,
          "name": "C#4",
          "midi": 61,
          "duration": 0.766734,
          "velocity": 1
        },
        {
          "time": 127.774935,
          "name": "A#3",
          "midi": 58,
          "duration": 0.412272,
          "velocity": 0.88189
        },
        {
          "time": 127.774935,
          "name": "F#3",
          "midi": 54,
          "duration": 0.412272,
          "velocity": 0.88189
        },
        {
          "time": 128.193089,
          "name": "B3",
          "midi": 59,
          "duration": 0.17647,
          "velocity": 0.88189
        },
        {
          "time": 128.540148,
          "name": "G3",
          "midi": 55,
          "duration": 0.354462,
          "velocity": 0.88189
        },
        {
          "time": 128.540148,
          "name": "B3",
          "midi": 59,
          "duration": 0.354462,
          "velocity": 0.88189
        },
        {
          "time": 128.54603,
          "name": "C#4",
          "midi": 61,
          "duration": 0.562373,
          "velocity": 1
        },
        {
          "time": 128.89461,
          "name": "F#3",
          "midi": 54,
          "duration": 0.412272,
          "velocity": 0.88189
        },
        {
          "time": 128.89461,
          "name": "B3",
          "midi": 59,
          "duration": 0.412272,
          "velocity": 0.88189
        },
        {
          "time": 129.108403,
          "name": "D#4",
          "midi": 63,
          "duration": 0.204361,
          "velocity": 0.88189
        },
        {
          "time": 129.312764,
          "name": "E4",
          "midi": 64,
          "duration": 1.119675,
          "velocity": 0.88189
        },
        {
          "time": 129.659823,
          "name": "E3",
          "midi": 52,
          "duration": 0.354462,
          "velocity": 0.88189
        },
        {
          "time": 129.659823,
          "name": "B3",
          "midi": 59,
          "duration": 0.354462,
          "velocity": 0.88189
        },
        {
          "time": 130.014285,
          "name": "B3",
          "midi": 59,
          "duration": 0.412272,
          "velocity": 0.88189
        },
        {
          "time": 130.014285,
          "name": "E3",
          "midi": 52,
          "duration": 0.412272,
          "velocity": 0.88189
        },
        {
          "time": 130.432439,
          "name": "D5",
          "midi": 74,
          "duration": 0.17647,
          "velocity": 0.88189
        },
        {
          "time": 130.779498,
          "name": "E4",
          "midi": 64,
          "duration": 0.354462,
          "velocity": 0.88189
        },
        {
          "time": 130.779498,
          "name": "G3",
          "midi": 55,
          "duration": 0.354462,
          "velocity": 0.88189
        },
        {
          "time": 130.78538,
          "name": "D5",
          "midi": 74,
          "duration": 0.766734,
          "velocity": 1
        },
        {
          "time": 130.788321,
          "name": "B3",
          "midi": 59,
          "duration": 0.355984,
          "velocity": 0.88189
        },
        {
          "time": 131.13396,
          "name": "E4",
          "midi": 64,
          "duration": 0.412272,
          "velocity": 0.88189
        },
        {
          "time": 131.13396,
          "name": "G3",
          "midi": 55,
          "duration": 0.412272,
          "velocity": 0.88189
        },
        {
          "time": 131.144305,
          "name": "B3",
          "midi": 59,
          "duration": 0.41075,
          "velocity": 0.88189
        },
        {
          "time": 131.552114,
          "name": "C#5",
          "midi": 73,
          "duration": 0.17647,
          "velocity": 0.88189
        },
        {
          "time": 131.899173,
          "name": "F4",
          "midi": 65,
          "duration": 0.354462,
          "velocity": 0.88189
        },
        {
          "time": 131.899173,
          "name": "G#3",
          "midi": 56,
          "duration": 0.354462,
          "velocity": 0.88189
        },
        {
          "time": 131.905055,
          "name": "C#5",
          "midi": 73,
          "duration": 0.766734,
          "velocity": 1
        },
        {
          "time": 131.907996,
          "name": "B3",
          "midi": 59,
          "duration": 0.355984,
          "velocity": 0.88189
        },
        {
          "time": 132.253635,
          "name": "G#3",
          "midi": 56,
          "duration": 0.412272,
          "velocity": 0.88189
        },
        {
          "time": 132.253635,
          "name": "F4",
          "midi": 65,
          "duration": 0.412272,
          "velocity": 0.88189
        },
        {
          "time": 132.26398,
          "name": "B3",
          "midi": 59,
          "duration": 0.41075,
          "velocity": 0.88189
        },
        {
          "time": 132.671789,
          "name": "B4",
          "midi": 71,
          "duration": 0.17647,
          "velocity": 0.88189
        },
        {
          "time": 133.018848,
          "name": "F#4",
          "midi": 66,
          "duration": 0.354462,
          "velocity": 0.88189
        },
        {
          "time": 133.018848,
          "name": "A3",
          "midi": 57,
          "duration": 0.354462,
          "velocity": 0.88189
        },
        {
          "time": 133.02473,
          "name": "B4",
          "midi": 71,
          "duration": 0.338235,
          "velocity": 0.88189
        },
        {
          "time": 133.027671,
          "name": "D4",
          "midi": 62,
          "duration": 0.355984,
          "velocity": 0.88189
        },
        {
          "time": 133.37331,
          "name": "F#4",
          "midi": 66,
          "duration": 0.412272,
          "velocity": 0.88189
        },
        {
          "time": 133.37331,
          "name": "A3",
          "midi": 57,
          "duration": 0.412272,
          "velocity": 0.88189
        },
        {
          "time": 133.380206,
          "name": "B4",
          "midi": 71,
          "duration": 0.396552,
          "velocity": 0.88189
        },
        {
          "time": 133.383655,
          "name": "D4",
          "midi": 62,
          "duration": 0.41075,
          "velocity": 0.88189
        },
        {
          "time": 133.791464,
          "name": "B4",
          "midi": 71,
          "duration": 0.338235,
          "velocity": 0.88189
        },
        {
          "time": 134.138523,
          "name": "F#4",
          "midi": 66,
          "duration": 0.354462,
          "velocity": 0.88189
        },
        {
          "time": 134.138523,
          "name": "A3",
          "midi": 57,
          "duration": 0.354462,
          "velocity": 0.88189
        },
        {
          "time": 134.144405,
          "name": "C#5",
          "midi": 73,
          "duration": 0.176471,
          "velocity": 0.88189
        },
        {
          "time": 134.147346,
          "name": "D#4",
          "midi": 63,
          "duration": 0.355984,
          "velocity": 0.88189
        },
        {
          "time": 134.320875,
          "name": "B4",
          "midi": 71,
          "duration": 0.179006,
          "velocity": 0.88189
        },
        {
          "time": 134.492985,
          "name": "F#4",
          "midi": 66,
          "duration": 0.412272,
          "velocity": 0.88189
        },
        {
          "time": 134.492985,
          "name": "A3",
          "midi": 57,
          "duration": 0.412272,
          "velocity": 0.88189
        },
        {
          "time": 134.499881,
          "name": "A4",
          "midi": 69,
          "duration": 0.396552,
          "velocity": 0.88189
        },
        {
          "time": 134.50333,
          "name": "D#4",
          "midi": 63,
          "duration": 0.41075,
          "velocity": 0.88189
        },
        {
          "time": 134.911139,
          "name": "B4",
          "midi": 71,
          "duration": 0.17647,
          "velocity": 0.88189
        },
        {
          "time": 135.258198,
          "name": "A3",
          "midi": 57,
          "duration": 0.354462,
          "velocity": 0.88189
        },
        {
          "time": 135.258198,
          "name": "G4",
          "midi": 67,
          "duration": 0.354462,
          "velocity": 0.88189
        },
        {
          "time": 135.26408,
          "name": "B4",
          "midi": 71,
          "duration": 0.338235,
          "velocity": 0.88189
        },
        {
          "time": 135.267021,
          "name": "E4",
          "midi": 64,
          "duration": 0.355984,
          "velocity": 0.88189
        },
        {
          "time": 135.61266,
          "name": "A3",
          "midi": 57,
          "duration": 0.412272,
          "velocity": 0.88189
        },
        {
          "time": 135.61266,
          "name": "G4",
          "midi": 67,
          "duration": 0.412272,
          "velocity": 0.88189
        },
        {
          "time": 135.619556,
          "name": "B4",
          "midi": 71,
          "duration": 0.396552,
          "velocity": 0.88189
        },
        {
          "time": 135.623005,
          "name": "E4",
          "midi": 64,
          "duration": 0.41075,
          "velocity": 0.88189
        },
        {
          "time": 136.030814,
          "name": "B4",
          "midi": 71,
          "duration": 0.352941,
          "velocity": 1
        },
        {
          "time": 136.377873,
          "name": "A3",
          "midi": 57,
          "duration": 0.354462,
          "velocity": 0.88189
        },
        {
          "time": 136.377873,
          "name": "G4",
          "midi": 67,
          "duration": 0.354462,
          "velocity": 0.88189
        },
        {
          "time": 136.383755,
          "name": "C#5",
          "midi": 73,
          "duration": 0.176471,
          "velocity": 0.88189
        },
        {
          "time": 136.386696,
          "name": "E4",
          "midi": 64,
          "duration": 0.355984,
          "velocity": 0.88189
        },
        {
          "time": 136.560225,
          "name": "B4",
          "midi": 71,
          "duration": 0.179006,
          "velocity": 0.88189
        },
        {
          "time": 136.732335,
          "name": "G4",
          "midi": 67,
          "duration": 0.412272,
          "velocity": 0.88189
        },
        {
          "time": 136.732335,
          "name": "A3",
          "midi": 57,
          "duration": 0.412272,
          "velocity": 0.88189
        },
        {
          "time": 136.739231,
          "name": "A4",
          "midi": 69,
          "duration": 0.411258,
          "velocity": 0.88189
        },
        {
          "time": 136.74268,
          "name": "E4",
          "midi": 64,
          "duration": 0.41075,
          "velocity": 0.88189
        },
        {
          "time": 137.144607,
          "name": "D4",
          "midi": 62,
          "duration": 1.119998,
          "velocity": 0.88189
        },
        {
          "time": 137.144607,
          "name": "B3",
          "midi": 59,
          "duration": 1.119998,
          "velocity": 0.88189
        },
        {
          "time": 137.150489,
          "name": "B4",
          "midi": 71,
          "duration": 0.17647,
          "velocity": 0.88189
        },
        {
          "time": 137.15343,
          "name": "A3",
          "midi": 57,
          "duration": 2.314024,
          "velocity": 0.88189
        },
        {
          "time": 137.326959,
          "name": "A4",
          "midi": 69,
          "duration": 0.17647,
          "velocity": 0.88189
        },
        {
          "time": 137.50343,
          "name": "G#4",
          "midi": 68,
          "duration": 0.355477,
          "velocity": 0.88189
        },
        {
          "time": 137.858906,
          "name": "A4",
          "midi": 69,
          "duration": 0.206896,
          "velocity": 0.88189
        },
        {
          "time": 138.065803,
          "name": "G4",
          "midi": 67,
          "duration": 0.204899,
          "velocity": 0.88189
        },
        {
          "time": 138.264604,
          "name": "D#4",
          "midi": 63,
          "duration": 0.7341,
          "velocity": 0.88189
        },
        {
          "time": 138.264604,
          "name": "C4",
          "midi": 60,
          "duration": 0.7341,
          "velocity": 0.88189
        },
        {
          "time": 138.270702,
          "name": "F#4",
          "midi": 66,
          "duration": 0.365854,
          "velocity": 0.88189
        },
        {
          "time": 138.636556,
          "name": "G4",
          "midi": 67,
          "duration": 0.182927,
          "velocity": 0.88189
        },
        {
          "time": 138.819483,
          "name": "F#4",
          "midi": 66,
          "duration": 0.186914,
          "velocity": 0.88189
        },
        {
          "time": 138.998704,
          "name": "C#4",
          "midi": 61,
          "duration": 0.459375,
          "velocity": 0.88189
        },
        {
          "time": 138.998704,
          "name": "E4",
          "midi": 64,
          "duration": 0.459375,
          "velocity": 0.88189
        },
        {
          "time": 139.006397,
          "name": "E4",
          "midi": 64,
          "duration": 0.457932,
          "velocity": 0.88189
        },
        {
          "time": 139.464329,
          "name": "D4",
          "midi": 62,
          "duration": 0.1875,
          "velocity": 0.88189
        },
        {
          "time": 139.833079,
          "name": "A3",
          "midi": 57,
          "duration": 0.37597,
          "velocity": 0.88189
        },
        {
          "time": 139.833079,
          "name": "F#3",
          "midi": 54,
          "duration": 0.37597,
          "velocity": 0.88189
        },
        {
          "time": 139.839329,
          "name": "D4",
          "midi": 62,
          "duration": 0.787874,
          "velocity": 1
        },
        {
          "time": 140.209049,
          "name": "F#3",
          "midi": 54,
          "duration": 0.412272,
          "velocity": 0.88189
        },
        {
          "time": 140.209049,
          "name": "A3",
          "midi": 57,
          "duration": 0.412272,
          "velocity": 0.88189
        },
        {
          "time": 140.627203,
          "name": "C#4",
          "midi": 61,
          "duration": 0.17647,
          "velocity": 0.88189
        },
        {
          "time": 140.974262,
          "name": "A3",
          "midi": 57,
          "duration": 0.354462,
          "velocity": 0.88189
        },
        {
          "time": 140.974262,
          "name": "F#3",
          "midi": 54,
          "duration": 0.354462,
          "velocity": 0.88189
        },
        {
          "time": 140.980144,
          "name": "C#4",
          "midi": 61,
          "duration": 0.766734,
          "velocity": 1
        },
        {
          "time": 141.328724,
          "name": "F#3",
          "midi": 54,
          "duration": 0.412272,
          "velocity": 0.88189
        },
        {
          "time": 141.328724,
          "name": "A3",
          "midi": 57,
          "duration": 0.412272,
          "velocity": 0.88189
        },
        {
          "time": 141.746878,
          "name": "E4",
          "midi": 64,
          "duration": 0.17647,
          "velocity": 0.88189
        },
        {
          "time": 142.093937,
          "name": "F#3",
          "midi": 54,
          "duration": 0.354462,
          "velocity": 0.88189
        },
        {
          "time": 142.093937,
          "name": "A3",
          "midi": 57,
          "duration": 0.354462,
          "velocity": 0.88189
        },
        {
          "time": 142.099819,
          "name": "E4",
          "midi": 64,
          "duration": 0.562373,
          "velocity": 1
        },
        {
          "time": 142.448399,
          "name": "A3",
          "midi": 57,
          "duration": 0.412272,
          "velocity": 0.88189
        },
        {
          "time": 142.448399,
          "name": "F#3",
          "midi": 54,
          "duration": 0.412272,
          "velocity": 0.88189
        },
        {
          "time": 142.662192,
          "name": "D4",
          "midi": 62,
          "duration": 0.204361,
          "velocity": 0.88189
        },
        {
          "time": 142.866553,
          "name": "A3",
          "midi": 57,
          "duration": 1.119675,
          "velocity": 0.88189
        },
        {
          "time": 143.213612,
          "name": "F#3",
          "midi": 54,
          "duration": 0.354462,
          "velocity": 0.88189
        },
        {
          "time": 143.213612,
          "name": "A3",
          "midi": 57,
          "duration": 0.354462,
          "velocity": 0.88189
        },
        {
          "time": 143.568074,
          "name": "A3",
          "midi": 57,
          "duration": 0.412272,
          "velocity": 0.88189
        },
        {
          "time": 143.568074,
          "name": "F#3",
          "midi": 54,
          "duration": 0.412272,
          "velocity": 0.88189
        },
        {
          "time": 143.986228,
          "name": "D4",
          "midi": 62,
          "duration": 0.17647,
          "velocity": 0.88189
        },
        {
          "time": 144.333287,
          "name": "F#3",
          "midi": 54,
          "duration": 0.354462,
          "velocity": 0.88189
        },
        {
          "time": 144.333287,
          "name": "A3",
          "midi": 57,
          "duration": 0.354462,
          "velocity": 0.88189
        },
        {
          "time": 144.339169,
          "name": "D4",
          "midi": 62,
          "duration": 0.766734,
          "velocity": 1
        },
        {
          "time": 144.687749,
          "name": "A3",
          "midi": 57,
          "duration": 0.412272,
          "velocity": 0.88189
        },
        {
          "time": 144.687749,
          "name": "F#3",
          "midi": 54,
          "duration": 0.412272,
          "velocity": 0.88189
        },
        {
          "time": 145.105903,
          "name": "C#4",
          "midi": 61,
          "duration": 0.17647,
          "velocity": 0.88189
        },
        {
          "time": 145.452962,
          "name": "A#3",
          "midi": 58,
          "duration": 0.354462,
          "velocity": 0.88189
        },
        {
          "time": 145.452962,
          "name": "F#3",
          "midi": 54,
          "duration": 0.354462,
          "velocity": 0.88189
        },
        {
          "time": 145.458844,
          "name": "C#4",
          "midi": 61,
          "duration": 0.766734,
          "velocity": 1
        },
        {
          "time": 145.807424,
          "name": "F#3",
          "midi": 54,
          "duration": 0.412272,
          "velocity": 0.88189
        },
        {
          "time": 145.807424,
          "name": "A#3",
          "midi": 58,
          "duration": 0.412272,
          "velocity": 0.88189
        },
        {
          "time": 146.225578,
          "name": "B3",
          "midi": 59,
          "duration": 0.17647,
          "velocity": 0.88189
        },
        {
          "time": 146.572637,
          "name": "B3",
          "midi": 59,
          "duration": 0.354462,
          "velocity": 0.88189
        },
        {
          "time": 146.572637,
          "name": "G3",
          "midi": 55,
          "duration": 0.354462,
          "velocity": 0.88189
        },
        {
          "time": 146.578519,
          "name": "C#4",
          "midi": 61,
          "duration": 0.562373,
          "velocity": 1
        },
        {
          "time": 146.927099,
          "name": "F#3",
          "midi": 54,
          "duration": 0.412272,
          "velocity": 0.88189
        },
        {
          "time": 146.927099,
          "name": "B3",
          "midi": 59,
          "duration": 0.412272,
          "velocity": 0.88189
        },
        {
          "time": 147.140892,
          "name": "D#4",
          "midi": 63,
          "duration": 0.204361,
          "velocity": 0.88189
        },
        {
          "time": 147.345253,
          "name": "E4",
          "midi": 64,
          "duration": 1.120029,
          "velocity": 0.88189
        },
        {
          "time": 147.692312,
          "name": "B3",
          "midi": 59,
          "duration": 0.354462,
          "velocity": 0.88189
        },
        {
          "time": 147.692312,
          "name": "E3",
          "midi": 52,
          "duration": 0.354462,
          "velocity": 0.88189
        },
        {
          "time": 148.046774,
          "name": "E3",
          "midi": 52,
          "duration": 0.412484,
          "velocity": 0.88189
        },
        {
          "time": 148.046774,
          "name": "B3",
          "midi": 59,
          "duration": 0.412484,
          "velocity": 0.88189
        },
        {
          "time": 148.465282,
          "name": "D5",
          "midi": 74,
          "duration": 0.180723,
          "velocity": 0.88189
        },
        {
          "time": 148.820704,
          "name": "G3",
          "midi": 55,
          "duration": 0.362755,
          "velocity": 0.88189
        },
        {
          "time": 148.820704,
          "name": "E4",
          "midi": 64,
          "duration": 0.362755,
          "velocity": 0.88189
        },
        {
          "time": 148.826728,
          "name": "D5",
          "midi": 74,
          "duration": 0.774885,
          "velocity": 1
        },
        {
          "time": 148.82974,
          "name": "B3",
          "midi": 59,
          "duration": 0.364063,
          "velocity": 0.88189
        },
        {
          "time": 149.183459,
          "name": "G3",
          "midi": 55,
          "duration": 0.412272,
          "velocity": 0.88189
        },
        {
          "time": 149.183459,
          "name": "E4",
          "midi": 64,
          "duration": 0.412272,
          "velocity": 0.88189
        },
        {
          "time": 149.193804,
          "name": "B3",
          "midi": 59,
          "duration": 0.41075,
          "velocity": 0.88189
        },
        {
          "time": 149.601613,
          "name": "C#5",
          "midi": 73,
          "duration": 0.17647,
          "velocity": 0.88189
        },
        {
          "time": 149.948672,
          "name": "F4",
          "midi": 65,
          "duration": 0.354462,
          "velocity": 0.88189
        },
        {
          "time": 149.948672,
          "name": "G#3",
          "midi": 56,
          "duration": 0.354462,
          "velocity": 0.88189
        },
        {
          "time": 149.954554,
          "name": "C#5",
          "midi": 73,
          "duration": 0.766734,
          "velocity": 1
        },
        {
          "time": 149.957495,
          "name": "B3",
          "midi": 59,
          "duration": 0.355984,
          "velocity": 0.88189
        },
        {
          "time": 150.303134,
          "name": "G#3",
          "midi": 56,
          "duration": 0.412272,
          "velocity": 0.88189
        },
        {
          "time": 150.303134,
          "name": "F4",
          "midi": 65,
          "duration": 0.412272,
          "velocity": 0.88189
        },
        {
          "time": 150.313479,
          "name": "B3",
          "midi": 59,
          "duration": 0.41075,
          "velocity": 0.88189
        },
        {
          "time": 150.721288,
          "name": "B4",
          "midi": 71,
          "duration": 0.17647,
          "velocity": 0.88189
        },
        {
          "time": 151.068347,
          "name": "F4",
          "midi": 65,
          "duration": 0.354462,
          "velocity": 0.88189
        },
        {
          "time": 151.068347,
          "name": "G#3",
          "midi": 56,
          "duration": 0.354462,
          "velocity": 0.88189
        },
        {
          "time": 151.074229,
          "name": "B4",
          "midi": 71,
          "duration": 0.338235,
          "velocity": 0.88189
        },
        {
          "time": 151.07717,
          "name": "B3",
          "midi": 59,
          "duration": 0.355984,
          "velocity": 0.88189
        },
        {
          "time": 151.422809,
          "name": "G#3",
          "midi": 56,
          "duration": 0.412272,
          "velocity": 0.88189
        },
        {
          "time": 151.422809,
          "name": "F4",
          "midi": 65,
          "duration": 0.412272,
          "velocity": 0.88189
        },
        {
          "time": 151.429705,
          "name": "B4",
          "midi": 71,
          "duration": 0.396552,
          "velocity": 0.88189
        },
        {
          "time": 151.433154,
          "name": "B3",
          "midi": 59,
          "duration": 0.41075,
          "velocity": 0.88189
        },
        {
          "time": 151.840963,
          "name": "B4",
          "midi": 71,
          "duration": 0.338235,
          "velocity": 0.88189
        },
        {
          "time": 152.188022,
          "name": "F#4",
          "midi": 66,
          "duration": 0.354462,
          "velocity": 0.88189
        },
        {
          "time": 152.188022,
          "name": "C#4",
          "midi": 61,
          "duration": 0.354462,
          "velocity": 0.88189
        },
        {
          "time": 152.193904,
          "name": "C#5",
          "midi": 73,
          "duration": 0.176471,
          "velocity": 0.88189
        },
        {
          "time": 152.196845,
          "name": "F#3",
          "midi": 54,
          "duration": 0.355984,
          "velocity": 0.88189
        },
        {
          "time": 152.370374,
          "name": "B4",
          "midi": 71,
          "duration": 0.179006,
          "velocity": 0.88189
        },
        {
          "time": 152.542484,
          "name": "C#4",
          "midi": 61,
          "duration": 0.412272,
          "velocity": 0.88189
        },
        {
          "time": 152.542484,
          "name": "F#4",
          "midi": 66,
          "duration": 0.412272,
          "velocity": 0.88189
        },
        {
          "time": 152.54938,
          "name": "A#4",
          "midi": 70,
          "duration": 0.396552,
          "velocity": 0.88189
        },
        {
          "time": 152.552829,
          "name": "F#3",
          "midi": 54,
          "duration": 0.41075,
          "velocity": 0.88189
        },
        {
          "time": 152.960638,
          "name": "A4",
          "midi": 69,
          "duration": 0.17647,
          "velocity": 0.88189
        },
        {
          "time": 153.307697,
          "name": "D#4",
          "midi": 63,
          "duration": 0.354462,
          "velocity": 0.88189
        },
        {
          "time": 153.307697,
          "name": "A3",
          "midi": 57,
          "duration": 0.354462,
          "velocity": 0.88189
        },
        {
          "time": 153.313579,
          "name": "A4",
          "midi": 69,
          "duration": 0.338235,
          "velocity": 0.88189
        },
        {
          "time": 153.31652,
          "name": "B3",
          "midi": 59,
          "duration": 0.355984,
          "velocity": 0.88189
        },
        {
          "time": 153.31652,
          "name": "F#3",
          "midi": 54,
          "duration": 0.355984,
          "velocity": 0.88189
        },
        {
          "time": 153.662159,
          "name": "A3",
          "midi": 57,
          "duration": 0.412272,
          "velocity": 0.88189
        },
        {
          "time": 153.662159,
          "name": "D#4",
          "midi": 63,
          "duration": 0.412272,
          "velocity": 0.88189
        },
        {
          "time": 153.669055,
          "name": "A4",
          "midi": 69,
          "duration": 0.396552,
          "velocity": 0.88189
        },
        {
          "time": 153.672504,
          "name": "B3",
          "midi": 59,
          "duration": 0.41075,
          "velocity": 0.88189
        },
        {
          "time": 153.672504,
          "name": "F#3",
          "midi": 54,
          "duration": 0.41075,
          "velocity": 0.88189
        },
        {
          "time": 154.080313,
          "name": "A4",
          "midi": 69,
          "duration": 0.338235,
          "velocity": 1
        },
        {
          "time": 154.427372,
          "name": "D4",
          "midi": 62,
          "duration": 0.355229,
          "velocity": 0.88189
        },
        {
          "time": 154.427372,
          "name": "G#3",
          "midi": 56,
          "duration": 0.355229,
          "velocity": 0.88189
        },
        {
          "time": 154.433254,
          "name": "B4",
          "midi": 71,
          "duration": 0.176471,
          "velocity": 0.88189
        },
        {
          "time": 154.436195,
          "name": "B3",
          "midi": 59,
          "duration": 0.357516,
          "velocity": 0.88189
        },
        {
          "time": 154.436195,
          "name": "E3",
          "midi": 52,
          "duration": 0.357516,
          "velocity": 0.88189
        },
        {
          "time": 154.609724,
          "name": "A4",
          "midi": 69,
          "duration": 0.180283,
          "velocity": 0.88189
        },
        {
          "time": 154.7826,
          "name": "D4",
          "midi": 62,
          "duration": 0.442396,
          "velocity": 0.88189
        },
        {
          "time": 154.7826,
          "name": "G#3",
          "midi": 56,
          "duration": 0.442396,
          "velocity": 0.88189
        },
        {
          "time": 154.790008,
          "name": "G#4",
          "midi": 68,
          "duration": 0.425926,
          "velocity": 1
        },
        {
          "time": 154.793711,
          "name": "B3",
          "midi": 59,
          "duration": 0.440349,
          "velocity": 0.88189
        },
        {
          "time": 154.793711,
          "name": "E3",
          "midi": 52,
          "duration": 0.440349,
          "velocity": 0.88189
        },
        {
          "time": 155.231039,
          "name": "A3",
          "midi": 57,
          "duration": 1.139054,
          "velocity": 0.88189
        },
        {
          "time": 156.370093,
          "name": "B3",
          "midi": 59,
          "duration": 1.147879,
          "velocity": 0.88189
        },
        {
          "time": 157.517971,
          "name": "C4",
          "midi": 60,
          "duration": 1.153807,
          "velocity": 0.88189
        },
        {
          "time": 158.671778,
          "name": "C#4",
          "midi": 61,
          "duration": 1.058241,
          "velocity": 0.88189
        },
        {
          "time": 159.730019,
          "name": "D4",
          "midi": 62,
          "duration": 1.016412,
          "velocity": 0.88189
        },
        {
          "time": 160.746431,
          "name": "D#4",
          "midi": 63,
          "duration": 0.977763,
          "velocity": 0.88189
        },
        {
          "time": 161.724194,
          "name": "E4",
          "midi": 64,
          "duration": 0.942009,
          "velocity": 0.88189
        },
        {
          "time": 166.139831,
          "name": "C#4",
          "midi": 61,
          "duration": 0.273973,
          "velocity": 0.88189
        },
        {
          "time": 166.139831,
          "name": "G4",
          "midi": 67,
          "duration": 0.273973,
          "velocity": 0.88189
        },
        {
          "time": 166.144398,
          "name": "C#4",
          "midi": 61,
          "duration": 0.273973,
          "velocity": 0.88189
        },
        {
          "time": 166.144398,
          "name": "G4",
          "midi": 67,
          "duration": 0.273973,
          "velocity": 0.88189
        },
        {
          "time": 166.146681,
          "name": "E4",
          "midi": 64,
          "duration": 0.273973,
          "velocity": 0.88189
        },
        {
          "time": 166.146681,
          "name": "A3",
          "midi": 57,
          "duration": 0.273973,
          "velocity": 0.88189
        },
        {
          "time": 166.146681,
          "name": "E4",
          "midi": 64,
          "duration": 0.273973,
          "velocity": 0.96063
        },
        {
          "time": 166.146681,
          "name": "C#4",
          "midi": 61,
          "duration": 0.273973,
          "velocity": 0.96063
        },
        {
          "time": 169.880928,
          "name": "E4",
          "midi": 64,
          "duration": 1.071429,
          "velocity": 0.88189
        },
        {
          "time": 169.925571,
          "name": "F#3",
          "midi": 54,
          "duration": 1.073956,
          "velocity": 0.88189
        },
        {
          "time": 172.084432,
          "name": "D4",
          "midi": 62,
          "duration": 1.016949,
          "velocity": 0.88189
        },
        {
          "time": 172.126805,
          "name": "F#3",
          "midi": 54,
          "duration": 1.019621,
          "velocity": 0.88189
        },
        {
          "time": 174.182462,
          "name": "C#4",
          "midi": 61,
          "duration": 0.96,
          "velocity": 0.88189
        },
        {
          "time": 174.222462,
          "name": "F3",
          "midi": 53,
          "duration": 0.96386,
          "velocity": 0.88189
        },
        {
          "time": 176.195094,
          "name": "D4",
          "midi": 62,
          "duration": 0.909091,
          "velocity": 0.88189
        },
        {
          "time": 176.232973,
          "name": "F#3",
          "midi": 54,
          "duration": 0.91469,
          "velocity": 0.88189
        },
        {
          "time": 178.147663,
          "name": "C4",
          "midi": 60,
          "duration": 0.944882,
          "velocity": 0.88189
        },
        {
          "time": 178.187033,
          "name": "F#3",
          "midi": 54,
          "duration": 0.952682,
          "velocity": 0.88189
        },
        {
          "time": 180.150386,
          "name": "C#4",
          "midi": 61,
          "duration": 0.909091,
          "velocity": 0.88189
        },
        {
          "time": 180.188265,
          "name": "E3",
          "midi": 52,
          "duration": 0.912196,
          "velocity": 0.88189
        },
        {
          "time": 182.080963,
          "name": "G#3",
          "midi": 56,
          "duration": 0.912196,
          "velocity": 0.88189
        },
        {
          "time": 183.973661,
          "name": "A3",
          "midi": 57,
          "duration": 1.21131,
          "velocity": 0.88189
        },
        {
          "time": 185.140328,
          "name": "E4",
          "midi": 64,
          "duration": 3.905735,
          "velocity": 0.88189
        },
        {
          "time": 185.18497,
          "name": "G#3",
          "midi": 56,
          "duration": 1.93295,
          "velocity": 0.88189
        },
        {
          "time": 187.11792,
          "name": "A3",
          "midi": 57,
          "duration": 1.972785,
          "velocity": 0.88189
        },
        {
          "time": 189.046063,
          "name": "E4",
          "midi": 64,
          "duration": 3.92522,
          "velocity": 0.88189
        },
        {
          "time": 189.090705,
          "name": "G#3",
          "midi": 56,
          "duration": 1.93295,
          "velocity": 0.88189
        },
        {
          "time": 191.023655,
          "name": "A3",
          "midi": 57,
          "duration": 1.988611,
          "velocity": 0.88189
        },
        {
          "time": 192.971283,
          "name": "D#4",
          "midi": 63,
          "duration": 1.892698,
          "velocity": 0.88189
        },
        {
          "time": 193.012266,
          "name": "A3",
          "midi": 57,
          "duration": 1.903798,
          "velocity": 0.88189
        },
        {
          "time": 194.863981,
          "name": "E4",
          "midi": 64,
          "duration": 1.959296,
          "velocity": 0.88189
        },
        {
          "time": 194.916064,
          "name": "G#3",
          "midi": 56,
          "duration": 1.948197,
          "velocity": 0.88189
        },
        {
          "time": 197.806884,
          "name": "F#4",
          "midi": 66,
          "duration": 0.909091,
          "velocity": 0.88189
        },
        {
          "time": 197.844763,
          "name": "G#3",
          "midi": 56,
          "duration": 0.918382,
          "velocity": 0.88189
        },
        {
          "time": 199.773816,
          "name": "E4",
          "midi": 64,
          "duration": 0.909091,
          "velocity": 0.88189
        },
        {
          "time": 199.811695,
          "name": "G#3",
          "midi": 56,
          "duration": 0.912196,
          "velocity": 0.88189
        },
        {
          "time": 201.666514,
          "name": "E4",
          "midi": 64,
          "duration": 0.909091,
          "velocity": 0.88189
        },
        {
          "time": 201.704393,
          "name": "F#3",
          "midi": 54,
          "duration": 0.912196,
          "velocity": 0.88189
        },
        {
          "time": 203.559212,
          "name": "D4",
          "midi": 62,
          "duration": 0.909091,
          "velocity": 0.88189
        },
        {
          "time": 203.597091,
          "name": "F#3",
          "midi": 54,
          "duration": 0.923296,
          "velocity": 0.88189
        },
        {
          "time": 205.518508,
          "name": "C#4",
          "midi": 61,
          "duration": 0.909091,
          "velocity": 0.88189
        },
        {
          "time": 205.556387,
          "name": "F3",
          "midi": 53,
          "duration": 0.912196,
          "velocity": 0.88189
        },
        {
          "time": 207.411206,
          "name": "D4",
          "midi": 62,
          "duration": 0.909091,
          "velocity": 0.88189
        },
        {
          "time": 207.449085,
          "name": "F#3",
          "midi": 54,
          "duration": 0.937002,
          "velocity": 0.88189
        },
        {
          "time": 209.523508,
          "name": "C4",
          "midi": 60,
          "duration": 0.909091,
          "velocity": 0.88189
        },
        {
          "time": 209.561387,
          "name": "F#3",
          "midi": 54,
          "duration": 0.919289,
          "velocity": 0.88189
        },
        {
          "time": 211.452768,
          "name": "C#4",
          "midi": 61,
          "duration": 1.192326,
          "velocity": 0.88189
        },
        {
          "time": 211.499497,
          "name": "E3",
          "midi": 52,
          "duration": 1.186581,
          "velocity": 0.88189
        },
        {
          "time": 213.67295,
          "name": "G#3",
          "midi": 56,
          "duration": 1.058683,
          "velocity": 0.88189
        },
        {
          "time": 215.712135,
          "name": "A3",
          "midi": 57,
          "duration": 0.912196,
          "velocity": 0.88189
        },
        {
          "time": 216.583347,
          "name": "E4",
          "midi": 64,
          "duration": 3.785396,
          "velocity": 0.88189
        },
        {
          "time": 216.62433,
          "name": "G#3",
          "midi": 56,
          "duration": 1.892698,
          "velocity": 0.88189
        },
        {
          "time": 218.517028,
          "name": "A3",
          "midi": 57,
          "duration": 1.892698,
          "velocity": 0.88189
        },
        {
          "time": 220.368743,
          "name": "E4",
          "midi": 64,
          "duration": 3.785396,
          "velocity": 0.88189
        },
        {
          "time": 220.409726,
          "name": "G#3",
          "midi": 56,
          "duration": 1.892698,
          "velocity": 0.88189
        },
        {
          "time": 222.302424,
          "name": "A3",
          "midi": 57,
          "duration": 1.905478,
          "velocity": 0.88189
        },
        {
          "time": 224.154139,
          "name": "D#4",
          "midi": 63,
          "duration": 1.969377,
          "velocity": 0.88189
        },
        {
          "time": 224.207902,
          "name": "A3",
          "midi": 57,
          "duration": 1.980549,
          "velocity": 0.88189
        },
        {
          "time": 226.123516,
          "name": "E4",
          "midi": 64,
          "duration": 1.969343,
          "velocity": 0.88189
        },
        {
          "time": 226.188451,
          "name": "G#3",
          "midi": 56,
          "duration": 1.945391,
          "velocity": 0.88189
        },
        {
          "time": 229.076465,
          "name": "F#4",
          "midi": 66,
          "duration": 1.184488,
          "velocity": 0.88189
        },
        {
          "time": 229.114344,
          "name": "G#3",
          "midi": 56,
          "duration": 1.187592,
          "velocity": 0.88189
        },
        {
          "time": 231.24456,
          "name": "E4",
          "midi": 64,
          "duration": 1.054545,
          "velocity": 0.88189
        },
        {
          "time": 231.282439,
          "name": "G#3",
          "midi": 56,
          "duration": 1.062538,
          "velocity": 0.88189
        },
        {
          "time": 232.326629,
          "name": "G#3",
          "midi": 56,
          "duration": 1.94842,
          "velocity": 0.88189
        },
        {
          "time": 232.326629,
          "name": "G#4",
          "midi": 68,
          "duration": 1.94842,
          "velocity": 0.88189
        },
        {
          "time": 232.354151,
          "name": "C#3",
          "midi": 49,
          "duration": 1.945487,
          "velocity": 0.88189
        },
        {
          "time": 232.354151,
          "name": "C4",
          "midi": 60,
          "duration": 1.945487,
          "velocity": 0.88189
        },
        {
          "time": 234.275049,
          "name": "G#3",
          "midi": 56,
          "duration": 1.892698,
          "velocity": 0.88189
        },
        {
          "time": 234.275049,
          "name": "G#4",
          "midi": 68,
          "duration": 1.892698,
          "velocity": 0.88189
        },
        {
          "time": 234.299639,
          "name": "C#3",
          "midi": 49,
          "duration": 1.892698,
          "velocity": 0.88189
        },
        {
          "time": 234.299639,
          "name": "C#4",
          "midi": 61,
          "duration": 1.892698,
          "velocity": 0.88189
        },
        {
          "time": 236.167747,
          "name": "G#3",
          "midi": 56,
          "duration": 1.892698,
          "velocity": 0.88189
        },
        {
          "time": 236.167747,
          "name": "G#4",
          "midi": 68,
          "duration": 1.892698,
          "velocity": 0.88189
        },
        {
          "time": 236.192337,
          "name": "F#4",
          "midi": 66,
          "duration": 1.892698,
          "velocity": 0.88189
        },
        {
          "time": 236.192337,
          "name": "C#3",
          "midi": 49,
          "duration": 1.892698,
          "velocity": 0.88189
        },
        {
          "time": 238.060445,
          "name": "G#3",
          "midi": 56,
          "duration": 1.892698,
          "velocity": 0.88189
        },
        {
          "time": 238.060445,
          "name": "G#4",
          "midi": 68,
          "duration": 1.892698,
          "velocity": 0.88189
        },
        {
          "time": 238.085035,
          "name": "E4",
          "midi": 64,
          "duration": 1.892698,
          "velocity": 0.88189
        },
        {
          "time": 238.085035,
          "name": "C#3",
          "midi": 49,
          "duration": 1.892698,
          "velocity": 0.88189
        },
        {
          "time": 239.953143,
          "name": "G#3",
          "midi": 56,
          "duration": 1.892698,
          "velocity": 0.88189
        },
        {
          "time": 239.953143,
          "name": "G#4",
          "midi": 68,
          "duration": 1.892698,
          "velocity": 0.88189
        },
        {
          "time": 239.977733,
          "name": "C4",
          "midi": 60,
          "duration": 1.892698,
          "velocity": 0.88189
        },
        {
          "time": 239.977733,
          "name": "C#3",
          "midi": 49,
          "duration": 1.892698,
          "velocity": 0.88189
        },
        {
          "time": 241.845841,
          "name": "G#3",
          "midi": 56,
          "duration": 1.892698,
          "velocity": 0.88189
        },
        {
          "time": 241.845841,
          "name": "G#4",
          "midi": 68,
          "duration": 1.892698,
          "velocity": 0.88189
        },
        {
          "time": 241.870431,
          "name": "C#4",
          "midi": 61,
          "duration": 1.892698,
          "velocity": 0.88189
        },
        {
          "time": 241.870431,
          "name": "C#3",
          "midi": 49,
          "duration": 1.892698,
          "velocity": 0.88189
        },
        {
          "time": 243.738539,
          "name": "G#3",
          "midi": 56,
          "duration": 1.892698,
          "velocity": 0.88189
        },
        {
          "time": 243.738539,
          "name": "F#4",
          "midi": 66,
          "duration": 1.892698,
          "velocity": 0.88189
        },
        {
          "time": 243.763129,
          "name": "D#4",
          "midi": 63,
          "duration": 1.892698,
          "velocity": 0.88189
        },
        {
          "time": 243.763129,
          "name": "C#3",
          "midi": 49,
          "duration": 1.892698,
          "velocity": 0.88189
        },
        {
          "time": 245.631237,
          "name": "G#3",
          "midi": 56,
          "duration": 1.900717,
          "velocity": 0.88189
        },
        {
          "time": 245.631237,
          "name": "E4",
          "midi": 64,
          "duration": 1.900717,
          "velocity": 0.88189
        },
        {
          "time": 245.655827,
          "name": "C#4",
          "midi": 61,
          "duration": 1.908735,
          "velocity": 0.88189
        },
        {
          "time": 245.655827,
          "name": "C#3",
          "midi": 49,
          "duration": 1.908735,
          "velocity": 0.88189
        },
        {
          "time": 247.499345,
          "name": "G#4",
          "midi": 68,
          "duration": 1.972883,
          "velocity": 0.88189
        },
        {
          "time": 247.553692,
          "name": "G#3",
          "midi": 56,
          "duration": 1.959519,
          "velocity": 0.88189
        },
        {
          "time": 249.472228,
          "name": "G#4",
          "midi": 68,
          "duration": 1.892698,
          "velocity": 0.88189
        },
        {
          "time": 249.513211,
          "name": "G#3",
          "midi": 56,
          "duration": 1.892698,
          "velocity": 0.88189
        },
        {
          "time": 251.364926,
          "name": "G#4",
          "midi": 68,
          "duration": 1.892698,
          "velocity": 0.88189
        },
        {
          "time": 251.405909,
          "name": "G#3",
          "midi": 56,
          "duration": 1.892698,
          "velocity": 0.88189
        },
        {
          "time": 253.257624,
          "name": "G#4",
          "midi": 68,
          "duration": 1.892698,
          "velocity": 0.88189
        },
        {
          "time": 253.298607,
          "name": "G#3",
          "midi": 56,
          "duration": 1.889593,
          "velocity": 0.88189
        },
        {
          "time": 255.150322,
          "name": "G#4",
          "midi": 68,
          "duration": 1.961723,
          "velocity": 0.88189
        },
        {
          "time": 255.188201,
          "name": "G#3",
          "midi": 56,
          "duration": 1.964828,
          "velocity": 0.88189
        },
        {
          "time": 257.112045,
          "name": "G#4",
          "midi": 68,
          "duration": 1.892698,
          "velocity": 0.88189
        },
        {
          "time": 257.153028,
          "name": "G#3",
          "midi": 56,
          "duration": 1.892698,
          "velocity": 0.88189
        },
        {
          "time": 259.004743,
          "name": "F#4",
          "midi": 66,
          "duration": 1.892698,
          "velocity": 0.88189
        },
        {
          "time": 259.045726,
          "name": "G#3",
          "midi": 56,
          "duration": 1.892698,
          "velocity": 0.88189
        },
        {
          "time": 260.897441,
          "name": "E4",
          "midi": 64,
          "duration": 0.983607,
          "velocity": 0.88189
        },
        {
          "time": 260.938424,
          "name": "G#3",
          "midi": 56,
          "duration": 0.980502,
          "velocity": 0.88189
        },
        {
          "time": 264.786478,
          "name": "A3",
          "midi": 57,
          "duration": 1.892698,
          "velocity": 0.88189
        },
        {
          "time": 264.786478,
          "name": "A4",
          "midi": 69,
          "duration": 1.892698,
          "velocity": 0.88189
        },
        {
          "time": 272.35727,
          "name": "A3",
          "midi": 57,
          "duration": 1.892698,
          "velocity": 0.88189
        },
        {
          "time": 272.35727,
          "name": "A4",
          "midi": 69,
          "duration": 1.892698,
          "velocity": 0.88189
        },
        {
          "time": 276.63447,
          "name": "E3",
          "midi": 52,
          "duration": 0.489941,
          "velocity": 0.88189
        },
        {
          "time": 276.63447,
          "name": "E4",
          "midi": 64,
          "duration": 0.489941,
          "velocity": 0.88189
        },
        {
          "time": 277.124411,
          "name": "A3",
          "midi": 57,
          "duration": 0.454545,
          "velocity": 0.88189
        },
        {
          "time": 277.124411,
          "name": "A4",
          "midi": 69,
          "duration": 0.454545,
          "velocity": 0.88189
        },
        {
          "time": 277.578956,
          "name": "E3",
          "midi": 52,
          "duration": 0.676897,
          "velocity": 0.88189
        },
        {
          "time": 277.578956,
          "name": "E4",
          "midi": 64,
          "duration": 0.676897,
          "velocity": 0.88189
        },
        {
          "time": 278.272246,
          "name": "A3",
          "midi": 57,
          "duration": 0.122951,
          "velocity": 0.88189
        },
        {
          "time": 278.272246,
          "name": "E4",
          "midi": 64,
          "duration": 0.122951,
          "velocity": 0.88189
        },
        {
          "time": 278.395197,
          "name": "A3",
          "midi": 57,
          "duration": 0.122951,
          "velocity": 0.88189
        },
        {
          "time": 278.395197,
          "name": "E4",
          "midi": 64,
          "duration": 0.122951,
          "velocity": 0.88189
        },
        {
          "time": 278.518148,
          "name": "A3",
          "midi": 57,
          "duration": 0.122951,
          "velocity": 0.88189
        },
        {
          "time": 278.518148,
          "name": "E4",
          "midi": 64,
          "duration": 0.122951,
          "velocity": 0.88189
        },
        {
          "time": 278.641099,
          "name": "A3",
          "midi": 57,
          "duration": 0.122951,
          "velocity": 0.88189
        },
        {
          "time": 278.641099,
          "name": "E4",
          "midi": 64,
          "duration": 0.122951,
          "velocity": 0.88189
        },
        {
          "time": 278.76405,
          "name": "A3",
          "midi": 57,
          "duration": 0.122951,
          "velocity": 0.88189
        },
        {
          "time": 278.76405,
          "name": "E4",
          "midi": 64,
          "duration": 0.122951,
          "velocity": 0.88189
        },
        {
          "time": 278.887001,
          "name": "A3",
          "midi": 57,
          "duration": 0.122951,
          "velocity": 0.88189
        },
        {
          "time": 278.887001,
          "name": "E4",
          "midi": 64,
          "duration": 0.122951,
          "velocity": 0.88189
        },
        {
          "time": 279.009952,
          "name": "A3",
          "midi": 57,
          "duration": 0.122951,
          "velocity": 0.88189
        },
        {
          "time": 279.009952,
          "name": "E4",
          "midi": 64,
          "duration": 0.122951,
          "velocity": 0.88189
        },
        {
          "time": 279.132902,
          "name": "A3",
          "midi": 57,
          "duration": 0.119846,
          "velocity": 0.88189
        },
        {
          "time": 279.132902,
          "name": "E4",
          "midi": 64,
          "duration": 0.119846,
          "velocity": 0.88189
        },
        {
          "time": 279.252749,
          "name": "A3",
          "midi": 57,
          "duration": 0.113636,
          "velocity": 0.88189
        },
        {
          "time": 279.252749,
          "name": "E4",
          "midi": 64,
          "duration": 0.113636,
          "velocity": 0.88189
        },
        {
          "time": 279.366385,
          "name": "A3",
          "midi": 57,
          "duration": 0.113636,
          "velocity": 0.88189
        },
        {
          "time": 279.366385,
          "name": "E4",
          "midi": 64,
          "duration": 0.113636,
          "velocity": 0.88189
        },
        {
          "time": 279.480021,
          "name": "A3",
          "midi": 57,
          "duration": 0.113636,
          "velocity": 0.88189
        },
        {
          "time": 279.480021,
          "name": "E4",
          "midi": 64,
          "duration": 0.113636,
          "velocity": 0.88189
        },
        {
          "time": 279.593658,
          "name": "A3",
          "midi": 57,
          "duration": 0.113636,
          "velocity": 0.88189
        },
        {
          "time": 279.593658,
          "name": "E4",
          "midi": 64,
          "duration": 0.113636,
          "velocity": 0.88189
        },
        {
          "time": 279.707294,
          "name": "A3",
          "midi": 57,
          "duration": 0.113636,
          "velocity": 0.88189
        },
        {
          "time": 279.707294,
          "name": "E4",
          "midi": 64,
          "duration": 0.113636,
          "velocity": 0.88189
        },
        {
          "time": 279.82093,
          "name": "A3",
          "midi": 57,
          "duration": 0.113636,
          "velocity": 0.88189
        },
        {
          "time": 279.82093,
          "name": "E4",
          "midi": 64,
          "duration": 0.113636,
          "velocity": 0.88189
        },
        {
          "time": 279.934567,
          "name": "A3",
          "midi": 57,
          "duration": 0.113636,
          "velocity": 0.88189
        },
        {
          "time": 279.934567,
          "name": "E4",
          "midi": 64,
          "duration": 0.113636,
          "velocity": 0.88189
        },
        {
          "time": 280.048203,
          "name": "A3",
          "midi": 57,
          "duration": 0.116741,
          "velocity": 0.88189
        },
        {
          "time": 280.048203,
          "name": "E4",
          "midi": 64,
          "duration": 0.116741,
          "velocity": 0.88189
        },
        {
          "time": 280.164944,
          "name": "E4",
          "midi": 64,
          "duration": 0.122951,
          "velocity": 0.88189
        },
        {
          "time": 280.164944,
          "name": "A3",
          "midi": 57,
          "duration": 0.122951,
          "velocity": 0.88189
        },
        {
          "time": 280.287895,
          "name": "E4",
          "midi": 64,
          "duration": 0.122951,
          "velocity": 0.88189
        },
        {
          "time": 280.287895,
          "name": "A3",
          "midi": 57,
          "duration": 0.122951,
          "velocity": 0.88189
        },
        {
          "time": 280.410846,
          "name": "A3",
          "midi": 57,
          "duration": 0.122951,
          "velocity": 0.88189
        },
        {
          "time": 280.410846,
          "name": "E4",
          "midi": 64,
          "duration": 0.122951,
          "velocity": 0.88189
        },
        {
          "time": 280.533797,
          "name": "A3",
          "midi": 57,
          "duration": 0.122951,
          "velocity": 0.88189
        },
        {
          "time": 280.533797,
          "name": "E4",
          "midi": 64,
          "duration": 0.122951,
          "velocity": 0.88189
        },
        {
          "time": 280.656748,
          "name": "E4",
          "midi": 64,
          "duration": 0.122951,
          "velocity": 0.88189
        },
        {
          "time": 280.656748,
          "name": "A3",
          "midi": 57,
          "duration": 0.122951,
          "velocity": 0.88189
        },
        {
          "time": 280.779699,
          "name": "A3",
          "midi": 57,
          "duration": 0.122951,
          "velocity": 0.88189
        },
        {
          "time": 280.779699,
          "name": "E4",
          "midi": 64,
          "duration": 0.122951,
          "velocity": 0.88189
        },
        {
          "time": 280.90265,
          "name": "A3",
          "midi": 57,
          "duration": 0.122951,
          "velocity": 0.88189
        },
        {
          "time": 280.90265,
          "name": "E4",
          "midi": 64,
          "duration": 0.122951,
          "velocity": 0.88189
        },
        {
          "time": 281.0256,
          "name": "E4",
          "midi": 64,
          "duration": 0.119846,
          "velocity": 0.88189
        },
        {
          "time": 281.0256,
          "name": "A3",
          "midi": 57,
          "duration": 0.119846,
          "velocity": 0.88189
        },
        {
          "time": 281.145447,
          "name": "E4",
          "midi": 64,
          "duration": 0.113636,
          "velocity": 0.88189
        },
        {
          "time": 281.145447,
          "name": "A3",
          "midi": 57,
          "duration": 0.113636,
          "velocity": 0.88189
        },
        {
          "time": 281.259083,
          "name": "A3",
          "midi": 57,
          "duration": 0.113636,
          "velocity": 0.88189
        },
        {
          "time": 281.259083,
          "name": "E4",
          "midi": 64,
          "duration": 0.113636,
          "velocity": 0.88189
        },
        {
          "time": 281.372719,
          "name": "A3",
          "midi": 57,
          "duration": 0.113636,
          "velocity": 0.88189
        },
        {
          "time": 281.372719,
          "name": "E4",
          "midi": 64,
          "duration": 0.113636,
          "velocity": 0.88189
        },
        {
          "time": 281.486356,
          "name": "E4",
          "midi": 64,
          "duration": 0.113636,
          "velocity": 0.88189
        },
        {
          "time": 281.486356,
          "name": "A3",
          "midi": 57,
          "duration": 0.113636,
          "velocity": 0.88189
        },
        {
          "time": 281.599992,
          "name": "A3",
          "midi": 57,
          "duration": 0.113636,
          "velocity": 0.88189
        },
        {
          "time": 281.599992,
          "name": "E4",
          "midi": 64,
          "duration": 0.113636,
          "velocity": 0.88189
        },
        {
          "time": 281.713628,
          "name": "A3",
          "midi": 57,
          "duration": 0.113636,
          "velocity": 0.88189
        },
        {
          "time": 281.713628,
          "name": "E4",
          "midi": 64,
          "duration": 0.113636,
          "velocity": 0.88189
        },
        {
          "time": 281.827265,
          "name": "E4",
          "midi": 64,
          "duration": 0.113636,
          "velocity": 0.88189
        },
        {
          "time": 281.827265,
          "name": "A3",
          "midi": 57,
          "duration": 0.113636,
          "velocity": 0.88189
        },
        {
          "time": 281.940901,
          "name": "E4",
          "midi": 64,
          "duration": 0.116741,
          "velocity": 0.88189
        },
        {
          "time": 281.940901,
          "name": "A3",
          "midi": 57,
          "duration": 0.116741,
          "velocity": 0.88189
        },
        {
          "time": 282.057642,
          "name": "E4",
          "midi": 64,
          "duration": 0.122951,
          "velocity": 0.88189
        },
        {
          "time": 282.057642,
          "name": "A3",
          "midi": 57,
          "duration": 0.122951,
          "velocity": 0.88189
        },
        {
          "time": 282.180593,
          "name": "E4",
          "midi": 64,
          "duration": 0.122951,
          "velocity": 0.88189
        },
        {
          "time": 282.180593,
          "name": "A3",
          "midi": 57,
          "duration": 0.122951,
          "velocity": 0.88189
        },
        {
          "time": 282.303544,
          "name": "A3",
          "midi": 57,
          "duration": 0.122951,
          "velocity": 0.88189
        },
        {
          "time": 282.303544,
          "name": "E4",
          "midi": 64,
          "duration": 0.122951,
          "velocity": 0.88189
        },
        {
          "time": 282.426495,
          "name": "A3",
          "midi": 57,
          "duration": 0.122951,
          "velocity": 0.88189
        },
        {
          "time": 282.426495,
          "name": "E4",
          "midi": 64,
          "duration": 0.122951,
          "velocity": 0.88189
        },
        {
          "time": 282.549446,
          "name": "E4",
          "midi": 64,
          "duration": 0.122951,
          "velocity": 0.88189
        },
        {
          "time": 282.549446,
          "name": "A3",
          "midi": 57,
          "duration": 0.122951,
          "velocity": 0.88189
        },
        {
          "time": 282.672397,
          "name": "A3",
          "midi": 57,
          "duration": 0.122951,
          "velocity": 0.88189
        },
        {
          "time": 282.672397,
          "name": "E4",
          "midi": 64,
          "duration": 0.122951,
          "velocity": 0.88189
        },
        {
          "time": 282.795348,
          "name": "A3",
          "midi": 57,
          "duration": 0.122951,
          "velocity": 0.88189
        },
        {
          "time": 282.795348,
          "name": "E4",
          "midi": 64,
          "duration": 0.122951,
          "velocity": 0.88189
        },
        {
          "time": 282.918298,
          "name": "E4",
          "midi": 64,
          "duration": 0.119846,
          "velocity": 0.88189
        },
        {
          "time": 282.918298,
          "name": "A3",
          "midi": 57,
          "duration": 0.119846,
          "velocity": 0.88189
        },
        {
          "time": 283.038145,
          "name": "E4",
          "midi": 64,
          "duration": 0.113636,
          "velocity": 0.88189
        },
        {
          "time": 283.038145,
          "name": "A3",
          "midi": 57,
          "duration": 0.113636,
          "velocity": 0.88189
        },
        {
          "time": 283.151781,
          "name": "A3",
          "midi": 57,
          "duration": 0.113636,
          "velocity": 0.88189
        },
        {
          "time": 283.151781,
          "name": "E4",
          "midi": 64,
          "duration": 0.113636,
          "velocity": 0.88189
        },
        {
          "time": 283.265417,
          "name": "A3",
          "midi": 57,
          "duration": 0.113636,
          "velocity": 0.88189
        },
        {
          "time": 283.265417,
          "name": "E4",
          "midi": 64,
          "duration": 0.113636,
          "velocity": 0.88189
        },
        {
          "time": 283.379054,
          "name": "E4",
          "midi": 64,
          "duration": 0.113636,
          "velocity": 0.88189
        },
        {
          "time": 283.379054,
          "name": "A3",
          "midi": 57,
          "duration": 0.113636,
          "velocity": 0.88189
        },
        {
          "time": 283.49269,
          "name": "A3",
          "midi": 57,
          "duration": 0.113636,
          "velocity": 0.88189
        },
        {
          "time": 283.49269,
          "name": "E4",
          "midi": 64,
          "duration": 0.113636,
          "velocity": 0.88189
        },
        {
          "time": 283.606326,
          "name": "A3",
          "midi": 57,
          "duration": 0.113636,
          "velocity": 0.88189
        },
        {
          "time": 283.606326,
          "name": "E4",
          "midi": 64,
          "duration": 0.113636,
          "velocity": 0.88189
        },
        {
          "time": 283.719963,
          "name": "E4",
          "midi": 64,
          "duration": 0.113636,
          "velocity": 0.88189
        },
        {
          "time": 283.719963,
          "name": "A3",
          "midi": 57,
          "duration": 0.113636,
          "velocity": 0.88189
        },
        {
          "time": 283.833599,
          "name": "E4",
          "midi": 64,
          "duration": 0.116741,
          "velocity": 0.88189
        },
        {
          "time": 283.833599,
          "name": "A3",
          "midi": 57,
          "duration": 0.116741,
          "velocity": 0.88189
        },
        {
          "time": 283.95034,
          "name": "E4",
          "midi": 64,
          "duration": 0.122951,
          "velocity": 0.88189
        },
        {
          "time": 283.95034,
          "name": "A3",
          "midi": 57,
          "duration": 0.122951,
          "velocity": 0.88189
        },
        {
          "time": 284.073291,
          "name": "E4",
          "midi": 64,
          "duration": 0.122951,
          "velocity": 0.88189
        },
        {
          "time": 284.073291,
          "name": "A3",
          "midi": 57,
          "duration": 0.122951,
          "velocity": 0.88189
        },
        {
          "time": 284.196242,
          "name": "A3",
          "midi": 57,
          "duration": 0.122951,
          "velocity": 0.88189
        },
        {
          "time": 284.196242,
          "name": "E4",
          "midi": 64,
          "duration": 0.122951,
          "velocity": 0.88189
        },
        {
          "time": 284.319193,
          "name": "A3",
          "midi": 57,
          "duration": 0.122951,
          "velocity": 0.88189
        },
        {
          "time": 284.319193,
          "name": "E4",
          "midi": 64,
          "duration": 0.122951,
          "velocity": 0.88189
        },
        {
          "time": 284.442144,
          "name": "E4",
          "midi": 64,
          "duration": 0.122951,
          "velocity": 0.88189
        },
        {
          "time": 284.442144,
          "name": "A3",
          "midi": 57,
          "duration": 0.122951,
          "velocity": 0.88189
        },
        {
          "time": 284.565095,
          "name": "A3",
          "midi": 57,
          "duration": 0.122951,
          "velocity": 0.88189
        },
        {
          "time": 284.565095,
          "name": "E4",
          "midi": 64,
          "duration": 0.122951,
          "velocity": 0.88189
        },
        {
          "time": 284.688046,
          "name": "A3",
          "midi": 57,
          "duration": 0.122951,
          "velocity": 0.88189
        },
        {
          "time": 284.688046,
          "name": "E4",
          "midi": 64,
          "duration": 0.122951,
          "velocity": 0.88189
        },
        {
          "time": 284.810996,
          "name": "E4",
          "midi": 64,
          "duration": 0.119846,
          "velocity": 0.88189
        },
        {
          "time": 284.810996,
          "name": "A3",
          "midi": 57,
          "duration": 0.119846,
          "velocity": 0.88189
        },
        {
          "time": 284.930843,
          "name": "E4",
          "midi": 64,
          "duration": 0.113636,
          "velocity": 0.88189
        },
        {
          "time": 284.930843,
          "name": "A3",
          "midi": 57,
          "duration": 0.113636,
          "velocity": 0.88189
        },
        {
          "time": 285.044479,
          "name": "A3",
          "midi": 57,
          "duration": 0.113636,
          "velocity": 0.88189
        },
        {
          "time": 285.044479,
          "name": "E4",
          "midi": 64,
          "duration": 0.113636,
          "velocity": 0.88189
        },
        {
          "time": 285.158115,
          "name": "A3",
          "midi": 57,
          "duration": 0.113636,
          "velocity": 0.88189
        },
        {
          "time": 285.158115,
          "name": "E4",
          "midi": 64,
          "duration": 0.113636,
          "velocity": 0.88189
        },
        {
          "time": 285.271752,
          "name": "E4",
          "midi": 64,
          "duration": 0.113636,
          "velocity": 0.88189
        },
        {
          "time": 285.271752,
          "name": "A3",
          "midi": 57,
          "duration": 0.113636,
          "velocity": 0.88189
        },
        {
          "time": 285.385388,
          "name": "A3",
          "midi": 57,
          "duration": 0.113636,
          "velocity": 0.88189
        },
        {
          "time": 285.385388,
          "name": "E4",
          "midi": 64,
          "duration": 0.113636,
          "velocity": 0.88189
        },
        {
          "time": 285.499024,
          "name": "A3",
          "midi": 57,
          "duration": 0.113636,
          "velocity": 0.88189
        },
        {
          "time": 285.499024,
          "name": "E4",
          "midi": 64,
          "duration": 0.113636,
          "velocity": 0.88189
        },
        {
          "time": 285.612661,
          "name": "E4",
          "midi": 64,
          "duration": 0.113636,
          "velocity": 0.88189
        },
        {
          "time": 285.612661,
          "name": "A3",
          "midi": 57,
          "duration": 0.113636,
          "velocity": 0.88189
        },
        {
          "time": 285.726297,
          "name": "E4",
          "midi": 64,
          "duration": 0.116741,
          "velocity": 0.88189
        },
        {
          "time": 285.726297,
          "name": "A3",
          "midi": 57,
          "duration": 0.116741,
          "velocity": 0.88189
        },
        {
          "time": 285.843038,
          "name": "E4",
          "midi": 64,
          "duration": 0.122951,
          "velocity": 0.88189
        },
        {
          "time": 285.843038,
          "name": "A3",
          "midi": 57,
          "duration": 0.122951,
          "velocity": 0.88189
        },
        {
          "time": 285.965989,
          "name": "E4",
          "midi": 64,
          "duration": 0.122951,
          "velocity": 0.88189
        },
        {
          "time": 285.965989,
          "name": "A3",
          "midi": 57,
          "duration": 0.122951,
          "velocity": 0.88189
        },
        {
          "time": 286.08894,
          "name": "A3",
          "midi": 57,
          "duration": 0.122951,
          "velocity": 0.88189
        },
        {
          "time": 286.08894,
          "name": "E4",
          "midi": 64,
          "duration": 0.122951,
          "velocity": 0.88189
        },
        {
          "time": 286.211891,
          "name": "A3",
          "midi": 57,
          "duration": 0.122951,
          "velocity": 0.88189
        },
        {
          "time": 286.211891,
          "name": "E4",
          "midi": 64,
          "duration": 0.122951,
          "velocity": 0.88189
        },
        {
          "time": 286.334842,
          "name": "E4",
          "midi": 64,
          "duration": 0.122951,
          "velocity": 0.88189
        },
        {
          "time": 286.334842,
          "name": "A3",
          "midi": 57,
          "duration": 0.122951,
          "velocity": 0.88189
        },
        {
          "time": 286.457793,
          "name": "A3",
          "midi": 57,
          "duration": 0.122951,
          "velocity": 0.88189
        },
        {
          "time": 286.457793,
          "name": "E4",
          "midi": 64,
          "duration": 0.122951,
          "velocity": 0.88189
        },
        {
          "time": 286.580744,
          "name": "A3",
          "midi": 57,
          "duration": 0.122951,
          "velocity": 0.88189
        },
        {
          "time": 286.580744,
          "name": "E4",
          "midi": 64,
          "duration": 0.122951,
          "velocity": 0.88189
        },
        {
          "time": 286.703694,
          "name": "E4",
          "midi": 64,
          "duration": 0.119846,
          "velocity": 0.88189
        },
        {
          "time": 286.703694,
          "name": "A3",
          "midi": 57,
          "duration": 0.119846,
          "velocity": 0.88189
        },
        {
          "time": 286.823541,
          "name": "E4",
          "midi": 64,
          "duration": 0.113636,
          "velocity": 0.88189
        },
        {
          "time": 286.823541,
          "name": "A3",
          "midi": 57,
          "duration": 0.113636,
          "velocity": 0.88189
        },
        {
          "time": 286.937177,
          "name": "A3",
          "midi": 57,
          "duration": 0.113636,
          "velocity": 0.88189
        },
        {
          "time": 286.937177,
          "name": "E4",
          "midi": 64,
          "duration": 0.113636,
          "velocity": 0.88189
        },
        {
          "time": 287.050813,
          "name": "A3",
          "midi": 57,
          "duration": 0.113636,
          "velocity": 0.88189
        },
        {
          "time": 287.050813,
          "name": "E4",
          "midi": 64,
          "duration": 0.113636,
          "velocity": 0.88189
        },
        {
          "time": 287.16445,
          "name": "E4",
          "midi": 64,
          "duration": 0.113636,
          "velocity": 0.88189
        },
        {
          "time": 287.16445,
          "name": "A3",
          "midi": 57,
          "duration": 0.113636,
          "velocity": 0.88189
        },
        {
          "time": 287.278086,
          "name": "A3",
          "midi": 57,
          "duration": 0.113636,
          "velocity": 0.88189
        },
        {
          "time": 287.278086,
          "name": "E4",
          "midi": 64,
          "duration": 0.113636,
          "velocity": 0.88189
        },
        {
          "time": 287.391722,
          "name": "A3",
          "midi": 57,
          "duration": 0.113636,
          "velocity": 0.88189
        },
        {
          "time": 287.391722,
          "name": "E4",
          "midi": 64,
          "duration": 0.113636,
          "velocity": 0.88189
        },
        {
          "time": 287.505359,
          "name": "E4",
          "midi": 64,
          "duration": 0.113636,
          "velocity": 0.88189
        },
        {
          "time": 287.505359,
          "name": "A3",
          "midi": 57,
          "duration": 0.113636,
          "velocity": 0.88189
        },
        {
          "time": 287.618995,
          "name": "E4",
          "midi": 64,
          "duration": 0.116741,
          "velocity": 0.88189
        },
        {
          "time": 287.618995,
          "name": "A3",
          "midi": 57,
          "duration": 0.116741,
          "velocity": 0.88189
        },
        {
          "time": 287.735736,
          "name": "E4",
          "midi": 64,
          "duration": 0.122951,
          "velocity": 0.88189
        },
        {
          "time": 287.735736,
          "name": "A3",
          "midi": 57,
          "duration": 0.122951,
          "velocity": 0.88189
        },
        {
          "time": 287.858687,
          "name": "E4",
          "midi": 64,
          "duration": 0.122951,
          "velocity": 0.88189
        },
        {
          "time": 287.858687,
          "name": "A3",
          "midi": 57,
          "duration": 0.122951,
          "velocity": 0.88189
        },
        {
          "time": 287.981638,
          "name": "A3",
          "midi": 57,
          "duration": 0.122951,
          "velocity": 0.88189
        },
        {
          "time": 287.981638,
          "name": "E4",
          "midi": 64,
          "duration": 0.122951,
          "velocity": 0.88189
        },
        {
          "time": 288.104589,
          "name": "A3",
          "midi": 57,
          "duration": 0.122951,
          "velocity": 0.88189
        },
        {
          "time": 288.104589,
          "name": "E4",
          "midi": 64,
          "duration": 0.122951,
          "velocity": 0.88189
        },
        {
          "time": 288.22754,
          "name": "E4",
          "midi": 64,
          "duration": 0.122951,
          "velocity": 0.88189
        },
        {
          "time": 288.22754,
          "name": "A3",
          "midi": 57,
          "duration": 0.122951,
          "velocity": 0.88189
        },
        {
          "time": 288.350491,
          "name": "A3",
          "midi": 57,
          "duration": 0.122951,
          "velocity": 0.88189
        },
        {
          "time": 288.350491,
          "name": "E4",
          "midi": 64,
          "duration": 0.122951,
          "velocity": 0.88189
        },
        {
          "time": 288.473442,
          "name": "A3",
          "midi": 57,
          "duration": 0.122951,
          "velocity": 0.88189
        },
        {
          "time": 288.473442,
          "name": "E4",
          "midi": 64,
          "duration": 0.122951,
          "velocity": 0.88189
        },
        {
          "time": 288.596392,
          "name": "E4",
          "midi": 64,
          "duration": 0.119846,
          "velocity": 0.88189
        },
        {
          "time": 288.596392,
          "name": "A3",
          "midi": 57,
          "duration": 0.119846,
          "velocity": 0.88189
        },
        {
          "time": 288.716239,
          "name": "E4",
          "midi": 64,
          "duration": 0.113636,
          "velocity": 0.88189
        },
        {
          "time": 288.716239,
          "name": "A3",
          "midi": 57,
          "duration": 0.113636,
          "velocity": 0.88189
        },
        {
          "time": 288.829875,
          "name": "A3",
          "midi": 57,
          "duration": 0.113636,
          "velocity": 0.88189
        },
        {
          "time": 288.829875,
          "name": "E4",
          "midi": 64,
          "duration": 0.113636,
          "velocity": 0.88189
        },
        {
          "time": 288.943511,
          "name": "A3",
          "midi": 57,
          "duration": 0.113636,
          "velocity": 0.88189
        },
        {
          "time": 288.943511,
          "name": "E4",
          "midi": 64,
          "duration": 0.113636,
          "velocity": 0.88189
        },
        {
          "time": 289.057148,
          "name": "E4",
          "midi": 64,
          "duration": 0.113636,
          "velocity": 0.88189
        },
        {
          "time": 289.057148,
          "name": "A3",
          "midi": 57,
          "duration": 0.113636,
          "velocity": 0.88189
        },
        {
          "time": 289.170784,
          "name": "A3",
          "midi": 57,
          "duration": 0.113636,
          "velocity": 0.88189
        },
        {
          "time": 289.170784,
          "name": "E4",
          "midi": 64,
          "duration": 0.113636,
          "velocity": 0.88189
        },
        {
          "time": 289.28442,
          "name": "A3",
          "midi": 57,
          "duration": 0.113636,
          "velocity": 0.88189
        },
        {
          "time": 289.28442,
          "name": "E4",
          "midi": 64,
          "duration": 0.113636,
          "velocity": 0.88189
        },
        {
          "time": 289.398057,
          "name": "E4",
          "midi": 64,
          "duration": 0.113636,
          "velocity": 0.88189
        },
        {
          "time": 289.398057,
          "name": "A3",
          "midi": 57,
          "duration": 0.113636,
          "velocity": 0.88189
        },
        {
          "time": 289.511693,
          "name": "E4",
          "midi": 64,
          "duration": 0.116741,
          "velocity": 0.88189
        },
        {
          "time": 289.511693,
          "name": "A3",
          "midi": 57,
          "duration": 0.116741,
          "velocity": 0.88189
        },
        {
          "time": 289.628434,
          "name": "E4",
          "midi": 64,
          "duration": 0.122951,
          "velocity": 0.88189
        },
        {
          "time": 289.628434,
          "name": "A3",
          "midi": 57,
          "duration": 0.122951,
          "velocity": 0.88189
        },
        {
          "time": 289.751385,
          "name": "E4",
          "midi": 64,
          "duration": 0.122951,
          "velocity": 0.88189
        },
        {
          "time": 289.751385,
          "name": "A3",
          "midi": 57,
          "duration": 0.122951,
          "velocity": 0.88189
        },
        {
          "time": 289.874336,
          "name": "A3",
          "midi": 57,
          "duration": 0.122951,
          "velocity": 0.88189
        },
        {
          "time": 289.874336,
          "name": "E4",
          "midi": 64,
          "duration": 0.122951,
          "velocity": 0.88189
        },
        {
          "time": 289.997287,
          "name": "A3",
          "midi": 57,
          "duration": 0.122951,
          "velocity": 0.88189
        },
        {
          "time": 289.997287,
          "name": "E4",
          "midi": 64,
          "duration": 0.122951,
          "velocity": 0.88189
        },
        {
          "time": 290.120238,
          "name": "E4",
          "midi": 64,
          "duration": 0.122951,
          "velocity": 0.88189
        },
        {
          "time": 290.120238,
          "name": "A3",
          "midi": 57,
          "duration": 0.122951,
          "velocity": 0.88189
        },
        {
          "time": 290.243189,
          "name": "A3",
          "midi": 57,
          "duration": 0.122951,
          "velocity": 0.88189
        },
        {
          "time": 290.243189,
          "name": "E4",
          "midi": 64,
          "duration": 0.122951,
          "velocity": 0.88189
        },
        {
          "time": 290.36614,
          "name": "A3",
          "midi": 57,
          "duration": 0.122951,
          "velocity": 0.88189
        },
        {
          "time": 290.36614,
          "name": "E4",
          "midi": 64,
          "duration": 0.122951,
          "velocity": 0.88189
        },
        {
          "time": 290.48909,
          "name": "E4",
          "midi": 64,
          "duration": 0.119846,
          "velocity": 0.88189
        },
        {
          "time": 290.48909,
          "name": "A3",
          "midi": 57,
          "duration": 0.119846,
          "velocity": 0.88189
        },
        {
          "time": 290.608937,
          "name": "E4",
          "midi": 64,
          "duration": 0.113636,
          "velocity": 0.88189
        },
        {
          "time": 290.608937,
          "name": "A3",
          "midi": 57,
          "duration": 0.113636,
          "velocity": 0.88189
        },
        {
          "time": 290.722573,
          "name": "A3",
          "midi": 57,
          "duration": 0.113636,
          "velocity": 0.88189
        },
        {
          "time": 290.722573,
          "name": "E4",
          "midi": 64,
          "duration": 0.113636,
          "velocity": 0.88189
        },
        {
          "time": 290.836209,
          "name": "A3",
          "midi": 57,
          "duration": 0.113636,
          "velocity": 0.88189
        },
        {
          "time": 290.836209,
          "name": "E4",
          "midi": 64,
          "duration": 0.113636,
          "velocity": 0.88189
        },
        {
          "time": 290.949846,
          "name": "E4",
          "midi": 64,
          "duration": 0.113636,
          "velocity": 0.88189
        },
        {
          "time": 290.949846,
          "name": "A3",
          "midi": 57,
          "duration": 0.113636,
          "velocity": 0.88189
        },
        {
          "time": 291.063482,
          "name": "A3",
          "midi": 57,
          "duration": 0.113636,
          "velocity": 0.88189
        },
        {
          "time": 291.063482,
          "name": "E4",
          "midi": 64,
          "duration": 0.113636,
          "velocity": 0.88189
        },
        {
          "time": 291.177118,
          "name": "A3",
          "midi": 57,
          "duration": 0.113636,
          "velocity": 0.88189
        },
        {
          "time": 291.177118,
          "name": "E4",
          "midi": 64,
          "duration": 0.113636,
          "velocity": 0.88189
        },
        {
          "time": 291.290755,
          "name": "E4",
          "midi": 64,
          "duration": 0.113636,
          "velocity": 0.88189
        },
        {
          "time": 291.290755,
          "name": "A3",
          "midi": 57,
          "duration": 0.113636,
          "velocity": 0.88189
        },
        {
          "time": 291.404391,
          "name": "E4",
          "midi": 64,
          "duration": 0.116741,
          "velocity": 0.88189
        },
        {
          "time": 291.404391,
          "name": "A3",
          "midi": 57,
          "duration": 0.116741,
          "velocity": 0.88189
        },
        {
          "time": 291.521132,
          "name": "E4",
          "midi": 64,
          "duration": 0.122951,
          "velocity": 0.88189
        },
        {
          "time": 291.521132,
          "name": "A3",
          "midi": 57,
          "duration": 0.122951,
          "velocity": 0.88189
        },
        {
          "time": 291.644083,
          "name": "E4",
          "midi": 64,
          "duration": 0.122951,
          "velocity": 0.88189
        },
        {
          "time": 291.644083,
          "name": "A3",
          "midi": 57,
          "duration": 0.122951,
          "velocity": 0.88189
        },
        {
          "time": 291.767034,
          "name": "A3",
          "midi": 57,
          "duration": 0.122951,
          "velocity": 0.88189
        },
        {
          "time": 291.767034,
          "name": "E4",
          "midi": 64,
          "duration": 0.122951,
          "velocity": 0.88189
        },
        {
          "time": 291.889985,
          "name": "A3",
          "midi": 57,
          "duration": 0.122951,
          "velocity": 0.88189
        },
        {
          "time": 291.889985,
          "name": "E4",
          "midi": 64,
          "duration": 0.122951,
          "velocity": 0.88189
        },
        {
          "time": 292.012936,
          "name": "E4",
          "midi": 64,
          "duration": 0.122951,
          "velocity": 0.88189
        },
        {
          "time": 292.012936,
          "name": "A3",
          "midi": 57,
          "duration": 0.122951,
          "velocity": 0.88189
        },
        {
          "time": 292.135887,
          "name": "A3",
          "midi": 57,
          "duration": 0.122951,
          "velocity": 0.88189
        },
        {
          "time": 292.135887,
          "name": "E4",
          "midi": 64,
          "duration": 0.122951,
          "velocity": 0.88189
        },
        {
          "time": 292.258838,
          "name": "A3",
          "midi": 57,
          "duration": 0.122951,
          "velocity": 0.88189
        },
        {
          "time": 292.258838,
          "name": "E4",
          "midi": 64,
          "duration": 0.122951,
          "velocity": 0.88189
        },
        {
          "time": 292.381788,
          "name": "E4",
          "midi": 64,
          "duration": 0.119846,
          "velocity": 0.88189
        },
        {
          "time": 292.381788,
          "name": "A3",
          "midi": 57,
          "duration": 0.119846,
          "velocity": 0.88189
        },
        {
          "time": 292.501635,
          "name": "E4",
          "midi": 64,
          "duration": 0.113636,
          "velocity": 0.88189
        },
        {
          "time": 292.501635,
          "name": "A3",
          "midi": 57,
          "duration": 0.113636,
          "velocity": 0.88189
        },
        {
          "time": 292.615271,
          "name": "A3",
          "midi": 57,
          "duration": 0.113636,
          "velocity": 0.88189
        },
        {
          "time": 292.615271,
          "name": "E4",
          "midi": 64,
          "duration": 0.113636,
          "velocity": 0.88189
        },
        {
          "time": 292.728907,
          "name": "A3",
          "midi": 57,
          "duration": 0.113636,
          "velocity": 0.88189
        },
        {
          "time": 292.728907,
          "name": "E4",
          "midi": 64,
          "duration": 0.113636,
          "velocity": 0.88189
        },
        {
          "time": 292.842544,
          "name": "E4",
          "midi": 64,
          "duration": 0.113636,
          "velocity": 0.88189
        },
        {
          "time": 292.842544,
          "name": "A3",
          "midi": 57,
          "duration": 0.113636,
          "velocity": 0.88189
        },
        {
          "time": 292.95618,
          "name": "A3",
          "midi": 57,
          "duration": 0.113636,
          "velocity": 0.88189
        },
        {
          "time": 292.95618,
          "name": "E4",
          "midi": 64,
          "duration": 0.113636,
          "velocity": 0.88189
        },
        {
          "time": 293.069816,
          "name": "A3",
          "midi": 57,
          "duration": 0.113636,
          "velocity": 0.88189
        },
        {
          "time": 293.069816,
          "name": "E4",
          "midi": 64,
          "duration": 0.113636,
          "velocity": 0.88189
        },
        {
          "time": 293.183453,
          "name": "E4",
          "midi": 64,
          "duration": 0.113636,
          "velocity": 0.88189
        },
        {
          "time": 293.183453,
          "name": "A3",
          "midi": 57,
          "duration": 0.113636,
          "velocity": 0.88189
        },
        {
          "time": 293.297089,
          "name": "E4",
          "midi": 64,
          "duration": 0.116741,
          "velocity": 0.88189
        },
        {
          "time": 293.297089,
          "name": "A3",
          "midi": 57,
          "duration": 0.116741,
          "velocity": 0.88189
        },
        {
          "time": 293.41383,
          "name": "E4",
          "midi": 64,
          "duration": 0.122951,
          "velocity": 0.88189
        },
        {
          "time": 293.536781,
          "name": "E4",
          "midi": 64,
          "duration": 0.122951,
          "velocity": 0.88189
        },
        {
          "time": 293.659732,
          "name": "E4",
          "midi": 64,
          "duration": 0.122951,
          "velocity": 0.88189
        },
        {
          "time": 293.782683,
          "name": "E4",
          "midi": 64,
          "duration": 0.128264,
          "velocity": 0.88189
        },
        {
          "time": 293.910947,
          "name": "E4",
          "midi": 64,
          "duration": 0.138889,
          "velocity": 0.88189
        },
        {
          "time": 294.049835,
          "name": "E4",
          "midi": 64,
          "duration": 0.138889,
          "velocity": 0.88189
        },
        {
          "time": 294.188724,
          "name": "E4",
          "midi": 64,
          "duration": 0.138889,
          "velocity": 0.88189
        },
        {
          "time": 294.327613,
          "name": "E4",
          "midi": 64,
          "duration": 0.132593,
          "velocity": 0.88189
        },
        {
          "time": 294.460206,
          "name": "E4",
          "midi": 64,
          "duration": 0.12,
          "velocity": 0.88189
        },
        {
          "time": 294.580206,
          "name": "E4",
          "midi": 64,
          "duration": 0.12,
          "velocity": 0.88189
        },
        {
          "time": 294.700206,
          "name": "E4",
          "midi": 64,
          "duration": 0.12,
          "velocity": 0.88189
        },
        {
          "time": 294.820206,
          "name": "E4",
          "midi": 64,
          "duration": 0.12,
          "velocity": 0.88189
        },
        {
          "time": 294.940206,
          "name": "E4",
          "midi": 64,
          "duration": 0.12,
          "velocity": 0.88189
        },
        {
          "time": 295.060206,
          "name": "E4",
          "midi": 64,
          "duration": 0.12,
          "velocity": 0.88189
        },
        {
          "time": 295.180206,
          "name": "E4",
          "midi": 64,
          "duration": 0.12,
          "velocity": 0.88189
        },
        {
          "time": 295.300206,
          "name": "E4",
          "midi": 64,
          "duration": 0.120984,
          "velocity": 0.88189
        },
        {
          "time": 295.421189,
          "name": "F#4",
          "midi": 66,
          "duration": 0.491804,
          "velocity": 0.88189
        },
        {
          "time": 296.401692,
          "name": "B3",
          "midi": 59,
          "duration": 0.912196,
          "velocity": 0.88189
        },
        {
          "time": 297.313887,
          "name": "B3",
          "midi": 59,
          "duration": 0.980502,
          "velocity": 0.88189
        },
        {
          "time": 299.206585,
          "name": "A3",
          "midi": 57,
          "duration": 0.980502,
          "velocity": 0.88189
        },
        {
          "time": 300.187088,
          "name": "A3",
          "midi": 57,
          "duration": 0.998191,
          "velocity": 0.88189
        },
        {
          "time": 301.185278,
          "name": "A3",
          "midi": 57,
          "duration": 0.980502,
          "velocity": 0.88189
        },
        {
          "time": 302.165781,
          "name": "A3",
          "midi": 57,
          "duration": 0.921212,
          "velocity": 0.88189
        },
        {
          "time": 303.086993,
          "name": "A3",
          "midi": 57,
          "duration": 1.079682,
          "velocity": 0.88189
        },
        {
          "time": 304.166675,
          "name": "A3",
          "midi": 57,
          "duration": 0.912196,
          "velocity": 0.88189
        },
        {
          "time": 305.078871,
          "name": "A3",
          "midi": 57,
          "duration": 0.980502,
          "velocity": 0.88189
        },
        {
          "time": 306.059373,
          "name": "B3",
          "midi": 59,
          "duration": 0.912196,
          "velocity": 0.88189
        },
        {
          "time": 306.971569,
          "name": "A3",
          "midi": 57,
          "duration": 0.980502,
          "velocity": 0.88189
        },
        {
          "time": 307.952071,
          "name": "C#4",
          "midi": 61,
          "duration": 1.05765,
          "velocity": 0.88189
        },
        {
          "time": 308.993328,
          "name": "G#3",
          "midi": 56,
          "duration": 1.892698,
          "velocity": 0.88189
        },
        {
          "time": 308.993328,
          "name": "E4",
          "midi": 64,
          "duration": 1.892698,
          "velocity": 0.88189
        },
        {
          "time": 309.017918,
          "name": "E3",
          "midi": 52,
          "duration": 1.892698,
          "velocity": 0.88189
        },
        {
          "time": 309.017918,
          "name": "B3",
          "midi": 59,
          "duration": 1.892698,
          "velocity": 0.88189
        },
        {
          "time": 310.886026,
          "name": "E4",
          "midi": 64,
          "duration": 1.89752,
          "velocity": 0.88189
        },
        {
          "time": 310.886026,
          "name": "A3",
          "midi": 57,
          "duration": 1.89752,
          "velocity": 0.88189
        },
        {
          "time": 310.910616,
          "name": "E3",
          "midi": 52,
          "duration": 1.902341,
          "velocity": 0.88189
        },
        {
          "time": 310.910616,
          "name": "A3",
          "midi": 57,
          "duration": 1.902341,
          "velocity": 0.88189
        },
        {
          "time": 312.783546,
          "name": "E4",
          "midi": 64,
          "duration": 1.984308,
          "velocity": 0.88189
        },
        {
          "time": 312.783546,
          "name": "G#3",
          "midi": 56,
          "duration": 1.984308,
          "velocity": 0.88189
        },
        {
          "time": 312.812957,
          "name": "E3",
          "midi": 52,
          "duration": 1.979487,
          "velocity": 0.88189
        },
        {
          "time": 312.812957,
          "name": "B3",
          "midi": 59,
          "duration": 1.979487,
          "velocity": 0.88189
        },
        {
          "time": 314.767854,
          "name": "A3",
          "midi": 57,
          "duration": 1.898108,
          "velocity": 0.88189
        },
        {
          "time": 314.767854,
          "name": "E4",
          "midi": 64,
          "duration": 1.898108,
          "velocity": 0.88189
        },
        {
          "time": 314.792444,
          "name": "A3",
          "midi": 57,
          "duration": 1.903518,
          "velocity": 0.88189
        },
        {
          "time": 314.792444,
          "name": "E3",
          "midi": 52,
          "duration": 1.903518,
          "velocity": 0.88189
        },
        {
          "time": 316.665962,
          "name": "D#4",
          "midi": 63,
          "duration": 2.000604,
          "velocity": 0.88189
        },
        {
          "time": 316.665962,
          "name": "A3",
          "midi": 57,
          "duration": 2.000604,
          "velocity": 0.88189
        },
        {
          "time": 316.695962,
          "name": "C#4",
          "midi": 61,
          "duration": 2.004312,
          "velocity": 0.88189
        },
        {
          "time": 316.695962,
          "name": "F#3",
          "midi": 54,
          "duration": 2.004312,
          "velocity": 0.88189
        },
        {
          "time": 318.666566,
          "name": "G#3",
          "midi": 56,
          "duration": 0.573863,
          "velocity": 0.88189
        },
        {
          "time": 318.666566,
          "name": "E4",
          "midi": 64,
          "duration": 1.974757,
          "velocity": 0.88189
        },
        {
          "time": 318.700273,
          "name": "G#3",
          "midi": 56,
          "duration": 1.96564,
          "velocity": 0.88189
        },
        {
          "time": 318.700273,
          "name": "C#4",
          "midi": 61,
          "duration": 1.96564,
          "velocity": 0.88189
        },
        {
          "time": 320.641323,
          "name": "F#4",
          "midi": 66,
          "duration": 1.890006,
          "velocity": 0.88189
        },
        {
          "time": 320.665913,
          "name": "D#4",
          "midi": 63,
          "duration": 1.887313,
          "velocity": 0.88189
        },
        {
          "time": 320.665913,
          "name": "G#3",
          "midi": 56,
          "duration": 1.887313,
          "velocity": 0.88189
        },
        {
          "time": 322.531329,
          "name": "E4",
          "midi": 64,
          "duration": 0.8808,
          "velocity": 0.88189
        },
        {
          "time": 322.553226,
          "name": "G#3",
          "midi": 56,
          "duration": 0.885688,
          "velocity": 0.88189
        },
        {
          "time": 322.553226,
          "name": "C#4",
          "midi": 61,
          "duration": 0.885688,
          "velocity": 0.88189
        },
        {
          "time": 324.497755,
          "name": "E4",
          "midi": 64,
          "duration": 0.491804,
          "velocity": 0.88189
        },
        {
          "time": 324.497755,
          "name": "G#3",
          "midi": 56,
          "duration": 0.491804,
          "velocity": 0.88189
        },
        {
          "time": 324.555132,
          "name": "C#5",
          "midi": 73,
          "duration": 0.491804,
          "velocity": 0.88189
        },
        {
          "time": 328.283151,
          "name": "G#3",
          "midi": 56,
          "duration": 0.491804,
          "velocity": 0.88189
        },
        {
          "time": 328.283151,
          "name": "E4",
          "midi": 64,
          "duration": 0.491804,
          "velocity": 0.88189
        },
        {
          "time": 328.340528,
          "name": "C#5",
          "midi": 73,
          "duration": 0.491804,
          "velocity": 0.88189
        },
        {
          "time": 346.887929,
          "name": "G#3",
          "midi": 56,
          "duration": 0.422443,
          "velocity": 0.88189
        },
        {
          "time": 347.665402,
          "name": "G#3",
          "midi": 56,
          "duration": 0.355931,
          "velocity": 0.88189
        },
        {
          "time": 348.387187,
          "name": "A3",
          "midi": 57,
          "duration": 0.363143,
          "velocity": 0.88189
        },
        {
          "time": 349.083664,
          "name": "E3",
          "midi": 52,
          "duration": 0.336044,
          "velocity": 0.88189
        },
        {
          "time": 349.785561,
          "name": "B3",
          "midi": 59,
          "duration": 0.363143,
          "velocity": 0.88189
        },
        {
          "time": 350.482038,
          "name": "B3",
          "midi": 59,
          "duration": 0.336044,
          "velocity": 0.88189
        },
        {
          "time": 351.183935,
          "name": "A3",
          "midi": 57,
          "duration": 0.372679,
          "velocity": 0.88189
        },
        {
          "time": 351.996647,
          "name": "A3",
          "midi": 57,
          "duration": 0.355931,
          "velocity": 0.88189
        },
        {
          "time": 352.718432,
          "name": "A3",
          "midi": 57,
          "duration": 0.363143,
          "velocity": 0.88189
        },
        {
          "time": 353.414909,
          "name": "B3",
          "midi": 59,
          "duration": 0.336044,
          "velocity": 0.88189
        },
        {
          "time": 354.116806,
          "name": "A3",
          "midi": 57,
          "duration": 0.363143,
          "velocity": 0.88189
        },
        {
          "time": 354.813283,
          "name": "A3",
          "midi": 57,
          "duration": 0.336044,
          "velocity": 0.88189
        },
        {
          "time": 355.51518,
          "name": "D4",
          "midi": 62,
          "duration": 0.363143,
          "velocity": 0.88189
        },
        {
          "time": 356.211657,
          "name": "D4",
          "midi": 62,
          "duration": 0.33934,
          "velocity": 0.88189
        },
        {
          "time": 356.550997,
          "name": "C#4",
          "midi": 61,
          "duration": 0.403469,
          "velocity": 0.88189
        },
        {
          "time": 358.411806,
          "name": "F#4",
          "midi": 66,
          "duration": 0.363143,
          "velocity": 0.88189
        },
        {
          "time": 359.108283,
          "name": "G#4",
          "midi": 68,
          "duration": 0.336044,
          "velocity": 0.88189
        },
        {
          "time": 359.81018,
          "name": "A4",
          "midi": 69,
          "duration": 0.363143,
          "velocity": 0.88189
        },
        {
          "time": 360.506657,
          "name": "E4",
          "midi": 64,
          "duration": 0.336044,
          "velocity": 0.88189
        },
        {
          "time": 361.208554,
          "name": "E4",
          "midi": 64,
          "duration": 0.363143,
          "velocity": 0.88189
        },
        {
          "time": 361.905031,
          "name": "D4",
          "midi": 62,
          "duration": 0.336044,
          "velocity": 0.88189
        },
        {
          "time": 362.606928,
          "name": "C#4",
          "midi": 61,
          "duration": 0.372679,
          "velocity": 0.88189
        },
        {
          "time": 363.419817,
          "name": "E4",
          "midi": 64,
          "duration": 0.357869,
          "velocity": 0.88189
        },
        {
          "time": 364.143539,
          "name": "F#4",
          "midi": 66,
          "duration": 0.363143,
          "velocity": 0.88189
        },
        {
          "time": 364.840016,
          "name": "G#4",
          "midi": 68,
          "duration": 0.336044,
          "velocity": 0.88189
        },
        {
          "time": 365.541913,
          "name": "A4",
          "midi": 69,
          "duration": 0.363143,
          "velocity": 0.88189
        },
        {
          "time": 366.23839,
          "name": "E4",
          "midi": 64,
          "duration": 0.336044,
          "velocity": 0.88189
        },
        {
          "time": 366.940287,
          "name": "F#4",
          "midi": 66,
          "duration": 0.363143,
          "velocity": 0.88189
        },
        {
          "time": 367.636764,
          "name": "D4",
          "midi": 62,
          "duration": 0.336044,
          "velocity": 0.88189
        },
        {
          "time": 367.972808,
          "name": "C#4",
          "midi": 61,
          "duration": 0.365854,
          "velocity": 0.88189
        },
        {
          "time": 369.205609,
          "name": "A4",
          "midi": 69,
          "duration": 0.431025,
          "velocity": 0.88189
        },
        {
          "time": 369.636634,
          "name": "G#4",
          "midi": 68,
          "duration": 0.452106,
          "velocity": 0.88189
        },
        {
          "time": 370.075837,
          "name": "D4",
          "midi": 62,
          "duration": 0.385494,
          "velocity": 0.88189
        },
        {
          "time": 370.075837,
          "name": "A4",
          "midi": 69,
          "duration": 0.385494,
          "velocity": 0.88189
        },
        {
          "time": 370.08874,
          "name": "F#4",
          "midi": 66,
          "duration": 0.384425,
          "velocity": 0.88189
        },
        {
          "time": 370.095191,
          "name": "D4",
          "midi": 62,
          "duration": 0.38389,
          "velocity": 0.88189
        },
        {
          "time": 370.095191,
          "name": "A4",
          "midi": 69,
          "duration": 0.38389,
          "velocity": 0.88189
        },
        {
          "time": 370.095191,
          "name": "F#4",
          "midi": 66,
          "duration": 0.38389,
          "velocity": 0.96063
        },
        {
          "time": 370.095191,
          "name": "A3",
          "midi": 57,
          "duration": 0.38389,
          "velocity": 0.96063
        },
        {
          "time": 370.473165,
          "name": "B4",
          "midi": 71,
          "duration": 0.177515,
          "velocity": 0.88189
        },
        {
          "time": 370.650679,
          "name": "A4",
          "midi": 69,
          "duration": 0.177515,
          "velocity": 0.88189
        },
        {
          "time": 370.81636,
          "name": "E4",
          "midi": 64,
          "duration": 0.355571,
          "velocity": 0.88189
        },
        {
          "time": 370.81636,
          "name": "B4",
          "midi": 71,
          "duration": 0.355571,
          "velocity": 0.88189
        },
        {
          "time": 370.828194,
          "name": "G#4",
          "midi": 68,
          "duration": 0.136095,
          "velocity": 0.88189
        },
        {
          "time": 370.834111,
          "name": "E4",
          "midi": 64,
          "duration": 0.356112,
          "velocity": 0.88189
        },
        {
          "time": 370.834111,
          "name": "B4",
          "midi": 71,
          "duration": 0.356112,
          "velocity": 0.88189
        },
        {
          "time": 370.834111,
          "name": "G#4",
          "midi": 68,
          "duration": 0.356112,
          "velocity": 0.96063
        },
        {
          "time": 370.834111,
          "name": "B3",
          "midi": 59,
          "duration": 0.356112,
          "velocity": 0.96063
        },
        {
          "time": 371.005709,
          "name": "F#4",
          "midi": 66,
          "duration": 0.136095,
          "velocity": 0.88189
        },
        {
          "time": 371.184126,
          "name": "E4",
          "midi": 64,
          "duration": 0.27439,
          "velocity": 0.88189
        },
        {
          "time": 371.537784,
          "name": "E4",
          "midi": 64,
          "duration": 0.364227,
          "velocity": 0.88189
        },
        {
          "time": 371.537784,
          "name": "A4",
          "midi": 69,
          "duration": 0.364227,
          "velocity": 0.88189
        },
        {
          "time": 371.549979,
          "name": "F#4",
          "midi": 66,
          "duration": 0.121951,
          "velocity": 0.88189
        },
        {
          "time": 371.556077,
          "name": "A3",
          "midi": 57,
          "duration": 0.362601,
          "velocity": 0.88189
        },
        {
          "time": 371.556077,
          "name": "A4",
          "midi": 69,
          "duration": 0.362601,
          "velocity": 0.88189
        },
        {
          "time": 371.556077,
          "name": "E4",
          "midi": 64,
          "duration": 0.362601,
          "velocity": 0.96063
        },
        {
          "time": 371.556077,
          "name": "A3",
          "midi": 57,
          "duration": 0.362601,
          "velocity": 0.96063
        },
        {
          "time": 371.67193,
          "name": "G#4",
          "midi": 68,
          "duration": 0.121951,
          "velocity": 0.88189
        },
        {
          "time": 371.793881,
          "name": "F#4",
          "midi": 66,
          "duration": 0.119241,
          "velocity": 0.88189
        },
        {
          "time": 371.913123,
          "name": "E4",
          "midi": 64,
          "duration": 0.333333,
          "velocity": 0.88189
        },
        {
          "time": 372.235345,
          "name": "E4",
          "midi": 64,
          "duration": 0.33496,
          "velocity": 0.88189
        },
        {
          "time": 372.235345,
          "name": "A4",
          "midi": 69,
          "duration": 0.33496,
          "velocity": 0.88189
        },
        {
          "time": 372.252012,
          "name": "A3",
          "midi": 57,
          "duration": 0.336586,
          "velocity": 0.88189
        },
        {
          "time": 372.252012,
          "name": "A4",
          "midi": 69,
          "duration": 0.336586,
          "velocity": 0.88189
        },
        {
          "time": 372.252012,
          "name": "E4",
          "midi": 64,
          "duration": 0.336586,
          "velocity": 0.96063
        },
        {
          "time": 372.252012,
          "name": "A3",
          "midi": 57,
          "duration": 0.336586,
          "velocity": 0.96063
        },
        {
          "time": 372.936158,
          "name": "D4",
          "midi": 62,
          "duration": 0.364227,
          "velocity": 0.88189
        },
        {
          "time": 372.936158,
          "name": "B4",
          "midi": 71,
          "duration": 0.364227,
          "velocity": 0.88189
        },
        {
          "time": 372.948353,
          "name": "F#4",
          "midi": 66,
          "duration": 0.121951,
          "velocity": 0.88189
        },
        {
          "time": 372.954451,
          "name": "D4",
          "midi": 62,
          "duration": 0.362601,
          "velocity": 0.88189
        },
        {
          "time": 372.954451,
          "name": "B4",
          "midi": 71,
          "duration": 0.362601,
          "velocity": 0.88189
        },
        {
          "time": 372.954451,
          "name": "E4",
          "midi": 64,
          "duration": 0.362601,
          "velocity": 0.96063
        },
        {
          "time": 372.954451,
          "name": "B3",
          "midi": 59,
          "duration": 0.362601,
          "velocity": 0.96063
        },
        {
          "time": 373.070304,
          "name": "G#4",
          "midi": 68,
          "duration": 0.121951,
          "velocity": 0.88189
        },
        {
          "time": 373.192255,
          "name": "F#4",
          "midi": 66,
          "duration": 0.119241,
          "velocity": 0.88189
        },
        {
          "time": 373.311497,
          "name": "E4",
          "midi": 64,
          "duration": 0.333333,
          "velocity": 0.88189
        },
        {
          "time": 373.633719,
          "name": "B3",
          "midi": 59,
          "duration": 0.33496,
          "velocity": 0.88189
        },
        {
          "time": 373.633719,
          "name": "E4",
          "midi": 64,
          "duration": 0.33496,
          "velocity": 0.88189
        },
        {
          "time": 373.650386,
          "name": "B3",
          "midi": 59,
          "duration": 0.336586,
          "velocity": 0.88189
        },
        {
          "time": 373.650386,
          "name": "E4",
          "midi": 64,
          "duration": 0.336586,
          "velocity": 0.88189
        },
        {
          "time": 373.650386,
          "name": "E3",
          "midi": 52,
          "duration": 0.336586,
          "velocity": 0.96063
        },
        {
          "time": 373.650386,
          "name": "D4",
          "midi": 62,
          "duration": 0.336586,
          "velocity": 0.96063
        },
        {
          "time": 374.334532,
          "name": "A3",
          "midi": 57,
          "duration": 0.364227,
          "velocity": 0.88189
        },
        {
          "time": 374.334532,
          "name": "E4",
          "midi": 64,
          "duration": 0.364227,
          "velocity": 0.88189
        },
        {
          "time": 374.346727,
          "name": "F#4",
          "midi": 66,
          "duration": 0.121951,
          "velocity": 0.88189
        },
        {
          "time": 374.352825,
          "name": "C#4",
          "midi": 61,
          "duration": 0.362601,
          "velocity": 0.88189
        },
        {
          "time": 374.352825,
          "name": "E4",
          "midi": 64,
          "duration": 0.362601,
          "velocity": 0.88189
        },
        {
          "time": 374.352825,
          "name": "C#4",
          "midi": 61,
          "duration": 0.362601,
          "velocity": 0.96063
        },
        {
          "time": 374.352825,
          "name": "A3",
          "midi": 57,
          "duration": 0.362601,
          "velocity": 0.96063
        },
        {
          "time": 374.468678,
          "name": "G#4",
          "midi": 68,
          "duration": 0.121951,
          "velocity": 0.88189
        },
        {
          "time": 374.590629,
          "name": "F#4",
          "midi": 66,
          "duration": 0.119241,
          "velocity": 0.88189
        },
        {
          "time": 374.709871,
          "name": "E4",
          "midi": 64,
          "duration": 0.34232,
          "velocity": 0.88189
        },
        {
          "time": 375.037485,
          "name": "A3",
          "midi": 57,
          "duration": 0.43741,
          "velocity": 0.88189
        },
        {
          "time": 375.037485,
          "name": "E4",
          "midi": 64,
          "duration": 0.43741,
          "velocity": 0.88189
        },
        {
          "time": 375.052191,
          "name": "A4",
          "midi": 69,
          "duration": 0.4349,
          "velocity": 0.88189
        },
        {
          "time": 375.059544,
          "name": "A3",
          "midi": 57,
          "duration": 0.433644,
          "velocity": 0.88189
        },
        {
          "time": 375.059544,
          "name": "E4",
          "midi": 64,
          "duration": 0.433644,
          "velocity": 0.88189
        },
        {
          "time": 375.059544,
          "name": "E3",
          "midi": 52,
          "duration": 0.433644,
          "velocity": 0.96063
        },
        {
          "time": 375.059544,
          "name": "C#4",
          "midi": 61,
          "duration": 0.433644,
          "velocity": 0.96063
        },
        {
          "time": 375.487091,
          "name": "G#4",
          "midi": 68,
          "duration": 0.365854,
          "velocity": 0.88189
        },
        {
          "time": 375.840749,
          "name": "D4",
          "midi": 62,
          "duration": 0.364227,
          "velocity": 0.88189
        },
        {
          "time": 375.840749,
          "name": "A4",
          "midi": 69,
          "duration": 0.364227,
          "velocity": 0.88189
        },
        {
          "time": 375.852944,
          "name": "F#4",
          "midi": 66,
          "duration": 0.363143,
          "velocity": 0.88189
        },
        {
          "time": 375.859042,
          "name": "D4",
          "midi": 62,
          "duration": 0.362601,
          "velocity": 0.88189
        },
        {
          "time": 375.859042,
          "name": "A4",
          "midi": 69,
          "duration": 0.362601,
          "velocity": 0.88189
        },
        {
          "time": 375.859042,
          "name": "F#4",
          "midi": 66,
          "duration": 0.362601,
          "velocity": 0.96063
        },
        {
          "time": 375.859042,
          "name": "A3",
          "midi": 57,
          "duration": 0.362601,
          "velocity": 0.96063
        },
        {
          "time": 376.216088,
          "name": "B4",
          "midi": 71,
          "duration": 0.166667,
          "velocity": 0.88189
        },
        {
          "time": 376.382754,
          "name": "A4",
          "midi": 69,
          "duration": 0.166667,
          "velocity": 0.88189
        },
        {
          "time": 376.53831,
          "name": "E4",
          "midi": 64,
          "duration": 0.33496,
          "velocity": 0.88189
        },
        {
          "time": 376.53831,
          "name": "B4",
          "midi": 71,
          "duration": 0.33496,
          "velocity": 0.88189
        },
        {
          "time": 376.549421,
          "name": "G#4",
          "midi": 68,
          "duration": 0.127778,
          "velocity": 0.88189
        },
        {
          "time": 376.554977,
          "name": "E4",
          "midi": 64,
          "duration": 0.336586,
          "velocity": 0.88189
        },
        {
          "time": 376.554977,
          "name": "B4",
          "midi": 71,
          "duration": 0.336586,
          "velocity": 0.88189
        },
        {
          "time": 376.554977,
          "name": "G#4",
          "midi": 68,
          "duration": 0.336586,
          "velocity": 0.96063
        },
        {
          "time": 376.554977,
          "name": "B3",
          "midi": 59,
          "duration": 0.336586,
          "velocity": 0.96063
        },
        {
          "time": 376.716088,
          "name": "F#4",
          "midi": 66,
          "duration": 0.127778,
          "velocity": 0.88189
        },
        {
          "time": 376.885465,
          "name": "E4",
          "midi": 64,
          "duration": 0.27439,
          "velocity": 0.88189
        },
        {
          "time": 377.239123,
          "name": "E4",
          "midi": 64,
          "duration": 0.364227,
          "velocity": 0.88189
        },
        {
          "time": 377.239123,
          "name": "A4",
          "midi": 69,
          "duration": 0.364227,
          "velocity": 0.88189
        },
        {
          "time": 377.251318,
          "name": "F#4",
          "midi": 66,
          "duration": 0.121951,
          "velocity": 0.88189
        },
        {
          "time": 377.257416,
          "name": "A3",
          "midi": 57,
          "duration": 0.362601,
          "velocity": 0.88189
        },
        {
          "time": 377.257416,
          "name": "A4",
          "midi": 69,
          "duration": 0.362601,
          "velocity": 0.88189
        },
        {
          "time": 377.257416,
          "name": "A3",
          "midi": 57,
          "duration": 0.362601,
          "velocity": 0.96063
        },
        {
          "time": 377.257416,
          "name": "E4",
          "midi": 64,
          "duration": 0.362601,
          "velocity": 0.96063
        },
        {
          "time": 377.373269,
          "name": "G#4",
          "midi": 68,
          "duration": 0.121951,
          "velocity": 0.88189
        },
        {
          "time": 377.49522,
          "name": "F#4",
          "midi": 66,
          "duration": 0.119241,
          "velocity": 0.88189
        },
        {
          "time": 377.614462,
          "name": "E4",
          "midi": 64,
          "duration": 0.333333,
          "velocity": 0.88189
        },
        {
          "time": 377.936684,
          "name": "E4",
          "midi": 64,
          "duration": 0.33496,
          "velocity": 0.88189
        },
        {
          "time": 377.936684,
          "name": "A4",
          "midi": 69,
          "duration": 0.33496,
          "velocity": 0.88189
        },
        {
          "time": 377.953351,
          "name": "A3",
          "midi": 57,
          "duration": 0.336586,
          "velocity": 0.88189
        },
        {
          "time": 377.953351,
          "name": "A4",
          "midi": 69,
          "duration": 0.336586,
          "velocity": 0.88189
        },
        {
          "time": 377.953351,
          "name": "A3",
          "midi": 57,
          "duration": 0.336586,
          "velocity": 0.96063
        },
        {
          "time": 377.953351,
          "name": "E4",
          "midi": 64,
          "duration": 0.336586,
          "velocity": 0.96063
        },
        {
          "time": 378.637497,
          "name": "D4",
          "midi": 62,
          "duration": 0.364227,
          "velocity": 0.88189
        },
        {
          "time": 378.637497,
          "name": "B4",
          "midi": 71,
          "duration": 0.364227,
          "velocity": 0.88189
        },
        {
          "time": 378.649692,
          "name": "F#4",
          "midi": 66,
          "duration": 0.121951,
          "velocity": 0.88189
        },
        {
          "time": 378.65579,
          "name": "D4",
          "midi": 62,
          "duration": 0.362601,
          "velocity": 0.88189
        },
        {
          "time": 378.65579,
          "name": "B4",
          "midi": 71,
          "duration": 0.362601,
          "velocity": 0.88189
        },
        {
          "time": 378.65579,
          "name": "B3",
          "midi": 59,
          "duration": 0.362601,
          "velocity": 0.96063
        },
        {
          "time": 378.65579,
          "name": "E4",
          "midi": 64,
          "duration": 0.362601,
          "velocity": 0.96063
        },
        {
          "time": 378.771643,
          "name": "G#4",
          "midi": 68,
          "duration": 0.121951,
          "velocity": 0.88189
        },
        {
          "time": 378.893594,
          "name": "F#4",
          "midi": 66,
          "duration": 0.119241,
          "velocity": 0.88189
        },
        {
          "time": 379.012836,
          "name": "E4",
          "midi": 64,
          "duration": 0.333333,
          "velocity": 0.88189
        },
        {
          "time": 379.335058,
          "name": "B3",
          "midi": 59,
          "duration": 0.33496,
          "velocity": 0.88189
        },
        {
          "time": 379.335058,
          "name": "E4",
          "midi": 64,
          "duration": 0.33496,
          "velocity": 0.88189
        },
        {
          "time": 379.351725,
          "name": "B3",
          "midi": 59,
          "duration": 0.336586,
          "velocity": 0.88189
        },
        {
          "time": 379.351725,
          "name": "E4",
          "midi": 64,
          "duration": 0.336586,
          "velocity": 0.88189
        },
        {
          "time": 379.351725,
          "name": "E3",
          "midi": 52,
          "duration": 0.336586,
          "velocity": 0.96063
        },
        {
          "time": 379.351725,
          "name": "D4",
          "midi": 62,
          "duration": 0.336586,
          "velocity": 0.96063
        },
        {
          "time": 380.037186,
          "name": "E3",
          "midi": 52,
          "duration": 0.393826,
          "velocity": 0.88189
        },
        {
          "time": 380.037186,
          "name": "E4",
          "midi": 64,
          "duration": 0.393826,
          "velocity": 0.88189
        },
        {
          "time": 380.050258,
          "name": "B4",
          "midi": 71,
          "duration": 0.394938,
          "velocity": 0.88189
        },
        {
          "time": 380.050258,
          "name": "D4",
          "midi": 62,
          "duration": 0.394938,
          "velocity": 0.88189
        },
        {
          "time": 380.056794,
          "name": "E3",
          "midi": 52,
          "duration": 0.395494,
          "velocity": 0.88189
        },
        {
          "time": 380.056794,
          "name": "E4",
          "midi": 64,
          "duration": 0.395494,
          "velocity": 0.88189
        },
        {
          "time": 380.056794,
          "name": "B3",
          "midi": 59,
          "duration": 0.395494,
          "velocity": 0.96063
        },
        {
          "time": 380.056794,
          "name": "D4",
          "midi": 62,
          "duration": 0.395494,
          "velocity": 0.96063
        },
        {
          "time": 380.431012,
          "name": "E3",
          "midi": 52,
          "duration": 0.425532,
          "velocity": 0.88189
        },
        {
          "time": 380.431012,
          "name": "E4",
          "midi": 64,
          "duration": 0.425532,
          "velocity": 0.88189
        },
        {
          "time": 380.445196,
          "name": "A4",
          "midi": 69,
          "duration": 0.425532,
          "velocity": 0.88189
        },
        {
          "time": 380.445196,
          "name": "C#4",
          "midi": 61,
          "duration": 0.425532,
          "velocity": 0.88189
        },
        {
          "time": 380.452288,
          "name": "E3",
          "midi": 52,
          "duration": 0.425532,
          "velocity": 0.88189
        },
        {
          "time": 380.452288,
          "name": "E4",
          "midi": 64,
          "duration": 0.425532,
          "velocity": 0.88189
        },
        {
          "time": 380.452288,
          "name": "A3",
          "midi": 57,
          "duration": 0.425532,
          "velocity": 0.96063
        },
        {
          "time": 380.452288,
          "name": "C#4",
          "midi": 61,
          "duration": 0.425532,
          "velocity": 0.96063
        },
        {
          "time": 381.2837,
          "name": "A3",
          "midi": 57,
          "duration": 0.454723,
          "velocity": 0.88189
        },
        {
          "time": 381.2837,
          "name": "F#4",
          "midi": 66,
          "duration": 0.454723,
          "velocity": 0.88189
        },
        {
          "time": 381.298967,
          "name": "C#3",
          "midi": 49,
          "duration": 0.452527,
          "velocity": 0.88189
        },
        {
          "time": 381.306601,
          "name": "F#3",
          "midi": 54,
          "duration": 0.45143,
          "velocity": 0.88189
        },
        {
          "time": 381.306601,
          "name": "C#4",
          "midi": 61,
          "duration": 0.45143,
          "velocity": 0.88189
        },
        {
          "time": 381.751494,
          "name": "A3",
          "midi": 57,
          "duration": 0.389965,
          "velocity": 0.88189
        },
        {
          "time": 382.14146,
          "name": "C#4",
          "midi": 61,
          "duration": 0.365854,
          "velocity": 0.88189
        },
        {
          "time": 382.507313,
          "name": "F#4",
          "midi": 66,
          "duration": 0.367833,
          "velocity": 0.88189
        },
        {
          "time": 382.862159,
          "name": "B3",
          "midi": 59,
          "duration": 0.389611,
          "velocity": 0.88189
        },
        {
          "time": 382.862159,
          "name": "F4",
          "midi": 65,
          "duration": 0.389611,
          "velocity": 0.88189
        },
        {
          "time": 382.875146,
          "name": "C#3",
          "midi": 49,
          "duration": 0.389611,
          "velocity": 0.88189
        },
        {
          "time": 382.88164,
          "name": "G#3",
          "midi": 56,
          "duration": 0.389611,
          "velocity": 0.88189
        },
        {
          "time": 382.88164,
          "name": "C#4",
          "midi": 61,
          "duration": 0.389611,
          "velocity": 0.88189
        },
        {
          "time": 383.264757,
          "name": "G#3",
          "midi": 56,
          "duration": 0.387631,
          "velocity": 0.88189
        },
        {
          "time": 383.652388,
          "name": "C#4",
          "midi": 61,
          "duration": 0.365854,
          "velocity": 0.88189
        },
        {
          "time": 384.018241,
          "name": "F4",
          "midi": 65,
          "duration": 0.367833,
          "velocity": 0.88189
        },
        {
          "time": 384.373087,
          "name": "A3",
          "midi": 57,
          "duration": 0.389611,
          "velocity": 0.88189
        },
        {
          "time": 384.373087,
          "name": "F#4",
          "midi": 66,
          "duration": 0.389611,
          "velocity": 0.88189
        },
        {
          "time": 384.386074,
          "name": "C#4",
          "midi": 61,
          "duration": 0.389611,
          "velocity": 0.88189
        },
        {
          "time": 384.392568,
          "name": "F#3",
          "midi": 54,
          "duration": 0.389611,
          "velocity": 0.88189
        },
        {
          "time": 384.392568,
          "name": "C#4",
          "midi": 61,
          "duration": 0.389611,
          "velocity": 0.88189
        },
        {
          "time": 385.884015,
          "name": "B3",
          "midi": 59,
          "duration": 0.389611,
          "velocity": 0.88189
        },
        {
          "time": 385.884015,
          "name": "F4",
          "midi": 65,
          "duration": 0.389611,
          "velocity": 0.88189
        },
        {
          "time": 385.897002,
          "name": "C#3",
          "midi": 49,
          "duration": 0.389611,
          "velocity": 0.88189
        },
        {
          "time": 385.903496,
          "name": "G#3",
          "midi": 56,
          "duration": 0.389611,
          "velocity": 0.88189
        },
        {
          "time": 385.903496,
          "name": "C#4",
          "midi": 61,
          "duration": 0.389611,
          "velocity": 0.88189
        },
        {
          "time": 386.286613,
          "name": "C#4",
          "midi": 61,
          "duration": 0.387631,
          "velocity": 0.88189
        },
        {
          "time": 386.662048,
          "name": "B3",
          "midi": 59,
          "duration": 0.365854,
          "velocity": 0.88189
        },
        {
          "time": 386.662048,
          "name": "F4",
          "midi": 65,
          "duration": 0.365854,
          "velocity": 0.88189
        },
        {
          "time": 386.674244,
          "name": "C#3",
          "midi": 49,
          "duration": 0.365854,
          "velocity": 0.88189
        },
        {
          "time": 386.680341,
          "name": "G#3",
          "midi": 56,
          "duration": 0.365854,
          "velocity": 0.88189
        },
        {
          "time": 386.680341,
          "name": "C#4",
          "midi": 61,
          "duration": 0.365854,
          "velocity": 0.88189
        },
        {
          "time": 387.040097,
          "name": "C#4",
          "midi": 61,
          "duration": 0.367833,
          "velocity": 0.88189
        },
        {
          "time": 387.394943,
          "name": "A3",
          "midi": 57,
          "duration": 0.389611,
          "velocity": 0.88189
        },
        {
          "time": 387.394943,
          "name": "F#4",
          "midi": 66,
          "duration": 0.389611,
          "velocity": 0.88189
        },
        {
          "time": 387.40793,
          "name": "C#3",
          "midi": 49,
          "duration": 0.389611,
          "velocity": 0.88189
        },
        {
          "time": 387.414424,
          "name": "F#3",
          "midi": 54,
          "duration": 0.389611,
          "velocity": 0.88189
        },
        {
          "time": 387.414424,
          "name": "C#4",
          "midi": 61,
          "duration": 0.389611,
          "velocity": 0.88189
        },
        {
          "time": 387.797541,
          "name": "A3",
          "midi": 57,
          "duration": 0.387631,
          "velocity": 0.88189
        },
        {
          "time": 388.185172,
          "name": "C#4",
          "midi": 61,
          "duration": 0.365854,
          "velocity": 0.88189
        },
        {
          "time": 388.551025,
          "name": "F#4",
          "midi": 66,
          "duration": 0.367833,
          "velocity": 0.88189
        },
        {
          "time": 388.905871,
          "name": "B3",
          "midi": 59,
          "duration": 0.389611,
          "velocity": 0.88189
        },
        {
          "time": 388.905871,
          "name": "F4",
          "midi": 65,
          "duration": 0.389611,
          "velocity": 0.88189
        },
        {
          "time": 388.918858,
          "name": "C#3",
          "midi": 49,
          "duration": 0.389611,
          "velocity": 0.88189
        },
        {
          "time": 388.925352,
          "name": "G#3",
          "midi": 56,
          "duration": 0.389611,
          "velocity": 0.88189
        },
        {
          "time": 388.925352,
          "name": "C#4",
          "midi": 61,
          "duration": 0.389611,
          "velocity": 0.88189
        },
        {
          "time": 389.308469,
          "name": "G#3",
          "midi": 56,
          "duration": 0.387631,
          "velocity": 0.88189
        },
        {
          "time": 389.6961,
          "name": "C#4",
          "midi": 61,
          "duration": 0.365854,
          "velocity": 0.88189
        },
        {
          "time": 390.061953,
          "name": "F4",
          "midi": 65,
          "duration": 0.367833,
          "velocity": 0.88189
        },
        {
          "time": 390.416799,
          "name": "A3",
          "midi": 57,
          "duration": 0.389611,
          "velocity": 0.88189
        },
        {
          "time": 390.416799,
          "name": "F#4",
          "midi": 66,
          "duration": 0.389611,
          "velocity": 0.88189
        },
        {
          "time": 390.429786,
          "name": "C#4",
          "midi": 61,
          "duration": 0.389611,
          "velocity": 0.88189
        },
        {
          "time": 390.43628,
          "name": "F#3",
          "midi": 54,
          "duration": 0.389611,
          "velocity": 0.88189
        },
        {
          "time": 390.43628,
          "name": "C#4",
          "midi": 61,
          "duration": 0.389611,
          "velocity": 0.88189
        },
        {
          "time": 391.927727,
          "name": "B3",
          "midi": 59,
          "duration": 0.391559,
          "velocity": 0.88189
        },
        {
          "time": 391.927727,
          "name": "F4",
          "midi": 65,
          "duration": 0.391559,
          "velocity": 0.88189
        },
        {
          "time": 391.940714,
          "name": "C#3",
          "midi": 49,
          "duration": 0.392857,
          "velocity": 0.88189
        },
        {
          "time": 391.947208,
          "name": "G#3",
          "midi": 56,
          "duration": 0.393507,
          "velocity": 0.88189
        },
        {
          "time": 391.947208,
          "name": "C#4",
          "midi": 61,
          "duration": 0.393507,
          "velocity": 0.88189
        },
        {
          "time": 392.333572,
          "name": "C#4",
          "midi": 61,
          "duration": 0.423345,
          "velocity": 0.88189
        },
        {
          "time": 392.744721,
          "name": "A3",
          "midi": 57,
          "duration": 0.365854,
          "velocity": 0.88189
        },
        {
          "time": 392.744721,
          "name": "F#4",
          "midi": 66,
          "duration": 0.365854,
          "velocity": 0.88189
        },
        {
          "time": 392.756917,
          "name": "F#4",
          "midi": 66,
          "duration": 0.365854,
          "velocity": 0.88189
        },
        {
          "time": 392.763014,
          "name": "C#3",
          "midi": 49,
          "duration": 0.365854,
          "velocity": 0.88189
        },
        {
          "time": 392.763014,
          "name": "C#4",
          "midi": 61,
          "duration": 0.365854,
          "velocity": 0.88189
        },
        {
          "time": 393.479564,
          "name": "A3",
          "midi": 57,
          "duration": 0.426374,
          "velocity": 0.88189
        },
        {
          "time": 393.479564,
          "name": "F#4",
          "midi": 66,
          "duration": 0.426374,
          "velocity": 0.88189
        },
        {
          "time": 393.49385,
          "name": "C#3",
          "midi": 49,
          "duration": 0.424908,
          "velocity": 0.88189
        },
        {
          "time": 393.500993,
          "name": "F#3",
          "midi": 54,
          "duration": 0.424176,
          "velocity": 0.88189
        },
        {
          "time": 393.500993,
          "name": "C#4",
          "midi": 61,
          "duration": 0.424176,
          "velocity": 0.88189
        },
        {
          "time": 393.918759,
          "name": "A3",
          "midi": 57,
          "duration": 0.383052,
          "velocity": 0.88189
        },
        {
          "time": 394.301811,
          "name": "C#4",
          "midi": 61,
          "duration": 0.365854,
          "velocity": 0.88189
        },
        {
          "time": 394.667664,
          "name": "F#4",
          "midi": 66,
          "duration": 0.367833,
          "velocity": 0.88189
        },
        {
          "time": 395.02251,
          "name": "B3",
          "midi": 59,
          "duration": 0.389611,
          "velocity": 0.88189
        },
        {
          "time": 395.02251,
          "name": "F4",
          "midi": 65,
          "duration": 0.389611,
          "velocity": 0.88189
        },
        {
          "time": 395.035497,
          "name": "C#3",
          "midi": 49,
          "duration": 0.389611,
          "velocity": 0.88189
        },
        {
          "time": 395.041991,
          "name": "G#3",
          "midi": 56,
          "duration": 0.389611,
          "velocity": 0.88189
        },
        {
          "time": 395.041991,
          "name": "C#4",
          "midi": 61,
          "duration": 0.389611,
          "velocity": 0.88189
        },
        {
          "time": 395.425108,
          "name": "G#3",
          "midi": 56,
          "duration": 0.387631,
          "velocity": 0.88189
        },
        {
          "time": 395.812739,
          "name": "C#4",
          "midi": 61,
          "duration": 0.365854,
          "velocity": 0.88189
        },
        {
          "time": 396.178592,
          "name": "F4",
          "midi": 65,
          "duration": 0.367833,
          "velocity": 0.88189
        },
        {
          "time": 396.533438,
          "name": "A3",
          "midi": 57,
          "duration": 0.389611,
          "velocity": 0.88189
        },
        {
          "time": 396.533438,
          "name": "F#4",
          "midi": 66,
          "duration": 0.389611,
          "velocity": 0.88189
        },
        {
          "time": 396.546425,
          "name": "C#4",
          "midi": 61,
          "duration": 0.389611,
          "velocity": 0.88189
        },
        {
          "time": 396.552919,
          "name": "F#3",
          "midi": 54,
          "duration": 0.389611,
          "velocity": 0.88189
        },
        {
          "time": 396.552919,
          "name": "C#4",
          "midi": 61,
          "duration": 0.389611,
          "velocity": 0.88189
        },
        {
          "time": 398.044366,
          "name": "B3",
          "midi": 59,
          "duration": 0.389611,
          "velocity": 0.88189
        },
        {
          "time": 398.044366,
          "name": "F4",
          "midi": 65,
          "duration": 0.389611,
          "velocity": 0.88189
        },
        {
          "time": 398.057353,
          "name": "C#3",
          "midi": 49,
          "duration": 0.389611,
          "velocity": 0.88189
        },
        {
          "time": 398.063847,
          "name": "G#3",
          "midi": 56,
          "duration": 0.389611,
          "velocity": 0.88189
        },
        {
          "time": 398.063847,
          "name": "C#4",
          "midi": 61,
          "duration": 0.389611,
          "velocity": 0.88189
        },
        {
          "time": 398.446964,
          "name": "C#4",
          "midi": 61,
          "duration": 0.387631,
          "velocity": 0.88189
        },
        {
          "time": 398.822399,
          "name": "B3",
          "midi": 59,
          "duration": 0.365854,
          "velocity": 0.88189
        },
        {
          "time": 398.822399,
          "name": "F4",
          "midi": 65,
          "duration": 0.365854,
          "velocity": 0.88189
        },
        {
          "time": 398.834595,
          "name": "C#3",
          "midi": 49,
          "duration": 0.365854,
          "velocity": 0.88189
        },
        {
          "time": 398.840692,
          "name": "G#3",
          "midi": 56,
          "duration": 0.365854,
          "velocity": 0.88189
        },
        {
          "time": 398.840692,
          "name": "C#4",
          "midi": 61,
          "duration": 0.365854,
          "velocity": 0.88189
        },
        {
          "time": 399.200448,
          "name": "C#4",
          "midi": 61,
          "duration": 0.367833,
          "velocity": 0.88189
        },
        {
          "time": 399.555294,
          "name": "A3",
          "midi": 57,
          "duration": 0.389611,
          "velocity": 0.88189
        },
        {
          "time": 399.555294,
          "name": "F#4",
          "midi": 66,
          "duration": 0.389611,
          "velocity": 0.88189
        },
        {
          "time": 399.568281,
          "name": "C#3",
          "midi": 49,
          "duration": 0.389611,
          "velocity": 0.88189
        },
        {
          "time": 399.574775,
          "name": "F#3",
          "midi": 54,
          "duration": 0.389611,
          "velocity": 0.88189
        },
        {
          "time": 399.574775,
          "name": "C#4",
          "midi": 61,
          "duration": 0.389611,
          "velocity": 0.88189
        },
        {
          "time": 399.957892,
          "name": "A3",
          "midi": 57,
          "duration": 0.387631,
          "velocity": 0.88189
        },
        {
          "time": 400.345523,
          "name": "C#4",
          "midi": 61,
          "duration": 0.365854,
          "velocity": 0.88189
        },
        {
          "time": 400.711376,
          "name": "F#4",
          "midi": 66,
          "duration": 0.367833,
          "velocity": 0.88189
        },
        {
          "time": 401.066222,
          "name": "B3",
          "midi": 59,
          "duration": 0.389611,
          "velocity": 0.88189
        },
        {
          "time": 401.066222,
          "name": "F4",
          "midi": 65,
          "duration": 0.389611,
          "velocity": 0.88189
        },
        {
          "time": 401.079209,
          "name": "C#3",
          "midi": 49,
          "duration": 0.389611,
          "velocity": 0.88189
        },
        {
          "time": 401.085703,
          "name": "G#3",
          "midi": 56,
          "duration": 0.389611,
          "velocity": 0.88189
        },
        {
          "time": 401.085703,
          "name": "C#4",
          "midi": 61,
          "duration": 0.389611,
          "velocity": 0.88189
        },
        {
          "time": 401.46882,
          "name": "G#3",
          "midi": 56,
          "duration": 0.387631,
          "velocity": 0.88189
        },
        {
          "time": 401.856451,
          "name": "C#4",
          "midi": 61,
          "duration": 0.365854,
          "velocity": 0.88189
        },
        {
          "time": 402.222304,
          "name": "F4",
          "midi": 65,
          "duration": 0.367833,
          "velocity": 0.88189
        },
        {
          "time": 402.57715,
          "name": "A3",
          "midi": 57,
          "duration": 0.389611,
          "velocity": 0.88189
        },
        {
          "time": 402.57715,
          "name": "F#4",
          "midi": 66,
          "duration": 0.389611,
          "velocity": 0.88189
        },
        {
          "time": 402.590137,
          "name": "C#4",
          "midi": 61,
          "duration": 0.389611,
          "velocity": 0.88189
        },
        {
          "time": 402.596631,
          "name": "F#3",
          "midi": 54,
          "duration": 0.389611,
          "velocity": 0.88189
        },
        {
          "time": 402.596631,
          "name": "C#4",
          "midi": 61,
          "duration": 0.389611,
          "velocity": 0.88189
        },
        {
          "time": 404.088078,
          "name": "B3",
          "midi": 59,
          "duration": 0.391559,
          "velocity": 0.88189
        },
        {
          "time": 404.088078,
          "name": "F4",
          "midi": 65,
          "duration": 0.391559,
          "velocity": 0.88189
        },
        {
          "time": 404.101065,
          "name": "C#3",
          "midi": 49,
          "duration": 0.392857,
          "velocity": 0.88189
        },
        {
          "time": 404.107559,
          "name": "G#3",
          "midi": 56,
          "duration": 0.393507,
          "velocity": 0.88189
        },
        {
          "time": 404.107559,
          "name": "C#4",
          "midi": 61,
          "duration": 0.393507,
          "velocity": 0.88189
        },
        {
          "time": 404.493923,
          "name": "C#4",
          "midi": 61,
          "duration": 0.442857,
          "velocity": 0.88189
        },
        {
          "time": 404.91678,
          "name": "A3",
          "midi": 57,
          "duration": 0.596316,
          "velocity": 0.88189
        },
        {
          "time": 404.91678,
          "name": "F#4",
          "midi": 66,
          "duration": 0.596316,
          "velocity": 0.88189
        },
        {
          "time": 404.93678,
          "name": "F#4",
          "midi": 66,
          "duration": 0.59386,
          "velocity": 0.88189
        },
        {
          "time": 404.94678,
          "name": "C#3",
          "midi": 49,
          "duration": 0.592632,
          "velocity": 0.88189
        },
        {
          "time": 404.94678,
          "name": "C#4",
          "midi": 61,
          "duration": 0.592632,
          "velocity": 0.88189
        },
        {
          "time": 406.477382,
          "name": "G#3",
          "midi": 56,
          "duration": 0.422443,
          "velocity": 0.88189
        },
        {
          "time": 407.254854,
          "name": "G#3",
          "midi": 56,
          "duration": 0.355931,
          "velocity": 0.88189
        },
        {
          "time": 407.976639,
          "name": "A3",
          "midi": 57,
          "duration": 0.363143,
          "velocity": 0.88189
        },
        {
          "time": 408.673116,
          "name": "E3",
          "midi": 52,
          "duration": 0.336044,
          "velocity": 0.88189
        },
        {
          "time": 409.375013,
          "name": "B3",
          "midi": 59,
          "duration": 0.363143,
          "velocity": 0.88189
        },
        {
          "time": 410.07149,
          "name": "B3",
          "midi": 59,
          "duration": 0.336044,
          "velocity": 0.88189
        },
        {
          "time": 410.773387,
          "name": "A3",
          "midi": 57,
          "duration": 0.372679,
          "velocity": 0.88189
        },
        {
          "time": 411.5861,
          "name": "A3",
          "midi": 57,
          "duration": 0.355931,
          "velocity": 0.88189
        },
        {
          "time": 412.307885,
          "name": "A3",
          "midi": 57,
          "duration": 0.363143,
          "velocity": 0.88189
        },
        {
          "time": 413.004362,
          "name": "B3",
          "midi": 59,
          "duration": 0.336044,
          "velocity": 0.88189
        },
        {
          "time": 413.706259,
          "name": "A3",
          "midi": 57,
          "duration": 0.363143,
          "velocity": 0.88189
        },
        {
          "time": 414.402736,
          "name": "A3",
          "midi": 57,
          "duration": 0.336044,
          "velocity": 0.88189
        },
        {
          "time": 415.104633,
          "name": "D4",
          "midi": 62,
          "duration": 0.363143,
          "velocity": 0.88189
        },
        {
          "time": 415.80111,
          "name": "D4",
          "midi": 62,
          "duration": 0.33934,
          "velocity": 0.88189
        },
        {
          "time": 416.140449,
          "name": "C#4",
          "midi": 61,
          "duration": 0.403469,
          "velocity": 0.88189
        },
        {
          "time": 418.001259,
          "name": "F#4",
          "midi": 66,
          "duration": 0.363143,
          "velocity": 0.88189
        },
        {
          "time": 418.697736,
          "name": "G#4",
          "midi": 68,
          "duration": 0.336044,
          "velocity": 0.88189
        },
        {
          "time": 419.399633,
          "name": "A4",
          "midi": 69,
          "duration": 0.363143,
          "velocity": 0.88189
        },
        {
          "time": 420.09611,
          "name": "E4",
          "midi": 64,
          "duration": 0.336044,
          "velocity": 0.88189
        },
        {
          "time": 420.798007,
          "name": "E4",
          "midi": 64,
          "duration": 0.363143,
          "velocity": 0.88189
        },
        {
          "time": 421.494484,
          "name": "D4",
          "midi": 62,
          "duration": 0.336044,
          "velocity": 0.88189
        },
        {
          "time": 422.196381,
          "name": "C#4",
          "midi": 61,
          "duration": 0.372679,
          "velocity": 0.88189
        },
        {
          "time": 423.009269,
          "name": "E4",
          "midi": 64,
          "duration": 0.357869,
          "velocity": 0.88189
        },
        {
          "time": 423.732992,
          "name": "F#4",
          "midi": 66,
          "duration": 0.363143,
          "velocity": 0.88189
        },
        {
          "time": 424.429469,
          "name": "G#4",
          "midi": 68,
          "duration": 0.336044,
          "velocity": 0.88189
        },
        {
          "time": 425.131366,
          "name": "A4",
          "midi": 69,
          "duration": 0.361961,
          "velocity": 0.88189
        },
        {
          "time": 425.812476,
          "name": "E4",
          "midi": 64,
          "duration": 0.321455,
          "velocity": 0.88189
        },
        {
          "time": 426.480752,
          "name": "F#4",
          "midi": 66,
          "duration": 0.342919,
          "velocity": 0.88189
        },
        {
          "time": 427.123671,
          "name": "D4",
          "midi": 62,
          "duration": 0.293868,
          "velocity": 0.88189
        },
        {
          "time": 427.417539,
          "name": "C#4",
          "midi": 61,
          "duration": 0.226415,
          "velocity": 0.88189
        },
        {
          "time": 427.866561,
          "name": "A3",
          "midi": 57,
          "duration": 0.36262,
          "velocity": 0.88189
        },
        {
          "time": 428.229181,
          "name": "G#3",
          "midi": 56,
          "duration": 0.388436,
          "velocity": 0.88189
        },
        {
          "time": 428.617617,
          "name": "A3",
          "midi": 57,
          "duration": 0.180723,
          "velocity": 0.88189
        },
        {
          "time": 428.79834,
          "name": "B3",
          "midi": 59,
          "duration": 0.181897,
          "velocity": 0.88189
        },
        {
          "time": 428.980237,
          "name": "E3",
          "midi": 52,
          "duration": 0.388436,
          "velocity": 0.88189
        },
        {
          "time": 429.368673,
          "name": "C#4",
          "midi": 61,
          "duration": 0.36262,
          "velocity": 0.88189
        },
        {
          "time": 429.731293,
          "name": "D4",
          "midi": 62,
          "duration": 0.388436,
          "velocity": 0.88189
        },
        {
          "time": 430.119729,
          "name": "G3",
          "midi": 55,
          "duration": 0.180723,
          "velocity": 0.88189
        },
        {
          "time": 430.300452,
          "name": "G#3",
          "midi": 56,
          "duration": 0.181897,
          "velocity": 0.88189
        },
        {
          "time": 430.482349,
          "name": "A3",
          "midi": 57,
          "duration": 0.388436,
          "velocity": 0.88189
        },
        {
          "time": 430.870785,
          "name": "A4",
          "midi": 69,
          "duration": 0.36262,
          "velocity": 0.88189
        },
        {
          "time": 431.233405,
          "name": "F#4",
          "midi": 66,
          "duration": 0.388436,
          "velocity": 0.88189
        },
        {
          "time": 431.621841,
          "name": "E4",
          "midi": 64,
          "duration": 0.180723,
          "velocity": 0.88189
        },
        {
          "time": 431.802564,
          "name": "D4",
          "midi": 62,
          "duration": 0.181897,
          "velocity": 0.88189
        },
        {
          "time": 431.984461,
          "name": "C#4",
          "midi": 61,
          "duration": 0.388436,
          "velocity": 0.88189
        },
        {
          "time": 432.372897,
          "name": "B3",
          "midi": 59,
          "duration": 0.180723,
          "velocity": 0.88189
        },
        {
          "time": 432.55362,
          "name": "A3",
          "midi": 57,
          "duration": 0.181897,
          "velocity": 0.88189
        },
        {
          "time": 432.735517,
          "name": "E4",
          "midi": 64,
          "duration": 0.194805,
          "velocity": 0.88189
        },
        {
          "time": 432.930322,
          "name": "D4",
          "midi": 62,
          "duration": 0.193631,
          "velocity": 0.88189
        },
        {
          "time": 433.123953,
          "name": "C#4",
          "midi": 61,
          "duration": 0.180723,
          "velocity": 0.88189
        },
        {
          "time": 433.304676,
          "name": "B3",
          "midi": 59,
          "duration": 0.181897,
          "velocity": 0.88189
        },
        {
          "time": 433.486573,
          "name": "A3",
          "midi": 57,
          "duration": 0.194805,
          "velocity": 0.88189
        },
        {
          "time": 433.875009,
          "name": "A3",
          "midi": 57,
          "duration": 0.36262,
          "velocity": 0.88189
        },
        {
          "time": 434.237629,
          "name": "G#3",
          "midi": 56,
          "duration": 0.388436,
          "velocity": 0.88189
        },
        {
          "time": 434.626065,
          "name": "A3",
          "midi": 57,
          "duration": 0.180723,
          "velocity": 0.88189
        },
        {
          "time": 434.806788,
          "name": "B3",
          "midi": 59,
          "duration": 0.181897,
          "velocity": 0.88189
        },
        {
          "time": 434.988685,
          "name": "E3",
          "midi": 52,
          "duration": 0.388436,
          "velocity": 0.88189
        },
        {
          "time": 435.377121,
          "name": "C#4",
          "midi": 61,
          "duration": 0.36262,
          "velocity": 0.88189
        },
        {
          "time": 435.739741,
          "name": "D4",
          "midi": 62,
          "duration": 0.388436,
          "velocity": 0.88189
        },
        {
          "time": 436.128177,
          "name": "G3",
          "midi": 55,
          "duration": 0.180723,
          "velocity": 0.88189
        },
        {
          "time": 436.3089,
          "name": "G#3",
          "midi": 56,
          "duration": 0.181897,
          "velocity": 0.88189
        },
        {
          "time": 436.490797,
          "name": "A3",
          "midi": 57,
          "duration": 0.388436,
          "velocity": 0.88189
        },
        {
          "time": 436.879233,
          "name": "A4",
          "midi": 69,
          "duration": 0.36262,
          "velocity": 0.88189
        },
        {
          "time": 437.241853,
          "name": "F#4",
          "midi": 66,
          "duration": 0.388436,
          "velocity": 0.88189
        },
        {
          "time": 437.630289,
          "name": "E4",
          "midi": 64,
          "duration": 0.180723,
          "velocity": 0.88189
        },
        {
          "time": 437.811012,
          "name": "D4",
          "midi": 62,
          "duration": 0.181897,
          "velocity": 0.88189
        },
        {
          "time": 437.992909,
          "name": "C#4",
          "midi": 61,
          "duration": 0.388436,
          "velocity": 0.88189
        },
        {
          "time": 438.381345,
          "name": "B3",
          "midi": 59,
          "duration": 0.180723,
          "velocity": 0.88189
        },
        {
          "time": 438.562068,
          "name": "A3",
          "midi": 57,
          "duration": 0.181897,
          "velocity": 0.88189
        },
        {
          "time": 438.743965,
          "name": "E4",
          "midi": 64,
          "duration": 0.194805,
          "velocity": 0.88189
        },
        {
          "time": 438.93877,
          "name": "D4",
          "midi": 62,
          "duration": 0.193631,
          "velocity": 0.88189
        },
        {
          "time": 439.132401,
          "name": "C#4",
          "midi": 61,
          "duration": 0.180723,
          "velocity": 0.88189
        },
        {
          "time": 439.313124,
          "name": "B3",
          "midi": 59,
          "duration": 0.181897,
          "velocity": 0.88189
        },
        {
          "time": 439.495021,
          "name": "A3",
          "midi": 57,
          "duration": 0.194805,
          "velocity": 0.88189
        },
        {
          "time": 439.689826,
          "name": "C#4",
          "midi": 61,
          "duration": 0.193631,
          "velocity": 0.88189
        },
        {
          "time": 440.06418,
          "name": "C#4",
          "midi": 61,
          "duration": 0.181897,
          "velocity": 0.88189
        },
        {
          "time": 440.440882,
          "name": "C#4",
          "midi": 61,
          "duration": 0.193631,
          "velocity": 0.88189
        },
        {
          "time": 440.815236,
          "name": "C#4",
          "midi": 61,
          "duration": 0.181897,
          "velocity": 0.88189
        },
        {
          "time": 441.191938,
          "name": "C#4",
          "midi": 61,
          "duration": 0.193631,
          "velocity": 0.88189
        },
        {
          "time": 441.566292,
          "name": "C#4",
          "midi": 61,
          "duration": 0.181897,
          "velocity": 0.88189
        },
        {
          "time": 441.942994,
          "name": "C#4",
          "midi": 61,
          "duration": 0.193631,
          "velocity": 0.88189
        },
        {
          "time": 442.317348,
          "name": "C#4",
          "midi": 61,
          "duration": 0.181897,
          "velocity": 0.88189
        },
        {
          "time": 442.499245,
          "name": "C#4",
          "midi": 61,
          "duration": 0.194805,
          "velocity": 0.88189
        },
        {
          "time": 442.887681,
          "name": "C#4",
          "midi": 61,
          "duration": 0.180723,
          "velocity": 0.88189
        },
        {
          "time": 443.250301,
          "name": "C#4",
          "midi": 61,
          "duration": 0.194805,
          "velocity": 0.88189
        },
        {
          "time": 443.638737,
          "name": "C#4",
          "midi": 61,
          "duration": 0.180723,
          "velocity": 0.88189
        },
        {
          "time": 444.001357,
          "name": "C#4",
          "midi": 61,
          "duration": 0.194805,
          "velocity": 0.88189
        },
        {
          "time": 444.389793,
          "name": "C#4",
          "midi": 61,
          "duration": 0.180723,
          "velocity": 0.88189
        },
        {
          "time": 444.752413,
          "name": "C#4",
          "midi": 61,
          "duration": 0.194805,
          "velocity": 0.88189
        },
        {
          "time": 445.140849,
          "name": "C#4",
          "midi": 61,
          "duration": 0.180723,
          "velocity": 0.88189
        },
        {
          "time": 445.502295,
          "name": "C#4",
          "midi": 61,
          "duration": 0.180723,
          "velocity": 0.88189
        },
        {
          "time": 445.857717,
          "name": "A3",
          "midi": 57,
          "duration": 0.180723,
          "velocity": 0.88189
        },
        {
          "time": 445.857717,
          "name": "A4",
          "midi": 69,
          "duration": 0.180723,
          "velocity": 0.88189
        },
        {
          "time": 445.866754,
          "name": "A3",
          "midi": 57,
          "duration": 0.180723,
          "velocity": 0.88189
        },
        {
          "time": 445.866754,
          "name": "A4",
          "midi": 69,
          "duration": 0.180723,
          "velocity": 0.88189
        },
        {
          "time": 445.866754,
          "name": "C#4",
          "midi": 61,
          "duration": 0.180723,
          "velocity": 0.96063
        },
        {
          "time": 445.866754,
          "name": "E4",
          "midi": 64,
          "duration": 0.180723,
          "velocity": 0.96063
        },
        {
          "time": 446.225187,
          "name": "E4",
          "midi": 64,
          "duration": 0.180723,
          "velocity": 0.88189
        },
        {
          "time": 446.225187,
          "name": "A4",
          "midi": 69,
          "duration": 0.180723,
          "velocity": 0.88189
        },
        {
          "time": 446.225187,
          "name": "C#4",
          "midi": 61,
          "duration": 0.180723,
          "velocity": 0.88189
        },
        {
          "time": 449.28366,
          "name": "F3",
          "midi": 53,
          "duration": 0.346154,
          "velocity": 0.88189
        },
        {
          "time": 449.666617,
          "name": "F3",
          "midi": 53,
          "duration": 0.310345,
          "velocity": 0.88189
        },
        {
          "time": 450.397718,
          "name": "F3",
          "midi": 53,
          "duration": 0.346154,
          "velocity": 0.88189
        },
        {
          "time": 450.780675,
          "name": "F3",
          "midi": 53,
          "duration": 0.310345,
          "velocity": 0.88189
        },
        {
          "time": 451.511776,
          "name": "F3",
          "midi": 53,
          "duration": 0.346154,
          "velocity": 0.88189
        },
        {
          "time": 451.894733,
          "name": "F3",
          "midi": 53,
          "duration": 0.310345,
          "velocity": 0.88189
        },
        {
          "time": 452.625834,
          "name": "F3",
          "midi": 53,
          "duration": 0.346154,
          "velocity": 0.88189
        },
        {
          "time": 453.008791,
          "name": "F3",
          "midi": 53,
          "duration": 0.310345,
          "velocity": 0.88189
        },
        {
          "time": 453.739892,
          "name": "F3",
          "midi": 53,
          "duration": 0.346154,
          "velocity": 0.88189
        },
        {
          "time": 454.122849,
          "name": "F3",
          "midi": 53,
          "duration": 0.310345,
          "velocity": 0.88189
        },
        {
          "time": 454.85395,
          "name": "D3",
          "midi": 50,
          "duration": 0.346154,
          "velocity": 0.88189
        },
        {
          "time": 455.236907,
          "name": "D3",
          "midi": 50,
          "duration": 0.310345,
          "velocity": 0.88189
        },
        {
          "time": 455.968008,
          "name": "D4",
          "midi": 62,
          "duration": 0.346154,
          "velocity": 0.88189
        },
        {
          "time": 455.968008,
          "name": "B3",
          "midi": 59,
          "duration": 0.346154,
          "velocity": 0.88189
        },
        {
          "time": 456.350965,
          "name": "B3",
          "midi": 59,
          "duration": 0.310345,
          "velocity": 0.88189
        },
        {
          "time": 456.350965,
          "name": "D4",
          "midi": 62,
          "duration": 0.310345,
          "velocity": 0.88189
        },
        {
          "time": 457.082066,
          "name": "D4",
          "midi": 62,
          "duration": 0.346154,
          "velocity": 0.88189
        },
        {
          "time": 457.082066,
          "name": "G3",
          "midi": 55,
          "duration": 0.346154,
          "velocity": 0.88189
        },
        {
          "time": 457.465023,
          "name": "D4",
          "midi": 62,
          "duration": 0.310345,
          "velocity": 0.88189
        },
        {
          "time": 457.465023,
          "name": "G3",
          "midi": 55,
          "duration": 0.310345,
          "velocity": 0.88189
        },
        {
          "time": 458.196124,
          "name": "G3",
          "midi": 55,
          "duration": 0.346154,
          "velocity": 0.88189
        },
        {
          "time": 458.579081,
          "name": "D#3",
          "midi": 51,
          "duration": 0.310345,
          "velocity": 0.88189
        },
        {
          "time": 460.42424,
          "name": "G3",
          "midi": 55,
          "duration": 0.346154,
          "velocity": 0.88189
        },
        {
          "time": 460.807197,
          "name": "G3",
          "midi": 55,
          "duration": 0.310345,
          "velocity": 0.88189
        },
        {
          "time": 461.538298,
          "name": "G3",
          "midi": 55,
          "duration": 0.346154,
          "velocity": 0.88189
        },
        {
          "time": 461.921255,
          "name": "G3",
          "midi": 55,
          "duration": 0.310345,
          "velocity": 0.88189
        },
        {
          "time": 462.652356,
          "name": "F3",
          "midi": 53,
          "duration": 0.346154,
          "velocity": 0.88189
        },
        {
          "time": 463.035313,
          "name": "F3",
          "midi": 53,
          "duration": 0.310345,
          "velocity": 0.88189
        },
        {
          "time": 463.766414,
          "name": "F3",
          "midi": 53,
          "duration": 0.346154,
          "velocity": 0.88189
        },
        {
          "time": 464.149371,
          "name": "F3",
          "midi": 53,
          "duration": 0.310345,
          "velocity": 0.88189
        },
        {
          "time": 464.880472,
          "name": "F3",
          "midi": 53,
          "duration": 0.346154,
          "velocity": 0.88189
        },
        {
          "time": 465.263429,
          "name": "F3",
          "midi": 53,
          "duration": 0.310345,
          "velocity": 0.88189
        },
        {
          "time": 465.99453,
          "name": "F3",
          "midi": 53,
          "duration": 0.346154,
          "velocity": 0.88189
        },
        {
          "time": 466.377487,
          "name": "F3",
          "midi": 53,
          "duration": 0.310345,
          "velocity": 0.88189
        },
        {
          "time": 467.108588,
          "name": "F3",
          "midi": 53,
          "duration": 0.346154,
          "velocity": 0.88189
        },
        {
          "time": 467.491545,
          "name": "F3",
          "midi": 53,
          "duration": 0.310345,
          "velocity": 0.88189
        },
        {
          "time": 467.838031,
          "name": "F3",
          "midi": 53,
          "duration": 0.192308,
          "velocity": 0.88189
        },
        {
          "time": 468.222646,
          "name": "F3",
          "midi": 53,
          "duration": 0.192308,
          "velocity": 0.88189
        },
        {
          "time": 468.605603,
          "name": "F3",
          "midi": 53,
          "duration": 0.175903,
          "velocity": 0.88189
        },
        {
          "time": 469.378575,
          "name": "F3",
          "midi": 53,
          "duration": 0.346154,
          "velocity": 0.88189
        },
        {
          "time": 469.761533,
          "name": "F3",
          "midi": 53,
          "duration": 0.310345,
          "velocity": 0.88189
        },
        {
          "time": 470.492633,
          "name": "F3",
          "midi": 53,
          "duration": 0.346154,
          "velocity": 0.88189
        },
        {
          "time": 470.875591,
          "name": "F3",
          "midi": 53,
          "duration": 0.310345,
          "velocity": 0.88189
        },
        {
          "time": 471.606691,
          "name": "F3",
          "midi": 53,
          "duration": 0.346154,
          "velocity": 0.88189
        },
        {
          "time": 471.989649,
          "name": "F3",
          "midi": 53,
          "duration": 0.310345,
          "velocity": 0.88189
        },
        {
          "time": 472.720749,
          "name": "D3",
          "midi": 50,
          "duration": 0.346154,
          "velocity": 0.88189
        },
        {
          "time": 473.103707,
          "name": "D3",
          "midi": 50,
          "duration": 0.310345,
          "velocity": 0.88189
        },
        {
          "time": 473.834807,
          "name": "D4",
          "midi": 62,
          "duration": 0.346154,
          "velocity": 0.88189
        },
        {
          "time": 473.834807,
          "name": "B3",
          "midi": 59,
          "duration": 0.346154,
          "velocity": 0.88189
        },
        {
          "time": 474.217765,
          "name": "B3",
          "midi": 59,
          "duration": 0.310345,
          "velocity": 0.88189
        },
        {
          "time": 474.217765,
          "name": "D4",
          "midi": 62,
          "duration": 0.310345,
          "velocity": 0.88189
        },
        {
          "time": 474.948865,
          "name": "D4",
          "midi": 62,
          "duration": 0.346154,
          "velocity": 0.88189
        },
        {
          "time": 474.948865,
          "name": "G3",
          "midi": 55,
          "duration": 0.346154,
          "velocity": 0.88189
        },
        {
          "time": 475.331823,
          "name": "D4",
          "midi": 62,
          "duration": 0.310345,
          "velocity": 0.88189
        },
        {
          "time": 475.331823,
          "name": "G3",
          "midi": 55,
          "duration": 0.310345,
          "velocity": 0.88189
        },
        {
          "time": 476.062923,
          "name": "G3",
          "midi": 55,
          "duration": 0.346154,
          "velocity": 0.88189
        },
        {
          "time": 476.445881,
          "name": "D#3",
          "midi": 51,
          "duration": 0.310345,
          "velocity": 0.88189
        },
        {
          "time": 478.291039,
          "name": "G3",
          "midi": 55,
          "duration": 0.346154,
          "velocity": 0.88189
        },
        {
          "time": 478.673997,
          "name": "G3",
          "midi": 55,
          "duration": 0.310345,
          "velocity": 0.88189
        },
        {
          "time": 479.405097,
          "name": "G3",
          "midi": 55,
          "duration": 0.346154,
          "velocity": 0.88189
        },
        {
          "time": 479.788055,
          "name": "G3",
          "midi": 55,
          "duration": 0.310345,
          "velocity": 0.88189
        },
        {
          "time": 480.519155,
          "name": "F3",
          "midi": 53,
          "duration": 0.346154,
          "velocity": 0.88189
        },
        {
          "time": 480.902113,
          "name": "F3",
          "midi": 53,
          "duration": 0.310345,
          "velocity": 0.88189
        },
        {
          "time": 481.633213,
          "name": "F3",
          "midi": 53,
          "duration": 0.346154,
          "velocity": 0.88189
        },
        {
          "time": 482.016171,
          "name": "F3",
          "midi": 53,
          "duration": 0.310345,
          "velocity": 0.88189
        },
        {
          "time": 482.747271,
          "name": "A3",
          "midi": 57,
          "duration": 0.346154,
          "velocity": 0.88189
        },
        {
          "time": 483.130229,
          "name": "A3",
          "midi": 57,
          "duration": 0.310345,
          "velocity": 0.88189
        },
        {
          "time": 483.861329,
          "name": "A3",
          "midi": 57,
          "duration": 0.346154,
          "velocity": 0.88189
        },
        {
          "time": 484.244287,
          "name": "A3",
          "midi": 57,
          "duration": 0.310345,
          "velocity": 0.88189
        },
        {
          "time": 484.975387,
          "name": "A3",
          "midi": 57,
          "duration": 0.346154,
          "velocity": 0.88189
        },
        {
          "time": 485.358345,
          "name": "A3",
          "midi": 57,
          "duration": 0.310345,
          "velocity": 0.88189
        },
        {
          "time": 486.089445,
          "name": "A3",
          "midi": 57,
          "duration": 0.346154,
          "velocity": 0.88189
        },
        {
          "time": 486.472403,
          "name": "A3",
          "midi": 57,
          "duration": 0.310345,
          "velocity": 0.88189
        },
        {
          "time": 487.203503,
          "name": "A3",
          "midi": 57,
          "duration": 0.382957,
          "velocity": 0.88189
        },
        {
          "time": 488.317561,
          "name": "G3",
          "midi": 55,
          "duration": 0.346154,
          "velocity": 0.88189
        },
        {
          "time": 488.700519,
          "name": "F3",
          "midi": 53,
          "duration": 0.347332,
          "velocity": 0.88189
        },
        {
          "time": 489.088094,
          "name": "B3",
          "midi": 59,
          "duration": 1.076536,
          "velocity": 0.88189
        },
        {
          "time": 489.088094,
          "name": "G3",
          "midi": 55,
          "duration": 1.076536,
          "velocity": 0.88189
        },
        {
          "time": 490.16463,
          "name": "C4",
          "midi": 60,
          "duration": 1.076536,
          "velocity": 0.88189
        },
        {
          "time": 490.16463,
          "name": "G3",
          "midi": 55,
          "duration": 1.076536,
          "velocity": 0.88189
        },
        {
          "time": 491.241166,
          "name": "D4",
          "midi": 62,
          "duration": 1.076536,
          "velocity": 0.88189
        },
        {
          "time": 491.241166,
          "name": "G3",
          "midi": 55,
          "duration": 1.076536,
          "velocity": 0.88189
        },
        {
          "time": 492.317702,
          "name": "E4",
          "midi": 64,
          "duration": 1.076536,
          "velocity": 0.88189
        },
        {
          "time": 492.317702,
          "name": "G3",
          "midi": 55,
          "duration": 1.076536,
          "velocity": 0.88189
        },
        {
          "time": 493.394238,
          "name": "B3",
          "midi": 59,
          "duration": 1.076536,
          "velocity": 0.88189
        },
        {
          "time": 493.394238,
          "name": "G3",
          "midi": 55,
          "duration": 1.076536,
          "velocity": 0.88189
        },
        {
          "time": 494.470774,
          "name": "C4",
          "midi": 60,
          "duration": 1.076536,
          "velocity": 0.88189
        },
        {
          "time": 494.470774,
          "name": "G3",
          "midi": 55,
          "duration": 1.076536,
          "velocity": 0.88189
        },
        {
          "time": 495.54731,
          "name": "D4",
          "midi": 62,
          "duration": 1.076536,
          "velocity": 0.88189
        },
        {
          "time": 495.54731,
          "name": "G3",
          "midi": 55,
          "duration": 1.076536,
          "velocity": 0.88189
        },
        {
          "time": 496.623846,
          "name": "E4",
          "midi": 64,
          "duration": 1.118408,
          "velocity": 0.88189
        },
        {
          "time": 496.623846,
          "name": "G3",
          "midi": 55,
          "duration": 1.118408,
          "velocity": 0.88189
        },
        {
          "time": 497.742254,
          "name": "B3",
          "midi": 59,
          "duration": 1.076536,
          "velocity": 0.88189
        },
        {
          "time": 497.742254,
          "name": "G3",
          "midi": 55,
          "duration": 1.076536,
          "velocity": 0.88189
        },
        {
          "time": 498.81879,
          "name": "C4",
          "midi": 60,
          "duration": 1.076536,
          "velocity": 0.88189
        },
        {
          "time": 498.81879,
          "name": "G3",
          "midi": 55,
          "duration": 1.076536,
          "velocity": 0.88189
        },
        {
          "time": 499.895326,
          "name": "D4",
          "midi": 62,
          "duration": 1.076536,
          "velocity": 0.88189
        },
        {
          "time": 499.895326,
          "name": "G3",
          "midi": 55,
          "duration": 1.076536,
          "velocity": 0.88189
        },
        {
          "time": 500.971862,
          "name": "E4",
          "midi": 64,
          "duration": 1.076536,
          "velocity": 0.88189
        },
        {
          "time": 500.971862,
          "name": "G3",
          "midi": 55,
          "duration": 1.076536,
          "velocity": 0.88189
        },
        {
          "time": 502.048398,
          "name": "B3",
          "midi": 59,
          "duration": 1.076536,
          "velocity": 0.88189
        },
        {
          "time": 502.048398,
          "name": "G3",
          "midi": 55,
          "duration": 1.076536,
          "velocity": 0.88189
        },
        {
          "time": 503.124934,
          "name": "C4",
          "midi": 60,
          "duration": 1.076536,
          "velocity": 0.88189
        },
        {
          "time": 503.124934,
          "name": "G3",
          "midi": 55,
          "duration": 1.076536,
          "velocity": 0.88189
        },
        {
          "time": 504.20147,
          "name": "D4",
          "midi": 62,
          "duration": 1.076536,
          "velocity": 0.88189
        },
        {
          "time": 504.20147,
          "name": "G3",
          "midi": 55,
          "duration": 1.076536,
          "velocity": 0.88189
        },
        {
          "time": 505.278006,
          "name": "E4",
          "midi": 64,
          "duration": 1.13647,
          "velocity": 0.88189
        },
        {
          "time": 505.278006,
          "name": "G3",
          "midi": 55,
          "duration": 1.13647,
          "velocity": 0.88189
        },
        {
          "time": 506.408378,
          "name": "C4",
          "midi": 60,
          "duration": 1.076536,
          "velocity": 0.88189
        },
        {
          "time": 506.408378,
          "name": "G3",
          "midi": 55,
          "duration": 1.076536,
          "velocity": 0.88189
        },
        {
          "time": 506.414475,
          "name": "C3",
          "midi": 48,
          "duration": 1.076536,
          "velocity": 0.88189
        },
        {
          "time": 506.417524,
          "name": "A#3",
          "midi": 58,
          "duration": 1.076536,
          "velocity": 0.88189
        },
        {
          "time": 507.484914,
          "name": "F3",
          "midi": 53,
          "duration": 1.076536,
          "velocity": 0.88189
        },
        {
          "time": 507.484914,
          "name": "C4",
          "midi": 60,
          "duration": 1.076536,
          "velocity": 0.88189
        },
        {
          "time": 507.491011,
          "name": "C3",
          "midi": 48,
          "duration": 1.076536,
          "velocity": 0.88189
        },
        {
          "time": 507.49406,
          "name": "A3",
          "midi": 57,
          "duration": 1.076536,
          "velocity": 0.88189
        },
        {
          "time": 508.56145,
          "name": "G3",
          "midi": 55,
          "duration": 1.076536,
          "velocity": 0.88189
        },
        {
          "time": 508.56145,
          "name": "C4",
          "midi": 60,
          "duration": 1.076536,
          "velocity": 0.88189
        },
        {
          "time": 508.567547,
          "name": "C3",
          "midi": 48,
          "duration": 1.076536,
          "velocity": 0.88189
        },
        {
          "time": 508.570596,
          "name": "A#3",
          "midi": 58,
          "duration": 1.076536,
          "velocity": 0.88189
        },
        {
          "time": 509.637986,
          "name": "F3",
          "midi": 53,
          "duration": 1.076536,
          "velocity": 0.88189
        },
        {
          "time": 509.637986,
          "name": "C4",
          "midi": 60,
          "duration": 1.076536,
          "velocity": 0.88189
        },
        {
          "time": 509.644083,
          "name": "C3",
          "midi": 48,
          "duration": 1.076536,
          "velocity": 0.88189
        },
        {
          "time": 509.647132,
          "name": "A3",
          "midi": 57,
          "duration": 1.076536,
          "velocity": 0.88189
        },
        {
          "time": 510.714522,
          "name": "G3",
          "midi": 55,
          "duration": 1.076536,
          "velocity": 0.88189
        },
        {
          "time": 510.714522,
          "name": "C4",
          "midi": 60,
          "duration": 1.076536,
          "velocity": 0.88189
        },
        {
          "time": 510.720619,
          "name": "C3",
          "midi": 48,
          "duration": 1.076536,
          "velocity": 0.88189
        },
        {
          "time": 510.723668,
          "name": "A#3",
          "midi": 58,
          "duration": 1.076536,
          "velocity": 0.88189
        },
        {
          "time": 511.791058,
          "name": "F3",
          "midi": 53,
          "duration": 1.076536,
          "velocity": 0.88189
        },
        {
          "time": 511.791058,
          "name": "C4",
          "midi": 60,
          "duration": 1.076536,
          "velocity": 0.88189
        },
        {
          "time": 511.797155,
          "name": "C3",
          "midi": 48,
          "duration": 1.076536,
          "velocity": 0.88189
        },
        {
          "time": 511.800204,
          "name": "A3",
          "midi": 57,
          "duration": 1.076536,
          "velocity": 0.88189
        },
        {
          "time": 512.867594,
          "name": "G3",
          "midi": 55,
          "duration": 1.077005,
          "velocity": 0.88189
        },
        {
          "time": 512.867594,
          "name": "C4",
          "midi": 60,
          "duration": 1.077005,
          "velocity": 0.88189
        },
        {
          "time": 512.873691,
          "name": "C3",
          "midi": 48,
          "duration": 1.077318,
          "velocity": 0.88189
        },
        {
          "time": 512.87674,
          "name": "A#3",
          "midi": 58,
          "duration": 1.077474,
          "velocity": 0.88189
        },
        {
          "time": 513.944599,
          "name": "F3",
          "midi": 53,
          "duration": 0.385,
          "velocity": 0.88189
        },
        {
          "time": 513.944599,
          "name": "C4",
          "midi": 60,
          "duration": 0.385,
          "velocity": 0.88189
        },
        {
          "time": 513.951009,
          "name": "C3",
          "midi": 48,
          "duration": 0.385256,
          "velocity": 0.88189
        },
        {
          "time": 513.954214,
          "name": "A3",
          "midi": 57,
          "duration": 0.385384,
          "velocity": 0.88189
        },
        {
          "time": 515.110624,
          "name": "D4",
          "midi": 62,
          "duration": 0.384615,
          "velocity": 0.88189
        },
        {
          "time": 515.488829,
          "name": "D4",
          "midi": 62,
          "duration": 0.38362,
          "velocity": 0.88189
        },
        {
          "time": 515.488829,
          "name": "F3",
          "midi": 53,
          "duration": 0.38362,
          "velocity": 0.88189
        },
        {
          "time": 515.495239,
          "name": "D4",
          "midi": 62,
          "duration": 0.382957,
          "velocity": 0.88189
        },
        {
          "time": 515.498444,
          "name": "A#3",
          "midi": 58,
          "duration": 0.382626,
          "velocity": 0.88189
        },
        {
          "time": 515.872449,
          "name": "D4",
          "midi": 62,
          "duration": 0.345823,
          "velocity": 0.88189
        },
        {
          "time": 515.872449,
          "name": "F3",
          "midi": 53,
          "duration": 0.345823,
          "velocity": 0.88189
        },
        {
          "time": 515.878196,
          "name": "D4",
          "midi": 62,
          "duration": 0.346486,
          "velocity": 0.88189
        },
        {
          "time": 515.88107,
          "name": "A#3",
          "midi": 58,
          "duration": 0.346817,
          "velocity": 0.88189
        },
        {
          "time": 516.224682,
          "name": "D4",
          "midi": 62,
          "duration": 0.384615,
          "velocity": 0.88189
        },
        {
          "time": 516.602887,
          "name": "D4",
          "midi": 62,
          "duration": 0.38362,
          "velocity": 0.88189
        },
        {
          "time": 516.602887,
          "name": "F3",
          "midi": 53,
          "duration": 0.38362,
          "velocity": 0.88189
        },
        {
          "time": 516.609297,
          "name": "G4",
          "midi": 67,
          "duration": 0.382957,
          "velocity": 0.88189
        },
        {
          "time": 516.612502,
          "name": "A#3",
          "midi": 58,
          "duration": 0.382626,
          "velocity": 0.88189
        },
        {
          "time": 516.986507,
          "name": "D4",
          "midi": 62,
          "duration": 0.345823,
          "velocity": 0.88189
        },
        {
          "time": 516.986507,
          "name": "F3",
          "midi": 53,
          "duration": 0.345823,
          "velocity": 0.88189
        },
        {
          "time": 516.992254,
          "name": "F4",
          "midi": 65,
          "duration": 0.346486,
          "velocity": 0.88189
        },
        {
          "time": 516.995128,
          "name": "A#3",
          "midi": 58,
          "duration": 0.346817,
          "velocity": 0.88189
        },
        {
          "time": 517.33874,
          "name": "C4",
          "midi": 60,
          "duration": 0.673076,
          "velocity": 0.88189
        },
        {
          "time": 517.716945,
          "name": "F4",
          "midi": 65,
          "duration": 0.38362,
          "velocity": 0.88189
        },
        {
          "time": 517.716945,
          "name": "F3",
          "midi": 53,
          "duration": 0.38362,
          "velocity": 0.88189
        },
        {
          "time": 517.72656,
          "name": "F4",
          "midi": 65,
          "duration": 0.382626,
          "velocity": 0.88189
        },
        {
          "time": 517.72656,
          "name": "F3",
          "midi": 53,
          "duration": 0.382626,
          "velocity": 0.88189
        },
        {
          "time": 518.011816,
          "name": "B3",
          "midi": 59,
          "duration": 0.094496,
          "velocity": 0.88189
        },
        {
          "time": 518.100565,
          "name": "F4",
          "midi": 65,
          "duration": 0.345823,
          "velocity": 0.88189
        },
        {
          "time": 518.100565,
          "name": "F3",
          "midi": 53,
          "duration": 0.345823,
          "velocity": 0.88189
        },
        {
          "time": 518.106312,
          "name": "C4",
          "midi": 60,
          "duration": 0.634947,
          "velocity": 0.88189
        },
        {
          "time": 518.109186,
          "name": "F4",
          "midi": 65,
          "duration": 0.346817,
          "velocity": 0.88189
        },
        {
          "time": 518.109186,
          "name": "F3",
          "midi": 53,
          "duration": 0.346817,
          "velocity": 0.88189
        },
        {
          "time": 518.741259,
          "name": "B3",
          "midi": 59,
          "duration": 0.096154,
          "velocity": 0.88189
        },
        {
          "time": 518.831003,
          "name": "C5",
          "midi": 72,
          "duration": 0.38362,
          "velocity": 0.88189
        },
        {
          "time": 518.831003,
          "name": "C4",
          "midi": 60,
          "duration": 0.38362,
          "velocity": 0.88189
        },
        {
          "time": 518.837413,
          "name": "C4",
          "midi": 60,
          "duration": 0.382957,
          "velocity": 0.88189
        },
        {
          "time": 518.840618,
          "name": "F#4",
          "midi": 66,
          "duration": 0.382626,
          "velocity": 0.88189
        },
        {
          "time": 518.840618,
          "name": "C4",
          "midi": 60,
          "duration": 0.382626,
          "velocity": 0.88189
        },
        {
          "time": 519.214623,
          "name": "C5",
          "midi": 72,
          "duration": 0.345823,
          "velocity": 0.88189
        },
        {
          "time": 519.214623,
          "name": "C4",
          "midi": 60,
          "duration": 0.345823,
          "velocity": 0.88189
        },
        {
          "time": 519.22037,
          "name": "D4",
          "midi": 62,
          "duration": 0.346486,
          "velocity": 0.88189
        },
        {
          "time": 519.223244,
          "name": "F#4",
          "midi": 66,
          "duration": 0.346817,
          "velocity": 0.88189
        },
        {
          "time": 519.223244,
          "name": "C4",
          "midi": 60,
          "duration": 0.346817,
          "velocity": 0.88189
        },
        {
          "time": 519.566856,
          "name": "G4",
          "midi": 67,
          "duration": 0.384615,
          "velocity": 0.88189
        },
        {
          "time": 519.945061,
          "name": "B4",
          "midi": 71,
          "duration": 0.38362,
          "velocity": 0.88189
        },
        {
          "time": 519.945061,
          "name": "B3",
          "midi": 59,
          "duration": 0.38362,
          "velocity": 0.88189
        },
        {
          "time": 519.951471,
          "name": "D#5",
          "midi": 75,
          "duration": 0.382957,
          "velocity": 0.88189
        },
        {
          "time": 519.954676,
          "name": "B3",
          "midi": 59,
          "duration": 0.382626,
          "velocity": 0.88189
        },
        {
          "time": 519.954676,
          "name": "G4",
          "midi": 67,
          "duration": 0.382626,
          "velocity": 0.88189
        },
        {
          "time": 520.328681,
          "name": "B4",
          "midi": 71,
          "duration": 0.345823,
          "velocity": 0.88189
        },
        {
          "time": 520.328681,
          "name": "B3",
          "midi": 59,
          "duration": 0.345823,
          "velocity": 0.88189
        },
        {
          "time": 520.334428,
          "name": "D5",
          "midi": 74,
          "duration": 0.346486,
          "velocity": 0.88189
        },
        {
          "time": 520.337302,
          "name": "B3",
          "midi": 59,
          "duration": 0.346817,
          "velocity": 0.88189
        },
        {
          "time": 520.337302,
          "name": "G4",
          "midi": 67,
          "duration": 0.346817,
          "velocity": 0.88189
        },
        {
          "time": 520.680914,
          "name": "G4",
          "midi": 67,
          "duration": 0.767572,
          "velocity": 0.88189
        },
        {
          "time": 521.059119,
          "name": "G3",
          "midi": 55,
          "duration": 0.38362,
          "velocity": 0.88189
        },
        {
          "time": 521.059119,
          "name": "G4",
          "midi": 67,
          "duration": 0.38362,
          "velocity": 0.88189
        },
        {
          "time": 521.068734,
          "name": "G3",
          "midi": 55,
          "duration": 0.382626,
          "velocity": 0.88189
        },
        {
          "time": 521.068734,
          "name": "G4",
          "midi": 67,
          "duration": 0.382626,
          "velocity": 0.88189
        },
        {
          "time": 521.442739,
          "name": "G3",
          "midi": 55,
          "duration": 0.345823,
          "velocity": 0.88189
        },
        {
          "time": 521.442739,
          "name": "G4",
          "midi": 67,
          "duration": 0.345823,
          "velocity": 0.88189
        },
        {
          "time": 521.448486,
          "name": "F4",
          "midi": 65,
          "duration": 0.346486,
          "velocity": 0.88189
        },
        {
          "time": 521.45136,
          "name": "G3",
          "midi": 55,
          "duration": 0.346817,
          "velocity": 0.88189
        },
        {
          "time": 521.45136,
          "name": "G4",
          "midi": 67,
          "duration": 0.346817,
          "velocity": 0.88189
        },
        {
          "time": 521.794972,
          "name": "D#4",
          "midi": 63,
          "duration": 0.576923,
          "velocity": 0.88189
        },
        {
          "time": 522.173177,
          "name": "G3",
          "midi": 55,
          "duration": 0.38362,
          "velocity": 0.88189
        },
        {
          "time": 522.173177,
          "name": "G4",
          "midi": 67,
          "duration": 0.38362,
          "velocity": 0.88189
        },
        {
          "time": 522.182792,
          "name": "G3",
          "midi": 55,
          "duration": 0.382626,
          "velocity": 0.88189
        },
        {
          "time": 522.182792,
          "name": "G4",
          "midi": 67,
          "duration": 0.382626,
          "velocity": 0.88189
        },
        {
          "time": 522.371894,
          "name": "D4",
          "midi": 62,
          "duration": 0.19065,
          "velocity": 0.88189
        },
        {
          "time": 522.556797,
          "name": "G3",
          "midi": 55,
          "duration": 0.345823,
          "velocity": 0.88189
        },
        {
          "time": 522.556797,
          "name": "G4",
          "midi": 67,
          "duration": 0.345823,
          "velocity": 0.88189
        },
        {
          "time": 522.562544,
          "name": "C4",
          "midi": 60,
          "duration": 0.172414,
          "velocity": 0.88189
        },
        {
          "time": 522.565418,
          "name": "G3",
          "midi": 55,
          "duration": 0.346817,
          "velocity": 0.88189
        },
        {
          "time": 522.565418,
          "name": "G4",
          "midi": 67,
          "duration": 0.346817,
          "velocity": 0.88189
        },
        {
          "time": 522.734958,
          "name": "D4",
          "midi": 62,
          "duration": 0.174072,
          "velocity": 0.88189
        },
        {
          "time": 522.90903,
          "name": "D#4",
          "midi": 63,
          "duration": 0.192307,
          "velocity": 0.88189
        },
        {
          "time": 523.101337,
          "name": "D4",
          "midi": 62,
          "duration": 0.192308,
          "velocity": 0.88189
        },
        {
          "time": 523.293645,
          "name": "D#4",
          "midi": 63,
          "duration": 0.192307,
          "velocity": 0.88189
        },
        {
          "time": 523.485952,
          "name": "F#4",
          "midi": 66,
          "duration": 0.19065,
          "velocity": 0.88189
        },
        {
          "time": 523.676602,
          "name": "G4",
          "midi": 67,
          "duration": 0.172414,
          "velocity": 0.88189
        },
        {
          "time": 523.849016,
          "name": "B4",
          "midi": 71,
          "duration": 0.174072,
          "velocity": 0.88189
        },
        {
          "time": 524.023088,
          "name": "C5",
          "midi": 72,
          "duration": 0.192307,
          "velocity": 0.88189
        },
        {
          "time": 526.635819,
          "name": "F3",
          "midi": 53,
          "duration": 0.346153,
          "velocity": 0.88189
        },
        {
          "time": 527.018776,
          "name": "F3",
          "midi": 53,
          "duration": 0.310345,
          "velocity": 0.88189
        },
        {
          "time": 527.749877,
          "name": "F3",
          "midi": 53,
          "duration": 0.346153,
          "velocity": 0.88189
        },
        {
          "time": 528.132834,
          "name": "F3",
          "midi": 53,
          "duration": 0.310345,
          "velocity": 0.88189
        },
        {
          "time": 528.863935,
          "name": "F3",
          "midi": 53,
          "duration": 0.346153,
          "velocity": 0.88189
        },
        {
          "time": 529.246892,
          "name": "F3",
          "midi": 53,
          "duration": 0.310345,
          "velocity": 0.88189
        },
        {
          "time": 529.977993,
          "name": "F3",
          "midi": 53,
          "duration": 0.346153,
          "velocity": 0.88189
        },
        {
          "time": 530.36095,
          "name": "F3",
          "midi": 53,
          "duration": 0.310345,
          "velocity": 0.88189
        },
        {
          "time": 531.092051,
          "name": "F3",
          "midi": 53,
          "duration": 0.346153,
          "velocity": 0.88189
        },
        {
          "time": 531.475008,
          "name": "F3",
          "midi": 53,
          "duration": 0.310345,
          "velocity": 0.88189
        },
        {
          "time": 531.821494,
          "name": "F3",
          "midi": 53,
          "duration": 0.192307,
          "velocity": 0.88189
        },
        {
          "time": 532.206109,
          "name": "F3",
          "midi": 53,
          "duration": 0.192307,
          "velocity": 0.88189
        },
        {
          "time": 532.589066,
          "name": "F3",
          "midi": 53,
          "duration": 0.172414,
          "velocity": 0.88189
        },
        {
          "time": 532.935552,
          "name": "D4",
          "midi": 62,
          "duration": 0.384615,
          "velocity": 0.88189
        },
        {
          "time": 533.313757,
          "name": "D4",
          "midi": 62,
          "duration": 0.38362,
          "velocity": 0.88189
        },
        {
          "time": 533.313757,
          "name": "F3",
          "midi": 53,
          "duration": 0.38362,
          "velocity": 0.88189
        },
        {
          "time": 533.320167,
          "name": "D4",
          "midi": 62,
          "duration": 0.382957,
          "velocity": 0.88189
        },
        {
          "time": 533.323372,
          "name": "A#3",
          "midi": 58,
          "duration": 0.382626,
          "velocity": 0.88189
        },
        {
          "time": 533.697377,
          "name": "D4",
          "midi": 62,
          "duration": 0.345823,
          "velocity": 0.88189
        },
        {
          "time": 533.697377,
          "name": "F3",
          "midi": 53,
          "duration": 0.345823,
          "velocity": 0.88189
        },
        {
          "time": 533.703124,
          "name": "D4",
          "midi": 62,
          "duration": 0.346486,
          "velocity": 0.88189
        },
        {
          "time": 533.705998,
          "name": "A#3",
          "midi": 58,
          "duration": 0.346817,
          "velocity": 0.88189
        },
        {
          "time": 534.04961,
          "name": "D4",
          "midi": 62,
          "duration": 0.384615,
          "velocity": 0.88189
        },
        {
          "time": 534.427815,
          "name": "D4",
          "midi": 62,
          "duration": 0.38362,
          "velocity": 0.88189
        },
        {
          "time": 534.427815,
          "name": "F3",
          "midi": 53,
          "duration": 0.38362,
          "velocity": 0.88189
        },
        {
          "time": 534.434225,
          "name": "G4",
          "midi": 67,
          "duration": 0.382957,
          "velocity": 0.88189
        },
        {
          "time": 534.43743,
          "name": "A#3",
          "midi": 58,
          "duration": 0.382626,
          "velocity": 0.88189
        },
        {
          "time": 534.811435,
          "name": "D4",
          "midi": 62,
          "duration": 0.345823,
          "velocity": 0.88189
        },
        {
          "time": 534.811435,
          "name": "F3",
          "midi": 53,
          "duration": 0.345823,
          "velocity": 0.88189
        },
        {
          "time": 534.817182,
          "name": "F4",
          "midi": 65,
          "duration": 0.346486,
          "velocity": 0.88189
        },
        {
          "time": 534.820056,
          "name": "A#3",
          "midi": 58,
          "duration": 0.346817,
          "velocity": 0.88189
        },
        {
          "time": 535.163668,
          "name": "C4",
          "midi": 60,
          "duration": 0.673076,
          "velocity": 0.88189
        },
        {
          "time": 535.541873,
          "name": "F4",
          "midi": 65,
          "duration": 0.38362,
          "velocity": 0.88189
        },
        {
          "time": 535.541873,
          "name": "F3",
          "midi": 53,
          "duration": 0.38362,
          "velocity": 0.88189
        },
        {
          "time": 535.551488,
          "name": "F4",
          "midi": 65,
          "duration": 0.382626,
          "velocity": 0.88189
        },
        {
          "time": 535.551488,
          "name": "F3",
          "midi": 53,
          "duration": 0.382626,
          "velocity": 0.88189
        },
        {
          "time": 535.836744,
          "name": "B3",
          "midi": 59,
          "duration": 0.094496,
          "velocity": 0.88189
        },
        {
          "time": 535.925493,
          "name": "F4",
          "midi": 65,
          "duration": 0.345823,
          "velocity": 0.88189
        },
        {
          "time": 535.925493,
          "name": "F3",
          "midi": 53,
          "duration": 0.345823,
          "velocity": 0.88189
        },
        {
          "time": 535.93124,
          "name": "C4",
          "midi": 60,
          "duration": 0.634947,
          "velocity": 0.88189
        },
        {
          "time": 535.934114,
          "name": "F4",
          "midi": 65,
          "duration": 0.346817,
          "velocity": 0.88189
        },
        {
          "time": 535.934114,
          "name": "F3",
          "midi": 53,
          "duration": 0.346817,
          "velocity": 0.88189
        },
        {
          "time": 536.566187,
          "name": "B3",
          "midi": 59,
          "duration": 0.096154,
          "velocity": 0.88189
        },
        {
          "time": 536.655931,
          "name": "C5",
          "midi": 72,
          "duration": 0.38362,
          "velocity": 0.88189
        },
        {
          "time": 536.655931,
          "name": "C4",
          "midi": 60,
          "duration": 0.38362,
          "velocity": 0.88189
        },
        {
          "time": 536.662341,
          "name": "C4",
          "midi": 60,
          "duration": 0.382957,
          "velocity": 0.88189
        },
        {
          "time": 536.665546,
          "name": "F#4",
          "midi": 66,
          "duration": 0.382626,
          "velocity": 0.88189
        },
        {
          "time": 536.665546,
          "name": "C4",
          "midi": 60,
          "duration": 0.382626,
          "velocity": 0.88189
        },
        {
          "time": 537.039551,
          "name": "C5",
          "midi": 72,
          "duration": 0.345823,
          "velocity": 0.88189
        },
        {
          "time": 537.039551,
          "name": "C4",
          "midi": 60,
          "duration": 0.345823,
          "velocity": 0.88189
        },
        {
          "time": 537.045298,
          "name": "D4",
          "midi": 62,
          "duration": 0.346486,
          "velocity": 0.88189
        },
        {
          "time": 537.048172,
          "name": "F#4",
          "midi": 66,
          "duration": 0.346817,
          "velocity": 0.88189
        },
        {
          "time": 537.048172,
          "name": "C4",
          "midi": 60,
          "duration": 0.346817,
          "velocity": 0.88189
        },
        {
          "time": 537.391784,
          "name": "G4",
          "midi": 67,
          "duration": 0.384615,
          "velocity": 0.88189
        },
        {
          "time": 537.769989,
          "name": "B4",
          "midi": 71,
          "duration": 0.38362,
          "velocity": 0.88189
        },
        {
          "time": 537.769989,
          "name": "B3",
          "midi": 59,
          "duration": 0.38362,
          "velocity": 0.88189
        },
        {
          "time": 537.776399,
          "name": "D#5",
          "midi": 75,
          "duration": 0.382957,
          "velocity": 0.88189
        },
        {
          "time": 537.779604,
          "name": "B3",
          "midi": 59,
          "duration": 0.382626,
          "velocity": 0.88189
        },
        {
          "time": 537.779604,
          "name": "G4",
          "midi": 67,
          "duration": 0.382626,
          "velocity": 0.88189
        },
        {
          "time": 538.153609,
          "name": "B4",
          "midi": 71,
          "duration": 0.345823,
          "velocity": 0.88189
        },
        {
          "time": 538.153609,
          "name": "B3",
          "midi": 59,
          "duration": 0.345823,
          "velocity": 0.88189
        },
        {
          "time": 538.159356,
          "name": "D5",
          "midi": 74,
          "duration": 0.346486,
          "velocity": 0.88189
        },
        {
          "time": 538.16223,
          "name": "B3",
          "midi": 59,
          "duration": 0.346817,
          "velocity": 0.88189
        },
        {
          "time": 538.16223,
          "name": "G4",
          "midi": 67,
          "duration": 0.346817,
          "velocity": 0.88189
        },
        {
          "time": 538.505842,
          "name": "G4",
          "midi": 67,
          "duration": 0.767572,
          "velocity": 0.88189
        },
        {
          "time": 538.884047,
          "name": "G3",
          "midi": 55,
          "duration": 0.38362,
          "velocity": 0.88189
        },
        {
          "time": 538.884047,
          "name": "G4",
          "midi": 67,
          "duration": 0.38362,
          "velocity": 0.88189
        },
        {
          "time": 538.893662,
          "name": "G3",
          "midi": 55,
          "duration": 0.382626,
          "velocity": 0.88189
        },
        {
          "time": 538.893662,
          "name": "G4",
          "midi": 67,
          "duration": 0.382626,
          "velocity": 0.88189
        },
        {
          "time": 539.267667,
          "name": "G3",
          "midi": 55,
          "duration": 0.345823,
          "velocity": 0.88189
        },
        {
          "time": 539.267667,
          "name": "G4",
          "midi": 67,
          "duration": 0.345823,
          "velocity": 0.88189
        },
        {
          "time": 539.273414,
          "name": "F4",
          "midi": 65,
          "duration": 0.346486,
          "velocity": 0.88189
        },
        {
          "time": 539.276288,
          "name": "G3",
          "midi": 55,
          "duration": 0.346817,
          "velocity": 0.88189
        },
        {
          "time": 539.276288,
          "name": "G4",
          "midi": 67,
          "duration": 0.346817,
          "velocity": 0.88189
        },
        {
          "time": 539.6199,
          "name": "D#4",
          "midi": 63,
          "duration": 0.576923,
          "velocity": 0.88189
        },
        {
          "time": 539.998105,
          "name": "G3",
          "midi": 55,
          "duration": 0.38362,
          "velocity": 0.88189
        },
        {
          "time": 539.998105,
          "name": "G4",
          "midi": 67,
          "duration": 0.38362,
          "velocity": 0.88189
        },
        {
          "time": 540.00772,
          "name": "G3",
          "midi": 55,
          "duration": 0.382626,
          "velocity": 0.88189
        },
        {
          "time": 540.00772,
          "name": "G4",
          "midi": 67,
          "duration": 0.382626,
          "velocity": 0.88189
        },
        {
          "time": 540.196822,
          "name": "D4",
          "midi": 62,
          "duration": 0.19065,
          "velocity": 0.88189
        },
        {
          "time": 540.381725,
          "name": "G3",
          "midi": 55,
          "duration": 0.345823,
          "velocity": 0.88189
        },
        {
          "time": 540.381725,
          "name": "G4",
          "midi": 67,
          "duration": 0.345823,
          "velocity": 0.88189
        },
        {
          "time": 540.387472,
          "name": "C4",
          "midi": 60,
          "duration": 0.172414,
          "velocity": 0.88189
        },
        {
          "time": 540.390346,
          "name": "G3",
          "midi": 55,
          "duration": 0.346817,
          "velocity": 0.88189
        },
        {
          "time": 540.390346,
          "name": "G4",
          "midi": 67,
          "duration": 0.346817,
          "velocity": 0.88189
        },
        {
          "time": 540.559886,
          "name": "D4",
          "midi": 62,
          "duration": 0.174072,
          "velocity": 0.88189
        },
        {
          "time": 540.733958,
          "name": "D#4",
          "midi": 63,
          "duration": 0.192307,
          "velocity": 0.88189
        },
        {
          "time": 540.926265,
          "name": "D4",
          "midi": 62,
          "duration": 0.192308,
          "velocity": 0.88189
        },
        {
          "time": 541.118573,
          "name": "D#4",
          "midi": 63,
          "duration": 0.192307,
          "velocity": 0.88189
        },
        {
          "time": 541.31088,
          "name": "F#4",
          "midi": 66,
          "duration": 0.19065,
          "velocity": 0.88189
        },
        {
          "time": 541.50153,
          "name": "G4",
          "midi": 67,
          "duration": 0.172414,
          "velocity": 0.88189
        },
        {
          "time": 541.673944,
          "name": "B4",
          "midi": 71,
          "duration": 0.174072,
          "velocity": 0.88189
        },
        {
          "time": 541.848016,
          "name": "C5",
          "midi": 72,
          "duration": 0.192307,
          "velocity": 0.88189
        },
        {
          "time": 544.460747,
          "name": "F3",
          "midi": 53,
          "duration": 0.346153,
          "velocity": 0.88189
        },
        {
          "time": 544.843704,
          "name": "F3",
          "midi": 53,
          "duration": 0.310345,
          "velocity": 0.88189
        },
        {
          "time": 545.574805,
          "name": "F3",
          "midi": 53,
          "duration": 0.346153,
          "velocity": 0.88189
        },
        {
          "time": 545.957762,
          "name": "F3",
          "midi": 53,
          "duration": 0.310345,
          "velocity": 0.88189
        },
        {
          "time": 546.688863,
          "name": "F3",
          "midi": 53,
          "duration": 0.346153,
          "velocity": 0.88189
        },
        {
          "time": 547.07182,
          "name": "F3",
          "midi": 53,
          "duration": 0.310345,
          "velocity": 0.88189
        },
        {
          "time": 547.802921,
          "name": "F3",
          "midi": 53,
          "duration": 0.346153,
          "velocity": 0.88189
        },
        {
          "time": 548.185878,
          "name": "F3",
          "midi": 53,
          "duration": 0.310345,
          "velocity": 0.88189
        },
        {
          "time": 548.531219,
          "name": "F3",
          "midi": 53,
          "duration": 0.321429,
          "velocity": 0.88189
        },
        {
          "time": 548.881861,
          "name": "D3",
          "midi": 50,
          "duration": 0.301676,
          "velocity": 0.88189
        },
        {
          "time": 548.881861,
          "name": "D4",
          "midi": 62,
          "duration": 0.301676,
          "velocity": 0.88189
        },
        {
          "time": 548.887448,
          "name": "D3",
          "midi": 50,
          "duration": 0.301676,
          "velocity": 0.88189
        },
        {
          "time": 548.890241,
          "name": "D3",
          "midi": 50,
          "duration": 0.301676,
          "velocity": 0.88189
        },
        {
          "time": 548.890241,
          "name": "D4",
          "midi": 62,
          "duration": 0.301676,
          "velocity": 0.88189
        },
        {
          "time": 548.890241,
          "name": "D3",
          "midi": 50,
          "duration": 0.301676,
          "velocity": 1
        },
        {
          "time": 548.890241,
          "name": "D4",
          "midi": 62,
          "duration": 0.301676,
          "velocity": 1
        },
        {
          "time": 549.217057,
          "name": "D3",
          "midi": 50,
          "duration": 0.301676,
          "velocity": 0.88189
        },
        {
          "time": 549.217057,
          "name": "D4",
          "midi": 62,
          "duration": 0.301676,
          "velocity": 0.88189
        },
        {
          "time": 549.222644,
          "name": "D3",
          "midi": 50,
          "duration": 0.301676,
          "velocity": 0.88189
        },
        {
          "time": 549.225437,
          "name": "D3",
          "midi": 50,
          "duration": 0.301676,
          "velocity": 0.88189
        },
        {
          "time": 549.225437,
          "name": "D4",
          "midi": 62,
          "duration": 0.301676,
          "velocity": 0.88189
        },
        {
          "time": 549.225437,
          "name": "D3",
          "midi": 50,
          "duration": 0.301676,
          "velocity": 1
        },
        {
          "time": 549.225437,
          "name": "D4",
          "midi": 62,
          "duration": 0.301676,
          "velocity": 1
        },
        {
          "time": 549.552569,
          "name": "D4",
          "midi": 62,
          "duration": 1.007116,
          "velocity": 0.88189
        },
        {
          "time": 549.552569,
          "name": "D3",
          "midi": 50,
          "duration": 1.007116,
          "velocity": 0.88189
        },
        {
          "time": 549.558366,
          "name": "D3",
          "midi": 50,
          "duration": 1.156938,
          "velocity": 0.88189
        },
        {
          "time": 549.561265,
          "name": "D4",
          "midi": 62,
          "duration": 1.007066,
          "velocity": 0.88189
        },
        {
          "time": 549.561265,
          "name": "D3",
          "midi": 50,
          "duration": 1.007066,
          "velocity": 0.88189
        },
        {
          "time": 549.561265,
          "name": "D4",
          "midi": 62,
          "duration": 1.007066,
          "velocity": 1
        },
        {
          "time": 549.561265,
          "name": "D3",
          "midi": 50,
          "duration": 1.007066,
          "velocity": 1
        },
        {
          "time": 550.738359,
          "name": "D4",
          "midi": 62,
          "duration": 0.171978,
          "velocity": 0.88189
        },
        {
          "time": 550.910337,
          "name": "E4",
          "midi": 64,
          "duration": 0.161725,
          "velocity": 0.88189
        },
        {
          "time": 551.072062,
          "name": "D4",
          "midi": 62,
          "duration": 0.161725,
          "velocity": 0.88189
        },
        {
          "time": 551.233787,
          "name": "C4",
          "midi": 60,
          "duration": 0.161725,
          "velocity": 0.88189
        },
        {
          "time": 551.395512,
          "name": "B3",
          "midi": 59,
          "duration": 0.161725,
          "velocity": 0.88189
        },
        {
          "time": 551.557237,
          "name": "C4",
          "midi": 60,
          "duration": 0.291105,
          "velocity": 0.88189
        },
        {
          "time": 551.880687,
          "name": "A3",
          "midi": 57,
          "duration": 0.291105,
          "velocity": 0.88189
        },
        {
          "time": 552.204137,
          "name": "D4",
          "midi": 62,
          "duration": 0.291105,
          "velocity": 0.88189
        },
        {
          "time": 554.187686,
          "name": "G4",
          "midi": 67,
          "duration": 0.192935,
          "velocity": 0.88189
        },
        {
          "time": 554.187686,
          "name": "G3",
          "midi": 55,
          "duration": 0.192935,
          "velocity": 0.88189
        },
        {
          "time": 554.194138,
          "name": "B4",
          "midi": 71,
          "duration": 0.192525,
          "velocity": 0.88189
        },
        {
          "time": 554.194138,
          "name": "D4",
          "midi": 62,
          "duration": 0.192525,
          "velocity": 0.88189
        },
        {
          "time": 554.194138,
          "name": "G3",
          "midi": 55,
          "duration": 0.192525,
          "velocity": 0.88189
        },
        {
          "time": 554.197364,
          "name": "G4",
          "midi": 67,
          "duration": 0.192321,
          "velocity": 0.88189
        },
        {
          "time": 554.197364,
          "name": "G3",
          "midi": 55,
          "duration": 0.192321,
          "velocity": 0.88189
        },
        {
          "time": 554.197364,
          "name": "D4",
          "midi": 62,
          "duration": 0.192321,
          "velocity": 0.96063
        },
        {
          "time": 554.197364,
          "name": "B3",
          "midi": 59,
          "duration": 0.192321,
          "velocity": 0.96063
        },
        {
          "time": 554.56189,
          "name": "G4",
          "midi": 67,
          "duration": 0.181883,
          "velocity": 0.88189
        },
        {
          "time": 554.56189,
          "name": "G3",
          "midi": 55,
          "duration": 0.181883,
          "velocity": 0.88189
        },
        {
          "time": 554.567932,
          "name": "B4",
          "midi": 71,
          "duration": 0.182292,
          "velocity": 0.88189
        },
        {
          "time": 554.567932,
          "name": "D4",
          "midi": 62,
          "duration": 0.182292,
          "velocity": 0.88189
        },
        {
          "time": 554.567932,
          "name": "G3",
          "midi": 55,
          "duration": 0.182292,
          "velocity": 0.88189
        },
        {
          "time": 554.570953,
          "name": "G4",
          "midi": 67,
          "duration": 0.182497,
          "velocity": 0.88189
        },
        {
          "time": 554.570953,
          "name": "G3",
          "midi": 55,
          "duration": 0.182497,
          "velocity": 0.88189
        },
        {
          "time": 554.570953,
          "name": "D4",
          "midi": 62,
          "duration": 0.182497,
          "velocity": 0.96063
        },
        {
          "time": 554.570953,
          "name": "B3",
          "midi": 59,
          "duration": 0.182497,
          "velocity": 0.96063
        },
        {
          "time": 554.937321,
          "name": "G4",
          "midi": 67,
          "duration": 0.192935,
          "velocity": 0.88189
        },
        {
          "time": 554.937321,
          "name": "G3",
          "midi": 55,
          "duration": 0.192935,
          "velocity": 0.88189
        },
        {
          "time": 554.943773,
          "name": "B4",
          "midi": 71,
          "duration": 0.192525,
          "velocity": 0.88189
        },
        {
          "time": 554.943773,
          "name": "D4",
          "midi": 62,
          "duration": 0.192525,
          "velocity": 0.88189
        },
        {
          "time": 554.943773,
          "name": "G3",
          "midi": 55,
          "duration": 0.192525,
          "velocity": 0.88189
        },
        {
          "time": 554.946999,
          "name": "G4",
          "midi": 67,
          "duration": 0.192321,
          "velocity": 0.88189
        },
        {
          "time": 554.946999,
          "name": "G3",
          "midi": 55,
          "duration": 0.192321,
          "velocity": 0.88189
        },
        {
          "time": 554.946999,
          "name": "D4",
          "midi": 62,
          "duration": 0.192321,
          "velocity": 0.96063
        },
        {
          "time": 554.946999,
          "name": "B3",
          "midi": 59,
          "duration": 0.192321,
          "velocity": 0.96063
        },
        {
          "time": 555.311525,
          "name": "G4",
          "midi": 67,
          "duration": 0.181883,
          "velocity": 0.88189
        },
        {
          "time": 555.311525,
          "name": "G3",
          "midi": 55,
          "duration": 0.181883,
          "velocity": 0.88189
        },
        {
          "time": 555.317567,
          "name": "B4",
          "midi": 71,
          "duration": 0.182292,
          "velocity": 0.88189
        },
        {
          "time": 555.317567,
          "name": "D4",
          "midi": 62,
          "duration": 0.182292,
          "velocity": 0.88189
        },
        {
          "time": 555.317567,
          "name": "G3",
          "midi": 55,
          "duration": 0.182292,
          "velocity": 0.88189
        },
        {
          "time": 555.320588,
          "name": "G4",
          "midi": 67,
          "duration": 0.182497,
          "velocity": 0.88189
        },
        {
          "time": 555.320588,
          "name": "G3",
          "midi": 55,
          "duration": 0.182497,
          "velocity": 0.88189
        },
        {
          "time": 555.320588,
          "name": "D4",
          "midi": 62,
          "duration": 0.182497,
          "velocity": 0.96063
        },
        {
          "time": 555.320588,
          "name": "B3",
          "midi": 59,
          "duration": 0.182497,
          "velocity": 0.96063
        },
        {
          "time": 555.686956,
          "name": "G4",
          "midi": 67,
          "duration": 0.192935,
          "velocity": 0.88189
        },
        {
          "time": 555.686956,
          "name": "G3",
          "midi": 55,
          "duration": 0.192935,
          "velocity": 0.88189
        },
        {
          "time": 555.693408,
          "name": "B4",
          "midi": 71,
          "duration": 0.192525,
          "velocity": 0.88189
        },
        {
          "time": 555.693408,
          "name": "D4",
          "midi": 62,
          "duration": 0.192525,
          "velocity": 0.88189
        },
        {
          "time": 555.693408,
          "name": "G3",
          "midi": 55,
          "duration": 0.192525,
          "velocity": 0.88189
        },
        {
          "time": 555.696634,
          "name": "G4",
          "midi": 67,
          "duration": 0.192321,
          "velocity": 0.88189
        },
        {
          "time": 555.696634,
          "name": "G3",
          "midi": 55,
          "duration": 0.192321,
          "velocity": 0.88189
        },
        {
          "time": 555.696634,
          "name": "D4",
          "midi": 62,
          "duration": 0.192321,
          "velocity": 0.96063
        },
        {
          "time": 555.696634,
          "name": "B3",
          "midi": 59,
          "duration": 0.192321,
          "velocity": 0.96063
        },
        {
          "time": 556.06116,
          "name": "G4",
          "midi": 67,
          "duration": 0.181883,
          "velocity": 0.88189
        },
        {
          "time": 556.06116,
          "name": "G3",
          "midi": 55,
          "duration": 0.181883,
          "velocity": 0.88189
        },
        {
          "time": 556.067202,
          "name": "B4",
          "midi": 71,
          "duration": 0.182292,
          "velocity": 0.88189
        },
        {
          "time": 556.067202,
          "name": "D4",
          "midi": 62,
          "duration": 0.182292,
          "velocity": 0.88189
        },
        {
          "time": 556.067202,
          "name": "G3",
          "midi": 55,
          "duration": 0.182292,
          "velocity": 0.88189
        },
        {
          "time": 556.070223,
          "name": "G4",
          "midi": 67,
          "duration": 0.182497,
          "velocity": 0.88189
        },
        {
          "time": 556.070223,
          "name": "G3",
          "midi": 55,
          "duration": 0.182497,
          "velocity": 0.88189
        },
        {
          "time": 556.070223,
          "name": "D4",
          "midi": 62,
          "duration": 0.182497,
          "velocity": 0.96063
        },
        {
          "time": 556.070223,
          "name": "B3",
          "midi": 59,
          "duration": 0.182497,
          "velocity": 0.96063
        },
        {
          "time": 556.436591,
          "name": "F#4",
          "midi": 66,
          "duration": 0.192935,
          "velocity": 0.88189
        },
        {
          "time": 556.436591,
          "name": "C4",
          "midi": 60,
          "duration": 0.192935,
          "velocity": 0.88189
        },
        {
          "time": 556.443043,
          "name": "F#4",
          "midi": 66,
          "duration": 0.192525,
          "velocity": 0.88189
        },
        {
          "time": 556.443043,
          "name": "A3",
          "midi": 57,
          "duration": 0.192525,
          "velocity": 0.88189
        },
        {
          "time": 556.446269,
          "name": "F#4",
          "midi": 66,
          "duration": 0.192321,
          "velocity": 0.88189
        },
        {
          "time": 556.446269,
          "name": "C4",
          "midi": 60,
          "duration": 0.192321,
          "velocity": 0.88189
        },
        {
          "time": 556.446269,
          "name": "A3",
          "midi": 57,
          "duration": 0.192321,
          "velocity": 0.96063
        },
        {
          "time": 556.446269,
          "name": "D4",
          "midi": 62,
          "duration": 0.192321,
          "velocity": 0.96063
        },
        {
          "time": 556.810795,
          "name": "F#4",
          "midi": 66,
          "duration": 0.181883,
          "velocity": 0.88189
        },
        {
          "time": 556.810795,
          "name": "C4",
          "midi": 60,
          "duration": 0.181883,
          "velocity": 0.88189
        },
        {
          "time": 556.816837,
          "name": "F#4",
          "midi": 66,
          "duration": 0.182292,
          "velocity": 0.88189
        },
        {
          "time": 556.816837,
          "name": "A3",
          "midi": 57,
          "duration": 0.182292,
          "velocity": 0.88189
        },
        {
          "time": 556.819858,
          "name": "F#4",
          "midi": 66,
          "duration": 0.182497,
          "velocity": 0.88189
        },
        {
          "time": 556.819858,
          "name": "C4",
          "midi": 60,
          "duration": 0.182497,
          "velocity": 0.88189
        },
        {
          "time": 556.819858,
          "name": "A3",
          "midi": 57,
          "duration": 0.182497,
          "velocity": 0.96063
        },
        {
          "time": 556.819858,
          "name": "D4",
          "midi": 62,
          "duration": 0.182497,
          "velocity": 0.96063
        },
        {
          "time": 557.186226,
          "name": "G4",
          "midi": 67,
          "duration": 0.192935,
          "velocity": 0.88189
        },
        {
          "time": 557.186226,
          "name": "G3",
          "midi": 55,
          "duration": 0.192935,
          "velocity": 0.88189
        },
        {
          "time": 557.192678,
          "name": "B4",
          "midi": 71,
          "duration": 0.192525,
          "velocity": 0.88189
        },
        {
          "time": 557.192678,
          "name": "D4",
          "midi": 62,
          "duration": 0.192525,
          "velocity": 0.88189
        },
        {
          "time": 557.192678,
          "name": "G3",
          "midi": 55,
          "duration": 0.192525,
          "velocity": 0.88189
        },
        {
          "time": 557.195904,
          "name": "G4",
          "midi": 67,
          "duration": 0.192321,
          "velocity": 0.88189
        },
        {
          "time": 557.195904,
          "name": "G3",
          "midi": 55,
          "duration": 0.192321,
          "velocity": 0.88189
        },
        {
          "time": 557.195904,
          "name": "B3",
          "midi": 59,
          "duration": 0.192321,
          "velocity": 0.96063
        },
        {
          "time": 557.195904,
          "name": "D4",
          "midi": 62,
          "duration": 0.192321,
          "velocity": 0.96063
        },
        {
          "time": 557.56043,
          "name": "B4",
          "midi": 71,
          "duration": 0.181883,
          "velocity": 0.88189
        },
        {
          "time": 557.56043,
          "name": "D4",
          "midi": 62,
          "duration": 0.181883,
          "velocity": 0.88189
        },
        {
          "time": 557.566472,
          "name": "B4",
          "midi": 71,
          "duration": 0.182292,
          "velocity": 0.88189
        },
        {
          "time": 557.566472,
          "name": "D4",
          "midi": 62,
          "duration": 0.182292,
          "velocity": 0.88189
        },
        {
          "time": 557.566472,
          "name": "G3",
          "midi": 55,
          "duration": 0.182292,
          "velocity": 0.88189
        },
        {
          "time": 557.569493,
          "name": "B4",
          "midi": 71,
          "duration": 0.182497,
          "velocity": 0.88189
        },
        {
          "time": 557.569493,
          "name": "D4",
          "midi": 62,
          "duration": 0.182497,
          "velocity": 0.88189
        },
        {
          "time": 557.569493,
          "name": "B3",
          "midi": 59,
          "duration": 0.182497,
          "velocity": 0.96063
        },
        {
          "time": 557.569493,
          "name": "D4",
          "midi": 62,
          "duration": 0.182497,
          "velocity": 0.96063
        },
        {
          "time": 557.935861,
          "name": "B4",
          "midi": 71,
          "duration": 0.192935,
          "velocity": 0.88189
        },
        {
          "time": 557.935861,
          "name": "D4",
          "midi": 62,
          "duration": 0.192935,
          "velocity": 0.88189
        },
        {
          "time": 557.942313,
          "name": "B4",
          "midi": 71,
          "duration": 0.192525,
          "velocity": 0.88189
        },
        {
          "time": 557.942313,
          "name": "D4",
          "midi": 62,
          "duration": 0.192525,
          "velocity": 0.88189
        },
        {
          "time": 557.942313,
          "name": "G3",
          "midi": 55,
          "duration": 0.192525,
          "velocity": 0.88189
        },
        {
          "time": 557.945539,
          "name": "B4",
          "midi": 71,
          "duration": 0.192321,
          "velocity": 0.88189
        },
        {
          "time": 557.945539,
          "name": "D4",
          "midi": 62,
          "duration": 0.192321,
          "velocity": 0.88189
        },
        {
          "time": 557.945539,
          "name": "D4",
          "midi": 62,
          "duration": 0.192321,
          "velocity": 0.96063
        },
        {
          "time": 557.945539,
          "name": "B3",
          "midi": 59,
          "duration": 0.192321,
          "velocity": 0.96063
        },
        {
          "time": 558.310065,
          "name": "G4",
          "midi": 67,
          "duration": 0.181883,
          "velocity": 0.88189
        },
        {
          "time": 558.310065,
          "name": "G3",
          "midi": 55,
          "duration": 0.181883,
          "velocity": 0.88189
        },
        {
          "time": 558.316107,
          "name": "B4",
          "midi": 71,
          "duration": 0.182292,
          "velocity": 0.88189
        },
        {
          "time": 558.316107,
          "name": "D4",
          "midi": 62,
          "duration": 0.182292,
          "velocity": 0.88189
        },
        {
          "time": 558.316107,
          "name": "G3",
          "midi": 55,
          "duration": 0.182292,
          "velocity": 0.88189
        },
        {
          "time": 558.319128,
          "name": "G4",
          "midi": 67,
          "duration": 0.182497,
          "velocity": 0.88189
        },
        {
          "time": 558.319128,
          "name": "G3",
          "midi": 55,
          "duration": 0.182497,
          "velocity": 0.88189
        },
        {
          "time": 558.319128,
          "name": "D4",
          "midi": 62,
          "duration": 0.182497,
          "velocity": 0.96063
        },
        {
          "time": 558.319128,
          "name": "B3",
          "midi": 59,
          "duration": 0.182497,
          "velocity": 0.96063
        },
        {
          "time": 558.685496,
          "name": "C5",
          "midi": 72,
          "duration": 0.192935,
          "velocity": 0.88189
        },
        {
          "time": 558.685496,
          "name": "C4",
          "midi": 60,
          "duration": 0.192935,
          "velocity": 0.88189
        },
        {
          "time": 558.691948,
          "name": "F#4",
          "midi": 66,
          "duration": 0.192525,
          "velocity": 0.88189
        },
        {
          "time": 558.691948,
          "name": "C4",
          "midi": 60,
          "duration": 0.192525,
          "velocity": 0.88189
        },
        {
          "time": 558.695174,
          "name": "C5",
          "midi": 72,
          "duration": 0.192321,
          "velocity": 0.88189
        },
        {
          "time": 558.695174,
          "name": "C4",
          "midi": 60,
          "duration": 0.192321,
          "velocity": 0.88189
        },
        {
          "time": 558.695174,
          "name": "F#4",
          "midi": 66,
          "duration": 0.192321,
          "velocity": 0.96063
        },
        {
          "time": 558.695174,
          "name": "D4",
          "midi": 62,
          "duration": 0.192321,
          "velocity": 0.96063
        },
        {
          "time": 559.0597,
          "name": "C5",
          "midi": 72,
          "duration": 0.181883,
          "velocity": 0.88189
        },
        {
          "time": 559.0597,
          "name": "C4",
          "midi": 60,
          "duration": 0.181883,
          "velocity": 0.88189
        },
        {
          "time": 559.065742,
          "name": "F#4",
          "midi": 66,
          "duration": 0.182292,
          "velocity": 0.88189
        },
        {
          "time": 559.065742,
          "name": "C4",
          "midi": 60,
          "duration": 0.182292,
          "velocity": 0.88189
        },
        {
          "time": 559.068763,
          "name": "C5",
          "midi": 72,
          "duration": 0.182497,
          "velocity": 0.88189
        },
        {
          "time": 559.068763,
          "name": "C4",
          "midi": 60,
          "duration": 0.182497,
          "velocity": 0.88189
        },
        {
          "time": 559.068763,
          "name": "F#4",
          "midi": 66,
          "duration": 0.182497,
          "velocity": 0.96063
        },
        {
          "time": 559.068763,
          "name": "D4",
          "midi": 62,
          "duration": 0.182497,
          "velocity": 0.96063
        },
        {
          "time": 559.435131,
          "name": "C5",
          "midi": 72,
          "duration": 0.192935,
          "velocity": 0.88189
        },
        {
          "time": 559.435131,
          "name": "C4",
          "midi": 60,
          "duration": 0.192935,
          "velocity": 0.88189
        },
        {
          "time": 559.441583,
          "name": "F#4",
          "midi": 66,
          "duration": 0.192525,
          "velocity": 0.88189
        },
        {
          "time": 559.441583,
          "name": "C4",
          "midi": 60,
          "duration": 0.192525,
          "velocity": 0.88189
        },
        {
          "time": 559.444809,
          "name": "C5",
          "midi": 72,
          "duration": 0.192321,
          "velocity": 0.88189
        },
        {
          "time": 559.444809,
          "name": "C4",
          "midi": 60,
          "duration": 0.192321,
          "velocity": 0.88189
        },
        {
          "time": 559.444809,
          "name": "F#4",
          "midi": 66,
          "duration": 0.192321,
          "velocity": 0.96063
        },
        {
          "time": 559.444809,
          "name": "D4",
          "midi": 62,
          "duration": 0.192321,
          "velocity": 0.96063
        },
        {
          "time": 559.809335,
          "name": "C5",
          "midi": 72,
          "duration": 0.181883,
          "velocity": 0.88189
        },
        {
          "time": 559.809335,
          "name": "C4",
          "midi": 60,
          "duration": 0.181883,
          "velocity": 0.88189
        },
        {
          "time": 559.815377,
          "name": "F#4",
          "midi": 66,
          "duration": 0.182292,
          "velocity": 0.88189
        },
        {
          "time": 559.815377,
          "name": "C4",
          "midi": 60,
          "duration": 0.182292,
          "velocity": 0.88189
        },
        {
          "time": 559.818398,
          "name": "C5",
          "midi": 72,
          "duration": 0.182497,
          "velocity": 0.88189
        },
        {
          "time": 559.818398,
          "name": "C4",
          "midi": 60,
          "duration": 0.182497,
          "velocity": 0.88189
        },
        {
          "time": 559.818398,
          "name": "F#4",
          "midi": 66,
          "duration": 0.182497,
          "velocity": 0.96063
        },
        {
          "time": 559.818398,
          "name": "D4",
          "midi": 62,
          "duration": 0.182497,
          "velocity": 0.96063
        },
        {
          "time": 560.184766,
          "name": "B4",
          "midi": 71,
          "duration": 0.192935,
          "velocity": 0.88189
        },
        {
          "time": 560.184766,
          "name": "D4",
          "midi": 62,
          "duration": 0.192935,
          "velocity": 0.88189
        },
        {
          "time": 560.191218,
          "name": "B4",
          "midi": 71,
          "duration": 0.192525,
          "velocity": 0.88189
        },
        {
          "time": 560.191218,
          "name": "D4",
          "midi": 62,
          "duration": 0.192525,
          "velocity": 0.88189
        },
        {
          "time": 560.191218,
          "name": "G3",
          "midi": 55,
          "duration": 0.192525,
          "velocity": 0.88189
        },
        {
          "time": 560.194444,
          "name": "B4",
          "midi": 71,
          "duration": 0.192321,
          "velocity": 0.88189
        },
        {
          "time": 560.194444,
          "name": "D4",
          "midi": 62,
          "duration": 0.192321,
          "velocity": 0.88189
        },
        {
          "time": 560.194444,
          "name": "B3",
          "midi": 59,
          "duration": 0.192321,
          "velocity": 0.96063
        },
        {
          "time": 560.194444,
          "name": "G4",
          "midi": 67,
          "duration": 0.192321,
          "velocity": 0.96063
        },
        {
          "time": 560.55897,
          "name": "G4",
          "midi": 67,
          "duration": 0.181883,
          "velocity": 0.88189
        },
        {
          "time": 560.55897,
          "name": "C#4",
          "midi": 61,
          "duration": 0.181883,
          "velocity": 0.88189
        },
        {
          "time": 560.565012,
          "name": "E4",
          "midi": 64,
          "duration": 0.182292,
          "velocity": 0.88189
        },
        {
          "time": 560.565012,
          "name": "G4",
          "midi": 67,
          "duration": 0.182292,
          "velocity": 0.88189
        },
        {
          "time": 560.568033,
          "name": "G4",
          "midi": 67,
          "duration": 0.182497,
          "velocity": 0.88189
        },
        {
          "time": 560.568033,
          "name": "C#4",
          "midi": 61,
          "duration": 0.182497,
          "velocity": 0.88189
        },
        {
          "time": 560.568033,
          "name": "E4",
          "midi": 64,
          "duration": 0.182497,
          "velocity": 0.96063
        },
        {
          "time": 560.568033,
          "name": "G3",
          "midi": 55,
          "duration": 0.182497,
          "velocity": 0.96063
        },
        {
          "time": 560.934401,
          "name": "G4",
          "midi": 67,
          "duration": 0.192935,
          "velocity": 0.88189
        },
        {
          "time": 560.934401,
          "name": "D4",
          "midi": 62,
          "duration": 0.192935,
          "velocity": 0.88189
        },
        {
          "time": 560.940853,
          "name": "D4",
          "midi": 62,
          "duration": 0.192525,
          "velocity": 0.88189
        },
        {
          "time": 560.940853,
          "name": "G4",
          "midi": 67,
          "duration": 0.192525,
          "velocity": 0.88189
        },
        {
          "time": 560.944079,
          "name": "D4",
          "midi": 62,
          "duration": 0.192321,
          "velocity": 0.88189
        },
        {
          "time": 560.944079,
          "name": "G3",
          "midi": 55,
          "duration": 0.192321,
          "velocity": 0.88189
        },
        {
          "time": 560.944079,
          "name": "G3",
          "midi": 55,
          "duration": 0.192321,
          "velocity": 0.96063
        },
        {
          "time": 560.944079,
          "name": "D4",
          "midi": 62,
          "duration": 0.192321,
          "velocity": 0.96063
        },
        {
          "time": 561.308605,
          "name": "B4",
          "midi": 71,
          "duration": 0.181883,
          "velocity": 0.88189
        },
        {
          "time": 561.308605,
          "name": "D4",
          "midi": 62,
          "duration": 0.181883,
          "velocity": 0.88189
        },
        {
          "time": 561.314647,
          "name": "B4",
          "midi": 71,
          "duration": 0.182292,
          "velocity": 0.88189
        },
        {
          "time": 561.314647,
          "name": "D4",
          "midi": 62,
          "duration": 0.182292,
          "velocity": 0.88189
        },
        {
          "time": 561.314647,
          "name": "G3",
          "midi": 55,
          "duration": 0.182292,
          "velocity": 0.88189
        },
        {
          "time": 561.317668,
          "name": "B4",
          "midi": 71,
          "duration": 0.182497,
          "velocity": 0.88189
        },
        {
          "time": 561.317668,
          "name": "D4",
          "midi": 62,
          "duration": 0.182497,
          "velocity": 0.88189
        },
        {
          "time": 561.317668,
          "name": "D4",
          "midi": 62,
          "duration": 0.182497,
          "velocity": 0.96063
        },
        {
          "time": 561.317668,
          "name": "B3",
          "midi": 59,
          "duration": 0.182497,
          "velocity": 0.96063
        },
        {
          "time": 561.684036,
          "name": "G4",
          "midi": 67,
          "duration": 0.192935,
          "velocity": 0.88189
        },
        {
          "time": 561.684036,
          "name": "G3",
          "midi": 55,
          "duration": 0.192935,
          "velocity": 0.88189
        },
        {
          "time": 561.690488,
          "name": "B4",
          "midi": 71,
          "duration": 0.192525,
          "velocity": 0.88189
        },
        {
          "time": 561.690488,
          "name": "D4",
          "midi": 62,
          "duration": 0.192525,
          "velocity": 0.88189
        },
        {
          "time": 561.690488,
          "name": "G3",
          "midi": 55,
          "duration": 0.192525,
          "velocity": 0.88189
        },
        {
          "time": 561.693714,
          "name": "G4",
          "midi": 67,
          "duration": 0.192321,
          "velocity": 0.88189
        },
        {
          "time": 561.693714,
          "name": "G3",
          "midi": 55,
          "duration": 0.192321,
          "velocity": 0.88189
        },
        {
          "time": 561.693714,
          "name": "D4",
          "midi": 62,
          "duration": 0.192321,
          "velocity": 0.96063
        },
        {
          "time": 561.693714,
          "name": "B3",
          "midi": 59,
          "duration": 0.192321,
          "velocity": 0.96063
        },
        {
          "time": 562.05824,
          "name": "G4",
          "midi": 67,
          "duration": 0.181883,
          "velocity": 0.88189
        },
        {
          "time": 562.05824,
          "name": "G3",
          "midi": 55,
          "duration": 0.181883,
          "velocity": 0.88189
        },
        {
          "time": 562.064282,
          "name": "B4",
          "midi": 71,
          "duration": 0.182292,
          "velocity": 0.88189
        },
        {
          "time": 562.064282,
          "name": "D4",
          "midi": 62,
          "duration": 0.182292,
          "velocity": 0.88189
        },
        {
          "time": 562.064282,
          "name": "G3",
          "midi": 55,
          "duration": 0.182292,
          "velocity": 0.88189
        },
        {
          "time": 562.067303,
          "name": "G4",
          "midi": 67,
          "duration": 0.182497,
          "velocity": 0.88189
        },
        {
          "time": 562.067303,
          "name": "G3",
          "midi": 55,
          "duration": 0.182497,
          "velocity": 0.88189
        },
        {
          "time": 562.067303,
          "name": "D4",
          "midi": 62,
          "duration": 0.182497,
          "velocity": 0.96063
        },
        {
          "time": 562.067303,
          "name": "B3",
          "midi": 59,
          "duration": 0.182497,
          "velocity": 0.96063
        },
        {
          "time": 562.433671,
          "name": "F#4",
          "midi": 66,
          "duration": 0.192935,
          "velocity": 0.88189
        },
        {
          "time": 562.433671,
          "name": "C4",
          "midi": 60,
          "duration": 0.192935,
          "velocity": 0.88189
        },
        {
          "time": 562.440123,
          "name": "F#4",
          "midi": 66,
          "duration": 0.192525,
          "velocity": 0.88189
        },
        {
          "time": 562.440123,
          "name": "A3",
          "midi": 57,
          "duration": 0.192525,
          "velocity": 0.88189
        },
        {
          "time": 562.443349,
          "name": "F#4",
          "midi": 66,
          "duration": 0.192321,
          "velocity": 0.88189
        },
        {
          "time": 562.443349,
          "name": "C4",
          "midi": 60,
          "duration": 0.192321,
          "velocity": 0.88189
        },
        {
          "time": 562.443349,
          "name": "A3",
          "midi": 57,
          "duration": 0.192321,
          "velocity": 0.96063
        },
        {
          "time": 562.443349,
          "name": "D4",
          "midi": 62,
          "duration": 0.192321,
          "velocity": 0.96063
        },
        {
          "time": 562.807875,
          "name": "F#4",
          "midi": 66,
          "duration": 0.181883,
          "velocity": 0.88189
        },
        {
          "time": 562.807875,
          "name": "C4",
          "midi": 60,
          "duration": 0.181883,
          "velocity": 0.88189
        },
        {
          "time": 562.813917,
          "name": "F#4",
          "midi": 66,
          "duration": 0.182292,
          "velocity": 0.88189
        },
        {
          "time": 562.813917,
          "name": "A3",
          "midi": 57,
          "duration": 0.182292,
          "velocity": 0.88189
        },
        {
          "time": 562.816938,
          "name": "F#4",
          "midi": 66,
          "duration": 0.182497,
          "velocity": 0.88189
        },
        {
          "time": 562.816938,
          "name": "C4",
          "midi": 60,
          "duration": 0.182497,
          "velocity": 0.88189
        },
        {
          "time": 562.816938,
          "name": "A3",
          "midi": 57,
          "duration": 0.182497,
          "velocity": 0.96063
        },
        {
          "time": 562.816938,
          "name": "D4",
          "midi": 62,
          "duration": 0.182497,
          "velocity": 0.96063
        },
        {
          "time": 563.183306,
          "name": "G4",
          "midi": 67,
          "duration": 0.192935,
          "velocity": 0.88189
        },
        {
          "time": 563.183306,
          "name": "G3",
          "midi": 55,
          "duration": 0.192935,
          "velocity": 0.88189
        },
        {
          "time": 563.189758,
          "name": "B4",
          "midi": 71,
          "duration": 0.192525,
          "velocity": 0.88189
        },
        {
          "time": 563.189758,
          "name": "D4",
          "midi": 62,
          "duration": 0.192525,
          "velocity": 0.88189
        },
        {
          "time": 563.189758,
          "name": "G3",
          "midi": 55,
          "duration": 0.192525,
          "velocity": 0.88189
        },
        {
          "time": 563.192984,
          "name": "G4",
          "midi": 67,
          "duration": 0.192321,
          "velocity": 0.88189
        },
        {
          "time": 563.192984,
          "name": "G3",
          "midi": 55,
          "duration": 0.192321,
          "velocity": 0.88189
        },
        {
          "time": 563.192984,
          "name": "B3",
          "midi": 59,
          "duration": 0.192321,
          "velocity": 0.96063
        },
        {
          "time": 563.192984,
          "name": "D4",
          "midi": 62,
          "duration": 0.192321,
          "velocity": 0.96063
        },
        {
          "time": 563.55751,
          "name": "B4",
          "midi": 71,
          "duration": 0.181883,
          "velocity": 0.88189
        },
        {
          "time": 563.55751,
          "name": "D4",
          "midi": 62,
          "duration": 0.181883,
          "velocity": 0.88189
        },
        {
          "time": 563.563552,
          "name": "B4",
          "midi": 71,
          "duration": 0.182292,
          "velocity": 0.88189
        },
        {
          "time": 563.563552,
          "name": "D4",
          "midi": 62,
          "duration": 0.182292,
          "velocity": 0.88189
        },
        {
          "time": 563.563552,
          "name": "G3",
          "midi": 55,
          "duration": 0.182292,
          "velocity": 0.88189
        },
        {
          "time": 563.566573,
          "name": "B4",
          "midi": 71,
          "duration": 0.182497,
          "velocity": 0.88189
        },
        {
          "time": 563.566573,
          "name": "D4",
          "midi": 62,
          "duration": 0.182497,
          "velocity": 0.88189
        },
        {
          "time": 563.566573,
          "name": "B3",
          "midi": 59,
          "duration": 0.182497,
          "velocity": 0.96063
        },
        {
          "time": 563.566573,
          "name": "D4",
          "midi": 62,
          "duration": 0.182497,
          "velocity": 0.96063
        },
        {
          "time": 563.932941,
          "name": "B4",
          "midi": 71,
          "duration": 0.192935,
          "velocity": 0.88189
        },
        {
          "time": 563.932941,
          "name": "D4",
          "midi": 62,
          "duration": 0.192935,
          "velocity": 0.88189
        },
        {
          "time": 563.939393,
          "name": "B4",
          "midi": 71,
          "duration": 0.192525,
          "velocity": 0.88189
        },
        {
          "time": 563.939393,
          "name": "D4",
          "midi": 62,
          "duration": 0.192525,
          "velocity": 0.88189
        },
        {
          "time": 563.939393,
          "name": "G3",
          "midi": 55,
          "duration": 0.192525,
          "velocity": 0.88189
        },
        {
          "time": 563.942619,
          "name": "B4",
          "midi": 71,
          "duration": 0.192321,
          "velocity": 0.88189
        },
        {
          "time": 563.942619,
          "name": "D4",
          "midi": 62,
          "duration": 0.192321,
          "velocity": 0.88189
        },
        {
          "time": 563.942619,
          "name": "D4",
          "midi": 62,
          "duration": 0.192321,
          "velocity": 0.96063
        },
        {
          "time": 563.942619,
          "name": "B3",
          "midi": 59,
          "duration": 0.192321,
          "velocity": 0.96063
        },
        {
          "time": 564.307145,
          "name": "G4",
          "midi": 67,
          "duration": 0.181883,
          "velocity": 0.88189
        },
        {
          "time": 564.307145,
          "name": "G3",
          "midi": 55,
          "duration": 0.181883,
          "velocity": 0.88189
        },
        {
          "time": 564.313187,
          "name": "B4",
          "midi": 71,
          "duration": 0.182292,
          "velocity": 0.88189
        },
        {
          "time": 564.313187,
          "name": "D4",
          "midi": 62,
          "duration": 0.182292,
          "velocity": 0.88189
        },
        {
          "time": 564.313187,
          "name": "G3",
          "midi": 55,
          "duration": 0.182292,
          "velocity": 0.88189
        },
        {
          "time": 564.316208,
          "name": "G4",
          "midi": 67,
          "duration": 0.182497,
          "velocity": 0.88189
        },
        {
          "time": 564.316208,
          "name": "G3",
          "midi": 55,
          "duration": 0.182497,
          "velocity": 0.88189
        },
        {
          "time": 564.316208,
          "name": "D4",
          "midi": 62,
          "duration": 0.182497,
          "velocity": 0.96063
        },
        {
          "time": 564.316208,
          "name": "B3",
          "midi": 59,
          "duration": 0.182497,
          "velocity": 0.96063
        },
        {
          "time": 564.682576,
          "name": "G4",
          "midi": 67,
          "duration": 0.192935,
          "velocity": 0.88189
        },
        {
          "time": 564.682576,
          "name": "A3",
          "midi": 57,
          "duration": 0.192935,
          "velocity": 0.88189
        },
        {
          "time": 564.689028,
          "name": "G4",
          "midi": 67,
          "duration": 0.192525,
          "velocity": 0.88189
        },
        {
          "time": 564.689028,
          "name": "A3",
          "midi": 57,
          "duration": 0.192525,
          "velocity": 0.88189
        },
        {
          "time": 564.692254,
          "name": "G4",
          "midi": 67,
          "duration": 0.192321,
          "velocity": 0.88189
        },
        {
          "time": 564.692254,
          "name": "A3",
          "midi": 57,
          "duration": 0.192321,
          "velocity": 0.88189
        },
        {
          "time": 564.692254,
          "name": "E4",
          "midi": 64,
          "duration": 0.192321,
          "velocity": 0.96063
        },
        {
          "time": 564.692254,
          "name": "C#4",
          "midi": 61,
          "duration": 0.192321,
          "velocity": 0.96063
        },
        {
          "time": 565.05678,
          "name": "G4",
          "midi": 67,
          "duration": 0.181883,
          "velocity": 0.88189
        },
        {
          "time": 565.05678,
          "name": "A3",
          "midi": 57,
          "duration": 0.181883,
          "velocity": 0.88189
        },
        {
          "time": 565.062822,
          "name": "G4",
          "midi": 67,
          "duration": 0.182292,
          "velocity": 0.88189
        },
        {
          "time": 565.062822,
          "name": "A3",
          "midi": 57,
          "duration": 0.182292,
          "velocity": 0.88189
        },
        {
          "time": 565.065843,
          "name": "G4",
          "midi": 67,
          "duration": 0.182497,
          "velocity": 0.88189
        },
        {
          "time": 565.065843,
          "name": "A3",
          "midi": 57,
          "duration": 0.182497,
          "velocity": 0.88189
        },
        {
          "time": 565.065843,
          "name": "E4",
          "midi": 64,
          "duration": 0.182497,
          "velocity": 0.96063
        },
        {
          "time": 565.065843,
          "name": "C#4",
          "midi": 61,
          "duration": 0.182497,
          "velocity": 0.96063
        },
        {
          "time": 565.432211,
          "name": "G4",
          "midi": 67,
          "duration": 0.192935,
          "velocity": 0.88189
        },
        {
          "time": 565.432211,
          "name": "A3",
          "midi": 57,
          "duration": 0.192935,
          "velocity": 0.88189
        },
        {
          "time": 565.438663,
          "name": "A3",
          "midi": 57,
          "duration": 0.192525,
          "velocity": 0.88189
        },
        {
          "time": 565.438663,
          "name": "G4",
          "midi": 67,
          "duration": 0.192525,
          "velocity": 0.88189
        },
        {
          "time": 565.441889,
          "name": "G4",
          "midi": 67,
          "duration": 0.192321,
          "velocity": 0.88189
        },
        {
          "time": 565.441889,
          "name": "A3",
          "midi": 57,
          "duration": 0.192321,
          "velocity": 0.88189
        },
        {
          "time": 565.441889,
          "name": "E4",
          "midi": 64,
          "duration": 0.192321,
          "velocity": 0.96063
        },
        {
          "time": 565.441889,
          "name": "C#4",
          "midi": 61,
          "duration": 0.192321,
          "velocity": 0.96063
        },
        {
          "time": 565.806415,
          "name": "A4",
          "midi": 69,
          "duration": 0.181883,
          "velocity": 0.88189
        },
        {
          "time": 565.806415,
          "name": "A3",
          "midi": 57,
          "duration": 0.181883,
          "velocity": 0.88189
        },
        {
          "time": 565.812457,
          "name": "A3",
          "midi": 57,
          "duration": 0.182292,
          "velocity": 0.88189
        },
        {
          "time": 565.812457,
          "name": "G4",
          "midi": 67,
          "duration": 0.182292,
          "velocity": 0.88189
        },
        {
          "time": 565.815478,
          "name": "A4",
          "midi": 69,
          "duration": 0.182497,
          "velocity": 0.88189
        },
        {
          "time": 565.815478,
          "name": "A3",
          "midi": 57,
          "duration": 0.182497,
          "velocity": 0.88189
        },
        {
          "time": 565.815478,
          "name": "G4",
          "midi": 67,
          "duration": 0.182497,
          "velocity": 0.96063
        },
        {
          "time": 565.815478,
          "name": "C#4",
          "midi": 61,
          "duration": 0.182497,
          "velocity": 0.96063
        },
        {
          "time": 566.181846,
          "name": "A4",
          "midi": 69,
          "duration": 0.192935,
          "velocity": 0.88189
        },
        {
          "time": 566.181846,
          "name": "A3",
          "midi": 57,
          "duration": 0.192935,
          "velocity": 0.88189
        },
        {
          "time": 566.188298,
          "name": "A4",
          "midi": 69,
          "duration": 0.192525,
          "velocity": 0.88189
        },
        {
          "time": 566.188298,
          "name": "F#4",
          "midi": 66,
          "duration": 0.192525,
          "velocity": 0.88189
        },
        {
          "time": 566.188298,
          "name": "A3",
          "midi": 57,
          "duration": 0.192525,
          "velocity": 0.88189
        },
        {
          "time": 566.191524,
          "name": "A4",
          "midi": 69,
          "duration": 0.192321,
          "velocity": 0.88189
        },
        {
          "time": 566.191524,
          "name": "A3",
          "midi": 57,
          "duration": 0.192321,
          "velocity": 0.88189
        },
        {
          "time": 566.191524,
          "name": "F#4",
          "midi": 66,
          "duration": 0.192321,
          "velocity": 0.96063
        },
        {
          "time": 566.191524,
          "name": "D4",
          "midi": 62,
          "duration": 0.192321,
          "velocity": 0.96063
        },
        {
          "time": 566.55605,
          "name": "A4",
          "midi": 69,
          "duration": 0.181883,
          "velocity": 0.88189
        },
        {
          "time": 566.55605,
          "name": "A3",
          "midi": 57,
          "duration": 0.181883,
          "velocity": 0.88189
        },
        {
          "time": 566.562092,
          "name": "A4",
          "midi": 69,
          "duration": 0.182292,
          "velocity": 0.88189
        },
        {
          "time": 566.562092,
          "name": "F#4",
          "midi": 66,
          "duration": 0.182292,
          "velocity": 0.88189
        },
        {
          "time": 566.562092,
          "name": "A3",
          "midi": 57,
          "duration": 0.182292,
          "velocity": 0.88189
        },
        {
          "time": 566.565113,
          "name": "A4",
          "midi": 69,
          "duration": 0.182497,
          "velocity": 0.88189
        },
        {
          "time": 566.565113,
          "name": "A3",
          "midi": 57,
          "duration": 0.182497,
          "velocity": 0.88189
        },
        {
          "time": 566.565113,
          "name": "F#4",
          "midi": 66,
          "duration": 0.182497,
          "velocity": 0.96063
        },
        {
          "time": 566.565113,
          "name": "D4",
          "midi": 62,
          "duration": 0.182497,
          "velocity": 0.96063
        },
        {
          "time": 566.737933,
          "name": "A4",
          "midi": 69,
          "duration": 0.193549,
          "velocity": 0.88189
        },
        {
          "time": 566.737933,
          "name": "A3",
          "midi": 57,
          "duration": 0.193549,
          "velocity": 0.88189
        },
        {
          "time": 566.744384,
          "name": "A4",
          "midi": 69,
          "duration": 0.193549,
          "velocity": 0.88189
        },
        {
          "time": 566.744384,
          "name": "F#4",
          "midi": 66,
          "duration": 0.193549,
          "velocity": 0.88189
        },
        {
          "time": 566.744384,
          "name": "A3",
          "midi": 57,
          "duration": 0.193549,
          "velocity": 0.88189
        },
        {
          "time": 566.74761,
          "name": "A4",
          "midi": 69,
          "duration": 0.193549,
          "velocity": 0.88189
        },
        {
          "time": 566.74761,
          "name": "A3",
          "midi": 57,
          "duration": 0.193549,
          "velocity": 0.88189
        },
        {
          "time": 566.74761,
          "name": "F#4",
          "midi": 66,
          "duration": 0.193549,
          "velocity": 0.96063
        },
        {
          "time": 566.74761,
          "name": "D4",
          "midi": 62,
          "duration": 0.193549,
          "velocity": 0.96063
        },
        {
          "time": 567.681116,
          "name": "G4",
          "midi": 67,
          "duration": 0.192935,
          "velocity": 0.88189
        },
        {
          "time": 567.681116,
          "name": "G3",
          "midi": 55,
          "duration": 0.192935,
          "velocity": 0.88189
        },
        {
          "time": 567.687568,
          "name": "B4",
          "midi": 71,
          "duration": 0.192525,
          "velocity": 0.88189
        },
        {
          "time": 567.687568,
          "name": "D4",
          "midi": 62,
          "duration": 0.192525,
          "velocity": 0.88189
        },
        {
          "time": 567.687568,
          "name": "G3",
          "midi": 55,
          "duration": 0.192525,
          "velocity": 0.88189
        },
        {
          "time": 567.690794,
          "name": "G4",
          "midi": 67,
          "duration": 0.192321,
          "velocity": 0.88189
        },
        {
          "time": 567.690794,
          "name": "G3",
          "midi": 55,
          "duration": 0.192321,
          "velocity": 0.88189
        },
        {
          "time": 567.690794,
          "name": "D4",
          "midi": 62,
          "duration": 0.192321,
          "velocity": 0.96063
        },
        {
          "time": 567.690794,
          "name": "B3",
          "midi": 59,
          "duration": 0.192321,
          "velocity": 0.96063
        },
        {
          "time": 568.05532,
          "name": "G4",
          "midi": 67,
          "duration": 0.181883,
          "velocity": 0.88189
        },
        {
          "time": 568.05532,
          "name": "G3",
          "midi": 55,
          "duration": 0.181883,
          "velocity": 0.88189
        },
        {
          "time": 568.061362,
          "name": "B4",
          "midi": 71,
          "duration": 0.182292,
          "velocity": 0.88189
        },
        {
          "time": 568.061362,
          "name": "D4",
          "midi": 62,
          "duration": 0.182292,
          "velocity": 0.88189
        },
        {
          "time": 568.061362,
          "name": "G3",
          "midi": 55,
          "duration": 0.182292,
          "velocity": 0.88189
        },
        {
          "time": 568.064383,
          "name": "G4",
          "midi": 67,
          "duration": 0.182497,
          "velocity": 0.88189
        },
        {
          "time": 568.064383,
          "name": "G3",
          "midi": 55,
          "duration": 0.182497,
          "velocity": 0.88189
        },
        {
          "time": 568.064383,
          "name": "D4",
          "midi": 62,
          "duration": 0.182497,
          "velocity": 0.96063
        },
        {
          "time": 568.064383,
          "name": "B3",
          "midi": 59,
          "duration": 0.182497,
          "velocity": 0.96063
        },
        {
          "time": 568.430751,
          "name": "F#4",
          "midi": 66,
          "duration": 0.192935,
          "velocity": 0.88189
        },
        {
          "time": 568.430751,
          "name": "C4",
          "midi": 60,
          "duration": 0.192935,
          "velocity": 0.88189
        },
        {
          "time": 568.437203,
          "name": "F#4",
          "midi": 66,
          "duration": 0.192525,
          "velocity": 0.88189
        },
        {
          "time": 568.437203,
          "name": "A3",
          "midi": 57,
          "duration": 0.192525,
          "velocity": 0.88189
        },
        {
          "time": 568.440429,
          "name": "F#4",
          "midi": 66,
          "duration": 0.192321,
          "velocity": 0.88189
        },
        {
          "time": 568.440429,
          "name": "C4",
          "midi": 60,
          "duration": 0.192321,
          "velocity": 0.88189
        },
        {
          "time": 568.440429,
          "name": "A3",
          "midi": 57,
          "duration": 0.192321,
          "velocity": 0.96063
        },
        {
          "time": 568.440429,
          "name": "D4",
          "midi": 62,
          "duration": 0.192321,
          "velocity": 0.96063
        },
        {
          "time": 568.804955,
          "name": "F#4",
          "midi": 66,
          "duration": 0.181883,
          "velocity": 0.88189
        },
        {
          "time": 568.804955,
          "name": "C4",
          "midi": 60,
          "duration": 0.181883,
          "velocity": 0.88189
        },
        {
          "time": 568.810997,
          "name": "F#4",
          "midi": 66,
          "duration": 0.182292,
          "velocity": 0.88189
        },
        {
          "time": 568.810997,
          "name": "A3",
          "midi": 57,
          "duration": 0.182292,
          "velocity": 0.88189
        },
        {
          "time": 568.814018,
          "name": "F#4",
          "midi": 66,
          "duration": 0.182497,
          "velocity": 0.88189
        },
        {
          "time": 568.814018,
          "name": "C4",
          "midi": 60,
          "duration": 0.182497,
          "velocity": 0.88189
        },
        {
          "time": 568.814018,
          "name": "A3",
          "midi": 57,
          "duration": 0.182497,
          "velocity": 0.96063
        },
        {
          "time": 568.814018,
          "name": "D4",
          "midi": 62,
          "duration": 0.182497,
          "velocity": 0.96063
        },
        {
          "time": 569.180386,
          "name": "G4",
          "midi": 67,
          "duration": 0.192935,
          "velocity": 0.88189
        },
        {
          "time": 569.180386,
          "name": "G3",
          "midi": 55,
          "duration": 0.192935,
          "velocity": 0.88189
        },
        {
          "time": 569.186838,
          "name": "B4",
          "midi": 71,
          "duration": 0.192525,
          "velocity": 0.88189
        },
        {
          "time": 569.186838,
          "name": "D4",
          "midi": 62,
          "duration": 0.192525,
          "velocity": 0.88189
        },
        {
          "time": 569.186838,
          "name": "G3",
          "midi": 55,
          "duration": 0.192525,
          "velocity": 0.88189
        },
        {
          "time": 569.190064,
          "name": "G4",
          "midi": 67,
          "duration": 0.192321,
          "velocity": 0.88189
        },
        {
          "time": 569.190064,
          "name": "G3",
          "midi": 55,
          "duration": 0.192321,
          "velocity": 0.88189
        },
        {
          "time": 569.190064,
          "name": "B3",
          "midi": 59,
          "duration": 0.192321,
          "velocity": 0.96063
        },
        {
          "time": 569.190064,
          "name": "D4",
          "midi": 62,
          "duration": 0.192321,
          "velocity": 0.96063
        },
        {
          "time": 569.55459,
          "name": "B4",
          "midi": 71,
          "duration": 0.181883,
          "velocity": 0.88189
        },
        {
          "time": 569.55459,
          "name": "D4",
          "midi": 62,
          "duration": 0.181883,
          "velocity": 0.88189
        },
        {
          "time": 569.560632,
          "name": "B4",
          "midi": 71,
          "duration": 0.182292,
          "velocity": 0.88189
        },
        {
          "time": 569.560632,
          "name": "D4",
          "midi": 62,
          "duration": 0.182292,
          "velocity": 0.88189
        },
        {
          "time": 569.560632,
          "name": "G3",
          "midi": 55,
          "duration": 0.182292,
          "velocity": 0.88189
        },
        {
          "time": 569.563653,
          "name": "B4",
          "midi": 71,
          "duration": 0.182497,
          "velocity": 0.88189
        },
        {
          "time": 569.563653,
          "name": "D4",
          "midi": 62,
          "duration": 0.182497,
          "velocity": 0.88189
        },
        {
          "time": 569.563653,
          "name": "B3",
          "midi": 59,
          "duration": 0.182497,
          "velocity": 0.96063
        },
        {
          "time": 569.563653,
          "name": "D4",
          "midi": 62,
          "duration": 0.182497,
          "velocity": 0.96063
        },
        {
          "time": 569.930021,
          "name": "B4",
          "midi": 71,
          "duration": 0.192935,
          "velocity": 0.88189
        },
        {
          "time": 569.930021,
          "name": "D4",
          "midi": 62,
          "duration": 0.192935,
          "velocity": 0.88189
        },
        {
          "time": 569.936473,
          "name": "B4",
          "midi": 71,
          "duration": 0.192525,
          "velocity": 0.88189
        },
        {
          "time": 569.936473,
          "name": "D4",
          "midi": 62,
          "duration": 0.192525,
          "velocity": 0.88189
        },
        {
          "time": 569.936473,
          "name": "G3",
          "midi": 55,
          "duration": 0.192525,
          "velocity": 0.88189
        },
        {
          "time": 569.939699,
          "name": "B4",
          "midi": 71,
          "duration": 0.192321,
          "velocity": 0.88189
        },
        {
          "time": 569.939699,
          "name": "D4",
          "midi": 62,
          "duration": 0.192321,
          "velocity": 0.88189
        },
        {
          "time": 569.939699,
          "name": "D4",
          "midi": 62,
          "duration": 0.192321,
          "velocity": 0.96063
        },
        {
          "time": 569.939699,
          "name": "B3",
          "midi": 59,
          "duration": 0.192321,
          "velocity": 0.96063
        },
        {
          "time": 570.304225,
          "name": "G4",
          "midi": 67,
          "duration": 0.181883,
          "velocity": 0.88189
        },
        {
          "time": 570.304225,
          "name": "G3",
          "midi": 55,
          "duration": 0.181883,
          "velocity": 0.88189
        },
        {
          "time": 570.310267,
          "name": "B4",
          "midi": 71,
          "duration": 0.182292,
          "velocity": 0.88189
        },
        {
          "time": 570.310267,
          "name": "D4",
          "midi": 62,
          "duration": 0.182292,
          "velocity": 0.88189
        },
        {
          "time": 570.310267,
          "name": "G3",
          "midi": 55,
          "duration": 0.182292,
          "velocity": 0.88189
        },
        {
          "time": 570.313288,
          "name": "G4",
          "midi": 67,
          "duration": 0.182497,
          "velocity": 0.88189
        },
        {
          "time": 570.313288,
          "name": "G3",
          "midi": 55,
          "duration": 0.182497,
          "velocity": 0.88189
        },
        {
          "time": 570.313288,
          "name": "D4",
          "midi": 62,
          "duration": 0.182497,
          "velocity": 0.96063
        },
        {
          "time": 570.313288,
          "name": "B3",
          "midi": 59,
          "duration": 0.182497,
          "velocity": 0.96063
        },
        {
          "time": 570.679656,
          "name": "C5",
          "midi": 72,
          "duration": 0.192935,
          "velocity": 0.88189
        },
        {
          "time": 570.679656,
          "name": "C4",
          "midi": 60,
          "duration": 0.192935,
          "velocity": 0.88189
        },
        {
          "time": 570.686108,
          "name": "F#4",
          "midi": 66,
          "duration": 0.192525,
          "velocity": 0.88189
        },
        {
          "time": 570.686108,
          "name": "C4",
          "midi": 60,
          "duration": 0.192525,
          "velocity": 0.88189
        },
        {
          "time": 570.689334,
          "name": "C5",
          "midi": 72,
          "duration": 0.192321,
          "velocity": 0.88189
        },
        {
          "time": 570.689334,
          "name": "C4",
          "midi": 60,
          "duration": 0.192321,
          "velocity": 0.88189
        },
        {
          "time": 570.689334,
          "name": "F#4",
          "midi": 66,
          "duration": 0.192321,
          "velocity": 0.96063
        },
        {
          "time": 570.689334,
          "name": "D4",
          "midi": 62,
          "duration": 0.192321,
          "velocity": 0.96063
        },
        {
          "time": 571.05386,
          "name": "C5",
          "midi": 72,
          "duration": 0.181883,
          "velocity": 0.88189
        },
        {
          "time": 571.05386,
          "name": "C4",
          "midi": 60,
          "duration": 0.181883,
          "velocity": 0.88189
        },
        {
          "time": 571.059902,
          "name": "F#4",
          "midi": 66,
          "duration": 0.182292,
          "velocity": 0.88189
        },
        {
          "time": 571.059902,
          "name": "C4",
          "midi": 60,
          "duration": 0.182292,
          "velocity": 0.88189
        },
        {
          "time": 571.062923,
          "name": "C5",
          "midi": 72,
          "duration": 0.182497,
          "velocity": 0.88189
        },
        {
          "time": 571.062923,
          "name": "C4",
          "midi": 60,
          "duration": 0.182497,
          "velocity": 0.88189
        },
        {
          "time": 571.062923,
          "name": "F#4",
          "midi": 66,
          "duration": 0.182497,
          "velocity": 0.96063
        },
        {
          "time": 571.062923,
          "name": "D4",
          "midi": 62,
          "duration": 0.182497,
          "velocity": 0.96063
        },
        {
          "time": 571.429291,
          "name": "C5",
          "midi": 72,
          "duration": 0.192935,
          "velocity": 0.88189
        },
        {
          "time": 571.429291,
          "name": "C4",
          "midi": 60,
          "duration": 0.192935,
          "velocity": 0.88189
        },
        {
          "time": 571.435743,
          "name": "F#4",
          "midi": 66,
          "duration": 0.192525,
          "velocity": 0.88189
        },
        {
          "time": 571.435743,
          "name": "C4",
          "midi": 60,
          "duration": 0.192525,
          "velocity": 0.88189
        },
        {
          "time": 571.438969,
          "name": "C5",
          "midi": 72,
          "duration": 0.192321,
          "velocity": 0.88189
        },
        {
          "time": 571.438969,
          "name": "C4",
          "midi": 60,
          "duration": 0.192321,
          "velocity": 0.88189
        },
        {
          "time": 571.438969,
          "name": "F#4",
          "midi": 66,
          "duration": 0.192321,
          "velocity": 0.96063
        },
        {
          "time": 571.438969,
          "name": "D4",
          "midi": 62,
          "duration": 0.192321,
          "velocity": 0.96063
        },
        {
          "time": 571.803495,
          "name": "C5",
          "midi": 72,
          "duration": 0.181883,
          "velocity": 0.88189
        },
        {
          "time": 571.803495,
          "name": "C4",
          "midi": 60,
          "duration": 0.181883,
          "velocity": 0.88189
        },
        {
          "time": 571.809537,
          "name": "F#4",
          "midi": 66,
          "duration": 0.182292,
          "velocity": 0.88189
        },
        {
          "time": 571.809537,
          "name": "C4",
          "midi": 60,
          "duration": 0.182292,
          "velocity": 0.88189
        },
        {
          "time": 571.812558,
          "name": "C5",
          "midi": 72,
          "duration": 0.182497,
          "velocity": 0.88189
        },
        {
          "time": 571.812558,
          "name": "C4",
          "midi": 60,
          "duration": 0.182497,
          "velocity": 0.88189
        },
        {
          "time": 571.812558,
          "name": "F#4",
          "midi": 66,
          "duration": 0.182497,
          "velocity": 0.96063
        },
        {
          "time": 571.812558,
          "name": "D4",
          "midi": 62,
          "duration": 0.182497,
          "velocity": 0.96063
        },
        {
          "time": 572.178926,
          "name": "B4",
          "midi": 71,
          "duration": 0.192935,
          "velocity": 0.88189
        },
        {
          "time": 572.178926,
          "name": "D4",
          "midi": 62,
          "duration": 0.192935,
          "velocity": 0.88189
        },
        {
          "time": 572.185378,
          "name": "B4",
          "midi": 71,
          "duration": 0.192525,
          "velocity": 0.88189
        },
        {
          "time": 572.185378,
          "name": "D4",
          "midi": 62,
          "duration": 0.192525,
          "velocity": 0.88189
        },
        {
          "time": 572.185378,
          "name": "G3",
          "midi": 55,
          "duration": 0.192525,
          "velocity": 0.88189
        },
        {
          "time": 572.188604,
          "name": "B4",
          "midi": 71,
          "duration": 0.192321,
          "velocity": 0.88189
        },
        {
          "time": 572.188604,
          "name": "D4",
          "midi": 62,
          "duration": 0.192321,
          "velocity": 0.88189
        },
        {
          "time": 572.188604,
          "name": "B3",
          "midi": 59,
          "duration": 0.192321,
          "velocity": 0.96063
        },
        {
          "time": 572.188604,
          "name": "G4",
          "midi": 67,
          "duration": 0.192321,
          "velocity": 0.96063
        },
        {
          "time": 572.55313,
          "name": "G4",
          "midi": 67,
          "duration": 0.181883,
          "velocity": 0.88189
        },
        {
          "time": 572.55313,
          "name": "C#4",
          "midi": 61,
          "duration": 0.181883,
          "velocity": 0.88189
        },
        {
          "time": 572.559172,
          "name": "E4",
          "midi": 64,
          "duration": 0.182292,
          "velocity": 0.88189
        },
        {
          "time": 572.559172,
          "name": "G4",
          "midi": 67,
          "duration": 0.182292,
          "velocity": 0.88189
        },
        {
          "time": 572.562193,
          "name": "G4",
          "midi": 67,
          "duration": 0.182497,
          "velocity": 0.88189
        },
        {
          "time": 572.562193,
          "name": "C#4",
          "midi": 61,
          "duration": 0.182497,
          "velocity": 0.88189
        },
        {
          "time": 572.562193,
          "name": "E4",
          "midi": 64,
          "duration": 0.182497,
          "velocity": 0.96063
        },
        {
          "time": 572.562193,
          "name": "G3",
          "midi": 55,
          "duration": 0.182497,
          "velocity": 0.96063
        },
        {
          "time": 572.928561,
          "name": "G4",
          "midi": 67,
          "duration": 0.192935,
          "velocity": 0.88189
        },
        {
          "time": 572.928561,
          "name": "D4",
          "midi": 62,
          "duration": 0.192935,
          "velocity": 0.88189
        },
        {
          "time": 572.935013,
          "name": "D4",
          "midi": 62,
          "duration": 0.192525,
          "velocity": 0.88189
        },
        {
          "time": 572.935013,
          "name": "G4",
          "midi": 67,
          "duration": 0.192525,
          "velocity": 0.88189
        },
        {
          "time": 572.938239,
          "name": "D4",
          "midi": 62,
          "duration": 0.192321,
          "velocity": 0.88189
        },
        {
          "time": 572.938239,
          "name": "G3",
          "midi": 55,
          "duration": 0.192321,
          "velocity": 0.88189
        },
        {
          "time": 572.938239,
          "name": "G3",
          "midi": 55,
          "duration": 0.192321,
          "velocity": 0.96063
        },
        {
          "time": 572.938239,
          "name": "D4",
          "midi": 62,
          "duration": 0.192321,
          "velocity": 0.96063
        },
        {
          "time": 573.302765,
          "name": "B4",
          "midi": 71,
          "duration": 0.181883,
          "velocity": 0.88189
        },
        {
          "time": 573.302765,
          "name": "D4",
          "midi": 62,
          "duration": 0.181883,
          "velocity": 0.88189
        },
        {
          "time": 573.308807,
          "name": "B4",
          "midi": 71,
          "duration": 0.182292,
          "velocity": 0.88189
        },
        {
          "time": 573.308807,
          "name": "D4",
          "midi": 62,
          "duration": 0.182292,
          "velocity": 0.88189
        },
        {
          "time": 573.308807,
          "name": "G3",
          "midi": 55,
          "duration": 0.182292,
          "velocity": 0.88189
        },
        {
          "time": 573.311828,
          "name": "B4",
          "midi": 71,
          "duration": 0.182497,
          "velocity": 0.88189
        },
        {
          "time": 573.311828,
          "name": "D4",
          "midi": 62,
          "duration": 0.182497,
          "velocity": 0.88189
        },
        {
          "time": 573.311828,
          "name": "D4",
          "midi": 62,
          "duration": 0.182497,
          "velocity": 0.96063
        },
        {
          "time": 573.311828,
          "name": "B3",
          "midi": 59,
          "duration": 0.182497,
          "velocity": 0.96063
        },
        {
          "time": 573.678196,
          "name": "G4",
          "midi": 67,
          "duration": 0.192935,
          "velocity": 0.88189
        },
        {
          "time": 573.678196,
          "name": "G3",
          "midi": 55,
          "duration": 0.192935,
          "velocity": 0.88189
        },
        {
          "time": 573.684648,
          "name": "B4",
          "midi": 71,
          "duration": 0.192525,
          "velocity": 0.88189
        },
        {
          "time": 573.684648,
          "name": "D4",
          "midi": 62,
          "duration": 0.192525,
          "velocity": 0.88189
        },
        {
          "time": 573.684648,
          "name": "G3",
          "midi": 55,
          "duration": 0.192525,
          "velocity": 0.88189
        },
        {
          "time": 573.687874,
          "name": "G4",
          "midi": 67,
          "duration": 0.192321,
          "velocity": 0.88189
        },
        {
          "time": 573.687874,
          "name": "G3",
          "midi": 55,
          "duration": 0.192321,
          "velocity": 0.88189
        },
        {
          "time": 573.687874,
          "name": "D4",
          "midi": 62,
          "duration": 0.192321,
          "velocity": 0.96063
        },
        {
          "time": 573.687874,
          "name": "B3",
          "midi": 59,
          "duration": 0.192321,
          "velocity": 0.96063
        },
        {
          "time": 574.0524,
          "name": "G4",
          "midi": 67,
          "duration": 0.181883,
          "velocity": 0.88189
        },
        {
          "time": 574.0524,
          "name": "G3",
          "midi": 55,
          "duration": 0.181883,
          "velocity": 0.88189
        },
        {
          "time": 574.058442,
          "name": "B4",
          "midi": 71,
          "duration": 0.182292,
          "velocity": 0.88189
        },
        {
          "time": 574.058442,
          "name": "D4",
          "midi": 62,
          "duration": 0.182292,
          "velocity": 0.88189
        },
        {
          "time": 574.058442,
          "name": "G3",
          "midi": 55,
          "duration": 0.182292,
          "velocity": 0.88189
        },
        {
          "time": 574.061463,
          "name": "G4",
          "midi": 67,
          "duration": 0.182497,
          "velocity": 0.88189
        },
        {
          "time": 574.061463,
          "name": "G3",
          "midi": 55,
          "duration": 0.182497,
          "velocity": 0.88189
        },
        {
          "time": 574.061463,
          "name": "D4",
          "midi": 62,
          "duration": 0.182497,
          "velocity": 0.96063
        },
        {
          "time": 574.061463,
          "name": "B3",
          "midi": 59,
          "duration": 0.182497,
          "velocity": 0.96063
        },
        {
          "time": 574.427831,
          "name": "F#4",
          "midi": 66,
          "duration": 0.192935,
          "velocity": 0.88189
        },
        {
          "time": 574.427831,
          "name": "C4",
          "midi": 60,
          "duration": 0.192935,
          "velocity": 0.88189
        },
        {
          "time": 574.434283,
          "name": "F#4",
          "midi": 66,
          "duration": 0.192525,
          "velocity": 0.88189
        },
        {
          "time": 574.434283,
          "name": "A3",
          "midi": 57,
          "duration": 0.192525,
          "velocity": 0.88189
        },
        {
          "time": 574.437509,
          "name": "F#4",
          "midi": 66,
          "duration": 0.192321,
          "velocity": 0.88189
        },
        {
          "time": 574.437509,
          "name": "C4",
          "midi": 60,
          "duration": 0.192321,
          "velocity": 0.88189
        },
        {
          "time": 574.437509,
          "name": "A3",
          "midi": 57,
          "duration": 0.192321,
          "velocity": 0.96063
        },
        {
          "time": 574.437509,
          "name": "D4",
          "midi": 62,
          "duration": 0.192321,
          "velocity": 0.96063
        },
        {
          "time": 574.802035,
          "name": "F#4",
          "midi": 66,
          "duration": 0.181883,
          "velocity": 0.88189
        },
        {
          "time": 574.802035,
          "name": "C4",
          "midi": 60,
          "duration": 0.181883,
          "velocity": 0.88189
        },
        {
          "time": 574.808077,
          "name": "F#4",
          "midi": 66,
          "duration": 0.182292,
          "velocity": 0.88189
        },
        {
          "time": 574.808077,
          "name": "A3",
          "midi": 57,
          "duration": 0.182292,
          "velocity": 0.88189
        },
        {
          "time": 574.811098,
          "name": "F#4",
          "midi": 66,
          "duration": 0.182497,
          "velocity": 0.88189
        },
        {
          "time": 574.811098,
          "name": "C4",
          "midi": 60,
          "duration": 0.182497,
          "velocity": 0.88189
        },
        {
          "time": 574.811098,
          "name": "A3",
          "midi": 57,
          "duration": 0.182497,
          "velocity": 0.96063
        },
        {
          "time": 574.811098,
          "name": "D4",
          "midi": 62,
          "duration": 0.182497,
          "velocity": 0.96063
        },
        {
          "time": 575.177466,
          "name": "G4",
          "midi": 67,
          "duration": 0.192935,
          "velocity": 0.88189
        },
        {
          "time": 575.177466,
          "name": "G3",
          "midi": 55,
          "duration": 0.192935,
          "velocity": 0.88189
        },
        {
          "time": 575.183918,
          "name": "B4",
          "midi": 71,
          "duration": 0.192525,
          "velocity": 0.88189
        },
        {
          "time": 575.183918,
          "name": "D4",
          "midi": 62,
          "duration": 0.192525,
          "velocity": 0.88189
        },
        {
          "time": 575.183918,
          "name": "G3",
          "midi": 55,
          "duration": 0.192525,
          "velocity": 0.88189
        },
        {
          "time": 575.187144,
          "name": "G4",
          "midi": 67,
          "duration": 0.192321,
          "velocity": 0.88189
        },
        {
          "time": 575.187144,
          "name": "G3",
          "midi": 55,
          "duration": 0.192321,
          "velocity": 0.88189
        },
        {
          "time": 575.187144,
          "name": "B3",
          "midi": 59,
          "duration": 0.192321,
          "velocity": 0.96063
        },
        {
          "time": 575.187144,
          "name": "D4",
          "midi": 62,
          "duration": 0.192321,
          "velocity": 0.96063
        },
        {
          "time": 575.55167,
          "name": "B4",
          "midi": 71,
          "duration": 0.181883,
          "velocity": 0.88189
        },
        {
          "time": 575.55167,
          "name": "D4",
          "midi": 62,
          "duration": 0.181883,
          "velocity": 0.88189
        },
        {
          "time": 575.557712,
          "name": "B4",
          "midi": 71,
          "duration": 0.182292,
          "velocity": 0.88189
        },
        {
          "time": 575.557712,
          "name": "D4",
          "midi": 62,
          "duration": 0.182292,
          "velocity": 0.88189
        },
        {
          "time": 575.557712,
          "name": "G3",
          "midi": 55,
          "duration": 0.182292,
          "velocity": 0.88189
        },
        {
          "time": 575.560733,
          "name": "B4",
          "midi": 71,
          "duration": 0.182497,
          "velocity": 0.88189
        },
        {
          "time": 575.560733,
          "name": "D4",
          "midi": 62,
          "duration": 0.182497,
          "velocity": 0.88189
        },
        {
          "time": 575.560733,
          "name": "B3",
          "midi": 59,
          "duration": 0.182497,
          "velocity": 0.96063
        },
        {
          "time": 575.560733,
          "name": "D4",
          "midi": 62,
          "duration": 0.182497,
          "velocity": 0.96063
        },
        {
          "time": 575.927101,
          "name": "B4",
          "midi": 71,
          "duration": 0.192935,
          "velocity": 0.88189
        },
        {
          "time": 575.927101,
          "name": "D4",
          "midi": 62,
          "duration": 0.192935,
          "velocity": 0.88189
        },
        {
          "time": 575.933553,
          "name": "B4",
          "midi": 71,
          "duration": 0.192525,
          "velocity": 0.88189
        },
        {
          "time": 575.933553,
          "name": "D4",
          "midi": 62,
          "duration": 0.192525,
          "velocity": 0.88189
        },
        {
          "time": 575.933553,
          "name": "G3",
          "midi": 55,
          "duration": 0.192525,
          "velocity": 0.88189
        },
        {
          "time": 575.936779,
          "name": "B4",
          "midi": 71,
          "duration": 0.192321,
          "velocity": 0.88189
        },
        {
          "time": 575.936779,
          "name": "D4",
          "midi": 62,
          "duration": 0.192321,
          "velocity": 0.88189
        },
        {
          "time": 575.936779,
          "name": "D4",
          "midi": 62,
          "duration": 0.192321,
          "velocity": 0.96063
        },
        {
          "time": 575.936779,
          "name": "B3",
          "midi": 59,
          "duration": 0.192321,
          "velocity": 0.96063
        },
        {
          "time": 576.301305,
          "name": "G4",
          "midi": 67,
          "duration": 0.181883,
          "velocity": 0.88189
        },
        {
          "time": 576.301305,
          "name": "G3",
          "midi": 55,
          "duration": 0.181883,
          "velocity": 0.88189
        },
        {
          "time": 576.307347,
          "name": "B4",
          "midi": 71,
          "duration": 0.182292,
          "velocity": 0.88189
        },
        {
          "time": 576.307347,
          "name": "D4",
          "midi": 62,
          "duration": 0.182292,
          "velocity": 0.88189
        },
        {
          "time": 576.307347,
          "name": "G3",
          "midi": 55,
          "duration": 0.182292,
          "velocity": 0.88189
        },
        {
          "time": 576.310368,
          "name": "G4",
          "midi": 67,
          "duration": 0.182497,
          "velocity": 0.88189
        },
        {
          "time": 576.310368,
          "name": "G3",
          "midi": 55,
          "duration": 0.182497,
          "velocity": 0.88189
        },
        {
          "time": 576.310368,
          "name": "D4",
          "midi": 62,
          "duration": 0.182497,
          "velocity": 0.96063
        },
        {
          "time": 576.310368,
          "name": "B3",
          "midi": 59,
          "duration": 0.182497,
          "velocity": 0.96063
        },
        {
          "time": 576.676736,
          "name": "G4",
          "midi": 67,
          "duration": 0.192935,
          "velocity": 0.88189
        },
        {
          "time": 576.676736,
          "name": "A3",
          "midi": 57,
          "duration": 0.192935,
          "velocity": 0.88189
        },
        {
          "time": 576.683188,
          "name": "G4",
          "midi": 67,
          "duration": 0.192525,
          "velocity": 0.88189
        },
        {
          "time": 576.683188,
          "name": "A3",
          "midi": 57,
          "duration": 0.192525,
          "velocity": 0.88189
        },
        {
          "time": 576.686414,
          "name": "G4",
          "midi": 67,
          "duration": 0.192321,
          "velocity": 0.88189
        },
        {
          "time": 576.686414,
          "name": "A3",
          "midi": 57,
          "duration": 0.192321,
          "velocity": 0.88189
        },
        {
          "time": 576.686414,
          "name": "E4",
          "midi": 64,
          "duration": 0.192321,
          "velocity": 0.96063
        },
        {
          "time": 576.686414,
          "name": "C#4",
          "midi": 61,
          "duration": 0.192321,
          "velocity": 0.96063
        },
        {
          "time": 577.05094,
          "name": "G4",
          "midi": 67,
          "duration": 0.181883,
          "velocity": 0.88189
        },
        {
          "time": 577.05094,
          "name": "A3",
          "midi": 57,
          "duration": 0.181883,
          "velocity": 0.88189
        },
        {
          "time": 577.056982,
          "name": "G4",
          "midi": 67,
          "duration": 0.182292,
          "velocity": 0.88189
        },
        {
          "time": 577.056982,
          "name": "A3",
          "midi": 57,
          "duration": 0.182292,
          "velocity": 0.88189
        },
        {
          "time": 577.060003,
          "name": "G4",
          "midi": 67,
          "duration": 0.182497,
          "velocity": 0.88189
        },
        {
          "time": 577.060003,
          "name": "A3",
          "midi": 57,
          "duration": 0.182497,
          "velocity": 0.88189
        },
        {
          "time": 577.060003,
          "name": "E4",
          "midi": 64,
          "duration": 0.182497,
          "velocity": 0.96063
        },
        {
          "time": 577.060003,
          "name": "C#4",
          "midi": 61,
          "duration": 0.182497,
          "velocity": 0.96063
        },
        {
          "time": 577.426371,
          "name": "G4",
          "midi": 67,
          "duration": 0.192935,
          "velocity": 0.88189
        },
        {
          "time": 577.426371,
          "name": "A3",
          "midi": 57,
          "duration": 0.192935,
          "velocity": 0.88189
        },
        {
          "time": 577.432823,
          "name": "A3",
          "midi": 57,
          "duration": 0.192525,
          "velocity": 0.88189
        },
        {
          "time": 577.432823,
          "name": "G4",
          "midi": 67,
          "duration": 0.192525,
          "velocity": 0.88189
        },
        {
          "time": 577.436049,
          "name": "G4",
          "midi": 67,
          "duration": 0.192321,
          "velocity": 0.88189
        },
        {
          "time": 577.436049,
          "name": "A3",
          "midi": 57,
          "duration": 0.192321,
          "velocity": 0.88189
        },
        {
          "time": 577.436049,
          "name": "E4",
          "midi": 64,
          "duration": 0.192321,
          "velocity": 0.96063
        },
        {
          "time": 577.436049,
          "name": "C#4",
          "midi": 61,
          "duration": 0.192321,
          "velocity": 0.96063
        },
        {
          "time": 577.800575,
          "name": "A4",
          "midi": 69,
          "duration": 0.181883,
          "velocity": 0.88189
        },
        {
          "time": 577.800575,
          "name": "A3",
          "midi": 57,
          "duration": 0.181883,
          "velocity": 0.88189
        },
        {
          "time": 577.806617,
          "name": "A3",
          "midi": 57,
          "duration": 0.182292,
          "velocity": 0.88189
        },
        {
          "time": 577.806617,
          "name": "G4",
          "midi": 67,
          "duration": 0.182292,
          "velocity": 0.88189
        },
        {
          "time": 577.809638,
          "name": "A4",
          "midi": 69,
          "duration": 0.182497,
          "velocity": 0.88189
        },
        {
          "time": 577.809638,
          "name": "A3",
          "midi": 57,
          "duration": 0.182497,
          "velocity": 0.88189
        },
        {
          "time": 577.809638,
          "name": "G4",
          "midi": 67,
          "duration": 0.182497,
          "velocity": 0.96063
        },
        {
          "time": 577.809638,
          "name": "C#4",
          "midi": 61,
          "duration": 0.182497,
          "velocity": 0.96063
        },
        {
          "time": 578.176006,
          "name": "A4",
          "midi": 69,
          "duration": 0.192935,
          "velocity": 0.88189
        },
        {
          "time": 578.176006,
          "name": "A3",
          "midi": 57,
          "duration": 0.192935,
          "velocity": 0.88189
        },
        {
          "time": 578.182458,
          "name": "A4",
          "midi": 69,
          "duration": 0.192525,
          "velocity": 0.88189
        },
        {
          "time": 578.182458,
          "name": "F#4",
          "midi": 66,
          "duration": 0.192525,
          "velocity": 0.88189
        },
        {
          "time": 578.182458,
          "name": "A3",
          "midi": 57,
          "duration": 0.192525,
          "velocity": 0.88189
        },
        {
          "time": 578.185684,
          "name": "A4",
          "midi": 69,
          "duration": 0.192321,
          "velocity": 0.88189
        },
        {
          "time": 578.185684,
          "name": "A3",
          "midi": 57,
          "duration": 0.192321,
          "velocity": 0.88189
        },
        {
          "time": 578.185684,
          "name": "F#4",
          "midi": 66,
          "duration": 0.192321,
          "velocity": 0.96063
        },
        {
          "time": 578.185684,
          "name": "D4",
          "midi": 62,
          "duration": 0.192321,
          "velocity": 0.96063
        },
        {
          "time": 578.55021,
          "name": "A4",
          "midi": 69,
          "duration": 0.181883,
          "velocity": 0.88189
        },
        {
          "time": 578.55021,
          "name": "A3",
          "midi": 57,
          "duration": 0.181883,
          "velocity": 0.88189
        },
        {
          "time": 578.556252,
          "name": "A4",
          "midi": 69,
          "duration": 0.182292,
          "velocity": 0.88189
        },
        {
          "time": 578.556252,
          "name": "F#4",
          "midi": 66,
          "duration": 0.182292,
          "velocity": 0.88189
        },
        {
          "time": 578.556252,
          "name": "A3",
          "midi": 57,
          "duration": 0.182292,
          "velocity": 0.88189
        },
        {
          "time": 578.559273,
          "name": "A4",
          "midi": 69,
          "duration": 0.182497,
          "velocity": 0.88189
        },
        {
          "time": 578.559273,
          "name": "A3",
          "midi": 57,
          "duration": 0.182497,
          "velocity": 0.88189
        },
        {
          "time": 578.559273,
          "name": "F#4",
          "midi": 66,
          "duration": 0.182497,
          "velocity": 0.96063
        },
        {
          "time": 578.559273,
          "name": "D4",
          "midi": 62,
          "duration": 0.182497,
          "velocity": 0.96063
        },
        {
          "time": 578.732093,
          "name": "A4",
          "midi": 69,
          "duration": 0.193549,
          "velocity": 0.88189
        },
        {
          "time": 578.732093,
          "name": "A3",
          "midi": 57,
          "duration": 0.193549,
          "velocity": 0.88189
        },
        {
          "time": 578.738544,
          "name": "A4",
          "midi": 69,
          "duration": 0.193549,
          "velocity": 0.88189
        },
        {
          "time": 578.738544,
          "name": "F#4",
          "midi": 66,
          "duration": 0.193549,
          "velocity": 0.88189
        },
        {
          "time": 578.738544,
          "name": "A3",
          "midi": 57,
          "duration": 0.193549,
          "velocity": 0.88189
        },
        {
          "time": 578.74177,
          "name": "A4",
          "midi": 69,
          "duration": 0.193549,
          "velocity": 0.88189
        },
        {
          "time": 578.74177,
          "name": "A3",
          "midi": 57,
          "duration": 0.193549,
          "velocity": 0.88189
        },
        {
          "time": 578.74177,
          "name": "F#4",
          "midi": 66,
          "duration": 0.193549,
          "velocity": 0.96063
        },
        {
          "time": 578.74177,
          "name": "D4",
          "midi": 62,
          "duration": 0.193549,
          "velocity": 0.96063
        },
        {
          "time": 578.932093,
          "name": "D4",
          "midi": 62,
          "duration": 0.174194,
          "velocity": 0.88189
        },
        {
          "time": 579.124618,
          "name": "D3",
          "midi": 50,
          "duration": 0.163142,
          "velocity": 0.88189
        },
        {
          "time": 579.681728,
          "name": "D4",
          "midi": 62,
          "duration": 0.192525,
          "velocity": 0.88189
        },
        {
          "time": 579.684954,
          "name": "A3",
          "midi": 57,
          "duration": 0.192321,
          "velocity": 0.88189
        },
        {
          "time": 579.684954,
          "name": "F#3",
          "midi": 54,
          "duration": 0.192321,
          "velocity": 0.88189
        },
        {
          "time": 579.874253,
          "name": "D5",
          "midi": 74,
          "duration": 0.181269,
          "velocity": 0.88189
        },
        {
          "time": 579.877274,
          "name": "C4",
          "midi": 60,
          "duration": 0.363766,
          "velocity": 0.88189
        },
        {
          "time": 579.877274,
          "name": "A3",
          "midi": 57,
          "duration": 0.363766,
          "velocity": 0.88189
        },
        {
          "time": 580.431363,
          "name": "D4",
          "midi": 62,
          "duration": 0.192525,
          "velocity": 0.88189
        },
        {
          "time": 580.434589,
          "name": "G#3",
          "midi": 56,
          "duration": 0.192321,
          "velocity": 0.88189
        },
        {
          "time": 580.434589,
          "name": "F3",
          "midi": 53,
          "duration": 0.192321,
          "velocity": 0.88189
        },
        {
          "time": 580.623888,
          "name": "D5",
          "midi": 74,
          "duration": 0.181269,
          "velocity": 0.88189
        },
        {
          "time": 580.626909,
          "name": "B3",
          "midi": 59,
          "duration": 0.363766,
          "velocity": 0.88189
        },
        {
          "time": 580.626909,
          "name": "G#3",
          "midi": 56,
          "duration": 0.363766,
          "velocity": 0.88189
        },
        {
          "time": 581.180998,
          "name": "D4",
          "midi": 62,
          "duration": 0.192525,
          "velocity": 0.88189
        },
        {
          "time": 581.184224,
          "name": "A3",
          "midi": 57,
          "duration": 0.192321,
          "velocity": 0.88189
        },
        {
          "time": 581.184224,
          "name": "F#3",
          "midi": 54,
          "duration": 0.192321,
          "velocity": 0.88189
        },
        {
          "time": 581.373523,
          "name": "D5",
          "midi": 74,
          "duration": 0.181269,
          "velocity": 0.88189
        },
        {
          "time": 581.376544,
          "name": "C4",
          "midi": 60,
          "duration": 0.363766,
          "velocity": 0.88189
        },
        {
          "time": 581.376544,
          "name": "A3",
          "midi": 57,
          "duration": 0.363766,
          "velocity": 0.88189
        },
        {
          "time": 581.930633,
          "name": "D4",
          "midi": 62,
          "duration": 0.192525,
          "velocity": 0.88189
        },
        {
          "time": 582.123158,
          "name": "D5",
          "midi": 74,
          "duration": 0.181269,
          "velocity": 0.88189
        },
        {
          "time": 582.673816,
          "name": "C4",
          "midi": 60,
          "duration": 0.192935,
          "velocity": 0.88189
        },
        {
          "time": 582.673816,
          "name": "A3",
          "midi": 57,
          "duration": 0.192935,
          "velocity": 0.88189
        },
        {
          "time": 582.680268,
          "name": "D4",
          "midi": 62,
          "duration": 0.192525,
          "velocity": 0.88189
        },
        {
          "time": 582.866751,
          "name": "E4",
          "midi": 64,
          "duration": 0.181269,
          "velocity": 0.88189
        },
        {
          "time": 582.866751,
          "name": "C4",
          "midi": 60,
          "duration": 0.181269,
          "velocity": 0.88189
        },
        {
          "time": 582.872793,
          "name": "D5",
          "midi": 74,
          "duration": 0.181269,
          "velocity": 0.88189
        },
        {
          "time": 583.423451,
          "name": "B3",
          "midi": 59,
          "duration": 0.192935,
          "velocity": 0.88189
        },
        {
          "time": 583.423451,
          "name": "G#3",
          "midi": 56,
          "duration": 0.192935,
          "velocity": 0.88189
        },
        {
          "time": 583.429903,
          "name": "D4",
          "midi": 62,
          "duration": 0.192525,
          "velocity": 0.88189
        },
        {
          "time": 583.616386,
          "name": "D4",
          "midi": 62,
          "duration": 0.181269,
          "velocity": 0.88189
        },
        {
          "time": 583.616386,
          "name": "B3",
          "midi": 59,
          "duration": 0.181269,
          "velocity": 0.88189
        },
        {
          "time": 583.622428,
          "name": "D5",
          "midi": 74,
          "duration": 0.181269,
          "velocity": 0.88189
        },
        {
          "time": 584.173086,
          "name": "A3",
          "midi": 57,
          "duration": 0.192935,
          "velocity": 0.88189
        },
        {
          "time": 584.173086,
          "name": "F#3",
          "midi": 54,
          "duration": 0.192935,
          "velocity": 0.88189
        },
        {
          "time": 584.179538,
          "name": "D4",
          "midi": 62,
          "duration": 0.192525,
          "velocity": 0.88189
        },
        {
          "time": 584.366021,
          "name": "C4",
          "midi": 60,
          "duration": 0.181269,
          "velocity": 0.88189
        },
        {
          "time": 584.366021,
          "name": "A3",
          "midi": 57,
          "duration": 0.181269,
          "velocity": 0.88189
        },
        {
          "time": 584.372063,
          "name": "D5",
          "midi": 74,
          "duration": 0.181269,
          "velocity": 0.88189
        },
        {
          "time": 584.929173,
          "name": "D4",
          "midi": 62,
          "duration": 0.192525,
          "velocity": 0.88189
        },
        {
          "time": 585.121698,
          "name": "D5",
          "midi": 74,
          "duration": 0.181269,
          "velocity": 0.88189
        },
        {
          "time": 585.678808,
          "name": "D4",
          "midi": 62,
          "duration": 0.192525,
          "velocity": 0.88189
        },
        {
          "time": 585.682034,
          "name": "A3",
          "midi": 57,
          "duration": 0.192321,
          "velocity": 0.88189
        },
        {
          "time": 585.682034,
          "name": "F#3",
          "midi": 54,
          "duration": 0.192321,
          "velocity": 0.88189
        },
        {
          "time": 585.871333,
          "name": "D5",
          "midi": 74,
          "duration": 0.181269,
          "velocity": 0.88189
        },
        {
          "time": 585.874354,
          "name": "C4",
          "midi": 60,
          "duration": 0.363766,
          "velocity": 0.88189
        },
        {
          "time": 585.874354,
          "name": "A3",
          "midi": 57,
          "duration": 0.363766,
          "velocity": 0.88189
        },
        {
          "time": 586.428443,
          "name": "D4",
          "midi": 62,
          "duration": 0.192525,
          "velocity": 0.88189
        },
        {
          "time": 586.431669,
          "name": "G#3",
          "midi": 56,
          "duration": 0.192321,
          "velocity": 0.88189
        },
        {
          "time": 586.431669,
          "name": "F3",
          "midi": 53,
          "duration": 0.192321,
          "velocity": 0.88189
        },
        {
          "time": 586.620968,
          "name": "D5",
          "midi": 74,
          "duration": 0.181269,
          "velocity": 0.88189
        },
        {
          "time": 586.623989,
          "name": "B3",
          "midi": 59,
          "duration": 0.363766,
          "velocity": 0.88189
        },
        {
          "time": 586.623989,
          "name": "G#3",
          "midi": 56,
          "duration": 0.363766,
          "velocity": 0.88189
        },
        {
          "time": 587.178078,
          "name": "D4",
          "midi": 62,
          "duration": 0.192525,
          "velocity": 0.88189
        },
        {
          "time": 587.181304,
          "name": "A3",
          "midi": 57,
          "duration": 0.192321,
          "velocity": 0.88189
        },
        {
          "time": 587.181304,
          "name": "F#3",
          "midi": 54,
          "duration": 0.192321,
          "velocity": 0.88189
        },
        {
          "time": 587.370603,
          "name": "D5",
          "midi": 74,
          "duration": 0.181269,
          "velocity": 0.88189
        },
        {
          "time": 587.373624,
          "name": "C4",
          "midi": 60,
          "duration": 0.363766,
          "velocity": 0.88189
        },
        {
          "time": 587.373624,
          "name": "A3",
          "midi": 57,
          "duration": 0.363766,
          "velocity": 0.88189
        },
        {
          "time": 587.927713,
          "name": "D4",
          "midi": 62,
          "duration": 0.192525,
          "velocity": 0.88189
        },
        {
          "time": 588.120238,
          "name": "D5",
          "midi": 74,
          "duration": 0.181269,
          "velocity": 0.88189
        },
        {
          "time": 588.670896,
          "name": "C4",
          "midi": 60,
          "duration": 0.192935,
          "velocity": 0.88189
        },
        {
          "time": 588.670896,
          "name": "A3",
          "midi": 57,
          "duration": 0.192935,
          "velocity": 0.88189
        },
        {
          "time": 588.677348,
          "name": "D4",
          "midi": 62,
          "duration": 0.192525,
          "velocity": 0.88189
        },
        {
          "time": 588.863831,
          "name": "E4",
          "midi": 64,
          "duration": 0.181269,
          "velocity": 0.88189
        },
        {
          "time": 588.863831,
          "name": "C4",
          "midi": 60,
          "duration": 0.181269,
          "velocity": 0.88189
        },
        {
          "time": 588.869873,
          "name": "D5",
          "midi": 74,
          "duration": 0.181269,
          "velocity": 0.88189
        },
        {
          "time": 589.420531,
          "name": "B3",
          "midi": 59,
          "duration": 0.192935,
          "velocity": 0.88189
        },
        {
          "time": 589.420531,
          "name": "G#3",
          "midi": 56,
          "duration": 0.192935,
          "velocity": 0.88189
        },
        {
          "time": 589.426983,
          "name": "D4",
          "midi": 62,
          "duration": 0.192525,
          "velocity": 0.88189
        },
        {
          "time": 589.613466,
          "name": "D4",
          "midi": 62,
          "duration": 0.181269,
          "velocity": 0.88189
        },
        {
          "time": 589.613466,
          "name": "B3",
          "midi": 59,
          "duration": 0.181269,
          "velocity": 0.88189
        },
        {
          "time": 589.619508,
          "name": "D5",
          "midi": 74,
          "duration": 0.181269,
          "velocity": 0.88189
        },
        {
          "time": 590.170166,
          "name": "A3",
          "midi": 57,
          "duration": 0.192935,
          "velocity": 0.88189
        },
        {
          "time": 590.170166,
          "name": "F#3",
          "midi": 54,
          "duration": 0.192935,
          "velocity": 0.88189
        },
        {
          "time": 590.176618,
          "name": "D4",
          "midi": 62,
          "duration": 0.192525,
          "velocity": 0.88189
        },
        {
          "time": 590.363101,
          "name": "C4",
          "midi": 60,
          "duration": 0.181269,
          "velocity": 0.88189
        },
        {
          "time": 590.363101,
          "name": "A3",
          "midi": 57,
          "duration": 0.181269,
          "velocity": 0.88189
        },
        {
          "time": 590.369143,
          "name": "D5",
          "midi": 74,
          "duration": 0.181269,
          "velocity": 0.88189
        },
        {
          "time": 590.926253,
          "name": "D3",
          "midi": 50,
          "duration": 0.192525,
          "velocity": 0.88189
        },
        {
          "time": 591.118778,
          "name": "D4",
          "midi": 62,
          "duration": 0.181269,
          "velocity": 0.88189
        },
        {
          "time": 591.300047,
          "name": "F#4",
          "midi": 66,
          "duration": 0.182292,
          "velocity": 0.88189
        },
        {
          "time": 591.475888,
          "name": "D4",
          "midi": 62,
          "duration": 1.49927,
          "velocity": 0.88189
        },
        {
          "time": 591.482339,
          "name": "A4",
          "midi": 69,
          "duration": 0.193549,
          "velocity": 0.88189
        },
        {
          "time": 591.485565,
          "name": "F#3",
          "midi": 54,
          "duration": 0.385869,
          "velocity": 0.88189
        },
        {
          "time": 591.485565,
          "name": "F#3",
          "midi": 54,
          "duration": 0.385869,
          "velocity": 0.96063
        },
        {
          "time": 591.675888,
          "name": "C5",
          "midi": 72,
          "duration": 0.192525,
          "velocity": 0.88189
        },
        {
          "time": 591.868413,
          "name": "B4",
          "midi": 71,
          "duration": 0.181269,
          "velocity": 0.88189
        },
        {
          "time": 591.871434,
          "name": "G3",
          "midi": 55,
          "duration": 0.363766,
          "velocity": 0.88189
        },
        {
          "time": 591.871434,
          "name": "G3",
          "midi": 55,
          "duration": 0.363766,
          "velocity": 0.96063
        },
        {
          "time": 592.049682,
          "name": "G4",
          "midi": 67,
          "duration": 0.182292,
          "velocity": 0.88189
        },
        {
          "time": 592.231974,
          "name": "F#4",
          "midi": 66,
          "duration": 0.193549,
          "velocity": 0.88189
        },
        {
          "time": 592.2352,
          "name": "A3",
          "midi": 57,
          "duration": 0.385869,
          "velocity": 0.88189
        },
        {
          "time": 592.2352,
          "name": "A3",
          "midi": 57,
          "duration": 0.385869,
          "velocity": 0.96063
        },
        {
          "time": 592.425523,
          "name": "A4",
          "midi": 69,
          "duration": 0.192525,
          "velocity": 0.88189
        },
        {
          "time": 592.618048,
          "name": "G4",
          "midi": 67,
          "duration": 0.181269,
          "velocity": 0.88189
        },
        {
          "time": 592.621069,
          "name": "B3",
          "midi": 59,
          "duration": 0.363766,
          "velocity": 0.88189
        },
        {
          "time": 592.621069,
          "name": "B3",
          "midi": 59,
          "duration": 0.363766,
          "velocity": 0.96063
        },
        {
          "time": 592.799317,
          "name": "E4",
          "midi": 64,
          "duration": 0.182292,
          "velocity": 0.88189
        },
        {
          "time": 592.975158,
          "name": "D4",
          "midi": 62,
          "duration": 1.49927,
          "velocity": 0.88189
        },
        {
          "time": 592.981609,
          "name": "D4",
          "midi": 62,
          "duration": 0.193549,
          "velocity": 0.88189
        },
        {
          "time": 592.984835,
          "name": "C4",
          "midi": 60,
          "duration": 0.385869,
          "velocity": 0.88189
        },
        {
          "time": 592.984835,
          "name": "C4",
          "midi": 60,
          "duration": 0.385869,
          "velocity": 0.96063
        },
        {
          "time": 593.175158,
          "name": "F#4",
          "midi": 66,
          "duration": 0.192525,
          "velocity": 0.88189
        },
        {
          "time": 593.367683,
          "name": "E4",
          "midi": 64,
          "duration": 0.181269,
          "velocity": 0.88189
        },
        {
          "time": 593.370704,
          "name": "B3",
          "midi": 59,
          "duration": 0.363766,
          "velocity": 0.88189
        },
        {
          "time": 593.370704,
          "name": "B3",
          "midi": 59,
          "duration": 0.363766,
          "velocity": 0.96063
        },
        {
          "time": 593.548952,
          "name": "G4",
          "midi": 67,
          "duration": 0.182292,
          "velocity": 0.88189
        },
        {
          "time": 593.731244,
          "name": "F#4",
          "midi": 66,
          "duration": 0.193549,
          "velocity": 0.88189
        },
        {
          "time": 593.73447,
          "name": "A3",
          "midi": 57,
          "duration": 0.385869,
          "velocity": 0.88189
        },
        {
          "time": 593.73447,
          "name": "A3",
          "midi": 57,
          "duration": 0.385869,
          "velocity": 0.96063
        },
        {
          "time": 593.924793,
          "name": "A4",
          "midi": 69,
          "duration": 0.192525,
          "velocity": 0.88189
        },
        {
          "time": 594.117318,
          "name": "G4",
          "midi": 67,
          "duration": 0.181269,
          "velocity": 0.88189
        },
        {
          "time": 594.120339,
          "name": "G3",
          "midi": 55,
          "duration": 0.363766,
          "velocity": 0.88189
        },
        {
          "time": 594.120339,
          "name": "G3",
          "midi": 55,
          "duration": 0.363766,
          "velocity": 0.96063
        },
        {
          "time": 594.298587,
          "name": "B4",
          "midi": 71,
          "duration": 0.182292,
          "velocity": 0.88189
        },
        {
          "time": 594.474428,
          "name": "D4",
          "midi": 62,
          "duration": 1.692819,
          "velocity": 0.88189
        },
        {
          "time": 594.480879,
          "name": "A4",
          "midi": 69,
          "duration": 0.193549,
          "velocity": 0.88189
        },
        {
          "time": 594.484105,
          "name": "F#3",
          "midi": 54,
          "duration": 0.385869,
          "velocity": 0.88189
        },
        {
          "time": 594.484105,
          "name": "F#3",
          "midi": 54,
          "duration": 0.385869,
          "velocity": 0.96063
        },
        {
          "time": 594.674428,
          "name": "C5",
          "midi": 72,
          "duration": 0.192525,
          "velocity": 0.88189
        },
        {
          "time": 594.866953,
          "name": "B4",
          "midi": 71,
          "duration": 0.181269,
          "velocity": 0.88189
        },
        {
          "time": 594.869974,
          "name": "G3",
          "midi": 55,
          "duration": 0.363766,
          "velocity": 0.88189
        },
        {
          "time": 594.869974,
          "name": "G3",
          "midi": 55,
          "duration": 0.363766,
          "velocity": 0.96063
        },
        {
          "time": 595.048222,
          "name": "G4",
          "midi": 67,
          "duration": 0.182292,
          "velocity": 0.88189
        },
        {
          "time": 595.230514,
          "name": "F#4",
          "midi": 66,
          "duration": 0.193549,
          "velocity": 0.88189
        },
        {
          "time": 595.23374,
          "name": "A3",
          "midi": 57,
          "duration": 0.385869,
          "velocity": 0.88189
        },
        {
          "time": 595.23374,
          "name": "A3",
          "midi": 57,
          "duration": 0.385869,
          "velocity": 0.96063
        },
        {
          "time": 595.424063,
          "name": "A4",
          "midi": 69,
          "duration": 0.192525,
          "velocity": 0.88189
        },
        {
          "time": 595.616588,
          "name": "G4",
          "midi": 67,
          "duration": 0.181269,
          "velocity": 0.88189
        },
        {
          "time": 595.619609,
          "name": "B3",
          "midi": 59,
          "duration": 0.181269,
          "velocity": 0.88189
        },
        {
          "time": 595.619609,
          "name": "B3",
          "midi": 59,
          "duration": 0.181269,
          "velocity": 0.96063
        },
        {
          "time": 595.797857,
          "name": "E4",
          "midi": 64,
          "duration": 0.182292,
          "velocity": 0.88189
        },
        {
          "time": 595.800878,
          "name": "C#4",
          "midi": 61,
          "duration": 0.182497,
          "velocity": 0.88189
        },
        {
          "time": 595.800878,
          "name": "C#4",
          "midi": 61,
          "duration": 0.182497,
          "velocity": 0.96063
        },
        {
          "time": 595.980149,
          "name": "D4",
          "midi": 62,
          "duration": 0.193549,
          "velocity": 0.88189
        },
        {
          "time": 595.983375,
          "name": "D4",
          "midi": 62,
          "duration": 0.193549,
          "velocity": 0.88189
        },
        {
          "time": 595.983375,
          "name": "D4",
          "midi": 62,
          "duration": 0.193549,
          "velocity": 0.96063
        },
        {
          "time": 597.666516,
          "name": "G4",
          "midi": 67,
          "duration": 0.192935,
          "velocity": 0.88189
        },
        {
          "time": 597.666516,
          "name": "G3",
          "midi": 55,
          "duration": 0.192935,
          "velocity": 0.88189
        },
        {
          "time": 597.672968,
          "name": "B4",
          "midi": 71,
          "duration": 0.192525,
          "velocity": 0.88189
        },
        {
          "time": 597.672968,
          "name": "D4",
          "midi": 62,
          "duration": 0.192525,
          "velocity": 0.88189
        },
        {
          "time": 597.672968,
          "name": "G3",
          "midi": 55,
          "duration": 0.192525,
          "velocity": 0.88189
        },
        {
          "time": 597.676194,
          "name": "G4",
          "midi": 67,
          "duration": 0.192321,
          "velocity": 0.88189
        },
        {
          "time": 597.676194,
          "name": "G3",
          "midi": 55,
          "duration": 0.192321,
          "velocity": 0.88189
        },
        {
          "time": 597.676194,
          "name": "D4",
          "midi": 62,
          "duration": 0.192321,
          "velocity": 0.96063
        },
        {
          "time": 597.676194,
          "name": "B3",
          "midi": 59,
          "duration": 0.192321,
          "velocity": 0.96063
        },
        {
          "time": 598.04072,
          "name": "G4",
          "midi": 67,
          "duration": 0.181883,
          "velocity": 0.88189
        },
        {
          "time": 598.04072,
          "name": "G3",
          "midi": 55,
          "duration": 0.181883,
          "velocity": 0.88189
        },
        {
          "time": 598.046762,
          "name": "B4",
          "midi": 71,
          "duration": 0.182292,
          "velocity": 0.88189
        },
        {
          "time": 598.046762,
          "name": "D4",
          "midi": 62,
          "duration": 0.182292,
          "velocity": 0.88189
        },
        {
          "time": 598.046762,
          "name": "G3",
          "midi": 55,
          "duration": 0.182292,
          "velocity": 0.88189
        },
        {
          "time": 598.049783,
          "name": "G4",
          "midi": 67,
          "duration": 0.182497,
          "velocity": 0.88189
        },
        {
          "time": 598.049783,
          "name": "G3",
          "midi": 55,
          "duration": 0.182497,
          "velocity": 0.88189
        },
        {
          "time": 598.049783,
          "name": "D4",
          "midi": 62,
          "duration": 0.182497,
          "velocity": 0.96063
        },
        {
          "time": 598.049783,
          "name": "B3",
          "midi": 59,
          "duration": 0.182497,
          "velocity": 0.96063
        },
        {
          "time": 598.416151,
          "name": "F#4",
          "midi": 66,
          "duration": 0.192935,
          "velocity": 0.88189
        },
        {
          "time": 598.416151,
          "name": "C4",
          "midi": 60,
          "duration": 0.192935,
          "velocity": 0.88189
        },
        {
          "time": 598.422603,
          "name": "F#4",
          "midi": 66,
          "duration": 0.192525,
          "velocity": 0.88189
        },
        {
          "time": 598.422603,
          "name": "A3",
          "midi": 57,
          "duration": 0.192525,
          "velocity": 0.88189
        },
        {
          "time": 598.425829,
          "name": "F#4",
          "midi": 66,
          "duration": 0.192321,
          "velocity": 0.88189
        },
        {
          "time": 598.425829,
          "name": "C4",
          "midi": 60,
          "duration": 0.192321,
          "velocity": 0.88189
        },
        {
          "time": 598.425829,
          "name": "A3",
          "midi": 57,
          "duration": 0.192321,
          "velocity": 0.96063
        },
        {
          "time": 598.425829,
          "name": "D4",
          "midi": 62,
          "duration": 0.192321,
          "velocity": 0.96063
        },
        {
          "time": 598.790355,
          "name": "F#4",
          "midi": 66,
          "duration": 0.181883,
          "velocity": 0.88189
        },
        {
          "time": 598.790355,
          "name": "C4",
          "midi": 60,
          "duration": 0.181883,
          "velocity": 0.88189
        },
        {
          "time": 598.796397,
          "name": "F#4",
          "midi": 66,
          "duration": 0.182292,
          "velocity": 0.88189
        },
        {
          "time": 598.796397,
          "name": "A3",
          "midi": 57,
          "duration": 0.182292,
          "velocity": 0.88189
        },
        {
          "time": 598.799418,
          "name": "F#4",
          "midi": 66,
          "duration": 0.182497,
          "velocity": 0.88189
        },
        {
          "time": 598.799418,
          "name": "C4",
          "midi": 60,
          "duration": 0.182497,
          "velocity": 0.88189
        },
        {
          "time": 598.799418,
          "name": "A3",
          "midi": 57,
          "duration": 0.182497,
          "velocity": 0.96063
        },
        {
          "time": 598.799418,
          "name": "D4",
          "midi": 62,
          "duration": 0.182497,
          "velocity": 0.96063
        },
        {
          "time": 599.165786,
          "name": "G4",
          "midi": 67,
          "duration": 0.192935,
          "velocity": 0.88189
        },
        {
          "time": 599.165786,
          "name": "G3",
          "midi": 55,
          "duration": 0.192935,
          "velocity": 0.88189
        },
        {
          "time": 599.172238,
          "name": "B4",
          "midi": 71,
          "duration": 0.192525,
          "velocity": 0.88189
        },
        {
          "time": 599.172238,
          "name": "D4",
          "midi": 62,
          "duration": 0.192525,
          "velocity": 0.88189
        },
        {
          "time": 599.172238,
          "name": "G3",
          "midi": 55,
          "duration": 0.192525,
          "velocity": 0.88189
        },
        {
          "time": 599.175464,
          "name": "G4",
          "midi": 67,
          "duration": 0.192321,
          "velocity": 0.88189
        },
        {
          "time": 599.175464,
          "name": "G3",
          "midi": 55,
          "duration": 0.192321,
          "velocity": 0.88189
        },
        {
          "time": 599.175464,
          "name": "B3",
          "midi": 59,
          "duration": 0.192321,
          "velocity": 0.96063
        },
        {
          "time": 599.175464,
          "name": "D4",
          "midi": 62,
          "duration": 0.192321,
          "velocity": 0.96063
        },
        {
          "time": 599.53999,
          "name": "B4",
          "midi": 71,
          "duration": 0.181883,
          "velocity": 0.88189
        },
        {
          "time": 599.53999,
          "name": "D4",
          "midi": 62,
          "duration": 0.181883,
          "velocity": 0.88189
        },
        {
          "time": 599.546032,
          "name": "B4",
          "midi": 71,
          "duration": 0.182292,
          "velocity": 0.88189
        },
        {
          "time": 599.546032,
          "name": "D4",
          "midi": 62,
          "duration": 0.182292,
          "velocity": 0.88189
        },
        {
          "time": 599.546032,
          "name": "G3",
          "midi": 55,
          "duration": 0.182292,
          "velocity": 0.88189
        },
        {
          "time": 599.549053,
          "name": "B4",
          "midi": 71,
          "duration": 0.182497,
          "velocity": 0.88189
        },
        {
          "time": 599.549053,
          "name": "D4",
          "midi": 62,
          "duration": 0.182497,
          "velocity": 0.88189
        },
        {
          "time": 599.549053,
          "name": "B3",
          "midi": 59,
          "duration": 0.182497,
          "velocity": 0.96063
        },
        {
          "time": 599.549053,
          "name": "D4",
          "midi": 62,
          "duration": 0.182497,
          "velocity": 0.96063
        },
        {
          "time": 599.915421,
          "name": "B4",
          "midi": 71,
          "duration": 0.192935,
          "velocity": 0.88189
        },
        {
          "time": 599.915421,
          "name": "D4",
          "midi": 62,
          "duration": 0.192935,
          "velocity": 0.88189
        },
        {
          "time": 599.921873,
          "name": "B4",
          "midi": 71,
          "duration": 0.192525,
          "velocity": 0.88189
        },
        {
          "time": 599.921873,
          "name": "D4",
          "midi": 62,
          "duration": 0.192525,
          "velocity": 0.88189
        },
        {
          "time": 599.921873,
          "name": "G3",
          "midi": 55,
          "duration": 0.192525,
          "velocity": 0.88189
        },
        {
          "time": 599.925099,
          "name": "B4",
          "midi": 71,
          "duration": 0.192321,
          "velocity": 0.88189
        },
        {
          "time": 599.925099,
          "name": "D4",
          "midi": 62,
          "duration": 0.192321,
          "velocity": 0.88189
        },
        {
          "time": 599.925099,
          "name": "D4",
          "midi": 62,
          "duration": 0.192321,
          "velocity": 0.96063
        },
        {
          "time": 599.925099,
          "name": "B3",
          "midi": 59,
          "duration": 0.192321,
          "velocity": 0.96063
        },
        {
          "time": 600.289625,
          "name": "G4",
          "midi": 67,
          "duration": 0.181883,
          "velocity": 0.88189
        },
        {
          "time": 600.289625,
          "name": "G3",
          "midi": 55,
          "duration": 0.181883,
          "velocity": 0.88189
        },
        {
          "time": 600.295667,
          "name": "B4",
          "midi": 71,
          "duration": 0.182292,
          "velocity": 0.88189
        },
        {
          "time": 600.295667,
          "name": "D4",
          "midi": 62,
          "duration": 0.182292,
          "velocity": 0.88189
        },
        {
          "time": 600.295667,
          "name": "G3",
          "midi": 55,
          "duration": 0.182292,
          "velocity": 0.88189
        },
        {
          "time": 600.298688,
          "name": "G4",
          "midi": 67,
          "duration": 0.182497,
          "velocity": 0.88189
        },
        {
          "time": 600.298688,
          "name": "G3",
          "midi": 55,
          "duration": 0.182497,
          "velocity": 0.88189
        },
        {
          "time": 600.298688,
          "name": "D4",
          "midi": 62,
          "duration": 0.182497,
          "velocity": 0.96063
        },
        {
          "time": 600.298688,
          "name": "B3",
          "midi": 59,
          "duration": 0.182497,
          "velocity": 0.96063
        },
        {
          "time": 600.665056,
          "name": "C5",
          "midi": 72,
          "duration": 0.192935,
          "velocity": 0.88189
        },
        {
          "time": 600.665056,
          "name": "C4",
          "midi": 60,
          "duration": 0.192935,
          "velocity": 0.88189
        },
        {
          "time": 600.671508,
          "name": "F#4",
          "midi": 66,
          "duration": 0.192525,
          "velocity": 0.88189
        },
        {
          "time": 600.671508,
          "name": "C4",
          "midi": 60,
          "duration": 0.192525,
          "velocity": 0.88189
        },
        {
          "time": 600.674734,
          "name": "C5",
          "midi": 72,
          "duration": 0.192321,
          "velocity": 0.88189
        },
        {
          "time": 600.674734,
          "name": "C4",
          "midi": 60,
          "duration": 0.192321,
          "velocity": 0.88189
        },
        {
          "time": 600.674734,
          "name": "F#4",
          "midi": 66,
          "duration": 0.192321,
          "velocity": 0.96063
        },
        {
          "time": 600.674734,
          "name": "D4",
          "midi": 62,
          "duration": 0.192321,
          "velocity": 0.96063
        },
        {
          "time": 601.03926,
          "name": "C5",
          "midi": 72,
          "duration": 0.181883,
          "velocity": 0.88189
        },
        {
          "time": 601.03926,
          "name": "C4",
          "midi": 60,
          "duration": 0.181883,
          "velocity": 0.88189
        },
        {
          "time": 601.045302,
          "name": "F#4",
          "midi": 66,
          "duration": 0.182292,
          "velocity": 0.88189
        },
        {
          "time": 601.045302,
          "name": "C4",
          "midi": 60,
          "duration": 0.182292,
          "velocity": 0.88189
        },
        {
          "time": 601.048323,
          "name": "C5",
          "midi": 72,
          "duration": 0.182497,
          "velocity": 0.88189
        },
        {
          "time": 601.048323,
          "name": "C4",
          "midi": 60,
          "duration": 0.182497,
          "velocity": 0.88189
        },
        {
          "time": 601.048323,
          "name": "F#4",
          "midi": 66,
          "duration": 0.182497,
          "velocity": 0.96063
        },
        {
          "time": 601.048323,
          "name": "D4",
          "midi": 62,
          "duration": 0.182497,
          "velocity": 0.96063
        },
        {
          "time": 601.414691,
          "name": "C5",
          "midi": 72,
          "duration": 0.192935,
          "velocity": 0.88189
        },
        {
          "time": 601.414691,
          "name": "C4",
          "midi": 60,
          "duration": 0.192935,
          "velocity": 0.88189
        },
        {
          "time": 601.421143,
          "name": "F#4",
          "midi": 66,
          "duration": 0.192525,
          "velocity": 0.88189
        },
        {
          "time": 601.421143,
          "name": "C4",
          "midi": 60,
          "duration": 0.192525,
          "velocity": 0.88189
        },
        {
          "time": 601.424369,
          "name": "C5",
          "midi": 72,
          "duration": 0.192321,
          "velocity": 0.88189
        },
        {
          "time": 601.424369,
          "name": "C4",
          "midi": 60,
          "duration": 0.192321,
          "velocity": 0.88189
        },
        {
          "time": 601.424369,
          "name": "F#4",
          "midi": 66,
          "duration": 0.192321,
          "velocity": 0.96063
        },
        {
          "time": 601.424369,
          "name": "D4",
          "midi": 62,
          "duration": 0.192321,
          "velocity": 0.96063
        },
        {
          "time": 601.788895,
          "name": "C5",
          "midi": 72,
          "duration": 0.181883,
          "velocity": 0.88189
        },
        {
          "time": 601.788895,
          "name": "C4",
          "midi": 60,
          "duration": 0.181883,
          "velocity": 0.88189
        },
        {
          "time": 601.794937,
          "name": "F#4",
          "midi": 66,
          "duration": 0.182292,
          "velocity": 0.88189
        },
        {
          "time": 601.794937,
          "name": "C4",
          "midi": 60,
          "duration": 0.182292,
          "velocity": 0.88189
        },
        {
          "time": 601.797958,
          "name": "C5",
          "midi": 72,
          "duration": 0.182497,
          "velocity": 0.88189
        },
        {
          "time": 601.797958,
          "name": "C4",
          "midi": 60,
          "duration": 0.182497,
          "velocity": 0.88189
        },
        {
          "time": 601.797958,
          "name": "F#4",
          "midi": 66,
          "duration": 0.182497,
          "velocity": 0.96063
        },
        {
          "time": 601.797958,
          "name": "D4",
          "midi": 62,
          "duration": 0.182497,
          "velocity": 0.96063
        },
        {
          "time": 602.164326,
          "name": "B4",
          "midi": 71,
          "duration": 0.192935,
          "velocity": 0.88189
        },
        {
          "time": 602.164326,
          "name": "D4",
          "midi": 62,
          "duration": 0.192935,
          "velocity": 0.88189
        },
        {
          "time": 602.170778,
          "name": "B4",
          "midi": 71,
          "duration": 0.192525,
          "velocity": 0.88189
        },
        {
          "time": 602.170778,
          "name": "D4",
          "midi": 62,
          "duration": 0.192525,
          "velocity": 0.88189
        },
        {
          "time": 602.170778,
          "name": "G3",
          "midi": 55,
          "duration": 0.192525,
          "velocity": 0.88189
        },
        {
          "time": 602.174004,
          "name": "B4",
          "midi": 71,
          "duration": 0.192321,
          "velocity": 0.88189
        },
        {
          "time": 602.174004,
          "name": "D4",
          "midi": 62,
          "duration": 0.192321,
          "velocity": 0.88189
        },
        {
          "time": 602.174004,
          "name": "B3",
          "midi": 59,
          "duration": 0.192321,
          "velocity": 0.96063
        },
        {
          "time": 602.174004,
          "name": "G4",
          "midi": 67,
          "duration": 0.192321,
          "velocity": 0.96063
        },
        {
          "time": 602.53853,
          "name": "G4",
          "midi": 67,
          "duration": 0.181883,
          "velocity": 0.88189
        },
        {
          "time": 602.53853,
          "name": "C#4",
          "midi": 61,
          "duration": 0.181883,
          "velocity": 0.88189
        },
        {
          "time": 602.544572,
          "name": "E4",
          "midi": 64,
          "duration": 0.182292,
          "velocity": 0.88189
        },
        {
          "time": 602.544572,
          "name": "G4",
          "midi": 67,
          "duration": 0.182292,
          "velocity": 0.88189
        },
        {
          "time": 602.547593,
          "name": "G4",
          "midi": 67,
          "duration": 0.182497,
          "velocity": 0.88189
        },
        {
          "time": 602.547593,
          "name": "C#4",
          "midi": 61,
          "duration": 0.182497,
          "velocity": 0.88189
        },
        {
          "time": 602.547593,
          "name": "E4",
          "midi": 64,
          "duration": 0.182497,
          "velocity": 0.96063
        },
        {
          "time": 602.547593,
          "name": "G3",
          "midi": 55,
          "duration": 0.182497,
          "velocity": 0.96063
        },
        {
          "time": 602.913961,
          "name": "G4",
          "midi": 67,
          "duration": 0.192935,
          "velocity": 0.88189
        },
        {
          "time": 602.913961,
          "name": "D4",
          "midi": 62,
          "duration": 0.192935,
          "velocity": 0.88189
        },
        {
          "time": 602.920413,
          "name": "D4",
          "midi": 62,
          "duration": 0.192525,
          "velocity": 0.88189
        },
        {
          "time": 602.920413,
          "name": "G4",
          "midi": 67,
          "duration": 0.192525,
          "velocity": 0.88189
        },
        {
          "time": 602.923639,
          "name": "D4",
          "midi": 62,
          "duration": 0.192321,
          "velocity": 0.88189
        },
        {
          "time": 602.923639,
          "name": "G3",
          "midi": 55,
          "duration": 0.192321,
          "velocity": 0.88189
        },
        {
          "time": 602.923639,
          "name": "G3",
          "midi": 55,
          "duration": 0.192321,
          "velocity": 0.96063
        },
        {
          "time": 602.923639,
          "name": "D4",
          "midi": 62,
          "duration": 0.192321,
          "velocity": 0.96063
        },
        {
          "time": 603.288165,
          "name": "B4",
          "midi": 71,
          "duration": 0.181883,
          "velocity": 0.88189
        },
        {
          "time": 603.288165,
          "name": "D4",
          "midi": 62,
          "duration": 0.181883,
          "velocity": 0.88189
        },
        {
          "time": 603.294207,
          "name": "B4",
          "midi": 71,
          "duration": 0.182292,
          "velocity": 0.88189
        },
        {
          "time": 603.294207,
          "name": "D4",
          "midi": 62,
          "duration": 0.182292,
          "velocity": 0.88189
        },
        {
          "time": 603.294207,
          "name": "G3",
          "midi": 55,
          "duration": 0.182292,
          "velocity": 0.88189
        },
        {
          "time": 603.297228,
          "name": "B4",
          "midi": 71,
          "duration": 0.182497,
          "velocity": 0.88189
        },
        {
          "time": 603.297228,
          "name": "D4",
          "midi": 62,
          "duration": 0.182497,
          "velocity": 0.88189
        },
        {
          "time": 603.297228,
          "name": "D4",
          "midi": 62,
          "duration": 0.182497,
          "velocity": 0.96063
        },
        {
          "time": 603.297228,
          "name": "B3",
          "midi": 59,
          "duration": 0.182497,
          "velocity": 0.96063
        },
        {
          "time": 603.663596,
          "name": "G4",
          "midi": 67,
          "duration": 0.192935,
          "velocity": 0.88189
        },
        {
          "time": 603.663596,
          "name": "G3",
          "midi": 55,
          "duration": 0.192935,
          "velocity": 0.88189
        },
        {
          "time": 603.670048,
          "name": "B4",
          "midi": 71,
          "duration": 0.192525,
          "velocity": 0.88189
        },
        {
          "time": 603.670048,
          "name": "D4",
          "midi": 62,
          "duration": 0.192525,
          "velocity": 0.88189
        },
        {
          "time": 603.670048,
          "name": "G3",
          "midi": 55,
          "duration": 0.192525,
          "velocity": 0.88189
        },
        {
          "time": 603.673274,
          "name": "G4",
          "midi": 67,
          "duration": 0.192321,
          "velocity": 0.88189
        },
        {
          "time": 603.673274,
          "name": "G3",
          "midi": 55,
          "duration": 0.192321,
          "velocity": 0.88189
        },
        {
          "time": 603.673274,
          "name": "D4",
          "midi": 62,
          "duration": 0.192321,
          "velocity": 0.96063
        },
        {
          "time": 603.673274,
          "name": "B3",
          "midi": 59,
          "duration": 0.192321,
          "velocity": 0.96063
        },
        {
          "time": 604.0378,
          "name": "G4",
          "midi": 67,
          "duration": 0.181883,
          "velocity": 0.88189
        },
        {
          "time": 604.0378,
          "name": "G3",
          "midi": 55,
          "duration": 0.181883,
          "velocity": 0.88189
        },
        {
          "time": 604.043842,
          "name": "B4",
          "midi": 71,
          "duration": 0.182292,
          "velocity": 0.88189
        },
        {
          "time": 604.043842,
          "name": "D4",
          "midi": 62,
          "duration": 0.182292,
          "velocity": 0.88189
        },
        {
          "time": 604.043842,
          "name": "G3",
          "midi": 55,
          "duration": 0.182292,
          "velocity": 0.88189
        },
        {
          "time": 604.046863,
          "name": "G4",
          "midi": 67,
          "duration": 0.182497,
          "velocity": 0.88189
        },
        {
          "time": 604.046863,
          "name": "G3",
          "midi": 55,
          "duration": 0.182497,
          "velocity": 0.88189
        },
        {
          "time": 604.046863,
          "name": "D4",
          "midi": 62,
          "duration": 0.182497,
          "velocity": 0.96063
        },
        {
          "time": 604.046863,
          "name": "B3",
          "midi": 59,
          "duration": 0.182497,
          "velocity": 0.96063
        },
        {
          "time": 604.413231,
          "name": "F#4",
          "midi": 66,
          "duration": 0.192935,
          "velocity": 0.88189
        },
        {
          "time": 604.413231,
          "name": "C4",
          "midi": 60,
          "duration": 0.192935,
          "velocity": 0.88189
        },
        {
          "time": 604.419683,
          "name": "F#4",
          "midi": 66,
          "duration": 0.192525,
          "velocity": 0.88189
        },
        {
          "time": 604.419683,
          "name": "A3",
          "midi": 57,
          "duration": 0.192525,
          "velocity": 0.88189
        },
        {
          "time": 604.422909,
          "name": "F#4",
          "midi": 66,
          "duration": 0.192321,
          "velocity": 0.88189
        },
        {
          "time": 604.422909,
          "name": "C4",
          "midi": 60,
          "duration": 0.192321,
          "velocity": 0.88189
        },
        {
          "time": 604.422909,
          "name": "A3",
          "midi": 57,
          "duration": 0.192321,
          "velocity": 0.96063
        },
        {
          "time": 604.422909,
          "name": "D4",
          "midi": 62,
          "duration": 0.192321,
          "velocity": 0.96063
        },
        {
          "time": 604.787435,
          "name": "F#4",
          "midi": 66,
          "duration": 0.181883,
          "velocity": 0.88189
        },
        {
          "time": 604.787435,
          "name": "C4",
          "midi": 60,
          "duration": 0.181883,
          "velocity": 0.88189
        },
        {
          "time": 604.793477,
          "name": "F#4",
          "midi": 66,
          "duration": 0.182292,
          "velocity": 0.88189
        },
        {
          "time": 604.793477,
          "name": "A3",
          "midi": 57,
          "duration": 0.182292,
          "velocity": 0.88189
        },
        {
          "time": 604.796498,
          "name": "F#4",
          "midi": 66,
          "duration": 0.182497,
          "velocity": 0.88189
        },
        {
          "time": 604.796498,
          "name": "C4",
          "midi": 60,
          "duration": 0.182497,
          "velocity": 0.88189
        },
        {
          "time": 604.796498,
          "name": "A3",
          "midi": 57,
          "duration": 0.182497,
          "velocity": 0.96063
        },
        {
          "time": 604.796498,
          "name": "D4",
          "midi": 62,
          "duration": 0.182497,
          "velocity": 0.96063
        },
        {
          "time": 605.162866,
          "name": "G4",
          "midi": 67,
          "duration": 0.192935,
          "velocity": 0.88189
        },
        {
          "time": 605.162866,
          "name": "G3",
          "midi": 55,
          "duration": 0.192935,
          "velocity": 0.88189
        },
        {
          "time": 605.169318,
          "name": "B4",
          "midi": 71,
          "duration": 0.192525,
          "velocity": 0.88189
        },
        {
          "time": 605.169318,
          "name": "D4",
          "midi": 62,
          "duration": 0.192525,
          "velocity": 0.88189
        },
        {
          "time": 605.169318,
          "name": "G3",
          "midi": 55,
          "duration": 0.192525,
          "velocity": 0.88189
        },
        {
          "time": 605.172544,
          "name": "G4",
          "midi": 67,
          "duration": 0.192321,
          "velocity": 0.88189
        },
        {
          "time": 605.172544,
          "name": "G3",
          "midi": 55,
          "duration": 0.192321,
          "velocity": 0.88189
        },
        {
          "time": 605.172544,
          "name": "B3",
          "midi": 59,
          "duration": 0.192321,
          "velocity": 0.96063
        },
        {
          "time": 605.172544,
          "name": "D4",
          "midi": 62,
          "duration": 0.192321,
          "velocity": 0.96063
        },
        {
          "time": 605.53707,
          "name": "B4",
          "midi": 71,
          "duration": 0.181883,
          "velocity": 0.88189
        },
        {
          "time": 605.53707,
          "name": "D4",
          "midi": 62,
          "duration": 0.181883,
          "velocity": 0.88189
        },
        {
          "time": 605.543112,
          "name": "B4",
          "midi": 71,
          "duration": 0.182292,
          "velocity": 0.88189
        },
        {
          "time": 605.543112,
          "name": "D4",
          "midi": 62,
          "duration": 0.182292,
          "velocity": 0.88189
        },
        {
          "time": 605.543112,
          "name": "G3",
          "midi": 55,
          "duration": 0.182292,
          "velocity": 0.88189
        },
        {
          "time": 605.546133,
          "name": "B4",
          "midi": 71,
          "duration": 0.182497,
          "velocity": 0.88189
        },
        {
          "time": 605.546133,
          "name": "D4",
          "midi": 62,
          "duration": 0.182497,
          "velocity": 0.88189
        },
        {
          "time": 605.546133,
          "name": "B3",
          "midi": 59,
          "duration": 0.182497,
          "velocity": 0.96063
        },
        {
          "time": 605.546133,
          "name": "D4",
          "midi": 62,
          "duration": 0.182497,
          "velocity": 0.96063
        },
        {
          "time": 605.912501,
          "name": "B4",
          "midi": 71,
          "duration": 0.192935,
          "velocity": 0.88189
        },
        {
          "time": 605.912501,
          "name": "D4",
          "midi": 62,
          "duration": 0.192935,
          "velocity": 0.88189
        },
        {
          "time": 605.918953,
          "name": "B4",
          "midi": 71,
          "duration": 0.192525,
          "velocity": 0.88189
        },
        {
          "time": 605.918953,
          "name": "D4",
          "midi": 62,
          "duration": 0.192525,
          "velocity": 0.88189
        },
        {
          "time": 605.918953,
          "name": "G3",
          "midi": 55,
          "duration": 0.192525,
          "velocity": 0.88189
        },
        {
          "time": 605.922179,
          "name": "B4",
          "midi": 71,
          "duration": 0.192321,
          "velocity": 0.88189
        },
        {
          "time": 605.922179,
          "name": "D4",
          "midi": 62,
          "duration": 0.192321,
          "velocity": 0.88189
        },
        {
          "time": 605.922179,
          "name": "D4",
          "midi": 62,
          "duration": 0.192321,
          "velocity": 0.96063
        },
        {
          "time": 605.922179,
          "name": "B3",
          "midi": 59,
          "duration": 0.192321,
          "velocity": 0.96063
        },
        {
          "time": 606.286705,
          "name": "G4",
          "midi": 67,
          "duration": 0.181883,
          "velocity": 0.88189
        },
        {
          "time": 606.286705,
          "name": "G3",
          "midi": 55,
          "duration": 0.181883,
          "velocity": 0.88189
        },
        {
          "time": 606.292747,
          "name": "B4",
          "midi": 71,
          "duration": 0.182292,
          "velocity": 0.88189
        },
        {
          "time": 606.292747,
          "name": "D4",
          "midi": 62,
          "duration": 0.182292,
          "velocity": 0.88189
        },
        {
          "time": 606.292747,
          "name": "G3",
          "midi": 55,
          "duration": 0.182292,
          "velocity": 0.88189
        },
        {
          "time": 606.295768,
          "name": "G4",
          "midi": 67,
          "duration": 0.182497,
          "velocity": 0.88189
        },
        {
          "time": 606.295768,
          "name": "G3",
          "midi": 55,
          "duration": 0.182497,
          "velocity": 0.88189
        },
        {
          "time": 606.295768,
          "name": "D4",
          "midi": 62,
          "duration": 0.182497,
          "velocity": 0.96063
        },
        {
          "time": 606.295768,
          "name": "B3",
          "midi": 59,
          "duration": 0.182497,
          "velocity": 0.96063
        },
        {
          "time": 606.662136,
          "name": "G4",
          "midi": 67,
          "duration": 0.192935,
          "velocity": 0.88189
        },
        {
          "time": 606.662136,
          "name": "A3",
          "midi": 57,
          "duration": 0.192935,
          "velocity": 0.88189
        },
        {
          "time": 606.668588,
          "name": "G4",
          "midi": 67,
          "duration": 0.192525,
          "velocity": 0.88189
        },
        {
          "time": 606.668588,
          "name": "A3",
          "midi": 57,
          "duration": 0.192525,
          "velocity": 0.88189
        },
        {
          "time": 606.671814,
          "name": "G4",
          "midi": 67,
          "duration": 0.192321,
          "velocity": 0.88189
        },
        {
          "time": 606.671814,
          "name": "A3",
          "midi": 57,
          "duration": 0.192321,
          "velocity": 0.88189
        },
        {
          "time": 606.671814,
          "name": "E4",
          "midi": 64,
          "duration": 0.192321,
          "velocity": 0.96063
        },
        {
          "time": 606.671814,
          "name": "G3",
          "midi": 55,
          "duration": 0.192321,
          "velocity": 0.96063
        },
        {
          "time": 607.03634,
          "name": "G4",
          "midi": 67,
          "duration": 0.181883,
          "velocity": 0.88189
        },
        {
          "time": 607.03634,
          "name": "A3",
          "midi": 57,
          "duration": 0.181883,
          "velocity": 0.88189
        },
        {
          "time": 607.042382,
          "name": "G4",
          "midi": 67,
          "duration": 0.182292,
          "velocity": 0.88189
        },
        {
          "time": 607.042382,
          "name": "A3",
          "midi": 57,
          "duration": 0.182292,
          "velocity": 0.88189
        },
        {
          "time": 607.045403,
          "name": "G4",
          "midi": 67,
          "duration": 0.182497,
          "velocity": 0.88189
        },
        {
          "time": 607.045403,
          "name": "A3",
          "midi": 57,
          "duration": 0.182497,
          "velocity": 0.88189
        },
        {
          "time": 607.045403,
          "name": "E4",
          "midi": 64,
          "duration": 0.182497,
          "velocity": 0.96063
        },
        {
          "time": 607.045403,
          "name": "G3",
          "midi": 55,
          "duration": 0.182497,
          "velocity": 0.96063
        },
        {
          "time": 607.411771,
          "name": "A3",
          "midi": 57,
          "duration": 0.192935,
          "velocity": 0.88189
        },
        {
          "time": 607.411771,
          "name": "F#4",
          "midi": 66,
          "duration": 0.192935,
          "velocity": 0.88189
        },
        {
          "time": 607.418223,
          "name": "A4",
          "midi": 69,
          "duration": 0.192525,
          "velocity": 0.88189
        },
        {
          "time": 607.418223,
          "name": "F#4",
          "midi": 66,
          "duration": 0.192525,
          "velocity": 0.88189
        },
        {
          "time": 607.418223,
          "name": "A3",
          "midi": 57,
          "duration": 0.192525,
          "velocity": 0.88189
        },
        {
          "time": 607.421449,
          "name": "A3",
          "midi": 57,
          "duration": 0.192321,
          "velocity": 0.88189
        },
        {
          "time": 607.421449,
          "name": "F#4",
          "midi": 66,
          "duration": 0.192321,
          "velocity": 0.88189
        },
        {
          "time": 607.421449,
          "name": "C4",
          "midi": 60,
          "duration": 0.192321,
          "velocity": 0.96063
        },
        {
          "time": 607.421449,
          "name": "F#3",
          "midi": 54,
          "duration": 0.192321,
          "velocity": 0.96063
        },
        {
          "time": 607.785975,
          "name": "A3",
          "midi": 57,
          "duration": 0.181883,
          "velocity": 0.88189
        },
        {
          "time": 607.785975,
          "name": "F#4",
          "midi": 66,
          "duration": 0.181883,
          "velocity": 0.88189
        },
        {
          "time": 607.792017,
          "name": "A4",
          "midi": 69,
          "duration": 0.182292,
          "velocity": 0.88189
        },
        {
          "time": 607.792017,
          "name": "F#4",
          "midi": 66,
          "duration": 0.182292,
          "velocity": 0.88189
        },
        {
          "time": 607.792017,
          "name": "A3",
          "midi": 57,
          "duration": 0.182292,
          "velocity": 0.88189
        },
        {
          "time": 607.795038,
          "name": "A3",
          "midi": 57,
          "duration": 0.182497,
          "velocity": 0.88189
        },
        {
          "time": 607.795038,
          "name": "F#4",
          "midi": 66,
          "duration": 0.182497,
          "velocity": 0.88189
        },
        {
          "time": 607.795038,
          "name": "C4",
          "midi": 60,
          "duration": 0.182497,
          "velocity": 0.96063
        },
        {
          "time": 607.795038,
          "name": "F#3",
          "midi": 54,
          "duration": 0.182497,
          "velocity": 0.96063
        },
        {
          "time": 608.161406,
          "name": "G4",
          "midi": 67,
          "duration": 0.192935,
          "velocity": 0.88189
        },
        {
          "time": 608.161406,
          "name": "G3",
          "midi": 55,
          "duration": 0.192935,
          "velocity": 0.88189
        },
        {
          "time": 608.167858,
          "name": "B4",
          "midi": 71,
          "duration": 0.192525,
          "velocity": 0.88189
        },
        {
          "time": 608.167858,
          "name": "D4",
          "midi": 62,
          "duration": 0.192525,
          "velocity": 0.88189
        },
        {
          "time": 608.171084,
          "name": "G4",
          "midi": 67,
          "duration": 0.192321,
          "velocity": 0.88189
        },
        {
          "time": 608.171084,
          "name": "G3",
          "midi": 55,
          "duration": 0.192321,
          "velocity": 0.88189
        },
        {
          "time": 608.171084,
          "name": "D4",
          "midi": 62,
          "duration": 0.192321,
          "velocity": 0.96063
        },
        {
          "time": 608.171084,
          "name": "B3",
          "midi": 59,
          "duration": 0.192321,
          "velocity": 0.96063
        },
        {
          "time": 608.354341,
          "name": "G4",
          "midi": 67,
          "duration": 0.181269,
          "velocity": 0.88189
        },
        {
          "time": 608.354341,
          "name": "G3",
          "midi": 55,
          "duration": 0.181269,
          "velocity": 0.88189
        },
        {
          "time": 608.360383,
          "name": "B4",
          "midi": 71,
          "duration": 0.181269,
          "velocity": 0.88189
        },
        {
          "time": 608.360383,
          "name": "D4",
          "midi": 62,
          "duration": 0.181269,
          "velocity": 0.88189
        },
        {
          "time": 608.363404,
          "name": "G4",
          "midi": 67,
          "duration": 0.181269,
          "velocity": 0.88189
        },
        {
          "time": 608.363404,
          "name": "G3",
          "midi": 55,
          "duration": 0.181269,
          "velocity": 0.88189
        },
        {
          "time": 608.363404,
          "name": "D4",
          "midi": 62,
          "duration": 0.181269,
          "velocity": 0.96063
        },
        {
          "time": 608.363404,
          "name": "B3",
          "midi": 59,
          "duration": 0.181269,
          "velocity": 0.96063
        },
        {
          "time": 608.53561,
          "name": "G4",
          "midi": 67,
          "duration": 0.181883,
          "velocity": 0.88189
        },
        {
          "time": 608.53561,
          "name": "G3",
          "midi": 55,
          "duration": 0.181883,
          "velocity": 0.88189
        },
        {
          "time": 608.541652,
          "name": "B4",
          "midi": 71,
          "duration": 0.182292,
          "velocity": 0.88189
        },
        {
          "time": 608.541652,
          "name": "D4",
          "midi": 62,
          "duration": 0.182292,
          "velocity": 0.88189
        },
        {
          "time": 608.544673,
          "name": "G4",
          "midi": 67,
          "duration": 0.182497,
          "velocity": 0.88189
        },
        {
          "time": 608.544673,
          "name": "G3",
          "midi": 55,
          "duration": 0.182497,
          "velocity": 0.88189
        },
        {
          "time": 608.544673,
          "name": "D4",
          "midi": 62,
          "duration": 0.182497,
          "velocity": 0.96063
        },
        {
          "time": 608.544673,
          "name": "B3",
          "midi": 59,
          "duration": 0.182497,
          "velocity": 0.96063
        },
        {
          "time": 608.717493,
          "name": "G4",
          "midi": 67,
          "duration": 0.193549,
          "velocity": 0.88189
        },
        {
          "time": 608.717493,
          "name": "G3",
          "midi": 55,
          "duration": 0.193549,
          "velocity": 0.88189
        },
        {
          "time": 608.723944,
          "name": "B4",
          "midi": 71,
          "duration": 0.193549,
          "velocity": 0.88189
        },
        {
          "time": 608.723944,
          "name": "D4",
          "midi": 62,
          "duration": 0.193549,
          "velocity": 0.88189
        },
        {
          "time": 608.72717,
          "name": "G4",
          "midi": 67,
          "duration": 0.193549,
          "velocity": 0.88189
        },
        {
          "time": 608.72717,
          "name": "G3",
          "midi": 55,
          "duration": 0.193549,
          "velocity": 0.88189
        },
        {
          "time": 608.72717,
          "name": "D4",
          "midi": 62,
          "duration": 0.193549,
          "velocity": 0.96063
        },
        {
          "time": 608.72717,
          "name": "B3",
          "midi": 59,
          "duration": 0.193549,
          "velocity": 0.96063
        },
        {
          "time": 609.467128,
          "name": "B3",
          "midi": 59,
          "duration": 0.367742,
          "velocity": 0.88189
        },
        {
          "time": 609.467128,
          "name": "B4",
          "midi": 71,
          "duration": 0.367742,
          "velocity": 0.88189
        },
        {
          "time": 609.473579,
          "name": "G4",
          "midi": 67,
          "duration": 0.367742,
          "velocity": 0.88189
        },
        {
          "time": 609.473579,
          "name": "B3",
          "midi": 59,
          "duration": 0.367742,
          "velocity": 0.88189
        },
        {
          "time": 609.476805,
          "name": "B3",
          "midi": 59,
          "duration": 0.367742,
          "velocity": 0.88189
        },
        {
          "time": 609.476805,
          "name": "B4",
          "midi": 71,
          "duration": 0.367742,
          "velocity": 0.88189
        },
        {
          "time": 609.476805,
          "name": "G4",
          "midi": 67,
          "duration": 0.367742,
          "velocity": 0.96063
        },
        {
          "time": 609.476805,
          "name": "E4",
          "midi": 64,
          "duration": 0.367742,
          "velocity": 0.96063
        },
        {
          "time": 609.853611,
          "name": "B3",
          "midi": 59,
          "duration": 0.344411,
          "velocity": 0.88189
        },
        {
          "time": 609.853611,
          "name": "B4",
          "midi": 71,
          "duration": 0.344411,
          "velocity": 0.88189
        },
        {
          "time": 609.859653,
          "name": "G4",
          "midi": 67,
          "duration": 0.344411,
          "velocity": 0.88189
        },
        {
          "time": 609.859653,
          "name": "B3",
          "midi": 59,
          "duration": 0.344411,
          "velocity": 0.88189
        },
        {
          "time": 609.862674,
          "name": "B3",
          "midi": 59,
          "duration": 0.344411,
          "velocity": 0.88189
        },
        {
          "time": 609.862674,
          "name": "B4",
          "midi": 71,
          "duration": 0.344411,
          "velocity": 0.88189
        },
        {
          "time": 609.862674,
          "name": "G4",
          "midi": 67,
          "duration": 0.344411,
          "velocity": 0.96063
        },
        {
          "time": 609.862674,
          "name": "E4",
          "midi": 64,
          "duration": 0.344411,
          "velocity": 0.96063
        },
        {
          "time": 610.216763,
          "name": "B4",
          "midi": 71,
          "duration": 0.367742,
          "velocity": 0.88189
        },
        {
          "time": 610.216763,
          "name": "B3",
          "midi": 59,
          "duration": 0.367742,
          "velocity": 0.88189
        },
        {
          "time": 610.223214,
          "name": "F#4",
          "midi": 66,
          "duration": 0.367742,
          "velocity": 0.88189
        },
        {
          "time": 610.223214,
          "name": "B3",
          "midi": 59,
          "duration": 0.367742,
          "velocity": 0.88189
        },
        {
          "time": 610.22644,
          "name": "B4",
          "midi": 71,
          "duration": 0.367742,
          "velocity": 0.88189
        },
        {
          "time": 610.22644,
          "name": "B3",
          "midi": 59,
          "duration": 0.367742,
          "velocity": 0.88189
        },
        {
          "time": 610.22644,
          "name": "F#4",
          "midi": 66,
          "duration": 0.367742,
          "velocity": 0.96063
        },
        {
          "time": 610.22644,
          "name": "D#4",
          "midi": 63,
          "duration": 0.367742,
          "velocity": 0.96063
        },
        {
          "time": 610.603246,
          "name": "B4",
          "midi": 71,
          "duration": 0.344411,
          "velocity": 0.88189
        },
        {
          "time": 610.603246,
          "name": "B3",
          "midi": 59,
          "duration": 0.344411,
          "velocity": 0.88189
        },
        {
          "time": 610.609288,
          "name": "G4",
          "midi": 67,
          "duration": 0.344411,
          "velocity": 0.88189
        },
        {
          "time": 610.609288,
          "name": "B3",
          "midi": 59,
          "duration": 0.344411,
          "velocity": 0.88189
        },
        {
          "time": 610.612309,
          "name": "B4",
          "midi": 71,
          "duration": 0.344411,
          "velocity": 0.88189
        },
        {
          "time": 610.612309,
          "name": "B3",
          "midi": 59,
          "duration": 0.344411,
          "velocity": 0.88189
        },
        {
          "time": 610.612309,
          "name": "G4",
          "midi": 67,
          "duration": 0.344411,
          "velocity": 0.96063
        },
        {
          "time": 610.612309,
          "name": "E4",
          "midi": 64,
          "duration": 0.344411,
          "velocity": 0.96063
        },
        {
          "time": 610.966398,
          "name": "B3",
          "midi": 59,
          "duration": 0.367742,
          "velocity": 0.88189
        },
        {
          "time": 610.966398,
          "name": "B4",
          "midi": 71,
          "duration": 0.367742,
          "velocity": 0.88189
        },
        {
          "time": 610.972849,
          "name": "G4",
          "midi": 67,
          "duration": 0.367742,
          "velocity": 0.88189
        },
        {
          "time": 610.972849,
          "name": "B3",
          "midi": 59,
          "duration": 0.367742,
          "velocity": 0.88189
        },
        {
          "time": 610.976075,
          "name": "B3",
          "midi": 59,
          "duration": 0.367742,
          "velocity": 0.88189
        },
        {
          "time": 610.976075,
          "name": "B4",
          "midi": 71,
          "duration": 0.367742,
          "velocity": 0.88189
        },
        {
          "time": 610.976075,
          "name": "E4",
          "midi": 64,
          "duration": 0.367742,
          "velocity": 0.96063
        },
        {
          "time": 610.976075,
          "name": "G4",
          "midi": 67,
          "duration": 0.367742,
          "velocity": 0.96063
        },
        {
          "time": 611.352881,
          "name": "B3",
          "midi": 59,
          "duration": 0.344411,
          "velocity": 0.88189
        },
        {
          "time": 611.352881,
          "name": "B4",
          "midi": 71,
          "duration": 0.344411,
          "velocity": 0.88189
        },
        {
          "time": 611.358923,
          "name": "F#4",
          "midi": 66,
          "duration": 0.344411,
          "velocity": 0.88189
        },
        {
          "time": 611.358923,
          "name": "B3",
          "midi": 59,
          "duration": 0.344411,
          "velocity": 0.88189
        },
        {
          "time": 611.361944,
          "name": "B3",
          "midi": 59,
          "duration": 0.344411,
          "velocity": 0.88189
        },
        {
          "time": 611.361944,
          "name": "B4",
          "midi": 71,
          "duration": 0.344411,
          "velocity": 0.88189
        },
        {
          "time": 611.361944,
          "name": "D#4",
          "midi": 63,
          "duration": 0.344411,
          "velocity": 0.96063
        },
        {
          "time": 611.361944,
          "name": "F#4",
          "midi": 66,
          "duration": 0.344411,
          "velocity": 0.96063
        },
        {
          "time": 611.716033,
          "name": "B4",
          "midi": 71,
          "duration": 0.183871,
          "velocity": 0.88189
        },
        {
          "time": 611.716033,
          "name": "B3",
          "midi": 59,
          "duration": 0.183871,
          "velocity": 0.88189
        },
        {
          "time": 611.722484,
          "name": "G4",
          "midi": 67,
          "duration": 0.183871,
          "velocity": 0.88189
        },
        {
          "time": 611.722484,
          "name": "B3",
          "midi": 59,
          "duration": 0.183871,
          "velocity": 0.88189
        },
        {
          "time": 611.72571,
          "name": "B4",
          "midi": 71,
          "duration": 0.183871,
          "velocity": 0.88189
        },
        {
          "time": 611.72571,
          "name": "B3",
          "midi": 59,
          "duration": 0.183871,
          "velocity": 0.88189
        },
        {
          "time": 611.72571,
          "name": "G4",
          "midi": 67,
          "duration": 0.183871,
          "velocity": 0.96063
        },
        {
          "time": 611.72571,
          "name": "E4",
          "midi": 64,
          "duration": 0.183871,
          "velocity": 0.96063
        },
        {
          "time": 611.909581,
          "name": "B4",
          "midi": 71,
          "duration": 0.183871,
          "velocity": 0.88189
        },
        {
          "time": 611.909581,
          "name": "B3",
          "midi": 59,
          "duration": 0.183871,
          "velocity": 0.88189
        },
        {
          "time": 611.916033,
          "name": "G4",
          "midi": 67,
          "duration": 0.183462,
          "velocity": 0.88189
        },
        {
          "time": 611.916033,
          "name": "B3",
          "midi": 59,
          "duration": 0.183462,
          "velocity": 0.88189
        },
        {
          "time": 611.919259,
          "name": "B4",
          "midi": 71,
          "duration": 0.183257,
          "velocity": 0.88189
        },
        {
          "time": 611.919259,
          "name": "B3",
          "midi": 59,
          "duration": 0.183257,
          "velocity": 0.88189
        },
        {
          "time": 611.919259,
          "name": "G4",
          "midi": 67,
          "duration": 0.183257,
          "velocity": 0.96063
        },
        {
          "time": 611.919259,
          "name": "E4",
          "midi": 64,
          "duration": 0.183257,
          "velocity": 0.96063
        },
        {
          "time": 612.102516,
          "name": "B3",
          "midi": 59,
          "duration": 0.344411,
          "velocity": 0.88189
        },
        {
          "time": 612.102516,
          "name": "B4",
          "midi": 71,
          "duration": 0.344411,
          "velocity": 0.88189
        },
        {
          "time": 612.108558,
          "name": "F#4",
          "midi": 66,
          "duration": 0.344411,
          "velocity": 0.88189
        },
        {
          "time": 612.108558,
          "name": "B3",
          "midi": 59,
          "duration": 0.344411,
          "velocity": 0.88189
        },
        {
          "time": 612.111579,
          "name": "B3",
          "midi": 59,
          "duration": 0.344411,
          "velocity": 0.88189
        },
        {
          "time": 612.111579,
          "name": "B4",
          "midi": 71,
          "duration": 0.344411,
          "velocity": 0.88189
        },
        {
          "time": 612.111579,
          "name": "D#4",
          "midi": 63,
          "duration": 0.344411,
          "velocity": 0.96063
        },
        {
          "time": 612.111579,
          "name": "F#4",
          "midi": 66,
          "duration": 0.344411,
          "velocity": 0.96063
        },
        {
          "time": 612.465668,
          "name": "B3",
          "midi": 59,
          "duration": 0.367742,
          "velocity": 0.88189
        },
        {
          "time": 612.465668,
          "name": "B4",
          "midi": 71,
          "duration": 0.367742,
          "velocity": 0.88189
        },
        {
          "time": 612.472119,
          "name": "G4",
          "midi": 67,
          "duration": 0.367742,
          "velocity": 0.88189
        },
        {
          "time": 612.472119,
          "name": "B3",
          "midi": 59,
          "duration": 0.367742,
          "velocity": 0.88189
        },
        {
          "time": 612.475345,
          "name": "B3",
          "midi": 59,
          "duration": 0.367742,
          "velocity": 0.88189
        },
        {
          "time": 612.475345,
          "name": "B4",
          "midi": 71,
          "duration": 0.367742,
          "velocity": 0.88189
        },
        {
          "time": 612.475345,
          "name": "G4",
          "midi": 67,
          "duration": 0.367742,
          "velocity": 0.96063
        },
        {
          "time": 612.475345,
          "name": "E4",
          "midi": 64,
          "duration": 0.367742,
          "velocity": 0.96063
        },
        {
          "time": 612.852151,
          "name": "B4",
          "midi": 71,
          "duration": 0.344411,
          "velocity": 0.88189
        },
        {
          "time": 612.852151,
          "name": "B3",
          "midi": 59,
          "duration": 0.344411,
          "velocity": 0.88189
        },
        {
          "time": 612.858193,
          "name": "G4",
          "midi": 67,
          "duration": 0.344411,
          "velocity": 0.88189
        },
        {
          "time": 612.858193,
          "name": "B3",
          "midi": 59,
          "duration": 0.344411,
          "velocity": 0.88189
        },
        {
          "time": 612.861214,
          "name": "B4",
          "midi": 71,
          "duration": 0.344411,
          "velocity": 0.88189
        },
        {
          "time": 612.861214,
          "name": "B3",
          "midi": 59,
          "duration": 0.344411,
          "velocity": 0.88189
        },
        {
          "time": 612.861214,
          "name": "G4",
          "midi": 67,
          "duration": 0.344411,
          "velocity": 0.96063
        },
        {
          "time": 612.861214,
          "name": "E4",
          "midi": 64,
          "duration": 0.344411,
          "velocity": 0.96063
        },
        {
          "time": 613.215303,
          "name": "B4",
          "midi": 71,
          "duration": 0.367742,
          "velocity": 0.88189
        },
        {
          "time": 613.215303,
          "name": "B3",
          "midi": 59,
          "duration": 0.367742,
          "velocity": 0.88189
        },
        {
          "time": 613.221754,
          "name": "F#4",
          "midi": 66,
          "duration": 0.367742,
          "velocity": 0.88189
        },
        {
          "time": 613.221754,
          "name": "B3",
          "midi": 59,
          "duration": 0.367742,
          "velocity": 0.88189
        },
        {
          "time": 613.22498,
          "name": "B4",
          "midi": 71,
          "duration": 0.367742,
          "velocity": 0.88189
        },
        {
          "time": 613.22498,
          "name": "B3",
          "midi": 59,
          "duration": 0.367742,
          "velocity": 0.88189
        },
        {
          "time": 613.22498,
          "name": "D#4",
          "midi": 63,
          "duration": 0.367742,
          "velocity": 0.96063
        },
        {
          "time": 613.22498,
          "name": "F#4",
          "midi": 66,
          "duration": 0.367742,
          "velocity": 0.96063
        },
        {
          "time": 613.601786,
          "name": "B3",
          "midi": 59,
          "duration": 0.344411,
          "velocity": 0.88189
        },
        {
          "time": 613.601786,
          "name": "B4",
          "midi": 71,
          "duration": 0.344411,
          "velocity": 0.88189
        },
        {
          "time": 613.607828,
          "name": "G4",
          "midi": 67,
          "duration": 0.344411,
          "velocity": 0.88189
        },
        {
          "time": 613.607828,
          "name": "B3",
          "midi": 59,
          "duration": 0.344411,
          "velocity": 0.88189
        },
        {
          "time": 613.610849,
          "name": "B3",
          "midi": 59,
          "duration": 0.344411,
          "velocity": 0.88189
        },
        {
          "time": 613.610849,
          "name": "B4",
          "midi": 71,
          "duration": 0.344411,
          "velocity": 0.88189
        },
        {
          "time": 613.610849,
          "name": "G4",
          "midi": 67,
          "duration": 0.344411,
          "velocity": 0.96063
        },
        {
          "time": 613.610849,
          "name": "E4",
          "midi": 64,
          "duration": 0.344411,
          "velocity": 0.96063
        },
        {
          "time": 613.964938,
          "name": "B3",
          "midi": 59,
          "duration": 0.183871,
          "velocity": 0.88189
        },
        {
          "time": 613.964938,
          "name": "B4",
          "midi": 71,
          "duration": 0.183871,
          "velocity": 0.88189
        },
        {
          "time": 613.971389,
          "name": "B3",
          "midi": 59,
          "duration": 0.183871,
          "velocity": 0.88189
        },
        {
          "time": 613.971389,
          "name": "G4",
          "midi": 67,
          "duration": 0.183871,
          "velocity": 0.88189
        },
        {
          "time": 613.974615,
          "name": "B3",
          "midi": 59,
          "duration": 0.183871,
          "velocity": 0.88189
        },
        {
          "time": 613.974615,
          "name": "B4",
          "midi": 71,
          "duration": 0.183871,
          "velocity": 0.88189
        },
        {
          "time": 613.974615,
          "name": "E4",
          "midi": 64,
          "duration": 0.183871,
          "velocity": 0.96063
        },
        {
          "time": 613.974615,
          "name": "G4",
          "midi": 67,
          "duration": 0.183871,
          "velocity": 0.96063
        },
        {
          "time": 614.158486,
          "name": "B4",
          "midi": 71,
          "duration": 0.183871,
          "velocity": 0.88189
        },
        {
          "time": 614.158486,
          "name": "B3",
          "midi": 59,
          "duration": 0.183871,
          "velocity": 0.88189
        },
        {
          "time": 614.164938,
          "name": "B3",
          "midi": 59,
          "duration": 0.183462,
          "velocity": 0.88189
        },
        {
          "time": 614.164938,
          "name": "F#4",
          "midi": 66,
          "duration": 0.183462,
          "velocity": 0.88189
        },
        {
          "time": 614.168164,
          "name": "B4",
          "midi": 71,
          "duration": 0.183257,
          "velocity": 0.88189
        },
        {
          "time": 614.168164,
          "name": "B3",
          "midi": 59,
          "duration": 0.183257,
          "velocity": 0.88189
        },
        {
          "time": 614.168164,
          "name": "D#4",
          "midi": 63,
          "duration": 0.183257,
          "velocity": 0.96063
        },
        {
          "time": 614.168164,
          "name": "F#4",
          "midi": 66,
          "duration": 0.183257,
          "velocity": 0.96063
        },
        {
          "time": 614.351421,
          "name": "B4",
          "midi": 71,
          "duration": 0.172206,
          "velocity": 0.88189
        },
        {
          "time": 614.351421,
          "name": "B3",
          "midi": 59,
          "duration": 0.172206,
          "velocity": 0.88189
        },
        {
          "time": 614.357463,
          "name": "B3",
          "midi": 59,
          "duration": 0.172206,
          "velocity": 0.88189
        },
        {
          "time": 614.357463,
          "name": "G4",
          "midi": 67,
          "duration": 0.172206,
          "velocity": 0.88189
        },
        {
          "time": 614.360484,
          "name": "B4",
          "midi": 71,
          "duration": 0.172206,
          "velocity": 0.88189
        },
        {
          "time": 614.360484,
          "name": "B3",
          "midi": 59,
          "duration": 0.172206,
          "velocity": 0.88189
        },
        {
          "time": 614.360484,
          "name": "E4",
          "midi": 64,
          "duration": 0.172206,
          "velocity": 0.96063
        },
        {
          "time": 614.360484,
          "name": "G4",
          "midi": 67,
          "duration": 0.172206,
          "velocity": 0.96063
        },
        {
          "time": 614.53269,
          "name": "B3",
          "midi": 59,
          "duration": 0.172206,
          "velocity": 0.88189
        },
        {
          "time": 614.53269,
          "name": "B4",
          "midi": 71,
          "duration": 0.172206,
          "velocity": 0.88189
        },
        {
          "time": 614.538732,
          "name": "B3",
          "midi": 59,
          "duration": 0.172615,
          "velocity": 0.88189
        },
        {
          "time": 614.538732,
          "name": "G4",
          "midi": 67,
          "duration": 0.172615,
          "velocity": 0.88189
        },
        {
          "time": 614.541753,
          "name": "B3",
          "midi": 59,
          "duration": 0.17282,
          "velocity": 0.88189
        },
        {
          "time": 614.541753,
          "name": "B4",
          "midi": 71,
          "duration": 0.17282,
          "velocity": 0.88189
        },
        {
          "time": 614.541753,
          "name": "E4",
          "midi": 64,
          "duration": 0.17282,
          "velocity": 0.96063
        },
        {
          "time": 614.541753,
          "name": "G4",
          "midi": 67,
          "duration": 0.17282,
          "velocity": 0.96063
        },
        {
          "time": 614.714573,
          "name": "B3",
          "midi": 59,
          "duration": 0.183871,
          "velocity": 0.88189
        },
        {
          "time": 614.714573,
          "name": "B4",
          "midi": 71,
          "duration": 0.183871,
          "velocity": 0.88189
        },
        {
          "time": 614.721024,
          "name": "B3",
          "midi": 59,
          "duration": 0.183871,
          "velocity": 0.88189
        },
        {
          "time": 614.721024,
          "name": "F#4",
          "midi": 66,
          "duration": 0.183871,
          "velocity": 0.88189
        },
        {
          "time": 614.72425,
          "name": "B3",
          "midi": 59,
          "duration": 0.183871,
          "velocity": 0.88189
        },
        {
          "time": 614.72425,
          "name": "B4",
          "midi": 71,
          "duration": 0.183871,
          "velocity": 0.88189
        },
        {
          "time": 614.72425,
          "name": "D#4",
          "midi": 63,
          "duration": 0.183871,
          "velocity": 0.96063
        },
        {
          "time": 614.72425,
          "name": "F#4",
          "midi": 66,
          "duration": 0.183871,
          "velocity": 0.96063
        },
        {
          "time": 615.464208,
          "name": "B3",
          "midi": 59,
          "duration": 0.367742,
          "velocity": 0.88189
        },
        {
          "time": 615.464208,
          "name": "B4",
          "midi": 71,
          "duration": 0.367742,
          "velocity": 0.88189
        },
        {
          "time": 615.470659,
          "name": "G4",
          "midi": 67,
          "duration": 0.367742,
          "velocity": 0.88189
        },
        {
          "time": 615.470659,
          "name": "B3",
          "midi": 59,
          "duration": 0.367742,
          "velocity": 0.88189
        },
        {
          "time": 615.473885,
          "name": "B3",
          "midi": 59,
          "duration": 0.367742,
          "velocity": 0.88189
        },
        {
          "time": 615.473885,
          "name": "B4",
          "midi": 71,
          "duration": 0.367742,
          "velocity": 0.88189
        },
        {
          "time": 615.473885,
          "name": "G4",
          "midi": 67,
          "duration": 0.367742,
          "velocity": 0.96063
        },
        {
          "time": 615.473885,
          "name": "E4",
          "midi": 64,
          "duration": 0.367742,
          "velocity": 0.96063
        },
        {
          "time": 615.850691,
          "name": "B3",
          "midi": 59,
          "duration": 0.344411,
          "velocity": 0.88189
        },
        {
          "time": 615.850691,
          "name": "B4",
          "midi": 71,
          "duration": 0.344411,
          "velocity": 0.88189
        },
        {
          "time": 615.856733,
          "name": "G4",
          "midi": 67,
          "duration": 0.344411,
          "velocity": 0.88189
        },
        {
          "time": 615.856733,
          "name": "B3",
          "midi": 59,
          "duration": 0.344411,
          "velocity": 0.88189
        },
        {
          "time": 615.859754,
          "name": "B3",
          "midi": 59,
          "duration": 0.344411,
          "velocity": 0.88189
        },
        {
          "time": 615.859754,
          "name": "B4",
          "midi": 71,
          "duration": 0.344411,
          "velocity": 0.88189
        },
        {
          "time": 615.859754,
          "name": "G4",
          "midi": 67,
          "duration": 0.344411,
          "velocity": 0.96063
        },
        {
          "time": 615.859754,
          "name": "E4",
          "midi": 64,
          "duration": 0.344411,
          "velocity": 0.96063
        },
        {
          "time": 616.213843,
          "name": "B4",
          "midi": 71,
          "duration": 0.367742,
          "velocity": 0.88189
        },
        {
          "time": 616.213843,
          "name": "B3",
          "midi": 59,
          "duration": 0.367742,
          "velocity": 0.88189
        },
        {
          "time": 616.220294,
          "name": "F#4",
          "midi": 66,
          "duration": 0.367742,
          "velocity": 0.88189
        },
        {
          "time": 616.220294,
          "name": "B3",
          "midi": 59,
          "duration": 0.367742,
          "velocity": 0.88189
        },
        {
          "time": 616.22352,
          "name": "B4",
          "midi": 71,
          "duration": 0.367742,
          "velocity": 0.88189
        },
        {
          "time": 616.22352,
          "name": "B3",
          "midi": 59,
          "duration": 0.367742,
          "velocity": 0.88189
        },
        {
          "time": 616.22352,
          "name": "F#4",
          "midi": 66,
          "duration": 0.367742,
          "velocity": 0.96063
        },
        {
          "time": 616.22352,
          "name": "D#4",
          "midi": 63,
          "duration": 0.367742,
          "velocity": 0.96063
        },
        {
          "time": 616.600326,
          "name": "B4",
          "midi": 71,
          "duration": 0.344411,
          "velocity": 0.88189
        },
        {
          "time": 616.600326,
          "name": "B3",
          "midi": 59,
          "duration": 0.344411,
          "velocity": 0.88189
        },
        {
          "time": 616.606368,
          "name": "G4",
          "midi": 67,
          "duration": 0.344411,
          "velocity": 0.88189
        },
        {
          "time": 616.606368,
          "name": "B3",
          "midi": 59,
          "duration": 0.344411,
          "velocity": 0.88189
        },
        {
          "time": 616.609389,
          "name": "B4",
          "midi": 71,
          "duration": 0.344411,
          "velocity": 0.88189
        },
        {
          "time": 616.609389,
          "name": "B3",
          "midi": 59,
          "duration": 0.344411,
          "velocity": 0.88189
        },
        {
          "time": 616.609389,
          "name": "G4",
          "midi": 67,
          "duration": 0.344411,
          "velocity": 0.96063
        },
        {
          "time": 616.609389,
          "name": "E4",
          "midi": 64,
          "duration": 0.344411,
          "velocity": 0.96063
        },
        {
          "time": 616.963478,
          "name": "B3",
          "midi": 59,
          "duration": 0.367742,
          "velocity": 0.88189
        },
        {
          "time": 616.963478,
          "name": "B4",
          "midi": 71,
          "duration": 0.367742,
          "velocity": 0.88189
        },
        {
          "time": 616.969929,
          "name": "G4",
          "midi": 67,
          "duration": 0.367742,
          "velocity": 0.88189
        },
        {
          "time": 616.969929,
          "name": "B3",
          "midi": 59,
          "duration": 0.367742,
          "velocity": 0.88189
        },
        {
          "time": 616.973155,
          "name": "B3",
          "midi": 59,
          "duration": 0.367742,
          "velocity": 0.88189
        },
        {
          "time": 616.973155,
          "name": "B4",
          "midi": 71,
          "duration": 0.367742,
          "velocity": 0.88189
        },
        {
          "time": 616.973155,
          "name": "E4",
          "midi": 64,
          "duration": 0.367742,
          "velocity": 0.96063
        },
        {
          "time": 616.973155,
          "name": "G4",
          "midi": 67,
          "duration": 0.367742,
          "velocity": 0.96063
        },
        {
          "time": 617.349961,
          "name": "B3",
          "midi": 59,
          "duration": 0.344411,
          "velocity": 0.88189
        },
        {
          "time": 617.349961,
          "name": "B4",
          "midi": 71,
          "duration": 0.344411,
          "velocity": 0.88189
        },
        {
          "time": 617.356003,
          "name": "F#4",
          "midi": 66,
          "duration": 0.344411,
          "velocity": 0.88189
        },
        {
          "time": 617.356003,
          "name": "B3",
          "midi": 59,
          "duration": 0.344411,
          "velocity": 0.88189
        },
        {
          "time": 617.359024,
          "name": "B3",
          "midi": 59,
          "duration": 0.344411,
          "velocity": 0.88189
        },
        {
          "time": 617.359024,
          "name": "B4",
          "midi": 71,
          "duration": 0.344411,
          "velocity": 0.88189
        },
        {
          "time": 617.359024,
          "name": "D#4",
          "midi": 63,
          "duration": 0.344411,
          "velocity": 0.96063
        },
        {
          "time": 617.359024,
          "name": "F#4",
          "midi": 66,
          "duration": 0.344411,
          "velocity": 0.96063
        },
        {
          "time": 617.713113,
          "name": "B4",
          "midi": 71,
          "duration": 0.183871,
          "velocity": 0.88189
        },
        {
          "time": 617.713113,
          "name": "B3",
          "midi": 59,
          "duration": 0.183871,
          "velocity": 0.88189
        },
        {
          "time": 617.719564,
          "name": "G4",
          "midi": 67,
          "duration": 0.183871,
          "velocity": 0.88189
        },
        {
          "time": 617.719564,
          "name": "B3",
          "midi": 59,
          "duration": 0.183871,
          "velocity": 0.88189
        },
        {
          "time": 617.72279,
          "name": "B4",
          "midi": 71,
          "duration": 0.183871,
          "velocity": 0.88189
        },
        {
          "time": 617.72279,
          "name": "B3",
          "midi": 59,
          "duration": 0.183871,
          "velocity": 0.88189
        },
        {
          "time": 617.72279,
          "name": "G4",
          "midi": 67,
          "duration": 0.183871,
          "velocity": 0.96063
        },
        {
          "time": 617.72279,
          "name": "E4",
          "midi": 64,
          "duration": 0.183871,
          "velocity": 0.96063
        },
        {
          "time": 617.906661,
          "name": "B4",
          "midi": 71,
          "duration": 0.183871,
          "velocity": 0.88189
        },
        {
          "time": 617.906661,
          "name": "B3",
          "midi": 59,
          "duration": 0.183871,
          "velocity": 0.88189
        },
        {
          "time": 617.913113,
          "name": "G4",
          "midi": 67,
          "duration": 0.183462,
          "velocity": 0.88189
        },
        {
          "time": 617.913113,
          "name": "B3",
          "midi": 59,
          "duration": 0.183462,
          "velocity": 0.88189
        },
        {
          "time": 617.916339,
          "name": "B4",
          "midi": 71,
          "duration": 0.183257,
          "velocity": 0.88189
        },
        {
          "time": 617.916339,
          "name": "B3",
          "midi": 59,
          "duration": 0.183257,
          "velocity": 0.88189
        },
        {
          "time": 617.916339,
          "name": "G4",
          "midi": 67,
          "duration": 0.183257,
          "velocity": 0.96063
        },
        {
          "time": 617.916339,
          "name": "E4",
          "midi": 64,
          "duration": 0.183257,
          "velocity": 0.96063
        },
        {
          "time": 618.099596,
          "name": "B3",
          "midi": 59,
          "duration": 0.344411,
          "velocity": 0.88189
        },
        {
          "time": 618.099596,
          "name": "B4",
          "midi": 71,
          "duration": 0.344411,
          "velocity": 0.88189
        },
        {
          "time": 618.105638,
          "name": "F#4",
          "midi": 66,
          "duration": 0.344411,
          "velocity": 0.88189
        },
        {
          "time": 618.105638,
          "name": "B3",
          "midi": 59,
          "duration": 0.344411,
          "velocity": 0.88189
        },
        {
          "time": 618.108659,
          "name": "B3",
          "midi": 59,
          "duration": 0.344411,
          "velocity": 0.88189
        },
        {
          "time": 618.108659,
          "name": "B4",
          "midi": 71,
          "duration": 0.344411,
          "velocity": 0.88189
        },
        {
          "time": 618.108659,
          "name": "D#4",
          "midi": 63,
          "duration": 0.344411,
          "velocity": 0.96063
        },
        {
          "time": 618.108659,
          "name": "F#4",
          "midi": 66,
          "duration": 0.344411,
          "velocity": 0.96063
        },
        {
          "time": 618.462748,
          "name": "B3",
          "midi": 59,
          "duration": 0.367742,
          "velocity": 0.88189
        },
        {
          "time": 618.462748,
          "name": "B4",
          "midi": 71,
          "duration": 0.367742,
          "velocity": 0.88189
        },
        {
          "time": 618.469199,
          "name": "G4",
          "midi": 67,
          "duration": 0.367742,
          "velocity": 0.88189
        },
        {
          "time": 618.469199,
          "name": "B3",
          "midi": 59,
          "duration": 0.367742,
          "velocity": 0.88189
        },
        {
          "time": 618.472425,
          "name": "B3",
          "midi": 59,
          "duration": 0.367742,
          "velocity": 0.88189
        },
        {
          "time": 618.472425,
          "name": "B4",
          "midi": 71,
          "duration": 0.367742,
          "velocity": 0.88189
        },
        {
          "time": 618.472425,
          "name": "G4",
          "midi": 67,
          "duration": 0.367742,
          "velocity": 0.96063
        },
        {
          "time": 618.472425,
          "name": "E4",
          "midi": 64,
          "duration": 0.367742,
          "velocity": 0.96063
        },
        {
          "time": 618.849231,
          "name": "B4",
          "midi": 71,
          "duration": 0.344411,
          "velocity": 0.88189
        },
        {
          "time": 618.849231,
          "name": "B3",
          "midi": 59,
          "duration": 0.344411,
          "velocity": 0.88189
        },
        {
          "time": 618.855273,
          "name": "G4",
          "midi": 67,
          "duration": 0.344411,
          "velocity": 0.88189
        },
        {
          "time": 618.855273,
          "name": "B3",
          "midi": 59,
          "duration": 0.344411,
          "velocity": 0.88189
        },
        {
          "time": 618.858294,
          "name": "B4",
          "midi": 71,
          "duration": 0.344411,
          "velocity": 0.88189
        },
        {
          "time": 618.858294,
          "name": "B3",
          "midi": 59,
          "duration": 0.344411,
          "velocity": 0.88189
        },
        {
          "time": 618.858294,
          "name": "G4",
          "midi": 67,
          "duration": 0.344411,
          "velocity": 0.96063
        },
        {
          "time": 618.858294,
          "name": "E4",
          "midi": 64,
          "duration": 0.344411,
          "velocity": 0.96063
        },
        {
          "time": 619.212383,
          "name": "B4",
          "midi": 71,
          "duration": 0.367742,
          "velocity": 0.88189
        },
        {
          "time": 619.212383,
          "name": "B3",
          "midi": 59,
          "duration": 0.367742,
          "velocity": 0.88189
        },
        {
          "time": 619.218834,
          "name": "F#4",
          "midi": 66,
          "duration": 0.367742,
          "velocity": 0.88189
        },
        {
          "time": 619.218834,
          "name": "B3",
          "midi": 59,
          "duration": 0.367742,
          "velocity": 0.88189
        },
        {
          "time": 619.22206,
          "name": "B4",
          "midi": 71,
          "duration": 0.367742,
          "velocity": 0.88189
        },
        {
          "time": 619.22206,
          "name": "B3",
          "midi": 59,
          "duration": 0.367742,
          "velocity": 0.88189
        },
        {
          "time": 619.22206,
          "name": "D#4",
          "midi": 63,
          "duration": 0.367742,
          "velocity": 0.96063
        },
        {
          "time": 619.22206,
          "name": "F#4",
          "midi": 66,
          "duration": 0.367742,
          "velocity": 0.96063
        },
        {
          "time": 619.598866,
          "name": "B3",
          "midi": 59,
          "duration": 0.344411,
          "velocity": 0.88189
        },
        {
          "time": 619.598866,
          "name": "B4",
          "midi": 71,
          "duration": 0.344411,
          "velocity": 0.88189
        },
        {
          "time": 619.604908,
          "name": "G4",
          "midi": 67,
          "duration": 0.344411,
          "velocity": 0.88189
        },
        {
          "time": 619.604908,
          "name": "B3",
          "midi": 59,
          "duration": 0.344411,
          "velocity": 0.88189
        },
        {
          "time": 619.607929,
          "name": "B3",
          "midi": 59,
          "duration": 0.344411,
          "velocity": 0.88189
        },
        {
          "time": 619.607929,
          "name": "B4",
          "midi": 71,
          "duration": 0.344411,
          "velocity": 0.88189
        },
        {
          "time": 619.607929,
          "name": "G4",
          "midi": 67,
          "duration": 0.344411,
          "velocity": 0.96063
        },
        {
          "time": 619.607929,
          "name": "E4",
          "midi": 64,
          "duration": 0.344411,
          "velocity": 0.96063
        },
        {
          "time": 619.962018,
          "name": "B3",
          "midi": 59,
          "duration": 0.183871,
          "velocity": 0.88189
        },
        {
          "time": 619.962018,
          "name": "B4",
          "midi": 71,
          "duration": 0.183871,
          "velocity": 0.88189
        },
        {
          "time": 619.968469,
          "name": "B3",
          "midi": 59,
          "duration": 0.183871,
          "velocity": 0.88189
        },
        {
          "time": 619.968469,
          "name": "G4",
          "midi": 67,
          "duration": 0.183871,
          "velocity": 0.88189
        },
        {
          "time": 619.971695,
          "name": "B3",
          "midi": 59,
          "duration": 0.183871,
          "velocity": 0.88189
        },
        {
          "time": 619.971695,
          "name": "B4",
          "midi": 71,
          "duration": 0.183871,
          "velocity": 0.88189
        },
        {
          "time": 619.971695,
          "name": "E4",
          "midi": 64,
          "duration": 0.183871,
          "velocity": 0.96063
        },
        {
          "time": 619.971695,
          "name": "G4",
          "midi": 67,
          "duration": 0.183871,
          "velocity": 0.96063
        },
        {
          "time": 620.155566,
          "name": "B4",
          "midi": 71,
          "duration": 0.183871,
          "velocity": 0.88189
        },
        {
          "time": 620.155566,
          "name": "B3",
          "midi": 59,
          "duration": 0.183871,
          "velocity": 0.88189
        },
        {
          "time": 620.162018,
          "name": "B3",
          "midi": 59,
          "duration": 0.183462,
          "velocity": 0.88189
        },
        {
          "time": 620.162018,
          "name": "F#4",
          "midi": 66,
          "duration": 0.183462,
          "velocity": 0.88189
        },
        {
          "time": 620.165244,
          "name": "B4",
          "midi": 71,
          "duration": 0.183257,
          "velocity": 0.88189
        },
        {
          "time": 620.165244,
          "name": "B3",
          "midi": 59,
          "duration": 0.183257,
          "velocity": 0.88189
        },
        {
          "time": 620.165244,
          "name": "D#4",
          "midi": 63,
          "duration": 0.183257,
          "velocity": 0.96063
        },
        {
          "time": 620.165244,
          "name": "F#4",
          "midi": 66,
          "duration": 0.183257,
          "velocity": 0.96063
        },
        {
          "time": 620.348501,
          "name": "B4",
          "midi": 71,
          "duration": 0.172206,
          "velocity": 0.88189
        },
        {
          "time": 620.348501,
          "name": "B3",
          "midi": 59,
          "duration": 0.172206,
          "velocity": 0.88189
        },
        {
          "time": 620.354543,
          "name": "E4",
          "midi": 64,
          "duration": 0.172206,
          "velocity": 0.88189
        },
        {
          "time": 620.354543,
          "name": "B3",
          "midi": 59,
          "duration": 0.172206,
          "velocity": 0.88189
        },
        {
          "time": 620.357564,
          "name": "B4",
          "midi": 71,
          "duration": 0.172206,
          "velocity": 0.88189
        },
        {
          "time": 620.357564,
          "name": "B3",
          "midi": 59,
          "duration": 0.172206,
          "velocity": 0.88189
        },
        {
          "time": 620.357564,
          "name": "E4",
          "midi": 64,
          "duration": 0.172206,
          "velocity": 0.96063
        },
        {
          "time": 620.357564,
          "name": "G4",
          "midi": 67,
          "duration": 0.172206,
          "velocity": 0.96063
        },
        {
          "time": 620.52977,
          "name": "A3",
          "midi": 57,
          "duration": 0.172206,
          "velocity": 0.88189
        },
        {
          "time": 620.52977,
          "name": "G4",
          "midi": 67,
          "duration": 0.172206,
          "velocity": 0.88189
        },
        {
          "time": 620.535812,
          "name": "C#4",
          "midi": 61,
          "duration": 0.172615,
          "velocity": 0.88189
        },
        {
          "time": 620.535812,
          "name": "E4",
          "midi": 64,
          "duration": 0.172615,
          "velocity": 0.88189
        },
        {
          "time": 620.538833,
          "name": "A3",
          "midi": 57,
          "duration": 0.17282,
          "velocity": 0.88189
        },
        {
          "time": 620.538833,
          "name": "G4",
          "midi": 67,
          "duration": 0.17282,
          "velocity": 0.88189
        },
        {
          "time": 620.538833,
          "name": "C#4",
          "midi": 61,
          "duration": 0.17282,
          "velocity": 0.96063
        },
        {
          "time": 620.538833,
          "name": "E4",
          "midi": 64,
          "duration": 0.17282,
          "velocity": 0.96063
        },
        {
          "time": 620.711653,
          "name": "A3",
          "midi": 57,
          "duration": 0.193549,
          "velocity": 0.88189
        },
        {
          "time": 620.711653,
          "name": "A4",
          "midi": 69,
          "duration": 0.193549,
          "velocity": 0.88189
        },
        {
          "time": 620.718104,
          "name": "F#4",
          "midi": 66,
          "duration": 0.193549,
          "velocity": 0.88189
        },
        {
          "time": 620.718104,
          "name": "D4",
          "midi": 62,
          "duration": 0.193549,
          "velocity": 0.88189
        },
        {
          "time": 620.72133,
          "name": "A3",
          "midi": 57,
          "duration": 0.193549,
          "velocity": 0.88189
        },
        {
          "time": 620.72133,
          "name": "A4",
          "midi": 69,
          "duration": 0.193549,
          "velocity": 0.88189
        },
        {
          "time": 620.72133,
          "name": "F#3",
          "midi": 54,
          "duration": 0.193549,
          "velocity": 0.96063
        },
        {
          "time": 620.72133,
          "name": "D4",
          "midi": 62,
          "duration": 0.193549,
          "velocity": 0.96063
        },
        {
          "time": 621.661288,
          "name": "D4",
          "midi": 62,
          "duration": 0.192525,
          "velocity": 0.88189
        },
        {
          "time": 621.664514,
          "name": "A3",
          "midi": 57,
          "duration": 0.192321,
          "velocity": 0.88189
        },
        {
          "time": 621.664514,
          "name": "F#3",
          "midi": 54,
          "duration": 0.192321,
          "velocity": 0.88189
        },
        {
          "time": 621.853813,
          "name": "D5",
          "midi": 74,
          "duration": 0.181269,
          "velocity": 0.88189
        },
        {
          "time": 621.856834,
          "name": "C4",
          "midi": 60,
          "duration": 0.363766,
          "velocity": 0.88189
        },
        {
          "time": 621.856834,
          "name": "A3",
          "midi": 57,
          "duration": 0.363766,
          "velocity": 0.88189
        },
        {
          "time": 622.410923,
          "name": "D4",
          "midi": 62,
          "duration": 0.192525,
          "velocity": 0.88189
        },
        {
          "time": 622.414149,
          "name": "G#3",
          "midi": 56,
          "duration": 0.192321,
          "velocity": 0.88189
        },
        {
          "time": 622.414149,
          "name": "F3",
          "midi": 53,
          "duration": 0.192321,
          "velocity": 0.88189
        },
        {
          "time": 622.603448,
          "name": "D5",
          "midi": 74,
          "duration": 0.181269,
          "velocity": 0.88189
        },
        {
          "time": 622.606469,
          "name": "B3",
          "midi": 59,
          "duration": 0.363766,
          "velocity": 0.88189
        },
        {
          "time": 622.606469,
          "name": "G#3",
          "midi": 56,
          "duration": 0.363766,
          "velocity": 0.88189
        },
        {
          "time": 623.160558,
          "name": "D4",
          "midi": 62,
          "duration": 0.192525,
          "velocity": 0.88189
        },
        {
          "time": 623.163784,
          "name": "A3",
          "midi": 57,
          "duration": 0.192321,
          "velocity": 0.88189
        },
        {
          "time": 623.163784,
          "name": "F#3",
          "midi": 54,
          "duration": 0.192321,
          "velocity": 0.88189
        },
        {
          "time": 623.353083,
          "name": "D5",
          "midi": 74,
          "duration": 0.181269,
          "velocity": 0.88189
        },
        {
          "time": 623.356104,
          "name": "C4",
          "midi": 60,
          "duration": 0.363766,
          "velocity": 0.88189
        },
        {
          "time": 623.356104,
          "name": "A3",
          "midi": 57,
          "duration": 0.363766,
          "velocity": 0.88189
        },
        {
          "time": 623.910193,
          "name": "D4",
          "midi": 62,
          "duration": 0.192525,
          "velocity": 0.88189
        },
        {
          "time": 624.102718,
          "name": "D5",
          "midi": 74,
          "duration": 0.181269,
          "velocity": 0.88189
        },
        {
          "time": 624.653376,
          "name": "C4",
          "midi": 60,
          "duration": 0.192935,
          "velocity": 0.88189
        },
        {
          "time": 624.653376,
          "name": "A3",
          "midi": 57,
          "duration": 0.192935,
          "velocity": 0.88189
        },
        {
          "time": 624.659828,
          "name": "D4",
          "midi": 62,
          "duration": 0.192525,
          "velocity": 0.88189
        },
        {
          "time": 624.846311,
          "name": "E4",
          "midi": 64,
          "duration": 0.181269,
          "velocity": 0.88189
        },
        {
          "time": 624.846311,
          "name": "C4",
          "midi": 60,
          "duration": 0.181269,
          "velocity": 0.88189
        },
        {
          "time": 624.852353,
          "name": "D5",
          "midi": 74,
          "duration": 0.181269,
          "velocity": 0.88189
        },
        {
          "time": 625.403011,
          "name": "B3",
          "midi": 59,
          "duration": 0.192935,
          "velocity": 0.88189
        },
        {
          "time": 625.403011,
          "name": "G#3",
          "midi": 56,
          "duration": 0.192935,
          "velocity": 0.88189
        },
        {
          "time": 625.409463,
          "name": "D4",
          "midi": 62,
          "duration": 0.192525,
          "velocity": 0.88189
        },
        {
          "time": 625.595946,
          "name": "D4",
          "midi": 62,
          "duration": 0.181269,
          "velocity": 0.88189
        },
        {
          "time": 625.595946,
          "name": "B3",
          "midi": 59,
          "duration": 0.181269,
          "velocity": 0.88189
        },
        {
          "time": 625.601988,
          "name": "D5",
          "midi": 74,
          "duration": 0.181269,
          "velocity": 0.88189
        },
        {
          "time": 626.152646,
          "name": "A3",
          "midi": 57,
          "duration": 0.192935,
          "velocity": 0.88189
        },
        {
          "time": 626.152646,
          "name": "F#3",
          "midi": 54,
          "duration": 0.192935,
          "velocity": 0.88189
        },
        {
          "time": 626.159098,
          "name": "D4",
          "midi": 62,
          "duration": 0.192525,
          "velocity": 0.88189
        },
        {
          "time": 626.345581,
          "name": "C4",
          "midi": 60,
          "duration": 0.181269,
          "velocity": 0.88189
        },
        {
          "time": 626.345581,
          "name": "A3",
          "midi": 57,
          "duration": 0.181269,
          "velocity": 0.88189
        },
        {
          "time": 626.351623,
          "name": "D5",
          "midi": 74,
          "duration": 0.181269,
          "velocity": 0.88189
        },
        {
          "time": 626.908733,
          "name": "D3",
          "midi": 50,
          "duration": 0.192525,
          "velocity": 0.88189
        },
        {
          "time": 627.101258,
          "name": "D4",
          "midi": 62,
          "duration": 0.181269,
          "velocity": 0.88189
        },
        {
          "time": 627.282527,
          "name": "F#4",
          "midi": 66,
          "duration": 0.182292,
          "velocity": 0.88189
        },
        {
          "time": 627.458368,
          "name": "D4",
          "midi": 62,
          "duration": 1.49927,
          "velocity": 0.88189
        },
        {
          "time": 627.464819,
          "name": "A4",
          "midi": 69,
          "duration": 0.193549,
          "velocity": 0.88189
        },
        {
          "time": 627.468045,
          "name": "F#3",
          "midi": 54,
          "duration": 0.385869,
          "velocity": 0.88189
        },
        {
          "time": 627.468045,
          "name": "F#3",
          "midi": 54,
          "duration": 0.385869,
          "velocity": 0.96063
        },
        {
          "time": 627.658368,
          "name": "C5",
          "midi": 72,
          "duration": 0.192525,
          "velocity": 0.88189
        },
        {
          "time": 627.850893,
          "name": "B4",
          "midi": 71,
          "duration": 0.181269,
          "velocity": 0.88189
        },
        {
          "time": 627.853914,
          "name": "G3",
          "midi": 55,
          "duration": 0.363766,
          "velocity": 0.88189
        },
        {
          "time": 627.853914,
          "name": "G3",
          "midi": 55,
          "duration": 0.363766,
          "velocity": 0.96063
        },
        {
          "time": 628.032162,
          "name": "G4",
          "midi": 67,
          "duration": 0.182292,
          "velocity": 0.88189
        },
        {
          "time": 628.214454,
          "name": "F#4",
          "midi": 66,
          "duration": 0.193549,
          "velocity": 0.88189
        },
        {
          "time": 628.21768,
          "name": "A3",
          "midi": 57,
          "duration": 0.385869,
          "velocity": 0.88189
        },
        {
          "time": 628.21768,
          "name": "A3",
          "midi": 57,
          "duration": 0.385869,
          "velocity": 0.96063
        },
        {
          "time": 628.408003,
          "name": "A4",
          "midi": 69,
          "duration": 0.192525,
          "velocity": 0.88189
        },
        {
          "time": 628.600528,
          "name": "G4",
          "midi": 67,
          "duration": 0.181269,
          "velocity": 0.88189
        },
        {
          "time": 628.603549,
          "name": "B3",
          "midi": 59,
          "duration": 0.363766,
          "velocity": 0.88189
        },
        {
          "time": 628.603549,
          "name": "B3",
          "midi": 59,
          "duration": 0.363766,
          "velocity": 0.96063
        },
        {
          "time": 628.781797,
          "name": "E4",
          "midi": 64,
          "duration": 0.182292,
          "velocity": 0.88189
        },
        {
          "time": 628.957638,
          "name": "D4",
          "midi": 62,
          "duration": 1.49927,
          "velocity": 0.88189
        },
        {
          "time": 628.964089,
          "name": "D4",
          "midi": 62,
          "duration": 0.193549,
          "velocity": 0.88189
        },
        {
          "time": 628.967315,
          "name": "C4",
          "midi": 60,
          "duration": 0.385869,
          "velocity": 0.88189
        },
        {
          "time": 628.967315,
          "name": "C4",
          "midi": 60,
          "duration": 0.385869,
          "velocity": 0.96063
        },
        {
          "time": 629.157638,
          "name": "F#4",
          "midi": 66,
          "duration": 0.192525,
          "velocity": 0.88189
        },
        {
          "time": 629.350163,
          "name": "E4",
          "midi": 64,
          "duration": 0.181269,
          "velocity": 0.88189
        },
        {
          "time": 629.353184,
          "name": "B3",
          "midi": 59,
          "duration": 0.363766,
          "velocity": 0.88189
        },
        {
          "time": 629.353184,
          "name": "B3",
          "midi": 59,
          "duration": 0.363766,
          "velocity": 0.96063
        },
        {
          "time": 629.531432,
          "name": "G4",
          "midi": 67,
          "duration": 0.182292,
          "velocity": 0.88189
        },
        {
          "time": 629.713724,
          "name": "F#4",
          "midi": 66,
          "duration": 0.193549,
          "velocity": 0.88189
        },
        {
          "time": 629.71695,
          "name": "A3",
          "midi": 57,
          "duration": 0.385869,
          "velocity": 0.88189
        },
        {
          "time": 629.71695,
          "name": "A3",
          "midi": 57,
          "duration": 0.385869,
          "velocity": 0.96063
        },
        {
          "time": 629.907273,
          "name": "A4",
          "midi": 69,
          "duration": 0.192525,
          "velocity": 0.88189
        },
        {
          "time": 630.099798,
          "name": "G4",
          "midi": 67,
          "duration": 0.181269,
          "velocity": 0.88189
        },
        {
          "time": 630.102819,
          "name": "G3",
          "midi": 55,
          "duration": 0.363766,
          "velocity": 0.88189
        },
        {
          "time": 630.102819,
          "name": "G3",
          "midi": 55,
          "duration": 0.363766,
          "velocity": 0.96063
        },
        {
          "time": 630.281067,
          "name": "B4",
          "midi": 71,
          "duration": 0.182292,
          "velocity": 0.88189
        },
        {
          "time": 630.456908,
          "name": "D4",
          "midi": 62,
          "duration": 1.692819,
          "velocity": 0.88189
        },
        {
          "time": 630.463359,
          "name": "A4",
          "midi": 69,
          "duration": 0.193549,
          "velocity": 0.88189
        },
        {
          "time": 630.466585,
          "name": "F#3",
          "midi": 54,
          "duration": 0.385869,
          "velocity": 0.88189
        },
        {
          "time": 630.466585,
          "name": "F#3",
          "midi": 54,
          "duration": 0.385869,
          "velocity": 0.96063
        },
        {
          "time": 630.656908,
          "name": "C5",
          "midi": 72,
          "duration": 0.192525,
          "velocity": 0.88189
        },
        {
          "time": 630.849433,
          "name": "B4",
          "midi": 71,
          "duration": 0.181269,
          "velocity": 0.88189
        },
        {
          "time": 630.852454,
          "name": "G3",
          "midi": 55,
          "duration": 0.363766,
          "velocity": 0.88189
        },
        {
          "time": 630.852454,
          "name": "G3",
          "midi": 55,
          "duration": 0.363766,
          "velocity": 0.96063
        },
        {
          "time": 631.030702,
          "name": "G4",
          "midi": 67,
          "duration": 0.182292,
          "velocity": 0.88189
        },
        {
          "time": 631.212994,
          "name": "F#4",
          "midi": 66,
          "duration": 0.193549,
          "velocity": 0.88189
        },
        {
          "time": 631.21622,
          "name": "A3",
          "midi": 57,
          "duration": 0.385869,
          "velocity": 0.88189
        },
        {
          "time": 631.21622,
          "name": "A3",
          "midi": 57,
          "duration": 0.385869,
          "velocity": 0.96063
        },
        {
          "time": 631.406543,
          "name": "A4",
          "midi": 69,
          "duration": 0.192525,
          "velocity": 0.88189
        },
        {
          "time": 631.599068,
          "name": "G4",
          "midi": 67,
          "duration": 0.181269,
          "velocity": 0.88189
        },
        {
          "time": 631.602089,
          "name": "B3",
          "midi": 59,
          "duration": 0.181269,
          "velocity": 0.88189
        },
        {
          "time": 631.602089,
          "name": "B3",
          "midi": 59,
          "duration": 0.181269,
          "velocity": 0.96063
        },
        {
          "time": 631.780337,
          "name": "E4",
          "midi": 64,
          "duration": 0.182292,
          "velocity": 0.88189
        },
        {
          "time": 631.783358,
          "name": "C#4",
          "midi": 61,
          "duration": 0.182497,
          "velocity": 0.88189
        },
        {
          "time": 631.783358,
          "name": "C#4",
          "midi": 61,
          "duration": 0.182497,
          "velocity": 0.96063
        },
        {
          "time": 631.962629,
          "name": "D4",
          "midi": 62,
          "duration": 0.193549,
          "velocity": 0.88189
        },
        {
          "time": 631.965855,
          "name": "D4",
          "midi": 62,
          "duration": 0.193549,
          "velocity": 0.88189
        },
        {
          "time": 631.965855,
          "name": "D4",
          "midi": 62,
          "duration": 0.193549,
          "velocity": 0.96063
        },
        {
          "time": 633.648996,
          "name": "G4",
          "midi": 67,
          "duration": 0.192935,
          "velocity": 0.88189
        },
        {
          "time": 633.648996,
          "name": "G3",
          "midi": 55,
          "duration": 0.192935,
          "velocity": 0.88189
        },
        {
          "time": 633.655448,
          "name": "B4",
          "midi": 71,
          "duration": 0.192525,
          "velocity": 0.88189
        },
        {
          "time": 633.655448,
          "name": "D4",
          "midi": 62,
          "duration": 0.192525,
          "velocity": 0.88189
        },
        {
          "time": 633.655448,
          "name": "G3",
          "midi": 55,
          "duration": 0.192525,
          "velocity": 0.88189
        },
        {
          "time": 633.658674,
          "name": "G4",
          "midi": 67,
          "duration": 0.192321,
          "velocity": 0.88189
        },
        {
          "time": 633.658674,
          "name": "G3",
          "midi": 55,
          "duration": 0.192321,
          "velocity": 0.88189
        },
        {
          "time": 633.658674,
          "name": "D4",
          "midi": 62,
          "duration": 0.192321,
          "velocity": 0.96063
        },
        {
          "time": 633.658674,
          "name": "B3",
          "midi": 59,
          "duration": 0.192321,
          "velocity": 0.96063
        },
        {
          "time": 634.0232,
          "name": "G4",
          "midi": 67,
          "duration": 0.181883,
          "velocity": 0.88189
        },
        {
          "time": 634.0232,
          "name": "G3",
          "midi": 55,
          "duration": 0.181883,
          "velocity": 0.88189
        },
        {
          "time": 634.029242,
          "name": "B4",
          "midi": 71,
          "duration": 0.182292,
          "velocity": 0.88189
        },
        {
          "time": 634.029242,
          "name": "D4",
          "midi": 62,
          "duration": 0.182292,
          "velocity": 0.88189
        },
        {
          "time": 634.029242,
          "name": "G3",
          "midi": 55,
          "duration": 0.182292,
          "velocity": 0.88189
        },
        {
          "time": 634.032263,
          "name": "G4",
          "midi": 67,
          "duration": 0.182497,
          "velocity": 0.88189
        },
        {
          "time": 634.032263,
          "name": "G3",
          "midi": 55,
          "duration": 0.182497,
          "velocity": 0.88189
        },
        {
          "time": 634.032263,
          "name": "D4",
          "midi": 62,
          "duration": 0.182497,
          "velocity": 0.96063
        },
        {
          "time": 634.032263,
          "name": "B3",
          "midi": 59,
          "duration": 0.182497,
          "velocity": 0.96063
        },
        {
          "time": 634.398631,
          "name": "F#4",
          "midi": 66,
          "duration": 0.192935,
          "velocity": 0.88189
        },
        {
          "time": 634.398631,
          "name": "C4",
          "midi": 60,
          "duration": 0.192935,
          "velocity": 0.88189
        },
        {
          "time": 634.405083,
          "name": "F#4",
          "midi": 66,
          "duration": 0.192525,
          "velocity": 0.88189
        },
        {
          "time": 634.405083,
          "name": "A3",
          "midi": 57,
          "duration": 0.192525,
          "velocity": 0.88189
        },
        {
          "time": 634.408309,
          "name": "F#4",
          "midi": 66,
          "duration": 0.192321,
          "velocity": 0.88189
        },
        {
          "time": 634.408309,
          "name": "C4",
          "midi": 60,
          "duration": 0.192321,
          "velocity": 0.88189
        },
        {
          "time": 634.408309,
          "name": "A3",
          "midi": 57,
          "duration": 0.192321,
          "velocity": 0.96063
        },
        {
          "time": 634.408309,
          "name": "D4",
          "midi": 62,
          "duration": 0.192321,
          "velocity": 0.96063
        },
        {
          "time": 634.772835,
          "name": "F#4",
          "midi": 66,
          "duration": 0.181883,
          "velocity": 0.88189
        },
        {
          "time": 634.772835,
          "name": "C4",
          "midi": 60,
          "duration": 0.181883,
          "velocity": 0.88189
        },
        {
          "time": 634.778877,
          "name": "F#4",
          "midi": 66,
          "duration": 0.182292,
          "velocity": 0.88189
        },
        {
          "time": 634.778877,
          "name": "A3",
          "midi": 57,
          "duration": 0.182292,
          "velocity": 0.88189
        },
        {
          "time": 634.781898,
          "name": "F#4",
          "midi": 66,
          "duration": 0.182497,
          "velocity": 0.88189
        },
        {
          "time": 634.781898,
          "name": "C4",
          "midi": 60,
          "duration": 0.182497,
          "velocity": 0.88189
        },
        {
          "time": 634.781898,
          "name": "A3",
          "midi": 57,
          "duration": 0.182497,
          "velocity": 0.96063
        },
        {
          "time": 634.781898,
          "name": "D4",
          "midi": 62,
          "duration": 0.182497,
          "velocity": 0.96063
        },
        {
          "time": 635.148266,
          "name": "G4",
          "midi": 67,
          "duration": 0.192935,
          "velocity": 0.88189
        },
        {
          "time": 635.148266,
          "name": "G3",
          "midi": 55,
          "duration": 0.192935,
          "velocity": 0.88189
        },
        {
          "time": 635.154718,
          "name": "B4",
          "midi": 71,
          "duration": 0.192525,
          "velocity": 0.88189
        },
        {
          "time": 635.154718,
          "name": "D4",
          "midi": 62,
          "duration": 0.192525,
          "velocity": 0.88189
        },
        {
          "time": 635.154718,
          "name": "G3",
          "midi": 55,
          "duration": 0.192525,
          "velocity": 0.88189
        },
        {
          "time": 635.157944,
          "name": "G4",
          "midi": 67,
          "duration": 0.192321,
          "velocity": 0.88189
        },
        {
          "time": 635.157944,
          "name": "G3",
          "midi": 55,
          "duration": 0.192321,
          "velocity": 0.88189
        },
        {
          "time": 635.157944,
          "name": "B3",
          "midi": 59,
          "duration": 0.192321,
          "velocity": 0.96063
        },
        {
          "time": 635.157944,
          "name": "D4",
          "midi": 62,
          "duration": 0.192321,
          "velocity": 0.96063
        },
        {
          "time": 635.52247,
          "name": "B4",
          "midi": 71,
          "duration": 0.181883,
          "velocity": 0.88189
        },
        {
          "time": 635.52247,
          "name": "D4",
          "midi": 62,
          "duration": 0.181883,
          "velocity": 0.88189
        },
        {
          "time": 635.528512,
          "name": "B4",
          "midi": 71,
          "duration": 0.182292,
          "velocity": 0.88189
        },
        {
          "time": 635.528512,
          "name": "D4",
          "midi": 62,
          "duration": 0.182292,
          "velocity": 0.88189
        },
        {
          "time": 635.528512,
          "name": "G3",
          "midi": 55,
          "duration": 0.182292,
          "velocity": 0.88189
        },
        {
          "time": 635.531533,
          "name": "B4",
          "midi": 71,
          "duration": 0.182497,
          "velocity": 0.88189
        },
        {
          "time": 635.531533,
          "name": "D4",
          "midi": 62,
          "duration": 0.182497,
          "velocity": 0.88189
        },
        {
          "time": 635.531533,
          "name": "B3",
          "midi": 59,
          "duration": 0.182497,
          "velocity": 0.96063
        },
        {
          "time": 635.531533,
          "name": "D4",
          "midi": 62,
          "duration": 0.182497,
          "velocity": 0.96063
        },
        {
          "time": 635.897901,
          "name": "B4",
          "midi": 71,
          "duration": 0.192935,
          "velocity": 0.88189
        },
        {
          "time": 635.897901,
          "name": "D4",
          "midi": 62,
          "duration": 0.192935,
          "velocity": 0.88189
        },
        {
          "time": 635.904353,
          "name": "B4",
          "midi": 71,
          "duration": 0.192525,
          "velocity": 0.88189
        },
        {
          "time": 635.904353,
          "name": "D4",
          "midi": 62,
          "duration": 0.192525,
          "velocity": 0.88189
        },
        {
          "time": 635.904353,
          "name": "G3",
          "midi": 55,
          "duration": 0.192525,
          "velocity": 0.88189
        },
        {
          "time": 635.907579,
          "name": "B4",
          "midi": 71,
          "duration": 0.192321,
          "velocity": 0.88189
        },
        {
          "time": 635.907579,
          "name": "D4",
          "midi": 62,
          "duration": 0.192321,
          "velocity": 0.88189
        },
        {
          "time": 635.907579,
          "name": "D4",
          "midi": 62,
          "duration": 0.192321,
          "velocity": 0.96063
        },
        {
          "time": 635.907579,
          "name": "B3",
          "midi": 59,
          "duration": 0.192321,
          "velocity": 0.96063
        },
        {
          "time": 636.272105,
          "name": "G4",
          "midi": 67,
          "duration": 0.181883,
          "velocity": 0.88189
        },
        {
          "time": 636.272105,
          "name": "G3",
          "midi": 55,
          "duration": 0.181883,
          "velocity": 0.88189
        },
        {
          "time": 636.278147,
          "name": "B4",
          "midi": 71,
          "duration": 0.182292,
          "velocity": 0.88189
        },
        {
          "time": 636.278147,
          "name": "D4",
          "midi": 62,
          "duration": 0.182292,
          "velocity": 0.88189
        },
        {
          "time": 636.278147,
          "name": "G3",
          "midi": 55,
          "duration": 0.182292,
          "velocity": 0.88189
        },
        {
          "time": 636.281168,
          "name": "G4",
          "midi": 67,
          "duration": 0.182497,
          "velocity": 0.88189
        },
        {
          "time": 636.281168,
          "name": "G3",
          "midi": 55,
          "duration": 0.182497,
          "velocity": 0.88189
        },
        {
          "time": 636.281168,
          "name": "D4",
          "midi": 62,
          "duration": 0.182497,
          "velocity": 0.96063
        },
        {
          "time": 636.281168,
          "name": "B3",
          "midi": 59,
          "duration": 0.182497,
          "velocity": 0.96063
        },
        {
          "time": 636.647536,
          "name": "C5",
          "midi": 72,
          "duration": 0.192935,
          "velocity": 0.88189
        },
        {
          "time": 636.647536,
          "name": "C4",
          "midi": 60,
          "duration": 0.192935,
          "velocity": 0.88189
        },
        {
          "time": 636.653988,
          "name": "F#4",
          "midi": 66,
          "duration": 0.192525,
          "velocity": 0.88189
        },
        {
          "time": 636.653988,
          "name": "C4",
          "midi": 60,
          "duration": 0.192525,
          "velocity": 0.88189
        },
        {
          "time": 636.657214,
          "name": "C5",
          "midi": 72,
          "duration": 0.192321,
          "velocity": 0.88189
        },
        {
          "time": 636.657214,
          "name": "C4",
          "midi": 60,
          "duration": 0.192321,
          "velocity": 0.88189
        },
        {
          "time": 636.657214,
          "name": "F#4",
          "midi": 66,
          "duration": 0.192321,
          "velocity": 0.96063
        },
        {
          "time": 636.657214,
          "name": "D4",
          "midi": 62,
          "duration": 0.192321,
          "velocity": 0.96063
        },
        {
          "time": 637.02174,
          "name": "C5",
          "midi": 72,
          "duration": 0.181883,
          "velocity": 0.88189
        },
        {
          "time": 637.02174,
          "name": "C4",
          "midi": 60,
          "duration": 0.181883,
          "velocity": 0.88189
        },
        {
          "time": 637.027782,
          "name": "F#4",
          "midi": 66,
          "duration": 0.182292,
          "velocity": 0.88189
        },
        {
          "time": 637.027782,
          "name": "C4",
          "midi": 60,
          "duration": 0.182292,
          "velocity": 0.88189
        },
        {
          "time": 637.030803,
          "name": "C5",
          "midi": 72,
          "duration": 0.182497,
          "velocity": 0.88189
        },
        {
          "time": 637.030803,
          "name": "C4",
          "midi": 60,
          "duration": 0.182497,
          "velocity": 0.88189
        },
        {
          "time": 637.030803,
          "name": "F#4",
          "midi": 66,
          "duration": 0.182497,
          "velocity": 0.96063
        },
        {
          "time": 637.030803,
          "name": "D4",
          "midi": 62,
          "duration": 0.182497,
          "velocity": 0.96063
        },
        {
          "time": 637.397171,
          "name": "C5",
          "midi": 72,
          "duration": 0.192935,
          "velocity": 0.88189
        },
        {
          "time": 637.397171,
          "name": "C4",
          "midi": 60,
          "duration": 0.192935,
          "velocity": 0.88189
        },
        {
          "time": 637.403623,
          "name": "F#4",
          "midi": 66,
          "duration": 0.192525,
          "velocity": 0.88189
        },
        {
          "time": 637.403623,
          "name": "C4",
          "midi": 60,
          "duration": 0.192525,
          "velocity": 0.88189
        },
        {
          "time": 637.406849,
          "name": "C5",
          "midi": 72,
          "duration": 0.192321,
          "velocity": 0.88189
        },
        {
          "time": 637.406849,
          "name": "C4",
          "midi": 60,
          "duration": 0.192321,
          "velocity": 0.88189
        },
        {
          "time": 637.406849,
          "name": "F#4",
          "midi": 66,
          "duration": 0.192321,
          "velocity": 0.96063
        },
        {
          "time": 637.406849,
          "name": "D4",
          "midi": 62,
          "duration": 0.192321,
          "velocity": 0.96063
        },
        {
          "time": 637.771375,
          "name": "C5",
          "midi": 72,
          "duration": 0.181883,
          "velocity": 0.88189
        },
        {
          "time": 637.771375,
          "name": "C4",
          "midi": 60,
          "duration": 0.181883,
          "velocity": 0.88189
        },
        {
          "time": 637.777417,
          "name": "F#4",
          "midi": 66,
          "duration": 0.182292,
          "velocity": 0.88189
        },
        {
          "time": 637.777417,
          "name": "C4",
          "midi": 60,
          "duration": 0.182292,
          "velocity": 0.88189
        },
        {
          "time": 637.780438,
          "name": "C5",
          "midi": 72,
          "duration": 0.182497,
          "velocity": 0.88189
        },
        {
          "time": 637.780438,
          "name": "C4",
          "midi": 60,
          "duration": 0.182497,
          "velocity": 0.88189
        },
        {
          "time": 637.780438,
          "name": "F#4",
          "midi": 66,
          "duration": 0.182497,
          "velocity": 0.96063
        },
        {
          "time": 637.780438,
          "name": "D4",
          "midi": 62,
          "duration": 0.182497,
          "velocity": 0.96063
        },
        {
          "time": 638.146806,
          "name": "B4",
          "midi": 71,
          "duration": 0.192935,
          "velocity": 0.88189
        },
        {
          "time": 638.146806,
          "name": "D4",
          "midi": 62,
          "duration": 0.192935,
          "velocity": 0.88189
        },
        {
          "time": 638.153258,
          "name": "B4",
          "midi": 71,
          "duration": 0.192525,
          "velocity": 0.88189
        },
        {
          "time": 638.153258,
          "name": "D4",
          "midi": 62,
          "duration": 0.192525,
          "velocity": 0.88189
        },
        {
          "time": 638.153258,
          "name": "G3",
          "midi": 55,
          "duration": 0.192525,
          "velocity": 0.88189
        },
        {
          "time": 638.156484,
          "name": "B4",
          "midi": 71,
          "duration": 0.192321,
          "velocity": 0.88189
        },
        {
          "time": 638.156484,
          "name": "D4",
          "midi": 62,
          "duration": 0.192321,
          "velocity": 0.88189
        },
        {
          "time": 638.156484,
          "name": "B3",
          "midi": 59,
          "duration": 0.192321,
          "velocity": 0.96063
        },
        {
          "time": 638.156484,
          "name": "G4",
          "midi": 67,
          "duration": 0.192321,
          "velocity": 0.96063
        },
        {
          "time": 638.52101,
          "name": "G4",
          "midi": 67,
          "duration": 0.181883,
          "velocity": 0.88189
        },
        {
          "time": 638.52101,
          "name": "C#4",
          "midi": 61,
          "duration": 0.181883,
          "velocity": 0.88189
        },
        {
          "time": 638.527052,
          "name": "E4",
          "midi": 64,
          "duration": 0.182292,
          "velocity": 0.88189
        },
        {
          "time": 638.527052,
          "name": "G4",
          "midi": 67,
          "duration": 0.182292,
          "velocity": 0.88189
        },
        {
          "time": 638.530073,
          "name": "G4",
          "midi": 67,
          "duration": 0.182497,
          "velocity": 0.88189
        },
        {
          "time": 638.530073,
          "name": "C#4",
          "midi": 61,
          "duration": 0.182497,
          "velocity": 0.88189
        },
        {
          "time": 638.530073,
          "name": "E4",
          "midi": 64,
          "duration": 0.182497,
          "velocity": 0.96063
        },
        {
          "time": 638.530073,
          "name": "G3",
          "midi": 55,
          "duration": 0.182497,
          "velocity": 0.96063
        },
        {
          "time": 638.896441,
          "name": "G4",
          "midi": 67,
          "duration": 0.192935,
          "velocity": 0.88189
        },
        {
          "time": 638.896441,
          "name": "D4",
          "midi": 62,
          "duration": 0.192935,
          "velocity": 0.88189
        },
        {
          "time": 638.902893,
          "name": "D4",
          "midi": 62,
          "duration": 0.192525,
          "velocity": 0.88189
        },
        {
          "time": 638.902893,
          "name": "G4",
          "midi": 67,
          "duration": 0.192525,
          "velocity": 0.88189
        },
        {
          "time": 638.906119,
          "name": "D4",
          "midi": 62,
          "duration": 0.192321,
          "velocity": 0.88189
        },
        {
          "time": 638.906119,
          "name": "G3",
          "midi": 55,
          "duration": 0.192321,
          "velocity": 0.88189
        },
        {
          "time": 638.906119,
          "name": "G3",
          "midi": 55,
          "duration": 0.192321,
          "velocity": 0.96063
        },
        {
          "time": 638.906119,
          "name": "D4",
          "midi": 62,
          "duration": 0.192321,
          "velocity": 0.96063
        },
        {
          "time": 639.270645,
          "name": "B4",
          "midi": 71,
          "duration": 0.181883,
          "velocity": 0.88189
        },
        {
          "time": 639.270645,
          "name": "D4",
          "midi": 62,
          "duration": 0.181883,
          "velocity": 0.88189
        },
        {
          "time": 639.276687,
          "name": "B4",
          "midi": 71,
          "duration": 0.182292,
          "velocity": 0.88189
        },
        {
          "time": 639.276687,
          "name": "D4",
          "midi": 62,
          "duration": 0.182292,
          "velocity": 0.88189
        },
        {
          "time": 639.276687,
          "name": "G3",
          "midi": 55,
          "duration": 0.182292,
          "velocity": 0.88189
        },
        {
          "time": 639.279708,
          "name": "B4",
          "midi": 71,
          "duration": 0.182497,
          "velocity": 0.88189
        },
        {
          "time": 639.279708,
          "name": "D4",
          "midi": 62,
          "duration": 0.182497,
          "velocity": 0.88189
        },
        {
          "time": 639.279708,
          "name": "D4",
          "midi": 62,
          "duration": 0.182497,
          "velocity": 0.96063
        },
        {
          "time": 639.279708,
          "name": "B3",
          "midi": 59,
          "duration": 0.182497,
          "velocity": 0.96063
        },
        {
          "time": 639.646076,
          "name": "G4",
          "midi": 67,
          "duration": 0.192935,
          "velocity": 0.88189
        },
        {
          "time": 639.646076,
          "name": "G3",
          "midi": 55,
          "duration": 0.192935,
          "velocity": 0.88189
        },
        {
          "time": 639.652528,
          "name": "B4",
          "midi": 71,
          "duration": 0.192525,
          "velocity": 0.88189
        },
        {
          "time": 639.652528,
          "name": "D4",
          "midi": 62,
          "duration": 0.192525,
          "velocity": 0.88189
        },
        {
          "time": 639.652528,
          "name": "G3",
          "midi": 55,
          "duration": 0.192525,
          "velocity": 0.88189
        },
        {
          "time": 639.655754,
          "name": "G4",
          "midi": 67,
          "duration": 0.192321,
          "velocity": 0.88189
        },
        {
          "time": 639.655754,
          "name": "G3",
          "midi": 55,
          "duration": 0.192321,
          "velocity": 0.88189
        },
        {
          "time": 639.655754,
          "name": "D4",
          "midi": 62,
          "duration": 0.192321,
          "velocity": 0.96063
        },
        {
          "time": 639.655754,
          "name": "B3",
          "midi": 59,
          "duration": 0.192321,
          "velocity": 0.96063
        },
        {
          "time": 640.02028,
          "name": "G4",
          "midi": 67,
          "duration": 0.181883,
          "velocity": 0.88189
        },
        {
          "time": 640.02028,
          "name": "G3",
          "midi": 55,
          "duration": 0.181883,
          "velocity": 0.88189
        },
        {
          "time": 640.026322,
          "name": "B4",
          "midi": 71,
          "duration": 0.182292,
          "velocity": 0.88189
        },
        {
          "time": 640.026322,
          "name": "D4",
          "midi": 62,
          "duration": 0.182292,
          "velocity": 0.88189
        },
        {
          "time": 640.026322,
          "name": "G3",
          "midi": 55,
          "duration": 0.182292,
          "velocity": 0.88189
        },
        {
          "time": 640.029343,
          "name": "G4",
          "midi": 67,
          "duration": 0.182497,
          "velocity": 0.88189
        },
        {
          "time": 640.029343,
          "name": "G3",
          "midi": 55,
          "duration": 0.182497,
          "velocity": 0.88189
        },
        {
          "time": 640.029343,
          "name": "D4",
          "midi": 62,
          "duration": 0.182497,
          "velocity": 0.96063
        },
        {
          "time": 640.029343,
          "name": "B3",
          "midi": 59,
          "duration": 0.182497,
          "velocity": 0.96063
        },
        {
          "time": 640.395711,
          "name": "F#4",
          "midi": 66,
          "duration": 0.192935,
          "velocity": 0.88189
        },
        {
          "time": 640.395711,
          "name": "C4",
          "midi": 60,
          "duration": 0.192935,
          "velocity": 0.88189
        },
        {
          "time": 640.402163,
          "name": "F#4",
          "midi": 66,
          "duration": 0.192525,
          "velocity": 0.88189
        },
        {
          "time": 640.402163,
          "name": "A3",
          "midi": 57,
          "duration": 0.192525,
          "velocity": 0.88189
        },
        {
          "time": 640.405389,
          "name": "F#4",
          "midi": 66,
          "duration": 0.192321,
          "velocity": 0.88189
        },
        {
          "time": 640.405389,
          "name": "C4",
          "midi": 60,
          "duration": 0.192321,
          "velocity": 0.88189
        },
        {
          "time": 640.405389,
          "name": "A3",
          "midi": 57,
          "duration": 0.192321,
          "velocity": 0.96063
        },
        {
          "time": 640.405389,
          "name": "D4",
          "midi": 62,
          "duration": 0.192321,
          "velocity": 0.96063
        },
        {
          "time": 640.769915,
          "name": "F#4",
          "midi": 66,
          "duration": 0.181883,
          "velocity": 0.88189
        },
        {
          "time": 640.769915,
          "name": "C4",
          "midi": 60,
          "duration": 0.181883,
          "velocity": 0.88189
        },
        {
          "time": 640.775957,
          "name": "F#4",
          "midi": 66,
          "duration": 0.182292,
          "velocity": 0.88189
        },
        {
          "time": 640.775957,
          "name": "A3",
          "midi": 57,
          "duration": 0.182292,
          "velocity": 0.88189
        },
        {
          "time": 640.778978,
          "name": "F#4",
          "midi": 66,
          "duration": 0.182497,
          "velocity": 0.88189
        },
        {
          "time": 640.778978,
          "name": "C4",
          "midi": 60,
          "duration": 0.182497,
          "velocity": 0.88189
        },
        {
          "time": 640.778978,
          "name": "A3",
          "midi": 57,
          "duration": 0.182497,
          "velocity": 0.96063
        },
        {
          "time": 640.778978,
          "name": "D4",
          "midi": 62,
          "duration": 0.182497,
          "velocity": 0.96063
        },
        {
          "time": 641.145346,
          "name": "G4",
          "midi": 67,
          "duration": 0.192935,
          "velocity": 0.88189
        },
        {
          "time": 641.145346,
          "name": "G3",
          "midi": 55,
          "duration": 0.192935,
          "velocity": 0.88189
        },
        {
          "time": 641.151798,
          "name": "B4",
          "midi": 71,
          "duration": 0.192525,
          "velocity": 0.88189
        },
        {
          "time": 641.151798,
          "name": "D4",
          "midi": 62,
          "duration": 0.192525,
          "velocity": 0.88189
        },
        {
          "time": 641.151798,
          "name": "G3",
          "midi": 55,
          "duration": 0.192525,
          "velocity": 0.88189
        },
        {
          "time": 641.155024,
          "name": "G4",
          "midi": 67,
          "duration": 0.192321,
          "velocity": 0.88189
        },
        {
          "time": 641.155024,
          "name": "G3",
          "midi": 55,
          "duration": 0.192321,
          "velocity": 0.88189
        },
        {
          "time": 641.155024,
          "name": "B3",
          "midi": 59,
          "duration": 0.192321,
          "velocity": 0.96063
        },
        {
          "time": 641.155024,
          "name": "D4",
          "midi": 62,
          "duration": 0.192321,
          "velocity": 0.96063
        },
        {
          "time": 641.51955,
          "name": "B4",
          "midi": 71,
          "duration": 0.181883,
          "velocity": 0.88189
        },
        {
          "time": 641.51955,
          "name": "D4",
          "midi": 62,
          "duration": 0.181883,
          "velocity": 0.88189
        },
        {
          "time": 641.525592,
          "name": "B4",
          "midi": 71,
          "duration": 0.182292,
          "velocity": 0.88189
        },
        {
          "time": 641.525592,
          "name": "D4",
          "midi": 62,
          "duration": 0.182292,
          "velocity": 0.88189
        },
        {
          "time": 641.525592,
          "name": "G3",
          "midi": 55,
          "duration": 0.182292,
          "velocity": 0.88189
        },
        {
          "time": 641.528613,
          "name": "B4",
          "midi": 71,
          "duration": 0.182497,
          "velocity": 0.88189
        },
        {
          "time": 641.528613,
          "name": "D4",
          "midi": 62,
          "duration": 0.182497,
          "velocity": 0.88189
        },
        {
          "time": 641.528613,
          "name": "B3",
          "midi": 59,
          "duration": 0.182497,
          "velocity": 0.96063
        },
        {
          "time": 641.528613,
          "name": "D4",
          "midi": 62,
          "duration": 0.182497,
          "velocity": 0.96063
        },
        {
          "time": 641.894981,
          "name": "B4",
          "midi": 71,
          "duration": 0.192935,
          "velocity": 0.88189
        },
        {
          "time": 641.894981,
          "name": "D4",
          "midi": 62,
          "duration": 0.192935,
          "velocity": 0.88189
        },
        {
          "time": 641.901433,
          "name": "B4",
          "midi": 71,
          "duration": 0.192525,
          "velocity": 0.88189
        },
        {
          "time": 641.901433,
          "name": "D4",
          "midi": 62,
          "duration": 0.192525,
          "velocity": 0.88189
        },
        {
          "time": 641.901433,
          "name": "G3",
          "midi": 55,
          "duration": 0.192525,
          "velocity": 0.88189
        },
        {
          "time": 641.904659,
          "name": "B4",
          "midi": 71,
          "duration": 0.192321,
          "velocity": 0.88189
        },
        {
          "time": 641.904659,
          "name": "D4",
          "midi": 62,
          "duration": 0.192321,
          "velocity": 0.88189
        },
        {
          "time": 641.904659,
          "name": "D4",
          "midi": 62,
          "duration": 0.192321,
          "velocity": 0.96063
        },
        {
          "time": 641.904659,
          "name": "B3",
          "midi": 59,
          "duration": 0.192321,
          "velocity": 0.96063
        },
        {
          "time": 642.269185,
          "name": "G4",
          "midi": 67,
          "duration": 0.181883,
          "velocity": 0.88189
        },
        {
          "time": 642.269185,
          "name": "G3",
          "midi": 55,
          "duration": 0.181883,
          "velocity": 0.88189
        },
        {
          "time": 642.275227,
          "name": "B4",
          "midi": 71,
          "duration": 0.182292,
          "velocity": 0.88189
        },
        {
          "time": 642.275227,
          "name": "D4",
          "midi": 62,
          "duration": 0.182292,
          "velocity": 0.88189
        },
        {
          "time": 642.275227,
          "name": "G3",
          "midi": 55,
          "duration": 0.182292,
          "velocity": 0.88189
        },
        {
          "time": 642.278248,
          "name": "G4",
          "midi": 67,
          "duration": 0.182497,
          "velocity": 0.88189
        },
        {
          "time": 642.278248,
          "name": "G3",
          "midi": 55,
          "duration": 0.182497,
          "velocity": 0.88189
        },
        {
          "time": 642.278248,
          "name": "D4",
          "midi": 62,
          "duration": 0.182497,
          "velocity": 0.96063
        },
        {
          "time": 642.278248,
          "name": "B3",
          "midi": 59,
          "duration": 0.182497,
          "velocity": 0.96063
        },
        {
          "time": 642.644616,
          "name": "E4",
          "midi": 64,
          "duration": 0.192935,
          "velocity": 0.88189
        },
        {
          "time": 642.644616,
          "name": "B4",
          "midi": 71,
          "duration": 0.192935,
          "velocity": 0.88189
        },
        {
          "time": 642.651068,
          "name": "B4",
          "midi": 71,
          "duration": 0.192525,
          "velocity": 0.88189
        },
        {
          "time": 642.651068,
          "name": "E4",
          "midi": 64,
          "duration": 0.192525,
          "velocity": 0.88189
        },
        {
          "time": 642.651068,
          "name": "G3",
          "midi": 55,
          "duration": 0.192525,
          "velocity": 0.88189
        },
        {
          "time": 642.654294,
          "name": "E4",
          "midi": 64,
          "duration": 0.192321,
          "velocity": 0.88189
        },
        {
          "time": 642.654294,
          "name": "B4",
          "midi": 71,
          "duration": 0.192321,
          "velocity": 0.88189
        },
        {
          "time": 642.654294,
          "name": "G4",
          "midi": 67,
          "duration": 0.192321,
          "velocity": 0.96063
        },
        {
          "time": 642.654294,
          "name": "B3",
          "midi": 59,
          "duration": 0.192321,
          "velocity": 0.96063
        },
        {
          "time": 643.01882,
          "name": "E4",
          "midi": 64,
          "duration": 0.181883,
          "velocity": 0.88189
        },
        {
          "time": 643.01882,
          "name": "B4",
          "midi": 71,
          "duration": 0.181883,
          "velocity": 0.88189
        },
        {
          "time": 643.024862,
          "name": "B4",
          "midi": 71,
          "duration": 0.182292,
          "velocity": 0.88189
        },
        {
          "time": 643.024862,
          "name": "E4",
          "midi": 64,
          "duration": 0.182292,
          "velocity": 0.88189
        },
        {
          "time": 643.024862,
          "name": "G3",
          "midi": 55,
          "duration": 0.182292,
          "velocity": 0.88189
        },
        {
          "time": 643.027883,
          "name": "E4",
          "midi": 64,
          "duration": 0.182497,
          "velocity": 0.88189
        },
        {
          "time": 643.027883,
          "name": "B4",
          "midi": 71,
          "duration": 0.182497,
          "velocity": 0.88189
        },
        {
          "time": 643.027883,
          "name": "G4",
          "midi": 67,
          "duration": 0.182497,
          "velocity": 0.96063
        },
        {
          "time": 643.027883,
          "name": "B3",
          "midi": 59,
          "duration": 0.182497,
          "velocity": 0.96063
        },
        {
          "time": 643.394251,
          "name": "E4",
          "midi": 64,
          "duration": 0.192935,
          "velocity": 0.88189
        },
        {
          "time": 643.394251,
          "name": "G4",
          "midi": 67,
          "duration": 0.192935,
          "velocity": 0.88189
        },
        {
          "time": 643.400703,
          "name": "G4",
          "midi": 67,
          "duration": 0.192525,
          "velocity": 0.88189
        },
        {
          "time": 643.400703,
          "name": "B3",
          "midi": 59,
          "duration": 0.192525,
          "velocity": 0.88189
        },
        {
          "time": 643.403929,
          "name": "G4",
          "midi": 67,
          "duration": 0.192321,
          "velocity": 0.88189
        },
        {
          "time": 643.403929,
          "name": "E4",
          "midi": 64,
          "duration": 0.192321,
          "velocity": 0.88189
        },
        {
          "time": 643.403929,
          "name": "G3",
          "midi": 55,
          "duration": 0.192321,
          "velocity": 0.96063
        },
        {
          "time": 643.403929,
          "name": "E4",
          "midi": 64,
          "duration": 0.192321,
          "velocity": 0.96063
        },
        {
          "time": 643.768455,
          "name": "E4",
          "midi": 64,
          "duration": 0.181883,
          "velocity": 0.88189
        },
        {
          "time": 643.768455,
          "name": "B4",
          "midi": 71,
          "duration": 0.181883,
          "velocity": 0.88189
        },
        {
          "time": 643.774497,
          "name": "B4",
          "midi": 71,
          "duration": 0.182292,
          "velocity": 0.88189
        },
        {
          "time": 643.774497,
          "name": "E4",
          "midi": 64,
          "duration": 0.182292,
          "velocity": 0.88189
        },
        {
          "time": 643.774497,
          "name": "G3",
          "midi": 55,
          "duration": 0.182292,
          "velocity": 0.88189
        },
        {
          "time": 643.777518,
          "name": "E4",
          "midi": 64,
          "duration": 0.182497,
          "velocity": 0.88189
        },
        {
          "time": 643.777518,
          "name": "B4",
          "midi": 71,
          "duration": 0.182497,
          "velocity": 0.88189
        },
        {
          "time": 643.777518,
          "name": "G4",
          "midi": 67,
          "duration": 0.182497,
          "velocity": 0.96063
        },
        {
          "time": 643.777518,
          "name": "B3",
          "midi": 59,
          "duration": 0.182497,
          "velocity": 0.96063
        },
        {
          "time": 644.143886,
          "name": "B3",
          "midi": 59,
          "duration": 0.192935,
          "velocity": 0.88189
        },
        {
          "time": 644.143886,
          "name": "B4",
          "midi": 71,
          "duration": 0.192935,
          "velocity": 0.88189
        },
        {
          "time": 644.150338,
          "name": "B4",
          "midi": 71,
          "duration": 0.192525,
          "velocity": 0.88189
        },
        {
          "time": 644.150338,
          "name": "F#3",
          "midi": 54,
          "duration": 0.192525,
          "velocity": 0.88189
        },
        {
          "time": 644.150338,
          "name": "D#4",
          "midi": 63,
          "duration": 0.192525,
          "velocity": 0.88189
        },
        {
          "time": 644.153564,
          "name": "B3",
          "midi": 59,
          "duration": 0.192321,
          "velocity": 0.88189
        },
        {
          "time": 644.153564,
          "name": "B4",
          "midi": 71,
          "duration": 0.192321,
          "velocity": 0.88189
        },
        {
          "time": 644.153564,
          "name": "D#4",
          "midi": 63,
          "duration": 0.192321,
          "velocity": 0.96063
        },
        {
          "time": 644.153564,
          "name": "F#4",
          "midi": 66,
          "duration": 0.192321,
          "velocity": 0.96063
        },
        {
          "time": 644.51809,
          "name": "B3",
          "midi": 59,
          "duration": 0.181883,
          "velocity": 0.88189
        },
        {
          "time": 644.51809,
          "name": "B4",
          "midi": 71,
          "duration": 0.181883,
          "velocity": 0.88189
        },
        {
          "time": 644.524132,
          "name": "B4",
          "midi": 71,
          "duration": 0.182292,
          "velocity": 0.88189
        },
        {
          "time": 644.524132,
          "name": "F#3",
          "midi": 54,
          "duration": 0.182292,
          "velocity": 0.88189
        },
        {
          "time": 644.524132,
          "name": "D#4",
          "midi": 63,
          "duration": 0.182292,
          "velocity": 0.88189
        },
        {
          "time": 644.527153,
          "name": "B4",
          "midi": 71,
          "duration": 0.182497,
          "velocity": 0.88189
        },
        {
          "time": 644.527153,
          "name": "B3",
          "midi": 59,
          "duration": 0.182497,
          "velocity": 0.88189
        },
        {
          "time": 644.527153,
          "name": "F#4",
          "midi": 66,
          "duration": 0.182497,
          "velocity": 0.96063
        },
        {
          "time": 644.527153,
          "name": "D#4",
          "midi": 63,
          "duration": 0.182497,
          "velocity": 0.96063
        },
        {
          "time": 644.893521,
          "name": "B3",
          "midi": 59,
          "duration": 0.192935,
          "velocity": 0.88189
        },
        {
          "time": 644.893521,
          "name": "B4",
          "midi": 71,
          "duration": 0.192935,
          "velocity": 0.88189
        },
        {
          "time": 644.899973,
          "name": "B4",
          "midi": 71,
          "duration": 0.192525,
          "velocity": 0.88189
        },
        {
          "time": 644.899973,
          "name": "D#4",
          "midi": 63,
          "duration": 0.192525,
          "velocity": 0.88189
        },
        {
          "time": 644.899973,
          "name": "F#3",
          "midi": 54,
          "duration": 0.192525,
          "velocity": 0.88189
        },
        {
          "time": 644.903199,
          "name": "B3",
          "midi": 59,
          "duration": 0.192321,
          "velocity": 0.88189
        },
        {
          "time": 644.903199,
          "name": "B4",
          "midi": 71,
          "duration": 0.192321,
          "velocity": 0.88189
        },
        {
          "time": 644.903199,
          "name": "D#4",
          "midi": 63,
          "duration": 0.192321,
          "velocity": 0.96063
        },
        {
          "time": 644.903199,
          "name": "F#4",
          "midi": 66,
          "duration": 0.192321,
          "velocity": 0.96063
        },
        {
          "time": 645.267725,
          "name": "B3",
          "midi": 59,
          "duration": 0.181883,
          "velocity": 0.88189
        },
        {
          "time": 645.267725,
          "name": "B4",
          "midi": 71,
          "duration": 0.181883,
          "velocity": 0.88189
        },
        {
          "time": 645.273767,
          "name": "B4",
          "midi": 71,
          "duration": 0.182292,
          "velocity": 0.88189
        },
        {
          "time": 645.273767,
          "name": "D#4",
          "midi": 63,
          "duration": 0.182292,
          "velocity": 0.88189
        },
        {
          "time": 645.273767,
          "name": "F#3",
          "midi": 54,
          "duration": 0.182292,
          "velocity": 0.88189
        },
        {
          "time": 645.276788,
          "name": "B3",
          "midi": 59,
          "duration": 0.182497,
          "velocity": 0.88189
        },
        {
          "time": 645.276788,
          "name": "B4",
          "midi": 71,
          "duration": 0.182497,
          "velocity": 0.88189
        },
        {
          "time": 645.276788,
          "name": "F#4",
          "midi": 66,
          "duration": 0.182497,
          "velocity": 0.96063
        },
        {
          "time": 645.276788,
          "name": "D#4",
          "midi": 63,
          "duration": 0.182497,
          "velocity": 0.96063
        },
        {
          "time": 645.449608,
          "name": "B3",
          "midi": 59,
          "duration": 0.386483,
          "velocity": 0.88189
        },
        {
          "time": 645.449608,
          "name": "B4",
          "midi": 71,
          "duration": 0.386483,
          "velocity": 0.88189
        },
        {
          "time": 645.456059,
          "name": "G4",
          "midi": 67,
          "duration": 0.077419,
          "velocity": 0.88189
        },
        {
          "time": 645.459285,
          "name": "B3",
          "midi": 59,
          "duration": 0.385869,
          "velocity": 0.88189
        },
        {
          "time": 645.459285,
          "name": "B4",
          "midi": 71,
          "duration": 0.385869,
          "velocity": 0.88189
        },
        {
          "time": 645.459285,
          "name": "G4",
          "midi": 67,
          "duration": 0.385869,
          "velocity": 0.96063
        },
        {
          "time": 645.459285,
          "name": "E4",
          "midi": 64,
          "duration": 0.385869,
          "velocity": 0.96063
        },
        {
          "time": 645.552834,
          "name": "G4",
          "midi": 67,
          "duration": 0.077419,
          "velocity": 0.88189
        },
        {
          "time": 645.649608,
          "name": "G4",
          "midi": 67,
          "duration": 0.077419,
          "velocity": 0.88189
        },
        {
          "time": 645.746382,
          "name": "G4",
          "midi": 67,
          "duration": 0.077419,
          "velocity": 0.88189
        },
        {
          "time": 645.836091,
          "name": "G3",
          "midi": 55,
          "duration": 0.363152,
          "velocity": 0.88189
        },
        {
          "time": 645.836091,
          "name": "G4",
          "midi": 67,
          "duration": 0.363152,
          "velocity": 0.88189
        },
        {
          "time": 645.842133,
          "name": "G4",
          "midi": 67,
          "duration": 0.072508,
          "velocity": 0.88189
        },
        {
          "time": 645.845154,
          "name": "G3",
          "midi": 55,
          "duration": 0.363766,
          "velocity": 0.88189
        },
        {
          "time": 645.845154,
          "name": "G4",
          "midi": 67,
          "duration": 0.363766,
          "velocity": 0.88189
        },
        {
          "time": 645.845154,
          "name": "B3",
          "midi": 59,
          "duration": 0.363766,
          "velocity": 0.96063
        },
        {
          "time": 645.845154,
          "name": "G3",
          "midi": 55,
          "duration": 0.363766,
          "velocity": 0.96063
        },
        {
          "time": 645.932767,
          "name": "G4",
          "midi": 67,
          "duration": 0.072508,
          "velocity": 0.88189
        },
        {
          "time": 646.023402,
          "name": "G4",
          "midi": 67,
          "duration": 0.072508,
          "velocity": 0.88189
        },
        {
          "time": 646.114036,
          "name": "G4",
          "midi": 67,
          "duration": 0.072508,
          "velocity": 0.88189
        },
        {
          "time": 646.199243,
          "name": "G3",
          "midi": 55,
          "duration": 0.386483,
          "velocity": 0.88189
        },
        {
          "time": 646.199243,
          "name": "G4",
          "midi": 67,
          "duration": 0.386483,
          "velocity": 0.88189
        },
        {
          "time": 646.205694,
          "name": "G4",
          "midi": 67,
          "duration": 0.077419,
          "velocity": 0.88189
        },
        {
          "time": 646.20892,
          "name": "G4",
          "midi": 67,
          "duration": 0.385869,
          "velocity": 0.88189
        },
        {
          "time": 646.20892,
          "name": "G3",
          "midi": 55,
          "duration": 0.385869,
          "velocity": 0.88189
        },
        {
          "time": 646.20892,
          "name": "C4",
          "midi": 60,
          "duration": 0.385869,
          "velocity": 0.96063
        },
        {
          "time": 646.20892,
          "name": "A3",
          "midi": 57,
          "duration": 0.385869,
          "velocity": 0.96063
        },
        {
          "time": 646.302469,
          "name": "G4",
          "midi": 67,
          "duration": 0.077419,
          "velocity": 0.88189
        },
        {
          "time": 646.399243,
          "name": "G4",
          "midi": 67,
          "duration": 0.077419,
          "velocity": 0.88189
        },
        {
          "time": 646.496017,
          "name": "G4",
          "midi": 67,
          "duration": 0.077419,
          "velocity": 0.88189
        },
        {
          "time": 646.585726,
          "name": "G3",
          "midi": 55,
          "duration": 0.363152,
          "velocity": 0.88189
        },
        {
          "time": 646.585726,
          "name": "G4",
          "midi": 67,
          "duration": 0.363152,
          "velocity": 0.88189
        },
        {
          "time": 646.591768,
          "name": "G4",
          "midi": 67,
          "duration": 0.072508,
          "velocity": 0.88189
        },
        {
          "time": 646.594789,
          "name": "G3",
          "midi": 55,
          "duration": 0.363766,
          "velocity": 0.88189
        },
        {
          "time": 646.594789,
          "name": "G4",
          "midi": 67,
          "duration": 0.363766,
          "velocity": 0.88189
        },
        {
          "time": 646.594789,
          "name": "C#4",
          "midi": 61,
          "duration": 0.363766,
          "velocity": 0.96063
        },
        {
          "time": 646.594789,
          "name": "A#3",
          "midi": 58,
          "duration": 0.363766,
          "velocity": 0.96063
        },
        {
          "time": 646.682402,
          "name": "G4",
          "midi": 67,
          "duration": 0.072508,
          "velocity": 0.88189
        },
        {
          "time": 646.773037,
          "name": "G4",
          "midi": 67,
          "duration": 0.072508,
          "velocity": 0.88189
        },
        {
          "time": 646.863671,
          "name": "G4",
          "midi": 67,
          "duration": 0.072508,
          "velocity": 0.88189
        },
        {
          "time": 646.948878,
          "name": "G3",
          "midi": 55,
          "duration": 0.386483,
          "velocity": 0.88189
        },
        {
          "time": 646.948878,
          "name": "G4",
          "midi": 67,
          "duration": 0.386483,
          "velocity": 0.88189
        },
        {
          "time": 646.955329,
          "name": "G4",
          "midi": 67,
          "duration": 0.077419,
          "velocity": 0.88189
        },
        {
          "time": 646.958555,
          "name": "G3",
          "midi": 55,
          "duration": 0.385869,
          "velocity": 0.88189
        },
        {
          "time": 646.958555,
          "name": "G4",
          "midi": 67,
          "duration": 0.385869,
          "velocity": 0.88189
        },
        {
          "time": 646.958555,
          "name": "B3",
          "midi": 59,
          "duration": 0.385869,
          "velocity": 0.96063
        },
        {
          "time": 646.958555,
          "name": "D4",
          "midi": 62,
          "duration": 0.385869,
          "velocity": 0.96063
        },
        {
          "time": 647.052104,
          "name": "G4",
          "midi": 67,
          "duration": 0.077419,
          "velocity": 0.88189
        },
        {
          "time": 647.148878,
          "name": "G4",
          "midi": 67,
          "duration": 0.077419,
          "velocity": 0.88189
        },
        {
          "time": 647.245652,
          "name": "G4",
          "midi": 67,
          "duration": 0.077419,
          "velocity": 0.88189
        },
        {
          "time": 647.335361,
          "name": "G3",
          "midi": 55,
          "duration": 0.363152,
          "velocity": 0.88189
        },
        {
          "time": 647.335361,
          "name": "G4",
          "midi": 67,
          "duration": 0.363152,
          "velocity": 0.88189
        },
        {
          "time": 647.341403,
          "name": "G4",
          "midi": 67,
          "duration": 0.072508,
          "velocity": 0.88189
        },
        {
          "time": 647.344424,
          "name": "G4",
          "midi": 67,
          "duration": 0.363766,
          "velocity": 0.88189
        },
        {
          "time": 647.344424,
          "name": "G3",
          "midi": 55,
          "duration": 0.363766,
          "velocity": 0.88189
        },
        {
          "time": 647.344424,
          "name": "G3",
          "midi": 55,
          "duration": 0.363766,
          "velocity": 0.96063
        },
        {
          "time": 647.344424,
          "name": "B3",
          "midi": 59,
          "duration": 0.363766,
          "velocity": 0.96063
        },
        {
          "time": 647.432037,
          "name": "G4",
          "midi": 67,
          "duration": 0.072508,
          "velocity": 0.88189
        },
        {
          "time": 647.522672,
          "name": "G4",
          "midi": 67,
          "duration": 0.072508,
          "velocity": 0.88189
        },
        {
          "time": 647.613306,
          "name": "G4",
          "midi": 67,
          "duration": 0.072508,
          "velocity": 0.88189
        },
        {
          "time": 647.698513,
          "name": "G3",
          "midi": 55,
          "duration": 0.386483,
          "velocity": 0.88189
        },
        {
          "time": 647.698513,
          "name": "G4",
          "midi": 67,
          "duration": 0.386483,
          "velocity": 0.88189
        },
        {
          "time": 647.704964,
          "name": "G4",
          "midi": 67,
          "duration": 0.077419,
          "velocity": 0.88189
        },
        {
          "time": 647.70819,
          "name": "G3",
          "midi": 55,
          "duration": 0.385869,
          "velocity": 0.88189
        },
        {
          "time": 647.70819,
          "name": "G4",
          "midi": 67,
          "duration": 0.385869,
          "velocity": 0.88189
        },
        {
          "time": 647.70819,
          "name": "C4",
          "midi": 60,
          "duration": 0.385869,
          "velocity": 0.96063
        },
        {
          "time": 647.70819,
          "name": "A3",
          "midi": 57,
          "duration": 0.385869,
          "velocity": 0.96063
        },
        {
          "time": 647.801739,
          "name": "G4",
          "midi": 67,
          "duration": 0.077419,
          "velocity": 0.88189
        },
        {
          "time": 647.898513,
          "name": "G4",
          "midi": 67,
          "duration": 0.077419,
          "velocity": 0.88189
        },
        {
          "time": 647.995287,
          "name": "G4",
          "midi": 67,
          "duration": 0.077419,
          "velocity": 0.88189
        },
        {
          "time": 648.084996,
          "name": "G3",
          "midi": 55,
          "duration": 0.363152,
          "velocity": 0.88189
        },
        {
          "time": 648.084996,
          "name": "G4",
          "midi": 67,
          "duration": 0.363152,
          "velocity": 0.88189
        },
        {
          "time": 648.091038,
          "name": "G4",
          "midi": 67,
          "duration": 0.072508,
          "velocity": 0.88189
        },
        {
          "time": 648.094059,
          "name": "G4",
          "midi": 67,
          "duration": 0.363766,
          "velocity": 0.88189
        },
        {
          "time": 648.094059,
          "name": "G3",
          "midi": 55,
          "duration": 0.363766,
          "velocity": 0.88189
        },
        {
          "time": 648.094059,
          "name": "C#4",
          "midi": 61,
          "duration": 0.363766,
          "velocity": 0.96063
        },
        {
          "time": 648.094059,
          "name": "A#3",
          "midi": 58,
          "duration": 0.363766,
          "velocity": 0.96063
        },
        {
          "time": 648.181672,
          "name": "G4",
          "midi": 67,
          "duration": 0.072508,
          "velocity": 0.88189
        },
        {
          "time": 648.272307,
          "name": "G4",
          "midi": 67,
          "duration": 0.072508,
          "velocity": 0.88189
        },
        {
          "time": 648.362941,
          "name": "G4",
          "midi": 67,
          "duration": 0.072508,
          "velocity": 0.88189
        },
        {
          "time": 648.448148,
          "name": "G3",
          "midi": 55,
          "duration": 0.386483,
          "velocity": 0.88189
        },
        {
          "time": 648.448148,
          "name": "G4",
          "midi": 67,
          "duration": 0.386483,
          "velocity": 0.88189
        },
        {
          "time": 648.454599,
          "name": "G4",
          "midi": 67,
          "duration": 0.077419,
          "velocity": 0.88189
        },
        {
          "time": 648.457825,
          "name": "G3",
          "midi": 55,
          "duration": 0.385869,
          "velocity": 0.88189
        },
        {
          "time": 648.457825,
          "name": "G4",
          "midi": 67,
          "duration": 0.385869,
          "velocity": 0.88189
        },
        {
          "time": 648.457825,
          "name": "B3",
          "midi": 59,
          "duration": 0.385869,
          "velocity": 0.96063
        },
        {
          "time": 648.457825,
          "name": "D4",
          "midi": 62,
          "duration": 0.385869,
          "velocity": 0.96063
        },
        {
          "time": 648.551374,
          "name": "G4",
          "midi": 67,
          "duration": 0.077419,
          "velocity": 0.88189
        },
        {
          "time": 648.648148,
          "name": "D4",
          "midi": 62,
          "duration": 0.077419,
          "velocity": 0.88189
        },
        {
          "time": 648.744922,
          "name": "D4",
          "midi": 62,
          "duration": 0.077419,
          "velocity": 0.88189
        },
        {
          "time": 648.840673,
          "name": "G4",
          "midi": 67,
          "duration": 0.072508,
          "velocity": 0.88189
        },
        {
          "time": 648.931307,
          "name": "G4",
          "midi": 67,
          "duration": 0.072508,
          "velocity": 0.88189
        },
        {
          "time": 649.021942,
          "name": "F#4",
          "midi": 66,
          "duration": 0.072508,
          "velocity": 0.88189
        },
        {
          "time": 649.112576,
          "name": "F#4",
          "midi": 66,
          "duration": 0.072508,
          "velocity": 0.88189
        },
        {
          "time": 649.197783,
          "name": "B4",
          "midi": 71,
          "duration": 0.386483,
          "velocity": 0.88189
        },
        {
          "time": 649.197783,
          "name": "B3",
          "midi": 59,
          "duration": 0.386483,
          "velocity": 0.88189
        },
        {
          "time": 649.204234,
          "name": "E4",
          "midi": 64,
          "duration": 0.077419,
          "velocity": 0.88189
        },
        {
          "time": 649.20746,
          "name": "B4",
          "midi": 71,
          "duration": 0.385869,
          "velocity": 0.88189
        },
        {
          "time": 649.20746,
          "name": "B3",
          "midi": 59,
          "duration": 0.385869,
          "velocity": 0.88189
        },
        {
          "time": 649.20746,
          "name": "G3",
          "midi": 55,
          "duration": 0.385869,
          "velocity": 0.96063
        },
        {
          "time": 649.20746,
          "name": "E4",
          "midi": 64,
          "duration": 0.385869,
          "velocity": 0.96063
        },
        {
          "time": 649.301009,
          "name": "E4",
          "midi": 64,
          "duration": 0.077419,
          "velocity": 0.88189
        },
        {
          "time": 649.397783,
          "name": "D4",
          "midi": 62,
          "duration": 0.077419,
          "velocity": 0.88189
        },
        {
          "time": 649.494557,
          "name": "D4",
          "midi": 62,
          "duration": 0.077419,
          "velocity": 0.88189
        },
        {
          "time": 649.590308,
          "name": "C4",
          "midi": 60,
          "duration": 0.072508,
          "velocity": 0.88189
        },
        {
          "time": 649.680942,
          "name": "C4",
          "midi": 60,
          "duration": 0.072508,
          "velocity": 0.88189
        },
        {
          "time": 649.771577,
          "name": "B3",
          "midi": 59,
          "duration": 0.072508,
          "velocity": 0.88189
        },
        {
          "time": 649.862211,
          "name": "B3",
          "midi": 59,
          "duration": 0.072508,
          "velocity": 0.88189
        },
        {
          "time": 649.947418,
          "name": "A3",
          "midi": 57,
          "duration": 0.386483,
          "velocity": 0.88189
        },
        {
          "time": 649.947418,
          "name": "A4",
          "midi": 69,
          "duration": 0.386483,
          "velocity": 0.88189
        },
        {
          "time": 649.953869,
          "name": "F#4",
          "midi": 66,
          "duration": 0.077419,
          "velocity": 0.88189
        },
        {
          "time": 649.957095,
          "name": "A4",
          "midi": 69,
          "duration": 0.385869,
          "velocity": 0.88189
        },
        {
          "time": 649.957095,
          "name": "A3",
          "midi": 57,
          "duration": 0.385869,
          "velocity": 0.88189
        },
        {
          "time": 649.957095,
          "name": "A3",
          "midi": 57,
          "duration": 0.385869,
          "velocity": 0.96063
        },
        {
          "time": 649.957095,
          "name": "E4",
          "midi": 64,
          "duration": 0.385869,
          "velocity": 0.96063
        },
        {
          "time": 650.050644,
          "name": "F#4",
          "midi": 66,
          "duration": 0.077419,
          "velocity": 0.88189
        },
        {
          "time": 650.147418,
          "name": "E4",
          "midi": 64,
          "duration": 0.077419,
          "velocity": 0.88189
        },
        {
          "time": 650.244192,
          "name": "E4",
          "midi": 64,
          "duration": 0.077419,
          "velocity": 0.88189
        },
        {
          "time": 650.339943,
          "name": "D4",
          "midi": 62,
          "duration": 0.072508,
          "velocity": 0.88189
        },
        {
          "time": 650.430577,
          "name": "D4",
          "midi": 62,
          "duration": 0.072508,
          "velocity": 0.88189
        },
        {
          "time": 650.521212,
          "name": "C4",
          "midi": 60,
          "duration": 0.072508,
          "velocity": 0.88189
        },
        {
          "time": 650.611846,
          "name": "C4",
          "midi": 60,
          "duration": 0.072508,
          "velocity": 0.88189
        },
        {
          "time": 650.697053,
          "name": "A3",
          "midi": 57,
          "duration": 0.386483,
          "velocity": 0.88189
        },
        {
          "time": 650.697053,
          "name": "A4",
          "midi": 69,
          "duration": 0.386483,
          "velocity": 0.88189
        },
        {
          "time": 650.703504,
          "name": "B3",
          "midi": 59,
          "duration": 0.077419,
          "velocity": 0.88189
        },
        {
          "time": 650.70673,
          "name": "A3",
          "midi": 57,
          "duration": 0.385869,
          "velocity": 0.88189
        },
        {
          "time": 650.70673,
          "name": "A4",
          "midi": 69,
          "duration": 0.385869,
          "velocity": 0.88189
        },
        {
          "time": 650.70673,
          "name": "F#3",
          "midi": 54,
          "duration": 0.385869,
          "velocity": 0.96063
        },
        {
          "time": 650.70673,
          "name": "D4",
          "midi": 62,
          "duration": 0.385869,
          "velocity": 0.96063
        },
        {
          "time": 650.800279,
          "name": "B3",
          "midi": 59,
          "duration": 0.077419,
          "velocity": 0.88189
        },
        {
          "time": 650.897053,
          "name": "A3",
          "midi": 57,
          "duration": 0.077419,
          "velocity": 0.88189
        },
        {
          "time": 650.993827,
          "name": "A3",
          "midi": 57,
          "duration": 0.077419,
          "velocity": 0.88189
        },
        {
          "time": 651.089578,
          "name": "E4",
          "midi": 64,
          "duration": 0.072508,
          "velocity": 0.88189
        },
        {
          "time": 651.180212,
          "name": "E4",
          "midi": 64,
          "duration": 0.072508,
          "velocity": 0.88189
        },
        {
          "time": 651.270847,
          "name": "F#4",
          "midi": 66,
          "duration": 0.072508,
          "velocity": 0.88189
        },
        {
          "time": 651.361481,
          "name": "F#4",
          "midi": 66,
          "duration": 0.072508,
          "velocity": 0.88189
        },
        {
          "time": 651.446688,
          "name": "B3",
          "midi": 59,
          "duration": 0.386483,
          "velocity": 0.88189
        },
        {
          "time": 651.446688,
          "name": "B4",
          "midi": 71,
          "duration": 0.386483,
          "velocity": 0.88189
        },
        {
          "time": 651.453139,
          "name": "G4",
          "midi": 67,
          "duration": 0.077419,
          "velocity": 0.88189
        },
        {
          "time": 651.456365,
          "name": "B3",
          "midi": 59,
          "duration": 0.385869,
          "velocity": 0.88189
        },
        {
          "time": 651.456365,
          "name": "B4",
          "midi": 71,
          "duration": 0.385869,
          "velocity": 0.88189
        },
        {
          "time": 651.456365,
          "name": "B3",
          "midi": 59,
          "duration": 0.385869,
          "velocity": 0.96063
        },
        {
          "time": 651.456365,
          "name": "G3",
          "midi": 55,
          "duration": 0.385869,
          "velocity": 0.96063
        },
        {
          "time": 651.549914,
          "name": "G4",
          "midi": 67,
          "duration": 0.077419,
          "velocity": 0.88189
        },
        {
          "time": 651.646688,
          "name": "G4",
          "midi": 67,
          "duration": 0.077419,
          "velocity": 0.88189
        },
        {
          "time": 651.743462,
          "name": "G4",
          "midi": 67,
          "duration": 0.077419,
          "velocity": 0.88189
        },
        {
          "time": 651.833171,
          "name": "G3",
          "midi": 55,
          "duration": 0.363152,
          "velocity": 0.88189
        },
        {
          "time": 651.833171,
          "name": "G4",
          "midi": 67,
          "duration": 0.363152,
          "velocity": 0.88189
        },
        {
          "time": 651.839213,
          "name": "G4",
          "midi": 67,
          "duration": 0.072508,
          "velocity": 0.88189
        },
        {
          "time": 651.842234,
          "name": "G3",
          "midi": 55,
          "duration": 0.363766,
          "velocity": 0.88189
        },
        {
          "time": 651.842234,
          "name": "G4",
          "midi": 67,
          "duration": 0.363766,
          "velocity": 0.88189
        },
        {
          "time": 651.842234,
          "name": "B3",
          "midi": 59,
          "duration": 0.363766,
          "velocity": 0.96063
        },
        {
          "time": 651.842234,
          "name": "G3",
          "midi": 55,
          "duration": 0.363766,
          "velocity": 0.96063
        },
        {
          "time": 651.929847,
          "name": "G4",
          "midi": 67,
          "duration": 0.072508,
          "velocity": 0.88189
        },
        {
          "time": 652.020482,
          "name": "G4",
          "midi": 67,
          "duration": 0.072508,
          "velocity": 0.88189
        },
        {
          "time": 652.111116,
          "name": "G4",
          "midi": 67,
          "duration": 0.072508,
          "velocity": 0.88189
        },
        {
          "time": 652.196323,
          "name": "G4",
          "midi": 67,
          "duration": 0.386483,
          "velocity": 0.88189
        },
        {
          "time": 652.196323,
          "name": "G3",
          "midi": 55,
          "duration": 0.386483,
          "velocity": 0.88189
        },
        {
          "time": 652.202774,
          "name": "G4",
          "midi": 67,
          "duration": 0.077419,
          "velocity": 0.88189
        },
        {
          "time": 652.206,
          "name": "G3",
          "midi": 55,
          "duration": 0.385869,
          "velocity": 0.88189
        },
        {
          "time": 652.206,
          "name": "G4",
          "midi": 67,
          "duration": 0.385869,
          "velocity": 0.88189
        },
        {
          "time": 652.206,
          "name": "A3",
          "midi": 57,
          "duration": 0.385869,
          "velocity": 0.96063
        },
        {
          "time": 652.206,
          "name": "C4",
          "midi": 60,
          "duration": 0.385869,
          "velocity": 0.96063
        },
        {
          "time": 652.299549,
          "name": "G4",
          "midi": 67,
          "duration": 0.077419,
          "velocity": 0.88189
        },
        {
          "time": 652.396323,
          "name": "G4",
          "midi": 67,
          "duration": 0.077419,
          "velocity": 0.88189
        },
        {
          "time": 652.493097,
          "name": "G4",
          "midi": 67,
          "duration": 0.077419,
          "velocity": 0.88189
        },
        {
          "time": 652.582806,
          "name": "G3",
          "midi": 55,
          "duration": 0.363152,
          "velocity": 0.88189
        },
        {
          "time": 652.582806,
          "name": "G4",
          "midi": 67,
          "duration": 0.363152,
          "velocity": 0.88189
        },
        {
          "time": 652.588848,
          "name": "G4",
          "midi": 67,
          "duration": 0.072508,
          "velocity": 0.88189
        },
        {
          "time": 652.591869,
          "name": "G3",
          "midi": 55,
          "duration": 0.363766,
          "velocity": 0.88189
        },
        {
          "time": 652.591869,
          "name": "G4",
          "midi": 67,
          "duration": 0.363766,
          "velocity": 0.88189
        },
        {
          "time": 652.591869,
          "name": "C#4",
          "midi": 61,
          "duration": 0.363766,
          "velocity": 0.96063
        },
        {
          "time": 652.591869,
          "name": "A#3",
          "midi": 58,
          "duration": 0.363766,
          "velocity": 0.96063
        },
        {
          "time": 652.679482,
          "name": "G4",
          "midi": 67,
          "duration": 0.072508,
          "velocity": 0.88189
        },
        {
          "time": 652.770117,
          "name": "G4",
          "midi": 67,
          "duration": 0.072508,
          "velocity": 0.88189
        },
        {
          "time": 652.860751,
          "name": "G4",
          "midi": 67,
          "duration": 0.072508,
          "velocity": 0.88189
        },
        {
          "time": 652.945958,
          "name": "G3",
          "midi": 55,
          "duration": 0.386483,
          "velocity": 0.88189
        },
        {
          "time": 652.945958,
          "name": "G4",
          "midi": 67,
          "duration": 0.386483,
          "velocity": 0.88189
        },
        {
          "time": 652.952409,
          "name": "G4",
          "midi": 67,
          "duration": 0.077419,
          "velocity": 0.88189
        },
        {
          "time": 652.955635,
          "name": "G4",
          "midi": 67,
          "duration": 0.385869,
          "velocity": 0.88189
        },
        {
          "time": 652.955635,
          "name": "G3",
          "midi": 55,
          "duration": 0.385869,
          "velocity": 0.88189
        },
        {
          "time": 652.955635,
          "name": "B3",
          "midi": 59,
          "duration": 0.385869,
          "velocity": 0.96063
        },
        {
          "time": 652.955635,
          "name": "D4",
          "midi": 62,
          "duration": 0.385869,
          "velocity": 0.96063
        },
        {
          "time": 653.049184,
          "name": "G4",
          "midi": 67,
          "duration": 0.077419,
          "velocity": 0.88189
        },
        {
          "time": 653.145958,
          "name": "G4",
          "midi": 67,
          "duration": 0.077419,
          "velocity": 0.88189
        },
        {
          "time": 653.242732,
          "name": "G4",
          "midi": 67,
          "duration": 0.077419,
          "velocity": 0.88189
        },
        {
          "time": 653.332441,
          "name": "G4",
          "midi": 67,
          "duration": 0.363152,
          "velocity": 0.88189
        },
        {
          "time": 653.332441,
          "name": "G3",
          "midi": 55,
          "duration": 0.363152,
          "velocity": 0.88189
        },
        {
          "time": 653.338483,
          "name": "G4",
          "midi": 67,
          "duration": 0.072508,
          "velocity": 0.88189
        },
        {
          "time": 653.341504,
          "name": "G4",
          "midi": 67,
          "duration": 0.363766,
          "velocity": 0.88189
        },
        {
          "time": 653.341504,
          "name": "G3",
          "midi": 55,
          "duration": 0.363766,
          "velocity": 0.88189
        },
        {
          "time": 653.341504,
          "name": "B3",
          "midi": 59,
          "duration": 0.363766,
          "velocity": 0.96063
        },
        {
          "time": 653.341504,
          "name": "G3",
          "midi": 55,
          "duration": 0.363766,
          "velocity": 0.96063
        },
        {
          "time": 653.429117,
          "name": "G4",
          "midi": 67,
          "duration": 0.072508,
          "velocity": 0.88189
        },
        {
          "time": 653.519752,
          "name": "G4",
          "midi": 67,
          "duration": 0.072508,
          "velocity": 0.88189
        },
        {
          "time": 653.610386,
          "name": "G4",
          "midi": 67,
          "duration": 0.072508,
          "velocity": 0.88189
        },
        {
          "time": 653.695593,
          "name": "G3",
          "midi": 55,
          "duration": 0.386483,
          "velocity": 0.88189
        },
        {
          "time": 653.695593,
          "name": "G4",
          "midi": 67,
          "duration": 0.386483,
          "velocity": 0.88189
        },
        {
          "time": 653.702044,
          "name": "G4",
          "midi": 67,
          "duration": 0.077419,
          "velocity": 0.88189
        },
        {
          "time": 653.70527,
          "name": "G4",
          "midi": 67,
          "duration": 0.385869,
          "velocity": 0.88189
        },
        {
          "time": 653.70527,
          "name": "G3",
          "midi": 55,
          "duration": 0.385869,
          "velocity": 0.88189
        },
        {
          "time": 653.70527,
          "name": "C4",
          "midi": 60,
          "duration": 0.385869,
          "velocity": 0.96063
        },
        {
          "time": 653.70527,
          "name": "A3",
          "midi": 57,
          "duration": 0.385869,
          "velocity": 0.96063
        },
        {
          "time": 653.798819,
          "name": "G4",
          "midi": 67,
          "duration": 0.077419,
          "velocity": 0.88189
        },
        {
          "time": 653.895593,
          "name": "G4",
          "midi": 67,
          "duration": 0.077419,
          "velocity": 0.88189
        },
        {
          "time": 653.992367,
          "name": "G4",
          "midi": 67,
          "duration": 0.077419,
          "velocity": 0.88189
        },
        {
          "time": 654.082076,
          "name": "G4",
          "midi": 67,
          "duration": 0.363152,
          "velocity": 0.88189
        },
        {
          "time": 654.082076,
          "name": "G3",
          "midi": 55,
          "duration": 0.363152,
          "velocity": 0.88189
        },
        {
          "time": 654.088118,
          "name": "G4",
          "midi": 67,
          "duration": 0.072508,
          "velocity": 0.88189
        },
        {
          "time": 654.091139,
          "name": "G4",
          "midi": 67,
          "duration": 0.363766,
          "velocity": 0.88189
        },
        {
          "time": 654.091139,
          "name": "G3",
          "midi": 55,
          "duration": 0.363766,
          "velocity": 0.88189
        },
        {
          "time": 654.091139,
          "name": "A#3",
          "midi": 58,
          "duration": 0.363766,
          "velocity": 0.96063
        },
        {
          "time": 654.091139,
          "name": "C#4",
          "midi": 61,
          "duration": 0.363766,
          "velocity": 0.96063
        },
        {
          "time": 654.178752,
          "name": "G4",
          "midi": 67,
          "duration": 0.072508,
          "velocity": 0.88189
        },
        {
          "time": 654.269387,
          "name": "G4",
          "midi": 67,
          "duration": 0.072508,
          "velocity": 0.88189
        },
        {
          "time": 654.360021,
          "name": "G4",
          "midi": 67,
          "duration": 0.072508,
          "velocity": 0.88189
        },
        {
          "time": 654.445228,
          "name": "G3",
          "midi": 55,
          "duration": 0.386483,
          "velocity": 0.88189
        },
        {
          "time": 654.445228,
          "name": "G4",
          "midi": 67,
          "duration": 0.386483,
          "velocity": 0.88189
        },
        {
          "time": 654.451679,
          "name": "G4",
          "midi": 67,
          "duration": 0.077419,
          "velocity": 0.88189
        },
        {
          "time": 654.454905,
          "name": "G3",
          "midi": 55,
          "duration": 0.385869,
          "velocity": 0.88189
        },
        {
          "time": 654.454905,
          "name": "G4",
          "midi": 67,
          "duration": 0.385869,
          "velocity": 0.88189
        },
        {
          "time": 654.454905,
          "name": "B3",
          "midi": 59,
          "duration": 0.385869,
          "velocity": 0.96063
        },
        {
          "time": 654.454905,
          "name": "D4",
          "midi": 62,
          "duration": 0.385869,
          "velocity": 0.96063
        },
        {
          "time": 654.548454,
          "name": "G4",
          "midi": 67,
          "duration": 0.077419,
          "velocity": 0.88189
        },
        {
          "time": 654.645228,
          "name": "D4",
          "midi": 62,
          "duration": 0.077419,
          "velocity": 0.88189
        },
        {
          "time": 654.742002,
          "name": "D4",
          "midi": 62,
          "duration": 0.077419,
          "velocity": 0.88189
        },
        {
          "time": 654.837753,
          "name": "G4",
          "midi": 67,
          "duration": 0.072508,
          "velocity": 0.88189
        },
        {
          "time": 654.928387,
          "name": "G4",
          "midi": 67,
          "duration": 0.072508,
          "velocity": 0.88189
        },
        {
          "time": 655.019022,
          "name": "F#4",
          "midi": 66,
          "duration": 0.072508,
          "velocity": 0.88189
        },
        {
          "time": 655.109656,
          "name": "F#4",
          "midi": 66,
          "duration": 0.072508,
          "velocity": 0.88189
        },
        {
          "time": 655.194863,
          "name": "B4",
          "midi": 71,
          "duration": 0.386483,
          "velocity": 0.88189
        },
        {
          "time": 655.194863,
          "name": "B3",
          "midi": 59,
          "duration": 0.386483,
          "velocity": 0.88189
        },
        {
          "time": 655.201314,
          "name": "E4",
          "midi": 64,
          "duration": 0.077419,
          "velocity": 0.88189
        },
        {
          "time": 655.20454,
          "name": "B3",
          "midi": 59,
          "duration": 0.385869,
          "velocity": 0.88189
        },
        {
          "time": 655.20454,
          "name": "B4",
          "midi": 71,
          "duration": 0.385869,
          "velocity": 0.88189
        },
        {
          "time": 655.20454,
          "name": "G3",
          "midi": 55,
          "duration": 0.385869,
          "velocity": 0.96063
        },
        {
          "time": 655.20454,
          "name": "E4",
          "midi": 64,
          "duration": 0.385869,
          "velocity": 0.96063
        },
        {
          "time": 655.298089,
          "name": "E4",
          "midi": 64,
          "duration": 0.077419,
          "velocity": 0.88189
        },
        {
          "time": 655.394863,
          "name": "D4",
          "midi": 62,
          "duration": 0.077419,
          "velocity": 0.88189
        },
        {
          "time": 655.491637,
          "name": "D4",
          "midi": 62,
          "duration": 0.077419,
          "velocity": 0.88189
        },
        {
          "time": 655.587388,
          "name": "C4",
          "midi": 60,
          "duration": 0.072508,
          "velocity": 0.88189
        },
        {
          "time": 655.678022,
          "name": "C4",
          "midi": 60,
          "duration": 0.072508,
          "velocity": 0.88189
        },
        {
          "time": 655.768657,
          "name": "B3",
          "midi": 59,
          "duration": 0.072508,
          "velocity": 0.88189
        },
        {
          "time": 655.859291,
          "name": "B3",
          "midi": 59,
          "duration": 0.072508,
          "velocity": 0.88189
        },
        {
          "time": 655.944498,
          "name": "A4",
          "midi": 69,
          "duration": 0.386483,
          "velocity": 0.88189
        },
        {
          "time": 655.944498,
          "name": "A3",
          "midi": 57,
          "duration": 0.386483,
          "velocity": 0.88189
        },
        {
          "time": 655.950949,
          "name": "F#4",
          "midi": 66,
          "duration": 0.077419,
          "velocity": 0.88189
        },
        {
          "time": 655.954175,
          "name": "A4",
          "midi": 69,
          "duration": 0.385869,
          "velocity": 0.88189
        },
        {
          "time": 655.954175,
          "name": "A3",
          "midi": 57,
          "duration": 0.385869,
          "velocity": 0.88189
        },
        {
          "time": 655.954175,
          "name": "E4",
          "midi": 64,
          "duration": 0.385869,
          "velocity": 0.96063
        },
        {
          "time": 655.954175,
          "name": "A3",
          "midi": 57,
          "duration": 0.385869,
          "velocity": 0.96063
        },
        {
          "time": 656.047724,
          "name": "F#4",
          "midi": 66,
          "duration": 0.077419,
          "velocity": 0.88189
        },
        {
          "time": 656.144498,
          "name": "E4",
          "midi": 64,
          "duration": 0.077419,
          "velocity": 0.88189
        },
        {
          "time": 656.241272,
          "name": "E4",
          "midi": 64,
          "duration": 0.077419,
          "velocity": 0.88189
        },
        {
          "time": 656.337023,
          "name": "D4",
          "midi": 62,
          "duration": 0.072508,
          "velocity": 0.88189
        },
        {
          "time": 656.427657,
          "name": "D4",
          "midi": 62,
          "duration": 0.072508,
          "velocity": 0.88189
        },
        {
          "time": 656.518292,
          "name": "C4",
          "midi": 60,
          "duration": 0.072508,
          "velocity": 0.88189
        },
        {
          "time": 656.608926,
          "name": "C4",
          "midi": 60,
          "duration": 0.072508,
          "velocity": 0.88189
        },
        {
          "time": 656.694133,
          "name": "A3",
          "midi": 57,
          "duration": 0.386483,
          "velocity": 0.88189
        },
        {
          "time": 656.694133,
          "name": "A4",
          "midi": 69,
          "duration": 0.386483,
          "velocity": 0.88189
        },
        {
          "time": 656.700584,
          "name": "B3",
          "midi": 59,
          "duration": 0.077419,
          "velocity": 0.88189
        },
        {
          "time": 656.70381,
          "name": "A4",
          "midi": 69,
          "duration": 0.385869,
          "velocity": 0.88189
        },
        {
          "time": 656.70381,
          "name": "A3",
          "midi": 57,
          "duration": 0.385869,
          "velocity": 0.88189
        },
        {
          "time": 656.70381,
          "name": "F#3",
          "midi": 54,
          "duration": 0.385869,
          "velocity": 0.96063
        },
        {
          "time": 656.70381,
          "name": "D4",
          "midi": 62,
          "duration": 0.385869,
          "velocity": 0.96063
        },
        {
          "time": 656.797359,
          "name": "B3",
          "midi": 59,
          "duration": 0.077419,
          "velocity": 0.88189
        },
        {
          "time": 656.894133,
          "name": "A3",
          "midi": 57,
          "duration": 0.077419,
          "velocity": 0.88189
        },
        {
          "time": 656.990907,
          "name": "A3",
          "midi": 57,
          "duration": 0.077419,
          "velocity": 0.88189
        },
        {
          "time": 657.086658,
          "name": "E4",
          "midi": 64,
          "duration": 0.072508,
          "velocity": 0.88189
        },
        {
          "time": 657.177292,
          "name": "E4",
          "midi": 64,
          "duration": 0.072508,
          "velocity": 0.88189
        },
        {
          "time": 657.267927,
          "name": "F#4",
          "midi": 66,
          "duration": 0.072508,
          "velocity": 0.88189
        },
        {
          "time": 657.358561,
          "name": "F#4",
          "midi": 66,
          "duration": 0.072508,
          "velocity": 0.88189
        },
        {
          "time": 657.443768,
          "name": "B3",
          "midi": 59,
          "duration": 0.386483,
          "velocity": 0.88189
        },
        {
          "time": 657.443768,
          "name": "B4",
          "midi": 71,
          "duration": 0.386483,
          "velocity": 0.88189
        },
        {
          "time": 657.450219,
          "name": "G4",
          "midi": 67,
          "duration": 0.077419,
          "velocity": 0.88189
        },
        {
          "time": 657.453445,
          "name": "B3",
          "midi": 59,
          "duration": 0.385869,
          "velocity": 0.88189
        },
        {
          "time": 657.453445,
          "name": "B4",
          "midi": 71,
          "duration": 0.385869,
          "velocity": 0.88189
        },
        {
          "time": 657.453445,
          "name": "B3",
          "midi": 59,
          "duration": 0.385869,
          "velocity": 0.96063
        },
        {
          "time": 657.453445,
          "name": "G4",
          "midi": 67,
          "duration": 0.385869,
          "velocity": 0.96063
        },
        {
          "time": 657.546994,
          "name": "G4",
          "midi": 67,
          "duration": 0.077419,
          "velocity": 0.88189
        },
        {
          "time": 657.643768,
          "name": "D4",
          "midi": 62,
          "duration": 0.077419,
          "velocity": 0.88189
        },
        {
          "time": 657.740542,
          "name": "D4",
          "midi": 62,
          "duration": 0.077419,
          "velocity": 0.88189
        },
        {
          "time": 657.830251,
          "name": "A3",
          "midi": 57,
          "duration": 0.363152,
          "velocity": 0.88189
        },
        {
          "time": 657.830251,
          "name": "A4",
          "midi": 69,
          "duration": 0.363152,
          "velocity": 0.88189
        },
        {
          "time": 657.836293,
          "name": "F#4",
          "midi": 66,
          "duration": 0.072508,
          "velocity": 0.88189
        },
        {
          "time": 657.839314,
          "name": "A3",
          "midi": 57,
          "duration": 0.363766,
          "velocity": 0.88189
        },
        {
          "time": 657.839314,
          "name": "A4",
          "midi": 69,
          "duration": 0.363766,
          "velocity": 0.88189
        },
        {
          "time": 657.839314,
          "name": "A3",
          "midi": 57,
          "duration": 0.363766,
          "velocity": 0.96063
        },
        {
          "time": 657.839314,
          "name": "F#4",
          "midi": 66,
          "duration": 0.363766,
          "velocity": 0.96063
        },
        {
          "time": 657.926927,
          "name": "F#4",
          "midi": 66,
          "duration": 0.072508,
          "velocity": 0.88189
        },
        {
          "time": 658.017562,
          "name": "D4",
          "midi": 62,
          "duration": 0.072508,
          "velocity": 0.88189
        },
        {
          "time": 658.108196,
          "name": "D4",
          "midi": 62,
          "duration": 0.072508,
          "velocity": 0.88189
        },
        {
          "time": 658.193403,
          "name": "B3",
          "midi": 59,
          "duration": 0.386483,
          "velocity": 0.88189
        },
        {
          "time": 658.193403,
          "name": "B4",
          "midi": 71,
          "duration": 0.386483,
          "velocity": 0.88189
        },
        {
          "time": 658.199854,
          "name": "G4",
          "midi": 67,
          "duration": 0.077419,
          "velocity": 0.88189
        },
        {
          "time": 658.20308,
          "name": "B3",
          "midi": 59,
          "duration": 0.385869,
          "velocity": 0.88189
        },
        {
          "time": 658.20308,
          "name": "B4",
          "midi": 71,
          "duration": 0.385869,
          "velocity": 0.88189
        },
        {
          "time": 658.20308,
          "name": "B3",
          "midi": 59,
          "duration": 0.385869,
          "velocity": 0.96063
        },
        {
          "time": 658.20308,
          "name": "G4",
          "midi": 67,
          "duration": 0.385869,
          "velocity": 0.96063
        },
        {
          "time": 658.296629,
          "name": "G4",
          "midi": 67,
          "duration": 0.077419,
          "velocity": 0.88189
        },
        {
          "time": 658.393403,
          "name": "D4",
          "midi": 62,
          "duration": 0.077419,
          "velocity": 0.88189
        },
        {
          "time": 658.490177,
          "name": "D4",
          "midi": 62,
          "duration": 0.077419,
          "velocity": 0.88189
        },
        {
          "time": 658.579886,
          "name": "A3",
          "midi": 57,
          "duration": 0.363152,
          "velocity": 0.88189
        },
        {
          "time": 658.579886,
          "name": "A4",
          "midi": 69,
          "duration": 0.363152,
          "velocity": 0.88189
        },
        {
          "time": 658.585928,
          "name": "F#4",
          "midi": 66,
          "duration": 0.072508,
          "velocity": 0.88189
        },
        {
          "time": 658.588949,
          "name": "A3",
          "midi": 57,
          "duration": 0.363766,
          "velocity": 0.88189
        },
        {
          "time": 658.588949,
          "name": "A4",
          "midi": 69,
          "duration": 0.363766,
          "velocity": 0.88189
        },
        {
          "time": 658.588949,
          "name": "A3",
          "midi": 57,
          "duration": 0.363766,
          "velocity": 0.96063
        },
        {
          "time": 658.588949,
          "name": "F#4",
          "midi": 66,
          "duration": 0.363766,
          "velocity": 0.96063
        },
        {
          "time": 658.676562,
          "name": "F#4",
          "midi": 66,
          "duration": 0.072508,
          "velocity": 0.88189
        },
        {
          "time": 658.767197,
          "name": "D4",
          "midi": 62,
          "duration": 0.072508,
          "velocity": 0.88189
        },
        {
          "time": 658.857831,
          "name": "D4",
          "midi": 62,
          "duration": 0.072508,
          "velocity": 0.88189
        },
        {
          "time": 658.943038,
          "name": "B3",
          "midi": 59,
          "duration": 0.386483,
          "velocity": 0.88189
        },
        {
          "time": 658.943038,
          "name": "B4",
          "midi": 71,
          "duration": 0.386483,
          "velocity": 0.88189
        },
        {
          "time": 658.949489,
          "name": "G4",
          "midi": 67,
          "duration": 0.077419,
          "velocity": 0.88189
        },
        {
          "time": 658.952715,
          "name": "B3",
          "midi": 59,
          "duration": 0.385869,
          "velocity": 0.88189
        },
        {
          "time": 658.952715,
          "name": "B4",
          "midi": 71,
          "duration": 0.385869,
          "velocity": 0.88189
        },
        {
          "time": 658.952715,
          "name": "B3",
          "midi": 59,
          "duration": 0.385869,
          "velocity": 0.96063
        },
        {
          "time": 658.952715,
          "name": "G4",
          "midi": 67,
          "duration": 0.385869,
          "velocity": 0.96063
        },
        {
          "time": 659.046264,
          "name": "G4",
          "midi": 67,
          "duration": 0.077419,
          "velocity": 0.88189
        },
        {
          "time": 659.143038,
          "name": "D4",
          "midi": 62,
          "duration": 0.077419,
          "velocity": 0.88189
        },
        {
          "time": 659.239812,
          "name": "D4",
          "midi": 62,
          "duration": 0.077419,
          "velocity": 0.88189
        },
        {
          "time": 659.329521,
          "name": "A3",
          "midi": 57,
          "duration": 0.363152,
          "velocity": 0.88189
        },
        {
          "time": 659.329521,
          "name": "A4",
          "midi": 69,
          "duration": 0.363152,
          "velocity": 0.88189
        },
        {
          "time": 659.335563,
          "name": "F#4",
          "midi": 66,
          "duration": 0.072508,
          "velocity": 0.88189
        },
        {
          "time": 659.338584,
          "name": "A3",
          "midi": 57,
          "duration": 0.363766,
          "velocity": 0.88189
        },
        {
          "time": 659.338584,
          "name": "A4",
          "midi": 69,
          "duration": 0.363766,
          "velocity": 0.88189
        },
        {
          "time": 659.338584,
          "name": "A3",
          "midi": 57,
          "duration": 0.363766,
          "velocity": 0.96063
        },
        {
          "time": 659.338584,
          "name": "F#4",
          "midi": 66,
          "duration": 0.363766,
          "velocity": 0.96063
        },
        {
          "time": 659.426197,
          "name": "F#4",
          "midi": 66,
          "duration": 0.072508,
          "velocity": 0.88189
        },
        {
          "time": 659.516832,
          "name": "D4",
          "midi": 62,
          "duration": 0.072508,
          "velocity": 0.88189
        },
        {
          "time": 659.607466,
          "name": "D4",
          "midi": 62,
          "duration": 0.072508,
          "velocity": 0.88189
        },
        {
          "time": 659.692673,
          "name": "B3",
          "midi": 59,
          "duration": 0.386483,
          "velocity": 0.88189
        },
        {
          "time": 659.692673,
          "name": "B4",
          "midi": 71,
          "duration": 0.386483,
          "velocity": 0.88189
        },
        {
          "time": 659.699124,
          "name": "G4",
          "midi": 67,
          "duration": 0.077419,
          "velocity": 0.88189
        },
        {
          "time": 659.70235,
          "name": "B3",
          "midi": 59,
          "duration": 0.385869,
          "velocity": 0.88189
        },
        {
          "time": 659.70235,
          "name": "B4",
          "midi": 71,
          "duration": 0.385869,
          "velocity": 0.88189
        },
        {
          "time": 659.70235,
          "name": "B3",
          "midi": 59,
          "duration": 0.385869,
          "velocity": 0.96063
        },
        {
          "time": 659.70235,
          "name": "G4",
          "midi": 67,
          "duration": 0.385869,
          "velocity": 0.96063
        },
        {
          "time": 659.795899,
          "name": "G4",
          "midi": 67,
          "duration": 0.077419,
          "velocity": 0.88189
        },
        {
          "time": 659.892673,
          "name": "D4",
          "midi": 62,
          "duration": 0.077419,
          "velocity": 0.88189
        },
        {
          "time": 659.989447,
          "name": "D4",
          "midi": 62,
          "duration": 0.077419,
          "velocity": 0.88189
        },
        {
          "time": 660.079156,
          "name": "A3",
          "midi": 57,
          "duration": 0.363152,
          "velocity": 0.88189
        },
        {
          "time": 660.079156,
          "name": "A4",
          "midi": 69,
          "duration": 0.363152,
          "velocity": 0.88189
        },
        {
          "time": 660.085198,
          "name": "F#4",
          "midi": 66,
          "duration": 0.072508,
          "velocity": 0.88189
        },
        {
          "time": 660.088219,
          "name": "A3",
          "midi": 57,
          "duration": 0.363766,
          "velocity": 0.88189
        },
        {
          "time": 660.088219,
          "name": "A4",
          "midi": 69,
          "duration": 0.363766,
          "velocity": 0.88189
        },
        {
          "time": 660.088219,
          "name": "A3",
          "midi": 57,
          "duration": 0.363766,
          "velocity": 0.96063
        },
        {
          "time": 660.088219,
          "name": "F#4",
          "midi": 66,
          "duration": 0.363766,
          "velocity": 0.96063
        },
        {
          "time": 660.175832,
          "name": "F#4",
          "midi": 66,
          "duration": 0.072508,
          "velocity": 0.88189
        },
        {
          "time": 660.266467,
          "name": "D4",
          "midi": 62,
          "duration": 0.072508,
          "velocity": 0.88189
        },
        {
          "time": 660.357101,
          "name": "D4",
          "midi": 62,
          "duration": 0.072508,
          "velocity": 0.88189
        },
        {
          "time": 660.442308,
          "name": "B3",
          "midi": 59,
          "duration": 0.386483,
          "velocity": 0.88189
        },
        {
          "time": 660.442308,
          "name": "B4",
          "midi": 71,
          "duration": 0.386483,
          "velocity": 0.88189
        },
        {
          "time": 660.448759,
          "name": "G4",
          "midi": 67,
          "duration": 0.386074,
          "velocity": 0.88189
        },
        {
          "time": 660.451985,
          "name": "B3",
          "midi": 59,
          "duration": 0.385869,
          "velocity": 0.88189
        },
        {
          "time": 660.451985,
          "name": "B4",
          "midi": 71,
          "duration": 0.385869,
          "velocity": 0.88189
        },
        {
          "time": 660.451985,
          "name": "B3",
          "midi": 59,
          "duration": 0.385869,
          "velocity": 0.96063
        },
        {
          "time": 660.451985,
          "name": "G4",
          "midi": 67,
          "duration": 0.385869,
          "velocity": 0.96063
        },
        {
          "time": 660.828791,
          "name": "B3",
          "midi": 59,
          "duration": 0.363152,
          "velocity": 0.88189
        },
        {
          "time": 660.828791,
          "name": "B4",
          "midi": 71,
          "duration": 0.363152,
          "velocity": 0.88189
        },
        {
          "time": 660.834833,
          "name": "B4",
          "midi": 71,
          "duration": 0.363561,
          "velocity": 0.88189
        },
        {
          "time": 660.834833,
          "name": "D4",
          "midi": 62,
          "duration": 0.363561,
          "velocity": 0.88189
        },
        {
          "time": 660.834833,
          "name": "G3",
          "midi": 55,
          "duration": 0.363561,
          "velocity": 0.88189
        },
        {
          "time": 660.837854,
          "name": "B3",
          "midi": 59,
          "duration": 0.363766,
          "velocity": 0.88189
        },
        {
          "time": 660.837854,
          "name": "B4",
          "midi": 71,
          "duration": 0.363766,
          "velocity": 0.88189
        },
        {
          "time": 660.837854,
          "name": "B3",
          "midi": 59,
          "duration": 0.363766,
          "velocity": 0.96063
        },
        {
          "time": 660.837854,
          "name": "G4",
          "midi": 67,
          "duration": 0.363766,
          "velocity": 0.96063
        },
        {
          "time": 661.191943,
          "name": "B3",
          "midi": 59,
          "duration": 0.386483,
          "velocity": 0.88189
        },
        {
          "time": 661.191943,
          "name": "B4",
          "midi": 71,
          "duration": 0.386483,
          "velocity": 0.88189
        },
        {
          "time": 661.198394,
          "name": "B4",
          "midi": 71,
          "duration": 0.386074,
          "velocity": 0.88189
        },
        {
          "time": 661.198394,
          "name": "D4",
          "midi": 62,
          "duration": 0.386074,
          "velocity": 0.88189
        },
        {
          "time": 661.198394,
          "name": "G3",
          "midi": 55,
          "duration": 0.386074,
          "velocity": 0.88189
        },
        {
          "time": 661.20162,
          "name": "B3",
          "midi": 59,
          "duration": 0.385869,
          "velocity": 0.88189
        },
        {
          "time": 661.20162,
          "name": "B4",
          "midi": 71,
          "duration": 0.385869,
          "velocity": 0.88189
        },
        {
          "time": 661.20162,
          "name": "B3",
          "midi": 59,
          "duration": 0.385869,
          "velocity": 0.96063
        },
        {
          "time": 661.20162,
          "name": "G4",
          "midi": 67,
          "duration": 0.385869,
          "velocity": 0.96063
        },
        {
          "time": 661.578426,
          "name": "B3",
          "midi": 59,
          "duration": 0.363152,
          "velocity": 0.88189
        },
        {
          "time": 661.578426,
          "name": "B4",
          "midi": 71,
          "duration": 0.363152,
          "velocity": 0.88189
        },
        {
          "time": 661.584468,
          "name": "B4",
          "midi": 71,
          "duration": 0.363561,
          "velocity": 0.88189
        },
        {
          "time": 661.584468,
          "name": "D4",
          "midi": 62,
          "duration": 0.363561,
          "velocity": 0.88189
        },
        {
          "time": 661.584468,
          "name": "G3",
          "midi": 55,
          "duration": 0.363561,
          "velocity": 0.88189
        },
        {
          "time": 661.587489,
          "name": "B3",
          "midi": 59,
          "duration": 0.363766,
          "velocity": 0.88189
        },
        {
          "time": 661.587489,
          "name": "B4",
          "midi": 71,
          "duration": 0.363766,
          "velocity": 0.88189
        },
        {
          "time": 661.587489,
          "name": "B3",
          "midi": 59,
          "duration": 0.363766,
          "velocity": 0.96063
        },
        {
          "time": 661.587489,
          "name": "G4",
          "midi": 67,
          "duration": 0.363766,
          "velocity": 0.96063
        },
        {
          "time": 661.941578,
          "name": "B3",
          "midi": 59,
          "duration": 0.386795,
          "velocity": 0.88189
        },
        {
          "time": 661.941578,
          "name": "B4",
          "midi": 71,
          "duration": 0.386795,
          "velocity": 0.88189
        },
        {
          "time": 661.948029,
          "name": "B4",
          "midi": 71,
          "duration": 0.386593,
          "velocity": 0.88189
        },
        {
          "time": 661.948029,
          "name": "D4",
          "midi": 62,
          "duration": 0.386593,
          "velocity": 0.88189
        },
        {
          "time": 661.948029,
          "name": "G3",
          "midi": 55,
          "duration": 0.386593,
          "velocity": 0.88189
        },
        {
          "time": 661.951255,
          "name": "B3",
          "midi": 59,
          "duration": 0.386492,
          "velocity": 0.88189
        },
        {
          "time": 661.951255,
          "name": "B4",
          "midi": 71,
          "duration": 0.386492,
          "velocity": 0.88189
        },
        {
          "time": 661.951255,
          "name": "B3",
          "midi": 59,
          "duration": 0.386492,
          "velocity": 0.96063
        },
        {
          "time": 661.951255,
          "name": "G4",
          "midi": 67,
          "duration": 0.386492,
          "velocity": 0.96063
        },
        {
          "time": 662.328372,
          "name": "B3",
          "midi": 59,
          "duration": 0.375794,
          "velocity": 0.88189
        },
        {
          "time": 662.328372,
          "name": "B4",
          "midi": 71,
          "duration": 0.375794,
          "velocity": 0.88189
        },
        {
          "time": 662.334622,
          "name": "B4",
          "midi": 71,
          "duration": 0.376324,
          "velocity": 0.88189
        },
        {
          "time": 662.334622,
          "name": "D4",
          "midi": 62,
          "duration": 0.376324,
          "velocity": 0.88189
        },
        {
          "time": 662.334622,
          "name": "G3",
          "midi": 55,
          "duration": 0.376324,
          "velocity": 0.88189
        },
        {
          "time": 662.337747,
          "name": "B3",
          "midi": 59,
          "duration": 0.376589,
          "velocity": 0.88189
        },
        {
          "time": 662.337747,
          "name": "B4",
          "midi": 71,
          "duration": 0.376589,
          "velocity": 0.88189
        },
        {
          "time": 662.337747,
          "name": "B3",
          "midi": 59,
          "duration": 0.376589,
          "velocity": 0.96063
        },
        {
          "time": 662.337747,
          "name": "G4",
          "midi": 67,
          "duration": 0.376589,
          "velocity": 0.96063
        },
        {
          "time": 662.704167,
          "name": "B3",
          "midi": 59,
          "duration": 0.407211,
          "velocity": 0.88189
        },
        {
          "time": 662.704167,
          "name": "B4",
          "midi": 71,
          "duration": 0.407211,
          "velocity": 0.88189
        },
        {
          "time": 662.710946,
          "name": "B4",
          "midi": 71,
          "duration": 0.407499,
          "velocity": 0.88189
        },
        {
          "time": 662.710946,
          "name": "D4",
          "midi": 62,
          "duration": 0.407499,
          "velocity": 0.88189
        },
        {
          "time": 662.710946,
          "name": "G3",
          "midi": 55,
          "duration": 0.407499,
          "velocity": 0.88189
        },
        {
          "time": 662.714336,
          "name": "B3",
          "midi": 59,
          "duration": 0.407642,
          "velocity": 0.88189
        },
        {
          "time": 662.714336,
          "name": "B4",
          "midi": 71,
          "duration": 0.407642,
          "velocity": 0.88189
        },
        {
          "time": 662.714336,
          "name": "B3",
          "midi": 59,
          "duration": 0.407642,
          "velocity": 0.96063
        },
        {
          "time": 662.714336,
          "name": "G4",
          "midi": 67,
          "duration": 0.407642,
          "velocity": 0.96063
        },
        {
          "time": 663.111378,
          "name": "B3",
          "midi": 59,
          "duration": 0.424457,
          "velocity": 0.88189
        },
        {
          "time": 663.111378,
          "name": "B4",
          "midi": 71,
          "duration": 0.424457,
          "velocity": 0.88189
        },
        {
          "time": 663.118445,
          "name": "B4",
          "midi": 71,
          "duration": 0.424742,
          "velocity": 0.88189
        },
        {
          "time": 663.118445,
          "name": "D4",
          "midi": 62,
          "duration": 0.424742,
          "velocity": 0.88189
        },
        {
          "time": 663.118445,
          "name": "G3",
          "midi": 55,
          "duration": 0.424742,
          "velocity": 0.88189
        },
        {
          "time": 663.121979,
          "name": "B3",
          "midi": 59,
          "duration": 0.424885,
          "velocity": 0.88189
        },
        {
          "time": 663.121979,
          "name": "B4",
          "midi": 71,
          "duration": 0.424885,
          "velocity": 0.88189
        },
        {
          "time": 663.121979,
          "name": "B3",
          "midi": 59,
          "duration": 0.424885,
          "velocity": 0.96063
        },
        {
          "time": 663.121979,
          "name": "G4",
          "midi": 67,
          "duration": 0.424885,
          "velocity": 0.96063
        },
        {
          "time": 663.535835,
          "name": "B3",
          "midi": 59,
          "duration": 0.441641,
          "velocity": 0.88189
        },
        {
          "time": 663.535835,
          "name": "B4",
          "midi": 71,
          "duration": 0.441641,
          "velocity": 0.88189
        },
        {
          "time": 663.543188,
          "name": "B4",
          "midi": 71,
          "duration": 0.441951,
          "velocity": 0.88189
        },
        {
          "time": 663.543188,
          "name": "D4",
          "midi": 62,
          "duration": 0.441951,
          "velocity": 0.88189
        },
        {
          "time": 663.543188,
          "name": "G3",
          "midi": 55,
          "duration": 0.441951,
          "velocity": 0.88189
        },
        {
          "time": 663.546864,
          "name": "B3",
          "midi": 59,
          "duration": 0.442106,
          "velocity": 0.88189
        },
        {
          "time": 663.546864,
          "name": "B4",
          "midi": 71,
          "duration": 0.442106,
          "velocity": 0.88189
        },
        {
          "time": 663.546864,
          "name": "B3",
          "midi": 59,
          "duration": 0.442106,
          "velocity": 0.96063
        },
        {
          "time": 663.546864,
          "name": "G4",
          "midi": 67,
          "duration": 0.442106,
          "velocity": 0.96063
        },
        {
          "time": 664.437996,
          "name": "B3",
          "midi": 59,
          "duration": 0.489796,
          "velocity": 0.88189
        },
        {
          "time": 664.437996,
          "name": "B4",
          "midi": 71,
          "duration": 0.489796,
          "velocity": 0.88189
        },
        {
          "time": 664.446159,
          "name": "B4",
          "midi": 71,
          "duration": 0.489796,
          "velocity": 0.88189
        },
        {
          "time": 664.446159,
          "name": "D4",
          "midi": 62,
          "duration": 0.489796,
          "velocity": 0.88189
        },
        {
          "time": 664.446159,
          "name": "G3",
          "midi": 55,
          "duration": 0.489796,
          "velocity": 0.88189
        },
        {
          "time": 664.450241,
          "name": "B3",
          "midi": 59,
          "duration": 0.489796,
          "velocity": 0.88189
        },
        {
          "time": 664.450241,
          "name": "B4",
          "midi": 71,
          "duration": 0.489796,
          "velocity": 0.88189
        },
        {
          "time": 664.450241,
          "name": "B3",
          "midi": 59,
          "duration": 0.489796,
          "velocity": 0.96063
        },
        {
          "time": 664.450241,
          "name": "G4",
          "midi": 67,
          "duration": 0.489796,
          "velocity": 0.96063
        },
        {
          "time": 665.420343,
          "name": "G3",
          "midi": 55,
          "duration": 1.61,
          "velocity": 0.88189
        },
        {
          "time": 665.430343,
          "name": "G3",
          "midi": 55,
          "duration": 1.616667,
          "velocity": 0.88189
        },
        {
          "time": 665.435343,
          "name": "G3",
          "midi": 55,
          "duration": 1.62,
          "velocity": 0.88189
        },
        {
          "time": 665.435343,
          "name": "G3",
          "midi": 55,
          "duration": 1.62,
          "velocity": 0.96063
        }
      ]
    },
    {
      "id": 3,
      "instrument": "cello",
      "startTime": 0,
      "duration": 667.193676,
      "length": 1922,
      "notes": [
        {
          "time": 0.773529,
          "name": "A3",
          "midi": 57,
          "duration": 0.335294,
          "velocity": 0.866142
        },
        {
          "time": 0.773529,
          "name": "A2",
          "midi": 45,
          "duration": 0.335294,
          "velocity": 0.866142
        },
        {
          "time": 0.776471,
          "name": "A2",
          "midi": 45,
          "duration": 0.335294,
          "velocity": 0.88189
        },
        {
          "time": 1.12647,
          "name": "A3",
          "midi": 57,
          "duration": 0.729411,
          "velocity": 0.866142
        },
        {
          "time": 1.12647,
          "name": "A2",
          "midi": 45,
          "duration": 0.729411,
          "velocity": 0.866142
        },
        {
          "time": 1.129412,
          "name": "A2",
          "midi": 45,
          "duration": 0.729919,
          "velocity": 0.88189
        },
        {
          "time": 1.893204,
          "name": "G#3",
          "midi": 56,
          "duration": 0.335294,
          "velocity": 0.866142
        },
        {
          "time": 1.893204,
          "name": "A2",
          "midi": 45,
          "duration": 0.335294,
          "velocity": 0.866142
        },
        {
          "time": 1.896146,
          "name": "A2",
          "midi": 45,
          "duration": 0.335294,
          "velocity": 0.88189
        },
        {
          "time": 2.246145,
          "name": "A2",
          "midi": 45,
          "duration": 0.729411,
          "velocity": 0.866142
        },
        {
          "time": 2.246145,
          "name": "G#3",
          "midi": 56,
          "duration": 0.729411,
          "velocity": 0.866142
        },
        {
          "time": 2.249087,
          "name": "A2",
          "midi": 45,
          "duration": 0.729919,
          "velocity": 0.88189
        },
        {
          "time": 3.012879,
          "name": "G3",
          "midi": 55,
          "duration": 0.335294,
          "velocity": 0.866142
        },
        {
          "time": 3.012879,
          "name": "A2",
          "midi": 45,
          "duration": 0.335294,
          "velocity": 0.866142
        },
        {
          "time": 3.015821,
          "name": "A2",
          "midi": 45,
          "duration": 0.335294,
          "velocity": 0.88189
        },
        {
          "time": 3.36582,
          "name": "A2",
          "midi": 45,
          "duration": 0.53286,
          "velocity": 0.866142
        },
        {
          "time": 3.36582,
          "name": "G3",
          "midi": 55,
          "duration": 0.53286,
          "velocity": 0.866142
        },
        {
          "time": 3.368762,
          "name": "A2",
          "midi": 45,
          "duration": 0.533367,
          "velocity": 0.88189
        },
        {
          "time": 3.929715,
          "name": "F#3",
          "midi": 54,
          "duration": 0.194016,
          "velocity": 0.866142
        },
        {
          "time": 3.929715,
          "name": "A2",
          "midi": 45,
          "duration": 0.194016,
          "velocity": 0.866142
        },
        {
          "time": 3.933163,
          "name": "A2",
          "midi": 45,
          "duration": 0.193509,
          "velocity": 0.88189
        },
        {
          "time": 4.132554,
          "name": "E3",
          "midi": 52,
          "duration": 0.335294,
          "velocity": 0.866142
        },
        {
          "time": 4.132554,
          "name": "A2",
          "midi": 45,
          "duration": 0.335294,
          "velocity": 0.866142
        },
        {
          "time": 4.135496,
          "name": "A2",
          "midi": 45,
          "duration": 0.335294,
          "velocity": 0.88189
        },
        {
          "time": 5.252229,
          "name": "G3",
          "midi": 55,
          "duration": 0.335294,
          "velocity": 0.866142
        },
        {
          "time": 5.252229,
          "name": "A2",
          "midi": 45,
          "duration": 0.335294,
          "velocity": 0.866142
        },
        {
          "time": 5.255171,
          "name": "A2",
          "midi": 45,
          "duration": 0.335294,
          "velocity": 0.88189
        },
        {
          "time": 5.60517,
          "name": "G3",
          "midi": 55,
          "duration": 0.729412,
          "velocity": 0.866142
        },
        {
          "time": 5.60517,
          "name": "A2",
          "midi": 45,
          "duration": 0.729412,
          "velocity": 0.866142
        },
        {
          "time": 5.608112,
          "name": "A2",
          "midi": 45,
          "duration": 0.729919,
          "velocity": 0.88189
        },
        {
          "time": 6.371904,
          "name": "F3",
          "midi": 53,
          "duration": 0.335294,
          "velocity": 0.866142
        },
        {
          "time": 6.371904,
          "name": "A2",
          "midi": 45,
          "duration": 0.335294,
          "velocity": 0.866142
        },
        {
          "time": 6.374846,
          "name": "A2",
          "midi": 45,
          "duration": 0.335294,
          "velocity": 0.88189
        },
        {
          "time": 6.724845,
          "name": "A2",
          "midi": 45,
          "duration": 0.729412,
          "velocity": 0.866142
        },
        {
          "time": 6.724845,
          "name": "F3",
          "midi": 53,
          "duration": 0.729412,
          "velocity": 0.866142
        },
        {
          "time": 6.727787,
          "name": "A2",
          "midi": 45,
          "duration": 0.729919,
          "velocity": 0.88189
        },
        {
          "time": 7.491579,
          "name": "E3",
          "midi": 52,
          "duration": 0.335294,
          "velocity": 0.866142
        },
        {
          "time": 7.491579,
          "name": "A2",
          "midi": 45,
          "duration": 0.335294,
          "velocity": 0.866142
        },
        {
          "time": 7.494521,
          "name": "A2",
          "midi": 45,
          "duration": 0.335294,
          "velocity": 0.88189
        },
        {
          "time": 7.84452,
          "name": "A2",
          "midi": 45,
          "duration": 0.53286,
          "velocity": 0.866142
        },
        {
          "time": 7.84452,
          "name": "E3",
          "midi": 52,
          "duration": 0.53286,
          "velocity": 0.866142
        },
        {
          "time": 7.847462,
          "name": "A2",
          "midi": 45,
          "duration": 0.533367,
          "velocity": 0.88189
        },
        {
          "time": 8.408415,
          "name": "D3",
          "midi": 50,
          "duration": 0.194016,
          "velocity": 0.866142
        },
        {
          "time": 8.408415,
          "name": "A2",
          "midi": 45,
          "duration": 0.194016,
          "velocity": 0.866142
        },
        {
          "time": 8.411863,
          "name": "A2",
          "midi": 45,
          "duration": 0.193509,
          "velocity": 0.88189
        },
        {
          "time": 8.611254,
          "name": "C#3",
          "midi": 49,
          "duration": 0.335294,
          "velocity": 0.866142
        },
        {
          "time": 8.611254,
          "name": "A2",
          "midi": 45,
          "duration": 0.335294,
          "velocity": 0.866142
        },
        {
          "time": 8.614196,
          "name": "A2",
          "midi": 45,
          "duration": 0.335294,
          "velocity": 0.88189
        },
        {
          "time": 15.283064,
          "name": "A3",
          "midi": 57,
          "duration": 2.301848,
          "velocity": 0.866142
        },
        {
          "time": 15.283064,
          "name": "F#3",
          "midi": 54,
          "duration": 2.301848,
          "velocity": 0.866142
        },
        {
          "time": 15.286397,
          "name": "D3",
          "midi": 50,
          "duration": 0.397864,
          "velocity": 0.88189
        },
        {
          "time": 16.468178,
          "name": "A2",
          "midi": 45,
          "duration": 0.352941,
          "velocity": 0.88189
        },
        {
          "time": 17.584911,
          "name": "A3",
          "midi": 57,
          "duration": 2.23935,
          "velocity": 0.866142
        },
        {
          "time": 17.584911,
          "name": "F#3",
          "midi": 54,
          "duration": 2.23935,
          "velocity": 0.866142
        },
        {
          "time": 17.587853,
          "name": "D3",
          "midi": 50,
          "duration": 0.352941,
          "velocity": 0.88189
        },
        {
          "time": 18.707528,
          "name": "A2",
          "midi": 45,
          "duration": 0.352941,
          "velocity": 0.88189
        },
        {
          "time": 19.824261,
          "name": "A3",
          "midi": 57,
          "duration": 1.119675,
          "velocity": 0.866142
        },
        {
          "time": 19.824261,
          "name": "F#3",
          "midi": 54,
          "duration": 2.23935,
          "velocity": 0.866142
        },
        {
          "time": 19.827203,
          "name": "D3",
          "midi": 50,
          "duration": 0.352941,
          "velocity": 0.88189
        },
        {
          "time": 20.943936,
          "name": "A#3",
          "midi": 58,
          "duration": 1.119675,
          "velocity": 0.866142
        },
        {
          "time": 20.946878,
          "name": "D3",
          "midi": 50,
          "duration": 0.352941,
          "velocity": 0.88189
        },
        {
          "time": 22.063611,
          "name": "G3",
          "midi": 55,
          "duration": 0.709939,
          "velocity": 0.866142
        },
        {
          "time": 22.063611,
          "name": "B3",
          "midi": 59,
          "duration": 1.119675,
          "velocity": 0.866142
        },
        {
          "time": 22.066553,
          "name": "G3",
          "midi": 55,
          "duration": 0.352941,
          "velocity": 0.88189
        },
        {
          "time": 22.77355,
          "name": "A3",
          "midi": 57,
          "duration": 0.409736,
          "velocity": 0.866142
        },
        {
          "time": 22.776998,
          "name": "F#3",
          "midi": 54,
          "duration": 0.409229,
          "velocity": 0.88189
        },
        {
          "time": 23.183286,
          "name": "B3",
          "midi": 59,
          "duration": 1.119675,
          "velocity": 0.866142
        },
        {
          "time": 23.183286,
          "name": "G3",
          "midi": 55,
          "duration": 1.119675,
          "velocity": 0.866142
        },
        {
          "time": 23.186228,
          "name": "E3",
          "midi": 52,
          "duration": 0.352941,
          "velocity": 0.88189
        },
        {
          "time": 24.302961,
          "name": "E4",
          "midi": 64,
          "duration": 1.119675,
          "velocity": 0.866142
        },
        {
          "time": 24.302961,
          "name": "G3",
          "midi": 55,
          "duration": 1.119675,
          "velocity": 0.866142
        },
        {
          "time": 24.305903,
          "name": "G3",
          "midi": 55,
          "duration": 0.352941,
          "velocity": 0.88189
        },
        {
          "time": 24.658844,
          "name": "G3",
          "midi": 55,
          "duration": 0.357505,
          "velocity": 0.88189
        },
        {
          "time": 25.016348,
          "name": "G3",
          "midi": 55,
          "duration": 0.409229,
          "velocity": 0.88189
        },
        {
          "time": 25.422636,
          "name": "F4",
          "midi": 65,
          "duration": 1.119675,
          "velocity": 0.866142
        },
        {
          "time": 25.422636,
          "name": "G#3",
          "midi": 56,
          "duration": 1.119675,
          "velocity": 0.866142
        },
        {
          "time": 25.425578,
          "name": "G#3",
          "midi": 56,
          "duration": 0.352941,
          "velocity": 0.88189
        },
        {
          "time": 25.778519,
          "name": "G#3",
          "midi": 56,
          "duration": 0.357505,
          "velocity": 0.88189
        },
        {
          "time": 26.136023,
          "name": "G#3",
          "midi": 56,
          "duration": 0.409229,
          "velocity": 0.88189
        },
        {
          "time": 26.542311,
          "name": "F#4",
          "midi": 66,
          "duration": 2.23935,
          "velocity": 0.866142
        },
        {
          "time": 26.542311,
          "name": "A3",
          "midi": 57,
          "duration": 2.23935,
          "velocity": 0.866142
        },
        {
          "time": 26.545253,
          "name": "A3",
          "midi": 57,
          "duration": 0.352941,
          "velocity": 0.88189
        },
        {
          "time": 26.898194,
          "name": "A3",
          "midi": 57,
          "duration": 0.357505,
          "velocity": 0.88189
        },
        {
          "time": 27.255698,
          "name": "A3",
          "midi": 57,
          "duration": 0.409229,
          "velocity": 0.88189
        },
        {
          "time": 27.664928,
          "name": "A3",
          "midi": 57,
          "duration": 0.352941,
          "velocity": 0.88189
        },
        {
          "time": 28.017869,
          "name": "A3",
          "midi": 57,
          "duration": 0.357505,
          "velocity": 0.88189
        },
        {
          "time": 28.375373,
          "name": "A3",
          "midi": 57,
          "duration": 0.409229,
          "velocity": 0.88189
        },
        {
          "time": 28.781661,
          "name": "G4",
          "midi": 67,
          "duration": 2.23935,
          "velocity": 0.866142
        },
        {
          "time": 28.781661,
          "name": "A3",
          "midi": 57,
          "duration": 2.23935,
          "velocity": 0.866142
        },
        {
          "time": 28.784603,
          "name": "A3",
          "midi": 57,
          "duration": 0.352941,
          "velocity": 0.88189
        },
        {
          "time": 29.137544,
          "name": "A3",
          "midi": 57,
          "duration": 0.357505,
          "velocity": 0.88189
        },
        {
          "time": 29.495048,
          "name": "A3",
          "midi": 57,
          "duration": 0.409229,
          "velocity": 0.88189
        },
        {
          "time": 29.904278,
          "name": "A3",
          "midi": 57,
          "duration": 0.352941,
          "velocity": 0.88189
        },
        {
          "time": 30.257219,
          "name": "A3",
          "midi": 57,
          "duration": 0.357505,
          "velocity": 0.88189
        },
        {
          "time": 30.614723,
          "name": "A3",
          "midi": 57,
          "duration": 0.409229,
          "velocity": 0.88189
        },
        {
          "time": 31.021011,
          "name": "D4",
          "midi": 62,
          "duration": 1.121146,
          "velocity": 0.866142
        },
        {
          "time": 31.021011,
          "name": "B3",
          "midi": 59,
          "duration": 1.121146,
          "velocity": 0.866142
        },
        {
          "time": 31.023953,
          "name": "A3",
          "midi": 57,
          "duration": 1.121329,
          "velocity": 0.88189
        },
        {
          "time": 32.142157,
          "name": "D#4",
          "midi": 63,
          "duration": 0.794562,
          "velocity": 0.866142
        },
        {
          "time": 32.142157,
          "name": "C4",
          "midi": 60,
          "duration": 0.794562,
          "velocity": 0.866142
        },
        {
          "time": 32.145282,
          "name": "A3",
          "midi": 57,
          "duration": 1.250331,
          "velocity": 0.88189
        },
        {
          "time": 32.936719,
          "name": "C#4",
          "midi": 61,
          "duration": 0.455769,
          "velocity": 0.866142
        },
        {
          "time": 32.936719,
          "name": "E4",
          "midi": 64,
          "duration": 0.455769,
          "velocity": 0.866142
        },
        {
          "time": 33.392488,
          "name": "F#3",
          "midi": 54,
          "duration": 2.281997,
          "velocity": 0.866142
        },
        {
          "time": 33.392488,
          "name": "A3",
          "midi": 57,
          "duration": 2.281997,
          "velocity": 0.866142
        },
        {
          "time": 33.395613,
          "name": "D3",
          "midi": 50,
          "duration": 0.375,
          "velocity": 0.88189
        },
        {
          "time": 34.557752,
          "name": "A2",
          "midi": 45,
          "duration": 0.352941,
          "velocity": 0.88189
        },
        {
          "time": 35.674485,
          "name": "F#3",
          "midi": 54,
          "duration": 2.23935,
          "velocity": 0.866142
        },
        {
          "time": 35.674485,
          "name": "A3",
          "midi": 57,
          "duration": 2.23935,
          "velocity": 0.866142
        },
        {
          "time": 35.677427,
          "name": "D3",
          "midi": 50,
          "duration": 0.352941,
          "velocity": 0.88189
        },
        {
          "time": 36.797102,
          "name": "A2",
          "midi": 45,
          "duration": 0.352941,
          "velocity": 0.88189
        },
        {
          "time": 37.913835,
          "name": "A3",
          "midi": 57,
          "duration": 1.119675,
          "velocity": 0.866142
        },
        {
          "time": 37.913835,
          "name": "F#3",
          "midi": 54,
          "duration": 2.23935,
          "velocity": 0.866142
        },
        {
          "time": 37.916777,
          "name": "D3",
          "midi": 50,
          "duration": 0.352941,
          "velocity": 0.88189
        },
        {
          "time": 39.03351,
          "name": "A#3",
          "midi": 58,
          "duration": 1.119675,
          "velocity": 0.866142
        },
        {
          "time": 39.036452,
          "name": "D3",
          "midi": 50,
          "duration": 0.352941,
          "velocity": 0.88189
        },
        {
          "time": 40.153185,
          "name": "G3",
          "midi": 55,
          "duration": 0.709939,
          "velocity": 0.866142
        },
        {
          "time": 40.153185,
          "name": "B3",
          "midi": 59,
          "duration": 2.23935,
          "velocity": 0.866142
        },
        {
          "time": 40.156127,
          "name": "G3",
          "midi": 55,
          "duration": 0.352941,
          "velocity": 0.88189
        },
        {
          "time": 40.863124,
          "name": "A3",
          "midi": 57,
          "duration": 0.409736,
          "velocity": 0.866142
        },
        {
          "time": 40.866572,
          "name": "F#3",
          "midi": 54,
          "duration": 0.409229,
          "velocity": 0.88189
        },
        {
          "time": 41.27286,
          "name": "G3",
          "midi": 55,
          "duration": 1.119675,
          "velocity": 0.866142
        },
        {
          "time": 41.275802,
          "name": "E3",
          "midi": 52,
          "duration": 0.352941,
          "velocity": 0.88189
        },
        {
          "time": 42.392535,
          "name": "E4",
          "midi": 64,
          "duration": 1.119675,
          "velocity": 0.866142
        },
        {
          "time": 42.392535,
          "name": "G3",
          "midi": 55,
          "duration": 2.23935,
          "velocity": 0.866142
        },
        {
          "time": 42.395477,
          "name": "G3",
          "midi": 55,
          "duration": 0.352941,
          "velocity": 0.88189
        },
        {
          "time": 42.748418,
          "name": "G3",
          "midi": 55,
          "duration": 0.357505,
          "velocity": 0.88189
        },
        {
          "time": 43.105922,
          "name": "G3",
          "midi": 55,
          "duration": 0.409229,
          "velocity": 0.88189
        },
        {
          "time": 43.51221,
          "name": "F4",
          "midi": 65,
          "duration": 1.119675,
          "velocity": 0.866142
        },
        {
          "time": 43.515152,
          "name": "G3",
          "midi": 55,
          "duration": 0.352941,
          "velocity": 0.88189
        },
        {
          "time": 43.868093,
          "name": "G3",
          "midi": 55,
          "duration": 0.357505,
          "velocity": 0.88189
        },
        {
          "time": 44.225597,
          "name": "G3",
          "midi": 55,
          "duration": 0.409229,
          "velocity": 0.88189
        },
        {
          "time": 44.631885,
          "name": "F4",
          "midi": 65,
          "duration": 1.119675,
          "velocity": 0.866142
        },
        {
          "time": 44.631885,
          "name": "G3",
          "midi": 55,
          "duration": 1.119675,
          "velocity": 0.866142
        },
        {
          "time": 44.634827,
          "name": "G3",
          "midi": 55,
          "duration": 0.352941,
          "velocity": 0.88189
        },
        {
          "time": 44.987768,
          "name": "G3",
          "midi": 55,
          "duration": 0.357505,
          "velocity": 0.88189
        },
        {
          "time": 45.345272,
          "name": "G3",
          "midi": 55,
          "duration": 0.409229,
          "velocity": 0.88189
        },
        {
          "time": 45.75156,
          "name": "F#4",
          "midi": 66,
          "duration": 1.119675,
          "velocity": 0.866142
        },
        {
          "time": 45.75156,
          "name": "F#3",
          "midi": 54,
          "duration": 1.119675,
          "velocity": 0.866142
        },
        {
          "time": 45.754502,
          "name": "F#3",
          "midi": 54,
          "duration": 0.352941,
          "velocity": 0.88189
        },
        {
          "time": 46.107443,
          "name": "F#3",
          "midi": 54,
          "duration": 0.357505,
          "velocity": 0.88189
        },
        {
          "time": 46.464947,
          "name": "F#3",
          "midi": 54,
          "duration": 0.409229,
          "velocity": 0.88189
        },
        {
          "time": 46.871235,
          "name": "F#4",
          "midi": 66,
          "duration": 1.119675,
          "velocity": 0.866142
        },
        {
          "time": 46.871235,
          "name": "D#4",
          "midi": 63,
          "duration": 1.119675,
          "velocity": 0.866142
        },
        {
          "time": 46.874177,
          "name": "B2",
          "midi": 47,
          "duration": 0.352941,
          "velocity": 0.88189
        },
        {
          "time": 47.227118,
          "name": "B3",
          "midi": 59,
          "duration": 0.357505,
          "velocity": 0.88189
        },
        {
          "time": 47.584622,
          "name": "B3",
          "midi": 59,
          "duration": 0.409229,
          "velocity": 0.88189
        },
        {
          "time": 47.99091,
          "name": "A4",
          "midi": 69,
          "duration": 0.352941,
          "velocity": 0.866142
        },
        {
          "time": 47.99091,
          "name": "B3",
          "midi": 59,
          "duration": 1.119675,
          "velocity": 0.866142
        },
        {
          "time": 47.993852,
          "name": "E3",
          "midi": 52,
          "duration": 0.352941,
          "velocity": 0.88189
        },
        {
          "time": 48.343851,
          "name": "G#4",
          "midi": 68,
          "duration": 0.766734,
          "velocity": 0.866142
        },
        {
          "time": 48.346793,
          "name": "B3",
          "midi": 59,
          "duration": 0.357505,
          "velocity": 0.88189
        },
        {
          "time": 48.704297,
          "name": "B3",
          "midi": 59,
          "duration": 0.409229,
          "velocity": 0.88189
        },
        {
          "time": 49.110585,
          "name": "E4",
          "midi": 64,
          "duration": 1.169697,
          "velocity": 0.866142
        },
        {
          "time": 49.110585,
          "name": "C#4",
          "midi": 61,
          "duration": 1.169697,
          "velocity": 0.866142
        },
        {
          "time": 49.113527,
          "name": "A2",
          "midi": 45,
          "duration": 0.352941,
          "velocity": 0.88189
        },
        {
          "time": 49.466468,
          "name": "A3",
          "midi": 57,
          "duration": 0.361086,
          "velocity": 0.88189
        },
        {
          "time": 49.827553,
          "name": "A3",
          "midi": 57,
          "duration": 0.455955,
          "velocity": 0.88189
        },
        {
          "time": 50.280282,
          "name": "F#4",
          "midi": 66,
          "duration": 0.387097,
          "velocity": 0.866142
        },
        {
          "time": 50.280282,
          "name": "D4",
          "midi": 62,
          "duration": 0.387097,
          "velocity": 0.866142
        },
        {
          "time": 50.283508,
          "name": "A3",
          "midi": 57,
          "duration": 0.387097,
          "velocity": 0.88189
        },
        {
          "time": 50.283508,
          "name": "D3",
          "midi": 50,
          "duration": 0.387097,
          "velocity": 0.88189
        },
        {
          "time": 51.465992,
          "name": "A3",
          "midi": 57,
          "duration": 2.23935,
          "velocity": 0.866142
        },
        {
          "time": 51.465992,
          "name": "F#3",
          "midi": 54,
          "duration": 2.23935,
          "velocity": 0.866142
        },
        {
          "time": 51.468934,
          "name": "D3",
          "midi": 50,
          "duration": 0.352941,
          "velocity": 0.88189
        },
        {
          "time": 52.588609,
          "name": "A2",
          "midi": 45,
          "duration": 0.352941,
          "velocity": 0.88189
        },
        {
          "time": 53.705342,
          "name": "F#3",
          "midi": 54,
          "duration": 2.23935,
          "velocity": 0.866142
        },
        {
          "time": 53.705342,
          "name": "A3",
          "midi": 57,
          "duration": 2.23935,
          "velocity": 0.866142
        },
        {
          "time": 53.708284,
          "name": "D3",
          "midi": 50,
          "duration": 0.352941,
          "velocity": 0.88189
        },
        {
          "time": 54.827959,
          "name": "A2",
          "midi": 45,
          "duration": 0.352941,
          "velocity": 0.88189
        },
        {
          "time": 55.944692,
          "name": "F#3",
          "midi": 54,
          "duration": 2.23935,
          "velocity": 0.866142
        },
        {
          "time": 55.944692,
          "name": "A3",
          "midi": 57,
          "duration": 1.119675,
          "velocity": 0.866142
        },
        {
          "time": 55.947634,
          "name": "D3",
          "midi": 50,
          "duration": 0.352941,
          "velocity": 0.88189
        },
        {
          "time": 57.064367,
          "name": "A#3",
          "midi": 58,
          "duration": 1.119675,
          "velocity": 0.866142
        },
        {
          "time": 57.067309,
          "name": "D3",
          "midi": 50,
          "duration": 0.352941,
          "velocity": 0.88189
        },
        {
          "time": 58.184042,
          "name": "G3",
          "midi": 55,
          "duration": 0.709939,
          "velocity": 0.866142
        },
        {
          "time": 58.184042,
          "name": "B3",
          "midi": 59,
          "duration": 1.119675,
          "velocity": 0.866142
        },
        {
          "time": 58.186984,
          "name": "G3",
          "midi": 55,
          "duration": 0.352941,
          "velocity": 0.88189
        },
        {
          "time": 58.893981,
          "name": "A3",
          "midi": 57,
          "duration": 0.409736,
          "velocity": 0.866142
        },
        {
          "time": 58.897429,
          "name": "F#3",
          "midi": 54,
          "duration": 0.409229,
          "velocity": 0.88189
        },
        {
          "time": 59.303717,
          "name": "G3",
          "midi": 55,
          "duration": 1.119675,
          "velocity": 0.866142
        },
        {
          "time": 59.303717,
          "name": "B3",
          "midi": 59,
          "duration": 1.119675,
          "velocity": 0.866142
        },
        {
          "time": 59.306659,
          "name": "E3",
          "midi": 52,
          "duration": 0.352941,
          "velocity": 0.88189
        },
        {
          "time": 60.423392,
          "name": "G3",
          "midi": 55,
          "duration": 1.119675,
          "velocity": 0.866142
        },
        {
          "time": 60.423392,
          "name": "E4",
          "midi": 64,
          "duration": 1.119675,
          "velocity": 0.866142
        },
        {
          "time": 60.426334,
          "name": "G3",
          "midi": 55,
          "duration": 0.352941,
          "velocity": 0.88189
        },
        {
          "time": 60.779275,
          "name": "G3",
          "midi": 55,
          "duration": 0.357505,
          "velocity": 0.88189
        },
        {
          "time": 61.136779,
          "name": "G3",
          "midi": 55,
          "duration": 0.409229,
          "velocity": 0.88189
        },
        {
          "time": 61.543067,
          "name": "G#3",
          "midi": 56,
          "duration": 1.119675,
          "velocity": 0.866142
        },
        {
          "time": 61.543067,
          "name": "F4",
          "midi": 65,
          "duration": 1.119675,
          "velocity": 0.866142
        },
        {
          "time": 61.546009,
          "name": "G#3",
          "midi": 56,
          "duration": 0.352941,
          "velocity": 0.88189
        },
        {
          "time": 61.89895,
          "name": "G#3",
          "midi": 56,
          "duration": 0.357505,
          "velocity": 0.88189
        },
        {
          "time": 62.256454,
          "name": "G#3",
          "midi": 56,
          "duration": 0.409229,
          "velocity": 0.88189
        },
        {
          "time": 62.662742,
          "name": "A3",
          "midi": 57,
          "duration": 2.23935,
          "velocity": 0.866142
        },
        {
          "time": 62.662742,
          "name": "F#4",
          "midi": 66,
          "duration": 2.23935,
          "velocity": 0.866142
        },
        {
          "time": 62.665684,
          "name": "A3",
          "midi": 57,
          "duration": 0.352941,
          "velocity": 0.88189
        },
        {
          "time": 63.018625,
          "name": "A3",
          "midi": 57,
          "duration": 0.357505,
          "velocity": 0.88189
        },
        {
          "time": 63.376129,
          "name": "A3",
          "midi": 57,
          "duration": 0.409229,
          "velocity": 0.88189
        },
        {
          "time": 63.785359,
          "name": "A3",
          "midi": 57,
          "duration": 0.352941,
          "velocity": 0.88189
        },
        {
          "time": 64.1383,
          "name": "A3",
          "midi": 57,
          "duration": 0.357505,
          "velocity": 0.88189
        },
        {
          "time": 64.495804,
          "name": "A3",
          "midi": 57,
          "duration": 0.409229,
          "velocity": 0.88189
        },
        {
          "time": 64.902092,
          "name": "A3",
          "midi": 57,
          "duration": 2.23935,
          "velocity": 0.866142
        },
        {
          "time": 64.902092,
          "name": "G4",
          "midi": 67,
          "duration": 2.23935,
          "velocity": 0.866142
        },
        {
          "time": 64.905034,
          "name": "A3",
          "midi": 57,
          "duration": 0.352941,
          "velocity": 0.88189
        },
        {
          "time": 65.257975,
          "name": "A3",
          "midi": 57,
          "duration": 0.357505,
          "velocity": 0.88189
        },
        {
          "time": 65.615479,
          "name": "A3",
          "midi": 57,
          "duration": 0.409229,
          "velocity": 0.88189
        },
        {
          "time": 66.024709,
          "name": "A3",
          "midi": 57,
          "duration": 0.352941,
          "velocity": 0.88189
        },
        {
          "time": 66.37765,
          "name": "A3",
          "midi": 57,
          "duration": 0.357505,
          "velocity": 0.88189
        },
        {
          "time": 66.735154,
          "name": "A3",
          "midi": 57,
          "duration": 0.409229,
          "velocity": 0.88189
        },
        {
          "time": 67.141442,
          "name": "B3",
          "midi": 59,
          "duration": 1.121146,
          "velocity": 0.866142
        },
        {
          "time": 67.141442,
          "name": "D4",
          "midi": 62,
          "duration": 1.121146,
          "velocity": 0.866142
        },
        {
          "time": 67.144384,
          "name": "A3",
          "midi": 57,
          "duration": 1.121329,
          "velocity": 0.88189
        },
        {
          "time": 68.262588,
          "name": "C4",
          "midi": 60,
          "duration": 0.795994,
          "velocity": 0.866142
        },
        {
          "time": 68.262588,
          "name": "D#4",
          "midi": 63,
          "duration": 0.795994,
          "velocity": 0.866142
        },
        {
          "time": 68.265713,
          "name": "A3",
          "midi": 57,
          "duration": 1.251763,
          "velocity": 0.88189
        },
        {
          "time": 69.058582,
          "name": "E4",
          "midi": 64,
          "duration": 0.455769,
          "velocity": 0.866142
        },
        {
          "time": 69.058582,
          "name": "C#4",
          "midi": 61,
          "duration": 0.455769,
          "velocity": 0.866142
        },
        {
          "time": 69.514351,
          "name": "A3",
          "midi": 57,
          "duration": 2.281997,
          "velocity": 0.866142
        },
        {
          "time": 69.514351,
          "name": "F#3",
          "midi": 54,
          "duration": 2.281997,
          "velocity": 0.866142
        },
        {
          "time": 69.517476,
          "name": "D3",
          "midi": 50,
          "duration": 0.375,
          "velocity": 0.88189
        },
        {
          "time": 70.679615,
          "name": "A2",
          "midi": 45,
          "duration": 0.352941,
          "velocity": 0.88189
        },
        {
          "time": 71.796348,
          "name": "F#3",
          "midi": 54,
          "duration": 2.23935,
          "velocity": 0.866142
        },
        {
          "time": 71.796348,
          "name": "A3",
          "midi": 57,
          "duration": 2.23935,
          "velocity": 0.866142
        },
        {
          "time": 71.79929,
          "name": "D3",
          "midi": 50,
          "duration": 0.352941,
          "velocity": 0.88189
        },
        {
          "time": 72.918965,
          "name": "A2",
          "midi": 45,
          "duration": 0.352941,
          "velocity": 0.88189
        },
        {
          "time": 74.035698,
          "name": "A3",
          "midi": 57,
          "duration": 1.119675,
          "velocity": 0.866142
        },
        {
          "time": 74.035698,
          "name": "F#3",
          "midi": 54,
          "duration": 2.23935,
          "velocity": 0.866142
        },
        {
          "time": 74.03864,
          "name": "D3",
          "midi": 50,
          "duration": 0.352941,
          "velocity": 0.88189
        },
        {
          "time": 75.155373,
          "name": "A#3",
          "midi": 58,
          "duration": 1.119675,
          "velocity": 0.866142
        },
        {
          "time": 75.158315,
          "name": "D3",
          "midi": 50,
          "duration": 0.352941,
          "velocity": 0.88189
        },
        {
          "time": 76.275048,
          "name": "G3",
          "midi": 55,
          "duration": 0.709939,
          "velocity": 0.866142
        },
        {
          "time": 76.275048,
          "name": "B3",
          "midi": 59,
          "duration": 2.23935,
          "velocity": 0.866142
        },
        {
          "time": 76.27799,
          "name": "G3",
          "midi": 55,
          "duration": 0.352941,
          "velocity": 0.88189
        },
        {
          "time": 76.984987,
          "name": "A3",
          "midi": 57,
          "duration": 0.409736,
          "velocity": 0.866142
        },
        {
          "time": 76.988435,
          "name": "F#3",
          "midi": 54,
          "duration": 0.409229,
          "velocity": 0.88189
        },
        {
          "time": 77.394723,
          "name": "G3",
          "midi": 55,
          "duration": 1.119675,
          "velocity": 0.866142
        },
        {
          "time": 77.397665,
          "name": "E3",
          "midi": 52,
          "duration": 0.352941,
          "velocity": 0.88189
        },
        {
          "time": 78.514398,
          "name": "E4",
          "midi": 64,
          "duration": 1.119675,
          "velocity": 0.866142
        },
        {
          "time": 78.514398,
          "name": "G3",
          "midi": 55,
          "duration": 2.23935,
          "velocity": 0.866142
        },
        {
          "time": 78.51734,
          "name": "G3",
          "midi": 55,
          "duration": 0.352941,
          "velocity": 0.88189
        },
        {
          "time": 78.870281,
          "name": "G3",
          "midi": 55,
          "duration": 0.357505,
          "velocity": 0.88189
        },
        {
          "time": 79.227785,
          "name": "G3",
          "midi": 55,
          "duration": 0.409229,
          "velocity": 0.88189
        },
        {
          "time": 79.634073,
          "name": "F4",
          "midi": 65,
          "duration": 1.119675,
          "velocity": 0.866142
        },
        {
          "time": 79.637015,
          "name": "G3",
          "midi": 55,
          "duration": 0.352941,
          "velocity": 0.88189
        },
        {
          "time": 79.989956,
          "name": "G3",
          "midi": 55,
          "duration": 0.357505,
          "velocity": 0.88189
        },
        {
          "time": 80.34746,
          "name": "G3",
          "midi": 55,
          "duration": 0.409229,
          "velocity": 0.88189
        },
        {
          "time": 80.753748,
          "name": "F4",
          "midi": 65,
          "duration": 1.119675,
          "velocity": 0.866142
        },
        {
          "time": 80.753748,
          "name": "G3",
          "midi": 55,
          "duration": 1.119675,
          "velocity": 0.866142
        },
        {
          "time": 80.75669,
          "name": "G3",
          "midi": 55,
          "duration": 0.352941,
          "velocity": 0.88189
        },
        {
          "time": 81.109631,
          "name": "G3",
          "midi": 55,
          "duration": 0.357505,
          "velocity": 0.88189
        },
        {
          "time": 81.467135,
          "name": "G3",
          "midi": 55,
          "duration": 0.409229,
          "velocity": 0.88189
        },
        {
          "time": 81.873423,
          "name": "F#4",
          "midi": 66,
          "duration": 1.119675,
          "velocity": 0.866142
        },
        {
          "time": 81.873423,
          "name": "F#3",
          "midi": 54,
          "duration": 1.119675,
          "velocity": 0.866142
        },
        {
          "time": 81.876365,
          "name": "F#3",
          "midi": 54,
          "duration": 0.352941,
          "velocity": 0.88189
        },
        {
          "time": 82.229306,
          "name": "F#3",
          "midi": 54,
          "duration": 0.357505,
          "velocity": 0.88189
        },
        {
          "time": 82.58681,
          "name": "F#3",
          "midi": 54,
          "duration": 0.409229,
          "velocity": 0.88189
        },
        {
          "time": 82.993098,
          "name": "F#4",
          "midi": 66,
          "duration": 1.119675,
          "velocity": 0.866142
        },
        {
          "time": 82.993098,
          "name": "D#4",
          "midi": 63,
          "duration": 1.119675,
          "velocity": 0.866142
        },
        {
          "time": 82.99604,
          "name": "B2",
          "midi": 47,
          "duration": 0.352941,
          "velocity": 0.88189
        },
        {
          "time": 83.348981,
          "name": "B3",
          "midi": 59,
          "duration": 0.357505,
          "velocity": 0.88189
        },
        {
          "time": 83.706485,
          "name": "B3",
          "midi": 59,
          "duration": 0.409229,
          "velocity": 0.88189
        },
        {
          "time": 84.112773,
          "name": "A4",
          "midi": 69,
          "duration": 0.352941,
          "velocity": 0.866142
        },
        {
          "time": 84.112773,
          "name": "B3",
          "midi": 59,
          "duration": 1.119675,
          "velocity": 0.866142
        },
        {
          "time": 84.115715,
          "name": "E3",
          "midi": 52,
          "duration": 0.352941,
          "velocity": 0.88189
        },
        {
          "time": 84.465714,
          "name": "G#4",
          "midi": 68,
          "duration": 0.766734,
          "velocity": 0.866142
        },
        {
          "time": 84.468656,
          "name": "B3",
          "midi": 59,
          "duration": 0.357505,
          "velocity": 0.88189
        },
        {
          "time": 84.82616,
          "name": "B3",
          "midi": 59,
          "duration": 0.409229,
          "velocity": 0.88189
        },
        {
          "time": 85.232448,
          "name": "E4",
          "midi": 64,
          "duration": 1.16742,
          "velocity": 0.866142
        },
        {
          "time": 85.232448,
          "name": "C#4",
          "midi": 61,
          "duration": 1.16742,
          "velocity": 0.866142
        },
        {
          "time": 85.23539,
          "name": "A2",
          "midi": 45,
          "duration": 0.352941,
          "velocity": 0.88189
        },
        {
          "time": 85.588331,
          "name": "A3",
          "midi": 57,
          "duration": 0.361086,
          "velocity": 0.88189
        },
        {
          "time": 85.949416,
          "name": "A3",
          "midi": 57,
          "duration": 0.453393,
          "velocity": 0.88189
        },
        {
          "time": 86.399868,
          "name": "F#4",
          "midi": 66,
          "duration": 0.352941,
          "velocity": 0.866142
        },
        {
          "time": 86.399868,
          "name": "D4",
          "midi": 62,
          "duration": 0.352941,
          "velocity": 0.866142
        },
        {
          "time": 86.40281,
          "name": "A3",
          "midi": 57,
          "duration": 0.352941,
          "velocity": 0.88189
        },
        {
          "time": 86.40281,
          "name": "D3",
          "midi": 50,
          "duration": 0.352941,
          "velocity": 0.88189
        },
        {
          "time": 87.479443,
          "name": "A2",
          "midi": 45,
          "duration": 0.67025,
          "velocity": 0.866142
        },
        {
          "time": 87.482221,
          "name": "A2",
          "midi": 45,
          "duration": 0.670698,
          "velocity": 0.88189
        },
        {
          "time": 88.149693,
          "name": "A#2",
          "midi": 46,
          "duration": 0.716846,
          "velocity": 0.866142
        },
        {
          "time": 88.152919,
          "name": "A#2",
          "midi": 46,
          "duration": 0.716398,
          "velocity": 0.88189
        },
        {
          "time": 88.866539,
          "name": "B2",
          "midi": 47,
          "duration": 0.72043,
          "velocity": 0.866142
        },
        {
          "time": 88.869317,
          "name": "B2",
          "midi": 47,
          "duration": 0.72043,
          "velocity": 0.88189
        },
        {
          "time": 89.586969,
          "name": "C3",
          "midi": 48,
          "duration": 0.67025,
          "velocity": 0.866142
        },
        {
          "time": 89.589747,
          "name": "C3",
          "midi": 48,
          "duration": 0.670698,
          "velocity": 0.88189
        },
        {
          "time": 90.257219,
          "name": "C#3",
          "midi": 49,
          "duration": 0.716846,
          "velocity": 0.866142
        },
        {
          "time": 90.260445,
          "name": "C#3",
          "midi": 49,
          "duration": 0.716398,
          "velocity": 0.88189
        },
        {
          "time": 90.974065,
          "name": "D3",
          "midi": 50,
          "duration": 0.748433,
          "velocity": 0.866142
        },
        {
          "time": 90.976843,
          "name": "D3",
          "midi": 50,
          "duration": 0.748597,
          "velocity": 0.88189
        },
        {
          "time": 91.722498,
          "name": "C#3",
          "midi": 49,
          "duration": 1.091672,
          "velocity": 0.866142
        },
        {
          "time": 91.72544,
          "name": "C#3",
          "midi": 49,
          "duration": 0.352941,
          "velocity": 0.88189
        },
        {
          "time": 92.81417,
          "name": "B2",
          "midi": 47,
          "duration": 1.053763,
          "velocity": 0.866142
        },
        {
          "time": 92.816948,
          "name": "B2",
          "midi": 47,
          "duration": 0.333333,
          "velocity": 0.88189
        },
        {
          "time": 93.867933,
          "name": "A#2",
          "midi": 46,
          "duration": 1.053763,
          "velocity": 0.866142
        },
        {
          "time": 93.870711,
          "name": "A#2",
          "midi": 46,
          "duration": 0.333333,
          "velocity": 0.88189
        },
        {
          "time": 94.921696,
          "name": "A2",
          "midi": 45,
          "duration": 1.053763,
          "velocity": 0.866142
        },
        {
          "time": 94.924474,
          "name": "A2",
          "midi": 45,
          "duration": 0.333333,
          "velocity": 0.88189
        },
        {
          "time": 95.975459,
          "name": "A2",
          "midi": 45,
          "duration": 0.67025,
          "velocity": 0.866142
        },
        {
          "time": 95.978237,
          "name": "A2",
          "midi": 45,
          "duration": 0.670698,
          "velocity": 0.88189
        },
        {
          "time": 96.645709,
          "name": "A#2",
          "midi": 46,
          "duration": 0.716846,
          "velocity": 0.866142
        },
        {
          "time": 96.648935,
          "name": "A#2",
          "midi": 46,
          "duration": 0.716398,
          "velocity": 0.88189
        },
        {
          "time": 97.362555,
          "name": "B2",
          "midi": 47,
          "duration": 0.72043,
          "velocity": 0.866142
        },
        {
          "time": 97.365333,
          "name": "B2",
          "midi": 47,
          "duration": 0.72043,
          "velocity": 0.88189
        },
        {
          "time": 98.082985,
          "name": "C3",
          "midi": 48,
          "duration": 0.67025,
          "velocity": 0.866142
        },
        {
          "time": 98.085763,
          "name": "C3",
          "midi": 48,
          "duration": 0.670698,
          "velocity": 0.88189
        },
        {
          "time": 98.753235,
          "name": "C#3",
          "midi": 49,
          "duration": 0.716846,
          "velocity": 0.866142
        },
        {
          "time": 98.756461,
          "name": "C#3",
          "midi": 49,
          "duration": 0.716398,
          "velocity": 0.88189
        },
        {
          "time": 99.470081,
          "name": "D3",
          "midi": 50,
          "duration": 0.748433,
          "velocity": 0.866142
        },
        {
          "time": 99.472859,
          "name": "D3",
          "midi": 50,
          "duration": 0.748597,
          "velocity": 0.88189
        },
        {
          "time": 100.218514,
          "name": "C#3",
          "midi": 49,
          "duration": 1.091672,
          "velocity": 0.866142
        },
        {
          "time": 100.221456,
          "name": "C#3",
          "midi": 49,
          "duration": 0.352941,
          "velocity": 0.88189
        },
        {
          "time": 101.310186,
          "name": "B2",
          "midi": 47,
          "duration": 1.053763,
          "velocity": 0.866142
        },
        {
          "time": 101.312964,
          "name": "B2",
          "midi": 47,
          "duration": 0.333333,
          "velocity": 0.88189
        },
        {
          "time": 102.363949,
          "name": "E2",
          "midi": 40,
          "duration": 1.053763,
          "velocity": 0.866142
        },
        {
          "time": 102.363949,
          "name": "E3",
          "midi": 52,
          "duration": 1.053763,
          "velocity": 0.866142
        },
        {
          "time": 102.366727,
          "name": "E3",
          "midi": 52,
          "duration": 0.333333,
          "velocity": 0.88189
        },
        {
          "time": 103.417712,
          "name": "A2",
          "midi": 45,
          "duration": 0.333333,
          "velocity": 0.866142
        },
        {
          "time": 103.42049,
          "name": "A2",
          "midi": 45,
          "duration": 0.333333,
          "velocity": 0.88189
        },
        {
          "time": 104.471475,
          "name": "A2",
          "midi": 45,
          "duration": 0.67025,
          "velocity": 0.866142
        },
        {
          "time": 104.474253,
          "name": "A2",
          "midi": 45,
          "duration": 0.670698,
          "velocity": 0.88189
        },
        {
          "time": 105.141725,
          "name": "A#2",
          "midi": 46,
          "duration": 0.716846,
          "velocity": 0.866142
        },
        {
          "time": 105.144951,
          "name": "A#2",
          "midi": 46,
          "duration": 0.716398,
          "velocity": 0.88189
        },
        {
          "time": 105.858571,
          "name": "B2",
          "midi": 47,
          "duration": 0.72043,
          "velocity": 0.866142
        },
        {
          "time": 105.861349,
          "name": "B2",
          "midi": 47,
          "duration": 0.72043,
          "velocity": 0.88189
        },
        {
          "time": 106.579001,
          "name": "C3",
          "midi": 48,
          "duration": 0.67025,
          "velocity": 0.866142
        },
        {
          "time": 106.581779,
          "name": "C3",
          "midi": 48,
          "duration": 0.670698,
          "velocity": 0.88189
        },
        {
          "time": 107.249251,
          "name": "C#3",
          "midi": 49,
          "duration": 0.716846,
          "velocity": 0.866142
        },
        {
          "time": 107.252477,
          "name": "C#3",
          "midi": 49,
          "duration": 0.716398,
          "velocity": 0.88189
        },
        {
          "time": 107.966097,
          "name": "D3",
          "midi": 50,
          "duration": 0.748433,
          "velocity": 0.866142
        },
        {
          "time": 107.968875,
          "name": "D3",
          "midi": 50,
          "duration": 0.748597,
          "velocity": 0.88189
        },
        {
          "time": 108.71453,
          "name": "C#3",
          "midi": 49,
          "duration": 1.091672,
          "velocity": 0.866142
        },
        {
          "time": 108.717472,
          "name": "C#3",
          "midi": 49,
          "duration": 0.352941,
          "velocity": 0.88189
        },
        {
          "time": 109.806202,
          "name": "B2",
          "midi": 47,
          "duration": 1.053763,
          "velocity": 0.866142
        },
        {
          "time": 109.80898,
          "name": "B2",
          "midi": 47,
          "duration": 0.333333,
          "velocity": 0.88189
        },
        {
          "time": 110.859965,
          "name": "A#2",
          "midi": 46,
          "duration": 1.053763,
          "velocity": 0.866142
        },
        {
          "time": 110.862743,
          "name": "A#2",
          "midi": 46,
          "duration": 0.333333,
          "velocity": 0.88189
        },
        {
          "time": 111.913728,
          "name": "A2",
          "midi": 45,
          "duration": 1.053763,
          "velocity": 0.866142
        },
        {
          "time": 111.916506,
          "name": "A2",
          "midi": 45,
          "duration": 0.333333,
          "velocity": 0.88189
        },
        {
          "time": 112.967491,
          "name": "A2",
          "midi": 45,
          "duration": 0.67025,
          "velocity": 0.866142
        },
        {
          "time": 112.970269,
          "name": "A2",
          "midi": 45,
          "duration": 0.670698,
          "velocity": 0.88189
        },
        {
          "time": 113.637741,
          "name": "A#2",
          "midi": 46,
          "duration": 0.716846,
          "velocity": 0.866142
        },
        {
          "time": 113.640967,
          "name": "A#2",
          "midi": 46,
          "duration": 0.716398,
          "velocity": 0.88189
        },
        {
          "time": 114.354587,
          "name": "B2",
          "midi": 47,
          "duration": 0.72043,
          "velocity": 0.866142
        },
        {
          "time": 114.357365,
          "name": "B2",
          "midi": 47,
          "duration": 0.72043,
          "velocity": 0.88189
        },
        {
          "time": 115.075017,
          "name": "C3",
          "midi": 48,
          "duration": 0.67025,
          "velocity": 0.866142
        },
        {
          "time": 115.077795,
          "name": "C3",
          "midi": 48,
          "duration": 0.670698,
          "velocity": 0.88189
        },
        {
          "time": 115.745267,
          "name": "C#3",
          "midi": 49,
          "duration": 0.716846,
          "velocity": 0.866142
        },
        {
          "time": 115.748493,
          "name": "C#3",
          "midi": 49,
          "duration": 0.716398,
          "velocity": 0.88189
        },
        {
          "time": 116.462113,
          "name": "D3",
          "midi": 50,
          "duration": 0.748433,
          "velocity": 0.866142
        },
        {
          "time": 116.464891,
          "name": "D3",
          "midi": 50,
          "duration": 0.748597,
          "velocity": 0.88189
        },
        {
          "time": 117.210546,
          "name": "C#3",
          "midi": 49,
          "duration": 1.091672,
          "velocity": 0.866142
        },
        {
          "time": 117.213488,
          "name": "C#3",
          "midi": 49,
          "duration": 0.352941,
          "velocity": 0.88189
        },
        {
          "time": 118.302218,
          "name": "B2",
          "midi": 47,
          "duration": 1.053763,
          "velocity": 0.866142
        },
        {
          "time": 118.304996,
          "name": "B2",
          "midi": 47,
          "duration": 0.333333,
          "velocity": 0.88189
        },
        {
          "time": 119.355981,
          "name": "E2",
          "midi": 40,
          "duration": 1.054398,
          "velocity": 0.866142
        },
        {
          "time": 119.355981,
          "name": "E3",
          "midi": 52,
          "duration": 1.054398,
          "velocity": 0.866142
        },
        {
          "time": 119.358759,
          "name": "E3",
          "midi": 52,
          "duration": 0.333333,
          "velocity": 0.88189
        },
        {
          "time": 120.410379,
          "name": "A2",
          "midi": 45,
          "duration": 0.171429,
          "velocity": 0.866142
        },
        {
          "time": 120.413236,
          "name": "A2",
          "midi": 45,
          "duration": 0.171429,
          "velocity": 0.88189
        },
        {
          "time": 121.483862,
          "name": "A3",
          "midi": 57,
          "duration": 4.4787,
          "velocity": 0.866142
        },
        {
          "time": 121.483862,
          "name": "F#3",
          "midi": 54,
          "duration": 4.4787,
          "velocity": 0.866142
        },
        {
          "time": 121.486804,
          "name": "D3",
          "midi": 50,
          "duration": 1.119675,
          "velocity": 0.88189
        },
        {
          "time": 122.606479,
          "name": "A2",
          "midi": 45,
          "duration": 1.119675,
          "velocity": 0.88189
        },
        {
          "time": 123.726154,
          "name": "D3",
          "midi": 50,
          "duration": 1.119675,
          "velocity": 0.88189
        },
        {
          "time": 124.845829,
          "name": "A2",
          "midi": 45,
          "duration": 1.119675,
          "velocity": 0.88189
        },
        {
          "time": 125.962562,
          "name": "A3",
          "midi": 57,
          "duration": 1.119675,
          "velocity": 0.866142
        },
        {
          "time": 125.962562,
          "name": "F#3",
          "midi": 54,
          "duration": 2.23935,
          "velocity": 0.866142
        },
        {
          "time": 125.965504,
          "name": "D3",
          "midi": 50,
          "duration": 2.23935,
          "velocity": 0.88189
        },
        {
          "time": 127.082237,
          "name": "A#3",
          "midi": 58,
          "duration": 1.119675,
          "velocity": 0.866142
        },
        {
          "time": 128.201912,
          "name": "G3",
          "midi": 55,
          "duration": 0.709939,
          "velocity": 0.866142
        },
        {
          "time": 128.201912,
          "name": "B3",
          "midi": 59,
          "duration": 2.23935,
          "velocity": 0.866142
        },
        {
          "time": 128.204854,
          "name": "G3",
          "midi": 55,
          "duration": 0.710446,
          "velocity": 0.88189
        },
        {
          "time": 128.911851,
          "name": "F#3",
          "midi": 54,
          "duration": 0.409736,
          "velocity": 0.866142
        },
        {
          "time": 128.915299,
          "name": "F#3",
          "midi": 54,
          "duration": 0.409229,
          "velocity": 0.88189
        },
        {
          "time": 129.321587,
          "name": "E3",
          "midi": 52,
          "duration": 1.119675,
          "velocity": 0.866142
        },
        {
          "time": 129.324529,
          "name": "E3",
          "midi": 52,
          "duration": 1.119675,
          "velocity": 0.88189
        },
        {
          "time": 130.441262,
          "name": "G2",
          "midi": 43,
          "duration": 1.119675,
          "velocity": 0.866142
        },
        {
          "time": 130.444204,
          "name": "G3",
          "midi": 55,
          "duration": 0.352941,
          "velocity": 0.88189
        },
        {
          "time": 131.560937,
          "name": "G#2",
          "midi": 44,
          "duration": 1.119675,
          "velocity": 0.866142
        },
        {
          "time": 131.563879,
          "name": "G#3",
          "midi": 56,
          "duration": 0.352941,
          "velocity": 0.88189
        },
        {
          "time": 132.680612,
          "name": "A2",
          "midi": 45,
          "duration": 2.23935,
          "velocity": 0.866142
        },
        {
          "time": 132.683554,
          "name": "A3",
          "midi": 57,
          "duration": 0.352941,
          "velocity": 0.88189
        },
        {
          "time": 133.803229,
          "name": "A3",
          "midi": 57,
          "duration": 0.352941,
          "velocity": 0.88189
        },
        {
          "time": 134.919962,
          "name": "A2",
          "midi": 45,
          "duration": 2.23935,
          "velocity": 0.866142
        },
        {
          "time": 134.922904,
          "name": "A3",
          "midi": 57,
          "duration": 0.352941,
          "velocity": 0.88189
        },
        {
          "time": 136.042579,
          "name": "A3",
          "midi": 57,
          "duration": 0.352941,
          "velocity": 0.88189
        },
        {
          "time": 137.159312,
          "name": "A2",
          "midi": 45,
          "duration": 2.314392,
          "velocity": 0.866142
        },
        {
          "time": 137.162254,
          "name": "A3",
          "midi": 57,
          "duration": 2.314575,
          "velocity": 0.88189
        },
        {
          "time": 139.473704,
          "name": "A3",
          "midi": 57,
          "duration": 4.521347,
          "velocity": 0.866142
        },
        {
          "time": 139.473704,
          "name": "F#3",
          "midi": 54,
          "duration": 4.521347,
          "velocity": 0.866142
        },
        {
          "time": 139.476829,
          "name": "D3",
          "midi": 50,
          "duration": 1.162139,
          "velocity": 0.88189
        },
        {
          "time": 140.638968,
          "name": "A2",
          "midi": 45,
          "duration": 1.119675,
          "velocity": 0.88189
        },
        {
          "time": 141.758643,
          "name": "D3",
          "midi": 50,
          "duration": 1.119675,
          "velocity": 0.88189
        },
        {
          "time": 142.878318,
          "name": "A2",
          "midi": 45,
          "duration": 1.119675,
          "velocity": 0.88189
        },
        {
          "time": 143.995051,
          "name": "A3",
          "midi": 57,
          "duration": 1.119675,
          "velocity": 0.866142
        },
        {
          "time": 143.995051,
          "name": "F#3",
          "midi": 54,
          "duration": 2.23935,
          "velocity": 0.866142
        },
        {
          "time": 143.997993,
          "name": "D3",
          "midi": 50,
          "duration": 2.23935,
          "velocity": 0.88189
        },
        {
          "time": 145.114726,
          "name": "A#3",
          "midi": 58,
          "duration": 1.119675,
          "velocity": 0.866142
        },
        {
          "time": 146.234401,
          "name": "G3",
          "midi": 55,
          "duration": 0.709939,
          "velocity": 0.866142
        },
        {
          "time": 146.234401,
          "name": "B3",
          "midi": 59,
          "duration": 2.239917,
          "velocity": 0.866142
        },
        {
          "time": 146.237343,
          "name": "G3",
          "midi": 55,
          "duration": 0.710446,
          "velocity": 0.88189
        },
        {
          "time": 146.94434,
          "name": "F#3",
          "midi": 54,
          "duration": 0.409736,
          "velocity": 0.866142
        },
        {
          "time": 146.947788,
          "name": "F#3",
          "midi": 54,
          "duration": 0.409229,
          "velocity": 0.88189
        },
        {
          "time": 147.354076,
          "name": "E3",
          "midi": 52,
          "duration": 1.120242,
          "velocity": 0.866142
        },
        {
          "time": 147.357018,
          "name": "E3",
          "midi": 52,
          "duration": 1.120313,
          "velocity": 0.88189
        },
        {
          "time": 148.474318,
          "name": "G2",
          "midi": 43,
          "duration": 1.136118,
          "velocity": 0.866142
        },
        {
          "time": 148.47733,
          "name": "G3",
          "midi": 55,
          "duration": 0.361446,
          "velocity": 0.88189
        },
        {
          "time": 149.610436,
          "name": "G#2",
          "midi": 44,
          "duration": 1.119675,
          "velocity": 0.866142
        },
        {
          "time": 149.613378,
          "name": "G#3",
          "midi": 56,
          "duration": 0.352941,
          "velocity": 0.88189
        },
        {
          "time": 150.730111,
          "name": "G#2",
          "midi": 44,
          "duration": 1.119675,
          "velocity": 0.866142
        },
        {
          "time": 150.733053,
          "name": "G#3",
          "midi": 56,
          "duration": 0.352941,
          "velocity": 0.88189
        },
        {
          "time": 151.849786,
          "name": "F#2",
          "midi": 42,
          "duration": 1.119675,
          "velocity": 0.866142
        },
        {
          "time": 151.852728,
          "name": "F#3",
          "midi": 54,
          "duration": 0.352941,
          "velocity": 0.88189
        },
        {
          "time": 152.969461,
          "name": "F#2",
          "midi": 42,
          "duration": 1.119675,
          "velocity": 0.866142
        },
        {
          "time": 152.972403,
          "name": "F#3",
          "midi": 54,
          "duration": 0.352941,
          "velocity": 0.88189
        },
        {
          "time": 154.089136,
          "name": "E2",
          "midi": 40,
          "duration": 1.150966,
          "velocity": 0.866142
        },
        {
          "time": 154.092078,
          "name": "E3",
          "midi": 52,
          "duration": 0.352941,
          "velocity": 0.88189
        },
        {
          "time": 155.243123,
          "name": "A2",
          "midi": 45,
          "duration": 7.433232,
          "velocity": 0.88189
        },
        {
          "time": 166.151247,
          "name": "A2",
          "midi": 45,
          "duration": 0.273973,
          "velocity": 0.866142
        },
        {
          "time": 166.15353,
          "name": "A3",
          "midi": 57,
          "duration": 0.273973,
          "velocity": 0.88189
        },
        {
          "time": 168.770928,
          "name": "A#2",
          "midi": 46,
          "duration": 1.190357,
          "velocity": 0.88189
        },
        {
          "time": 171.037263,
          "name": "B2",
          "midi": 47,
          "duration": 1.123441,
          "velocity": 0.88189
        },
        {
          "time": 173.182462,
          "name": "C#3",
          "midi": 49,
          "duration": 1.072,
          "velocity": 0.88189
        },
        {
          "time": 175.221409,
          "name": "D3",
          "midi": 50,
          "duration": 1.041866,
          "velocity": 0.88189
        },
        {
          "time": 177.182446,
          "name": "D#3",
          "midi": 51,
          "duration": 1.036083,
          "velocity": 0.88189
        },
        {
          "time": 179.177451,
          "name": "E3",
          "midi": 52,
          "duration": 1.041117,
          "velocity": 0.88189
        },
        {
          "time": 181.133248,
          "name": "F3",
          "midi": 53,
          "duration": 0.978018,
          "velocity": 0.88189
        },
        {
          "time": 183.025946,
          "name": "F#3",
          "midi": 54,
          "duration": 0.978018,
          "velocity": 0.88189
        },
        {
          "time": 185.220685,
          "name": "D3",
          "midi": 50,
          "duration": 1.930022,
          "velocity": 0.88189
        },
        {
          "time": 187.150707,
          "name": "C#3",
          "midi": 49,
          "duration": 1.975713,
          "velocity": 0.88189
        },
        {
          "time": 189.12642,
          "name": "D3",
          "midi": 50,
          "duration": 1.930022,
          "velocity": 0.88189
        },
        {
          "time": 191.056442,
          "name": "C#3",
          "midi": 49,
          "duration": 1.988611,
          "velocity": 0.88189
        },
        {
          "time": 193.045053,
          "name": "F#3",
          "midi": 54,
          "duration": 1.912677,
          "velocity": 0.88189
        },
        {
          "time": 194.957731,
          "name": "G#3",
          "midi": 56,
          "duration": 1.939317,
          "velocity": 0.88189
        },
        {
          "time": 196.897047,
          "name": "G#3",
          "midi": 56,
          "duration": 0.978018,
          "velocity": 0.88189
        },
        {
          "time": 198.80088,
          "name": "C#3",
          "midi": 49,
          "duration": 1.041117,
          "velocity": 0.88189
        },
        {
          "time": 200.756677,
          "name": "A#2",
          "midi": 46,
          "duration": 0.978018,
          "velocity": 0.88189
        },
        {
          "time": 202.649375,
          "name": "B2",
          "midi": 47,
          "duration": 0.978018,
          "velocity": 0.88189
        },
        {
          "time": 204.562053,
          "name": "C#3",
          "midi": 49,
          "duration": 1.024637,
          "velocity": 0.88189
        },
        {
          "time": 206.50137,
          "name": "D3",
          "midi": 50,
          "duration": 0.978018,
          "velocity": 0.88189
        },
        {
          "time": 208.438718,
          "name": "D#3",
          "midi": 51,
          "duration": 1.152972,
          "velocity": 0.88189
        },
        {
          "time": 210.519138,
          "name": "E3",
          "midi": 52,
          "duration": 1.017743,
          "velocity": 0.88189
        },
        {
          "time": 212.718865,
          "name": "F3",
          "midi": 53,
          "duration": 2.045554,
          "velocity": 0.88189
        },
        {
          "time": 214.764419,
          "name": "F#3",
          "midi": 54,
          "duration": 1.892698,
          "velocity": 0.88189
        },
        {
          "time": 216.657117,
          "name": "D3",
          "midi": 50,
          "duration": 1.892698,
          "velocity": 0.88189
        },
        {
          "time": 218.549815,
          "name": "C#3",
          "midi": 49,
          "duration": 1.892698,
          "velocity": 0.88189
        },
        {
          "time": 220.442513,
          "name": "D3",
          "midi": 50,
          "duration": 1.892698,
          "velocity": 0.88189
        },
        {
          "time": 222.335211,
          "name": "C#3",
          "midi": 49,
          "duration": 1.915702,
          "velocity": 0.88189
        },
        {
          "time": 224.250913,
          "name": "F#3",
          "midi": 54,
          "duration": 1.989486,
          "velocity": 0.88189
        },
        {
          "time": 226.240399,
          "name": "G#3",
          "midi": 56,
          "duration": 1.92623,
          "velocity": 0.88189
        },
        {
          "time": 228.166629,
          "name": "G#3",
          "midi": 56,
          "duration": 0.978018,
          "velocity": 0.88189
        },
        {
          "time": 230.334724,
          "name": "C#3",
          "midi": 49,
          "duration": 0.978018,
          "velocity": 0.88189
        },
        {
          "time": 232.3725,
          "name": "C#2",
          "midi": 37,
          "duration": 15.213801,
          "velocity": 0.866142
        },
        {
          "time": 247.586301,
          "name": "G#3",
          "midi": 56,
          "duration": 0.550606,
          "velocity": 0.866142
        },
        {
          "time": 247.597171,
          "name": "C#3",
          "midi": 49,
          "duration": 1.948828,
          "velocity": 0.88189
        },
        {
          "time": 248.136907,
          "name": "C4",
          "midi": 60,
          "duration": 0.486836,
          "velocity": 0.866142
        },
        {
          "time": 248.623743,
          "name": "C#4",
          "midi": 61,
          "duration": 0.454545,
          "velocity": 0.866142
        },
        {
          "time": 249.078288,
          "name": "D#4",
          "midi": 63,
          "duration": 0.459513,
          "velocity": 0.866142
        },
        {
          "time": 249.537802,
          "name": "F#4",
          "midi": 66,
          "duration": 0.491804,
          "velocity": 0.866142
        },
        {
          "time": 249.545998,
          "name": "C#3",
          "midi": 49,
          "duration": 1.892698,
          "velocity": 0.88189
        },
        {
          "time": 250.029605,
          "name": "E4",
          "midi": 64,
          "duration": 0.486836,
          "velocity": 0.866142
        },
        {
          "time": 250.516441,
          "name": "D#4",
          "midi": 63,
          "duration": 0.454545,
          "velocity": 0.866142
        },
        {
          "time": 250.970986,
          "name": "C#4",
          "midi": 61,
          "duration": 0.459513,
          "velocity": 0.866142
        },
        {
          "time": 251.4305,
          "name": "E4",
          "midi": 64,
          "duration": 1.433185,
          "velocity": 0.866142
        },
        {
          "time": 251.438696,
          "name": "C#3",
          "midi": 49,
          "duration": 1.892698,
          "velocity": 0.88189
        },
        {
          "time": 252.863684,
          "name": "C4",
          "midi": 60,
          "duration": 0.459513,
          "velocity": 0.866142
        },
        {
          "time": 253.323198,
          "name": "D#4",
          "midi": 63,
          "duration": 1.433185,
          "velocity": 0.866142
        },
        {
          "time": 253.331394,
          "name": "C#3",
          "midi": 49,
          "duration": 1.887109,
          "velocity": 0.88189
        },
        {
          "time": 254.756382,
          "name": "C#4",
          "midi": 61,
          "duration": 0.454545,
          "velocity": 0.866142
        },
        {
          "time": 255.210928,
          "name": "G#3",
          "midi": 56,
          "duration": 0.454545,
          "velocity": 0.866142
        },
        {
          "time": 255.218504,
          "name": "C#3",
          "midi": 49,
          "duration": 1.967312,
          "velocity": 0.88189
        },
        {
          "time": 255.665473,
          "name": "C4",
          "midi": 60,
          "duration": 0.464115,
          "velocity": 0.866142
        },
        {
          "time": 256.129588,
          "name": "C#4",
          "midi": 61,
          "duration": 0.526316,
          "velocity": 0.866142
        },
        {
          "time": 256.655904,
          "name": "D#4",
          "midi": 63,
          "duration": 0.521714,
          "velocity": 0.866142
        },
        {
          "time": 257.177619,
          "name": "F#4",
          "midi": 66,
          "duration": 0.491804,
          "velocity": 0.866142
        },
        {
          "time": 257.185815,
          "name": "C#3",
          "midi": 49,
          "duration": 1.892698,
          "velocity": 0.88189
        },
        {
          "time": 257.669422,
          "name": "E4",
          "midi": 64,
          "duration": 0.486836,
          "velocity": 0.866142
        },
        {
          "time": 258.156258,
          "name": "F#4",
          "midi": 66,
          "duration": 0.075758,
          "velocity": 0.866142
        },
        {
          "time": 258.232015,
          "name": "E4",
          "midi": 64,
          "duration": 0.075758,
          "velocity": 0.866142
        },
        {
          "time": 258.307773,
          "name": "D#4",
          "midi": 63,
          "duration": 0.30303,
          "velocity": 0.866142
        },
        {
          "time": 258.610803,
          "name": "C#4",
          "midi": 61,
          "duration": 0.459513,
          "velocity": 0.866142
        },
        {
          "time": 259.070317,
          "name": "G#4",
          "midi": 68,
          "duration": 0.491804,
          "velocity": 0.866142
        },
        {
          "time": 259.078513,
          "name": "C#3",
          "midi": 49,
          "duration": 1.892698,
          "velocity": 0.88189
        },
        {
          "time": 259.56212,
          "name": "G#4",
          "midi": 68,
          "duration": 0.941381,
          "velocity": 0.866142
        },
        {
          "time": 260.503501,
          "name": "C4",
          "midi": 60,
          "duration": 0.459513,
          "velocity": 0.866142
        },
        {
          "time": 260.963015,
          "name": "C#4",
          "midi": 61,
          "duration": 0.978639,
          "velocity": 0.866142
        },
        {
          "time": 260.971211,
          "name": "C#3",
          "midi": 49,
          "duration": 0.978018,
          "velocity": 0.88189
        },
        {
          "time": 262.934764,
          "name": "B3",
          "midi": 59,
          "duration": 1.892698,
          "velocity": 0.866142
        },
        {
          "time": 262.934764,
          "name": "E3",
          "midi": 52,
          "duration": 1.892698,
          "velocity": 0.866142
        },
        {
          "time": 262.942961,
          "name": "D3",
          "midi": 50,
          "duration": 1.892698,
          "velocity": 0.88189
        },
        {
          "time": 264.827462,
          "name": "A3",
          "midi": 57,
          "duration": 0.978639,
          "velocity": 0.866142
        },
        {
          "time": 264.827462,
          "name": "E3",
          "midi": 52,
          "duration": 1.892698,
          "velocity": 0.866142
        },
        {
          "time": 264.835659,
          "name": "C#3",
          "midi": 49,
          "duration": 0.978018,
          "velocity": 0.88189
        },
        {
          "time": 265.806101,
          "name": "C#4",
          "midi": 61,
          "duration": 0.914059,
          "velocity": 0.866142
        },
        {
          "time": 265.813677,
          "name": "B2",
          "midi": 47,
          "duration": 0.91468,
          "velocity": 0.88189
        },
        {
          "time": 266.72016,
          "name": "B3",
          "midi": 59,
          "duration": 1.892698,
          "velocity": 0.866142
        },
        {
          "time": 266.72016,
          "name": "E3",
          "midi": 52,
          "duration": 3.785396,
          "velocity": 0.866142
        },
        {
          "time": 266.728357,
          "name": "G#2",
          "midi": 44,
          "duration": 0.978018,
          "velocity": 0.88189
        },
        {
          "time": 267.706375,
          "name": "E2",
          "midi": 40,
          "duration": 0.91468,
          "velocity": 0.88189
        },
        {
          "time": 268.612858,
          "name": "C#4",
          "midi": 61,
          "duration": 0.978639,
          "velocity": 0.866142
        },
        {
          "time": 268.621055,
          "name": "A2",
          "midi": 45,
          "duration": 0.978018,
          "velocity": 0.88189
        },
        {
          "time": 269.591497,
          "name": "A3",
          "midi": 57,
          "duration": 0.914059,
          "velocity": 0.866142
        },
        {
          "time": 269.599073,
          "name": "C#3",
          "midi": 49,
          "duration": 0.91468,
          "velocity": 0.88189
        },
        {
          "time": 270.505556,
          "name": "B3",
          "midi": 59,
          "duration": 1.892698,
          "velocity": 0.866142
        },
        {
          "time": 270.505556,
          "name": "G#3",
          "midi": 56,
          "duration": 0.978639,
          "velocity": 0.866142
        },
        {
          "time": 270.513753,
          "name": "E3",
          "midi": 52,
          "duration": 0.978018,
          "velocity": 0.88189
        },
        {
          "time": 271.484195,
          "name": "E3",
          "midi": 52,
          "duration": 0.914059,
          "velocity": 0.866142
        },
        {
          "time": 271.491771,
          "name": "D3",
          "midi": 50,
          "duration": 0.91468,
          "velocity": 0.88189
        },
        {
          "time": 272.398254,
          "name": "E3",
          "midi": 52,
          "duration": 1.892698,
          "velocity": 0.866142
        },
        {
          "time": 272.398254,
          "name": "A3",
          "midi": 57,
          "duration": 0.978639,
          "velocity": 0.866142
        },
        {
          "time": 272.406451,
          "name": "C#3",
          "midi": 49,
          "duration": 0.978018,
          "velocity": 0.88189
        },
        {
          "time": 273.376893,
          "name": "C#4",
          "midi": 61,
          "duration": 0.914059,
          "velocity": 0.866142
        },
        {
          "time": 273.384469,
          "name": "A2",
          "midi": 45,
          "duration": 0.91468,
          "velocity": 0.88189
        },
        {
          "time": 274.290952,
          "name": "B3",
          "midi": 59,
          "duration": 1.892698,
          "velocity": 0.866142
        },
        {
          "time": 274.290952,
          "name": "E3",
          "midi": 52,
          "duration": 4.005884,
          "velocity": 0.866142
        },
        {
          "time": 274.299149,
          "name": "G#2",
          "midi": 44,
          "duration": 0.978018,
          "velocity": 0.88189
        },
        {
          "time": 275.277167,
          "name": "E2",
          "midi": 40,
          "duration": 0.91468,
          "velocity": 0.88189
        },
        {
          "time": 276.18365,
          "name": "A3",
          "midi": 57,
          "duration": 2.113186,
          "velocity": 0.866142
        },
        {
          "time": 276.191847,
          "name": "A2",
          "midi": 45,
          "duration": 0.978018,
          "velocity": 0.88189
        },
        {
          "time": 277.169865,
          "name": "A3",
          "midi": 57,
          "duration": 1.135168,
          "velocity": 0.88189
        },
        {
          "time": 295.937583,
          "name": "B2",
          "midi": 47,
          "duration": 0.486836,
          "velocity": 0.866142
        },
        {
          "time": 296.424419,
          "name": "C#3",
          "midi": 49,
          "duration": 0.454545,
          "velocity": 0.866142
        },
        {
          "time": 296.431995,
          "name": "B2",
          "midi": 47,
          "duration": 0.91468,
          "velocity": 0.88189
        },
        {
          "time": 296.878964,
          "name": "D3",
          "midi": 50,
          "duration": 0.459513,
          "velocity": 0.866142
        },
        {
          "time": 297.338478,
          "name": "D#3",
          "midi": 51,
          "duration": 0.491804,
          "velocity": 0.866142
        },
        {
          "time": 297.346674,
          "name": "C#3",
          "midi": 49,
          "duration": 0.978018,
          "velocity": 0.88189
        },
        {
          "time": 297.830281,
          "name": "F3",
          "midi": 53,
          "duration": 0.486836,
          "velocity": 0.866142
        },
        {
          "time": 298.317117,
          "name": "F#3",
          "midi": 54,
          "duration": 0.454545,
          "velocity": 0.866142
        },
        {
          "time": 298.771662,
          "name": "G#3",
          "midi": 56,
          "duration": 0.459513,
          "velocity": 0.866142
        },
        {
          "time": 299.231176,
          "name": "A3",
          "midi": 57,
          "duration": 0.978639,
          "velocity": 0.866142
        },
        {
          "time": 299.239372,
          "name": "F#3",
          "midi": 54,
          "duration": 0.978018,
          "velocity": 0.88189
        },
        {
          "time": 300.209815,
          "name": "B3",
          "midi": 59,
          "duration": 0.466012,
          "velocity": 0.866142
        },
        {
          "time": 300.217391,
          "name": "D3",
          "midi": 50,
          "duration": 1.000675,
          "velocity": 0.88189
        },
        {
          "time": 300.675826,
          "name": "C#4",
          "midi": 61,
          "duration": 0.534042,
          "velocity": 0.866142
        },
        {
          "time": 301.209869,
          "name": "D4",
          "midi": 62,
          "duration": 0.978639,
          "velocity": 0.866142
        },
        {
          "time": 301.218065,
          "name": "B2",
          "midi": 47,
          "duration": 0.978018,
          "velocity": 0.88189
        },
        {
          "time": 302.188508,
          "name": "D#4",
          "midi": 63,
          "duration": 0.928485,
          "velocity": 0.866142
        },
        {
          "time": 302.196084,
          "name": "C3",
          "midi": 48,
          "duration": 0.930909,
          "velocity": 0.88189
        },
        {
          "time": 303.116993,
          "name": "E4",
          "midi": 64,
          "duration": 0.585574,
          "velocity": 0.866142
        },
        {
          "time": 303.126993,
          "name": "C#3",
          "midi": 49,
          "duration": 1.069985,
          "velocity": 0.88189
        },
        {
          "time": 304.196978,
          "name": "D3",
          "midi": 50,
          "duration": 0.91468,
          "velocity": 0.88189
        },
        {
          "time": 305.111658,
          "name": "E3",
          "midi": 52,
          "duration": 0.978018,
          "velocity": 0.88189
        },
        {
          "time": 306.089676,
          "name": "F3",
          "midi": 53,
          "duration": 0.91468,
          "velocity": 0.88189
        },
        {
          "time": 307.004356,
          "name": "F#3",
          "midi": 54,
          "duration": 0.978018,
          "velocity": 0.88189
        },
        {
          "time": 307.982374,
          "name": "F#4",
          "midi": 66,
          "duration": 1.060134,
          "velocity": 0.88189
        },
        {
          "time": 309.034312,
          "name": "D3",
          "midi": 50,
          "duration": 1.892698,
          "velocity": 0.866142
        },
        {
          "time": 310.92701,
          "name": "C#3",
          "midi": 49,
          "duration": 1.905556,
          "velocity": 0.866142
        },
        {
          "time": 312.832565,
          "name": "D3",
          "midi": 50,
          "duration": 1.976272,
          "velocity": 0.866142
        },
        {
          "time": 314.808838,
          "name": "C#3",
          "midi": 49,
          "duration": 1.907124,
          "velocity": 0.866142
        },
        {
          "time": 316.715962,
          "name": "F#2",
          "midi": 42,
          "duration": 2.006784,
          "velocity": 0.866142
        },
        {
          "time": 318.722745,
          "name": "G#2",
          "midi": 44,
          "duration": 1.959561,
          "velocity": 0.866142
        },
        {
          "time": 320.682307,
          "name": "G#2",
          "midi": 44,
          "duration": 1.885518,
          "velocity": 0.866142
        },
        {
          "time": 322.567825,
          "name": "C#3",
          "midi": 49,
          "duration": 0.888946,
          "velocity": 0.866142
        },
        {
          "time": 324.530542,
          "name": "G#2",
          "midi": 44,
          "duration": 0.491804,
          "velocity": 0.88189
        },
        {
          "time": 324.530542,
          "name": "C#2",
          "midi": 37,
          "duration": 0.491804,
          "velocity": 0.88189
        },
        {
          "time": 324.563329,
          "name": "E3",
          "midi": 52,
          "duration": 0.491804,
          "velocity": 0.88189
        },
        {
          "time": 324.587919,
          "name": "C#4",
          "midi": 61,
          "duration": 0.491804,
          "velocity": 0.88189
        },
        {
          "time": 328.315938,
          "name": "C#2",
          "midi": 37,
          "duration": 0.491804,
          "velocity": 0.88189
        },
        {
          "time": 328.315938,
          "name": "G#2",
          "midi": 44,
          "duration": 0.491804,
          "velocity": 0.88189
        },
        {
          "time": 328.348725,
          "name": "E3",
          "midi": 52,
          "duration": 0.491804,
          "velocity": 0.88189
        },
        {
          "time": 328.373315,
          "name": "C#4",
          "midi": 61,
          "duration": 0.491804,
          "velocity": 0.88189
        },
        {
          "time": 346.487929,
          "name": "D3",
          "midi": 50,
          "duration": 0.428572,
          "velocity": 0.88189
        },
        {
          "time": 347.334041,
          "name": "D3",
          "midi": 50,
          "duration": 0.35503,
          "velocity": 0.88189
        },
        {
          "time": 348.045723,
          "name": "C#3",
          "midi": 49,
          "duration": 0.365854,
          "velocity": 0.88189
        },
        {
          "time": 348.772552,
          "name": "A2",
          "midi": 45,
          "duration": 0.333334,
          "velocity": 0.88189
        },
        {
          "time": 349.444097,
          "name": "G#2",
          "midi": 44,
          "duration": 0.365854,
          "velocity": 0.88189
        },
        {
          "time": 350.170926,
          "name": "E2",
          "midi": 40,
          "duration": 0.333334,
          "velocity": 0.88189
        },
        {
          "time": 350.842471,
          "name": "A2",
          "midi": 45,
          "duration": 0.365854,
          "velocity": 0.88189
        },
        {
          "time": 351.586464,
          "name": "C#3",
          "midi": 49,
          "duration": 0.433851,
          "velocity": 0.88189
        },
        {
          "time": 352.376969,
          "name": "D3",
          "midi": 50,
          "duration": 0.365854,
          "velocity": 0.88189
        },
        {
          "time": 353.103798,
          "name": "D3",
          "midi": 50,
          "duration": 0.333334,
          "velocity": 0.88189
        },
        {
          "time": 353.775343,
          "name": "C#3",
          "midi": 49,
          "duration": 0.365854,
          "velocity": 0.88189
        },
        {
          "time": 354.502172,
          "name": "A2",
          "midi": 45,
          "duration": 0.333334,
          "velocity": 0.88189
        },
        {
          "time": 355.173717,
          "name": "G#2",
          "midi": 44,
          "duration": 0.365854,
          "velocity": 0.88189
        },
        {
          "time": 355.900546,
          "name": "E2",
          "midi": 40,
          "duration": 0.333334,
          "velocity": 0.88189
        },
        {
          "time": 356.578024,
          "name": "A2",
          "midi": 45,
          "duration": 0.40192,
          "velocity": 0.88189
        },
        {
          "time": 356.979943,
          "name": "A3",
          "midi": 57,
          "duration": 0.379719,
          "velocity": 0.88189
        },
        {
          "time": 358.070343,
          "name": "D4",
          "midi": 62,
          "duration": 0.365854,
          "velocity": 0.88189
        },
        {
          "time": 358.797172,
          "name": "D4",
          "midi": 62,
          "duration": 0.333334,
          "velocity": 0.88189
        },
        {
          "time": 359.468717,
          "name": "C#4",
          "midi": 61,
          "duration": 0.365854,
          "velocity": 0.88189
        },
        {
          "time": 360.195546,
          "name": "A3",
          "midi": 57,
          "duration": 0.333334,
          "velocity": 0.88189
        },
        {
          "time": 360.867091,
          "name": "G#3",
          "midi": 56,
          "duration": 0.365854,
          "velocity": 0.88189
        },
        {
          "time": 361.59392,
          "name": "E3",
          "midi": 52,
          "duration": 0.333334,
          "velocity": 0.88189
        },
        {
          "time": 362.265465,
          "name": "A3",
          "midi": 57,
          "duration": 0.365854,
          "velocity": 0.88189
        },
        {
          "time": 363.009458,
          "name": "A3",
          "midi": 57,
          "duration": 0.434168,
          "velocity": 0.88189
        },
        {
          "time": 363.802076,
          "name": "D4",
          "midi": 62,
          "duration": 0.365854,
          "velocity": 0.88189
        },
        {
          "time": 364.528905,
          "name": "D4",
          "midi": 62,
          "duration": 0.333334,
          "velocity": 0.88189
        },
        {
          "time": 365.20045,
          "name": "C#4",
          "midi": 61,
          "duration": 0.365854,
          "velocity": 0.88189
        },
        {
          "time": 365.927279,
          "name": "A3",
          "midi": 57,
          "duration": 0.333334,
          "velocity": 0.88189
        },
        {
          "time": 366.598824,
          "name": "D4",
          "midi": 62,
          "duration": 0.365854,
          "velocity": 0.88189
        },
        {
          "time": 367.325653,
          "name": "E4",
          "midi": 64,
          "duration": 0.333334,
          "velocity": 0.88189
        },
        {
          "time": 367.997198,
          "name": "A3",
          "midi": 57,
          "duration": 0.365854,
          "velocity": 0.88189
        },
        {
          "time": 369.659535,
          "name": "D2",
          "midi": 38,
          "duration": 0.44856,
          "velocity": 0.866142
        },
        {
          "time": 369.659535,
          "name": "D3",
          "midi": 50,
          "duration": 0.44856,
          "velocity": 0.866142
        },
        {
          "time": 369.667169,
          "name": "D3",
          "midi": 50,
          "duration": 0.447378,
          "velocity": 0.88189
        },
        {
          "time": 370.490916,
          "name": "D2",
          "midi": 38,
          "duration": 0.35503,
          "velocity": 0.866142
        },
        {
          "time": 370.490916,
          "name": "D3",
          "midi": 50,
          "duration": 0.35503,
          "velocity": 0.866142
        },
        {
          "time": 370.496833,
          "name": "D3",
          "midi": 50,
          "duration": 0.35503,
          "velocity": 0.88189
        },
        {
          "time": 371.202418,
          "name": "C#2",
          "midi": 37,
          "duration": 0.365854,
          "velocity": 0.866142
        },
        {
          "time": 371.202418,
          "name": "C#3",
          "midi": 49,
          "duration": 0.365854,
          "velocity": 0.866142
        },
        {
          "time": 371.208516,
          "name": "C#3",
          "midi": 49,
          "duration": 0.365854,
          "velocity": 0.88189
        },
        {
          "time": 371.929789,
          "name": "A2",
          "midi": 45,
          "duration": 0.333333,
          "velocity": 0.866142
        },
        {
          "time": 371.935345,
          "name": "A2",
          "midi": 45,
          "duration": 0.333334,
          "velocity": 0.88189
        },
        {
          "time": 372.268678,
          "name": "A3",
          "midi": 57,
          "duration": 0.338211,
          "velocity": 0.88189
        },
        {
          "time": 372.600792,
          "name": "G#3",
          "midi": 56,
          "duration": 0.365854,
          "velocity": 0.866142
        },
        {
          "time": 372.600792,
          "name": "G#2",
          "midi": 44,
          "duration": 0.365854,
          "velocity": 0.866142
        },
        {
          "time": 372.60689,
          "name": "G#3",
          "midi": 56,
          "duration": 0.365854,
          "velocity": 0.88189
        },
        {
          "time": 373.328163,
          "name": "E3",
          "midi": 52,
          "duration": 0.333333,
          "velocity": 0.866142
        },
        {
          "time": 373.328163,
          "name": "E2",
          "midi": 40,
          "duration": 0.333333,
          "velocity": 0.866142
        },
        {
          "time": 373.333719,
          "name": "E3",
          "midi": 52,
          "duration": 0.333334,
          "velocity": 0.88189
        },
        {
          "time": 373.999166,
          "name": "A2",
          "midi": 45,
          "duration": 0.365854,
          "velocity": 0.866142
        },
        {
          "time": 373.999166,
          "name": "A3",
          "midi": 57,
          "duration": 0.365854,
          "velocity": 0.866142
        },
        {
          "time": 374.005264,
          "name": "A3",
          "midi": 57,
          "duration": 0.365854,
          "velocity": 0.88189
        },
        {
          "time": 374.726537,
          "name": "A2",
          "midi": 45,
          "duration": 0.347713,
          "velocity": 0.866142
        },
        {
          "time": 374.732093,
          "name": "A2",
          "midi": 45,
          "duration": 0.34951,
          "velocity": 0.88189
        },
        {
          "time": 375.505383,
          "name": "D2",
          "midi": 38,
          "duration": 0.365854,
          "velocity": 0.866142
        },
        {
          "time": 375.505383,
          "name": "D3",
          "midi": 50,
          "duration": 0.365854,
          "velocity": 0.866142
        },
        {
          "time": 375.511481,
          "name": "D3",
          "midi": 50,
          "duration": 0.365854,
          "velocity": 0.88189
        },
        {
          "time": 376.232754,
          "name": "D2",
          "midi": 38,
          "duration": 0.333333,
          "velocity": 0.866142
        },
        {
          "time": 376.232754,
          "name": "D3",
          "midi": 50,
          "duration": 0.333333,
          "velocity": 0.866142
        },
        {
          "time": 376.23831,
          "name": "D3",
          "midi": 50,
          "duration": 0.333334,
          "velocity": 0.88189
        },
        {
          "time": 376.903757,
          "name": "C#2",
          "midi": 37,
          "duration": 0.365854,
          "velocity": 0.866142
        },
        {
          "time": 376.903757,
          "name": "C#3",
          "midi": 49,
          "duration": 0.365854,
          "velocity": 0.866142
        },
        {
          "time": 376.909855,
          "name": "C#3",
          "midi": 49,
          "duration": 0.365854,
          "velocity": 0.88189
        },
        {
          "time": 377.631128,
          "name": "A2",
          "midi": 45,
          "duration": 0.333333,
          "velocity": 0.866142
        },
        {
          "time": 377.636684,
          "name": "A2",
          "midi": 45,
          "duration": 0.333334,
          "velocity": 0.88189
        },
        {
          "time": 377.970017,
          "name": "A3",
          "midi": 57,
          "duration": 0.338211,
          "velocity": 0.88189
        },
        {
          "time": 378.302131,
          "name": "G#3",
          "midi": 56,
          "duration": 0.365854,
          "velocity": 0.866142
        },
        {
          "time": 378.302131,
          "name": "G#2",
          "midi": 44,
          "duration": 0.365854,
          "velocity": 0.866142
        },
        {
          "time": 378.308229,
          "name": "G#3",
          "midi": 56,
          "duration": 0.365854,
          "velocity": 0.88189
        },
        {
          "time": 379.029502,
          "name": "E3",
          "midi": 52,
          "duration": 0.333333,
          "velocity": 0.866142
        },
        {
          "time": 379.029502,
          "name": "E2",
          "midi": 40,
          "duration": 0.333333,
          "velocity": 0.866142
        },
        {
          "time": 379.035058,
          "name": "E3",
          "midi": 52,
          "duration": 0.333334,
          "velocity": 0.88189
        },
        {
          "time": 379.700505,
          "name": "A2",
          "midi": 45,
          "duration": 0.369361,
          "velocity": 0.866142
        },
        {
          "time": 379.700505,
          "name": "A3",
          "midi": 57,
          "duration": 0.369361,
          "velocity": 0.866142
        },
        {
          "time": 380.069866,
          "name": "E2",
          "midi": 40,
          "duration": 0.396607,
          "velocity": 0.866142
        },
        {
          "time": 380.069866,
          "name": "E3",
          "midi": 52,
          "duration": 0.396607,
          "velocity": 0.866142
        },
        {
          "time": 380.076402,
          "name": "E3",
          "midi": 52,
          "duration": 0.397163,
          "velocity": 0.88189
        },
        {
          "time": 380.466473,
          "name": "A2",
          "midi": 45,
          "duration": 0.425532,
          "velocity": 0.866142
        },
        {
          "time": 380.466473,
          "name": "A3",
          "midi": 57,
          "duration": 0.425532,
          "velocity": 0.866142
        },
        {
          "time": 380.473565,
          "name": "A3",
          "midi": 57,
          "duration": 0.425532,
          "velocity": 0.88189
        },
        {
          "time": 381.321868,
          "name": "F#2",
          "midi": 42,
          "duration": 0.449234,
          "velocity": 0.866142
        },
        {
          "time": 381.329502,
          "name": "F#3",
          "midi": 54,
          "duration": 0.448137,
          "velocity": 0.88189
        },
        {
          "time": 382.894627,
          "name": "F#2",
          "midi": 42,
          "duration": 0.389611,
          "velocity": 0.866142
        },
        {
          "time": 382.90112,
          "name": "F#3",
          "midi": 54,
          "duration": 0.389611,
          "velocity": 0.88189
        },
        {
          "time": 384.405555,
          "name": "F#2",
          "midi": 42,
          "duration": 0.389611,
          "velocity": 0.866142
        },
        {
          "time": 384.412048,
          "name": "F#3",
          "midi": 54,
          "duration": 0.389611,
          "velocity": 0.88189
        },
        {
          "time": 385.916483,
          "name": "F#2",
          "midi": 42,
          "duration": 0.389611,
          "velocity": 0.866142
        },
        {
          "time": 385.922976,
          "name": "F#3",
          "midi": 54,
          "duration": 0.389611,
          "velocity": 0.88189
        },
        {
          "time": 386.692536,
          "name": "F#2",
          "midi": 42,
          "duration": 0.365854,
          "velocity": 0.866142
        },
        {
          "time": 386.698634,
          "name": "F#3",
          "midi": 54,
          "duration": 0.365854,
          "velocity": 0.88189
        },
        {
          "time": 387.427411,
          "name": "F#2",
          "midi": 42,
          "duration": 0.389611,
          "velocity": 0.866142
        },
        {
          "time": 387.433904,
          "name": "F#3",
          "midi": 54,
          "duration": 0.389611,
          "velocity": 0.88189
        },
        {
          "time": 388.938339,
          "name": "F#2",
          "midi": 42,
          "duration": 0.389611,
          "velocity": 0.866142
        },
        {
          "time": 388.944832,
          "name": "F#3",
          "midi": 54,
          "duration": 0.389611,
          "velocity": 0.88189
        },
        {
          "time": 390.449267,
          "name": "F#2",
          "midi": 42,
          "duration": 0.389611,
          "velocity": 0.866142
        },
        {
          "time": 390.45576,
          "name": "F#3",
          "midi": 54,
          "duration": 0.389611,
          "velocity": 0.88189
        },
        {
          "time": 391.960195,
          "name": "F#2",
          "midi": 42,
          "duration": 0.394805,
          "velocity": 0.866142
        },
        {
          "time": 391.966688,
          "name": "F#3",
          "midi": 54,
          "duration": 0.395455,
          "velocity": 0.88189
        },
        {
          "time": 392.775209,
          "name": "F#3",
          "midi": 54,
          "duration": 0.365854,
          "velocity": 0.866142
        },
        {
          "time": 392.775209,
          "name": "F#2",
          "midi": 42,
          "duration": 0.365854,
          "velocity": 0.866142
        },
        {
          "time": 392.781307,
          "name": "C#3",
          "midi": 49,
          "duration": 0.365854,
          "velocity": 0.88189
        },
        {
          "time": 392.781307,
          "name": "A3",
          "midi": 57,
          "duration": 0.365854,
          "velocity": 0.88189
        },
        {
          "time": 392.781307,
          "name": "F#2",
          "midi": 42,
          "duration": 0.365854,
          "velocity": 0.88189
        },
        {
          "time": 393.515279,
          "name": "F#2",
          "midi": 42,
          "duration": 0.422711,
          "velocity": 0.866142
        },
        {
          "time": 393.522421,
          "name": "F#3",
          "midi": 54,
          "duration": 0.421978,
          "velocity": 0.88189
        },
        {
          "time": 395.054978,
          "name": "F#2",
          "midi": 42,
          "duration": 0.389611,
          "velocity": 0.866142
        },
        {
          "time": 395.061471,
          "name": "F#3",
          "midi": 54,
          "duration": 0.389611,
          "velocity": 0.88189
        },
        {
          "time": 396.565906,
          "name": "F#2",
          "midi": 42,
          "duration": 0.389611,
          "velocity": 0.866142
        },
        {
          "time": 396.572399,
          "name": "F#3",
          "midi": 54,
          "duration": 0.389611,
          "velocity": 0.88189
        },
        {
          "time": 398.076834,
          "name": "F#2",
          "midi": 42,
          "duration": 0.389611,
          "velocity": 0.866142
        },
        {
          "time": 398.083327,
          "name": "F#3",
          "midi": 54,
          "duration": 0.389611,
          "velocity": 0.88189
        },
        {
          "time": 398.852887,
          "name": "F#2",
          "midi": 42,
          "duration": 0.365854,
          "velocity": 0.866142
        },
        {
          "time": 398.858985,
          "name": "F#3",
          "midi": 54,
          "duration": 0.365854,
          "velocity": 0.88189
        },
        {
          "time": 399.587762,
          "name": "F#2",
          "midi": 42,
          "duration": 0.389611,
          "velocity": 0.866142
        },
        {
          "time": 399.594255,
          "name": "F#3",
          "midi": 54,
          "duration": 0.389611,
          "velocity": 0.88189
        },
        {
          "time": 401.09869,
          "name": "F#2",
          "midi": 42,
          "duration": 0.389611,
          "velocity": 0.866142
        },
        {
          "time": 401.105183,
          "name": "F#3",
          "midi": 54,
          "duration": 0.389611,
          "velocity": 0.88189
        },
        {
          "time": 402.609618,
          "name": "F#2",
          "midi": 42,
          "duration": 0.389611,
          "velocity": 0.866142
        },
        {
          "time": 402.616111,
          "name": "F#3",
          "midi": 54,
          "duration": 0.389611,
          "velocity": 0.88189
        },
        {
          "time": 404.120546,
          "name": "F#2",
          "midi": 42,
          "duration": 0.394805,
          "velocity": 0.866142
        },
        {
          "time": 404.127039,
          "name": "F#3",
          "midi": 54,
          "duration": 0.395455,
          "velocity": 0.88189
        },
        {
          "time": 404.96678,
          "name": "F#3",
          "midi": 54,
          "duration": 0.590175,
          "velocity": 0.866142
        },
        {
          "time": 404.96678,
          "name": "F#2",
          "midi": 42,
          "duration": 0.590175,
          "velocity": 0.866142
        },
        {
          "time": 404.97678,
          "name": "C#3",
          "midi": 49,
          "duration": 0.588947,
          "velocity": 0.88189
        },
        {
          "time": 404.97678,
          "name": "A3",
          "midi": 57,
          "duration": 0.588947,
          "velocity": 0.88189
        },
        {
          "time": 404.97678,
          "name": "F#2",
          "midi": 42,
          "duration": 0.588947,
          "velocity": 0.88189
        },
        {
          "time": 406.077381,
          "name": "D3",
          "midi": 50,
          "duration": 0.428572,
          "velocity": 0.88189
        },
        {
          "time": 406.923493,
          "name": "D3",
          "midi": 50,
          "duration": 0.35503,
          "velocity": 0.88189
        },
        {
          "time": 407.635176,
          "name": "C#3",
          "midi": 49,
          "duration": 0.365854,
          "velocity": 0.88189
        },
        {
          "time": 408.362005,
          "name": "A2",
          "midi": 45,
          "duration": 0.333334,
          "velocity": 0.88189
        },
        {
          "time": 409.03355,
          "name": "G#2",
          "midi": 44,
          "duration": 0.365854,
          "velocity": 0.88189
        },
        {
          "time": 409.760379,
          "name": "E2",
          "midi": 40,
          "duration": 0.333334,
          "velocity": 0.88189
        },
        {
          "time": 410.431924,
          "name": "A2",
          "midi": 45,
          "duration": 0.365854,
          "velocity": 0.88189
        },
        {
          "time": 411.175917,
          "name": "C#3",
          "midi": 49,
          "duration": 0.433851,
          "velocity": 0.88189
        },
        {
          "time": 411.966421,
          "name": "D3",
          "midi": 50,
          "duration": 0.365854,
          "velocity": 0.88189
        },
        {
          "time": 412.69325,
          "name": "D3",
          "midi": 50,
          "duration": 0.333334,
          "velocity": 0.88189
        },
        {
          "time": 413.364795,
          "name": "C#3",
          "midi": 49,
          "duration": 0.365854,
          "velocity": 0.88189
        },
        {
          "time": 414.091624,
          "name": "A2",
          "midi": 45,
          "duration": 0.333334,
          "velocity": 0.88189
        },
        {
          "time": 414.763169,
          "name": "G#2",
          "midi": 44,
          "duration": 0.365854,
          "velocity": 0.88189
        },
        {
          "time": 415.489998,
          "name": "E2",
          "midi": 40,
          "duration": 0.333334,
          "velocity": 0.88189
        },
        {
          "time": 416.167476,
          "name": "A2",
          "midi": 45,
          "duration": 0.40192,
          "velocity": 0.88189
        },
        {
          "time": 416.569396,
          "name": "A3",
          "midi": 57,
          "duration": 0.379719,
          "velocity": 0.88189
        },
        {
          "time": 417.659795,
          "name": "D4",
          "midi": 62,
          "duration": 0.365854,
          "velocity": 0.88189
        },
        {
          "time": 418.386624,
          "name": "D4",
          "midi": 62,
          "duration": 0.333334,
          "velocity": 0.88189
        },
        {
          "time": 419.058169,
          "name": "C#4",
          "midi": 61,
          "duration": 0.365854,
          "velocity": 0.88189
        },
        {
          "time": 419.784998,
          "name": "A3",
          "midi": 57,
          "duration": 0.333334,
          "velocity": 0.88189
        },
        {
          "time": 420.456543,
          "name": "G#3",
          "midi": 56,
          "duration": 0.365854,
          "velocity": 0.88189
        },
        {
          "time": 421.183372,
          "name": "E3",
          "midi": 52,
          "duration": 0.333334,
          "velocity": 0.88189
        },
        {
          "time": 421.854917,
          "name": "A3",
          "midi": 57,
          "duration": 0.365854,
          "velocity": 0.88189
        },
        {
          "time": 422.59891,
          "name": "A3",
          "midi": 57,
          "duration": 0.434168,
          "velocity": 0.88189
        },
        {
          "time": 423.391528,
          "name": "D4",
          "midi": 62,
          "duration": 0.365854,
          "velocity": 0.88189
        },
        {
          "time": 424.118357,
          "name": "D4",
          "midi": 62,
          "duration": 0.333334,
          "velocity": 0.88189
        },
        {
          "time": 424.789902,
          "name": "C#4",
          "midi": 61,
          "duration": 0.365854,
          "velocity": 0.88189
        },
        {
          "time": 425.514604,
          "name": "A3",
          "midi": 57,
          "duration": 0.319149,
          "velocity": 0.88189
        },
        {
          "time": 426.157052,
          "name": "D4",
          "midi": 62,
          "duration": 0.346821,
          "velocity": 0.88189
        },
        {
          "time": 426.843671,
          "name": "E4",
          "midi": 64,
          "duration": 0.3,
          "velocity": 0.88189
        },
        {
          "time": 427.432633,
          "name": "A3",
          "midi": 57,
          "duration": 0.226415,
          "velocity": 0.88189
        },
        {
          "time": 427.87861,
          "name": "A3",
          "midi": 57,
          "duration": 0.363558,
          "velocity": 0.88189
        },
        {
          "time": 428.242168,
          "name": "B3",
          "midi": 59,
          "duration": 0.387498,
          "velocity": 0.88189
        },
        {
          "time": 428.629666,
          "name": "E3",
          "midi": 52,
          "duration": 0.363558,
          "velocity": 0.88189
        },
        {
          "time": 428.993224,
          "name": "A3",
          "midi": 57,
          "duration": 0.387498,
          "velocity": 0.88189
        },
        {
          "time": 429.380722,
          "name": "G3",
          "midi": 55,
          "duration": 0.363558,
          "velocity": 0.88189
        },
        {
          "time": 429.74428,
          "name": "F#3",
          "midi": 54,
          "duration": 0.194805,
          "velocity": 0.88189
        },
        {
          "time": 429.939085,
          "name": "F3",
          "midi": 53,
          "duration": 0.192693,
          "velocity": 0.88189
        },
        {
          "time": 430.131778,
          "name": "E3",
          "midi": 52,
          "duration": 0.180723,
          "velocity": 0.88189
        },
        {
          "time": 430.312501,
          "name": "D3",
          "midi": 50,
          "duration": 0.182835,
          "velocity": 0.88189
        },
        {
          "time": 430.492089,
          "name": "C#3",
          "midi": 49,
          "duration": 0.751056,
          "velocity": 0.866142
        },
        {
          "time": 430.495336,
          "name": "C#3",
          "midi": 49,
          "duration": 0.387498,
          "velocity": 0.88189
        },
        {
          "time": 431.243145,
          "name": "D3",
          "midi": 50,
          "duration": 0.751056,
          "velocity": 0.866142
        },
        {
          "time": 431.246392,
          "name": "D3",
          "midi": 50,
          "duration": 0.387498,
          "velocity": 0.88189
        },
        {
          "time": 431.994201,
          "name": "E3",
          "midi": 52,
          "duration": 0.194805,
          "velocity": 0.866142
        },
        {
          "time": 431.997448,
          "name": "E3",
          "midi": 52,
          "duration": 0.387498,
          "velocity": 0.88189
        },
        {
          "time": 432.384946,
          "name": "E3",
          "midi": 52,
          "duration": 0.363558,
          "velocity": 0.88189
        },
        {
          "time": 432.748504,
          "name": "E3",
          "midi": 52,
          "duration": 0.387498,
          "velocity": 0.88189
        },
        {
          "time": 433.136002,
          "name": "E3",
          "midi": 52,
          "duration": 0.363558,
          "velocity": 0.88189
        },
        {
          "time": 433.49956,
          "name": "A2",
          "midi": 45,
          "duration": 0.194805,
          "velocity": 0.88189
        },
        {
          "time": 433.887058,
          "name": "A3",
          "midi": 57,
          "duration": 0.363558,
          "velocity": 0.88189
        },
        {
          "time": 434.250616,
          "name": "B3",
          "midi": 59,
          "duration": 0.387498,
          "velocity": 0.88189
        },
        {
          "time": 434.638114,
          "name": "E3",
          "midi": 52,
          "duration": 0.363558,
          "velocity": 0.88189
        },
        {
          "time": 435.001672,
          "name": "A3",
          "midi": 57,
          "duration": 0.387498,
          "velocity": 0.88189
        },
        {
          "time": 435.38917,
          "name": "G3",
          "midi": 55,
          "duration": 0.363558,
          "velocity": 0.88189
        },
        {
          "time": 435.752728,
          "name": "F#3",
          "midi": 54,
          "duration": 0.194805,
          "velocity": 0.88189
        },
        {
          "time": 435.947533,
          "name": "F3",
          "midi": 53,
          "duration": 0.192693,
          "velocity": 0.88189
        },
        {
          "time": 436.140226,
          "name": "E3",
          "midi": 52,
          "duration": 0.180723,
          "velocity": 0.88189
        },
        {
          "time": 436.320949,
          "name": "D3",
          "midi": 50,
          "duration": 0.182835,
          "velocity": 0.88189
        },
        {
          "time": 436.500537,
          "name": "C#3",
          "midi": 49,
          "duration": 0.751056,
          "velocity": 0.866142
        },
        {
          "time": 436.503784,
          "name": "C#3",
          "midi": 49,
          "duration": 0.387498,
          "velocity": 0.88189
        },
        {
          "time": 437.251593,
          "name": "D3",
          "midi": 50,
          "duration": 0.751056,
          "velocity": 0.866142
        },
        {
          "time": 437.25484,
          "name": "D3",
          "midi": 50,
          "duration": 0.387498,
          "velocity": 0.88189
        },
        {
          "time": 438.002649,
          "name": "E3",
          "midi": 52,
          "duration": 0.194805,
          "velocity": 0.866142
        },
        {
          "time": 438.005896,
          "name": "E3",
          "midi": 52,
          "duration": 0.387498,
          "velocity": 0.88189
        },
        {
          "time": 438.393394,
          "name": "E3",
          "midi": 52,
          "duration": 0.363558,
          "velocity": 0.88189
        },
        {
          "time": 438.756952,
          "name": "E3",
          "midi": 52,
          "duration": 0.387498,
          "velocity": 0.88189
        },
        {
          "time": 439.14445,
          "name": "E3",
          "midi": 52,
          "duration": 0.363558,
          "velocity": 0.88189
        },
        {
          "time": 439.508008,
          "name": "A3",
          "midi": 57,
          "duration": 0.194805,
          "velocity": 0.88189
        },
        {
          "time": 439.895506,
          "name": "F#3",
          "midi": 54,
          "duration": 0.180723,
          "velocity": 0.88189
        },
        {
          "time": 440.259064,
          "name": "A3",
          "midi": 57,
          "duration": 0.194805,
          "velocity": 0.88189
        },
        {
          "time": 440.646562,
          "name": "F#3",
          "midi": 54,
          "duration": 0.180723,
          "velocity": 0.88189
        },
        {
          "time": 441.006873,
          "name": "A2",
          "midi": 45,
          "duration": 0.387732,
          "velocity": 0.866142
        },
        {
          "time": 441.006873,
          "name": "A3",
          "midi": 57,
          "duration": 0.387732,
          "velocity": 0.866142
        },
        {
          "time": 441.01012,
          "name": "A3",
          "midi": 57,
          "duration": 0.194805,
          "velocity": 0.88189
        },
        {
          "time": 441.394606,
          "name": "F#2",
          "midi": 42,
          "duration": 0.363324,
          "velocity": 0.866142
        },
        {
          "time": 441.394606,
          "name": "F#3",
          "midi": 54,
          "duration": 0.363324,
          "velocity": 0.866142
        },
        {
          "time": 441.397618,
          "name": "F#3",
          "midi": 54,
          "duration": 0.180723,
          "velocity": 0.88189
        },
        {
          "time": 441.757929,
          "name": "A2",
          "midi": 45,
          "duration": 0.387732,
          "velocity": 0.866142
        },
        {
          "time": 441.757929,
          "name": "A3",
          "midi": 57,
          "duration": 0.387732,
          "velocity": 0.866142
        },
        {
          "time": 441.761176,
          "name": "A3",
          "midi": 57,
          "duration": 0.194805,
          "velocity": 0.88189
        },
        {
          "time": 442.145662,
          "name": "F#2",
          "midi": 42,
          "duration": 0.363324,
          "velocity": 0.866142
        },
        {
          "time": 442.145662,
          "name": "F#3",
          "midi": 54,
          "duration": 0.363324,
          "velocity": 0.866142
        },
        {
          "time": 442.148674,
          "name": "F#3",
          "midi": 54,
          "duration": 0.180723,
          "velocity": 0.88189
        },
        {
          "time": 442.508985,
          "name": "A3",
          "midi": 57,
          "duration": 0.194805,
          "velocity": 0.866142
        },
        {
          "time": 442.508985,
          "name": "A2",
          "midi": 45,
          "duration": 0.194805,
          "velocity": 0.866142
        },
        {
          "time": 442.512232,
          "name": "A3",
          "midi": 57,
          "duration": 0.194805,
          "velocity": 0.88189
        },
        {
          "time": 442.896718,
          "name": "A3",
          "midi": 57,
          "duration": 0.180723,
          "velocity": 0.866142
        },
        {
          "time": 442.89973,
          "name": "A3",
          "midi": 57,
          "duration": 0.180723,
          "velocity": 0.88189
        },
        {
          "time": 443.260041,
          "name": "E3",
          "midi": 52,
          "duration": 0.194805,
          "velocity": 0.866142
        },
        {
          "time": 443.263288,
          "name": "E3",
          "midi": 52,
          "duration": 0.194805,
          "velocity": 0.88189
        },
        {
          "time": 443.647774,
          "name": "C#3",
          "midi": 49,
          "duration": 0.180723,
          "velocity": 0.866142
        },
        {
          "time": 443.650786,
          "name": "C#3",
          "midi": 49,
          "duration": 0.180723,
          "velocity": 0.88189
        },
        {
          "time": 444.011097,
          "name": "A2",
          "midi": 45,
          "duration": 0.194805,
          "velocity": 0.866142
        },
        {
          "time": 444.014344,
          "name": "A2",
          "midi": 45,
          "duration": 0.194805,
          "velocity": 0.88189
        },
        {
          "time": 444.39883,
          "name": "A3",
          "midi": 57,
          "duration": 0.180723,
          "velocity": 0.866142
        },
        {
          "time": 444.401842,
          "name": "A3",
          "midi": 57,
          "duration": 0.180723,
          "velocity": 0.88189
        },
        {
          "time": 444.762153,
          "name": "E3",
          "midi": 52,
          "duration": 0.194805,
          "velocity": 0.866142
        },
        {
          "time": 444.7654,
          "name": "E3",
          "midi": 52,
          "duration": 0.194805,
          "velocity": 0.88189
        },
        {
          "time": 445.149886,
          "name": "C#3",
          "midi": 49,
          "duration": 0.180723,
          "velocity": 0.866142
        },
        {
          "time": 445.152898,
          "name": "C#3",
          "midi": 49,
          "duration": 0.180723,
          "velocity": 0.88189
        },
        {
          "time": 445.511332,
          "name": "A2",
          "midi": 45,
          "duration": 0.180723,
          "velocity": 0.866142
        },
        {
          "time": 445.514344,
          "name": "A2",
          "midi": 45,
          "duration": 0.180723,
          "velocity": 0.88189
        },
        {
          "time": 445.872778,
          "name": "A3",
          "midi": 57,
          "duration": 0.180723,
          "velocity": 0.866142
        },
        {
          "time": 446.237236,
          "name": "C#4",
          "midi": 61,
          "duration": 0.180723,
          "velocity": 0.88189
        },
        {
          "time": 446.237236,
          "name": "E3",
          "midi": 52,
          "duration": 0.180723,
          "velocity": 0.88189
        },
        {
          "time": 446.237236,
          "name": "A2",
          "midi": 45,
          "duration": 0.180723,
          "velocity": 0.88189
        },
        {
          "time": 448.911865,
          "name": "A#2",
          "midi": 46,
          "duration": 0.384615,
          "velocity": 0.88189
        },
        {
          "time": 450.025923,
          "name": "A#2",
          "midi": 46,
          "duration": 0.384615,
          "velocity": 0.88189
        },
        {
          "time": 451.139981,
          "name": "A#2",
          "midi": 46,
          "duration": 0.384615,
          "velocity": 0.88189
        },
        {
          "time": 452.254039,
          "name": "A#2",
          "midi": 46,
          "duration": 0.384615,
          "velocity": 0.88189
        },
        {
          "time": 453.368097,
          "name": "A2",
          "midi": 45,
          "duration": 1.114058,
          "velocity": 0.88189
        },
        {
          "time": 454.482155,
          "name": "G#2",
          "midi": 44,
          "duration": 1.114058,
          "velocity": 0.88189
        },
        {
          "time": 455.596213,
          "name": "G2",
          "midi": 43,
          "duration": 1.114058,
          "velocity": 0.88189
        },
        {
          "time": 456.710271,
          "name": "B2",
          "midi": 47,
          "duration": 1.114058,
          "velocity": 0.88189
        },
        {
          "time": 457.824329,
          "name": "C3",
          "midi": 48,
          "duration": 0.766246,
          "velocity": 0.88189
        },
        {
          "time": 460.052445,
          "name": "D#3",
          "midi": 51,
          "duration": 0.384615,
          "velocity": 0.88189
        },
        {
          "time": 461.166503,
          "name": "D#3",
          "midi": 51,
          "duration": 0.384615,
          "velocity": 0.88189
        },
        {
          "time": 462.280561,
          "name": "F3",
          "midi": 53,
          "duration": 0.384615,
          "velocity": 0.88189
        },
        {
          "time": 463.394619,
          "name": "F3",
          "midi": 53,
          "duration": 0.384615,
          "velocity": 0.88189
        },
        {
          "time": 464.508677,
          "name": "F3",
          "midi": 53,
          "duration": 0.384615,
          "velocity": 0.88189
        },
        {
          "time": 465.622735,
          "name": "F3",
          "midi": 53,
          "duration": 0.384615,
          "velocity": 0.88189
        },
        {
          "time": 466.736793,
          "name": "A#2",
          "midi": 46,
          "duration": 0.384615,
          "velocity": 0.88189
        },
        {
          "time": 467.850851,
          "name": "B2",
          "midi": 47,
          "duration": 0.192308,
          "velocity": 0.88189
        },
        {
          "time": 468.235466,
          "name": "C3",
          "midi": 48,
          "duration": 0.192307,
          "velocity": 0.88189
        },
        {
          "time": 468.617097,
          "name": "F2",
          "midi": 41,
          "duration": 0.178695,
          "velocity": 0.88189
        },
        {
          "time": 469.006781,
          "name": "A#2",
          "midi": 46,
          "duration": 0.384615,
          "velocity": 0.88189
        },
        {
          "time": 470.120839,
          "name": "A#2",
          "midi": 46,
          "duration": 0.384615,
          "velocity": 0.88189
        },
        {
          "time": 471.234897,
          "name": "A2",
          "midi": 45,
          "duration": 1.114058,
          "velocity": 0.88189
        },
        {
          "time": 472.348955,
          "name": "G#2",
          "midi": 44,
          "duration": 1.114058,
          "velocity": 0.88189
        },
        {
          "time": 473.463013,
          "name": "G2",
          "midi": 43,
          "duration": 1.114058,
          "velocity": 0.88189
        },
        {
          "time": 474.577071,
          "name": "B2",
          "midi": 47,
          "duration": 1.114058,
          "velocity": 0.88189
        },
        {
          "time": 475.691129,
          "name": "C3",
          "midi": 48,
          "duration": 0.766246,
          "velocity": 0.88189
        },
        {
          "time": 477.919245,
          "name": "D#3",
          "midi": 51,
          "duration": 0.384615,
          "velocity": 0.88189
        },
        {
          "time": 479.033303,
          "name": "D#3",
          "midi": 51,
          "duration": 0.384615,
          "velocity": 0.88189
        },
        {
          "time": 480.147361,
          "name": "F3",
          "midi": 53,
          "duration": 0.384615,
          "velocity": 0.88189
        },
        {
          "time": 481.261419,
          "name": "F3",
          "midi": 53,
          "duration": 0.384615,
          "velocity": 0.88189
        },
        {
          "time": 482.375477,
          "name": "A3",
          "midi": 57,
          "duration": 0.384615,
          "velocity": 0.88189
        },
        {
          "time": 483.489535,
          "name": "A3",
          "midi": 57,
          "duration": 0.384615,
          "velocity": 0.88189
        },
        {
          "time": 484.603593,
          "name": "A3",
          "midi": 57,
          "duration": 0.384615,
          "velocity": 0.88189
        },
        {
          "time": 485.717651,
          "name": "A3",
          "midi": 57,
          "duration": 0.384615,
          "velocity": 0.88189
        },
        {
          "time": 486.831709,
          "name": "A3",
          "midi": 57,
          "duration": 0.384615,
          "velocity": 0.88189
        },
        {
          "time": 488.330382,
          "name": "A2",
          "midi": 45,
          "duration": 0.346153,
          "velocity": 0.88189
        },
        {
          "time": 488.712013,
          "name": "D3",
          "midi": 50,
          "duration": 0.350123,
          "velocity": 0.88189
        },
        {
          "time": 489.09724,
          "name": "C3",
          "midi": 48,
          "duration": 1.02341,
          "velocity": 0.866142
        },
        {
          "time": 489.09724,
          "name": "C2",
          "midi": 36,
          "duration": 1.02341,
          "velocity": 0.866142
        },
        {
          "time": 489.100289,
          "name": "C2",
          "midi": 36,
          "duration": 1.076536,
          "velocity": 0.88189
        },
        {
          "time": 489.100289,
          "name": "C3",
          "midi": 48,
          "duration": 1.076536,
          "velocity": 0.88189
        },
        {
          "time": 490.173776,
          "name": "C3",
          "midi": 48,
          "duration": 1.02341,
          "velocity": 0.866142
        },
        {
          "time": 490.173776,
          "name": "C2",
          "midi": 36,
          "duration": 1.02341,
          "velocity": 0.866142
        },
        {
          "time": 490.176825,
          "name": "C2",
          "midi": 36,
          "duration": 1.076536,
          "velocity": 0.88189
        },
        {
          "time": 490.176825,
          "name": "C3",
          "midi": 48,
          "duration": 1.076536,
          "velocity": 0.88189
        },
        {
          "time": 491.250312,
          "name": "C3",
          "midi": 48,
          "duration": 1.02341,
          "velocity": 0.866142
        },
        {
          "time": 491.250312,
          "name": "C2",
          "midi": 36,
          "duration": 1.02341,
          "velocity": 0.866142
        },
        {
          "time": 491.253361,
          "name": "C2",
          "midi": 36,
          "duration": 1.076536,
          "velocity": 0.88189
        },
        {
          "time": 491.253361,
          "name": "C3",
          "midi": 48,
          "duration": 1.076536,
          "velocity": 0.88189
        },
        {
          "time": 492.326848,
          "name": "C3",
          "midi": 48,
          "duration": 1.02341,
          "velocity": 0.866142
        },
        {
          "time": 492.326848,
          "name": "C2",
          "midi": 36,
          "duration": 1.02341,
          "velocity": 0.866142
        },
        {
          "time": 492.329897,
          "name": "C2",
          "midi": 36,
          "duration": 1.076536,
          "velocity": 0.88189
        },
        {
          "time": 492.329897,
          "name": "C3",
          "midi": 48,
          "duration": 1.076536,
          "velocity": 0.88189
        },
        {
          "time": 493.403384,
          "name": "C3",
          "midi": 48,
          "duration": 1.02341,
          "velocity": 0.866142
        },
        {
          "time": 493.403384,
          "name": "C2",
          "midi": 36,
          "duration": 1.02341,
          "velocity": 0.866142
        },
        {
          "time": 493.406433,
          "name": "C2",
          "midi": 36,
          "duration": 1.076536,
          "velocity": 0.88189
        },
        {
          "time": 493.406433,
          "name": "C3",
          "midi": 48,
          "duration": 1.076536,
          "velocity": 0.88189
        },
        {
          "time": 494.47992,
          "name": "C3",
          "midi": 48,
          "duration": 1.02341,
          "velocity": 0.866142
        },
        {
          "time": 494.47992,
          "name": "C2",
          "midi": 36,
          "duration": 1.02341,
          "velocity": 0.866142
        },
        {
          "time": 494.482969,
          "name": "C2",
          "midi": 36,
          "duration": 1.076536,
          "velocity": 0.88189
        },
        {
          "time": 494.482969,
          "name": "C3",
          "midi": 48,
          "duration": 1.076536,
          "velocity": 0.88189
        },
        {
          "time": 495.556456,
          "name": "C3",
          "midi": 48,
          "duration": 1.02341,
          "velocity": 0.866142
        },
        {
          "time": 495.556456,
          "name": "C2",
          "midi": 36,
          "duration": 1.02341,
          "velocity": 0.866142
        },
        {
          "time": 495.559505,
          "name": "C2",
          "midi": 36,
          "duration": 1.076536,
          "velocity": 0.88189
        },
        {
          "time": 495.559505,
          "name": "C3",
          "midi": 48,
          "duration": 1.076536,
          "velocity": 0.88189
        },
        {
          "time": 496.632992,
          "name": "C3",
          "midi": 48,
          "duration": 1.058303,
          "velocity": 0.866142
        },
        {
          "time": 496.632992,
          "name": "C2",
          "midi": 36,
          "duration": 1.058303,
          "velocity": 0.866142
        },
        {
          "time": 496.636041,
          "name": "C2",
          "midi": 36,
          "duration": 1.118408,
          "velocity": 0.88189
        },
        {
          "time": 496.636041,
          "name": "C3",
          "midi": 48,
          "duration": 1.118408,
          "velocity": 0.88189
        },
        {
          "time": 497.7514,
          "name": "C3",
          "midi": 48,
          "duration": 1.02341,
          "velocity": 0.866142
        },
        {
          "time": 497.7514,
          "name": "C2",
          "midi": 36,
          "duration": 1.02341,
          "velocity": 0.866142
        },
        {
          "time": 497.754449,
          "name": "C2",
          "midi": 36,
          "duration": 1.076536,
          "velocity": 0.88189
        },
        {
          "time": 497.754449,
          "name": "C3",
          "midi": 48,
          "duration": 1.076536,
          "velocity": 0.88189
        },
        {
          "time": 498.827936,
          "name": "C3",
          "midi": 48,
          "duration": 1.02341,
          "velocity": 0.866142
        },
        {
          "time": 498.827936,
          "name": "C2",
          "midi": 36,
          "duration": 1.02341,
          "velocity": 0.866142
        },
        {
          "time": 498.830985,
          "name": "C2",
          "midi": 36,
          "duration": 1.076536,
          "velocity": 0.88189
        },
        {
          "time": 498.830985,
          "name": "C3",
          "midi": 48,
          "duration": 1.076536,
          "velocity": 0.88189
        },
        {
          "time": 499.904472,
          "name": "C3",
          "midi": 48,
          "duration": 1.02341,
          "velocity": 0.866142
        },
        {
          "time": 499.904472,
          "name": "C2",
          "midi": 36,
          "duration": 1.02341,
          "velocity": 0.866142
        },
        {
          "time": 499.907521,
          "name": "C2",
          "midi": 36,
          "duration": 1.076536,
          "velocity": 0.88189
        },
        {
          "time": 499.907521,
          "name": "C3",
          "midi": 48,
          "duration": 1.076536,
          "velocity": 0.88189
        },
        {
          "time": 500.981008,
          "name": "C3",
          "midi": 48,
          "duration": 1.02341,
          "velocity": 0.866142
        },
        {
          "time": 500.981008,
          "name": "C2",
          "midi": 36,
          "duration": 1.02341,
          "velocity": 0.866142
        },
        {
          "time": 500.984057,
          "name": "C2",
          "midi": 36,
          "duration": 1.076536,
          "velocity": 0.88189
        },
        {
          "time": 500.984057,
          "name": "C3",
          "midi": 48,
          "duration": 1.076536,
          "velocity": 0.88189
        },
        {
          "time": 502.057544,
          "name": "C3",
          "midi": 48,
          "duration": 1.02341,
          "velocity": 0.866142
        },
        {
          "time": 502.057544,
          "name": "C2",
          "midi": 36,
          "duration": 1.02341,
          "velocity": 0.866142
        },
        {
          "time": 502.060593,
          "name": "C2",
          "midi": 36,
          "duration": 1.076536,
          "velocity": 0.88189
        },
        {
          "time": 502.060593,
          "name": "C3",
          "midi": 48,
          "duration": 1.076536,
          "velocity": 0.88189
        },
        {
          "time": 503.13408,
          "name": "C3",
          "midi": 48,
          "duration": 1.02341,
          "velocity": 0.866142
        },
        {
          "time": 503.13408,
          "name": "C2",
          "midi": 36,
          "duration": 1.02341,
          "velocity": 0.866142
        },
        {
          "time": 503.137129,
          "name": "C2",
          "midi": 36,
          "duration": 1.076536,
          "velocity": 0.88189
        },
        {
          "time": 503.137129,
          "name": "C3",
          "midi": 48,
          "duration": 1.076536,
          "velocity": 0.88189
        },
        {
          "time": 504.210616,
          "name": "C3",
          "midi": 48,
          "duration": 1.02341,
          "velocity": 0.866142
        },
        {
          "time": 504.210616,
          "name": "C2",
          "midi": 36,
          "duration": 1.02341,
          "velocity": 0.866142
        },
        {
          "time": 504.213665,
          "name": "C2",
          "midi": 36,
          "duration": 1.076536,
          "velocity": 0.88189
        },
        {
          "time": 504.213665,
          "name": "C3",
          "midi": 48,
          "duration": 1.076536,
          "velocity": 0.88189
        },
        {
          "time": 505.287152,
          "name": "C3",
          "midi": 48,
          "duration": 1.076365,
          "velocity": 0.866142
        },
        {
          "time": 505.287152,
          "name": "C2",
          "midi": 36,
          "duration": 1.076365,
          "velocity": 0.866142
        },
        {
          "time": 505.290201,
          "name": "C2",
          "midi": 36,
          "duration": 1.13647,
          "velocity": 0.88189
        },
        {
          "time": 505.290201,
          "name": "C3",
          "midi": 48,
          "duration": 1.13647,
          "velocity": 0.88189
        },
        {
          "time": 506.42667,
          "name": "F2",
          "midi": 41,
          "duration": 1.076536,
          "velocity": 0.88189
        },
        {
          "time": 507.503206,
          "name": "F2",
          "midi": 41,
          "duration": 1.076536,
          "velocity": 0.88189
        },
        {
          "time": 508.579742,
          "name": "F2",
          "midi": 41,
          "duration": 1.076536,
          "velocity": 0.88189
        },
        {
          "time": 509.656278,
          "name": "F2",
          "midi": 41,
          "duration": 1.076536,
          "velocity": 0.88189
        },
        {
          "time": 510.732814,
          "name": "F2",
          "midi": 41,
          "duration": 1.076536,
          "velocity": 0.88189
        },
        {
          "time": 511.80935,
          "name": "F2",
          "midi": 41,
          "duration": 1.076536,
          "velocity": 0.88189
        },
        {
          "time": 512.885886,
          "name": "F2",
          "midi": 41,
          "duration": 1.077943,
          "velocity": 0.88189
        },
        {
          "time": 513.963829,
          "name": "F2",
          "midi": 41,
          "duration": 0.385769,
          "velocity": 0.88189
        },
        {
          "time": 515.120239,
          "name": "A#2",
          "midi": 46,
          "duration": 0.384615,
          "velocity": 0.866142
        },
        {
          "time": 515.123444,
          "name": "A#2",
          "midi": 46,
          "duration": 0.384615,
          "velocity": 0.88189
        },
        {
          "time": 515.504854,
          "name": "A#3",
          "midi": 58,
          "duration": 0.381963,
          "velocity": 0.866142
        },
        {
          "time": 515.504854,
          "name": "F3",
          "midi": 53,
          "duration": 0.381963,
          "velocity": 0.866142
        },
        {
          "time": 515.886817,
          "name": "A#3",
          "midi": 58,
          "duration": 0.34748,
          "velocity": 0.866142
        },
        {
          "time": 515.886817,
          "name": "F3",
          "midi": 53,
          "duration": 0.34748,
          "velocity": 0.866142
        },
        {
          "time": 516.234297,
          "name": "A#2",
          "midi": 46,
          "duration": 0.384615,
          "velocity": 0.866142
        },
        {
          "time": 516.237502,
          "name": "A#2",
          "midi": 46,
          "duration": 0.384615,
          "velocity": 0.88189
        },
        {
          "time": 516.618912,
          "name": "A#3",
          "midi": 58,
          "duration": 0.381963,
          "velocity": 0.866142
        },
        {
          "time": 516.618912,
          "name": "F3",
          "midi": 53,
          "duration": 0.381963,
          "velocity": 0.866142
        },
        {
          "time": 517.000875,
          "name": "A#3",
          "midi": 58,
          "duration": 0.34748,
          "velocity": 0.866142
        },
        {
          "time": 517.000875,
          "name": "F3",
          "midi": 53,
          "duration": 0.34748,
          "velocity": 0.866142
        },
        {
          "time": 517.348355,
          "name": "A2",
          "midi": 45,
          "duration": 0.384615,
          "velocity": 0.866142
        },
        {
          "time": 517.35156,
          "name": "A2",
          "midi": 45,
          "duration": 1.114058,
          "velocity": 0.88189
        },
        {
          "time": 517.73297,
          "name": "F4",
          "midi": 65,
          "duration": 0.381963,
          "velocity": 0.866142
        },
        {
          "time": 517.73297,
          "name": "F3",
          "midi": 53,
          "duration": 0.381963,
          "velocity": 0.866142
        },
        {
          "time": 518.114933,
          "name": "F4",
          "midi": 65,
          "duration": 0.34748,
          "velocity": 0.866142
        },
        {
          "time": 518.114933,
          "name": "F3",
          "midi": 53,
          "duration": 0.34748,
          "velocity": 0.866142
        },
        {
          "time": 518.462413,
          "name": "G#2",
          "midi": 44,
          "duration": 0.384615,
          "velocity": 0.866142
        },
        {
          "time": 518.465618,
          "name": "G#2",
          "midi": 44,
          "duration": 1.114058,
          "velocity": 0.88189
        },
        {
          "time": 518.847028,
          "name": "F#4",
          "midi": 66,
          "duration": 0.381963,
          "velocity": 0.866142
        },
        {
          "time": 518.847028,
          "name": "C4",
          "midi": 60,
          "duration": 0.381963,
          "velocity": 0.866142
        },
        {
          "time": 519.228991,
          "name": "F#4",
          "midi": 66,
          "duration": 0.34748,
          "velocity": 0.866142
        },
        {
          "time": 519.228991,
          "name": "C4",
          "midi": 60,
          "duration": 0.34748,
          "velocity": 0.866142
        },
        {
          "time": 519.576471,
          "name": "G2",
          "midi": 43,
          "duration": 0.384615,
          "velocity": 0.866142
        },
        {
          "time": 519.579676,
          "name": "G2",
          "midi": 43,
          "duration": 1.114058,
          "velocity": 0.88189
        },
        {
          "time": 519.961086,
          "name": "G4",
          "midi": 67,
          "duration": 0.381963,
          "velocity": 0.866142
        },
        {
          "time": 519.961086,
          "name": "B3",
          "midi": 59,
          "duration": 0.381963,
          "velocity": 0.866142
        },
        {
          "time": 520.343049,
          "name": "G4",
          "midi": 67,
          "duration": 0.34748,
          "velocity": 0.866142
        },
        {
          "time": 520.343049,
          "name": "B3",
          "midi": 59,
          "duration": 0.34748,
          "velocity": 0.866142
        },
        {
          "time": 520.690529,
          "name": "B2",
          "midi": 47,
          "duration": 0.384615,
          "velocity": 0.866142
        },
        {
          "time": 520.693734,
          "name": "B2",
          "midi": 47,
          "duration": 1.114058,
          "velocity": 0.88189
        },
        {
          "time": 521.075144,
          "name": "G4",
          "midi": 67,
          "duration": 0.381963,
          "velocity": 0.866142
        },
        {
          "time": 521.075144,
          "name": "G3",
          "midi": 55,
          "duration": 0.381963,
          "velocity": 0.866142
        },
        {
          "time": 521.457107,
          "name": "G4",
          "midi": 67,
          "duration": 0.34748,
          "velocity": 0.866142
        },
        {
          "time": 521.457107,
          "name": "G3",
          "midi": 55,
          "duration": 0.34748,
          "velocity": 0.866142
        },
        {
          "time": 521.804587,
          "name": "C3",
          "midi": 48,
          "duration": 0.384615,
          "velocity": 0.866142
        },
        {
          "time": 521.807792,
          "name": "C3",
          "midi": 48,
          "duration": 0.766246,
          "velocity": 0.88189
        },
        {
          "time": 522.189202,
          "name": "G3",
          "midi": 55,
          "duration": 0.381963,
          "velocity": 0.866142
        },
        {
          "time": 522.189202,
          "name": "G4",
          "midi": 67,
          "duration": 0.381963,
          "velocity": 0.866142
        },
        {
          "time": 522.571165,
          "name": "G3",
          "midi": 55,
          "duration": 0.34748,
          "velocity": 0.866142
        },
        {
          "time": 522.571165,
          "name": "G4",
          "midi": 67,
          "duration": 0.34748,
          "velocity": 0.866142
        },
        {
          "time": 524.035908,
          "name": "D#3",
          "midi": 51,
          "duration": 0.384615,
          "velocity": 0.88189
        },
        {
          "time": 525.149966,
          "name": "D#3",
          "midi": 51,
          "duration": 0.384615,
          "velocity": 0.88189
        },
        {
          "time": 526.264024,
          "name": "F3",
          "midi": 53,
          "duration": 0.384615,
          "velocity": 0.88189
        },
        {
          "time": 527.378082,
          "name": "F3",
          "midi": 53,
          "duration": 0.384615,
          "velocity": 0.88189
        },
        {
          "time": 528.49214,
          "name": "F3",
          "midi": 53,
          "duration": 0.384615,
          "velocity": 0.88189
        },
        {
          "time": 529.606198,
          "name": "F3",
          "midi": 53,
          "duration": 0.384615,
          "velocity": 0.88189
        },
        {
          "time": 530.720256,
          "name": "A#2",
          "midi": 46,
          "duration": 0.384615,
          "velocity": 0.88189
        },
        {
          "time": 531.834314,
          "name": "B2",
          "midi": 47,
          "duration": 0.192308,
          "velocity": 0.88189
        },
        {
          "time": 532.218929,
          "name": "C3",
          "midi": 48,
          "duration": 0.192307,
          "velocity": 0.88189
        },
        {
          "time": 532.60056,
          "name": "F2",
          "midi": 41,
          "duration": 0.172414,
          "velocity": 0.88189
        },
        {
          "time": 532.945167,
          "name": "A#2",
          "midi": 46,
          "duration": 0.384615,
          "velocity": 0.866142
        },
        {
          "time": 532.948372,
          "name": "A#2",
          "midi": 46,
          "duration": 0.384615,
          "velocity": 0.88189
        },
        {
          "time": 533.329782,
          "name": "A#3",
          "midi": 58,
          "duration": 0.381963,
          "velocity": 0.866142
        },
        {
          "time": 533.329782,
          "name": "F3",
          "midi": 53,
          "duration": 0.381963,
          "velocity": 0.866142
        },
        {
          "time": 533.711745,
          "name": "A#3",
          "midi": 58,
          "duration": 0.34748,
          "velocity": 0.866142
        },
        {
          "time": 533.711745,
          "name": "F3",
          "midi": 53,
          "duration": 0.34748,
          "velocity": 0.866142
        },
        {
          "time": 534.059225,
          "name": "A#2",
          "midi": 46,
          "duration": 0.384615,
          "velocity": 0.866142
        },
        {
          "time": 534.06243,
          "name": "A#2",
          "midi": 46,
          "duration": 0.384615,
          "velocity": 0.88189
        },
        {
          "time": 534.44384,
          "name": "A#3",
          "midi": 58,
          "duration": 0.381963,
          "velocity": 0.866142
        },
        {
          "time": 534.44384,
          "name": "F3",
          "midi": 53,
          "duration": 0.381963,
          "velocity": 0.866142
        },
        {
          "time": 534.825803,
          "name": "A#3",
          "midi": 58,
          "duration": 0.34748,
          "velocity": 0.866142
        },
        {
          "time": 534.825803,
          "name": "F3",
          "midi": 53,
          "duration": 0.34748,
          "velocity": 0.866142
        },
        {
          "time": 535.173283,
          "name": "A2",
          "midi": 45,
          "duration": 0.384615,
          "velocity": 0.866142
        },
        {
          "time": 535.176488,
          "name": "A2",
          "midi": 45,
          "duration": 1.114058,
          "velocity": 0.88189
        },
        {
          "time": 535.557898,
          "name": "F4",
          "midi": 65,
          "duration": 0.381963,
          "velocity": 0.866142
        },
        {
          "time": 535.557898,
          "name": "F3",
          "midi": 53,
          "duration": 0.381963,
          "velocity": 0.866142
        },
        {
          "time": 535.939861,
          "name": "F4",
          "midi": 65,
          "duration": 0.34748,
          "velocity": 0.866142
        },
        {
          "time": 535.939861,
          "name": "F3",
          "midi": 53,
          "duration": 0.34748,
          "velocity": 0.866142
        },
        {
          "time": 536.287341,
          "name": "G#2",
          "midi": 44,
          "duration": 0.384615,
          "velocity": 0.866142
        },
        {
          "time": 536.290546,
          "name": "G#2",
          "midi": 44,
          "duration": 1.114058,
          "velocity": 0.88189
        },
        {
          "time": 536.671956,
          "name": "F#4",
          "midi": 66,
          "duration": 0.381963,
          "velocity": 0.866142
        },
        {
          "time": 536.671956,
          "name": "C4",
          "midi": 60,
          "duration": 0.381963,
          "velocity": 0.866142
        },
        {
          "time": 537.053919,
          "name": "F#4",
          "midi": 66,
          "duration": 0.34748,
          "velocity": 0.866142
        },
        {
          "time": 537.053919,
          "name": "C4",
          "midi": 60,
          "duration": 0.34748,
          "velocity": 0.866142
        },
        {
          "time": 537.401399,
          "name": "G2",
          "midi": 43,
          "duration": 0.384615,
          "velocity": 0.866142
        },
        {
          "time": 537.404604,
          "name": "G2",
          "midi": 43,
          "duration": 1.114058,
          "velocity": 0.88189
        },
        {
          "time": 537.786014,
          "name": "G4",
          "midi": 67,
          "duration": 0.381963,
          "velocity": 0.866142
        },
        {
          "time": 537.786014,
          "name": "B3",
          "midi": 59,
          "duration": 0.381963,
          "velocity": 0.866142
        },
        {
          "time": 538.167977,
          "name": "G4",
          "midi": 67,
          "duration": 0.34748,
          "velocity": 0.866142
        },
        {
          "time": 538.167977,
          "name": "B3",
          "midi": 59,
          "duration": 0.34748,
          "velocity": 0.866142
        },
        {
          "time": 538.515457,
          "name": "B2",
          "midi": 47,
          "duration": 0.384615,
          "velocity": 0.866142
        },
        {
          "time": 538.518662,
          "name": "B2",
          "midi": 47,
          "duration": 1.114058,
          "velocity": 0.88189
        },
        {
          "time": 538.900072,
          "name": "G4",
          "midi": 67,
          "duration": 0.381963,
          "velocity": 0.866142
        },
        {
          "time": 538.900072,
          "name": "G3",
          "midi": 55,
          "duration": 0.381963,
          "velocity": 0.866142
        },
        {
          "time": 539.282035,
          "name": "G4",
          "midi": 67,
          "duration": 0.34748,
          "velocity": 0.866142
        },
        {
          "time": 539.282035,
          "name": "G3",
          "midi": 55,
          "duration": 0.34748,
          "velocity": 0.866142
        },
        {
          "time": 539.629515,
          "name": "C3",
          "midi": 48,
          "duration": 0.384615,
          "velocity": 0.866142
        },
        {
          "time": 539.63272,
          "name": "C3",
          "midi": 48,
          "duration": 0.766246,
          "velocity": 0.88189
        },
        {
          "time": 540.01413,
          "name": "G3",
          "midi": 55,
          "duration": 0.381963,
          "velocity": 0.866142
        },
        {
          "time": 540.01413,
          "name": "G4",
          "midi": 67,
          "duration": 0.381963,
          "velocity": 0.866142
        },
        {
          "time": 540.396093,
          "name": "G3",
          "midi": 55,
          "duration": 0.34748,
          "velocity": 0.866142
        },
        {
          "time": 540.396093,
          "name": "G4",
          "midi": 67,
          "duration": 0.34748,
          "velocity": 0.866142
        },
        {
          "time": 541.860836,
          "name": "D#3",
          "midi": 51,
          "duration": 0.384615,
          "velocity": 0.88189
        },
        {
          "time": 542.974894,
          "name": "D#3",
          "midi": 51,
          "duration": 0.384615,
          "velocity": 0.88189
        },
        {
          "time": 544.088952,
          "name": "F3",
          "midi": 53,
          "duration": 0.384615,
          "velocity": 0.88189
        },
        {
          "time": 545.20301,
          "name": "F3",
          "midi": 53,
          "duration": 0.384615,
          "velocity": 0.88189
        },
        {
          "time": 546.317068,
          "name": "F3",
          "midi": 53,
          "duration": 0.346154,
          "velocity": 0.88189
        },
        {
          "time": 547.431126,
          "name": "F3",
          "midi": 53,
          "duration": 0.346154,
          "velocity": 0.88189
        },
        {
          "time": 548.543124,
          "name": "A#2",
          "midi": 46,
          "duration": 0.355497,
          "velocity": 0.88189
        },
        {
          "time": 548.895828,
          "name": "D4",
          "midi": 62,
          "duration": 0.301676,
          "velocity": 0.866142
        },
        {
          "time": 548.895828,
          "name": "D3",
          "midi": 50,
          "duration": 0.301676,
          "velocity": 0.866142
        },
        {
          "time": 548.898621,
          "name": "D4",
          "midi": 62,
          "duration": 0.301676,
          "velocity": 0.88189
        },
        {
          "time": 549.231024,
          "name": "D4",
          "midi": 62,
          "duration": 0.301676,
          "velocity": 0.866142
        },
        {
          "time": 549.231024,
          "name": "D3",
          "midi": 50,
          "duration": 0.301676,
          "velocity": 0.866142
        },
        {
          "time": 549.233817,
          "name": "D4",
          "midi": 62,
          "duration": 0.301676,
          "velocity": 0.88189
        },
        {
          "time": 549.567062,
          "name": "D3",
          "midi": 50,
          "duration": 1.179943,
          "velocity": 0.866142
        },
        {
          "time": 549.567062,
          "name": "D4",
          "midi": 62,
          "duration": 1.179943,
          "velocity": 0.866142
        },
        {
          "time": 549.56996,
          "name": "D4",
          "midi": 62,
          "duration": 1.156871,
          "velocity": 0.88189
        },
        {
          "time": 550.747004,
          "name": "D4",
          "midi": 62,
          "duration": 0.171419,
          "velocity": 0.866142
        },
        {
          "time": 550.747004,
          "name": "D3",
          "midi": 50,
          "duration": 0.171419,
          "velocity": 0.866142
        },
        {
          "time": 550.749886,
          "name": "D3",
          "midi": 50,
          "duration": 0.171233,
          "velocity": 0.88189
        },
        {
          "time": 550.918424,
          "name": "E4",
          "midi": 64,
          "duration": 0.161725,
          "velocity": 0.866142
        },
        {
          "time": 550.918424,
          "name": "E3",
          "midi": 52,
          "duration": 0.161725,
          "velocity": 0.866142
        },
        {
          "time": 550.921119,
          "name": "E3",
          "midi": 52,
          "duration": 0.161725,
          "velocity": 0.88189
        },
        {
          "time": 551.080149,
          "name": "D4",
          "midi": 62,
          "duration": 0.161725,
          "velocity": 0.866142
        },
        {
          "time": 551.080149,
          "name": "D3",
          "midi": 50,
          "duration": 0.161725,
          "velocity": 0.866142
        },
        {
          "time": 551.082844,
          "name": "D3",
          "midi": 50,
          "duration": 0.161725,
          "velocity": 0.88189
        },
        {
          "time": 551.241874,
          "name": "C4",
          "midi": 60,
          "duration": 0.161725,
          "velocity": 0.866142
        },
        {
          "time": 551.241874,
          "name": "C3",
          "midi": 48,
          "duration": 0.161725,
          "velocity": 0.866142
        },
        {
          "time": 551.244569,
          "name": "C3",
          "midi": 48,
          "duration": 0.161725,
          "velocity": 0.88189
        },
        {
          "time": 551.403599,
          "name": "B3",
          "midi": 59,
          "duration": 0.161725,
          "velocity": 0.866142
        },
        {
          "time": 551.403599,
          "name": "B2",
          "midi": 47,
          "duration": 0.161725,
          "velocity": 0.866142
        },
        {
          "time": 551.406294,
          "name": "B2",
          "midi": 47,
          "duration": 0.161725,
          "velocity": 0.88189
        },
        {
          "time": 551.565324,
          "name": "C3",
          "midi": 48,
          "duration": 0.291105,
          "velocity": 0.866142
        },
        {
          "time": 551.565324,
          "name": "C4",
          "midi": 60,
          "duration": 0.291105,
          "velocity": 0.866142
        },
        {
          "time": 551.568019,
          "name": "C3",
          "midi": 48,
          "duration": 0.291105,
          "velocity": 0.88189
        },
        {
          "time": 551.888774,
          "name": "A2",
          "midi": 45,
          "duration": 0.291105,
          "velocity": 0.866142
        },
        {
          "time": 551.888774,
          "name": "A3",
          "midi": 57,
          "duration": 0.291105,
          "velocity": 0.866142
        },
        {
          "time": 551.891469,
          "name": "A2",
          "midi": 45,
          "duration": 0.291105,
          "velocity": 0.88189
        },
        {
          "time": 552.212224,
          "name": "D3",
          "midi": 50,
          "duration": 0.291105,
          "velocity": 0.866142
        },
        {
          "time": 552.212224,
          "name": "D4",
          "midi": 62,
          "duration": 0.291105,
          "velocity": 0.866142
        },
        {
          "time": 552.214919,
          "name": "D3",
          "midi": 50,
          "duration": 0.291105,
          "velocity": 0.88189
        },
        {
          "time": 554.010267,
          "name": "G2",
          "midi": 43,
          "duration": 0.193548,
          "velocity": 0.866142
        },
        {
          "time": 554.207041,
          "name": "B3",
          "midi": 59,
          "duration": 0.191707,
          "velocity": 0.88189
        },
        {
          "time": 554.207041,
          "name": "D3",
          "midi": 50,
          "duration": 0.191707,
          "velocity": 0.88189
        },
        {
          "time": 554.207041,
          "name": "G2",
          "midi": 43,
          "duration": 0.191707,
          "velocity": 0.88189
        },
        {
          "time": 554.395726,
          "name": "G2",
          "midi": 43,
          "duration": 0.181269,
          "velocity": 0.866142
        },
        {
          "time": 554.580017,
          "name": "B3",
          "midi": 59,
          "duration": 0.183111,
          "velocity": 0.88189
        },
        {
          "time": 554.580017,
          "name": "D3",
          "midi": 50,
          "duration": 0.183111,
          "velocity": 0.88189
        },
        {
          "time": 554.580017,
          "name": "G2",
          "midi": 43,
          "duration": 0.183111,
          "velocity": 0.88189
        },
        {
          "time": 554.759902,
          "name": "G2",
          "midi": 43,
          "duration": 0.193548,
          "velocity": 0.866142
        },
        {
          "time": 554.956676,
          "name": "B3",
          "midi": 59,
          "duration": 0.191707,
          "velocity": 0.88189
        },
        {
          "time": 554.956676,
          "name": "D3",
          "midi": 50,
          "duration": 0.191707,
          "velocity": 0.88189
        },
        {
          "time": 554.956676,
          "name": "G2",
          "midi": 43,
          "duration": 0.191707,
          "velocity": 0.88189
        },
        {
          "time": 555.145361,
          "name": "G2",
          "midi": 43,
          "duration": 0.181269,
          "velocity": 0.866142
        },
        {
          "time": 555.329652,
          "name": "B3",
          "midi": 59,
          "duration": 0.183111,
          "velocity": 0.88189
        },
        {
          "time": 555.329652,
          "name": "D3",
          "midi": 50,
          "duration": 0.183111,
          "velocity": 0.88189
        },
        {
          "time": 555.329652,
          "name": "G2",
          "midi": 43,
          "duration": 0.183111,
          "velocity": 0.88189
        },
        {
          "time": 555.509537,
          "name": "G2",
          "midi": 43,
          "duration": 0.193548,
          "velocity": 0.866142
        },
        {
          "time": 555.706311,
          "name": "B3",
          "midi": 59,
          "duration": 0.191707,
          "velocity": 0.88189
        },
        {
          "time": 555.706311,
          "name": "D3",
          "midi": 50,
          "duration": 0.191707,
          "velocity": 0.88189
        },
        {
          "time": 555.706311,
          "name": "G2",
          "midi": 43,
          "duration": 0.191707,
          "velocity": 0.88189
        },
        {
          "time": 555.894996,
          "name": "G2",
          "midi": 43,
          "duration": 0.181269,
          "velocity": 0.866142
        },
        {
          "time": 556.079287,
          "name": "B3",
          "midi": 59,
          "duration": 0.183111,
          "velocity": 0.88189
        },
        {
          "time": 556.079287,
          "name": "D3",
          "midi": 50,
          "duration": 0.183111,
          "velocity": 0.88189
        },
        {
          "time": 556.079287,
          "name": "G2",
          "midi": 43,
          "duration": 0.183111,
          "velocity": 0.88189
        },
        {
          "time": 556.259172,
          "name": "G2",
          "midi": 43,
          "duration": 0.193548,
          "velocity": 0.866142
        },
        {
          "time": 556.455946,
          "name": "C4",
          "midi": 60,
          "duration": 0.191707,
          "velocity": 0.88189
        },
        {
          "time": 556.455946,
          "name": "D3",
          "midi": 50,
          "duration": 0.191707,
          "velocity": 0.88189
        },
        {
          "time": 556.455946,
          "name": "G2",
          "midi": 43,
          "duration": 0.191707,
          "velocity": 0.88189
        },
        {
          "time": 556.644631,
          "name": "G2",
          "midi": 43,
          "duration": 0.181269,
          "velocity": 0.866142
        },
        {
          "time": 556.828922,
          "name": "C4",
          "midi": 60,
          "duration": 0.183111,
          "velocity": 0.88189
        },
        {
          "time": 556.828922,
          "name": "D3",
          "midi": 50,
          "duration": 0.183111,
          "velocity": 0.88189
        },
        {
          "time": 556.828922,
          "name": "G2",
          "midi": 43,
          "duration": 0.183111,
          "velocity": 0.88189
        },
        {
          "time": 557.008807,
          "name": "G2",
          "midi": 43,
          "duration": 0.193548,
          "velocity": 0.866142
        },
        {
          "time": 557.205581,
          "name": "B3",
          "midi": 59,
          "duration": 0.191707,
          "velocity": 0.88189
        },
        {
          "time": 557.205581,
          "name": "D3",
          "midi": 50,
          "duration": 0.191707,
          "velocity": 0.88189
        },
        {
          "time": 557.205581,
          "name": "G2",
          "midi": 43,
          "duration": 0.191707,
          "velocity": 0.88189
        },
        {
          "time": 557.394266,
          "name": "G2",
          "midi": 43,
          "duration": 0.181269,
          "velocity": 0.866142
        },
        {
          "time": 557.578557,
          "name": "B3",
          "midi": 59,
          "duration": 0.183111,
          "velocity": 0.88189
        },
        {
          "time": 557.578557,
          "name": "D3",
          "midi": 50,
          "duration": 0.183111,
          "velocity": 0.88189
        },
        {
          "time": 557.578557,
          "name": "G2",
          "midi": 43,
          "duration": 0.183111,
          "velocity": 0.88189
        },
        {
          "time": 557.758442,
          "name": "G2",
          "midi": 43,
          "duration": 0.193548,
          "velocity": 0.866142
        },
        {
          "time": 557.955216,
          "name": "B3",
          "midi": 59,
          "duration": 0.191707,
          "velocity": 0.88189
        },
        {
          "time": 557.955216,
          "name": "D3",
          "midi": 50,
          "duration": 0.191707,
          "velocity": 0.88189
        },
        {
          "time": 557.955216,
          "name": "G2",
          "midi": 43,
          "duration": 0.191707,
          "velocity": 0.88189
        },
        {
          "time": 558.143901,
          "name": "G2",
          "midi": 43,
          "duration": 0.181269,
          "velocity": 0.866142
        },
        {
          "time": 558.328192,
          "name": "B3",
          "midi": 59,
          "duration": 0.183111,
          "velocity": 0.88189
        },
        {
          "time": 558.328192,
          "name": "D3",
          "midi": 50,
          "duration": 0.183111,
          "velocity": 0.88189
        },
        {
          "time": 558.328192,
          "name": "G2",
          "midi": 43,
          "duration": 0.183111,
          "velocity": 0.88189
        },
        {
          "time": 558.508077,
          "name": "G2",
          "midi": 43,
          "duration": 0.193548,
          "velocity": 0.866142
        },
        {
          "time": 558.704851,
          "name": "D4",
          "midi": 62,
          "duration": 0.191707,
          "velocity": 0.88189
        },
        {
          "time": 558.704851,
          "name": "D3",
          "midi": 50,
          "duration": 0.191707,
          "velocity": 0.88189
        },
        {
          "time": 558.704851,
          "name": "G2",
          "midi": 43,
          "duration": 0.191707,
          "velocity": 0.88189
        },
        {
          "time": 558.893536,
          "name": "G2",
          "midi": 43,
          "duration": 0.181269,
          "velocity": 0.866142
        },
        {
          "time": 559.077827,
          "name": "D4",
          "midi": 62,
          "duration": 0.183111,
          "velocity": 0.88189
        },
        {
          "time": 559.077827,
          "name": "D3",
          "midi": 50,
          "duration": 0.183111,
          "velocity": 0.88189
        },
        {
          "time": 559.077827,
          "name": "G2",
          "midi": 43,
          "duration": 0.183111,
          "velocity": 0.88189
        },
        {
          "time": 559.257712,
          "name": "G2",
          "midi": 43,
          "duration": 0.193548,
          "velocity": 0.866142
        },
        {
          "time": 559.454486,
          "name": "D4",
          "midi": 62,
          "duration": 0.191707,
          "velocity": 0.88189
        },
        {
          "time": 559.454486,
          "name": "D3",
          "midi": 50,
          "duration": 0.191707,
          "velocity": 0.88189
        },
        {
          "time": 559.454486,
          "name": "G2",
          "midi": 43,
          "duration": 0.191707,
          "velocity": 0.88189
        },
        {
          "time": 559.643171,
          "name": "G2",
          "midi": 43,
          "duration": 0.181269,
          "velocity": 0.866142
        },
        {
          "time": 559.827462,
          "name": "D4",
          "midi": 62,
          "duration": 0.183111,
          "velocity": 0.88189
        },
        {
          "time": 559.827462,
          "name": "D3",
          "midi": 50,
          "duration": 0.183111,
          "velocity": 0.88189
        },
        {
          "time": 559.827462,
          "name": "G2",
          "midi": 43,
          "duration": 0.183111,
          "velocity": 0.88189
        },
        {
          "time": 560.007347,
          "name": "G2",
          "midi": 43,
          "duration": 0.193548,
          "velocity": 0.866142
        },
        {
          "time": 560.204121,
          "name": "B3",
          "midi": 59,
          "duration": 0.191707,
          "velocity": 0.88189
        },
        {
          "time": 560.204121,
          "name": "D3",
          "midi": 50,
          "duration": 0.191707,
          "velocity": 0.88189
        },
        {
          "time": 560.204121,
          "name": "G2",
          "midi": 43,
          "duration": 0.191707,
          "velocity": 0.88189
        },
        {
          "time": 560.392806,
          "name": "G2",
          "midi": 43,
          "duration": 0.181269,
          "velocity": 0.866142
        },
        {
          "time": 560.577097,
          "name": "C#4",
          "midi": 61,
          "duration": 0.183111,
          "velocity": 0.88189
        },
        {
          "time": 560.577097,
          "name": "D3",
          "midi": 50,
          "duration": 0.183111,
          "velocity": 0.88189
        },
        {
          "time": 560.577097,
          "name": "G2",
          "midi": 43,
          "duration": 0.183111,
          "velocity": 0.88189
        },
        {
          "time": 560.756982,
          "name": "G2",
          "midi": 43,
          "duration": 0.193548,
          "velocity": 0.866142
        },
        {
          "time": 560.953756,
          "name": "D4",
          "midi": 62,
          "duration": 0.191707,
          "velocity": 0.88189
        },
        {
          "time": 560.953756,
          "name": "D3",
          "midi": 50,
          "duration": 0.191707,
          "velocity": 0.88189
        },
        {
          "time": 560.953756,
          "name": "G2",
          "midi": 43,
          "duration": 0.191707,
          "velocity": 0.88189
        },
        {
          "time": 561.142441,
          "name": "G2",
          "midi": 43,
          "duration": 0.181269,
          "velocity": 0.866142
        },
        {
          "time": 561.326732,
          "name": "B3",
          "midi": 59,
          "duration": 0.183111,
          "velocity": 0.88189
        },
        {
          "time": 561.326732,
          "name": "D3",
          "midi": 50,
          "duration": 0.183111,
          "velocity": 0.88189
        },
        {
          "time": 561.326732,
          "name": "G2",
          "midi": 43,
          "duration": 0.183111,
          "velocity": 0.88189
        },
        {
          "time": 561.506617,
          "name": "G2",
          "midi": 43,
          "duration": 0.193548,
          "velocity": 0.866142
        },
        {
          "time": 561.703391,
          "name": "B3",
          "midi": 59,
          "duration": 0.191707,
          "velocity": 0.88189
        },
        {
          "time": 561.703391,
          "name": "D3",
          "midi": 50,
          "duration": 0.191707,
          "velocity": 0.88189
        },
        {
          "time": 561.703391,
          "name": "G2",
          "midi": 43,
          "duration": 0.191707,
          "velocity": 0.88189
        },
        {
          "time": 561.892076,
          "name": "G2",
          "midi": 43,
          "duration": 0.181269,
          "velocity": 0.866142
        },
        {
          "time": 562.076367,
          "name": "B3",
          "midi": 59,
          "duration": 0.183111,
          "velocity": 0.88189
        },
        {
          "time": 562.076367,
          "name": "D3",
          "midi": 50,
          "duration": 0.183111,
          "velocity": 0.88189
        },
        {
          "time": 562.076367,
          "name": "G2",
          "midi": 43,
          "duration": 0.183111,
          "velocity": 0.88189
        },
        {
          "time": 562.256252,
          "name": "G2",
          "midi": 43,
          "duration": 0.193548,
          "velocity": 0.866142
        },
        {
          "time": 562.453026,
          "name": "C4",
          "midi": 60,
          "duration": 0.191707,
          "velocity": 0.88189
        },
        {
          "time": 562.453026,
          "name": "D3",
          "midi": 50,
          "duration": 0.191707,
          "velocity": 0.88189
        },
        {
          "time": 562.453026,
          "name": "G2",
          "midi": 43,
          "duration": 0.191707,
          "velocity": 0.88189
        },
        {
          "time": 562.641711,
          "name": "G2",
          "midi": 43,
          "duration": 0.181269,
          "velocity": 0.866142
        },
        {
          "time": 562.826002,
          "name": "C4",
          "midi": 60,
          "duration": 0.183111,
          "velocity": 0.88189
        },
        {
          "time": 562.826002,
          "name": "D3",
          "midi": 50,
          "duration": 0.183111,
          "velocity": 0.88189
        },
        {
          "time": 562.826002,
          "name": "G2",
          "midi": 43,
          "duration": 0.183111,
          "velocity": 0.88189
        },
        {
          "time": 563.005887,
          "name": "G2",
          "midi": 43,
          "duration": 0.193548,
          "velocity": 0.866142
        },
        {
          "time": 563.202661,
          "name": "B3",
          "midi": 59,
          "duration": 0.191707,
          "velocity": 0.88189
        },
        {
          "time": 563.202661,
          "name": "D3",
          "midi": 50,
          "duration": 0.191707,
          "velocity": 0.88189
        },
        {
          "time": 563.202661,
          "name": "G2",
          "midi": 43,
          "duration": 0.191707,
          "velocity": 0.88189
        },
        {
          "time": 563.391346,
          "name": "G2",
          "midi": 43,
          "duration": 0.181269,
          "velocity": 0.866142
        },
        {
          "time": 563.575637,
          "name": "B3",
          "midi": 59,
          "duration": 0.183111,
          "velocity": 0.88189
        },
        {
          "time": 563.575637,
          "name": "D3",
          "midi": 50,
          "duration": 0.183111,
          "velocity": 0.88189
        },
        {
          "time": 563.575637,
          "name": "G2",
          "midi": 43,
          "duration": 0.183111,
          "velocity": 0.88189
        },
        {
          "time": 563.755522,
          "name": "G2",
          "midi": 43,
          "duration": 0.193548,
          "velocity": 0.866142
        },
        {
          "time": 563.952296,
          "name": "B3",
          "midi": 59,
          "duration": 0.191707,
          "velocity": 0.88189
        },
        {
          "time": 563.952296,
          "name": "D3",
          "midi": 50,
          "duration": 0.191707,
          "velocity": 0.88189
        },
        {
          "time": 563.952296,
          "name": "G2",
          "midi": 43,
          "duration": 0.191707,
          "velocity": 0.88189
        },
        {
          "time": 564.140981,
          "name": "G2",
          "midi": 43,
          "duration": 0.181269,
          "velocity": 0.866142
        },
        {
          "time": 564.325272,
          "name": "B3",
          "midi": 59,
          "duration": 0.183111,
          "velocity": 0.88189
        },
        {
          "time": 564.325272,
          "name": "D3",
          "midi": 50,
          "duration": 0.183111,
          "velocity": 0.88189
        },
        {
          "time": 564.325272,
          "name": "G2",
          "midi": 43,
          "duration": 0.183111,
          "velocity": 0.88189
        },
        {
          "time": 564.505157,
          "name": "A2",
          "midi": 45,
          "duration": 0.193548,
          "velocity": 0.866142
        },
        {
          "time": 564.701931,
          "name": "C#4",
          "midi": 61,
          "duration": 0.191707,
          "velocity": 0.88189
        },
        {
          "time": 564.701931,
          "name": "E3",
          "midi": 52,
          "duration": 0.191707,
          "velocity": 0.88189
        },
        {
          "time": 564.701931,
          "name": "A2",
          "midi": 45,
          "duration": 0.191707,
          "velocity": 0.88189
        },
        {
          "time": 564.890616,
          "name": "A2",
          "midi": 45,
          "duration": 0.181269,
          "velocity": 0.866142
        },
        {
          "time": 565.074907,
          "name": "C#4",
          "midi": 61,
          "duration": 0.183111,
          "velocity": 0.88189
        },
        {
          "time": 565.074907,
          "name": "E3",
          "midi": 52,
          "duration": 0.183111,
          "velocity": 0.88189
        },
        {
          "time": 565.074907,
          "name": "A2",
          "midi": 45,
          "duration": 0.183111,
          "velocity": 0.88189
        },
        {
          "time": 565.254792,
          "name": "A2",
          "midi": 45,
          "duration": 0.193548,
          "velocity": 0.866142
        },
        {
          "time": 565.451566,
          "name": "C#4",
          "midi": 61,
          "duration": 0.191707,
          "velocity": 0.88189
        },
        {
          "time": 565.451566,
          "name": "E3",
          "midi": 52,
          "duration": 0.191707,
          "velocity": 0.88189
        },
        {
          "time": 565.451566,
          "name": "A2",
          "midi": 45,
          "duration": 0.191707,
          "velocity": 0.88189
        },
        {
          "time": 565.640251,
          "name": "A2",
          "midi": 45,
          "duration": 0.181269,
          "velocity": 0.866142
        },
        {
          "time": 565.824542,
          "name": "C#4",
          "midi": 61,
          "duration": 0.183111,
          "velocity": 0.88189
        },
        {
          "time": 565.824542,
          "name": "E3",
          "midi": 52,
          "duration": 0.183111,
          "velocity": 0.88189
        },
        {
          "time": 565.824542,
          "name": "A2",
          "midi": 45,
          "duration": 0.183111,
          "velocity": 0.88189
        },
        {
          "time": 566.004427,
          "name": "D3",
          "midi": 50,
          "duration": 0.193548,
          "velocity": 0.866142
        },
        {
          "time": 566.004427,
          "name": "D2",
          "midi": 38,
          "duration": 0.193548,
          "velocity": 0.866142
        },
        {
          "time": 566.201201,
          "name": "A2",
          "midi": 45,
          "duration": 0.191707,
          "velocity": 0.88189
        },
        {
          "time": 566.201201,
          "name": "F#3",
          "midi": 54,
          "duration": 0.191707,
          "velocity": 0.88189
        },
        {
          "time": 566.201201,
          "name": "D4",
          "midi": 62,
          "duration": 0.191707,
          "velocity": 0.88189
        },
        {
          "time": 566.201201,
          "name": "D2",
          "midi": 38,
          "duration": 0.191707,
          "velocity": 0.88189
        },
        {
          "time": 566.389886,
          "name": "D3",
          "midi": 50,
          "duration": 0.181269,
          "velocity": 0.866142
        },
        {
          "time": 566.389886,
          "name": "D2",
          "midi": 38,
          "duration": 0.181269,
          "velocity": 0.866142
        },
        {
          "time": 566.574177,
          "name": "A2",
          "midi": 45,
          "duration": 0.183111,
          "velocity": 0.88189
        },
        {
          "time": 566.574177,
          "name": "F#3",
          "midi": 54,
          "duration": 0.183111,
          "velocity": 0.88189
        },
        {
          "time": 566.574177,
          "name": "D4",
          "midi": 62,
          "duration": 0.183111,
          "velocity": 0.88189
        },
        {
          "time": 566.574177,
          "name": "D2",
          "midi": 38,
          "duration": 0.183111,
          "velocity": 0.88189
        },
        {
          "time": 566.754062,
          "name": "D3",
          "midi": 50,
          "duration": 0.193548,
          "velocity": 0.866142
        },
        {
          "time": 566.754062,
          "name": "D2",
          "midi": 38,
          "duration": 0.193548,
          "velocity": 0.866142
        },
        {
          "time": 566.757288,
          "name": "D3",
          "midi": 50,
          "duration": 0.193549,
          "velocity": 0.88189
        },
        {
          "time": 567.503697,
          "name": "G2",
          "midi": 43,
          "duration": 0.193548,
          "velocity": 0.866142
        },
        {
          "time": 567.700471,
          "name": "B3",
          "midi": 59,
          "duration": 0.191707,
          "velocity": 0.88189
        },
        {
          "time": 567.700471,
          "name": "D3",
          "midi": 50,
          "duration": 0.191707,
          "velocity": 0.88189
        },
        {
          "time": 567.700471,
          "name": "G2",
          "midi": 43,
          "duration": 0.191707,
          "velocity": 0.88189
        },
        {
          "time": 567.889156,
          "name": "G2",
          "midi": 43,
          "duration": 0.181269,
          "velocity": 0.866142
        },
        {
          "time": 568.073447,
          "name": "B3",
          "midi": 59,
          "duration": 0.183111,
          "velocity": 0.88189
        },
        {
          "time": 568.073447,
          "name": "D3",
          "midi": 50,
          "duration": 0.183111,
          "velocity": 0.88189
        },
        {
          "time": 568.073447,
          "name": "G2",
          "midi": 43,
          "duration": 0.183111,
          "velocity": 0.88189
        },
        {
          "time": 568.253332,
          "name": "G2",
          "midi": 43,
          "duration": 0.193548,
          "velocity": 0.866142
        },
        {
          "time": 568.450106,
          "name": "C4",
          "midi": 60,
          "duration": 0.191707,
          "velocity": 0.88189
        },
        {
          "time": 568.450106,
          "name": "D3",
          "midi": 50,
          "duration": 0.191707,
          "velocity": 0.88189
        },
        {
          "time": 568.450106,
          "name": "G2",
          "midi": 43,
          "duration": 0.191707,
          "velocity": 0.88189
        },
        {
          "time": 568.638791,
          "name": "G2",
          "midi": 43,
          "duration": 0.181269,
          "velocity": 0.866142
        },
        {
          "time": 568.823082,
          "name": "C4",
          "midi": 60,
          "duration": 0.183111,
          "velocity": 0.88189
        },
        {
          "time": 568.823082,
          "name": "D3",
          "midi": 50,
          "duration": 0.183111,
          "velocity": 0.88189
        },
        {
          "time": 568.823082,
          "name": "G2",
          "midi": 43,
          "duration": 0.183111,
          "velocity": 0.88189
        },
        {
          "time": 569.002967,
          "name": "G2",
          "midi": 43,
          "duration": 0.193548,
          "velocity": 0.866142
        },
        {
          "time": 569.199741,
          "name": "B3",
          "midi": 59,
          "duration": 0.191707,
          "velocity": 0.88189
        },
        {
          "time": 569.199741,
          "name": "D3",
          "midi": 50,
          "duration": 0.191707,
          "velocity": 0.88189
        },
        {
          "time": 569.199741,
          "name": "G2",
          "midi": 43,
          "duration": 0.191707,
          "velocity": 0.88189
        },
        {
          "time": 569.388426,
          "name": "G2",
          "midi": 43,
          "duration": 0.181269,
          "velocity": 0.866142
        },
        {
          "time": 569.572717,
          "name": "B3",
          "midi": 59,
          "duration": 0.183111,
          "velocity": 0.88189
        },
        {
          "time": 569.572717,
          "name": "D3",
          "midi": 50,
          "duration": 0.183111,
          "velocity": 0.88189
        },
        {
          "time": 569.572717,
          "name": "G2",
          "midi": 43,
          "duration": 0.183111,
          "velocity": 0.88189
        },
        {
          "time": 569.752602,
          "name": "G2",
          "midi": 43,
          "duration": 0.193548,
          "velocity": 0.866142
        },
        {
          "time": 569.949376,
          "name": "B3",
          "midi": 59,
          "duration": 0.191707,
          "velocity": 0.88189
        },
        {
          "time": 569.949376,
          "name": "D3",
          "midi": 50,
          "duration": 0.191707,
          "velocity": 0.88189
        },
        {
          "time": 569.949376,
          "name": "G2",
          "midi": 43,
          "duration": 0.191707,
          "velocity": 0.88189
        },
        {
          "time": 570.138061,
          "name": "G2",
          "midi": 43,
          "duration": 0.181269,
          "velocity": 0.866142
        },
        {
          "time": 570.322352,
          "name": "B3",
          "midi": 59,
          "duration": 0.183111,
          "velocity": 0.88189
        },
        {
          "time": 570.322352,
          "name": "D3",
          "midi": 50,
          "duration": 0.183111,
          "velocity": 0.88189
        },
        {
          "time": 570.322352,
          "name": "G2",
          "midi": 43,
          "duration": 0.183111,
          "velocity": 0.88189
        },
        {
          "time": 570.502237,
          "name": "G2",
          "midi": 43,
          "duration": 0.193548,
          "velocity": 0.866142
        },
        {
          "time": 570.699011,
          "name": "D4",
          "midi": 62,
          "duration": 0.191707,
          "velocity": 0.88189
        },
        {
          "time": 570.699011,
          "name": "D3",
          "midi": 50,
          "duration": 0.191707,
          "velocity": 0.88189
        },
        {
          "time": 570.699011,
          "name": "G2",
          "midi": 43,
          "duration": 0.191707,
          "velocity": 0.88189
        },
        {
          "time": 570.887696,
          "name": "G2",
          "midi": 43,
          "duration": 0.181269,
          "velocity": 0.866142
        },
        {
          "time": 571.071987,
          "name": "D4",
          "midi": 62,
          "duration": 0.183111,
          "velocity": 0.88189
        },
        {
          "time": 571.071987,
          "name": "D3",
          "midi": 50,
          "duration": 0.183111,
          "velocity": 0.88189
        },
        {
          "time": 571.071987,
          "name": "G2",
          "midi": 43,
          "duration": 0.183111,
          "velocity": 0.88189
        },
        {
          "time": 571.251872,
          "name": "G2",
          "midi": 43,
          "duration": 0.193548,
          "velocity": 0.866142
        },
        {
          "time": 571.448646,
          "name": "D4",
          "midi": 62,
          "duration": 0.191707,
          "velocity": 0.88189
        },
        {
          "time": 571.448646,
          "name": "D3",
          "midi": 50,
          "duration": 0.191707,
          "velocity": 0.88189
        },
        {
          "time": 571.448646,
          "name": "G2",
          "midi": 43,
          "duration": 0.191707,
          "velocity": 0.88189
        },
        {
          "time": 571.637331,
          "name": "G2",
          "midi": 43,
          "duration": 0.181269,
          "velocity": 0.866142
        },
        {
          "time": 571.821622,
          "name": "D4",
          "midi": 62,
          "duration": 0.183111,
          "velocity": 0.88189
        },
        {
          "time": 571.821622,
          "name": "D3",
          "midi": 50,
          "duration": 0.183111,
          "velocity": 0.88189
        },
        {
          "time": 571.821622,
          "name": "G2",
          "midi": 43,
          "duration": 0.183111,
          "velocity": 0.88189
        },
        {
          "time": 572.001507,
          "name": "G2",
          "midi": 43,
          "duration": 0.193548,
          "velocity": 0.866142
        },
        {
          "time": 572.198281,
          "name": "B3",
          "midi": 59,
          "duration": 0.191707,
          "velocity": 0.88189
        },
        {
          "time": 572.198281,
          "name": "D3",
          "midi": 50,
          "duration": 0.191707,
          "velocity": 0.88189
        },
        {
          "time": 572.198281,
          "name": "G2",
          "midi": 43,
          "duration": 0.191707,
          "velocity": 0.88189
        },
        {
          "time": 572.386966,
          "name": "G2",
          "midi": 43,
          "duration": 0.181269,
          "velocity": 0.866142
        },
        {
          "time": 572.571257,
          "name": "C#4",
          "midi": 61,
          "duration": 0.183111,
          "velocity": 0.88189
        },
        {
          "time": 572.571257,
          "name": "D3",
          "midi": 50,
          "duration": 0.183111,
          "velocity": 0.88189
        },
        {
          "time": 572.571257,
          "name": "G2",
          "midi": 43,
          "duration": 0.183111,
          "velocity": 0.88189
        },
        {
          "time": 572.751142,
          "name": "G2",
          "midi": 43,
          "duration": 0.193548,
          "velocity": 0.866142
        },
        {
          "time": 572.947916,
          "name": "D4",
          "midi": 62,
          "duration": 0.191707,
          "velocity": 0.88189
        },
        {
          "time": 572.947916,
          "name": "D3",
          "midi": 50,
          "duration": 0.191707,
          "velocity": 0.88189
        },
        {
          "time": 572.947916,
          "name": "G2",
          "midi": 43,
          "duration": 0.191707,
          "velocity": 0.88189
        },
        {
          "time": 573.136601,
          "name": "G2",
          "midi": 43,
          "duration": 0.181269,
          "velocity": 0.866142
        },
        {
          "time": 573.320892,
          "name": "B3",
          "midi": 59,
          "duration": 0.183111,
          "velocity": 0.88189
        },
        {
          "time": 573.320892,
          "name": "D3",
          "midi": 50,
          "duration": 0.183111,
          "velocity": 0.88189
        },
        {
          "time": 573.320892,
          "name": "G2",
          "midi": 43,
          "duration": 0.183111,
          "velocity": 0.88189
        },
        {
          "time": 573.500777,
          "name": "G2",
          "midi": 43,
          "duration": 0.193548,
          "velocity": 0.866142
        },
        {
          "time": 573.697551,
          "name": "B3",
          "midi": 59,
          "duration": 0.191707,
          "velocity": 0.88189
        },
        {
          "time": 573.697551,
          "name": "D3",
          "midi": 50,
          "duration": 0.191707,
          "velocity": 0.88189
        },
        {
          "time": 573.697551,
          "name": "G2",
          "midi": 43,
          "duration": 0.191707,
          "velocity": 0.88189
        },
        {
          "time": 573.886236,
          "name": "G2",
          "midi": 43,
          "duration": 0.181269,
          "velocity": 0.866142
        },
        {
          "time": 574.070527,
          "name": "B3",
          "midi": 59,
          "duration": 0.183111,
          "velocity": 0.88189
        },
        {
          "time": 574.070527,
          "name": "D3",
          "midi": 50,
          "duration": 0.183111,
          "velocity": 0.88189
        },
        {
          "time": 574.070527,
          "name": "G2",
          "midi": 43,
          "duration": 0.183111,
          "velocity": 0.88189
        },
        {
          "time": 574.250412,
          "name": "G2",
          "midi": 43,
          "duration": 0.193548,
          "velocity": 0.866142
        },
        {
          "time": 574.447186,
          "name": "C4",
          "midi": 60,
          "duration": 0.191707,
          "velocity": 0.88189
        },
        {
          "time": 574.447186,
          "name": "D3",
          "midi": 50,
          "duration": 0.191707,
          "velocity": 0.88189
        },
        {
          "time": 574.447186,
          "name": "G2",
          "midi": 43,
          "duration": 0.191707,
          "velocity": 0.88189
        },
        {
          "time": 574.635871,
          "name": "G2",
          "midi": 43,
          "duration": 0.181269,
          "velocity": 0.866142
        },
        {
          "time": 574.820162,
          "name": "C4",
          "midi": 60,
          "duration": 0.183111,
          "velocity": 0.88189
        },
        {
          "time": 574.820162,
          "name": "D3",
          "midi": 50,
          "duration": 0.183111,
          "velocity": 0.88189
        },
        {
          "time": 574.820162,
          "name": "G2",
          "midi": 43,
          "duration": 0.183111,
          "velocity": 0.88189
        },
        {
          "time": 575.000047,
          "name": "G2",
          "midi": 43,
          "duration": 0.193548,
          "velocity": 0.866142
        },
        {
          "time": 575.196821,
          "name": "B3",
          "midi": 59,
          "duration": 0.191707,
          "velocity": 0.88189
        },
        {
          "time": 575.196821,
          "name": "D3",
          "midi": 50,
          "duration": 0.191707,
          "velocity": 0.88189
        },
        {
          "time": 575.196821,
          "name": "G2",
          "midi": 43,
          "duration": 0.191707,
          "velocity": 0.88189
        },
        {
          "time": 575.385506,
          "name": "G2",
          "midi": 43,
          "duration": 0.181269,
          "velocity": 0.866142
        },
        {
          "time": 575.569797,
          "name": "B3",
          "midi": 59,
          "duration": 0.183111,
          "velocity": 0.88189
        },
        {
          "time": 575.569797,
          "name": "D3",
          "midi": 50,
          "duration": 0.183111,
          "velocity": 0.88189
        },
        {
          "time": 575.569797,
          "name": "G2",
          "midi": 43,
          "duration": 0.183111,
          "velocity": 0.88189
        },
        {
          "time": 575.749682,
          "name": "G2",
          "midi": 43,
          "duration": 0.193548,
          "velocity": 0.866142
        },
        {
          "time": 575.946456,
          "name": "B3",
          "midi": 59,
          "duration": 0.191707,
          "velocity": 0.88189
        },
        {
          "time": 575.946456,
          "name": "D3",
          "midi": 50,
          "duration": 0.191707,
          "velocity": 0.88189
        },
        {
          "time": 575.946456,
          "name": "G2",
          "midi": 43,
          "duration": 0.191707,
          "velocity": 0.88189
        },
        {
          "time": 576.135141,
          "name": "G2",
          "midi": 43,
          "duration": 0.181269,
          "velocity": 0.866142
        },
        {
          "time": 576.319432,
          "name": "B3",
          "midi": 59,
          "duration": 0.183111,
          "velocity": 0.88189
        },
        {
          "time": 576.319432,
          "name": "D3",
          "midi": 50,
          "duration": 0.183111,
          "velocity": 0.88189
        },
        {
          "time": 576.319432,
          "name": "G2",
          "midi": 43,
          "duration": 0.183111,
          "velocity": 0.88189
        },
        {
          "time": 576.499317,
          "name": "A2",
          "midi": 45,
          "duration": 0.193548,
          "velocity": 0.866142
        },
        {
          "time": 576.696091,
          "name": "C#4",
          "midi": 61,
          "duration": 0.191707,
          "velocity": 0.88189
        },
        {
          "time": 576.696091,
          "name": "E3",
          "midi": 52,
          "duration": 0.191707,
          "velocity": 0.88189
        },
        {
          "time": 576.696091,
          "name": "A2",
          "midi": 45,
          "duration": 0.191707,
          "velocity": 0.88189
        },
        {
          "time": 576.884776,
          "name": "A2",
          "midi": 45,
          "duration": 0.181269,
          "velocity": 0.866142
        },
        {
          "time": 577.069067,
          "name": "C#4",
          "midi": 61,
          "duration": 0.183111,
          "velocity": 0.88189
        },
        {
          "time": 577.069067,
          "name": "E3",
          "midi": 52,
          "duration": 0.183111,
          "velocity": 0.88189
        },
        {
          "time": 577.069067,
          "name": "A2",
          "midi": 45,
          "duration": 0.183111,
          "velocity": 0.88189
        },
        {
          "time": 577.248952,
          "name": "A2",
          "midi": 45,
          "duration": 0.193548,
          "velocity": 0.866142
        },
        {
          "time": 577.445726,
          "name": "C#4",
          "midi": 61,
          "duration": 0.191707,
          "velocity": 0.88189
        },
        {
          "time": 577.445726,
          "name": "E3",
          "midi": 52,
          "duration": 0.191707,
          "velocity": 0.88189
        },
        {
          "time": 577.445726,
          "name": "A2",
          "midi": 45,
          "duration": 0.191707,
          "velocity": 0.88189
        },
        {
          "time": 577.634411,
          "name": "A2",
          "midi": 45,
          "duration": 0.181269,
          "velocity": 0.866142
        },
        {
          "time": 577.818702,
          "name": "C#4",
          "midi": 61,
          "duration": 0.183111,
          "velocity": 0.88189
        },
        {
          "time": 577.818702,
          "name": "E3",
          "midi": 52,
          "duration": 0.183111,
          "velocity": 0.88189
        },
        {
          "time": 577.818702,
          "name": "A2",
          "midi": 45,
          "duration": 0.183111,
          "velocity": 0.88189
        },
        {
          "time": 577.998587,
          "name": "D3",
          "midi": 50,
          "duration": 0.193548,
          "velocity": 0.866142
        },
        {
          "time": 577.998587,
          "name": "D2",
          "midi": 38,
          "duration": 0.193548,
          "velocity": 0.866142
        },
        {
          "time": 578.195361,
          "name": "A2",
          "midi": 45,
          "duration": 0.191707,
          "velocity": 0.88189
        },
        {
          "time": 578.195361,
          "name": "F#3",
          "midi": 54,
          "duration": 0.191707,
          "velocity": 0.88189
        },
        {
          "time": 578.195361,
          "name": "D4",
          "midi": 62,
          "duration": 0.191707,
          "velocity": 0.88189
        },
        {
          "time": 578.195361,
          "name": "D2",
          "midi": 38,
          "duration": 0.191707,
          "velocity": 0.88189
        },
        {
          "time": 578.384046,
          "name": "D3",
          "midi": 50,
          "duration": 0.181269,
          "velocity": 0.866142
        },
        {
          "time": 578.384046,
          "name": "D2",
          "midi": 38,
          "duration": 0.181269,
          "velocity": 0.866142
        },
        {
          "time": 578.568337,
          "name": "A2",
          "midi": 45,
          "duration": 0.183111,
          "velocity": 0.88189
        },
        {
          "time": 578.568337,
          "name": "F#3",
          "midi": 54,
          "duration": 0.183111,
          "velocity": 0.88189
        },
        {
          "time": 578.568337,
          "name": "D4",
          "midi": 62,
          "duration": 0.183111,
          "velocity": 0.88189
        },
        {
          "time": 578.568337,
          "name": "D2",
          "midi": 38,
          "duration": 0.183111,
          "velocity": 0.88189
        },
        {
          "time": 578.748222,
          "name": "D3",
          "midi": 50,
          "duration": 0.193548,
          "velocity": 0.866142
        },
        {
          "time": 578.748222,
          "name": "D2",
          "midi": 38,
          "duration": 0.193548,
          "velocity": 0.866142
        },
        {
          "time": 578.751448,
          "name": "D3",
          "midi": 50,
          "duration": 0.193549,
          "velocity": 0.88189
        },
        {
          "time": 578.94177,
          "name": "D4",
          "midi": 62,
          "duration": 0.191911,
          "velocity": 0.866142
        },
        {
          "time": 578.94177,
          "name": "D3",
          "midi": 50,
          "duration": 0.191911,
          "velocity": 0.866142
        },
        {
          "time": 578.944996,
          "name": "D3",
          "midi": 50,
          "duration": 0.17358,
          "velocity": 0.88189
        },
        {
          "time": 579.133681,
          "name": "D2",
          "midi": 38,
          "duration": 0.181269,
          "velocity": 0.866142
        },
        {
          "time": 579.133681,
          "name": "D3",
          "midi": 50,
          "duration": 0.181269,
          "velocity": 0.866142
        },
        {
          "time": 579.136703,
          "name": "D2",
          "midi": 38,
          "duration": 0.163142,
          "velocity": 0.88189
        },
        {
          "time": 579.501083,
          "name": "D3",
          "midi": 50,
          "duration": 0.193549,
          "velocity": 0.88189
        },
        {
          "time": 579.694631,
          "name": "D4",
          "midi": 62,
          "duration": 0.191707,
          "velocity": 0.88189
        },
        {
          "time": 580.250718,
          "name": "D3",
          "midi": 50,
          "duration": 0.193549,
          "velocity": 0.88189
        },
        {
          "time": 580.444266,
          "name": "D4",
          "midi": 62,
          "duration": 0.191707,
          "velocity": 0.88189
        },
        {
          "time": 581.000353,
          "name": "D3",
          "midi": 50,
          "duration": 0.193549,
          "velocity": 0.88189
        },
        {
          "time": 581.193901,
          "name": "D4",
          "midi": 62,
          "duration": 0.191707,
          "velocity": 0.88189
        },
        {
          "time": 581.749988,
          "name": "D3",
          "midi": 50,
          "duration": 0.193549,
          "velocity": 0.88189
        },
        {
          "time": 581.943536,
          "name": "D4",
          "midi": 62,
          "duration": 0.191707,
          "velocity": 0.88189
        },
        {
          "time": 582.499623,
          "name": "D3",
          "midi": 50,
          "duration": 0.193549,
          "velocity": 0.88189
        },
        {
          "time": 582.693171,
          "name": "D4",
          "midi": 62,
          "duration": 0.191707,
          "velocity": 0.88189
        },
        {
          "time": 583.249258,
          "name": "D3",
          "midi": 50,
          "duration": 0.193549,
          "velocity": 0.88189
        },
        {
          "time": 583.442806,
          "name": "D4",
          "midi": 62,
          "duration": 0.191707,
          "velocity": 0.88189
        },
        {
          "time": 583.998893,
          "name": "D3",
          "midi": 50,
          "duration": 0.193549,
          "velocity": 0.88189
        },
        {
          "time": 584.192441,
          "name": "D4",
          "midi": 62,
          "duration": 0.191707,
          "velocity": 0.88189
        },
        {
          "time": 584.748528,
          "name": "D3",
          "midi": 50,
          "duration": 0.193549,
          "velocity": 0.88189
        },
        {
          "time": 584.942076,
          "name": "D4",
          "midi": 62,
          "duration": 0.191707,
          "velocity": 0.88189
        },
        {
          "time": 585.498163,
          "name": "D3",
          "midi": 50,
          "duration": 0.193549,
          "velocity": 0.88189
        },
        {
          "time": 585.691711,
          "name": "D4",
          "midi": 62,
          "duration": 0.191707,
          "velocity": 0.88189
        },
        {
          "time": 586.247798,
          "name": "D3",
          "midi": 50,
          "duration": 0.193549,
          "velocity": 0.88189
        },
        {
          "time": 586.441346,
          "name": "D4",
          "midi": 62,
          "duration": 0.191707,
          "velocity": 0.88189
        },
        {
          "time": 586.997433,
          "name": "D3",
          "midi": 50,
          "duration": 0.193549,
          "velocity": 0.88189
        },
        {
          "time": 587.190981,
          "name": "D4",
          "midi": 62,
          "duration": 0.191707,
          "velocity": 0.88189
        },
        {
          "time": 587.747068,
          "name": "D3",
          "midi": 50,
          "duration": 0.193549,
          "velocity": 0.88189
        },
        {
          "time": 587.940616,
          "name": "D4",
          "midi": 62,
          "duration": 0.191707,
          "velocity": 0.88189
        },
        {
          "time": 588.496703,
          "name": "D3",
          "midi": 50,
          "duration": 0.193549,
          "velocity": 0.88189
        },
        {
          "time": 588.690251,
          "name": "D4",
          "midi": 62,
          "duration": 0.191707,
          "velocity": 0.88189
        },
        {
          "time": 589.246338,
          "name": "D3",
          "midi": 50,
          "duration": 0.193549,
          "velocity": 0.88189
        },
        {
          "time": 589.439886,
          "name": "D4",
          "midi": 62,
          "duration": 0.191707,
          "velocity": 0.88189
        },
        {
          "time": 589.995973,
          "name": "D3",
          "midi": 50,
          "duration": 0.193549,
          "velocity": 0.88189
        },
        {
          "time": 590.189521,
          "name": "D4",
          "midi": 62,
          "duration": 0.191707,
          "velocity": 0.88189
        },
        {
          "time": 590.745608,
          "name": "D3",
          "midi": 50,
          "duration": 0.193549,
          "velocity": 0.88189
        },
        {
          "time": 590.939156,
          "name": "D4",
          "midi": 62,
          "duration": 0.191707,
          "velocity": 0.88189
        },
        {
          "time": 591.312132,
          "name": "D4",
          "midi": 62,
          "duration": 0.183111,
          "velocity": 0.88189
        },
        {
          "time": 591.492017,
          "name": "D2",
          "midi": 38,
          "duration": 1.49927,
          "velocity": 0.866142
        },
        {
          "time": 591.492017,
          "name": "D3",
          "midi": 50,
          "duration": 1.49927,
          "velocity": 0.866142
        },
        {
          "time": 591.495243,
          "name": "F#4",
          "midi": 66,
          "duration": 0.193549,
          "velocity": 0.88189
        },
        {
          "time": 591.688791,
          "name": "A4",
          "midi": 69,
          "duration": 0.191707,
          "velocity": 0.88189
        },
        {
          "time": 591.880498,
          "name": "G4",
          "midi": 67,
          "duration": 0.181269,
          "velocity": 0.88189
        },
        {
          "time": 592.061767,
          "name": "B3",
          "midi": 59,
          "duration": 0.183111,
          "velocity": 0.88189
        },
        {
          "time": 592.244878,
          "name": "A3",
          "midi": 57,
          "duration": 0.193549,
          "velocity": 0.88189
        },
        {
          "time": 592.438426,
          "name": "C4",
          "midi": 60,
          "duration": 0.191707,
          "velocity": 0.88189
        },
        {
          "time": 592.630133,
          "name": "B3",
          "midi": 59,
          "duration": 0.181269,
          "velocity": 0.88189
        },
        {
          "time": 592.811402,
          "name": "G3",
          "midi": 55,
          "duration": 0.183111,
          "velocity": 0.88189
        },
        {
          "time": 592.991287,
          "name": "D2",
          "midi": 38,
          "duration": 1.49927,
          "velocity": 0.866142
        },
        {
          "time": 592.991287,
          "name": "D3",
          "midi": 50,
          "duration": 1.49927,
          "velocity": 0.866142
        },
        {
          "time": 592.994513,
          "name": "F#3",
          "midi": 54,
          "duration": 0.193549,
          "velocity": 0.88189
        },
        {
          "time": 593.188061,
          "name": "A3",
          "midi": 57,
          "duration": 0.191707,
          "velocity": 0.88189
        },
        {
          "time": 593.379768,
          "name": "G3",
          "midi": 55,
          "duration": 0.181269,
          "velocity": 0.88189
        },
        {
          "time": 593.561037,
          "name": "B3",
          "midi": 59,
          "duration": 0.183111,
          "velocity": 0.88189
        },
        {
          "time": 593.744148,
          "name": "A3",
          "midi": 57,
          "duration": 0.193549,
          "velocity": 0.88189
        },
        {
          "time": 593.937696,
          "name": "C4",
          "midi": 60,
          "duration": 0.191707,
          "velocity": 0.88189
        },
        {
          "time": 594.129403,
          "name": "B3",
          "midi": 59,
          "duration": 0.181269,
          "velocity": 0.88189
        },
        {
          "time": 594.310672,
          "name": "G4",
          "midi": 67,
          "duration": 0.183111,
          "velocity": 0.88189
        },
        {
          "time": 594.490557,
          "name": "D2",
          "midi": 38,
          "duration": 1.692818,
          "velocity": 0.866142
        },
        {
          "time": 594.490557,
          "name": "D3",
          "midi": 50,
          "duration": 1.692818,
          "velocity": 0.866142
        },
        {
          "time": 594.493783,
          "name": "F#4",
          "midi": 66,
          "duration": 0.193549,
          "velocity": 0.88189
        },
        {
          "time": 594.687331,
          "name": "A4",
          "midi": 69,
          "duration": 0.191707,
          "velocity": 0.88189
        },
        {
          "time": 594.879038,
          "name": "G4",
          "midi": 67,
          "duration": 0.181269,
          "velocity": 0.88189
        },
        {
          "time": 595.060307,
          "name": "B3",
          "midi": 59,
          "duration": 0.183111,
          "velocity": 0.88189
        },
        {
          "time": 595.243418,
          "name": "A3",
          "midi": 57,
          "duration": 0.193549,
          "velocity": 0.88189
        },
        {
          "time": 595.436966,
          "name": "C4",
          "midi": 60,
          "duration": 0.191707,
          "velocity": 0.88189
        },
        {
          "time": 595.628673,
          "name": "B3",
          "midi": 59,
          "duration": 0.181269,
          "velocity": 0.88189
        },
        {
          "time": 595.809942,
          "name": "G3",
          "midi": 55,
          "duration": 0.183111,
          "velocity": 0.88189
        },
        {
          "time": 595.993053,
          "name": "F#3",
          "midi": 54,
          "duration": 0.193549,
          "velocity": 0.88189
        },
        {
          "time": 597.489097,
          "name": "G2",
          "midi": 43,
          "duration": 0.193548,
          "velocity": 0.866142
        },
        {
          "time": 597.685871,
          "name": "B3",
          "midi": 59,
          "duration": 0.191707,
          "velocity": 0.88189
        },
        {
          "time": 597.685871,
          "name": "D3",
          "midi": 50,
          "duration": 0.191707,
          "velocity": 0.88189
        },
        {
          "time": 597.685871,
          "name": "G2",
          "midi": 43,
          "duration": 0.191707,
          "velocity": 0.88189
        },
        {
          "time": 597.874556,
          "name": "G2",
          "midi": 43,
          "duration": 0.181269,
          "velocity": 0.866142
        },
        {
          "time": 598.058847,
          "name": "B3",
          "midi": 59,
          "duration": 0.183111,
          "velocity": 0.88189
        },
        {
          "time": 598.058847,
          "name": "D3",
          "midi": 50,
          "duration": 0.183111,
          "velocity": 0.88189
        },
        {
          "time": 598.058847,
          "name": "G2",
          "midi": 43,
          "duration": 0.183111,
          "velocity": 0.88189
        },
        {
          "time": 598.238732,
          "name": "G2",
          "midi": 43,
          "duration": 0.193548,
          "velocity": 0.866142
        },
        {
          "time": 598.435506,
          "name": "C4",
          "midi": 60,
          "duration": 0.191707,
          "velocity": 0.88189
        },
        {
          "time": 598.435506,
          "name": "D3",
          "midi": 50,
          "duration": 0.191707,
          "velocity": 0.88189
        },
        {
          "time": 598.435506,
          "name": "G2",
          "midi": 43,
          "duration": 0.191707,
          "velocity": 0.88189
        },
        {
          "time": 598.624191,
          "name": "G2",
          "midi": 43,
          "duration": 0.181269,
          "velocity": 0.866142
        },
        {
          "time": 598.808482,
          "name": "C4",
          "midi": 60,
          "duration": 0.183111,
          "velocity": 0.88189
        },
        {
          "time": 598.808482,
          "name": "D3",
          "midi": 50,
          "duration": 0.183111,
          "velocity": 0.88189
        },
        {
          "time": 598.808482,
          "name": "G2",
          "midi": 43,
          "duration": 0.183111,
          "velocity": 0.88189
        },
        {
          "time": 598.988367,
          "name": "G2",
          "midi": 43,
          "duration": 0.193548,
          "velocity": 0.866142
        },
        {
          "time": 599.185141,
          "name": "B3",
          "midi": 59,
          "duration": 0.191707,
          "velocity": 0.88189
        },
        {
          "time": 599.185141,
          "name": "D3",
          "midi": 50,
          "duration": 0.191707,
          "velocity": 0.88189
        },
        {
          "time": 599.185141,
          "name": "G2",
          "midi": 43,
          "duration": 0.191707,
          "velocity": 0.88189
        },
        {
          "time": 599.373826,
          "name": "G2",
          "midi": 43,
          "duration": 0.181269,
          "velocity": 0.866142
        },
        {
          "time": 599.558117,
          "name": "B3",
          "midi": 59,
          "duration": 0.183111,
          "velocity": 0.88189
        },
        {
          "time": 599.558117,
          "name": "D3",
          "midi": 50,
          "duration": 0.183111,
          "velocity": 0.88189
        },
        {
          "time": 599.558117,
          "name": "G2",
          "midi": 43,
          "duration": 0.183111,
          "velocity": 0.88189
        },
        {
          "time": 599.738002,
          "name": "G2",
          "midi": 43,
          "duration": 0.193548,
          "velocity": 0.866142
        },
        {
          "time": 599.934776,
          "name": "B3",
          "midi": 59,
          "duration": 0.191707,
          "velocity": 0.88189
        },
        {
          "time": 599.934776,
          "name": "D3",
          "midi": 50,
          "duration": 0.191707,
          "velocity": 0.88189
        },
        {
          "time": 599.934776,
          "name": "G2",
          "midi": 43,
          "duration": 0.191707,
          "velocity": 0.88189
        },
        {
          "time": 600.123461,
          "name": "G2",
          "midi": 43,
          "duration": 0.181269,
          "velocity": 0.866142
        },
        {
          "time": 600.307752,
          "name": "B3",
          "midi": 59,
          "duration": 0.183111,
          "velocity": 0.88189
        },
        {
          "time": 600.307752,
          "name": "D3",
          "midi": 50,
          "duration": 0.183111,
          "velocity": 0.88189
        },
        {
          "time": 600.307752,
          "name": "G2",
          "midi": 43,
          "duration": 0.183111,
          "velocity": 0.88189
        },
        {
          "time": 600.487637,
          "name": "G2",
          "midi": 43,
          "duration": 0.193548,
          "velocity": 0.866142
        },
        {
          "time": 600.684411,
          "name": "D4",
          "midi": 62,
          "duration": 0.191707,
          "velocity": 0.88189
        },
        {
          "time": 600.684411,
          "name": "D3",
          "midi": 50,
          "duration": 0.191707,
          "velocity": 0.88189
        },
        {
          "time": 600.684411,
          "name": "G2",
          "midi": 43,
          "duration": 0.191707,
          "velocity": 0.88189
        },
        {
          "time": 600.873096,
          "name": "G2",
          "midi": 43,
          "duration": 0.181269,
          "velocity": 0.866142
        },
        {
          "time": 601.057387,
          "name": "D4",
          "midi": 62,
          "duration": 0.183111,
          "velocity": 0.88189
        },
        {
          "time": 601.057387,
          "name": "D3",
          "midi": 50,
          "duration": 0.183111,
          "velocity": 0.88189
        },
        {
          "time": 601.057387,
          "name": "G2",
          "midi": 43,
          "duration": 0.183111,
          "velocity": 0.88189
        },
        {
          "time": 601.237272,
          "name": "G2",
          "midi": 43,
          "duration": 0.193548,
          "velocity": 0.866142
        },
        {
          "time": 601.434046,
          "name": "D4",
          "midi": 62,
          "duration": 0.191707,
          "velocity": 0.88189
        },
        {
          "time": 601.434046,
          "name": "D3",
          "midi": 50,
          "duration": 0.191707,
          "velocity": 0.88189
        },
        {
          "time": 601.434046,
          "name": "G2",
          "midi": 43,
          "duration": 0.191707,
          "velocity": 0.88189
        },
        {
          "time": 601.622731,
          "name": "G2",
          "midi": 43,
          "duration": 0.181269,
          "velocity": 0.866142
        },
        {
          "time": 601.807022,
          "name": "D4",
          "midi": 62,
          "duration": 0.183111,
          "velocity": 0.88189
        },
        {
          "time": 601.807022,
          "name": "D3",
          "midi": 50,
          "duration": 0.183111,
          "velocity": 0.88189
        },
        {
          "time": 601.807022,
          "name": "G2",
          "midi": 43,
          "duration": 0.183111,
          "velocity": 0.88189
        },
        {
          "time": 601.986907,
          "name": "G2",
          "midi": 43,
          "duration": 0.193548,
          "velocity": 0.866142
        },
        {
          "time": 602.183681,
          "name": "B3",
          "midi": 59,
          "duration": 0.191707,
          "velocity": 0.88189
        },
        {
          "time": 602.183681,
          "name": "D3",
          "midi": 50,
          "duration": 0.191707,
          "velocity": 0.88189
        },
        {
          "time": 602.183681,
          "name": "G2",
          "midi": 43,
          "duration": 0.191707,
          "velocity": 0.88189
        },
        {
          "time": 602.372366,
          "name": "G2",
          "midi": 43,
          "duration": 0.181269,
          "velocity": 0.866142
        },
        {
          "time": 602.556657,
          "name": "C#4",
          "midi": 61,
          "duration": 0.183111,
          "velocity": 0.88189
        },
        {
          "time": 602.556657,
          "name": "D3",
          "midi": 50,
          "duration": 0.183111,
          "velocity": 0.88189
        },
        {
          "time": 602.556657,
          "name": "G2",
          "midi": 43,
          "duration": 0.183111,
          "velocity": 0.88189
        },
        {
          "time": 602.736542,
          "name": "G2",
          "midi": 43,
          "duration": 0.193548,
          "velocity": 0.866142
        },
        {
          "time": 602.933316,
          "name": "D4",
          "midi": 62,
          "duration": 0.191707,
          "velocity": 0.88189
        },
        {
          "time": 602.933316,
          "name": "D3",
          "midi": 50,
          "duration": 0.191707,
          "velocity": 0.88189
        },
        {
          "time": 602.933316,
          "name": "G2",
          "midi": 43,
          "duration": 0.191707,
          "velocity": 0.88189
        },
        {
          "time": 603.122001,
          "name": "G2",
          "midi": 43,
          "duration": 0.181269,
          "velocity": 0.866142
        },
        {
          "time": 603.306292,
          "name": "B3",
          "midi": 59,
          "duration": 0.183111,
          "velocity": 0.88189
        },
        {
          "time": 603.306292,
          "name": "D3",
          "midi": 50,
          "duration": 0.183111,
          "velocity": 0.88189
        },
        {
          "time": 603.306292,
          "name": "G2",
          "midi": 43,
          "duration": 0.183111,
          "velocity": 0.88189
        },
        {
          "time": 603.486177,
          "name": "G2",
          "midi": 43,
          "duration": 0.193548,
          "velocity": 0.866142
        },
        {
          "time": 603.682951,
          "name": "B3",
          "midi": 59,
          "duration": 0.191707,
          "velocity": 0.88189
        },
        {
          "time": 603.682951,
          "name": "D3",
          "midi": 50,
          "duration": 0.191707,
          "velocity": 0.88189
        },
        {
          "time": 603.682951,
          "name": "G2",
          "midi": 43,
          "duration": 0.191707,
          "velocity": 0.88189
        },
        {
          "time": 603.871636,
          "name": "G2",
          "midi": 43,
          "duration": 0.181269,
          "velocity": 0.866142
        },
        {
          "time": 604.055927,
          "name": "B3",
          "midi": 59,
          "duration": 0.183111,
          "velocity": 0.88189
        },
        {
          "time": 604.055927,
          "name": "D3",
          "midi": 50,
          "duration": 0.183111,
          "velocity": 0.88189
        },
        {
          "time": 604.055927,
          "name": "G2",
          "midi": 43,
          "duration": 0.183111,
          "velocity": 0.88189
        },
        {
          "time": 604.235812,
          "name": "G2",
          "midi": 43,
          "duration": 0.193548,
          "velocity": 0.866142
        },
        {
          "time": 604.432586,
          "name": "C4",
          "midi": 60,
          "duration": 0.191707,
          "velocity": 0.88189
        },
        {
          "time": 604.432586,
          "name": "D3",
          "midi": 50,
          "duration": 0.191707,
          "velocity": 0.88189
        },
        {
          "time": 604.432586,
          "name": "G2",
          "midi": 43,
          "duration": 0.191707,
          "velocity": 0.88189
        },
        {
          "time": 604.621271,
          "name": "G2",
          "midi": 43,
          "duration": 0.181269,
          "velocity": 0.866142
        },
        {
          "time": 604.805562,
          "name": "C4",
          "midi": 60,
          "duration": 0.183111,
          "velocity": 0.88189
        },
        {
          "time": 604.805562,
          "name": "D3",
          "midi": 50,
          "duration": 0.183111,
          "velocity": 0.88189
        },
        {
          "time": 604.805562,
          "name": "G2",
          "midi": 43,
          "duration": 0.183111,
          "velocity": 0.88189
        },
        {
          "time": 604.985447,
          "name": "G2",
          "midi": 43,
          "duration": 0.193548,
          "velocity": 0.866142
        },
        {
          "time": 605.182221,
          "name": "B3",
          "midi": 59,
          "duration": 0.191707,
          "velocity": 0.88189
        },
        {
          "time": 605.182221,
          "name": "D3",
          "midi": 50,
          "duration": 0.191707,
          "velocity": 0.88189
        },
        {
          "time": 605.182221,
          "name": "G2",
          "midi": 43,
          "duration": 0.191707,
          "velocity": 0.88189
        },
        {
          "time": 605.370906,
          "name": "G2",
          "midi": 43,
          "duration": 0.181269,
          "velocity": 0.866142
        },
        {
          "time": 605.555197,
          "name": "B3",
          "midi": 59,
          "duration": 0.183111,
          "velocity": 0.88189
        },
        {
          "time": 605.555197,
          "name": "D3",
          "midi": 50,
          "duration": 0.183111,
          "velocity": 0.88189
        },
        {
          "time": 605.555197,
          "name": "G2",
          "midi": 43,
          "duration": 0.183111,
          "velocity": 0.88189
        },
        {
          "time": 605.735082,
          "name": "G2",
          "midi": 43,
          "duration": 0.193548,
          "velocity": 0.866142
        },
        {
          "time": 605.931856,
          "name": "B3",
          "midi": 59,
          "duration": 0.191707,
          "velocity": 0.88189
        },
        {
          "time": 605.931856,
          "name": "D3",
          "midi": 50,
          "duration": 0.191707,
          "velocity": 0.88189
        },
        {
          "time": 605.931856,
          "name": "G2",
          "midi": 43,
          "duration": 0.191707,
          "velocity": 0.88189
        },
        {
          "time": 606.120541,
          "name": "G2",
          "midi": 43,
          "duration": 0.181269,
          "velocity": 0.866142
        },
        {
          "time": 606.304832,
          "name": "B3",
          "midi": 59,
          "duration": 0.183111,
          "velocity": 0.88189
        },
        {
          "time": 606.304832,
          "name": "D3",
          "midi": 50,
          "duration": 0.183111,
          "velocity": 0.88189
        },
        {
          "time": 606.304832,
          "name": "G2",
          "midi": 43,
          "duration": 0.183111,
          "velocity": 0.88189
        },
        {
          "time": 606.484717,
          "name": "C2",
          "midi": 36,
          "duration": 0.193548,
          "velocity": 0.866142
        },
        {
          "time": 606.484717,
          "name": "C3",
          "midi": 48,
          "duration": 0.193548,
          "velocity": 0.866142
        },
        {
          "time": 606.681491,
          "name": "E4",
          "midi": 64,
          "duration": 0.191707,
          "velocity": 0.88189
        },
        {
          "time": 606.681491,
          "name": "G3",
          "midi": 55,
          "duration": 0.191707,
          "velocity": 0.88189
        },
        {
          "time": 606.681491,
          "name": "G2",
          "midi": 43,
          "duration": 0.191707,
          "velocity": 0.88189
        },
        {
          "time": 606.681491,
          "name": "C2",
          "midi": 36,
          "duration": 0.191707,
          "velocity": 0.88189
        },
        {
          "time": 606.870176,
          "name": "C3",
          "midi": 48,
          "duration": 0.181269,
          "velocity": 0.866142
        },
        {
          "time": 606.870176,
          "name": "C2",
          "midi": 36,
          "duration": 0.181269,
          "velocity": 0.866142
        },
        {
          "time": 607.054467,
          "name": "E4",
          "midi": 64,
          "duration": 0.183111,
          "velocity": 0.88189
        },
        {
          "time": 607.054467,
          "name": "G3",
          "midi": 55,
          "duration": 0.183111,
          "velocity": 0.88189
        },
        {
          "time": 607.054467,
          "name": "G2",
          "midi": 43,
          "duration": 0.183111,
          "velocity": 0.88189
        },
        {
          "time": 607.054467,
          "name": "C2",
          "midi": 36,
          "duration": 0.183111,
          "velocity": 0.88189
        },
        {
          "time": 607.234352,
          "name": "C2",
          "midi": 36,
          "duration": 0.193548,
          "velocity": 0.866142
        },
        {
          "time": 607.234352,
          "name": "C3",
          "midi": 48,
          "duration": 0.193548,
          "velocity": 0.866142
        },
        {
          "time": 607.431126,
          "name": "C4",
          "midi": 60,
          "duration": 0.191707,
          "velocity": 0.88189
        },
        {
          "time": 607.431126,
          "name": "D3",
          "midi": 50,
          "duration": 0.191707,
          "velocity": 0.88189
        },
        {
          "time": 607.619811,
          "name": "C2",
          "midi": 36,
          "duration": 0.181269,
          "velocity": 0.866142
        },
        {
          "time": 607.619811,
          "name": "C3",
          "midi": 48,
          "duration": 0.181269,
          "velocity": 0.866142
        },
        {
          "time": 607.804102,
          "name": "C4",
          "midi": 60,
          "duration": 0.183111,
          "velocity": 0.88189
        },
        {
          "time": 607.804102,
          "name": "D3",
          "midi": 50,
          "duration": 0.183111,
          "velocity": 0.88189
        },
        {
          "time": 607.983987,
          "name": "G3",
          "midi": 55,
          "duration": 0.193548,
          "velocity": 0.866142
        },
        {
          "time": 607.983987,
          "name": "G2",
          "midi": 43,
          "duration": 0.193548,
          "velocity": 0.866142
        },
        {
          "time": 608.177535,
          "name": "G3",
          "midi": 55,
          "duration": 0.191911,
          "velocity": 0.866142
        },
        {
          "time": 608.180761,
          "name": "B3",
          "midi": 59,
          "duration": 0.191707,
          "velocity": 0.88189
        },
        {
          "time": 608.180761,
          "name": "D3",
          "midi": 50,
          "duration": 0.191707,
          "velocity": 0.88189
        },
        {
          "time": 608.369446,
          "name": "D3",
          "midi": 50,
          "duration": 0.181269,
          "velocity": 0.866142
        },
        {
          "time": 608.372468,
          "name": "B3",
          "midi": 59,
          "duration": 0.181269,
          "velocity": 0.88189
        },
        {
          "time": 608.372468,
          "name": "D3",
          "midi": 50,
          "duration": 0.181269,
          "velocity": 0.88189
        },
        {
          "time": 608.550715,
          "name": "B2",
          "midi": 47,
          "duration": 0.182906,
          "velocity": 0.866142
        },
        {
          "time": 608.553737,
          "name": "B3",
          "midi": 59,
          "duration": 0.183111,
          "velocity": 0.88189
        },
        {
          "time": 608.553737,
          "name": "D3",
          "midi": 50,
          "duration": 0.183111,
          "velocity": 0.88189
        },
        {
          "time": 608.733622,
          "name": "G2",
          "midi": 43,
          "duration": 0.193548,
          "velocity": 0.866142
        },
        {
          "time": 608.736848,
          "name": "B3",
          "midi": 59,
          "duration": 0.193549,
          "velocity": 0.88189
        },
        {
          "time": 608.736848,
          "name": "D3",
          "midi": 50,
          "duration": 0.193549,
          "velocity": 0.88189
        },
        {
          "time": 609.483257,
          "name": "E2",
          "midi": 40,
          "duration": 0.367333,
          "velocity": 0.866142
        },
        {
          "time": 609.483257,
          "name": "E3",
          "midi": 52,
          "duration": 0.367333,
          "velocity": 0.866142
        },
        {
          "time": 609.486483,
          "name": "E3",
          "midi": 52,
          "duration": 0.367128,
          "velocity": 0.88189
        },
        {
          "time": 609.868716,
          "name": "G2",
          "midi": 43,
          "duration": 0.34482,
          "velocity": 0.866142
        },
        {
          "time": 609.868716,
          "name": "G3",
          "midi": 55,
          "duration": 0.34482,
          "velocity": 0.866142
        },
        {
          "time": 609.871738,
          "name": "G3",
          "midi": 55,
          "duration": 0.345025,
          "velocity": 0.88189
        },
        {
          "time": 610.232892,
          "name": "B3",
          "midi": 59,
          "duration": 0.367333,
          "velocity": 0.866142
        },
        {
          "time": 610.232892,
          "name": "B2",
          "midi": 47,
          "duration": 0.367333,
          "velocity": 0.866142
        },
        {
          "time": 610.236118,
          "name": "B3",
          "midi": 59,
          "duration": 0.367128,
          "velocity": 0.88189
        },
        {
          "time": 610.618351,
          "name": "E2",
          "midi": 40,
          "duration": 0.34482,
          "velocity": 0.866142
        },
        {
          "time": 610.618351,
          "name": "E3",
          "midi": 52,
          "duration": 0.34482,
          "velocity": 0.866142
        },
        {
          "time": 610.621373,
          "name": "E3",
          "midi": 52,
          "duration": 0.345025,
          "velocity": 0.88189
        },
        {
          "time": 610.982527,
          "name": "G2",
          "midi": 43,
          "duration": 0.367333,
          "velocity": 0.866142
        },
        {
          "time": 610.982527,
          "name": "G3",
          "midi": 55,
          "duration": 0.367333,
          "velocity": 0.866142
        },
        {
          "time": 610.985753,
          "name": "G3",
          "midi": 55,
          "duration": 0.367128,
          "velocity": 0.88189
        },
        {
          "time": 611.367986,
          "name": "B3",
          "midi": 59,
          "duration": 0.34482,
          "velocity": 0.866142
        },
        {
          "time": 611.367986,
          "name": "B2",
          "midi": 47,
          "duration": 0.34482,
          "velocity": 0.866142
        },
        {
          "time": 611.371008,
          "name": "B3",
          "midi": 59,
          "duration": 0.345025,
          "velocity": 0.88189
        },
        {
          "time": 611.732162,
          "name": "E2",
          "midi": 40,
          "duration": 0.183871,
          "velocity": 0.866142
        },
        {
          "time": 611.732162,
          "name": "E3",
          "midi": 52,
          "duration": 0.183871,
          "velocity": 0.866142
        },
        {
          "time": 611.735388,
          "name": "E3",
          "midi": 52,
          "duration": 0.183871,
          "velocity": 0.88189
        },
        {
          "time": 611.92571,
          "name": "G2",
          "midi": 43,
          "duration": 0.182848,
          "velocity": 0.866142
        },
        {
          "time": 611.92571,
          "name": "G3",
          "midi": 55,
          "duration": 0.182848,
          "velocity": 0.866142
        },
        {
          "time": 611.928936,
          "name": "G3",
          "midi": 55,
          "duration": 0.182643,
          "velocity": 0.88189
        },
        {
          "time": 612.117621,
          "name": "B3",
          "midi": 59,
          "duration": 0.34482,
          "velocity": 0.866142
        },
        {
          "time": 612.117621,
          "name": "B2",
          "midi": 47,
          "duration": 0.34482,
          "velocity": 0.866142
        },
        {
          "time": 612.120643,
          "name": "B3",
          "midi": 59,
          "duration": 0.345025,
          "velocity": 0.88189
        },
        {
          "time": 612.481797,
          "name": "E2",
          "midi": 40,
          "duration": 0.367333,
          "velocity": 0.866142
        },
        {
          "time": 612.481797,
          "name": "E3",
          "midi": 52,
          "duration": 0.367333,
          "velocity": 0.866142
        },
        {
          "time": 612.485023,
          "name": "E3",
          "midi": 52,
          "duration": 0.367128,
          "velocity": 0.88189
        },
        {
          "time": 612.867256,
          "name": "G2",
          "midi": 43,
          "duration": 0.34482,
          "velocity": 0.866142
        },
        {
          "time": 612.867256,
          "name": "G3",
          "midi": 55,
          "duration": 0.34482,
          "velocity": 0.866142
        },
        {
          "time": 612.870278,
          "name": "G3",
          "midi": 55,
          "duration": 0.345025,
          "velocity": 0.88189
        },
        {
          "time": 613.231432,
          "name": "B3",
          "midi": 59,
          "duration": 0.367333,
          "velocity": 0.866142
        },
        {
          "time": 613.231432,
          "name": "B2",
          "midi": 47,
          "duration": 0.367333,
          "velocity": 0.866142
        },
        {
          "time": 613.234658,
          "name": "B3",
          "midi": 59,
          "duration": 0.367128,
          "velocity": 0.88189
        },
        {
          "time": 613.616891,
          "name": "E3",
          "midi": 52,
          "duration": 0.34482,
          "velocity": 0.866142
        },
        {
          "time": 613.616891,
          "name": "E2",
          "midi": 40,
          "duration": 0.34482,
          "velocity": 0.866142
        },
        {
          "time": 613.619913,
          "name": "E3",
          "midi": 52,
          "duration": 0.345025,
          "velocity": 0.88189
        },
        {
          "time": 613.981067,
          "name": "G2",
          "midi": 43,
          "duration": 0.183871,
          "velocity": 0.866142
        },
        {
          "time": 613.981067,
          "name": "G3",
          "midi": 55,
          "duration": 0.183871,
          "velocity": 0.866142
        },
        {
          "time": 613.984293,
          "name": "G3",
          "midi": 55,
          "duration": 0.183871,
          "velocity": 0.88189
        },
        {
          "time": 614.174615,
          "name": "B3",
          "midi": 59,
          "duration": 0.182848,
          "velocity": 0.866142
        },
        {
          "time": 614.174615,
          "name": "B2",
          "midi": 47,
          "duration": 0.182848,
          "velocity": 0.866142
        },
        {
          "time": 614.177841,
          "name": "B3",
          "midi": 59,
          "duration": 0.182643,
          "velocity": 0.88189
        },
        {
          "time": 614.366526,
          "name": "E3",
          "midi": 52,
          "duration": 0.172206,
          "velocity": 0.866142
        },
        {
          "time": 614.366526,
          "name": "E2",
          "midi": 40,
          "duration": 0.172206,
          "velocity": 0.866142
        },
        {
          "time": 614.369548,
          "name": "E3",
          "midi": 52,
          "duration": 0.172206,
          "velocity": 0.88189
        },
        {
          "time": 614.547795,
          "name": "G2",
          "midi": 43,
          "duration": 0.173229,
          "velocity": 0.866142
        },
        {
          "time": 614.547795,
          "name": "G3",
          "midi": 55,
          "duration": 0.173229,
          "velocity": 0.866142
        },
        {
          "time": 614.550817,
          "name": "G3",
          "midi": 55,
          "duration": 0.173433,
          "velocity": 0.88189
        },
        {
          "time": 614.730702,
          "name": "B3",
          "midi": 59,
          "duration": 0.183871,
          "velocity": 0.866142
        },
        {
          "time": 614.730702,
          "name": "B2",
          "midi": 47,
          "duration": 0.183871,
          "velocity": 0.866142
        },
        {
          "time": 614.733928,
          "name": "B3",
          "midi": 59,
          "duration": 0.183871,
          "velocity": 0.88189
        },
        {
          "time": 615.480337,
          "name": "E3",
          "midi": 52,
          "duration": 0.367333,
          "velocity": 0.866142
        },
        {
          "time": 615.480337,
          "name": "E2",
          "midi": 40,
          "duration": 0.367333,
          "velocity": 0.866142
        },
        {
          "time": 615.483563,
          "name": "E3",
          "midi": 52,
          "duration": 0.367128,
          "velocity": 0.88189
        },
        {
          "time": 615.865796,
          "name": "G2",
          "midi": 43,
          "duration": 0.34482,
          "velocity": 0.866142
        },
        {
          "time": 615.865796,
          "name": "G3",
          "midi": 55,
          "duration": 0.34482,
          "velocity": 0.866142
        },
        {
          "time": 615.868818,
          "name": "G3",
          "midi": 55,
          "duration": 0.345025,
          "velocity": 0.88189
        },
        {
          "time": 616.229972,
          "name": "B3",
          "midi": 59,
          "duration": 0.367333,
          "velocity": 0.866142
        },
        {
          "time": 616.229972,
          "name": "B2",
          "midi": 47,
          "duration": 0.367333,
          "velocity": 0.866142
        },
        {
          "time": 616.233198,
          "name": "B3",
          "midi": 59,
          "duration": 0.367128,
          "velocity": 0.88189
        },
        {
          "time": 616.615431,
          "name": "E3",
          "midi": 52,
          "duration": 0.34482,
          "velocity": 0.866142
        },
        {
          "time": 616.615431,
          "name": "E2",
          "midi": 40,
          "duration": 0.34482,
          "velocity": 0.866142
        },
        {
          "time": 616.618453,
          "name": "E3",
          "midi": 52,
          "duration": 0.345025,
          "velocity": 0.88189
        },
        {
          "time": 616.979607,
          "name": "G2",
          "midi": 43,
          "duration": 0.367333,
          "velocity": 0.866142
        },
        {
          "time": 616.979607,
          "name": "G3",
          "midi": 55,
          "duration": 0.367333,
          "velocity": 0.866142
        },
        {
          "time": 616.982833,
          "name": "G3",
          "midi": 55,
          "duration": 0.367128,
          "velocity": 0.88189
        },
        {
          "time": 617.365066,
          "name": "B3",
          "midi": 59,
          "duration": 0.34482,
          "velocity": 0.866142
        },
        {
          "time": 617.365066,
          "name": "B2",
          "midi": 47,
          "duration": 0.34482,
          "velocity": 0.866142
        },
        {
          "time": 617.368088,
          "name": "B3",
          "midi": 59,
          "duration": 0.345025,
          "velocity": 0.88189
        },
        {
          "time": 617.729242,
          "name": "E3",
          "midi": 52,
          "duration": 0.183871,
          "velocity": 0.866142
        },
        {
          "time": 617.729242,
          "name": "E2",
          "midi": 40,
          "duration": 0.183871,
          "velocity": 0.866142
        },
        {
          "time": 617.732468,
          "name": "E3",
          "midi": 52,
          "duration": 0.183871,
          "velocity": 0.88189
        },
        {
          "time": 617.92279,
          "name": "G2",
          "midi": 43,
          "duration": 0.182848,
          "velocity": 0.866142
        },
        {
          "time": 617.92279,
          "name": "G3",
          "midi": 55,
          "duration": 0.182848,
          "velocity": 0.866142
        },
        {
          "time": 617.926016,
          "name": "G3",
          "midi": 55,
          "duration": 0.182643,
          "velocity": 0.88189
        },
        {
          "time": 618.114701,
          "name": "B2",
          "midi": 47,
          "duration": 0.34482,
          "velocity": 0.866142
        },
        {
          "time": 618.114701,
          "name": "B3",
          "midi": 59,
          "duration": 0.34482,
          "velocity": 0.866142
        },
        {
          "time": 618.117723,
          "name": "B3",
          "midi": 59,
          "duration": 0.345025,
          "velocity": 0.88189
        },
        {
          "time": 618.478877,
          "name": "E3",
          "midi": 52,
          "duration": 0.367333,
          "velocity": 0.866142
        },
        {
          "time": 618.478877,
          "name": "E2",
          "midi": 40,
          "duration": 0.367333,
          "velocity": 0.866142
        },
        {
          "time": 618.482103,
          "name": "E3",
          "midi": 52,
          "duration": 0.367128,
          "velocity": 0.88189
        },
        {
          "time": 618.864336,
          "name": "G2",
          "midi": 43,
          "duration": 0.34482,
          "velocity": 0.866142
        },
        {
          "time": 618.864336,
          "name": "G3",
          "midi": 55,
          "duration": 0.34482,
          "velocity": 0.866142
        },
        {
          "time": 618.867358,
          "name": "G3",
          "midi": 55,
          "duration": 0.345025,
          "velocity": 0.88189
        },
        {
          "time": 619.228512,
          "name": "B2",
          "midi": 47,
          "duration": 0.367333,
          "velocity": 0.866142
        },
        {
          "time": 619.228512,
          "name": "B3",
          "midi": 59,
          "duration": 0.367333,
          "velocity": 0.866142
        },
        {
          "time": 619.231738,
          "name": "B3",
          "midi": 59,
          "duration": 0.367128,
          "velocity": 0.88189
        },
        {
          "time": 619.613971,
          "name": "E3",
          "midi": 52,
          "duration": 0.34482,
          "velocity": 0.866142
        },
        {
          "time": 619.613971,
          "name": "E2",
          "midi": 40,
          "duration": 0.34482,
          "velocity": 0.866142
        },
        {
          "time": 619.616993,
          "name": "E3",
          "midi": 52,
          "duration": 0.345025,
          "velocity": 0.88189
        },
        {
          "time": 619.978147,
          "name": "G2",
          "midi": 43,
          "duration": 0.183871,
          "velocity": 0.866142
        },
        {
          "time": 619.978147,
          "name": "G3",
          "midi": 55,
          "duration": 0.183871,
          "velocity": 0.866142
        },
        {
          "time": 619.981373,
          "name": "G3",
          "midi": 55,
          "duration": 0.183871,
          "velocity": 0.88189
        },
        {
          "time": 620.171695,
          "name": "B2",
          "midi": 47,
          "duration": 0.182848,
          "velocity": 0.866142
        },
        {
          "time": 620.171695,
          "name": "B3",
          "midi": 59,
          "duration": 0.182848,
          "velocity": 0.866142
        },
        {
          "time": 620.174921,
          "name": "B3",
          "midi": 59,
          "duration": 0.182643,
          "velocity": 0.88189
        },
        {
          "time": 620.363606,
          "name": "E3",
          "midi": 52,
          "duration": 0.172206,
          "velocity": 0.866142
        },
        {
          "time": 620.363606,
          "name": "E2",
          "midi": 40,
          "duration": 0.172206,
          "velocity": 0.866142
        },
        {
          "time": 620.366628,
          "name": "E3",
          "midi": 52,
          "duration": 0.172206,
          "velocity": 0.88189
        },
        {
          "time": 620.544875,
          "name": "A2",
          "midi": 45,
          "duration": 0.173229,
          "velocity": 0.866142
        },
        {
          "time": 620.544875,
          "name": "A3",
          "midi": 57,
          "duration": 0.173229,
          "velocity": 0.866142
        },
        {
          "time": 620.547897,
          "name": "A2",
          "midi": 45,
          "duration": 0.173433,
          "velocity": 0.88189
        },
        {
          "time": 620.727782,
          "name": "D2",
          "midi": 38,
          "duration": 0.193548,
          "velocity": 0.866142
        },
        {
          "time": 620.727782,
          "name": "D3",
          "midi": 50,
          "duration": 0.193548,
          "velocity": 0.866142
        },
        {
          "time": 620.731008,
          "name": "D3",
          "midi": 50,
          "duration": 0.193549,
          "velocity": 0.88189
        },
        {
          "time": 620.924556,
          "name": "D4",
          "midi": 62,
          "duration": 0.191707,
          "velocity": 0.88189
        },
        {
          "time": 621.480643,
          "name": "D3",
          "midi": 50,
          "duration": 0.193549,
          "velocity": 0.88189
        },
        {
          "time": 621.674191,
          "name": "D4",
          "midi": 62,
          "duration": 0.191707,
          "velocity": 0.88189
        },
        {
          "time": 622.230278,
          "name": "D3",
          "midi": 50,
          "duration": 0.193549,
          "velocity": 0.88189
        },
        {
          "time": 622.423826,
          "name": "D4",
          "midi": 62,
          "duration": 0.191707,
          "velocity": 0.88189
        },
        {
          "time": 622.979913,
          "name": "D3",
          "midi": 50,
          "duration": 0.193549,
          "velocity": 0.88189
        },
        {
          "time": 623.173461,
          "name": "D4",
          "midi": 62,
          "duration": 0.191707,
          "velocity": 0.88189
        },
        {
          "time": 623.729548,
          "name": "D3",
          "midi": 50,
          "duration": 0.193549,
          "velocity": 0.88189
        },
        {
          "time": 623.923096,
          "name": "D4",
          "midi": 62,
          "duration": 0.191707,
          "velocity": 0.88189
        },
        {
          "time": 624.479183,
          "name": "D3",
          "midi": 50,
          "duration": 0.193549,
          "velocity": 0.88189
        },
        {
          "time": 624.672731,
          "name": "D4",
          "midi": 62,
          "duration": 0.191707,
          "velocity": 0.88189
        },
        {
          "time": 625.228818,
          "name": "D3",
          "midi": 50,
          "duration": 0.193549,
          "velocity": 0.88189
        },
        {
          "time": 625.422366,
          "name": "D4",
          "midi": 62,
          "duration": 0.191707,
          "velocity": 0.88189
        },
        {
          "time": 625.978453,
          "name": "D3",
          "midi": 50,
          "duration": 0.193549,
          "velocity": 0.88189
        },
        {
          "time": 626.172001,
          "name": "D4",
          "midi": 62,
          "duration": 0.191707,
          "velocity": 0.88189
        },
        {
          "time": 626.728088,
          "name": "D3",
          "midi": 50,
          "duration": 0.193549,
          "velocity": 0.88189
        },
        {
          "time": 626.921636,
          "name": "D4",
          "midi": 62,
          "duration": 0.191707,
          "velocity": 0.88189
        },
        {
          "time": 627.294612,
          "name": "D4",
          "midi": 62,
          "duration": 0.183111,
          "velocity": 0.88189
        },
        {
          "time": 627.474497,
          "name": "D2",
          "midi": 38,
          "duration": 1.49927,
          "velocity": 0.866142
        },
        {
          "time": 627.474497,
          "name": "D3",
          "midi": 50,
          "duration": 1.49927,
          "velocity": 0.866142
        },
        {
          "time": 627.477723,
          "name": "F#4",
          "midi": 66,
          "duration": 0.193549,
          "velocity": 0.88189
        },
        {
          "time": 627.671271,
          "name": "A4",
          "midi": 69,
          "duration": 0.191707,
          "velocity": 0.88189
        },
        {
          "time": 627.862978,
          "name": "G4",
          "midi": 67,
          "duration": 0.181269,
          "velocity": 0.88189
        },
        {
          "time": 628.044247,
          "name": "B3",
          "midi": 59,
          "duration": 0.183111,
          "velocity": 0.88189
        },
        {
          "time": 628.227358,
          "name": "A3",
          "midi": 57,
          "duration": 0.193549,
          "velocity": 0.88189
        },
        {
          "time": 628.420906,
          "name": "C4",
          "midi": 60,
          "duration": 0.191707,
          "velocity": 0.88189
        },
        {
          "time": 628.612613,
          "name": "B3",
          "midi": 59,
          "duration": 0.181269,
          "velocity": 0.88189
        },
        {
          "time": 628.793882,
          "name": "G3",
          "midi": 55,
          "duration": 0.183111,
          "velocity": 0.88189
        },
        {
          "time": 628.973767,
          "name": "D2",
          "midi": 38,
          "duration": 1.49927,
          "velocity": 0.866142
        },
        {
          "time": 628.973767,
          "name": "D3",
          "midi": 50,
          "duration": 1.49927,
          "velocity": 0.866142
        },
        {
          "time": 628.976993,
          "name": "F#3",
          "midi": 54,
          "duration": 0.193549,
          "velocity": 0.88189
        },
        {
          "time": 629.170541,
          "name": "A3",
          "midi": 57,
          "duration": 0.191707,
          "velocity": 0.88189
        },
        {
          "time": 629.362248,
          "name": "G3",
          "midi": 55,
          "duration": 0.181269,
          "velocity": 0.88189
        },
        {
          "time": 629.543517,
          "name": "B3",
          "midi": 59,
          "duration": 0.183111,
          "velocity": 0.88189
        },
        {
          "time": 629.726628,
          "name": "A3",
          "midi": 57,
          "duration": 0.193549,
          "velocity": 0.88189
        },
        {
          "time": 629.920176,
          "name": "C4",
          "midi": 60,
          "duration": 0.191707,
          "velocity": 0.88189
        },
        {
          "time": 630.111883,
          "name": "B3",
          "midi": 59,
          "duration": 0.181269,
          "velocity": 0.88189
        },
        {
          "time": 630.293152,
          "name": "G4",
          "midi": 67,
          "duration": 0.183111,
          "velocity": 0.88189
        },
        {
          "time": 630.473037,
          "name": "D2",
          "midi": 38,
          "duration": 1.692818,
          "velocity": 0.866142
        },
        {
          "time": 630.473037,
          "name": "D3",
          "midi": 50,
          "duration": 1.692818,
          "velocity": 0.866142
        },
        {
          "time": 630.476263,
          "name": "F#4",
          "midi": 66,
          "duration": 0.193549,
          "velocity": 0.88189
        },
        {
          "time": 630.669811,
          "name": "A4",
          "midi": 69,
          "duration": 0.191707,
          "velocity": 0.88189
        },
        {
          "time": 630.861518,
          "name": "G4",
          "midi": 67,
          "duration": 0.181269,
          "velocity": 0.88189
        },
        {
          "time": 631.042787,
          "name": "B3",
          "midi": 59,
          "duration": 0.183111,
          "velocity": 0.88189
        },
        {
          "time": 631.225898,
          "name": "A3",
          "midi": 57,
          "duration": 0.193549,
          "velocity": 0.88189
        },
        {
          "time": 631.419446,
          "name": "C4",
          "midi": 60,
          "duration": 0.191707,
          "velocity": 0.88189
        },
        {
          "time": 631.611153,
          "name": "B3",
          "midi": 59,
          "duration": 0.181269,
          "velocity": 0.88189
        },
        {
          "time": 631.792422,
          "name": "G3",
          "midi": 55,
          "duration": 0.183111,
          "velocity": 0.88189
        },
        {
          "time": 631.975533,
          "name": "F#3",
          "midi": 54,
          "duration": 0.193549,
          "velocity": 0.88189
        },
        {
          "time": 633.471577,
          "name": "G2",
          "midi": 43,
          "duration": 0.193548,
          "velocity": 0.866142
        },
        {
          "time": 633.668351,
          "name": "B3",
          "midi": 59,
          "duration": 0.191707,
          "velocity": 0.88189
        },
        {
          "time": 633.668351,
          "name": "D3",
          "midi": 50,
          "duration": 0.191707,
          "velocity": 0.88189
        },
        {
          "time": 633.668351,
          "name": "G2",
          "midi": 43,
          "duration": 0.191707,
          "velocity": 0.88189
        },
        {
          "time": 633.857036,
          "name": "G2",
          "midi": 43,
          "duration": 0.181269,
          "velocity": 0.866142
        },
        {
          "time": 634.041327,
          "name": "B3",
          "midi": 59,
          "duration": 0.183111,
          "velocity": 0.88189
        },
        {
          "time": 634.041327,
          "name": "D3",
          "midi": 50,
          "duration": 0.183111,
          "velocity": 0.88189
        },
        {
          "time": 634.041327,
          "name": "G2",
          "midi": 43,
          "duration": 0.183111,
          "velocity": 0.88189
        },
        {
          "time": 634.221212,
          "name": "G2",
          "midi": 43,
          "duration": 0.193548,
          "velocity": 0.866142
        },
        {
          "time": 634.417986,
          "name": "C4",
          "midi": 60,
          "duration": 0.191707,
          "velocity": 0.88189
        },
        {
          "time": 634.417986,
          "name": "D3",
          "midi": 50,
          "duration": 0.191707,
          "velocity": 0.88189
        },
        {
          "time": 634.417986,
          "name": "G2",
          "midi": 43,
          "duration": 0.191707,
          "velocity": 0.88189
        },
        {
          "time": 634.606671,
          "name": "G2",
          "midi": 43,
          "duration": 0.181269,
          "velocity": 0.866142
        },
        {
          "time": 634.790962,
          "name": "C4",
          "midi": 60,
          "duration": 0.183111,
          "velocity": 0.88189
        },
        {
          "time": 634.790962,
          "name": "D3",
          "midi": 50,
          "duration": 0.183111,
          "velocity": 0.88189
        },
        {
          "time": 634.790962,
          "name": "G2",
          "midi": 43,
          "duration": 0.183111,
          "velocity": 0.88189
        },
        {
          "time": 634.970847,
          "name": "G2",
          "midi": 43,
          "duration": 0.193548,
          "velocity": 0.866142
        },
        {
          "time": 635.167621,
          "name": "B3",
          "midi": 59,
          "duration": 0.191707,
          "velocity": 0.88189
        },
        {
          "time": 635.167621,
          "name": "D3",
          "midi": 50,
          "duration": 0.191707,
          "velocity": 0.88189
        },
        {
          "time": 635.167621,
          "name": "G2",
          "midi": 43,
          "duration": 0.191707,
          "velocity": 0.88189
        },
        {
          "time": 635.356306,
          "name": "G2",
          "midi": 43,
          "duration": 0.181269,
          "velocity": 0.866142
        },
        {
          "time": 635.540597,
          "name": "B3",
          "midi": 59,
          "duration": 0.183111,
          "velocity": 0.88189
        },
        {
          "time": 635.540597,
          "name": "D3",
          "midi": 50,
          "duration": 0.183111,
          "velocity": 0.88189
        },
        {
          "time": 635.540597,
          "name": "G2",
          "midi": 43,
          "duration": 0.183111,
          "velocity": 0.88189
        },
        {
          "time": 635.720482,
          "name": "G2",
          "midi": 43,
          "duration": 0.193548,
          "velocity": 0.866142
        },
        {
          "time": 635.917256,
          "name": "B3",
          "midi": 59,
          "duration": 0.191707,
          "velocity": 0.88189
        },
        {
          "time": 635.917256,
          "name": "D3",
          "midi": 50,
          "duration": 0.191707,
          "velocity": 0.88189
        },
        {
          "time": 635.917256,
          "name": "G2",
          "midi": 43,
          "duration": 0.191707,
          "velocity": 0.88189
        },
        {
          "time": 636.105941,
          "name": "G2",
          "midi": 43,
          "duration": 0.181269,
          "velocity": 0.866142
        },
        {
          "time": 636.290232,
          "name": "B3",
          "midi": 59,
          "duration": 0.183111,
          "velocity": 0.88189
        },
        {
          "time": 636.290232,
          "name": "D3",
          "midi": 50,
          "duration": 0.183111,
          "velocity": 0.88189
        },
        {
          "time": 636.290232,
          "name": "G2",
          "midi": 43,
          "duration": 0.183111,
          "velocity": 0.88189
        },
        {
          "time": 636.470117,
          "name": "G2",
          "midi": 43,
          "duration": 0.193548,
          "velocity": 0.866142
        },
        {
          "time": 636.666891,
          "name": "D4",
          "midi": 62,
          "duration": 0.191707,
          "velocity": 0.88189
        },
        {
          "time": 636.666891,
          "name": "D3",
          "midi": 50,
          "duration": 0.191707,
          "velocity": 0.88189
        },
        {
          "time": 636.666891,
          "name": "G2",
          "midi": 43,
          "duration": 0.191707,
          "velocity": 0.88189
        },
        {
          "time": 636.855576,
          "name": "G2",
          "midi": 43,
          "duration": 0.181269,
          "velocity": 0.866142
        },
        {
          "time": 637.039867,
          "name": "D4",
          "midi": 62,
          "duration": 0.183111,
          "velocity": 0.88189
        },
        {
          "time": 637.039867,
          "name": "D3",
          "midi": 50,
          "duration": 0.183111,
          "velocity": 0.88189
        },
        {
          "time": 637.039867,
          "name": "G2",
          "midi": 43,
          "duration": 0.183111,
          "velocity": 0.88189
        },
        {
          "time": 637.219752,
          "name": "G2",
          "midi": 43,
          "duration": 0.193548,
          "velocity": 0.866142
        },
        {
          "time": 637.416526,
          "name": "D4",
          "midi": 62,
          "duration": 0.191707,
          "velocity": 0.88189
        },
        {
          "time": 637.416526,
          "name": "D3",
          "midi": 50,
          "duration": 0.191707,
          "velocity": 0.88189
        },
        {
          "time": 637.416526,
          "name": "G2",
          "midi": 43,
          "duration": 0.191707,
          "velocity": 0.88189
        },
        {
          "time": 637.605211,
          "name": "G2",
          "midi": 43,
          "duration": 0.181269,
          "velocity": 0.866142
        },
        {
          "time": 637.789502,
          "name": "D4",
          "midi": 62,
          "duration": 0.183111,
          "velocity": 0.88189
        },
        {
          "time": 637.789502,
          "name": "D3",
          "midi": 50,
          "duration": 0.183111,
          "velocity": 0.88189
        },
        {
          "time": 637.789502,
          "name": "G2",
          "midi": 43,
          "duration": 0.183111,
          "velocity": 0.88189
        },
        {
          "time": 637.969387,
          "name": "G2",
          "midi": 43,
          "duration": 0.193548,
          "velocity": 0.866142
        },
        {
          "time": 638.166161,
          "name": "B3",
          "midi": 59,
          "duration": 0.191707,
          "velocity": 0.88189
        },
        {
          "time": 638.166161,
          "name": "D3",
          "midi": 50,
          "duration": 0.191707,
          "velocity": 0.88189
        },
        {
          "time": 638.166161,
          "name": "G2",
          "midi": 43,
          "duration": 0.191707,
          "velocity": 0.88189
        },
        {
          "time": 638.354846,
          "name": "G2",
          "midi": 43,
          "duration": 0.181269,
          "velocity": 0.866142
        },
        {
          "time": 638.539137,
          "name": "C#4",
          "midi": 61,
          "duration": 0.183111,
          "velocity": 0.88189
        },
        {
          "time": 638.539137,
          "name": "D3",
          "midi": 50,
          "duration": 0.183111,
          "velocity": 0.88189
        },
        {
          "time": 638.539137,
          "name": "G2",
          "midi": 43,
          "duration": 0.183111,
          "velocity": 0.88189
        },
        {
          "time": 638.719022,
          "name": "G2",
          "midi": 43,
          "duration": 0.193548,
          "velocity": 0.866142
        },
        {
          "time": 638.915796,
          "name": "D4",
          "midi": 62,
          "duration": 0.191707,
          "velocity": 0.88189
        },
        {
          "time": 638.915796,
          "name": "D3",
          "midi": 50,
          "duration": 0.191707,
          "velocity": 0.88189
        },
        {
          "time": 638.915796,
          "name": "G2",
          "midi": 43,
          "duration": 0.191707,
          "velocity": 0.88189
        },
        {
          "time": 639.104481,
          "name": "G2",
          "midi": 43,
          "duration": 0.181269,
          "velocity": 0.866142
        },
        {
          "time": 639.288772,
          "name": "B3",
          "midi": 59,
          "duration": 0.183111,
          "velocity": 0.88189
        },
        {
          "time": 639.288772,
          "name": "D3",
          "midi": 50,
          "duration": 0.183111,
          "velocity": 0.88189
        },
        {
          "time": 639.288772,
          "name": "G2",
          "midi": 43,
          "duration": 0.183111,
          "velocity": 0.88189
        },
        {
          "time": 639.468657,
          "name": "G2",
          "midi": 43,
          "duration": 0.193548,
          "velocity": 0.866142
        },
        {
          "time": 639.665431,
          "name": "B3",
          "midi": 59,
          "duration": 0.191707,
          "velocity": 0.88189
        },
        {
          "time": 639.665431,
          "name": "D3",
          "midi": 50,
          "duration": 0.191707,
          "velocity": 0.88189
        },
        {
          "time": 639.665431,
          "name": "G2",
          "midi": 43,
          "duration": 0.191707,
          "velocity": 0.88189
        },
        {
          "time": 639.854116,
          "name": "G2",
          "midi": 43,
          "duration": 0.181269,
          "velocity": 0.866142
        },
        {
          "time": 640.038407,
          "name": "B3",
          "midi": 59,
          "duration": 0.183111,
          "velocity": 0.88189
        },
        {
          "time": 640.038407,
          "name": "D3",
          "midi": 50,
          "duration": 0.183111,
          "velocity": 0.88189
        },
        {
          "time": 640.038407,
          "name": "G2",
          "midi": 43,
          "duration": 0.183111,
          "velocity": 0.88189
        },
        {
          "time": 640.218292,
          "name": "G2",
          "midi": 43,
          "duration": 0.193548,
          "velocity": 0.866142
        },
        {
          "time": 640.415066,
          "name": "C4",
          "midi": 60,
          "duration": 0.191707,
          "velocity": 0.88189
        },
        {
          "time": 640.415066,
          "name": "D3",
          "midi": 50,
          "duration": 0.191707,
          "velocity": 0.88189
        },
        {
          "time": 640.415066,
          "name": "G2",
          "midi": 43,
          "duration": 0.191707,
          "velocity": 0.88189
        },
        {
          "time": 640.603751,
          "name": "G2",
          "midi": 43,
          "duration": 0.181269,
          "velocity": 0.866142
        },
        {
          "time": 640.788042,
          "name": "C4",
          "midi": 60,
          "duration": 0.183111,
          "velocity": 0.88189
        },
        {
          "time": 640.788042,
          "name": "D3",
          "midi": 50,
          "duration": 0.183111,
          "velocity": 0.88189
        },
        {
          "time": 640.788042,
          "name": "G2",
          "midi": 43,
          "duration": 0.183111,
          "velocity": 0.88189
        },
        {
          "time": 640.967927,
          "name": "G2",
          "midi": 43,
          "duration": 0.193548,
          "velocity": 0.866142
        },
        {
          "time": 641.164701,
          "name": "B3",
          "midi": 59,
          "duration": 0.191707,
          "velocity": 0.88189
        },
        {
          "time": 641.164701,
          "name": "D3",
          "midi": 50,
          "duration": 0.191707,
          "velocity": 0.88189
        },
        {
          "time": 641.164701,
          "name": "G2",
          "midi": 43,
          "duration": 0.191707,
          "velocity": 0.88189
        },
        {
          "time": 641.353386,
          "name": "G2",
          "midi": 43,
          "duration": 0.181269,
          "velocity": 0.866142
        },
        {
          "time": 641.537677,
          "name": "B3",
          "midi": 59,
          "duration": 0.183111,
          "velocity": 0.88189
        },
        {
          "time": 641.537677,
          "name": "D3",
          "midi": 50,
          "duration": 0.183111,
          "velocity": 0.88189
        },
        {
          "time": 641.537677,
          "name": "G2",
          "midi": 43,
          "duration": 0.183111,
          "velocity": 0.88189
        },
        {
          "time": 641.717562,
          "name": "G2",
          "midi": 43,
          "duration": 0.193548,
          "velocity": 0.866142
        },
        {
          "time": 641.914336,
          "name": "B3",
          "midi": 59,
          "duration": 0.191707,
          "velocity": 0.88189
        },
        {
          "time": 641.914336,
          "name": "D3",
          "midi": 50,
          "duration": 0.191707,
          "velocity": 0.88189
        },
        {
          "time": 641.914336,
          "name": "G2",
          "midi": 43,
          "duration": 0.191707,
          "velocity": 0.88189
        },
        {
          "time": 642.103021,
          "name": "G2",
          "midi": 43,
          "duration": 0.181269,
          "velocity": 0.866142
        },
        {
          "time": 642.287312,
          "name": "B3",
          "midi": 59,
          "duration": 0.183111,
          "velocity": 0.88189
        },
        {
          "time": 642.287312,
          "name": "D3",
          "midi": 50,
          "duration": 0.183111,
          "velocity": 0.88189
        },
        {
          "time": 642.287312,
          "name": "G2",
          "midi": 43,
          "duration": 0.183111,
          "velocity": 0.88189
        },
        {
          "time": 642.467197,
          "name": "E3",
          "midi": 52,
          "duration": 0.193548,
          "velocity": 0.866142
        },
        {
          "time": 642.467197,
          "name": "E2",
          "midi": 40,
          "duration": 0.193548,
          "velocity": 0.866142
        },
        {
          "time": 642.663971,
          "name": "B3",
          "midi": 59,
          "duration": 0.191707,
          "velocity": 0.88189
        },
        {
          "time": 642.663971,
          "name": "E3",
          "midi": 52,
          "duration": 0.191707,
          "velocity": 0.88189
        },
        {
          "time": 642.852656,
          "name": "E3",
          "midi": 52,
          "duration": 0.181269,
          "velocity": 0.866142
        },
        {
          "time": 642.852656,
          "name": "E2",
          "midi": 40,
          "duration": 0.181269,
          "velocity": 0.866142
        },
        {
          "time": 643.036947,
          "name": "B3",
          "midi": 59,
          "duration": 0.183111,
          "velocity": 0.88189
        },
        {
          "time": 643.036947,
          "name": "E3",
          "midi": 52,
          "duration": 0.183111,
          "velocity": 0.88189
        },
        {
          "time": 643.216832,
          "name": "E3",
          "midi": 52,
          "duration": 0.193548,
          "velocity": 0.866142
        },
        {
          "time": 643.216832,
          "name": "E2",
          "midi": 40,
          "duration": 0.193548,
          "velocity": 0.866142
        },
        {
          "time": 643.413606,
          "name": "B3",
          "midi": 59,
          "duration": 0.191707,
          "velocity": 0.88189
        },
        {
          "time": 643.413606,
          "name": "E3",
          "midi": 52,
          "duration": 0.191707,
          "velocity": 0.88189
        },
        {
          "time": 643.602291,
          "name": "E3",
          "midi": 52,
          "duration": 0.181269,
          "velocity": 0.866142
        },
        {
          "time": 643.602291,
          "name": "E2",
          "midi": 40,
          "duration": 0.181269,
          "velocity": 0.866142
        },
        {
          "time": 643.786582,
          "name": "B3",
          "midi": 59,
          "duration": 0.183111,
          "velocity": 0.88189
        },
        {
          "time": 643.786582,
          "name": "E3",
          "midi": 52,
          "duration": 0.183111,
          "velocity": 0.88189
        },
        {
          "time": 643.966467,
          "name": "B2",
          "midi": 47,
          "duration": 0.193548,
          "velocity": 0.866142
        },
        {
          "time": 643.966467,
          "name": "B1",
          "midi": 35,
          "duration": 0.193548,
          "velocity": 0.866142
        },
        {
          "time": 644.163241,
          "name": "D#4",
          "midi": 63,
          "duration": 0.191707,
          "velocity": 0.88189
        },
        {
          "time": 644.163241,
          "name": "F#3",
          "midi": 54,
          "duration": 0.191707,
          "velocity": 0.88189
        },
        {
          "time": 644.163241,
          "name": "B2",
          "midi": 47,
          "duration": 0.191707,
          "velocity": 0.88189
        },
        {
          "time": 644.351926,
          "name": "B2",
          "midi": 47,
          "duration": 0.181269,
          "velocity": 0.866142
        },
        {
          "time": 644.351926,
          "name": "B1",
          "midi": 35,
          "duration": 0.181269,
          "velocity": 0.866142
        },
        {
          "time": 644.536217,
          "name": "D#4",
          "midi": 63,
          "duration": 0.183111,
          "velocity": 0.88189
        },
        {
          "time": 644.536217,
          "name": "F#3",
          "midi": 54,
          "duration": 0.183111,
          "velocity": 0.88189
        },
        {
          "time": 644.536217,
          "name": "B2",
          "midi": 47,
          "duration": 0.183111,
          "velocity": 0.88189
        },
        {
          "time": 644.716102,
          "name": "B2",
          "midi": 47,
          "duration": 0.193548,
          "velocity": 0.866142
        },
        {
          "time": 644.716102,
          "name": "B1",
          "midi": 35,
          "duration": 0.193548,
          "velocity": 0.866142
        },
        {
          "time": 644.912876,
          "name": "D#4",
          "midi": 63,
          "duration": 0.191707,
          "velocity": 0.88189
        },
        {
          "time": 644.912876,
          "name": "F#3",
          "midi": 54,
          "duration": 0.191707,
          "velocity": 0.88189
        },
        {
          "time": 644.912876,
          "name": "B2",
          "midi": 47,
          "duration": 0.191707,
          "velocity": 0.88189
        },
        {
          "time": 645.101561,
          "name": "B2",
          "midi": 47,
          "duration": 0.181269,
          "velocity": 0.866142
        },
        {
          "time": 645.101561,
          "name": "B1",
          "midi": 35,
          "duration": 0.181269,
          "velocity": 0.866142
        },
        {
          "time": 645.285852,
          "name": "D#4",
          "midi": 63,
          "duration": 0.183111,
          "velocity": 0.88189
        },
        {
          "time": 645.285852,
          "name": "F#3",
          "midi": 54,
          "duration": 0.183111,
          "velocity": 0.88189
        },
        {
          "time": 645.285852,
          "name": "B2",
          "midi": 47,
          "duration": 0.183111,
          "velocity": 0.88189
        },
        {
          "time": 645.465737,
          "name": "E3",
          "midi": 52,
          "duration": 0.38546,
          "velocity": 0.866142
        },
        {
          "time": 645.465737,
          "name": "E2",
          "midi": 40,
          "duration": 0.38546,
          "velocity": 0.866142
        },
        {
          "time": 645.468963,
          "name": "E3",
          "midi": 52,
          "duration": 0.385255,
          "velocity": 0.88189
        },
        {
          "time": 645.851196,
          "name": "F2",
          "midi": 41,
          "duration": 0.364175,
          "velocity": 0.866142
        },
        {
          "time": 645.851196,
          "name": "F3",
          "midi": 53,
          "duration": 0.364175,
          "velocity": 0.866142
        },
        {
          "time": 645.854218,
          "name": "F3",
          "midi": 53,
          "duration": 0.36438,
          "velocity": 0.88189
        },
        {
          "time": 646.215372,
          "name": "E3",
          "midi": 52,
          "duration": 0.38546,
          "velocity": 0.866142
        },
        {
          "time": 646.215372,
          "name": "E2",
          "midi": 40,
          "duration": 0.38546,
          "velocity": 0.866142
        },
        {
          "time": 646.218598,
          "name": "E3",
          "midi": 52,
          "duration": 0.385255,
          "velocity": 0.88189
        },
        {
          "time": 646.600831,
          "name": "D#2",
          "midi": 39,
          "duration": 0.364175,
          "velocity": 0.866142
        },
        {
          "time": 646.600831,
          "name": "D#3",
          "midi": 51,
          "duration": 0.364175,
          "velocity": 0.866142
        },
        {
          "time": 646.603853,
          "name": "D#3",
          "midi": 51,
          "duration": 0.36438,
          "velocity": 0.88189
        },
        {
          "time": 646.965007,
          "name": "D3",
          "midi": 50,
          "duration": 0.38546,
          "velocity": 0.866142
        },
        {
          "time": 646.965007,
          "name": "D2",
          "midi": 38,
          "duration": 0.38546,
          "velocity": 0.866142
        },
        {
          "time": 646.968233,
          "name": "D3",
          "midi": 50,
          "duration": 0.385255,
          "velocity": 0.88189
        },
        {
          "time": 647.350466,
          "name": "F2",
          "midi": 41,
          "duration": 0.364175,
          "velocity": 0.866142
        },
        {
          "time": 647.350466,
          "name": "F3",
          "midi": 53,
          "duration": 0.364175,
          "velocity": 0.866142
        },
        {
          "time": 647.353488,
          "name": "F3",
          "midi": 53,
          "duration": 0.36438,
          "velocity": 0.88189
        },
        {
          "time": 647.714642,
          "name": "E3",
          "midi": 52,
          "duration": 0.38546,
          "velocity": 0.866142
        },
        {
          "time": 647.714642,
          "name": "E2",
          "midi": 40,
          "duration": 0.38546,
          "velocity": 0.866142
        },
        {
          "time": 647.717868,
          "name": "E3",
          "midi": 52,
          "duration": 0.385255,
          "velocity": 0.88189
        },
        {
          "time": 648.100101,
          "name": "D#3",
          "midi": 51,
          "duration": 0.364175,
          "velocity": 0.866142
        },
        {
          "time": 648.100101,
          "name": "D#2",
          "midi": 39,
          "duration": 0.364175,
          "velocity": 0.866142
        },
        {
          "time": 648.103123,
          "name": "D#3",
          "midi": 51,
          "duration": 0.36438,
          "velocity": 0.88189
        },
        {
          "time": 648.464277,
          "name": "D2",
          "midi": 38,
          "duration": 0.38546,
          "velocity": 0.866142
        },
        {
          "time": 648.464277,
          "name": "D3",
          "midi": 50,
          "duration": 0.38546,
          "velocity": 0.866142
        },
        {
          "time": 648.467503,
          "name": "D3",
          "midi": 50,
          "duration": 0.385255,
          "velocity": 0.88189
        },
        {
          "time": 649.213912,
          "name": "E3",
          "midi": 52,
          "duration": 0.38546,
          "velocity": 0.866142
        },
        {
          "time": 649.213912,
          "name": "E2",
          "midi": 40,
          "duration": 0.38546,
          "velocity": 0.866142
        },
        {
          "time": 649.217138,
          "name": "E3",
          "midi": 52,
          "duration": 0.385255,
          "velocity": 0.88189
        },
        {
          "time": 649.963547,
          "name": "C2",
          "midi": 36,
          "duration": 0.38546,
          "velocity": 0.866142
        },
        {
          "time": 649.963547,
          "name": "C3",
          "midi": 48,
          "duration": 0.38546,
          "velocity": 0.866142
        },
        {
          "time": 649.966773,
          "name": "C3",
          "midi": 48,
          "duration": 0.385255,
          "velocity": 0.88189
        },
        {
          "time": 650.713182,
          "name": "D3",
          "midi": 50,
          "duration": 0.38546,
          "velocity": 0.866142
        },
        {
          "time": 650.713182,
          "name": "D2",
          "midi": 38,
          "duration": 0.38546,
          "velocity": 0.866142
        },
        {
          "time": 650.716408,
          "name": "D3",
          "midi": 50,
          "duration": 0.385255,
          "velocity": 0.88189
        },
        {
          "time": 651.462817,
          "name": "E3",
          "midi": 52,
          "duration": 0.38546,
          "velocity": 0.866142
        },
        {
          "time": 651.462817,
          "name": "E2",
          "midi": 40,
          "duration": 0.38546,
          "velocity": 0.866142
        },
        {
          "time": 651.466043,
          "name": "E3",
          "midi": 52,
          "duration": 0.385255,
          "velocity": 0.88189
        },
        {
          "time": 651.848276,
          "name": "F2",
          "midi": 41,
          "duration": 0.364175,
          "velocity": 0.866142
        },
        {
          "time": 651.848276,
          "name": "F3",
          "midi": 53,
          "duration": 0.364175,
          "velocity": 0.866142
        },
        {
          "time": 651.851298,
          "name": "F3",
          "midi": 53,
          "duration": 0.36438,
          "velocity": 0.88189
        },
        {
          "time": 652.212452,
          "name": "E3",
          "midi": 52,
          "duration": 0.38546,
          "velocity": 0.866142
        },
        {
          "time": 652.212452,
          "name": "E2",
          "midi": 40,
          "duration": 0.38546,
          "velocity": 0.866142
        },
        {
          "time": 652.215678,
          "name": "E3",
          "midi": 52,
          "duration": 0.385255,
          "velocity": 0.88189
        },
        {
          "time": 652.597911,
          "name": "D#2",
          "midi": 39,
          "duration": 0.364175,
          "velocity": 0.866142
        },
        {
          "time": 652.597911,
          "name": "D#3",
          "midi": 51,
          "duration": 0.364175,
          "velocity": 0.866142
        },
        {
          "time": 652.600933,
          "name": "D#3",
          "midi": 51,
          "duration": 0.36438,
          "velocity": 0.88189
        },
        {
          "time": 652.962087,
          "name": "D3",
          "midi": 50,
          "duration": 0.38546,
          "velocity": 0.866142
        },
        {
          "time": 652.962087,
          "name": "D2",
          "midi": 38,
          "duration": 0.38546,
          "velocity": 0.866142
        },
        {
          "time": 652.965313,
          "name": "D3",
          "midi": 50,
          "duration": 0.385255,
          "velocity": 0.88189
        },
        {
          "time": 653.347546,
          "name": "F3",
          "midi": 53,
          "duration": 0.364175,
          "velocity": 0.866142
        },
        {
          "time": 653.347546,
          "name": "F2",
          "midi": 41,
          "duration": 0.364175,
          "velocity": 0.866142
        },
        {
          "time": 653.350568,
          "name": "F3",
          "midi": 53,
          "duration": 0.36438,
          "velocity": 0.88189
        },
        {
          "time": 653.711722,
          "name": "E2",
          "midi": 40,
          "duration": 0.38546,
          "velocity": 0.866142
        },
        {
          "time": 653.711722,
          "name": "E3",
          "midi": 52,
          "duration": 0.38546,
          "velocity": 0.866142
        },
        {
          "time": 653.714948,
          "name": "E3",
          "midi": 52,
          "duration": 0.385255,
          "velocity": 0.88189
        },
        {
          "time": 654.097181,
          "name": "D#3",
          "midi": 51,
          "duration": 0.364175,
          "velocity": 0.866142
        },
        {
          "time": 654.097181,
          "name": "D#2",
          "midi": 39,
          "duration": 0.364175,
          "velocity": 0.866142
        },
        {
          "time": 654.100203,
          "name": "D#3",
          "midi": 51,
          "duration": 0.36438,
          "velocity": 0.88189
        },
        {
          "time": 654.461357,
          "name": "D2",
          "midi": 38,
          "duration": 0.38546,
          "velocity": 0.866142
        },
        {
          "time": 654.461357,
          "name": "D3",
          "midi": 50,
          "duration": 0.38546,
          "velocity": 0.866142
        },
        {
          "time": 654.464583,
          "name": "D3",
          "midi": 50,
          "duration": 0.385255,
          "velocity": 0.88189
        },
        {
          "time": 655.210992,
          "name": "E3",
          "midi": 52,
          "duration": 0.38546,
          "velocity": 0.866142
        },
        {
          "time": 655.210992,
          "name": "E2",
          "midi": 40,
          "duration": 0.38546,
          "velocity": 0.866142
        },
        {
          "time": 655.214218,
          "name": "E3",
          "midi": 52,
          "duration": 0.385255,
          "velocity": 0.88189
        },
        {
          "time": 655.960627,
          "name": "C2",
          "midi": 36,
          "duration": 0.38546,
          "velocity": 0.866142
        },
        {
          "time": 655.960627,
          "name": "C3",
          "midi": 48,
          "duration": 0.38546,
          "velocity": 0.866142
        },
        {
          "time": 655.963853,
          "name": "C3",
          "midi": 48,
          "duration": 0.385255,
          "velocity": 0.88189
        },
        {
          "time": 656.710262,
          "name": "D3",
          "midi": 50,
          "duration": 0.38546,
          "velocity": 0.866142
        },
        {
          "time": 656.710262,
          "name": "D2",
          "midi": 38,
          "duration": 0.38546,
          "velocity": 0.866142
        },
        {
          "time": 656.713488,
          "name": "D3",
          "midi": 50,
          "duration": 0.385255,
          "velocity": 0.88189
        },
        {
          "time": 657.459897,
          "name": "G2",
          "midi": 43,
          "duration": 0.38546,
          "velocity": 0.866142
        },
        {
          "time": 657.459897,
          "name": "G3",
          "midi": 55,
          "duration": 0.38546,
          "velocity": 0.866142
        },
        {
          "time": 657.463123,
          "name": "G3",
          "midi": 55,
          "duration": 0.385255,
          "velocity": 0.88189
        },
        {
          "time": 657.845356,
          "name": "D3",
          "midi": 50,
          "duration": 0.364175,
          "velocity": 0.866142
        },
        {
          "time": 657.845356,
          "name": "D2",
          "midi": 38,
          "duration": 0.364175,
          "velocity": 0.866142
        },
        {
          "time": 657.848378,
          "name": "D3",
          "midi": 50,
          "duration": 0.36438,
          "velocity": 0.88189
        },
        {
          "time": 658.209532,
          "name": "G2",
          "midi": 43,
          "duration": 0.38546,
          "velocity": 0.866142
        },
        {
          "time": 658.209532,
          "name": "G3",
          "midi": 55,
          "duration": 0.38546,
          "velocity": 0.866142
        },
        {
          "time": 658.212758,
          "name": "G3",
          "midi": 55,
          "duration": 0.385255,
          "velocity": 0.88189
        },
        {
          "time": 658.594991,
          "name": "D3",
          "midi": 50,
          "duration": 0.364175,
          "velocity": 0.866142
        },
        {
          "time": 658.594991,
          "name": "D2",
          "midi": 38,
          "duration": 0.364175,
          "velocity": 0.866142
        },
        {
          "time": 658.598013,
          "name": "D3",
          "midi": 50,
          "duration": 0.36438,
          "velocity": 0.88189
        },
        {
          "time": 658.959167,
          "name": "G3",
          "midi": 55,
          "duration": 0.38546,
          "velocity": 0.866142
        },
        {
          "time": 658.959167,
          "name": "G2",
          "midi": 43,
          "duration": 0.38546,
          "velocity": 0.866142
        },
        {
          "time": 658.962393,
          "name": "G3",
          "midi": 55,
          "duration": 0.385255,
          "velocity": 0.88189
        },
        {
          "time": 659.344626,
          "name": "D2",
          "midi": 38,
          "duration": 0.364175,
          "velocity": 0.866142
        },
        {
          "time": 659.344626,
          "name": "D3",
          "midi": 50,
          "duration": 0.364175,
          "velocity": 0.866142
        },
        {
          "time": 659.347648,
          "name": "D3",
          "midi": 50,
          "duration": 0.36438,
          "velocity": 0.88189
        },
        {
          "time": 659.708802,
          "name": "G3",
          "midi": 55,
          "duration": 0.38546,
          "velocity": 0.866142
        },
        {
          "time": 659.708802,
          "name": "G2",
          "midi": 43,
          "duration": 0.38546,
          "velocity": 0.866142
        },
        {
          "time": 659.712028,
          "name": "G3",
          "midi": 55,
          "duration": 0.385255,
          "velocity": 0.88189
        },
        {
          "time": 660.094261,
          "name": "D2",
          "midi": 38,
          "duration": 0.364175,
          "velocity": 0.866142
        },
        {
          "time": 660.094261,
          "name": "D3",
          "midi": 50,
          "duration": 0.364175,
          "velocity": 0.866142
        },
        {
          "time": 660.097283,
          "name": "D3",
          "midi": 50,
          "duration": 0.36438,
          "velocity": 0.88189
        },
        {
          "time": 660.458437,
          "name": "G3",
          "midi": 55,
          "duration": 0.38546,
          "velocity": 0.866142
        },
        {
          "time": 660.458437,
          "name": "G2",
          "midi": 43,
          "duration": 0.38546,
          "velocity": 0.866142
        },
        {
          "time": 660.461663,
          "name": "G3",
          "midi": 55,
          "duration": 0.385255,
          "velocity": 0.88189
        },
        {
          "time": 660.843896,
          "name": "G3",
          "midi": 55,
          "duration": 0.364175,
          "velocity": 0.866142
        },
        {
          "time": 660.843896,
          "name": "G2",
          "midi": 43,
          "duration": 0.364175,
          "velocity": 0.866142
        },
        {
          "time": 660.846918,
          "name": "G3",
          "midi": 55,
          "duration": 0.36438,
          "velocity": 0.88189
        },
        {
          "time": 661.208072,
          "name": "D2",
          "midi": 38,
          "duration": 0.38546,
          "velocity": 0.866142
        },
        {
          "time": 661.208072,
          "name": "D3",
          "midi": 50,
          "duration": 0.38546,
          "velocity": 0.866142
        },
        {
          "time": 661.211298,
          "name": "D3",
          "midi": 50,
          "duration": 0.385255,
          "velocity": 0.88189
        },
        {
          "time": 661.593531,
          "name": "B2",
          "midi": 47,
          "duration": 0.364175,
          "velocity": 0.866142
        },
        {
          "time": 661.593531,
          "name": "B1",
          "midi": 35,
          "duration": 0.364175,
          "velocity": 0.866142
        },
        {
          "time": 661.596553,
          "name": "B2",
          "midi": 47,
          "duration": 0.36438,
          "velocity": 0.88189
        },
        {
          "time": 661.957707,
          "name": "G2",
          "midi": 43,
          "duration": 0.386291,
          "velocity": 0.866142
        },
        {
          "time": 661.960933,
          "name": "G2",
          "midi": 43,
          "duration": 0.38619,
          "velocity": 0.88189
        },
        {
          "time": 662.343997,
          "name": "G3",
          "midi": 55,
          "duration": 0.377119,
          "velocity": 0.866142
        },
        {
          "time": 662.343997,
          "name": "G2",
          "midi": 43,
          "duration": 0.377119,
          "velocity": 0.866142
        },
        {
          "time": 662.347122,
          "name": "G3",
          "midi": 55,
          "duration": 0.377383,
          "velocity": 0.88189
        },
        {
          "time": 662.721116,
          "name": "D3",
          "midi": 50,
          "duration": 0.40793,
          "velocity": 0.866142
        },
        {
          "time": 662.721116,
          "name": "D2",
          "midi": 38,
          "duration": 0.40793,
          "velocity": 0.866142
        },
        {
          "time": 662.724506,
          "name": "D3",
          "midi": 50,
          "duration": 0.408074,
          "velocity": 0.88189
        },
        {
          "time": 663.129046,
          "name": "B1",
          "midi": 35,
          "duration": 0.425171,
          "velocity": 0.866142
        },
        {
          "time": 663.129046,
          "name": "B2",
          "midi": 47,
          "duration": 0.425171,
          "velocity": 0.866142
        },
        {
          "time": 663.132579,
          "name": "B2",
          "midi": 47,
          "duration": 0.425314,
          "velocity": 0.88189
        },
        {
          "time": 663.554217,
          "name": "G2",
          "midi": 43,
          "duration": 0.442416,
          "velocity": 0.866142
        },
        {
          "time": 663.557893,
          "name": "G2",
          "midi": 43,
          "duration": 0.442571,
          "velocity": 0.88189
        },
        {
          "time": 664.458404,
          "name": "G2",
          "midi": 43,
          "duration": 0.489796,
          "velocity": 0.866142
        },
        {
          "time": 664.462486,
          "name": "G2",
          "midi": 43,
          "duration": 0.489796,
          "velocity": 0.88189
        },
        {
          "time": 664.462486,
          "name": "D3",
          "midi": 50,
          "duration": 0.489796,
          "velocity": 0.88189
        },
        {
          "time": 664.462486,
          "name": "B3",
          "midi": 59,
          "duration": 0.489796,
          "velocity": 0.88189
        },
        {
          "time": 665.445343,
          "name": "G2",
          "midi": 43,
          "duration": 1.626667,
          "velocity": 0.866142
        },
        {
          "time": 665.450343,
          "name": "G2",
          "midi": 43,
          "duration": 1.63,
          "velocity": 0.88189
        }
      ]
    },
    {
      "id": 4,
      "instrument": "contrabass",
      "startTime": 0,
      "duration": 667.193676,
      "length": 2138,
      "notes": [
        {
          "time": 0.779412,
          "name": "A2",
          "midi": 45,
          "duration": 0.335294,
          "velocity": 0.96063
        },
        {
          "time": 0.785294,
          "name": "A2",
          "midi": 45,
          "duration": 0.335294,
          "velocity": 1
        },
        {
          "time": 0.788235,
          "name": "C#2",
          "midi": 37,
          "duration": 0.335294,
          "velocity": 0.511811
        },
        {
          "time": 0.788235,
          "name": "C2",
          "midi": 36,
          "duration": 0.335294,
          "velocity": 0.511811
        },
        {
          "time": 0.788235,
          "name": "A1",
          "midi": 33,
          "duration": 0.335294,
          "velocity": 0.88189
        },
        {
          "time": 1.132353,
          "name": "A2",
          "midi": 45,
          "duration": 0.730426,
          "velocity": 0.96063
        },
        {
          "time": 1.138235,
          "name": "A2",
          "midi": 45,
          "duration": 0.73144,
          "velocity": 1
        },
        {
          "time": 1.141176,
          "name": "A1",
          "midi": 33,
          "duration": 0.73144,
          "velocity": 0.88189
        },
        {
          "time": 1.899087,
          "name": "A2",
          "midi": 45,
          "duration": 0.335294,
          "velocity": 0.96063
        },
        {
          "time": 1.904969,
          "name": "A2",
          "midi": 45,
          "duration": 0.335294,
          "velocity": 1
        },
        {
          "time": 1.90791,
          "name": "C#2",
          "midi": 37,
          "duration": 0.335294,
          "velocity": 0.551181
        },
        {
          "time": 1.90791,
          "name": "C2",
          "midi": 36,
          "duration": 0.335294,
          "velocity": 0.551181
        },
        {
          "time": 1.90791,
          "name": "A1",
          "midi": 33,
          "duration": 0.335294,
          "velocity": 0.88189
        },
        {
          "time": 2.252028,
          "name": "A2",
          "midi": 45,
          "duration": 0.730426,
          "velocity": 0.96063
        },
        {
          "time": 2.25791,
          "name": "A2",
          "midi": 45,
          "duration": 0.73144,
          "velocity": 1
        },
        {
          "time": 2.260851,
          "name": "A1",
          "midi": 33,
          "duration": 0.73144,
          "velocity": 0.88189
        },
        {
          "time": 3.018762,
          "name": "A2",
          "midi": 45,
          "duration": 0.335294,
          "velocity": 0.96063
        },
        {
          "time": 3.024644,
          "name": "A2",
          "midi": 45,
          "duration": 0.335294,
          "velocity": 1
        },
        {
          "time": 3.027585,
          "name": "C2",
          "midi": 36,
          "duration": 0.335294,
          "velocity": 0.590551
        },
        {
          "time": 3.027585,
          "name": "C#2",
          "midi": 37,
          "duration": 0.335294,
          "velocity": 0.590551
        },
        {
          "time": 3.027585,
          "name": "A1",
          "midi": 33,
          "duration": 0.335294,
          "velocity": 0.88189
        },
        {
          "time": 3.371703,
          "name": "A2",
          "midi": 45,
          "duration": 0.533874,
          "velocity": 0.96063
        },
        {
          "time": 3.377585,
          "name": "A2",
          "midi": 45,
          "duration": 0.534888,
          "velocity": 1
        },
        {
          "time": 3.380526,
          "name": "C2",
          "midi": 36,
          "duration": 0.338844,
          "velocity": 0.629921
        },
        {
          "time": 3.380526,
          "name": "C#2",
          "midi": 37,
          "duration": 0.338844,
          "velocity": 0.629921
        },
        {
          "time": 3.380526,
          "name": "A1",
          "midi": 33,
          "duration": 0.535395,
          "velocity": 0.88189
        },
        {
          "time": 3.74006,
          "name": "C#2",
          "midi": 37,
          "duration": 0.389554,
          "velocity": 0.669291
        },
        {
          "time": 3.74006,
          "name": "C2",
          "midi": 36,
          "duration": 0.389554,
          "velocity": 0.669291
        },
        {
          "time": 3.936611,
          "name": "A2",
          "midi": 45,
          "duration": 0.193002,
          "velocity": 0.96063
        },
        {
          "time": 3.943508,
          "name": "A2",
          "midi": 45,
          "duration": 0.191988,
          "velocity": 1
        },
        {
          "time": 3.946956,
          "name": "A1",
          "midi": 33,
          "duration": 0.191481,
          "velocity": 0.88189
        },
        {
          "time": 4.138437,
          "name": "A2",
          "midi": 45,
          "duration": 0.335294,
          "velocity": 0.96063
        },
        {
          "time": 4.144319,
          "name": "A2",
          "midi": 45,
          "duration": 0.335294,
          "velocity": 1
        },
        {
          "time": 4.14726,
          "name": "C#2",
          "midi": 37,
          "duration": 0.335294,
          "velocity": 0.708661
        },
        {
          "time": 4.14726,
          "name": "C2",
          "midi": 36,
          "duration": 0.335294,
          "velocity": 0.708661
        },
        {
          "time": 4.14726,
          "name": "A1",
          "midi": 33,
          "duration": 0.335294,
          "velocity": 0.88189
        },
        {
          "time": 5.258112,
          "name": "A2",
          "midi": 45,
          "duration": 0.335294,
          "velocity": 0.96063
        },
        {
          "time": 5.263994,
          "name": "A2",
          "midi": 45,
          "duration": 0.335294,
          "velocity": 1
        },
        {
          "time": 5.266935,
          "name": "C2",
          "midi": 36,
          "duration": 0.335294,
          "velocity": 0.511811
        },
        {
          "time": 5.266935,
          "name": "C#2",
          "midi": 37,
          "duration": 0.335294,
          "velocity": 0.511811
        },
        {
          "time": 5.266935,
          "name": "A1",
          "midi": 33,
          "duration": 0.335294,
          "velocity": 0.88189
        },
        {
          "time": 5.611053,
          "name": "A2",
          "midi": 45,
          "duration": 0.730426,
          "velocity": 0.96063
        },
        {
          "time": 5.616935,
          "name": "A2",
          "midi": 45,
          "duration": 0.73144,
          "velocity": 1
        },
        {
          "time": 5.619876,
          "name": "A1",
          "midi": 33,
          "duration": 0.73144,
          "velocity": 0.88189
        },
        {
          "time": 6.377787,
          "name": "A2",
          "midi": 45,
          "duration": 0.335294,
          "velocity": 0.96063
        },
        {
          "time": 6.383669,
          "name": "A2",
          "midi": 45,
          "duration": 0.335294,
          "velocity": 1
        },
        {
          "time": 6.38661,
          "name": "C2",
          "midi": 36,
          "duration": 0.335294,
          "velocity": 0.551181
        },
        {
          "time": 6.38661,
          "name": "C#2",
          "midi": 37,
          "duration": 0.335294,
          "velocity": 0.551181
        },
        {
          "time": 6.38661,
          "name": "A1",
          "midi": 33,
          "duration": 0.335294,
          "velocity": 0.88189
        },
        {
          "time": 6.730728,
          "name": "A2",
          "midi": 45,
          "duration": 0.730426,
          "velocity": 0.96063
        },
        {
          "time": 6.73661,
          "name": "A2",
          "midi": 45,
          "duration": 0.73144,
          "velocity": 1
        },
        {
          "time": 6.739551,
          "name": "A1",
          "midi": 33,
          "duration": 0.73144,
          "velocity": 0.88189
        },
        {
          "time": 7.497462,
          "name": "A2",
          "midi": 45,
          "duration": 0.335294,
          "velocity": 0.96063
        },
        {
          "time": 7.503344,
          "name": "A2",
          "midi": 45,
          "duration": 0.335294,
          "velocity": 1
        },
        {
          "time": 7.506285,
          "name": "C#2",
          "midi": 37,
          "duration": 0.335294,
          "velocity": 0.590551
        },
        {
          "time": 7.506285,
          "name": "C2",
          "midi": 36,
          "duration": 0.335294,
          "velocity": 0.590551
        },
        {
          "time": 7.506285,
          "name": "A1",
          "midi": 33,
          "duration": 0.335294,
          "velocity": 0.88189
        },
        {
          "time": 7.850403,
          "name": "A2",
          "midi": 45,
          "duration": 0.533874,
          "velocity": 0.96063
        },
        {
          "time": 7.856285,
          "name": "A2",
          "midi": 45,
          "duration": 0.534888,
          "velocity": 1
        },
        {
          "time": 7.859226,
          "name": "C#2",
          "midi": 37,
          "duration": 0.338844,
          "velocity": 0.629921
        },
        {
          "time": 7.859226,
          "name": "C2",
          "midi": 36,
          "duration": 0.338844,
          "velocity": 0.629921
        },
        {
          "time": 7.859226,
          "name": "A1",
          "midi": 33,
          "duration": 0.535395,
          "velocity": 0.88189
        },
        {
          "time": 8.21876,
          "name": "C2",
          "midi": 36,
          "duration": 0.389554,
          "velocity": 0.669291
        },
        {
          "time": 8.21876,
          "name": "C#2",
          "midi": 37,
          "duration": 0.389554,
          "velocity": 0.669291
        },
        {
          "time": 8.415311,
          "name": "A2",
          "midi": 45,
          "duration": 0.193002,
          "velocity": 0.96063
        },
        {
          "time": 8.422208,
          "name": "A2",
          "midi": 45,
          "duration": 0.191988,
          "velocity": 1
        },
        {
          "time": 8.425656,
          "name": "A1",
          "midi": 33,
          "duration": 0.191481,
          "velocity": 0.88189
        },
        {
          "time": 8.617137,
          "name": "A2",
          "midi": 45,
          "duration": 0.335294,
          "velocity": 0.96063
        },
        {
          "time": 8.623019,
          "name": "A2",
          "midi": 45,
          "duration": 0.335294,
          "velocity": 1
        },
        {
          "time": 8.62596,
          "name": "C2",
          "midi": 36,
          "duration": 0.335294,
          "velocity": 0.708661
        },
        {
          "time": 8.62596,
          "name": "C#2",
          "midi": 37,
          "duration": 0.335294,
          "velocity": 0.708661
        },
        {
          "time": 8.62596,
          "name": "A1",
          "midi": 33,
          "duration": 0.335294,
          "velocity": 0.88189
        },
        {
          "time": 15.29973,
          "name": "D2",
          "midi": 38,
          "duration": 0.396914,
          "velocity": 0.88189
        },
        {
          "time": 16.479942,
          "name": "A1",
          "midi": 33,
          "duration": 0.352941,
          "velocity": 0.88189
        },
        {
          "time": 17.599617,
          "name": "D2",
          "midi": 38,
          "duration": 0.352941,
          "velocity": 0.88189
        },
        {
          "time": 18.719292,
          "name": "A1",
          "midi": 33,
          "duration": 0.352941,
          "velocity": 0.88189
        },
        {
          "time": 19.838967,
          "name": "D2",
          "midi": 38,
          "duration": 0.352941,
          "velocity": 0.88189
        },
        {
          "time": 20.958642,
          "name": "D2",
          "midi": 38,
          "duration": 0.352941,
          "velocity": 0.88189
        },
        {
          "time": 22.078317,
          "name": "G2",
          "midi": 43,
          "duration": 0.352941,
          "velocity": 0.88189
        },
        {
          "time": 22.790792,
          "name": "F#2",
          "midi": 42,
          "duration": 0.407201,
          "velocity": 0.88189
        },
        {
          "time": 23.197992,
          "name": "E2",
          "midi": 40,
          "duration": 0.352941,
          "velocity": 0.88189
        },
        {
          "time": 24.317667,
          "name": "G2",
          "midi": 43,
          "duration": 0.352941,
          "velocity": 0.88189
        },
        {
          "time": 25.437342,
          "name": "G#2",
          "midi": 44,
          "duration": 0.352941,
          "velocity": 0.88189
        },
        {
          "time": 26.557017,
          "name": "A2",
          "midi": 45,
          "duration": 0.352941,
          "velocity": 0.88189
        },
        {
          "time": 27.676692,
          "name": "A2",
          "midi": 45,
          "duration": 0.352941,
          "velocity": 0.88189
        },
        {
          "time": 28.796367,
          "name": "A2",
          "midi": 45,
          "duration": 0.352941,
          "velocity": 0.88189
        },
        {
          "time": 29.916042,
          "name": "A2",
          "midi": 45,
          "duration": 0.352941,
          "velocity": 0.88189
        },
        {
          "time": 31.035717,
          "name": "A2",
          "midi": 45,
          "duration": 1.122065,
          "velocity": 0.88189
        },
        {
          "time": 32.157782,
          "name": "A2",
          "midi": 45,
          "duration": 1.250331,
          "velocity": 0.88189
        },
        {
          "time": 33.408113,
          "name": "D2",
          "midi": 38,
          "duration": 0.375,
          "velocity": 0.88189
        },
        {
          "time": 34.569516,
          "name": "A1",
          "midi": 33,
          "duration": 0.352941,
          "velocity": 0.88189
        },
        {
          "time": 35.689191,
          "name": "D2",
          "midi": 38,
          "duration": 0.352941,
          "velocity": 0.88189
        },
        {
          "time": 36.808866,
          "name": "A1",
          "midi": 33,
          "duration": 0.352941,
          "velocity": 0.88189
        },
        {
          "time": 37.928541,
          "name": "D2",
          "midi": 38,
          "duration": 0.352941,
          "velocity": 0.88189
        },
        {
          "time": 39.048216,
          "name": "D2",
          "midi": 38,
          "duration": 0.352941,
          "velocity": 0.88189
        },
        {
          "time": 40.167891,
          "name": "G2",
          "midi": 43,
          "duration": 0.352941,
          "velocity": 0.88189
        },
        {
          "time": 40.880366,
          "name": "F#2",
          "midi": 42,
          "duration": 0.407201,
          "velocity": 0.88189
        },
        {
          "time": 41.287566,
          "name": "E2",
          "midi": 40,
          "duration": 0.352941,
          "velocity": 0.88189
        },
        {
          "time": 42.407241,
          "name": "G2",
          "midi": 43,
          "duration": 0.352941,
          "velocity": 0.88189
        },
        {
          "time": 43.526916,
          "name": "G2",
          "midi": 43,
          "duration": 0.352941,
          "velocity": 0.88189
        },
        {
          "time": 44.646591,
          "name": "G2",
          "midi": 43,
          "duration": 0.352941,
          "velocity": 0.88189
        },
        {
          "time": 45.766266,
          "name": "F#2",
          "midi": 42,
          "duration": 0.352941,
          "velocity": 0.88189
        },
        {
          "time": 46.885941,
          "name": "B1",
          "midi": 35,
          "duration": 0.352941,
          "velocity": 0.88189
        },
        {
          "time": 48.005616,
          "name": "E2",
          "midi": 40,
          "duration": 0.352941,
          "velocity": 0.88189
        },
        {
          "time": 49.125291,
          "name": "A1",
          "midi": 33,
          "duration": 0.352941,
          "velocity": 0.88189
        },
        {
          "time": 50.296412,
          "name": "D2",
          "midi": 38,
          "duration": 0.387097,
          "velocity": 0.88189
        },
        {
          "time": 51.480698,
          "name": "D2",
          "midi": 38,
          "duration": 0.352941,
          "velocity": 0.88189
        },
        {
          "time": 52.600373,
          "name": "A1",
          "midi": 33,
          "duration": 0.352941,
          "velocity": 0.88189
        },
        {
          "time": 53.720048,
          "name": "D2",
          "midi": 38,
          "duration": 0.352941,
          "velocity": 0.88189
        },
        {
          "time": 54.839723,
          "name": "A1",
          "midi": 33,
          "duration": 0.352941,
          "velocity": 0.88189
        },
        {
          "time": 55.959398,
          "name": "D2",
          "midi": 38,
          "duration": 0.352941,
          "velocity": 0.88189
        },
        {
          "time": 57.079073,
          "name": "D2",
          "midi": 38,
          "duration": 0.352941,
          "velocity": 0.88189
        },
        {
          "time": 58.198748,
          "name": "G2",
          "midi": 43,
          "duration": 0.352941,
          "velocity": 0.88189
        },
        {
          "time": 58.911223,
          "name": "F#2",
          "midi": 42,
          "duration": 0.407201,
          "velocity": 0.88189
        },
        {
          "time": 59.318423,
          "name": "E2",
          "midi": 40,
          "duration": 0.352941,
          "velocity": 0.88189
        },
        {
          "time": 60.438098,
          "name": "G2",
          "midi": 43,
          "duration": 0.352941,
          "velocity": 0.88189
        },
        {
          "time": 61.557773,
          "name": "G#2",
          "midi": 44,
          "duration": 0.352941,
          "velocity": 0.88189
        },
        {
          "time": 62.677448,
          "name": "A2",
          "midi": 45,
          "duration": 0.352941,
          "velocity": 0.88189
        },
        {
          "time": 63.797123,
          "name": "A2",
          "midi": 45,
          "duration": 0.352941,
          "velocity": 0.88189
        },
        {
          "time": 64.916798,
          "name": "A2",
          "midi": 45,
          "duration": 0.352941,
          "velocity": 0.88189
        },
        {
          "time": 66.036473,
          "name": "A2",
          "midi": 45,
          "duration": 0.352941,
          "velocity": 0.88189
        },
        {
          "time": 67.156148,
          "name": "A2",
          "midi": 45,
          "duration": 1.122065,
          "velocity": 0.88189
        },
        {
          "time": 68.278213,
          "name": "A2",
          "midi": 45,
          "duration": 1.251763,
          "velocity": 0.88189
        },
        {
          "time": 69.529976,
          "name": "D2",
          "midi": 38,
          "duration": 0.375,
          "velocity": 0.88189
        },
        {
          "time": 70.691379,
          "name": "A1",
          "midi": 33,
          "duration": 0.352941,
          "velocity": 0.88189
        },
        {
          "time": 71.811054,
          "name": "D2",
          "midi": 38,
          "duration": 0.352941,
          "velocity": 0.88189
        },
        {
          "time": 72.930729,
          "name": "A1",
          "midi": 33,
          "duration": 0.352941,
          "velocity": 0.88189
        },
        {
          "time": 74.050404,
          "name": "D2",
          "midi": 38,
          "duration": 0.352941,
          "velocity": 0.88189
        },
        {
          "time": 75.170079,
          "name": "D2",
          "midi": 38,
          "duration": 0.352941,
          "velocity": 0.88189
        },
        {
          "time": 76.289754,
          "name": "G2",
          "midi": 43,
          "duration": 0.352941,
          "velocity": 0.88189
        },
        {
          "time": 77.002229,
          "name": "F#2",
          "midi": 42,
          "duration": 0.407201,
          "velocity": 0.88189
        },
        {
          "time": 77.409429,
          "name": "E2",
          "midi": 40,
          "duration": 0.352941,
          "velocity": 0.88189
        },
        {
          "time": 78.529104,
          "name": "G2",
          "midi": 43,
          "duration": 0.352941,
          "velocity": 0.88189
        },
        {
          "time": 79.648779,
          "name": "G2",
          "midi": 43,
          "duration": 0.352941,
          "velocity": 0.88189
        },
        {
          "time": 80.768454,
          "name": "G2",
          "midi": 43,
          "duration": 0.352941,
          "velocity": 0.88189
        },
        {
          "time": 81.888129,
          "name": "F#2",
          "midi": 42,
          "duration": 0.352941,
          "velocity": 0.88189
        },
        {
          "time": 83.007804,
          "name": "B1",
          "midi": 35,
          "duration": 0.352941,
          "velocity": 0.88189
        },
        {
          "time": 84.127479,
          "name": "E2",
          "midi": 40,
          "duration": 0.352941,
          "velocity": 0.88189
        },
        {
          "time": 85.247154,
          "name": "A1",
          "midi": 33,
          "duration": 0.352941,
          "velocity": 0.88189
        },
        {
          "time": 86.414574,
          "name": "D2",
          "midi": 38,
          "duration": 0.352941,
          "velocity": 0.88189
        },
        {
          "time": 87.484999,
          "name": "A2",
          "midi": 45,
          "duration": 0.671146,
          "velocity": 0.96063
        },
        {
          "time": 87.487777,
          "name": "A2",
          "midi": 45,
          "duration": 0.333333,
          "velocity": 0.629921
        },
        {
          "time": 87.490554,
          "name": "A2",
          "midi": 45,
          "duration": 0.672042,
          "velocity": 1
        },
        {
          "time": 87.493332,
          "name": "C#2",
          "midi": 37,
          "duration": 0.333333,
          "velocity": 0.708661
        },
        {
          "time": 87.493332,
          "name": "C2",
          "midi": 36,
          "duration": 0.333333,
          "velocity": 0.708661
        },
        {
          "time": 87.493332,
          "name": "A1",
          "midi": 33,
          "duration": 0.67249,
          "velocity": 0.88189
        },
        {
          "time": 88.156145,
          "name": "A#2",
          "midi": 46,
          "duration": 0.71595,
          "velocity": 0.96063
        },
        {
          "time": 88.162597,
          "name": "A#2",
          "midi": 46,
          "duration": 0.715054,
          "velocity": 1
        },
        {
          "time": 88.165823,
          "name": "A#1",
          "midi": 34,
          "duration": 0.714606,
          "velocity": 0.88189
        },
        {
          "time": 88.547095,
          "name": "C#2",
          "midi": 37,
          "duration": 0.333333,
          "velocity": 0.708661
        },
        {
          "time": 88.547095,
          "name": "C2",
          "midi": 36,
          "duration": 0.333333,
          "velocity": 0.708661
        },
        {
          "time": 88.872095,
          "name": "B2",
          "midi": 47,
          "duration": 0.72043,
          "velocity": 0.96063
        },
        {
          "time": 88.87765,
          "name": "B2",
          "midi": 47,
          "duration": 0.72043,
          "velocity": 1
        },
        {
          "time": 88.880428,
          "name": "B1",
          "midi": 35,
          "duration": 0.72043,
          "velocity": 0.88189
        },
        {
          "time": 89.592525,
          "name": "C3",
          "midi": 48,
          "duration": 0.671146,
          "velocity": 0.96063
        },
        {
          "time": 89.595303,
          "name": "A2",
          "midi": 45,
          "duration": 0.333333,
          "velocity": 0.629921
        },
        {
          "time": 89.59808,
          "name": "C3",
          "midi": 48,
          "duration": 0.672042,
          "velocity": 1
        },
        {
          "time": 89.600858,
          "name": "C2",
          "midi": 36,
          "duration": 0.333333,
          "velocity": 0.708661
        },
        {
          "time": 89.600858,
          "name": "C#2",
          "midi": 37,
          "duration": 0.333333,
          "velocity": 0.708661
        },
        {
          "time": 89.600858,
          "name": "C2",
          "midi": 36,
          "duration": 0.67249,
          "velocity": 0.88189
        },
        {
          "time": 90.263671,
          "name": "C#3",
          "midi": 49,
          "duration": 0.71595,
          "velocity": 0.96063
        },
        {
          "time": 90.270123,
          "name": "C#3",
          "midi": 49,
          "duration": 0.715054,
          "velocity": 1
        },
        {
          "time": 90.273349,
          "name": "C#2",
          "midi": 37,
          "duration": 0.714606,
          "velocity": 0.88189
        },
        {
          "time": 90.654621,
          "name": "C2",
          "midi": 36,
          "duration": 0.333333,
          "velocity": 0.708661
        },
        {
          "time": 90.654621,
          "name": "C#2",
          "midi": 37,
          "duration": 0.333333,
          "velocity": 0.708661
        },
        {
          "time": 90.979621,
          "name": "D3",
          "midi": 50,
          "duration": 0.74876,
          "velocity": 0.96063
        },
        {
          "time": 90.985176,
          "name": "D3",
          "midi": 50,
          "duration": 0.749087,
          "velocity": 1
        },
        {
          "time": 90.987954,
          "name": "D2",
          "midi": 38,
          "duration": 0.74925,
          "velocity": 0.88189
        },
        {
          "time": 91.728381,
          "name": "F#3",
          "midi": 54,
          "duration": 0.352941,
          "velocity": 0.96063
        },
        {
          "time": 91.731322,
          "name": "A2",
          "midi": 45,
          "duration": 0.352941,
          "velocity": 0.488189
        },
        {
          "time": 91.734263,
          "name": "C#3",
          "midi": 49,
          "duration": 0.352941,
          "velocity": 1
        },
        {
          "time": 91.737204,
          "name": "C#2",
          "midi": 37,
          "duration": 0.352941,
          "velocity": 0.88189
        },
        {
          "time": 92.819726,
          "name": "F#3",
          "midi": 54,
          "duration": 0.333333,
          "velocity": 0.96063
        },
        {
          "time": 92.825281,
          "name": "B2",
          "midi": 47,
          "duration": 0.333333,
          "velocity": 1
        },
        {
          "time": 92.828059,
          "name": "B1",
          "midi": 35,
          "duration": 0.333333,
          "velocity": 0.88189
        },
        {
          "time": 93.873489,
          "name": "E3",
          "midi": 52,
          "duration": 0.333333,
          "velocity": 0.96063
        },
        {
          "time": 93.876267,
          "name": "D3",
          "midi": 50,
          "duration": 0.333333,
          "velocity": 0.488189
        },
        {
          "time": 93.879044,
          "name": "A#2",
          "midi": 46,
          "duration": 0.333333,
          "velocity": 1
        },
        {
          "time": 93.881822,
          "name": "A#1",
          "midi": 34,
          "duration": 0.333333,
          "velocity": 0.88189
        },
        {
          "time": 94.927252,
          "name": "E3",
          "midi": 52,
          "duration": 0.333333,
          "velocity": 0.96063
        },
        {
          "time": 94.93003,
          "name": "A2",
          "midi": 45,
          "duration": 0.333333,
          "velocity": 0.488189
        },
        {
          "time": 94.932807,
          "name": "A2",
          "midi": 45,
          "duration": 0.333333,
          "velocity": 1
        },
        {
          "time": 94.935585,
          "name": "A1",
          "midi": 33,
          "duration": 0.333333,
          "velocity": 0.88189
        },
        {
          "time": 95.981015,
          "name": "A2",
          "midi": 45,
          "duration": 0.671146,
          "velocity": 0.96063
        },
        {
          "time": 95.983793,
          "name": "A2",
          "midi": 45,
          "duration": 0.333333,
          "velocity": 0.629921
        },
        {
          "time": 95.98657,
          "name": "A2",
          "midi": 45,
          "duration": 0.672042,
          "velocity": 1
        },
        {
          "time": 95.989348,
          "name": "C#2",
          "midi": 37,
          "duration": 0.333333,
          "velocity": 0.708661
        },
        {
          "time": 95.989348,
          "name": "C2",
          "midi": 36,
          "duration": 0.333333,
          "velocity": 0.708661
        },
        {
          "time": 95.989348,
          "name": "A1",
          "midi": 33,
          "duration": 0.67249,
          "velocity": 0.88189
        },
        {
          "time": 96.652161,
          "name": "A#2",
          "midi": 46,
          "duration": 0.71595,
          "velocity": 0.96063
        },
        {
          "time": 96.658613,
          "name": "A#2",
          "midi": 46,
          "duration": 0.715054,
          "velocity": 1
        },
        {
          "time": 96.661839,
          "name": "A#1",
          "midi": 34,
          "duration": 0.714606,
          "velocity": 0.88189
        },
        {
          "time": 97.043111,
          "name": "C#2",
          "midi": 37,
          "duration": 0.333333,
          "velocity": 0.708661
        },
        {
          "time": 97.043111,
          "name": "C2",
          "midi": 36,
          "duration": 0.333333,
          "velocity": 0.708661
        },
        {
          "time": 97.368111,
          "name": "B2",
          "midi": 47,
          "duration": 0.72043,
          "velocity": 0.96063
        },
        {
          "time": 97.373666,
          "name": "B2",
          "midi": 47,
          "duration": 0.72043,
          "velocity": 1
        },
        {
          "time": 97.376444,
          "name": "B1",
          "midi": 35,
          "duration": 0.72043,
          "velocity": 0.88189
        },
        {
          "time": 98.088541,
          "name": "C3",
          "midi": 48,
          "duration": 0.671146,
          "velocity": 0.96063
        },
        {
          "time": 98.091319,
          "name": "A2",
          "midi": 45,
          "duration": 0.333333,
          "velocity": 0.629921
        },
        {
          "time": 98.094096,
          "name": "C3",
          "midi": 48,
          "duration": 0.672042,
          "velocity": 1
        },
        {
          "time": 98.096874,
          "name": "C2",
          "midi": 36,
          "duration": 0.333333,
          "velocity": 0.708661
        },
        {
          "time": 98.096874,
          "name": "C#2",
          "midi": 37,
          "duration": 0.333333,
          "velocity": 0.708661
        },
        {
          "time": 98.096874,
          "name": "C2",
          "midi": 36,
          "duration": 0.67249,
          "velocity": 0.88189
        },
        {
          "time": 98.759687,
          "name": "C#3",
          "midi": 49,
          "duration": 0.71595,
          "velocity": 0.96063
        },
        {
          "time": 98.766139,
          "name": "C#3",
          "midi": 49,
          "duration": 0.715054,
          "velocity": 1
        },
        {
          "time": 98.769365,
          "name": "C#2",
          "midi": 37,
          "duration": 0.714606,
          "velocity": 0.88189
        },
        {
          "time": 99.150637,
          "name": "C2",
          "midi": 36,
          "duration": 0.333333,
          "velocity": 0.708661
        },
        {
          "time": 99.150637,
          "name": "C#2",
          "midi": 37,
          "duration": 0.333333,
          "velocity": 0.708661
        },
        {
          "time": 99.475637,
          "name": "D3",
          "midi": 50,
          "duration": 0.74876,
          "velocity": 0.96063
        },
        {
          "time": 99.481192,
          "name": "D3",
          "midi": 50,
          "duration": 0.749087,
          "velocity": 1
        },
        {
          "time": 99.48397,
          "name": "D2",
          "midi": 38,
          "duration": 0.74925,
          "velocity": 0.88189
        },
        {
          "time": 100.224397,
          "name": "F#3",
          "midi": 54,
          "duration": 0.352941,
          "velocity": 0.96063
        },
        {
          "time": 100.227338,
          "name": "A2",
          "midi": 45,
          "duration": 0.352941,
          "velocity": 0.488189
        },
        {
          "time": 100.230279,
          "name": "C#3",
          "midi": 49,
          "duration": 0.352941,
          "velocity": 1
        },
        {
          "time": 100.23322,
          "name": "C#2",
          "midi": 37,
          "duration": 0.352941,
          "velocity": 0.88189
        },
        {
          "time": 101.315742,
          "name": "F#3",
          "midi": 54,
          "duration": 0.333333,
          "velocity": 0.96063
        },
        {
          "time": 101.321297,
          "name": "B2",
          "midi": 47,
          "duration": 0.333333,
          "velocity": 1
        },
        {
          "time": 101.324075,
          "name": "B1",
          "midi": 35,
          "duration": 0.333333,
          "velocity": 0.88189
        },
        {
          "time": 102.369505,
          "name": "E3",
          "midi": 52,
          "duration": 0.333333,
          "velocity": 0.96063
        },
        {
          "time": 102.372283,
          "name": "A2",
          "midi": 45,
          "duration": 0.333333,
          "velocity": 0.488189
        },
        {
          "time": 102.37506,
          "name": "E2",
          "midi": 40,
          "duration": 0.333333,
          "velocity": 1
        },
        {
          "time": 102.377838,
          "name": "E2",
          "midi": 40,
          "duration": 0.333333,
          "velocity": 0.88189
        },
        {
          "time": 103.423268,
          "name": "E3",
          "midi": 52,
          "duration": 0.333333,
          "velocity": 0.96063
        },
        {
          "time": 103.426046,
          "name": "A2",
          "midi": 45,
          "duration": 0.333333,
          "velocity": 0.488189
        },
        {
          "time": 103.428823,
          "name": "A2",
          "midi": 45,
          "duration": 0.333333,
          "velocity": 1
        },
        {
          "time": 103.431601,
          "name": "A1",
          "midi": 33,
          "duration": 0.333333,
          "velocity": 0.88189
        },
        {
          "time": 104.477031,
          "name": "A2",
          "midi": 45,
          "duration": 0.671146,
          "velocity": 0.96063
        },
        {
          "time": 104.479809,
          "name": "A2",
          "midi": 45,
          "duration": 0.333333,
          "velocity": 0.629921
        },
        {
          "time": 104.482586,
          "name": "A2",
          "midi": 45,
          "duration": 0.672042,
          "velocity": 1
        },
        {
          "time": 104.485364,
          "name": "C#2",
          "midi": 37,
          "duration": 0.333333,
          "velocity": 0.708661
        },
        {
          "time": 104.485364,
          "name": "C2",
          "midi": 36,
          "duration": 0.333333,
          "velocity": 0.708661
        },
        {
          "time": 104.485364,
          "name": "A1",
          "midi": 33,
          "duration": 0.67249,
          "velocity": 0.88189
        },
        {
          "time": 105.148177,
          "name": "A#2",
          "midi": 46,
          "duration": 0.71595,
          "velocity": 0.96063
        },
        {
          "time": 105.154629,
          "name": "A#2",
          "midi": 46,
          "duration": 0.715054,
          "velocity": 1
        },
        {
          "time": 105.157855,
          "name": "A#1",
          "midi": 34,
          "duration": 0.714606,
          "velocity": 0.88189
        },
        {
          "time": 105.539127,
          "name": "C#2",
          "midi": 37,
          "duration": 0.333333,
          "velocity": 0.708661
        },
        {
          "time": 105.539127,
          "name": "C2",
          "midi": 36,
          "duration": 0.333333,
          "velocity": 0.708661
        },
        {
          "time": 105.864127,
          "name": "B2",
          "midi": 47,
          "duration": 0.72043,
          "velocity": 0.96063
        },
        {
          "time": 105.869682,
          "name": "B2",
          "midi": 47,
          "duration": 0.72043,
          "velocity": 1
        },
        {
          "time": 105.87246,
          "name": "B1",
          "midi": 35,
          "duration": 0.72043,
          "velocity": 0.88189
        },
        {
          "time": 106.584557,
          "name": "C3",
          "midi": 48,
          "duration": 0.671146,
          "velocity": 0.96063
        },
        {
          "time": 106.587335,
          "name": "A2",
          "midi": 45,
          "duration": 0.333333,
          "velocity": 0.629921
        },
        {
          "time": 106.590112,
          "name": "C3",
          "midi": 48,
          "duration": 0.672042,
          "velocity": 1
        },
        {
          "time": 106.59289,
          "name": "C2",
          "midi": 36,
          "duration": 0.333333,
          "velocity": 0.708661
        },
        {
          "time": 106.59289,
          "name": "C#2",
          "midi": 37,
          "duration": 0.333333,
          "velocity": 0.708661
        },
        {
          "time": 106.59289,
          "name": "C2",
          "midi": 36,
          "duration": 0.67249,
          "velocity": 0.88189
        },
        {
          "time": 107.255703,
          "name": "C#3",
          "midi": 49,
          "duration": 0.71595,
          "velocity": 0.96063
        },
        {
          "time": 107.262155,
          "name": "C#3",
          "midi": 49,
          "duration": 0.715054,
          "velocity": 1
        },
        {
          "time": 107.265381,
          "name": "C#2",
          "midi": 37,
          "duration": 0.714606,
          "velocity": 0.88189
        },
        {
          "time": 107.646653,
          "name": "C2",
          "midi": 36,
          "duration": 0.333333,
          "velocity": 0.708661
        },
        {
          "time": 107.646653,
          "name": "C#2",
          "midi": 37,
          "duration": 0.333333,
          "velocity": 0.708661
        },
        {
          "time": 107.971653,
          "name": "D3",
          "midi": 50,
          "duration": 0.74876,
          "velocity": 0.96063
        },
        {
          "time": 107.977208,
          "name": "D3",
          "midi": 50,
          "duration": 0.749087,
          "velocity": 1
        },
        {
          "time": 107.979986,
          "name": "D2",
          "midi": 38,
          "duration": 0.74925,
          "velocity": 0.88189
        },
        {
          "time": 108.720413,
          "name": "F#3",
          "midi": 54,
          "duration": 0.352941,
          "velocity": 0.96063
        },
        {
          "time": 108.723354,
          "name": "A2",
          "midi": 45,
          "duration": 0.352941,
          "velocity": 0.488189
        },
        {
          "time": 108.726295,
          "name": "C#3",
          "midi": 49,
          "duration": 0.352941,
          "velocity": 1
        },
        {
          "time": 108.729236,
          "name": "C#2",
          "midi": 37,
          "duration": 0.352941,
          "velocity": 0.88189
        },
        {
          "time": 109.811758,
          "name": "F#3",
          "midi": 54,
          "duration": 0.333333,
          "velocity": 0.96063
        },
        {
          "time": 109.817313,
          "name": "B2",
          "midi": 47,
          "duration": 0.333333,
          "velocity": 1
        },
        {
          "time": 109.820091,
          "name": "B1",
          "midi": 35,
          "duration": 0.333333,
          "velocity": 0.88189
        },
        {
          "time": 110.865521,
          "name": "E3",
          "midi": 52,
          "duration": 0.333333,
          "velocity": 0.96063
        },
        {
          "time": 110.868299,
          "name": "D3",
          "midi": 50,
          "duration": 0.333333,
          "velocity": 0.488189
        },
        {
          "time": 110.871076,
          "name": "A#2",
          "midi": 46,
          "duration": 0.333333,
          "velocity": 1
        },
        {
          "time": 110.873854,
          "name": "A#1",
          "midi": 34,
          "duration": 0.333333,
          "velocity": 0.88189
        },
        {
          "time": 111.919284,
          "name": "E3",
          "midi": 52,
          "duration": 0.333333,
          "velocity": 0.96063
        },
        {
          "time": 111.922062,
          "name": "A2",
          "midi": 45,
          "duration": 0.333333,
          "velocity": 0.488189
        },
        {
          "time": 111.924839,
          "name": "A2",
          "midi": 45,
          "duration": 0.333333,
          "velocity": 1
        },
        {
          "time": 111.927617,
          "name": "A1",
          "midi": 33,
          "duration": 0.333333,
          "velocity": 0.88189
        },
        {
          "time": 112.973047,
          "name": "A2",
          "midi": 45,
          "duration": 0.671146,
          "velocity": 0.96063
        },
        {
          "time": 112.975825,
          "name": "A2",
          "midi": 45,
          "duration": 0.333333,
          "velocity": 0.629921
        },
        {
          "time": 112.978602,
          "name": "A2",
          "midi": 45,
          "duration": 0.672042,
          "velocity": 1
        },
        {
          "time": 112.98138,
          "name": "C#2",
          "midi": 37,
          "duration": 0.333333,
          "velocity": 0.708661
        },
        {
          "time": 112.98138,
          "name": "C2",
          "midi": 36,
          "duration": 0.333333,
          "velocity": 0.708661
        },
        {
          "time": 112.98138,
          "name": "A1",
          "midi": 33,
          "duration": 0.67249,
          "velocity": 0.88189
        },
        {
          "time": 113.644193,
          "name": "A#2",
          "midi": 46,
          "duration": 0.71595,
          "velocity": 0.96063
        },
        {
          "time": 113.650645,
          "name": "A#2",
          "midi": 46,
          "duration": 0.715054,
          "velocity": 1
        },
        {
          "time": 113.653871,
          "name": "A#1",
          "midi": 34,
          "duration": 0.714606,
          "velocity": 0.88189
        },
        {
          "time": 114.035143,
          "name": "C#2",
          "midi": 37,
          "duration": 0.333333,
          "velocity": 0.708661
        },
        {
          "time": 114.035143,
          "name": "C2",
          "midi": 36,
          "duration": 0.333333,
          "velocity": 0.708661
        },
        {
          "time": 114.360143,
          "name": "B2",
          "midi": 47,
          "duration": 0.72043,
          "velocity": 0.96063
        },
        {
          "time": 114.365698,
          "name": "B2",
          "midi": 47,
          "duration": 0.72043,
          "velocity": 1
        },
        {
          "time": 114.368476,
          "name": "B1",
          "midi": 35,
          "duration": 0.72043,
          "velocity": 0.88189
        },
        {
          "time": 115.080573,
          "name": "C3",
          "midi": 48,
          "duration": 0.671146,
          "velocity": 0.96063
        },
        {
          "time": 115.083351,
          "name": "A2",
          "midi": 45,
          "duration": 0.333333,
          "velocity": 0.629921
        },
        {
          "time": 115.086128,
          "name": "C3",
          "midi": 48,
          "duration": 0.672042,
          "velocity": 1
        },
        {
          "time": 115.088906,
          "name": "C2",
          "midi": 36,
          "duration": 0.333333,
          "velocity": 0.708661
        },
        {
          "time": 115.088906,
          "name": "C#2",
          "midi": 37,
          "duration": 0.333333,
          "velocity": 0.708661
        },
        {
          "time": 115.088906,
          "name": "C2",
          "midi": 36,
          "duration": 0.67249,
          "velocity": 0.88189
        },
        {
          "time": 115.751719,
          "name": "C#3",
          "midi": 49,
          "duration": 0.71595,
          "velocity": 0.96063
        },
        {
          "time": 115.758171,
          "name": "C#3",
          "midi": 49,
          "duration": 0.715054,
          "velocity": 1
        },
        {
          "time": 115.761397,
          "name": "C#2",
          "midi": 37,
          "duration": 0.714606,
          "velocity": 0.88189
        },
        {
          "time": 116.142669,
          "name": "C2",
          "midi": 36,
          "duration": 0.333333,
          "velocity": 0.708661
        },
        {
          "time": 116.142669,
          "name": "C#2",
          "midi": 37,
          "duration": 0.333333,
          "velocity": 0.708661
        },
        {
          "time": 116.467669,
          "name": "D3",
          "midi": 50,
          "duration": 0.74876,
          "velocity": 0.96063
        },
        {
          "time": 116.473224,
          "name": "D3",
          "midi": 50,
          "duration": 0.749087,
          "velocity": 1
        },
        {
          "time": 116.476002,
          "name": "D2",
          "midi": 38,
          "duration": 0.74925,
          "velocity": 0.88189
        },
        {
          "time": 117.216429,
          "name": "F#3",
          "midi": 54,
          "duration": 0.352941,
          "velocity": 0.96063
        },
        {
          "time": 117.21937,
          "name": "A2",
          "midi": 45,
          "duration": 0.352941,
          "velocity": 0.488189
        },
        {
          "time": 117.222311,
          "name": "C#3",
          "midi": 49,
          "duration": 0.352941,
          "velocity": 1
        },
        {
          "time": 117.225252,
          "name": "C#2",
          "midi": 37,
          "duration": 0.352941,
          "velocity": 0.88189
        },
        {
          "time": 118.307774,
          "name": "F#3",
          "midi": 54,
          "duration": 0.333333,
          "velocity": 0.96063
        },
        {
          "time": 118.313329,
          "name": "B2",
          "midi": 47,
          "duration": 0.333333,
          "velocity": 1
        },
        {
          "time": 118.316107,
          "name": "B1",
          "midi": 35,
          "duration": 0.333333,
          "velocity": 0.88189
        },
        {
          "time": 119.361537,
          "name": "E3",
          "midi": 52,
          "duration": 0.333333,
          "velocity": 0.96063
        },
        {
          "time": 119.364315,
          "name": "A2",
          "midi": 45,
          "duration": 0.333333,
          "velocity": 0.488189
        },
        {
          "time": 119.367092,
          "name": "E2",
          "midi": 40,
          "duration": 0.333333,
          "velocity": 1
        },
        {
          "time": 119.36987,
          "name": "E2",
          "midi": 40,
          "duration": 0.333333,
          "velocity": 0.88189
        },
        {
          "time": 120.416093,
          "name": "E3",
          "midi": 52,
          "duration": 0.171429,
          "velocity": 0.96063
        },
        {
          "time": 120.418951,
          "name": "A2",
          "midi": 45,
          "duration": 0.171429,
          "velocity": 0.488189
        },
        {
          "time": 120.421808,
          "name": "A2",
          "midi": 45,
          "duration": 0.171429,
          "velocity": 1
        },
        {
          "time": 120.424665,
          "name": "A1",
          "midi": 33,
          "duration": 0.171429,
          "velocity": 0.88189
        },
        {
          "time": 121.498568,
          "name": "D2",
          "midi": 38,
          "duration": 0.352941,
          "velocity": 0.88189
        },
        {
          "time": 122.618243,
          "name": "A1",
          "midi": 33,
          "duration": 0.352941,
          "velocity": 0.88189
        },
        {
          "time": 123.737918,
          "name": "D2",
          "midi": 38,
          "duration": 0.352941,
          "velocity": 0.88189
        },
        {
          "time": 124.857593,
          "name": "A1",
          "midi": 33,
          "duration": 0.352941,
          "velocity": 0.88189
        },
        {
          "time": 125.977268,
          "name": "D2",
          "midi": 38,
          "duration": 0.352941,
          "velocity": 0.88189
        },
        {
          "time": 127.096943,
          "name": "D2",
          "midi": 38,
          "duration": 0.352941,
          "velocity": 0.88189
        },
        {
          "time": 128.216618,
          "name": "G2",
          "midi": 43,
          "duration": 0.712474,
          "velocity": 0.88189
        },
        {
          "time": 128.929093,
          "name": "F#2",
          "midi": 42,
          "duration": 0.407201,
          "velocity": 0.88189
        },
        {
          "time": 129.336293,
          "name": "E2",
          "midi": 40,
          "duration": 1.119675,
          "velocity": 0.88189
        },
        {
          "time": 130.455968,
          "name": "G2",
          "midi": 43,
          "duration": 0.352941,
          "velocity": 0.88189
        },
        {
          "time": 131.575643,
          "name": "G#2",
          "midi": 44,
          "duration": 0.352941,
          "velocity": 0.88189
        },
        {
          "time": 132.695318,
          "name": "A2",
          "midi": 45,
          "duration": 0.352941,
          "velocity": 0.88189
        },
        {
          "time": 133.814993,
          "name": "A2",
          "midi": 45,
          "duration": 0.352941,
          "velocity": 0.88189
        },
        {
          "time": 134.934668,
          "name": "A2",
          "midi": 45,
          "duration": 0.352941,
          "velocity": 0.88189
        },
        {
          "time": 136.054343,
          "name": "A2",
          "midi": 45,
          "duration": 0.352941,
          "velocity": 0.88189
        },
        {
          "time": 137.174018,
          "name": "A2",
          "midi": 45,
          "duration": 2.315311,
          "velocity": 0.88189
        },
        {
          "time": 139.489329,
          "name": "D2",
          "midi": 38,
          "duration": 0.375,
          "velocity": 0.88189
        },
        {
          "time": 140.650732,
          "name": "A1",
          "midi": 33,
          "duration": 0.352941,
          "velocity": 0.88189
        },
        {
          "time": 141.770407,
          "name": "D2",
          "midi": 38,
          "duration": 0.352941,
          "velocity": 0.88189
        },
        {
          "time": 142.890082,
          "name": "A1",
          "midi": 33,
          "duration": 0.352941,
          "velocity": 0.88189
        },
        {
          "time": 144.009757,
          "name": "D2",
          "midi": 38,
          "duration": 0.352941,
          "velocity": 0.88189
        },
        {
          "time": 145.129432,
          "name": "D2",
          "midi": 38,
          "duration": 0.352941,
          "velocity": 0.88189
        },
        {
          "time": 146.249107,
          "name": "G2",
          "midi": 43,
          "duration": 0.712474,
          "velocity": 0.88189
        },
        {
          "time": 146.961582,
          "name": "F#2",
          "midi": 42,
          "duration": 0.407201,
          "velocity": 0.88189
        },
        {
          "time": 147.368782,
          "name": "E2",
          "midi": 40,
          "duration": 1.120596,
          "velocity": 0.88189
        },
        {
          "time": 148.489379,
          "name": "G2",
          "midi": 43,
          "duration": 0.361446,
          "velocity": 0.88189
        },
        {
          "time": 149.625142,
          "name": "G#2",
          "midi": 44,
          "duration": 0.352941,
          "velocity": 0.88189
        },
        {
          "time": 150.744817,
          "name": "G#2",
          "midi": 44,
          "duration": 0.352941,
          "velocity": 0.88189
        },
        {
          "time": 151.864492,
          "name": "F#2",
          "midi": 42,
          "duration": 0.352941,
          "velocity": 0.88189
        },
        {
          "time": 152.984167,
          "name": "F#2",
          "midi": 42,
          "duration": 0.352941,
          "velocity": 0.88189
        },
        {
          "time": 154.103842,
          "name": "E2",
          "midi": 40,
          "duration": 0.352941,
          "velocity": 0.88189
        },
        {
          "time": 155.255208,
          "name": "A1",
          "midi": 33,
          "duration": 7.4313,
          "velocity": 0.88189
        },
        {
          "time": 166.155813,
          "name": "A2",
          "midi": 45,
          "duration": 0.273973,
          "velocity": 0.96063
        },
        {
          "time": 166.158096,
          "name": "A2",
          "midi": 45,
          "duration": 0.273973,
          "velocity": 0.787402
        },
        {
          "time": 166.160379,
          "name": "A2",
          "midi": 45,
          "duration": 0.273973,
          "velocity": 1
        },
        {
          "time": 166.162662,
          "name": "C#2",
          "midi": 37,
          "duration": 0.273973,
          "velocity": 0.787402
        },
        {
          "time": 166.162662,
          "name": "C2",
          "midi": 36,
          "duration": 0.273973,
          "velocity": 0.787402
        },
        {
          "time": 166.162662,
          "name": "A2",
          "midi": 45,
          "duration": 0.273973,
          "velocity": 0.88189
        },
        {
          "time": 168.810928,
          "name": "A#1",
          "midi": 34,
          "duration": 1.186071,
          "velocity": 0.88189
        },
        {
          "time": 171.074998,
          "name": "B1",
          "midi": 35,
          "duration": 1.119603,
          "velocity": 0.88189
        },
        {
          "time": 173.218498,
          "name": "C#2",
          "midi": 37,
          "duration": 1.067964,
          "velocity": 0.88189
        },
        {
          "time": 175.256497,
          "name": "D2",
          "midi": 38,
          "duration": 1.037082,
          "velocity": 0.88189
        },
        {
          "time": 177.217228,
          "name": "D#2",
          "midi": 39,
          "duration": 1.032797,
          "velocity": 0.88189
        },
        {
          "time": 179.215186,
          "name": "E2",
          "midi": 40,
          "duration": 1.033684,
          "velocity": 0.88189
        },
        {
          "time": 181.166034,
          "name": "F2",
          "midi": 41,
          "duration": 0.975534,
          "velocity": 0.88189
        },
        {
          "time": 183.058732,
          "name": "F#2",
          "midi": 42,
          "duration": 0.975534,
          "velocity": 0.88189
        },
        {
          "time": 185.256399,
          "name": "D2",
          "midi": 38,
          "duration": 1.927095,
          "velocity": 0.88189
        },
        {
          "time": 187.183494,
          "name": "C#2",
          "midi": 37,
          "duration": 1.97864,
          "velocity": 0.88189
        },
        {
          "time": 189.162134,
          "name": "D2",
          "midi": 38,
          "duration": 1.927095,
          "velocity": 0.88189
        },
        {
          "time": 191.089229,
          "name": "C#2",
          "midi": 37,
          "duration": 1.988611,
          "velocity": 0.88189
        },
        {
          "time": 193.07784,
          "name": "F#2",
          "midi": 42,
          "duration": 1.921557,
          "velocity": 0.88189
        },
        {
          "time": 194.999397,
          "name": "G#2",
          "midi": 44,
          "duration": 1.930437,
          "velocity": 0.88189
        },
        {
          "time": 196.929834,
          "name": "G#2",
          "midi": 44,
          "duration": 0.975534,
          "velocity": 0.88189
        },
        {
          "time": 198.838616,
          "name": "C#2",
          "midi": 37,
          "duration": 1.033684,
          "velocity": 0.88189
        },
        {
          "time": 200.789464,
          "name": "A#1",
          "midi": 34,
          "duration": 0.975534,
          "velocity": 0.88189
        },
        {
          "time": 202.682162,
          "name": "B1",
          "midi": 35,
          "duration": 0.975534,
          "velocity": 0.88189
        },
        {
          "time": 204.603719,
          "name": "C#2",
          "midi": 37,
          "duration": 1.013273,
          "velocity": 0.88189
        },
        {
          "time": 206.534156,
          "name": "D2",
          "midi": 38,
          "duration": 0.975534,
          "velocity": 0.88189
        },
        {
          "time": 208.49135,
          "name": "D#2",
          "midi": 39,
          "duration": 1.130644,
          "velocity": 0.88189
        },
        {
          "time": 210.557599,
          "name": "E2",
          "midi": 40,
          "duration": 1.016664,
          "velocity": 0.88189
        },
        {
          "time": 212.751652,
          "name": "F2",
          "midi": 41,
          "duration": 2.045554,
          "velocity": 0.88189
        },
        {
          "time": 214.797206,
          "name": "F#2",
          "midi": 42,
          "duration": 1.892698,
          "velocity": 0.88189
        },
        {
          "time": 216.689904,
          "name": "D2",
          "midi": 38,
          "duration": 1.892698,
          "velocity": 0.88189
        },
        {
          "time": 218.582602,
          "name": "C#2",
          "midi": 37,
          "duration": 1.892698,
          "velocity": 0.88189
        },
        {
          "time": 220.4753,
          "name": "D2",
          "midi": 38,
          "duration": 1.892698,
          "velocity": 0.88189
        },
        {
          "time": 222.367998,
          "name": "C#2",
          "midi": 37,
          "duration": 1.925926,
          "velocity": 0.88189
        },
        {
          "time": 224.293924,
          "name": "F#2",
          "midi": 42,
          "duration": 1.998423,
          "velocity": 0.88189
        },
        {
          "time": 226.292347,
          "name": "G#2",
          "midi": 44,
          "duration": 1.907069,
          "velocity": 0.88189
        },
        {
          "time": 228.199416,
          "name": "G#2",
          "midi": 44,
          "duration": 0.975534,
          "velocity": 0.88189
        },
        {
          "time": 230.367511,
          "name": "C#2",
          "midi": 37,
          "duration": 0.975534,
          "velocity": 0.88189
        },
        {
          "time": 247.640649,
          "name": "C#2",
          "midi": 37,
          "duration": 1.938136,
          "velocity": 0.88189
        },
        {
          "time": 249.578785,
          "name": "C#2",
          "midi": 37,
          "duration": 1.892698,
          "velocity": 0.88189
        },
        {
          "time": 251.471483,
          "name": "C#2",
          "midi": 37,
          "duration": 1.892698,
          "velocity": 0.88189
        },
        {
          "time": 253.364181,
          "name": "C#2",
          "midi": 37,
          "duration": 1.884625,
          "velocity": 0.88189
        },
        {
          "time": 255.248807,
          "name": "C#2",
          "midi": 37,
          "duration": 1.969796,
          "velocity": 0.88189
        },
        {
          "time": 257.218602,
          "name": "C#2",
          "midi": 37,
          "duration": 1.892698,
          "velocity": 0.88189
        },
        {
          "time": 259.1113,
          "name": "C#2",
          "midi": 37,
          "duration": 1.892698,
          "velocity": 0.88189
        },
        {
          "time": 261.003998,
          "name": "C#2",
          "midi": 37,
          "duration": 0.975534,
          "velocity": 0.88189
        },
        {
          "time": 262.975748,
          "name": "D2",
          "midi": 38,
          "duration": 0.975534,
          "velocity": 0.88189
        },
        {
          "time": 264.868446,
          "name": "C#2",
          "midi": 37,
          "duration": 0.975534,
          "velocity": 0.88189
        },
        {
          "time": 265.84398,
          "name": "B1",
          "midi": 35,
          "duration": 0.917164,
          "velocity": 0.88189
        },
        {
          "time": 266.761144,
          "name": "G#1",
          "midi": 32,
          "duration": 0.975534,
          "velocity": 0.88189
        },
        {
          "time": 267.736678,
          "name": "E1",
          "midi": 28,
          "duration": 0.917164,
          "velocity": 0.88189
        },
        {
          "time": 268.653842,
          "name": "A1",
          "midi": 33,
          "duration": 0.975534,
          "velocity": 0.88189
        },
        {
          "time": 269.629376,
          "name": "C#2",
          "midi": 37,
          "duration": 0.917164,
          "velocity": 0.88189
        },
        {
          "time": 270.54654,
          "name": "E2",
          "midi": 40,
          "duration": 0.975534,
          "velocity": 0.88189
        },
        {
          "time": 271.522074,
          "name": "D2",
          "midi": 38,
          "duration": 0.917164,
          "velocity": 0.88189
        },
        {
          "time": 272.439238,
          "name": "C#2",
          "midi": 37,
          "duration": 0.975534,
          "velocity": 0.88189
        },
        {
          "time": 273.414772,
          "name": "A1",
          "midi": 33,
          "duration": 0.917164,
          "velocity": 0.88189
        },
        {
          "time": 274.331936,
          "name": "G#1",
          "midi": 32,
          "duration": 0.975534,
          "velocity": 0.88189
        },
        {
          "time": 275.30747,
          "name": "E1",
          "midi": 28,
          "duration": 0.917164,
          "velocity": 0.88189
        },
        {
          "time": 276.224634,
          "name": "A1",
          "midi": 33,
          "duration": 0.975534,
          "velocity": 0.88189
        },
        {
          "time": 277.200168,
          "name": "A2",
          "midi": 45,
          "duration": 1.137652,
          "velocity": 0.88189
        },
        {
          "time": 296.462298,
          "name": "B1",
          "midi": 35,
          "duration": 0.917164,
          "velocity": 0.88189
        },
        {
          "time": 297.379461,
          "name": "C#2",
          "midi": 37,
          "duration": 0.975534,
          "velocity": 0.88189
        },
        {
          "time": 299.272159,
          "name": "F#2",
          "midi": 42,
          "duration": 0.975534,
          "velocity": 0.88189
        },
        {
          "time": 300.247694,
          "name": "D2",
          "midi": 38,
          "duration": 1.003159,
          "velocity": 0.88189
        },
        {
          "time": 301.250852,
          "name": "B1",
          "midi": 35,
          "duration": 0.975534,
          "velocity": 0.88189
        },
        {
          "time": 302.226387,
          "name": "C2",
          "midi": 36,
          "duration": 0.940606,
          "velocity": 0.88189
        },
        {
          "time": 303.166993,
          "name": "C#2",
          "midi": 37,
          "duration": 1.060288,
          "velocity": 0.88189
        },
        {
          "time": 304.227281,
          "name": "D2",
          "midi": 38,
          "duration": 0.917164,
          "velocity": 0.88189
        },
        {
          "time": 305.144445,
          "name": "E2",
          "midi": 40,
          "duration": 0.975534,
          "velocity": 0.88189
        },
        {
          "time": 306.119979,
          "name": "F2",
          "midi": 41,
          "duration": 0.917164,
          "velocity": 0.88189
        },
        {
          "time": 307.037143,
          "name": "F#2",
          "midi": 42,
          "duration": 0.975534,
          "velocity": 0.88189
        },
        {
          "time": 308.012677,
          "name": "F#3",
          "midi": 54,
          "duration": 1.062618,
          "velocity": 0.88189
        },
        {
          "time": 324.563329,
          "name": "C#2",
          "midi": 37,
          "duration": 0.491804,
          "velocity": 0.88189
        },
        {
          "time": 328.348725,
          "name": "C#2",
          "midi": 37,
          "duration": 0.491804,
          "velocity": 0.88189
        },
        {
          "time": 346.5165,
          "name": "D2",
          "midi": 38,
          "duration": 0.428571,
          "velocity": 0.88189
        },
        {
          "time": 347.357709,
          "name": "D2",
          "midi": 38,
          "duration": 0.35503,
          "velocity": 0.88189
        },
        {
          "time": 348.070113,
          "name": "C#2",
          "midi": 37,
          "duration": 0.365854,
          "velocity": 0.88189
        },
        {
          "time": 348.794774,
          "name": "A1",
          "midi": 33,
          "duration": 0.333333,
          "velocity": 0.88189
        },
        {
          "time": 349.468487,
          "name": "G#1",
          "midi": 32,
          "duration": 0.365854,
          "velocity": 0.88189
        },
        {
          "time": 350.193148,
          "name": "E1",
          "midi": 28,
          "duration": 0.333333,
          "velocity": 0.88189
        },
        {
          "time": 350.866861,
          "name": "A1",
          "midi": 33,
          "duration": 0.365854,
          "velocity": 0.88189
        },
        {
          "time": 351.616315,
          "name": "C#2",
          "midi": 37,
          "duration": 0.427669,
          "velocity": 0.88189
        },
        {
          "time": 352.401359,
          "name": "D2",
          "midi": 38,
          "duration": 0.365854,
          "velocity": 0.88189
        },
        {
          "time": 353.12602,
          "name": "D2",
          "midi": 38,
          "duration": 0.333333,
          "velocity": 0.88189
        },
        {
          "time": 353.799733,
          "name": "C#2",
          "midi": 37,
          "duration": 0.365854,
          "velocity": 0.88189
        },
        {
          "time": 354.524394,
          "name": "A1",
          "midi": 33,
          "duration": 0.333333,
          "velocity": 0.88189
        },
        {
          "time": 355.198107,
          "name": "G#1",
          "midi": 32,
          "duration": 0.365854,
          "velocity": 0.88189
        },
        {
          "time": 355.922768,
          "name": "E1",
          "midi": 28,
          "duration": 0.333333,
          "velocity": 0.88189
        },
        {
          "time": 356.605051,
          "name": "A1",
          "midi": 33,
          "duration": 0.40037,
          "velocity": 0.88189
        },
        {
          "time": 357.005421,
          "name": "A2",
          "midi": 45,
          "duration": 0.378631,
          "velocity": 0.88189
        },
        {
          "time": 358.094733,
          "name": "D3",
          "midi": 50,
          "duration": 0.365854,
          "velocity": 0.88189
        },
        {
          "time": 358.819394,
          "name": "D3",
          "midi": 50,
          "duration": 0.333333,
          "velocity": 0.88189
        },
        {
          "time": 359.493107,
          "name": "C#3",
          "midi": 49,
          "duration": 0.365854,
          "velocity": 0.88189
        },
        {
          "time": 360.217768,
          "name": "A2",
          "midi": 45,
          "duration": 0.333333,
          "velocity": 0.88189
        },
        {
          "time": 360.891481,
          "name": "G#2",
          "midi": 44,
          "duration": 0.365854,
          "velocity": 0.88189
        },
        {
          "time": 361.616142,
          "name": "E2",
          "midi": 40,
          "duration": 0.333333,
          "velocity": 0.88189
        },
        {
          "time": 362.289855,
          "name": "A2",
          "midi": 45,
          "duration": 0.365854,
          "velocity": 0.88189
        },
        {
          "time": 363.039309,
          "name": "A2",
          "midi": 45,
          "duration": 0.428127,
          "velocity": 0.88189
        },
        {
          "time": 363.826466,
          "name": "D3",
          "midi": 50,
          "duration": 0.365854,
          "velocity": 0.88189
        },
        {
          "time": 364.551127,
          "name": "D3",
          "midi": 50,
          "duration": 0.333333,
          "velocity": 0.88189
        },
        {
          "time": 365.22484,
          "name": "C#3",
          "midi": 49,
          "duration": 0.365854,
          "velocity": 0.88189
        },
        {
          "time": 365.949501,
          "name": "A2",
          "midi": 45,
          "duration": 0.333333,
          "velocity": 0.88189
        },
        {
          "time": 366.623214,
          "name": "D3",
          "midi": 50,
          "duration": 0.365854,
          "velocity": 0.88189
        },
        {
          "time": 367.347875,
          "name": "E3",
          "midi": 52,
          "duration": 0.333333,
          "velocity": 0.88189
        },
        {
          "time": 368.021588,
          "name": "A2",
          "midi": 45,
          "duration": 0.365854,
          "velocity": 0.88189
        },
        {
          "time": 369.674802,
          "name": "D3",
          "midi": 50,
          "duration": 0.446196,
          "velocity": 0.96063
        },
        {
          "time": 369.682436,
          "name": "D3",
          "midi": 50,
          "duration": 0.445014,
          "velocity": 0.629921
        },
        {
          "time": 369.690069,
          "name": "D2",
          "midi": 38,
          "duration": 0.443832,
          "velocity": 1
        },
        {
          "time": 369.697703,
          "name": "C2",
          "midi": 36,
          "duration": 0.822799,
          "velocity": 0.787402
        },
        {
          "time": 369.697703,
          "name": "D2",
          "midi": 38,
          "duration": 0.44265,
          "velocity": 0.88189
        },
        {
          "time": 370.50275,
          "name": "D3",
          "midi": 50,
          "duration": 0.35503,
          "velocity": 0.96063
        },
        {
          "time": 370.508667,
          "name": "D3",
          "midi": 50,
          "duration": 0.35503,
          "velocity": 0.629921
        },
        {
          "time": 370.514585,
          "name": "D2",
          "midi": 38,
          "duration": 0.35503,
          "velocity": 1
        },
        {
          "time": 370.520502,
          "name": "C2",
          "midi": 36,
          "duration": 0.712404,
          "velocity": 0.787402
        },
        {
          "time": 370.520502,
          "name": "D2",
          "midi": 38,
          "duration": 0.35503,
          "velocity": 0.88189
        },
        {
          "time": 371.214613,
          "name": "C#3",
          "midi": 49,
          "duration": 0.365854,
          "velocity": 0.96063
        },
        {
          "time": 371.220711,
          "name": "A2",
          "midi": 45,
          "duration": 0.365854,
          "velocity": 0.629921
        },
        {
          "time": 371.226808,
          "name": "C#2",
          "midi": 37,
          "duration": 0.365854,
          "velocity": 1
        },
        {
          "time": 371.232906,
          "name": "C2",
          "midi": 36,
          "duration": 0.724661,
          "velocity": 0.787402
        },
        {
          "time": 371.232906,
          "name": "C#2",
          "midi": 37,
          "duration": 0.365854,
          "velocity": 0.88189
        },
        {
          "time": 371.9409,
          "name": "A2",
          "midi": 45,
          "duration": 0.333333,
          "velocity": 0.96063
        },
        {
          "time": 371.946456,
          "name": "A2",
          "midi": 45,
          "duration": 0.333333,
          "velocity": 0.629921
        },
        {
          "time": 371.952011,
          "name": "A1",
          "midi": 33,
          "duration": 0.333334,
          "velocity": 1
        },
        {
          "time": 371.957567,
          "name": "C2",
          "midi": 36,
          "duration": 0.673713,
          "velocity": 0.787402
        },
        {
          "time": 371.957567,
          "name": "A1",
          "midi": 33,
          "duration": 0.333333,
          "velocity": 0.88189
        },
        {
          "time": 372.274234,
          "name": "A3",
          "midi": 57,
          "duration": 0.338754,
          "velocity": 0.96063
        },
        {
          "time": 372.285345,
          "name": "A2",
          "midi": 45,
          "duration": 0.339837,
          "velocity": 1
        },
        {
          "time": 372.2909,
          "name": "A2",
          "midi": 45,
          "duration": 0.34038,
          "velocity": 0.88189
        },
        {
          "time": 372.612987,
          "name": "G#3",
          "midi": 56,
          "duration": 0.365854,
          "velocity": 0.96063
        },
        {
          "time": 372.619085,
          "name": "D3",
          "midi": 50,
          "duration": 0.365854,
          "velocity": 0.629921
        },
        {
          "time": 372.625182,
          "name": "G#2",
          "midi": 44,
          "duration": 0.365854,
          "velocity": 1
        },
        {
          "time": 372.63128,
          "name": "C2",
          "midi": 36,
          "duration": 0.724661,
          "velocity": 0.787402
        },
        {
          "time": 372.63128,
          "name": "G#2",
          "midi": 44,
          "duration": 0.365854,
          "velocity": 0.88189
        },
        {
          "time": 373.339274,
          "name": "E3",
          "midi": 52,
          "duration": 0.333333,
          "velocity": 0.96063
        },
        {
          "time": 373.34483,
          "name": "D3",
          "midi": 50,
          "duration": 0.333333,
          "velocity": 0.629921
        },
        {
          "time": 373.350385,
          "name": "E2",
          "midi": 40,
          "duration": 0.333334,
          "velocity": 1
        },
        {
          "time": 373.355941,
          "name": "C2",
          "midi": 36,
          "duration": 0.673713,
          "velocity": 0.787402
        },
        {
          "time": 373.355941,
          "name": "E2",
          "midi": 40,
          "duration": 0.333333,
          "velocity": 0.88189
        },
        {
          "time": 374.011361,
          "name": "A3",
          "midi": 57,
          "duration": 0.365854,
          "velocity": 0.96063
        },
        {
          "time": 374.017459,
          "name": "A2",
          "midi": 45,
          "duration": 0.365854,
          "velocity": 0.629921
        },
        {
          "time": 374.023556,
          "name": "A2",
          "midi": 45,
          "duration": 0.365854,
          "velocity": 1
        },
        {
          "time": 374.029654,
          "name": "C2",
          "midi": 36,
          "duration": 0.724661,
          "velocity": 0.787402
        },
        {
          "time": 374.029654,
          "name": "A2",
          "midi": 45,
          "duration": 0.365854,
          "velocity": 0.88189
        },
        {
          "time": 374.737648,
          "name": "A2",
          "midi": 45,
          "duration": 0.351307,
          "velocity": 0.96063
        },
        {
          "time": 374.743204,
          "name": "A2",
          "midi": 45,
          "duration": 0.353105,
          "velocity": 0.629921
        },
        {
          "time": 374.748759,
          "name": "A1",
          "midi": 33,
          "duration": 0.354902,
          "velocity": 1
        },
        {
          "time": 374.754315,
          "name": "C2",
          "midi": 36,
          "duration": 0.781556,
          "velocity": 0.787402
        },
        {
          "time": 374.754315,
          "name": "A1",
          "midi": 33,
          "duration": 0.356699,
          "velocity": 0.88189
        },
        {
          "time": 375.517578,
          "name": "D3",
          "midi": 50,
          "duration": 0.365854,
          "velocity": 0.96063
        },
        {
          "time": 375.523676,
          "name": "D3",
          "midi": 50,
          "duration": 0.365854,
          "velocity": 0.629921
        },
        {
          "time": 375.529773,
          "name": "D2",
          "midi": 38,
          "duration": 0.365854,
          "velocity": 1
        },
        {
          "time": 375.535871,
          "name": "C2",
          "midi": 36,
          "duration": 0.724661,
          "velocity": 0.787402
        },
        {
          "time": 375.535871,
          "name": "D2",
          "midi": 38,
          "duration": 0.365854,
          "velocity": 0.88189
        },
        {
          "time": 376.243865,
          "name": "D3",
          "midi": 50,
          "duration": 0.333333,
          "velocity": 0.96063
        },
        {
          "time": 376.249421,
          "name": "D3",
          "midi": 50,
          "duration": 0.333333,
          "velocity": 0.629921
        },
        {
          "time": 376.254976,
          "name": "D2",
          "midi": 38,
          "duration": 0.333334,
          "velocity": 1
        },
        {
          "time": 376.260532,
          "name": "C2",
          "midi": 36,
          "duration": 0.673713,
          "velocity": 0.787402
        },
        {
          "time": 376.260532,
          "name": "D2",
          "midi": 38,
          "duration": 0.333333,
          "velocity": 0.88189
        },
        {
          "time": 376.915952,
          "name": "C#3",
          "midi": 49,
          "duration": 0.365854,
          "velocity": 0.96063
        },
        {
          "time": 376.92205,
          "name": "A2",
          "midi": 45,
          "duration": 0.365854,
          "velocity": 0.629921
        },
        {
          "time": 376.928147,
          "name": "C#2",
          "midi": 37,
          "duration": 0.365854,
          "velocity": 1
        },
        {
          "time": 376.934245,
          "name": "C2",
          "midi": 36,
          "duration": 0.724661,
          "velocity": 0.787402
        },
        {
          "time": 376.934245,
          "name": "C#2",
          "midi": 37,
          "duration": 0.365854,
          "velocity": 0.88189
        },
        {
          "time": 377.642239,
          "name": "A2",
          "midi": 45,
          "duration": 0.333333,
          "velocity": 0.96063
        },
        {
          "time": 377.647795,
          "name": "A2",
          "midi": 45,
          "duration": 0.333333,
          "velocity": 0.629921
        },
        {
          "time": 377.65335,
          "name": "A1",
          "midi": 33,
          "duration": 0.333334,
          "velocity": 1
        },
        {
          "time": 377.658906,
          "name": "C2",
          "midi": 36,
          "duration": 0.673713,
          "velocity": 0.787402
        },
        {
          "time": 377.658906,
          "name": "A1",
          "midi": 33,
          "duration": 0.333333,
          "velocity": 0.88189
        },
        {
          "time": 377.975573,
          "name": "A3",
          "midi": 57,
          "duration": 0.338754,
          "velocity": 0.96063
        },
        {
          "time": 377.986684,
          "name": "A2",
          "midi": 45,
          "duration": 0.339837,
          "velocity": 1
        },
        {
          "time": 377.992239,
          "name": "A2",
          "midi": 45,
          "duration": 0.34038,
          "velocity": 0.88189
        },
        {
          "time": 378.314326,
          "name": "G#3",
          "midi": 56,
          "duration": 0.365854,
          "velocity": 0.96063
        },
        {
          "time": 378.320424,
          "name": "D3",
          "midi": 50,
          "duration": 0.365854,
          "velocity": 0.629921
        },
        {
          "time": 378.326521,
          "name": "G#2",
          "midi": 44,
          "duration": 0.365854,
          "velocity": 1
        },
        {
          "time": 378.332619,
          "name": "C2",
          "midi": 36,
          "duration": 0.724661,
          "velocity": 0.787402
        },
        {
          "time": 378.332619,
          "name": "G#2",
          "midi": 44,
          "duration": 0.365854,
          "velocity": 0.88189
        },
        {
          "time": 379.040613,
          "name": "E3",
          "midi": 52,
          "duration": 0.333333,
          "velocity": 0.96063
        },
        {
          "time": 379.046169,
          "name": "D3",
          "midi": 50,
          "duration": 0.333333,
          "velocity": 0.629921
        },
        {
          "time": 379.051724,
          "name": "E2",
          "midi": 40,
          "duration": 0.333334,
          "velocity": 1
        },
        {
          "time": 379.05728,
          "name": "C2",
          "midi": 36,
          "duration": 0.673713,
          "velocity": 0.787402
        },
        {
          "time": 379.05728,
          "name": "E2",
          "midi": 40,
          "duration": 0.333333,
          "velocity": 0.88189
        },
        {
          "time": 379.7127,
          "name": "A2",
          "midi": 45,
          "duration": 0.370237,
          "velocity": 0.96063
        },
        {
          "time": 379.718798,
          "name": "A2",
          "midi": 45,
          "duration": 0.370676,
          "velocity": 0.629921
        },
        {
          "time": 379.724895,
          "name": "A2",
          "midi": 45,
          "duration": 0.371114,
          "velocity": 1
        },
        {
          "time": 379.730993,
          "name": "C2",
          "midi": 36,
          "duration": 0.371553,
          "velocity": 0.787402
        },
        {
          "time": 380.082938,
          "name": "E3",
          "midi": 52,
          "duration": 0.397719,
          "velocity": 0.96063
        },
        {
          "time": 380.089474,
          "name": "D3",
          "midi": 50,
          "duration": 0.398276,
          "velocity": 0.629921
        },
        {
          "time": 380.09601,
          "name": "E2",
          "midi": 40,
          "duration": 0.398832,
          "velocity": 1
        },
        {
          "time": 380.102546,
          "name": "C2",
          "midi": 36,
          "duration": 0.399388,
          "velocity": 0.787402
        },
        {
          "time": 380.102546,
          "name": "E2",
          "midi": 40,
          "duration": 0.399388,
          "velocity": 0.88189
        },
        {
          "time": 380.480657,
          "name": "A2",
          "midi": 45,
          "duration": 0.425532,
          "velocity": 0.96063
        },
        {
          "time": 380.487749,
          "name": "A2",
          "midi": 45,
          "duration": 0.425532,
          "velocity": 0.629921
        },
        {
          "time": 380.494842,
          "name": "A2",
          "midi": 45,
          "duration": 0.425532,
          "velocity": 1
        },
        {
          "time": 380.501934,
          "name": "C2",
          "midi": 36,
          "duration": 0.425532,
          "velocity": 0.787402
        },
        {
          "time": 380.501934,
          "name": "A2",
          "midi": 45,
          "duration": 0.425532,
          "velocity": 0.88189
        },
        {
          "time": 381.360036,
          "name": "F#2",
          "midi": 42,
          "duration": 0.443746,
          "velocity": 0.88189
        },
        {
          "time": 382.927094,
          "name": "F#2",
          "midi": 42,
          "duration": 0.38961,
          "velocity": 0.88189
        },
        {
          "time": 384.438022,
          "name": "F#2",
          "midi": 42,
          "duration": 0.38961,
          "velocity": 0.88189
        },
        {
          "time": 385.94895,
          "name": "F#2",
          "midi": 42,
          "duration": 0.38961,
          "velocity": 0.88189
        },
        {
          "time": 386.723024,
          "name": "F#2",
          "midi": 42,
          "duration": 0.365854,
          "velocity": 0.88189
        },
        {
          "time": 387.459878,
          "name": "F#2",
          "midi": 42,
          "duration": 0.38961,
          "velocity": 0.88189
        },
        {
          "time": 388.970806,
          "name": "F#2",
          "midi": 42,
          "duration": 0.38961,
          "velocity": 0.88189
        },
        {
          "time": 390.481734,
          "name": "F#2",
          "midi": 42,
          "duration": 0.38961,
          "velocity": 0.88189
        },
        {
          "time": 391.992662,
          "name": "F#2",
          "midi": 42,
          "duration": 0.398052,
          "velocity": 0.88189
        },
        {
          "time": 392.805697,
          "name": "F#3",
          "midi": 54,
          "duration": 0.365854,
          "velocity": 0.88189
        },
        {
          "time": 393.550993,
          "name": "F#2",
          "midi": 42,
          "duration": 0.419048,
          "velocity": 0.88189
        },
        {
          "time": 395.087445,
          "name": "F#2",
          "midi": 42,
          "duration": 0.38961,
          "velocity": 0.88189
        },
        {
          "time": 396.598373,
          "name": "F#2",
          "midi": 42,
          "duration": 0.38961,
          "velocity": 0.88189
        },
        {
          "time": 398.109301,
          "name": "F#2",
          "midi": 42,
          "duration": 0.38961,
          "velocity": 0.88189
        },
        {
          "time": 398.883375,
          "name": "F#2",
          "midi": 42,
          "duration": 0.365854,
          "velocity": 0.88189
        },
        {
          "time": 399.620229,
          "name": "F#2",
          "midi": 42,
          "duration": 0.38961,
          "velocity": 0.88189
        },
        {
          "time": 401.131157,
          "name": "F#2",
          "midi": 42,
          "duration": 0.38961,
          "velocity": 0.88189
        },
        {
          "time": 402.642085,
          "name": "F#2",
          "midi": 42,
          "duration": 0.38961,
          "velocity": 0.88189
        },
        {
          "time": 404.153013,
          "name": "F#2",
          "midi": 42,
          "duration": 0.398052,
          "velocity": 0.88189
        },
        {
          "time": 405.01678,
          "name": "F#3",
          "midi": 54,
          "duration": 0.584035,
          "velocity": 0.88189
        },
        {
          "time": 406.105953,
          "name": "D2",
          "midi": 38,
          "duration": 0.428571,
          "velocity": 0.88189
        },
        {
          "time": 406.947162,
          "name": "D2",
          "midi": 38,
          "duration": 0.35503,
          "velocity": 0.88189
        },
        {
          "time": 407.659566,
          "name": "C#2",
          "midi": 37,
          "duration": 0.365854,
          "velocity": 0.88189
        },
        {
          "time": 408.384227,
          "name": "A1",
          "midi": 33,
          "duration": 0.333333,
          "velocity": 0.88189
        },
        {
          "time": 409.05794,
          "name": "G#1",
          "midi": 32,
          "duration": 0.365854,
          "velocity": 0.88189
        },
        {
          "time": 409.782601,
          "name": "E1",
          "midi": 28,
          "duration": 0.333333,
          "velocity": 0.88189
        },
        {
          "time": 410.456314,
          "name": "A1",
          "midi": 33,
          "duration": 0.365854,
          "velocity": 0.88189
        },
        {
          "time": 411.205768,
          "name": "C#2",
          "midi": 37,
          "duration": 0.427669,
          "velocity": 0.88189
        },
        {
          "time": 411.990811,
          "name": "D2",
          "midi": 38,
          "duration": 0.365854,
          "velocity": 0.88189
        },
        {
          "time": 412.715472,
          "name": "D2",
          "midi": 38,
          "duration": 0.333333,
          "velocity": 0.88189
        },
        {
          "time": 413.389185,
          "name": "C#2",
          "midi": 37,
          "duration": 0.365854,
          "velocity": 0.88189
        },
        {
          "time": 414.113846,
          "name": "A1",
          "midi": 33,
          "duration": 0.333333,
          "velocity": 0.88189
        },
        {
          "time": 414.787559,
          "name": "G#1",
          "midi": 32,
          "duration": 0.365854,
          "velocity": 0.88189
        },
        {
          "time": 415.51222,
          "name": "E1",
          "midi": 28,
          "duration": 0.333333,
          "velocity": 0.88189
        },
        {
          "time": 416.194503,
          "name": "A1",
          "midi": 33,
          "duration": 0.40037,
          "velocity": 0.88189
        },
        {
          "time": 416.594873,
          "name": "A2",
          "midi": 45,
          "duration": 0.378631,
          "velocity": 0.88189
        },
        {
          "time": 417.684185,
          "name": "D3",
          "midi": 50,
          "duration": 0.365854,
          "velocity": 0.88189
        },
        {
          "time": 418.408846,
          "name": "D3",
          "midi": 50,
          "duration": 0.333333,
          "velocity": 0.88189
        },
        {
          "time": 419.082559,
          "name": "C#3",
          "midi": 49,
          "duration": 0.365854,
          "velocity": 0.88189
        },
        {
          "time": 419.80722,
          "name": "A2",
          "midi": 45,
          "duration": 0.333333,
          "velocity": 0.88189
        },
        {
          "time": 420.480933,
          "name": "G#2",
          "midi": 44,
          "duration": 0.365854,
          "velocity": 0.88189
        },
        {
          "time": 421.205594,
          "name": "E2",
          "midi": 40,
          "duration": 0.333333,
          "velocity": 0.88189
        },
        {
          "time": 421.879307,
          "name": "A2",
          "midi": 45,
          "duration": 0.365854,
          "velocity": 0.88189
        },
        {
          "time": 422.628761,
          "name": "A2",
          "midi": 45,
          "duration": 0.428127,
          "velocity": 0.88189
        },
        {
          "time": 423.415918,
          "name": "D3",
          "midi": 50,
          "duration": 0.365854,
          "velocity": 0.88189
        },
        {
          "time": 424.140579,
          "name": "D3",
          "midi": 50,
          "duration": 0.333333,
          "velocity": 0.88189
        },
        {
          "time": 424.814292,
          "name": "C#3",
          "midi": 49,
          "duration": 0.365854,
          "velocity": 0.88189
        },
        {
          "time": 425.53588,
          "name": "A2",
          "midi": 45,
          "duration": 0.319149,
          "velocity": 0.88189
        },
        {
          "time": 426.180174,
          "name": "D3",
          "midi": 50,
          "duration": 0.346821,
          "velocity": 0.88189
        },
        {
          "time": 426.863671,
          "name": "E3",
          "midi": 52,
          "duration": 0.3,
          "velocity": 0.88189
        },
        {
          "time": 427.447728,
          "name": "A2",
          "midi": 45,
          "duration": 0.226415,
          "velocity": 0.88189
        },
        {
          "time": 427.890658,
          "name": "A2",
          "midi": 45,
          "duration": 0.364497,
          "velocity": 0.88189
        },
        {
          "time": 428.255155,
          "name": "B2",
          "midi": 47,
          "duration": 0.386559,
          "velocity": 0.88189
        },
        {
          "time": 428.641714,
          "name": "E2",
          "midi": 40,
          "duration": 0.364497,
          "velocity": 0.88189
        },
        {
          "time": 429.006211,
          "name": "A2",
          "midi": 45,
          "duration": 0.386559,
          "velocity": 0.88189
        },
        {
          "time": 429.39277,
          "name": "G2",
          "midi": 43,
          "duration": 0.364497,
          "velocity": 0.88189
        },
        {
          "time": 429.757267,
          "name": "F#2",
          "midi": 42,
          "duration": 0.194805,
          "velocity": 0.88189
        },
        {
          "time": 429.952072,
          "name": "F2",
          "midi": 41,
          "duration": 0.191754,
          "velocity": 0.88189
        },
        {
          "time": 430.143826,
          "name": "E2",
          "midi": 40,
          "duration": 0.180723,
          "velocity": 0.88189
        },
        {
          "time": 430.324549,
          "name": "D2",
          "midi": 38,
          "duration": 0.183774,
          "velocity": 0.88189
        },
        {
          "time": 430.508323,
          "name": "C#2",
          "midi": 37,
          "duration": 0.386559,
          "velocity": 0.88189
        },
        {
          "time": 431.259379,
          "name": "D2",
          "midi": 38,
          "duration": 0.386559,
          "velocity": 0.88189
        },
        {
          "time": 432.010435,
          "name": "E2",
          "midi": 40,
          "duration": 0.386559,
          "velocity": 0.88189
        },
        {
          "time": 432.396994,
          "name": "E3",
          "midi": 52,
          "duration": 0.364497,
          "velocity": 0.88189
        },
        {
          "time": 432.761491,
          "name": "E2",
          "midi": 40,
          "duration": 0.386559,
          "velocity": 0.88189
        },
        {
          "time": 433.14805,
          "name": "E3",
          "midi": 52,
          "duration": 0.364497,
          "velocity": 0.88189
        },
        {
          "time": 433.512547,
          "name": "A1",
          "midi": 33,
          "duration": 0.194805,
          "velocity": 0.88189
        },
        {
          "time": 433.899106,
          "name": "A2",
          "midi": 45,
          "duration": 0.364497,
          "velocity": 0.88189
        },
        {
          "time": 434.263603,
          "name": "B2",
          "midi": 47,
          "duration": 0.386559,
          "velocity": 0.88189
        },
        {
          "time": 434.650162,
          "name": "E2",
          "midi": 40,
          "duration": 0.364497,
          "velocity": 0.88189
        },
        {
          "time": 435.014659,
          "name": "A2",
          "midi": 45,
          "duration": 0.386559,
          "velocity": 0.88189
        },
        {
          "time": 435.401218,
          "name": "G2",
          "midi": 43,
          "duration": 0.364497,
          "velocity": 0.88189
        },
        {
          "time": 435.765715,
          "name": "F#2",
          "midi": 42,
          "duration": 0.194805,
          "velocity": 0.88189
        },
        {
          "time": 435.96052,
          "name": "F2",
          "midi": 41,
          "duration": 0.191754,
          "velocity": 0.88189
        },
        {
          "time": 436.152274,
          "name": "E2",
          "midi": 40,
          "duration": 0.180723,
          "velocity": 0.88189
        },
        {
          "time": 436.332997,
          "name": "D2",
          "midi": 38,
          "duration": 0.183774,
          "velocity": 0.88189
        },
        {
          "time": 436.516771,
          "name": "C#2",
          "midi": 37,
          "duration": 0.386559,
          "velocity": 0.88189
        },
        {
          "time": 437.267827,
          "name": "D2",
          "midi": 38,
          "duration": 0.386559,
          "velocity": 0.88189
        },
        {
          "time": 438.018883,
          "name": "E2",
          "midi": 40,
          "duration": 0.386559,
          "velocity": 0.88189
        },
        {
          "time": 438.405442,
          "name": "E3",
          "midi": 52,
          "duration": 0.364497,
          "velocity": 0.88189
        },
        {
          "time": 438.769939,
          "name": "E2",
          "midi": 40,
          "duration": 0.386559,
          "velocity": 0.88189
        },
        {
          "time": 439.156498,
          "name": "E3",
          "midi": 52,
          "duration": 0.364497,
          "velocity": 0.88189
        },
        {
          "time": 439.520995,
          "name": "A2",
          "midi": 45,
          "duration": 0.194805,
          "velocity": 0.88189
        },
        {
          "time": 439.907554,
          "name": "F#2",
          "midi": 42,
          "duration": 0.180723,
          "velocity": 0.88189
        },
        {
          "time": 440.272051,
          "name": "A2",
          "midi": 45,
          "duration": 0.194805,
          "velocity": 0.88189
        },
        {
          "time": 440.65861,
          "name": "F#2",
          "midi": 42,
          "duration": 0.180723,
          "velocity": 0.88189
        },
        {
          "time": 441.023107,
          "name": "A2",
          "midi": 45,
          "duration": 0.194805,
          "velocity": 0.88189
        },
        {
          "time": 441.409666,
          "name": "F#2",
          "midi": 42,
          "duration": 0.180723,
          "velocity": 0.88189
        },
        {
          "time": 441.774163,
          "name": "A2",
          "midi": 45,
          "duration": 0.194805,
          "velocity": 0.88189
        },
        {
          "time": 442.160722,
          "name": "F#2",
          "midi": 42,
          "duration": 0.180723,
          "velocity": 0.88189
        },
        {
          "time": 442.525219,
          "name": "A2",
          "midi": 45,
          "duration": 0.194805,
          "velocity": 0.88189
        },
        {
          "time": 442.911778,
          "name": "A2",
          "midi": 45,
          "duration": 0.180723,
          "velocity": 0.88189
        },
        {
          "time": 443.276275,
          "name": "E2",
          "midi": 40,
          "duration": 0.194805,
          "velocity": 0.88189
        },
        {
          "time": 443.662834,
          "name": "C#2",
          "midi": 37,
          "duration": 0.180723,
          "velocity": 0.88189
        },
        {
          "time": 444.027331,
          "name": "A1",
          "midi": 33,
          "duration": 0.194805,
          "velocity": 0.88189
        },
        {
          "time": 444.41389,
          "name": "A2",
          "midi": 45,
          "duration": 0.180723,
          "velocity": 0.88189
        },
        {
          "time": 444.778387,
          "name": "E2",
          "midi": 40,
          "duration": 0.194805,
          "velocity": 0.88189
        },
        {
          "time": 445.164946,
          "name": "C#2",
          "midi": 37,
          "duration": 0.180723,
          "velocity": 0.88189
        },
        {
          "time": 445.526392,
          "name": "A1",
          "midi": 33,
          "duration": 0.180723,
          "velocity": 0.88189
        },
        {
          "time": 445.878802,
          "name": "A3",
          "midi": 57,
          "duration": 0.180723,
          "velocity": 0.96063
        },
        {
          "time": 445.881814,
          "name": "A2",
          "midi": 45,
          "duration": 0.180723,
          "velocity": 0.787402
        },
        {
          "time": 445.884826,
          "name": "A3",
          "midi": 57,
          "duration": 0.180723,
          "velocity": 1
        },
        {
          "time": 445.887838,
          "name": "C2",
          "midi": 36,
          "duration": 0.180723,
          "velocity": 0.787402
        },
        {
          "time": 446.24326,
          "name": "A2",
          "midi": 45,
          "duration": 0.180723,
          "velocity": 0.787402
        },
        {
          "time": 446.249284,
          "name": "A1",
          "midi": 33,
          "duration": 0.180723,
          "velocity": 0.88189
        },
        {
          "time": 448.924686,
          "name": "A#1",
          "midi": 34,
          "duration": 0.384615,
          "velocity": 0.88189
        },
        {
          "time": 450.038744,
          "name": "A#1",
          "midi": 34,
          "duration": 0.384615,
          "velocity": 0.88189
        },
        {
          "time": 451.152802,
          "name": "A#1",
          "midi": 34,
          "duration": 0.384615,
          "velocity": 0.88189
        },
        {
          "time": 452.26686,
          "name": "A#1",
          "midi": 34,
          "duration": 0.384615,
          "velocity": 0.88189
        },
        {
          "time": 453.380918,
          "name": "A1",
          "midi": 33,
          "duration": 1.114058,
          "velocity": 0.88189
        },
        {
          "time": 454.494976,
          "name": "G#1",
          "midi": 32,
          "duration": 1.114058,
          "velocity": 0.88189
        },
        {
          "time": 455.609034,
          "name": "G1",
          "midi": 31,
          "duration": 1.114058,
          "velocity": 0.88189
        },
        {
          "time": 456.723092,
          "name": "B1",
          "midi": 35,
          "duration": 1.114058,
          "velocity": 0.88189
        },
        {
          "time": 457.83715,
          "name": "C2",
          "midi": 36,
          "duration": 0.76492,
          "velocity": 0.88189
        },
        {
          "time": 460.065266,
          "name": "D#2",
          "midi": 39,
          "duration": 0.384615,
          "velocity": 0.88189
        },
        {
          "time": 461.179324,
          "name": "D#2",
          "midi": 39,
          "duration": 0.384615,
          "velocity": 0.88189
        },
        {
          "time": 462.293382,
          "name": "F2",
          "midi": 41,
          "duration": 0.384615,
          "velocity": 0.88189
        },
        {
          "time": 463.40744,
          "name": "F2",
          "midi": 41,
          "duration": 0.384615,
          "velocity": 0.88189
        },
        {
          "time": 464.521498,
          "name": "F2",
          "midi": 41,
          "duration": 0.384615,
          "velocity": 0.88189
        },
        {
          "time": 465.635556,
          "name": "F2",
          "midi": 41,
          "duration": 0.384615,
          "velocity": 0.88189
        },
        {
          "time": 466.749614,
          "name": "A#1",
          "midi": 34,
          "duration": 0.384615,
          "velocity": 0.88189
        },
        {
          "time": 467.863672,
          "name": "B1",
          "midi": 35,
          "duration": 0.192307,
          "velocity": 0.88189
        },
        {
          "time": 468.248287,
          "name": "C2",
          "midi": 36,
          "duration": 0.192308,
          "velocity": 0.88189
        },
        {
          "time": 468.628592,
          "name": "F1",
          "midi": 29,
          "duration": 0.181486,
          "velocity": 0.88189
        },
        {
          "time": 469.019601,
          "name": "A#1",
          "midi": 34,
          "duration": 0.384615,
          "velocity": 0.88189
        },
        {
          "time": 470.133659,
          "name": "A#1",
          "midi": 34,
          "duration": 0.384615,
          "velocity": 0.88189
        },
        {
          "time": 471.247717,
          "name": "A1",
          "midi": 33,
          "duration": 1.114058,
          "velocity": 0.88189
        },
        {
          "time": 472.361775,
          "name": "G#1",
          "midi": 32,
          "duration": 1.114058,
          "velocity": 0.88189
        },
        {
          "time": 473.475833,
          "name": "G1",
          "midi": 31,
          "duration": 1.114058,
          "velocity": 0.88189
        },
        {
          "time": 474.589891,
          "name": "B1",
          "midi": 35,
          "duration": 1.114058,
          "velocity": 0.88189
        },
        {
          "time": 475.703949,
          "name": "C2",
          "midi": 36,
          "duration": 0.76492,
          "velocity": 0.88189
        },
        {
          "time": 477.932065,
          "name": "D#2",
          "midi": 39,
          "duration": 0.384615,
          "velocity": 0.88189
        },
        {
          "time": 479.046123,
          "name": "D#2",
          "midi": 39,
          "duration": 0.384615,
          "velocity": 0.88189
        },
        {
          "time": 480.160181,
          "name": "F2",
          "midi": 41,
          "duration": 0.384615,
          "velocity": 0.88189
        },
        {
          "time": 481.274239,
          "name": "F2",
          "midi": 41,
          "duration": 0.384615,
          "velocity": 0.88189
        },
        {
          "time": 482.388297,
          "name": "A2",
          "midi": 45,
          "duration": 0.384615,
          "velocity": 0.88189
        },
        {
          "time": 483.502355,
          "name": "A2",
          "midi": 45,
          "duration": 0.384615,
          "velocity": 0.88189
        },
        {
          "time": 484.616413,
          "name": "A2",
          "midi": 45,
          "duration": 0.384615,
          "velocity": 0.88189
        },
        {
          "time": 485.730471,
          "name": "A2",
          "midi": 45,
          "duration": 0.384615,
          "velocity": 0.88189
        },
        {
          "time": 486.844529,
          "name": "A2",
          "midi": 45,
          "duration": 0.384615,
          "velocity": 0.88189
        },
        {
          "time": 488.343202,
          "name": "A1",
          "midi": 33,
          "duration": 0.380305,
          "velocity": 0.88189
        },
        {
          "time": 488.723507,
          "name": "D2",
          "midi": 38,
          "duration": 0.388977,
          "velocity": 0.88189
        },
        {
          "time": 489.112484,
          "name": "C2",
          "midi": 36,
          "duration": 1.076536,
          "velocity": 0.88189
        },
        {
          "time": 490.18902,
          "name": "C2",
          "midi": 36,
          "duration": 1.076536,
          "velocity": 0.88189
        },
        {
          "time": 491.265556,
          "name": "C2",
          "midi": 36,
          "duration": 1.076536,
          "velocity": 0.88189
        },
        {
          "time": 492.342092,
          "name": "C2",
          "midi": 36,
          "duration": 1.076536,
          "velocity": 0.88189
        },
        {
          "time": 493.418628,
          "name": "C2",
          "midi": 36,
          "duration": 1.076536,
          "velocity": 0.88189
        },
        {
          "time": 494.495164,
          "name": "C2",
          "midi": 36,
          "duration": 1.076536,
          "velocity": 0.88189
        },
        {
          "time": 495.5717,
          "name": "C2",
          "midi": 36,
          "duration": 1.076536,
          "velocity": 0.88189
        },
        {
          "time": 496.648236,
          "name": "C2",
          "midi": 36,
          "duration": 1.118408,
          "velocity": 0.88189
        },
        {
          "time": 497.766644,
          "name": "C2",
          "midi": 36,
          "duration": 1.076536,
          "velocity": 0.88189
        },
        {
          "time": 498.84318,
          "name": "C2",
          "midi": 36,
          "duration": 1.076536,
          "velocity": 0.88189
        },
        {
          "time": 499.919716,
          "name": "C2",
          "midi": 36,
          "duration": 1.076536,
          "velocity": 0.88189
        },
        {
          "time": 500.996252,
          "name": "C2",
          "midi": 36,
          "duration": 1.076536,
          "velocity": 0.88189
        },
        {
          "time": 502.072788,
          "name": "C2",
          "midi": 36,
          "duration": 1.076536,
          "velocity": 0.88189
        },
        {
          "time": 503.149324,
          "name": "C2",
          "midi": 36,
          "duration": 1.076536,
          "velocity": 0.88189
        },
        {
          "time": 504.22586,
          "name": "C2",
          "midi": 36,
          "duration": 1.076536,
          "velocity": 0.88189
        },
        {
          "time": 505.302396,
          "name": "C2",
          "midi": 36,
          "duration": 1.13647,
          "velocity": 0.88189
        },
        {
          "time": 506.438865,
          "name": "F1",
          "midi": 29,
          "duration": 1.076536,
          "velocity": 0.88189
        },
        {
          "time": 507.515401,
          "name": "F1",
          "midi": 29,
          "duration": 1.076536,
          "velocity": 0.88189
        },
        {
          "time": 508.591937,
          "name": "F1",
          "midi": 29,
          "duration": 1.076536,
          "velocity": 0.88189
        },
        {
          "time": 509.668473,
          "name": "F1",
          "midi": 29,
          "duration": 1.076536,
          "velocity": 0.88189
        },
        {
          "time": 510.745009,
          "name": "F1",
          "midi": 29,
          "duration": 1.076536,
          "velocity": 0.88189
        },
        {
          "time": 511.821545,
          "name": "F1",
          "midi": 29,
          "duration": 1.076536,
          "velocity": 0.88189
        },
        {
          "time": 512.898081,
          "name": "F1",
          "midi": 29,
          "duration": 1.078568,
          "velocity": 0.88189
        },
        {
          "time": 513.97665,
          "name": "F1",
          "midi": 29,
          "duration": 0.386282,
          "velocity": 0.88189
        },
        {
          "time": 515.13306,
          "name": "A#2",
          "midi": 46,
          "duration": 0.384615,
          "velocity": 1
        },
        {
          "time": 515.136265,
          "name": "A#1",
          "midi": 34,
          "duration": 0.384615,
          "velocity": 0.88189
        },
        {
          "time": 516.247118,
          "name": "A#2",
          "midi": 46,
          "duration": 0.384615,
          "velocity": 1
        },
        {
          "time": 516.250323,
          "name": "A#1",
          "midi": 34,
          "duration": 0.384615,
          "velocity": 0.88189
        },
        {
          "time": 517.361176,
          "name": "A2",
          "midi": 45,
          "duration": 0.384615,
          "velocity": 1
        },
        {
          "time": 517.364381,
          "name": "A1",
          "midi": 33,
          "duration": 1.114058,
          "velocity": 0.88189
        },
        {
          "time": 518.475234,
          "name": "G#2",
          "midi": 44,
          "duration": 0.384615,
          "velocity": 1
        },
        {
          "time": 518.478439,
          "name": "G#1",
          "midi": 32,
          "duration": 1.114058,
          "velocity": 0.88189
        },
        {
          "time": 519.589292,
          "name": "G2",
          "midi": 43,
          "duration": 0.384615,
          "velocity": 1
        },
        {
          "time": 519.592497,
          "name": "G1",
          "midi": 31,
          "duration": 1.114058,
          "velocity": 0.88189
        },
        {
          "time": 520.70335,
          "name": "B2",
          "midi": 47,
          "duration": 0.384615,
          "velocity": 1
        },
        {
          "time": 520.706555,
          "name": "B1",
          "midi": 35,
          "duration": 1.114058,
          "velocity": 0.88189
        },
        {
          "time": 521.817408,
          "name": "C3",
          "midi": 48,
          "duration": 0.384615,
          "velocity": 1
        },
        {
          "time": 521.820613,
          "name": "C2",
          "midi": 36,
          "duration": 0.76492,
          "velocity": 0.88189
        },
        {
          "time": 524.048729,
          "name": "D#2",
          "midi": 39,
          "duration": 0.384615,
          "velocity": 0.88189
        },
        {
          "time": 525.162787,
          "name": "D#2",
          "midi": 39,
          "duration": 0.384615,
          "velocity": 0.88189
        },
        {
          "time": 526.276845,
          "name": "F2",
          "midi": 41,
          "duration": 0.384615,
          "velocity": 0.88189
        },
        {
          "time": 527.390903,
          "name": "F2",
          "midi": 41,
          "duration": 0.384615,
          "velocity": 0.88189
        },
        {
          "time": 528.504961,
          "name": "F2",
          "midi": 41,
          "duration": 0.384615,
          "velocity": 0.88189
        },
        {
          "time": 529.619019,
          "name": "F2",
          "midi": 41,
          "duration": 0.384615,
          "velocity": 0.88189
        },
        {
          "time": 530.733077,
          "name": "A#1",
          "midi": 34,
          "duration": 0.384615,
          "velocity": 0.88189
        },
        {
          "time": 531.847135,
          "name": "B1",
          "midi": 35,
          "duration": 0.192308,
          "velocity": 0.88189
        },
        {
          "time": 532.23175,
          "name": "C2",
          "midi": 36,
          "duration": 0.192307,
          "velocity": 0.88189
        },
        {
          "time": 532.612055,
          "name": "F1",
          "midi": 29,
          "duration": 0.172414,
          "velocity": 0.88189
        },
        {
          "time": 532.957988,
          "name": "A#2",
          "midi": 46,
          "duration": 0.384615,
          "velocity": 1
        },
        {
          "time": 532.961193,
          "name": "A#1",
          "midi": 34,
          "duration": 0.384615,
          "velocity": 0.88189
        },
        {
          "time": 534.072046,
          "name": "A#2",
          "midi": 46,
          "duration": 0.384615,
          "velocity": 1
        },
        {
          "time": 534.075251,
          "name": "A#1",
          "midi": 34,
          "duration": 0.384615,
          "velocity": 0.88189
        },
        {
          "time": 535.186104,
          "name": "A2",
          "midi": 45,
          "duration": 0.384615,
          "velocity": 1
        },
        {
          "time": 535.189309,
          "name": "A1",
          "midi": 33,
          "duration": 1.114058,
          "velocity": 0.88189
        },
        {
          "time": 536.300162,
          "name": "G#2",
          "midi": 44,
          "duration": 0.384615,
          "velocity": 1
        },
        {
          "time": 536.303367,
          "name": "G#1",
          "midi": 32,
          "duration": 1.114058,
          "velocity": 0.88189
        },
        {
          "time": 537.41422,
          "name": "G2",
          "midi": 43,
          "duration": 0.384615,
          "velocity": 1
        },
        {
          "time": 537.417425,
          "name": "G1",
          "midi": 31,
          "duration": 1.114058,
          "velocity": 0.88189
        },
        {
          "time": 538.528278,
          "name": "B2",
          "midi": 47,
          "duration": 0.384615,
          "velocity": 1
        },
        {
          "time": 538.531483,
          "name": "B1",
          "midi": 35,
          "duration": 1.114058,
          "velocity": 0.88189
        },
        {
          "time": 539.642336,
          "name": "C3",
          "midi": 48,
          "duration": 0.384615,
          "velocity": 1
        },
        {
          "time": 539.645541,
          "name": "C2",
          "midi": 36,
          "duration": 0.76492,
          "velocity": 0.88189
        },
        {
          "time": 541.873657,
          "name": "D#2",
          "midi": 39,
          "duration": 0.384615,
          "velocity": 0.88189
        },
        {
          "time": 542.987715,
          "name": "D#2",
          "midi": 39,
          "duration": 0.384615,
          "velocity": 0.88189
        },
        {
          "time": 544.101773,
          "name": "F2",
          "midi": 41,
          "duration": 0.384615,
          "velocity": 0.88189
        },
        {
          "time": 545.215831,
          "name": "F2",
          "midi": 41,
          "duration": 0.384615,
          "velocity": 0.88189
        },
        {
          "time": 546.329889,
          "name": "F2",
          "midi": 41,
          "duration": 0.384615,
          "velocity": 0.88189
        },
        {
          "time": 547.443947,
          "name": "F2",
          "midi": 41,
          "duration": 0.384615,
          "velocity": 0.88189
        },
        {
          "time": 548.555029,
          "name": "A#1",
          "midi": 34,
          "duration": 0.354765,
          "velocity": 0.88189
        },
        {
          "time": 548.901414,
          "name": "D3",
          "midi": 50,
          "duration": 0.301676,
          "velocity": 1
        },
        {
          "time": 548.907001,
          "name": "D2",
          "midi": 38,
          "duration": 0.301676,
          "velocity": 1
        },
        {
          "time": 548.909794,
          "name": "D3",
          "midi": 50,
          "duration": 0.335196,
          "velocity": 0.88189
        },
        {
          "time": 549.23661,
          "name": "D3",
          "midi": 50,
          "duration": 0.301676,
          "velocity": 1
        },
        {
          "time": 549.242197,
          "name": "D2",
          "midi": 38,
          "duration": 0.301676,
          "velocity": 1
        },
        {
          "time": 549.24499,
          "name": "D3",
          "midi": 50,
          "duration": 0.336564,
          "velocity": 0.88189
        },
        {
          "time": 549.572859,
          "name": "D3",
          "midi": 50,
          "duration": 1.006999,
          "velocity": 1
        },
        {
          "time": 549.578656,
          "name": "D2",
          "midi": 38,
          "duration": 1.006966,
          "velocity": 1
        },
        {
          "time": 549.581554,
          "name": "D3",
          "midi": 50,
          "duration": 1.156805,
          "velocity": 0.88189
        },
        {
          "time": 550.761414,
          "name": "D3",
          "midi": 50,
          "duration": 0.170487,
          "velocity": 0.88189
        },
        {
          "time": 550.931901,
          "name": "E3",
          "midi": 52,
          "duration": 0.161725,
          "velocity": 0.88189
        },
        {
          "time": 551.093626,
          "name": "D3",
          "midi": 50,
          "duration": 0.161725,
          "velocity": 0.88189
        },
        {
          "time": 551.255351,
          "name": "C3",
          "midi": 48,
          "duration": 0.161725,
          "velocity": 0.88189
        },
        {
          "time": 551.417076,
          "name": "B2",
          "midi": 47,
          "duration": 0.161725,
          "velocity": 0.88189
        },
        {
          "time": 551.578801,
          "name": "C3",
          "midi": 48,
          "duration": 0.291105,
          "velocity": 0.88189
        },
        {
          "time": 551.902251,
          "name": "A2",
          "midi": 45,
          "duration": 0.291105,
          "velocity": 0.88189
        },
        {
          "time": 552.225701,
          "name": "D3",
          "midi": 50,
          "duration": 0.291105,
          "velocity": 0.88189
        },
        {
          "time": 554.016718,
          "name": "G2",
          "midi": 43,
          "duration": 0.193549,
          "velocity": 0.96063
        },
        {
          "time": 554.019944,
          "name": "G2",
          "midi": 43,
          "duration": 0.193549,
          "velocity": 0.590551
        },
        {
          "time": 554.02317,
          "name": "G2",
          "midi": 43,
          "duration": 0.193549,
          "velocity": 1
        },
        {
          "time": 554.026396,
          "name": "C#2",
          "midi": 37,
          "duration": 0.384436,
          "velocity": 0.669291
        },
        {
          "time": 554.026396,
          "name": "C2",
          "midi": 36,
          "duration": 0.384436,
          "velocity": 0.669291
        },
        {
          "time": 554.026396,
          "name": "G1",
          "midi": 31,
          "duration": 0.193548,
          "velocity": 0.88189
        },
        {
          "time": 554.401769,
          "name": "G2",
          "midi": 43,
          "duration": 0.181269,
          "velocity": 0.96063
        },
        {
          "time": 554.40479,
          "name": "G2",
          "midi": 43,
          "duration": 0.181269,
          "velocity": 0.590551
        },
        {
          "time": 554.407811,
          "name": "G2",
          "midi": 43,
          "duration": 0.181269,
          "velocity": 1
        },
        {
          "time": 554.410832,
          "name": "C#2",
          "midi": 37,
          "duration": 0.365199,
          "velocity": 0.669291
        },
        {
          "time": 554.410832,
          "name": "C2",
          "midi": 36,
          "duration": 0.365199,
          "velocity": 0.669291
        },
        {
          "time": 554.410832,
          "name": "G1",
          "midi": 31,
          "duration": 0.181269,
          "velocity": 0.88189
        },
        {
          "time": 554.766353,
          "name": "G2",
          "midi": 43,
          "duration": 0.193549,
          "velocity": 0.96063
        },
        {
          "time": 554.769579,
          "name": "G2",
          "midi": 43,
          "duration": 0.193549,
          "velocity": 0.590551
        },
        {
          "time": 554.772805,
          "name": "G2",
          "midi": 43,
          "duration": 0.193549,
          "velocity": 1
        },
        {
          "time": 554.776031,
          "name": "C#2",
          "midi": 37,
          "duration": 0.384436,
          "velocity": 0.669291
        },
        {
          "time": 554.776031,
          "name": "C2",
          "midi": 36,
          "duration": 0.384436,
          "velocity": 0.669291
        },
        {
          "time": 554.776031,
          "name": "G1",
          "midi": 31,
          "duration": 0.193548,
          "velocity": 0.88189
        },
        {
          "time": 555.151404,
          "name": "G2",
          "midi": 43,
          "duration": 0.181269,
          "velocity": 0.96063
        },
        {
          "time": 555.154425,
          "name": "G2",
          "midi": 43,
          "duration": 0.181269,
          "velocity": 0.590551
        },
        {
          "time": 555.157446,
          "name": "G2",
          "midi": 43,
          "duration": 0.181269,
          "velocity": 1
        },
        {
          "time": 555.160467,
          "name": "C#2",
          "midi": 37,
          "duration": 0.365199,
          "velocity": 0.669291
        },
        {
          "time": 555.160467,
          "name": "C2",
          "midi": 36,
          "duration": 0.365199,
          "velocity": 0.669291
        },
        {
          "time": 555.160467,
          "name": "G1",
          "midi": 31,
          "duration": 0.181269,
          "velocity": 0.88189
        },
        {
          "time": 555.515988,
          "name": "G2",
          "midi": 43,
          "duration": 0.193549,
          "velocity": 0.96063
        },
        {
          "time": 555.519214,
          "name": "G2",
          "midi": 43,
          "duration": 0.193549,
          "velocity": 0.590551
        },
        {
          "time": 555.52244,
          "name": "G2",
          "midi": 43,
          "duration": 0.193549,
          "velocity": 1
        },
        {
          "time": 555.525666,
          "name": "C#2",
          "midi": 37,
          "duration": 0.384436,
          "velocity": 0.669291
        },
        {
          "time": 555.525666,
          "name": "C2",
          "midi": 36,
          "duration": 0.384436,
          "velocity": 0.669291
        },
        {
          "time": 555.525666,
          "name": "G1",
          "midi": 31,
          "duration": 0.193548,
          "velocity": 0.88189
        },
        {
          "time": 555.901039,
          "name": "G2",
          "midi": 43,
          "duration": 0.181269,
          "velocity": 0.96063
        },
        {
          "time": 555.90406,
          "name": "G2",
          "midi": 43,
          "duration": 0.181269,
          "velocity": 0.590551
        },
        {
          "time": 555.907081,
          "name": "G2",
          "midi": 43,
          "duration": 0.181269,
          "velocity": 1
        },
        {
          "time": 555.910102,
          "name": "C#2",
          "midi": 37,
          "duration": 0.365199,
          "velocity": 0.669291
        },
        {
          "time": 555.910102,
          "name": "C2",
          "midi": 36,
          "duration": 0.365199,
          "velocity": 0.669291
        },
        {
          "time": 555.910102,
          "name": "G1",
          "midi": 31,
          "duration": 0.181269,
          "velocity": 0.88189
        },
        {
          "time": 556.265623,
          "name": "G2",
          "midi": 43,
          "duration": 0.193549,
          "velocity": 0.96063
        },
        {
          "time": 556.268849,
          "name": "G2",
          "midi": 43,
          "duration": 0.193549,
          "velocity": 0.590551
        },
        {
          "time": 556.272075,
          "name": "G2",
          "midi": 43,
          "duration": 0.193549,
          "velocity": 1
        },
        {
          "time": 556.275301,
          "name": "C#2",
          "midi": 37,
          "duration": 0.384436,
          "velocity": 0.669291
        },
        {
          "time": 556.275301,
          "name": "C2",
          "midi": 36,
          "duration": 0.384436,
          "velocity": 0.669291
        },
        {
          "time": 556.275301,
          "name": "G1",
          "midi": 31,
          "duration": 0.193548,
          "velocity": 0.88189
        },
        {
          "time": 556.650674,
          "name": "G2",
          "midi": 43,
          "duration": 0.181269,
          "velocity": 0.96063
        },
        {
          "time": 556.653695,
          "name": "G2",
          "midi": 43,
          "duration": 0.181269,
          "velocity": 0.590551
        },
        {
          "time": 556.656716,
          "name": "G2",
          "midi": 43,
          "duration": 0.181269,
          "velocity": 1
        },
        {
          "time": 556.659737,
          "name": "C#2",
          "midi": 37,
          "duration": 0.365199,
          "velocity": 0.669291
        },
        {
          "time": 556.659737,
          "name": "C2",
          "midi": 36,
          "duration": 0.365199,
          "velocity": 0.669291
        },
        {
          "time": 556.659737,
          "name": "G1",
          "midi": 31,
          "duration": 0.181269,
          "velocity": 0.88189
        },
        {
          "time": 557.015258,
          "name": "G2",
          "midi": 43,
          "duration": 0.193549,
          "velocity": 0.96063
        },
        {
          "time": 557.018484,
          "name": "G2",
          "midi": 43,
          "duration": 0.193549,
          "velocity": 0.590551
        },
        {
          "time": 557.02171,
          "name": "G2",
          "midi": 43,
          "duration": 0.193549,
          "velocity": 1
        },
        {
          "time": 557.024936,
          "name": "C#2",
          "midi": 37,
          "duration": 0.384436,
          "velocity": 0.669291
        },
        {
          "time": 557.024936,
          "name": "C2",
          "midi": 36,
          "duration": 0.384436,
          "velocity": 0.669291
        },
        {
          "time": 557.024936,
          "name": "G1",
          "midi": 31,
          "duration": 0.193548,
          "velocity": 0.88189
        },
        {
          "time": 557.400309,
          "name": "G2",
          "midi": 43,
          "duration": 0.181269,
          "velocity": 0.96063
        },
        {
          "time": 557.40333,
          "name": "G2",
          "midi": 43,
          "duration": 0.181269,
          "velocity": 0.590551
        },
        {
          "time": 557.406351,
          "name": "G2",
          "midi": 43,
          "duration": 0.181269,
          "velocity": 1
        },
        {
          "time": 557.409372,
          "name": "C#2",
          "midi": 37,
          "duration": 0.365199,
          "velocity": 0.669291
        },
        {
          "time": 557.409372,
          "name": "C2",
          "midi": 36,
          "duration": 0.365199,
          "velocity": 0.669291
        },
        {
          "time": 557.409372,
          "name": "G1",
          "midi": 31,
          "duration": 0.181269,
          "velocity": 0.88189
        },
        {
          "time": 557.764893,
          "name": "G2",
          "midi": 43,
          "duration": 0.193549,
          "velocity": 0.96063
        },
        {
          "time": 557.768119,
          "name": "G2",
          "midi": 43,
          "duration": 0.193549,
          "velocity": 0.590551
        },
        {
          "time": 557.771345,
          "name": "G2",
          "midi": 43,
          "duration": 0.193549,
          "velocity": 1
        },
        {
          "time": 557.774571,
          "name": "C#2",
          "midi": 37,
          "duration": 0.384436,
          "velocity": 0.669291
        },
        {
          "time": 557.774571,
          "name": "C2",
          "midi": 36,
          "duration": 0.384436,
          "velocity": 0.669291
        },
        {
          "time": 557.774571,
          "name": "G1",
          "midi": 31,
          "duration": 0.193548,
          "velocity": 0.88189
        },
        {
          "time": 558.149944,
          "name": "G2",
          "midi": 43,
          "duration": 0.181269,
          "velocity": 0.96063
        },
        {
          "time": 558.152965,
          "name": "G2",
          "midi": 43,
          "duration": 0.181269,
          "velocity": 0.590551
        },
        {
          "time": 558.155986,
          "name": "G2",
          "midi": 43,
          "duration": 0.181269,
          "velocity": 1
        },
        {
          "time": 558.159007,
          "name": "C#2",
          "midi": 37,
          "duration": 0.365199,
          "velocity": 0.669291
        },
        {
          "time": 558.159007,
          "name": "C2",
          "midi": 36,
          "duration": 0.365199,
          "velocity": 0.669291
        },
        {
          "time": 558.159007,
          "name": "G1",
          "midi": 31,
          "duration": 0.181269,
          "velocity": 0.88189
        },
        {
          "time": 558.514528,
          "name": "G2",
          "midi": 43,
          "duration": 0.193549,
          "velocity": 0.96063
        },
        {
          "time": 558.517754,
          "name": "G2",
          "midi": 43,
          "duration": 0.193549,
          "velocity": 0.590551
        },
        {
          "time": 558.52098,
          "name": "G2",
          "midi": 43,
          "duration": 0.193549,
          "velocity": 1
        },
        {
          "time": 558.524206,
          "name": "C#2",
          "midi": 37,
          "duration": 0.384436,
          "velocity": 0.669291
        },
        {
          "time": 558.524206,
          "name": "C2",
          "midi": 36,
          "duration": 0.384436,
          "velocity": 0.669291
        },
        {
          "time": 558.524206,
          "name": "G1",
          "midi": 31,
          "duration": 0.193548,
          "velocity": 0.88189
        },
        {
          "time": 558.899579,
          "name": "G2",
          "midi": 43,
          "duration": 0.181269,
          "velocity": 0.96063
        },
        {
          "time": 558.9026,
          "name": "G2",
          "midi": 43,
          "duration": 0.181269,
          "velocity": 0.590551
        },
        {
          "time": 558.905621,
          "name": "G2",
          "midi": 43,
          "duration": 0.181269,
          "velocity": 1
        },
        {
          "time": 558.908642,
          "name": "C#2",
          "midi": 37,
          "duration": 0.365199,
          "velocity": 0.669291
        },
        {
          "time": 558.908642,
          "name": "C2",
          "midi": 36,
          "duration": 0.365199,
          "velocity": 0.669291
        },
        {
          "time": 558.908642,
          "name": "G1",
          "midi": 31,
          "duration": 0.181269,
          "velocity": 0.88189
        },
        {
          "time": 559.264163,
          "name": "G2",
          "midi": 43,
          "duration": 0.193549,
          "velocity": 0.96063
        },
        {
          "time": 559.267389,
          "name": "G2",
          "midi": 43,
          "duration": 0.193549,
          "velocity": 0.590551
        },
        {
          "time": 559.270615,
          "name": "G2",
          "midi": 43,
          "duration": 0.193549,
          "velocity": 1
        },
        {
          "time": 559.273841,
          "name": "C#2",
          "midi": 37,
          "duration": 0.384436,
          "velocity": 0.669291
        },
        {
          "time": 559.273841,
          "name": "C2",
          "midi": 36,
          "duration": 0.384436,
          "velocity": 0.669291
        },
        {
          "time": 559.273841,
          "name": "G1",
          "midi": 31,
          "duration": 0.193548,
          "velocity": 0.88189
        },
        {
          "time": 559.649214,
          "name": "G2",
          "midi": 43,
          "duration": 0.181269,
          "velocity": 0.96063
        },
        {
          "time": 559.652235,
          "name": "G2",
          "midi": 43,
          "duration": 0.181269,
          "velocity": 0.590551
        },
        {
          "time": 559.655256,
          "name": "G2",
          "midi": 43,
          "duration": 0.181269,
          "velocity": 1
        },
        {
          "time": 559.658277,
          "name": "C#2",
          "midi": 37,
          "duration": 0.365199,
          "velocity": 0.669291
        },
        {
          "time": 559.658277,
          "name": "C2",
          "midi": 36,
          "duration": 0.365199,
          "velocity": 0.669291
        },
        {
          "time": 559.658277,
          "name": "G1",
          "midi": 31,
          "duration": 0.181269,
          "velocity": 0.88189
        },
        {
          "time": 560.013798,
          "name": "G2",
          "midi": 43,
          "duration": 0.193549,
          "velocity": 0.96063
        },
        {
          "time": 560.017024,
          "name": "G2",
          "midi": 43,
          "duration": 0.193549,
          "velocity": 0.590551
        },
        {
          "time": 560.02025,
          "name": "G2",
          "midi": 43,
          "duration": 0.193549,
          "velocity": 1
        },
        {
          "time": 560.023476,
          "name": "C#2",
          "midi": 37,
          "duration": 0.384436,
          "velocity": 0.669291
        },
        {
          "time": 560.023476,
          "name": "C2",
          "midi": 36,
          "duration": 0.384436,
          "velocity": 0.669291
        },
        {
          "time": 560.023476,
          "name": "G1",
          "midi": 31,
          "duration": 0.193548,
          "velocity": 0.88189
        },
        {
          "time": 560.398849,
          "name": "G2",
          "midi": 43,
          "duration": 0.181269,
          "velocity": 0.96063
        },
        {
          "time": 560.40187,
          "name": "G2",
          "midi": 43,
          "duration": 0.181269,
          "velocity": 0.590551
        },
        {
          "time": 560.404891,
          "name": "G2",
          "midi": 43,
          "duration": 0.181269,
          "velocity": 1
        },
        {
          "time": 560.407912,
          "name": "C#2",
          "midi": 37,
          "duration": 0.365199,
          "velocity": 0.669291
        },
        {
          "time": 560.407912,
          "name": "C2",
          "midi": 36,
          "duration": 0.365199,
          "velocity": 0.669291
        },
        {
          "time": 560.407912,
          "name": "G1",
          "midi": 31,
          "duration": 0.181269,
          "velocity": 0.88189
        },
        {
          "time": 560.763433,
          "name": "G2",
          "midi": 43,
          "duration": 0.193549,
          "velocity": 0.96063
        },
        {
          "time": 560.766659,
          "name": "G2",
          "midi": 43,
          "duration": 0.193549,
          "velocity": 0.590551
        },
        {
          "time": 560.769885,
          "name": "G2",
          "midi": 43,
          "duration": 0.193549,
          "velocity": 1
        },
        {
          "time": 560.773111,
          "name": "C#2",
          "midi": 37,
          "duration": 0.384436,
          "velocity": 0.669291
        },
        {
          "time": 560.773111,
          "name": "C2",
          "midi": 36,
          "duration": 0.384436,
          "velocity": 0.669291
        },
        {
          "time": 560.773111,
          "name": "G1",
          "midi": 31,
          "duration": 0.193548,
          "velocity": 0.88189
        },
        {
          "time": 561.148484,
          "name": "G2",
          "midi": 43,
          "duration": 0.181269,
          "velocity": 0.96063
        },
        {
          "time": 561.151505,
          "name": "G2",
          "midi": 43,
          "duration": 0.181269,
          "velocity": 0.590551
        },
        {
          "time": 561.154526,
          "name": "G2",
          "midi": 43,
          "duration": 0.181269,
          "velocity": 1
        },
        {
          "time": 561.157547,
          "name": "C#2",
          "midi": 37,
          "duration": 0.365199,
          "velocity": 0.669291
        },
        {
          "time": 561.157547,
          "name": "C2",
          "midi": 36,
          "duration": 0.365199,
          "velocity": 0.669291
        },
        {
          "time": 561.157547,
          "name": "G1",
          "midi": 31,
          "duration": 0.181269,
          "velocity": 0.88189
        },
        {
          "time": 561.513068,
          "name": "G2",
          "midi": 43,
          "duration": 0.193549,
          "velocity": 0.96063
        },
        {
          "time": 561.516294,
          "name": "G2",
          "midi": 43,
          "duration": 0.193549,
          "velocity": 0.590551
        },
        {
          "time": 561.51952,
          "name": "G2",
          "midi": 43,
          "duration": 0.193549,
          "velocity": 1
        },
        {
          "time": 561.522746,
          "name": "C#2",
          "midi": 37,
          "duration": 0.384436,
          "velocity": 0.669291
        },
        {
          "time": 561.522746,
          "name": "C2",
          "midi": 36,
          "duration": 0.384436,
          "velocity": 0.669291
        },
        {
          "time": 561.522746,
          "name": "G1",
          "midi": 31,
          "duration": 0.193548,
          "velocity": 0.88189
        },
        {
          "time": 561.898119,
          "name": "G2",
          "midi": 43,
          "duration": 0.181269,
          "velocity": 0.96063
        },
        {
          "time": 561.90114,
          "name": "G2",
          "midi": 43,
          "duration": 0.181269,
          "velocity": 0.590551
        },
        {
          "time": 561.904161,
          "name": "G2",
          "midi": 43,
          "duration": 0.181269,
          "velocity": 1
        },
        {
          "time": 561.907182,
          "name": "C#2",
          "midi": 37,
          "duration": 0.365199,
          "velocity": 0.669291
        },
        {
          "time": 561.907182,
          "name": "C2",
          "midi": 36,
          "duration": 0.365199,
          "velocity": 0.669291
        },
        {
          "time": 561.907182,
          "name": "G1",
          "midi": 31,
          "duration": 0.181269,
          "velocity": 0.88189
        },
        {
          "time": 562.262703,
          "name": "G2",
          "midi": 43,
          "duration": 0.193549,
          "velocity": 0.96063
        },
        {
          "time": 562.265929,
          "name": "G2",
          "midi": 43,
          "duration": 0.193549,
          "velocity": 0.590551
        },
        {
          "time": 562.269155,
          "name": "G2",
          "midi": 43,
          "duration": 0.193549,
          "velocity": 1
        },
        {
          "time": 562.272381,
          "name": "C#2",
          "midi": 37,
          "duration": 0.384436,
          "velocity": 0.669291
        },
        {
          "time": 562.272381,
          "name": "C2",
          "midi": 36,
          "duration": 0.384436,
          "velocity": 0.669291
        },
        {
          "time": 562.272381,
          "name": "G1",
          "midi": 31,
          "duration": 0.193548,
          "velocity": 0.88189
        },
        {
          "time": 562.647754,
          "name": "G2",
          "midi": 43,
          "duration": 0.181269,
          "velocity": 0.96063
        },
        {
          "time": 562.650775,
          "name": "G2",
          "midi": 43,
          "duration": 0.181269,
          "velocity": 0.590551
        },
        {
          "time": 562.653796,
          "name": "G2",
          "midi": 43,
          "duration": 0.181269,
          "velocity": 1
        },
        {
          "time": 562.656817,
          "name": "C#2",
          "midi": 37,
          "duration": 0.365199,
          "velocity": 0.669291
        },
        {
          "time": 562.656817,
          "name": "C2",
          "midi": 36,
          "duration": 0.365199,
          "velocity": 0.669291
        },
        {
          "time": 562.656817,
          "name": "G1",
          "midi": 31,
          "duration": 0.181269,
          "velocity": 0.88189
        },
        {
          "time": 563.012338,
          "name": "G2",
          "midi": 43,
          "duration": 0.193549,
          "velocity": 0.96063
        },
        {
          "time": 563.015564,
          "name": "G2",
          "midi": 43,
          "duration": 0.193549,
          "velocity": 0.590551
        },
        {
          "time": 563.01879,
          "name": "G2",
          "midi": 43,
          "duration": 0.193549,
          "velocity": 1
        },
        {
          "time": 563.022016,
          "name": "C#2",
          "midi": 37,
          "duration": 0.384436,
          "velocity": 0.669291
        },
        {
          "time": 563.022016,
          "name": "C2",
          "midi": 36,
          "duration": 0.384436,
          "velocity": 0.669291
        },
        {
          "time": 563.022016,
          "name": "G1",
          "midi": 31,
          "duration": 0.193548,
          "velocity": 0.88189
        },
        {
          "time": 563.397389,
          "name": "G2",
          "midi": 43,
          "duration": 0.181269,
          "velocity": 0.96063
        },
        {
          "time": 563.40041,
          "name": "G2",
          "midi": 43,
          "duration": 0.181269,
          "velocity": 0.590551
        },
        {
          "time": 563.403431,
          "name": "G2",
          "midi": 43,
          "duration": 0.181269,
          "velocity": 1
        },
        {
          "time": 563.406452,
          "name": "C#2",
          "midi": 37,
          "duration": 0.365199,
          "velocity": 0.669291
        },
        {
          "time": 563.406452,
          "name": "C2",
          "midi": 36,
          "duration": 0.365199,
          "velocity": 0.669291
        },
        {
          "time": 563.406452,
          "name": "G1",
          "midi": 31,
          "duration": 0.181269,
          "velocity": 0.88189
        },
        {
          "time": 563.761973,
          "name": "G2",
          "midi": 43,
          "duration": 0.193549,
          "velocity": 0.96063
        },
        {
          "time": 563.765199,
          "name": "G2",
          "midi": 43,
          "duration": 0.193549,
          "velocity": 0.590551
        },
        {
          "time": 563.768425,
          "name": "G2",
          "midi": 43,
          "duration": 0.193549,
          "velocity": 1
        },
        {
          "time": 563.771651,
          "name": "C#2",
          "midi": 37,
          "duration": 0.384436,
          "velocity": 0.669291
        },
        {
          "time": 563.771651,
          "name": "C2",
          "midi": 36,
          "duration": 0.384436,
          "velocity": 0.669291
        },
        {
          "time": 563.771651,
          "name": "G1",
          "midi": 31,
          "duration": 0.193548,
          "velocity": 0.88189
        },
        {
          "time": 564.147024,
          "name": "G2",
          "midi": 43,
          "duration": 0.181269,
          "velocity": 0.96063
        },
        {
          "time": 564.150045,
          "name": "G2",
          "midi": 43,
          "duration": 0.181269,
          "velocity": 0.590551
        },
        {
          "time": 564.153066,
          "name": "G2",
          "midi": 43,
          "duration": 0.181269,
          "velocity": 1
        },
        {
          "time": 564.156087,
          "name": "C#2",
          "midi": 37,
          "duration": 0.365199,
          "velocity": 0.669291
        },
        {
          "time": 564.156087,
          "name": "C2",
          "midi": 36,
          "duration": 0.365199,
          "velocity": 0.669291
        },
        {
          "time": 564.156087,
          "name": "G1",
          "midi": 31,
          "duration": 0.181269,
          "velocity": 0.88189
        },
        {
          "time": 564.511608,
          "name": "A2",
          "midi": 45,
          "duration": 0.193549,
          "velocity": 0.96063
        },
        {
          "time": 564.514834,
          "name": "G2",
          "midi": 43,
          "duration": 0.193549,
          "velocity": 0.590551
        },
        {
          "time": 564.51806,
          "name": "A2",
          "midi": 45,
          "duration": 0.193549,
          "velocity": 1
        },
        {
          "time": 564.521286,
          "name": "C#2",
          "midi": 37,
          "duration": 0.384436,
          "velocity": 0.669291
        },
        {
          "time": 564.521286,
          "name": "C2",
          "midi": 36,
          "duration": 0.384436,
          "velocity": 0.669291
        },
        {
          "time": 564.521286,
          "name": "A1",
          "midi": 33,
          "duration": 0.193548,
          "velocity": 0.88189
        },
        {
          "time": 564.896659,
          "name": "A2",
          "midi": 45,
          "duration": 0.181269,
          "velocity": 0.96063
        },
        {
          "time": 564.89968,
          "name": "G2",
          "midi": 43,
          "duration": 0.181269,
          "velocity": 0.590551
        },
        {
          "time": 564.902701,
          "name": "A2",
          "midi": 45,
          "duration": 0.181269,
          "velocity": 1
        },
        {
          "time": 564.905722,
          "name": "C#2",
          "midi": 37,
          "duration": 0.365199,
          "velocity": 0.669291
        },
        {
          "time": 564.905722,
          "name": "C2",
          "midi": 36,
          "duration": 0.365199,
          "velocity": 0.669291
        },
        {
          "time": 564.905722,
          "name": "A1",
          "midi": 33,
          "duration": 0.181269,
          "velocity": 0.88189
        },
        {
          "time": 565.261243,
          "name": "A2",
          "midi": 45,
          "duration": 0.193549,
          "velocity": 0.96063
        },
        {
          "time": 565.264469,
          "name": "G2",
          "midi": 43,
          "duration": 0.193549,
          "velocity": 0.590551
        },
        {
          "time": 565.267695,
          "name": "A2",
          "midi": 45,
          "duration": 0.193549,
          "velocity": 1
        },
        {
          "time": 565.270921,
          "name": "C#2",
          "midi": 37,
          "duration": 0.384436,
          "velocity": 0.669291
        },
        {
          "time": 565.270921,
          "name": "C2",
          "midi": 36,
          "duration": 0.384436,
          "velocity": 0.669291
        },
        {
          "time": 565.270921,
          "name": "A1",
          "midi": 33,
          "duration": 0.193548,
          "velocity": 0.88189
        },
        {
          "time": 565.646294,
          "name": "A2",
          "midi": 45,
          "duration": 0.181269,
          "velocity": 0.96063
        },
        {
          "time": 565.649315,
          "name": "G2",
          "midi": 43,
          "duration": 0.181269,
          "velocity": 0.590551
        },
        {
          "time": 565.652336,
          "name": "A2",
          "midi": 45,
          "duration": 0.181269,
          "velocity": 1
        },
        {
          "time": 565.655357,
          "name": "C#2",
          "midi": 37,
          "duration": 0.365199,
          "velocity": 0.669291
        },
        {
          "time": 565.655357,
          "name": "C2",
          "midi": 36,
          "duration": 0.365199,
          "velocity": 0.669291
        },
        {
          "time": 565.655357,
          "name": "A1",
          "midi": 33,
          "duration": 0.181269,
          "velocity": 0.88189
        },
        {
          "time": 566.010878,
          "name": "D3",
          "midi": 50,
          "duration": 0.193549,
          "velocity": 0.96063
        },
        {
          "time": 566.014104,
          "name": "D3",
          "midi": 50,
          "duration": 0.193549,
          "velocity": 0.590551
        },
        {
          "time": 566.01733,
          "name": "D2",
          "midi": 38,
          "duration": 0.193549,
          "velocity": 1
        },
        {
          "time": 566.020556,
          "name": "C#2",
          "midi": 37,
          "duration": 0.384436,
          "velocity": 0.669291
        },
        {
          "time": 566.020556,
          "name": "C2",
          "midi": 36,
          "duration": 0.384436,
          "velocity": 0.669291
        },
        {
          "time": 566.020556,
          "name": "D2",
          "midi": 38,
          "duration": 0.193548,
          "velocity": 0.88189
        },
        {
          "time": 566.395929,
          "name": "D3",
          "midi": 50,
          "duration": 0.181269,
          "velocity": 0.96063
        },
        {
          "time": 566.39895,
          "name": "D3",
          "midi": 50,
          "duration": 0.181269,
          "velocity": 0.590551
        },
        {
          "time": 566.401971,
          "name": "D2",
          "midi": 38,
          "duration": 0.181269,
          "velocity": 1
        },
        {
          "time": 566.404992,
          "name": "C#2",
          "midi": 37,
          "duration": 0.365199,
          "velocity": 0.669291
        },
        {
          "time": 566.404992,
          "name": "C2",
          "midi": 36,
          "duration": 0.365199,
          "velocity": 0.669291
        },
        {
          "time": 566.404992,
          "name": "D2",
          "midi": 38,
          "duration": 0.181269,
          "velocity": 0.88189
        },
        {
          "time": 566.760513,
          "name": "D3",
          "midi": 50,
          "duration": 0.193549,
          "velocity": 0.96063
        },
        {
          "time": 566.763739,
          "name": "D3",
          "midi": 50,
          "duration": 0.193549,
          "velocity": 0.590551
        },
        {
          "time": 566.766965,
          "name": "D2",
          "midi": 38,
          "duration": 0.193549,
          "velocity": 1
        },
        {
          "time": 566.770191,
          "name": "C#2",
          "midi": 37,
          "duration": 0.193548,
          "velocity": 0.669291
        },
        {
          "time": 566.770191,
          "name": "C2",
          "midi": 36,
          "duration": 0.193548,
          "velocity": 0.669291
        },
        {
          "time": 566.770191,
          "name": "D2",
          "midi": 38,
          "duration": 0.193548,
          "velocity": 0.88189
        },
        {
          "time": 567.510148,
          "name": "G2",
          "midi": 43,
          "duration": 0.193549,
          "velocity": 0.96063
        },
        {
          "time": 567.513374,
          "name": "G2",
          "midi": 43,
          "duration": 0.193549,
          "velocity": 0.590551
        },
        {
          "time": 567.5166,
          "name": "G2",
          "midi": 43,
          "duration": 0.193549,
          "velocity": 1
        },
        {
          "time": 567.519826,
          "name": "C#2",
          "midi": 37,
          "duration": 0.384436,
          "velocity": 0.669291
        },
        {
          "time": 567.519826,
          "name": "C2",
          "midi": 36,
          "duration": 0.384436,
          "velocity": 0.669291
        },
        {
          "time": 567.519826,
          "name": "G1",
          "midi": 31,
          "duration": 0.193548,
          "velocity": 0.88189
        },
        {
          "time": 567.895199,
          "name": "G2",
          "midi": 43,
          "duration": 0.181269,
          "velocity": 0.96063
        },
        {
          "time": 567.89822,
          "name": "G2",
          "midi": 43,
          "duration": 0.181269,
          "velocity": 0.590551
        },
        {
          "time": 567.901241,
          "name": "G2",
          "midi": 43,
          "duration": 0.181269,
          "velocity": 1
        },
        {
          "time": 567.904262,
          "name": "C#2",
          "midi": 37,
          "duration": 0.365199,
          "velocity": 0.669291
        },
        {
          "time": 567.904262,
          "name": "C2",
          "midi": 36,
          "duration": 0.365199,
          "velocity": 0.669291
        },
        {
          "time": 567.904262,
          "name": "G1",
          "midi": 31,
          "duration": 0.181269,
          "velocity": 0.88189
        },
        {
          "time": 568.259783,
          "name": "G2",
          "midi": 43,
          "duration": 0.193549,
          "velocity": 0.96063
        },
        {
          "time": 568.263009,
          "name": "G2",
          "midi": 43,
          "duration": 0.193549,
          "velocity": 0.590551
        },
        {
          "time": 568.266235,
          "name": "G2",
          "midi": 43,
          "duration": 0.193549,
          "velocity": 1
        },
        {
          "time": 568.269461,
          "name": "C#2",
          "midi": 37,
          "duration": 0.384436,
          "velocity": 0.669291
        },
        {
          "time": 568.269461,
          "name": "C2",
          "midi": 36,
          "duration": 0.384436,
          "velocity": 0.669291
        },
        {
          "time": 568.269461,
          "name": "G1",
          "midi": 31,
          "duration": 0.193548,
          "velocity": 0.88189
        },
        {
          "time": 568.644834,
          "name": "G2",
          "midi": 43,
          "duration": 0.181269,
          "velocity": 0.96063
        },
        {
          "time": 568.647855,
          "name": "G2",
          "midi": 43,
          "duration": 0.181269,
          "velocity": 0.590551
        },
        {
          "time": 568.650876,
          "name": "G2",
          "midi": 43,
          "duration": 0.181269,
          "velocity": 1
        },
        {
          "time": 568.653897,
          "name": "C#2",
          "midi": 37,
          "duration": 0.365199,
          "velocity": 0.669291
        },
        {
          "time": 568.653897,
          "name": "C2",
          "midi": 36,
          "duration": 0.365199,
          "velocity": 0.669291
        },
        {
          "time": 568.653897,
          "name": "G1",
          "midi": 31,
          "duration": 0.181269,
          "velocity": 0.88189
        },
        {
          "time": 569.009418,
          "name": "G2",
          "midi": 43,
          "duration": 0.193549,
          "velocity": 0.96063
        },
        {
          "time": 569.012644,
          "name": "G2",
          "midi": 43,
          "duration": 0.193549,
          "velocity": 0.590551
        },
        {
          "time": 569.01587,
          "name": "G2",
          "midi": 43,
          "duration": 0.193549,
          "velocity": 1
        },
        {
          "time": 569.019096,
          "name": "C#2",
          "midi": 37,
          "duration": 0.384436,
          "velocity": 0.669291
        },
        {
          "time": 569.019096,
          "name": "C2",
          "midi": 36,
          "duration": 0.384436,
          "velocity": 0.669291
        },
        {
          "time": 569.019096,
          "name": "G1",
          "midi": 31,
          "duration": 0.193548,
          "velocity": 0.88189
        },
        {
          "time": 569.394469,
          "name": "G2",
          "midi": 43,
          "duration": 0.181269,
          "velocity": 0.96063
        },
        {
          "time": 569.39749,
          "name": "G2",
          "midi": 43,
          "duration": 0.181269,
          "velocity": 0.590551
        },
        {
          "time": 569.400511,
          "name": "G2",
          "midi": 43,
          "duration": 0.181269,
          "velocity": 1
        },
        {
          "time": 569.403532,
          "name": "C#2",
          "midi": 37,
          "duration": 0.365199,
          "velocity": 0.669291
        },
        {
          "time": 569.403532,
          "name": "C2",
          "midi": 36,
          "duration": 0.365199,
          "velocity": 0.669291
        },
        {
          "time": 569.403532,
          "name": "G1",
          "midi": 31,
          "duration": 0.181269,
          "velocity": 0.88189
        },
        {
          "time": 569.759053,
          "name": "G2",
          "midi": 43,
          "duration": 0.193549,
          "velocity": 0.96063
        },
        {
          "time": 569.762279,
          "name": "G2",
          "midi": 43,
          "duration": 0.193549,
          "velocity": 0.590551
        },
        {
          "time": 569.765505,
          "name": "G2",
          "midi": 43,
          "duration": 0.193549,
          "velocity": 1
        },
        {
          "time": 569.768731,
          "name": "C#2",
          "midi": 37,
          "duration": 0.384436,
          "velocity": 0.669291
        },
        {
          "time": 569.768731,
          "name": "C2",
          "midi": 36,
          "duration": 0.384436,
          "velocity": 0.669291
        },
        {
          "time": 569.768731,
          "name": "G1",
          "midi": 31,
          "duration": 0.193548,
          "velocity": 0.88189
        },
        {
          "time": 570.144104,
          "name": "G2",
          "midi": 43,
          "duration": 0.181269,
          "velocity": 0.96063
        },
        {
          "time": 570.147125,
          "name": "G2",
          "midi": 43,
          "duration": 0.181269,
          "velocity": 0.590551
        },
        {
          "time": 570.150146,
          "name": "G2",
          "midi": 43,
          "duration": 0.181269,
          "velocity": 1
        },
        {
          "time": 570.153167,
          "name": "C#2",
          "midi": 37,
          "duration": 0.365199,
          "velocity": 0.669291
        },
        {
          "time": 570.153167,
          "name": "C2",
          "midi": 36,
          "duration": 0.365199,
          "velocity": 0.669291
        },
        {
          "time": 570.153167,
          "name": "G1",
          "midi": 31,
          "duration": 0.181269,
          "velocity": 0.88189
        },
        {
          "time": 570.508688,
          "name": "G2",
          "midi": 43,
          "duration": 0.193549,
          "velocity": 0.96063
        },
        {
          "time": 570.511914,
          "name": "G2",
          "midi": 43,
          "duration": 0.193549,
          "velocity": 0.590551
        },
        {
          "time": 570.51514,
          "name": "G2",
          "midi": 43,
          "duration": 0.193549,
          "velocity": 1
        },
        {
          "time": 570.518366,
          "name": "C#2",
          "midi": 37,
          "duration": 0.384436,
          "velocity": 0.669291
        },
        {
          "time": 570.518366,
          "name": "C2",
          "midi": 36,
          "duration": 0.384436,
          "velocity": 0.669291
        },
        {
          "time": 570.518366,
          "name": "G1",
          "midi": 31,
          "duration": 0.193548,
          "velocity": 0.88189
        },
        {
          "time": 570.893739,
          "name": "G2",
          "midi": 43,
          "duration": 0.181269,
          "velocity": 0.96063
        },
        {
          "time": 570.89676,
          "name": "G2",
          "midi": 43,
          "duration": 0.181269,
          "velocity": 0.590551
        },
        {
          "time": 570.899781,
          "name": "G2",
          "midi": 43,
          "duration": 0.181269,
          "velocity": 1
        },
        {
          "time": 570.902802,
          "name": "C#2",
          "midi": 37,
          "duration": 0.365199,
          "velocity": 0.669291
        },
        {
          "time": 570.902802,
          "name": "C2",
          "midi": 36,
          "duration": 0.365199,
          "velocity": 0.669291
        },
        {
          "time": 570.902802,
          "name": "G1",
          "midi": 31,
          "duration": 0.181269,
          "velocity": 0.88189
        },
        {
          "time": 571.258323,
          "name": "G2",
          "midi": 43,
          "duration": 0.193549,
          "velocity": 0.96063
        },
        {
          "time": 571.261549,
          "name": "G2",
          "midi": 43,
          "duration": 0.193549,
          "velocity": 0.590551
        },
        {
          "time": 571.264775,
          "name": "G2",
          "midi": 43,
          "duration": 0.193549,
          "velocity": 1
        },
        {
          "time": 571.268001,
          "name": "C#2",
          "midi": 37,
          "duration": 0.384436,
          "velocity": 0.669291
        },
        {
          "time": 571.268001,
          "name": "C2",
          "midi": 36,
          "duration": 0.384436,
          "velocity": 0.669291
        },
        {
          "time": 571.268001,
          "name": "G1",
          "midi": 31,
          "duration": 0.193548,
          "velocity": 0.88189
        },
        {
          "time": 571.643374,
          "name": "G2",
          "midi": 43,
          "duration": 0.181269,
          "velocity": 0.96063
        },
        {
          "time": 571.646395,
          "name": "G2",
          "midi": 43,
          "duration": 0.181269,
          "velocity": 0.590551
        },
        {
          "time": 571.649416,
          "name": "G2",
          "midi": 43,
          "duration": 0.181269,
          "velocity": 1
        },
        {
          "time": 571.652437,
          "name": "C#2",
          "midi": 37,
          "duration": 0.365199,
          "velocity": 0.669291
        },
        {
          "time": 571.652437,
          "name": "C2",
          "midi": 36,
          "duration": 0.365199,
          "velocity": 0.669291
        },
        {
          "time": 571.652437,
          "name": "G1",
          "midi": 31,
          "duration": 0.181269,
          "velocity": 0.88189
        },
        {
          "time": 572.007958,
          "name": "G2",
          "midi": 43,
          "duration": 0.193549,
          "velocity": 0.96063
        },
        {
          "time": 572.011184,
          "name": "G2",
          "midi": 43,
          "duration": 0.193549,
          "velocity": 0.590551
        },
        {
          "time": 572.01441,
          "name": "G2",
          "midi": 43,
          "duration": 0.193549,
          "velocity": 1
        },
        {
          "time": 572.017636,
          "name": "C#2",
          "midi": 37,
          "duration": 0.384436,
          "velocity": 0.669291
        },
        {
          "time": 572.017636,
          "name": "C2",
          "midi": 36,
          "duration": 0.384436,
          "velocity": 0.669291
        },
        {
          "time": 572.017636,
          "name": "G1",
          "midi": 31,
          "duration": 0.193548,
          "velocity": 0.88189
        },
        {
          "time": 572.393009,
          "name": "G2",
          "midi": 43,
          "duration": 0.181269,
          "velocity": 0.96063
        },
        {
          "time": 572.39603,
          "name": "G2",
          "midi": 43,
          "duration": 0.181269,
          "velocity": 0.590551
        },
        {
          "time": 572.399051,
          "name": "G2",
          "midi": 43,
          "duration": 0.181269,
          "velocity": 1
        },
        {
          "time": 572.402072,
          "name": "C#2",
          "midi": 37,
          "duration": 0.365199,
          "velocity": 0.669291
        },
        {
          "time": 572.402072,
          "name": "C2",
          "midi": 36,
          "duration": 0.365199,
          "velocity": 0.669291
        },
        {
          "time": 572.402072,
          "name": "G1",
          "midi": 31,
          "duration": 0.181269,
          "velocity": 0.88189
        },
        {
          "time": 572.757593,
          "name": "G2",
          "midi": 43,
          "duration": 0.193549,
          "velocity": 0.96063
        },
        {
          "time": 572.760819,
          "name": "G2",
          "midi": 43,
          "duration": 0.193549,
          "velocity": 0.590551
        },
        {
          "time": 572.764045,
          "name": "G2",
          "midi": 43,
          "duration": 0.193549,
          "velocity": 1
        },
        {
          "time": 572.767271,
          "name": "C#2",
          "midi": 37,
          "duration": 0.384436,
          "velocity": 0.669291
        },
        {
          "time": 572.767271,
          "name": "C2",
          "midi": 36,
          "duration": 0.384436,
          "velocity": 0.669291
        },
        {
          "time": 572.767271,
          "name": "G1",
          "midi": 31,
          "duration": 0.193548,
          "velocity": 0.88189
        },
        {
          "time": 573.142644,
          "name": "G2",
          "midi": 43,
          "duration": 0.181269,
          "velocity": 0.96063
        },
        {
          "time": 573.145665,
          "name": "G2",
          "midi": 43,
          "duration": 0.181269,
          "velocity": 0.590551
        },
        {
          "time": 573.148686,
          "name": "G2",
          "midi": 43,
          "duration": 0.181269,
          "velocity": 1
        },
        {
          "time": 573.151707,
          "name": "C#2",
          "midi": 37,
          "duration": 0.365199,
          "velocity": 0.669291
        },
        {
          "time": 573.151707,
          "name": "C2",
          "midi": 36,
          "duration": 0.365199,
          "velocity": 0.669291
        },
        {
          "time": 573.151707,
          "name": "G1",
          "midi": 31,
          "duration": 0.181269,
          "velocity": 0.88189
        },
        {
          "time": 573.507228,
          "name": "G2",
          "midi": 43,
          "duration": 0.193549,
          "velocity": 0.96063
        },
        {
          "time": 573.510454,
          "name": "G2",
          "midi": 43,
          "duration": 0.193549,
          "velocity": 0.590551
        },
        {
          "time": 573.51368,
          "name": "G2",
          "midi": 43,
          "duration": 0.193549,
          "velocity": 1
        },
        {
          "time": 573.516906,
          "name": "C#2",
          "midi": 37,
          "duration": 0.384436,
          "velocity": 0.669291
        },
        {
          "time": 573.516906,
          "name": "C2",
          "midi": 36,
          "duration": 0.384436,
          "velocity": 0.669291
        },
        {
          "time": 573.516906,
          "name": "G1",
          "midi": 31,
          "duration": 0.193548,
          "velocity": 0.88189
        },
        {
          "time": 573.892279,
          "name": "G2",
          "midi": 43,
          "duration": 0.181269,
          "velocity": 0.96063
        },
        {
          "time": 573.8953,
          "name": "G2",
          "midi": 43,
          "duration": 0.181269,
          "velocity": 0.590551
        },
        {
          "time": 573.898321,
          "name": "G2",
          "midi": 43,
          "duration": 0.181269,
          "velocity": 1
        },
        {
          "time": 573.901342,
          "name": "C#2",
          "midi": 37,
          "duration": 0.365199,
          "velocity": 0.669291
        },
        {
          "time": 573.901342,
          "name": "C2",
          "midi": 36,
          "duration": 0.365199,
          "velocity": 0.669291
        },
        {
          "time": 573.901342,
          "name": "G1",
          "midi": 31,
          "duration": 0.181269,
          "velocity": 0.88189
        },
        {
          "time": 574.256863,
          "name": "G2",
          "midi": 43,
          "duration": 0.193549,
          "velocity": 0.96063
        },
        {
          "time": 574.260089,
          "name": "G2",
          "midi": 43,
          "duration": 0.193549,
          "velocity": 0.590551
        },
        {
          "time": 574.263315,
          "name": "G2",
          "midi": 43,
          "duration": 0.193549,
          "velocity": 1
        },
        {
          "time": 574.266541,
          "name": "C#2",
          "midi": 37,
          "duration": 0.384436,
          "velocity": 0.669291
        },
        {
          "time": 574.266541,
          "name": "C2",
          "midi": 36,
          "duration": 0.384436,
          "velocity": 0.669291
        },
        {
          "time": 574.266541,
          "name": "G1",
          "midi": 31,
          "duration": 0.193548,
          "velocity": 0.88189
        },
        {
          "time": 574.641914,
          "name": "G2",
          "midi": 43,
          "duration": 0.181269,
          "velocity": 0.96063
        },
        {
          "time": 574.644935,
          "name": "G2",
          "midi": 43,
          "duration": 0.181269,
          "velocity": 0.590551
        },
        {
          "time": 574.647956,
          "name": "G2",
          "midi": 43,
          "duration": 0.181269,
          "velocity": 1
        },
        {
          "time": 574.650977,
          "name": "C#2",
          "midi": 37,
          "duration": 0.365199,
          "velocity": 0.669291
        },
        {
          "time": 574.650977,
          "name": "C2",
          "midi": 36,
          "duration": 0.365199,
          "velocity": 0.669291
        },
        {
          "time": 574.650977,
          "name": "G1",
          "midi": 31,
          "duration": 0.181269,
          "velocity": 0.88189
        },
        {
          "time": 575.006498,
          "name": "G2",
          "midi": 43,
          "duration": 0.193549,
          "velocity": 0.96063
        },
        {
          "time": 575.009724,
          "name": "G2",
          "midi": 43,
          "duration": 0.193549,
          "velocity": 0.590551
        },
        {
          "time": 575.01295,
          "name": "G2",
          "midi": 43,
          "duration": 0.193549,
          "velocity": 1
        },
        {
          "time": 575.016176,
          "name": "C#2",
          "midi": 37,
          "duration": 0.384436,
          "velocity": 0.669291
        },
        {
          "time": 575.016176,
          "name": "C2",
          "midi": 36,
          "duration": 0.384436,
          "velocity": 0.669291
        },
        {
          "time": 575.016176,
          "name": "G1",
          "midi": 31,
          "duration": 0.193548,
          "velocity": 0.88189
        },
        {
          "time": 575.391549,
          "name": "G2",
          "midi": 43,
          "duration": 0.181269,
          "velocity": 0.96063
        },
        {
          "time": 575.39457,
          "name": "G2",
          "midi": 43,
          "duration": 0.181269,
          "velocity": 0.590551
        },
        {
          "time": 575.397591,
          "name": "G2",
          "midi": 43,
          "duration": 0.181269,
          "velocity": 1
        },
        {
          "time": 575.400612,
          "name": "C#2",
          "midi": 37,
          "duration": 0.365199,
          "velocity": 0.669291
        },
        {
          "time": 575.400612,
          "name": "C2",
          "midi": 36,
          "duration": 0.365199,
          "velocity": 0.669291
        },
        {
          "time": 575.400612,
          "name": "G1",
          "midi": 31,
          "duration": 0.181269,
          "velocity": 0.88189
        },
        {
          "time": 575.756133,
          "name": "G2",
          "midi": 43,
          "duration": 0.193549,
          "velocity": 0.96063
        },
        {
          "time": 575.759359,
          "name": "G2",
          "midi": 43,
          "duration": 0.193549,
          "velocity": 0.590551
        },
        {
          "time": 575.762585,
          "name": "G2",
          "midi": 43,
          "duration": 0.193549,
          "velocity": 1
        },
        {
          "time": 575.765811,
          "name": "C#2",
          "midi": 37,
          "duration": 0.384436,
          "velocity": 0.669291
        },
        {
          "time": 575.765811,
          "name": "C2",
          "midi": 36,
          "duration": 0.384436,
          "velocity": 0.669291
        },
        {
          "time": 575.765811,
          "name": "G1",
          "midi": 31,
          "duration": 0.193548,
          "velocity": 0.88189
        },
        {
          "time": 576.141184,
          "name": "G2",
          "midi": 43,
          "duration": 0.181269,
          "velocity": 0.96063
        },
        {
          "time": 576.144205,
          "name": "G2",
          "midi": 43,
          "duration": 0.181269,
          "velocity": 0.590551
        },
        {
          "time": 576.147226,
          "name": "G2",
          "midi": 43,
          "duration": 0.181269,
          "velocity": 1
        },
        {
          "time": 576.150247,
          "name": "C#2",
          "midi": 37,
          "duration": 0.365199,
          "velocity": 0.669291
        },
        {
          "time": 576.150247,
          "name": "C2",
          "midi": 36,
          "duration": 0.365199,
          "velocity": 0.669291
        },
        {
          "time": 576.150247,
          "name": "G1",
          "midi": 31,
          "duration": 0.181269,
          "velocity": 0.88189
        },
        {
          "time": 576.505768,
          "name": "A2",
          "midi": 45,
          "duration": 0.193549,
          "velocity": 0.96063
        },
        {
          "time": 576.508994,
          "name": "G2",
          "midi": 43,
          "duration": 0.193549,
          "velocity": 0.590551
        },
        {
          "time": 576.51222,
          "name": "A2",
          "midi": 45,
          "duration": 0.193549,
          "velocity": 1
        },
        {
          "time": 576.515446,
          "name": "C#2",
          "midi": 37,
          "duration": 0.384436,
          "velocity": 0.669291
        },
        {
          "time": 576.515446,
          "name": "C2",
          "midi": 36,
          "duration": 0.384436,
          "velocity": 0.669291
        },
        {
          "time": 576.515446,
          "name": "A1",
          "midi": 33,
          "duration": 0.193548,
          "velocity": 0.88189
        },
        {
          "time": 576.890819,
          "name": "A2",
          "midi": 45,
          "duration": 0.181269,
          "velocity": 0.96063
        },
        {
          "time": 576.89384,
          "name": "G2",
          "midi": 43,
          "duration": 0.181269,
          "velocity": 0.590551
        },
        {
          "time": 576.896861,
          "name": "A2",
          "midi": 45,
          "duration": 0.181269,
          "velocity": 1
        },
        {
          "time": 576.899882,
          "name": "C#2",
          "midi": 37,
          "duration": 0.365199,
          "velocity": 0.669291
        },
        {
          "time": 576.899882,
          "name": "C2",
          "midi": 36,
          "duration": 0.365199,
          "velocity": 0.669291
        },
        {
          "time": 576.899882,
          "name": "A1",
          "midi": 33,
          "duration": 0.181269,
          "velocity": 0.88189
        },
        {
          "time": 577.255403,
          "name": "A2",
          "midi": 45,
          "duration": 0.193549,
          "velocity": 0.96063
        },
        {
          "time": 577.258629,
          "name": "G2",
          "midi": 43,
          "duration": 0.193549,
          "velocity": 0.590551
        },
        {
          "time": 577.261855,
          "name": "A2",
          "midi": 45,
          "duration": 0.193549,
          "velocity": 1
        },
        {
          "time": 577.265081,
          "name": "C#2",
          "midi": 37,
          "duration": 0.384436,
          "velocity": 0.669291
        },
        {
          "time": 577.265081,
          "name": "C2",
          "midi": 36,
          "duration": 0.384436,
          "velocity": 0.669291
        },
        {
          "time": 577.265081,
          "name": "A1",
          "midi": 33,
          "duration": 0.193548,
          "velocity": 0.88189
        },
        {
          "time": 577.640454,
          "name": "A2",
          "midi": 45,
          "duration": 0.181269,
          "velocity": 0.96063
        },
        {
          "time": 577.643475,
          "name": "G2",
          "midi": 43,
          "duration": 0.181269,
          "velocity": 0.590551
        },
        {
          "time": 577.646496,
          "name": "A2",
          "midi": 45,
          "duration": 0.181269,
          "velocity": 1
        },
        {
          "time": 577.649517,
          "name": "C#2",
          "midi": 37,
          "duration": 0.365199,
          "velocity": 0.669291
        },
        {
          "time": 577.649517,
          "name": "C2",
          "midi": 36,
          "duration": 0.365199,
          "velocity": 0.669291
        },
        {
          "time": 577.649517,
          "name": "A1",
          "midi": 33,
          "duration": 0.181269,
          "velocity": 0.88189
        },
        {
          "time": 578.005038,
          "name": "D3",
          "midi": 50,
          "duration": 0.193549,
          "velocity": 0.96063
        },
        {
          "time": 578.008264,
          "name": "D3",
          "midi": 50,
          "duration": 0.193549,
          "velocity": 0.590551
        },
        {
          "time": 578.01149,
          "name": "D2",
          "midi": 38,
          "duration": 0.193549,
          "velocity": 1
        },
        {
          "time": 578.014716,
          "name": "C#2",
          "midi": 37,
          "duration": 0.384436,
          "velocity": 0.669291
        },
        {
          "time": 578.014716,
          "name": "C2",
          "midi": 36,
          "duration": 0.384436,
          "velocity": 0.669291
        },
        {
          "time": 578.014716,
          "name": "D2",
          "midi": 38,
          "duration": 0.193548,
          "velocity": 0.88189
        },
        {
          "time": 578.390089,
          "name": "D3",
          "midi": 50,
          "duration": 0.181269,
          "velocity": 0.96063
        },
        {
          "time": 578.39311,
          "name": "D3",
          "midi": 50,
          "duration": 0.181269,
          "velocity": 0.590551
        },
        {
          "time": 578.396131,
          "name": "D2",
          "midi": 38,
          "duration": 0.181269,
          "velocity": 1
        },
        {
          "time": 578.399152,
          "name": "C#2",
          "midi": 37,
          "duration": 0.365199,
          "velocity": 0.669291
        },
        {
          "time": 578.399152,
          "name": "C2",
          "midi": 36,
          "duration": 0.365199,
          "velocity": 0.669291
        },
        {
          "time": 578.399152,
          "name": "D2",
          "midi": 38,
          "duration": 0.181269,
          "velocity": 0.88189
        },
        {
          "time": 578.754673,
          "name": "D3",
          "midi": 50,
          "duration": 0.193549,
          "velocity": 0.96063
        },
        {
          "time": 578.757899,
          "name": "D3",
          "midi": 50,
          "duration": 0.193549,
          "velocity": 0.590551
        },
        {
          "time": 578.761125,
          "name": "D2",
          "midi": 38,
          "duration": 0.193549,
          "velocity": 1
        },
        {
          "time": 578.764351,
          "name": "C#2",
          "midi": 37,
          "duration": 0.193548,
          "velocity": 0.669291
        },
        {
          "time": 578.764351,
          "name": "C2",
          "midi": 36,
          "duration": 0.193548,
          "velocity": 0.669291
        },
        {
          "time": 578.764351,
          "name": "D3",
          "midi": 50,
          "duration": 0.193548,
          "velocity": 0.88189
        },
        {
          "time": 578.957899,
          "name": "D3",
          "midi": 50,
          "duration": 0.172761,
          "velocity": 0.88189
        },
        {
          "time": 579.148787,
          "name": "D2",
          "midi": 38,
          "duration": 0.163142,
          "velocity": 0.88189
        },
        {
          "time": 579.513986,
          "name": "D2",
          "midi": 38,
          "duration": 0.193548,
          "velocity": 0.88189
        },
        {
          "time": 579.707534,
          "name": "D3",
          "midi": 50,
          "duration": 0.190888,
          "velocity": 0.88189
        },
        {
          "time": 580.263621,
          "name": "D2",
          "midi": 38,
          "duration": 0.193548,
          "velocity": 0.88189
        },
        {
          "time": 580.457169,
          "name": "D3",
          "midi": 50,
          "duration": 0.190888,
          "velocity": 0.88189
        },
        {
          "time": 581.013256,
          "name": "D2",
          "midi": 38,
          "duration": 0.193548,
          "velocity": 0.88189
        },
        {
          "time": 581.206804,
          "name": "D3",
          "midi": 50,
          "duration": 0.190888,
          "velocity": 0.88189
        },
        {
          "time": 581.762891,
          "name": "D2",
          "midi": 38,
          "duration": 0.193548,
          "velocity": 0.88189
        },
        {
          "time": 581.956439,
          "name": "D3",
          "midi": 50,
          "duration": 0.190888,
          "velocity": 0.88189
        },
        {
          "time": 582.512526,
          "name": "D2",
          "midi": 38,
          "duration": 0.193548,
          "velocity": 0.88189
        },
        {
          "time": 582.706074,
          "name": "D3",
          "midi": 50,
          "duration": 0.190888,
          "velocity": 0.88189
        },
        {
          "time": 583.262161,
          "name": "D2",
          "midi": 38,
          "duration": 0.193548,
          "velocity": 0.88189
        },
        {
          "time": 583.455709,
          "name": "D3",
          "midi": 50,
          "duration": 0.190888,
          "velocity": 0.88189
        },
        {
          "time": 584.011796,
          "name": "D2",
          "midi": 38,
          "duration": 0.193548,
          "velocity": 0.88189
        },
        {
          "time": 584.205344,
          "name": "D3",
          "midi": 50,
          "duration": 0.190888,
          "velocity": 0.88189
        },
        {
          "time": 584.761431,
          "name": "D2",
          "midi": 38,
          "duration": 0.193548,
          "velocity": 0.88189
        },
        {
          "time": 584.954979,
          "name": "D3",
          "midi": 50,
          "duration": 0.190888,
          "velocity": 0.88189
        },
        {
          "time": 585.511066,
          "name": "D2",
          "midi": 38,
          "duration": 0.193548,
          "velocity": 0.88189
        },
        {
          "time": 585.704614,
          "name": "D3",
          "midi": 50,
          "duration": 0.190888,
          "velocity": 0.88189
        },
        {
          "time": 586.260701,
          "name": "D2",
          "midi": 38,
          "duration": 0.193548,
          "velocity": 0.88189
        },
        {
          "time": 586.454249,
          "name": "D3",
          "midi": 50,
          "duration": 0.190888,
          "velocity": 0.88189
        },
        {
          "time": 587.010336,
          "name": "D2",
          "midi": 38,
          "duration": 0.193548,
          "velocity": 0.88189
        },
        {
          "time": 587.203884,
          "name": "D3",
          "midi": 50,
          "duration": 0.190888,
          "velocity": 0.88189
        },
        {
          "time": 587.759971,
          "name": "D2",
          "midi": 38,
          "duration": 0.193548,
          "velocity": 0.88189
        },
        {
          "time": 587.953519,
          "name": "D3",
          "midi": 50,
          "duration": 0.190888,
          "velocity": 0.88189
        },
        {
          "time": 588.509606,
          "name": "D2",
          "midi": 38,
          "duration": 0.193548,
          "velocity": 0.88189
        },
        {
          "time": 588.703154,
          "name": "D3",
          "midi": 50,
          "duration": 0.190888,
          "velocity": 0.88189
        },
        {
          "time": 589.259241,
          "name": "D2",
          "midi": 38,
          "duration": 0.193548,
          "velocity": 0.88189
        },
        {
          "time": 589.452789,
          "name": "D3",
          "midi": 50,
          "duration": 0.190888,
          "velocity": 0.88189
        },
        {
          "time": 590.008876,
          "name": "D2",
          "midi": 38,
          "duration": 0.193548,
          "velocity": 0.88189
        },
        {
          "time": 590.202424,
          "name": "D3",
          "midi": 50,
          "duration": 0.190888,
          "velocity": 0.88189
        },
        {
          "time": 590.758511,
          "name": "D2",
          "midi": 38,
          "duration": 0.193548,
          "velocity": 0.88189
        },
        {
          "time": 590.952059,
          "name": "D3",
          "midi": 50,
          "duration": 0.190888,
          "velocity": 0.88189
        },
        {
          "time": 591.498468,
          "name": "D3",
          "midi": 50,
          "duration": 1.49927,
          "velocity": 0.96063
        },
        {
          "time": 591.501694,
          "name": "D3",
          "midi": 50,
          "duration": 0.096774,
          "velocity": 0.433071
        },
        {
          "time": 591.508146,
          "name": "D2",
          "midi": 38,
          "duration": 1.49927,
          "velocity": 0.88189
        },
        {
          "time": 591.598468,
          "name": "D3",
          "midi": 50,
          "duration": 0.096774,
          "velocity": 0.433071
        },
        {
          "time": 591.695243,
          "name": "D3",
          "midi": 50,
          "duration": 0.096774,
          "velocity": 0.433071
        },
        {
          "time": 591.792017,
          "name": "D3",
          "midi": 50,
          "duration": 0.094523,
          "velocity": 0.440945
        },
        {
          "time": 591.88654,
          "name": "D3",
          "midi": 50,
          "duration": 0.090635,
          "velocity": 0.440945
        },
        {
          "time": 591.977174,
          "name": "D3",
          "midi": 50,
          "duration": 0.090634,
          "velocity": 0.448819
        },
        {
          "time": 592.067809,
          "name": "D3",
          "midi": 50,
          "duration": 0.090634,
          "velocity": 0.448819
        },
        {
          "time": 592.158443,
          "name": "D3",
          "midi": 50,
          "duration": 0.092886,
          "velocity": 0.448819
        },
        {
          "time": 592.251329,
          "name": "D3",
          "midi": 50,
          "duration": 0.096774,
          "velocity": 0.456693
        },
        {
          "time": 592.348103,
          "name": "D3",
          "midi": 50,
          "duration": 0.096774,
          "velocity": 0.456693
        },
        {
          "time": 592.444878,
          "name": "D3",
          "midi": 50,
          "duration": 0.096774,
          "velocity": 0.464567
        },
        {
          "time": 592.541652,
          "name": "D3",
          "midi": 50,
          "duration": 0.094523,
          "velocity": 0.464567
        },
        {
          "time": 592.636175,
          "name": "D3",
          "midi": 50,
          "duration": 0.090635,
          "velocity": 0.472441
        },
        {
          "time": 592.726809,
          "name": "D3",
          "midi": 50,
          "duration": 0.090634,
          "velocity": 0.472441
        },
        {
          "time": 592.817444,
          "name": "D3",
          "midi": 50,
          "duration": 0.090634,
          "velocity": 0.472441
        },
        {
          "time": 592.908078,
          "name": "D3",
          "midi": 50,
          "duration": 0.092886,
          "velocity": 0.480315
        },
        {
          "time": 592.997738,
          "name": "D3",
          "midi": 50,
          "duration": 1.49927,
          "velocity": 0.96063
        },
        {
          "time": 593.000964,
          "name": "D3",
          "midi": 50,
          "duration": 0.096774,
          "velocity": 0.480315
        },
        {
          "time": 593.007416,
          "name": "D2",
          "midi": 38,
          "duration": 1.49927,
          "velocity": 0.88189
        },
        {
          "time": 593.097738,
          "name": "D3",
          "midi": 50,
          "duration": 0.096774,
          "velocity": 0.488189
        },
        {
          "time": 593.194513,
          "name": "D3",
          "midi": 50,
          "duration": 0.096774,
          "velocity": 0.488189
        },
        {
          "time": 593.291287,
          "name": "D3",
          "midi": 50,
          "duration": 0.094523,
          "velocity": 0.488189
        },
        {
          "time": 593.38581,
          "name": "D3",
          "midi": 50,
          "duration": 0.090635,
          "velocity": 0.496063
        },
        {
          "time": 593.476444,
          "name": "D3",
          "midi": 50,
          "duration": 0.090634,
          "velocity": 0.496063
        },
        {
          "time": 593.567079,
          "name": "D3",
          "midi": 50,
          "duration": 0.090634,
          "velocity": 0.503937
        },
        {
          "time": 593.657713,
          "name": "D3",
          "midi": 50,
          "duration": 0.092886,
          "velocity": 0.503937
        },
        {
          "time": 593.750599,
          "name": "D3",
          "midi": 50,
          "duration": 0.096774,
          "velocity": 0.511811
        },
        {
          "time": 593.847373,
          "name": "D3",
          "midi": 50,
          "duration": 0.096774,
          "velocity": 0.511811
        },
        {
          "time": 593.944148,
          "name": "D3",
          "midi": 50,
          "duration": 0.096774,
          "velocity": 0.511811
        },
        {
          "time": 594.040922,
          "name": "D3",
          "midi": 50,
          "duration": 0.094523,
          "velocity": 0.519685
        },
        {
          "time": 594.135445,
          "name": "D3",
          "midi": 50,
          "duration": 0.090635,
          "velocity": 0.519685
        },
        {
          "time": 594.226079,
          "name": "D3",
          "midi": 50,
          "duration": 0.090634,
          "velocity": 0.527559
        },
        {
          "time": 594.316714,
          "name": "D3",
          "midi": 50,
          "duration": 0.090634,
          "velocity": 0.527559
        },
        {
          "time": 594.407348,
          "name": "D3",
          "midi": 50,
          "duration": 0.092886,
          "velocity": 0.527559
        },
        {
          "time": 594.497008,
          "name": "D3",
          "midi": 50,
          "duration": 1.692819,
          "velocity": 0.96063
        },
        {
          "time": 594.500234,
          "name": "D3",
          "midi": 50,
          "duration": 0.096774,
          "velocity": 0.535433
        },
        {
          "time": 594.506686,
          "name": "D2",
          "midi": 38,
          "duration": 1.692818,
          "velocity": 0.88189
        },
        {
          "time": 594.597008,
          "name": "D3",
          "midi": 50,
          "duration": 0.096774,
          "velocity": 0.535433
        },
        {
          "time": 594.693783,
          "name": "D3",
          "midi": 50,
          "duration": 0.096774,
          "velocity": 0.543307
        },
        {
          "time": 594.790557,
          "name": "D3",
          "midi": 50,
          "duration": 0.094523,
          "velocity": 0.543307
        },
        {
          "time": 594.88508,
          "name": "D3",
          "midi": 50,
          "duration": 0.090635,
          "velocity": 0.551181
        },
        {
          "time": 594.975714,
          "name": "D3",
          "midi": 50,
          "duration": 0.090634,
          "velocity": 0.551181
        },
        {
          "time": 595.066349,
          "name": "D3",
          "midi": 50,
          "duration": 0.090634,
          "velocity": 0.551181
        },
        {
          "time": 595.156983,
          "name": "D3",
          "midi": 50,
          "duration": 0.092886,
          "velocity": 0.559055
        },
        {
          "time": 595.249869,
          "name": "D3",
          "midi": 50,
          "duration": 0.096774,
          "velocity": 0.559055
        },
        {
          "time": 595.346643,
          "name": "D3",
          "midi": 50,
          "duration": 0.096774,
          "velocity": 0.566929
        },
        {
          "time": 595.443418,
          "name": "D3",
          "midi": 50,
          "duration": 0.096774,
          "velocity": 0.566929
        },
        {
          "time": 595.540192,
          "name": "D3",
          "midi": 50,
          "duration": 0.094523,
          "velocity": 0.566929
        },
        {
          "time": 595.634715,
          "name": "D3",
          "midi": 50,
          "duration": 0.090635,
          "velocity": 0.574803
        },
        {
          "time": 595.725349,
          "name": "D3",
          "midi": 50,
          "duration": 0.090634,
          "velocity": 0.574803
        },
        {
          "time": 595.815984,
          "name": "D3",
          "midi": 50,
          "duration": 0.090634,
          "velocity": 0.582677
        },
        {
          "time": 595.906618,
          "name": "D3",
          "midi": 50,
          "duration": 0.092886,
          "velocity": 0.582677
        },
        {
          "time": 595.999504,
          "name": "D3",
          "midi": 50,
          "duration": 0.193549,
          "velocity": 0.590551
        },
        {
          "time": 597.495548,
          "name": "G2",
          "midi": 43,
          "duration": 0.193549,
          "velocity": 0.96063
        },
        {
          "time": 597.498774,
          "name": "G2",
          "midi": 43,
          "duration": 0.193549,
          "velocity": 0.590551
        },
        {
          "time": 597.502,
          "name": "G2",
          "midi": 43,
          "duration": 0.193549,
          "velocity": 1
        },
        {
          "time": 597.505226,
          "name": "C#2",
          "midi": 37,
          "duration": 0.384436,
          "velocity": 0.669291
        },
        {
          "time": 597.505226,
          "name": "C2",
          "midi": 36,
          "duration": 0.384436,
          "velocity": 0.669291
        },
        {
          "time": 597.505226,
          "name": "G1",
          "midi": 31,
          "duration": 0.193548,
          "velocity": 0.88189
        },
        {
          "time": 597.880599,
          "name": "G2",
          "midi": 43,
          "duration": 0.181269,
          "velocity": 0.96063
        },
        {
          "time": 597.88362,
          "name": "G2",
          "midi": 43,
          "duration": 0.181269,
          "velocity": 0.590551
        },
        {
          "time": 597.886641,
          "name": "G2",
          "midi": 43,
          "duration": 0.181269,
          "velocity": 1
        },
        {
          "time": 597.889662,
          "name": "C#2",
          "midi": 37,
          "duration": 0.365199,
          "velocity": 0.669291
        },
        {
          "time": 597.889662,
          "name": "C2",
          "midi": 36,
          "duration": 0.365199,
          "velocity": 0.669291
        },
        {
          "time": 597.889662,
          "name": "G1",
          "midi": 31,
          "duration": 0.181269,
          "velocity": 0.88189
        },
        {
          "time": 598.245183,
          "name": "G2",
          "midi": 43,
          "duration": 0.193549,
          "velocity": 0.96063
        },
        {
          "time": 598.248409,
          "name": "G2",
          "midi": 43,
          "duration": 0.193549,
          "velocity": 0.590551
        },
        {
          "time": 598.251635,
          "name": "G2",
          "midi": 43,
          "duration": 0.193549,
          "velocity": 1
        },
        {
          "time": 598.254861,
          "name": "C#2",
          "midi": 37,
          "duration": 0.384436,
          "velocity": 0.669291
        },
        {
          "time": 598.254861,
          "name": "C2",
          "midi": 36,
          "duration": 0.384436,
          "velocity": 0.669291
        },
        {
          "time": 598.254861,
          "name": "G1",
          "midi": 31,
          "duration": 0.193548,
          "velocity": 0.88189
        },
        {
          "time": 598.630234,
          "name": "G2",
          "midi": 43,
          "duration": 0.181269,
          "velocity": 0.96063
        },
        {
          "time": 598.633255,
          "name": "G2",
          "midi": 43,
          "duration": 0.181269,
          "velocity": 0.590551
        },
        {
          "time": 598.636276,
          "name": "G2",
          "midi": 43,
          "duration": 0.181269,
          "velocity": 1
        },
        {
          "time": 598.639297,
          "name": "C#2",
          "midi": 37,
          "duration": 0.365199,
          "velocity": 0.669291
        },
        {
          "time": 598.639297,
          "name": "C2",
          "midi": 36,
          "duration": 0.365199,
          "velocity": 0.669291
        },
        {
          "time": 598.639297,
          "name": "G1",
          "midi": 31,
          "duration": 0.181269,
          "velocity": 0.88189
        },
        {
          "time": 598.994818,
          "name": "G2",
          "midi": 43,
          "duration": 0.193549,
          "velocity": 0.96063
        },
        {
          "time": 598.998044,
          "name": "G2",
          "midi": 43,
          "duration": 0.193549,
          "velocity": 0.590551
        },
        {
          "time": 599.00127,
          "name": "G2",
          "midi": 43,
          "duration": 0.193549,
          "velocity": 1
        },
        {
          "time": 599.004496,
          "name": "C#2",
          "midi": 37,
          "duration": 0.384436,
          "velocity": 0.669291
        },
        {
          "time": 599.004496,
          "name": "C2",
          "midi": 36,
          "duration": 0.384436,
          "velocity": 0.669291
        },
        {
          "time": 599.004496,
          "name": "G1",
          "midi": 31,
          "duration": 0.193548,
          "velocity": 0.88189
        },
        {
          "time": 599.379869,
          "name": "G2",
          "midi": 43,
          "duration": 0.181269,
          "velocity": 0.96063
        },
        {
          "time": 599.38289,
          "name": "G2",
          "midi": 43,
          "duration": 0.181269,
          "velocity": 0.590551
        },
        {
          "time": 599.385911,
          "name": "G2",
          "midi": 43,
          "duration": 0.181269,
          "velocity": 1
        },
        {
          "time": 599.388932,
          "name": "C#2",
          "midi": 37,
          "duration": 0.365199,
          "velocity": 0.669291
        },
        {
          "time": 599.388932,
          "name": "C2",
          "midi": 36,
          "duration": 0.365199,
          "velocity": 0.669291
        },
        {
          "time": 599.388932,
          "name": "G1",
          "midi": 31,
          "duration": 0.181269,
          "velocity": 0.88189
        },
        {
          "time": 599.744453,
          "name": "G2",
          "midi": 43,
          "duration": 0.193549,
          "velocity": 0.96063
        },
        {
          "time": 599.747679,
          "name": "G2",
          "midi": 43,
          "duration": 0.193549,
          "velocity": 0.590551
        },
        {
          "time": 599.750905,
          "name": "G2",
          "midi": 43,
          "duration": 0.193549,
          "velocity": 1
        },
        {
          "time": 599.754131,
          "name": "C#2",
          "midi": 37,
          "duration": 0.384436,
          "velocity": 0.669291
        },
        {
          "time": 599.754131,
          "name": "C2",
          "midi": 36,
          "duration": 0.384436,
          "velocity": 0.669291
        },
        {
          "time": 599.754131,
          "name": "G1",
          "midi": 31,
          "duration": 0.193548,
          "velocity": 0.88189
        },
        {
          "time": 600.129504,
          "name": "G2",
          "midi": 43,
          "duration": 0.181269,
          "velocity": 0.96063
        },
        {
          "time": 600.132525,
          "name": "G2",
          "midi": 43,
          "duration": 0.181269,
          "velocity": 0.590551
        },
        {
          "time": 600.135546,
          "name": "G2",
          "midi": 43,
          "duration": 0.181269,
          "velocity": 1
        },
        {
          "time": 600.138567,
          "name": "C#2",
          "midi": 37,
          "duration": 0.365199,
          "velocity": 0.669291
        },
        {
          "time": 600.138567,
          "name": "C2",
          "midi": 36,
          "duration": 0.365199,
          "velocity": 0.669291
        },
        {
          "time": 600.138567,
          "name": "G1",
          "midi": 31,
          "duration": 0.181269,
          "velocity": 0.88189
        },
        {
          "time": 600.494088,
          "name": "G2",
          "midi": 43,
          "duration": 0.193549,
          "velocity": 0.96063
        },
        {
          "time": 600.497314,
          "name": "G2",
          "midi": 43,
          "duration": 0.193549,
          "velocity": 0.590551
        },
        {
          "time": 600.50054,
          "name": "G2",
          "midi": 43,
          "duration": 0.193549,
          "velocity": 1
        },
        {
          "time": 600.503766,
          "name": "C#2",
          "midi": 37,
          "duration": 0.384436,
          "velocity": 0.669291
        },
        {
          "time": 600.503766,
          "name": "C2",
          "midi": 36,
          "duration": 0.384436,
          "velocity": 0.669291
        },
        {
          "time": 600.503766,
          "name": "G1",
          "midi": 31,
          "duration": 0.193548,
          "velocity": 0.88189
        },
        {
          "time": 600.879139,
          "name": "G2",
          "midi": 43,
          "duration": 0.181269,
          "velocity": 0.96063
        },
        {
          "time": 600.88216,
          "name": "G2",
          "midi": 43,
          "duration": 0.181269,
          "velocity": 0.590551
        },
        {
          "time": 600.885181,
          "name": "G2",
          "midi": 43,
          "duration": 0.181269,
          "velocity": 1
        },
        {
          "time": 600.888202,
          "name": "C#2",
          "midi": 37,
          "duration": 0.365199,
          "velocity": 0.669291
        },
        {
          "time": 600.888202,
          "name": "C2",
          "midi": 36,
          "duration": 0.365199,
          "velocity": 0.669291
        },
        {
          "time": 600.888202,
          "name": "G1",
          "midi": 31,
          "duration": 0.181269,
          "velocity": 0.88189
        },
        {
          "time": 601.243723,
          "name": "G2",
          "midi": 43,
          "duration": 0.193549,
          "velocity": 0.96063
        },
        {
          "time": 601.246949,
          "name": "G2",
          "midi": 43,
          "duration": 0.193549,
          "velocity": 0.590551
        },
        {
          "time": 601.250175,
          "name": "G2",
          "midi": 43,
          "duration": 0.193549,
          "velocity": 1
        },
        {
          "time": 601.253401,
          "name": "C#2",
          "midi": 37,
          "duration": 0.384436,
          "velocity": 0.669291
        },
        {
          "time": 601.253401,
          "name": "C2",
          "midi": 36,
          "duration": 0.384436,
          "velocity": 0.669291
        },
        {
          "time": 601.253401,
          "name": "G1",
          "midi": 31,
          "duration": 0.193548,
          "velocity": 0.88189
        },
        {
          "time": 601.628774,
          "name": "G2",
          "midi": 43,
          "duration": 0.181269,
          "velocity": 0.96063
        },
        {
          "time": 601.631795,
          "name": "G2",
          "midi": 43,
          "duration": 0.181269,
          "velocity": 0.590551
        },
        {
          "time": 601.634816,
          "name": "G2",
          "midi": 43,
          "duration": 0.181269,
          "velocity": 1
        },
        {
          "time": 601.637837,
          "name": "C#2",
          "midi": 37,
          "duration": 0.365199,
          "velocity": 0.669291
        },
        {
          "time": 601.637837,
          "name": "C2",
          "midi": 36,
          "duration": 0.365199,
          "velocity": 0.669291
        },
        {
          "time": 601.637837,
          "name": "G1",
          "midi": 31,
          "duration": 0.181269,
          "velocity": 0.88189
        },
        {
          "time": 601.993358,
          "name": "G2",
          "midi": 43,
          "duration": 0.193549,
          "velocity": 0.96063
        },
        {
          "time": 601.996584,
          "name": "G2",
          "midi": 43,
          "duration": 0.193549,
          "velocity": 0.590551
        },
        {
          "time": 601.99981,
          "name": "G2",
          "midi": 43,
          "duration": 0.193549,
          "velocity": 1
        },
        {
          "time": 602.003036,
          "name": "C#2",
          "midi": 37,
          "duration": 0.384436,
          "velocity": 0.669291
        },
        {
          "time": 602.003036,
          "name": "C2",
          "midi": 36,
          "duration": 0.384436,
          "velocity": 0.669291
        },
        {
          "time": 602.003036,
          "name": "G1",
          "midi": 31,
          "duration": 0.193548,
          "velocity": 0.88189
        },
        {
          "time": 602.378409,
          "name": "G2",
          "midi": 43,
          "duration": 0.181269,
          "velocity": 0.96063
        },
        {
          "time": 602.38143,
          "name": "G2",
          "midi": 43,
          "duration": 0.181269,
          "velocity": 0.590551
        },
        {
          "time": 602.384451,
          "name": "G2",
          "midi": 43,
          "duration": 0.181269,
          "velocity": 1
        },
        {
          "time": 602.387472,
          "name": "C#2",
          "midi": 37,
          "duration": 0.365199,
          "velocity": 0.669291
        },
        {
          "time": 602.387472,
          "name": "C2",
          "midi": 36,
          "duration": 0.365199,
          "velocity": 0.669291
        },
        {
          "time": 602.387472,
          "name": "G1",
          "midi": 31,
          "duration": 0.181269,
          "velocity": 0.88189
        },
        {
          "time": 602.742993,
          "name": "G2",
          "midi": 43,
          "duration": 0.193549,
          "velocity": 0.96063
        },
        {
          "time": 602.746219,
          "name": "G2",
          "midi": 43,
          "duration": 0.193549,
          "velocity": 0.590551
        },
        {
          "time": 602.749445,
          "name": "G2",
          "midi": 43,
          "duration": 0.193549,
          "velocity": 1
        },
        {
          "time": 602.752671,
          "name": "C#2",
          "midi": 37,
          "duration": 0.384436,
          "velocity": 0.669291
        },
        {
          "time": 602.752671,
          "name": "C2",
          "midi": 36,
          "duration": 0.384436,
          "velocity": 0.669291
        },
        {
          "time": 602.752671,
          "name": "G1",
          "midi": 31,
          "duration": 0.193548,
          "velocity": 0.88189
        },
        {
          "time": 603.128044,
          "name": "G2",
          "midi": 43,
          "duration": 0.181269,
          "velocity": 0.96063
        },
        {
          "time": 603.131065,
          "name": "G2",
          "midi": 43,
          "duration": 0.181269,
          "velocity": 0.590551
        },
        {
          "time": 603.134086,
          "name": "G2",
          "midi": 43,
          "duration": 0.181269,
          "velocity": 1
        },
        {
          "time": 603.137107,
          "name": "C#2",
          "midi": 37,
          "duration": 0.365199,
          "velocity": 0.669291
        },
        {
          "time": 603.137107,
          "name": "C2",
          "midi": 36,
          "duration": 0.365199,
          "velocity": 0.669291
        },
        {
          "time": 603.137107,
          "name": "G1",
          "midi": 31,
          "duration": 0.181269,
          "velocity": 0.88189
        },
        {
          "time": 603.492628,
          "name": "G2",
          "midi": 43,
          "duration": 0.193549,
          "velocity": 0.96063
        },
        {
          "time": 603.495854,
          "name": "G2",
          "midi": 43,
          "duration": 0.193549,
          "velocity": 0.590551
        },
        {
          "time": 603.49908,
          "name": "G2",
          "midi": 43,
          "duration": 0.193549,
          "velocity": 1
        },
        {
          "time": 603.502306,
          "name": "C#2",
          "midi": 37,
          "duration": 0.384436,
          "velocity": 0.669291
        },
        {
          "time": 603.502306,
          "name": "C2",
          "midi": 36,
          "duration": 0.384436,
          "velocity": 0.669291
        },
        {
          "time": 603.502306,
          "name": "G1",
          "midi": 31,
          "duration": 0.193548,
          "velocity": 0.88189
        },
        {
          "time": 603.877679,
          "name": "G2",
          "midi": 43,
          "duration": 0.181269,
          "velocity": 0.96063
        },
        {
          "time": 603.8807,
          "name": "G2",
          "midi": 43,
          "duration": 0.181269,
          "velocity": 0.590551
        },
        {
          "time": 603.883721,
          "name": "G2",
          "midi": 43,
          "duration": 0.181269,
          "velocity": 1
        },
        {
          "time": 603.886742,
          "name": "C#2",
          "midi": 37,
          "duration": 0.365199,
          "velocity": 0.669291
        },
        {
          "time": 603.886742,
          "name": "C2",
          "midi": 36,
          "duration": 0.365199,
          "velocity": 0.669291
        },
        {
          "time": 603.886742,
          "name": "G1",
          "midi": 31,
          "duration": 0.181269,
          "velocity": 0.88189
        },
        {
          "time": 604.242263,
          "name": "G2",
          "midi": 43,
          "duration": 0.193549,
          "velocity": 0.96063
        },
        {
          "time": 604.245489,
          "name": "G2",
          "midi": 43,
          "duration": 0.193549,
          "velocity": 0.590551
        },
        {
          "time": 604.248715,
          "name": "G2",
          "midi": 43,
          "duration": 0.193549,
          "velocity": 1
        },
        {
          "time": 604.251941,
          "name": "C#2",
          "midi": 37,
          "duration": 0.384436,
          "velocity": 0.669291
        },
        {
          "time": 604.251941,
          "name": "C2",
          "midi": 36,
          "duration": 0.384436,
          "velocity": 0.669291
        },
        {
          "time": 604.251941,
          "name": "G1",
          "midi": 31,
          "duration": 0.193548,
          "velocity": 0.88189
        },
        {
          "time": 604.627314,
          "name": "G2",
          "midi": 43,
          "duration": 0.181269,
          "velocity": 0.96063
        },
        {
          "time": 604.630335,
          "name": "G2",
          "midi": 43,
          "duration": 0.181269,
          "velocity": 0.590551
        },
        {
          "time": 604.633356,
          "name": "G2",
          "midi": 43,
          "duration": 0.181269,
          "velocity": 1
        },
        {
          "time": 604.636377,
          "name": "C#2",
          "midi": 37,
          "duration": 0.365199,
          "velocity": 0.669291
        },
        {
          "time": 604.636377,
          "name": "C2",
          "midi": 36,
          "duration": 0.365199,
          "velocity": 0.669291
        },
        {
          "time": 604.636377,
          "name": "G1",
          "midi": 31,
          "duration": 0.181269,
          "velocity": 0.88189
        },
        {
          "time": 604.991898,
          "name": "G2",
          "midi": 43,
          "duration": 0.193549,
          "velocity": 0.96063
        },
        {
          "time": 604.995124,
          "name": "G2",
          "midi": 43,
          "duration": 0.193549,
          "velocity": 0.590551
        },
        {
          "time": 604.99835,
          "name": "G2",
          "midi": 43,
          "duration": 0.193549,
          "velocity": 1
        },
        {
          "time": 605.001576,
          "name": "C#2",
          "midi": 37,
          "duration": 0.384436,
          "velocity": 0.669291
        },
        {
          "time": 605.001576,
          "name": "C2",
          "midi": 36,
          "duration": 0.384436,
          "velocity": 0.669291
        },
        {
          "time": 605.001576,
          "name": "G1",
          "midi": 31,
          "duration": 0.193548,
          "velocity": 0.88189
        },
        {
          "time": 605.376949,
          "name": "G2",
          "midi": 43,
          "duration": 0.181269,
          "velocity": 0.96063
        },
        {
          "time": 605.37997,
          "name": "G2",
          "midi": 43,
          "duration": 0.181269,
          "velocity": 0.590551
        },
        {
          "time": 605.382991,
          "name": "G2",
          "midi": 43,
          "duration": 0.181269,
          "velocity": 1
        },
        {
          "time": 605.386012,
          "name": "C#2",
          "midi": 37,
          "duration": 0.365199,
          "velocity": 0.669291
        },
        {
          "time": 605.386012,
          "name": "C2",
          "midi": 36,
          "duration": 0.365199,
          "velocity": 0.669291
        },
        {
          "time": 605.386012,
          "name": "G1",
          "midi": 31,
          "duration": 0.181269,
          "velocity": 0.88189
        },
        {
          "time": 605.741533,
          "name": "G2",
          "midi": 43,
          "duration": 0.193549,
          "velocity": 0.96063
        },
        {
          "time": 605.744759,
          "name": "G2",
          "midi": 43,
          "duration": 0.193549,
          "velocity": 0.590551
        },
        {
          "time": 605.747985,
          "name": "G2",
          "midi": 43,
          "duration": 0.193549,
          "velocity": 1
        },
        {
          "time": 605.751211,
          "name": "C#2",
          "midi": 37,
          "duration": 0.384436,
          "velocity": 0.669291
        },
        {
          "time": 605.751211,
          "name": "C2",
          "midi": 36,
          "duration": 0.384436,
          "velocity": 0.669291
        },
        {
          "time": 605.751211,
          "name": "G1",
          "midi": 31,
          "duration": 0.193548,
          "velocity": 0.88189
        },
        {
          "time": 606.126584,
          "name": "G2",
          "midi": 43,
          "duration": 0.181269,
          "velocity": 0.96063
        },
        {
          "time": 606.129605,
          "name": "G2",
          "midi": 43,
          "duration": 0.181269,
          "velocity": 0.590551
        },
        {
          "time": 606.132626,
          "name": "G2",
          "midi": 43,
          "duration": 0.181269,
          "velocity": 1
        },
        {
          "time": 606.135647,
          "name": "C#2",
          "midi": 37,
          "duration": 0.365199,
          "velocity": 0.669291
        },
        {
          "time": 606.135647,
          "name": "C2",
          "midi": 36,
          "duration": 0.365199,
          "velocity": 0.669291
        },
        {
          "time": 606.135647,
          "name": "G1",
          "midi": 31,
          "duration": 0.181269,
          "velocity": 0.88189
        },
        {
          "time": 606.491168,
          "name": "C3",
          "midi": 48,
          "duration": 0.193549,
          "velocity": 0.96063
        },
        {
          "time": 606.494394,
          "name": "G2",
          "midi": 43,
          "duration": 0.193549,
          "velocity": 0.590551
        },
        {
          "time": 606.49762,
          "name": "C2",
          "midi": 36,
          "duration": 0.193549,
          "velocity": 1
        },
        {
          "time": 606.500846,
          "name": "C#2",
          "midi": 37,
          "duration": 0.384436,
          "velocity": 0.669291
        },
        {
          "time": 606.500846,
          "name": "C2",
          "midi": 36,
          "duration": 0.384436,
          "velocity": 0.669291
        },
        {
          "time": 606.500846,
          "name": "C2",
          "midi": 36,
          "duration": 0.193548,
          "velocity": 0.88189
        },
        {
          "time": 606.876219,
          "name": "C3",
          "midi": 48,
          "duration": 0.181269,
          "velocity": 0.96063
        },
        {
          "time": 606.87924,
          "name": "G2",
          "midi": 43,
          "duration": 0.181269,
          "velocity": 0.590551
        },
        {
          "time": 606.882261,
          "name": "C2",
          "midi": 36,
          "duration": 0.181269,
          "velocity": 1
        },
        {
          "time": 606.885282,
          "name": "C#2",
          "midi": 37,
          "duration": 0.365199,
          "velocity": 0.669291
        },
        {
          "time": 606.885282,
          "name": "C2",
          "midi": 36,
          "duration": 0.365199,
          "velocity": 0.669291
        },
        {
          "time": 606.885282,
          "name": "C2",
          "midi": 36,
          "duration": 0.181269,
          "velocity": 0.88189
        },
        {
          "time": 607.240803,
          "name": "D3",
          "midi": 50,
          "duration": 0.193549,
          "velocity": 0.96063
        },
        {
          "time": 607.244029,
          "name": "D3",
          "midi": 50,
          "duration": 0.193549,
          "velocity": 0.590551
        },
        {
          "time": 607.247255,
          "name": "D2",
          "midi": 38,
          "duration": 0.193549,
          "velocity": 1
        },
        {
          "time": 607.250481,
          "name": "C#2",
          "midi": 37,
          "duration": 0.384436,
          "velocity": 0.669291
        },
        {
          "time": 607.250481,
          "name": "C2",
          "midi": 36,
          "duration": 0.384436,
          "velocity": 0.669291
        },
        {
          "time": 607.250481,
          "name": "D2",
          "midi": 38,
          "duration": 0.193548,
          "velocity": 0.88189
        },
        {
          "time": 607.625854,
          "name": "D3",
          "midi": 50,
          "duration": 0.181269,
          "velocity": 0.96063
        },
        {
          "time": 607.628875,
          "name": "D3",
          "midi": 50,
          "duration": 0.181269,
          "velocity": 0.590551
        },
        {
          "time": 607.631896,
          "name": "D2",
          "midi": 38,
          "duration": 0.181269,
          "velocity": 1
        },
        {
          "time": 607.634917,
          "name": "C#2",
          "midi": 37,
          "duration": 0.365199,
          "velocity": 0.669291
        },
        {
          "time": 607.634917,
          "name": "C2",
          "midi": 36,
          "duration": 0.365199,
          "velocity": 0.669291
        },
        {
          "time": 607.634917,
          "name": "D2",
          "midi": 38,
          "duration": 0.181269,
          "velocity": 0.88189
        },
        {
          "time": 607.990438,
          "name": "G2",
          "midi": 43,
          "duration": 0.193549,
          "velocity": 0.96063
        },
        {
          "time": 607.993664,
          "name": "G2",
          "midi": 43,
          "duration": 0.193549,
          "velocity": 0.590551
        },
        {
          "time": 607.99689,
          "name": "G2",
          "midi": 43,
          "duration": 0.193549,
          "velocity": 1
        },
        {
          "time": 608.000116,
          "name": "C#2",
          "midi": 37,
          "duration": 0.193548,
          "velocity": 0.669291
        },
        {
          "time": 608.000116,
          "name": "C2",
          "midi": 36,
          "duration": 0.193548,
          "velocity": 0.669291
        },
        {
          "time": 608.000116,
          "name": "G2",
          "midi": 43,
          "duration": 0.193548,
          "velocity": 0.88189
        },
        {
          "time": 608.183987,
          "name": "G3",
          "midi": 55,
          "duration": 0.191502,
          "velocity": 0.96063
        },
        {
          "time": 608.187213,
          "name": "G2",
          "midi": 43,
          "duration": 0.191297,
          "velocity": 0.590551
        },
        {
          "time": 608.190438,
          "name": "G3",
          "midi": 55,
          "duration": 0.191093,
          "velocity": 1
        },
        {
          "time": 608.193664,
          "name": "C#2",
          "midi": 37,
          "duration": 0.190888,
          "velocity": 0.669291
        },
        {
          "time": 608.193664,
          "name": "C2",
          "midi": 36,
          "duration": 0.190888,
          "velocity": 0.669291
        },
        {
          "time": 608.193664,
          "name": "G3",
          "midi": 55,
          "duration": 0.190888,
          "velocity": 0.88189
        },
        {
          "time": 608.375489,
          "name": "D3",
          "midi": 50,
          "duration": 0.181269,
          "velocity": 0.96063
        },
        {
          "time": 608.37851,
          "name": "G2",
          "midi": 43,
          "duration": 0.181269,
          "velocity": 0.590551
        },
        {
          "time": 608.381531,
          "name": "D3",
          "midi": 50,
          "duration": 0.181269,
          "velocity": 1
        },
        {
          "time": 608.384552,
          "name": "C#2",
          "midi": 37,
          "duration": 0.181269,
          "velocity": 0.669291
        },
        {
          "time": 608.384552,
          "name": "C2",
          "midi": 36,
          "duration": 0.181269,
          "velocity": 0.669291
        },
        {
          "time": 608.384552,
          "name": "D3",
          "midi": 50,
          "duration": 0.181269,
          "velocity": 0.88189
        },
        {
          "time": 608.556758,
          "name": "B2",
          "midi": 47,
          "duration": 0.183316,
          "velocity": 0.96063
        },
        {
          "time": 608.559779,
          "name": "G2",
          "midi": 43,
          "duration": 0.18352,
          "velocity": 0.590551
        },
        {
          "time": 608.5628,
          "name": "B2",
          "midi": 47,
          "duration": 0.183725,
          "velocity": 1
        },
        {
          "time": 608.565821,
          "name": "C#2",
          "midi": 37,
          "duration": 0.18393,
          "velocity": 0.669291
        },
        {
          "time": 608.565821,
          "name": "C2",
          "midi": 36,
          "duration": 0.18393,
          "velocity": 0.669291
        },
        {
          "time": 608.565821,
          "name": "B2",
          "midi": 47,
          "duration": 0.18393,
          "velocity": 0.88189
        },
        {
          "time": 608.740073,
          "name": "G2",
          "midi": 43,
          "duration": 0.193549,
          "velocity": 0.96063
        },
        {
          "time": 608.743299,
          "name": "G2",
          "midi": 43,
          "duration": 0.193549,
          "velocity": 0.590551
        },
        {
          "time": 608.746525,
          "name": "G2",
          "midi": 43,
          "duration": 0.193549,
          "velocity": 1
        },
        {
          "time": 608.749751,
          "name": "C#2",
          "midi": 37,
          "duration": 0.193548,
          "velocity": 0.669291
        },
        {
          "time": 608.749751,
          "name": "C2",
          "midi": 36,
          "duration": 0.193548,
          "velocity": 0.669291
        },
        {
          "time": 608.749751,
          "name": "G2",
          "midi": 43,
          "duration": 0.193548,
          "velocity": 0.88189
        },
        {
          "time": 609.489708,
          "name": "E3",
          "midi": 52,
          "duration": 0.366924,
          "velocity": 0.96063
        },
        {
          "time": 609.49616,
          "name": "E2",
          "midi": 40,
          "duration": 0.366514,
          "velocity": 1
        },
        {
          "time": 609.499386,
          "name": "C#2",
          "midi": 37,
          "duration": 0.384436,
          "velocity": 0.669291
        },
        {
          "time": 609.499386,
          "name": "C2",
          "midi": 36,
          "duration": 0.384436,
          "velocity": 0.669291
        },
        {
          "time": 609.499386,
          "name": "E2",
          "midi": 40,
          "duration": 0.36631,
          "velocity": 0.88189
        },
        {
          "time": 609.874759,
          "name": "G3",
          "midi": 55,
          "duration": 0.34523,
          "velocity": 0.96063
        },
        {
          "time": 609.880801,
          "name": "G2",
          "midi": 43,
          "duration": 0.345639,
          "velocity": 1
        },
        {
          "time": 609.883822,
          "name": "G2",
          "midi": 43,
          "duration": 0.345844,
          "velocity": 0.88189
        },
        {
          "time": 610.239343,
          "name": "B3",
          "midi": 59,
          "duration": 0.366924,
          "velocity": 0.96063
        },
        {
          "time": 610.245795,
          "name": "B2",
          "midi": 47,
          "duration": 0.366514,
          "velocity": 1
        },
        {
          "time": 610.249021,
          "name": "C#2",
          "midi": 37,
          "duration": 0.384436,
          "velocity": 0.669291
        },
        {
          "time": 610.249021,
          "name": "C2",
          "midi": 36,
          "duration": 0.384436,
          "velocity": 0.669291
        },
        {
          "time": 610.249021,
          "name": "B2",
          "midi": 47,
          "duration": 0.36631,
          "velocity": 0.88189
        },
        {
          "time": 610.624394,
          "name": "E3",
          "midi": 52,
          "duration": 0.34523,
          "velocity": 0.96063
        },
        {
          "time": 610.630436,
          "name": "E2",
          "midi": 40,
          "duration": 0.345639,
          "velocity": 1
        },
        {
          "time": 610.633457,
          "name": "E2",
          "midi": 40,
          "duration": 0.345844,
          "velocity": 0.88189
        },
        {
          "time": 610.988978,
          "name": "G3",
          "midi": 55,
          "duration": 0.366924,
          "velocity": 0.96063
        },
        {
          "time": 610.99543,
          "name": "G2",
          "midi": 43,
          "duration": 0.366514,
          "velocity": 1
        },
        {
          "time": 610.998656,
          "name": "C#2",
          "midi": 37,
          "duration": 0.384436,
          "velocity": 0.669291
        },
        {
          "time": 610.998656,
          "name": "C2",
          "midi": 36,
          "duration": 0.384436,
          "velocity": 0.669291
        },
        {
          "time": 610.998656,
          "name": "G2",
          "midi": 43,
          "duration": 0.36631,
          "velocity": 0.88189
        },
        {
          "time": 611.374029,
          "name": "B3",
          "midi": 59,
          "duration": 0.34523,
          "velocity": 0.96063
        },
        {
          "time": 611.380071,
          "name": "B2",
          "midi": 47,
          "duration": 0.345639,
          "velocity": 1
        },
        {
          "time": 611.383092,
          "name": "B2",
          "midi": 47,
          "duration": 0.345844,
          "velocity": 0.88189
        },
        {
          "time": 611.738613,
          "name": "E3",
          "midi": 52,
          "duration": 0.183871,
          "velocity": 0.96063
        },
        {
          "time": 611.745065,
          "name": "E2",
          "midi": 40,
          "duration": 0.183871,
          "velocity": 1
        },
        {
          "time": 611.748291,
          "name": "C#2",
          "midi": 37,
          "duration": 0.384436,
          "velocity": 0.669291
        },
        {
          "time": 611.748291,
          "name": "C2",
          "midi": 36,
          "duration": 0.384436,
          "velocity": 0.669291
        },
        {
          "time": 611.748291,
          "name": "E2",
          "midi": 40,
          "duration": 0.183871,
          "velocity": 0.88189
        },
        {
          "time": 611.932162,
          "name": "G3",
          "midi": 55,
          "duration": 0.182438,
          "velocity": 0.96063
        },
        {
          "time": 611.938613,
          "name": "G2",
          "midi": 43,
          "duration": 0.182029,
          "velocity": 1
        },
        {
          "time": 611.941839,
          "name": "G2",
          "midi": 43,
          "duration": 0.181824,
          "velocity": 0.88189
        },
        {
          "time": 612.123664,
          "name": "B3",
          "midi": 59,
          "duration": 0.34523,
          "velocity": 0.96063
        },
        {
          "time": 612.129706,
          "name": "B2",
          "midi": 47,
          "duration": 0.345639,
          "velocity": 1
        },
        {
          "time": 612.132727,
          "name": "B2",
          "midi": 47,
          "duration": 0.345844,
          "velocity": 0.88189
        },
        {
          "time": 612.488248,
          "name": "E3",
          "midi": 52,
          "duration": 0.366924,
          "velocity": 0.96063
        },
        {
          "time": 612.4947,
          "name": "E2",
          "midi": 40,
          "duration": 0.366514,
          "velocity": 1
        },
        {
          "time": 612.497926,
          "name": "C#2",
          "midi": 37,
          "duration": 0.384436,
          "velocity": 0.669291
        },
        {
          "time": 612.497926,
          "name": "C2",
          "midi": 36,
          "duration": 0.384436,
          "velocity": 0.669291
        },
        {
          "time": 612.497926,
          "name": "E2",
          "midi": 40,
          "duration": 0.36631,
          "velocity": 0.88189
        },
        {
          "time": 612.873299,
          "name": "G3",
          "midi": 55,
          "duration": 0.34523,
          "velocity": 0.96063
        },
        {
          "time": 612.879341,
          "name": "G2",
          "midi": 43,
          "duration": 0.345639,
          "velocity": 1
        },
        {
          "time": 612.882362,
          "name": "G2",
          "midi": 43,
          "duration": 0.345844,
          "velocity": 0.88189
        },
        {
          "time": 613.237883,
          "name": "B3",
          "midi": 59,
          "duration": 0.366924,
          "velocity": 0.96063
        },
        {
          "time": 613.244335,
          "name": "B2",
          "midi": 47,
          "duration": 0.366514,
          "velocity": 1
        },
        {
          "time": 613.247561,
          "name": "C#2",
          "midi": 37,
          "duration": 0.384436,
          "velocity": 0.669291
        },
        {
          "time": 613.247561,
          "name": "C2",
          "midi": 36,
          "duration": 0.384436,
          "velocity": 0.669291
        },
        {
          "time": 613.247561,
          "name": "B2",
          "midi": 47,
          "duration": 0.36631,
          "velocity": 0.88189
        },
        {
          "time": 613.622934,
          "name": "E3",
          "midi": 52,
          "duration": 0.34523,
          "velocity": 0.96063
        },
        {
          "time": 613.628976,
          "name": "E2",
          "midi": 40,
          "duration": 0.345639,
          "velocity": 1
        },
        {
          "time": 613.631997,
          "name": "E2",
          "midi": 40,
          "duration": 0.345844,
          "velocity": 0.88189
        },
        {
          "time": 613.987518,
          "name": "G3",
          "midi": 55,
          "duration": 0.183871,
          "velocity": 0.96063
        },
        {
          "time": 613.99397,
          "name": "G2",
          "midi": 43,
          "duration": 0.183871,
          "velocity": 1
        },
        {
          "time": 613.997196,
          "name": "C#2",
          "midi": 37,
          "duration": 0.384436,
          "velocity": 0.669291
        },
        {
          "time": 613.997196,
          "name": "C2",
          "midi": 36,
          "duration": 0.384436,
          "velocity": 0.669291
        },
        {
          "time": 613.997196,
          "name": "G2",
          "midi": 43,
          "duration": 0.183871,
          "velocity": 0.88189
        },
        {
          "time": 614.181067,
          "name": "B3",
          "midi": 59,
          "duration": 0.182438,
          "velocity": 0.96063
        },
        {
          "time": 614.187518,
          "name": "B2",
          "midi": 47,
          "duration": 0.182029,
          "velocity": 1
        },
        {
          "time": 614.190744,
          "name": "B2",
          "midi": 47,
          "duration": 0.181824,
          "velocity": 0.88189
        },
        {
          "time": 614.372569,
          "name": "E3",
          "midi": 52,
          "duration": 0.172206,
          "velocity": 0.96063
        },
        {
          "time": 614.378611,
          "name": "E2",
          "midi": 40,
          "duration": 0.172206,
          "velocity": 1
        },
        {
          "time": 614.381632,
          "name": "E2",
          "midi": 40,
          "duration": 0.172206,
          "velocity": 0.88189
        },
        {
          "time": 614.553838,
          "name": "G3",
          "midi": 55,
          "duration": 0.173638,
          "velocity": 0.96063
        },
        {
          "time": 614.55988,
          "name": "G2",
          "midi": 43,
          "duration": 0.174047,
          "velocity": 1
        },
        {
          "time": 614.562901,
          "name": "G2",
          "midi": 43,
          "duration": 0.174252,
          "velocity": 0.88189
        },
        {
          "time": 614.737153,
          "name": "B3",
          "midi": 59,
          "duration": 0.183871,
          "velocity": 0.96063
        },
        {
          "time": 614.743605,
          "name": "B2",
          "midi": 47,
          "duration": 0.183871,
          "velocity": 1
        },
        {
          "time": 614.746831,
          "name": "C#2",
          "midi": 37,
          "duration": 0.193548,
          "velocity": 0.669291
        },
        {
          "time": 614.746831,
          "name": "C2",
          "midi": 36,
          "duration": 0.193548,
          "velocity": 0.669291
        },
        {
          "time": 614.746831,
          "name": "B2",
          "midi": 47,
          "duration": 0.183871,
          "velocity": 0.88189
        },
        {
          "time": 615.486788,
          "name": "E3",
          "midi": 52,
          "duration": 0.366924,
          "velocity": 0.96063
        },
        {
          "time": 615.49324,
          "name": "E2",
          "midi": 40,
          "duration": 0.366514,
          "velocity": 1
        },
        {
          "time": 615.496466,
          "name": "C#2",
          "midi": 37,
          "duration": 0.384436,
          "velocity": 0.669291
        },
        {
          "time": 615.496466,
          "name": "C2",
          "midi": 36,
          "duration": 0.384436,
          "velocity": 0.669291
        },
        {
          "time": 615.496466,
          "name": "E2",
          "midi": 40,
          "duration": 0.36631,
          "velocity": 0.88189
        },
        {
          "time": 615.871839,
          "name": "G3",
          "midi": 55,
          "duration": 0.34523,
          "velocity": 0.96063
        },
        {
          "time": 615.877881,
          "name": "G2",
          "midi": 43,
          "duration": 0.345639,
          "velocity": 1
        },
        {
          "time": 615.880902,
          "name": "G2",
          "midi": 43,
          "duration": 0.345844,
          "velocity": 0.88189
        },
        {
          "time": 616.236423,
          "name": "B3",
          "midi": 59,
          "duration": 0.366924,
          "velocity": 0.96063
        },
        {
          "time": 616.242875,
          "name": "B2",
          "midi": 47,
          "duration": 0.366514,
          "velocity": 1
        },
        {
          "time": 616.246101,
          "name": "C#2",
          "midi": 37,
          "duration": 0.384436,
          "velocity": 0.669291
        },
        {
          "time": 616.246101,
          "name": "C2",
          "midi": 36,
          "duration": 0.384436,
          "velocity": 0.669291
        },
        {
          "time": 616.246101,
          "name": "B2",
          "midi": 47,
          "duration": 0.36631,
          "velocity": 0.88189
        },
        {
          "time": 616.621474,
          "name": "E3",
          "midi": 52,
          "duration": 0.34523,
          "velocity": 0.96063
        },
        {
          "time": 616.627516,
          "name": "E2",
          "midi": 40,
          "duration": 0.345639,
          "velocity": 1
        },
        {
          "time": 616.630537,
          "name": "E2",
          "midi": 40,
          "duration": 0.345844,
          "velocity": 0.88189
        },
        {
          "time": 616.986058,
          "name": "G3",
          "midi": 55,
          "duration": 0.366924,
          "velocity": 0.96063
        },
        {
          "time": 616.99251,
          "name": "G2",
          "midi": 43,
          "duration": 0.366514,
          "velocity": 1
        },
        {
          "time": 616.995736,
          "name": "C#2",
          "midi": 37,
          "duration": 0.384436,
          "velocity": 0.669291
        },
        {
          "time": 616.995736,
          "name": "C2",
          "midi": 36,
          "duration": 0.384436,
          "velocity": 0.669291
        },
        {
          "time": 616.995736,
          "name": "G2",
          "midi": 43,
          "duration": 0.36631,
          "velocity": 0.88189
        },
        {
          "time": 617.371109,
          "name": "B3",
          "midi": 59,
          "duration": 0.34523,
          "velocity": 0.96063
        },
        {
          "time": 617.377151,
          "name": "B2",
          "midi": 47,
          "duration": 0.345639,
          "velocity": 1
        },
        {
          "time": 617.380172,
          "name": "B2",
          "midi": 47,
          "duration": 0.345844,
          "velocity": 0.88189
        },
        {
          "time": 617.735693,
          "name": "E3",
          "midi": 52,
          "duration": 0.183871,
          "velocity": 0.96063
        },
        {
          "time": 617.742145,
          "name": "E2",
          "midi": 40,
          "duration": 0.183871,
          "velocity": 1
        },
        {
          "time": 617.745371,
          "name": "C#2",
          "midi": 37,
          "duration": 0.384436,
          "velocity": 0.669291
        },
        {
          "time": 617.745371,
          "name": "C2",
          "midi": 36,
          "duration": 0.384436,
          "velocity": 0.669291
        },
        {
          "time": 617.745371,
          "name": "E2",
          "midi": 40,
          "duration": 0.183871,
          "velocity": 0.88189
        },
        {
          "time": 617.929242,
          "name": "G3",
          "midi": 55,
          "duration": 0.182438,
          "velocity": 0.96063
        },
        {
          "time": 617.935693,
          "name": "G2",
          "midi": 43,
          "duration": 0.182029,
          "velocity": 1
        },
        {
          "time": 617.938919,
          "name": "G2",
          "midi": 43,
          "duration": 0.181824,
          "velocity": 0.88189
        },
        {
          "time": 618.120744,
          "name": "B3",
          "midi": 59,
          "duration": 0.34523,
          "velocity": 0.96063
        },
        {
          "time": 618.126786,
          "name": "B2",
          "midi": 47,
          "duration": 0.345639,
          "velocity": 1
        },
        {
          "time": 618.129807,
          "name": "B2",
          "midi": 47,
          "duration": 0.345844,
          "velocity": 0.88189
        },
        {
          "time": 618.485328,
          "name": "E3",
          "midi": 52,
          "duration": 0.366924,
          "velocity": 0.96063
        },
        {
          "time": 618.49178,
          "name": "E2",
          "midi": 40,
          "duration": 0.366514,
          "velocity": 1
        },
        {
          "time": 618.495006,
          "name": "C#2",
          "midi": 37,
          "duration": 0.384436,
          "velocity": 0.669291
        },
        {
          "time": 618.495006,
          "name": "C2",
          "midi": 36,
          "duration": 0.384436,
          "velocity": 0.669291
        },
        {
          "time": 618.495006,
          "name": "E2",
          "midi": 40,
          "duration": 0.36631,
          "velocity": 0.88189
        },
        {
          "time": 618.870379,
          "name": "G3",
          "midi": 55,
          "duration": 0.34523,
          "velocity": 0.96063
        },
        {
          "time": 618.876421,
          "name": "G2",
          "midi": 43,
          "duration": 0.345639,
          "velocity": 1
        },
        {
          "time": 618.879442,
          "name": "G2",
          "midi": 43,
          "duration": 0.345844,
          "velocity": 0.88189
        },
        {
          "time": 619.234963,
          "name": "B3",
          "midi": 59,
          "duration": 0.366924,
          "velocity": 0.96063
        },
        {
          "time": 619.241415,
          "name": "B2",
          "midi": 47,
          "duration": 0.366514,
          "velocity": 1
        },
        {
          "time": 619.244641,
          "name": "C#2",
          "midi": 37,
          "duration": 0.384436,
          "velocity": 0.669291
        },
        {
          "time": 619.244641,
          "name": "C2",
          "midi": 36,
          "duration": 0.384436,
          "velocity": 0.669291
        },
        {
          "time": 619.244641,
          "name": "B2",
          "midi": 47,
          "duration": 0.36631,
          "velocity": 0.88189
        },
        {
          "time": 619.620014,
          "name": "E3",
          "midi": 52,
          "duration": 0.34523,
          "velocity": 0.96063
        },
        {
          "time": 619.626056,
          "name": "E2",
          "midi": 40,
          "duration": 0.345639,
          "velocity": 1
        },
        {
          "time": 619.629077,
          "name": "E2",
          "midi": 40,
          "duration": 0.345844,
          "velocity": 0.88189
        },
        {
          "time": 619.984598,
          "name": "G3",
          "midi": 55,
          "duration": 0.183871,
          "velocity": 0.96063
        },
        {
          "time": 619.99105,
          "name": "G2",
          "midi": 43,
          "duration": 0.183871,
          "velocity": 1
        },
        {
          "time": 619.994276,
          "name": "C#2",
          "midi": 37,
          "duration": 0.384436,
          "velocity": 0.669291
        },
        {
          "time": 619.994276,
          "name": "C2",
          "midi": 36,
          "duration": 0.384436,
          "velocity": 0.669291
        },
        {
          "time": 619.994276,
          "name": "G2",
          "midi": 43,
          "duration": 0.183871,
          "velocity": 0.88189
        },
        {
          "time": 620.178147,
          "name": "B3",
          "midi": 59,
          "duration": 0.182438,
          "velocity": 0.96063
        },
        {
          "time": 620.184598,
          "name": "B2",
          "midi": 47,
          "duration": 0.182029,
          "velocity": 1
        },
        {
          "time": 620.187824,
          "name": "B2",
          "midi": 47,
          "duration": 0.181824,
          "velocity": 0.88189
        },
        {
          "time": 620.369649,
          "name": "E3",
          "midi": 52,
          "duration": 0.172206,
          "velocity": 0.96063
        },
        {
          "time": 620.375691,
          "name": "E2",
          "midi": 40,
          "duration": 0.172206,
          "velocity": 1
        },
        {
          "time": 620.378712,
          "name": "E2",
          "midi": 40,
          "duration": 0.172206,
          "velocity": 0.88189
        },
        {
          "time": 620.550918,
          "name": "A2",
          "midi": 45,
          "duration": 0.173638,
          "velocity": 0.96063
        },
        {
          "time": 620.55696,
          "name": "A2",
          "midi": 45,
          "duration": 0.174047,
          "velocity": 1
        },
        {
          "time": 620.559981,
          "name": "A2",
          "midi": 45,
          "duration": 0.174252,
          "velocity": 0.88189
        },
        {
          "time": 620.734233,
          "name": "D3",
          "midi": 50,
          "duration": 0.193549,
          "velocity": 0.96063
        },
        {
          "time": 620.740685,
          "name": "D2",
          "midi": 38,
          "duration": 0.193549,
          "velocity": 1
        },
        {
          "time": 620.743911,
          "name": "C#2",
          "midi": 37,
          "duration": 0.193548,
          "velocity": 0.669291
        },
        {
          "time": 620.743911,
          "name": "C2",
          "midi": 36,
          "duration": 0.193548,
          "velocity": 0.669291
        },
        {
          "time": 620.743911,
          "name": "D2",
          "midi": 38,
          "duration": 0.193548,
          "velocity": 0.88189
        },
        {
          "time": 620.937459,
          "name": "D3",
          "midi": 50,
          "duration": 0.190888,
          "velocity": 0.88189
        },
        {
          "time": 621.493546,
          "name": "D2",
          "midi": 38,
          "duration": 0.193548,
          "velocity": 0.88189
        },
        {
          "time": 621.687094,
          "name": "D3",
          "midi": 50,
          "duration": 0.190888,
          "velocity": 0.88189
        },
        {
          "time": 622.243181,
          "name": "D2",
          "midi": 38,
          "duration": 0.193548,
          "velocity": 0.88189
        },
        {
          "time": 622.436729,
          "name": "D3",
          "midi": 50,
          "duration": 0.190888,
          "velocity": 0.88189
        },
        {
          "time": 622.992816,
          "name": "D2",
          "midi": 38,
          "duration": 0.193548,
          "velocity": 0.88189
        },
        {
          "time": 623.186364,
          "name": "D3",
          "midi": 50,
          "duration": 0.190888,
          "velocity": 0.88189
        },
        {
          "time": 623.742451,
          "name": "D2",
          "midi": 38,
          "duration": 0.193548,
          "velocity": 0.88189
        },
        {
          "time": 623.935999,
          "name": "D3",
          "midi": 50,
          "duration": 0.190888,
          "velocity": 0.88189
        },
        {
          "time": 624.492086,
          "name": "D2",
          "midi": 38,
          "duration": 0.193548,
          "velocity": 0.88189
        },
        {
          "time": 624.685634,
          "name": "D3",
          "midi": 50,
          "duration": 0.190888,
          "velocity": 0.88189
        },
        {
          "time": 625.241721,
          "name": "D2",
          "midi": 38,
          "duration": 0.193548,
          "velocity": 0.88189
        },
        {
          "time": 625.435269,
          "name": "D3",
          "midi": 50,
          "duration": 0.190888,
          "velocity": 0.88189
        },
        {
          "time": 625.991356,
          "name": "D2",
          "midi": 38,
          "duration": 0.193548,
          "velocity": 0.88189
        },
        {
          "time": 626.184904,
          "name": "D3",
          "midi": 50,
          "duration": 0.190888,
          "velocity": 0.88189
        },
        {
          "time": 626.740991,
          "name": "D2",
          "midi": 38,
          "duration": 0.193548,
          "velocity": 0.88189
        },
        {
          "time": 626.934539,
          "name": "D3",
          "midi": 50,
          "duration": 0.190888,
          "velocity": 0.88189
        },
        {
          "time": 627.480948,
          "name": "D3",
          "midi": 50,
          "duration": 1.49927,
          "velocity": 0.96063
        },
        {
          "time": 627.484174,
          "name": "D3",
          "midi": 50,
          "duration": 0.096774,
          "velocity": 0.433071
        },
        {
          "time": 627.490626,
          "name": "D2",
          "midi": 38,
          "duration": 1.49927,
          "velocity": 0.88189
        },
        {
          "time": 627.580948,
          "name": "D3",
          "midi": 50,
          "duration": 0.096774,
          "velocity": 0.433071
        },
        {
          "time": 627.677723,
          "name": "D3",
          "midi": 50,
          "duration": 0.096774,
          "velocity": 0.433071
        },
        {
          "time": 627.774497,
          "name": "D3",
          "midi": 50,
          "duration": 0.094523,
          "velocity": 0.440945
        },
        {
          "time": 627.86902,
          "name": "D3",
          "midi": 50,
          "duration": 0.090635,
          "velocity": 0.440945
        },
        {
          "time": 627.959654,
          "name": "D3",
          "midi": 50,
          "duration": 0.090634,
          "velocity": 0.448819
        },
        {
          "time": 628.050289,
          "name": "D3",
          "midi": 50,
          "duration": 0.090634,
          "velocity": 0.448819
        },
        {
          "time": 628.140923,
          "name": "D3",
          "midi": 50,
          "duration": 0.092886,
          "velocity": 0.448819
        },
        {
          "time": 628.233809,
          "name": "D3",
          "midi": 50,
          "duration": 0.096774,
          "velocity": 0.456693
        },
        {
          "time": 628.330583,
          "name": "D3",
          "midi": 50,
          "duration": 0.096774,
          "velocity": 0.456693
        },
        {
          "time": 628.427358,
          "name": "D3",
          "midi": 50,
          "duration": 0.096774,
          "velocity": 0.464567
        },
        {
          "time": 628.524132,
          "name": "D3",
          "midi": 50,
          "duration": 0.094523,
          "velocity": 0.464567
        },
        {
          "time": 628.618655,
          "name": "D3",
          "midi": 50,
          "duration": 0.090635,
          "velocity": 0.472441
        },
        {
          "time": 628.709289,
          "name": "D3",
          "midi": 50,
          "duration": 0.090634,
          "velocity": 0.472441
        },
        {
          "time": 628.799924,
          "name": "D3",
          "midi": 50,
          "duration": 0.090634,
          "velocity": 0.472441
        },
        {
          "time": 628.890558,
          "name": "D3",
          "midi": 50,
          "duration": 0.092886,
          "velocity": 0.480315
        },
        {
          "time": 628.980218,
          "name": "D3",
          "midi": 50,
          "duration": 1.49927,
          "velocity": 0.96063
        },
        {
          "time": 628.983444,
          "name": "D3",
          "midi": 50,
          "duration": 0.096774,
          "velocity": 0.480315
        },
        {
          "time": 628.989896,
          "name": "D2",
          "midi": 38,
          "duration": 1.49927,
          "velocity": 0.88189
        },
        {
          "time": 629.080218,
          "name": "D3",
          "midi": 50,
          "duration": 0.096774,
          "velocity": 0.488189
        },
        {
          "time": 629.176993,
          "name": "D3",
          "midi": 50,
          "duration": 0.096774,
          "velocity": 0.488189
        },
        {
          "time": 629.273767,
          "name": "D3",
          "midi": 50,
          "duration": 0.094523,
          "velocity": 0.488189
        },
        {
          "time": 629.36829,
          "name": "D3",
          "midi": 50,
          "duration": 0.090635,
          "velocity": 0.496063
        },
        {
          "time": 629.458924,
          "name": "D3",
          "midi": 50,
          "duration": 0.090634,
          "velocity": 0.496063
        },
        {
          "time": 629.549559,
          "name": "D3",
          "midi": 50,
          "duration": 0.090634,
          "velocity": 0.503937
        },
        {
          "time": 629.640193,
          "name": "D3",
          "midi": 50,
          "duration": 0.092886,
          "velocity": 0.503937
        },
        {
          "time": 629.733079,
          "name": "D3",
          "midi": 50,
          "duration": 0.096774,
          "velocity": 0.511811
        },
        {
          "time": 629.829853,
          "name": "D3",
          "midi": 50,
          "duration": 0.096774,
          "velocity": 0.511811
        },
        {
          "time": 629.926628,
          "name": "D3",
          "midi": 50,
          "duration": 0.096774,
          "velocity": 0.511811
        },
        {
          "time": 630.023402,
          "name": "D3",
          "midi": 50,
          "duration": 0.094523,
          "velocity": 0.519685
        },
        {
          "time": 630.117925,
          "name": "D3",
          "midi": 50,
          "duration": 0.090635,
          "velocity": 0.519685
        },
        {
          "time": 630.208559,
          "name": "D3",
          "midi": 50,
          "duration": 0.090634,
          "velocity": 0.527559
        },
        {
          "time": 630.299194,
          "name": "D3",
          "midi": 50,
          "duration": 0.090634,
          "velocity": 0.527559
        },
        {
          "time": 630.389828,
          "name": "D3",
          "midi": 50,
          "duration": 0.092886,
          "velocity": 0.527559
        },
        {
          "time": 630.479488,
          "name": "D3",
          "midi": 50,
          "duration": 1.692819,
          "velocity": 0.96063
        },
        {
          "time": 630.482714,
          "name": "D3",
          "midi": 50,
          "duration": 0.096774,
          "velocity": 0.535433
        },
        {
          "time": 630.489166,
          "name": "D2",
          "midi": 38,
          "duration": 1.692818,
          "velocity": 0.88189
        },
        {
          "time": 630.579488,
          "name": "D3",
          "midi": 50,
          "duration": 0.096774,
          "velocity": 0.535433
        },
        {
          "time": 630.676263,
          "name": "D3",
          "midi": 50,
          "duration": 0.096774,
          "velocity": 0.543307
        },
        {
          "time": 630.773037,
          "name": "D3",
          "midi": 50,
          "duration": 0.094523,
          "velocity": 0.543307
        },
        {
          "time": 630.86756,
          "name": "D3",
          "midi": 50,
          "duration": 0.090635,
          "velocity": 0.551181
        },
        {
          "time": 630.958194,
          "name": "D3",
          "midi": 50,
          "duration": 0.090634,
          "velocity": 0.551181
        },
        {
          "time": 631.048829,
          "name": "D3",
          "midi": 50,
          "duration": 0.090634,
          "velocity": 0.551181
        },
        {
          "time": 631.139463,
          "name": "D3",
          "midi": 50,
          "duration": 0.092886,
          "velocity": 0.559055
        },
        {
          "time": 631.232349,
          "name": "D3",
          "midi": 50,
          "duration": 0.096774,
          "velocity": 0.559055
        },
        {
          "time": 631.329123,
          "name": "D3",
          "midi": 50,
          "duration": 0.096774,
          "velocity": 0.566929
        },
        {
          "time": 631.425898,
          "name": "D3",
          "midi": 50,
          "duration": 0.096774,
          "velocity": 0.566929
        },
        {
          "time": 631.522672,
          "name": "D3",
          "midi": 50,
          "duration": 0.094523,
          "velocity": 0.566929
        },
        {
          "time": 631.617195,
          "name": "D3",
          "midi": 50,
          "duration": 0.090635,
          "velocity": 0.574803
        },
        {
          "time": 631.707829,
          "name": "D3",
          "midi": 50,
          "duration": 0.090634,
          "velocity": 0.574803
        },
        {
          "time": 631.798464,
          "name": "D3",
          "midi": 50,
          "duration": 0.090634,
          "velocity": 0.582677
        },
        {
          "time": 631.889098,
          "name": "D3",
          "midi": 50,
          "duration": 0.092886,
          "velocity": 0.582677
        },
        {
          "time": 631.981984,
          "name": "D3",
          "midi": 50,
          "duration": 0.193549,
          "velocity": 0.590551
        },
        {
          "time": 633.478028,
          "name": "G2",
          "midi": 43,
          "duration": 0.193549,
          "velocity": 0.96063
        },
        {
          "time": 633.481254,
          "name": "G2",
          "midi": 43,
          "duration": 0.193549,
          "velocity": 0.590551
        },
        {
          "time": 633.48448,
          "name": "G2",
          "midi": 43,
          "duration": 0.193549,
          "velocity": 1
        },
        {
          "time": 633.487706,
          "name": "C#2",
          "midi": 37,
          "duration": 0.384436,
          "velocity": 0.669291
        },
        {
          "time": 633.487706,
          "name": "C2",
          "midi": 36,
          "duration": 0.384436,
          "velocity": 0.669291
        },
        {
          "time": 633.487706,
          "name": "G1",
          "midi": 31,
          "duration": 0.193548,
          "velocity": 0.88189
        },
        {
          "time": 633.863079,
          "name": "G2",
          "midi": 43,
          "duration": 0.181269,
          "velocity": 0.96063
        },
        {
          "time": 633.8661,
          "name": "G2",
          "midi": 43,
          "duration": 0.181269,
          "velocity": 0.590551
        },
        {
          "time": 633.869121,
          "name": "G2",
          "midi": 43,
          "duration": 0.181269,
          "velocity": 1
        },
        {
          "time": 633.872142,
          "name": "C#2",
          "midi": 37,
          "duration": 0.365199,
          "velocity": 0.669291
        },
        {
          "time": 633.872142,
          "name": "C2",
          "midi": 36,
          "duration": 0.365199,
          "velocity": 0.669291
        },
        {
          "time": 633.872142,
          "name": "G1",
          "midi": 31,
          "duration": 0.181269,
          "velocity": 0.88189
        },
        {
          "time": 634.227663,
          "name": "G2",
          "midi": 43,
          "duration": 0.193549,
          "velocity": 0.96063
        },
        {
          "time": 634.230889,
          "name": "G2",
          "midi": 43,
          "duration": 0.193549,
          "velocity": 0.590551
        },
        {
          "time": 634.234115,
          "name": "G2",
          "midi": 43,
          "duration": 0.193549,
          "velocity": 1
        },
        {
          "time": 634.237341,
          "name": "C#2",
          "midi": 37,
          "duration": 0.384436,
          "velocity": 0.669291
        },
        {
          "time": 634.237341,
          "name": "C2",
          "midi": 36,
          "duration": 0.384436,
          "velocity": 0.669291
        },
        {
          "time": 634.237341,
          "name": "G1",
          "midi": 31,
          "duration": 0.193548,
          "velocity": 0.88189
        },
        {
          "time": 634.612714,
          "name": "G2",
          "midi": 43,
          "duration": 0.181269,
          "velocity": 0.96063
        },
        {
          "time": 634.615735,
          "name": "G2",
          "midi": 43,
          "duration": 0.181269,
          "velocity": 0.590551
        },
        {
          "time": 634.618756,
          "name": "G2",
          "midi": 43,
          "duration": 0.181269,
          "velocity": 1
        },
        {
          "time": 634.621777,
          "name": "C#2",
          "midi": 37,
          "duration": 0.365199,
          "velocity": 0.669291
        },
        {
          "time": 634.621777,
          "name": "C2",
          "midi": 36,
          "duration": 0.365199,
          "velocity": 0.669291
        },
        {
          "time": 634.621777,
          "name": "G1",
          "midi": 31,
          "duration": 0.181269,
          "velocity": 0.88189
        },
        {
          "time": 634.977298,
          "name": "G2",
          "midi": 43,
          "duration": 0.193549,
          "velocity": 0.96063
        },
        {
          "time": 634.980524,
          "name": "G2",
          "midi": 43,
          "duration": 0.193549,
          "velocity": 0.590551
        },
        {
          "time": 634.98375,
          "name": "G2",
          "midi": 43,
          "duration": 0.193549,
          "velocity": 1
        },
        {
          "time": 634.986976,
          "name": "C#2",
          "midi": 37,
          "duration": 0.384436,
          "velocity": 0.669291
        },
        {
          "time": 634.986976,
          "name": "C2",
          "midi": 36,
          "duration": 0.384436,
          "velocity": 0.669291
        },
        {
          "time": 634.986976,
          "name": "G1",
          "midi": 31,
          "duration": 0.193548,
          "velocity": 0.88189
        },
        {
          "time": 635.362349,
          "name": "G2",
          "midi": 43,
          "duration": 0.181269,
          "velocity": 0.96063
        },
        {
          "time": 635.36537,
          "name": "G2",
          "midi": 43,
          "duration": 0.181269,
          "velocity": 0.590551
        },
        {
          "time": 635.368391,
          "name": "G2",
          "midi": 43,
          "duration": 0.181269,
          "velocity": 1
        },
        {
          "time": 635.371412,
          "name": "C#2",
          "midi": 37,
          "duration": 0.365199,
          "velocity": 0.669291
        },
        {
          "time": 635.371412,
          "name": "C2",
          "midi": 36,
          "duration": 0.365199,
          "velocity": 0.669291
        },
        {
          "time": 635.371412,
          "name": "G1",
          "midi": 31,
          "duration": 0.181269,
          "velocity": 0.88189
        },
        {
          "time": 635.726933,
          "name": "G2",
          "midi": 43,
          "duration": 0.193549,
          "velocity": 0.96063
        },
        {
          "time": 635.730159,
          "name": "G2",
          "midi": 43,
          "duration": 0.193549,
          "velocity": 0.590551
        },
        {
          "time": 635.733385,
          "name": "G2",
          "midi": 43,
          "duration": 0.193549,
          "velocity": 1
        },
        {
          "time": 635.736611,
          "name": "C#2",
          "midi": 37,
          "duration": 0.384436,
          "velocity": 0.669291
        },
        {
          "time": 635.736611,
          "name": "C2",
          "midi": 36,
          "duration": 0.384436,
          "velocity": 0.669291
        },
        {
          "time": 635.736611,
          "name": "G1",
          "midi": 31,
          "duration": 0.193548,
          "velocity": 0.88189
        },
        {
          "time": 636.111984,
          "name": "G2",
          "midi": 43,
          "duration": 0.181269,
          "velocity": 0.96063
        },
        {
          "time": 636.115005,
          "name": "G2",
          "midi": 43,
          "duration": 0.181269,
          "velocity": 0.590551
        },
        {
          "time": 636.118026,
          "name": "G2",
          "midi": 43,
          "duration": 0.181269,
          "velocity": 1
        },
        {
          "time": 636.121047,
          "name": "C#2",
          "midi": 37,
          "duration": 0.365199,
          "velocity": 0.669291
        },
        {
          "time": 636.121047,
          "name": "C2",
          "midi": 36,
          "duration": 0.365199,
          "velocity": 0.669291
        },
        {
          "time": 636.121047,
          "name": "G1",
          "midi": 31,
          "duration": 0.181269,
          "velocity": 0.88189
        },
        {
          "time": 636.476568,
          "name": "G2",
          "midi": 43,
          "duration": 0.193549,
          "velocity": 0.96063
        },
        {
          "time": 636.479794,
          "name": "G2",
          "midi": 43,
          "duration": 0.193549,
          "velocity": 0.590551
        },
        {
          "time": 636.48302,
          "name": "G2",
          "midi": 43,
          "duration": 0.193549,
          "velocity": 1
        },
        {
          "time": 636.486246,
          "name": "C#2",
          "midi": 37,
          "duration": 0.384436,
          "velocity": 0.669291
        },
        {
          "time": 636.486246,
          "name": "C2",
          "midi": 36,
          "duration": 0.384436,
          "velocity": 0.669291
        },
        {
          "time": 636.486246,
          "name": "G1",
          "midi": 31,
          "duration": 0.193548,
          "velocity": 0.88189
        },
        {
          "time": 636.861619,
          "name": "G2",
          "midi": 43,
          "duration": 0.181269,
          "velocity": 0.96063
        },
        {
          "time": 636.86464,
          "name": "G2",
          "midi": 43,
          "duration": 0.181269,
          "velocity": 0.590551
        },
        {
          "time": 636.867661,
          "name": "G2",
          "midi": 43,
          "duration": 0.181269,
          "velocity": 1
        },
        {
          "time": 636.870682,
          "name": "C#2",
          "midi": 37,
          "duration": 0.365199,
          "velocity": 0.669291
        },
        {
          "time": 636.870682,
          "name": "C2",
          "midi": 36,
          "duration": 0.365199,
          "velocity": 0.669291
        },
        {
          "time": 636.870682,
          "name": "G1",
          "midi": 31,
          "duration": 0.181269,
          "velocity": 0.88189
        },
        {
          "time": 637.226203,
          "name": "G2",
          "midi": 43,
          "duration": 0.193549,
          "velocity": 0.96063
        },
        {
          "time": 637.229429,
          "name": "G2",
          "midi": 43,
          "duration": 0.193549,
          "velocity": 0.590551
        },
        {
          "time": 637.232655,
          "name": "G2",
          "midi": 43,
          "duration": 0.193549,
          "velocity": 1
        },
        {
          "time": 637.235881,
          "name": "C#2",
          "midi": 37,
          "duration": 0.384436,
          "velocity": 0.669291
        },
        {
          "time": 637.235881,
          "name": "C2",
          "midi": 36,
          "duration": 0.384436,
          "velocity": 0.669291
        },
        {
          "time": 637.235881,
          "name": "G1",
          "midi": 31,
          "duration": 0.193548,
          "velocity": 0.88189
        },
        {
          "time": 637.611254,
          "name": "G2",
          "midi": 43,
          "duration": 0.181269,
          "velocity": 0.96063
        },
        {
          "time": 637.614275,
          "name": "G2",
          "midi": 43,
          "duration": 0.181269,
          "velocity": 0.590551
        },
        {
          "time": 637.617296,
          "name": "G2",
          "midi": 43,
          "duration": 0.181269,
          "velocity": 1
        },
        {
          "time": 637.620317,
          "name": "C#2",
          "midi": 37,
          "duration": 0.365199,
          "velocity": 0.669291
        },
        {
          "time": 637.620317,
          "name": "C2",
          "midi": 36,
          "duration": 0.365199,
          "velocity": 0.669291
        },
        {
          "time": 637.620317,
          "name": "G1",
          "midi": 31,
          "duration": 0.181269,
          "velocity": 0.88189
        },
        {
          "time": 637.975838,
          "name": "G2",
          "midi": 43,
          "duration": 0.193549,
          "velocity": 0.96063
        },
        {
          "time": 637.979064,
          "name": "G2",
          "midi": 43,
          "duration": 0.193549,
          "velocity": 0.590551
        },
        {
          "time": 637.98229,
          "name": "G2",
          "midi": 43,
          "duration": 0.193549,
          "velocity": 1
        },
        {
          "time": 637.985516,
          "name": "C#2",
          "midi": 37,
          "duration": 0.384436,
          "velocity": 0.669291
        },
        {
          "time": 637.985516,
          "name": "C2",
          "midi": 36,
          "duration": 0.384436,
          "velocity": 0.669291
        },
        {
          "time": 637.985516,
          "name": "G1",
          "midi": 31,
          "duration": 0.193548,
          "velocity": 0.88189
        },
        {
          "time": 638.360889,
          "name": "G2",
          "midi": 43,
          "duration": 0.181269,
          "velocity": 0.96063
        },
        {
          "time": 638.36391,
          "name": "G2",
          "midi": 43,
          "duration": 0.181269,
          "velocity": 0.590551
        },
        {
          "time": 638.366931,
          "name": "G2",
          "midi": 43,
          "duration": 0.181269,
          "velocity": 1
        },
        {
          "time": 638.369952,
          "name": "C#2",
          "midi": 37,
          "duration": 0.365199,
          "velocity": 0.669291
        },
        {
          "time": 638.369952,
          "name": "C2",
          "midi": 36,
          "duration": 0.365199,
          "velocity": 0.669291
        },
        {
          "time": 638.369952,
          "name": "G1",
          "midi": 31,
          "duration": 0.181269,
          "velocity": 0.88189
        },
        {
          "time": 638.725473,
          "name": "G2",
          "midi": 43,
          "duration": 0.193549,
          "velocity": 0.96063
        },
        {
          "time": 638.728699,
          "name": "G2",
          "midi": 43,
          "duration": 0.193549,
          "velocity": 0.590551
        },
        {
          "time": 638.731925,
          "name": "G2",
          "midi": 43,
          "duration": 0.193549,
          "velocity": 1
        },
        {
          "time": 638.735151,
          "name": "C#2",
          "midi": 37,
          "duration": 0.384436,
          "velocity": 0.669291
        },
        {
          "time": 638.735151,
          "name": "C2",
          "midi": 36,
          "duration": 0.384436,
          "velocity": 0.669291
        },
        {
          "time": 638.735151,
          "name": "G1",
          "midi": 31,
          "duration": 0.193548,
          "velocity": 0.88189
        },
        {
          "time": 639.110524,
          "name": "G2",
          "midi": 43,
          "duration": 0.181269,
          "velocity": 0.96063
        },
        {
          "time": 639.113545,
          "name": "G2",
          "midi": 43,
          "duration": 0.181269,
          "velocity": 0.590551
        },
        {
          "time": 639.116566,
          "name": "G2",
          "midi": 43,
          "duration": 0.181269,
          "velocity": 1
        },
        {
          "time": 639.119587,
          "name": "C#2",
          "midi": 37,
          "duration": 0.365199,
          "velocity": 0.669291
        },
        {
          "time": 639.119587,
          "name": "C2",
          "midi": 36,
          "duration": 0.365199,
          "velocity": 0.669291
        },
        {
          "time": 639.119587,
          "name": "G1",
          "midi": 31,
          "duration": 0.181269,
          "velocity": 0.88189
        },
        {
          "time": 639.475108,
          "name": "G2",
          "midi": 43,
          "duration": 0.193549,
          "velocity": 0.96063
        },
        {
          "time": 639.478334,
          "name": "G2",
          "midi": 43,
          "duration": 0.193549,
          "velocity": 0.590551
        },
        {
          "time": 639.48156,
          "name": "G2",
          "midi": 43,
          "duration": 0.193549,
          "velocity": 1
        },
        {
          "time": 639.484786,
          "name": "C#2",
          "midi": 37,
          "duration": 0.384436,
          "velocity": 0.669291
        },
        {
          "time": 639.484786,
          "name": "C2",
          "midi": 36,
          "duration": 0.384436,
          "velocity": 0.669291
        },
        {
          "time": 639.484786,
          "name": "G1",
          "midi": 31,
          "duration": 0.193548,
          "velocity": 0.88189
        },
        {
          "time": 639.860159,
          "name": "G2",
          "midi": 43,
          "duration": 0.181269,
          "velocity": 0.96063
        },
        {
          "time": 639.86318,
          "name": "G2",
          "midi": 43,
          "duration": 0.181269,
          "velocity": 0.590551
        },
        {
          "time": 639.866201,
          "name": "G2",
          "midi": 43,
          "duration": 0.181269,
          "velocity": 1
        },
        {
          "time": 639.869222,
          "name": "C#2",
          "midi": 37,
          "duration": 0.365199,
          "velocity": 0.669291
        },
        {
          "time": 639.869222,
          "name": "C2",
          "midi": 36,
          "duration": 0.365199,
          "velocity": 0.669291
        },
        {
          "time": 639.869222,
          "name": "G1",
          "midi": 31,
          "duration": 0.181269,
          "velocity": 0.88189
        },
        {
          "time": 640.224743,
          "name": "G2",
          "midi": 43,
          "duration": 0.193549,
          "velocity": 0.96063
        },
        {
          "time": 640.227969,
          "name": "G2",
          "midi": 43,
          "duration": 0.193549,
          "velocity": 0.590551
        },
        {
          "time": 640.231195,
          "name": "G2",
          "midi": 43,
          "duration": 0.193549,
          "velocity": 1
        },
        {
          "time": 640.234421,
          "name": "C#2",
          "midi": 37,
          "duration": 0.384436,
          "velocity": 0.669291
        },
        {
          "time": 640.234421,
          "name": "C2",
          "midi": 36,
          "duration": 0.384436,
          "velocity": 0.669291
        },
        {
          "time": 640.234421,
          "name": "G1",
          "midi": 31,
          "duration": 0.193548,
          "velocity": 0.88189
        },
        {
          "time": 640.609794,
          "name": "G2",
          "midi": 43,
          "duration": 0.181269,
          "velocity": 0.96063
        },
        {
          "time": 640.612815,
          "name": "G2",
          "midi": 43,
          "duration": 0.181269,
          "velocity": 0.590551
        },
        {
          "time": 640.615836,
          "name": "G2",
          "midi": 43,
          "duration": 0.181269,
          "velocity": 1
        },
        {
          "time": 640.618857,
          "name": "C#2",
          "midi": 37,
          "duration": 0.365199,
          "velocity": 0.669291
        },
        {
          "time": 640.618857,
          "name": "C2",
          "midi": 36,
          "duration": 0.365199,
          "velocity": 0.669291
        },
        {
          "time": 640.618857,
          "name": "G1",
          "midi": 31,
          "duration": 0.181269,
          "velocity": 0.88189
        },
        {
          "time": 640.974378,
          "name": "G2",
          "midi": 43,
          "duration": 0.193549,
          "velocity": 0.96063
        },
        {
          "time": 640.977604,
          "name": "G2",
          "midi": 43,
          "duration": 0.193549,
          "velocity": 0.590551
        },
        {
          "time": 640.98083,
          "name": "G2",
          "midi": 43,
          "duration": 0.193549,
          "velocity": 1
        },
        {
          "time": 640.984056,
          "name": "C#2",
          "midi": 37,
          "duration": 0.384436,
          "velocity": 0.669291
        },
        {
          "time": 640.984056,
          "name": "C2",
          "midi": 36,
          "duration": 0.384436,
          "velocity": 0.669291
        },
        {
          "time": 640.984056,
          "name": "G1",
          "midi": 31,
          "duration": 0.193548,
          "velocity": 0.88189
        },
        {
          "time": 641.359429,
          "name": "G2",
          "midi": 43,
          "duration": 0.181269,
          "velocity": 0.96063
        },
        {
          "time": 641.36245,
          "name": "G2",
          "midi": 43,
          "duration": 0.181269,
          "velocity": 0.590551
        },
        {
          "time": 641.365471,
          "name": "G2",
          "midi": 43,
          "duration": 0.181269,
          "velocity": 1
        },
        {
          "time": 641.368492,
          "name": "C#2",
          "midi": 37,
          "duration": 0.365199,
          "velocity": 0.669291
        },
        {
          "time": 641.368492,
          "name": "C2",
          "midi": 36,
          "duration": 0.365199,
          "velocity": 0.669291
        },
        {
          "time": 641.368492,
          "name": "G1",
          "midi": 31,
          "duration": 0.181269,
          "velocity": 0.88189
        },
        {
          "time": 641.724013,
          "name": "G2",
          "midi": 43,
          "duration": 0.193549,
          "velocity": 0.96063
        },
        {
          "time": 641.727239,
          "name": "G2",
          "midi": 43,
          "duration": 0.193549,
          "velocity": 0.590551
        },
        {
          "time": 641.730465,
          "name": "G2",
          "midi": 43,
          "duration": 0.193549,
          "velocity": 1
        },
        {
          "time": 641.733691,
          "name": "C#2",
          "midi": 37,
          "duration": 0.384436,
          "velocity": 0.669291
        },
        {
          "time": 641.733691,
          "name": "C2",
          "midi": 36,
          "duration": 0.384436,
          "velocity": 0.669291
        },
        {
          "time": 641.733691,
          "name": "G1",
          "midi": 31,
          "duration": 0.193548,
          "velocity": 0.88189
        },
        {
          "time": 642.109064,
          "name": "G2",
          "midi": 43,
          "duration": 0.181269,
          "velocity": 0.96063
        },
        {
          "time": 642.112085,
          "name": "G2",
          "midi": 43,
          "duration": 0.181269,
          "velocity": 0.590551
        },
        {
          "time": 642.115106,
          "name": "G2",
          "midi": 43,
          "duration": 0.181269,
          "velocity": 1
        },
        {
          "time": 642.118127,
          "name": "C#2",
          "midi": 37,
          "duration": 0.365199,
          "velocity": 0.669291
        },
        {
          "time": 642.118127,
          "name": "C2",
          "midi": 36,
          "duration": 0.365199,
          "velocity": 0.669291
        },
        {
          "time": 642.118127,
          "name": "G1",
          "midi": 31,
          "duration": 0.181269,
          "velocity": 0.88189
        },
        {
          "time": 642.473648,
          "name": "E3",
          "midi": 52,
          "duration": 0.193549,
          "velocity": 0.96063
        },
        {
          "time": 642.476874,
          "name": "G2",
          "midi": 43,
          "duration": 0.193549,
          "velocity": 0.590551
        },
        {
          "time": 642.4801,
          "name": "E2",
          "midi": 40,
          "duration": 0.193549,
          "velocity": 1
        },
        {
          "time": 642.483326,
          "name": "C#2",
          "midi": 37,
          "duration": 0.384436,
          "velocity": 0.669291
        },
        {
          "time": 642.483326,
          "name": "C2",
          "midi": 36,
          "duration": 0.384436,
          "velocity": 0.669291
        },
        {
          "time": 642.483326,
          "name": "E2",
          "midi": 40,
          "duration": 0.193548,
          "velocity": 0.88189
        },
        {
          "time": 642.858699,
          "name": "E3",
          "midi": 52,
          "duration": 0.181269,
          "velocity": 0.96063
        },
        {
          "time": 642.86172,
          "name": "G2",
          "midi": 43,
          "duration": 0.181269,
          "velocity": 0.590551
        },
        {
          "time": 642.864741,
          "name": "E2",
          "midi": 40,
          "duration": 0.181269,
          "velocity": 1
        },
        {
          "time": 642.867762,
          "name": "C#2",
          "midi": 37,
          "duration": 0.365199,
          "velocity": 0.669291
        },
        {
          "time": 642.867762,
          "name": "C2",
          "midi": 36,
          "duration": 0.365199,
          "velocity": 0.669291
        },
        {
          "time": 642.867762,
          "name": "E2",
          "midi": 40,
          "duration": 0.181269,
          "velocity": 0.88189
        },
        {
          "time": 643.223283,
          "name": "E3",
          "midi": 52,
          "duration": 0.193549,
          "velocity": 0.96063
        },
        {
          "time": 643.226509,
          "name": "G2",
          "midi": 43,
          "duration": 0.193549,
          "velocity": 0.590551
        },
        {
          "time": 643.229735,
          "name": "E2",
          "midi": 40,
          "duration": 0.193549,
          "velocity": 1
        },
        {
          "time": 643.232961,
          "name": "C#2",
          "midi": 37,
          "duration": 0.384436,
          "velocity": 0.669291
        },
        {
          "time": 643.232961,
          "name": "C2",
          "midi": 36,
          "duration": 0.384436,
          "velocity": 0.669291
        },
        {
          "time": 643.232961,
          "name": "E2",
          "midi": 40,
          "duration": 0.193548,
          "velocity": 0.88189
        },
        {
          "time": 643.608334,
          "name": "E3",
          "midi": 52,
          "duration": 0.181269,
          "velocity": 0.96063
        },
        {
          "time": 643.611355,
          "name": "G2",
          "midi": 43,
          "duration": 0.181269,
          "velocity": 0.590551
        },
        {
          "time": 643.614376,
          "name": "E2",
          "midi": 40,
          "duration": 0.181269,
          "velocity": 1
        },
        {
          "time": 643.617397,
          "name": "C#2",
          "midi": 37,
          "duration": 0.365199,
          "velocity": 0.669291
        },
        {
          "time": 643.617397,
          "name": "C2",
          "midi": 36,
          "duration": 0.365199,
          "velocity": 0.669291
        },
        {
          "time": 643.617397,
          "name": "E2",
          "midi": 40,
          "duration": 0.181269,
          "velocity": 0.88189
        },
        {
          "time": 643.972918,
          "name": "B2",
          "midi": 47,
          "duration": 0.193549,
          "velocity": 0.96063
        },
        {
          "time": 643.97937,
          "name": "B1",
          "midi": 35,
          "duration": 0.193549,
          "velocity": 1
        },
        {
          "time": 643.982596,
          "name": "C#2",
          "midi": 37,
          "duration": 0.384436,
          "velocity": 0.669291
        },
        {
          "time": 643.982596,
          "name": "C2",
          "midi": 36,
          "duration": 0.384436,
          "velocity": 0.669291
        },
        {
          "time": 643.982596,
          "name": "B1",
          "midi": 35,
          "duration": 0.193548,
          "velocity": 0.88189
        },
        {
          "time": 644.357969,
          "name": "B2",
          "midi": 47,
          "duration": 0.181269,
          "velocity": 0.96063
        },
        {
          "time": 644.364011,
          "name": "B1",
          "midi": 35,
          "duration": 0.181269,
          "velocity": 1
        },
        {
          "time": 644.367032,
          "name": "C#2",
          "midi": 37,
          "duration": 0.365199,
          "velocity": 0.669291
        },
        {
          "time": 644.367032,
          "name": "C2",
          "midi": 36,
          "duration": 0.365199,
          "velocity": 0.669291
        },
        {
          "time": 644.367032,
          "name": "B1",
          "midi": 35,
          "duration": 0.181269,
          "velocity": 0.88189
        },
        {
          "time": 644.722553,
          "name": "B2",
          "midi": 47,
          "duration": 0.193549,
          "velocity": 0.96063
        },
        {
          "time": 644.729005,
          "name": "B1",
          "midi": 35,
          "duration": 0.193549,
          "velocity": 1
        },
        {
          "time": 644.732231,
          "name": "C#2",
          "midi": 37,
          "duration": 0.384436,
          "velocity": 0.669291
        },
        {
          "time": 644.732231,
          "name": "C2",
          "midi": 36,
          "duration": 0.384436,
          "velocity": 0.669291
        },
        {
          "time": 644.732231,
          "name": "B1",
          "midi": 35,
          "duration": 0.193548,
          "velocity": 0.88189
        },
        {
          "time": 645.107604,
          "name": "B2",
          "midi": 47,
          "duration": 0.181269,
          "velocity": 0.96063
        },
        {
          "time": 645.113646,
          "name": "B1",
          "midi": 35,
          "duration": 0.181269,
          "velocity": 1
        },
        {
          "time": 645.116667,
          "name": "C#2",
          "midi": 37,
          "duration": 0.365199,
          "velocity": 0.669291
        },
        {
          "time": 645.116667,
          "name": "C2",
          "midi": 36,
          "duration": 0.365199,
          "velocity": 0.669291
        },
        {
          "time": 645.116667,
          "name": "B1",
          "midi": 35,
          "duration": 0.181269,
          "velocity": 0.88189
        },
        {
          "time": 645.472188,
          "name": "E3",
          "midi": 52,
          "duration": 0.38505,
          "velocity": 0.96063
        },
        {
          "time": 645.475414,
          "name": "G2",
          "midi": 43,
          "duration": 0.096774,
          "velocity": 0.590551
        },
        {
          "time": 645.47864,
          "name": "E2",
          "midi": 40,
          "duration": 0.384641,
          "velocity": 1
        },
        {
          "time": 645.481866,
          "name": "C#2",
          "midi": 37,
          "duration": 0.384436,
          "velocity": 0.669291
        },
        {
          "time": 645.481866,
          "name": "C2",
          "midi": 36,
          "duration": 0.384436,
          "velocity": 0.669291
        },
        {
          "time": 645.481866,
          "name": "E2",
          "midi": 40,
          "duration": 0.384436,
          "velocity": 0.88189
        },
        {
          "time": 645.572188,
          "name": "G2",
          "midi": 43,
          "duration": 0.096774,
          "velocity": 0.590551
        },
        {
          "time": 645.668963,
          "name": "G2",
          "midi": 43,
          "duration": 0.096774,
          "velocity": 0.590551
        },
        {
          "time": 645.765737,
          "name": "G2",
          "midi": 43,
          "duration": 0.094523,
          "velocity": 0.590551
        },
        {
          "time": 645.857239,
          "name": "F3",
          "midi": 53,
          "duration": 0.364585,
          "velocity": 0.96063
        },
        {
          "time": 645.86026,
          "name": "G2",
          "midi": 43,
          "duration": 0.090635,
          "velocity": 0.590551
        },
        {
          "time": 645.863281,
          "name": "F2",
          "midi": 41,
          "duration": 0.364994,
          "velocity": 1
        },
        {
          "time": 645.866302,
          "name": "F2",
          "midi": 41,
          "duration": 0.365199,
          "velocity": 0.88189
        },
        {
          "time": 645.950894,
          "name": "G2",
          "midi": 43,
          "duration": 0.090634,
          "velocity": 0.590551
        },
        {
          "time": 646.041529,
          "name": "G2",
          "midi": 43,
          "duration": 0.090634,
          "velocity": 0.590551
        },
        {
          "time": 646.132163,
          "name": "G2",
          "midi": 43,
          "duration": 0.092886,
          "velocity": 0.590551
        },
        {
          "time": 646.221823,
          "name": "E3",
          "midi": 52,
          "duration": 0.38505,
          "velocity": 0.96063
        },
        {
          "time": 646.225049,
          "name": "G2",
          "midi": 43,
          "duration": 0.096774,
          "velocity": 0.590551
        },
        {
          "time": 646.228275,
          "name": "E2",
          "midi": 40,
          "duration": 0.384641,
          "velocity": 1
        },
        {
          "time": 646.231501,
          "name": "E2",
          "midi": 40,
          "duration": 0.384436,
          "velocity": 0.88189
        },
        {
          "time": 646.321823,
          "name": "G2",
          "midi": 43,
          "duration": 0.096774,
          "velocity": 0.590551
        },
        {
          "time": 646.418598,
          "name": "G2",
          "midi": 43,
          "duration": 0.096774,
          "velocity": 0.590551
        },
        {
          "time": 646.515372,
          "name": "G2",
          "midi": 43,
          "duration": 0.094523,
          "velocity": 0.590551
        },
        {
          "time": 646.606874,
          "name": "D#3",
          "midi": 51,
          "duration": 0.364585,
          "velocity": 0.96063
        },
        {
          "time": 646.609895,
          "name": "G2",
          "midi": 43,
          "duration": 0.090635,
          "velocity": 0.590551
        },
        {
          "time": 646.612916,
          "name": "D#2",
          "midi": 39,
          "duration": 0.364994,
          "velocity": 1
        },
        {
          "time": 646.615937,
          "name": "D#2",
          "midi": 39,
          "duration": 0.365199,
          "velocity": 0.88189
        },
        {
          "time": 646.700529,
          "name": "G2",
          "midi": 43,
          "duration": 0.090634,
          "velocity": 0.590551
        },
        {
          "time": 646.791164,
          "name": "G2",
          "midi": 43,
          "duration": 0.090634,
          "velocity": 0.590551
        },
        {
          "time": 646.881798,
          "name": "G2",
          "midi": 43,
          "duration": 0.092886,
          "velocity": 0.590551
        },
        {
          "time": 646.971458,
          "name": "D3",
          "midi": 50,
          "duration": 0.38505,
          "velocity": 0.96063
        },
        {
          "time": 646.974684,
          "name": "G2",
          "midi": 43,
          "duration": 0.096774,
          "velocity": 0.590551
        },
        {
          "time": 646.97791,
          "name": "D2",
          "midi": 38,
          "duration": 0.384641,
          "velocity": 1
        },
        {
          "time": 646.981136,
          "name": "D2",
          "midi": 38,
          "duration": 0.384436,
          "velocity": 0.88189
        },
        {
          "time": 647.071458,
          "name": "G2",
          "midi": 43,
          "duration": 0.096774,
          "velocity": 0.590551
        },
        {
          "time": 647.168233,
          "name": "G2",
          "midi": 43,
          "duration": 0.096774,
          "velocity": 0.590551
        },
        {
          "time": 647.265007,
          "name": "G2",
          "midi": 43,
          "duration": 0.094523,
          "velocity": 0.590551
        },
        {
          "time": 647.356509,
          "name": "F3",
          "midi": 53,
          "duration": 0.364585,
          "velocity": 0.96063
        },
        {
          "time": 647.35953,
          "name": "G2",
          "midi": 43,
          "duration": 0.090635,
          "velocity": 0.590551
        },
        {
          "time": 647.362551,
          "name": "F2",
          "midi": 41,
          "duration": 0.364994,
          "velocity": 1
        },
        {
          "time": 647.365572,
          "name": "F2",
          "midi": 41,
          "duration": 0.365199,
          "velocity": 0.88189
        },
        {
          "time": 647.450164,
          "name": "G2",
          "midi": 43,
          "duration": 0.090634,
          "velocity": 0.590551
        },
        {
          "time": 647.540799,
          "name": "G2",
          "midi": 43,
          "duration": 0.090634,
          "velocity": 0.590551
        },
        {
          "time": 647.631433,
          "name": "G2",
          "midi": 43,
          "duration": 0.092886,
          "velocity": 0.590551
        },
        {
          "time": 647.721093,
          "name": "E3",
          "midi": 52,
          "duration": 0.38505,
          "velocity": 0.96063
        },
        {
          "time": 647.724319,
          "name": "G2",
          "midi": 43,
          "duration": 0.096774,
          "velocity": 0.590551
        },
        {
          "time": 647.727545,
          "name": "E2",
          "midi": 40,
          "duration": 0.384641,
          "velocity": 1
        },
        {
          "time": 647.730771,
          "name": "E2",
          "midi": 40,
          "duration": 0.384436,
          "velocity": 0.88189
        },
        {
          "time": 647.821093,
          "name": "G2",
          "midi": 43,
          "duration": 0.096774,
          "velocity": 0.590551
        },
        {
          "time": 647.917868,
          "name": "G2",
          "midi": 43,
          "duration": 0.096774,
          "velocity": 0.590551
        },
        {
          "time": 648.014642,
          "name": "G2",
          "midi": 43,
          "duration": 0.094523,
          "velocity": 0.590551
        },
        {
          "time": 648.106144,
          "name": "D#3",
          "midi": 51,
          "duration": 0.364585,
          "velocity": 0.96063
        },
        {
          "time": 648.109165,
          "name": "G2",
          "midi": 43,
          "duration": 0.090635,
          "velocity": 0.590551
        },
        {
          "time": 648.112186,
          "name": "D#2",
          "midi": 39,
          "duration": 0.364994,
          "velocity": 1
        },
        {
          "time": 648.115207,
          "name": "D#2",
          "midi": 39,
          "duration": 0.365199,
          "velocity": 0.88189
        },
        {
          "time": 648.199799,
          "name": "G2",
          "midi": 43,
          "duration": 0.090634,
          "velocity": 0.590551
        },
        {
          "time": 648.290434,
          "name": "G2",
          "midi": 43,
          "duration": 0.090634,
          "velocity": 0.590551
        },
        {
          "time": 648.381068,
          "name": "G2",
          "midi": 43,
          "duration": 0.092886,
          "velocity": 0.590551
        },
        {
          "time": 648.470728,
          "name": "D3",
          "midi": 50,
          "duration": 0.38505,
          "velocity": 0.96063
        },
        {
          "time": 648.473954,
          "name": "D3",
          "midi": 50,
          "duration": 0.193549,
          "velocity": 0.590551
        },
        {
          "time": 648.47718,
          "name": "D2",
          "midi": 38,
          "duration": 0.384641,
          "velocity": 1
        },
        {
          "time": 648.480406,
          "name": "C#2",
          "midi": 37,
          "duration": 0.384436,
          "velocity": 0.669291
        },
        {
          "time": 648.480406,
          "name": "C2",
          "midi": 36,
          "duration": 0.384436,
          "velocity": 0.669291
        },
        {
          "time": 648.480406,
          "name": "D2",
          "midi": 38,
          "duration": 0.384436,
          "velocity": 0.88189
        },
        {
          "time": 649.220363,
          "name": "E3",
          "midi": 52,
          "duration": 0.38505,
          "velocity": 0.96063
        },
        {
          "time": 649.223589,
          "name": "G2",
          "midi": 43,
          "duration": 0.384846,
          "velocity": 0.590551
        },
        {
          "time": 649.226815,
          "name": "E2",
          "midi": 40,
          "duration": 0.384641,
          "velocity": 1
        },
        {
          "time": 649.230041,
          "name": "C#2",
          "midi": 37,
          "duration": 0.384436,
          "velocity": 0.669291
        },
        {
          "time": 649.230041,
          "name": "C2",
          "midi": 36,
          "duration": 0.384436,
          "velocity": 0.669291
        },
        {
          "time": 649.230041,
          "name": "E2",
          "midi": 40,
          "duration": 0.384436,
          "velocity": 0.88189
        },
        {
          "time": 649.969998,
          "name": "C3",
          "midi": 48,
          "duration": 0.38505,
          "velocity": 0.96063
        },
        {
          "time": 649.97645,
          "name": "C2",
          "midi": 36,
          "duration": 0.384641,
          "velocity": 1
        },
        {
          "time": 649.979676,
          "name": "C#2",
          "midi": 37,
          "duration": 0.384436,
          "velocity": 0.669291
        },
        {
          "time": 649.979676,
          "name": "C2",
          "midi": 36,
          "duration": 0.384436,
          "velocity": 0.669291
        },
        {
          "time": 649.979676,
          "name": "C2",
          "midi": 36,
          "duration": 0.384436,
          "velocity": 0.88189
        },
        {
          "time": 650.719633,
          "name": "D3",
          "midi": 50,
          "duration": 0.38505,
          "velocity": 0.96063
        },
        {
          "time": 650.722859,
          "name": "D3",
          "midi": 50,
          "duration": 0.384846,
          "velocity": 0.590551
        },
        {
          "time": 650.726085,
          "name": "D2",
          "midi": 38,
          "duration": 0.384641,
          "velocity": 1
        },
        {
          "time": 650.729311,
          "name": "C#2",
          "midi": 37,
          "duration": 0.384436,
          "velocity": 0.669291
        },
        {
          "time": 650.729311,
          "name": "C2",
          "midi": 36,
          "duration": 0.384436,
          "velocity": 0.669291
        },
        {
          "time": 650.729311,
          "name": "D2",
          "midi": 38,
          "duration": 0.384436,
          "velocity": 0.88189
        },
        {
          "time": 651.469268,
          "name": "E3",
          "midi": 52,
          "duration": 0.38505,
          "velocity": 0.96063
        },
        {
          "time": 651.472494,
          "name": "G2",
          "midi": 43,
          "duration": 0.096774,
          "velocity": 0.590551
        },
        {
          "time": 651.47572,
          "name": "E2",
          "midi": 40,
          "duration": 0.384641,
          "velocity": 1
        },
        {
          "time": 651.478946,
          "name": "C#2",
          "midi": 37,
          "duration": 0.384436,
          "velocity": 0.669291
        },
        {
          "time": 651.478946,
          "name": "C2",
          "midi": 36,
          "duration": 0.384436,
          "velocity": 0.669291
        },
        {
          "time": 651.478946,
          "name": "E2",
          "midi": 40,
          "duration": 0.384436,
          "velocity": 0.88189
        },
        {
          "time": 651.569268,
          "name": "G2",
          "midi": 43,
          "duration": 0.096774,
          "velocity": 0.590551
        },
        {
          "time": 651.666043,
          "name": "G2",
          "midi": 43,
          "duration": 0.096774,
          "velocity": 0.590551
        },
        {
          "time": 651.762817,
          "name": "G2",
          "midi": 43,
          "duration": 0.094523,
          "velocity": 0.590551
        },
        {
          "time": 651.854319,
          "name": "F3",
          "midi": 53,
          "duration": 0.364585,
          "velocity": 0.96063
        },
        {
          "time": 651.85734,
          "name": "G2",
          "midi": 43,
          "duration": 0.090635,
          "velocity": 0.590551
        },
        {
          "time": 651.860361,
          "name": "F2",
          "midi": 41,
          "duration": 0.364994,
          "velocity": 1
        },
        {
          "time": 651.863382,
          "name": "F2",
          "midi": 41,
          "duration": 0.365199,
          "velocity": 0.88189
        },
        {
          "time": 651.947974,
          "name": "G2",
          "midi": 43,
          "duration": 0.090634,
          "velocity": 0.590551
        },
        {
          "time": 652.038609,
          "name": "G2",
          "midi": 43,
          "duration": 0.090634,
          "velocity": 0.590551
        },
        {
          "time": 652.129243,
          "name": "G2",
          "midi": 43,
          "duration": 0.092886,
          "velocity": 0.590551
        },
        {
          "time": 652.218903,
          "name": "E3",
          "midi": 52,
          "duration": 0.38505,
          "velocity": 0.96063
        },
        {
          "time": 652.222129,
          "name": "G2",
          "midi": 43,
          "duration": 0.096774,
          "velocity": 0.590551
        },
        {
          "time": 652.225355,
          "name": "E2",
          "midi": 40,
          "duration": 0.384641,
          "velocity": 1
        },
        {
          "time": 652.228581,
          "name": "E2",
          "midi": 40,
          "duration": 0.384436,
          "velocity": 0.88189
        },
        {
          "time": 652.318903,
          "name": "G2",
          "midi": 43,
          "duration": 0.096774,
          "velocity": 0.590551
        },
        {
          "time": 652.415678,
          "name": "G2",
          "midi": 43,
          "duration": 0.096774,
          "velocity": 0.590551
        },
        {
          "time": 652.512452,
          "name": "G2",
          "midi": 43,
          "duration": 0.094523,
          "velocity": 0.590551
        },
        {
          "time": 652.603954,
          "name": "D#3",
          "midi": 51,
          "duration": 0.364585,
          "velocity": 0.96063
        },
        {
          "time": 652.606975,
          "name": "G2",
          "midi": 43,
          "duration": 0.090635,
          "velocity": 0.590551
        },
        {
          "time": 652.609996,
          "name": "D#2",
          "midi": 39,
          "duration": 0.364994,
          "velocity": 1
        },
        {
          "time": 652.613017,
          "name": "D#2",
          "midi": 39,
          "duration": 0.365199,
          "velocity": 0.88189
        },
        {
          "time": 652.697609,
          "name": "G2",
          "midi": 43,
          "duration": 0.090634,
          "velocity": 0.590551
        },
        {
          "time": 652.788244,
          "name": "G2",
          "midi": 43,
          "duration": 0.090634,
          "velocity": 0.590551
        },
        {
          "time": 652.878878,
          "name": "G2",
          "midi": 43,
          "duration": 0.092886,
          "velocity": 0.590551
        },
        {
          "time": 652.968538,
          "name": "D3",
          "midi": 50,
          "duration": 0.38505,
          "velocity": 0.96063
        },
        {
          "time": 652.971764,
          "name": "G2",
          "midi": 43,
          "duration": 0.096774,
          "velocity": 0.590551
        },
        {
          "time": 652.97499,
          "name": "D2",
          "midi": 38,
          "duration": 0.384641,
          "velocity": 1
        },
        {
          "time": 652.978216,
          "name": "D2",
          "midi": 38,
          "duration": 0.384436,
          "velocity": 0.88189
        },
        {
          "time": 653.068538,
          "name": "G2",
          "midi": 43,
          "duration": 0.096774,
          "velocity": 0.590551
        },
        {
          "time": 653.165313,
          "name": "G2",
          "midi": 43,
          "duration": 0.096774,
          "velocity": 0.590551
        },
        {
          "time": 653.262087,
          "name": "G2",
          "midi": 43,
          "duration": 0.094523,
          "velocity": 0.590551
        },
        {
          "time": 653.353589,
          "name": "F3",
          "midi": 53,
          "duration": 0.364585,
          "velocity": 0.96063
        },
        {
          "time": 653.35661,
          "name": "G2",
          "midi": 43,
          "duration": 0.090635,
          "velocity": 0.590551
        },
        {
          "time": 653.359631,
          "name": "F2",
          "midi": 41,
          "duration": 0.364994,
          "velocity": 1
        },
        {
          "time": 653.362652,
          "name": "F2",
          "midi": 41,
          "duration": 0.365199,
          "velocity": 0.88189
        },
        {
          "time": 653.447244,
          "name": "G2",
          "midi": 43,
          "duration": 0.090634,
          "velocity": 0.590551
        },
        {
          "time": 653.537879,
          "name": "G2",
          "midi": 43,
          "duration": 0.090634,
          "velocity": 0.590551
        },
        {
          "time": 653.628513,
          "name": "G2",
          "midi": 43,
          "duration": 0.092886,
          "velocity": 0.590551
        },
        {
          "time": 653.718173,
          "name": "E3",
          "midi": 52,
          "duration": 0.38505,
          "velocity": 0.96063
        },
        {
          "time": 653.721399,
          "name": "G2",
          "midi": 43,
          "duration": 0.096774,
          "velocity": 0.590551
        },
        {
          "time": 653.724625,
          "name": "E2",
          "midi": 40,
          "duration": 0.384641,
          "velocity": 1
        },
        {
          "time": 653.727851,
          "name": "E2",
          "midi": 40,
          "duration": 0.384436,
          "velocity": 0.88189
        },
        {
          "time": 653.818173,
          "name": "G2",
          "midi": 43,
          "duration": 0.096774,
          "velocity": 0.590551
        },
        {
          "time": 653.914948,
          "name": "G2",
          "midi": 43,
          "duration": 0.096774,
          "velocity": 0.590551
        },
        {
          "time": 654.011722,
          "name": "G2",
          "midi": 43,
          "duration": 0.094523,
          "velocity": 0.590551
        },
        {
          "time": 654.103224,
          "name": "D#3",
          "midi": 51,
          "duration": 0.364585,
          "velocity": 0.96063
        },
        {
          "time": 654.106245,
          "name": "G2",
          "midi": 43,
          "duration": 0.090635,
          "velocity": 0.590551
        },
        {
          "time": 654.109266,
          "name": "D#2",
          "midi": 39,
          "duration": 0.364994,
          "velocity": 1
        },
        {
          "time": 654.112287,
          "name": "D#2",
          "midi": 39,
          "duration": 0.365199,
          "velocity": 0.88189
        },
        {
          "time": 654.196879,
          "name": "G2",
          "midi": 43,
          "duration": 0.090634,
          "velocity": 0.590551
        },
        {
          "time": 654.287514,
          "name": "G2",
          "midi": 43,
          "duration": 0.090634,
          "velocity": 0.590551
        },
        {
          "time": 654.378148,
          "name": "G2",
          "midi": 43,
          "duration": 0.092886,
          "velocity": 0.590551
        },
        {
          "time": 654.467808,
          "name": "D3",
          "midi": 50,
          "duration": 0.38505,
          "velocity": 0.96063
        },
        {
          "time": 654.471034,
          "name": "D3",
          "midi": 50,
          "duration": 0.193549,
          "velocity": 0.590551
        },
        {
          "time": 654.47426,
          "name": "D2",
          "midi": 38,
          "duration": 0.384641,
          "velocity": 1
        },
        {
          "time": 654.477486,
          "name": "C#2",
          "midi": 37,
          "duration": 0.384436,
          "velocity": 0.669291
        },
        {
          "time": 654.477486,
          "name": "C2",
          "midi": 36,
          "duration": 0.384436,
          "velocity": 0.669291
        },
        {
          "time": 654.477486,
          "name": "D2",
          "midi": 38,
          "duration": 0.384436,
          "velocity": 0.88189
        },
        {
          "time": 655.217443,
          "name": "E3",
          "midi": 52,
          "duration": 0.38505,
          "velocity": 0.96063
        },
        {
          "time": 655.220669,
          "name": "G2",
          "midi": 43,
          "duration": 0.384846,
          "velocity": 0.590551
        },
        {
          "time": 655.223895,
          "name": "E2",
          "midi": 40,
          "duration": 0.384641,
          "velocity": 1
        },
        {
          "time": 655.227121,
          "name": "C#2",
          "midi": 37,
          "duration": 0.384436,
          "velocity": 0.669291
        },
        {
          "time": 655.227121,
          "name": "C2",
          "midi": 36,
          "duration": 0.384436,
          "velocity": 0.669291
        },
        {
          "time": 655.227121,
          "name": "E2",
          "midi": 40,
          "duration": 0.384436,
          "velocity": 0.88189
        },
        {
          "time": 655.967078,
          "name": "C3",
          "midi": 48,
          "duration": 0.38505,
          "velocity": 0.96063
        },
        {
          "time": 655.97353,
          "name": "C2",
          "midi": 36,
          "duration": 0.384641,
          "velocity": 1
        },
        {
          "time": 655.976756,
          "name": "C#2",
          "midi": 37,
          "duration": 0.384436,
          "velocity": 0.669291
        },
        {
          "time": 655.976756,
          "name": "C2",
          "midi": 36,
          "duration": 0.384436,
          "velocity": 0.669291
        },
        {
          "time": 655.976756,
          "name": "C2",
          "midi": 36,
          "duration": 0.384436,
          "velocity": 0.88189
        },
        {
          "time": 656.716713,
          "name": "D3",
          "midi": 50,
          "duration": 0.38505,
          "velocity": 0.96063
        },
        {
          "time": 656.719939,
          "name": "D3",
          "midi": 50,
          "duration": 0.384846,
          "velocity": 0.590551
        },
        {
          "time": 656.723165,
          "name": "D2",
          "midi": 38,
          "duration": 0.384641,
          "velocity": 1
        },
        {
          "time": 656.726391,
          "name": "C#2",
          "midi": 37,
          "duration": 0.384436,
          "velocity": 0.669291
        },
        {
          "time": 656.726391,
          "name": "C2",
          "midi": 36,
          "duration": 0.384436,
          "velocity": 0.669291
        },
        {
          "time": 656.726391,
          "name": "D2",
          "midi": 38,
          "duration": 0.384436,
          "velocity": 0.88189
        },
        {
          "time": 657.466348,
          "name": "G3",
          "midi": 55,
          "duration": 0.38505,
          "velocity": 0.96063
        },
        {
          "time": 657.469574,
          "name": "G2",
          "midi": 43,
          "duration": 0.384846,
          "velocity": 0.590551
        },
        {
          "time": 657.4728,
          "name": "G2",
          "midi": 43,
          "duration": 0.384641,
          "velocity": 1
        },
        {
          "time": 657.476026,
          "name": "C#2",
          "midi": 37,
          "duration": 0.384436,
          "velocity": 0.669291
        },
        {
          "time": 657.476026,
          "name": "C2",
          "midi": 36,
          "duration": 0.384436,
          "velocity": 0.669291
        },
        {
          "time": 657.476026,
          "name": "G2",
          "midi": 43,
          "duration": 0.384436,
          "velocity": 0.88189
        },
        {
          "time": 657.851399,
          "name": "D3",
          "midi": 50,
          "duration": 0.364585,
          "velocity": 0.96063
        },
        {
          "time": 657.85442,
          "name": "D3",
          "midi": 50,
          "duration": 0.364789,
          "velocity": 0.590551
        },
        {
          "time": 657.857441,
          "name": "D2",
          "midi": 38,
          "duration": 0.364994,
          "velocity": 1
        },
        {
          "time": 657.860462,
          "name": "C#2",
          "midi": 37,
          "duration": 0.365199,
          "velocity": 0.669291
        },
        {
          "time": 657.860462,
          "name": "C2",
          "midi": 36,
          "duration": 0.365199,
          "velocity": 0.669291
        },
        {
          "time": 657.860462,
          "name": "D2",
          "midi": 38,
          "duration": 0.365199,
          "velocity": 0.88189
        },
        {
          "time": 658.215983,
          "name": "G3",
          "midi": 55,
          "duration": 0.38505,
          "velocity": 0.96063
        },
        {
          "time": 658.219209,
          "name": "G2",
          "midi": 43,
          "duration": 0.384846,
          "velocity": 0.590551
        },
        {
          "time": 658.222435,
          "name": "G2",
          "midi": 43,
          "duration": 0.384641,
          "velocity": 1
        },
        {
          "time": 658.225661,
          "name": "C#2",
          "midi": 37,
          "duration": 0.384436,
          "velocity": 0.669291
        },
        {
          "time": 658.225661,
          "name": "C2",
          "midi": 36,
          "duration": 0.384436,
          "velocity": 0.669291
        },
        {
          "time": 658.225661,
          "name": "G2",
          "midi": 43,
          "duration": 0.384436,
          "velocity": 0.88189
        },
        {
          "time": 658.601034,
          "name": "D3",
          "midi": 50,
          "duration": 0.364585,
          "velocity": 0.96063
        },
        {
          "time": 658.604055,
          "name": "D3",
          "midi": 50,
          "duration": 0.364789,
          "velocity": 0.590551
        },
        {
          "time": 658.607076,
          "name": "D2",
          "midi": 38,
          "duration": 0.364994,
          "velocity": 1
        },
        {
          "time": 658.610097,
          "name": "C#2",
          "midi": 37,
          "duration": 0.365199,
          "velocity": 0.669291
        },
        {
          "time": 658.610097,
          "name": "C2",
          "midi": 36,
          "duration": 0.365199,
          "velocity": 0.669291
        },
        {
          "time": 658.610097,
          "name": "D2",
          "midi": 38,
          "duration": 0.365199,
          "velocity": 0.88189
        },
        {
          "time": 658.965618,
          "name": "G3",
          "midi": 55,
          "duration": 0.38505,
          "velocity": 0.96063
        },
        {
          "time": 658.968844,
          "name": "G2",
          "midi": 43,
          "duration": 0.384846,
          "velocity": 0.590551
        },
        {
          "time": 658.97207,
          "name": "G2",
          "midi": 43,
          "duration": 0.384641,
          "velocity": 1
        },
        {
          "time": 658.975296,
          "name": "C#2",
          "midi": 37,
          "duration": 0.384436,
          "velocity": 0.669291
        },
        {
          "time": 658.975296,
          "name": "C2",
          "midi": 36,
          "duration": 0.384436,
          "velocity": 0.669291
        },
        {
          "time": 658.975296,
          "name": "G2",
          "midi": 43,
          "duration": 0.384436,
          "velocity": 0.88189
        },
        {
          "time": 659.350669,
          "name": "D3",
          "midi": 50,
          "duration": 0.364585,
          "velocity": 0.96063
        },
        {
          "time": 659.35369,
          "name": "D3",
          "midi": 50,
          "duration": 0.364789,
          "velocity": 0.590551
        },
        {
          "time": 659.356711,
          "name": "D2",
          "midi": 38,
          "duration": 0.364994,
          "velocity": 1
        },
        {
          "time": 659.359732,
          "name": "C#2",
          "midi": 37,
          "duration": 0.365199,
          "velocity": 0.669291
        },
        {
          "time": 659.359732,
          "name": "C2",
          "midi": 36,
          "duration": 0.365199,
          "velocity": 0.669291
        },
        {
          "time": 659.359732,
          "name": "D2",
          "midi": 38,
          "duration": 0.365199,
          "velocity": 0.88189
        },
        {
          "time": 659.715253,
          "name": "G3",
          "midi": 55,
          "duration": 0.38505,
          "velocity": 0.96063
        },
        {
          "time": 659.718479,
          "name": "G2",
          "midi": 43,
          "duration": 0.384846,
          "velocity": 0.590551
        },
        {
          "time": 659.721705,
          "name": "G2",
          "midi": 43,
          "duration": 0.384641,
          "velocity": 1
        },
        {
          "time": 659.724931,
          "name": "C#2",
          "midi": 37,
          "duration": 0.384436,
          "velocity": 0.669291
        },
        {
          "time": 659.724931,
          "name": "C2",
          "midi": 36,
          "duration": 0.384436,
          "velocity": 0.669291
        },
        {
          "time": 659.724931,
          "name": "G2",
          "midi": 43,
          "duration": 0.384436,
          "velocity": 0.88189
        },
        {
          "time": 660.100304,
          "name": "D3",
          "midi": 50,
          "duration": 0.364585,
          "velocity": 0.96063
        },
        {
          "time": 660.103325,
          "name": "D3",
          "midi": 50,
          "duration": 0.364789,
          "velocity": 0.590551
        },
        {
          "time": 660.106346,
          "name": "D2",
          "midi": 38,
          "duration": 0.364994,
          "velocity": 1
        },
        {
          "time": 660.109367,
          "name": "C#2",
          "midi": 37,
          "duration": 0.365199,
          "velocity": 0.669291
        },
        {
          "time": 660.109367,
          "name": "C2",
          "midi": 36,
          "duration": 0.365199,
          "velocity": 0.669291
        },
        {
          "time": 660.109367,
          "name": "D2",
          "midi": 38,
          "duration": 0.365199,
          "velocity": 0.88189
        },
        {
          "time": 660.464888,
          "name": "G3",
          "midi": 55,
          "duration": 0.38505,
          "velocity": 0.96063
        },
        {
          "time": 660.468114,
          "name": "G2",
          "midi": 43,
          "duration": 0.384846,
          "velocity": 0.590551
        },
        {
          "time": 660.47134,
          "name": "G2",
          "midi": 43,
          "duration": 0.384641,
          "velocity": 1
        },
        {
          "time": 660.474566,
          "name": "C#2",
          "midi": 37,
          "duration": 0.384436,
          "velocity": 0.669291
        },
        {
          "time": 660.474566,
          "name": "C2",
          "midi": 36,
          "duration": 0.384436,
          "velocity": 0.669291
        },
        {
          "time": 660.474566,
          "name": "G2",
          "midi": 43,
          "duration": 0.384436,
          "velocity": 0.88189
        },
        {
          "time": 660.849939,
          "name": "G3",
          "midi": 55,
          "duration": 0.364585,
          "velocity": 0.96063
        },
        {
          "time": 660.85296,
          "name": "G2",
          "midi": 43,
          "duration": 0.364789,
          "velocity": 0.590551
        },
        {
          "time": 660.855981,
          "name": "G3",
          "midi": 55,
          "duration": 0.364994,
          "velocity": 1
        },
        {
          "time": 660.859002,
          "name": "C#2",
          "midi": 37,
          "duration": 0.365199,
          "velocity": 0.669291
        },
        {
          "time": 660.859002,
          "name": "C2",
          "midi": 36,
          "duration": 0.365199,
          "velocity": 0.669291
        },
        {
          "time": 660.859002,
          "name": "G2",
          "midi": 43,
          "duration": 0.365199,
          "velocity": 0.88189
        },
        {
          "time": 661.214523,
          "name": "D3",
          "midi": 50,
          "duration": 0.38505,
          "velocity": 0.96063
        },
        {
          "time": 661.217749,
          "name": "G2",
          "midi": 43,
          "duration": 0.384846,
          "velocity": 0.590551
        },
        {
          "time": 661.220975,
          "name": "D3",
          "midi": 50,
          "duration": 0.384641,
          "velocity": 1
        },
        {
          "time": 661.224201,
          "name": "C#2",
          "midi": 37,
          "duration": 0.384436,
          "velocity": 0.669291
        },
        {
          "time": 661.224201,
          "name": "C2",
          "midi": 36,
          "duration": 0.384436,
          "velocity": 0.669291
        },
        {
          "time": 661.224201,
          "name": "D2",
          "midi": 38,
          "duration": 0.384436,
          "velocity": 0.88189
        },
        {
          "time": 661.599574,
          "name": "B2",
          "midi": 47,
          "duration": 0.364585,
          "velocity": 0.96063
        },
        {
          "time": 661.602595,
          "name": "G2",
          "midi": 43,
          "duration": 0.364789,
          "velocity": 0.590551
        },
        {
          "time": 661.605616,
          "name": "B2",
          "midi": 47,
          "duration": 0.364994,
          "velocity": 1
        },
        {
          "time": 661.608637,
          "name": "C#2",
          "midi": 37,
          "duration": 0.365199,
          "velocity": 0.669291
        },
        {
          "time": 661.608637,
          "name": "C2",
          "midi": 36,
          "duration": 0.365199,
          "velocity": 0.669291
        },
        {
          "time": 661.608637,
          "name": "B1",
          "midi": 35,
          "duration": 0.365199,
          "velocity": 0.88189
        },
        {
          "time": 661.964158,
          "name": "G2",
          "midi": 43,
          "duration": 0.386089,
          "velocity": 0.96063
        },
        {
          "time": 661.967384,
          "name": "G2",
          "midi": 43,
          "duration": 0.385988,
          "velocity": 0.590551
        },
        {
          "time": 661.97061,
          "name": "G2",
          "midi": 43,
          "duration": 0.385887,
          "velocity": 1
        },
        {
          "time": 661.973836,
          "name": "C#2",
          "midi": 37,
          "duration": 0.385786,
          "velocity": 0.669291
        },
        {
          "time": 661.973836,
          "name": "C2",
          "midi": 36,
          "duration": 0.385786,
          "velocity": 0.669291
        },
        {
          "time": 661.973836,
          "name": "G1",
          "midi": 31,
          "duration": 0.385786,
          "velocity": 0.88189
        },
        {
          "time": 662.350247,
          "name": "G3",
          "midi": 55,
          "duration": 0.377648,
          "velocity": 0.96063
        },
        {
          "time": 662.353372,
          "name": "G2",
          "midi": 43,
          "duration": 0.377913,
          "velocity": 0.590551
        },
        {
          "time": 662.356497,
          "name": "G3",
          "midi": 55,
          "duration": 0.378178,
          "velocity": 1
        },
        {
          "time": 662.359622,
          "name": "C#2",
          "midi": 37,
          "duration": 0.378443,
          "velocity": 0.669291
        },
        {
          "time": 662.359622,
          "name": "C2",
          "midi": 36,
          "duration": 0.378443,
          "velocity": 0.669291
        },
        {
          "time": 662.359622,
          "name": "G2",
          "midi": 43,
          "duration": 0.378443,
          "velocity": 0.88189
        },
        {
          "time": 662.727896,
          "name": "D3",
          "midi": 50,
          "duration": 0.408217,
          "velocity": 0.96063
        },
        {
          "time": 662.731285,
          "name": "G2",
          "midi": 43,
          "duration": 0.408361,
          "velocity": 0.590551
        },
        {
          "time": 662.734675,
          "name": "D3",
          "midi": 50,
          "duration": 0.408505,
          "velocity": 1
        },
        {
          "time": 662.738065,
          "name": "C#2",
          "midi": 37,
          "duration": 0.408649,
          "velocity": 0.669291
        },
        {
          "time": 662.738065,
          "name": "C2",
          "midi": 36,
          "duration": 0.408649,
          "velocity": 0.669291
        },
        {
          "time": 662.738065,
          "name": "D2",
          "midi": 38,
          "duration": 0.408649,
          "velocity": 0.88189
        },
        {
          "time": 663.136113,
          "name": "B2",
          "midi": 47,
          "duration": 0.425457,
          "velocity": 0.96063
        },
        {
          "time": 663.139646,
          "name": "G2",
          "midi": 43,
          "duration": 0.4256,
          "velocity": 0.590551
        },
        {
          "time": 663.14318,
          "name": "B2",
          "midi": 47,
          "duration": 0.425743,
          "velocity": 1
        },
        {
          "time": 663.146714,
          "name": "C#2",
          "midi": 37,
          "duration": 0.425886,
          "velocity": 0.669291
        },
        {
          "time": 663.146714,
          "name": "C2",
          "midi": 36,
          "duration": 0.425886,
          "velocity": 0.669291
        },
        {
          "time": 663.146714,
          "name": "B1",
          "midi": 35,
          "duration": 0.425886,
          "velocity": 0.88189
        },
        {
          "time": 663.56157,
          "name": "G2",
          "midi": 43,
          "duration": 0.442726,
          "velocity": 0.96063
        },
        {
          "time": 663.565246,
          "name": "G2",
          "midi": 43,
          "duration": 0.44288,
          "velocity": 0.590551
        },
        {
          "time": 663.568923,
          "name": "G2",
          "midi": 43,
          "duration": 0.443035,
          "velocity": 1
        },
        {
          "time": 663.572599,
          "name": "C#2",
          "midi": 37,
          "duration": 0.44319,
          "velocity": 0.669291
        },
        {
          "time": 663.572599,
          "name": "C2",
          "midi": 36,
          "duration": 0.44319,
          "velocity": 0.669291
        },
        {
          "time": 663.572599,
          "name": "G1",
          "midi": 31,
          "duration": 0.44319,
          "velocity": 0.88189
        },
        {
          "time": 664.466568,
          "name": "G2",
          "midi": 43,
          "duration": 0.489796,
          "velocity": 0.96063
        },
        {
          "time": 664.470649,
          "name": "G2",
          "midi": 43,
          "duration": 0.489796,
          "velocity": 0.590551
        },
        {
          "time": 664.474731,
          "name": "G2",
          "midi": 43,
          "duration": 0.489796,
          "velocity": 1
        },
        {
          "time": 664.478812,
          "name": "C#2",
          "midi": 37,
          "duration": 0.489796,
          "velocity": 0.669291
        },
        {
          "time": 664.478812,
          "name": "C2",
          "midi": 36,
          "duration": 0.489796,
          "velocity": 0.669291
        },
        {
          "time": 664.478812,
          "name": "G2",
          "midi": 43,
          "duration": 0.489796,
          "velocity": 0.88189
        },
        {
          "time": 665.455343,
          "name": "G2",
          "midi": 43,
          "duration": 1.633333,
          "velocity": 0.96063
        },
        {
          "time": 665.460343,
          "name": "G2",
          "midi": 43,
          "duration": 0.15,
          "velocity": 0.433071
        },
        {
          "time": 665.465343,
          "name": "G2",
          "midi": 43,
          "duration": 1.64,
          "velocity": 1
        },
        {
          "time": 665.470343,
          "name": "C#2",
          "midi": 37,
          "duration": 0.643333,
          "velocity": 0.669291
        },
        {
          "time": 665.470343,
          "name": "C2",
          "midi": 36,
          "duration": 0.643333,
          "velocity": 0.669291
        },
        {
          "time": 665.470343,
          "name": "G1",
          "midi": 31,
          "duration": 1.643333,
          "velocity": 0.88189
        },
        {
          "time": 665.610343,
          "name": "G2",
          "midi": 43,
          "duration": 0.15,
          "velocity": 0.456693
        },
        {
          "time": 665.760343,
          "name": "G2",
          "midi": 43,
          "duration": 0.15,
          "velocity": 0.488189
        },
        {
          "time": 665.910343,
          "name": "G2",
          "midi": 43,
          "duration": 0.186667,
          "velocity": 0.519685
        },
        {
          "time": 666.09701,
          "name": "G2",
          "midi": 43,
          "duration": 0.125,
          "velocity": 0.551181
        },
        {
          "time": 666.22201,
          "name": "G2",
          "midi": 43,
          "duration": 0.125,
          "velocity": 0.559055
        },
        {
          "time": 666.34701,
          "name": "G2",
          "midi": 43,
          "duration": 0.125,
          "velocity": 0.574803
        },
        {
          "time": 666.47201,
          "name": "G2",
          "midi": 43,
          "duration": 0.125,
          "velocity": 0.590551
        },
        {
          "time": 666.59701,
          "name": "G2",
          "midi": 43,
          "duration": 0.125,
          "velocity": 0.606299
        },
        {
          "time": 666.72201,
          "name": "G2",
          "midi": 43,
          "duration": 0.125,
          "velocity": 0.622047
        },
        {
          "time": 666.84701,
          "name": "G2",
          "midi": 43,
          "duration": 0.125,
          "velocity": 0.637795
        },
        {
          "time": 666.97201,
          "name": "G2",
          "midi": 43,
          "duration": 0.125,
          "velocity": 0.653543
        }
      ]
    }
  ]
}
